<?xml version="1.0" encoding="UTF-8"?>
<svg id="Layer_1" xmlns="http://www.w3.org/2000/svg" version="1.1" viewBox="0 0 336 41.6">
  <!-- Generator: Adobe Illustrator 30.2.1, SVG Export Plug-In . SVG Version: 2.1.1 Build 1)  -->
  <defs>
    <style>
      .st0 {
        fill: #231f20;
      }

      .st1 {
        isolation: isolate;
      }

      .st2 {
        fill: #fafafa;
      }
    </style>
  </defs>
  <g class="st1">
    <g id="Layer_11" data-name="Layer_1">
      <rect class="st2" x="-26.9" y="-505.2" width="390" height="844"/>
      <g>
        <g>
          <path class="st0" d="M217.6,4.3c0,0,0,0,.1,0,2.2.2,4.2.4,6.2,1.4s5.6,4.1,6.7,6.5.6,3-1.4,2.9c-3.7-.2-4.5-4.4-7.3-6s-2.4-.8-3.6-1c-2.6-.3-5.2-.2-7.4,1.3s-3.8,3.5-4.7,6c-.6,1.7-1.1,4.4-.9,6.2s1.1,3.3,1.6,5c0,0,0,0,0,0,0-.2,0-.6,0-.9,0-2.5-.2-5.2,0-7.7,0-1.6.8-3.1,2.2-3.9,1.2-.8,2.5-1.4,3.7-2.2,2.1-1.2,4.1-3,6.7-1.8,2.3,1.3,4.6,2.5,6.8,3.9,1.4.9,2.3,2.1,2.4,3.8.2,2.6-.1,5.3,0,7.9,0,1.6-1,3-2.3,3.8-1.4.9-3.1,1.8-4.5,2.6s-.3.2-.3.2c0-.5.2-.9.2-1.4.5-3.3.5-7,0-10.3-.3-1.8-1-6-3.6-5.4-1.5.4-2,2-2.4,3.3-.8,2.6-1.1,5.5-1.6,8.2h0c-.3-1.4-.6-2.7-1-4.1s-.7-3.2-2.1-3.6c-2-.6-2.7,1.9-3,3.3s-.5,2.4-.7,3.6-.1,1,0,1.7-.1,1.3-.9.6-.7-.8-.9-1.3c-.7-1.3-1.2-2.6-1.8-3.8-.1-.2-.1.3-.1.4,0,3.2,1.8,5.9,3.9,8.1,1.6,1.6,3.1,2.6,5.3,3.2,4.2,1.2,7.8.8,11.5-1.6s3.1-3.6,4.8-5.5c.6-.7,2-1.2,2.7-.4,1.3,1.4-.2,3.9-1.2,5s-2.8,2.9-4.2,4c-2.1,1.7-5.4,2.7-8,2.8,0,0-.1,0-.1,0h-2.6c0,0,0,0-.1,0-3.3-.2-7.9-1.9-10.3-4.1-2.3-2.1-4.3-5.8-5.1-8.9-.5-1.7-.6-3.7-.7-5.5s0-.1,0-.1v-1.7c0,0,0,0,0-.1.2-1.6.3-3,.8-4.5.9-3.1,2.9-6.4,5.4-8.3s1.3-.9,1.2-.1-.4.9-.3,1.4c.1,0,.2,0,.4,0,.9-.3,1.9-1,2.9-1.4,2-.9,3.4-1.2,5.6-1.5,0,0,.1,0,.1,0h2.3ZM208.7,8.2s-.3,0-.4.1c-.8.4-2.4,2.1-2.7,2.9s0,.2,0,.2c.2,0,.4-.1.5-.2.7-.5,1.8-1.7,2.3-2.4s.4-.5.3-.6Z"/>
          <path class="st0" d="M232.5,13.8c0,0-.1,0-.2,0-.1,0-.6-.7-.7-.8-1.3-1.8-2.5-3.7-3.7-5.5-.3-.4-.8-1-1-1.5s0-.2,0-.3c.4,0,.7.3,1,.4,2.2,1.5,4.2,4.3,4.6,6.9s0,.1,0,.1v.6Z"/>
          <path class="st0" d="M218.7,19.3c.3,1.2.5,2.3.6,3.5.3,3.1.2,7.9-1,10.8,0,0,0,.2-.2.2s-.5,0-.6,0c-.6,0-1.3-.2-1.8-.5-2.1-1.1-4.2-2.5-6.3-3.6,0,0-.1,0-.1-.2.5-1.8,1-3.6,1.2-5.5h0c.1.5.3,1.1.4,1.6.3,1.3.7,2.8,1.1,4s1.3,2.5,2.7,1.9c1.6-.6,2-3.6,2.3-5s.6-3.7,1-5.5.2-1.1.4-1.6,0-.2.2-.2Z"/>
        </g>
        <g>
          <path class="st0" d="M21.1,7.1c0,0,.2,0,.2,0,.2-.1.5-.3.7-.4.4-.2.7-.4,1.1-.6.3-.2.6-.4,1-.6,0,0,0,0,.1,0,.3,0,.5-.2.7-.4,0,0,.2,0,.3-.1.2,0,.3,0,.4-.3.2-.2.6-.2.8,0,.2.2.3.5.2.8-.6,1.1-1.4,2-2.4,2.8-.5.4-.9.7-1.4,1.1-.3.2-.7.4-1.1.6-.3.1-.5.3-.8.4-.2,0-.4.1-.5.2,0,0,0,0,0,0-.4.2-.8.3-1.3.5-.3,0-.6.2-.8.3-.3,0-.7.1-1,.2-.2,0-.4.1-.5.2,0,0,0,.1,0,.2,0,.2,0,.3,0,.5,0,.3,0,.7,0,1,0,.2,0,.4,0,.5,0,.3.1.4.4.5.4,0,.8,0,1.2.2.2,0,.5.1.7.2.2,0,.3.2.4.2.1,0,.2,0,.4,0,.4-.2.9-.4,1.3-.6.3-.1.6-.3.9-.4.2,0,.3-.2.2-.4-.3-.5-.3-1.1,0-1.6.2-.4.5-.7,1-.9.3-.1.7-.2,1-.2.7,0,1.2.3,1.6.9.2.3.3.6.3,1,0,.2.1.3.3.3.7-.1,1.4-.1,2.1-.1.6,0,1.2,0,1.7,0,.4,0,.7,0,1.1.1.2,0,.3,0,.3-.3,0-.7.6-1.5,1.2-1.7.3-.1.6-.2.9-.2.7,0,1.3.3,1.6.9.4.6.4,1.2,0,1.8-.1.2,0,.3.2.4.9.3,1.8.8,2.7,1.2,0,0,.1.1.2.2.2,0,.3,0,.3-.1,0-.2.2-.4.3-.7.3-.6.8-.8,1.4-.8.1,0,.3,0,.4,0,.2,0,.3,0,.3-.2,0-.4.1-.7.2-1.1,0-.3.3-.6.4-1,0-.2,0-.3-.2-.3-.2,0-.4,0-.6,0-.3,0-.6,0-.8-.1-.3,0-.6-.1-.8-.2-.5-.1-.9-.2-1.4-.4-.4-.2-.9-.4-1.3-.6-.6-.4-1.2-.8-1.7-1.4-.4-.4-.7-.9-1.1-1.4-.3-.4-.6-.8-.8-1.3-.1-.2-.3-.5-.4-.7-.2-.4.2-.9.6-.8,0,0,0,0,0,0,.2,0,.4,0,.5.2.1.2.3.2.5.3.2,0,.4,0,.5.3,0,0,.2.1.3.1.3,0,.5.2.8.3.3.1.5.3.8.4.3.1.6.3.8.4,0,0,.1,0,.2,0,0,0,0,0,0,0,0,0-.2-.1-.3-.2-.3-.2-.6-.4-.8-.5-.4-.2-.8-.4-1.2-.7-.1,0-.2-.1-.4-.2-.4-.2-.7-.4-1-.6-.3-.2-.6-.5-.9-.7,0,0,0,0-.1-.1-.4-.4-.1-.9.3-1,.4-.2.9-.2,1.4-.3.8-.1,1.6,0,2.5,0,.7,0,1.3.1,1.9.3.4,0,.7.1,1.1.2.4,0,.7.2,1.1.4.5.2.9.4,1.4.6.7.3,1.3.8,1.9,1.3.4.4.7.7,1,1.2.2.3.4.6.5.9.1.3.2.6.4.9,0,.1,0,.2,0,.4.1.4.2.7.1,1.1,0,.1,0,.2.2.1.2,0,.4,0,.6,0,.5,0,1,.3.9.9,0,.4-.3.7-.4,1.1-.2.4-.4.7-.6,1-.1.1-.1.3,0,.4.5.2.7.6.8,1.2.1.6,0,1.2,0,1.7,0,0,0,.2-.1.3-.1.2-.2.3-.1.5,0,.5-.1.9-.6,1.2,0,0-.2.1-.2.2-.2.4-.5.6-.9.8-.4.1-.8.3-1.2.4,0,0,0,0,0,0-.2,0-.2.2,0,.3.1.1.3.2.4.3.4.4.6.8.7,1.3,0,.4.2.8.3,1.2,0,.2,0,.5,0,.7,0,.5,0,.9-.1,1.3,0,.3-.1.6-.2.9-.2.6-.6,1.2-1.2,1.5,0,0-.2.1-.2.2,0,0,0,.1,0,.2,0,0,0,.1.1.1.3,0,.6.1.9.2.5,0,.8.4.9.9,0,.1.1.2.2.2.3,0,.5.3.7.5.2.3.4.6.5.9.1.3.2.6,0,.9-.1.2-.1.3,0,.5,0,0,0,.1,0,.2,0,.4.1.7.2,1,0,.2,0,.3,0,.5,0,.1,0,.2-.2.3-.1.2-.1.3,0,.5,0,.2,0,.5,0,.7,0,.3-.2.6-.3.9,0,.2-.2.4-.4.5-.5.6-1.1,1-1.8,1.3-.4.2-.9.3-1.4.3-.4,0-.8-.3-.8-.7,0,0,0-.2,0-.2.2-.3.4-.5.6-.7,0-.1.2-.2.3-.4.1-.3.3-.5.4-.8.2-.3.2-.7.3-1.1,0,0,0-.2-.2-.3-.2-.1-.2-.3-.2-.5,0-.1,0-.3,0-.4,0-.2,0-.4,0-.6,0,0,0-.2-.1-.2-.4-.4-.6-.8-.8-1.3,0,0,0-.1-.2-.1-.3-.1-.6-.2-.9-.4-.3-.1-.6-.3-.9-.4,0,0-.1,0-.2-.1,0,0-.2-.1-.3,0-.1,0-.2.2-.2.3,0,0,.1.2.2.2.4.3.7.5.9,1,0,.1.2.2.2.4,0,.1,0,.3.1.4,0,.1.1.2.2.3.6.5.8,1.1.6,1.9,0,.2,0,.3,0,.4.1.2.1.4,0,.6-.1.5-.3.9-.6,1.3,0,.2-.3.3-.4.4,0,0-.1.2-.2.3-.1.4-.4.7-.7.9-.3.3-.7.4-1.2.6-.5.2-1.1.1-1.6,0-.3,0-.6-.1-.9-.3-.4-.3-.4-.7,0-1,.2-.1.4-.2.6-.3.4-.3.9-.5,1.2-1,0,0,0,0,0,0,.1-.1.1-.2,0-.4-.1-.3-.2-.6-.1-.8,0-.1,0-.2.1-.3,0-.1,0-.2,0-.3-.1-.2-.2-.4-.2-.7,0,0,0-.2-.1-.2-.2-.2-.4-.4-.6-.6-.1-.2-.3-.4-.5-.6,0,0-.2,0-.3,0-.2,0-.3.2-.5.3-.2.1-.2.2,0,.4.2.2.3.5.5.8.2.4,0,.7-.1,1,0,.1,0,.2,0,.3,0,.1.1.3.1.4,0,.3,0,.5-.1.8,0,.2,0,.3-.2.5-.1.4-.4.6-.7.9,0,0-.1.1-.1.2-.1.6-.5,1.1-.9,1.6-.3.3-.7.5-1.1.7-.4.1-.9.2-1.3,0-.4-.1-.6-.5-.3-.9.2-.3.3-.5.4-.8.1-.4.2-.7.5-1,0,0,.1-.2.1-.3,0-.4,0-.7.3-1,0,0,0-.1.1-.2.1-.2.1-.3,0-.5,0,0,0-.1,0-.2,0-.3,0-.6,0-1,0-.3-.1-.4-.4-.3-.3,0-.7.2-1.1.3-.5.1-.9.2-1.4.3-.1,0-.2,0-.3,0-.4,0-.7,0-1.1.1,0,0-.1,0-.2,0-1,0-1.9,0-2.9,0-.2,0-.4,0-.6,0-.3,0-.5,0-.8,0-.2,0-.3,0-.5,0,0,0,0,0,0,0-.4,0-.9-.2-1.3-.2-.2,0-.3,0-.3.3,0,.3-.1.5-.4.7-.1,0-.2.2-.3.4,0,.1-.2.3-.2.5,0,.2,0,.3,0,.5.1.3,0,.6,0,.9,0,0,0,.2,0,.3.2.2.2.6.3.8.1.3.2.5.4.8.2.2.2.5,0,.7-.2.2-.4.3-.7.3-.4,0-.8,0-1.2-.1-.9-.3-1.5-.9-1.8-1.8-.1-.3-.2-.7-.3-1,0,0,0-.2,0-.3-.2-.2-.1-.4-.1-.5,0-.1,0-.3,0-.4,0-.2,0-.4.1-.6,0,0,0-.2,0-.3-.2-.4,0-.6.1-.8,0-.1.2-.2.3-.3.1-.1.2-.2.3-.3.1-.1.2-.2.3-.3.1-.1.2-.2,0-.3,0,0,0,0,0,0-.2-.1-.4-.2-.6-.3-.2,0-.3-.2-.5-.2,0,0-.2,0-.2.1-.2.4-.4.6-.7.8-.1.1-.3.1-.5.2-.1,0-.2,0-.2.2,0,.2-.2.4-.4.5-.3.2-.6.5-.9.7,0,0,0,0,0,0,0,.2,0,.4,0,.6,0,0,0,.2.1.3,0,0,0,0,0,.1,0,0,.5.3.6.4.3.1.5.1.8,0,.1,0,.3,0,.4,0,.4,0,.8.3.8.7,0,.2,0,.4-.2.6-.3.3-.7.6-1.1.8-.4.2-.8.2-1.2,0-.4,0-.8-.3-1.3-.4-.3,0-.5-.2-.6-.4,0,0,0,0,0-.1,0-.2-.2-.3-.4-.3-.3-.1-.5-.4-.7-.6,0,0,0,0,0,0-.5-.6-.3-1.3-.2-1.9,0-.1.1-.3.2-.4,0,0,0-.2,0-.3,0-.3,0-.5,0-.7,0-.2.2-.5.4-.7.1-.2.3-.3.4-.4,0,0,.1-.1,0-.2,0-.2,0-.5.2-.7.2-.3.6-.2.9-.3.1,0,.2,0,.3-.1.1,0,.2,0,.3-.1,0,0,.1,0,.2,0,.1,0,.1-.1,0-.2,0,0-.1-.1-.2-.2,0,0-.2,0-.2,0,0,.1-.2.2-.4.3-.3.1-.5.3-.8.4-.2,0-.4,0-.5,0-.2,0-.3,0-.3.2,0,.1-.2.2-.3.3-.1,0-.2.1-.4.2,0,0,0,0,0,0,0,0,0,0,0,0-.1,0-.3,0-.4.2,0,0-.1,0-.1.1-.1.3-.1.7,0,1,0,.3,0,.6-.2.9,0,0,0,.2,0,.2.2.2.1.4.2.5,0,0,0,.2,0,.3,0,0,0,0,0,0,0,.2.1.4.2.6,0,.1.2.2.2.4.2.4.1.8-.2,1-.3.2-.6.2-.9.2-.2,0-.5-.1-.7-.2-.6-.2-1.1-.6-1.4-1.1-.2-.2-.3-.4-.4-.7,0-.1,0-.3,0-.4,0-.1,0-.3,0-.4-.1-.3-.1-.5,0-.8,0-.1,0-.3,0-.4,0-.3,0-.6.1-.8,0-.1,0-.3,0-.4,0-.3,0-.6.2-.9,0-.1,0-.3,0-.4,0-.1,0-.3,0-.4.2-.3.5-.4.8-.5.3-.1.6-.3.9-.4.3-.1.5-.3.7-.6.1-.2.3-.2.5-.3.3,0,.5-.2.8-.3,0,0,.1-.1.1-.2,0,0-.1-.1-.2-.1-.5-.2-.9-.4-1.2-.9-.3-.4-.4-.8-.5-1.2,0-.3,0-.6-.2-.9-.2-.5,0-1,0-1.5,0-.1,0-.3.1-.4,0-.4.1-.8.2-1.1,0-.1.1-.3.2-.4.2-.4.5-.8.8-1,0,0,.1-.2.1-.2,0,0-.1-.1-.2-.1-.5-.2-.9-.4-1.4-.6-.2,0-.5-.2-.6-.4-.2-.2-.3-.4-.4-.6,0,0,0-.1-.1-.2-.3-.2-.5-.4-.7-.7,0-.1-.2-.2-.3-.3-.1-.1-.2-.2-.3-.4-.1-.2-.1-.4,0-.6,0,0,0-.2,0-.3,0-.3,0-.5.2-.8,0-.1.1-.3,0-.4,0,0,0-.2,0-.2.2-.7.5-1.3,1-1.7.3-.2.6-.3,1-.2,0,0,.1,0,.2,0,0,0,.1,0,.2,0,0,0,0,0,0-.1,0,0,0,0,0,0,0-.5-.2-1-.3-1.4,0-.4,0-.7,0-1.1.1-.3.2-.6.4-.8.3-.3.6-.5,1-.4.2,0,.3,0,.4-.2.1-.2.3-.4.4-.5.6-.7,1.2-1.4,1.9-2,.4-.3.9-.7,1.3-.9.4-.3.9-.5,1.3-.7.3-.2.7-.3,1-.4.3,0,.5-.2.8-.3,0,0,0,0,0,0,.5,0,.9-.1,1.4-.2.8-.2,1.6-.1,2.5-.2.6,0,1.2,0,1.8,0,.3,0,.7.4.6.7,0,0,0,.2-.1.3-.3.2-.5.4-.8.6-.2.1-.4.2-.6.5-.2,0-.3.2-.4.2-.3.1-.5.2-.6.4,0,0,0,0,0,0-.2,0-.2.1-.4.2-.6.4-1.1.7-1.7,1.1-.2.2-.5.3-.7.4,0,0,0,.1-.1.2,0,0,0,0,0,0ZM40.9,19.2s0,0,0,0c.1,0,.2,0,.3,0,0,0,.2,0,.3,0,0,0,.1,0,0-.2-.2-.2-.3-.4-.5-.6-.4-.4-.7-.7-1.1-1-.3-.3-.7-.6-1.1-.9-.6-.4-1.3-.7-1.9-1.1-.4-.2-.7-.4-1.1-.5-.3,0-.6-.3-.9-.3-.2,0-.4-.1-.6-.2,0,0,0,0-.1,0,0,0,0,0,0-.1.1,0,.2-.1.3-.2.4-.2.5-.6.6-.9,0-.5-.1-1-.6-1.3-.6-.4-1.2-.5-1.8-.3-.1,0-.2,0-.3.2-.3.2-.5.5-.6.9,0,.2,0,.4,0,.7,0,.2.1.4.3.6,0,0,0,0,0,.1,0,0,0,0-.1,0-.3,0-.5,0-.8-.1-.5-.1-1-.1-1.5-.1-.9,0-1.8,0-2.7,0-.2,0-.4,0-.6.1,0,0,0,0,0,0-.3,0-.7,0-1,0,0,0,0,0-.1,0,0,0,0,0,0-.1,0-.2.3-.4.3-.7,0-.7-.5-1.4-1.1-1.6-.7-.2-1.4,0-1.9.5-.2.2-.3.5-.3.8,0,.2,0,.4.1.6,0,.2.2.4.4.5.1,0,.3.2.4.3,0,0,0,0,0,.2,0,0,0,0-.1,0-.2,0-.4,0-.6.2,0,0,0,0-.1,0-.2,0-.4,0-.5.1-.6.2-1.2.5-1.8.8-.3.1-.5.3-.8.4-.6.3-1.2.7-1.7,1.2-.5.4-.9.8-1.3,1.3-.1.1-.3.3-.4.5,0,0,0,.2,0,.2,0,0,.2,0,.3,0,.5,0,1,0,1.5,0,.6,0,1.2,0,1.8.1.3,0,.7,0,1,0,.3,0,.5,0,.8,0,0,0,.2,0,.2,0,.3-.3.7-.5,1-.7.3-.2.6-.3.9-.5.4-.2.9-.4,1.3-.5.5-.1.9-.3,1.4-.4,0,0,0,0,.1,0,.3,0,.6,0,.9-.1.4,0,.8,0,1.1,0,.5,0,1,0,1.5,0,.2,0,.5,0,.7.1.4,0,.8.1,1.3.2.4,0,.8.2,1.2.4.6.2,1.2.5,1.8.9.3.2.6.4.9.6,0,0,.2.1.3.1.5,0,1,0,1.6,0,1.1,0,2.1-.1,3.2-.2ZM28.6,33.2c.7,0,1.2,0,1.6,0,.2,0,.5,0,.7,0,.4,0,.9-.1,1.3-.2.3,0,.6-.1.9-.2.3,0,.6-.1.8-.2,0,0,.2,0,.3,0,.3,0,.6-.2.9-.3.2,0,.3,0,.5-.2.2,0,.4-.2.6-.3.3-.1.7-.3,1-.4.6-.3,1.2-.7,1.7-1.1.6-.4,1.2-.9,1.7-1.4.4-.4.8-.8,1.1-1.3,0,0,0,0,.1-.1,0,0,.2-.2.2-.3,0-.1-.2-.1-.3-.1-.3,0-.7,0-1,0-.2,0-.4,0-.6,0-.9,0-1.8,0-2.7,0,0,0-.1,0-.2,0-.2,0-.4,0-.5,0-.4.4-.8.7-1.2,1-.4.3-.9.5-1.3.8-.1,0-.3,0-.4.1-.1,0-.3.1-.4.2-.2,0-.4.2-.7.2-.3,0-.5.2-.8.2-.4,0-.7.1-1.1.2-.3,0-.6.1-.9.1-.6,0-1.2,0-1.9,0-.1,0-.3,0-.4,0-.5,0-1-.2-1.5-.2-.4,0-.8-.2-1.2-.3-.4-.1-.8-.3-1.2-.5-.4-.2-.8-.4-1.1-.6-.2-.1-.4-.2-.5-.4,0,0-.2,0-.3-.2-.3-.3-.6-.5-.8-.8,0,0-.2-.1-.3-.1-1,0-2,0-3,0-.2,0-.4,0-.5,0-.1,0-.3,0-.4,0-.3,0-.6,0-.9,0-.2,0-.3.1-.1.3,0,0,.1.1.2.2.4.6.9,1.2,1.5,1.7.6.5,1.2,1,1.8,1.4,0,0,0,0,0,0,.3.1.5.2.8.4,0,0,0,0,0,0,.4.2.8.4,1.3.6.3.1.7.3,1,.4.5.2,1,.3,1.5.4.4.1.9.2,1.3.3.6.1,1.2.2,1.9.3.6,0,1.2,0,1.6,0ZM42.1,10.9c.4,0,.5,0,.6-.2.3-.3.7-.4,1.1-.5.2,0,.5-.1.7-.2.5-.1,1-.3,1.5-.6,0,0,.1-.1.1-.2,0-.1,0-.3,0-.4,0-.2-.1-.3-.2-.5,0-.3-.1-.6-.3-.9-.2-.5-.5-.9-.8-1.3-.2-.2-.4-.5-.7-.7-.2-.2-.4-.3-.6-.4-.3-.2-.5-.3-.8-.5-.4-.2-.7-.4-1.1-.6-.6-.2-1.1-.4-1.7-.5-.6-.1-1.2-.3-1.8-.4-.3,0-.7-.1-1-.1-.6,0-1.1,0-1.7,0-.4,0-.8,0-1.2.1-.2,0-.3,0-.5,0-.2,0-.2.1,0,.3,0,0,0,0,.1,0,.5.3,1,.6,1.5,1,.3.2.6.4.9.5.5.3,1,.6,1.5.9.2,0,.3.2.5.3.3.2.6.3.8.5.4.2.8.4,1.2.7.1,0,.2.1.3.2.3.1.5.2.8.4.4.2.8.5,1.2.7.3.2.6.4.9.5.2,0,.2.2.2.4,0,.2-.2.1-.3.1-.4,0-.8-.2-1.2-.3-.6-.2-1.2-.5-1.8-.7-.6-.2-1.1-.5-1.7-.7-.4-.2-.7-.4-1.1-.5-.3-.2-.7-.3-1-.5-.5-.2-.9-.5-1.4-.7-.3-.1-.5-.3-.8-.4-.2-.1-.4-.2-.6-.3,0,0-.1,0-.2-.1-.1,0-.2,0-.1.1,0,.1,0,.2.1.3.1.2.3.4.5.7.2.4.5.7.7,1.1.4.6.9,1,1.3,1.5.3.3.6.5.9.6.5.3,1.1.5,1.6.7.1,0,.3,0,.4.1.4,0,.8.2,1.2.2.6,0,1.2.2,1.8.3ZM23.5,2.9c-.5,0-.9,0-1.4.1-.6,0-1.1.1-1.7.3-.1,0-.2,0-.3,0-.2,0-.5.2-.7.3-.4.1-.7.2-1.1.4-.5.3-1,.5-1.5.9-.7.5-1.4,1.1-1.9,1.7-.3.4-.7.8-1,1.2-.2.2-.2.3,0,.4.2.3.5.5.7.8.3.3.6.7.9,1,.3.3.5.6.8.9,0,0,.1.2.3.1.3,0,.7-.2,1-.2.6-.1,1.1-.3,1.6-.5.8-.3,1.6-.6,2.3-1,.3-.1.6-.3.8-.4.5-.4,1.1-.7,1.5-1.2.5-.4.9-.8,1.3-1.3.1-.2.3-.4.5-.6.1-.1.2-.3.3-.4,0,0,0,0,0-.1,0,0,0,0-.1,0,0,0,0,0-.1,0-.2.2-.5.3-.7.5-.4.2-.8.5-1.2.7-.2.1-.4.2-.6.4-.1,0-.3.1-.4.2-.6.3-1.2.6-1.7.9-.3.2-.7.4-1.1.5-.4.2-.8.4-1.2.5-.5.2-1,.4-1.4.6,0,0,0,0-.1,0-.3.1-.5.2-.8.3-.1,0-.3,0-.4,0-.2,0-.2-.4,0-.5.4-.2.7-.4,1.1-.7.1,0,.3-.2.4-.3.3-.2.6-.3.8-.5.6-.4,1.1-.7,1.6-1.1.5-.3,1-.5,1.4-.9,0,0,0,0,0,0,.5-.3,1-.6,1.4-.9.3-.2.7-.4,1-.7.2-.1.4-.3.6-.4.4-.2.7-.5,1.1-.7,0,0,.1-.1.1-.2,0,0,0-.1-.2-.1-.2,0-.3,0-.5,0-.5,0-1,0-1.5,0ZM12,9.7c0,.6.2,1.2.3,1.8.2.5.4.9.6,1.4.1.3.2.5.4.8.2.3.3.6.5,1,0,.1.1.2.3.2.3,0,.5,0,.7-.1.3,0,.7,0,1,0,.2,0,.3-.1.3-.4,0-.1,0-.2,0-.4,0-.6,0-1.1-.1-1.7,0-.3-.1-.6-.3-.9-.1-.2-.3-.3-.5-.5-.4-.4-.8-.8-1.1-1.2-.3-.4-.5-.7-1-.9,0,0,0,0,0,0-.2-.2-.6,0-.8.1-.2.3-.4.6-.3,1ZM43.5,14.5c.2,0,.3-.1.5-.2.4-.3.9-.5,1.3-.8.5-.4,1.1-.8,1.6-1.3.5-.5.8-1.1,1-1.7,0-.3,0-.4-.3-.4,0,0-.2,0-.3,0-.1,0-.2.1-.3.2,0,0-.2,0-.3,0-.2,0-.3-.1-.5-.2-.2,0-.3,0-.4,0-.4.3-.8.4-1.3.5-.3,0-.6,0-.9.2-.6.2-1,.5-1.3,1.1-.3.5-.4,1.1-.6,1.6,0,.2,0,.4.2.5.5.3,1,.3,1.5.4ZM31.7,24.3s0,0,0,0c0,0,0,.2,0,.3,0,0,0,.2,0,.3,0,.2,0,.4.3.5.2,0,.3.1.5.2.2,0,.3,0,.5,0,.3,0,.5,0,.8-.1.6,0,1.2-.3,1.8-.6.3-.2.4-.6.2-.8-.1-.2-.3-.4-.6-.4,0,0-.2,0-.3,0-.1,0-.1-.1,0-.2,0,0,0,0,.1,0,.3-.1.5-.3.7-.5.4-.4.4-.5,0-1,0,0,0,0,0,0-.2-.1-.4-.3-.6-.4-.3-.2-.7-.3-1.1-.3-.6,0-1.2,0-1.8,0-.3,0-.4.1-.4.4,0,.6,0,1.3-.1,1.9,0,.3,0,.7,0,1ZM20.8,24s0,0,0,0c0,.3,0,.6,0,.9,0,.2,0,.3.2.3.2,0,.4.1.6.2.3,0,.4,0,.5-.3,0-.3,0-.5,0-.8,0,0,0-.2.1-.3.1,0,.2,0,.3.1,0,0,0,0,0,0,.3.2.5.4.8.6.2.2.4.3.6.4.4.3.6.2.9,0,.1,0,.1-.2,0-.3,0,0-.1-.1-.2-.2-.3-.3-.6-.6-.9-.9,0,0,0-.2,0-.3.1,0,.2-.1.3-.2.3-.2.5-.4.8-.7.2-.2.2-.5,0-.8-.2-.2-.3-.4-.5-.6-.1-.1-.3-.2-.4-.2-.4,0-.7-.1-1.1-.1-.6,0-1.2,0-1.7.2-.2,0-.2.1-.3.3,0,0,0,.2,0,.2,0,.8,0,1.6-.1,2.4ZM29.7,25.2s0,0,0,0c0,0,.2,0,.3,0,.3,0,.4-.2.3-.5,0-.4-.2-.7-.3-1.1,0-.4-.2-.9-.2-1.3,0-.2,0-.4-.1-.6,0-.2-.1-.4-.2-.6,0,0-.2,0-.4,0,0,0,0,0-.1,0-.4,0-.7-.1-1.1-.2-.2,0-.5,0-.6.3,0,.2-.2.4-.2.5-.2.4-.4.9-.6,1.3-.1.3-.3.7-.4,1,0,.3-.2.5-.3.8,0,.2,0,.3.1.4.2.1.5.3.8.2.2,0,.3-.1.4-.4,0-.2.1-.4.2-.6,0-.2.1-.2.3-.2.3,0,.6,0,.9,0,.1,0,.2,0,.2.1,0,.2.2.4.2.5,0,.2.2.3.4.3,0,0,.1,0,.2,0ZM17.9,20.8s0,0,0,0c-.1,0-.2,0-.4,0-.4,0-.7.1-1,.4-.3.3-.6.7-.8,1.1-.2.4-.4.8-.4,1.3,0,.4.1.7.3,1,.2.3.6.5.9.6.5.2,1.1.2,1.6.2.5,0,.8-.4,1.2-.7,0,0,.2-.2.3-.3,0,0,0-.2,0-.2,0,0-.1-.2-.2-.3-.1,0-.3-.1-.4-.2-.2,0-.3,0-.5.2-.1.2-.3.4-.5.5,0,0-.2.1-.3.2-.3.2-.8.1-.9-.3,0-.4,0-.7,0-1,.1-.2.2-.5.3-.7.1-.2.2-.4.4-.7.1-.2.3-.1.3,0,0,.1,0,.3,0,.4,0,.3.2.7.7.6,0,0,.2,0,.2,0,.2,0,.4-.1.4-.3,0-.1,0-.3,0-.4,0-.2,0-.4-.2-.6-.2-.3-.5-.5-.8-.5-.2,0-.4,0-.6,0ZM42.1,22.6s0,0,0,0c0,0,.1,0,.2,0,.2,0,.4-.1.4-.3,0-.2,0-.4,0-.6,0,0,0,0,0-.1,0,0-.2-.2-.3-.2-.1,0-.2-.1-.4-.2-.1,0-.2,0-.4-.1-.4-.1-.8-.3-1.2,0-.4.2-.8.4-1.1.8-.3.5-.1,1,.2,1.3.3.2.6.4.9.6.2.2.5.3.7.5.2.1.1.3,0,.4,0,0-.1,0-.2,0-.1,0-.3.1-.4,0-.3,0-.5-.2-.7-.4-.3-.3-.6-.3-.8,0-.1.1-.1.3,0,.4.4.4.9.6,1.4.7.5.1,1,0,1.5,0,.5-.2.8-.5.9-1,0-.1,0-.3,0-.4-.2-.2-.4-.4-.6-.5-.2-.1-.5-.2-.7-.3-.2-.1-.5-.3-.7-.5-.1-.1-.2-.3-.1-.5,0-.1.2-.3.3-.4.2-.1.4,0,.4.2,0,0,0,.2,0,.3,0,.2.1.3.3.3.2,0,.4,0,.5,0ZM40.8,16.9s0,0,0,0c.2,0,.4,0,.6-.2.2,0,.3-.2.5-.2.2,0,.5,0,.7-.1.4,0,.8-.2,1.2-.3.3-.1.4-.3.2-.6-.2-.2-.4-.4-.6-.5-.3-.1-.6-.2-.9-.1,0,0-.2,0-.3,0-.4-.1-.9-.2-1.3-.3-.5,0-.9,0-1.2.4-.2.2-.2.4-.3.7,0,.3,0,.5.2.7,0,0,0,0,.1.1.3.2.6.6,1,.5ZM15.6,15.1s0,0,0,0c-.3,0-.6.1-.9.2-.2,0-.5.1-.7.2-.1,0-.2.2,0,.3.2.2.4.3.6.4.3.1.6.1.9.2.2,0,.4,0,.6,0,.3,0,.6.1.9.2.3,0,.7,0,1-.2.3-.2.6-.6,1-.7,0,0,.1-.1.1-.2,0,0,0-.1-.1-.1,0,0-.1,0-.2,0-.5-.1-1-.3-1.5-.4-.5,0-.9-.1-1.4,0,0,0-.1,0-.2,0ZM12.1,17s0,0,0,0c-.1,0-.2,0-.4,0-.2,0-.4,0-.5.2-.2.2-.2.3,0,.5.2.1.5.3.7.4.3.1.6.3.9.4.3,0,.5.2.8.3.2,0,.5.1.7.2.2,0,.3.1.5,0,.3-.2.7-.4,1-.6,0,0,0-.2,0-.2-.1-.2-.3-.3-.5-.3,0,0-.1,0-.2,0-.2,0-.3-.2-.5-.2-.7-.3-.7-.3-1.6-.4-.2,0-.5,0-.7-.1-.1,0-.2,0-.3,0ZM44.3,36.8c.2,0,.3,0,.4,0,.1,0,.3,0,.4,0,.5-.2.9-.4,1.3-.8.3-.3.6-.5.7-.9.1-.3.3-.7.2-1.1,0,0,0,0,0,0,0-.2-.1-.3-.4-.3-.3,0-.7,0-1,0-.3,0-.4,0-.4.3,0,.3,0,.6-.2.9,0,.2-.2.3-.3.5-.1.2-.2.4-.3.5,0,.1-.2.2-.3.4,0,.2-.2.3-.3.4,0,0-.1.1-.1.2,0,0,.1,0,.2.1ZM42.7,19.1c.2,0,.4-.1.6-.2.5-.1,1-.2,1.5-.4.3,0,.5-.2.8-.3.2,0,.5-.2.7-.3.1,0,.2-.1.2-.2,0-.1-.1-.2-.2-.2-.2,0-.4-.1-.6-.2-.1,0-.3,0-.5,0-.1,0-.2,0-.4,0-.3,0-.7,0-1,0-.1,0-.2,0-.4.1-.3,0-.5.2-.8.3-.2,0-.5.1-.7.2,0,0-.1,0-.2.1,0,0,0,.2,0,.3,0,0,.1.2.2.2.2.2.4.4.7.4ZM10.3,31.1s0,0,0,.2c0,.3,0,.6-.1.9,0,.3,0,.6-.1.8,0,.1,0,.3,0,.4.1.1.3.1.4,0,.1,0,.2,0,.3-.1.3-.2.7-.3,1-.5.2-.1.2-.3.2-.5,0,0,0,0,0,0,0-.3,0-.7,0-1,0-.2,0-.4-.2-.5-.3-.1-.6-.2-1-.4-.3-.1-.7.2-.6.5,0,0,0,0,0,.1ZM41.9,28.4c0,0,0,.2.1.2.1,0,.3.2.4.2.4.2.8.4,1.1.5,0,0,.2,0,.2,0,.2-.1.4-.2.6-.4,0,0,.2-.1.2-.2.4-.1.7-.3,1.1-.4,0,0,.1,0,.2-.1,0,0-.1-.1-.2-.2,0,0,0,0-.1,0-.3,0-.5-.2-.8-.2-.3,0-.5-.1-.8-.2-.3-.1-.6-.2-.9-.4-.1-.1-.2,0-.4,0-.3.3-.6.6-.8.9,0,0,0,.1-.1.2ZM17.3,30.2c0,0-.2,0-.3,0-.5.1-1,.3-1.5.4,0,0-.2.1-.2.2,0,.2,0,.3.1.5.2.2.5.3.8.4.4,0,.7.2,1.1.3.3.1.6.2.9,0,0,0,.2-.2.3-.3,0,0,0-.1.1-.2.1-.2.1-.4,0-.5-.2-.2-.4-.4-.6-.6-.2-.2-.4-.2-.6-.3ZM46,29c-.2,0-.4,0-.7.1-.3,0-.7.2-.8.5,0,.2-.1.3,0,.5.2.2.3.4.5.6,0,0,.1,0,.2,0,.3,0,.5-.1.7-.2.2,0,.3-.1.5-.1.2,0,.5,0,.7,0,.1,0,.3,0,.4,0,.1-.1.1-.3,0-.4-.2-.2-.3-.5-.5-.7,0,0,0,0-.1-.1-.2-.2-.5-.2-.9-.3ZM40.1,32.2s.1,0,.2,0c.2,0,.3-.2.5-.2.4-.1.7,0,1.1-.3.2-.1.2-.2,0-.3,0,0,0-.2-.1-.2-.2-.2-.3-.4-.5-.6-.1-.1-.3-.2-.4-.4-.3-.2-.3-.2-.6,0,0,0,0,0,0,0-.2.1-.4.3-.6.4-.2.1-.3.2-.5.4-.1.1,0,.2,0,.3,0,0,.1.1.2.2.1.2.3.3.4.5.1.1.2.3.4.3ZM46.4,31.2s0,0,0,0c-.2,0-.4,0-.6.1-.3,0-.5.2-.4.6,0,.2,0,.4,0,.6,0,.3,0,.5.4.5.5,0,1.1,0,1.6.1.2,0,.3,0,.3-.2,0-.2,0-.3,0-.5,0-.2,0-.4,0-.6,0-.4-.3-.7-.7-.6-.1,0-.2,0-.4,0ZM21.2,36.6s0,0,0,0c-.2,0-.5,0-.7,0-.1,0-.2,0-.1.2,0,.2.2.3.2.5.2.4.5.7.8,1,.2.2.4.2.6.3.3.1.6,0,.9,0,.2,0,.3-.2.1-.3-.1-.2-.2-.3-.3-.5,0-.2-.2-.4-.2-.7,0-.2-.2-.4-.4-.4-.1,0-.2,0-.3,0-.1,0-.2,0-.3,0-.1,0-.2,0-.3,0ZM14.6,29.5s.1,0,.2,0c.4,0,.6-.3.9-.5.2-.1.2-.3,0-.5-.2-.2-.3-.4-.4-.7-.2-.4-.5-.5-.9-.2,0,0,0,0,0,0-.3.2-.7.4-1.1.5-.1,0-.2,0-.3,0,0,0-.2.1-.2.2,0,0,.1.1.2.2,0,0,.1,0,.2,0,0,0,.2,0,.3,0,.2.1.4.3.5.4.2.2.4.2.6.3ZM35.3,33.5c0,0,0,.3,0,.4,0,.3.2.4.5.3,0,0,.2,0,.2,0,.4,0,.8-.2,1.2-.3.3,0,.5-.4.4-.7,0-.3-.2-.5-.4-.7-.1-.1-.3-.2-.5-.2-.4,0-.8.2-1.2.4-.2,0-.3.2-.3.4,0,.1,0,.2,0,.4ZM10.6,34.1s0,0,0,0c0,0-.2,0-.3,0-.3,0-.3.3-.1.5.1.2.3.3.4.5.5.5,1.1.7,1.7.8,0,0,.1,0,.2,0,.2,0,.2-.2.1-.3-.1-.1-.2-.3-.3-.4-.2-.4-.3-.7-.3-1.1,0-.3-.2-.3-.4-.2-.3.1-.5.2-.8.3,0,0-.1,0-.2,0ZM21.3,34.4c.3,0,.5,0,.7.2.3.2.4.1.5-.1,0,0,0,0,0-.1.1-.2.2-.4.5-.5.1,0,.2-.1.1-.3,0-.1-.1-.2-.2-.2-.3,0-.6-.2-.8-.3-.2-.1-.5-.2-.8-.2-.2,0-.3,0-.4.2-.2.3-.4.5-.7.7-.1,0-.1.2,0,.3,0,0,.1,0,.2,0,.3,0,.7.1.9.2ZM15.7,35.6c.4,0,.6-.2.4-.5-.1-.2-.2-.4-.1-.6,0-.1-.1-.3-.3-.3-.2,0-.4,0-.6-.2-.1,0-.2-.1-.3-.2,0,0-.2-.1-.3-.1-.1,0-.2.1-.2.2,0,.2,0,.4,0,.6,0,.4,0,.8.3,1.2.2.3.4.3.7,0,.2-.2.4-.2.6-.2ZM16.1,33.7c.2,0,.4-.1.5-.2.1-.1.2-.2.3-.3.1-.1.2-.2.3-.3,0-.2,0-.3-.1-.3-.6-.1-1.1-.3-1.7-.6-.1,0-.3,0-.4,0-.1.1-.3.2-.3.4,0,.2-.2.3-.2.5,0,.2.1.4.3.3.2,0,.3,0,.5.1.2.1.5.2.8.3,0,0,0,0,0,0ZM39.5,37.5s0,0,0,0c.4,0,.8,0,1.1-.2.1,0,.3-.1.4-.2.3-.1.5-.3.7-.5.2-.2.1-.3-.1-.4-.2,0-.4-.2-.5-.3-.1,0-.3-.2-.4-.2-.2,0-.4,0-.5.2,0,0,0,.2-.1.2-.3.2-.6.5-.9.7,0,0,0,0-.1.1-.1,0-.2.1-.3.2,0,0-.2,0-.2.2,0,.1,0,.1.2.1.3,0,.5,0,.8,0ZM40.8,34.1c-.3,0-.4,0-.4.2,0,.3,0,.6.3.8.4.2.7.4,1.1.6.3.1.6,0,.7-.3,0-.2.2-.4.3-.7,0-.1,0-.2,0-.4,0-.1,0-.2,0-.3-.1,0-.2,0-.4,0,0,0-.2,0-.2,0-.2,0-.4,0-.6,0-.3,0-.6,0-.9,0ZM42.9,33.2c0,0,0-.2,0-.3,0-.3-.1-.5-.3-.7-.2-.2-.4-.2-.6,0-.1,0-.3.2-.4.2-.3,0-.6,0-.9.1-.2,0-.2,0-.3.2,0,.1,0,.2,0,.4,0,.1,0,.3.2.3.3.2.6.3.9.2,0,0,.2,0,.3,0,.2,0,.4,0,.6,0,.3,0,.5-.2.5-.4ZM37.5,34.9c0-.1,0-.2,0-.2,0-.2-.1-.2-.2,0,0,0-.2.1-.3.1-.3,0-.6,0-.9,0-.2,0-.5,0-.6.3-.1.2-.2.3-.3.5-.1.2-.2.5,0,.5.1.2.3.1.5.1.3,0,.5,0,.8,0,.5.1.7-.2.9-.5,0-.1.1-.3.2-.5,0-.1,0-.3,0-.4ZM12.6,30.6c0,0,.2,0,.2,0,.2-.1.5-.3.7-.4.1,0,.1-.2,0-.3-.2-.3-.5-.5-.8-.6-.1,0-.3,0-.4-.1-.2-.1-.4,0-.6,0,0,0-.2.1-.3.2-.2.1-.5.2-.8.3-.1,0-.2,0-.2.2,0,.1,0,.1.2.2.4,0,.7.2,1.1.3.3,0,.5.2.8.3ZM35.6,36.8s0,0,0,0c-.2,0-.3,0-.5,0-.2,0-.3,0-.4.2-.1.2-.3.4-.3.6,0,.3-.2.6-.4.9-.1.2,0,.2.1.3.4.1.8-.1,1.2-.3.5-.3.9-.8,1.1-1.4,0-.2,0-.3-.2-.3-.2,0-.4,0-.6,0ZM13.2,16.6s0,0,0,0c0,0,.2,0,.3-.1,0,0,0-.2,0-.3,0,0,0,0,0,0-.2-.3-.3-.6,0-.9,0,0,0-.2,0-.2,0-.1-.1-.3-.2-.4-.2-.4-.4-.8-.6-1.2-.1-.2-.2-.5-.3-.7,0,0,0,0-.1-.1,0,0,0,0,0,.1,0,.2,0,.4,0,.6,0,.2,0,.3,0,.5,0,.2,0,.3,0,.5.1.2.1.4.1.7,0,0,0,.2,0,.3,0,0,.2.1.3.2.2.2.4.4.4.7,0,.2,0,.3.2.3,0,0,.1,0,.2,0ZM47.7,14.9s0,0,0,0c0-.3,0-.6-.1-.9,0-.2-.1-.4-.2-.5-.1-.2-.3-.2-.4,0-.1.2-.3.4-.4.6-.2.3-.4.6-.6.9,0,0-.1.2,0,.3.1,0,.2,0,.3.1.3,0,.6.1.9.2.2,0,.4,0,.4-.2,0-.2,0-.3,0-.5ZM17.3,37.2c.3,0,.7,0,.9-.3,0,0,0,0,.1,0,.2,0,.3-.2.3-.4,0-.1,0-.2-.2-.2-.1,0-.2,0-.4,0-.1,0-.2,0-.3,0-.4,0-.8-.1-1.2-.4-.2-.1-.3-.1-.5,0-.1,0-.3.1-.4.2-.1,0-.2,0-.3.1-.2,0-.2.2,0,.3.3.1.5.2.8.3,0,0,.2,0,.3,0,.2.1.5.1.8.1ZM22.1,36.1c.3,0,.4-.2.3-.4,0,0,0-.1,0-.2-.2-.3-.4-.6-.8-.7-.3,0-.7,0-1-.1-.3,0-.5.2-.4.5,0,0,0,.2,0,.3,0,.3,0,.3.3.4,0,0,.1,0,.2,0,.2,0,.4,0,.6,0,.1,0,.2,0,.3,0,.2,0,.4.2.5.2ZM10.5,15.4c-.2,0-.4,0-.6,0,0,0-.2,0-.2.1,0,0,0,.2,0,.3.2.2.3.4.5.6.2.4.4.4.8.2,0,0,0,0,0,0,.2-.1.4-.2.6-.2.1,0,.2,0,.3,0,.2,0,.2-.3,0-.3-.3-.1-.5-.4-.8-.4,0,0-.1,0-.2,0-.2-.1-.4-.2-.6-.1ZM44.4,16.8h0s0,0,.1,0c.2,0,.3,0,.3-.3,0,0,0-.2,0-.3.1-.2.2-.3.4-.5,0,0,.1-.2.1-.3,0,0,0-.2,0-.2,0-.2.1-.3.2-.5,0-.2.2-.3.3-.4,0,0,0-.1,0-.2,0,0-.2,0-.2,0-.3.2-.7.4-1,.6-.2.1-.2.2,0,.4.1.2.2.3.2.5,0,.4-.2.6-.4.8,0,0-.1.1-.2.2,0,0,.2,0,.3.1ZM47,17.1c.1,0,.3,0,.4-.1,0,0,0-.2,0-.2,0,0,0,0,0,0,0-.3-.1-.6-.4-.6,0,0,0,0-.1,0-.5-.2-1,0-1.4.3-.1.1-.1.3,0,.3,0,0,.2,0,.3,0,.3,0,.6,0,.9.2,0,0,.2.1.3.2ZM11.3,13.1s0,0,0,0c0,0,0-.2,0-.3,0-.1,0-.3,0-.4,0,0,0-.1-.1,0-.2,0-.4,0-.5.2-.3.3-.5.7-.6,1.1,0,.1,0,.2.1.2.1,0,.2,0,.3,0,.2,0,.4-.1.6,0,.1,0,.2,0,.2-.1,0-.2,0-.3,0-.5ZM37.5,22.1c.2,0,.3-.1.4-.3,0-.2.2-.5.3-.7,0-.2,0-.4-.2-.5,0,0-.2,0-.3,0-.2,0-.3,0-.4.3,0,.2,0,.5-.2.7-.1.3,0,.5.3.5,0,0,0,0,.1,0ZM11.5,14.7s0-.1,0-.2c-.3-.4-.6-.7-1.1-.4,0,0,0,0-.1,0,0,0-.2.1-.3.2,0,0,0,.2,0,.3,0,0,.1.1.2.1.1,0,.2,0,.3,0,.1,0,.2,0,.3,0,.1,0,.3.1.4.2.2,0,.4,0,.4-.3Z"/>
          <path class="st0" d="M31,16.1c-.1,0-.3,0-.4,0-.2,0-.3-.2-.3-.4,0-.2,0-.4,0-.6,0-.2,0-.5,0-.7,0-.1.2-.2.3-.2.2,0,.5,0,.7,0,.4,0,.5.5.2.8-.2.2-.2.2,0,.4.1.1,0,.3,0,.4,0,.1-.2.2-.3.2-.1,0-.3,0-.4,0ZM31,15.4h0c0,0-.2,0-.2,0,0,0,0,.2,0,.2,0,0,.2,0,.3.1.1,0,.2,0,.2-.2,0-.1,0-.2-.2-.3,0,0,0,0-.1,0ZM31.1,15c.1,0,.2,0,.2-.1,0-.1-.1-.2-.3-.2-.1,0-.2,0-.2.2,0,.1,0,.2.2.2Z"/>
          <path class="st0" d="M21.3,16.7c0-.5.3-.7.6-1,.1-.1.3-.2.5-.2.1,0,.3,0,.4.1,0,0,.1.1.2.2.3.3.2.9,0,1.3-.3.3-.6.4-1,.4,0,0,0,0-.1,0-.2-.2-.5-.4-.4-.8ZM22.7,16.6q0-.4-.2-.6c-.1,0-.2-.1-.4,0-.2.1-.3.2-.3.5,0,0,0,.1,0,.2,0,.2.1.3.3.4.2,0,.3,0,.5,0,.1-.1.2-.3.1-.4Z"/>
          <path class="st0" d="M33.6,13.7c-.5,0-.8-.3-.9-.7,0-.2,0-.4.2-.5.2-.3.5-.3.8-.3.3,0,.6.3.6.6,0,.2,0,.4-.2.6-.2.2-.4.3-.6.2Z"/>
          <path class="st0" d="M23.9,12.2c.4,0,.8.3.9.6,0,.3-.1.6-.3.7-.3.2-.7.2-1,0-.4-.3-.4-.9,0-1.1.2,0,.3-.2.4-.2Z"/>
          <path class="st0" d="M34.5,17.2c-.3,0-.6-.2-.8-.5,0-.1,0-.3,0-.5,0-.2.2-.5.3-.7,0,0,0-.1,0-.2,0,0,0-.2.2-.2,0,0,.2,0,.3.1,0,0,0,.2,0,.2-.2.2-.2.5-.3.8-.1.2.1.5.4.4,0,0,.1,0,.1,0,0-.2.3-.4.3-.6,0-.1,0-.3.2-.4,0,0,.2,0,.3,0,.1,0,.2.2.2.3,0,0,0,.2-.1.3,0,.2-.2.4-.2.6,0,.2-.3.4-.6.4Z"/>
          <path class="st0" d="M25.7,15.6c0,.2,0,.4,0,.5,0,.1,0,.2-.2.3,0,0-.2,0-.2,0,0,0,0-.1,0-.2,0-.2,0-.4,0-.6,0-.2,0-.4,0-.6,0-.1,0-.2,0-.3,0,0,.2,0,.3,0,0,0,.1.1.1.2,0,0,0,.2,0,.2,0,0,0,0,0,.1,0,0,.1,0,.1,0,0-.1.2-.3.2-.4,0-.2.2-.3.4-.3.1,0,.1,0,0,.1,0,.2-.2.3-.2.5,0,.1,0,.4.1.5.1.1.3.3.4.4,0,.1,0,.2,0,.3-.2,0-.4,0-.5-.2,0-.1-.2-.2-.3-.3,0,0-.1,0-.2-.1Z"/>
          <path class="st0" d="M29,16c0,0-.2,0-.3,0,0,0,0,0,0,0-.2,0-.4,0-.6,0-.1,0-.4-.2-.4-.4,0-.2,0-.4.2-.6,0,0,.1-.2.1-.3,0-.3.1-.4.3-.6.1-.1.4,0,.5,0,0,0,0,.1,0,.1,0,0-.1.1-.2.1,0,0-.2,0-.2.1,0,.1,0,.2,0,.3.1.1.2.2.4.1,0,0,.2,0,.2,0,0,0,0,.2,0,.3,0,.1-.1.3,0,.4,0,0,0,.1,0,.2,0,0-.1,0-.2,0,0,0,0,0,0,0h0ZM28.1,15.5c0,.2,0,.2.2.2.1,0,.2,0,.2-.2,0-.1-.2-.3-.3-.3-.1,0-.2,0-.2.2Z"/>
          <path class="st0" d="M19.5,17.5c.2-.2.4-.4.6-.6.1,0,.3-.1.4-.2.2,0,.6.2.5.6,0,.3,0,.4.2.6,0,0,0,0,0,0,0,0,.2.1.1.3-.1.2-.3.2-.4,0-.2-.2-.4-.3-.6-.5,0,0,0,0,0,0,0-.1,0-.2,0-.3,0,0,0-.2-.1-.2,0,0-.2,0-.3.1,0,.1,0,.4,0,.5,0,.1.1.2.2.4,0,.1.1.2.2.4,0,0,0,.1,0,.2-.2.2-.3.2-.4,0-.1-.3-.3-.6-.4-.9,0-.1-.1-.2-.2-.3Z"/>
          <path class="st0" d="M36,17.2c0,0-.1,0-.1.1,0,0,0,.1,0,.2,0,0,.2.2.3.2,0,0,.1,0,.2.2,0,0,0,.2,0,.2,0,0-.1,0-.2,0-.1-.1-.3-.2-.4-.3,0,0-.1,0-.2-.1-.3,0-.3-.3-.2-.5.1-.2.2-.3.3-.5.1-.2.2-.4.3-.5.1-.2.2-.1.3,0,.2.1.3.2.5.4,0,0,.1,0,.2.1,0,0,0,.2,0,.2,0,0-.2.1-.3,0,0,0,0,0-.1,0,0,0,0,0-.1-.1,0,0-.2,0-.3,0,0,.1,0,.2,0,.3.1,0,.2.1.3.2,0,0,0,.1,0,.2,0,0-.1.1-.2,0,0,0-.1,0-.2-.1,0,0-.1,0-.2-.1Z"/>
          <path class="st0" d="M24.9,16.2c0,.3,0,.4-.3.5-.2,0-.3,0-.5,0-.3,0-.6-.3-.6-.5,0-.1,0-.3,0-.4,0-.2,0-.4.2-.5.2-.2.4-.5.7-.5.1,0,.3,0,.3.2,0,.1,0,.2-.2.2,0,0-.2,0-.3,0-.2,0-.3.2-.3.4,0,.1,0,.2,0,.3,0,.2.1.3.3.3.1,0,.2,0,.4,0,0,0,.1,0,.2,0Z"/>
          <path class="st0" d="M38.2,17.9c0,0-.1-.1-.2-.2,0,0-.1,0-.2,0,0,0,0,.1,0,.2,0,0,0,.2,0,.2,0,.2,0,.4,0,.6,0,.2-.3.4-.6.2-.2-.2-.3-.3-.5-.5,0,0,0-.1,0-.2,0,0,.1,0,.2,0,0,0,0,.1.1.1,0,0,.1,0,.2,0,0,0,0,0,0-.2,0-.2,0-.5,0-.7,0-.2.1-.3.3-.4.1,0,.3,0,.4,0,.1.1.2.2.3.3.1.1.1.2,0,.3Z"/>
          <path class="st0" d="M32,16.2s0,0,0-.1c.2-.4.2-.8.3-1.3,0-.1.2-.2.3-.2.1,0,.2.2.2.3,0,.2-.1.4-.2.6,0,.2,0,.3,0,.5,0,.1.1.2.3.2.1,0,.2,0,.3.2,0,0,0,.2,0,.2,0,0-.1,0-.2,0-.3,0-.5-.1-.8-.2-.1,0-.2-.1-.2-.2Z"/>
          <path class="st0" d="M24.4,30.6c0,.1,0,.3.1.4,0,0,.1,0,.2.1,0,0,0,0,.1-.1,0-.1,0-.3.1-.4,0,0,0,0,0-.1.1-.1.3-.2.4,0,0,0,0,.1,0,.2-.2.4-.3.8-.5,1.2,0,.2-.2.3-.5.2,0,0,0,0-.1,0-.1,0-.2-.1-.2-.3,0,0,0,0,0-.1,0-.2,0-.3,0-.5,0,0,0-.1,0-.2,0,0-.1,0-.2,0,0,.1-.1.3-.2.4,0,.1,0,.3-.2.3-.1,0-.2,0-.3-.1,0,0,0-.1,0-.2,0-.2.2-.4.2-.5.1-.2.2-.5.3-.7,0-.1.1-.2.3-.1,0,0,.2,0,.2.1.2.1.3.3.2.6Z"/>
          <path class="st0" d="M28.2,32.6c-.2,0-.3,0-.5,0-.2,0-.3-.2-.2-.3,0,0,0,0,0-.1,0-.3,0-.6,0-.9,0-.1,0-.2,0-.3,0-.1.2-.2.3-.1.3,0,.5,0,.8,0,0,0,.1,0,.2,0,.1,0,.2,0,.2.2,0,.1,0,.2-.2.2-.2,0-.4,0-.6,0-.1,0-.2,0-.2.2,0,.1,0,.2.2.2.1,0,.2,0,.3,0,.1,0,.2,0,.2.2,0,0-.1.2-.2.2-.1,0-.3,0-.4,0-.1,0-.2,0-.2.1,0,0,.1.2.2.2.1,0,.3,0,.4,0,.1,0,.2,0,.2.2,0,0-.1.2-.2.2-.2,0-.3,0-.5,0Z"/>
          <path class="st0" d="M34.8,30.5c0,.2,0,.5,0,.8,0,0,0,.1,0,.1-.2,0-.3.2-.5.2,0,0-.1,0,0-.1,0-.2.1-.4.2-.6,0-.2,0-.4,0-.6,0-.1-.2-.2-.3-.2-.1,0-.2.1-.2.3,0,0,0,.1.1.2,0,0,.2.1.2.2,0,.2,0,.2-.2.2-.2,0-.4,0-.5-.3,0-.2,0-.4,0-.5.1-.2.3-.3.5-.5.3-.2.8,0,.9.3,0,.1,0,.3,0,.5Z"/>
          <path class="st0" d="M35.9,30c0,0,0,.1-.1.2,0,0-.2.1-.3,0-.1,0-.4-.3-.4-.5,0-.3.2-.5.4-.7.2-.2.4-.2.7-.2.2,0,.3.2.4.4,0,.1,0,.3.1.4,0,.1,0,.3,0,.4,0,.2,0,.4-.2.5,0,0-.2.1-.3.2,0,0-.1,0-.1,0,0-.2,0-.4,0-.5,0-.1,0-.3,0-.4,0-.2,0-.3-.2-.4-.1,0-.2,0-.3,0,0,0,0,.2,0,.3,0,0,.2.2.3.3Z"/>
          <path class="st0" d="M32.1,32.2c0,0,0-.1,0-.2,0,0,0,0,0,0,0-.2,0-.3.2-.4,0,0,0,0,0-.1,0-.2,0-.4,0-.6,0-.1-.1-.2-.2-.2-.1,0-.2,0-.3.1,0,.1,0,.2,0,.3,0,0,.1.1.2.2,0,.1,0,.3-.1.3-.3,0-.6-.2-.6-.5,0-.4.4-.8.8-.8.2,0,.4,0,.6.1,0,0,.1.2.1.3,0,.3,0,.6,0,.9,0,.2-.1.4-.3.5-.1,0-.3,0-.5,0Z"/>
          <path class="st0" d="M26.8,31c-.2,0-.4,0-.5.2,0,0,0,.2-.1.2,0,.2,0,.4.2.6,0,0,.2.1.3.1,0,0,.1,0,.1,0,0,0,.2.1.2.2,0,0,0,.2-.2.2-.5,0-.9-.2-1.2-.6,0,0,0,0,0-.2,0,0,0-.1,0-.2,0-.4.2-.7.5-.9,0,0,.2,0,.2,0,.2,0,.5,0,.7,0,.1,0,.2,0,.3.2,0,0,0,.2-.2.2,0,0,0,0,0,0,0,0-.2,0-.3,0Z"/>
          <path class="st0" d="M20.8,29.9c0,0,.1.1.2.1,0,0,.2,0,.3,0,.1,0,.2,0,.1-.2,0-.2,0-.3-.2-.5,0-.3.1-.6.4-.6.4,0,.6.2.8.5,0,.1,0,.2-.1.3,0,0-.1-.1-.2-.2,0,0-.2,0-.3,0,0,0,0,.1,0,.2,0,0,0,.2,0,.3.2.3.1.6-.2.7-.2.1-.4,0-.6,0-.1,0-.3-.2-.4-.3-.2-.2-.1-.2,0-.4Z"/>
          <path class="st0" d="M30.4,31.3c-.1,0-.3,0-.3-.1,0-.2,0-.2.1-.3.1-.2.4-.2.6-.2.1,0,.2,0,.2.2,0,.5,0,.9,0,1.4,0,.2,0,.3-.3.3-.2,0-.3,0-.3-.3,0-.3,0-.6,0-.9Z"/>
          <path class="st0" d="M23.3,29.8s0,0,0,0c-.2.4-.4.8-.7,1.2,0,0-.2.2-.2.2-.1,0-.2-.1-.3-.2,0,0,0,0,0-.1.2-.4.4-.8.7-1.1.2-.3.4-.3.6,0,0,0,0,0,0,0Z"/>
          <path class="st0" d="M33.9,21.5c.2,0,.3,0,.5,0,.1,0,.3.2.4.3,0,0,0,.2,0,.3-.3.3-.7.6-1.1.6-.2,0-.4,0-.3-.3,0-.1,0-.3,0-.4,0-.3.1-.4.4-.5.1,0,.2,0,.3,0Z"/>
          <path class="st0" d="M33.4,24.5c-.1,0-.2,0-.3,0,0,0-.1,0-.1-.1,0-.2,0-.4,0-.6,0-.1,0-.2.2-.2.2,0,.5,0,.7,0,.2,0,.3.1.5.2.1,0,0,.2,0,.3-.4.3-.5.4-1,.4Z"/>
          <path class="st0" d="M23.2,21.5c.2,0,.5,0,.6.3,0,0,0,.2,0,.3-.2.3-.4.6-.8.7-.1,0-.3.2-.4.2,0,0-.2,0-.3,0,0,0,0-.2,0-.3,0-.3,0-.6,0-.9,0-.1,0-.3.2-.3.2,0,.4,0,.7-.1Z"/>
          <path class="st0" d="M27.6,23.4c0,0,0-.1,0-.2,0-.2.2-.4.2-.7,0-.1,0-.2,0-.3,0-.1,0-.3.1-.4,0,0,0-.1.1,0,0,0,.1,0,.1.1,0,.1,0,.3,0,.4,0,.3,0,.7.1,1,0,.2,0,.3-.2.4-.1,0-.3,0-.4,0-.1,0-.2-.1-.2-.3Z"/>
        </g>
        <g>
          <path class="st0" d="M261.5,14.2c2.7-.4,4.8,1.7,4.4,4.4s-1.8,3.9-2.5,5-.9,1.5-1.1,1.5-1.8-.4-2.1-.5c-1.6-.4-4.8-1.2-5.8-2.5-1.9-2.6.1-6.3,3.3-6.1s.8.2,1,.2.6-.8.7-1c.5-.5,1.4-1,2.1-1.1Z"/>
          <path class="st0" d="M278.8,13.9v11.3h-1.7s0-.5,0-.6c-1.4.7-2.6.8-4,0-2.5-1.4-2.5-5,0-6.5,1.4-.8,2.7-.7,4.1,0v-4.3h1.7ZM277.1,21.4c0-1.2-.9-2.1-2.1-2.1s-2.1.9-2.1,2.1.9,2.1,2.1,2.1,2.1-.9,2.1-2.1Z"/>
          <path class="st0" d="M287.4,21.4c0,2.1-1.7,3.8-3.8,3.8s-3.8-1.7-3.8-3.8,1.7-3.8,3.8-3.8,3.8,1.7,3.8,3.8ZM285.7,21.4c0-1.2-1-2.1-2.1-2.1s-2.1.9-2.1,2.1,1,2.1,2.1,2.1,2.1-.9,2.1-2.1Z"/>
          <path class="st0" d="M295.4,23.2c.3.4-1.1,1.4-1.4,1.6-3.2,1.6-6.7-1.8-5.1-5s4.6-2.8,6.3-.8.4.5.3.7-1.2.7-1.3.7-.5-.5-.6-.6c-1.8-1.3-4.2.8-3.1,2.7s2.1,1.4,3.1.7.5-.6.6-.6,1.2.6,1.3.7Z"/>
          <path class="st0" d="M297.4,22.3v-1.6s.1-.1.1-.1h2.3s.1.1.1.1v1.4s-.1.1-.1.1h-2.4Z"/>
          <path class="st0" d="M309.2,13.9v11.3h-1.7s0-.6,0-.7c-1.8,1.2-4.3.7-5.4-1.2-2.1-3.5,2.1-7.3,5.4-5v-4.4h1.7ZM307.5,21.4c0-1.2-.9-2.1-2.1-2.1s-2.1.9-2.1,2.1.9,2.1,2.1,2.1,2.1-.9,2.1-2.1Z"/>
          <path class="st0" d="M317.7,21.4c0,2.1-1.7,3.8-3.8,3.8s-3.8-1.7-3.8-3.8,1.7-3.8,3.8-3.8,3.8,1.7,3.8,3.8ZM316.1,21.4c0-1.2-1-2.1-2.1-2.1s-2.1,1-2.1,2.1,1,2.1,2.1,2.1,2.1-1,2.1-2.1Z"/>
          <path class="st0" d="M325.8,19.7c0,0-1.2.7-1.4.7s-.4-.5-.7-.7c-1.9-1.1-4,.8-3,2.7.6,1.2,2.3,1.5,3.3.6s.4-.5.4-.5c0,0,1.3.6,1.4.7.2.3-.8,1.2-1.1,1.4-1.9,1.2-4.5.6-5.5-1.5-1.6-3.3,1.9-6.7,5.1-5,.3.2,1.7,1.1,1.4,1.6Z"/>
        </g>
        <g>
          <path class="st0" d="M142.3,20.3c0-5.9-4.2-10-10.1-10s-10.1,4.1-10.1,10,4.2,10,10.1,10,3.3-.4,4.7-1l-2.3,5.1h5l2.6-5.7h-4.2c2.7-1.7,4.4-4.7,4.4-8.4ZM132.2,25.5c-2.9,0-5-2.1-5-5.2s2.1-5.2,5-5.2,5,2.1,5,5.2-2.1,5.2-5,5.2Z"/>
          <path class="st0" d="M155.3,23.1c0,1.7-1.1,2.8-2.8,2.8s-2.8-1.2-2.8-2.8v-8.7h-5v9.4c0,3.9,2.5,6.6,6.1,6.6s3.6-1.1,4-2.1l.7-1.4v3.2h4.8v-15.7h-5v8.7Z"/>
          <path class="st0" d="M177.2,16.7c-1.5-1.7-3.7-2.6-6.2-2.6-4.9,0-8.3,3.3-8.3,8.1s3.3,8.1,8,8.1,6.7-2,7.9-5.3h-4.8c-.7.9-1.7,1.3-2.9,1.3-1.8,0-3.3-1.1-3.7-2.8v-.5c-.1,0,11.9,0,11.9,0,.2-2.5-.5-4.8-1.9-6.5ZM167.3,20.8l.2-.5c.7-1.4,1.8-2.2,3.4-2.2s2.8.8,3.4,2.1l.2.5h-7.3Z"/>
          <polygon class="st0" points="175.1 8.4 171.4 8.4 169.6 12.4 173.2 12.4 175.1 8.4"/>
          <path class="st0" d="M161.8,34.5c-.4-.1-.7-.2-.7-.5s.2-.4.5-.4.6.2.6.5h.6c0-.6-.5-1.1-1.2-1.1s-1.2.4-1.2,1,.6.9,1.1,1c.4.1.8.2.8.5s-.3.5-.7.5c-.5,0-.8-.3-.8-.8h-.6c0,.8.5,1.3,1.4,1.3s1.3-.4,1.3-1.1-.6-.8-1.2-1Z"/>
          <polygon class="st0" points="164.6 32.2 164 32.2 164 33 163.3 33 163.3 33.6 164 33.6 164 36.5 164.6 36.5 164.6 33.6 165.3 33.6 165.3 33 164.6 33 164.6 32.2"/>
          <path class="st0" d="M168.3,35c0,.6-.4,1-1,1s-1-.4-1-1v-2h-.6v2c0,.9.6,1.6,1.5,1.6s1-.3,1.1-.6v.5h.6v-3.5h-.6v2Z"/>
          <path class="st0" d="M172.6,33.5c-.3-.4-.7-.6-1.3-.6-1,0-1.7.7-1.7,1.8s.7,1.8,1.7,1.8,1-.2,1.3-.6v.6h.6v-4.3h-.6v1.4ZM171.4,36c-.7,0-1.2-.5-1.2-1.2s.5-1.2,1.2-1.2,1.2.5,1.2,1.2-.5,1.2-1.2,1.2Z"/>
          <rect class="st0" x="174.1" y="32.2" width=".6" height=".6"/>
          <rect class="st0" x="174.1" y="33.3" width=".6" height="3.2"/>
          <path class="st0" d="M177.2,32.9c-1.1,0-1.8.7-1.8,1.8s.8,1.8,1.8,1.8,1.8-.7,1.8-1.8-.8-1.8-1.8-1.8ZM177.2,36c-.7,0-1.2-.5-1.2-1.2s.5-1.2,1.2-1.2,1.2.5,1.2,1.2-.5,1.2-1.2,1.2Z"/>
        </g>
        <g>
          <path class="st0" d="M77.5,36.4h-1v-.3c-.3.2-.6.4-1,.4-.9,0-1.6-.7-1.6-1.7s.7-1.7,1.6-1.7.8.1,1,.4v-.3h1v3.3ZM76.5,34.8c0-.5-.4-.8-.8-.8s-.8.3-.8.8.3.8.8.8.8-.3.8-.8"/>
          <path class="st0" d="M80.7,36.3c-.3.1-.5.2-.9.2-.8,0-1.3-.4-1.3-1.3v-1.2h-.6v-.8h.6v-1h1v1h1v.8h-1v1.1c0,.3.2.5.4.5s.3,0,.5-.1l.2.8Z"/>
          <rect class="st0" x="81.1" y="31.7" width="1" height="4.7"/>
          <path class="st0" d="M86.3,36.4h-1v-.3c-.3.2-.6.4-1,.4-.9,0-1.6-.7-1.6-1.7s.7-1.7,1.6-1.7.8.1,1,.4v-.3h1v3.3ZM85.3,34.8c0-.5-.4-.8-.8-.8s-.8.3-.8.8.3.8.8.8.8-.3.8-.8"/>
          <path class="st0" d="M90.4,34.4v2h-1v-1.8c0-.4-.2-.6-.6-.6s-.7.3-.7.9v1.5h-1v-3.3h1v.3c.2-.3.6-.4,1-.4.8,0,1.3.5,1.3,1.4"/>
          <path class="st0" d="M94.6,36.4h-1v-.3c-.3.2-.6.4-1,.4-.9,0-1.6-.7-1.6-1.7s.7-1.7,1.6-1.7.8.1,1,.4v-1.7h1v4.7ZM93.5,34.8c0-.5-.4-.8-.8-.8s-.8.3-.8.8.3.8.8.8.8-.3.8-.8"/>
          <path class="st0" d="M97.7,33.1v1h-.2c-.7,0-1.1.4-1.1,1.2v1h-1v-3.3h1v.6c.2-.4.6-.7,1.1-.7s.2,0,.2,0"/>
          <path class="st0" d="M101.6,36.4h-1v-.3c-.3.2-.6.4-1,.4-.9,0-1.6-.7-1.6-1.7s.7-1.7,1.6-1.7.8.1,1,.4v-.3h1v3.3ZM100.5,34.8c0-.5-.4-.8-.8-.8s-.8.3-.8.8.3.8.8.8.8-.3.8-.8"/>
          <path class="st0" d="M101.6,30l-1.7-3.5-1.7-3.5-5.7-11.3-2.2-4.3-2.6-5.1-2.5,4.9-6,11.9-1.4,2.8-1.5,3-.5,1.1-.2.4-1.8,3.6h27.8ZM76.3,28.5l1-2s0,0,0,0c0,0,.2,0,.3,0,0,0,0,0,.1,0,.1,0,.2,0,.3,0,0,0,0,0,0,0h20.1l1,2h-23ZM78.2,25c0,0-.1,0-.2,0l.8-1.6s0,0,0,0c0,0,0,0,.1,0,0,0,.1,0,.2,0,0,0,0,0,.1,0,0,0,.1,0,.2,0,0,0,0,0,.1,0,0,0,.1,0,.2,0,0,0,0,0,.1,0,0,0,.1,0,.2,0,0,0,0,0,.1,0,0,0,.1,0,.2,0,0,0,0,0,.1,0,0,0,.1,0,.2,0,0,0,0,0,.1,0,0,0,.1,0,.2,0,0,0,0,0,.1,0,0,0,.1,0,.2,0,0,0,0,0,.1,0,0,0,.1,0,.2,0,0,0,0,0,0,0,0,0,.2,0,.3,0,0,0,0,0,.1,0,0,0,.1,0,.2,0,0,0,0,0,.1,0,0,0,.1,0,.2,0,0,0,0,0,.1,0,0,0,.1,0,.2,0,0,0,0,0,.1,0,0,0,0,0,.1,0,0,0,0,0,.1,0,0,0,0,0,.1,0,0,0,0,0,.1,0,0,0,0,0,.1,0,0,0,0,0,.1,0,0,0,0,0,.1,0,0,0,0,0,.1,0,0,0,0,0,.1,0,0,0,0,0,.1,0,0,0,0,0,.1,0,0,0,0,0,.1,0,0,0,0,0,.1,0,0,0,0,0,.1,0,0,0,0,0,.1,0,0,0,0,0,.1,0,0,0,0,0,.1,0,0,0,0,0,.1,0,0,0,0,0,.1,0,0,0,0,0,.1,0,0,0,0,0,.1,0,0,0,0,0,.1,0,0,0,0,0,.1,0,0,0,0,0,.1,0,0,0,0,0,.1-.1,0,0,0,0,.1,0,0,0,0,0,.1-.1,0,0,0,0,.1,0,0,0,0,0,.1-.1,0,0,0,0,0,0,0,0,0,0,.1-.1,0,0,0,0,0,0,0,0,.1-.1.2-.2,0,0,.1-.1.2-.2,0,0,0,0,0,0,0,0,0,0,.1-.1,0,0,0,0,0,0,0,0,0,0,.1-.1,0,0,0,0,0,0,0,0,0,0,.1-.1,0,0,0,0,0,0,0,0,0,0,.1-.1,0,0,0,0,0-.1,0,0,0,0,.1-.1,0,0,0,0,0-.1,0,0,0,0,0-.1,0,0,0,0,0-.1,0,0,0,0,0-.1,0,0,0,0,0-.1,0,0,0,0,0-.1,0,0,0,0,0-.1,0,0,0-.1,0-.2,0,0,0,0,0,0,0,0,0-.1.1-.2,0,0,0,0,0,0,0,0,0-.2.1-.3,0,0,0,0,0,0,0,0,0-.1,0-.2,0,0,0,0,0,0,0,0,0-.1,0-.2,0,0,0,0,0-.1,0,0,0-.1,0-.2,0,0,0,0,0-.1,0,0,0-.1,0-.2,0,0,0,0,0-.1,0,0,0-.1,0-.2,0,0,0,0,0-.1,0,0,0-.1,0-.2,0,0,0,0,0-.1,0,0,0-.1,0-.2,0,0,0,0,0-.1,0,0,0-.1,0-.2,0,0,0,0,0-.1,0,0,0-.1,0-.2,0,0,0,0,0-.1,0,0,0-.1,0-.2,0,0,0,0,0,0,0,0,0-.2,0-.3,0,0,0,0,0,0,0,0,0-.2,0-.3,0,0,0,0,0,0,0,0,0-.1,0-.2,0,0,0,0,0-.1,0,0,0-.1,0-.2,0,0,0,0,0-.1,0,0,0-.1,0-.2,0,0,0,0,0-.1,0,0,0-.1,0-.2,0,0,0,0,0-.1,0,0,0-.1,0-.2,0,0,0,0,0-.1,0,0,0,0,0,0l1.2,2.4s0,0,0,0c0,0,0,0,0,.1,0,0,0,.1,0,.2,0,0,0,0,0,.1,0,0,0,.1,0,.2,0,0,0,0,0,.1,0,0,0,.1,0,.2,0,0,0,0,0,.1,0,0,0,.1,0,.2,0,0,0,0,0,.1,0,0,0,0,0,.1,0,0,0,0,0,.1,0,0,0,0,0,.1,0,0,0,0,0,.1,0,0,0,0,0,.1,0,0,0,0,0,.1,0,0,0,0,0,.1,0,0,0,0,0,.1,0,0,0,0,0,.1,0,0,0,0,0,.1,0,0,0,0,0,.1,0,0,0,0,0,.1,0,0,0,0,0,.1,0,0,0,0,0,.1,0,0,0,0,0,.1,0,0,0,0,0,.1,0,0,0,0,0,.1,0,0,0,0,0,.1,0,0,0,0,0,.1,0,0,0,0,0,.1,0,0,0,0,0,.1,0,0,0,0,0,.1,0,0,0,0,0,.1,0,0,0,0,0,.1,0,0,0,0,0,.1,0,0,0,0,0,.1,0,0,0,0,0,.1,0,0,0,0,0,.1,0,0,0,0,0,.1,0,0,0,0,0,.1,0,0,0,0,0,.1,0,0,0,0,0,.1,0,0,0,0,0,.1,0,0,0,0,0,.1,0,0,0,0,0,.1,0,0,0,0,0,.1,0,0,0,0,0,.1,0,0,0,0,0,.1,0,0,0,0,0,.1,0,0,0,0,0,.1,0,0,0,0-.1.1,0,0,0,0,0,.1,0,0,0,0-.1.1,0,0,0,0,0,0,0,0,0,0-.1.1,0,0,0,0,0,0,0,0,0,0-.1.1,0,0,0,0,0,0,0,0,0,0-.1.1,0,0,0,0,0,0,0,0,0,0-.1.1,0,0,0,0,0,0,0,0-.1.1-.2.2-1.9,1.6-4.2,2.7-6.6,3.1-.2,0-.4,0-.6,0-.2,0-.4,0-.6,0-.4,0-.8,0-1.2,0M81.5,18.1l4.5-9h0s0,0,0,.1c0,0,0,0,0,0,0,0,0,0,0,.1,0,0,0,0,0,0,0,0,0,0,0,.1,0,0,0,0,0,0,0,0,0,0,0,.1,0,0,0,0,0,.1,0,0,0,0,0,.1,0,0,0,0,0,.1,0,0,0,0,0,.1,0,0,0,0,0,.1,0,0,0,0,0,.1,0,0,0,0,0,0,0,0,0,.1,0,.2,0,.1,0,.2,0,.3,0,0,0,0,0,.1,0,0,0,.1,0,.2,0,0,0,0,0,.1,0,0,0,.1,0,.2,0,0,0,0,0,.1,0,0,0,.1,0,.2,0,0,0,0,0,.1,0,0,0,.2,0,.2,0,0,0,0,0,0,0,.1,0,.2,0,.3,0,0,0,0,0,0,0,0,0,.2,0,.2,0,0,0,0,0,.1,0,0,0,.1,0,.2,0,0,0,0,0,.1,0,0,0,.1,0,.2,0,0,0,0,0,.1,0,0,0,.1,0,.2,0,0,0,0,0,0,0,0,0,.2-.1.3h0c0,0,0,.2-.1.3,0,0,0,0,0,0,0,0,0,.1-.1.2,0,0,0,0,0,0,0,0,0,.1-.1.2,0,0,0,0,0,0,0,0,0,.1-.1.2,0,0,0,0,0,0,0,0-.1.1-.2.2,0,0,0,0,0,0,0,0-.1.2-.2.2,0,0,0,0,0,0,0,0-.1.1-.2.2,0,0,0,0,0,0,0,0,0,0-.1.1,0,0,0,0,0,0,0,0-.1,0-.2.1,0,0,0,0,0,0,0,0-.1.1-.2.1,0,0,0,0,0,0,0,0-.2.1-.2.2,0,0,0,0,0,0,0,0-.2.1-.2.2,0,0,0,0,0,0,0,0-.1,0-.2.1,0,0,0,0,0,0,0,0-.1,0-.2.1,0,0,0,0-.1,0,0,0-.1,0-.2,0,0,0,0,0,0,0,0,0-.2,0-.2.1,0,0,0,0,0,0,0,0,0,0,0,0M87.7,5.6l1.2,2.3c0,0,0,.1,0,.2,0,0,0,.1,0,.2,0,0,0,.1,0,.2,0,0,0,.1,0,.2,0,0,0,.1,0,.2,0,0,0,.1,0,.2,0,0,0,.1,0,.2,0,0,0,.1,0,.2,0,0,0,.1,0,.2,0,0,0,.1,0,.2,0,0,0,.2,0,.2,0,0,0,0,0,.1,0,0,0,.2,0,.3,0,0,0,0,0,.1,0,.1,0,.2,0,.4,0,2.9-1.1,5.7-3.2,7.8-.1.1-.2.2-.3.3,0,0,0,0,0,0,0,0-.2.2-.3.3,0,0,0,0,0,0-.1,0-.2.2-.3.3,0,0,0,0,0,0-.1,0-.2.2-.3.2,0,0,0,0,0,0-.1,0-.2.2-.3.2,0,0,0,0,0,0-.1,0-.2.1-.3.2,0,0,0,0,0,0-.1,0-.2.1-.3.2,0,0,0,0,0,0-.1,0-.2.1-.4.2,0,0,0,0,0,0-.1,0-.2.1-.4.2,0,0,0,0,0,0-.1,0-.2.1-.4.2,0,0,0,0,0,0-.1,0-.2,0-.4.1,0,0,0,0,0,0-.1,0-.3,0-.4.1,0,0,0,0,0,0-.1,0-.3,0-.4.1,0,0,0,0,0,0-.1,0-.3,0-.4,0,0,0,0,0,0,0-.1,0-.3,0-.4,0,0,0,0,0,0,0-.1,0-.3,0-.4,0,0,0,0,0,0,0l.9-1.8s0,0,0,0c0,0,0,0,.1,0,0,0,.2,0,.2,0,0,0,.1,0,.2,0,0,0,.1,0,.2,0,0,0,.1,0,.2,0,0,0,.1,0,.2,0,0,0,.1,0,.2,0,0,0,.1,0,.2,0,0,0,.1,0,.2,0,0,0,.1,0,.2,0,0,0,.1,0,.2,0,0,0,.1,0,.2,0,0,0,.1,0,.2,0,0,0,.1,0,.2-.1,0,0,.1,0,.2,0,0,0,.1,0,.2-.1,0,0,0,0,.1,0,0,0,.1,0,.2-.1,0,0,0,0,.1-.1,0,0,.1,0,.2-.1,0,0,0,0,.1-.1,0,0,.1,0,.2-.1,0,0,0,0,.1-.1,0,0,.1,0,.2-.1,0,0,0,0,.1-.1,0,0,.1-.1.2-.2,0,0,0,0,.1-.1,0,0,.1-.1.2-.2,0,0,0,0,0,0,0,0,.2-.2.3-.3.9-1.1,1.5-2.3,1.8-3.6.2-.8.3-1.6.3-2.4s0-.2,0-.2c0,0,0,0,0,0,0,0,0-.1,0-.2,0,0,0,0,0,0,0,0,0,0,0-.1,0,0,0,0,0-.1,0,0,0,0,0-.1,0,0,0,0,0-.1,0,0,0,0,0-.1,0,0,0,0,0-.1,0,0,0,0,0-.1,0,0,0,0,0-.1,0,0,0,0,0-.1,0,0,0,0,0-.1,0,0,0,0,0-.1,0,0,0,0,0,0,0,0,0-.1,0-.2,0,0,0,0,0,0,0,0,0-.1,0-.2,0,0,0,0,0,0,0,0,0-.2,0-.2,0,0,0,0,0,0,0,0,0-.1,0-.2,0,0,0,0,0,0,0,0,0,0,0-.1,0,0,0,0,0,0,0,0,0,0,0-.1,0,0,0,0,0,0,0,0,0,0,0,0l.8-1.6ZM95.7,21.5h-6.1c.1-.1.2-.2.3-.4,0,0,0,0,0-.1,0,0,.2-.2.2-.3,0,0,0,0,0-.1,0-.1.2-.2.2-.3,0,0,0,0,0,0,0-.1.2-.3.3-.4,0,0,0,0,0-.1,0,0,.1-.2.2-.3,0,0,0,0,0-.1,0-.1.1-.2.2-.3,0,0,0,0,0,0,0-.1.2-.3.2-.4,0,0,0,0,0,0,0-.1.1-.2.2-.3,0,0,0,0,0-.1,0-.1.1-.2.2-.3,0,0,0,0,0-.1,0-.1.1-.3.2-.4,0,0,0,0,0,0,0-.1.1-.3.2-.4,0,0,0,0,0-.1,0-.1,0-.2.1-.3,0,0,0,0,0-.1,0,0,0,0,0,0l2.8,5.5ZM96.5,23l1,2h-12.6s0,0,0,0c.1,0,.2-.1.4-.2,0,0,0,0,0,0,0,0,.2,0,.3-.1,0,0,0,0,.1,0,.1,0,.2-.1.4-.2,0,0,0,0,0,0,.1,0,.2-.1.3-.2,0,0,0,0,.1,0,0,0,.2-.1.3-.2,0,0,0,0,0,0,.1,0,.2-.2.3-.2,0,0,0,0,0,0,0,0,.2-.1.3-.2,0,0,0,0,0,0,.1,0,.2-.2.3-.3h8.5Z"/>
        </g>
      </g>
    </g>
  </g>
</svg>