<?xml version="1.0" encoding="UTF-8"?>
<svg id="Arte" xmlns="http://www.w3.org/2000/svg" version="1.1" viewBox="0 0 333.19838 44.7773">
  <!-- Generator: Adobe Illustrator 29.0.0, SVG Export Plug-In . SVG Version: 2.1.0 Build 186)  -->
  <defs>
    <style>
      .st0 {
        fill: blue;
      }
    </style>
  </defs>
  <g>
    <path class="st0" d="M333.19838,44.7773c-.12115,0-.22503,0-.32891,0-8.14779,0-16.29558.00003-24.44336-.00007q-.36993,0-.37064-.38064c-.00012-14.67217-.00012-29.34434,0-44.01651q0-.3795.37128-.38c8.14779-.00009,16.29558-.00007,24.44336-.00007h.32826v44.77729ZM312.97773,32.25574c.14434-.14009.13965-.2372-.02077-.34836-.34071-.23609-.51288-.55995-.41826-.98293.09341-.41761.38688-.64554.78091-.74232.6221-.1528,1.22265-.05126,1.75778.28275.47072.2938.89595.65957,1.35426.97462.46481.31952.9145.6874,1.425.90912,1.63874.71172,3.26755.4829,4.84336-.23012,1.15759-.52378,1.95984-1.45822,2.65917-2.48809.561-.82617,1.0924-1.67443,1.68956-2.47349.57225-.76573,1.34558-1.23744,2.32847-1.3095.83065-.0609,1.69825.23078,1.96543,1.09045.00834.02685.0362.04762.05996.07751.27154-.5674.18796-1.23002-.2661-1.68279-.28416-.28335-.60645-.5613-.96398-.73151-.86701-.41276-1.75914-.7749-2.65141-1.13173-1.00671-.40258-1.77433-1.05972-2.21666-2.05347-.22155-.49776-.41221-1.01644-.54948-1.54324-.35281-1.35394-.84216-2.64131-1.66762-3.78343-.09008-.12463-.18641-.24472-.27984-.36691-.04176.10082-.02524.17561-.02294.25085.01991.65098.10783,1.30958.03939,1.95137-.11215,1.05175-.69876,1.89186-1.41581,2.63872-.52646.54835-1.07445,1.07623-1.5939,1.631-.47745.50993-.72186,1.12102-.71472,1.83064.00293.29057-.02238.58288-.05505.87211-.19879,1.75977-1.07373,3.04761-2.70705,3.7623-.63617.27837-1.31464.45836-1.96644.70293-.52631.19748-1.08006.36169-1.55341.65207-.92054.56471-.82081,1.74148.16013,2.24146ZM312.44049,32.12137c-.04029-.05924-.06743-.10315-.09843-.14415-.53212-.70355-.42489-1.56022.30276-2.06333.32169-.22242.69563-.38353,1.06544-.51881.73668-.26949,1.49704-.47534,2.22922-.75564,1.17588-.45016,2.09429-1.20187,2.58748-2.39905.31102-.75498.42127-1.5506.42244-2.35892.00075-.52556.1368-.99981.44206-1.41615.2239-.30537.48007-.58861.73675-.86801.57467-.62554.45038-1.39489-.30204-1.78254-.14026-.07226-.29087-.13129-.44323-.17201-.87749-.23453-1.77456-.26316-2.65042-.06557-1.80527.40725-3.59657.87622-5.39697,1.30573-.2331.05561-.35647.17011-.45929.37526-.63446,1.266-1.41686,2.42874-2.4563,3.40122-.15174.14196-.20249.28634-.20224.48562.00432,3.37233.00308,6.74465.00308,10.11698v.27859c.02341.01201.04682.02403.07022.03604,1.38065-1.14967,2.76131-2.29934,4.14945-3.45524ZM312.94672,7.9726c.04644,1.43536.09202,2.84442.13713,4.2387.93464.09931,1.91573-.01228,2.26084,1.097.79261-.10583,1.55764-.20798,2.31793-.30949.02664-.39201.04635-.76191.07788-1.13079.08683-1.01594.48251-1.84798,1.3835-2.40407.93273-.57568,1.84944-1.17735,2.77265-1.76844.08497-.0544.16629-.11453.25034-.17271q-.23428-.29952-.57342-.31673c-.54233-.02753-.97588-.6191-.84798-1.13642.0205-.08289-.02263-.20053-.07265-.27888-.39276-.61524-.58668-1.27139-.37647-1.99205.28121-.96402.99371-1.47923,1.91792-1.72073.91276-.2385,1.73-.05258,2.32704.72149.21707.28143.35258.62827.50837.95339.0569.11874.09075.1848.24964.20708.138.01935.31434.14808.3733.27515.16033.34556.14074.73039-.05853,1.04477-.17977.28361-.10577.52437-.04606.79322.03706-.0056.06085-.00199.06997-.01191.02905-.03158.05035-.07019.0787-.10253.2071-.23629.38467-.51224.63034-.69764.34332-.2591.7252-.47585,1.11235-.66642,1.80469-.88834,3.537-1.88903,5.13912-3.11589.35568-.27238.53794-.52745.486-.97686-.04035-.34909-.00991-.35364-.35567-.35365-5.37896-.00023-10.75792-.00023-16.13689.0004-.09148,0-.18297.0085-.36505.01752.69307.48359.86649,1.10778.82178,1.83018-.06665,1.07696-.8518,1.84081-1.92676,1.86083-.0616.00115-.16529.02657-.17715.06376-.1261.39567-.32475.77763-.06091,1.2107.29627.4863.14746.86393-.3826,1.12601-.26434.1307-.49036.28547-.53913.62451-.03471.24135-.13907.47296-.21515.70801q-.18486.57105-.78036.3825ZM333.03504,1.35585c-.13655.09572-.22367.15331-.30712.21581-1.08336.81123-2.18178,1.59908-3.38361,2.23071-.87548.46012-1.75649.9109-2.61669,1.39829-.28515.16157-.52244.41442-.7636.64445-.13075.12471-.14721.27775-.02242.449.31743.43566.60908.89018.92772,1.3249.10789.1472.12053.25889.01273.40137-.12199.16126-.23251.33122-.3851.55075.13283.11016.25658.2235.3911.32213.27571.20215.34412.46676.33547.80328-.04998,1.9446-.13468,3.89074-.09907,5.83437.03008,1.64157.20623,3.28053.32178,4.92036.01511.21436.05435.42702.08503.66041,1.76761-.78755,3.57635-.82411,5.45076-.58068-.05495-.15285-.09023-.26907-.13763-.38009-.65894-1.54334-1.30934-3.09043-1.98233-4.62761-.83025-1.89639-1.38298-3.84577-1.35439-5.94331.01412-1.03644.30642-1.94202,1.01919-2.67852.74937-.77433,1.54248-1.50664,2.32683-2.24631.14135-.13329.20879-.26072.20687-.45506-.00834-.84084-.00307-1.68181-.00435-2.52273-.00013-.08584-.01093-.17167-.02114-.32153ZM308.23739,13.0668c.0613-.05257.09181-.06904.10861-.09455.51466-.78138,1.27268-1.15352,2.17158-1.25893.21361-.02504.28075-.10734.31409-.29328.32081-1.78929.64959-3.57715.96726-5.36699.0794-.44735.30157-.75691.72784-.9302.41683-.16944.81396-.39336,1.2393-.53419.43633-.14446.40632-.53113.5241-.84376.08507-.22581-.17749-.24838-.25215-.38411-.03781-.06873-.1012-.12284-.14462-.18907-.55104-.84061-.35693-2.16195.41046-2.80888.06015-.05071.11599-.10655.23315-.21483h-.37573c-1.85718,0-3.71436-.00013-5.57154.00011q-.36793.00005-.36881.35976c-.00021,4.08063-.00023,8.16126.00047,12.24189.00001.09196.00902.18392.01598.31704ZM328.41133,36.08709c.15922.0099.27071.02273.38222.02286,1.28233.00142,2.56466.00105,3.84699.00085q.416-.00006.41645-.41779c.00011-4.8507.0001-9.70139-.00011-14.55209,0-.08848.01307-.1813-.00948-.26402-.01708-.06263-.08129-.11239-.15987-.21324-.02712.11587-.04136.15674-.04579.19864-.0626.59233-.2683,1.12731-.60737,1.6188-.42174.61133-.8261,1.23468-1.23704,1.85346-.08214.12369-.16008.25019-.24309.38031.0529.04971.08919.08729.12898.12069.87904.73783,1.03164,1.42931.62589,2.49446-.71614,1.87996-1.41699,3.76608-2.09553,5.65992-.35969,1.0039-.659,2.02947-1.00225,3.09714ZM333.03191,4.76374c-.06785.04239-.1089.05952-.13906.08813-.69272.65719-1.39738,1.30246-2.07266,1.97719-.82481.82413-1.17706,1.82599-1.14713,3.00238.04145,1.62935.3504,3.19432.97629,4.69284.67066,1.60572,1.37112,3.19897,2.05716,4.79826.09505.22158.18198.44666.27267.67012.01758-.00423.03516-.00846.05274-.0127V4.76374ZM317.85121,12.97645c.08948,0,.13317.00368.17608-.00055.60602-.05978,1.21218-.11823,1.81781-.18177.95853-.10055,1.66862.27177,2.12743,1.11822.14724.27163.27432.55421.42156.82584.1167.21529.22963.43756.37957.62901.697.88993,1.27442,1.84658,1.6769,2.90579.01996.05253.05192.10049.09977.19138.02069-.07764.03383-.10765.03615-.13847.06465-.86097-.00283-1.71342-.18122-2.55647-.48833-2.30769-.90225-4.62695-1.09916-6.98043-.02213-.26444-.07847-.48911-.35221-.62415-.17022-.08397-.31709-.22616-.45489-.36207-.12874-.12699-.22865-.14185-.38715-.03891-.94149.61151-1.87668,1.23455-2.83998,1.81013-1.31747.78719-1.39075,2.06114-1.42067,3.40246ZM315.34754,13.96968c1.09209.02721,2.17529.14788,3.20725.55014,1.02633.40007,1.94825.96715,2.76119,1.71849-.10372.03242-.18573.0219-.26221-.0046-.72574-.25143-1.46518-.28074-2.2203-.16707-.9169.13803-1.77438.45375-2.6127.83375q-.45242.20508-.36592.68658c.00578.03206.02259.06212.03885.10523.51318-.1668,1.00973-.35531,1.52127-.48435.30974-.07814.64551-.10424.9645-.08167.42259.02989.79795.40447.87064.78359.08788.45835-.08283.80012-.53799,1.04514-.15444.08313-.32398.1379-.48552.20817-.05609.0244-.10884.05646-.22457.11737.15283.00805.23279.00359.30932.01772.45786.0845.92953.12824,1.36892.27094.70345.22845.93706.60002.9609,1.34279.00102.03161.01036.06296.01775.10546.03903-.01575.06742-.01903.08332-.03487.2005-.19966.40333-.39721.59765-.6028.94679-1.00173,1.481-2.1637,1.3858-3.57234-.06752-.99901-.38436-1.91698-.88573-2.77555-.53263-.91212-1.14188-1.2009-2.18934-1.06365-.55989.07336-1.12259.12504-1.68324.19289-.76155.09215-1.52395.17953-2.28283.2906-.38335.05611-.38041.07794-.33699.51805ZM317.85317,36.07948c.11059.01316.18562.02981.26067.02989,1.53883.00147,3.07769.00506,4.61642-.00709.11472-.00091.27191-.08808.3364-.1842,1.48309-2.21021,2.95774-4.42611,4.42561-6.64648.06966-.10537.08636-.26144.087-.3941.00235-.48577-.03138-.97235-.01257-1.45712.00876-.22577.10682-.44807.16441-.67194-.02027-.01468-.04054-.02936-.06081-.04404-.29157.35048-.60838.68325-.86907,1.0554-.4411.62967-.84157,1.28769-1.26849,1.92752-.60371.90478-1.29696,1.72622-2.23213,2.31047-.81638.51003-1.70955.79644-2.66626.87193-.29175.02302-.49722.1159-.67763.36676-.62992.87594-1.28828,1.73139-1.93503,2.59523-.05174.0691-.09739.14277-.16852.24777ZM326.49374,36.07325c.03921.0131.0635.02812.08793.02835.45066.0041.90165-.00267,1.35186.01304.22075.0077.31689-.06724.38646-.28621.88153-2.77435,1.7377-5.55795,2.87295-8.24392.02943-.06962.03779-.15358.03565-.23028-.01617-.58002-.35844-1.06497-.92367-1.22149-.30862-.08546-.64434-.12038-.96476-.10657-.883.03806-1.49408.54222-1.59311,1.40456-.06873.59842.01321,1.21451.03199,1.82258.01635.52937.11199,1.06854.04186,1.58563-.12164.89692-.30959,1.78902-.53437,2.66656-.22044.86058-.52143,1.7005-.79279,2.56777ZM324.69733,18.87953c.00609.10217-.00102.15607.01367.20315.2127.68187.39499,1.37567.65091,2.04105.40517,1.05345,1.16463,1.7744,2.22156,2.17756.44515.1698.89365.33223,1.33153.51935.56551.24167,1.12191.50471,1.71242.77222.5784-.89018,1.18673-1.78068,1.73971-2.70438.1737-.29014.20442-.66806.28893-1.0087.03611-.14552-.02731-.21694-.19303-.23608-1.67767-.19376-3.31241-.07847-4.86512.65204-.14967.07042-.23207.05616-.24792-.12817-.0333-.38721-.07311-.77387-.11118-1.16066-.04291-.43594-.08683-.87179-.13443-1.34894-.79275.27074-1.5795.30197-2.40703.22157ZM325.36239,7.92572c-.44787.90243-1.13138.89879-1.92453.58334.04136.36671.0669.68216.11383.9944.23734,1.57905.46694,3.15944.72566,4.73503.18709,1.13935.52542,2.25607.49661,3.42609-.00446.1812.09522.21067.23416.19282.57562-.07392,1.15042-.15416,1.7261-.22765.26272-.03354.29352-.18085.28309-.42259-.04418-1.02445-.06095-2.05006-.0891-3.07522-.00939-.34191.04138-.70108-.04543-1.02259-.39995-1.48128-.83736-2.95246-1.26511-4.42616-.06791-.23398-.15518-.46234-.25527-.75749ZM320.96208,6.14943c-.17217.44077.31064.96065.71477.85874.18982-.04787.26482.03218.38029.1292.465.39073.91638.80389,1.41726,1.14297.23858.16151.57818.24631.86974.24099.55595-.01015.79253-.43869.92647-.91239.17405-.61554.13274-1.23956.04221-1.86586-.02023-.13995.01718-.31027.08451-.43642.15335-.28735.20781-.58158.14172-.89467-.03588-.16998-.11704-.31329-.36316-.26499.02759.12719.07716.23901.06707.34516-.00845.08896-.06791.20649-.14006.24476-.05221.0277-.1897-.03072-.24031-.09149-.08852-.10632-.1379-.24484-.20647-.36831-.26881-.48399-.79925-.58709-1.20501-.21955-.33236.30106-.71537.42339-1.1573.44497-.23051.01126-.47326.07413-.68142.17422-.36046.17332-.48114.54392-.34002.92062.05563.14848.15031.28582.18377.43781.02058.09349-.01027.25849-.07356.29504-.07864.04541-.21888.00542-.3238-.02645-.04379-.0133-.06514-.10066-.09669-.15435ZM319.95531,32.91859c-1.23406.06387-2.26716-.31504-3.20813-1.00697-1.2015,1.28037-2.25647,2.63791-3.15676,4.16267.11227.01726.171.03409.22976.03417,1.19284.00166,2.38573.00684,3.5784-.00719.11461-.00135.26199-.09822.3363-.19516.69349-.90476,1.37461-1.81902,2.05819-2.73137.04554-.06078.08185-.12848.16223-.25614ZM316.58571,31.78649c-.33916-.26386-.65257-.53928-.99662-.76867-.68375-.45586-1.31752-.35876-1.81244.29659-.24788.32823-.44357.70126-.62702,1.07181-.37983.76722-.72155,1.55346-1.10665,2.31789-.23335.4632-.51859.90021-.79987,1.38215.10964.00968.1936.02321.2776.02351.53048.0019,1.06106-.00484,1.59139.00398.17975.00299.28091-.06528.38182-.21469.55375-.81988,1.10157-1.64516,1.69172-2.43855.42568-.57227.91425-1.09769,1.40007-1.67403ZM313.33334,12.36765c-.62596.04622-1.2241.1419-1.77174.44193-1.0102.55345-1.16407,1.54805-.37923,2.37605.28557.30127.59331.58977.82828.92773.14247.20492.28711.24446.4794.1926,1.26243-.34047,2.15349-1.11957,2.61843-2.33993.23791-.62446-.05411-1.18059-.69157-1.38764-.34738-.11283-.7215-.14319-1.08356-.21075ZM327.54888,29.51929c-1.44866,2.17563-2.89733,4.35126-4.3653,6.55589.10409.01856.14629.03258.1885.03265.9015.00141,1.80301-.00132,2.70449.00372.16737.00093.22286-.08873.27268-.22745.48658-1.35464.90387-2.7289,1.19911-4.13906.15366-.73395.14984-1.46988.00052-2.22575ZM311.16025,20.73056c.09701-.01314.14894-.01535.19841-.02756,1.87458-.4626,3.7504-.92029,5.6224-1.39316.53709-.13567,1.07411-.28658,1.59054-.48443.39953-.15307.56929-.46572.52673-.77289-.05281-.38106-.30838-.68993-.72099-.74487-.29541-.03934-.62467-.02833-.90584.06253-1.86274.60193-3.7168,1.23079-5.57244,1.85461-.07844.02637-.18346.07335-.21016.13801-.18129.43916-.34486.88564-.52865,1.36777ZM312.58099,6.39198c.11522.01889.19022.03365.26588.0432.49675.06268.5907.02243.73636-.44722.09258-.29848.25883-.5041.51644-.66808.1454-.09255.27952-.22143.37815-.36238.06391-.09134.05455-.23404.07801-.35373-.42138.45013-.81059.67934-1.10269.59262.09468-.22603.49504-.1458.51404-.51484-.52696.23505-1.00946.44974-1.49148.66549-.2933.13128-.43491.37292-.49084.67769-.28011,1.52644-.56191,3.05256-.84082,4.57922-.06419.35137-.11932.7044-.17177,1.01592.6653.16729,1.29082.32457,1.93414.48633,0-.08828.00247-.18407-.00038-.27971-.03606-1.2104-.04282-2.42277-.12245-3.63031-.03869-.58667.10967-1.20037-.2026-1.80419ZM315.21893,3.6771c.4081.00044.76584-.13554,1.04817-.42985.54336-.56643.71954-1.23936.5323-2.00188-.30786-1.25373-1.86494-1.3547-2.5129-.62486-.39251.4421-.57065.96111-.53566,1.53448.05783.94778.63183,1.52106,1.4681,1.52212ZM315.77414,16.91385c1.55723-.73099,3.10395-1.29573,4.84952-1.04257-.01615-.05149-.0553-.05631-.08362-.07641-1.46636-1.04078-3.08417-1.61915-4.89453-1.63744-.28633-.0029-.44951.05853-.58274.33954-.15535.32765-.40411.61094-.63054.93993.7898.16518,1.14976.73255,1.34191,1.47695ZM311.79506,19.05812c.16087-.04625.2611-.0709.35858-.10372.96121-.32364,1.92177-.64922,2.88293-.97304.70638-.23798.71792-.23943.57237-.9668-.12954-.64737-.41272-1.18389-1.11497-1.38028-.17899-.05006-.3137-.02697-.45988.09552-.47513.39816-1.01279.67908-1.63331.76405-.16694.02285-.18433.09899-.20296.2397-.07855.59325-.17052,1.18482-.26541,1.77574-.02614.1628-.07942.32122-.13734.54883ZM321.33648,6.23314c-.10148-.25576-.17914-.43805-.24651-.62407-.13673-.37753-.02694-.69968.25514-.96065.26595-.24604.60659-.3344.95545-.33032.41589.00486.74882-.14328,1.05537-.41219.47426-.41603,1.13217-.28421,1.44748.2743.07053.12492.14002.25043.24006.42949-.001-1.16729-.89057-2.2669-1.91161-2.43516-1.04999-.17304-2.32278.57409-2.6578,1.56013-.27859.81994.13099,2.10475.86243,2.49848ZM309.63331,36.11065c.3715,0,.74323-.00772,1.1144.00331.18161.0054.2869-.06476.38533-.21544.6646-1.01741,1.2175-2.09218,1.68417-3.21317.05306-.12745.11243-.22533-.04459-.33703-.14554-.10355-.2356-.08444-.36391.02471-.61309.52155-1.23458,1.0332-1.85298,1.5485-.71354.59459-1.42989,1.18587-2.13671,1.78836-.08787.0749-.12495.2095-.18556.31644.10396.02815.20733.07766.31199.08056.36238.01005.7252.00388,1.08785.00377ZM308.22814,23.41894c.02308.00771.04617.01542.06925.02312.05303-.05665.10956-.11043.1586-.17036,1.7187-2.10039,2.78267-4.46493,2.95161-7.20643.02543-.4127-.17011-.6067-.47641-.8284-.08244.18868-.18554.35014-.22386.52576-.13516.61946-.27195,1.24023-.36492,1.86692-.25469,1.71685-.80066,3.31604-1.89845,4.68118-.29384.3654-.19838.73119-.21581,1.1082ZM311.25797,12.86471c-.02302-.03165-.04605-.06329-.06907-.09494-.06587-.00987-.13155-.0268-.19762-.02853-.82686-.02159-1.49198.41806-1.75051,1.30336-.21598.73958-.33846,1.51325-.43185,2.28041-.14499,1.19107-.25315,2.38414-.54028,3.55528-.08075.32936-.01233.69535-.01233,1.04455.15529-.17987.26392-.3694.35227-.56798.53888-1.21118.67486-2.51241.856-3.80567.09267-.66163.21609-1.32122.37298-1.97026.05148-.21293.21155-.46245.39471-.56478.23207-.12966.32976-.29618.43168-.51446.09101-.1949.24673-.362.38786-.52958.04617-.05482.13619-.07265.20616-.10739ZM308.2208,18.9198l.05647.00769c.02329-.08921.05716-.17712.06825-.26782.12637-1.03345.24302-2.06813.37533-3.10081.08638-.67419.19254-1.34625.51368-1.95989.32519-.62138.83165-1.00161,1.53747-.99612.53399.00416,1.04226-.04583,1.53473-.25184.08079-.0338.17135-.04419.25739-.0654-.84722-.41447-1.71162-.54549-2.60436-.28958-1.14608.32853-1.73896,1.1312-1.73896,2.317,0,1.44176,0,2.88352,0,4.32529v.28147ZM308.2947,22.21792c.06306-.0802.12827-.15881.18886-.24083,1.00313-1.35799,1.48402-2.91163,1.72077-4.56108.11122-.77486.16516-1.56809.58627-2.26505.02143-.03547.01711-.10211-.00064-.14324-.12597-.29184-.25857-.5808-.40986-.9169-.08869.0984-.22508.20067-.29344.3371-.10155.20267-.18796.42427-.22327.64695-.17137,1.08067-.30972,2.16666-.48668,3.24634-.15494.94533-.38722,1.8792-.92141,2.68687-.25678.38825-.24142.77005-.1606,1.20985ZM308.24593,24.56446c.11042-.10084.17612-.15625.23666-.21682,1.0572-1.05754,1.83704-2.30417,2.46198-3.65219.56354-1.21557.99035-2.47271,1.09664-3.82187.0316-.40102-.14615-.78595-.46339-.92526-.00694.07271-.012.14081-.02012.20854-.06095.5079-.09235,1.02156-.18907,1.52257-.42718,2.21273-1.44029,4.14413-2.90056,5.84079-.27168.31567-.25913.62284-.22213,1.04422ZM326.93092,12.42311c.01637-.00045.03275-.0009.04913-.00134.00849-.09212.02328-.18415.0245-.27636.01112-.8409.00907-1.68219.03624-2.52254.00764-.2362-.0611-.39284-.22653-.55241-.51627-.49797-.51037-.5041-.12633-1.08638.00487-.00737.01546-.01431.01524-.02119-.00297-.09161.02622-.20515-.0169-.27117-.28514-.43666-.58442-.86414-.88346-1.29155-.03615-.05167-.09845-.08502-.14863-.12686-.0301.06454-.08088.12725-.08674.19392-.0263.29912-.04797.59918-.0549.89928-.00414.17916-.01126.36924.04013.53686.27427.89472.57396,1.78163.85007,2.67581.1886.61077.35298,1.22903.52819,1.84394ZM312.20084,41.15431c.01455.00309.0291.00618.04365.00927,0,.08424,0,.16848,0,.25272.00006.71702.00079,1.43404-.00049,2.15106-.00021.11494.00809.23773.15975.20094.07285-.01769.17871-.11756.17952-.18136.01166-.92046.00947-1.84112.0045-2.76171-.00032-.05907-.03467-.14583-.08039-.17188-.17907-.10204-.43062-.0009-.51611.19804-.25465.59257-.50582,1.18663-.76005,1.77939-.08146.18992-.1682.37758-.27448.61541-.19625-.45774-.37012-.86205-.54298-1.2668-.16303-.38172-.33839-.7589-.4826-1.14764-.09283-.25024-.28525-.2205-.45501-.18077-.06517.01525-.12947.1812-.13424.28135-.01642.34445-.00644.69017-.00636,1.0354.00012.53113.00417,1.06229-.00153,1.59336-.00196.1822.08748.25531.24243.20048.05382-.01905.09454-.15167.09525-.23282.00695-.79901.0042-1.59812.0042-2.47664.05069.11476.06863.15357.08512.193.32369.77403.64337,1.54979.97607,2.31991.03754.08691.15002.19858.22478.19641.07789-.00228.18-.11503.22281-.20317.12708-.26169.22984-.53519.34275-.80379.22425-.53348.44893-1.06679.67343-1.60016ZM316.62619,41.1006c.08606.11907.13729.186.18439.25573.50935.75415,1.01307,1.51221,1.53373,2.25845.05985.08579.21318.10624.32317.15698.03668-.08831.10443-.17634.10522-.26498.00783-.87551.00556-1.75113.00319-2.6267-.0003-.11075.01916-.23905-.16006-.24581-.19256-.00728-.18403.12347-.18435.24889-.00152.58372-.00109,1.16745-.00132,1.75117-.00006.14513,0,.29026,0,.43539-.10483-.04732-.15391-.10439-.19561-.16641-.42895-.63794-.85644-1.27685-1.28507-1.91501-.064-.0953-.11263-.22113-.20276-.27334-.10293-.05962-.24414-.06439-.36917-.06655-.03179-.00056-.09351.09887-.09384.15266-.0058.93746-.00674,1.87499.00238,2.81239.00053.05471.10374.15837.1448.15163.07058-.01161.15338-.08045.18705-.14742.03203-.06371.00819-.15577.0082-.23537.00011-.73959.00006-1.47917.00006-2.28168ZM315.04227,38.38384c.32721-.25993.3877-.56741.26154-.90491-.13347-.35707-.43071-.49916-.7899-.52294-.25539-.01691-.51203-.01403-.76798-.0235-.15539-.00575-.2195.058-.21862.21946.00489.90286.00368,1.80577.00123,2.70864-.00038.14162.04699.21148.19964.20793.30053-.00697.60194.00942.90186-.00588.53813-.02746.88549-.36205.90621-.85202.01537-.36359-.16321-.62024-.49399-.82677ZM321.0818,37.44671c.01563-.00697.03126-.01394.04689-.02092.0494.0699.10013.13891.14801.20983.5097.75491,1.02219,1.50797,1.52539,2.26719.09259.13969.21048.21057.3501.14671.06122-.028.0971-.17133.09786-.26268.00718-.85858.0054-1.71725.00364-2.57589-.0006-.29041-.04455-.31804-.34273-.2145v2.49878c-.16132-.24112-.28176-.42214-.40321-.60247-.41-.60876-.8104-1.2245-1.24082-1.81845-.06822-.09414-.27095-.10394-.41484-.11768-.02629-.00251-.09836.16446-.09916.25364-.00767.85857-.00578,1.71724-.00395,2.57589.00063.29572.03496.31815.33282.22884v-2.56829ZM328.96553,42.20637c-.00459.88165.74794,1.62422,1.64752,1.6257.88672.00146,1.66466-.75666,1.66445-1.62204-.00021-.8665-.77268-1.62462-1.66018-1.62933-.88972-.00473-1.64717.74075-1.65178,1.62567ZM327.3895,40.11036c.53397-.0496,1.05847-.04332,1.55493-.1583.6266-.14512,1.05044-.7664,1.05999-1.39644.01052-.69399-.37225-1.27122-1.00764-1.49675-.52073-.18483-1.05893-.12388-1.60729-.11538v3.16687ZM318.20942,36.91684v3.12014c.26512.08745.32622-.02472.32367-.25411-.00826-.74267-.00354-1.4855-.00226-2.22827.00016-.09391.00967-.1878.01661-.31372.29705.01384.57274-.00101.83769.04548.40287.07068.59753.32909.5808.69788-.01628.35905-.25017.5831-.65726.62845-.15001.01671-.30023.03157-.49552.052.32323.43427.62237.81637.89792,1.21481.13562.1961.29184.21777.53542.15166-.28087-.37844-.54616-.73588-.82033-1.10528.06863-.02014.11738-.03318.16532-.04873.46992-.15244.74102-.51273.72203-.95889-.02043-.47993-.32104-.8616-.81749-.93575-.41451-.06192-.84063-.04602-1.28661-.06569ZM313.18567,40.02752c-.03399-.09045-.06353-.17944-.10031-.26531-.3684-.86018-.7388-1.7195-1.10638-2.58004-.05646-.13219-.09779-.25271-.28691-.25409-.19154-.0014-.23215.1234-.28787.25412-.37043.86905-.74207,1.73759-1.11176,2.60696-.03285.07724-.05461.15919-.08272.24251.22175.08073.34135.02071.41388-.17651.07914-.21517.16404-.43133.27727-.6294.04952-.08663.1726-.17739.26756-.18346.34338-.02194.6892-.00197,1.03371-.01172.16093-.00455.23874.06641.29239.20725.07852.20615.18362.40266.25464.61105.07459.21886.2082.26181.4365.17863ZM323.607,40.02408c.29638.11996.40291-.03371.45286-.24141.14129-.58748.4628-.80724,1.10124-.77628.50767.02462.8112.13342.91983.63921.01455.06774.05994.12832.07977.19555.0677.22951.21214.27361.4235.19197-.00426-.03588-.00146-.06384-.01114-.08647-.40933-.95674-.81645-1.91447-1.23684-2.86633-.03118-.07061-.16002-.13809-.24101-.13533-.08139.00278-.1976.07718-.23295.15147-.16654.35003-.3105.71083-.4626,1.06775-.26213.61511-.5243,1.2302-.79267,1.85988ZM322.95563,40.63378c-.2208,0-.44175.00505-.66235-.00171-.15888-.00486-.21988.06087-.21922.21948.00375.90167.00356,1.80336.00009,2.70502-.0006.1545.05212.22598.21489.2239.44152-.00566.88343.0055,1.3245-.00975.06836-.00236.13314-.1087.19958-.16695-.0645-.05133-.12687-.14347-.19388-.14699-.30829-.01618-.61811-.0151-.9269-.00505-.17659.00575-.26342-.04468-.25358-.23645.01086-.2116.00861-.42442.00054-.63627-.00641-.16809.05218-.23776.22928-.23042.29095.01206.58278.00381.87423.00261.11367-.00047.2664.01558.22718-.15793-.01531-.06777-.15067-.14744-.23596-.15318-.29018-.01953-.58248-.01246-.87384-.00756-.15817.00265-.22399-.06432-.21983-.22147.0056-.21201.0063-.42442-.00033-.63637-.00503-.1609.06362-.21723.22155-.21338.31775.00774.63644.01186.95333-.00671.06911-.00405.13229-.10955.1982-.16832-.06503-.05081-.1268-.13949-.19569-.14543-.21917-.0189-.441-.007-.66179-.00708ZM315.92361,43.73598c-.03704-.10136-.0631-.18461-.09726-.26439-.37189-.86832-.74044-1.73814-1.12417-2.6012-.04381-.09854-.16297-.19485-.26752-.22803-.17909-.05685-.23101.10179-.28792.23604-.36875.86985-.74101,1.73821-1.11077,2.60764-.03531.08303-.06132.17002-.09174.25544.23709.08597.35379.00802.41791-.18701.0357-.1086.10658-.20734.13179-.31737.09668-.42201.34336-.57955.77453-.5165.27675.04048.63074-.08245.82598.05049.20596.14024.2644.49753.38717.76005.00373.00798.00674.01641.00914.0249.06188.21848.2013.27074.43287.17992ZM315.95799,40.04013c.0566.0114.09071.02411.12488.02425.45078.00188.90177.00883,1.35217-.00416.0749-.00216.19668-.08163.21125-.14506.03957-.17221-.10626-.16585-.22217-.16653-.30052-.00176-.60115-.0061-.90155,0-.16483.00335-.24623-.05375-.2403-.22911.00746-.22091.00851-.44257-.00067-.66337-.00729-.17522.06434-.22927.23496-.22324.3178.01123.63654.00878.95427-.00372.05223-.00206.10131-.08442.15185-.12967-.05107-.05355-.09511-.14113-.1547-.15346-.11874-.02457-.24601-.00802-.36975-.00804-.85471-.00008-.85104.0001-.81773-.85865.00644-.16594.05154-.23827.22982-.23133.3089.01201.61914.01281.9276-.00398.07503-.00408.14536-.09479.21785-.14567-.0694-.05522-.13706-.15546-.20848-.15821-.40601-.01567-.81346.00454-1.2193-.01311-.24044-.01045-.29941.08291-.29666.30738.01029.84035.00343,1.6809.00516,2.52138.00019.09504.01404.19006.02149.28431ZM321.16619,41.7973h-.00249c0,.3275.01051.65542-.00266.98239-.01642.40767-.26437.68982-.6072.71937-.46214.03982-.71372-.14462-.81012-.6034-.02337-.11123-.03304-.22718-.03371-.34105-.00336-.56648.00386-1.13311-.00834-1.69935-.00159-.07395-.08117-.19176-.14641-.20964-.15277-.04187-.18811.07397-.18759.20751.00245.62844-.01624,1.25756.00678,1.88518.02429.66228.45895,1.09017,1.06109,1.09353.59208.00331,1.0474-.4276,1.06822-1.05593.02138-.64546.01043-1.29226-.00202-1.93817-.00131-.06806-.10802-.13408-.16583-.20105-.05658.06822-.15803.13391-.16201.20507-.01778.31766-.00772.63688-.00772.95554ZM330.30733,40.06691c.51885,0,1.00401-.00597,1.48891.00267.22249.00397.25933-.09411.18903-.30135-.09718-.00657-.20084-.01848-.30463-.01966-.28274-.0032-.56591.00595-.84801-.00802-.06693-.00331-.18441-.07534-.18668-.1204-.01623-.32227-.00867-.64574-.00867-.99481h1.32608c-.00662-.11014-.01147-.19093-.01787-.29765h-1.29371v-1.07708c.40503,0,.79193.00705,1.17807-.00694.06424-.00233.12517-.09625.18762-.14784-.0617-.05377-.12127-.15089-.18547-.15406-.33501-.01653-.67119-.00934-1.00697-.01007-.17157-.00038-.34314-.00006-.51772-.00006v3.13527ZM324.37641,42.21171c0,.44269.00265.8854-.00141,1.32805-.00146.15902.04185.24623.22482.24185.39783-.00951.79636.00521,1.19382-.0102.07418-.00287.1447-.10027.21692-.15403-.07006-.05591-.13692-.15449-.21076-.16005-.2639-.01986-.531-.02123-.79529-.00436-.22474.01434-.28803-.0719-.28519-.28843.00998-.76129.00448-1.5228.00177-2.28421-.0004-.11085.01932-.23935-.16016-.24605-.19296-.00721-.1838.124-.18423.24937-.00151.44269-.00059.88537-.00029,1.32806ZM313.20041,31.8556c.37517-.62982.74654-1.22853,1.55047-1.32745-.47409-.23839-.94651-.32201-1.44342-.16369-.34951.11135-.5915.33741-.62497.71112-.03245.36234.2087.57723.51793.78002ZM309.32849,37.25024c0,.1269,0,.22173,0,.31656.00002.74271-.00101,1.48543.00111,2.22814.00036.12504-.04195.27845.17923.27279.20355-.00522.16186-.14772.16224-.26286.00249-.75154.00088-1.5031.00192-2.25466.00013-.09368.00791-.18734.01299-.29975.1942,0,.36249.013.52686-.00671.06161-.00739.11411-.09088.17076-.13968-.04981-.05629-.0984-.16015-.14963-.16148-.4855-.01258-.97158-.01273-1.45711-.00087-.05435.00133-.10635.09927-.15943.15241.05331.05203.10217.14207.16076.14893.17186.02012.34759.00717.55031.00717ZM327.80812,40.96258c0,.14016,0,.23575,0,.33135.00001.71667-.00347,1.43336.00322,2.14996.00122.13076-.07841.33184.17721.33077.24748-.00104.1507-.19607.15595-.31433.01254-.28257.00406-.56607.00406-.8492,0-.5374,0-1.07481,0-1.64846.19142,0,.35947.0176.52078-.00774.07586-.01191.13877-.10641.20755-.16349-.06449-.05242-.12772-.14838-.19366-.15027-.45928-.01321-.91929-.01307-1.37858.00009-.06503.00186-.12738.09757-.19097.14984.06764.05716.12877.14999.20433.16383.14403.02636.2963.00764.49011.00764ZM326.71169,42.21161c0-.44236-.00021-.88472.00013-1.32707.0001-.12681.01365-.2547-.17986-.25004-.1771.00426-.16387.1224-.16387.23918-.00006.88472.00005,1.76944-.00021,2.65415-.00004.1268-.01369.25525.17986.24975.1999-.00568.1623-.14805.16298-.26544.00255-.4335.00101-.86702.00097-1.30053ZM327.05138,18.15526c-.02236-.00703-.04122-.02032-.05466-.01615-.68757.21377-1.39033.30774-2.11046.28596-.04944-.00149-.1016.08688-.15249.13347.05288.05113.09962.13748.1596.14797.65507.11459,1.2948.0234,1.93266-.14312.25179-.06573.31198-.18399.22535-.40813ZM313.4351,7.92785c.19903-.7478.56588-1.45022.54652-2.26023-.07615.0593-.13246.12875-.16227.20817-.21387.56972-.41247,1.1454-.63708,1.71077-.09999.2517.00662.31548.25283.34129ZM327.07312,17.80266c-.74627.08417-1.4175.15803-2.08797.23818-.0718.00858-.13922.05387-.20867.08213.0626.04065.12372.11397.18804.1169.65689.02989,1.30206-.04236,1.9226-.27085.06616-.02436.11358-.09967.186-.16636ZM312.94785,6.63492v.8914c.02232.00285.04465.0057.06697.00854.10703-.29342.21406-.58684.32827-.89995h-.39525ZM314.27852,4.40008c.3395-.02111.40613-.11473.45733-.61172-.07585-.01924-.15507-.03934-.24943-.06329-.07108.23077-.1355.43992-.2079.675ZM314.43999,6.08992c.20167-.18278.15042-.44304-.11609-.70314.04.2423.07504.45452.11609.70314ZM314.73929,5.71094c.03999-.01155.07999-.02309.11998-.03464-.06251-.18976-.12503-.37953-.18754-.56929-.03209.0101-.06419.02021-.09628.03032-.09118.23315.11901.37959.16384.57362Z"/>
    <path class="st0" d="M324.31257,17.52103c-.03822-.09028-.08557-.17785-.11329-.27126-.43449-1.46382-.87429-2.92694-1.53833-4.30688-.22883-.47554-.50846-.92939-.79746-1.37184-.12813-.19617-.16384-.37461-.12597-.59337.09907-.57225.18929-1.14603.28981-1.76062-.13926-.01693-.25834-.02188-.37236-.04853-.07874-.0184-.17744-.04723-.21983-.10577-.09335-.12892.06036-.70003.25728-.85255-.04133.27979-.07525.50934-.11094.75094.11675.02507.20067.04786.28608.06059.35183.05246.35704.05211.30202.41314-.08502.55786-.1807,1.11412-.26389,1.67224-.01196.08023-.00726.18725.0366.24792.87672,1.21267,1.37847,2.59889,1.84865,3.99816.20779.61836.38511,1.24703.57282,1.87205.02586.08611.0318.17822.04696.26755-.03272.00941-.06543.01882-.09815.02823Z"/>
    <path class="st0" d="M324.45132,9.88957q-.47845.16893-.56021-.32545c-.06211-.37557.00732-.4564.37777-.35771.26483.07055.47981.00859.70152-.11881.31937-.1835.40324-.14328.48327.21402.01153.05148.01594.10477.02093.15748.03069.32453-.06045.40312-.37606.32717-.04817-.01159-.0979-.01668-.21635-.03625.15797.31924.29146.59065.4266.86124.05123.10257.12788.19815.15328.30626.02395.10192.03702.27617-.01729.31355-.15793.1087-.24833-.02291-.31418-.16232-.08809-.18651-.18141-.37054-.27249-.55564-.02522.00485-.05044.0097-.07566.01455,0,.3551.00002.71021-.00002,1.06531,0,.09719.02017.20032-.00591.28993-.02714.09321-.09905.17337-.15138.25924-.06402-.0885-.18062-.17548-.18321-.26574-.01312-.45845.00408-.91774.00903-1.37676.00214-.19929.00036-.39862.00036-.61008Z"/>
    <path class="st0" d="M314.32502,39.75617q-.43023-.00813-.43061-.44214c-.00006-.0706-.00167-.14126.00025-.21181.01671-.61511-.11982-.523.62068-.51349.47236.00607.72264.29326.66522.69428-.03673.25651-.20513.38283-.43533.43411-.13622.03033-.27988.02715-.4202.03904Z"/>
    <path class="st0" d="M313.89439,37.77322c0-.57426.0177-.58959.59695-.51694.33247.0417.51558.21418.5222.49187.00717.30115-.12951.44347-.49009.5103-.0087.00161-.0174.00316-.02612.0047-.57704.10149-.60294.08045-.60295-.48994Z"/>
    <path class="st0" d="M330.61789,43.50199c-.73336.00053-1.30732-.56034-1.30704-1.27724.00029-.74217.56702-1.31341,1.30357-1.31395.72892-.00053,1.33463.60035,1.32169,1.31117-.01304.71636-.59298,1.27949-1.31822,1.28002Z"/>
    <path class="st0" d="M327.74651,37.22712c.34959.02992.69591.02438,1.0257.09554.58475.12618.92867.67181.88509,1.32765-.038.57194-.4668,1.00978-1.05368,1.07592q-.89029.10033-.89013-.79081c.00033-.52114.00201-1.04229.00408-1.56343.0001-.02568.00982-.05132.02893-.14487Z"/>
    <path class="st0" d="M311.69387,37.34624c.19837.47673.37298.89638.55973,1.34516h-1.13159c.18562-.43662.36789-.86537.57187-1.34516Z"/>
    <path class="st0" d="M325.10641,37.34644c.20583.4954.3796.91364.56109,1.35047h-1.13637c.18861-.44276.36597-.85912.57527-1.35047Z"/>
    <path class="st0" d="M314.43042,41.04999c.20668.49608.3842.92217.57102,1.37059h-1.15125c.19009-.44901.36973-.87335.58024-1.37059Z"/>
  </g>
  <g>
    <g>
      <path class="st0" d="M34.53228,10.57783c1.01168,1.11197,1.90121,2.33804,2.60197,3.67447.23581.44972.9469,1.8741,1.00342,2.29948.05228.39347-.37823.50561-.57989.22227-.20304-.28529-.4654-1.18789-.65812-1.58588C32.75183,6.62213,22.56322,2.86453,13.86019,6.97042c-4.18349,1.97368-7.31098,5.53835-8.9478,9.84609-.13037.17806-.49463.11153-.53501-.10346-.08897-.4737,1.35649-3.10521,1.69463-3.64547C12.36735,3.00904,26.54045,1.79374,34.53228,10.57783Z"/>
      <path class="st0" d="M29.90383,12.96218c-6.20578-5.53667-15.54649-3.95373-19.83486,3.05046-.22937.37463-.40202,1.2008-.90236,1.1043-.45354-.13574.14505-1.03868.28858-1.29731,4.90323-8.83507,17.84015-9.05162,23.25358-.5781.1944.30429.99285,1.52255.78165,1.82198-.10044.09072-.29655.09397-.41387.05451-.09811-.033-.5988-1.05499-.71799-1.24577-.69277-1.1089-1.48152-2.04177-2.45474-2.91005Z"/>
    </g>
    <path class="st0" d="M23.71167,16.69982c.53421.10405,1.11265.33808,1.55574.65315.10783.07667.4939.29858.32894.47701-.08585.09285-1.4424-.90353-1.85012-.82605-.1719.03267-.39159.91675-.64006,1.17605-.19706.20565-1.14179.76812-1.36946.60259-.45755-.33265.90651-1.86234,1.40497-1.86481-.04284-.15489-.40152-.16078-.52288-.13948-.23391.04105-.43234.53757-.60015.73494-.7479.87968-.89662.60146-1.79219.9428-.12408.04729-.43843.40914-.44879.04631-.01041-.36467.53519-.99575.80333-1.23459l.45705-.34835c-1.41851.14358-1.90826,1.51907-3.51015,1.09016-.24022-.06432-.93046-.37314-.45633-.60458.35537-.17347,1.23138-.4617,1.61499-.48882.52691-.03725,1.0854.2112,1.50995-.10302-.50075-.03572-1.42479-.6498-1.5156-1.15357-.05481-.30405.39144-.22369.63886-.21259.61996.02781,2.35976.1667,2.20972,1.05084l.70071-.00027-.43311-.58298c-.16984-.30397-.37675-.85353.04996-1.03476.08991-.01857.14191.03615.21036.07339.1966.10694,1.33626.9751,1.46521,1.1293.14766.17657.18526.39375.18905.61734ZM23.4224,16.56765l-.20735-.38802-1.33475-.94369c.02725.76293.81339,1.33184,1.5421,1.33171ZM21.24093,16.56095c.03589-.08927.06595-.156.02754-.25288-.20017-.50491-1.71936-.48104-2.19332-.58119-.13504.11831.63874.6418.75013.68677.42971.17348.95971.16775,1.41565.1473ZM22.16043,16.77913c-.16566-.1227-1.08323.46534-1.25642.60126-.0843.06616-.72376.65354-.63669.73009.92349.07114,1.45965-.62967,1.89311-1.33134ZM22.02057,18.46116c.69271-.14934,1.13086-.64333,1.26123-1.33207-.5304.2967-1.12617.70278-1.26123,1.33207ZM19.49555,17.19989c-.68258-.06371-1.25915.05893-1.87798.33032-.08423.03694-.20721.0389-.22567.15903.72187.16612,1.6027.14077,2.10365-.48935Z"/>
    <path class="st0" d="M20.30205,20.07443c1.13091.16035,1.53109,1.35055.85284,2.22035l-.95758.44348c.47213.32028.92259.74253,1.35413,1.13598.06856.0625.15002.06161.11811.19748h-1.29737c-.10178,0-1.27908-1.23876-1.50905-1.36621l-.69998-.03634v1.29737c-.24302.21481-.67036.0615-.98179.10519v-3.99729c.96498.09834,2.18805-.13224,3.12069,0ZM18.16314,21.7575h2.1389c.157,0,.24598-.49738.14089-.63231-.04054-.06884-.49543-.20922-.56166-.20922h-1.71814v.84154Z"/>
    <polygon class="st0" points="26.29799 20.07443 26.29148 20.90935 23.42238 20.9156 23.42274 21.61725 26.01748 21.61725 26.01748 22.52891 23.35261 22.52891 23.35261 23.16006 26.29799 23.16006 26.29799 24.07172 22.44095 24.07173 22.44095 20.07443 26.29799 20.07443"/>
    <path class="st0" d="M28.59528,20.02244c.95677-.12974,1.98927.13495,2.7518.71945l-.67667.58385c-.37811-.17963-.67178-.37229-1.10852-.41274-.40325-.03735-1.5749-.11025-1.30719.53413.36233.45118,2.84038-.09126,3.07624,1.06287.43059,2.10706-3.36952,1.91553-4.33044.82538l.734-.52713c.57999.39114,1.58552.56607,2.25747.36406.20695-.06222.50642-.25026.31012-.47453-.34897-.3987-2.82756.1498-3.07632-1.06147-.19682-.95836.48952-1.49454,1.36951-1.61386Z"/>
    <path class="st0" d="M4.83883,24.07173l2.27984-3.92654.56282-.07582,2.41693,4.00236h-1.01686c-.19921-.15732-.33168-.63787-.49156-.77074-.20918-.17383-1.76829-.03864-2.14465-.04059l-.58967.81134h-1.01686ZM7.99459,22.38866c-.0183-.148-.45134-.90973-.52596-.91034l-.59609.91034h1.12205Z"/>
    <path class="st0" d="M33.99682,20.02413c.84369-.10753,2.17171.03109,2.67996.78407l-.67649.52085c-.59852-.3713-1.36578-.60501-2.05767-.3774-1.33796.44015-1.04844,2.17922.38225,2.28076.65361.04639,1.09922-.14434,1.66856-.41312l.65224.48101c.09294.1853-.37423.42022-.50336.48225-1.74068.83612-4.34287.21704-4.01759-2.12407.1206-.86802,1.04253-1.52862,1.87211-1.63435Z"/>
    <path class="st0" d="M16.48007,20.91597h-2.87525v.84154h2.66486s0,.91166,0,.91166h-2.66486v1.40256c-.3114-.04368-.73889.1096-.98179-.10519v-3.8921s3.82197,0,3.82197,0l.08816.10214-.0531.7394Z"/>
    <path class="st0" d="M.98179,20.07444v3.08563h3.15576c-.04032.2908.10543.68876-.10519.91166H0s0-3.99729,0-3.99729h.98179Z"/>
    <path class="st0" d="M37.16782,24.07172l2.3253-3.98596.58819-.01654,2.34586,4.00215-.98202-.03424c-.33144-.30359-.2813-.76097-.80172-.81122-.566-.05466-1.23659.03727-1.8144.0175l-.53917.82832h-1.12205ZM39.27166,22.38865h1.12205s-.52671-.91212-.52671-.91212c-.14127-.02925-.08766.04173-.12056.09169-.17152.26045-.33099.54355-.47477.82043Z"/>
    <path class="st0" d="M38.69357,25.91218c.09534.13155.08897.26557.07241.41885-.27601,2.55497-2.54027,6.408-4.26117,8.29681-9.27346,10.17827-26.20073,6.60237-30.36968-6.52132-.07944-.25009-.42292-1.38118-.41359-1.54984.01132-.20443.32526-.3723.51341-.23562.16861.12249.35243,1.0953.44494,1.38095,1.86102,5.74605,6.27583,10.1613,12.19096,11.65254,9.32686,2.35136,18.37872-3.11221,21.03325-12.19727.13188-.45136.14365-1.64152.78947-1.24511Z"/>
    <path class="st0" d="M12.01643,31.69113c6.45422,6.54245,17.52472,4.46415,21.16667-3.92513.14286-.32909.46316-1.42974.58431-1.58922.04095-.0539.08523-.1132.1542-.13198.19283-.03126.40928.03494.42652.24994.01942.24214-.41196,1.32214-.53479,1.6106-4.20905,9.88409-17.73984,11.22627-23.80054,2.31809-.58288-.85673-1.66161-2.81538-1.80447-3.80754-.07726-.53655.3608-.72149.58745-.3052.23395.4297.41134,1.3184.65913,1.86551.59108,1.30509,1.55722,2.69688,2.56153,3.71492Z"/>
    <path class="st0" d="M25.87759,37.46648c-.15457.15487.4944,1.09485-.06213.97299l-.63266-1.90906c.73834-.62274,1.96365-.30342,1.26684.761.09181.22267.68491.45579.61959.69959-.1215.45351-.8973-.71816-1.19164-.52452ZM26.28088,37.02845c.2205-.60424-.3449-.55216-.7545-.40315l.14318.55791.61132-.15476Z"/>
    <path class="st0" d="M15.2678,36.74385c-.13481.10713-.31203.08816-.47024.09175l.06921.98127-.31957-.06586c-.09152-.37172.06773-.9433-.347-1.12575-.06491-.01786-.28495.9185-.595.77041-.01218-.12201-.00062-.2339.03278-.35228.04767-.169.54333-1.26338.63706-1.3964.22991-.32629.99731.06624,1.11625.34779.08632.20432.05259.60914-.12348.74906ZM14.52206,35.85797l-.18598.4878c.19166.13152.49695.31528.71262.14491l.10207-.18535c.07889-.22762-.52345-.52255-.6287-.44737Z"/>
    <path class="st0" d="M23.47549,36.78015c.68532-.11299.86503.4395.92035,1.01013.03262.33641.07853.73648-.20491.97008-.45052.37132-1.04762.10852-1.18261-.42394-.136-.53642-.25241-1.43763.46717-1.55627ZM23.61068,37.06364c-.59469.01493-.38176,1.19832-.19332,1.42477.14214.1708.61752.15981.69233-.08947.08725-.2907-.06256-1.34625-.49902-1.3353Z"/>
    <path class="st0" d="M17.31542,36.49086l.11307,2.09936-.2114.06749c-.19945-.37657.01293-.58273-.5702-.62878-.40605-.03206-.25966.34904-.62152.34873-.1025-.08306-.11289-.08746-.07718-.21471.02469-.08797.88152-1.40454.98998-1.536.10823-.13118.2014-.17757.37726-.13609ZM17.11086,37.04577c-.16708-.03845-.11335.02816-.15627.09111-.0518.07598-.36425.576-.3341.60931l.49041.07073-.00004-.77115Z"/>
    <path class="st0" d="M30.78583,36.13337c-.35465.07019-.33279-.29657-.67973-.1561-.70197.28421-.04455.64297-.54613.85739-.11341-.02433-.62953-2.07267-.52666-2.17376.10099-.01065.18263-.00415.27718.03826.08195.03676,1.34093,1.04306,1.40426,1.12026.08839.10775.08234.18371.07107.31395ZM29.38433,35.15195c.10496.43721.10683,1.10576.6292.52595l-.6292-.52595Z"/>
    <path class="st0" d="M21.52929,37.32591v1.7532s-.21171.03805-.21171.03805c-.27527-.12074-.0804-1.46798-.13847-1.79161l-.37528-.0105-.11648-.23422c.2194-.07965,1.26269-.21742,1.33221.00029l-.06767.2114-.4226.0334Z"/>
    <path class="st0" d="M13.5195,34.88584c.23663.42933-.34266.21403-.54433.05577-.23528.36779-.58005,1.12121-.88195,1.39866-.09443.08679-.10352.12464-.20742.00481-.07373-.09275-.03295-.18448.00287-.27905.10304-.27207.77178-1.00394.79509-1.24152.00155-.15254-.45799-.319-.27077-.51374.09275-.09646,1.0759.51954,1.1065.57506Z"/>
    <path class="st0" d="M19.28566,37.18589c-.06893.48618-.07255,1.12018-.20607,1.58242-.11591.40129-.28962.27004-.29135-.07463-.00217-.43211.17795-1.01888.20891-1.46773-.04779-.19036-.5869.00172-.48312-.39058.25095.01041,1.18372.026,1.29931.20794l-.03512.17937-.49258-.0368Z"/>
    <path class="st0" d="M28.47159,37.46581c-.11437.0012-.22512.03274-.31369-.07131-.0579-.06802-.75419-1.51555-.77755-1.60842-.03158-.12556-.03175-.12823.07563-.21289.13284-.02438.16452.01992.23581.11351.14969.19651.64714,1.24293.74097,1.50305.03416.09469.05598.17451.03883.27606Z"/>
  </g>
  <g>
    <g>
      <path class="st0" d="M269.73476,37.28876c.43392-.37548.82915-.80225,1.26749-1.1726.58644-.49548,1.86082-1.50548,2.59158-.94703.496.37904.29904.95922.07448,1.44532-.04059.08786-.35858.6208-.30712.67417.8556-.07384,1.73979-.35177,2.52446-.7284.43129-.20701.88541-.52775,1.24809-.85678.31722-.28778.4845-.49956.8939-.68899.4095-.18947.9286-.15228,1.22585.23562.4534.59167.1747,1.14535-.02576,1.77443,1.05548.0744,2.09436-.24895,3.03122-.7576.35858-.19468,1.31051-.92618,1.62268-.94563.21371-.01332.29817.17263.19848.36756-.36032.70457-2.64892,1.66948-3.38526,1.82072-.55644.11429-1.08899.09711-1.64955.15085-.13322.04514-.12159.14372-.19099.23001-.52506.65286-1.46152,1.38693-2.24858.83111-.60084-.42431-.46111-1.26025-.20499-1.87293-.61562.40697-1.25714.67753-1.96744.81315-.63862.12193-1.47089.08357-2.05034.3554-.51602.24207-.79036.51354-1.40883.56249-.4468.03536-1.36371-.10728-.66631-.70393.5617-.48055,1.24789-.34122,1.83268-.56558.36976-.14186.88622-.87478.99316-1.284.19509-.74655-.5403-.32713-.83046-.15098-.87974.53407-1.79857,1.53007-2.51608,2.30792-.24506.26568-.85061,1.07387-1.18647,1.10191-.3796.03169-.24211-.38264-.17372-.63261.16239-.59354.46354-1.20773.69423-1.77414l-1.44218,1.0684c-.66919.42072-1.46112.93418-2.26576.7963-1.31196-.22482-.19064-2.04942-.2121-2.89202-.05256-.06116-.65524.33885-.74425.39857-.5586.37481-1.33957,1.13193-1.91488,1.3555-1.1288.43866-.48178-1.37812-.59277-1.88141-.03866-.17533-.60794.22062-.68194.27316-.93353.66277-1.59863,1.59272-2.42665,2.34764-.18742.17088-.37464.30375-.62615.19196-.18948-.08422-.12565-.50516-.09439-.69146.08004-.47704.28403-.91847.41441-1.37777-.93446.57503-1.9688,1.05741-3.05324,1.14422-.34263.02743-.69989-.01726-1.04162.05688-.10254.03051-.11514.15229-.17139.22223-.5251.653-1.46168,1.38688-2.24858.83111-.97143-.68609-.07535-2.27874.47487-2.95917.53512-.66175,1.70643-1.35539,2.27517-.36074.31329.5479.03892,1.07949-.12816,1.62275,1.05553.07466,2.09448-.24883,3.03134-.75747.45915-.24928.87494-.58712,1.33473-.8348.08759-.17265.30973-.65006.50181-.66645.07301-.00623.2101.0739.23792.14668.07295.19086-.14686.70097-.22124.89962-.17545.46862-.41292.90924-.56441,1.38878.65764-.50118,1.21479-1.15318,1.8846-1.63798.39331-.28467.88432-.59289,1.37417-.43728.64842.20598.29596,1.35084.26115,1.86984.64169-.44784,1.24514-1.03635,1.91911-1.42392.31626-.18186.98869-.49965,1.2802-.17507.25585.28487.17672.4992.10508.84854-.10472.51062-.34834,1.10284-.41262,1.5999-.07858.60759.439.44427.77543.32538,1.26464-.4469,2.43177-1.77847,3.54315-2.55689.99093-2.01512,2.10101-3.96573,3.32734-5.81706.14488-.21872.54771-.88609.73177-.9848.17747-.09517.59564-.07578.53218.20165-.04935.21577-.38926.74829-.51628.96036-1.33714,2.23253-2.58666,4.25432-3.72638,6.63979-.10613.22214-.20583.45022-.30583.67558ZM254.23204,36.45774c.05552-.21016.09403-.72626-.10511-.84764-.39889-.24313-.9262.47415-.74924.91259.07083.17551.53824.57686.67886.40099.0616-.07704.10458-.32798.13411-.43358.006-.02146.03938-.0248.04138-.03236ZM278.8181,36.45774c.05552-.21016.09403-.72626-.10511-.84764-.3966-.24173-.9274.46923-.74925.91259.07054.17556.53837.57671.67887.40099.0616-.07704.10458-.32798.13411-.43358.006-.02146.03938-.0248.04138-.03236ZM252.73494,36.58503c-.23526.39001-.72542,1.2139-.45149,1.67013.12922.2152.30099.18647.4989.11296.39636-.14723.71826-.45176.9787-.80056-.40415-.2498-.78445-.53501-1.02612-.98252ZM277.32099,36.58503c-.23494.39314-.72733,1.211-.45149,1.67012.12929.2152.30092.1865.4989.11296.39636-.14723.71826-.45176.9787-.80056-.40415-.2498-.78445-.53501-1.02612-.98252Z"/>
      <g>
        <path class="st0" d="M238.00168,36.84858c-.49406.40106-.9839.81662-1.5058,1.17446-.57819.39643-1.52985,1.00019-2.21842.70874-.21296-.09014-.52207-.35417-.56244-.61357-.18104-1.16336.21487-1.91901.5009-2.95645.01749-.06345.05689-.15764.03959-.22054-.70111.86634-1.33449,1.84438-2.14637,2.5974-.30355.28155-.60968.52989-1.00826.62182-.54639.12602-1.04839-.05783-.98877-.76543.07397-.87793,1.13035-2.54525,1.98349-2.62962.45352-.04485.7532.28429,1.06647.58603.57637-.82656,1.12529-1.68276,1.66173-2.54334.73854-1.1848,1.42741-2.47875,2.19646-3.62809.16137-.24116.42649-.72643.73462-.6137.32567.11915.16531.40696.05522.63189-.24244.49533-.58961.99641-.85271,1.49731-.90805,1.72881-2.01376,4.19433-2.46777,6.1174-.07978.33791-.3338,1.24887.14152,1.32424.58056.09206,1.61956-.69601,2.09928-1.05918.87879-.66528,2.05778-1.87061,3.07945-2.12812.81535-.20551,1.31485.46745.6979,1.20824-.36148.43404-.77276.5363-1.29141.57433-.28806.02113-.52348-.13362-.57215.28007-.07807.66356.18665,1.00962.78481,1.06818,1.87635.1837,3.46322-1.80162,4.95488-2.70442.10926-.06613.50104-.30848.52528-.03784.01802.20117-.49486.68334-.64025.82104-.9978.945-2.73611,2.26833-4.04756,2.47133-1.05609.16347-2.55621-.28614-2.21967-1.78218ZM232.15528,35.3587c-.45361.07937-1.22069,1.42189-1.35424,1.88486-.13638.47278-.01031.50445.33891.28493.31051-.19518,1.33303-1.16982,1.49819-1.49117.09839-.19145.01314-.33695-.10336-.49394-.10815-.14573-.2004-.21602-.3795-.18468ZM240.18862,35.41064c-.08632-.09574-.70262.30124-.78685.41072-.01375-.14688-.19974.12804-.1616.2058.09622.19619.48388-.01131.60972-.09419.16138-.10629.36009-.29829.33873-.52233Z"/>
        <path class="st0" d="M248.08159,35.14665c-.36025.02758-.88501-.24697-.90787-.68889-.04379-.84636,1.39645-1.37336,1.99356-1.52086.49793-.92563,1.00116-1.8518,1.54327-2.74743.15785-.26079.32255-.55966.496-.80407.14211-.20025.30021-.43233.55393-.23898.27677.21092-.07835.67105-.20112.89136-.51006.91526-1.09166,1.78579-1.5577,2.73138.35631-.00958.7685-.12722,1.11516-.00908.43609.14862.43371.7139-.08692.62372-.09289-.01609-.18626-.11078-.29497-.0885l-1.13256.19391c-.18666.33458-.36394.68219-.5071,1.041,1.78934-.31407,3.58873-1.24444,4.97227-2.5245,1.06328-.98375,1.85694-2.28221-.03356-2.86685-1.33315-.41227-3.1812-.23614-4.47955.27717-.92927.36739-2.45035,1.32772-2.89071,2.33583-.12291.28138-.12815.88777-.54842.70188-.3138-.1388-.10584-.74827-.00214-.98496.69802-1.59318,3.30008-2.95008,4.8393-3.09932,1.25161-.12135,3.87362-.20527,4.65507,1.12125.8858,1.50365-1.02338,3.04566-2.00249,3.7668-1.45187,1.06934-2.86786,1.64514-4.6001,1.89259-.24516.03502-.23598.07302-.35052.28921-.27729.52338-.55198,1.29754-.75272,1.87148-.0811.23187-.33108.88219-.34795,1.0855-.01103.133.09753.17441-.01985.35867-.21427.33637-.72113.18799-.64573-.32941.05691-.3905.4169-1.2561.56771-1.66408.11489-.3108.2327-.62288.35444-.93052.03375-.08527.29807-.65614.27125-.68432ZM248.74835,33.79687c-.06072-.05328-.66636.33699-.75541.41558-.0485.04281-.2463.22112-.20427.28784.02507.03979.48696.12961.56001.07434l.39966-.77775Z"/>
      </g>
    </g>
    <g>
      <path class="st0" d="M251.00797,20.97927l6.4178-.00438c.7145.20897.68572,1.29249-.05089,1.43544l-6.34426-.00264c-.68793-.17151-.71165-1.23218-.02265-1.42842Z"/>
      <g>
        <path class="st0" d="M259.56142,7.94257c.52857.05891.96113.44754,1.25767.90493.75483.05544,1.56733-.05783,2.31524.00518,2.3974.20198,3.36192,3.69055,1.51958,5.42788-1.12794,1.06366-2.46713.66189-3.83472.73321-.172.35123-.47997.65912-.81825.80773-.07385.03244-.35157.13258-.41285.13258h-10.59974v-.763h10.51974c.4417,0,.84234-.61292.84234-1.07114,0-.43973-.39168-1.07114-.81567-1.07114h-10.54641v-.763h10.6264c.03215,0,.24573.06877.2944.08685.48725.18107.86409.62496,1.04311,1.14703.62468-.04025,1.29642.04957,1.9154-.00172,1.81537-.15042,1.84615-2.93143.07991-3.16855l-2.01026.00249c-.09887.44845-.44801.8765-.81922,1.07922-.07385.04033-.41536.17971-.47668.17971h-10.65307v-.763h10.57307c.29703,0,.65521-.45069.73412-.74744.15231-.57278-.2091-1.39483-.78745-1.39483h-10.51974v-.763h10.57307Z"/>
        <path class="st0" d="M249.04168,10.14354v-.73365h10.22641c.20686,0,.32692.39258.19592.59712-.02543.03971-.13995.13654-.16926.13654h-10.25308Z"/>
        <path class="st0" d="M249.04168,14.48678v-.73365h10.25308c.02931,0,.14383.09683.16926.13654.131.20453.01094.59712-.19592.59712h-10.22641Z"/>
      </g>
      <g>
        <path class="st0" d="M248.98834,20.29732v-.763h10.49307c.05904,0,.29344-.09834.35699-.13536.63919-.37243.67489-1.36113.09175-1.82578-.05599-.04461-.29015-.18113-.34207-.18113h-10.55974c-.00283,0-.04-.04091-.04-.04402v-.71898h10.67974c.09662,0,.45622.17671.55473.24056.99914.64765,1.08415,2.20952.19113,3.016-.19192.17333-.63303.41172-.87919.41172h-10.54641Z"/>
        <path class="st0" d="M249.04168,18.83001v-.73365h10.25308c.02931,0,.14382.09684.16926.13654.06687.10439.08057.266.03723.38418-.02695.0735-.19425.21293-.25982.21293h-10.19975Z"/>
      </g>
    </g>
    <g>
      <path class="st0" d="M243.45515,24.31775c.54403.08057.82202.80772.41417,1.24815l-.21398.13075c.6458.14635.72629,1.22227.15123,1.53161-.03738.02011-.27514.11214-.29809.11214h-1.50663v-3.02266h1.4533ZM243.16182,24.78729c-.20203-.02698-.44627.01986-.65332,0v.73365h.67998c.03953,0,.21121-.08965.24429-.12731.22173-.25244.00243-.56984-.27095-.60634ZM243.16182,25.96114c-.20572-.0239-.44382.01758-.65332,0v.88039h.81331c.18701,0,.34213-.24518.32774-.44639-.02065-.28864-.25369-.4068-.48773-.43399Z"/>
      <path class="st0" d="M246.92173,24.31775c.85125.11096,1.02071,1.49466.20026,1.80445l.58639,1.21821h-.57332l-.54665-1.11516h-.45332v1.11516h-.53332v-3.02266c.41698.0395.91265-.0531,1.31997,0ZM246.13508,25.75572c.33741-.06706.94002.11137.98427-.42948.01806-.2207-.15067-.5096-.35762-.5096h-.62665v.93908Z"/>
      <path class="st0" d="M253.74823,24.31775c.84899.11067,1.02409,1.49566.20026,1.80445l.58639,1.21821h-.57332c-.11366-.11106-.5021-1.11516-.55999-1.11516h-.43999v1.11516h-.53332v-3.02266c.41698.0395.91265-.0531,1.31997,0ZM252.96158,25.75572c.34656-.06714.965.11433.98743-.4563.0082-.20855-.16667-.48278-.36078-.48278h-.62665v.93908Z"/>
      <polygon class="st0" points="251.01496 24.31775 251.01496 24.81664 249.575 24.81664 249.575 25.52095 250.8683 25.52095 250.9083 25.56497 250.9083 26.01983 249.575 26.01983 249.575 26.81218 251.12162 26.81218 251.12162 27.34041 249.04168 27.34041 249.04168 24.31775 251.01496 24.31775"/>
      <polygon class="st0" points="274.10772 24.31775 274.10772 24.81664 272.66776 24.81664 272.66776 25.52095 273.96106 25.52095 274.00106 25.56497 274.00106 26.01983 272.66776 26.01983 272.66776 26.81218 274.21439 26.81218 274.21439 27.34041 272.13444 27.34041 272.13444 24.31775 274.10772 24.31775"/>
      <path class="st0" d="M264.77474,25.19808l-.48993.11538c-.04604-.01709-.05245-.14247-.08213-.20489-.15408-.32405-.47195-.40895-.776-.29338-.52141.19818-.58979,1.05559-.41249,1.54264.26649.73207,1.11905.66712,1.32204-.07574.0496-.00818.46183.17395.4805.20694.0454.08024-.19609.4443-.25481.51458-.49914.59734-1.44799.55762-1.90501-.07651-.42264-.58644-.41686-1.67758.03857-2.24164.60993-.75541,1.91862-.57635,2.07927.51262Z"/>
      <path class="st0" d="M265.60127,27.34041l.97226-3.02483.57134.00567.93633,3.01916h-.58665l-.14959-.58876-1.02115.00474-.13589.58403h-.58665ZM267.20123,26.2546l-.35999-1.35022-.35999,1.35022h.71998Z"/>
      <path class="st0" d="M259.81474,27.34041h-.54665c-.08386-.17177-.11035-.38266-.17036-.56944-.02945-.04593-.89202-.01097-1.01788-.00457l-.1584.57401h-.55999l.92291-3.02449c.1102.02379.55856-.03841.6108.03073l.91957,2.99376ZM258.21478,26.2546h.74665l-.36026-1.32076-.38639,1.32076Z"/>
      <polygon class="st0" points="271.01446 24.31775 271.01446 24.81664 269.74783 24.81664 269.70783 24.86066 269.70783 25.53562 269.74783 25.57964 270.85447 25.57964 270.85447 26.07852 269.70783 26.07852 269.70783 27.34041 269.20118 27.34041 269.20118 24.31775 271.01446 24.31775"/>
      <polygon class="st0" points="237.73529 26.81218 238.80193 26.81218 238.80193 27.34041 237.1753 27.34041 237.1753 24.33243 237.2153 24.28841 237.69529 24.28841 237.73529 24.33243 237.73529 26.81218"/>
      <rect class="st0" x="239.89524" y="24.31775" width=".53332" height="3.02266"/>
      <rect class="st0" x="255.73484" y="24.31775" width=".50665" height="3.02266"/>
      <rect class="st0" x="260.77472" y="25.69702" width=".50665" height=".58692"/>
      <path class="st0" d="M256.53482,23.49606c.01162.05122-.01926.05866-.03983.08823-.03389.04873-.32075.39668-.34538.41224-.10051.06353-.27259.01161-.3881.02746l.22665-.52794h.54665Z"/>
      <path class="st0" d="M273.60107,23.49606c.01147.051-.01897.05868-.03976.08831-.05331.07596-.28764.37556-.34544.41218-.09713.06152-.25095.01317-.36134.0276-.03229-.03451.18124-.44023.18656-.52808h.55999Z"/>
    </g>
  </g>
  <g>
    <path class="st0" d="M71.42734,21.9735c-.95382-.95791-1.42985-2.22109-1.42985-3.78719s.47603-2.82928,1.42985-3.78719c.95323-.95791,2.21524-1.43745,3.78719-1.43745,1.28365,0,2.41875.32632,3.4059.97779l.28772,2.02693h-.12983c-.21053-.82457-.63685-1.45967-1.27897-1.90529s-1.40353-.66785-2.28483-.66785c-1.25557,0-2.2591.43626-3.01116,1.30762-.75206.87253-1.12809,2.02693-1.12809,3.46438,0,1.43628.37135,2.59419,1.11347,3.47023.7427.87721,1.72225,1.32985,2.93923,1.35792,1.07312,0,1.96904-.29123,2.68776-.87604.77604-.63276,1.24563-1.66201,1.40821-3.09011h.11521l-.17252,2.25618c-.87194,1.42809-2.21816,2.14155-4.03866,2.14155-1.51406-.00936-2.74741-.49357-3.70064-1.45148Z"/>
    <path class="st0" d="M89.77324,23.07995h.11521v.14386h-3.23397v-.14386h.12983c.20117,0,.35205-.06433.45264-.19416.10059-.12866.15088-.25147.15088-.36609s-.0193-.23041-.0579-.34503l-.91931-2.44331h-3.88076l-.96259,2.45735c-.0386.11579-.0579.22807-.0579.33802s.05029.23041.15088.35907c.10059.12983.25147.19416.45264.19416h.12983v.14386h-2.88893v-.14386h.12924c.23918,0,.47428-.07602.7041-.22924s.41697-.37895.56083-.67603l3.248-7.73228c.35439-.77662.53159-1.26903.53159-1.48072h.12924l3.85211,9.21301c.13392.29708.31579.52282.54621.67603.22983.15322.46901.22924.71814.22924ZM82.70237,19.29977h3.53573l-1.72459-4.61294-1.81114,4.61294Z"/>
    <path class="st0" d="M90.30483,22.63433c-.02866-.13334-.04328-.39299-.04328-.77545,0-.38363.07193-.79066.21579-1.22224h.12924c-.00936.10526-.01404.21053-.01404.31579,0,.5848.1772,1.07136.53159,1.45967s.82399.5813,1.40821.5813c.6041,0,1.09943-.18129,1.48774-.54621.38831-.36375.58188-.82107.58188-1.37195s-.18655-.99885-.56024-1.34388l-2.75969-2.55793c-.51697-.47954-.77604-1.0585-.77604-1.73921s.22749-1.26201.68305-1.74623c.45498-.48422,1.07019-.72633,1.84681-.72633.36375,0,.77604.04795,1.23569.14386h.56083v1.76845h-.12983c0-.4503-.15556-.80937-.46667-1.07838-.3117-.26784-.71171-.40235-1.20002-.40235-.4889,0-.89826.16258-1.22926.4889-.33041.32515-.49591.73218-.49591,1.22107s.19182.91113.57486,1.26552l2.83162,2.61524c.47895.44094.71872,1.04446.71872,1.81055,0,.76726-.24445,1.39651-.73334,1.89009-.48831.49357-1.14037.74036-1.95442.74036-.42164,0-.8696-.06433-1.34388-.19416-.47428-.12866-.84036-.32749-1.09943-.5965Z"/>
    <path class="st0" d="M106.2577,23.07995h.11521v.14386h-3.23397v-.14386h.12983c.20117,0,.35205-.06433.45264-.19416.10059-.12866.15088-.25147.15088-.36609s-.0193-.23041-.0579-.34503l-.91931-2.44331h-3.88076l-.96259,2.45735c-.0386.11579-.0579.22807-.0579.33802s.05029.23041.15088.35907c.10059.12983.25147.19416.45264.19416h.12983v.14386h-2.88893v-.14386h.12924c.23918,0,.47428-.07602.7041-.22924s.41697-.37895.56083-.67603l3.248-7.73228c.35439-.77662.53159-1.26903.53159-1.48072h.12924l3.85211,9.21301c.13392.29708.31579.52282.54621.67603.22983.15322.46901.22924.71814.22924ZM99.18683,19.29977h3.53573l-1.72459-4.61294-1.81114,4.61294Z"/>
    <path class="st0" d="M66.9647,26.56889c0-.23041-.08129-.42808-.24445-.5965-.16258-.16725-.35439-.25614-.57486-.2655h-2.73045v8.60832c.00936.24913.10293.45966.28012.63276.1772.17193.39065.25848.63978.25848h.18655v.14386h-3.14742v-.14386h.18714c.24913,0,.462-.08655.63919-.25848.1772-.1731.27076-.37895.28071-.61755v-8.62352h-2.73104c-.22983.00936-.42398.09825-.58188.2655-.15848.16842-.23743.36609-.23743.5965v.24445l-.14328.01404v-1.81055c.14328.05731.3924.11462.7468.17193.35439.05848.68071.08655.97779.08655h4.85738c.4696,0,.86025-.03626,1.17136-.1076s.50059-.12164.56785-.15088v1.81055l-.14386-.01404v-.24445Z"/>
    <path class="st0" d="M70.91681,25.73496h-.9199v8.56621c0,.24913.08889.462.26609.63978.1772.17661.39533.2655.65381.2655h.17252l.01462.14386h-3.14742v-.14386h.18655c.24913,0,.462-.08655.63978-.25848.1772-.1731.27018-.38363.28012-.63276v-7.97673c-.00994-.24913-.10293-.462-.28012-.63861-.17778-.17778-.39065-.26667-.63978-.26667h-.18655v-.14386h3.88018c.87194,0,1.55675.24211,2.055.72633s.74738,1.11113.74738,1.88307c0,.77077-.23685,1.43628-.71112,1.99769-.47428.56024-1.05148.84095-1.73219.84095.14386.06667.31404.19883.51053.39416.19649.19649.37135.40118.52457.61171.82399,1.1778,1.36025,1.90412,1.60938,2.17664.24913.27369.42632.46083.53217.56141.10526.10059.21989.19883.34503.29357.12398.09591.24854.1731.37369.23041.27778.1345.57486.20117.89066.20117v.14386h-.79007c-.41229,0-.79592-.07369-1.14973-.22223-.35498-.14854-.62048-.30293-.79767-.46083-.17778-.1579-.331-.31112-.46024-.45966s-.48656-.64445-1.07078-1.48774c-.58422-.84212-.92458-1.324-1.02048-1.44447-.09591-.1193-.19649-.23626-.30176-.35205-.30644-.32515-.61287-.48773-.9199-.48773v-.14386c.07661.00936.1772.01404.30176.01404s.27778-.00468.46024-.01404c1.18774-.02924,1.93512-.52749,2.24214-1.49476.05731-.19182.08597-.37194.08597-.53919v-.32398c-.0193-.64095-.18655-1.15908-.50293-1.55207s-.7427-.60352-1.27897-.63159c-.22983-.00936-.51755-.0152-.86259-.0152Z"/>
    <path class="st0" d="M77.15433,35.20645c.24913,0,.462-.08889.63978-.2655.1772-.17778.27018-.39065.28012-.63978v-7.97673c-.00994-.24913-.10293-.45966-.28012-.63276-.17778-.17193-.39065-.25848-.63978-.25848h-.18655v-.14386h3.14742v.14386h-.18714c-.24913,0-.462.08655-.63919.25848-.17778.1731-.27135.38363-.28071.63276v7.97673c0,.24913.09123.462.2731.63978.18187.17661.39767.2655.64679.2655h.18714v.14386h-3.14742v-.14386h.18655Z"/>
    <path class="st0" d="M90.96566,35.20645h.11521v.14386h-3.23397v-.14386h.12983c.20117,0,.35205-.06433.45264-.19416.10059-.12866.15088-.25147.15088-.36609s-.0193-.23041-.0579-.34503l-.91931-2.44331h-3.88076l-.96259,2.45735c-.0386.11579-.0579.22807-.0579.33802s.05029.23041.15088.35907c.10059.12983.25147.19416.45264.19416h.12983v.14386h-2.88893v-.14386h.12924c.23918,0,.47428-.07602.7041-.22924s.41697-.37895.56083-.67603l3.248-7.73228c.35439-.77662.53159-1.26903.53159-1.48072h.12924l3.85211,9.21301c.13392.29708.31579.52282.54621.67603.22983.15322.46901.22924.71814.22924ZM83.89479,31.42628h3.53573l-1.72459-4.61294-1.81114,4.61294Z"/>
    <path class="st0" d="M100.08509,26.6765c.95323.92516,1.43043,2.13921,1.43043,3.64333s-.4772,2.71934-1.43043,3.64333c-.95323.92516-2.19653,1.38716-3.7293,1.38716h-4.872v-.14386h.18655c.24913,0,.462-.08889.63978-.2655.1772-.17778.27018-.39065.28012-.63978v-8.04808c0-.23041-.09357-.42457-.28012-.58247-.18714-.1579-.40059-.23743-.63978-.23743h-.17252l-.01404-.14386h4.872c1.53277,0,2.77607.46317,3.7293,1.38716ZM93.52417,25.72093v9.1978h2.83162c.80469,0,1.5164-.19065,2.13395-.57428.61814-.38363,1.09709-.92282,1.43745-1.61757.33977-.69358.50995-1.49593.50995-2.40705,0-1.37897-.37603-2.49127-1.12809-3.33455-.75206-.84212-1.73687-1.26435-2.95326-1.26435h-2.83162Z"/>
    <path class="st0" d="M111.71919,35.20645h.11521v.14386h-3.23397v-.14386h.12983c.20117,0,.35205-.06433.45264-.19416.10059-.12866.15088-.25147.15088-.36609s-.0193-.23041-.0579-.34503l-.91931-2.44331h-3.88076l-.96259,2.45735c-.0386.11579-.0579.22807-.0579.33802s.05029.23041.15088.35907c.10059.12983.25147.19416.45264.19416h.12983v.14386h-2.88893v-.14386h.12924c.23918,0,.47428-.07602.7041-.22924s.41697-.37895.56083-.67603l3.248-7.73228c.35439-.77662.53159-1.26903.53159-1.48072h.12924l3.85211,9.21301c.13392.29708.31579.52282.54621.67603.22983.15322.46901.22924.71814.22924ZM104.64832,31.42628h3.53573l-1.72459-4.61294-1.81114,4.61294Z"/>
  </g>
  <g>
    <g>
      <path class="st0" d="M180.07524,13.09997l-1.0631,3.67707.73867.28639c.67086-1.61794,1.15595-2.44667,2.87013-2.1974l1.8215.26485-1.8194,10.20599c-.08097.45418-.47869.78169-.93745.77198l-1.30058-.02752-.01998.82661s2.07769.13832,3.36138.36892c1.28369.23062,3.28021.82423,3.28021.82423l.26684-.78227-1.22937-.42697c-.43365-.15059-.69354-.59626-.61257-1.05045l1.8194-10.20597,1.79995.38572c1.69391.363,1.86258,1.30917,1.93285,3.06026l.79177-.01145.27319-3.81898s-3.65581-.42343-6.02703-.84941-5.94642-1.30158-5.94642-1.30158Z"/>
      <path class="st0" d="M157.12536,26.96537c-.46514.03834-.89422-.2559-1.01136-.69353s-2.44974-9.15222-2.44974-9.15222c-.11714-.43762.11252-.88842.54132-1.06252l1.21563-.49357-.33111-.74575s-1.98188.70429-3.26777,1.00987c-1.28589.3056-3.3852.57118-3.3852.57118l.08385.80452,1.31865-.10867c.46514-.03834.89421.25588,1.01136.69352l2.44974,9.15223c.11714.43762-.11252.8884-.54133,1.0625l-1.21562.49359.33111.74575s1.98189-.70429,3.26777-1.00987c1.28589-.3056,3.38521-.57118,3.38521-.57118l-.08385-.80453-1.31865.10869Z"/>
      <path class="st0" d="M173.61438,13.28785c-1.0512.03154-2.14851-.05263-2.14851-.05263l-.10288.76399.89644.10975c.63735.07802.87867.5571.89246,1.01701l.2139,7.04906-7.04715-8.83985s-1.2685.09418-2.35032.12664c-1.08181.03244-2.44282.0171-2.44282.0171l.02343.78109c1.25681.02977,1.79384.25096,1.81786,1.05195l.28842,9.61686c.01379.45991-.19838.95259-.8299,1.06867l-.88825.16325.14848.75647s1.0903-.14977,2.14149-.18131c1.0512-.03151,2.14851.05264,2.14851.05264l.10288-.764-.89644-.10972c-.63735-.07802-.87867-.55711-.89246-1.01704l-.26614-8.87387,8.41514,10.57079,1.68837-.05062-.34068-11.44912c-.01379-.45992.19838-.95262.8299-1.06869l.88825-.16326-.14848-.75644s-1.0903.14977-2.14149.18128Z"/>
      <path class="st0" d="M147.28747,26.25935c.13513,1.65218-.31199,3.32689-2.00359,4.02957-2.58566,1.07403-4.66059.0419-6.08243-3.38104-1.57538-3.79258-1.18098-6.10789.98016-7.00559,2.36108-.98075,4.3961.19004,5.37685,2.55112l.84258-.35-1.87056-4.50319-.82088.34098.35343.85086c-.88608-.21107-2.61221-.42443-4.55787.38377-3.37655,1.40257-5.21109,5.05722-3.65606,8.80081,1.59768,3.84626,5.23339,5.33617,9.11059,3.72565,2.67685-1.11192,3.56545-2.83475,3.30839-5.85027l-.9806.40733Z"/>
      <path class="st0" d="M202.77114,19.12281c-3.09431-1.72951-7.12013-.9677-9.15389,2.51833-2.19734,3.76641-.60084,7.2989,2.49347,9.02842,3.1039,1.71299,7.13054.93254,9.14551-2.56393,2.17695-3.77772.60783-7.27598-2.48509-8.98282ZM202.57839,26.62779c-2.00762,3.48372-3.97284,4.26705-5.95947,3.17069-1.98049-1.10697-2.35847-3.19191-.33211-6.66523,2.02635-3.47333,3.99555-4.24617,5.97604-3.13919,1.98664,1.09638,2.32316,3.15001.31554,6.63373Z"/>
    </g>
    <g>
      <path class="st0" d="M152.27205,34.65993c-.26057.55287-.6804.82869-1.25768.82869-.26972,0-.5248-.0598-.76523-.17941s-.43326-.29169-.57911-.51991c-.14523-.227-.21785-.49184-.21785-.79696,0-.20992.03905-.41129.11777-.60291.07872-.19283.19222-.36492.34112-.51991s.32525-.2746.52907-.36003.42167-.12815.65477-.12815c.29779,0,.55958.06346.78597.19161.22639.12693.33929.30389.33929.52846,0,.10252-.03539.19039-.10618.26362-.0714.07201-.15317.10862-.24592.10862-.08848,0-.15622-.02197-.20382-.06713-.0476-.04394-.07872-.09031-.09398-.13669s-.03661-.13059-.06468-.24897c-.02807-.11472-.07445-.19649-.13913-.24409-.06468-.04882-.155-.07201-.27155-.07201-.19649,0-.37041.07811-.52236.23677-.15195.15744-.22823.45401-.22823.88605,0,.23189.03112.44547.09214.63952.06163.19405.15866.34783.29108.46133.13303.1135.29535.17086.48696.17086.21358,0,.37651-.05736.48818-.17208.11228-.11472.21175-.25019.29779-.40397l.27155.13669Z"/>
      <path class="st0" d="M155.97064,34.63186c0,.17819-.03356.32952-.10008.45523-.06713.12449-.15683.21724-.27033.27704-.11289.0598-.24104.08909-.38322.08909-.18124,0-.33196-.04638-.45279-.13791-.12083-.09275-.19283-.20382-.21663-.33196-.36003.31366-.72251.46988-1.08682.46988-.2325,0-.4235-.06102-.57239-.18429s-.22334-.28437-.22334-.48574c0-.16598.04028-.31732.12021-.45157.07933-.13425.19649-.25385.35088-.36003.15378-.10496.33746-.19771.55104-.27826.21358-.08177.47964-.16598.79879-.25508v-.20015c0-.16598-.036-.29657-.10801-.39177-.07262-.09398-.20565-.14157-.3997-.14157-.16598,0-.28559.03661-.35881.11228-.07323.07445-.12205.18795-.14584.34051-.01709.1074-.04882.19527-.0952.26484s-.14279.10374-.28925.10374c-.09092,0-.17025-.02807-.23921-.08421-.06957-.05614-.10374-.13913-.10374-.24897,0-.21846.10862-.40763.32647-.56873.21785-.16232.55226-.24287,1.0026-.24287.47476,0,.80062.08665.97881.25996.17758.1733.26667.40519.26667.69566v1.10939c0,.14035.00305.24287.00976.30878.0061.06468.0238.11472.05309.1489s.07506.05126.1373.05126c.05614,0,.10557-.03173.14768-.0952.0415-.06346.06285-.13913.06285-.22823h.23921ZM154.48596,34.65993v-.87019c-.40946.14035-.67003.27704-.78109.41251-.11106.13425-.16659.26606-.16659.39421,0,.1074.03051.19405.09092.25996s.14523.09886.25569.09886c.11838,0,.22273-.02685.31366-.08055.09031-.05492.18612-.12571.28742-.2148Z"/>
      <path class="st0" d="M159.73453,35.37268h-1.67508v-.32342c.12693,0,.21785-.01709.27338-.0537.05492-.03661.08848-.09031.1013-.15988.01343-.07079.01953-.18673.01953-.34783v-.99345c0-.19893-.02685-.35637-.08055-.47232-.05431-.11594-.16415-.1733-.33013-.1733-.22639,0-.39482.09398-.50588.28193-.11106.18917-.16659.40641-.16659.65172v.78597c0,.18551.02441.31122.07445.37956.04943.06835.15622.1013.31976.1013v.32342h-1.70742v-.32342c.14035,0,.24348-.01343.31061-.04028.06651-.02685.11106-.07445.13242-.14401.02136-.06835.03234-.17819.03234-.3283v-1.1338c0-.16354-.02929-.27094-.08726-.32098s-.18734-.07567-.38811-.07567v-.32342l1.25829-.30145c.01892.13547.02868.2624.02868.37956,0,.03051-.00061.05614-.00122.07811-.00122.02319-.00183.0476-.00183.07567.13608-.15622.27704-.28437.4235-.38444.14706-.09886.33013-.1489.54982-.1489.18551,0,.3521.03661.49978.10862.14768.07323.26362.18307.34783.33074.08421.14645.12632.32464.12632.53334v1.18262c0,.19649.0238.33196.07262.40397.04821.07323.1733.10862.37346.10862v.32342Z"/>
      <path class="st0" d="M162.15897,34.7478c-.11655.26484-.25263.45401-.40763.56873s-.33746.17208-.54676.17208c-.25447,0-.44181-.05614-.56263-.16842s-.19527-.23799-.22334-.37712-.04211-.29535-.04211-.46866v-1.65372h-.48818v-.32342c.20504,0,.38261-.0415.53395-.12693.15073-.08421.26972-.19771.35698-.34051s.14279-.29535.16659-.45889h.26545v.92633h.91534v.32342h-.91534v1.67447c0,.20382.0122.35027.03722.44058.02441.09031.08543.13547.18246.13547.10374,0,.18856-.04394.25569-.13181.06651-.08787.1312-.19771.19405-.3283l.27826.13669Z"/>
      <path class="st0" d="M164.08241,35.37268h-1.75624v-.32342h.09336c.1251,0,.21663-.01831.27338-.05614.05736-.03661.09214-.08909.10557-.15744.01281-.06835.01892-.1672.01892-.29901v-1.04227c0-.14523-.00793-.24775-.0238-.30878-.01648-.06102-.05858-.10496-.12632-.13303s-.18185-.04394-.34112-.04638v-.32342l1.32603-.30145v2.15533c0,.19649.02258.33196.06774.40397.04516.07323.16598.10862.36248.10862v.32342ZM163.71688,31.00833c0,.14035-.04577.26118-.13791.36003-.09153.10008-.20199.1489-.33135.1489-.12693,0-.23738-.05004-.33135-.15256-.09398-.1013-.14096-.21968-.14096-.35637,0-.14035.04638-.25996.13913-.36126.09275-.10008.20382-.15134.33318-.15134.13181,0,.24287.05004.33318.14768.09092.09886.13608.21968.13608.36492Z"/>
      <path class="st0" d="M168.00373,35.37268h-1.67508v-.32342c.12693,0,.21785-.01709.27338-.0537.05492-.03661.08848-.09031.1013-.15988.01343-.07079.01953-.18673.01953-.34783v-.99345c0-.19893-.02685-.35637-.08055-.47232-.05431-.11594-.16415-.1733-.33013-.1733-.22639,0-.39482.09398-.50588.28193-.11106.18917-.16659.40641-.16659.65172v.78597c0,.18551.02441.31122.07445.37956.04943.06835.15622.1013.31976.1013v.32342h-1.70742v-.32342c.14035,0,.24348-.01343.31061-.04028.06651-.02685.11106-.07445.13242-.14401.02136-.06835.03234-.17819.03234-.3283v-1.1338c0-.16354-.02929-.27094-.08726-.32098s-.18734-.07567-.38811-.07567v-.32342l1.25829-.30145c.01892.13547.02868.2624.02868.37956,0,.03051-.00061.05614-.00122.07811-.00122.02319-.00183.0476-.00183.07567.13608-.15622.27704-.28437.4235-.38444.14706-.09886.33013-.1489.54982-.1489.18551,0,.3521.03661.49978.10862.14768.07323.26362.18307.34783.33074.08421.14645.12632.32464.12632.53334v1.18262c0,.19649.0238.33196.07262.40397.04821.07323.1733.10862.37346.10862v.32342Z"/>
      <path class="st0" d="M171.66083,34.63186c0,.17819-.03356.32952-.10008.45523-.06713.12449-.15683.21724-.27033.27704-.11289.0598-.24104.08909-.38322.08909-.18124,0-.33196-.04638-.45279-.13791-.12083-.09275-.19283-.20382-.21663-.33196-.36003.31366-.72251.46988-1.08682.46988-.2325,0-.4235-.06102-.57239-.18429s-.22334-.28437-.22334-.48574c0-.16598.04028-.31732.12021-.45157.07933-.13425.19649-.25385.35088-.36003.15378-.10496.33746-.19771.55104-.27826.21358-.08177.47964-.16598.79879-.25508v-.20015c0-.16598-.036-.29657-.10801-.39177-.07262-.09398-.20565-.14157-.3997-.14157-.16598,0-.28559.03661-.35881.11228-.07323.07445-.12205.18795-.14584.34051-.01709.1074-.04882.19527-.0952.26484s-.14279.10374-.28925.10374c-.09092,0-.17025-.02807-.23921-.08421-.06957-.05614-.10374-.13913-.10374-.24897,0-.21846.10862-.40763.32647-.56873.21785-.16232.55226-.24287,1.0026-.24287.47476,0,.80062.08665.97881.25996.17758.1733.26667.40519.26667.69566v1.10939c0,.14035.00305.24287.00976.30878.0061.06468.0238.11472.05309.1489s.07506.05126.1373.05126c.05614,0,.10557-.03173.14768-.0952.0415-.06346.06285-.13913.06285-.22823h.23921ZM170.17614,34.65993v-.87019c-.40946.14035-.67003.27704-.78109.41251-.11106.13425-.16659.26606-.16659.39421,0,.1074.03051.19405.09092.25996s.14523.09886.25569.09886c.11838,0,.22273-.02685.31366-.08055.09031-.05492.18612-.12571.28742-.2148Z"/>
      <path class="st0" d="M176.29612,34.65993c-.26057.55287-.6804.82869-1.25768.82869-.26972,0-.5248-.0598-.76523-.17941s-.43326-.29169-.57911-.51991c-.14523-.227-.21785-.49184-.21785-.79696,0-.20992.03905-.41129.11777-.60291.07872-.19283.19222-.36492.34112-.51991s.32525-.2746.52907-.36003.42167-.12815.65477-.12815c.29779,0,.55958.06346.78597.19161.22639.12693.33929.30389.33929.52846,0,.10252-.03539.19039-.10618.26362-.0714.07201-.15317.10862-.24592.10862-.08848,0-.15622-.02197-.20382-.06713-.0476-.04394-.07872-.09031-.09398-.13669s-.03661-.13059-.06468-.24897c-.02807-.11472-.07445-.19649-.13913-.24409-.06468-.04882-.155-.07201-.27155-.07201-.19649,0-.37041.07811-.52236.23677-.15195.15744-.22823.45401-.22823.88605,0,.23189.03112.44547.09214.63952.06163.19405.15866.34783.29108.46133.13303.1135.29535.17086.48696.17086.21358,0,.37651-.05736.48818-.17208.11228-.11472.21175-.25019.29779-.40397l.27155.13669Z"/>
      <path class="st0" d="M179.99471,34.63186c0,.17819-.03356.32952-.10008.45523-.06713.12449-.15683.21724-.27033.27704-.11289.0598-.24104.08909-.38322.08909-.18124,0-.33196-.04638-.45279-.13791-.12083-.09275-.19283-.20382-.21663-.33196-.36003.31366-.72251.46988-1.08682.46988-.2325,0-.4235-.06102-.57239-.18429s-.22334-.28437-.22334-.48574c0-.16598.04028-.31732.12021-.45157.07933-.13425.19649-.25385.35088-.36003.15378-.10496.33746-.19771.55104-.27826.21358-.08177.47964-.16598.79879-.25508v-.20015c0-.16598-.036-.29657-.10801-.39177-.07262-.09398-.20565-.14157-.3997-.14157-.16598,0-.28559.03661-.35881.11228-.07323.07445-.12205.18795-.14584.34051-.01709.1074-.04882.19527-.0952.26484s-.14279.10374-.28925.10374c-.09092,0-.17025-.02807-.23921-.08421-.06957-.05614-.10374-.13913-.10374-.24897,0-.21846.10862-.40763.32647-.56873.21785-.16232.55226-.24287,1.0026-.24287.47476,0,.80062.08665.97881.25996.17758.1733.26667.40519.26667.69566v1.10939c0,.14035.00305.24287.00976.30878.0061.06468.0238.11472.05309.1489s.07506.05126.1373.05126c.05614,0,.10557-.03173.14768-.0952.0415-.06346.06285-.13913.06285-.22823h.23921ZM178.51003,34.65993v-.87019c-.40946.14035-.67003.27704-.78109.41251-.11106.13425-.16659.26606-.16659.39421,0,.1074.03051.19405.09092.25996s.14523.09886.25569.09886c.11838,0,.22273-.02685.31366-.08055.09031-.05492.18612-.12571.28742-.2148Z"/>
      <path class="st0" d="M182.99459,32.93665c0,.13547-.03844.24287-.11472.32098-.07689.07811-.16659.11716-.27033.11716-.12266,0-.23067-.06468-.32342-.19649-.04272-.05858-.07872-.10008-.10679-.12571-.02807-.02685-.06774-.03905-.1196-.03905-.16781,0-.29901.09886-.39299.29657-.09336.19771-.14035.40275-.14035.61633v.61023c0,.19649.02319.33196.06957.40397.04638.07323.16842.10862.36675.10862h.17147v.32342h-2.00826v-.32342h.16781c.18124,0,.2923-.03661.33318-.11228.04089-.07445.06163-.20748.06163-.40031v-1.02518c0-.15622-.01465-.2685-.04394-.33685-.02868-.06713-.08116-.11228-.15683-.13547-.07506-.02197-.19588-.03295-.36187-.03295v-.32342l1.26134-.30145c.03234.1196.06224.37346.09031.76156.06041-.13791.13974-.26362.23799-.37834s.20809-.20748.32952-.27826c.12205-.06957.24653-.10496.37407-.10496.17636,0,.31671.0537.42045.1611.10313.10862.155.23921.155.39421Z"/>
      <path class="st0" d="M184.9699,35.37268h-1.75624v-.32342h.09336c.1251,0,.21663-.01831.27338-.05614.05736-.03661.09214-.08909.10557-.15744.01281-.06835.01892-.1672.01892-.29901v-1.04227c0-.14523-.00793-.24775-.0238-.30878-.01648-.06102-.05858-.10496-.12632-.13303s-.18185-.04394-.34112-.04638v-.32342l1.32603-.30145v2.15533c0,.19649.02258.33196.06774.40397.04516.07323.16598.10862.36248.10862v.32342ZM184.60437,31.00833c0,.14035-.04577.26118-.13791.36003-.09153.10008-.20199.1489-.33135.1489-.12693,0-.23738-.05004-.33135-.15256-.09398-.1013-.14096-.21968-.14096-.35637,0-.14035.04638-.25996.13913-.36126.09275-.10008.20382-.15134.33318-.15134.13181,0,.24287.05004.33318.14768.09092.09886.13608.21968.13608.36492Z"/>
      <path class="st0" d="M188.7521,33.91179c0,.22456-.03783.4357-.11289.63098-.07567.19527-.18185.3637-.31854.50649-.1373.14279-.29352.25263-.46927.32708s-.36187.11228-.55775.11228c-.23067,0-.42899-.04882-.59497-.14523-.16598-.09764-.30328-.22212-.41068-.37468-.19893.21602-.34234.38933-.43021.51991h-.25263v-3.88959c0-.13425-.01465-.23189-.04333-.29413-.02929-.06102-.07811-.1013-.14584-.11838-.06774-.01831-.17269-.02929-.31549-.03417v-.3161l1.33945-.30878v2.27127c.10984-.11228.23738-.20992.38322-.29291.14523-.08299.33563-.12449.57056-.12449.22029,0,.41557.04394.58704.13059.17147.08543.31427.2026.42838.35027.11472.14768.20015.31122.25752.49184.05675.18063.08543.36614.08543.55775ZM187.85628,33.88372c0-.29169-.04455-.55043-.13425-.77499-.0897-.22578-.26545-.33807-.52846-.33807-.0952,0-.18856.02075-.28009.06224-.09153.04028-.17697.09642-.25569.16598-.07872.07079-.15134.15256-.21785.24653v1.42915c.12937.18185.25813.29901.38627.34905s.24226.07567.34112.07567c.18124,0,.32342-.0659.42716-.19527.10313-.12937.17269-.28437.2087-.46499.03539-.18063.05309-.36492.05309-.55531Z"/>
      <path class="st0" d="M192.1053,33.82758h-1.98934c.00244.04516.00854.13913.01831.28437.00915.14523.03966.29413.09031.44669.05065.15134.13791.27948.26179.38444.12388.10374.29047.15622.49978.15622.11411,0,.25263-.03173.41434-.0952s.30145-.18551.42045-.36492l.25202.18551c-.25447.44303-.65844.66393-1.21313.66393-.24775,0-.47354-.03905-.67735-.11594s-.37651-.18429-.5193-.32342c-.14218-.13791-.2508-.30023-.32647-.48818-.07567-.18673-.11289-.38811-.11289-.60291,0-.28315.06285-.54554.18917-.78719.12571-.24043.30633-.43204.54127-.57483.23555-.14279.50344-.2148.8055-.2148.29535,0,.54493.06957.74875.20748s.35393.31732.45096.537c.09764.21968.14584.45401.14584.70176ZM191.30346,33.50538c0-.53456-.19405-.80062-.58216-.80062-.18795,0-.33196.07323-.43204.2209s-.15561.34051-.16659.57972h1.18079Z"/>
    </g>
  </g>
</svg>