<?xml version="1.0" encoding="UTF-8"?>
<svg id="Arte" xmlns="http://www.w3.org/2000/svg" version="1.1" viewBox="0 0 330.96 35.82">
  <!-- Generator: Adobe Illustrator 29.0.0, SVG Export Plug-In . SVG Version: 2.1.0 Build 186)  -->
  <defs>
    <style>
      .st0 {
        fill: blue;
      }
    </style>
  </defs>
  <g>
    <path class="st0" d="M28.27,31.1H3.64l-1.04,4.06c-.1.38.24.73.63.65l12.72-2.93,12.72,2.93c.39.09.73-.26.63-.65l-1.04-4.06Z"/>
    <path class="st0" d="M31.38,9.59h-11.05L16.53.08c-.06-.14-.26-.1-.26.05v9.45h0v20.43c0,.29.24.53.53.53h14.59c.29,0,.53-.24.53-.53V10.11c0-.29-.24-.53-.53-.53ZM30.9,29.14h-5.75l-4.05-12.92h-.24v12.92h-3.58V11.47h5.75l4.05,12.92h.24v-12.92h3.58v17.67Z"/>
    <path class="st0" d="M15.64,30.02V.13c0-.15-.2-.19-.26-.05l-3.81,9.5H.53c-.29,0-.53.24-.53.53v19.91c0,.29.24.53.53.53h14.59c.29,0,.53-.24.53-.53ZM7.78,29.6c-3.55,0-6.78-2.35-6.78-6.21v-11.92h4.15v12.37c0,1.54,1.26,2.48,2.64,2.48s2.63-.93,2.63-2.48v-12.37h4.15v11.92c0,3.86-3.23,6.21-6.78,6.21Z"/>
  </g>
  <g>
    <g>
      <path class="st0" d="M243.19,28.6h-6.18v-14.53h5.98v2.16h-3.42v3.63h2.62v2.16h-2.62v4.42h3.63v2.16Z"/>
      <path class="st0" d="M249.81,28.6h-5.59v-14.53h2.55v12.37h3.03v2.16Z"/>
      <path class="st0" d="M255.42,28.6h-2.55v-14.53h2.55v14.53Z"/>
      <path class="st0" d="M263.68,28.6h-1.94l-1.55-4.46c-.5-1.43-1.12-3.47-1.41-4.55.02,1.06.07,3.03.07,4.32v4.69h-2.37v-14.53h2.3l1.25,3.55c.41,1.18,1.05,3.07,1.35,4.17-.02-1-.07-2.99-.07-4.07v-3.65h2.37v14.53Z"/>
      <path class="st0" d="M270.8,16.23h-3.51v3.63h2.65v2.16h-2.65v6.58h-2.55v-14.53h6.07v2.16Z"/>
      <path class="st0" d="M278.61,21.29c0,5.06-.91,7.54-3.79,7.54s-3.67-2.43-3.67-7.45.89-7.54,3.72-7.54,3.74,2.49,3.74,7.45ZM275.97,21.37c0-4.44-.3-5.4-1.12-5.4s-1.07.91-1.07,5.31.3,5.4,1.09,5.4,1.09-.91,1.09-5.31Z"/>
      <path class="st0" d="M286.76,28.6h-2.6l-1.32-6.39h-.64v6.39h-2.53v-14.53h3.33c1.98,0,3.6.98,3.6,4.01,0,1.68-.52,2.82-1.41,3.47l1.57,7.06ZM284.03,18.18c0-1.6-.34-2.14-1.23-2.14h-.59v4.26h.52c.87,0,1.3-.58,1.3-2.12Z"/>
      <path class="st0" d="M292.19,22.54c.14-1.18.17-2.74.49-4.05l1.05-4.42h2.71s0,14.53,0,14.53h-2.28s0-3.8,0-3.8c0-1.7.09-3.69.11-5.06-.23,1.1-1,6.95-1.35,8.86h-1.59c-.35-1.91-1.12-7.76-1.35-8.86.02,1.37.11,3.36.11,5.06v3.8h-2.28v-14.53h2.71l1.05,4.42c.32,1.31.35,2.87.49,4.05h.13Z"/>
      <path class="st0" d="M305.29,28.6h-2.55l-.43-3.2h-1.87l-.41,3.2h-2.53l2.53-14.53h2.74l2.53,14.53ZM302.05,23.31l-.36-2.66c-.14-1.04-.3-2.22-.36-3.36-.05,1.14-.21,2.35-.34,3.38l-.34,2.64h1.41Z"/>
      <path class="st0" d="M313.46,21.23c0,4.98-1.3,7.37-4.2,7.37h-2.92v-14.53h3.17c3.1,0,3.95,2.66,3.95,7.16ZM310.84,21.25c0-4.26-.46-5.15-1.53-5.15h-.43v10.48h.39c1.03,0,1.57-.93,1.57-5.33Z"/>
      <path class="st0" d="M321.98,21.29c0,5.06-.91,7.54-3.79,7.54s-3.67-2.43-3.67-7.45.89-7.54,3.72-7.54,3.74,2.49,3.74,7.45ZM319.33,21.37c0-4.44-.3-5.4-1.12-5.4s-1.07.91-1.07,5.31.3,5.4,1.09,5.4,1.09-.91,1.09-5.31Z"/>
      <path class="st0" d="M330.13,28.6h-2.6l-1.32-6.39h-.64v6.39h-2.53v-14.53h3.33c1.98,0,3.6.98,3.6,4.01,0,1.68-.52,2.82-1.41,3.47l1.57,7.06ZM327.39,18.18c0-1.6-.34-2.14-1.23-2.14h-.59v4.26h.52c.87,0,1.3-.58,1.3-2.12Z"/>
    </g>
    <rect class="st0" x="237.01" y="29.73" width="93.95" height="2.18"/>
  </g>
  <g>
    <g>
      <g>
        <path class="st0" d="M51.27,26.42h.36v2.56h1.36v.33h-1.71v-2.89Z"/>
        <path class="st0" d="M55.78,29.27v.04h-.38l-.21-.76h-1.01l-.21.76h-.38v-.04l.85-2.85h.48l.86,2.85ZM55.09,28.24l-.4-1.41h-.02l-.4,1.41h.83Z"/>
        <path class="st0" d="M56.28,26.42h1c.49,0,.8.28.8.75,0,.31-.15.5-.36.59v.02c.22.09.47.29.47.7,0,.53-.31.83-.88.83h-1.02v-2.89ZM57.19,27.66c.33,0,.52-.15.52-.49,0-.27-.15-.43-.48-.43h-.6v.92h.55ZM57.27,28.99c.34,0,.55-.18.55-.51s-.18-.5-.55-.5h-.63v1.01h.63Z"/>
        <path class="st0" d="M58.74,27.87c0-.85.28-1.48,1.05-1.48s1.05.63,1.05,1.48-.29,1.48-1.05,1.48-1.05-.64-1.05-1.48ZM60.47,27.87c0-.6-.12-1.14-.68-1.14s-.68.54-.68,1.14.12,1.14.68,1.14.68-.54.68-1.14Z"/>
        <path class="st0" d="M63.37,29.27v.04h-.39l-.76-1.14h-.54v1.14h-.36v-2.89h.98c.59,0,.92.38.92.87,0,.43-.25.73-.62.83l.78,1.15ZM61.68,27.84h.6c.36,0,.56-.2.56-.55s-.2-.54-.56-.54h-.6v1.09Z"/>
        <path class="st0" d="M66,29.27v.04h-.38l-.21-.76h-1.01l-.21.76h-.38v-.04l.85-2.85h.48l.86,2.85ZM65.31,28.24l-.4-1.41h-.02l-.4,1.41h.83Z"/>
        <path class="st0" d="M67.27,26.75h-.88v-.33h2.11v.33h-.88v2.56h-.36v-2.56Z"/>
        <path class="st0" d="M68.95,27.87c0-.85.28-1.48,1.05-1.48s1.05.63,1.05,1.48-.29,1.48-1.05,1.48-1.05-.64-1.05-1.48ZM70.69,27.87c0-.6-.12-1.14-.68-1.14s-.68.54-.68,1.14.12,1.14.68,1.14.68-.54.68-1.14Z"/>
        <path class="st0" d="M73.58,29.27v.04h-.39l-.76-1.14h-.54v1.14h-.36v-2.89h.98c.59,0,.92.38.92.87,0,.43-.25.73-.62.83l.78,1.15ZM71.89,27.84h.6c.36,0,.56-.2.56-.55s-.2-.54-.56-.54h-.6v1.09Z"/>
        <path class="st0" d="M74.21,29h.71v-2.27h-.71v-.31h1.78v.31h-.71v2.27h.71v.31h-1.78v-.31Z"/>
        <path class="st0" d="M76.61,27.87c0-.85.28-1.48,1.05-1.48s1.05.63,1.05,1.48-.29,1.48-1.05,1.48-1.05-.64-1.05-1.48ZM78.35,27.87c0-.6-.12-1.14-.68-1.14s-.68.54-.68,1.14.12,1.14.68,1.14.68-.54.68-1.14Z"/>
        <path class="st0" d="M79.24,29.42h1.94v.29h-1.94v-.29Z"/>
        <path class="st0" d="M51.23,33.95h.71v-2.27h-.71v-.31h1.79v.31h-.71v2.27h.71v.31h-1.79v-.31Z"/>
        <path class="st0" d="M53.75,31.37h.39l1.11,2.19h.02v-2.19h.36v2.89h-.4l-1.11-2.18h-.02v2.18h-.35v-2.89Z"/>
        <path class="st0" d="M56.3,31.37h.71c.82,0,1.17.58,1.17,1.45,0,.81-.31,1.45-1.17,1.45h-.71v-2.89ZM56.97,33.94c.66,0,.83-.52.83-1.12s-.17-1.12-.83-1.12h-.31v2.23h.31Z"/>
        <path class="st0" d="M58.89,33.95h.71v-2.27h-.71v-.31h1.78v.31h-.71v2.27h.71v.31h-1.78v-.31Z"/>
        <path class="st0" d="M61.3,33.4h.37c.02.36.25.58.69.58s.66-.17.66-.5c0-.28-.16-.4-.47-.47l-.42-.09c-.5-.11-.73-.34-.73-.78,0-.47.34-.79.96-.79s.98.35.99.86h-.37c-.02-.31-.2-.53-.63-.53-.35,0-.58.16-.58.46,0,.24.15.36.45.43l.39.08c.54.11.78.39.78.83,0,.52-.39.83-1.04.83-.68,0-1.04-.36-1.05-.9Z"/>
        <path class="st0" d="M63.87,32.82c0-.89.31-1.48,1.05-1.48.66,0,.95.39,1.01,1h-.37c-.04-.41-.19-.66-.64-.66-.59,0-.68.56-.68,1.14s.09,1.15.68,1.15c.43,0,.57-.24.64-.64h.37c-.08.6-.36.98-1.01.98-.75,0-1.05-.6-1.05-1.48Z"/>
        <path class="st0" d="M66.55,33.95h.71v-2.27h-.71v-.31h1.78v.31h-.71v2.27h.71v.31h-1.78v-.31Z"/>
        <path class="st0" d="M69.08,31.37h.94c.59,0,.91.38.91.91s-.33.93-.91.93h-.58v1.05h-.36v-2.89ZM69.97,32.88c.4,0,.59-.21.59-.6s-.2-.59-.59-.59h-.54v1.19h.54Z"/>
        <path class="st0" d="M71.7,31.37h.36v2.56h1.35v.33h-1.71v-2.89Z"/>
        <path class="st0" d="M74.21,33.95h.71v-2.27h-.71v-.31h1.78v.31h-.71v2.27h.71v.31h-1.78v-.31Z"/>
        <path class="st0" d="M76.73,31.37h.39l1.11,2.19h.02v-2.19h.36v2.89h-.4l-1.11-2.18h-.02v2.18h-.35v-2.89Z"/>
        <path class="st0" d="M81.32,34.22v.04h-.38l-.21-.76h-1.01l-.21.76h-.38v-.04l.85-2.85h.48l.86,2.85ZM80.63,33.19l-.4-1.41h-.02l-.4,1.41h.83Z"/>
        <path class="st0" d="M83.79,34.22v.04h-.39l-.76-1.14h-.54v1.14h-.36v-2.89h.98c.59,0,.92.38.92.87,0,.43-.25.73-.62.83l.78,1.15ZM82.1,32.79h.6c.36,0,.56-.2.56-.55s-.2-.54-.56-.54h-.6v1.09Z"/>
      </g>
      <g>
        <path class="st0" d="M60.17,22.12v.14h-2.38l-.56-1.82h-3.56l-.56,1.82h-2.27v-.14l3.29-9.45h2.75l3.3,9.45ZM56.64,18.54l-1.16-3.73h-.05l-1.16,3.73h2.38Z"/>
        <path class="st0" d="M60.99,15.09h1.75l.16,1.04h.05c.32-.63.92-1.16,1.84-1.16h.49v1.93h-.68c-1,0-1.64.67-1.64,1.82v3.53h-1.97v-7.16Z"/>
        <path class="st0" d="M65.98,18.66c0-2.16,1.26-3.7,3.55-3.7,2.12,0,3.22,1.29,3.32,2.95h-2.12c-.07-.63-.51-1.1-1.19-1.1-.89,0-1.4.56-1.4,1.85s.51,1.86,1.4,1.86c.68,0,1.12-.47,1.19-1.1h2.12c-.1,1.66-1.18,2.95-3.26,2.95-2.29,0-3.6-1.53-3.6-3.71Z"/>
        <path class="st0" d="M73.87,12.12h2.11v3.66h.05c.4-.47,1.03-.81,1.96-.81,1.59,0,2.66.99,2.66,2.58v4.71h-2.11v-4.05c0-.82-.37-1.32-1.21-1.32-.75,0-1.36.53-1.36,1.4v3.97h-2.11v-10.14Z"/>
        <path class="st0" d="M81.88,15.09h2.11v7.16h-2.11v-7.16Z"/>
        <path class="st0" d="M85.22,15.09h1.89l.22.68h.05c.34-.41.89-.81,1.9-.81,1.78,0,2.9,1.56,2.9,3.71s-1.1,3.7-2.9,3.7c-1.01,0-1.56-.4-1.9-.81h-.05v3.82h-2.11v-10.3ZM90.06,18.68c0-1-.37-1.86-1.41-1.86s-1.41.86-1.41,1.86.34,1.85,1.41,1.85,1.41-.85,1.41-1.85Z"/>
        <path class="st0" d="M93.22,15.09h2.11v7.16h-2.11v-7.16Z"/>
        <path class="st0" d="M96.22,18.68c0-2.03,1.18-3.71,3.51-3.71,2.19,0,3.42,1.55,3.42,3.49v.78h-4.78c.01.84.44,1.42,1.4,1.42.78,0,1.12-.38,1.25-.71h2.04c-.19,1.29-1.33,2.42-3.29,2.42-2.26,0-3.55-1.64-3.55-3.7ZM101,17.91c-.04-.68-.44-1.22-1.27-1.22-.9,0-1.3.53-1.34,1.22h2.62Z"/>
        <path class="st0" d="M104.18,12.12h2.11v10.14h-2.11v-10.14Z"/>
        <path class="st0" d="M107.18,18.66c0-2.14,1.1-3.7,2.9-3.7,1.01,0,1.56.4,1.9.81h.05l.22-.68h1.89v7.16h-1.89l-.22-.68h-.05c-.34.41-.89.81-1.9.81-1.81,0-2.9-1.56-2.9-3.71ZM112.14,18.66c0-1-.34-1.85-1.41-1.85s-1.41.85-1.41,1.85.37,1.86,1.41,1.86,1.41-.86,1.41-1.86Z"/>
        <path class="st0" d="M115.25,22.87h2.07c.05.48.53.84,1.19.84.93,0,1.4-.49,1.4-1.14v-1h-.05c-.34.41-.89.81-1.9.81-1.81,0-2.9-1.56-2.9-3.7s1.1-3.71,2.9-3.71c1.01,0,1.56.4,1.9.81h.05l.22-.68h1.89v7.51c0,1.79-1.51,2.92-3.51,2.92s-3.22-1.03-3.26-2.64ZM120,18.68c0-1-.37-1.86-1.41-1.86s-1.41.86-1.41,1.86.34,1.85,1.41,1.85,1.41-.85,1.41-1.85Z"/>
        <path class="st0" d="M122.9,18.68c0-2.15,1.27-3.71,3.58-3.71s3.58,1.56,3.58,3.71-1.25,3.7-3.58,3.7-3.58-1.55-3.58-3.7ZM127.9,18.68c0-1.3-.55-1.86-1.42-1.86s-1.42.58-1.42,1.86.56,1.85,1.42,1.85,1.42-.55,1.42-1.85Z"/>
      </g>
      <g>
        <circle class="st0" cx="82.95" cy="13.14" r="1.23"/>
        <circle class="st0" cx="94.28" cy="13.14" r="1.23"/>
        <circle class="st0" cx="99.69" cy="13.14" r="1.23"/>
      </g>
    </g>
    <g>
      <g>
        <path class="st0" d="M150.84,16.42v1.42h-.71v-4.17h1.59c.98,0,1.59.51,1.59,1.36s-.61,1.39-1.59,1.39h-.88ZM150.84,14.31v1.46h.79c.65,0,.97-.24.97-.73s-.32-.73-.97-.73h-.79Z"/>
        <path class="st0" d="M155.62,15.53s-.07,0-.11,0c-.67,0-.9.36-.9,1.17v1.14h-.68v-2.92h.67v.32c.2-.24.49-.36.89-.36.04,0,.08,0,.13,0v.64Z"/>
        <path class="st0" d="M158.47,15.29c.29.29.44.66.44,1.09s-.15.8-.44,1.09c-.29.29-.64.44-1.07.44s-.78-.14-1.07-.44c-.29-.29-.44-.66-.44-1.09s.14-.8.44-1.09c.29-.29.65-.44,1.07-.44s.77.15,1.07.44ZM157.98,17.04c.15-.17.23-.39.23-.66s-.08-.48-.23-.66c-.15-.17-.35-.26-.58-.26-.48,0-.82.38-.82.91s.34.91.82.91c.23,0,.43-.08.58-.26Z"/>
        <path class="st0" d="M160.07,17.95c.18.34.46.51.81.51.47,0,.77-.29.77-.82v-.15c-.21.19-.46.29-.78.29-.41,0-.74-.14-1.01-.41-.26-.28-.39-.63-.39-1.05s.13-.77.39-1.05c.26-.28.6-.42,1-.42.32,0,.58.1.79.31v-.24h.67v2.68c0,.44-.13.79-.39,1.06-.26.27-.61.4-1.05.4-.33,0-.6-.07-.82-.21-.21-.14-.38-.28-.49-.44l.49-.47ZM160.92,17.16c.45,0,.75-.35.75-.84s-.3-.85-.75-.85-.74.35-.74.85.29.84.74.84Z"/>
        <path class="st0" d="M164.94,15.53s-.07,0-.11,0c-.67,0-.9.36-.9,1.17v1.14h-.68v-2.92h.67v.32c.2-.24.49-.36.89-.36.04,0,.08,0,.13,0v.64Z"/>
        <path class="st0" d="M165.5,17.67c-.18-.16-.28-.38-.28-.65,0-.64.5-.98,1.21-.98.19,0,.39.04.59.1v-.2c0-.29-.24-.48-.57-.48-.3,0-.54.14-.69.42l-.46-.43c.22-.4.68-.61,1.15-.61.76,0,1.24.38,1.24,1.1v1.89h-.67v-.23c-.22.2-.5.29-.83.29-.28,0-.51-.08-.7-.24ZM166.34,17.31c.28,0,.51-.08.69-.25v-.33c-.21-.08-.41-.12-.61-.12-.32,0-.52.13-.52.36,0,.2.15.34.44.34Z"/>
        <path class="st0" d="M170.28,17.84v-1.74c0-.39-.2-.63-.54-.63-.39,0-.6.28-.6.72v1.66h-.68v-2.92h.67v.26c.18-.22.44-.33.76-.33.36,0,.63.12.82.38.23-.26.53-.38.91-.38.77,0,1.16.45,1.16,1.29v1.7h-.68v-1.74c0-.39-.2-.63-.54-.63-.39,0-.61.28-.61.72v1.66h-.67Z"/>
        <path class="st0" d="M173.64,17.67c-.18-.16-.28-.38-.28-.65,0-.64.5-.98,1.21-.98.19,0,.39.04.59.1v-.2c0-.29-.24-.48-.57-.48-.3,0-.54.14-.69.42l-.46-.43c.22-.4.68-.61,1.15-.61.76,0,1.24.38,1.24,1.1v1.89h-.67v-.23c-.22.2-.5.29-.83.29-.28,0-.51-.08-.7-.24ZM174.48,17.31c.28,0,.51-.08.69-.25v-.33c-.21-.08-.41-.12-.61-.12-.32,0-.52.13-.52.36,0,.2.15.34.44.34Z"/>
        <path class="st0" d="M180.08,15.14v-1.47h.68v4.17h-.67v-.26c-.21.22-.49.33-.83.33-.42,0-.76-.14-1.02-.43-.27-.29-.4-.66-.4-1.1s.13-.8.4-1.1c.27-.29.61-.43,1.02-.43.32,0,.6.09.82.29ZM178.54,16.38c0,.52.29.93.78.93s.78-.41.78-.93-.28-.93-.78-.93-.78.41-.78.93Z"/>
        <path class="st0" d="M184.11,16.59h-1.99c.03.43.33.71.77.71.32,0,.57-.14.75-.41l.46.43c-.31.4-.71.6-1.21.6-.43,0-.79-.14-1.06-.42-.27-.28-.41-.64-.41-1.09s.13-.8.37-1.1c.25-.3.58-.45.99-.45.95,0,1.33.76,1.33,1.49v.24ZM182.15,16.04h1.24c0-.3-.2-.57-.61-.57-.36,0-.57.26-.64.57Z"/>
        <path class="st0" d="M154.65,24.39c-.52.66-1.21.98-2.08.98-.79,0-1.44-.25-1.96-.74-.51-.5-.77-1.15-.77-1.94s.25-1.45.76-1.95c.51-.5,1.15-.75,1.94-.75.87,0,1.55.33,2.03.98l-.57.6c-.36-.51-.84-.77-1.44-.77-.51,0-.95.18-1.29.54-.34.36-.51.81-.51,1.36s.17.98.52,1.34c.35.35.78.53,1.31.53.61,0,1.11-.26,1.51-.78l.56.61Z"/>
        <path class="st0" d="M155.4,20.16c.21-.21.55-.21.76,0,.21.2.21.54,0,.75s-.55.21-.76,0c-.21-.21-.21-.55,0-.75ZM155.34,25.29v-3.65h.85v3.65h-.85Z"/>
        <path class="st0" d="M158.1,25.29h-.85v-3.65h.83v.3c.23-.26.54-.39.95-.39.9,0,1.45.6,1.45,1.62v2.12h-.85v-2.12c0-.51-.27-.85-.72-.85-.51,0-.81.36-.81.95v2.02Z"/>
        <path class="st0" d="M164.57,23.72h-2.5c.04.54.42.89.96.89.4,0,.71-.17.94-.51l.57.54c-.39.5-.89.74-1.51.74-.54,0-.99-.17-1.33-.52-.33-.35-.51-.81-.51-1.36s.16-1,.46-1.38c.31-.37.73-.56,1.24-.56,1.18,0,1.67.95,1.67,1.87v.3ZM162.12,23.04h1.56c0-.38-.25-.72-.76-.72-.45,0-.72.32-.8.72Z"/>
        <path class="st0" d="M168.6,26.73h-.89l.57-1.4-1.45-3.69h.97l.95,2.64.97-2.64h.92l-2.04,5.09Z"/>
        <path class="st0" d="M175.57,20.07l2.03,5.22h-.93l-.44-1.11h-2.23l-.43,1.11h-.94l2.04-5.22h.89ZM175.12,21.27l-.79,2.09h1.59l-.8-2.09Z"/>
        <path class="st0" d="M178.76,21.64v2.18c0,.48.25.79.69.79.48,0,.76-.37.76-.92v-2.06h.85v3.65h-.83v-.3c-.23.25-.55.38-.95.38-.83,0-1.36-.6-1.36-1.61v-2.12h.85Z"/>
        <path class="st0" d="M184.68,21.91v-1.84h.85v5.22h-.83v-.33c-.26.28-.61.41-1.04.41-.52,0-.95-.18-1.28-.54-.34-.37-.5-.82-.5-1.37s.16-1,.5-1.37.76-.54,1.28-.54c.4,0,.75.12,1.02.36ZM182.74,23.46c0,.66.36,1.16.98,1.16s.98-.51.98-1.16-.35-1.16-.98-1.16-.98.51-.98,1.16Z"/>
        <path class="st0" d="M186.65,20.16c.21-.21.55-.21.76,0,.21.2.21.54,0,.75s-.55.21-.76,0c-.21-.21-.21-.55,0-.75ZM186.6,25.29v-3.65h.85v3.65h-.85Z"/>
        <path class="st0" d="M191.49,22.1c.36.37.55.82.55,1.36s-.19,1-.55,1.36c-.37.37-.81.54-1.33.54s-.98-.18-1.34-.54c-.37-.36-.54-.82-.54-1.36s.18-1,.54-1.36c.36-.36.81-.55,1.34-.55s.97.19,1.33.55ZM190.88,24.28c.19-.22.29-.48.29-.82s-.1-.6-.29-.82c-.19-.22-.43-.32-.72-.32-.6,0-1.02.48-1.02,1.14s.42,1.14,1.02,1.14c.29,0,.54-.1.72-.32Z"/>
        <path class="st0" d="M195.73,21.64l-1.3,3.65h-.92l-1.3-3.65h.92l.84,2.56.84-2.56h.92Z"/>
        <path class="st0" d="M196.26,20.16c.21-.21.55-.21.76,0,.21.2.21.54,0,.75s-.55.21-.76,0-.21-.55,0-.75ZM196.21,25.29v-3.65h.85v3.65h-.85Z"/>
        <path class="st0" d="M199.06,23.79c-.74-.17-1.11-.55-1.11-1.15,0-.66.55-1.09,1.33-1.09.53,0,.98.2,1.38.61l-.54.58c-.22-.31-.51-.46-.86-.46-.31,0-.5.16-.5.34,0,.17.12.28.36.34l.57.13c.75.17,1.12.55,1.12,1.14,0,.66-.52,1.13-1.45,1.13-.63,0-1.14-.24-1.51-.71l.54-.55c.27.35.62.53,1.04.53.39,0,.56-.16.56-.37,0-.16-.11-.27-.45-.36l-.48-.12Z"/>
        <path class="st0" d="M202.31,21.64v2.18c0,.48.25.79.69.79.48,0,.76-.37.76-.92v-2.06h.85v3.65h-.83v-.3c-.23.25-.55.38-.95.38-.83,0-1.36-.6-1.36-1.61v-2.12h.85Z"/>
        <path class="st0" d="M205.78,25.07c-.23-.2-.35-.48-.35-.81,0-.8.63-1.22,1.52-1.22.24,0,.48.04.74.13v-.25c0-.36-.31-.6-.72-.6-.38,0-.67.18-.86.53l-.57-.54c.28-.5.85-.76,1.45-.76.95,0,1.56.48,1.56,1.38v2.36h-.83v-.28c-.28.25-.63.36-1.04.36-.35,0-.64-.1-.88-.3ZM206.83,24.63c.35,0,.64-.11.86-.31v-.42c-.26-.1-.51-.15-.76-.15-.39,0-.65.16-.65.45,0,.25.19.43.55.43Z"/>
        <path class="st0" d="M209.48,25.29v-5.22h.85v5.22h-.85Z"/>
        <path class="st0" d="M214.52,23.72h-2.5c.04.54.42.89.96.89.4,0,.71-.17.94-.51l.57.54c-.39.5-.89.74-1.51.74-.54,0-.99-.17-1.33-.52-.33-.35-.51-.81-.51-1.36s.16-1,.46-1.38c.31-.37.73-.56,1.24-.56,1.18,0,1.67.95,1.67,1.87v.3ZM212.06,23.04h1.56c0-.38-.25-.72-.76-.72-.45,0-.72.32-.8.72Z"/>
        <path class="st0" d="M216.34,23.79c-.74-.17-1.11-.55-1.11-1.15,0-.66.55-1.09,1.33-1.09.53,0,.98.2,1.38.61l-.54.58c-.22-.31-.51-.46-.86-.46-.31,0-.5.16-.5.34,0,.17.12.28.36.34l.57.13c.75.17,1.12.55,1.12,1.14,0,.66-.52,1.13-1.45,1.13-.63,0-1.14-.24-1.51-.71l.54-.55c.27.35.62.53,1.04.53.39,0,.56-.16.56-.37,0-.16-.11-.27-.45-.36l-.48-.12Z"/>
        <path class="st0" d="M153.48,27.52h.89v2.9c0,1.56-.82,2.4-2.11,2.4s-2.11-.84-2.11-2.4v-2.9h.89v2.91c0,1.06.4,1.59,1.21,1.59s1.21-.53,1.21-1.59v-2.9Z"/>
        <path class="st0" d="M156.18,32.74h-.85v-3.65h.83v.3c.23-.26.54-.39.95-.39.9,0,1.45.6,1.45,1.62v2.12h-.85v-2.12c0-.51-.27-.85-.72-.85-.51,0-.81.36-.81.95v2.02Z"/>
        <path class="st0" d="M159.59,27.61c.21-.21.55-.21.76,0,.21.2.21.54,0,.75s-.55.21-.76,0c-.21-.21-.21-.55,0-.75ZM159.54,32.74v-3.65h.85v3.65h-.85Z"/>
        <path class="st0" d="M163.75,32.74v-2.18c0-.48-.25-.79-.67-.79-.48,0-.75.35-.75.89v2.08h-.85v-3.65h.83v.32c.23-.28.55-.41.95-.41.45,0,.79.16,1.02.48.28-.32.66-.48,1.14-.48.96,0,1.45.57,1.45,1.62v2.12h-.85v-2.18c0-.48-.25-.79-.67-.79-.48,0-.76.35-.76.89v2.08h-.84Z"/>
        <path class="st0" d="M167.96,32.52c-.23-.2-.35-.48-.35-.81,0-.8.63-1.22,1.52-1.22.24,0,.48.04.74.13v-.25c0-.36-.31-.6-.72-.6-.38,0-.67.18-.86.53l-.57-.54c.28-.5.85-.76,1.45-.76.95,0,1.56.48,1.56,1.38v2.36h-.83v-.28c-.28.25-.63.36-1.04.36-.35,0-.64-.1-.88-.3ZM169.01,32.08c.35,0,.64-.11.86-.31v-.42c-.26-.1-.51-.15-.76-.15-.39,0-.65.16-.65.45,0,.25.19.43.55.43Z"/>
        <path class="st0" d="M172.16,32.87c.23.42.57.63,1.01.63.59,0,.97-.36.97-1.02v-.19c-.26.24-.58.36-.98.36-.51,0-.93-.17-1.26-.51-.32-.35-.48-.78-.48-1.31s.16-.97.49-1.31c.33-.35.74-.52,1.25-.52.4,0,.73.13.99.39v-.3h.83v3.35c0,.55-.16.99-.49,1.33-.33.34-.77.5-1.31.5-.41,0-.75-.09-1.02-.26-.27-.17-.48-.35-.62-.55l.61-.58ZM173.22,31.88c.57,0,.94-.43.94-1.05s-.37-1.06-.94-1.06-.93.43-.93,1.06.36,1.05.93,1.05Z"/>
        <path class="st0" d="M178.6,29.36v-1.84h.85v5.22h-.83v-.33c-.26.28-.61.41-1.04.41-.52,0-.95-.18-1.28-.54-.34-.37-.5-.82-.5-1.37s.16-1,.5-1.37.76-.54,1.28-.54c.4,0,.75.12,1.02.36ZM176.66,30.91c0,.66.36,1.16.98,1.16s.98-.51.98-1.16-.35-1.16-.98-1.16-.98.51-.98,1.16Z"/>
        <path class="st0" d="M180.62,32.52c-.23-.2-.35-.48-.35-.81,0-.8.63-1.22,1.52-1.22.24,0,.48.04.74.13v-.25c0-.36-.31-.6-.72-.6-.38,0-.67.18-.86.53l-.57-.54c.28-.5.85-.76,1.45-.76.95,0,1.56.48,1.56,1.38v2.36h-.83v-.28c-.28.25-.63.36-1.04.36-.35,0-.64-.1-.88-.3ZM181.67,32.08c.35,0,.64-.11.86-.31v-.42c-.26-.1-.51-.15-.76-.15-.39,0-.65.16-.65.45,0,.25.19.43.55.43Z"/>
        <path class="st0" d="M184.32,32.74v-5.22h.85v5.22h-.85Z"/>
        <path class="st0" d="M189.35,31.17h-2.5c.04.54.42.89.96.89.4,0,.71-.17.94-.51l.57.54c-.39.5-.89.74-1.51.74-.54,0-.99-.17-1.33-.52-.33-.35-.51-.81-.51-1.36s.16-1,.46-1.38c.31-.37.73-.56,1.24-.56,1.18,0,1.67.95,1.67,1.87v.3ZM186.9,30.49h1.56c0-.38-.25-.72-.76-.72-.45,0-.72.32-.8.72Z"/>
        <path class="st0" d="M191,32.74h-.85v-3.65h.83v.3c.23-.26.54-.39.95-.39.9,0,1.45.6,1.45,1.62v2.12h-.85v-2.12c0-.51-.27-.85-.72-.85-.51,0-.81.36-.81.95v2.02Z"/>
        <path class="st0" d="M194.46,32.52c-.23-.2-.35-.48-.35-.81,0-.8.63-1.22,1.52-1.22.24,0,.48.04.74.13v-.25c0-.36-.31-.6-.72-.6-.38,0-.67.18-.86.53l-.57-.54c.28-.5.85-.76,1.45-.76.95,0,1.56.48,1.56,1.38v2.36h-.83v-.28c-.28.25-.63.36-1.04.36-.35,0-.64-.1-.88-.3ZM195.51,32.08c.35,0,.64-.11.86-.31v-.42c-.26-.1-.51-.15-.76-.15-.39,0-.65.16-.65.45,0,.25.19.43.55.43Z"/>
      </g>
      <rect class="st0" x="142.8" y="12.12" width=".96" height="22.18"/>
    </g>
  </g>
</svg>