<?xml version="1.0" encoding="UTF-8"?>
<svg id="Layer_1" xmlns="http://www.w3.org/2000/svg" version="1.1" viewBox="0 0 335.971 31.571">
  <!-- Generator: Adobe Illustrator 29.0.0, SVG Export Plug-In . SVG Version: 2.1.0 Build 186)  -->
  <defs>
    <style>
      .st0 {
        fill: #0000fd;
      }

      .st1 {
        fill: #fafafa;
      }
    </style>
  </defs>
  <rect class="st1" x="-26.967" y="-266.679" width="390" height="844"/>
  <g>
    <g>
      <path class="st0" d="M267.828,4.393c-.199.021-.402-.027-.6.005-.059-.03-.081-.1-.057-.156.059-.025.417-.237.512-.292.056-.032.006-.221-.035-.247-1.141-.708-2.333-1.257-3.526-1.68-.471-.17-.943-.338-1.432-.461-.134-.033-.268-.065-.403-.096-.248-.063-.495-.122-.741-.176-.545-.139-1.099-.238-1.658-.304-.146-.017-.292-.033-.439-.045-.54-.047-1.08-.067-1.621-.077-.444-.009-4.252.221-4.537.261-.32.045-.64.098-.961.123-.525.022-1.006-.094-1.415-.484-.371-.355-.824-.588-1.308-.756-.05-.017-.113.005-.17.008.011.056.008.12.036.166.137.227.289.446.422.675.055.095.088.185.106.272.019.089.014.173-.006.255-.032.132-.108.257-.244.373-.066.056-.14.106-.216.15-.065.016-.131.033-.202.035-.117.016-.247-.06-.35.046-.277.283-.606.37-.987.268-.098-.026-.184-.05-.249.074-.014.028-.04.046-.059.071-.054.07-.122.125-.203.165-.162.082-.356.107-.522.042-.153-.061-.274-.035-.373.116-.107.164-.411.257-.618.216-.011-.002-.023-.003-.034-.006-.012-.003-.028-.002-.039-.006-.113-.047-.201-.028-.25.076-.099.21-.22.294-.418.265-.111-.059-.177-.087-.221-.068-.011-.004-.018-.005-.029-.01-.125-.055-.186-.021-.225.093-.047.136-.142.21-.283.224-.131.013-.257-.005-.371-.08-.095-.062-.165-.05-.253.043-.152.159-.324.307-.576.176-.082-.043-.157-.032-.23.048-.04.044-.087.073-.139.094-.065.026-.136.036-.21.037-.007,0-.013,0-.02,0-.103.002-.205.007-.308.013-.038-.016-.078-.012-.111.007,0,0-.002,0-.003,0-.138.008-.3.076-.425-.038-.35-.321-.648-.686-.926-1.069-.236-.326-.478-.647-.737-.955-.13-.154-.257-.311-.39-.463-.186-.21-.4-.385-.604-.574-.25-.23-.537-.382-.846-.505-.08-.032-.117,0-.114.084.002.057.016.105.037.148.041.081.113.139.207.181-.017.205.059.364.234.473.036.103.076.205.107.309.054.179.202.322.243.489.115.474.38.874.575,1.308.099.219.186.432.193.683,0,.009,0,.019,0,.028.001.172-.029.339-.035.507-.008.216-.052.431-.16.618-.188.326-.383.648-.54.991-.13.285-.256.573-.419.842-.063.103-.128.207-.188.312-.101.176-.181.369-.324.522-.086.092-.229.254-.184.307.09.107.261.043.398.004.023-.007.044-.021.067-.03.102-.041.2-.089.295-.141.412-.229.752-.555,1.06-.907.478-.546.912-1.131,1.364-1.7.046-.058.093-.115.139-.172.141-.177.285-.351.459-.497.097-.082.213-.197.32-.188.246.022.493.02.737.052.077.01.156.035.208.106.046.063.115.063.185.059.111-.006.222-.005.332-.015.112-.011.195.022.242.127.065.145.188.134.296.086.312-.14.334-.064.517.186.113.154.186.165.337.073.215-.131.291-.106.456.096.054.066.117.125.15.209.034.086.087.126.185.06.169-.115.358-.133.555-.081.011.039.035.03.06.017.008.004.017.006.026.006.054.071.048.177.132.231-.006.146.071.166.189.125.171-.06.358-.048.518.062.002,0,.004.002.006.003.072.051.141.116.197.215.042.074.103.072.173.074.076.002.153-.005.229-.008.208-.084.319-.047.501.159.029.033.108.068.133.052.211-.13.392.005.578.061.247.075.249.129.115.342-.058.093-.111.188-.168.282-.211.346-.419.694-.621,1.044-.033.058-.085.164-.032.213.057.052.159-.019.223-.056.697-.401,1.386-.814,2.088-1.207l.065-.014c.507.047,1.012.112,1.518.168.298.033.595.067.894.094.302.028.603.058.906.076.008,0,.016.002.024.003.837.086,1.681.103,2.522.157.069.004.178.012.203.081.026.074-.059.158-.115.204-.193.158-.402.297-.597.454-.051.041-.138.12-.104.183.033.061.147.037.207.016.914-.326,1.826-.658,2.739-.988.435-.041,2.663-.339,2.741-.355.012.001,1.889-.376,1.889-.408,0,.032,1.142-.315,1.272-.364.425-.162.843-.346,1.252-.545.346-.168,1.892-1.059,1.922-1.14.045-.123-.001-.22-.116-.208Z"/>
      <g>
        <path class="st0" d="M229.01,26.409V9.689s2.143,0,2.143,0c1.443,0,2.571.273,3.315.978s1.128,1.797,1.128,3.458c0,.796-.068,1.388-.316,1.934-.248.546-.632,1.001-1.195,1.524.609.341,1.06.978,1.421,2.048.18.523.271,1.206.271,2.047,0,1.251-.225,2.366-.789,3.23-.564.865-1.534,1.433-2.977,1.501h-3ZM231.446,16.582c.203,0,.677.023,1.083-.25.406-.273.722-.819.722-1.979s-.316-1.706-.722-1.979c-.406-.273-.88-.25-1.083-.25v4.459ZM231.446,23.975c.203,0,.677.046,1.083-.25.406-.296.722-.955.722-2.32s-.316-2.025-.722-2.32c-.406-.296-.88-.25-1.083-.25v5.141Z"/>
        <path class="st0" d="M244.458,22.974c-.023.683-.158,1.297-.406,1.82-.203.455-.519.887-.97,1.229-.451.364-1.06.569-1.872.569s-1.443-.205-1.894-.569c-.451-.341-.744-.773-.947-1.229-.248-.523-.383-1.137-.406-1.82v-9.85c.022-.66.158-1.274.406-1.797.203-.455.496-.91.947-1.251.451-.341,1.083-.569,1.894-.569s1.421.228,1.872.569c.451.341.767.796.97,1.251.248.523.383,1.137.406,1.797v9.85ZM242.022,13.124c0-.455-.09-.773-.316-1.046-.113-.114-.293-.182-.496-.182-.428,0-.631.318-.722.614-.068.182-.09.387-.09.614v9.85c0,.478.113.796.338,1.047.113.114.271.182.474.182.429,0,.632-.273.722-.614.068-.159.09-.364.09-.614v-9.85Z"/>
        <path class="st0" d="M249.577,17.696l-.203-.773h-.135v9.486s-2.233,0-2.233,0V9.689s2.165,0,2.165,0l2.368,8.713.203.773h.135v-9.486s2.233,0,2.233,0v16.72s-2.165,0-2.165,0l-2.368-8.713Z"/>
        <path class="st0" d="M256.816,9.689h2.436s0,16.72,0,16.72h-2.436s0-16.72,0-16.72Z"/>
        <path class="st0" d="M261.101,12.214v-2.525s7.037,0,7.037,0v2.525s-2.3,0-2.3,0v14.195s-2.436,0-2.436,0v-14.195h-2.3Z"/>
        <path class="st0" d="M276.324,22.974c-.023.683-.158,1.297-.406,1.82-.203.455-.519.887-.97,1.229-.451.364-1.06.569-1.872.569s-1.443-.205-1.894-.569c-.451-.341-.744-.773-.947-1.229-.248-.523-.383-1.137-.406-1.82v-9.85c.022-.66.158-1.274.406-1.797.203-.455.496-.91.947-1.251s1.083-.569,1.894-.569,1.421.228,1.872.569c.451.341.767.796.97,1.251.248.523.383,1.137.406,1.797v9.85ZM273.888,13.124c0-.455-.09-.773-.316-1.046-.113-.114-.293-.182-.496-.182-.428,0-.631.318-.722.614-.068.182-.09.387-.09.614v9.85c0,.478.113.796.338,1.047.113.114.271.182.474.182.429,0,.632-.273.722-.614.068-.159.09-.364.09-.614v-9.85Z"/>
      </g>
      <g>
        <path class="st0" d="M240.571,31.038c-.082.063-.171.117-.266.161-.095.045-.197.08-.306.105-.109.025-.23.038-.364.038-.212,0-.408-.039-.586-.117-.179-.078-.334-.185-.465-.32-.131-.135-.234-.295-.308-.479-.074-.184-.111-.382-.111-.595,0-.209.037-.406.111-.59.074-.184.177-.346.308-.484.131-.138.287-.247.469-.327.181-.08.38-.119.595-.119.134,0,.255.011.362.033s.207.054.299.094c.092.04.177.089.255.147.078.057.154.121.226.19l-.226.243c-.126-.117-.26-.214-.404-.289-.144-.075-.316-.113-.517-.113-.162,0-.312.031-.45.092s-.258.147-.36.255-.181.237-.239.383c-.057.147-.086.305-.086.475s.029.329.086.477c.057.148.137.276.239.385.102.109.222.195.36.257.138.063.288.094.45.094.201,0,.374-.037.519-.111.145-.074.287-.178.427-.312l.218.214c-.075.078-.154.149-.237.211Z"/>
        <path class="st0" d="M246.963,31.291h-.356s-.343-.775-.343-.775h-1.595s-.348.775-.348.775h-.339s1.336-2.952,1.336-2.952h.31s1.336,2.952,1.336,2.952ZM245.468,28.729l-.67,1.495h1.336s-.666-1.495-.666-1.495Z"/>
        <path class="st0" d="M252.407,31.291l-.85-1.139h-.837v1.139s-.331,0-.331,0v-2.931s1.26,0,1.26,0c.162,0,.308.021.438.063s.241.101.333.178c.092.077.163.169.214.276.05.108.075.227.075.358,0,.123-.02.233-.059.329s-.094.18-.165.251-.156.131-.253.178c-.098.048-.204.081-.318.1l.9,1.197h-.406ZM252.18,28.819c-.131-.102-.316-.153-.554-.153h-.907v1.193h.903c.109,0,.21-.014.302-.042.092-.028.172-.068.239-.12.067-.052.12-.116.157-.191.038-.076.057-.161.057-.256,0-.185-.066-.329-.197-.431Z"/>
        <path class="st0" d="M256.623,28.36v2.931s-.331,0-.331,0v-2.931s.331,0,.331,0Z"/>
        <path class="st0" d="M261.968,28.413c.117.035.217.084.301.147.084.063.148.14.192.23.045.091.067.192.067.304,0,.098-.013.183-.04.256-.026.073-.062.137-.106.192-.045.056-.094.103-.148.14s-.111.069-.169.094c.086.025.168.058.245.098.077.04.143.089.199.144.056.056.1.123.134.201.033.078.05.167.05.268,0,.126-.025.239-.075.339s-.122.185-.215.253-.205.121-.336.157-.276.054-.435.054h-1.3s0-2.931,0-2.931h1.245c.145,0,.276.017.393.052ZM262.009,29.532c.125-.09.188-.221.188-.395,0-.149-.056-.266-.167-.353-.111-.087-.272-.13-.48-.13h-.889v1.013h.864c.198,0,.359-.045.484-.135ZM262.168,30.86c.128-.092.192-.223.192-.391,0-.163-.065-.288-.196-.376s-.324-.132-.581-.132h-.923v1.038h.982c.223,0,.398-.046.526-.139Z"/>
        <path class="st0" d="M268.319,28.662h-1.788v1.001h1.6s0,.301,0,.301h-1.6v1.026h1.809s0,.302,0,.302h-2.14s0-2.931,0-2.931h2.119s0,.302,0,.302Z"/>
      </g>
    </g>
    <g>
      <g>
        <path class="st0" d="M118.256,2.996l-.006,18.053-.295.143c-3.105-.27-7.408.791-9.987-1.319-3.808-3.116-2.922-10.72,2.211-11.955,1.735-.417,3.508.026,5.148-.195.116-.016.39-.112.39-.223V2.996h2.54ZM111.313,10.275c-4.316.619-4.084,9.087,1.373,8.367,4.353-.574,4.203-9.167-1.373-8.367Z"/>
        <g>
          <path class="st0" d="M136.386,25.384c-.085-.464-.171-.965-.007-1.429.183-.291.924.089,1.167-.518.113-.283.117-1.501,0-1.791-.281-.699-1.241-.147-1.249-.939v-5.163c0-.119.058-.149.147-.203.273-.166,2.43-.166,2.658.029.057.049.087.098.088.175l-.013,7.861c-.06.602-.313,1.266-.82,1.63-.056.041-.579.349-.614.349h-1.358Z"/>
          <path class="st0" d="M133.54,16.376l.117.145c-.071,2.332-2.072,4.462-4.346,4.904-5.724,1.112-9.098-3.855-7.966-9.091,1.51-6.987,11.849-6.625,12.242.76.034.633-.021,1.281-.016,1.915l-.07.105c-2.26.17-4.629-.094-6.885.035-.485.028-1.363.089-1.749.353-.97.665-.5,2.03.135,2.753,1.476,1.68,4.7,1.385,5.781-.606.222-.408.252-.947.566-1.271h2.19ZM127.35,9.401c-1.454.036-3.32,1.003-3.029,2.713.065.381.34.734.704.871.391.147,3.717.127,4.314.072.67-.063,1.143-.51,1.18-1.188.093-1.701-1.716-2.504-3.169-2.468Z"/>
        </g>
      </g>
      <g>
        <path class="st0" d="M82.433,10.517c.005-.008.132.028.173-.063,1.161-2.622,3.128-3.378,5.993-3.076,5.601.59,3.773,5.767,4.079,9.658.057.726.363,1.387,1.102,1.611.221.067,1.003.08,1.003.31v2.099l-.131.131h-8.321c-.05,0-.851-.219-.967-.259-3.414-1.171-3.502-6.082-.112-7.378,1.43-.547,3.301-.007,4.802-.322v-1.968c0-.11-.228-.616-.313-.737-.866-1.24-3.71-1.159-4.453.177-.19.342-.191.759-.446,1.041h-2.409c.051-.228-.069-1.106,0-1.224ZM85.722,18.427c1.049,1.192,3.827,1.096,4.374-.565.966-2.934-3.939-3.524-4.728-1.31-.232.65-.086,1.375.354,1.876Z"/>
        <path class="st0" d="M101.57,10.079c-1.255.148-1.716,1.08-1.799,2.227-.199,2.771.153,5.781.007,8.578-.017.349-.189.366-.481.395-.301.029-1.912.037-2.042-.114l-.098-.381.008-12.741.459-.329,6.554.024c.089.019.238.078.283.154.109.184.126,2.187-.176,2.187-.823,0-1.936-.092-2.715,0Z"/>
      </g>
    </g>
    <g>
      <path class="st0" d="M12.184,1.427H.819v26.337h16.804V1.427h-5.439ZM3.477,2.046h0s-.091.034-.091.034l.091-.034ZM3.33,2.039l.007.007-.011-.008h.003ZM1.427,1.985h.024s-.054.018-.054.018l.031-.018ZM1.29,1.993l.04.03-.04.013v-.043ZM1.29,5.598c.002.012.002.024.006.036.018.063.051.125.097.184.012.015.025.028.038.042-.012.013-.025.026-.036.041-.046.06-.079.122-.098.186-.003.012-.003.024-.006.036v-.525ZM1.29,14.173c.002.011.002.023.006.034.018.063.05.124.097.185.012.015.025.028.038.042-.012.013-.025.026-.036.041-.046.06-.079.122-.098.186-.003.012-.003.024-.006.036v-.525ZM1.29,22.747c.002.011.002.023.006.035.018.063.05.124.097.185.012.015.025.028.038.042-.013.014-.026.027-.037.042-.047.062-.079.122-.097.185-.003.012-.003.024-.006.036v-.525ZM1.388,27.243l-.041-.023.071.022h-.03ZM3.323,27.169l-.02.02h-.009s.03-.021.03-.021h-.001s0,0,0,0h0s0-.001,0-.001h-.002ZM3.519,27.106c-.013.042-.047.064-.075.075l-.033-.012.058-.102.047-.032c.006.009.014.038.003.071ZM3.547,26.76c-.124-.057-.226-.036-.28-.014-.091.037-.167.122-.197.223-.022.074-.018.151.007.226l-1.476.042c.013-.082,0-.165-.039-.238-.05-.094-.139-.17-.236-.2-.012-.004-.024-.006-.035-.008v-3.318c.025.128.084.23.175.293.059.04.131.061.202.061.045,0,.091-.008.133-.025.067-.028.12-.077.158-.14l1.258,1.544c-.069.037-.123.094-.156.167-.06.131-.036.274.002.357.052.114.151.194.282.228.034.009.068.013.101.013.035,0,.069-.006.102-.016v.807ZM1.623,23.364c.03-.012.054-.01.075-.006l.024.108-.169-.033c.003-.015.026-.051.071-.069ZM1.552,22.584l.169-.033-.023.104c-.019.006-.044.009-.076-.003-.045-.018-.068-.054-.071-.068ZM1.803,22.545l-.069.004.078-.015-.009.011ZM1.813,23.483l-.052-.01.045.002.007.008ZM3.411,25.505l.059.009.025.031c0,.021-.028.069-.077.084l-.037-.127.023.003s0,.002,0,.003c.002-.001.004,0,.007-.002ZM3.547,24.866l-1.456-1.786h0c-.02-.025-.04-.049-.061-.071.008-.008.016-.017.024-.026h0s1.493-1.83,1.493-1.83v3.714ZM3.339,20.661l.014-.047v.031s-.014.015-.014.015ZM3.353,20.614h0s0,0,0,0h0ZM3.381,20.516v-.005s.004.004.004.004h-.004ZM3.444,20.507l-.039.006-.011-.04h0s.049.034.049.034ZM3.405,20.436l.014-.048c.048.014.077.062.077.083l-.09-.035ZM3.547,20.063c-.066-.019-.135-.02-.206-.002-.128.033-.227.114-.279.227-.038.083-.061.227-.002.357.033.073.087.129.156.166l-1.258,1.543c-.039-.062-.092-.112-.158-.14-.108-.044-.239-.029-.336.037-.089.061-.148.162-.173.29v-2.953c.023-.002.045-.006.068-.013.095-.028.186-.104.236-.198.031-.059.045-.123.044-.188h1.469c-.023.072-.026.145-.005.216.03.101.106.186.199.224.028.011.068.022.119.022.037,0,.08-.008.127-.024v.435ZM3.331,19.19h.002l.004.004-.006-.004ZM3.477,19.194h0s-.091.034-.091.034l.091-.034ZM3.39,18.548l.126-.087c.006.009.014.038.003.071-.006.018-.016.032-.027.043h-.09l-.012-.028ZM3.547,19.339l-.105-.073.043-.068c.023.011.048.03.062.061v.08ZM3.547,18.186c-.124-.057-.226-.036-.28-.014-.091.037-.167.122-.197.223-.018.059-.019.12-.006.181h-1.458c-.004-.053-.018-.105-.044-.153-.05-.094-.14-.17-.233-.198-.012-.004-.025-.006-.037-.009v-3.318c.025.128.084.23.173.291.059.041.132.062.204.062.045,0,.09-.008.131-.025.067-.027.121-.077.159-.14l1.258,1.543c-.069.037-.123.094-.156.167-.06.131-.036.274.002.357.052.114.151.194.278.227.035.009.07.014.104.014.035,0,.069-.007.102-.016v.807ZM1.699,14.08c-.019.006-.044.009-.076-.002-.045-.018-.068-.054-.071-.068l.169-.033-.023.103ZM1.722,14.892l-.169-.032c.003-.015.026-.051.072-.068.024-.009.047-.01.074-.007l.024.108ZM1.803,13.971l-.069.004.078-.015-.009.011ZM1.813,14.909l-.052-.01.045.002.007.008ZM3.41,16.931l.06.009.025.031c0,.021-.028.069-.077.084l-.037-.127.023.003s0,.002,0,.003c.002,0,.004-.001.006-.002ZM3.547,16.292l-1.453-1.783c-.021-.027-.041-.051-.064-.074.008-.008.016-.017.024-.026h0s.011-.013.011-.013c.002-.003.004-.005.006-.008l1.475-1.81v3.714ZM3.339,12.087l.013-.046v.031s-.013.015-.013.015ZM3.444,11.933l-.062.009.013-.045.049.036ZM3.405,11.862l.014-.047c.048.014.077.062.077.082l-.09-.035ZM3.547,11.489c-.066-.019-.135-.021-.206-.002-.128.033-.227.113-.279.227-.038.083-.061.227-.002.358.033.072.087.129.155.166l-1.258,1.543c-.039-.062-.092-.112-.158-.14-.107-.044-.239-.03-.336.037-.089.061-.148.162-.173.291v-2.954c.023-.002.045-.006.068-.013.095-.028.186-.104.236-.198.031-.059.045-.123.044-.188h1.469c-.022.071-.026.145-.005.216.03.101.106.186.199.224.039.015.079.023.12.023.042,0,.084-.008.126-.024v.434ZM3.332,10.617h.002l.004.004-.006-.004ZM3.477,10.62h0s-.091.034-.091.034l.091-.034ZM3.39,9.974l.126-.087c.006.009.014.038.003.071-.006.018-.016.032-.027.043h-.09l-.012-.028ZM3.547,10.765l-.105-.073.043-.068c.023.011.048.03.062.061v.08ZM3.547,9.612c-.124-.056-.225-.036-.28-.014-.091.037-.167.122-.197.223-.018.059-.019.12-.006.181h-1.458c-.004-.053-.018-.105-.044-.153-.05-.094-.14-.17-.233-.198-.012-.004-.025-.006-.037-.009v-3.318c.025.13.085.231.173.291.059.041.132.062.204.062.045,0,.09-.008.131-.025.067-.027.121-.077.159-.14l1.258,1.543c-.069.036-.123.093-.156.166-.06.131-.037.274.002.358.052.114.151.194.278.227.035.009.07.014.104.014.035,0,.069-.007.102-.016v.807ZM1.7,5.504c-.024.008-.049.01-.076,0-.046-.017-.068-.054-.072-.068l.171-.033-.024.101ZM1.723,6.318l-.171-.033c.003-.015.026-.051.072-.068.024-.009.048-.01.074-.007l.025.108ZM1.803,5.397l-.07.004.079-.015-.009.011ZM1.813,6.335l-.052-.01.045.002.007.008ZM3.409,8.357l.061.009.025.03c0,.022-.029.069-.077.084l-.037-.127.023.003s0,.001,0,.002c.002,0,.003,0,.005-.002ZM3.547,7.717l-1.453-1.783c-.021-.027-.041-.051-.064-.074.008-.008.016-.017.024-.026h0s1.493-1.83,1.493-1.83v3.714ZM3.339,3.513l.016-.055-.002.037-.014.018ZM3.444,3.359l-.063.009.013-.045.05.035ZM3.405,3.288l.014-.048c.048.014.077.062.077.083l-.09-.035ZM3.547,2.915c-.066-.02-.135-.021-.206-.002-.128.033-.227.114-.279.227-.038.083-.062.226-.002.357.033.073.087.13.156.166l-1.258,1.543c-.039-.063-.092-.112-.16-.14-.108-.044-.239-.029-.334.036-.089.061-.149.162-.175.292v-2.954c.023-.002.046-.006.07-.012.095-.029.185-.105.235-.199.039-.074.051-.157.039-.238l1.476.042c-.025.074-.03.152-.008.226.03.101.106.186.197.223.029.011.071.023.123.023.037,0,.079-.007.125-.024v.434ZM3.547,2.191l-.105-.073.043-.068c.023.011.048.03.062.061v.08ZM6.08,1.985l.042.023-.072-.023h.03ZM4.165,2.039h.009s-.03.02-.03.02h0s-.001,0-.001,0h0s.021-.021.021-.021ZM4.017,2.049s.004-.002.006-.003l.032.012-.038.067v-.077ZM4.017,3.277s.004-.003.007-.004l.037.127-.023-.003s0-.001,0-.002c-.002,0-.003.001-.005.002l-.016-.002v-.117ZM4.017,4.186l1.332,1.634c.02.026.041.051.063.073-.005.005-.01.011-.015.017h0s-1.379,1.691-1.379,1.691v-3.415ZM4.112,8.23l-.016.056.002-.038.015-.018ZM4.017,8.383l.053-.008-.037.128c-.006-.002-.01-.005-.016-.008v-.112ZM4.017,9.873l.057.039-.043.068s-.009-.004-.014-.007v-.1ZM4.017,10.623s.004-.002.006-.003l.035.013.019.047-.06.041v-.098ZM4.017,11.851s.004-.003.007-.004l.037.128-.025-.004s0,0,0-.002c-.002,0-.003,0-.004.001l-.015-.002v-.117ZM4.017,12.76l1.332,1.634c.02.026.041.05.062.073-.005.005-.01.011-.015.017h0s-1.379,1.691-1.379,1.691v-3.415ZM4.085,12.054l.02.068-.017-.021-.002-.047ZM4.112,16.804l-.016.055.002-.037.014-.018ZM4.017,16.957l.053-.008-.013.045-.04-.028v-.009ZM4.017,17.018l.029.011-.014.047c-.006-.002-.01-.005-.016-.008v-.051ZM4.017,18.447l.057.039-.043.068s-.009-.004-.014-.007v-.1ZM4.017,19.197s.004-.002.006-.003l.035.013.019.047-.06.041v-.098ZM4.017,20.425s.004-.003.007-.004l.037.128-.023-.003s0-.002,0-.003c-.003.001-.005,0-.007.002l-.015-.002v-.117ZM4.017,21.333l1.332,1.634c.021.026.041.051.063.074-.005.005-.01.011-.015.017h0s-1.379,1.691-1.379,1.691v-3.416ZM4.112,25.378l-.016.055.002-.037.014-.018ZM4.017,25.531l.053-.008-.013.045-.04-.028v-.01ZM4.017,25.592l.029.011-.014.047c-.006-.002-.01-.005-.016-.008v-.051ZM4.031,27.129s-.009-.004-.014-.007v-.1l.057.039-.043.068ZM4.185,27.14l-.01-.01.015.01h-.005ZM6.065,27.193l.054-.017-.031.018h-.024ZM6.12,27.176h0s0,0,0,0h0ZM6.259,27.206s-.003,0-.005,0l-.067-.051.072-.023v.073ZM6.259,26.737c-.034,0-.068.004-.102.014-.095.029-.185.105-.234.199-.039.074-.051.157-.039.238l-1.476-.042c.025-.074.03-.152.007-.226-.03-.101-.106-.186-.197-.223-.042-.017-.113-.033-.2-.014v-.693c.03,0,.061-.005.092-.013.128-.033.227-.113.279-.227.038-.083.061-.227.002-.358-.033-.072-.087-.129-.155-.166l1.258-1.543c.039.063.092.113.16.14.042.017.087.025.132.025.072,0,.144-.021.202-.061.094-.064.155-.17.178-.306.014-.079.011-.152-.009-.225-.018-.063-.051-.125-.097-.185-.011-.015-.024-.028-.037-.041.009-.01.019-.02.028-.031.047-.062.079-.123.097-.185.02-.071.023-.144.009-.223-.023-.136-.084-.241-.177-.306-.095-.067-.227-.081-.335-.037-.067.027-.121.077-.16.14l-1.258-1.544c.069-.037.123-.094.156-.167.06-.131.036-.274-.002-.357-.052-.114-.151-.195-.281-.228-.028-.007-.055-.01-.082-.012v-.436c.022.004.042.006.062.006.051,0,.093-.011.122-.023.092-.037.167-.122.198-.223.021-.071.018-.145-.005-.216h1.469c-.001.065.012.13.043.188.05.094.141.17.234.198.033.01.066.015.099.015.007,0,.013-.002.02-.002v7.148ZM5.661,22.573h-.027s-.005-.006-.005-.006l.031.006h-.001s.002,0,.002,0ZM5.714,23.491l-.075.015.009-.011.066-.003ZM5.819,22.686c-.023.009-.048.01-.074.007l-.024-.108.169.033c-.004.015-.026.051-.071.068ZM5.899,23.455l-.17.033.023-.101c.025-.008.05-.01.076,0,.046.017.068.053.071.068ZM4.143,19.208l.018-.018h.007l-.026.018ZM4.175,18.556l.015.01h-.005s-.01-.01-.01-.01ZM6.259,18.575h-.046l.004-.004.043-.013v.017ZM6.259,18.162c-.033,0-.067.004-.1.014-.095.028-.185.104-.236.198-.034.063-.047.132-.044.201h-1.35l-.122-.003c.025-.074.03-.152.007-.226-.03-.101-.106-.186-.197-.223-.042-.017-.113-.034-.2-.014v-.692c.03,0,.061-.005.092-.013.128-.033.227-.113.279-.227.038-.083.061-.227.002-.358-.033-.072-.087-.129-.155-.166l1.258-1.543c.039.062.092.112.159.14.042.017.087.025.132.025.072,0,.144-.021.204-.062.093-.064.154-.17.177-.305.014-.079.011-.153-.009-.224-.018-.063-.05-.124-.097-.186-.011-.015-.024-.027-.037-.041.009-.011.019-.02.028-.032.047-.062.079-.123.097-.185.02-.071.023-.144.009-.223-.023-.136-.084-.242-.178-.307-.096-.065-.227-.079-.335-.035-.067.027-.12.077-.159.14l-1.258-1.544c.069-.036.123-.093.156-.166.06-.131.037-.274-.002-.357-.052-.114-.151-.194-.278-.227-.029-.008-.057-.011-.085-.012v-.436c.021.004.042.006.061.006.051,0,.093-.011.122-.023.092-.037.167-.122.198-.223.021-.071.018-.145-.005-.216h1.469c-.001.065.012.129.043.188.05.094.141.17.234.198.033.01.066.015.099.015.006,0,.013-.002.019-.002v7.147ZM5.637,14.002l-.007-.009.054.01-.047-.002ZM5.713,14.917l-.074.015.009-.011.065-.003ZM5.828,14.813c.045.017.067.054.071.068l-.169.033.023-.103c.019-.006.044-.009.075.003ZM5.76,14.779l.013-.06.099-.077-.112.137ZM5.819,14.111c-.03.011-.054.01-.075.006l-.024-.107.169.033c-.004.015-.026.051-.071.068ZM4.143,10.634l.018-.017h.007l-.025.017ZM4.175,9.982l.015.011h-.005s-.01-.011-.01-.011ZM6.259,10.001h-.046l.004-.004.043-.013v.017ZM6.259,9.588c-.033,0-.067.004-.1.014-.095.028-.185.104-.236.198-.034.063-.047.132-.044.201h-1.366l-.106-.003c.026-.075.03-.152.007-.226-.03-.101-.106-.186-.199-.224-.041-.016-.111-.032-.198-.012v-.694c.031,0,.062-.004.094-.013.128-.034.226-.114.278-.227.038-.083.061-.227.002-.357-.033-.073-.087-.13-.156-.166l1.258-1.543c.039.063.092.113.16.14.041.017.086.025.131.025.072,0,.145-.021.204-.062.093-.064.154-.17.177-.304.014-.079.011-.154-.009-.225-.018-.063-.05-.124-.099-.187-.011-.014-.023-.026-.035-.039.009-.01.019-.019.027-.03.047-.061.08-.123.098-.186.02-.071.023-.144.009-.223-.023-.137-.085-.243-.177-.306-.096-.067-.227-.08-.335-.038-.067.027-.121.077-.16.14l-1.258-1.543c.069-.036.123-.093.156-.166.06-.131.037-.274-.002-.358-.052-.114-.151-.194-.278-.226-.029-.008-.057-.011-.085-.013v-.436c.022.004.042.006.061.006.051,0,.094-.012.122-.023.092-.037.167-.122.198-.223.022-.074.018-.152-.007-.226l1.476-.042c-.012.082,0,.164.039.238.05.094.139.17.236.2.032.01.065.014.097.014.007,0,.013-.002.019-.002v7.147ZM5.637,5.427l-.007-.009.055.011-.047-.002ZM5.716,6.343l-.078.015.01-.012.068-.003ZM5.827,6.24c.046.017.068.053.071.068l-.169.033.022-.1c.024-.008.049-.01.076,0ZM5.76,6.204l.013-.058.1-.078-.112.136ZM5.819,5.537c-.024.009-.048.01-.074.007l-.025-.109.171.033c-.004.015-.026.051-.071.068ZM6.259,2.037l-.069-.029.047-.036s0,0,0,0c.006,0,.014.002.02.003v.062ZM8.916,2.046s0,0,0,0l-.091.034h0s.09-.034.09-.034ZM8.77,2.039l.008.008-.011-.008h.004ZM6.866,1.985h.024s-.054.018-.054.018l.031-.018ZM6.745,2.005l.025.019-.025.008v-.026ZM6.745,5.656c.019.056.047.11.088.163.012.015.025.028.037.041-.012.013-.025.026-.036.041-.041.053-.07.108-.088.163v-.408ZM6.745,14.23c.019.055.046.108.088.163.011.015.024.028.037.041-.012.013-.025.026-.036.041-.041.053-.07.108-.088.163v-.408ZM6.745,22.804c.019.055.046.108.088.163.012.015.024.028.037.041-.013.013-.026.026-.037.042-.041.054-.069.108-.087.162v-.408ZM6.827,27.243l-.044-.024.075.024h-.031ZM8.763,27.168l-.02.02h-.009s.03-.021.03-.021h-.001s0,0,0,0h0s0,0,0,0h-.001ZM8.959,27.106c-.013.042-.047.064-.075.075l-.033-.012.057-.102.047-.033c.006.009.014.038.003.071ZM8.986,26.76c-.125-.057-.226-.036-.28-.014-.091.037-.167.122-.197.223-.022.074-.018.151.007.226l-1.476.042c.012-.082,0-.164-.039-.238-.05-.094-.139-.171-.237-.2-.007-.002-.013-.003-.02-.005v-3.262c.03.1.084.18.16.234.059.04.131.061.202.061.045,0,.091-.008.132-.025.067-.027.12-.077.159-.139l1.258,1.543c-.069.037-.123.094-.156.167-.06.131-.036.274.002.357.052.114.151.195.281.228.035.009.069.013.102.013.035,0,.069-.006.101-.016v.807ZM7.063,22.652c-.045-.018-.067-.054-.071-.068l.169-.033-.023.104c-.019.006-.044.009-.075-.003ZM7.131,22.687l-.013.06-.099.077.112-.137h0ZM7.063,23.364c.03-.011.054-.009.075-.006l.024.107-.169-.033c.004-.015.026-.051.071-.068ZM7.221,23.477h.027s.005.006.005.006l-.031-.006h.001s-.002,0-.002,0ZM7.243,22.545l-.069.003.078-.015-.01.012ZM8.85,25.505l.059.009.025.031c0,.021-.028.069-.077.084l-.037-.128.023.003s0,.002,0,.003c.003-.001.004,0,.007-.002ZM8.986,24.866l-1.456-1.786h0c-.02-.025-.04-.049-.061-.071.008-.009.016-.017.024-.027h0s1.492-1.83,1.492-1.83v3.715ZM8.778,20.662l.017-.058-.002.04-.015.019ZM8.821,20.516v-.005s.004.004.004.004h-.004ZM8.884,20.506l-.04.006-.011-.04v-.002s.051.036.051.036ZM8.844,20.436l.014-.048c.048.014.077.062.077.083l-.09-.035ZM8.986,20.063c-.066-.019-.134-.021-.205-.002-.128.033-.227.114-.279.227-.038.083-.061.227-.002.357.033.073.087.13.156.166l-1.258,1.543c-.039-.063-.092-.112-.159-.14-.107-.044-.239-.029-.336.037-.075.052-.128.132-.158.231v-2.895c.018-.002.035-.006.053-.011.095-.028.185-.104.236-.198.031-.059.045-.123.043-.188h1.469c-.023.071-.026.145-.005.216.03.101.106.186.2.224.028.011.068.022.119.022.037,0,.08-.007.127-.024v.435ZM8.771,19.19h.002l.005.005-.007-.005ZM8.83,18.548l.126-.087c.006.009.014.038.003.071-.006.018-.016.032-.027.043h-.09l-.011-.028ZM8.986,19.339l-.105-.073.043-.069c.023.011.048.03.061.061v.08ZM8.986,18.186c-.125-.057-.226-.036-.28-.014-.091.037-.167.122-.197.223-.018.059-.019.12-.006.181h-1.458c-.004-.053-.018-.104-.044-.153-.05-.094-.141-.17-.234-.198-.007-.002-.015-.003-.022-.005v-3.262c.03.1.083.18.158.232.059.041.132.062.204.062.045,0,.09-.008.131-.025.067-.027.121-.077.16-.14l1.258,1.543c-.069.037-.123.094-.156.167-.06.131-.036.274.002.357.052.114.151.195.278.227.036.01.071.014.105.014.035,0,.069-.007.102-.016v.807ZM7.063,14.078c-.045-.017-.067-.054-.071-.068l.169-.033-.023.103c-.019.006-.044.009-.075-.002ZM7.131,14.113l-.013.06-.099.077.112-.137h0ZM7.063,14.791c.024-.009.048-.01.074-.007l.024.108-.169-.033c.004-.015.026-.051.071-.068ZM7.221,14.903h-.001s0,0,0,0h.002s.027,0,.027,0l.005.006-.032-.006h.003s-.002,0-.002,0ZM7.243,13.971l-.066.003.075-.015-.009.011ZM8.849,16.931l.06.009.025.031c0,.021-.028.069-.077.084l-.037-.128.023.003s0,.002,0,.003c.002,0,.004-.001.006-.002ZM8.986,16.292l-1.453-1.783c-.021-.027-.041-.051-.064-.075.008-.009.016-.017.024-.027h0s.009-.011.009-.011c.004-.005.009-.01.013-.016l1.47-1.804v3.715ZM8.778,12.087l.016-.055-.002.038-.015.018ZM8.884,11.932l-.063.009.013-.045.05.035ZM8.844,11.862l.014-.047c.048.014.077.062.077.082l-.09-.035ZM8.986,11.489c-.065-.019-.134-.021-.205-.002-.128.033-.227.113-.279.227-.038.083-.061.227-.002.358.033.073.087.13.156.166l-1.258,1.543c-.039-.063-.092-.112-.159-.14-.107-.044-.239-.03-.336.037-.075.052-.128.132-.158.231v-2.895c.018-.002.035-.006.053-.011.095-.028.185-.104.236-.198.031-.059.045-.123.043-.188h1.469c-.022.071-.026.145-.005.216.03.101.106.186.2.224.028.011.07.022.12.022.037,0,.079-.007.125-.024v.434ZM8.771,10.617h.002l.004.004-.006-.004ZM8.83,9.974l.126-.087c.006.009.014.038.003.071-.006.018-.016.032-.027.043h-.09l-.011-.028ZM8.986,10.765l-.105-.073.043-.069c.023.011.048.03.061.061v.08ZM8.986,9.612c-.124-.056-.225-.036-.28-.014-.091.037-.167.122-.197.223-.018.059-.019.12-.006.181h-1.458c-.004-.053-.018-.104-.044-.153-.05-.094-.141-.17-.234-.198-.007-.002-.015-.003-.022-.005v-3.262c.03.101.084.181.158.232.059.041.132.062.204.062.045,0,.09-.008.131-.025.067-.027.121-.077.16-.14l1.258,1.543c-.069.036-.123.093-.156.166-.06.131-.037.274.002.358.052.114.151.194.278.226.036.01.071.014.105.014.035,0,.069-.007.102-.016v.807ZM7.063,6.217c.024-.009.048-.01.074-.007l.025.109-.171-.033c.004-.015.026-.051.071-.068ZM6.992,5.436l.171-.033-.023.101c-.024.008-.049.01-.076,0-.046-.017-.068-.053-.071-.068ZM7.243,5.397l-.069.003.079-.015-.01.012ZM7.253,6.335l-.055-.011.047.002.007.009ZM8.848,8.357l.061.009.025.03c0,.022-.029.069-.077.084l-.037-.127.023.003s0,.001,0,.002c.002,0,.003-.001.005-.002ZM8.986,7.717l-1.453-1.783c-.021-.027-.041-.051-.064-.074.008-.009.016-.017.024-.026h0s1.492-1.83,1.492-1.83v3.714ZM8.778,3.514l.016-.056-.002.038-.015.018ZM8.884,3.359l-.064.01.013-.045.051.036ZM8.844,3.288l.014-.048c.048.014.077.062.077.083l-.09-.035ZM8.986,2.915c-.065-.019-.134-.021-.205-.002-.128.033-.227.114-.279.227-.038.083-.062.226-.002.357.033.073.088.13.156.167l-1.258,1.543c-.039-.063-.092-.113-.16-.141-.108-.043-.24-.028-.334.036-.076.052-.129.132-.159.232v-2.896c.018-.002.037-.006.055-.011.095-.029.185-.105.234-.199.039-.074.051-.157.039-.238l1.476.042c-.025.074-.03.151-.007.226.03.101.106.186.198.223.029.011.071.023.122.023.037,0,.079-.007.125-.024v.434ZM8.986,2.191l-.105-.072.043-.069c.023.011.048.03.061.061v.08ZM11.519,1.985l.043.024-.074-.023h.03ZM9.613,2.039l-.03.02.021-.02h.009ZM9.584,2.059h0s0,.001,0,.001h.001ZM9.457,2.049s.004-.002.006-.003l.033.012-.038.068v-.077ZM9.457,3.277s.004-.003.007-.004l.037.127-.023-.003s0-.001,0-.002c-.002,0-.004,0-.006.001l-.015-.002v-.117ZM9.457,4.186l1.332,1.634c.02.026.041.051.063.073-.005.005-.01.011-.015.017h0s-1.379,1.692-1.379,1.692v-3.416ZM9.552,8.23l-.016.056.002-.038.015-.018ZM9.509,8.375v.005s-.004-.004-.004-.004h.004ZM9.457,8.383l.03-.005.01.039-.025.085c-.006-.002-.01-.005-.016-.008v-.112ZM9.457,9.873l.057.04-.043.068s-.009-.004-.014-.007v-.101ZM9.457,10.623s.004-.002.006-.003l.034.013.02.047-.06.041v-.098ZM9.457,11.851s.004-.003.007-.004l.037.128-.026-.004s0,0,0-.001c-.001,0-.002,0-.003,0l-.016-.002v-.117ZM9.457,12.76l1.332,1.634c.02.026.041.05.062.073-.005.006-.01.011-.015.017h0s-.006.007-.006.007c-.009.01-.017.021-.026.032l-1.347,1.653v-3.416ZM9.524,12.054l.02.068-.017-.021-.002-.047ZM9.551,16.804l-.013.046v-.031s.013-.015.013-.015ZM9.457,16.957l.053-.008-.013.045-.04-.029v-.009ZM9.457,17.018l.029.011-.014.047c-.006-.002-.01-.005-.016-.008v-.051ZM9.457,18.447l.057.04-.043.068s-.009-.004-.014-.007v-.101ZM9.457,19.197s.004-.002.006-.003l.034.013.02.047-.06.041v-.098ZM9.457,20.425s.004-.003.007-.004l.037.127-.023-.003s0-.002,0-.003c-.002.001-.004,0-.007.002l-.014-.002v-.117ZM9.457,21.333l1.332,1.634c.021.026.041.051.063.074-.005.006-.01.011-.015.017h0s-.006.007-.006.007c-.009.01-.017.021-.026.032l-1.347,1.653v-3.417ZM9.551,25.378l-.016.055.002-.037.014-.018ZM9.457,25.531l.053-.008-.013.045-.04-.029v-.009ZM9.457,25.592l.029.011-.014.047c-.006-.002-.01-.005-.016-.008v-.051ZM9.47,27.129s-.009-.004-.014-.007v-.101l.057.039-.043.069ZM9.624,27.14l-.01-.01.014.01h-.005ZM11.529,27.194h-.024s.055-.018.055-.018l-.031.018ZM11.698,27.206s-.004,0-.006,0l-.067-.05.073-.023v.073ZM11.698,26.737c-.034,0-.068.004-.103.014-.095.029-.185.105-.234.199-.039.074-.051.157-.039.238l-1.476-.042c.025-.074.03-.151.007-.226-.03-.101-.106-.186-.198-.223-.042-.017-.113-.033-.2-.014v-.693c.031,0,.061-.005.093-.013.128-.033.227-.113.279-.227.038-.083.061-.227.002-.358-.033-.073-.087-.129-.156-.166l1.258-1.543c.039.063.092.112.16.14.042.017.087.025.132.025.072,0,.144-.021.202-.061.093-.064.155-.17.179-.307.013-.08.01-.153-.01-.224-.018-.063-.051-.125-.096-.184-.011-.015-.025-.028-.037-.042.009-.01.019-.02.028-.031.047-.062.079-.122.097-.187.02-.07.023-.142.009-.223-.023-.135-.085-.241-.177-.305-.095-.067-.227-.081-.335-.037-.067.027-.121.077-.16.14l-1.258-1.544c.069-.037.123-.094.156-.167.06-.131.036-.274-.002-.357-.052-.114-.151-.194-.282-.228-.028-.007-.055-.01-.082-.012v-.436c.022.004.042.006.062.006.051,0,.093-.011.122-.023.091-.037.167-.122.197-.223.021-.071.018-.145-.005-.216h1.469c-.001.065.012.13.044.188.05.094.141.17.234.198.033.01.066.015.099.015.007,0,.013-.002.02-.002v7.148ZM11.076,22.575l-.007-.009.055.01-.048-.002ZM11.157,23.49l-.079.015.01-.012.07-.003ZM11.258,22.685c-.024.01-.048.01-.074.007l-.024-.108.169.033c-.003.014-.026.051-.071.068ZM11.339,23.455l-.171.033.023-.101c.025-.008.05-.01.076,0,.046.017.068.054.072.068ZM9.583,19.208h0s.018-.018.018-.018h.007l-.025.017h0s-.001,0-.001,0ZM9.615,18.556l.014.01h-.005s-.01-.01-.01-.01ZM11.698,18.575h-.053l.053-.017v.017ZM11.698,18.162c-.034,0-.067.004-.101.014-.095.028-.185.104-.236.198-.034.063-.047.132-.044.201h-1.35l-.122-.003c.025-.074.03-.151.007-.226-.03-.101-.106-.186-.198-.223-.042-.017-.113-.034-.2-.014v-.692c.031,0,.061-.005.093-.013.128-.033.227-.113.279-.227.038-.083.061-.227.002-.358-.033-.073-.087-.129-.156-.166l1.258-1.543c.039.063.092.112.159.14.042.017.087.025.132.025.072,0,.144-.021.204-.062.092-.064.153-.17.177-.306.014-.08.01-.153-.009-.223-.018-.063-.05-.124-.097-.185-.011-.015-.024-.028-.037-.042.009-.011.019-.02.028-.032.047-.062.079-.122.097-.187.02-.07.023-.142.009-.222-.023-.136-.085-.241-.178-.307-.096-.066-.228-.079-.335-.035-.067.028-.12.077-.159.14l-1.258-1.544c.069-.036.123-.093.156-.166.06-.131.037-.274-.002-.357-.052-.114-.151-.194-.278-.227-.029-.007-.057-.011-.085-.012v-.436c.021.004.041.006.062.006.041,0,.082-.007.122-.023.091-.037.167-.122.197-.223.021-.071.018-.145-.005-.216h1.469c-.001.065.012.129.044.188.05.094.141.17.234.198.033.01.066.015.099.015.007,0,.013-.002.02-.002v7.147ZM11.076,14.001l-.007-.008.052.01-.045-.002ZM11.16,14.916l-.082.016.01-.012.072-.004ZM11.259,14.111c-.03.011-.054.009-.075.006l-.023-.107.169.032c-.003.015-.026.051-.071.068ZM11.339,14.881l-.17.033.023-.104c.019-.006.044-.009.076.003.045.018.068.054.071.068ZM9.583,10.634h0s.018-.017.018-.017h.007l-.024.017h0s-.001,0-.001,0ZM9.615,9.982l.015.01h-.005s-.01-.01-.01-.01ZM11.698,10.001h-.046l.004-.004.043-.013v.017ZM11.698,9.588c-.034,0-.067.004-.101.014-.095.028-.185.104-.236.198-.034.063-.047.132-.044.201h-1.366l-.106-.003c.026-.074.03-.152.008-.226-.03-.101-.106-.186-.2-.224-.041-.016-.111-.032-.198-.012v-.694c.031,0,.062-.005.095-.013.127-.034.226-.114.277-.227.038-.083.061-.227.002-.357-.033-.073-.087-.13-.156-.166l1.258-1.543c.039.063.092.113.16.14.042.017.086.025.131.025.072,0,.145-.021.204-.062.092-.064.153-.17.177-.306.014-.08.01-.153-.009-.223-.018-.063-.05-.124-.098-.187-.011-.015-.024-.027-.036-.04.009-.01.019-.019.027-.03.046-.06.079-.122.098-.187.02-.07.023-.142.009-.223-.023-.136-.085-.242-.177-.305-.096-.067-.227-.081-.335-.037-.067.027-.121.077-.159.14l-1.258-1.543c.069-.036.123-.093.156-.166.06-.131.037-.274-.002-.358-.052-.114-.151-.194-.278-.227-.029-.007-.057-.011-.085-.012v-.436c.022.004.042.006.061.006.052,0,.094-.012.122-.023.091-.037.167-.122.197-.223.022-.074.018-.151-.008-.226l1.476-.042c-.013.082,0,.164.039.238.05.094.14.17.237.2.032.01.065.014.097.014.007,0,.013-.002.02-.002v7.147ZM11.267,6.24c.046.017.068.054.072.068l-.17.033.022-.101c.025-.008.05-.01.076,0ZM11.199,6.204l.013-.059.099-.077-.112.137ZM11.258,5.537c-.024.009-.048.01-.074.007l-.025-.108.171.033c-.003.015-.026.051-.072.068ZM11.163,6.341l-.086.016.01-.013.075-.004ZM11.076,5.427l-.007-.008.052.01-.045-.002ZM11.698,2.038l-.069-.029.047-.035c.007,0,.015.001.022.002v.063ZM14.21,2.039l.01.01-.014-.01h.005ZM12.306,1.985h.024s-.055.018-.055.018h0s0,0,0,0h0s.031-.018.031-.018ZM12.184,2.005l.025.019-.025.008v-.026ZM12.184,5.656c.019.056.047.11.088.163.012.015.025.028.037.041-.012.013-.025.026-.036.041-.041.053-.07.108-.088.163v-.408ZM12.184,14.23c.019.055.046.108.088.163.011.015.024.028.037.041-.012.013-.025.026-.036.041-.041.053-.07.108-.088.163v-.408ZM12.184,22.804c.019.055.046.108.088.163.012.015.024.028.037.041-.013.013-.026.026-.037.042-.041.054-.069.108-.087.162v-.408ZM12.267,27.243l-.043-.024.073.023h-.03ZM14.173,27.189l.03-.02-.021.02h-.009ZM14.202,27.169h0s0-.001,0-.001h-.001ZM14.398,27.106c-.013.042-.047.064-.075.075l-.033-.012.058-.103.046-.032c.006.009.014.038.003.072ZM14.426,26.76c-.124-.057-.226-.036-.28-.014-.092.037-.167.122-.198.223-.022.074-.018.152.007.226l-1.476.042c.012-.082,0-.164-.039-.238-.05-.094-.139-.17-.237-.2-.007-.002-.013-.003-.02-.005v-3.262c.03.1.084.181.16.233.059.04.131.061.202.061.045,0,.091-.008.132-.025.067-.027.12-.077.159-.139l1.258,1.544c-.069.037-.123.094-.157.167-.06.131-.036.275.002.356.052.114.151.195.281.228.035.009.069.013.102.013.035,0,.069-.007.101-.016v.807ZM12.502,22.652c-.045-.018-.067-.054-.071-.068l.169-.033-.023.104c-.019.006-.044.009-.075-.003ZM12.57,22.687l-.013.06-.099.077.112-.137h0ZM12.503,23.364c.029-.011.053-.009.074-.006l.024.107-.169-.033c.004-.015.026-.051.071-.068ZM12.66,23.477h.027s.005.006.005.006l-.031-.006h.001s-.002,0-.002,0ZM12.682,22.545l-.069.003.078-.015-.01.012ZM14.289,25.505l.059.009.025.03c0,.022-.028.07-.076.084l-.037-.128.023.003s0,.002,0,.003c.003-.001.004,0,.007-.002ZM14.426,24.866l-1.455-1.785c-.02-.026-.04-.05-.062-.073.008-.009.016-.017.024-.026h0s.012-.014.012-.014c0-.001.002-.002.003-.003l1.478-1.813v3.715ZM14.218,20.661l.013-.046v.031s-.013.015-.013.015ZM14.26,20.516v-.005s.004.004.004.004h-.004ZM14.323,20.506l-.04.006-.011-.04h0s.05.034.05.034ZM14.283,20.437l.014-.048c.048.014.077.062.077.083l-.091-.035ZM14.426,20.063c-.066-.019-.134-.021-.205-.002-.128.033-.227.114-.279.226-.038.083-.062.227-.002.358.033.073.088.13.156.166l-1.257,1.542c-.049-.079-.116-.119-.16-.138-.107-.044-.239-.03-.337.037-.075.052-.128.132-.158.231v-2.895c.018-.002.035-.006.053-.011.095-.028.185-.104.236-.198.031-.059.045-.123.044-.188h1.469c-.023.071-.026.145-.005.216.03.101.106.186.2.224.028.011.068.022.119.022.037,0,.08-.007.127-.024v.435ZM14.21,19.19h.003l.007.007-.01-.007ZM14.269,18.548l.126-.087c.006.009.014.038.003.072-.006.018-.016.032-.027.043h-.09l-.012-.028ZM14.426,19.339l-.105-.073.043-.068c.023.011.048.03.061.061v.08ZM14.426,18.186c-.124-.057-.226-.036-.28-.014-.092.037-.167.122-.198.223-.018.059-.019.12-.006.181h-1.458c-.004-.053-.018-.105-.044-.153-.05-.094-.141-.17-.234-.198-.007-.002-.015-.003-.022-.005v-3.262c.03.1.083.18.159.232.059.041.132.062.204.062.045,0,.09-.008.131-.025.067-.027.121-.077.16-.14l1.258,1.543c-.069.037-.123.094-.157.167-.06.131-.036.275.002.356.052.114.151.195.278.227.036.01.071.014.105.014.035,0,.069-.007.102-.017v.807ZM12.502,14.078c-.045-.018-.067-.054-.071-.068l.169-.033-.023.104c-.019.006-.044.009-.075-.003ZM12.57,14.113l-.013.06-.099.077.112-.137h0ZM12.503,14.791c.023-.009.047-.01.074-.008l.024.109-.169-.033c.004-.015.026-.051.072-.068ZM12.66,14.903h-.001s0,0,0,0h.002s.027,0,.027,0l.005.006-.032-.006h.003s-.002,0-.002,0ZM12.682,13.971l-.066.003.075-.015-.009.011ZM14.288,16.931l.06.009.025.03c0,.022-.028.07-.076.084l-.037-.128.023.003s0,.002,0,.003c.002,0,.004-.001.006-.002ZM14.426,16.292l-1.453-1.783h0c-.021-.027-.042-.052-.064-.075.008-.009.016-.017.024-.027h0s.005-.006.005-.006c.011-.013.022-.026.032-.04l1.455-1.785v3.715ZM14.218,12.087l.013-.045v.03s-.013.015-.013.015ZM14.323,11.932l-.063.009.013-.045.05.036ZM14.284,11.862l.014-.048c.048.014.077.062.077.083l-.09-.035ZM14.426,11.489c-.065-.019-.134-.021-.205-.002-.128.033-.227.113-.279.226-.038.083-.062.227-.002.358.033.073.087.13.156.166l-1.256,1.541c-.049-.079-.116-.119-.16-.137-.107-.045-.239-.03-.337.036-.075.052-.128.132-.158.231v-2.896c.018-.002.035-.006.053-.011.095-.028.185-.104.236-.198.031-.059.045-.123.044-.188h1.469c-.022.071-.026.145-.005.216.03.101.106.186.2.224.028.011.07.022.12.022.037,0,.079-.007.125-.024v.434ZM14.211,10.617h.003l.006.006-.009-.006ZM14.269,9.974l.126-.087c.006.009.014.038.003.072-.006.018-.016.032-.027.043h-.09l-.012-.028ZM14.426,10.765l-.105-.073.043-.068c.023.011.048.03.061.061v.08ZM14.426,9.612c-.124-.056-.225-.036-.28-.014-.092.037-.167.122-.198.223-.018.059-.019.12-.006.181h-1.458c-.004-.053-.018-.105-.044-.153-.05-.094-.141-.17-.234-.198-.007-.002-.015-.004-.022-.005v-3.262c.03.101.084.182.159.232.059.041.132.062.204.062.045,0,.09-.008.131-.025.067-.027.121-.077.16-.14l1.258,1.543c-.069.037-.123.094-.156.166-.06.131-.036.275.002.358.052.114.151.194.278.226.036.01.071.014.105.014.035,0,.069-.007.102-.017v.807ZM12.503,6.217c.024-.01.047-.01.074-.008l.025.109-.171-.033c.004-.015.026-.051.072-.068ZM12.431,5.436l.171-.033-.023.101c-.024.008-.049.01-.076,0-.046-.017-.068-.054-.071-.068ZM12.682,5.397l-.069.003.079-.015-.01.012ZM12.692,6.335l-.055-.011.047.002.007.009ZM14.288,8.357l.061.009.025.03c0,.022-.028.07-.076.084l-.037-.127.023.003s0,.001,0,.002c.002,0,.004-.001.005-.002ZM14.426,7.717l-1.453-1.783h0c-.021-.027-.042-.052-.064-.075.008-.008.016-.017.024-.026h0s.011-.014.011-.014c.001-.002.003-.003.004-.005l1.477-1.812v3.714ZM14.218,3.513l.013-.046v.031s-.013.015-.013.015ZM14.324,3.359l-.064.01.013-.045.05.036ZM14.283,3.288l.014-.048c.048.014.077.062.076.083l-.09-.035ZM14.426,2.915c-.065-.019-.134-.021-.205-.002-.128.033-.227.114-.278.226-.039.083-.062.226-.003.358.033.073.088.13.157.167l-1.258,1.543c-.039-.063-.092-.113-.16-.14-.108-.045-.24-.029-.334.036-.076.052-.129.132-.159.233v-2.896c.018-.002.037-.006.055-.011.095-.029.185-.105.234-.199.039-.074.051-.157.039-.238l1.476.042c-.025.074-.03.151-.007.226.03.101.106.186.198.223.029.011.071.023.122.023.037,0,.079-.007.125-.024v.434ZM14.426,2.191l-.105-.072.043-.069c.023.011.048.03.061.061v.08ZM14.918,27.133s0,0,0,0l.091-.034h0s-.091.034-.091.034ZM15.065,27.14l-.007-.007.01.007h-.003ZM16.968,27.194h-.024s.054-.018.054-.018l-.031.018ZM17.153,27.204c-.007,0-.014.002-.02.002l-.067-.05.087-.028v.076ZM17.153,19.191h-.002s.002,0,.002,0h0ZM17.153,18.575h-.061l.004-.004.057-.018v.022ZM17.153,10.617h-.001s.001,0,.001,0h0ZM17.153,10.001h-.061l.004-.004.057-.018v.022ZM17.115,1.974c.012,0,.025,0,.038.004v.066l-.083-.035.046-.035ZM16.958,1.985l.041.023-.071-.022h.03ZM15.023,2.059l.02-.02h.009s-.03.021-.03.021h.001s0,0,0,0h0s0,.001,0,.001h.002ZM14.896,2.049s.004-.002.006-.003l.033.012-.038.068v-.077ZM14.896,3.277s.004-.003.007-.004l.037.126-.023-.003s0-.001,0-.002c-.002,0-.003,0-.005.001l-.017-.002v-.117ZM14.896,4.186l1.335,1.637h0c.019.025.039.048.06.07-.005.005-.01.011-.015.017h0s-1.379,1.692-1.379,1.692v-3.416ZM14.991,8.23l-.016.055.002-.038.014-.018ZM14.949,8.375v.005s-.003-.004-.003-.004h.003ZM14.896,8.383l.03-.005.01.039-.025.086c-.006-.002-.01-.005-.016-.008v-.112ZM14.896,8.842c.031,0,.062-.005.095-.013.127-.034.226-.114.277-.227.038-.083.061-.227.002-.357-.033-.073-.087-.13-.156-.166l1.258-1.543c.039.063.092.113.16.14.042.017.086.025.131.025.072,0,.145-.021.204-.062.093-.064.154-.17.177-.306.014-.08.01-.153-.009-.222-.018-.063-.049-.124-.098-.188-.011-.014-.024-.027-.036-.04.009-.01.019-.02.027-.03.046-.06.079-.122.098-.186.02-.07.023-.143.009-.224-.023-.136-.085-.242-.177-.305-.096-.067-.227-.081-.335-.037-.067.027-.12.077-.159.139l-1.258-1.543c.069-.036.123-.093.156-.166.06-.131.037-.274-.002-.358-.052-.114-.151-.194-.278-.227-.029-.007-.057-.011-.085-.012v-.436c.022.004.042.006.062.006.051,0,.094-.012.122-.023.091-.037.167-.122.197-.223.022-.074.018-.151-.007-.226l1.476-.042c-.013.082,0,.165.039.238.05.094.139.17.236.2.032.01.065.014.097.014.012,0,.023-.002.034-.004v7.149c-.038-.002-.077.002-.115.014-.095.028-.186.104-.236.198-.033.063-.047.132-.043.201h-1.367l-.106-.003c.026-.074.03-.152.008-.226-.03-.101-.106-.186-.2-.224-.041-.016-.111-.032-.198-.012v-.694ZM16.706,6.24c.046.017.068.054.072.068l-.17.033.022-.101c.024-.008.05-.01.076,0ZM16.638,6.204l.013-.059.099-.077-.112.137ZM16.697,5.537c-.024.009-.048.01-.074.007l-.025-.108.171.033c-.003.015-.026.051-.072.068ZM16.602,6.341l-.086.016.01-.013.075-.004ZM16.516,5.427l-.007-.009.053.01-.046-.002ZM15.069,9.992h-.004s-.007-.008-.007-.008l.011.008ZM15.047,10.617l-.024.017.017-.017h.007ZM15.01,9.951l-.091.034s0,0,0,0l.091-.034h0ZM14.896,9.873l.058.04-.044.068s-.009-.004-.014-.007v-.101ZM14.896,10.623s.004-.002.006-.003l.034.013.02.047-.06.041v-.098ZM14.896,11.851s.004-.003.007-.004l.037.127-.026-.004s0,0,0,0c0,0-.002,0-.002,0l-.016-.002v-.117ZM14.896,12.76l1.335,1.637h0c.019.025.039.048.06.07-.005.005-.01.011-.015.017h0s-.006.007-.006.007c-.009.01-.018.021-.026.032l-1.347,1.653v-3.416ZM14.963,12.054l.019.066-.017-.021-.002-.046ZM14.991,16.804l-.013.045v-.03s.013-.015.013-.015ZM14.896,16.957l.053-.008-.013.045-.04-.029v-.009ZM14.896,17.018l.029.012-.014.047c-.006-.002-.01-.005-.016-.008v-.051ZM14.896,17.417c.031,0,.061-.005.093-.013.128-.033.227-.113.279-.227.038-.084.062-.227.002-.358-.033-.073-.087-.129-.156-.166l1.258-1.543c.039.063.092.112.159.14.042.017.087.025.132.025.072,0,.144-.021.204-.062.093-.064.154-.17.177-.306.014-.08.01-.153-.009-.221-.018-.063-.049-.124-.097-.187-.011-.015-.024-.028-.037-.041.009-.011.02-.02.028-.032.047-.062.079-.122.097-.185.02-.07.023-.143.009-.224-.023-.136-.085-.241-.178-.307-.096-.066-.228-.079-.335-.035-.067.028-.12.077-.158.139l-1.258-1.544c.069-.036.123-.093.156-.166.06-.13.037-.274-.002-.357-.052-.114-.151-.194-.278-.227-.029-.007-.057-.011-.085-.012v-.436c.021.004.042.006.061.006.051,0,.093-.011.122-.023.091-.037.167-.122.197-.223.021-.071.018-.145-.004-.216h1.469c-.001.065.012.129.044.188.05.094.14.17.233.198.033.01.066.015.099.015.012,0,.023-.002.034-.004v7.149c-.038-.002-.077.002-.115.014-.095.028-.186.104-.236.198-.033.063-.047.132-.043.201h-1.351l-.122-.003c.025-.074.03-.152.007-.226-.03-.101-.106-.186-.198-.223-.042-.017-.113-.034-.2-.014v-.692ZM16.516,14.002l-.007-.008.052.01-.045-.002ZM16.599,14.916l-.082.016.01-.012.072-.004ZM16.698,14.111c-.03.011-.054.009-.075.006l-.024-.107.17.033c-.003.015-.026.051-.071.068ZM16.778,14.881l-.17.033.023-.104c.019-.006.044-.009.076.003.045.018.068.054.071.068ZM15.068,18.566h-.003s-.007-.007-.007-.007l.01.007ZM15.048,19.19l-.025.017.018-.017h.007ZM15.01,18.525l-.091.034s0,0,0,0l.091-.034h0ZM14.896,18.447l.058.04-.044.068s-.009-.004-.014-.007v-.101ZM14.896,19.197s.004-.002.006-.003l.034.013.02.047-.06.041v-.098ZM14.896,20.425s.004-.003.007-.004l.037.127-.023-.003s0-.001,0-.003c-.002.001-.004,0-.007.002l-.014-.002v-.117ZM14.896,21.334l1.335,1.637h0c.019.025.039.048.06.07-.005.006-.01.011-.015.017h0s-.006.007-.006.007c-.009.01-.018.021-.026.032l-1.347,1.653v-3.416ZM14.991,25.378l-.016.055.002-.037.014-.018ZM14.896,25.531l.053-.008-.013.045-.04-.029v-.009ZM14.896,25.592l.029.012-.014.047c-.006-.002-.01-.005-.016-.008v-.051ZM14.896,25.991c.031,0,.061-.005.093-.013.128-.033.227-.113.279-.227.038-.084.062-.227.002-.358-.033-.073-.087-.129-.156-.166l1.258-1.543c.039.063.092.112.16.14.042.017.087.025.132.025.072,0,.144-.021.202-.061.094-.064.155-.17.179-.307.013-.08.01-.153-.009-.222-.018-.063-.051-.126-.097-.186-.011-.015-.025-.028-.037-.042.009-.011.019-.02.028-.031.047-.062.079-.122.097-.185.02-.07.023-.143.009-.224-.023-.135-.085-.241-.177-.305-.095-.067-.227-.081-.335-.037-.067.027-.12.077-.159.14l-1.258-1.543c.069-.037.123-.094.156-.166.06-.131.036-.274-.002-.357-.052-.114-.151-.194-.282-.228-.028-.007-.055-.01-.082-.012v-.436c.022.004.043.006.062.006.051,0,.093-.011.122-.023.091-.037.167-.122.197-.223.021-.071.018-.145-.005-.216h1.469c-.001.065.012.13.044.188.05.094.14.17.233.198.033.01.066.015.099.015.012,0,.023-.002.035-.004v7.15c-.039-.002-.078.002-.117.013-.095.029-.185.105-.235.199-.039.074-.051.157-.039.238l-1.476-.042c.025-.074.03-.152.007-.226-.03-.101-.106-.186-.198-.223-.042-.017-.113-.033-.2-.014v-.693ZM16.516,22.575l-.007-.008.052.01-.045-.002ZM16.597,23.49l-.079.015.01-.012.07-.003ZM16.697,22.685c-.024.009-.048.01-.074.007l-.024-.108.17.033c-.003.014-.026.051-.071.068ZM16.778,23.455l-.171.033.023-.101c.025-.008.05-.01.076,0,.046.017.068.054.072.068ZM14.896,27.021l.057.04-.043.068s-.009-.004-.014-.007v-.101Z"/>
      <path class="st0" d="M24.677,6.776c-.42,0-.841-.019-1.261.026-.315.034-.63.025-.946.02-.173-.004-.208-.046-.222-.224-.006-.07-.003-.14-.006-.21-.022-.706-.008-1.419.004-2.129.008-.44.014-.878.012-1.314-.002-.342-.007-.683-.017-1.025-.005-.165-.041-.195-.206-.206-.035-.003-.07-.003-.105-.002-.385.006-.771.012-1.156.022-.192.005-.221.036-.23.235-.004.097-.003.193-.004.289,0,.438,0,.876-.002,1.314-.003,1.192-.006,2.383-.008,3.575,0,.341.004.683.009,1.025.003.205.031.237.221.242.604.016,1.208.016,1.812.054.673.042,1.347-.035,2.021-.003.026.001.053,0,.079-.004.152-.017.206-.062.207-.216.004-.429,0-.859-.007-1.288-.003-.146-.043-.182-.198-.182Z"/>
      <path class="st0" d="M31.808,7.763c-.184-.865-.355-1.732-.549-2.595-.242-1.076-.503-2.147-.755-3.221-.043-.182-.074-.216-.267-.222-.225-.007-.46-.017-.683-.003-.007,0-.014,0-.02.001-.214.016-.423-.009-.637-.003-.238.007-.265.035-.311.265-.026.128-.053.257-.086.384-.244.949-.473,1.903-.675,2.862-.207.985-.385,1.976-.637,2.951-.051.196-.005.244.199.271.403.052.805,0,1.207-.016.114-.005.179-.059.207-.165.028-.11.052-.221.081-.332.022-.083.07-.142.164-.141.342.004.683.009,1.025.015.089.001.148.048.173.134.024.084.051.167.067.253.023.121.087.184.213.19.096.004.192.021.288.028.298.019.596.023.893,0,.202-.017.247-.084.204-.276-.029-.128-.07-.254-.097-.381ZM29.608,6.104c-.017.001-.034,0-.102,0,.016.001-.019.002-.053-.004-.058-.011-.098-.05-.09-.108.03-.223.069-.444.143-.658.009-.025.029-.048.056-.042.022.005.052.023.058.042.062.198.108.401.131.607.014.124-.017.153-.142.162Z"/>
      <path class="st0" d="M34.068,6.298c.045.252.1.5.222.725.191.355.406.694.697.982.199.197.43.329.695.405.273.079.553.075.834.068.419-.01.785-.153,1.119-.397.397-.29.665-.666.797-1.14.045-.165.023-.219-.137-.288-.241-.103-.485-.202-.73-.297-.097-.037-.201-.062-.303-.085-.112-.025-.133-.016-.19.087-.068.123-.14.243-.237.346-.356.377-.797.275-1.025-.17-.008-.016-.016-.031-.022-.047-.071-.19-.127-.382-.127-.587,0-.097.002-.193-.01-.289-.055-.448.009-.892.022-1.338.003-.104.025-.209.05-.311.044-.179.106-.351.235-.492.24-.263.535-.286.815-.062.133.106.222.245.309.388.09.148.11.154.276.111.349-.09.674-.245,1.005-.382.136-.057.158-.114.118-.248-.025-.084-.057-.166-.088-.247-.239-.625-.866-1.147-1.527-1.28-.208-.042-.417-.042-.628-.041-.546.002-1.009.19-1.367.612-.343.404-.638.835-.76,1.362-.049.213-.088.429-.092.648-.004.254,0,.508,0,.762-.002.402-.023.804.049,1.204Z"/>
      <path class="st0" d="M45.232,7.763c-.184-.865-.355-1.732-.549-2.595-.242-1.076-.503-2.147-.755-3.221-.043-.182-.074-.216-.267-.222-.225-.007-.46-.017-.683-.003-.007,0-.014,0-.02.001-.214.016-.423-.009-.637-.003-.238.007-.265.035-.311.265-.026.128-.053.257-.086.384-.244.949-.473,1.903-.675,2.862-.207.985-.385,1.976-.637,2.951-.051.196-.005.244.199.271.403.052.805,0,1.207-.016.114-.005.179-.059.207-.165.028-.11.052-.221.081-.332.022-.083.07-.142.164-.141.342.004.683.009,1.025.015.089.001.148.048.173.134.024.084.051.167.067.253.023.121.087.184.213.19.096.004.192.021.288.028.298.019.596.023.893,0,.202-.017.247-.084.204-.276-.029-.128-.07-.254-.097-.381ZM43.032,6.104c-.017.001-.034,0-.102,0,.016.001-.019.002-.053-.004-.058-.011-.098-.05-.09-.108.03-.223.069-.444.143-.658.009-.025.029-.048.056-.042.022.005.052.023.058.042.062.198.108.401.131.607.014.124-.017.153-.142.162Z"/>
      <path class="st0" d="M47.733,7.164c.343.341.705.658,1.11.922.378.246.795.358,1.332.341.17.009.421-.017.66-.119.121-.051.247-.094.362-.155.416-.221.755-.524.877-.996.139-.538.082-1.061-.214-1.543-.134-.219-.304-.406-.508-.562-.335-.256-.685-.487-1.072-.659-.205-.091-.362-.243-.493-.423-.06-.084-.087-.175-.051-.273.065-.175.251-.336.48-.238.13.056.253.121.369.2.254.172.499.356.738.549.136.11.157.107.288-.016.134-.126.265-.255.396-.385.162-.161.324-.321.48-.486.093-.098.088-.149-.002-.247-.018-.019-.037-.038-.057-.054-.316-.265-.627-.534-.948-.792-.533-.429-1.133-.547-1.803-.412-.547.109-.998.376-1.379.764-.265.27-.424.608-.423.992.002.648.239,1.194.765,1.596.335.256.68.495,1.042.709.197.117.375.258.528.43.058.066.113.135.145.218.077.201-.051.378-.264.366-.116-.007-.22-.053-.322-.105-.309-.154-.567-.38-.837-.588-.083-.064-.164-.132-.251-.191-.087-.058-.135-.051-.212.015-.033.028-.063.061-.093.092-.191.205-.381.411-.571.617-.048.051-.094.105-.135.162-.058.08-.053.134.011.213.016.021.035.039.054.057Z"/>
      <path class="st0" d="M55.799,8.274c.028-.11.052-.221.081-.332.022-.083.07-.142.164-.141.342.004.683.009,1.025.015.089.001.148.048.173.134.024.084.051.167.067.253.023.121.087.184.213.19.096.004.192.021.288.028.298.019.596.023.893,0,.202-.017.247-.084.204-.276-.029-.128-.07-.254-.097-.381-.184-.865-.355-1.732-.549-2.595-.242-1.076-.503-2.147-.755-3.221-.043-.182-.074-.216-.267-.222-.225-.007-.46-.017-.683-.003-.007,0-.014,0-.02.001-.214.016-.423-.009-.637-.003-.238.007-.265.035-.311.265-.026.128-.053.257-.086.384-.244.949-.473,1.903-.675,2.862-.207.985-.385,1.976-.637,2.951-.051.196-.005.244.199.271.403.052.805,0,1.207-.016.114-.005.179-.059.207-.165ZM56.506,5.335c.009-.025.029-.048.056-.042.022.005.052.023.058.042.062.198.108.401.131.607.014.124-.017.153-.142.162-.017.001-.034,0-.102,0,.016.001-.019.002-.053-.004-.058-.011-.098-.05-.09-.108.03-.223.069-.444.143-.658Z"/>
      <path class="st0" d="M24.853,14.012c.001-.45-.079-.886-.197-1.319-.117-.429-.401-.73-.743-.987-.048-.036-.107-.062-.165-.079-.235-.069-.471-.127-.721-.125-.709.005-1.418.004-2.127.034-.312.013-.323.023-.323.334,0,.972,0,1.944,0,2.915,0,.963,0,1.926,0,2.889,0,.044,0,.088.001.131.008.157.047.203.197.224.043.006.087.006.131.006.709.004,1.418.008,2.127.011.079,0,.158,0,.236-.009.226-.028.46-.059.647-.194.362-.261.647-.587.757-1.039.104-.426.184-.854.18-1.295-.005-.499-.002-.998,0-1.497ZM23.245,15.989c-.064.279-.305.46-.588.461-.157,0-.315,0-.472-.01-.103-.006-.141-.044-.156-.143-.01-.069-.012-.14-.012-.21,0-.454,0-.909,0-1.364h0v-1.364c0-.269.032-.305.293-.315.149-.006.296.001.441.044.226.067.38.21.465.427.058.147.094.301.094.46.001.516.001,1.032.003,1.548,0,.159-.035.314-.07.466Z"/>
      <path class="st0" d="M31.588,16.456c-.359-.001-.72-.011-1.077.014-.342.024-.683.033-1.024.034-.061,0-.123,0-.183-.01-.101-.015-.138-.051-.141-.156-.007-.21-.009-.42-.007-.63,0-.09.036-.118.132-.129.035-.005.07-.003.105-.005.27-.019.541-.038.812-.059.043-.003.086-.017.128-.026.088-.019.137-.072.139-.165.007-.333.014-.665.021-.999,0-.017-.001-.035-.004-.052-.018-.13-.056-.172-.183-.178-.131-.006-.263,0-.394-.001-.193-.002-.386-.003-.578-.013-.106-.006-.147-.044-.157-.142-.021-.219-.022-.437-.006-.657.006-.079.049-.131.13-.142.06-.009.122-.014.183-.015.245-.005.491-.01.736-.011.438-.003.876-.003,1.314-.008.168-.002.2-.034.202-.202.004-.429.006-.858.003-1.288-.001-.183-.032-.21-.219-.215-.193-.005-.386.004-.578,0-.447-.009-.894-.027-1.34.006-.298,0-.596.004-.894-.001-.343-.006-.682.03-1.024.044-.026,0-.053,0-.079.005-.089.014-.126.046-.136.132-.007.061-.006.122-.006.184,0,.271,0,.543-.002.815-.009.946-.007,1.892-.034,2.837-.014.5.045.997.02,1.497-.016.323.004.648.013.972.004.157.031.18.186.189.63.037,1.261.017,1.89.062.656.048,1.313-.041,1.97-.021.035,0,.07,0,.105-.005.131-.016.173-.051.174-.183.003-.43.003-.859-.004-1.289-.002-.148-.045-.19-.191-.19Z"/>
      <path class="st0" d="M38.499,16.453c-.42,0-.841-.019-1.261.026-.315.034-.63.025-.946.02-.173-.004-.208-.046-.222-.224-.006-.07-.003-.14-.006-.21-.022-.706-.008-1.419.004-2.129.008-.44.014-.878.012-1.314-.002-.342-.007-.683-.017-1.025-.005-.165-.041-.195-.206-.206-.035-.003-.07-.003-.105-.002-.386.006-.771.012-1.156.022-.192.005-.221.036-.23.235-.004.097-.003.193-.004.289,0,.438,0,.876-.002,1.314-.003,1.192-.006,2.383-.008,3.575,0,.341.004.683.009,1.025.003.205.031.237.221.242.604.016,1.208.016,1.812.054.673.042,1.347-.035,2.021-.003.026.001.053,0,.079-.004.152-.017.206-.062.207-.216.004-.429,0-.859-.007-1.288-.003-.146-.043-.182-.198-.182Z"/>
      <path class="st0" d="M24.405,21.031c-.148-.018-.297-.03-.445-.032-.543-.005-1.087-.003-1.63-.006-.534-.002-1.069-.006-1.603-.008-.061,0-.123,0-.184.006-.098.011-.136.054-.143.154-.003.035.001.07.002.105.006.263.016.526.019.788.004.387.007.392.398.396.219.003.438,0,.657.01.137.006.169.043.177.177.015.244.034.49.036.735.005.579.009,1.157.012,1.735.003.665.005,1.331.005,1.998,0,.079,0,.158.008.236.013.111.055.15.169.165.052.007.105.007.157.007.28-.003.561-.006.841-.01.07,0,.14,0,.21-.006.141-.012.183-.052.194-.196.007-.096.005-.193-.002-.289-.025-.35-.023-.7,0-1.051.014-.218.013-.437-.004-.656-.01-.122-.01-.245-.004-.368.027-.517.028-1.033-.002-1.55-.013-.227-.011-.456-.003-.683.007-.196.04-.223.235-.239.052-.004.105-.003.158-.005.236-.006.473-.01.709-.02.134-.006.174-.042.186-.171.031-.35.013-.7.004-1.051-.003-.121-.041-.159-.157-.173Z"/>
      <path class="st0" d="M30.628,21.603c-.573-.626-1.286-.815-2.1-.677-.602.102-1.028.472-1.343.969-.349.552-.518,1.163-.514,1.819.002.386,0,.771.003,1.156.002.299.05.593.134.879.156.533.454.98.845,1.37.225.225.497.353.802.422.215.049.432.061.652.056.784-.019,1.343-.42,1.726-1.068.284-.48.427-1.012.439-1.577.005-.236,0-.472.002-.709,0-.079-.003-.158,0-.236.022-.502-.028-.996-.171-1.479-.1-.338-.23-.658-.475-.925ZM29.672,25.229c-.022.149-.059.294-.127.426-.113.22-.274.393-.543.396-.269.003-.435-.166-.552-.384-.074-.138-.12-.29-.136-.449-.067-.647-.069-1.295.012-1.94.03-.235.098-.462.264-.647.246-.275.574-.271.817.008.162.187.221.415.257.65.021.139.04.278.045.418.008.21.002.42.002.63,0,.297.006.596-.038.892Z"/>
      <path class="st0" d="M37.283,21.031c-.148-.018-.297-.03-.445-.032-.543-.005-1.087-.003-1.63-.006-.534-.002-1.069-.006-1.603-.008-.061,0-.123,0-.184.006-.098.011-.136.054-.143.154-.003.035.001.07.002.105.006.263.016.526.019.788.004.387.007.392.398.396.219.003.438,0,.657.01.137.006.169.043.177.177.015.244.034.49.036.735.005.579.009,1.157.012,1.735.003.665.005,1.331.005,1.998,0,.079,0,.158.009.236.013.111.055.15.169.165.052.007.105.007.157.007.28-.003.561-.006.841-.01.07,0,.14,0,.21-.006.141-.012.184-.052.194-.196.007-.096.005-.193-.002-.289-.025-.35-.023-.7,0-1.051.014-.218.013-.437-.004-.656-.01-.122-.01-.245-.004-.368.027-.517.028-1.033-.002-1.55-.013-.227-.011-.456-.003-.683.007-.196.04-.223.235-.239.052-.004.105-.003.158-.005.236-.006.473-.01.709-.02.134-.006.174-.042.186-.171.031-.35.013-.7.004-1.051-.003-.121-.041-.159-.157-.173Z"/>
      <path class="st0" d="M44.414,21.118c-.012-.084-.05-.123-.137-.134-.061-.007-.122-.007-.184-.007-.333,0-.666.003-.998.005-.044,0-.088-.001-.131.004-.087.01-.122.047-.135.133-.004.026-.004.052-.005.079-.005.472-.023.946-.011,1.418.019.735.011,1.471.009,2.206,0,.151-.03.296-.057.442-.026.14-.095.263-.193.367-.222.234-.551.26-.806.064-.137-.105-.235-.237-.259-.411-.015-.104-.026-.209-.026-.313-.002-.375-.002-.751-.002-1.126,0-.228-.006-.458-.004-.687.001-.123.004-.245.012-.368.033-.534-.006-1.068-.01-1.602-.001-.164-.036-.202-.173-.204-.412-.006-.823-.007-1.235-.004-.16.002-.206.047-.2.209.016.491-.024.98-.031,1.47-.009.735.003,1.47.039,2.205.035.729.269,1.368.731,1.925.185.224.385.434.664.544.569.224,1.143.227,1.717.018.14-.051.267-.131.382-.228.443-.372.727-.848.892-1.396.114-.38.146-.776.151-1.168.014-1.112.006-2.224.006-3.336,0-.035,0-.07-.004-.105Z"/>
      <path class="st0" d="M53.107,21.216c.005-.142-.037-.196-.182-.197-.412-.005-.824,0-1.236.001-.098,0-.167.047-.215.127-.027.045-.051.092-.073.14-.25.569-.497,1.14-.749,1.708-.131.296-.272.588-.411.881-.021.044-.036.106-.103.103-.064-.003-.077-.064-.103-.107-.018-.03-.031-.063-.046-.095-.305-.63-.609-1.262-.917-1.891-.096-.197-.206-.387-.303-.583-.067-.134-.166-.187-.315-.187-.359.003-.718-.007-1.078-.011-.07,0-.141,0-.21.009-.13.015-.166.053-.168.187-.003.21.001.421.002.631,0,.78,0,1.56,0,2.34-.009.972.064,1.944.035,2.917-.001.043.004.087.011.131.011.067.052.111.12.121.052.008.104.01.157.013.333.018.666.005.999-.008.186-.007.213-.037.224-.214.002-.035.002-.07.002-.106.006-.63.013-1.261.02-1.892,0-.052.001-.105.007-.157.004-.034.009-.074.049-.086.042-.013.062.02.079.05.017.03.031.062.045.094.116.264.233.529.348.794.06.136.119.273.175.411.044.108.119.167.238.176.367.025.734.047,1.103.024.177-.011.284-.088.347-.262.085-.23.176-.458.269-.685.084-.205.152-.448.272-.634.014-.021.035-.045.06-.039.026.007.033.04.035.066.049.701.043,1.405.043,2.108.002.216.028.239.241.254.298.02.596.026.893.012.273-.013.292-.037.294-.313.005-.675.009-1.349.017-2.024.005-.412.032-.823.038-1.234.012-.858-.042-1.716-.012-2.574Z"/>
      <path class="st0" d="M61.514,21.649c-.081-.224-.21-.388-.376-.504-.006,0-.013-.002-.012-.01,0-.013.009-.009.015-.007.072-.002.144-.003.215-.006.048-.002.075-.039.074-.1,0-.061-.026-.093-.077-.095-.008,0-.017,0-.025,0-.011.013-.022.013-.033,0-.164,0-.326.021-.485.068-.009-.021-.006-.039-.005-.057.005-.108.01-.217.014-.325.009-.229-.011-.454-.046-.679-.09-.57-.264-1.088-.544-1.542-.057-.093-.117-.184-.188-.261-.047-.051-.096-.098-.155-.123-.076-.033-.147-.018-.212.044-.051.049-.089.115-.12.185-.137.301-.182.627-.143.971.029.257.101.496.204.718.231.499.547.878.947,1.14.012.008.027.011.036.03-.03.023-.06.044-.09.068-.097.078-.185.171-.267.275-.024.03-.024.029-.05.005-.032-.029-.063-.059-.096-.086-.258-.22-.541-.362-.838-.464-.325-.111-.657-.167-.992-.193-.145-.011-.291-.01-.436.006-.161.017-.319.05-.475.1-.342.109-.644.314-.896.641-.007.009-.011.022-.018.031-.12.125-.233.261-.33.414-.219.345-.358.716-.437,1.103-.025.072-.056.14-.081.212-.098.291-.164.595-.209.907-.029.203-.051.406-.068.611-.015.173-.024.346-.029.519-.003.094,0,.188.005.282.006.156.022.309.048.461.072.423.233.782.459,1.096.199.277.431.499.687.678.442.309.915.472,1.413.514.137.012.274.016.411.006.129-.009.257-.022.385-.046.264-.049.521-.134.766-.275.187-.107.358-.246.505-.432.143-.181.256-.39.347-.619.165-.413.294-.846.394-1.294.058-.259.104-.521.137-.787.021-.171.04-.343.059-.515.018-.165.031-.33.037-.496.006-.179.007-.358-.004-.537-.011-.172-.03-.341-.062-.508-.067-.347-.183-.663-.36-.938-.048-.075-.101-.144-.155-.212-.024-.031-.025-.032,0-.063.025-.031.051-.061.078-.09.124-.135.261-.238.419-.288.035-.011.071-.025.11-.026,0,.028-.001.051-.003.074-.007.099-.01.198.002.298.03.252.102.48.23.675.033.05.07.094.116.121.06.036.109.024.155-.036.035-.046.057-.103.073-.162.046-.164.032-.324-.023-.479Z"/>
    </g>
    <g>
      <path class="st0" d="M203.72,3.252c.006.035.012.074.019.117v.311c-.006.034-.013.066-.019.097-.041.619-.688,1.188-1.292,1.243-1.377.124-2.164-1.527-1.234-2.535.814-.882,2.405-.418,2.526.768ZM202.142,2.228c-.891.091-1.397,1.075-1.01,1.872.435.896,1.71.959,2.221.097.538-.907-.148-2.078-1.212-1.969Z"/>
      <path class="st0" d="M203.739,3.368c-.035-.022-.016-.08-.019-.117h.019v.117Z"/>
      <path class="st0" d="M203.739,3.776h-.019c.002-.031-.013-.08.019-.097v.097Z"/>
      <g>
        <path class="st0" d="M185.191,13.912c-.012-.015-.028-.101-.047-.138-.837-1.715-1.745-3.397-2.578-5.115-.627-1.292-1.197-2.614-1.825-3.905-.011-.023-.041-.118-.071-.103-.017.008-.067.092-.078.117-.097.213-.014.568-.009.805.014.583-.01,1.167-.002,1.75.018,1.255.102,2.554.06,3.808-.019.585-.259,1.746.271,2.137.173.128.398.026.579.101.189.079-.001.439-.046.57l-2.259.113c-.08-.193-.019-.335.095-.493.021-.028.178-.207.194-.214.127-.053.28.053.392-.152.074-.135.104-.539.112-.704.038-.775-.02-1.56-.039-2.33-.049-1.93-.032-3.862-.076-5.791-.002-.089-.05-.233-.01-.319.016-.036.103-.088.102-.142,0-.042-.06-.187-.071-.258-.07-.447.119-1.255-.557-1.289-.066-.003-.18.035-.214,0-.047-.048-.094-.663-.067-.7.336.198.705.022,1.059,0,.366-.022.724.061,1.08.129l.967,1.865c.108.245.267.838.494.963.03.016.073.005.093.028.089.096.111.477.189.623.031.059.156.159.156.171,0,.01-.039.028-.033.073.011.087.233.549.285.669.358.81.813,1.591,1.145,2.41.086.213.142.444.247.646.035-.306.042-.616.068-.923.05-.587.094-1.094.078-1.691-.033-1.24-.097-2.484-.079-3.729-.029-.226-.127-.48-.372-.541-.125-.031-.305.007-.405-.1-.011-.012-.123-.173-.127-.184-.037-.116.015-.338.107-.419.069-.061.314.007.417.011.585.024,1.136-.1,1.724.024.041.009.241.049.248.083-.103.206-.255.429-.437.572-.22.171-.234.053-.319.381-.157.604.011,1.06,0,1.651-.042,2.069-.188,4.124-.157,6.197.014.926.086,1.852.118,2.776.003.092.012.541-.019.585-.058.082-.331.051-.385-.016Z"/>
        <path class="st0" d="M192.892,2.753c-.12-.119-.648-.341-.819-.356-.081-.007-.36-.008-.379.087-.007.408-.007.817-.018,1.225-.044,1.56-.08,3.117-.097,4.682-.012,1.086-.058,2.196-.021,3.283.012.351.032.714.161,1.044.09.229.238.396.398.578.223.022.5-.03.716-.001.199.026.21.432.203.584-.321-.02-.647.116-.961.137-.269.017-.601-.035-.874-.041-.338-.006-.677.019-1.01.021-.489.002-.979-.003-1.468,0l.077-.087c-.152-.146-.428-.149-.242-.436.272-.417.981-.017,1.178-.512.019-.047.033-.159.038-.166.021-.025.19-.004.201-.186.008-.129-.045-.202-.004-.364.021-.083.108-.189.112-.22.012-.086-.051-.388-.059-.504-.022-.337-.023-.674-.038-1.011-.124-2.677-.172-5.353-.137-8.041-.079-.167-.25-.18-.415-.163-.364.037-.993.455-1.166.776-.064.119-.022.095-.033.181-.026.202-.11.397-.093.603.003.034.033.079.031.099-.002.019-.051.05-.067.082-.07.141-.038.381-.064.538-.016.095-.068.187-.076.293-.023.322.186,1.015-.168,1.211-.38.211-.422-.28-.435-.531-.02-.368,0-.743.002-1.107.003-.905.025-1.804.04-2.709.273-.075.549-.045.824-.06.489-.026.986-.084,1.476-.06.185.009.391.053.581.06.601.024,1.22-.063,1.828-.06.457.002,1.156-.024,1.587.045.066.011.255.037.268.101.009.199.007.404.019.602.048.756.101,1.414.096,2.175-.002.367.085,1.135-.043,1.434-.146.343-.476.373-.585-.028-.222-.821-.021-1.662-.271-2.526-.041-.143-.197-.574-.292-.669Z"/>
      </g>
      <path class="st0" d="M166.747,22.656c.03-.019.136-.608.152-.693.178-.963.265-1.945.478-2.902.16-.716.398-1.43.575-2.144.082-.332.156-.664.225-.999.039-.046.279.016.35.019.493.021.938-.182,1.447-.029.047.014.203.074.223.108.017.029.057.208.047.239-.021.064-.23.044-.319.206-.234.427-.308,1.831-.339,2.361-.139,2.434-.116,5.004,0,7.44.016.329.001.745.063,1.064.057.293.451.147.511.267v.447c-.023.039-.22.068-.275.075-.755.104-1.568.027-2.33.071-.221-.043-.262-.425-.108-.546.065-.051.29-.046.42-.124.263-.157.167-.389.164-.631-.025-1.904.032-3.812-.018-5.713-.061-.261.013-.662-.063-.908-.023-.074-.133-.123-.201-.074-.054.039-.119.412-.138.503-.322,1.519-.531,3.082-.809,4.611-.086.477-.165,1.025-.279,1.489-.021.085-.113.381-.16.437-.017.02-.152.049-.186.052-.249.02-.354-.132-.437-.339-.287-.711-.427-1.655-.576-2.415-.273-1.388-.493-2.789-.782-4.172-.055-.024-.136-.002-.162.054-.011.136-.026.276-.035.412-.109,1.772-.143,3.569-.058,5.343.018.38.011.901.142,1.257.102.277.397.137.594.296-.1.201-.033.4-.319.4-.14,0-.282-.01-.427,0-.405.054-.807.122-1.216.069-.166-.495.503-.596.671-.867.07-.113.042-.43.049-.573.048-1.097.011-2.204,0-3.301-.018-1.829-.047-3.654-.096-5.48-.004-.161-.039-.337-.02-.504.017-.156.075-.239.059-.428-.015-.178-.165-.483-.32-.574-.064-.037-.082.002-.137.002-.127,0-.261-.191-.376-.237.042-.122.008-.363.067-.461.082-.137.183.012.286.06.72.335,2.093-.283,2.247.861.025.185-.015.365.005.539.068.586.264,1.33.39,1.922.208.981.455,2.425.834,3.323.027.065.091.247.187.186Z"/>
      <g>
        <g>
          <path class="st0" d="M176.346,28.273c-.035.016-.082.015-.117,0-.069.016-.144.016-.214,0-.033.015-.083.016-.117,0-.096.008-.415.019-.48-.05-.078-.083-.072-.535-.023-.63.009-.018.019-.032.038-.039.227-.038.466-.234.436-.477.185-.323.047-.8-.077-1.133-.17-.458-.36-.921-.556-1.372-.001-.002-.04-.026-.043-.027-.5-.089-1.008-.176-1.514-.213-.049-.008-.443.027-.451.049-.336.935-.742,2.191-.332,3.136l.297.072c.064.018.089.065.091.128-.002.173-.022.354-.051.521-.495.035-.995.042-1.492.034-.083.016-.17.016-.253,0-.082.005-.166.012-.253.019h-.097c-.002-.21.003-.462.196-.591.068-.045.138-.048.207-.085.097-.051.376-.303.441-.394.133-.184.192-.946.251-1.226.19-.908.442-1.793.61-2.712.189-1.042.299-2.099.517-3.135.12-.57.221-1.034.308-1.616.089-.599.254-1.157.396-1.741.099-.408.084-1.028.675-.947.054.007.279.069.304.104.6,1.735.843,3.566,1.255,5.35.437,1.892.965,3.764,1.419,5.652.144.394.445.421.734.626.266.188.135.356-.039.557-.691-.062-1.377.108-2.065.139ZM174.268,19.803h-.097c-.206,1.289-.487,2.57-.835,3.827.577-.163,1.206.209,1.769-.013.004-.211-.022-.423-.069-.628-.055-.24-.271-.666-.238-.879.01-.062.099-.237.09-.272-.012-.049-.1-.072-.123-.112-.052-.089-.071-.321-.126-.437-.026-.055-.119-.143-.127-.181-.007-.033.016-.097.01-.148-.049-.405-.355-.736-.253-1.156Z"/>
          <path class="st0" d="M171.49,28.273c.017.006.017.012,0,.019h-.253c.065-.036.173-.019.253-.019Z"/>
          <path class="st0" d="M171.742,28.273v.019h-.253v-.019c.084,0,.169.002.253,0Z"/>
          <path class="st0" d="M176.23,28.273c.017.006.017.012,0,.019h-.214c-.017-.006-.017-.012,0-.019.071.002.143.002.214,0Z"/>
        </g>
        <path class="st0" d="M170.868,13.79c.01-.073.079-.222.135-.273.074-.067.173-.075.252-.118.1-.054.381-.295.449-.387.137-.186.183-.886.239-1.159.185-.902.441-1.785.61-2.693.212-1.139.332-2.294.575-3.426.107-.5.192-.892.268-1.402.093-.622.249-1.174.396-1.78.064-.263.084-.649.252-.855.211-.26.467-.142.739-.058.639,1.852.89,3.809,1.34,5.712.426,1.799.92,3.585,1.361,5.38.069.171.182.302.334.405.144.097.569.237.559.434-.004.082-.136.332-.214.347-.066.013-.255-.022-.35-.02-.759.012-1.506.208-2.272.156-.064-.004-.284-.032-.329-.06-.12-.076-.037-.487-.029-.617.164.007.457-.234.48-.386.006-.041-.017-.073-.013-.108.012-.096.107-.2.109-.373.008-.694-.529-1.538-.738-2.191l-.068-.048c-.67-.065-1.349-.328-2.021-.155-.261.82-.574,1.693-.51,2.57.008.117.101.563.185.631.058.047.278.081.36.096v.583l-2.098.078c.008-.089-.012-.195,0-.282ZM174.015,5.544l-.098.012c-.235,1.281-.476,2.569-.854,3.814.491-.122.999.111,1.486.078.056-.004.266-.034.292-.077.056-.093-.058-.632-.093-.762-.06-.224-.234-.54-.203-.758.01-.068.098-.24.09-.273-.01-.04-.096-.063-.123-.112-.059-.108-.074-.333-.132-.451-.023-.048-.115-.119-.128-.164-.021-.073.002-.204-.013-.298-.05-.324-.365-.656-.224-1.009Z"/>
      </g>
      <path class="st0" d="M185.094,16.339c.038.03.11.032.16.064.054.035.231.224.281.283,1.098,1.291.815,3.707-.457,4.787-.198.169-.44.292-.631.467.206.089.422.156.584.32.773.781.79,3.15.954,4.233.051.339.093.692.327.955.103.116.412.317.409.465,0,.025-.041.235-.048.245-.015.021-.037.017-.058.02-.091.011-.56.012-.633-.01-.121-.036-.484-.223-.542-.334-.019-.036.005-.065-.02-.093-.101-.109-.283-.105-.385-.296s-.182-.685-.228-.918c-.195-.986-.335-1.894-.579-2.879-.052-.209-.096-.628-.174-.798-.021-.047-.307-.326-.364-.374-.577-.486-1.197-.213-1.865-.184-.004.165.006.331,0,.496-.025.822-.023,1.643,0,2.466.022.779.048,1.558.178,2.328.053.15.546.047.702.133.098.055.223.318.159.407-.028.039-.681.094-.778.116h-2.614c-.051-.133.138-.188.153-.248.014-.057-.065-.076-.056-.112.008-.033.455-.334.535-.418.408-.432.076-.625.089-1.057.003-.083.065-.165.086-.244.093-.349.059-.831.067-1.196.048-2.131-.098-4.261-.057-6.39.013-.65.027-1.332-.244-1.933-.045-.054-.527-.105-.635-.142-.22-.076-.278-.455-.306-.655.018-.025.415-.075.476-.078.636-.038,1.217.004,1.845.039.92.052,2.909-.213,3.593.429.028.026.053.091.076.109ZM181.903,16.695v4.74h1.486c.023,0,.231-.14.224-.194.069-.01.034.084.097.049.059-.032.264-.273.32-.34.039-.046.256-.312.258-.343.003-.032-.034-.058-.031-.108.005-.096.096-.323.123-.442.184-.842.135-1.681-.121-2.502-.03-.098-.09-.306-.141-.384-.041-.063-.365-.36-.438-.417-.442-.344-1.263-.04-1.777-.059Z"/>
      <g>
        <path class="st0" d="M196.687,13.955l-2.098.078c-.008-.236.007-.505.245-.62.055-.026.11-.029.17-.063.088-.051.371-.304.429-.387.133-.189.191-.943.25-1.226.175-.836.411-1.657.571-2.499.228-1.203.36-2.422.614-3.621.118-.556.201-1.013.289-1.576.075-.485.221-.955.337-1.431.063-.258.105-.714.246-.92.197-.289.487-.187.764-.091.641,1.845.891,3.796,1.34,5.692.429,1.809.922,3.606,1.37,5.41.136.345.371.4.655.569.197.118.299.182.178.417-.144.28-.213.164-.473.168-.767.012-1.547.235-2.311.156-.07-.007-.279-.029-.329-.06-.117-.074-.026-.49-.03-.619.18.013.467-.243.495-.407.006-.033-.029-.054-.026-.086.002-.019.07-.132.084-.187.077-.293-.063-.74-.16-1.026-.158-.466-.394-.902-.549-1.37-.013-.022-.05-.022-.074-.027-.512-.104-1.336-.264-1.838-.198-.057.007-.146.01-.176.057-.266.791-.578,1.687-.517,2.535.009.125.102.589.196.659.054.04.272.074.349.088v.583ZM197.736,5.505h-.096c-.234,1.286-.473,2.579-.856,3.827.594-.144,1.207.219,1.788.007.012-.271-.039-.539-.112-.799-.059-.211-.228-.522-.195-.728.01-.062.099-.237.09-.272-.012-.049-.1-.072-.123-.112-.054-.094-.071-.33-.132-.451-.023-.046-.123-.14-.128-.164-.01-.042.005-.216-.016-.314-.069-.329-.345-.64-.221-.994Z"/>
        <path class="st0" d="M200.014,28.132c-.092-.079-.008-.464-.021-.585.014-.041.132-.051.18-.073.103-.047.31-.247.319-.361.003-.032-.033-.055-.026-.086.01-.05.088-.122.103-.227.101-.705-.516-1.657-.717-2.323-.017-.034-.056-.039-.089-.047-.31-.069-.749-.14-1.066-.177-.142-.017-.837-.056-.916.021-.013.013-.105.287-.121.335-.239.699-.499,1.693-.363,2.422.017.091.092.397.163.44.063.038.337.067.353.113l-.017.551-2.079.078c-.012-.236.008-.505.245-.62.055-.026.109-.03.169-.064.091-.051.37-.301.43-.386.122-.174.176-.885.231-1.149.173-.836.41-1.658.571-2.499.23-1.208.361-2.434.618-3.637.109-.51.189-.903.265-1.425.115-.789.371-1.548.526-2.329.168-.436.458-.39.841-.248.622,1.802.87,3.704,1.301,5.556.423,1.817.933,3.616,1.369,5.43.049.143.138.272.253.369.151.127.539.261.623.407.06.105-.064.35-.147.418-.058.048-.157.001-.232,0-.79-.017-1.59.209-2.39.156-.051-.003-.354-.046-.374-.063ZM198.843,19.745h-.096c-.154.885-.328,1.769-.535,2.642-.093.392-.181.788-.321,1.165.505-.131,1.016.099,1.526.059.073-.006.214-.019.242-.088.047-.114-.019-.46-.049-.593-.057-.259-.276-.686-.238-.918.01-.061.096-.22.089-.255s-.094-.065-.121-.111c-.058-.096-.077-.323-.137-.446-.025-.051-.116-.14-.124-.169-.011-.043.006-.211-.011-.298-.063-.323-.349-.641-.225-.99Z"/>
      </g>
      <path class="st0" d="M202.602,2.649c.335.045.488.517.279.764-.034.04-.091.058-.114.109.336.131.085.611.272.855h-.282c-.068,0-.066-.522-.097-.603-.013-.034-.086-.116-.117-.116h-.612v.719h-.272v-1.729c.293.029.658-.038.942,0ZM201.932,3.407h.495c.03,0,.164-.039.192-.061.095-.074.103-.321.011-.394-.012-.01-.099-.05-.106-.05h-.593v.505Z"/>
      <path class="st0" d="M194.589,17.53c.024.032-.191.404-.234.456-.197.241-.291.251-.455-.011-.142-.229-.195-.487-.299-.73-.233-.543-.589-.94-1.003-1.347-.179-.176-.21-.259-.466-.349-.189-.067-.692-.223-.876-.251-.332-.051-.631.123-.843.359-.45.498-.767.943-.777,1.631-.007.497-.018,1.001-.021,1.496-.004.774-.015,1.484.146,2.245.358,1.693.899,3.741,1.867,5.185.246.367.789.831,1.199.996.378.152.545.027.866-.17,1.491-.916,1.305-2.278,1.225-3.805-.008-.158.007-.166.151-.22.227-.086.512-.12.627.141.131.294,0,.544-.021.835-.035.492.177,1.15-.028,1.603-.102.225-.128.319-.204.554-.328,1.02-.716,1.745-1.826,2.001-2.006.462-3.704-.855-4.391-2.661-.017-.043-.069-.251-.08-.26-.019-.015-.163.008-.188-.074-.016-.052.002-.131-.004-.19-.014-.137-.069-.144-.12-.249-.079-.163-.148-.391-.211-.567-.874-2.447-1.566-5.642-.197-8.027.562-.979,1.102-1.362,2.231-1.538.271-.042.807-.127,1.063-.113.334.019.816.581,1.145.552.332-.029.415-.697.589-.906.176.021.475.354.49.516.003.031-.064.072-.081.126-.065.21.134,1.077.191,1.337.069.317.237,1.175.437,1.389.034.036.094.044.098.048Z"/>
      <g>
        <path class="st0" d="M166.302,1.426c.017.006.017.012,0,.019-.071.053-.162.053-.233,0-.017-.006-.017-.012,0-.019h.233Z"/>
        <path class="st0" d="M166.069,1.426v.019c-.025.055-.072.054-.097,0-.017-.006-.017-.012,0-.019h.097Z"/>
        <path class="st0" d="M166.458,1.426v.019c-.015.054-.063.055-.078,0-.017-.006-.017-.012,0-.019h.078Z"/>
        <path class="st0" d="M166.38,1.426v.019c-.019.054-.059.054-.078,0v-.019h.078Z"/>
        <path class="st0" d="M165.972,1.426v.019c-.016.056-.03.047-.058,0v-.019h.058Z"/>
        <path class="st0" d="M165.914,1.445c.019-.001.039.001.058,0,.032-.002.065.001.097,0,.077-.003.156-.002.233,0,.026,0,.052-.001.078,0s.052-.002.078,0c.354.024.741.137,1.073.257.257.093.852.411,1.074.423.276.014.034-.386.183-.477.042-.025.402-.014.454.013.196.1.28.749.303.959.073.653.076,1.421.04,2.079-.01.171-.019.503-.094.644-.14.262-.379.185-.625.141-.007-.096.069-.159.057-.26-.01-.084-.072-.232-.091-.338-.065-.359-.039-.72-.177-1.066-.028-.07-.122-.202-.135-.254-.014-.056,0-.107-.02-.174-.027-.088-.285-.399-.363-.452-.049-.033-.119-.046-.172-.081-.148-.099-.315-.252-.466-.33-.146-.075-.264-.123-.415-.207-.421-.232-.773-.116-1.206.01-.515.151-.787.247-1.031.756-.053.111-.333.757-.329.827.01.163.126.336.039.496-.021.039-.09.09-.093.112-.004.028.03.148.042.185.123.384.754,1.015,1.091,1.241.446.298.886.371,1.371.552.633.237,1.651.961,2.051,1.504.475.646.965,1.849.895,2.655-.023.264-.209.576-.036.808-.21-.011-.063.237-.1.338-.011.032-.063.028-.093.063-.038.045-.073.177-.108.241-.26.476-.604.903-1.001,1.272-.105.098-.318.297-.433.363-.185.107-.713.288-.932.351-.997.285-2.085-.166-2.871-.773l-.078.03c.016-.135-.131-.427-.282-.42-.029.001-.192.114-.201.142-.027.087.055.122.055.132,0,.005-.045.04-.055.061-.081.159-.054.285-.085.44-.039.193-.34.224-.501.208-.017-.173.024-.344.02-.516-.004-.214-.052-.459-.06-.678-.036-.984.122-1.983-.136-2.953.012-.153.362-.442.495-.436.072.003.231.101.259.169.037.091-.011.182-.014.267-.021.573.311,1.293.46,1.851.041.155.048.231.107.379.04.101.004.201.151.15-.025.29.284.426.467.592.032.029.055.091.085.109.043.026.124.023.186.047.323.126.496.301.871.372.499.095.843.137,1.284-.141,1.069-.674,1.873-2.203.818-3.263-.114-.114-.33-.213-.404-.286-.021-.02-.043-.1-.067-.137-.108-.158-.221-.287-.378-.399-.069-.049-.545-.35-.59-.363-.038-.011-.069.014-.105.011-.169-.014-.378-.199-.535-.263-.178-.073-.318-.098-.506-.194-1.764-.903-2.39-2.108-2.273-4.1.011-.181.108-.789.199-.927.043-.066.214-.148.239-.189.021-.035-.009-.071.004-.111.145-.433.695-.927,1.092-1.143.305-.166.702-.295,1.049-.32Z"/>
      </g>
    </g>
    <g>
      <path class="st0" d="M303.756,30.098h-.171c-.127,0-.237.043-.328.129-.117.11-.176.269-.176.476,0,.303.095.495.284.576.06.026.131.039.215.039.117,0,.259-.043.424-.129l.13-.07s.015-.005.033-.005.045.021.079.063c.034.042.051.077.051.104s-.007.046-.02.056c-.234.156-.483.234-.748.234s-.469-.078-.611-.233c-.142-.155-.213-.365-.213-.63s.086-.47.258-.618.391-.221.659-.221.454.053.56.16c.04.041.061.093.061.155s-.025.115-.073.158c-.049.043-.108.065-.178.065s-.129-.021-.178-.063-.073-.084-.073-.125.005-.082.016-.121"/>
      <path class="st0" d="M306.643,31.565c-.036,0-.042,0-.072,0-.095,0-.114,0-.127-.004-.015-.004-.031-.017-.049-.031-.018-.014-.038-.05-.061-.106-.149.097-.324.146-.523.146s-.351-.043-.456-.129c-.105-.086-.157-.196-.157-.33,0-.17.065-.299.194-.388.13-.088.285-.133.466-.133h.453c0-.182-.017-.3-.05-.352-.034-.053-.074-.089-.121-.11-.047-.02-.11-.03-.188-.03h-.187c.015.028.022.068.022.119s-.024.098-.071.141c-.048.043-.108.064-.18.065-.114,0-.191-.045-.233-.134-.012-.027-.018-.061-.018-.1,0-.079.046-.146.139-.203.135-.08.342-.119.624-.119.224,0,.389.061.495.182.084.097.127.234.127.412v.846s0,.258-.027.258M305.861,31.318c.154,0,.305-.055.451-.164v-.319h-.374c-.116,0-.197.015-.242.044-.084.052-.127.113-.127.182,0,.129.06.209.18.242.035.01.073.015.112.015"/>
      <path class="st0" d="M308.491,31.48c-.001.078-.026.081-.059.083h-.25c-.033,0-.049-.03-.049-.089l.002-.2v-1.084h-.35c0-.168.023-.252.07-.252h.028c.142,0,.223-.013.242-.038.007-.009.011-.02.011-.033v-.201c-.001-.316.108-.525.328-.625.081-.037.18-.056.297-.056s.208.018.272.054c.086.047.128.119.128.218,0,.064-.024.118-.072.16-.048.042-.108.064-.18.064-.114,0-.191-.045-.233-.134-.012-.027-.018-.057-.018-.09v-.052h-.002c-.099,0-.152.092-.16.276-.002.052-.004.105-.004.157v.299h.493c.031,0,.046.032.046.096s-.015.111-.044.141c-.01.011-.023.016-.038.015h-.457v1.155s0,.084,0,.136"/>
      <path class="st0" d="M309.945,30.701c.001-.265.089-.47.263-.615.174-.145.385-.218.634-.219h.005c.227,0,.403.064.526.191.123.127.185.31.185.549,0,.051-.026.095-.078.132-.052.037-.117.055-.195.055h-.967c.022.255.122.419.299.491.056.023.116.034.178.034s.128-.009.198-.027c.07-.018.15-.052.24-.103.09-.051.143-.076.159-.076.015,0,.031.007.047.02.016.013.036.034.059.064.023.029.035.058.036.087,0,.028-.006.047-.019.056-.224.155-.471.232-.741.232s-.476-.079-.618-.236c-.142-.157-.212-.368-.211-.633M311.183,30.548c.001-.286-.118-.429-.358-.429-.121,0-.234.038-.338.113-.104.075-.16.181-.169.316h.864ZM310.846,29.594c-.051,0-.094-.018-.129-.053-.035-.035-.052-.077-.052-.123l.501-.466h.006c.076,0,.139.024.191.071.051.047.077.11.077.187l-.592.384Z"/>
      <path class="st0" d="M316.091,31.364c.026.039,0,.144-.026.167-.024.021-.061.03-.113.03-.059,0-.12-.005-.167-.015-.091-.019-.183-.064-.296-.176-.209.134-.435.201-.679.201s-.439-.06-.587-.18c-.148-.12-.222-.276-.222-.468,0-.136.034-.257.103-.361.068-.105.191-.236.367-.393l-.081-.118c-.109-.165-.163-.322-.162-.473,0-.15.064-.277.192-.38.127-.103.307-.154.538-.154.232,0,.408.061.527.181.092.093.138.206.138.339s-.037.257-.112.372c-.075.115-.207.26-.398.434l.468.553c.143-.184.205-.273.239-.403.014-.053.02-.08.017-.206-.001-.064.054-.094.085-.094.03,0,.064-.002.094,0,.034.002.079.042.079.119,0,0-.004.09-.006.119-.02.236-.123.412-.343.65l.039.054c.047.047.069.065.143.106.051.029.132.049.164.096M314.644,30.374c-.143.128-.214.276-.214.444,0,.169.038.294.112.377.074.083.162.124.263.124.197,0,.369-.05.516-.149l-.677-.797ZM314.944,30.164c.202-.159.303-.348.303-.568-.001-.136-.058-.228-.171-.276-.037-.015-.082-.023-.136-.023l-.005-.002c-.103,0-.185.024-.246.072-.061.048-.092.102-.092.162,0,.1.03.2.091.299.061.099.146.211.256.335"/>
      <path class="st0" d="M318.779,29.096c0-.049,0-.104.031-.125.039-.027.119-.023.245-.023.053,0,.08.046.083.139v.914c.169-.089.319-.134.451-.134h.011c.24,0,.429.076.569.227.139.152.209.359.209.621s-.083.469-.248.619c-.165.15-.374.226-.626.226-.098,0-.208-.033-.33-.098-.029-.015-.054-.028-.075-.038,0,0-.079.081-.111.107-.029.023-.048.032-.076.032s-.072.003-.128-.022c-.056-.025-.072-.042-.072-.076,0-.055.053-.12.059-.24.021-.475.01-1.994.01-1.994v-.136ZM319.137,31.199c.116.073.231.11.345.11.234,0,.39-.099.47-.298.032-.079.048-.177.048-.296,0-.205-.053-.356-.16-.453-.081-.072-.176-.108-.287-.109-.111,0-.216.026-.316.079-.037.02-.07.044-.099.074v.893Z"/>
      <path class="st0" d="M321.64,31.49c0,.06-.025.07-.052.071h-.256c-.032,0-.048-.03-.048-.089v-.211s-.001-1.085-.001-1.085v-.174c-.001-.051.029-.101.064-.107.069-.012.164-.013.22-.005.051.007.071.048.073.141v1.459ZM321.46,29.587c-.114,0-.191-.045-.233-.134-.012-.027-.018-.057-.018-.09,0-.104.051-.174.152-.211.031-.011.064-.016.099-.016.071,0,.13.022.179.065.048.043.072.097.072.163,0,.064-.024.118-.072.16-.048.043-.108.064-.18.064"/>
      <path class="st0" d="M322.971,31.318h.209c.17,0,.284-.046.343-.139.017-.028.026-.059.026-.093,0-.063-.033-.113-.098-.149-.065-.036-.165-.072-.299-.109-.134-.037-.236-.068-.306-.095-.07-.027-.13-.059-.182-.096-.105-.079-.158-.186-.158-.324,0-.202.127-.338.38-.407.094-.026.188-.039.281-.039.198,0,.356.024.473.072.147.06.22.147.218.26.001.063-.022.116-.07.159-.048.043-.108.064-.182.065-.115,0-.193-.045-.235-.134-.012-.027-.018-.05-.018-.067s.007-.059.022-.124h-.182c-.099,0-.172.015-.22.046-.087.053-.13.112-.13.177,0,.085.086.154.257.206l.139.043c.236.07.388.129.455.178.128.094.192.213.191.357-.001.144-.064.258-.187.341-.124.083-.28.124-.471.124s-.347-.021-.471-.062c-.19-.063-.284-.152-.284-.265,0-.07.024-.126.072-.168.048-.043.108-.064.181-.064.071,0,.131.021.18.063.049.042.073.089.073.142s-.003.087-.009.102"/>
      <path class="st0" d="M324.759,30.152c0-.168.023-.252.068-.252h.029c.189,0,.287-.023.292-.07l.079-.361c.015-.06.094-.09.239-.09v.522h.495c.031,0,.046.032.045.096,0,.064-.016.111-.045.141-.01.011-.022.016-.037.015h-.459v.965c0,.122.04.183.121.183.092,0,.157-.006.195-.019.038-.013.069-.019.091-.019s.044.014.065.043c.021.029.032.059.032.089,0,.033-.012.054-.035.064-.158.074-.308.111-.451.111-.251,0-.376-.151-.376-.453v-.965h-.349Z"/>
      <path class="st0" d="M327.165,31.461c0,.059-.033.072-.055.075h-.223c-.034,0-.076-.032-.076-.088,0-.081-.003-.212-.003-.212v-1.078l-.002-.154c.002-.091.015-.12.053-.127.065-.012.134-.012.173-.008.045.004.055.007.071.027.012.015.017.038.018.085.001.048,0,.073,0,.073,0,.013,0,.026,0,.039,0,.013,0,.025,0,.036.213-.173.405-.258.575-.262.011,0,.031,0,.048,0,.039.003.057.007.094.024.037.017.066.043.098.077.032.034.049.083.049.147s-.026.117-.077.159c-.051.041-.109.062-.174.062s-.12-.022-.165-.065c-.045-.043-.068-.09-.068-.141-.071.029-.125.063-.161.101-.037.038-.067.074-.092.106l-.081.111v1.011Z"/>
      <path class="st0" d="M329.514,31.57c-.263,0-.465-.081-.605-.243-.141-.162-.211-.374-.211-.636s.089-.465.266-.608c.177-.143.394-.215.651-.215h.005c.24,0,.431.079.573.238.142.159.214.368.214.629s-.083.465-.249.613c-.166.148-.381.222-.644.222M329.56,30.119c-.218-.001-.364.097-.44.293-.029.076-.045.17-.046.281,0,.206.043.362.13.467.087.105.206.158.358.158s.268-.057.349-.172c.081-.114.121-.26.121-.437-.001-.296-.098-.481-.292-.556-.059-.023-.119-.034-.18-.034M329.613,29.594c-.051,0-.095-.018-.129-.053-.035-.035-.052-.077-.052-.123l.501-.466h.006c.076,0,.139.024.191.071.051.047.077.11.077.187l-.592.384Z"/>
      <path class="st0" d="M334.068,16.352c-.451-.668-1.052-1.063-2.044-1.276-.992-.213-1.984.668-1.924,1.61.06.942,1.052,1.215,1.924,1.033.872-.182,1.263.152,1.473.942s.465,2.242.083,3.816c-.378,1.558-1.57,3.36-3.313,3.42-1.154.04-2.149-.628-2.971-2.13-.474-.867-.687-1.932-.676-3.465.014-1.923.558-3.507,1.696-4.516,1.376-1.219,3.279-1.216,3.287-1.408.008-.196-2.392-.803-4.417,1.116-2.025,1.919-1.858,5.399-1.858,5.399.501,5.926,3.908,5.893,5.001,5.859,3.291-.102,4.583-2.719,4.916-4.883.075-.485.099-.952.105-1.374.015-1.194-.265-2.08-.349-2.321-.141-.405-.481-1.154-.932-1.822"/>
      <path class="st0" d="M324.65,14.247c-.623-.391-1.356.013-1.734.469-.538.649-.744,1.385-.888,2.174-.037.204-.129.77-.022.782.087.01.244-.542.574-.918.316-.359.884-.745,1.652-.938.754-.19,1.034-1.182.418-1.569"/>
      <path class="st0" d="M323.488,22.363c-.491-2.055-.784-4.436.951-5.988.027-.024.023-.037.019-.049-.035-.104-.333.033-.393.059-.232.101-.541.277-.724.408-.379.273-.735.632-.968,1.225-.069.177-.131.392-.172.699-.026.195-.053.393-.068.598-.069.946-.028,1.892.11,2.83.073.88.223,1.756.432,2.618.148.611.263,1.394.847,1.809.374.266.991.312,1.289-.079.354-.464.009-1.171-.228-1.615-.432-.809-.882-1.622-1.095-2.514"/>
      <path class="st0" d="M320.147,14.122h-.644c-.173-.008-.414-.012-.735-.005-1.522.031-2.994.235-4.147.974-.805.516-1.605,1.643-1.604,2.816,0,2.367,1.828,3.713,5.157,3.733-2.284,1.496-3.606,2.037-5.811,2.781-1.272.429-2.59.726-3.905.97-1.326.246-2.694.286-4.038.117-1.937-.243-3.625-1.19-4.431-3.457-.856-2.407.262-4.944,1.772-5.986,1.54-1.064,3.03-.931,3.687-.795.843.124,1.776.489,2.434.95.572.4.977.844,1.282,1.469.255.524.31,1.079.28,1.51-.05.702-.251,1.458-.725,2.063-.463.591-.935,1.018-1.605,1.125-.294.047-.634-.057-.853-.233.078-.07.149-.138.208-.201.253-.265.478-.604.397-.998-.078-.378-.415-.595-.777-.478-.428.138-.654,1.058-.383,1.634-.291.261-.681.411-1.001.377-1.006-.105-.624-1.285-.484-1.734.157-.503.643-1.8.992-2.889.047-.147.29-.733.06-.792-.366-.095-.628.239-.76.592-.219.584-.38,1.227-.523,1.829-.07.295-.179.894-.288,1.257-.76-.087-1.728.13-2.067.918-.288.671.199,1.33.9,1.185.489-.101.843-.551,1.122-1.054.005.284.068.561.285.754.515.458,1.336.342,1.945-.099.708.606,1.422.449,2.165.057.99-.523,1.453-1.37,1.809-2.326.352-.945.416-2.048.038-2.973-.837-2.049-3.425-3.082-5.458-3.085-2.159-.003-4.619,1.114-5.783,3.03-1.143,1.883-1.226,4.346-.043,6.23,1.507,2.397,2.92,2.909,5.243,3.241,2.674.382,5.492-.136,8.06-.901,2.497-.744,4.677-2.074,6.86-3.523v4.397c0,.076.062.138.138.138h1.233c.076,0,.138-.062.138-.138v-12.338c0-.076-.062-.138-.138-.138M303.115,21.889c-.235.32-.854.891-1.036.283-.103-.344.309-.683.557-.81.274-.14.579-.193.882-.18-.128.239-.21.444-.403.707M306.06,21.866c-.015-.035-.029-.072-.041-.11-.068-.22-.082-.792.216-.897.364-.128.375.366.258.55-.09.141-.243.29-.368.402-.021.019-.044.037-.065.055M315.122,20.178c-1.018-.776-1.012-1.86-.832-2.507.568-2.045,3.588-2.184,4.487-2.179v5.489c-.978,0-2.64-.03-3.655-.803"/>
      <path class="st0" d="M311.413,12.821c1.909.014,2.995-1.666,3.528-2.87v2.757c0,.064.052.116.116.116h1.032c.064,0,.116-.052.116-.116v-3.416s0,0,0,0c-.004-.332.018-.58-.164-.802-.234-.286-.758-.235-1.158-.175-.442.066-.769.139-1.232.154-.626.02-.916.056-1.376.023-.504-.036-.699-.091-1.227-.21-.107-.024-.198-.006-.238.093-.044.11.066.332.362.397.731.159.871.176,1.586.231.436.034,1.11.043,1.544-.011.372-.046.53-.029.418.3-.41,1.052-1.416,2.966-3.282,2.851-2.69-.167-2.754-3.702-1.865-6.359.572-1.711,1.664-2.584,2.713-3.113.873-.44,1.778-.372,2.619-.07.771.277,1.355-.221,1.279-1.081-.075-.86-1.088-1.391-2.472-1.261-.621.058-2.304.379-3.947,2.333-1.643,1.954-1.756,5.21-1.753,6.146.008,2.516.805,4.064,3.4,4.083"/>
      <path class="st0" d="M324.413,8.449c.78-3.287.548-4.885.36-6.526-.115-1-.472-1.581-1.204-1.635-.513-.038-.892.294-.928.731-.041.5.41,1.06.701,2.236.425,1.721.501,4.713-.405,6.955-.422,1.045-1.004,1.849-2.078,1.849s-1.656-.804-2.078-1.849c-.905-2.242-.83-5.234-.405-6.955.291-1.176.742-1.736.701-2.236-.036-.437-.414-.769-.928-.731-.731.054-1.089.636-1.204,1.635-.189,1.641-.42,3.239.36,6.526.62,2.612,1.641,4.391,3.541,4.379h0s.008,0,.012,0c.004,0,.008,0,.012,0h0c1.901.012,2.922-1.767,3.541-4.379"/>
      <path class="st0" d="M301.28,11.552c.536-.573,1.234-1.547,1.883-2.806.33.086.64.122,1.063.154.436.034,1.11.043,1.544-.011.15-.019.264-.026.34-.007v3.799c0,.07.057.126.126.126h1.011c.07,0,.126-.057.126-.126V.356c0-.07-.057-.126-.126-.126h-1.011c-.063,0-.115.046-.124.106-.167.45-2.192,5.845-4.371,8.041,0,0-1.257,1.513-2.562,2.088-.946.416-1.823.545-1.896,1.247-.073.702.526,1.12,1.439,1.092.913-.028,1.778-.419,2.558-1.252M306.11,1.568v6.683c-.33.054-.617.104-.992.116-.626.02-.989-.03-1.448-.063-.106-.008-.194-.018-.273-.029.087-.183.174-.37.258-.563.568-1.304,1.796-4.34,2.455-6.144"/>
      <path class="st0" d="M335.828,11.731c-.073-.702-.95-.831-1.896-1.247-1.305-.575-2.562-2.088-2.562-2.088-2.178-2.196-4.204-7.591-4.371-8.041-.01-.06-.061-.106-.124-.106h-1.011c-.07,0-.126.057-.126.126v12.325c0,.07.057.126.126.126h1.011c.07,0,.126-.057.126-.126v-3.825c.069-.002.154.006.257.018.433.054,1.108.045,1.544.011.452-.035.773-.073,1.13-.172.654,1.274,1.359,2.26,1.9,2.838.779.833,1.644,1.225,2.558,1.252.913.028,1.512-.39,1.439-1.092M329.358,8.308c-.459.033-.822.083-1.448.063-.343-.011-.612-.054-.908-.103V1.587c.66,1.804,1.887,4.84,2.455,6.144.08.184.162.362.245.536-.096.017-.205.031-.344.041"/>
    </g>
  </g>
</svg>