<?xml version="1.0" encoding="UTF-8"?>
<svg id="Layer_1" xmlns="http://www.w3.org/2000/svg" version="1.1" viewBox="0 0 336 35.8">
  <!-- Generator: Adobe Illustrator 30.2.1, SVG Export Plug-In . SVG Version: 2.1.1 Build 1)  -->
  <defs>
    <style>
      .st0 {
        fill: #231f20;
      }

      .st1 {
        fill: #fafafa;
      }
    </style>
  </defs>
  <rect class="st1" x="-26.9" y="-382.5" width="390" height="844"/>
  <g>
    <g>
      <path class="st0" d="M323.4,7c-.2,0-.4,0-.6,0,0,0,0,0,0-.2,0,0,.4-.2.5-.3,0,0,0-.2,0-.2-1.1-.7-2.3-1.2-3.4-1.6-.5-.2-.9-.3-1.4-.4-.1,0-.3,0-.4,0-.2,0-.5-.1-.7-.2-.5-.1-1.1-.2-1.6-.3-.1,0-.3,0-.4,0-.5,0-1.1,0-1.6,0-.4,0-4.1.2-4.4.3-.3,0-.6,0-.9.1-.5,0-1,0-1.4-.5-.4-.3-.8-.6-1.3-.7,0,0-.1,0-.2,0,0,0,0,.1,0,.2.1.2.3.4.4.7,0,0,0,.2.1.3,0,0,0,.2,0,.2,0,.1-.1.3-.2.4,0,0-.1.1-.2.1,0,0-.1,0-.2,0-.1,0-.2,0-.3,0-.3.3-.6.4-1,.3,0,0-.2,0-.2,0,0,0,0,0,0,0,0,0-.1.1-.2.2-.2,0-.3.1-.5,0-.1,0-.3,0-.4.1-.1.2-.4.3-.6.2,0,0,0,0,0,0,0,0,0,0,0,0-.1,0-.2,0-.2,0,0,.2-.2.3-.4.3-.1,0-.2,0-.2,0,0,0,0,0,0,0-.1,0-.2,0-.2,0,0,.1-.1.2-.3.2-.1,0-.3,0-.4,0,0,0-.2,0-.2,0-.1.2-.3.3-.6.2,0,0-.2,0-.2,0,0,0,0,0-.1,0,0,0-.1,0-.2,0,0,0,0,0,0,0-.1,0-.2,0-.3,0,0,0,0,0-.1,0,0,0,0,0,0,0-.1,0-.3,0-.4,0-.3-.3-.6-.7-.9-1s-.5-.6-.7-.9-.3-.3-.4-.5c-.2-.2-.4-.4-.6-.6-.2-.2-.5-.4-.8-.5,0,0-.1,0-.1,0,0,0,0,.1,0,.1,0,0,.1.1.2.2,0,.2,0,.4.2.5,0,.1,0,.2.1.3,0,.2.2.3.2.5.1.5.4.9.6,1.3,0,.2.2.4.2.7,0,0,0,0,0,0,0,.2,0,.3,0,.5s0,.4-.2.6c-.2.3-.4.6-.5,1-.1.3-.2.6-.4.8,0,.1-.1.2-.2.3,0,.2-.2.4-.3.5,0,0-.2.2-.2.3,0,.1.3,0,.4,0,0,0,0,0,0,0,0,0,.2,0,.3-.1.4-.2.7-.5,1-.9.5-.5.9-1.1,1.3-1.7,0,0,0-.1.1-.2.1-.2.3-.3.4-.5,0,0,.2-.2.3-.2.2,0,.5,0,.7,0,0,0,.2,0,.2.1,0,0,.1,0,.2,0,.1,0,.2,0,.3,0,.1,0,.2,0,.2.1,0,.1.2.1.3,0,.3-.1.3,0,.5.2.1.2.2.2.3,0,.2-.1.3-.1.4,0,0,0,.1.1.1.2,0,0,0,.1.2,0,.2-.1.3-.1.5,0,0,0,0,0,0,0,0,0,0,0,0,0,0,0,0,.2.1.2,0,.1,0,.2.2.1.2,0,.3,0,.5,0,0,0,0,0,0,0,0,0,.1.1.2.2,0,0,.1,0,.2,0,0,0,.1,0,.2,0,.2,0,.3,0,.5.2,0,0,.1,0,.1,0,.2-.1.4,0,.6,0,.2,0,.2.1.1.3,0,0-.1.2-.2.3-.2.3-.4.7-.6,1,0,0,0,.2,0,.2s.2,0,.2,0c.7-.4,1.4-.8,2-1.2h0c.5,0,1,0,1.5.2.3,0,.6,0,.9,0,.3,0,.6,0,.9,0,0,0,0,0,0,0,.8,0,1.6.1,2.5.2,0,0,.2,0,.2,0s0,.2-.1.2c-.2.2-.4.3-.6.4,0,0-.1.1-.1.2s.1,0,.2,0c.9-.3,1.8-.6,2.7-1,.4,0,2.6-.3,2.7-.3,0,0,1.8-.4,1.8-.4,0,0,1.1-.3,1.2-.4.4-.2.8-.3,1.2-.5.3-.2,1.8-1,1.9-1.1,0-.1,0-.2-.1-.2Z"/>
      <g>
        <path class="st0" d="M285.5,28.5V12.2s2.1,0,2.1,0c1.4,0,2.5.3,3.2,1s1.1,1.8,1.1,3.4c0,.8,0,1.4-.3,1.9-.2.5-.6,1-1.2,1.5.6.3,1,1,1.4,2,.2.5.3,1.2.3,2,0,1.2-.2,2.3-.8,3.1-.5.8-1.5,1.4-2.9,1.5h-2.9ZM287.9,18.9c.2,0,.7,0,1.1-.2.4-.3.7-.8.7-1.9s-.3-1.7-.7-1.9c-.4-.3-.9-.2-1.1-.2v4.3ZM287.9,26.1c.2,0,.7,0,1.1-.2.4-.3.7-.9.7-2.3,0-1.3-.3-2-.7-2.3-.4-.3-.9-.2-1.1-.2v5Z"/>
        <path class="st0" d="M300.6,25.1c0,.7-.2,1.3-.4,1.8-.2.4-.5.9-.9,1.2-.4.4-1,.6-1.8.6s-1.4-.2-1.8-.6c-.4-.3-.7-.8-.9-1.2-.2-.5-.4-1.1-.4-1.8v-9.6c0-.6.2-1.2.4-1.8.2-.4.5-.9.9-1.2s1.1-.6,1.8-.6,1.4.2,1.8.6c.4.3.7.8.9,1.2.2.5.4,1.1.4,1.8v9.6ZM298.2,15.5c0-.4,0-.8-.3-1-.1-.1-.3-.2-.5-.2-.4,0-.6.3-.7.6,0,.2,0,.4,0,.6v9.6c0,.5.1.8.3,1,.1.1.3.2.5.2.4,0,.6-.3.7-.6,0-.2,0-.4,0-.6v-9.6Z"/>
        <path class="st0" d="M305.6,20l-.2-.8h-.1v9.2s-2.2,0-2.2,0V12.2s2.1,0,2.1,0l2.3,8.5.2.8h.1v-9.2s2.2,0,2.2,0v16.3s-2.1,0-2.1,0l-2.3-8.5Z"/>
        <path class="st0" d="M312.7,12.2h2.4s0,16.3,0,16.3h-2.4s0-16.3,0-16.3Z"/>
        <path class="st0" d="M316.8,14.6v-2.5s6.9,0,6.9,0v2.5s-2.2,0-2.2,0v13.8s-2.4,0-2.4,0v-13.8h-2.2Z"/>
        <path class="st0" d="M331.7,25.1c0,.7-.2,1.3-.4,1.8-.2.4-.5.9-.9,1.2-.4.4-1,.6-1.8.6-.8,0-1.4-.2-1.8-.6-.4-.3-.7-.8-.9-1.2-.2-.5-.4-1.1-.4-1.8v-9.6c0-.6.2-1.2.4-1.8.2-.4.5-.9.9-1.2s1.1-.6,1.8-.6,1.4.2,1.8.6c.4.3.7.8.9,1.2.2.5.4,1.1.4,1.8v9.6ZM329.3,15.5c0-.4,0-.8-.3-1-.1-.1-.3-.2-.5-.2-.4,0-.6.3-.7.6,0,.2,0,.4,0,.6v9.6c0,.5.1.8.3,1,.1.1.3.2.5.2.4,0,.6-.3.7-.6,0-.2,0-.4,0-.6v-9.6Z"/>
      </g>
      <g>
        <path class="st0" d="M296.8,33c0,0-.2.1-.3.2,0,0-.2,0-.3.1-.1,0-.2,0-.4,0-.2,0-.4,0-.6-.1-.2,0-.3-.2-.5-.3-.1-.1-.2-.3-.3-.5,0-.2-.1-.4-.1-.6s0-.4.1-.6c0-.2.2-.3.3-.5.1-.1.3-.2.5-.3.2,0,.4-.1.6-.1s.2,0,.4,0,.2,0,.3,0c0,0,.2,0,.2.1,0,0,.1.1.2.2l-.2.2c-.1-.1-.3-.2-.4-.3-.1,0-.3-.1-.5-.1s-.3,0-.4,0-.3.1-.4.2-.2.2-.2.4c0,.1,0,.3,0,.5s0,.3,0,.5c0,.1.1.3.2.4,0,.1.2.2.4.3.1,0,.3,0,.4,0s.4,0,.5-.1c.1,0,.3-.2.4-.3l.2.2c0,0-.2.1-.2.2Z"/>
        <path class="st0" d="M303,33.2h-.3s-.3-.8-.3-.8h-1.6s-.3.8-.3.8h-.3s1.3-2.9,1.3-2.9h.3s1.3,2.9,1.3,2.9ZM301.6,30.7l-.7,1.5h1.3s-.6-1.5-.6-1.5Z"/>
        <path class="st0" d="M308.4,33.2l-.8-1.1h-.8v1.1s-.3,0-.3,0v-2.9s1.2,0,1.2,0c.2,0,.3,0,.4,0s.2,0,.3.2c0,0,.2.2.2.3,0,.1,0,.2,0,.3s0,.2,0,.3,0,.2-.2.2-.2.1-.2.2c0,0-.2,0-.3,0l.9,1.2h-.4ZM308.1,30.8c-.1,0-.3-.1-.5-.1h-.9v1.2h.9c.1,0,.2,0,.3,0,0,0,.2,0,.2-.1,0,0,.1-.1.2-.2,0,0,0-.2,0-.2,0-.2,0-.3-.2-.4Z"/>
        <path class="st0" d="M312.5,30.4v2.9s-.3,0-.3,0v-2.9s.3,0,.3,0Z"/>
        <path class="st0" d="M317.7,30.4c.1,0,.2,0,.3.1,0,0,.1.1.2.2,0,0,0,.2,0,.3s0,.2,0,.2c0,0,0,.1-.1.2,0,0,0,.1-.1.1s-.1,0-.2,0c0,0,.2,0,.2,0,0,0,.1,0,.2.1,0,0,0,.1.1.2,0,0,0,.2,0,.3s0,.2,0,.3-.1.2-.2.2-.2.1-.3.2-.3,0-.4,0h-1.3s0-2.9,0-2.9h1.2c.1,0,.3,0,.4,0ZM317.7,31.5c.1,0,.2-.2.2-.4s0-.3-.2-.3c-.1,0-.3-.1-.5-.1h-.9v1h.8c.2,0,.4,0,.5-.1ZM317.9,32.8c.1,0,.2-.2.2-.4s0-.3-.2-.4-.3-.1-.6-.1h-.9v1h1c.2,0,.4,0,.5-.1Z"/>
        <path class="st0" d="M323.9,30.6h-1.7v1h1.6s0,.3,0,.3h-1.6v1h1.8s0,.3,0,.3h-2.1s0-2.9,0-2.9h2.1s0,.3,0,.3Z"/>
      </g>
    </g>
    <g>
      <path class="st0" d="M87.2,33h-.2c-.1,0-.2,0-.3.1-.1.1-.2.3-.2.5,0,.3,0,.5.3.6,0,0,.1,0,.2,0s.3,0,.4-.1h.1c0,0,0,0,0,0s0,0,0,0c0,0,0,0,0,.1s0,0,0,0c-.2.2-.5.2-.8.2s-.5,0-.6-.2c-.1-.2-.2-.4-.2-.7s0-.5.3-.7.4-.2.7-.2.5,0,.6.2c0,0,0,0,0,.2s0,.1,0,.2c0,0-.1,0-.2,0s-.1,0-.2,0,0,0,0-.1,0,0,0-.1"/>
      <path class="st0" d="M90.3,34.5s0,0,0,0c-.1,0-.1,0-.1,0,0,0,0,0,0,0,0,0,0,0,0-.1-.2.1-.3.2-.6.2s-.4,0-.5-.1c-.1,0-.2-.2-.2-.3s0-.3.2-.4c.1,0,.3-.1.5-.1h.5c0-.2,0-.3,0-.4,0,0,0,0-.1-.1,0,0-.1,0-.2,0h-.2s0,0,0,.1,0,.1,0,.1c0,0-.1,0-.2,0-.1,0-.2,0-.2-.1,0,0,0,0,0-.1,0,0,0-.2.1-.2.1,0,.4-.1.7-.1s.4,0,.5.2c0,.1.1.2.1.4v.9s0,.3,0,.3M89.4,34.2c.2,0,.3,0,.5-.2v-.3h-.4c-.1,0-.2,0-.3,0,0,0-.1.1-.1.2,0,.1,0,.2.2.3,0,0,0,0,.1,0"/>
      <path class="st0" d="M92.2,34.4c0,0,0,0,0,0h-.3s0,0,0,0v-.2s0-1.1,0-1.1h-.4c0-.2,0-.3,0-.3h0c.1,0,.2,0,.3,0,0,0,0,0,0,0v-.2c0-.3.1-.6.3-.7,0,0,.2,0,.3,0s.2,0,.3,0c0,0,.1.1.1.2s0,.1,0,.2c0,0-.1,0-.2,0-.1,0-.2,0-.2-.1,0,0,0,0,0,0h0c0,0,0,0,0,0-.1,0-.2,0-.2.3,0,0,0,.1,0,.2v.3h.5s0,0,0,.1,0,.1,0,.1c0,0,0,0,0,0h-.5v1.2s0,0,0,.1"/>
      <path class="st0" d="M93.8,33.6c0-.3,0-.5.3-.6.2-.2.4-.2.7-.2h0c.2,0,.4,0,.6.2.1.1.2.3.2.6s0,.1,0,.1c0,0-.1,0-.2,0h-1c0,.3.1.4.3.5,0,0,.1,0,.2,0s.1,0,.2,0c0,0,.2,0,.3-.1,0,0,.2,0,.2,0s0,0,0,0c0,0,0,0,0,0,0,0,0,0,0,0,0,0,0,0,0,0-.2.2-.5.2-.8.2s-.5,0-.7-.2c-.1-.2-.2-.4-.2-.7M95.1,33.4c0-.3-.1-.5-.4-.5s-.2,0-.4.1c-.1,0-.2.2-.2.3h.9ZM94.7,32.4c0,0,0,0-.1,0,0,0,0,0,0-.1l.5-.5h0c0,0,.1,0,.2,0,0,0,0,.1,0,.2l-.6.4Z"/>
      <path class="st0" d="M100.2,34.3s0,.2,0,.2c0,0,0,0-.1,0s-.1,0-.2,0c0,0-.2,0-.3-.2-.2.1-.5.2-.7.2s-.5,0-.6-.2c-.2-.1-.2-.3-.2-.5s0-.3.1-.4c0-.1.2-.2.4-.4h0c-.1-.3-.2-.5-.2-.6,0-.2,0-.3.2-.4.1-.1.3-.2.6-.2.2,0,.4,0,.6.2,0,0,.1.2.1.4s0,.3-.1.4c0,.1-.2.3-.4.5l.5.6c.2-.2.2-.3.3-.4,0,0,0,0,0-.2,0,0,0,0,0,0,0,0,0,0,0,0,0,0,0,0,0,.1,0,0,0,0,0,.1,0,.2-.1.4-.4.7h0c0,.1,0,.1.2.2,0,0,.1,0,.2.1M98.7,33.3c-.2.1-.2.3-.2.5,0,.2,0,.3.1.4,0,0,.2.1.3.1.2,0,.4,0,.5-.2l-.7-.8ZM99,33c.2-.2.3-.4.3-.6,0-.1,0-.2-.2-.3,0,0,0,0-.1,0h0c-.1,0-.2,0-.3,0,0,0,0,.1,0,.2,0,.1,0,.2,0,.3,0,.1.2.2.3.4"/>
      <path class="st0" d="M103.1,31.9c0,0,0-.1,0-.1,0,0,.1,0,.3,0,0,0,0,0,0,.1v1c.2,0,.3-.1.5-.1h0c.3,0,.5,0,.6.2.1.2.2.4.2.7,0,.3,0,.5-.3.7-.2.2-.4.2-.7.2s-.2,0-.3-.1c0,0,0,0,0,0,0,0,0,0-.1.1,0,0,0,0,0,0s0,0-.1,0c0,0,0,0,0,0,0,0,0-.1,0-.3,0-.5,0-2.1,0-2.1h0ZM103.4,34.1c.1,0,.2.1.4.1.2,0,.4-.1.5-.3,0,0,0-.2,0-.3,0-.2,0-.4-.2-.5,0,0-.2-.1-.3-.1-.1,0-.2,0-.3,0,0,0,0,0-.1,0v.9Z"/>
      <path class="st0" d="M106.1,34.4c0,0,0,0,0,0h-.3s0,0,0,0v-.2s0-1.1,0-1.1v-.2c0,0,0-.1,0-.1,0,0,.2,0,.2,0,0,0,0,0,0,.1v1.5ZM105.9,32.4c-.1,0-.2,0-.2-.1,0,0,0,0,0,0,0-.1,0-.2.2-.2,0,0,0,0,.1,0,0,0,.1,0,.2,0,0,0,0,.1,0,.2s0,.1,0,.2c0,0-.1,0-.2,0"/>
      <path class="st0" d="M107.5,34.2h.2c.2,0,.3,0,.4-.1,0,0,0,0,0,0,0,0,0-.1-.1-.2,0,0-.2,0-.3-.1-.1,0-.2,0-.3-.1,0,0-.1,0-.2-.1-.1,0-.2-.2-.2-.3s.1-.4.4-.4c0,0,.2,0,.3,0,.2,0,.4,0,.5,0,.2,0,.2.2.2.3,0,0,0,.1,0,.2,0,0-.1,0-.2,0-.1,0-.2,0-.2-.1,0,0,0,0,0,0s0,0,0-.1h-.2c-.1,0-.2,0-.2,0,0,0-.1.1-.1.2s0,.2.3.2h.1c.2.1.4.2.5.2.1,0,.2.2.2.4,0,.2,0,.3-.2.4-.1,0-.3.1-.5.1s-.4,0-.5,0c-.2,0-.3-.2-.3-.3s0-.1,0-.2c0,0,.1,0,.2,0s.1,0,.2,0c0,0,0,0,0,.2s0,0,0,.1"/>
      <path class="st0" d="M109.4,33c0-.2,0-.3,0-.3h0c.2,0,.3,0,.3,0v-.4c0,0,.2,0,.3,0v.6h.5s0,0,0,.1c0,0,0,.1,0,.1,0,0,0,0,0,0h-.5v1c0,.1,0,.2.1.2s.2,0,.2,0c0,0,0,0,0,0s0,0,0,0c0,0,0,0,0,0s0,0,0,0c-.2,0-.3.1-.5.1-.3,0-.4-.2-.4-.5v-1h-.4Z"/>
      <path class="st0" d="M111.9,34.4c0,0,0,0,0,0h-.2s0,0,0,0c0,0,0-.2,0-.2v-1.3c0,0,0-.1,0-.1,0,0,.1,0,.2,0,0,0,0,0,0,0,0,0,0,0,0,0,0,0,0,0,0,0,0,0,0,0,0,0,0,0,0,0,0,0,.2-.2.4-.3.6-.3,0,0,0,0,0,0,0,0,0,0,0,0,0,0,0,0,.1,0,0,0,0,0,0,.2s0,.1,0,.2c0,0-.1,0-.2,0s-.1,0-.2,0c0,0,0,0,0-.1,0,0-.1,0-.2.1,0,0,0,0,0,.1h0v1.2Z"/>
      <path class="st0" d="M114.4,34.5c-.3,0-.5,0-.6-.3-.1-.2-.2-.4-.2-.7s0-.5.3-.6c.2-.2.4-.2.7-.2h0c.3,0,.5,0,.6.3.2.2.2.4.2.7s0,.5-.3.6c-.2.2-.4.2-.7.2M114.4,33c-.2,0-.4.1-.5.3,0,0,0,.2,0,.3,0,.2,0,.4.1.5,0,.1.2.2.4.2s.3,0,.4-.2c0-.1.1-.3.1-.5,0-.3-.1-.5-.3-.6,0,0-.1,0-.2,0M114.5,32.4c0,0,0,0-.1,0,0,0,0,0,0-.1l.5-.5h0c0,0,.1,0,.2,0,0,0,0,.1,0,.2l-.6.4Z"/>
      <path class="st0" d="M119.2,18.5c-.5-.7-1.1-1.1-2.2-1.3-1-.2-2.1.7-2,1.7,0,1,1.1,1.3,2,1.1.9-.2,1.3.2,1.6,1s.5,2.4,0,4c-.4,1.6-1.7,3.5-3.5,3.6-1.2,0-2.3-.7-3.1-2.2-.5-.9-.7-2-.7-3.7,0-2,.6-3.7,1.8-4.8,1.5-1.3,3.5-1.3,3.5-1.5,0-.2-2.5-.8-4.7,1.2-2.1,2-2,5.7-2,5.7.5,6.3,4.1,6.2,5.3,6.2,3.5-.1,4.8-2.9,5.2-5.2,0-.5.1-1,.1-1.4,0-1.3-.3-2.2-.4-2.4-.1-.4-.5-1.2-1-1.9"/>
      <path class="st0" d="M109.3,16.2c-.7-.4-1.4,0-1.8.5-.6.7-.8,1.5-.9,2.3,0,.2-.1.8,0,.8,0,0,.3-.6.6-1,.3-.4.9-.8,1.7-1,.8-.2,1.1-1.2.4-1.7"/>
      <path class="st0" d="M108,24.8c-.5-2.2-.8-4.7,1-6.3,0,0,0,0,0,0,0-.1-.4,0-.4,0-.2.1-.6.3-.8.4-.4.3-.8.7-1,1.3,0,.2-.1.4-.2.7,0,.2,0,.4,0,.6,0,1,0,2,.1,3,0,.9.2,1.9.5,2.8.2.6.3,1.5.9,1.9.4.3,1,.3,1.4,0,.4-.5,0-1.2-.2-1.7-.5-.9-.9-1.7-1.2-2.7"/>
      <path class="st0" d="M104.5,16.1h-.7c-.2,0-.4,0-.8,0-1.6,0-3.2.2-4.4,1-.8.5-1.7,1.7-1.7,3,0,2.5,1.9,3.9,5.4,3.9-2.4,1.6-3.8,2.1-6.1,2.9-1.3.5-2.7.8-4.1,1-1.4.3-2.8.3-4.3.1-2-.3-3.8-1.3-4.7-3.6-.9-2.5.3-5.2,1.9-6.3,1.6-1.1,3.2-1,3.9-.8.9.1,1.9.5,2.6,1,.6.4,1,.9,1.4,1.5.3.6.3,1.1.3,1.6,0,.7-.3,1.5-.8,2.2-.5.6-1,1.1-1.7,1.2-.3,0-.7,0-.9-.2,0,0,.2-.1.2-.2.3-.3.5-.6.4-1.1,0-.4-.4-.6-.8-.5-.5.1-.7,1.1-.4,1.7-.3.3-.7.4-1.1.4-1.1-.1-.7-1.4-.5-1.8.2-.5.7-1.9,1-3,0-.2.3-.8,0-.8-.4-.1-.7.3-.8.6-.2.6-.4,1.3-.6,1.9,0,.3-.2.9-.3,1.3-.8,0-1.8.1-2.2,1-.3.7.2,1.4.9,1.3.5-.1.9-.6,1.2-1.1,0,.3,0,.6.3.8.5.5,1.4.4,2.1-.1.7.6,1.5.5,2.3,0,1-.6,1.5-1.4,1.9-2.5.4-1,.4-2.2,0-3.1-.9-2.2-3.6-3.3-5.8-3.3-2.3,0-4.9,1.2-6.1,3.2-1.2,2-1.3,4.6,0,6.6,1.6,2.5,3.1,3.1,5.5,3.4,2.8.4,5.8-.1,8.5-1,2.6-.8,4.9-2.2,7.2-3.7v4.6c0,0,0,.1.1.1h1.3c0,0,.1,0,.1-.1v-13c0,0,0-.1-.1-.1M86.5,24.3c-.2.3-.9.9-1.1.3-.1-.4.3-.7.6-.9.3-.1.6-.2.9-.2-.1.3-.2.5-.4.7M89.7,24.3s0,0,0-.1c0-.2,0-.8.2-.9.4-.1.4.4.3.6,0,.1-.3.3-.4.4,0,0,0,0,0,0M99.2,22.5c-1.1-.8-1.1-2-.9-2.6.6-2.2,3.8-2.3,4.7-2.3v5.8c-1,0-2.8,0-3.9-.8"/>
      <path class="st0" d="M95.3,14.7c2,0,3.2-1.8,3.7-3v2.9c0,0,0,.1.1.1h1.1c0,0,.1,0,.1-.1v-3.6s0,0,0,0c0-.4,0-.6-.2-.8-.2-.3-.8-.2-1.2-.2-.5,0-.8.1-1.3.2-.7,0-1,0-1.5,0-.5,0-.7,0-1.3-.2-.1,0-.2,0-.3,0,0,.1,0,.4.4.4.8.2.9.2,1.7.2.5,0,1.2,0,1.6,0,.4,0,.6,0,.4.3-.4,1.1-1.5,3.1-3.5,3-2.8-.2-2.9-3.9-2-6.7.6-1.8,1.8-2.7,2.9-3.3.9-.5,1.9-.4,2.8,0,.8.3,1.4-.2,1.3-1.1,0-.9-1.1-1.5-2.6-1.3-.7,0-2.4.4-4.2,2.5-1.7,2.1-1.9,5.5-1.8,6.5,0,2.7.8,4.3,3.6,4.3"/>
      <path class="st0" d="M109,10.1c.8-3.5.6-5.2.4-6.9-.1-1.1-.5-1.7-1.3-1.7-.5,0-.9.3-1,.8,0,.5.4,1.1.7,2.4.4,1.8.5,5-.4,7.3-.4,1.1-1.1,2-2.2,2s-1.7-.8-2.2-2c-1-2.4-.9-5.5-.4-7.3.3-1.2.8-1.8.7-2.4,0-.5-.4-.8-1-.8-.8,0-1.1.7-1.3,1.7-.2,1.7-.4,3.4.4,6.9.7,2.8,1.7,4.6,3.7,4.6h0s0,0,0,0c0,0,0,0,0,0h0c2,0,3.1-1.9,3.7-4.6"/>
      <path class="st0" d="M84.6,13.4c.6-.6,1.3-1.6,2-3,.3,0,.7.1,1.1.2.5,0,1.2,0,1.6,0,.2,0,.3,0,.4,0v4c0,0,0,.1.1.1h1.1c0,0,.1,0,.1-.1V1.6c0,0,0-.1-.1-.1h-1.1c0,0-.1,0-.1.1-.2.5-2.3,6.2-4.6,8.5,0,0-1.3,1.6-2.7,2.2-1,.4-1.9.6-2,1.3,0,.7.6,1.2,1.5,1.2,1,0,1.9-.4,2.7-1.3M89.7,2.9v7c-.3,0-.7.1-1,.1-.7,0-1,0-1.5,0-.1,0-.2,0-.3,0,0-.2.2-.4.3-.6.6-1.4,1.9-4.6,2.6-6.5"/>
      <path class="st0" d="M121.1,13.6c0-.7-1-.9-2-1.3-1.4-.6-2.7-2.2-2.7-2.2-2.3-2.3-4.4-8-4.6-8.5,0,0,0-.1-.1-.1h-1.1c0,0-.1,0-.1.1v13c0,0,0,.1.1.1h1.1c0,0,.1,0,.1-.1v-4c0,0,.2,0,.3,0,.5,0,1.2,0,1.6,0,.5,0,.8,0,1.2-.2.7,1.3,1.4,2.4,2,3,.8.9,1.7,1.3,2.7,1.3,1,0,1.6-.4,1.5-1.2M114.2,10c-.5,0-.9,0-1.5,0-.4,0-.6,0-1-.1V2.9c.7,1.9,2,5.1,2.6,6.5,0,.2.2.4.3.6-.1,0-.2,0-.4,0"/>
    </g>
    <g>
      <path class="st0" d="M182.8,6.3c0,.1.5.1.6,0,.9,0,1.7,0,2.5,0,0,.1.3,0,.5,0,.8,0,1.4,0,2.2,0,.2,0,.6,0,.7,0,.2,0,.4,0,.6,0,.2,0,.3,0,.5,0,.1,0,.3,0,.4,0,.9,0,1.8,0,2.7,0,.1.1.5.1.6,0,.5,0,1.1,0,1.6,0,0,.1.3.1.4,0,0,0,.2,0,.3,0,.2,0,.3,0,.5,0,.2,0,.3,0,.5,0,.1,0,.4,0,.5,0,.3,0,.6,0,.8,0,0,0,.2,0,.4,0,0,0,0,0,0,0,.1,0,.4,0,.5,0,0,0,0,0,0,0,.2.1.6.1.8,0,.6,0,1.1,0,1.7,0,0,.1.4.1.4,0,0-.1-.2,0-.2,0-.2,0-.4-.2-.6,0h-.2c0-.1-.3-.1-.4,0h-1.4c-.4-.1-1-.1-1.3,0h-1.3c-.1-.1-.5-.1-.6,0-.9,0-1.7,0-2.6,0,0-.1-.3-.1-.4,0-2,0-4,0-6,0-.2,0-.5,0-.6,0,0,0,0,0,0,0,0-.1-.3-.1-.4,0-.4,0-.9,0-1.3,0,0-.1-.3,0-.4,0-1.1,0-2.1,0-3.2,0-.2,0-.5-.2-.7,0,0,.2,1.8,0,2,0Z"/>
      <path class="st0" d="M201.8,29.6c-.7,0-1.4,0-2.1,0-.1,0-.3,0-.3.1,0,.1,2.1,0,2.4,0,.7,0,1.5,0,2.2,0,1.6,0,3.5.4,4.9-.4.4-.2.3-.3.6-.5,0,0-.6.4-.6.5-1.1.7-5.6.4-7.2.4Z"/>
      <path class="st0" d="M195.6,29.6c-1-.1-3.1,0-4.1,0-.1,0-.3,0-.4.2h4.8c0-.1-.3-.1-.4-.1Z"/>
      <path class="st0" d="M163.6,6.3c.1,0,.2,0,.3,0,.2,0,.4,0,.6,0,.2,0,.4,0,.6,0,.2,0,.4,0,.4,0,0,0,.1,0,.2,0,.8,0,1.6,0,2.4,0,.2,0,.3,0,.5,0,.3,0,.6,0,.9,0,.3,0,.5,0,.8,0,.4,0,.9,0,1.3,0,.2,0,.4,0,.6,0,.1,0,.3,0,.5,0,.2,0,.5,0,.7,0,.3,0,.7,0,1,0,.2,0,.4,0,.4,0,.2,0,.5,0,.7,0,.1,0,.3,0,.5,0,.2,0,.6,0,.7,0,.4,0,.5,0,.9,0,.1.1.4,0,.6,0,.1,0,.2,0,.3,0,.1.1.4,0,.6,0,.6,0,1.2,0,1.8,0h0c-.3,0-.6-.2-.8-.2-.2,0-.4,0-.6,0-.2,0-.4,0-.6,0-1,0-2,0-2.9,0-.2,0-.3,0-.5,0,0,0-.1,0-.2,0-1.3,0-2.6,0-3.9,0-.2,0-.4,0-.6,0-.5,0-.9,0-1.4,0-.2,0-.5,0-.7,0-.9,0-1.8,0-2.8,0-.4,0-.7,0-1.1,0h-1.7c-.2.1-.7-.2-.7.2.1.2.9,0,1.2,0Z"/>
      <path class="st0" d="M205.7,6.3c0,.1.3,0,.5,0,0,0,.1,0,.2,0,.1,0,.3,0,.4,0,.1,0,.3,0,.4,0,.1,0,.3,0,.4,0,.1,0,.3,0,.5,0,.8.2,1.7,1,2,1.8.4.9.2,2.6.2,3.6,0,2.4,0,4.9,0,7.3,0,.3,0,.6,0,.9,0,0,0,.3.2.2,0-1.5,0-3,0-4.5,0-.7,0-1.3,0-2,.1,0,0-.3,0-.5,0-.3,0-.6,0-.9,0-.2,0-.4,0-.6,0-.7,0-1.2,0-1.9,0-.1,0-.3,0-.4,0-.8,0-1-.4-1.6,0-.1,0-.3,0-.4-.3-.5-1.3-1.1-1.9-1.2-.3,0-.4,0-.7,0,0-.1-.4-.1-.5,0-1.3,0-2.7,0-4,0,0,0-.3,0-.3.1,1.1,0,2.1,0,3.2,0Z"/>
      <path class="st0" d="M189.5,29.6c-.6,0-1.3,0-1.9,0-.8,0-1.7,0-2.5,0-5.3,0-10.7,0-16,0-7.3,0-14.6,0-22,0-.9,0-2.4.2-3.2,0,0,0-.7-.4-.8-.5-.2-.2-.7-.6-.8-.8-.4-.6-.4-1.4-.4-2.1,0-.5,0-1,0-1.5.1,0,.1-.4,0-.5,0-1.6,0-3.2,0-4.8,0,0,0-.2-.1-.2,0,.2,0,.3,0,.5,0,.3,0,.5,0,.8,0,.3,0,.6,0,.9,0,.2,0,.4,0,.6,0,1.2,0,2.3,0,3.5,0,.2,0,.3,0,.5,0,.2,0,.5,0,.7,0,.2,0,.4,0,.6,0,.6,0,.8.4,1.3.3.5,1.1,1.1,1.7,1.3.7.3,1.6.2,2.3.2.6,0,1.2,0,1.8,0,.2,0,.3,0,.5,0,0,0,.1,0,.2,0,.2,0,.4,0,.6,0,.5,0,1,0,1.5,0,.3,0,.8,0,1.1,0,0,0,.1,0,.2,0,.2.1.5,0,.7,0,.2,0,.6,0,.9,0,.2.1.5,0,.7,0,.2,0,.4,0,.6,0,.1,0,.3,0,.4,0,.1,0,.2,0,.3,0,.1.1.4,0,.6,0,0,0,0,0,0,0,.1,0,.4,0,.5,0,0,0,0,0,0,0,0,.1.5.1.6,0,1.6,0,3.1,0,4.7,0,0,.1.3.1.4,0,.5,0,.9,0,1.4,0,0,.1.5.1.6,0,0,0,.2,0,.2,0,0,.1.5.1.6,0,1.3,0,2.6,0,3.9,0,5.3,0,10.7,0,16,0,.8,0,1.6,0,2.4,0,.7,0,1.4,0,2.1,0,0-.1-.2-.1-.3-.2Z"/>
      <path class="st0" d="M197.5,29.6c-.2,0-.3,0-.4,0,0,0,0,0-.2,0-.1,0-.7,0-.8,0,0,.2.2.1.3.1.2,0,.4,0,.7,0,.6,0,1.4,0,2,0,.1,0,.2,0,.3-.2-.6,0-1.2,0-1.9,0Z"/>
      <path class="st0" d="M142,19v-2.8c-.1,0-.1.3-.1.4,0,.5,0,1,0,1.5,0,.3,0,.4,0,.7,0,0-.1.2.1.1Z"/>
      <path class="st0" d="M141.9,14.8c0,0,0,.2.1.2v-2c-.3,0-.2.5-.2.7,0,.3,0,.8,0,1.1Z"/>
      <path class="st0" d="M143.1,7c0,0,0-.1.1-.2.4-.3.8-.5,1.3-.6,0,0,.3,0,.5,0,0,.1.4.1.5,0,0,0,0,0,0,0,0,0,0,0,0,0,0,.1.3,0,.5,0,.7,0,1.4,0,2.1,0,.2,0,.3,0,.5,0,.8,0,1.6,0,2.4,0,0,0,.2,0,.3,0,0,0,.2,0,.3,0,0,0,.2,0,.2,0,.2,0,.4,0,.6,0,.8,0,1.6,0,2.4,0,.1,0,.3,0,.5,0,0,.1.4,0,.6,0,.1,0,.2,0,.3,0,.3.2.4,0,.6,0,0,0,.2,0,.2,0,.2,0,.4,0,.4,0,.3,0,.6,0,.9,0,0,0,.1,0,.2,0,.4,0,.7,0,1.1,0,.5,0,1,0,1.4,0,0,0,.2,0,.3,0,.3,0,.6,0,.9,0,0-.4-.3-.2-.6-.2-.2,0-.4,0-.7,0-.4,0-.9,0-1.3,0-.1,0-.3,0-.4,0-.2,0-.5,0-.7,0-.1,0-.2,0-.3,0-.2,0-.5,0-.7,0-.4,0-.9,0-1.3,0-.3,0-.7,0-1,0-1.2,0-2.3,0-3.5,0,0,0-.2,0-.3,0,0,0-.2,0-.4,0-1.7,0-3.4,0-5.1,0-.2,0-.4,0-.5,0-.3,0-.5,0-.9,0-.7,0-.7,0-1.3.5-.3.2-.9.7-.9,1.1.2-.4.5-.5.8-.8Z"/>
      <path class="st0" d="M210.2,27.6c-.2.3-.3.5-.5.9.3-.3.4-.6.5-.9Z"/>
      <path class="st0" d="M142,15.1c-.2.2,0,.7-.1,1,0,.2,0,.1.1,0v-1.1Z"/>
      <path class="st0" d="M209.6,28.8s0,0,0,0c0,0,0,0,0,0Z"/>
      <path class="st0" d="M142,9l.2-.9c-.2,0-.2.3-.3.5,0,0,0,.4.1.4Z"/>
      <rect class="st0" x="189.8" y="29.6" width=".5" height=".2"/>
      <path class="st0" d="M190.5,29.8c.2,0,.4,0,.5-.2h-.5s0,.2,0,.2Z"/>
      <path class="st0" d="M141.9,12.9h.1c0-.1,0-.3,0-.4,0-.3,0-.6,0-.9,0-.7,0-1.4,0-2.1,0,0,0-.1,0-.2-.2,0-.2,0-.2.2,0,.4,0,.7,0,1.1,0,.1,0,.3,0,.4,0,.2,0,.3,0,.5,0,.4,0,.7,0,1,0,0-.2.4,0,.4Z"/>
      <path class="st0" d="M209.7,18.6c0-.2,0-.4,0-.6,0-.2,0-.3,0-.6,0,0,0,0,0,0,0-.1,0-.3,0-.4,0,0,0-.1,0-.2,0,0,0-.2,0-.2,0-.4,0-.8,0-1.3,0,0,0,0,0-.3,0,0-.1-.2-.1-.3,0,0,.3-.2.2-.3,0,0-.1,0-.2-.2.2-.1,0-.3,0-.4,0-.2,0-.5,0-.7,0-1.7.4-3.8-.5-5.3l-.2-.2s0,0-.1,0h0c0-.2.2-.3-.2-.5,0,0,0,0,0,0,0,0-.1,0-.2,0-.2,0-.5-.1-.7-.1-2.8,0-5.6,0-8.4.1,0,0,0-.1,0-.1,0,0-.6,0-.8,0-7.9,0-15.9,0-23.7,0-5.4,0-10.9-.1-16.3,0-.1,0-.5,0-.6,0,0,0,0,.2-.2.1v-.2c-3.2,0-6.4,0-9.4,0-1.6,0-4.4-.3-5.2,1.3-.1.3,0,.4-.2.6,0,0,0,.1,0,.2-.2.8-.2,1.2-.2,2,0,4.5.1,9.2,0,13.7,0,.4-.2,1,.2,1.2-.4.1-.1.4-.1.6,0,.5,0,.8.2,1.3.1.3.6.8.9.9.2.3.2.4.6.3,0,0,0,0,0,0,0,0,0,0,.1,0,0,.2.2,0,.3,0,0,0,.1,0,.2,0,0,0,0,0,0,0,0,0,0,0,.2,0,.2,0,.5,0,.7,0,1.3,0,2.5,0,3.8,0,0,0,0-.2.2-.1,0,0,0,.2,0,.2.2,0,.3-.2.5-.2,0,0,0,.2,0,.2,1.8,0,3.6.1,5.3,0,0,0,.5.1.7.1.1,0,.2,0,.3,0,.5,0,1,0,1.5,0,.2,0,.4,0,.6,0,3.4,0,6.7-.1,10.1-.1.7,0,2.1.1,2.7-.1,0,0,0,.1,0,.1.1,0,2.4,0,2.7,0,.6,0,1.2,0,1.9,0,0,0,.1,0,.2,0,.2,0,.4,0,.3-.2.6.2,1.1.1,1.7.2,0,0,.2,0,.2,0,3.8,0,7.8,0,11.8,0,.2,0,.4,0,.7,0,0,0,.2,0,.2,0,.3,0,1,0,1.3,0,.1,0,.2,0,.3,0,.1,0,.2,0,.3,0,1,0,2.1,0,3.2,0,0,0,.1,0,.2,0,.2,0,.5,0,.7,0,0,0,0-.2,0-.2.1,0,.5,0,.7,0,0,0,.2,0,.2,0,.4,0,.9,0,1.3,0,.2,0,.4.2.3,0,.3.1.3.2.6.2,0,0,.2,0,.2,0,.1,0,.2-.2.3-.1,0,0,.2.1.2.1.1,0,.4,0,.5,0,.3,0,.3,0,.6,0,.1.1.5.1.6,0,1.3,0,2.6,0,3.9,0,.2,0,.3,0,.5,0,1.2-.3,1.8-1.3,2-2.4,0-.2.1-.3,0-.4,0-.1.1-.2.2-.3,0,0,0-.2,0-.3,0,0,0,0,0,0,0-.1,0-.2,0-.3,0-1,0-2.1,0-3,0-.9-.2-2.3,0-3,0,0,.2-.3,0-.5ZM208.9,22.8c-.1.9-.1,1.8,0,2.7,0,1.1-.3,2.9-1.7,2.8-.8-.2-1.6-.2-2.4-.2-12,0-24.5.2-36.5.5h-1.3c-1.8-.5-3.7-.4-5.5-.2l-.2.2c0,0-.2,0-.2,0,0,0-.2,0-.2,0-1.8,0-3.6,0-5.4,0-.3,0-.5,0-.7,0-3.2,0-6.3,0-9.4,0-.3,0-1.4-.5-1.6-.7-.1-.2-.2-.6-.2-.9,0,0-.1,0-.2,0,0,0,0-.2,0-.2.2,0,.2-.6,0-.7,0-.1,0-.2,0-.2.2,0,.3-.3,0-.4,0,0,0-.2,0-.3,0-.1.2-.1,0-.4v-.5c.2-.2.2-.5,0-.5,0-.1,0-.3,0-.4,0,0,0-.1.1-.2.2-.4.1-2.7.1-3.4,0-.3,0-.6-.2-.8,0-.1,0-.3,0-.4.2-1.3.2-2.7,0-4,.1,0,.1-.3,0-.4.2-.4.2-.8,0-1.1.2-.1.3-1.1,0-1.2.2-.4.3-1.1,0-1.5.1,0,0-.3,0-.5.2,0,.3-.5,0-.6,0,0,0,0,0,0,0,0,0-.1,0-.2,0-.1,0-.1,0-.2h.2c.1-.8,1.6-1.3,2.2-.9.2,0,.4,0,.6,0,3.4,0,7,0,10.5,0,.2,0,.5,0,.7,0,.2,0,.5,0,.7-.1.1,0,.2,0,.3,0,.3,0,.7,0,1,.1.3,0,.7,0,1,0,3,0,6,0,9,0,.3,0,.7,0,1,0,.3,0,.7,0,1-.1.1,0,.3,0,.4,0,.4.1.7.2,1.1.1,1.3,0,2.7,0,4-.2,0,0,.2,0,.2,0,5.1.3,10.3.3,15.4.3,1.3,0,2.6,0,3.8-.1,0,0,.2,0,.2,0,.6.2,1.3.2,1.9,0,.1,0,.3,0,.4,0,1.5.3,3,.3,4.5,0,0,0,.1,0,.2,0l.2.2c1.2,0,2.4,0,3.5,0h.1c0-.1.1,0,.2,0v.2c1,.6,1.1,1.6,1,2.7,0,3.2,0,6.5,0,9.8,0,.5,0,.8.2.5,0,0,0,.1,0,.2h-.2c-.1.5-.1,1.4.1,1.7Z"/>
      <path class="st0" d="M209.6,28.8s.1,0,.1,0c0,0,0-.2,0-.2-.2.2,0,0-.2.2Z"/>
      <path class="st0" d="M210.4,23.5c0-.2,0-.4,0-.6,0,0,0-.2,0-.3,0-.8,0-1.6,0-2.3h-.1c0,2.3.2,4.4,0,6.6,0,.2,0,.5,0,.7.3-.3.2-2.1.2-2.6,0-.1,0-.3,0-.4,0-.2,0-.4,0-.6,0-.2,0-.3,0-.5Z"/>
      <path class="st0" d="M181,19.9c-.2.1-1.5,3.4-1.7,3.9.2,0,.8,0,.9,0,0,0,.2-.6.3-.7.1-.1,1.6,0,1.9,0,0,0,.3.8.3.8,0,0,.8,0,1,0l-1.7-3.9c-.1-.1-.9-.1-1,0ZM180.9,22.2l.5-1.3c.1,0,.6,1.2.6,1.3h-1.1Z"/>
      <path class="st0" d="M195.8,10.1h.4v-.6c.1.2.1.6.4.6.2,0,0-.7.2-.9h-.4s.2.5,0,.5c0-.3-.2-.5-.6-.5.1.3.1.6,0,.9Z"/>
      <path class="st0" d="M192.3,10.1c.7.2.8-1.2,0-.9-.3,0-.3.8,0,.9ZM192.3,9.3s.2,0,.2.1c.3.3-.4.9-.2-.1Z"/>
      <path class="st0" d="M203.7,10c.2.3.5.2.7-.2,0,0,0,0,0-.1,0,0,0-.1,0-.2-.3-.8-1,0-.7.5ZM204.1,9.9c0,.2-.1,0-.2,0v-.3s0-.2.1-.2c.2,0,.2.4,0,.6Z"/>
      <path class="st0" d="M197.7,9.2s0,.4.1.4c0,0,.2-.4.4-.2,0,0-.3.7-.3.8,0,0,.3,0,.3,0,0,0,.3-.8.3-.9-.1,0-.8,0-.8,0Z"/>
      <path class="st0" d="M205.1,9.2c-.2-.2-.7.8-.3.9.3,0,.7-.2.5-.5,0-.1-.3,0-.1-.5ZM204.9,10s0-.1,0-.2h.2c0,0,0,.3-.2.2Z"/>
      <path class="st0" d="M186.6,9.5c0,.3,0,.4-.2.7h.5s0-.9,0-.9c-.7,0-.2.2-.2.3Z"/>
      <path class="st0" d="M201.3,9.2c-.5,0,0,.6-.3.9.2,0,.4,0,.5-.1-.3-.1,0-.6-.2-.8Z"/>
      <path class="st0" d="M199.4,9.7c0-.1,0-.2,0-.3,0,0,0,0,0,0,0,0,0-.1,0-.2-.1-.1-.7.5-.7.6,0,.1.3.1.5.2-.4,0-.1.2.2.2.1,0,0-.1,0-.2,0,0,.2,0,.2-.1,0,0,0,0,0-.1Z"/>
      <path class="st0" d="M186.3,10c-.3-.1,0-.6-.2-.8-.5,0,0,.6-.3.9.2,0,.4,0,.5-.1Z"/>
      <path class="st0" d="M189.3,9.7c0,0,.2,0,.2,0,0,.6.4.2.2,0-.1-.1-.2,0-.3,0,0,0,0,0,0,0,0-.2,0-.3.3-.2,0,0,0,.2.1.2.3-.5-.2-.3-.6-.3v.6c0,0,.1,0,.2,0Z"/>
      <path class="st0" d="M191.3,9.7c0,0,.2,0,.2,0,.3.4-.4.1-.4.2,0,.4.6.2.6.1,0-.2-.1-.6-.4-.4,0,0,0-.2,0-.2,0,0,.3,0,.4-.1,0,0-.6,0-.6,0,0,0,0,.4.1.5Z"/>
      <path class="st0" d="M187.4,9.6c.4-.1,0-.6-.2-.4,0,0,0,.4.2.4Z"/>
      <path class="st0" d="M202.1,9.8c0-.1.3-.4.2-.5,0,0-.1,0-.1,0,0,0,0-.1,0-.2-.5-.1-.7.5-.3.4,0-.2,0-.3.3-.2,0,.3-.3.4-.4.7,0,.2.1.1.2.1.5,0,.6-.3.2-.3Z"/>
      <polygon class="st0" points="190.2 9.4 190.2 9 190 9 190 9.4 190.2 9.4"/>
      <path class="st0" d="M197.5,9.9v-.2s-.5,0-.5,0c.1.2.3.1.5.1Z"/>
      <rect class="st0" x="205.9" y="9" width=".2" height=".4"/>
      <rect class="st0" x="205.5" y="9" width=".2" height=".4"/>
      <rect class="st0" x="202.5" y="9" width=".2" height=".4"/>
      <rect class="st0" x="194.1" y="9" width=".2" height=".4"/>
      <rect class="st0" x="193.7" y="9" width=".2" height=".4"/>
      <path class="st0" d="M199.7,9.3c-.1.3.5,0,.3-.1,0,0-.3,0-.3.1Z"/>
      <path class="st0" d="M188.5,9.4s0,.5,0,.6c0,0-.1,0,0,.2h.4s-.2-.7-.2-.7c0,0,0,0,0,0,.1-.4-.1-.1-.3,0,0,0,.1,0,.2,0Z"/>
      <path class="st0" d="M176.6,26.3c-.3,0-.3.8,0,.8,1.1.2.9-1.1,0-.8ZM176.9,26.9c-.4.1-.4-.5-.2-.5.4-.1.6.4.2.5Z"/>
      <path class="st0" d="M172.4,26.3c-.4.1-.5.8.1.9,1,0,.8-1.1-.1-.9ZM172.5,26.9c-.2-.1-.2-.4,0-.5.5-.1.5.8,0,.5Z"/>
      <path class="st0" d="M180.9,26.2c-.4,0-.8-.2-.8.3,0,0,.1.2.1.2,0,0-.2.1-.2.3.3,0,.8.1.8-.3,0-.2-.1-.2-.2-.2h0c0-.1.2-.2.2-.4Z"/>
      <path class="st0" d="M174.1,26.6s0,0,0,0c0,0,.2-.2,0-.3-.6,0-.9,0-.6.5,0,0-.1,0-.2,0v.3c.3,0,.8.1.8-.3,0-.2-.1-.2-.2-.2Z"/>
      <path class="st0" d="M175.6,27c-.4,0-.3-.5,0-.6.2,0,.3.2.4.2v-.3c-.4,0-1-.1-.9.4,0,.6.8.5.9.4.3-.4-.3,0-.4,0Z"/>
      <path class="st0" d="M178.9,26.9c0,.3.7.3.9,0,0,0,.1-.1,0-.2-.1-.6-1.3-.6-1,.3ZM179.1,26.4c.1,0,.3,0,.4,0,.5.4-.6.9-.4,0Z"/>
      <path class="st0" d="M171.8,26.7c-.2,0,0,.2-.1.2,0,0-.3,0-.3,0,0,0,0-.6.2-.7h-.4s0,.9,0,.9c.1,0,.6,0,.7,0,0,0,.1-.3,0-.4Z"/>
      <path class="st0" d="M177.9,26.3c-.4.2-.2.7,0,.6,0,0,0-.4,0-.5.2,0,.7.2.6-.2-.3,0-.5,0-.7,0Z"/>
      <path class="st0" d="M178.3,27c-.2,0-.3,0-.6,0,0,.3.5.2.6.1.1,0,0,0,.1-.1.2-.2,0-.2-.2,0Z"/>
      <path class="st0" d="M154.4,9.2c-.4,0-.4,0-.5.3-.2.3-.2-.2-.3-.3,0,0-.5,0-.4.1,0,.2.3.6,0,.7h.5c0,.1-.2-.4-.2-.4.2,0,.2.4.4.4,0,0,0-.4.3-.4v.5c0,0,.2,0,.2,0,.2-.2,0,0,0-.2,0,0,0-.1,0-.1,0-.1,0-.3,0-.4,0,0,.1-.1,0-.2Z"/>
      <path class="st0" d="M149.5,9.2s.2.5,0,.5c0-.3-.2-.5-.6-.5.1.3.1.6,0,.9h.4v-.5c0,0,.2.4.3.5.6.3,0-.7.5-.8-.1-.2-.3-.1-.5-.1Z"/>
      <path class="st0" d="M155.8,10.1h.5s0-.4,0-.4c.2.2.2.5.6.4,0-.2,0-.1-.1-.2-.2-.2,0-.3,0-.4,0-.5-.9-.4-.9-.2,0,0,.2.3.2.6,0,0-.2,0-.2.2ZM156.5,9.4l-.3.2c0-.3,0-.2.3-.2Z"/>
      <path class="st0" d="M152.1,9.2h-.6c.1.4-.1.6-.2.9h.5c0-.3-.2-.3.2-.3v.3c0,0,.4,0,.4,0,0-.3-.4-.6-.2-.9Z"/>
      <path class="st0" d="M155.1,10.1h.5c0-.4-.4-.6-.2-.9h-.6c0,.2,0,.5,0,.7,0,0-.2,0-.2.2h.5c-.3-.5.4-.5.2,0Z"/>
      <path class="st0" d="M148.4,9.2h-.6c.2.4-.2.6-.2.9h.4s0-.3,0-.3c.4,0,.5,0,.3.3h.5s-.3-.6-.3-.6v-.3Z"/>
      <path class="st0" d="M161.5,10.1c1,.3,1-1.1,0-.9-.5.1-.5.8,0,.9ZM162,9.9c0,.1-.4.1-.5-.1-.2-.5.8-.4.5.1Z"/>
      <path class="st0" d="M150.1,9.2c0,0,0,.3,0,.3.1.2.1-.3.3-.2,0,.2,0,.4,0,.5,0,0-.2,0-.2.2h.5c0-.2-.2-.1-.2-.2,0,0,0-.1,0-.2,0-.1,0-.2,0-.3.2,0,.1.2.3.2v-.4c-.1,0-.9,0-.9,0Z"/>
      <path class="st0" d="M163.3,10.1v-.4c-.5.6-.4,0-.3-.6h-.4c0,.3.1.6,0,.9h.7Z"/>
      <path class="st0" d="M157.4,9.4s0,.4,0,.6c0,0-.1,0-.2,0,0,.3.3.1.5.2,0,0-.2-.2-.2-.2,0,0,0-.5,0-.6,0,0,.4.2.3-.2h-.9s0,.4,0,.4c.2,0,.2-.3.4-.2Z"/>
      <path class="st0" d="M161,9.8c-.5.1-.4.3-.7-.2,0-.4.4-.4.6,0v-.4c-.3.1-.4-.2-.7.2,0,0-.2,0-.2.3,0,.9,1.2.4,1,.2Z"/>
      <path class="st0" d="M147.2,9.6c-.1,0-.2-.1-.4,0,0-.5.2-.1.4-.2,0,0,.2-.2,0-.2-.5-.1-.9.4-.1.6,0,0,0,.1,0,.2-.3,0-.6-.2-.5.2.2,0,.4,0,.6,0,0,0,.2-.2.2-.2,0-.2-.1-.2-.2-.2Z"/>
      <path class="st0" d="M158.5,10.1s0-.1,0-.2c0,0,0,0,0,0,0,0,.1-.5.2-.5,0,0,.3.1.4-.1-.7-.4-.5.2-.7.7,0,0-.1,0,0,.2h.3Z"/>
      <path class="st0" d="M158.9,10s-.2.1,0,.2h.4s0-.1,0-.2c0,0-.3-.3-.3-.2,0,0,0,.2,0,.2Z"/>
      <path class="st0" d="M171.9,21.4c0-.8-.5-1.4-1.2-1.5-.7,0-1.5,0-2.2,0v3.9h.9s0-1,0-1c1.1,0,2.4,0,2.5-1.4ZM169.3,22v-1.3c.3,0,.8,0,1.1,0,0,0,0,0,0,0,.2,0,.4.3.4.5.1.9-1,.8-1.6.8Z"/>
      <path class="st0" d="M192.5,19.9l-1.7,3.9c.2,0,.8,0,.9,0,0,0,.2-.6.3-.7,0,0,1.6,0,1.8,0,.2,0,.3.7.4.8.1,0,.8,0,1,0l-1.7-3.9h-1ZM192.4,22.2c.1-.4.5-.9.5-1.3,0,0,0,0,0,0,0,0,.1,0,.2,0l.6,1.4h-1.2Z"/>
      <path class="st0" d="M188.3,19.9c-.2.1-.8,1.6-1,1.6-.3-.2-.9-1.6-1-1.6,0,0-.8,0-.9,0-.1,0-.1,0-.1.1l1.5,2.4v1.4h.9v-1.4l1.5-2.6c-.2,0-.8,0-.9,0Z"/>
      <path class="st0" d="M175.1,23.8s0,0,.1,0c.4,0,.8,0,1.3,0,0,0,.1,0,.2,0,.2,0,.5,0,.7,0,0-.2,0-.6-.1-.8h-1.9v-3.1c-.2,0-.7,0-.9,0-.2.1,0,3.4,0,3.9.2,0,.5,0,.7,0,0,0,0,0,0,0ZM176.6,23.6c0,0-.1,0-.1.1,0,0,0-.1.1-.1Z"/>
      <path class="st0" d="M157.8,20.3v2.3h1.5s.3-.1.4-.2c.5-.3.7-1.2.2-1.7,0,0-.6-.4-.7-.4h-1.4ZM158.3,22.2v-1.3c1.6-.3,1.6,1.6,0,1.3Z"/>
      <path class="st0" d="M162.1,22.1v-.5s1,0,1,0v-.3s-1,0-1,0v-.5h1.2v-.5h-1.7v2.3h1.8c.1-.8-.8-.3-1.3-.5Z"/>
      <path class="st0" d="M157.8,23.4v.4h5.6v-.4c-1.9,0-3.7,0-5.6,0Z"/>
      <path class="st0" d="M168.8,14.8c.4.3.8,1.5,1.1,1.8.1.1.4,0,.5,0,.2-.2.8-1.3,1-1.7l.2.2c0,.7,0,1.3,0,2,0,0,.1,0,.2,0,.1,0,.3,0,.4,0,.1,0,.2,0,.3,0,0-.2,0-.3,0-.5,0,0,0,0,0,0,0,0,0-.1,0-.3,0-.2,0-.5,0-.6,0,0,0,0,0,0,0,0,0-.2,0-.4,0-.7,0-1.4,0-2h-.9s-1.4,2.4-1.4,2.4l-1.4-2.3h-.9s0,3.9,0,3.9h.9v-2.2ZM172,16.3s0,0,0,0c0,0,0,0,0,0,0,0,0,0,0,0Z"/>
      <path class="st0" d="M162.6,13.1c-.5,0-.5.2-.7.4,0,0-.1,0-.2,0-1.3.9-1,2.8.4,3.4,3.6,1.5,4.4-4.6.4-3.9ZM163.7,16.2c-1.3.6-2.3-.9-1.5-2,.4-.5,1.4-.5,1.8,0,.6.6.4,1.7-.3,2Z"/>
      <path class="st0" d="M197,13.3c0,0-.5-.2-.5-.2h-2.3c.1,1-.1,2,.1,3,0,.2-.2.9,0,1,.1,0,.3,0,.3,0,.1,0,.4.1.6,0-.1-.3,0-.7,0-1h0c.2,0,.6-.1.8,0,.2.1.5,1,.8,1,.3,0,.7,0,1,0l-.9-1.2c1-.4,1.1-2,.2-2.5ZM196.3,15.1c-.4.2-.8,0-1.2,0,.1-.4,0-.9,0-1.3.3,0,.8,0,1.1,0,.5.1.6,1,0,1.2Z"/>
      <path class="st0" d="M184.1,13.4c-.1,0-.7-.3-.8-.3h-2.4v3.9h2.3s.6-.2.6-.2c1.3-.6,1.4-2.6.2-3.4ZM183.1,16.2c-.4,0-.8,0-1.2,0h0c0-.3,0-.5,0-.7.1,0,0-.2,0-.3,0-.2,0-.3,0-.4,0,0,0-.2,0-.2,0,0,0-.1,0-.2,0,0,0-.1,0-.2,0-.1,0-.2,0-.3.3,0,.6,0,.9,0,.1,0,.2,0,.3,0,1.2.2,1.3,2.1,0,2.3ZM184.5,14.1h-.3c0,0,0-.4.2-.2,0,0,0,.2,0,.2Z"/>
      <path class="st0" d="M158.8,16.4c0,0-.5-.5-.6-.5-.1,0-.4.5-1,.5-1.7,0-1.6-2.7,0-2.5.5,0,.8.4.9.4.1,0,.6-.4.6-.6-.4-.8-2.1-.8-2.7-.3,0,0-.1.2-.2.2-.3.2-.7.5-.8,1-.3,1.7.8,2.9,2.5,2.6.3,0,1.2-.4,1.2-.7Z"/>
      <path class="st0" d="M191.6,15.7c0,0,0-.2,0-.3,0,0,0-.1,0-.2,0-.1,0-.2,0-.3-.1-2.2-3.4-2.7-4.1-.5,0,0-.1,0-.2.3-.1.7,0,1.1.5,1.7.3.4.4.6.9.7.2,0,.3,0,.5,0,.2,0,.4,0,.6-.2,0,0,.1,0,.2,0,.1,0,.3,0,.4-.2,0,0,0,0,0,0,.4,0,1-.8,1.1-1.2ZM188.9,16h-.2c0,0-.2-.1-.2-.2,0,0-.1-.3-.2-.3,0,0,0-.1,0-.2,0,0,0-.4,0-.5.2,0,.4-.4.2-.6,0,0,0-.1,0-.2h.2c2.3-1.2,2.3,2.9,0,1.9Z"/>
      <path class="st0" d="M178,17c.1,0,.2,0,.3,0,0-.1,0-.7,0-.7-.1-.1-1.9,0-2.2,0,0,0,0-.2,0-.2.2,0,0-.2,0-.2,0,0,0-.2,0-.2,0,0,0-.1,0-.2,0,0,0,0,0,0,0,0,.2,0,.2,0,.1,0,.2,0,.3,0,.2,0,.3,0,.5,0,0,0,.2,0,.2,0,0,0,.1,0,.2,0,.5,0,.3-.3.3-.7-.3,0-1-.2-.8.3,0,0,0,0,0,0,0,0-.2-.2-.2-.2.1,0,.2,0,.2,0-.2.1-.9-.1-.9,0,0,0,0-.2,0-.2,0,0,0-.1,0-.2,0,0,0-.2,0-.3.3,0,2,0,2,0,0,0,0-.6,0-.7h-3v3.9c0,0,.1,0,.2,0,.2,0,.3,0,.4,0,.4,0,.8,0,1.2,0,0,0,.1,0,.2,0,.2,0,.4,0,.6,0,0,0,.1,0,.2,0ZM176.6,14.9s0,0,.1,0c0,0-.2,0-.2,0,0,0,.1,0,.1,0ZM175.4,15.7c0,.1,0,0,.2,0h0c0,0,0,0,0,.1h0s0,0-.1,0c0,0,0,0,0,0,0,0,0,0,0,0Z"/>
    </g>
    <g>
      <polygon points="232.1 25 232.1 24.9 233.1 24.9 234.3 28.5 235.5 24.9 236.5 24.9 234.9 29.5 233.7 29.5 232.1 25"/>
      <path d="M244.4,35.3h-.2c-.9,0-1.5-.8-1.6-1.7s.8-1.8,1.8-1.7,1.5.8,1.5,1.7-.7,1.6-1.6,1.7ZM245.6,33.6c0-.7-.6-1.3-1.3-1.3s-1.3.6-1.3,1.3.6,1.3,1.3,1.3,1.3-.6,1.3-1.3Z"/>
      <path d="M248.3,35.3h-.2c-.3,0-.9-.3-.9-.7,0,0,.2,0,.3-.1.1.3.4.5.7.5s.5-.2.5-.4c.3-1-1.8-.7-1.5-2s.4-.6.8-.6.9.2,1,.6h-.3c-.1-.2-.4-.3-.7-.3s-.3.1-.4.3c-.3.6.6.8,1,1.1s.5.6.4,1-.5.6-.9.6Z"/>
      <path d="M260.5,35.3h-.2c-.3,0-.9-.3-.9-.7,0,0,.2,0,.3-.1.1.3.4.5.7.5s.5-.1.5-.4c.3-1-1.7-.7-1.5-2s.4-.6.8-.6.9.2,1,.6h-.3c-.1-.2-.4-.3-.7-.3s-.4.1-.4.3c-.2.6.6.8,1.1,1.1s.5.6.4,1.1-.5.5-.9.6Z"/>
      <path d="M256.2,3.5c-.7.2-1.6,2.9-1.8,3.5l-1,3.2-.8,2.6c-.1.4-.3.8-.4,1.2s-.3.3-.4.3c-.5.1-.8-.6-1-1-.3-.7-.5-1.4-.8-2.1l-1.3-4c-.4-1.2-.8-2.3-1.2-3.5s-.5-1.2-.8-1.8-.5-.8-.7-.8-.4.8-.4,1c-.1,2.9,1.7,8.7,2.6,11.6s0,.4-.2.5-.4,0-.5,0c-.4-.4-2.2-1.9-2.5-1s.3,2.5.7,3.3,0,.4,0,.5-.4.1-.6,0c-.4-.4-.9-.7-1.4-1s-.8-.4-1-.2,0,.7,0,1c.4,1.3,1.3,2.9,2,4.1s0,.4-.2.5-.4,0-.6-.1c-.6-.9-1.1-1.9-1.6-2.9s-.7-1.8-.6-2.5.6-1,1.2-.9.9.3,1.4.6c-.3-.8-.5-1.8-.1-2.6.3-.6.8-.9,1.5-.8s.8.3,1.3.6c-.5-1.7-1-3.3-1.4-5s-.5-2.1-.6-3.2-.3-2.5.1-3.4.5-.7,1-.7c.7,0,1.2.9,1.5,1.5.8,1.4,1.5,3.7,2.1,5.3l1.2,3.7c.2.8.5,1.5.8,2.3l.8-2.5,1.1-3.7c.3-.9.6-1.7.9-2.5s.7-1.5,1.3-1.8,1-.1,1.3.3.2.5.3.8c.2,1.2,0,3-.2,4.3-.4,2.5-.9,4.9-1.7,7.3s-.6,1.6-.9,2.4c1,.4,2.1.4,3-.3l-.5-.5s0-.1,0-.1h1.7c0,0,0,1.7,0,1.7,0,0-.1,0-.1,0l-.5-.5c-1.2.9-2.5,1-3.9.4-.2.4-.5.8-.9,1.1-1.8,1.3-3.9-.9-4.7-2.5s-.3-.8-.2-1.2c.1-.6.6-1.1,1.3-1.2.9-.2,1.9.3,2.5,1l.9.9c.3.3.5.5.8.8.4-.9.7-1.7.9-2.6.7-2.3,1.2-4.6,1.6-7s.5-3.8,0-4.4ZM253.4,18.2c-.5-.3-.9-.7-1.2-1.1-.6-.6-1.2-1.4-2.1-1.5s-.8.2-.9.5,0,.5.1.7c.4.9,1.4,2,2.4,2.4s1.4-.3,1.7-.9Z"/>
      <path d="M268.3,27.2c0,1.3-1.1,2.4-2.4,2.4s-2.4-1.1-2.4-2.4,1.1-2.4,2.4-2.4,2.4,1.1,2.4,2.4ZM267.2,27.9c.3-.5.2-1.1,0-1.6s-.7-.6-1.2-.6-.9.2-1.1.6-.3,1.2,0,1.7.7.7,1.2.7.9-.3,1.2-.8Z"/>
      <path d="M261.7,29.5h-1.1s-.9-1.8-.9-1.8h-.5s0,1.8,0,1.8h-1s0-4.6,0-4.6h1.6c.3,0,.5,0,.7.2.3.1.5.4.6.7.2.6,0,1.5-.6,1.8l1.1,2ZM260.4,26.3c0-.3-.2-.5-.5-.6s-.4,0-.6,0v1.2s.5,0,.5,0c.4,0,.6-.3.6-.6Z"/>
      <path d="M245.1,28.4h-1.7s-.3,1.1-.3,1.1h-1s1.6-4.6,1.6-4.6h1.1s1.6,4.6,1.6,4.6h-1s-.3-1.1-.3-1.1ZM244.9,27.7l-.6-1.9-.6,2h1.2Z"/>
      <polygon points="255.4 27.6 254.2 27.6 254.2 28.6 255.6 28.7 255.6 29.5 253.2 29.5 253.2 24.9 255.6 24.9 255.6 25.7 254.2 25.8 254.2 26.7 255.3 26.8 255.4 27.6"/>
      <path d="M248.4,29.5v-.8c.1,0,.4,0,.4,0,.2,0,.5-.2.5-.5v-3.3s1,0,1,0v3.6c0,.5-.4.8-.8.9s-.7,0-1.1,0Z"/>
      <rect x="238.9" y="24.9" width="1" height="4.6"/>
      <polygon points="241.3 35.2 240.9 35.2 240.9 33.8 239.2 33.8 239.2 35.2 238.8 35.2 238.8 32 239.2 32 239.2 33.4 240.9 33.4 240.9 32 241.3 32 241.3 35.2"/>
      <polygon points="255.2 33.8 254.2 33.8 254.1 34.9 255.4 34.9 255.4 35.3 253.8 35.3 253.8 32 255.3 32 255.3 32.3 254.1 32.4 254.1 33.4 255.2 33.4 255.2 33.8"/>
      <polygon points="251.6 35.2 251.2 35.2 251.2 32.4 250.3 32.3 250.3 32 252.4 32 252.4 32.3 251.6 32.4 251.6 35.2"/>
      <polygon points="258.4 34.9 258.4 35.3 256.8 35.3 256.8 32 257.2 32 257.2 34.9 258.4 34.9"/>
    </g>
    <g>
      <circle class="st0" cx="31.2" cy="21.8" r=".1"/>
      <path class="st0" d="M39.1,14.6h-.9l1.6,3.4.8-1.8c.3-.7,0-1.7-.9-1.6,0,0,0,0,0,0h2.5c0,.1,0,0,0,0-.6.2-.9.7-1.2,1.2l-2,4.4c-.1,0-.6,0-.7,0l-2.7-5.6h-.5s0,0,0,0h4s0,0,0,0Z"/>
      <g>
        <path class="st0" d="M27.7,12.7h0c0,0-1.1,0-1.1,0l2,4.6,1-2.6c.2-.7,0-1.9-.8-2.1s-.3,0-.3,0h3c0,.1-.1,0-.2,0-.5.1-1.2,1.2-1.4,1.7l-2.3,5.7h-.8s-3.2-7.4-3.2-7.4h-.5s0,0,0,0h4.7Z"/>
        <g>
          <path class="st0" d="M34.5,14.3v5.8h.8s0,0,0,0h-3.8c0,0,.7,0,.7,0v-5.5h-.7,0c1,0,2,0,3-.3Z"/>
          <path class="st0" d="M32.1,14c0,0,.2-.1.3-.2.5-.5.7-2.3,1.7-2s.4.5.4.8c-.1,1-1.5,1.4-2.3,1.4Z"/>
        </g>
      </g>
      <path class="st0" d="M51.8,11.8v8.3h.7c0,0-3.8,0-3.8,0,0,0,0,0,0,0h.8v-7.3h-.7s0,0,0,0c.9,0,1.8-.1,2.6-.6l.5-.4Z"/>
      <path class="st0" d="M55.6,14.4c2.2-.2,3.8,1.2,3.6,3.5-.2,2-2,2.8-3.8,2.5-3.5-.5-3.4-5.7.3-6ZM56.3,14.5c-.5-.5-.7.6-.8.9-.2,1-.2,3.5,0,4.5s.7.7.9,0c.3-1,.3-3.2.1-4.2s-.1-1-.3-1.2Z"/>
      <path class="st0" d="M44.8,14.4c2.5-.2,4.1,1.6,3.5,4.1s-5.5,2.7-6.1-.1.6-3.8,2.7-4ZM45.3,14.4c-.2,0-.3.3-.4.5-.3.9-.3,3.2-.2,4.2s.2,1.2.5,1.3.3,0,.5-.2c.4-.8.3-3.7.2-4.6s-.2-1.1-.6-1.1Z"/>
      <path class="st0" d="M41.6,22.2h.2s0,.1,0,.1c.3-.2.6-.2.8,0,.2-.2.6-.3.8,0s.1.2.1.2v.8h-.2v-.8s0-.2-.1-.2c-.1,0-.3,0-.4,0s0,.2,0,.2v.8h-.2v-.8c0-.1-.2-.2-.3-.2s-.3.1-.3.2v.8h-.2v-1.2Z"/>
      <path class="st0" d="M44.3,21.7v.6c.5-.5,1.3,0,1,.7s-.7.4-1,.1v.2s-.2,0-.2,0v-1.7h.2ZM44.5,22.3c-.4,0-.4.9.1.8s.5-1-.1-.8Z"/>
      <path class="st0" d="M26.9,22.1h.2s0,.2,0,.2c.1,0,.2-.1.3-.2.4,0,.8.2.7.7s-.7.7-1,.4v.6h-.2v-1.6ZM27.4,22.3c-.4,0-.4.9.1.8s.5-.9-.1-.8Z"/>
      <path class="st0" d="M26.5,22.1c-.2-.2-1-.2-.8.2s.9,0,.9.6-.5.5-.9.4-.5-.1-.3-.4c.2.2,1,.3.9-.1s-.8-.1-.9-.5c-.1-.6.7-.7,1.1-.4v.2Z"/>
      <path class="st0" d="M36.7,22c.3-.3.9-.3,1.2,0v.2c-.5-.3-1.1-.2-1.2.3s.6.9,1.1.5h.1c-.2.4-.7.4-1,.3-.4-.2-.5-.9-.2-1.3Z"/>
      <path class="st0" d="M50.3,21.8c0,0,.2,0,.3,0,.1,0,.6.2.4.3s-.3-.1-.5-.1c-.9,0-.9,1.4,0,1.2s.3-.2.4,0-.2.3-.3.3c-1.3.2-1.4-1.4-.4-1.6Z"/>
      <path class="st0" d="M56.8,22.8h-.9c0,.4.5.4.8.2v.2c-.2.3-.9.2-1-.3-.1-.9,1.3-1,1.2,0ZM56.6,22.7c0-.4-.7-.5-.8,0h.8Z"/>
      <path class="st0" d="M55.4,22.8h-1c0,.2.2.4.5.3s.3-.2.4,0c-.3.3-1,.2-1.1-.3-.2-1,1.2-1,1.2,0ZM55.2,22.7c0-.5-.7-.5-.8,0h.8Z"/>
      <path class="st0" d="M29.5,22.8h-1c0,.2.2.4.5.3s.3-.2.4,0c-.3.3-1,.2-1.1-.3-.1-1,1.3-1,1.2,0ZM29.3,22.7c0-.5-.7-.5-.8,0h.8Z"/>
      <path class="st0" d="M47.2,23.3h-.2s0-.1,0-.1c-.3.3-.9.2-.8-.3s.2-.2.3-.2h.5c0-.3-.2-.4-.4-.3s-.3.2-.3,0c.2-.2.8-.2.9,0s0,.2,0,.2v.8ZM46.9,22.8h-.5c-.1,0-.2.3,0,.3s.6,0,.5-.3Z"/>
      <path class="st0" d="M32.7,23.3h-.2s0-.1,0-.1c-.3.3-1,.1-.8-.3s.2-.2.3-.2h.5c0-.4-.4-.4-.7-.2-.2-.3.4-.3.6-.3s.4.2.4.3v.9ZM32.5,22.8h-.5c-.1,0-.2.4.2.4s.4-.1.3-.4Z"/>
      <path class="st0" d="M41.3,22.7c0,.3-.3.6-.6.6s-.6-.3-.6-.6.3-.6.6-.6.6.3.6.6ZM40.6,22.3c-.4,0-.4.9.1.8s.5-1-.1-.8Z"/>
      <path class="st0" d="M39.3,22.7c0,.3-.3.6-.6.6s-.6-.3-.6-.6.3-.6.6-.6.6.3.6.6ZM38.6,22.3c-.5,0-.4.9.1.8s.5-.9-.1-.8Z"/>
      <path class="st0" d="M52.4,22.7c0,.3-.3.6-.6.6s-.6-.3-.6-.6.3-.6.6-.6.6.3.6.6ZM52.2,22.7c0-.2-.2-.4-.4-.4s-.4.2-.4.4.2.4.4.4.4-.2.4-.4Z"/>
      <path class="st0" d="M35.1,23.1s0,0,0,0c0-.2.2-.7.4-.8s.1,0,.2,0c0,0,0,0,0,.1,0,.2-.5,1.2-.6,1.4s-.4.2-.6.1,0-.1,0-.2c.2.1.4,0,.5-.2l-.5-1.1c0,0,.2,0,.2,0l.4.9Z"/>
      <path class="st0" d="M47.6,22.1h.2s0,.2,0,.2c.2-.2.6-.3.8,0s.1.2.1.3v.8h-.2v-.8c0-.2-.4-.3-.6-.1s-.1.2-.1.3v.6h-.2v-1.2Z"/>
      <path class="st0" d="M53.6,22.3h-.2s0-.2,0-.2h.2c0-.4.3-.6.7-.4h0c-.3,0-.4.1-.3.4h.3s0,.2,0,.2h-.3s0,1,0,1h-.2v-1Z"/>
      <path class="st0" d="M30.2,22.1c.2,0,.5,0,.6.2h-.1c-.7-.5-1.1.9-.3.8s.3-.3.5,0c0,.1-.2.2-.3.2-1,.2-1.1-1.1-.3-1.2Z"/>
      <path class="st0" d="M52.8,22.3h-.2s0-.2,0-.2h.2c0-.4.3-.6.6-.4v.2c-.3,0-.4,0-.4.3h.3s0,.2,0,.2h-.4v1h-.2v-1Z"/>
      <path class="st0" d="M34,21.9v.3c.2,0,.4,0,.3.2h-.3c0,.3-.2,1.1.4.8h0c-.1.3-.5.2-.6,0s0-.8,0-.9c-.3,0-.3-.2,0-.2v-.3s.2,0,.2,0Z"/>
      <rect class="st0" x="39.6" y="21.7" width=".2" height="1.7"/>
      <rect class="st0" x="33.1" y="21.7" width=".2" height="1.7"/>
      <path class="st0" d="M45.8,23.3h-.2v-1.2c0,0,.2,0,.2,0v1.2Z"/>
      <rect class="st0" x="31.1" y="22.1" width=".2" height="1.2"/>
      <circle class="st0" cx="45.7" cy="21.8" r=".1"/>
      <path class="st0" d="M13.4,15.8c.3-.2.5-.1.8-.1s.3-.1.4.1c-.3.4-.9.3-1.2,0Z"/>
      <path class="st0" d="M14.4,15v-1.3c0-.1,0,0,0,0,0,.2.1,1.1,0,1.2s-.5,0-.7.1c0,0,0-.2,0-.2h.5Z"/>
      <path class="st0" d="M13.7,14c.1.1-.4.3-.5.3-.1,0-.6,0-.5-.3.2,0,.4.1.6,0s.2-.1.3,0Z"/>
      <circle class="st0" cx="11" cy="15.5" r=".1"/>
      <path class="st0" d="M12,6.2c4.6-.3,8.4,3.1,8.7,7.7-.1,2.7.1,5.5,0,8.2-.3,4.7-4.6,8.2-9.3,7.6-3.8-.5-6.8-3.8-7-7.6s.1-5.6,0-8.3c.2-4,3.5-7.3,7.6-7.6ZM10,18.1c0-.3,0-.5,0-.8s.1-.4.2-.5c0-.2.2-.3.3-.4-.8-1.2-.9-2.9-.4-4.2s.9-1.3,1.6-1.2.5.2.8.2c0,0,.2-.3.1-.3,0-.1-.3-.6-.3-.8-.5-1.9,1.5-1.3,2.3-2s.6-.7.7-1,0,0,0,0c0,0-.8-.3-1-.3-2.1-.5-4.2,0-6,1.1.6.5.9,1.2,1.1,1.9-.4,0-.9,0-1.3,0,.2.7-.2,1.5-.9,1.7s-.4,0-.3.1c.7.6.8,1.7.8,2.6-.8.1-1.5,0-2.2-.3s-.4-.2-.5-.2,0,0,0,0v1.6c.6.2,1.2.4,1.8.7,1.2.5,2.4,1.3,3.4,2.2.1,0,0,0,0,0ZM5.6,10.7c-.2.3.2.6.4.7,1.1.5,2.2-.6,1.7-1.7s-.5-.7-.9-.7l-.2.2c1.4.2,1.2,2.3-.3,2.1s-.5-.3-.8-.5,0,0,0,0ZM19.2,10.1c-1.1.5-.4,2.2.8,1.8h0c-1,.3-1.7-1.1-.8-1.6h0ZM12.3,16.7c.6.1,1.7.7,2.3.3s1.1-1.7,1.2-2.4c.1-1.1,0-3.5-1.8-3.2s-2.1,1.6-2.5,2.8c-.4-.2-1-.5-1.2.1s.2,1.7,1.1,1.7c-.1.9-.2,1.8-.3,2.7s0,.2,0,.3c.4.6.9,1.1,1.1,1.8.9-.4,1.8-.7,2.8-1l-1.2-.9v-.6c-.8-.2-1.2-1-1.3-1.7ZM14.7,20.1c-.2,1.4,1.8,1.8,2.3.5s.1-.7,0-.9-.2,0-.2,0c.1.4.2.7-.1,1.1-.6.8-2,.2-1.8-.8h-.2ZM19.3,22.4h0c0-.2-.5,0-.6,0s-.5-.3-.6-.2h0c.2.2.5.2.6.5,0-.3.3-.3.6-.4ZM18.2,23c-.3,0-.6.2-.8.4-.2-.2-.5-.3-.8-.4v.2c.3,0,.7.1.8.5.1-.3.5-.4.8-.5v-.2ZM18.1,27.2c-1.7.4-3.4,0-4.8-.9-1.5-.9-2.7-2.7-4.7-1.7s-.8.5-.9.7,0,0,0,0c.1,0,.3-.1.5-.1,1.9-.4,3.1,1.3,4.6,2.1s3,1.1,4.2.7.8-.6,1.1-.9ZM19.8,24.7c-1.5.4-3.1-.2-4.7,0s-1.8.5-2.4,1.2l.9.6c.8-.5,1.7-.5,2.7-.4s1.3.2,1.9.2.6,0,.8,0,.3-.5.4-.6c.2-.3.3-.6.5-.9ZM16.7,28.3c-1.4.2-2.8,0-4-.7s-2.8-2.8-4.9-2-.9.5-1,.9,0,0,0,0c.1,0,.2,0,.3,0,2-.5,3.1,1.3,4.7,2.2.8.4,2.1.9,3,.7s1.3-.5,1.9-.9ZM18.9,26.3c-1.7,0-3.5-.7-5.1.1,1.2.7,2.7,1,4,.7s.5,0,.7-.4.3-.3.4-.5ZM14,29.3c-1.1-.2-2.1-.6-3-1.2-1.2-.8-2.2-2-3.8-1.7s-.4.1-.6.2c0,0,0,0,0,0,.1.2.4.5.6.6,1.6,1.5,3.7,2.3,5.9,2.1h.9Z"/>
    </g>
  </g>
</svg>