<?xml version="1.0" encoding="UTF-8"?>
<svg id="Arte" xmlns="http://www.w3.org/2000/svg" version="1.1" viewBox="0 0 331 35.8">
  <!-- Generator: Adobe Illustrator 29.0.0, SVG Export Plug-In . SVG Version: 2.1.0 Build 186)  -->
  <defs>
    <style>
      .st0 {
        fill: blue;
      }
    </style>
  </defs>
  <g>
    <path class="st0" d="M28.3,31.1H3.6l-1,4.1c0,.4.2.7.6.6l12.7-2.9,12.7,2.9c.4,0,.7-.3.6-.6l-1-4.1Z"/>
    <path class="st0" d="M31.4,9.6h-11L16.5,0c0-.1-.3,0-.3,0v9.5h0v20.4c0,.3.2.5.5.5h14.6c.3,0,.5-.2.5-.5V10.1c0-.3-.2-.5-.5-.5ZM30.9,29.1h-5.7l-4.1-12.9h-.2v12.9h-3.6V11.5h5.7l4,12.9h.2v-12.9h3.6v17.7Z"/>
    <path class="st0" d="M15.6,30V.1c0-.1-.2-.2-.3,0l-3.8,9.5H.5c-.3,0-.5.2-.5.5v19.9c0,.3.2.5.5.5h14.6c.3,0,.5-.2.5-.5ZM7.8,29.6c-3.6,0-6.8-2.4-6.8-6.2v-11.9h4.1v12.4c0,1.5,1.3,2.5,2.6,2.5s2.6-.9,2.6-2.5v-12.4h4.1v11.9c0,3.9-3.2,6.2-6.8,6.2Z"/>
  </g>
  <g>
    <g>
      <path class="st0" d="M243.2,28.6h-6.2v-14.5h6v2.2h-3.4v3.6h2.6v2.2h-2.6v4.4h3.6v2.2Z"/>
      <path class="st0" d="M249.8,28.6h-5.6v-14.5h2.6v12.4h3v2.2Z"/>
      <path class="st0" d="M255.4,28.6h-2.6v-14.5h2.6v14.5Z"/>
      <path class="st0" d="M263.7,28.6h-1.9l-1.6-4.5c-.5-1.4-1.1-3.5-1.4-4.5,0,1.1,0,3,0,4.3v4.7h-2.4v-14.5h2.3l1.3,3.5c.4,1.2,1,3.1,1.3,4.2,0-1,0-3,0-4.1v-3.7h2.4v14.5Z"/>
      <path class="st0" d="M270.8,16.2h-3.5v3.6h2.6v2.2h-2.6v6.6h-2.6v-14.5h6.1v2.2Z"/>
      <path class="st0" d="M278.6,21.3c0,5.1-.9,7.5-3.8,7.5s-3.7-2.4-3.7-7.5.9-7.5,3.7-7.5,3.7,2.5,3.7,7.5ZM276,21.4c0-4.4-.3-5.4-1.1-5.4s-1.1.9-1.1,5.3.3,5.4,1.1,5.4,1.1-.9,1.1-5.3Z"/>
      <path class="st0" d="M286.8,28.6h-2.6l-1.3-6.4h-.6v6.4h-2.5v-14.5h3.3c2,0,3.6,1,3.6,4s-.5,2.8-1.4,3.5l1.6,7.1ZM284,18.2c0-1.6-.3-2.1-1.2-2.1h-.6v4.3h.5c.9,0,1.3-.6,1.3-2.1Z"/>
      <path class="st0" d="M292.2,22.5c.1-1.2.2-2.7.5-4.1l1-4.4h2.7s0,14.5,0,14.5h-2.3s0-3.8,0-3.8c0-1.7,0-3.7.1-5.1-.2,1.1-1,7-1.3,8.9h-1.6c-.3-1.9-1.1-7.8-1.3-8.9,0,1.4.1,3.4.1,5.1v3.8h-2.3v-14.5h2.7l1,4.4c.3,1.3.3,2.9.5,4.1h.1Z"/>
      <path class="st0" d="M305.3,28.6h-2.6l-.4-3.2h-1.9l-.4,3.2h-2.5l2.5-14.5h2.7l2.5,14.5ZM302.1,23.3l-.4-2.7c-.1-1-.3-2.2-.4-3.4,0,1.1-.2,2.3-.3,3.4l-.3,2.6h1.4Z"/>
      <path class="st0" d="M313.5,21.2c0,5-1.3,7.4-4.2,7.4h-2.9v-14.5h3.2c3.1,0,3.9,2.7,3.9,7.2ZM310.8,21.3c0-4.3-.5-5.1-1.5-5.1h-.4v10.5h.4c1,0,1.6-.9,1.6-5.3Z"/>
      <path class="st0" d="M322,21.3c0,5.1-.9,7.5-3.8,7.5s-3.7-2.4-3.7-7.5.9-7.5,3.7-7.5,3.7,2.5,3.7,7.5ZM319.3,21.4c0-4.4-.3-5.4-1.1-5.4s-1.1.9-1.1,5.3.3,5.4,1.1,5.4,1.1-.9,1.1-5.3Z"/>
      <path class="st0" d="M330.1,28.6h-2.6l-1.3-6.4h-.6v6.4h-2.5v-14.5h3.3c2,0,3.6,1,3.6,4s-.5,2.8-1.4,3.5l1.6,7.1ZM327.4,18.2c0-1.6-.3-2.1-1.2-2.1h-.6v4.3h.5c.9,0,1.3-.6,1.3-2.1Z"/>
    </g>
    <rect class="st0" x="237" y="29.7" width="93.9" height="2.2"/>
  </g>
  <g>
    <g>
      <g>
        <path class="st0" d="M51.3,26.4h.4v2.6h1.4v.3h-1.7v-2.9Z"/>
        <path class="st0" d="M55.8,29.3h0s-.4,0-.4,0l-.2-.8h-1l-.2.8h-.4s.9-2.9.9-2.9h.5l.9,2.8ZM55.1,28.2l-.4-1.4h0l-.4,1.4h.8Z"/>
        <path class="st0" d="M56.3,26.4h1c.5,0,.8.3.8.8s-.1.5-.4.6h0c.2.1.5.3.5.7s-.3.8-.9.8h-1v-2.9ZM57.2,27.7c.3,0,.5-.1.5-.5s-.1-.4-.5-.4h-.6v.9h.6ZM57.3,29c.3,0,.5-.2.5-.5s-.2-.5-.5-.5h-.6v1h.6Z"/>
        <path class="st0" d="M58.7,27.9c0-.9.3-1.5,1.1-1.5s1.1.6,1.1,1.5-.3,1.5-1.1,1.5-1.1-.6-1.1-1.5ZM60.5,27.9c0-.6-.1-1.1-.7-1.1s-.7.5-.7,1.1.1,1.1.7,1.1.7-.5.7-1.1Z"/>
        <path class="st0" d="M63.4,29.3h0s-.4,0-.4,0l-.8-1.1h-.5v1.1h-.4v-2.9h1c.6,0,.9.4.9.9s-.2.7-.6.8l.8,1.1ZM61.7,27.8h.6c.4,0,.6-.2.6-.5s-.2-.5-.6-.5h-.6v1.1Z"/>
        <path class="st0" d="M66,29.3h0s-.4,0-.4,0l-.2-.8h-1l-.2.8h-.4s.9-2.9.9-2.9h.5l.9,2.8ZM65.3,28.2l-.4-1.4h0l-.4,1.4h.8Z"/>
        <path class="st0" d="M67.3,26.8h-.9v-.3h2.1v.3h-.9v2.6h-.4v-2.6Z"/>
        <path class="st0" d="M69,27.9c0-.9.3-1.5,1.1-1.5s1.1.6,1.1,1.5-.3,1.5-1.1,1.5-1.1-.6-1.1-1.5ZM70.7,27.9c0-.6-.1-1.1-.7-1.1s-.7.5-.7,1.1.1,1.1.7,1.1.7-.5.7-1.1Z"/>
        <path class="st0" d="M73.6,29.3h0s-.4,0-.4,0l-.8-1.1h-.5v1.1h-.4v-2.9h1c.6,0,.9.4.9.9s-.2.7-.6.8l.8,1.1ZM71.9,27.8h.6c.4,0,.6-.2.6-.5s-.2-.5-.6-.5h-.6v1.1Z"/>
        <path class="st0" d="M74.2,29h.7v-2.3h-.7v-.3h1.8v.3h-.7v2.3h.7v.3h-1.8v-.3Z"/>
        <path class="st0" d="M76.6,27.9c0-.9.3-1.5,1.1-1.5s1.1.6,1.1,1.5-.3,1.5-1.1,1.5-1.1-.6-1.1-1.5ZM78.3,27.9c0-.6-.1-1.1-.7-1.1s-.7.5-.7,1.1.1,1.1.7,1.1.7-.5.7-1.1Z"/>
        <path class="st0" d="M79.2,29.4h1.9v.3h-1.9v-.3Z"/>
        <path class="st0" d="M51.2,34h.7v-2.3h-.7v-.3h1.8v.3h-.7v2.3h.7v.3h-1.8v-.3Z"/>
        <path class="st0" d="M53.7,31.4h.4l1.1,2.2h0v-2.2h.4v2.9h-.4l-1.1-2.2h0v2.2h-.4v-2.9Z"/>
        <path class="st0" d="M56.3,31.4h.7c.8,0,1.2.6,1.2,1.4s-.3,1.4-1.2,1.4h-.7v-2.9ZM57,33.9c.7,0,.8-.5.8-1.1s-.2-1.1-.8-1.1h-.3v2.2h.3Z"/>
        <path class="st0" d="M58.9,34h.7v-2.3h-.7v-.3h1.8v.3h-.7v2.3h.7v.3h-1.8v-.3Z"/>
        <path class="st0" d="M61.3,33.4h.4c0,.4.3.6.7.6s.7-.2.7-.5-.2-.4-.5-.5h-.4c-.5-.2-.7-.4-.7-.9s.3-.8,1-.8,1,.3,1,.9h-.4c0-.3-.2-.5-.6-.5s-.6.2-.6.5.1.4.4.4h.4c.5.2.8.5.8.9s-.4.8-1,.8-1-.4-1.1-.9Z"/>
        <path class="st0" d="M63.9,32.8c0-.9.3-1.5,1.1-1.5s.9.4,1,1h-.4c0-.4-.2-.7-.6-.7s-.7.6-.7,1.1,0,1.1.7,1.1.6-.2.6-.6h.4c0,.6-.4,1-1,1s-1.1-.6-1.1-1.5Z"/>
        <path class="st0" d="M66.6,34h.7v-2.3h-.7v-.3h1.8v.3h-.7v2.3h.7v.3h-1.8v-.3Z"/>
        <path class="st0" d="M69.1,31.4h.9c.6,0,.9.4.9.9s-.3.9-.9.9h-.6v1h-.4v-2.9ZM70,32.9c.4,0,.6-.2.6-.6s-.2-.6-.6-.6h-.5v1.2h.5Z"/>
        <path class="st0" d="M71.7,31.4h.4v2.6h1.4v.3h-1.7v-2.9Z"/>
        <path class="st0" d="M74.2,34h.7v-2.3h-.7v-.3h1.8v.3h-.7v2.3h.7v.3h-1.8v-.3Z"/>
        <path class="st0" d="M76.7,31.4h.4l1.1,2.2h0v-2.2h.4v2.9h-.4l-1.1-2.2h0v2.2h-.4v-2.9Z"/>
        <path class="st0" d="M81.3,34.2h0s-.4,0-.4,0l-.2-.8h-1l-.2.8h-.4s.9-2.9.9-2.9h.5l.9,2.8ZM80.6,33.2l-.4-1.4h0l-.4,1.4h.8Z"/>
        <path class="st0" d="M83.8,34.2h0s-.4,0-.4,0l-.8-1.1h-.5v1.1h-.4v-2.9h1c.6,0,.9.4.9.9s-.2.7-.6.8l.8,1.1ZM82.1,32.8h.6c.4,0,.6-.2.6-.5s-.2-.5-.6-.5h-.6v1.1Z"/>
      </g>
      <g>
        <path class="st0" d="M60.2,22.1h0c0,.1-2.4.1-2.4.1l-.6-1.8h-3.6l-.6,1.8h-2.3c0-.1,3.3-9.6,3.3-9.6h2.8l3.3,9.5ZM56.6,18.5l-1.2-3.7h0l-1.2,3.7h2.4Z"/>
        <path class="st0" d="M61,15.1h1.8l.2,1h0c.3-.6.9-1.2,1.8-1.2h.5v1.9h-.7c-1,0-1.6.7-1.6,1.8v3.5h-2v-7.2Z"/>
        <path class="st0" d="M66,18.7c0-2.2,1.3-3.7,3.5-3.7s3.2,1.3,3.3,2.9h-2.1c0-.6-.5-1.1-1.2-1.1s-1.4.6-1.4,1.8.5,1.9,1.4,1.9,1.1-.5,1.2-1.1h2.1c0,1.7-1.2,2.9-3.3,2.9s-3.6-1.5-3.6-3.7Z"/>
        <path class="st0" d="M73.9,12.1h2.1v3.7h0c.4-.5,1-.8,2-.8,1.6,0,2.7,1,2.7,2.6v4.7h-2.1v-4.1c0-.8-.4-1.3-1.2-1.3s-1.4.5-1.4,1.4v4h-2.1v-10.1Z"/>
        <path class="st0" d="M81.9,15.1h2.1v7.2h-2.1v-7.2Z"/>
        <path class="st0" d="M85.2,15.1h1.9l.2.7h0c.3-.4.9-.8,1.9-.8,1.8,0,2.9,1.6,2.9,3.7s-1.1,3.7-2.9,3.7-1.6-.4-1.9-.8h0v3.8h-2.1v-10.3ZM90.1,18.7c0-1-.4-1.9-1.4-1.9s-1.4.9-1.4,1.9.3,1.8,1.4,1.8,1.4-.8,1.4-1.8Z"/>
        <path class="st0" d="M93.2,15.1h2.1v7.2h-2.1v-7.2Z"/>
        <path class="st0" d="M96.2,18.7c0-2,1.2-3.7,3.5-3.7s3.4,1.5,3.4,3.5v.8h-4.8c0,.8.4,1.4,1.4,1.4s1.1-.4,1.2-.7h2c-.2,1.3-1.3,2.4-3.3,2.4s-3.5-1.6-3.5-3.7ZM101,17.9c0-.7-.4-1.2-1.3-1.2s-1.3.5-1.3,1.2h2.6Z"/>
        <path class="st0" d="M104.2,12.1h2.1v10.1h-2.1v-10.1Z"/>
        <path class="st0" d="M107.2,18.7c0-2.1,1.1-3.7,2.9-3.7s1.6.4,1.9.8h0l.2-.7h1.9v7.2h-1.9l-.2-.7h0c-.3.4-.9.8-1.9.8-1.8,0-2.9-1.6-2.9-3.7ZM112.1,18.7c0-1-.3-1.8-1.4-1.8s-1.4.8-1.4,1.8.4,1.9,1.4,1.9,1.4-.9,1.4-1.9Z"/>
        <path class="st0" d="M115.2,22.9h2.1c0,.5.5.8,1.2.8.9,0,1.4-.5,1.4-1.1v-1h0c-.3.4-.9.8-1.9.8-1.8,0-2.9-1.6-2.9-3.7s1.1-3.7,2.9-3.7,1.6.4,1.9.8h0l.2-.7h1.9v7.5c0,1.8-1.5,2.9-3.5,2.9s-3.2-1-3.3-2.6ZM120,18.7c0-1-.4-1.9-1.4-1.9s-1.4.9-1.4,1.9.3,1.8,1.4,1.8,1.4-.8,1.4-1.8Z"/>
        <path class="st0" d="M122.9,18.7c0-2.2,1.3-3.7,3.6-3.7s3.6,1.6,3.6,3.7-1.2,3.7-3.6,3.7-3.6-1.5-3.6-3.7ZM127.9,18.7c0-1.3-.5-1.9-1.4-1.9s-1.4.6-1.4,1.9.6,1.8,1.4,1.8,1.4-.5,1.4-1.8Z"/>
      </g>
      <g>
        <circle class="st0" cx="82.9" cy="13.1" r="1.2"/>
        <circle class="st0" cx="94.3" cy="13.1" r="1.2"/>
        <circle class="st0" cx="99.7" cy="13.1" r="1.2"/>
      </g>
    </g>
    <g>
      <g>
        <path class="st0" d="M150.8,16.4v1.4h-.7v-4.2h1.6c1,0,1.6.5,1.6,1.4s-.6,1.4-1.6,1.4h-.9ZM150.8,14.3v1.5h.8c.6,0,1-.2,1-.7s-.3-.7-1-.7h-.8Z"/>
        <path class="st0" d="M155.6,15.5s0,0-.1,0c-.7,0-.9.4-.9,1.2v1.1h-.7v-2.9h.7v.3c.2-.2.5-.4.9-.4s0,0,.1,0v.6Z"/>
        <path class="st0" d="M158.5,15.3c.3.3.4.7.4,1.1s-.1.8-.4,1.1c-.3.3-.6.4-1.1.4s-.8-.1-1.1-.4c-.3-.3-.4-.7-.4-1.1s.1-.8.4-1.1c.3-.3.6-.4,1.1-.4s.8.1,1.1.4ZM158,17c.2-.2.2-.4.2-.7s0-.5-.2-.7c-.1-.2-.3-.3-.6-.3-.5,0-.8.4-.8.9s.3.9.8.9.4,0,.6-.3Z"/>
        <path class="st0" d="M160.1,17.9c.2.3.5.5.8.5s.8-.3.8-.8h0c-.2,0-.5.1-.8.1s-.7-.1-1-.4c-.3-.3-.4-.6-.4-1s.1-.8.4-1c.3-.3.6-.4,1-.4s.6.1.8.3v-.2h.7v2.7c0,.4-.1.8-.4,1.1-.3.3-.6.4-1,.4s-.6,0-.8-.2c-.2-.1-.4-.3-.5-.4l.5-.5ZM160.9,17.2c.5,0,.8-.3.8-.8s-.3-.8-.8-.8-.7.3-.7.8.3.8.7.8Z"/>
        <path class="st0" d="M164.9,15.5s0,0-.1,0c-.7,0-.9.4-.9,1.2v1.1h-.7v-2.9h.7v.3c.2-.2.5-.4.9-.4s0,0,.1,0v.6Z"/>
        <path class="st0" d="M165.5,17.7c-.2-.2-.3-.4-.3-.6,0-.6.5-1,1.2-1s.4,0,.6.1v-.2c0-.3-.2-.5-.6-.5s-.5.1-.7.4l-.5-.4c.2-.4.7-.6,1.2-.6.8,0,1.2.4,1.2,1.1v1.9h-.7v-.2c-.2.2-.5.3-.8.3s-.5,0-.7-.2ZM166.3,17.3c.3,0,.5,0,.7-.3v-.3c-.2,0-.4-.1-.6-.1-.3,0-.5.1-.5.4s.2.3.4.3Z"/>
        <path class="st0" d="M170.3,17.8v-1.7c0-.4-.2-.6-.5-.6s-.6.3-.6.7v1.7h-.7v-2.9h.7v.3c.2-.2.4-.3.8-.3s.6.1.8.4c.2-.3.5-.4.9-.4.8,0,1.2.5,1.2,1.3v1.7h-.7v-1.7c0-.4-.2-.6-.5-.6s-.6.3-.6.7v1.7h-.7Z"/>
        <path class="st0" d="M173.6,17.7c-.2-.2-.3-.4-.3-.6,0-.6.5-1,1.2-1s.4,0,.6.1v-.2c0-.3-.2-.5-.6-.5s-.5.1-.7.4l-.5-.4c.2-.4.7-.6,1.2-.6.8,0,1.2.4,1.2,1.1v1.9h-.7v-.2c-.2.2-.5.3-.8.3s-.5,0-.7-.2ZM174.5,17.3c.3,0,.5,0,.7-.3v-.3c-.2,0-.4-.1-.6-.1-.3,0-.5.1-.5.4s.2.3.4.3Z"/>
        <path class="st0" d="M180.1,15.1v-1.5h.7v4.2h-.7v-.3c-.2.2-.5.3-.8.3s-.8-.1-1-.4c-.3-.3-.4-.7-.4-1.1s.1-.8.4-1.1c.3-.3.6-.4,1-.4s.6,0,.8.3ZM178.5,16.4c0,.5.3.9.8.9s.8-.4.8-.9-.3-.9-.8-.9-.8.4-.8.9Z"/>
        <path class="st0" d="M184.1,16.6h-2c0,.4.3.7.8.7s.6-.1.8-.4l.5.4c-.3.4-.7.6-1.2.6s-.8-.1-1.1-.4c-.3-.3-.4-.6-.4-1.1s.1-.8.4-1.1c.2-.3.6-.4,1-.4.9,0,1.3.8,1.3,1.5v.2ZM182.1,16h1.2c0-.3-.2-.6-.6-.6s-.6.3-.6.6Z"/>
        <path class="st0" d="M154.7,24.4c-.5.7-1.2,1-2.1,1s-1.4-.2-2-.7c-.5-.5-.8-1.1-.8-1.9s.3-1.5.8-2c.5-.5,1.2-.8,1.9-.8s1.5.3,2,1l-.6.6c-.4-.5-.8-.8-1.4-.8s-.9.2-1.3.5c-.3.4-.5.8-.5,1.4s.2,1,.5,1.3c.4.3.8.5,1.3.5s1.1-.3,1.5-.8l.6.6Z"/>
        <path class="st0" d="M155.4,20.2c.2-.2.6-.2.8,0,.2.2.2.5,0,.8s-.6.2-.8,0c-.2-.2-.2-.6,0-.8ZM155.3,25.3v-3.6h.8v3.6h-.8Z"/>
        <path class="st0" d="M158.1,25.3h-.8v-3.6h.8v.3c.2-.3.5-.4.9-.4.9,0,1.4.6,1.4,1.6v2.1h-.8v-2.1c0-.5-.3-.8-.7-.8s-.8.4-.8,1v2Z"/>
        <path class="st0" d="M164.6,23.7h-2.5c0,.5.4.9,1,.9s.7-.2.9-.5l.6.5c-.4.5-.9.7-1.5.7s-1-.2-1.3-.5c-.3-.3-.5-.8-.5-1.4s.2-1,.5-1.4c.3-.4.7-.6,1.2-.6,1.2,0,1.7.9,1.7,1.9v.3ZM162.1,23h1.6c0-.4-.2-.7-.8-.7s-.7.3-.8.7Z"/>
        <path class="st0" d="M168.6,26.7h-.9l.6-1.4-1.4-3.7h1l1,2.6,1-2.6h.9l-2,5.1Z"/>
        <path class="st0" d="M175.6,20.1l2,5.2h-.9l-.4-1.1h-2.2l-.4,1.1h-.9l2-5.2h.9ZM175.1,21.3l-.8,2.1h1.6l-.8-2.1Z"/>
        <path class="st0" d="M178.8,21.6v2.2c0,.5.2.8.7.8s.8-.4.8-.9v-2.1h.8v3.6h-.8v-.3c-.2.3-.6.4-.9.4-.8,0-1.4-.6-1.4-1.6v-2.1h.8Z"/>
        <path class="st0" d="M184.7,21.9v-1.8h.8v5.2h-.8v-.3c-.3.3-.6.4-1,.4s-.9-.2-1.3-.5c-.3-.4-.5-.8-.5-1.4s.2-1,.5-1.4.8-.5,1.3-.5.7.1,1,.4ZM182.7,23.5c0,.7.4,1.2,1,1.2s1-.5,1-1.2-.3-1.2-1-1.2-1,.5-1,1.2Z"/>
        <path class="st0" d="M186.7,20.2c.2-.2.6-.2.8,0,.2.2.2.5,0,.8s-.6.2-.8,0c-.2-.2-.2-.6,0-.8ZM186.6,25.3v-3.6h.8v3.6h-.8Z"/>
        <path class="st0" d="M191.5,22.1c.4.4.6.8.6,1.4s-.2,1-.6,1.4c-.4.4-.8.5-1.3.5s-1-.2-1.3-.5c-.4-.4-.5-.8-.5-1.4s.2-1,.5-1.4c.4-.4.8-.6,1.3-.6s1,.2,1.3.6ZM190.9,24.3c.2-.2.3-.5.3-.8s0-.6-.3-.8c-.2-.2-.4-.3-.7-.3-.6,0-1,.5-1,1.1s.4,1.1,1,1.1.5-.1.7-.3Z"/>
        <path class="st0" d="M195.7,21.6l-1.3,3.6h-.9l-1.3-3.6h.9l.8,2.6.8-2.6h.9Z"/>
        <path class="st0" d="M196.3,20.2c.2-.2.6-.2.8,0,.2.2.2.5,0,.8s-.6.2-.8,0-.2-.6,0-.8ZM196.2,25.3v-3.6h.8v3.6h-.8Z"/>
        <path class="st0" d="M199.1,23.8c-.7-.2-1.1-.6-1.1-1.2s.6-1.1,1.3-1.1,1,.2,1.4.6l-.5.6c-.2-.3-.5-.5-.9-.5s-.5.2-.5.3.1.3.4.3h.6c.7.3,1.1.7,1.1,1.3s-.5,1.1-1.4,1.1-1.1-.2-1.5-.7l.5-.6c.3.4.6.5,1,.5s.6-.2.6-.4-.1-.3-.4-.4h-.5Z"/>
        <path class="st0" d="M202.3,21.6v2.2c0,.5.2.8.7.8s.8-.4.8-.9v-2.1h.8v3.6h-.8v-.3c-.2.3-.6.4-.9.4-.8,0-1.4-.6-1.4-1.6v-2.1h.8Z"/>
        <path class="st0" d="M205.8,25.1c-.2-.2-.4-.5-.4-.8,0-.8.6-1.2,1.5-1.2s.5,0,.7.1v-.2c0-.4-.3-.6-.7-.6s-.7.2-.9.5l-.6-.5c.3-.5.8-.8,1.4-.8.9,0,1.6.5,1.6,1.4v2.4h-.8v-.3c-.3.2-.6.4-1,.4s-.6,0-.9-.3ZM206.8,24.6c.4,0,.6-.1.9-.3v-.4c-.3,0-.5-.1-.8-.1-.4,0-.6.2-.6.5s.2.4.6.4Z"/>
        <path class="st0" d="M209.5,25.3v-5.2h.8v5.2h-.8Z"/>
        <path class="st0" d="M214.5,23.7h-2.5c0,.5.4.9,1,.9s.7-.2.9-.5l.6.5c-.4.5-.9.7-1.5.7s-1-.2-1.3-.5c-.3-.3-.5-.8-.5-1.4s.2-1,.5-1.4c.3-.4.7-.6,1.2-.6,1.2,0,1.7.9,1.7,1.9v.3ZM212.1,23h1.6c0-.4-.2-.7-.8-.7s-.7.3-.8.7Z"/>
        <path class="st0" d="M216.3,23.8c-.7-.2-1.1-.6-1.1-1.2s.6-1.1,1.3-1.1,1,.2,1.4.6l-.5.6c-.2-.3-.5-.5-.9-.5s-.5.2-.5.3.1.3.4.3h.6c.7.3,1.1.7,1.1,1.3s-.5,1.1-1.4,1.1-1.1-.2-1.5-.7l.5-.6c.3.4.6.5,1,.5s.6-.2.6-.4-.1-.3-.4-.4h-.5Z"/>
        <path class="st0" d="M153.5,27.5h.9v2.9c0,1.6-.8,2.4-2.1,2.4s-2.1-.8-2.1-2.4v-2.9h.9v2.9c0,1.1.4,1.6,1.2,1.6s1.2-.5,1.2-1.6v-2.9Z"/>
        <path class="st0" d="M156.2,32.7h-.8v-3.6h.8v.3c.2-.3.5-.4.9-.4.9,0,1.4.6,1.4,1.6v2.1h-.8v-2.1c0-.5-.3-.8-.7-.8s-.8.4-.8,1v2Z"/>
        <path class="st0" d="M159.6,27.6c.2-.2.6-.2.8,0,.2.2.2.5,0,.8s-.6.2-.8,0c-.2-.2-.2-.6,0-.8ZM159.5,32.7v-3.6h.8v3.6h-.8Z"/>
        <path class="st0" d="M163.8,32.7v-2.2c0-.5-.2-.8-.7-.8s-.8.3-.8.9v2.1h-.8v-3.6h.8v.3c.2-.3.6-.4.9-.4s.8.2,1,.5c.3-.3.7-.5,1.1-.5,1,0,1.5.6,1.5,1.6v2.1h-.8v-2.2c0-.5-.2-.8-.7-.8s-.8.3-.8.9v2.1h-.8Z"/>
        <path class="st0" d="M168,32.5c-.2-.2-.4-.5-.4-.8,0-.8.6-1.2,1.5-1.2s.5,0,.7.1v-.2c0-.4-.3-.6-.7-.6s-.7.2-.9.5l-.6-.5c.3-.5.8-.8,1.4-.8.9,0,1.6.5,1.6,1.4v2.4h-.8v-.3c-.3.2-.6.4-1,.4s-.6,0-.9-.3ZM169,32.1c.4,0,.6-.1.9-.3v-.4c-.3,0-.5-.1-.8-.1-.4,0-.6.2-.6.5s.2.4.6.4Z"/>
        <path class="st0" d="M172.2,32.9c.2.4.6.6,1,.6s1-.4,1-1v-.2c-.3.2-.6.4-1,.4s-.9-.2-1.3-.5c-.3-.4-.5-.8-.5-1.3s.2-1,.5-1.3c.3-.3.7-.5,1.3-.5s.7.1,1,.4v-.3h.8v3.4c0,.6-.2,1-.5,1.3-.3.3-.8.5-1.3.5s-.8,0-1-.3c-.3-.2-.5-.3-.6-.6l.6-.6ZM173.2,31.9c.6,0,.9-.4.9-1.1s-.4-1.1-.9-1.1-.9.4-.9,1.1.4,1.1.9,1.1Z"/>
        <path class="st0" d="M178.6,29.4v-1.8h.8v5.2h-.8v-.3c-.3.3-.6.4-1,.4s-.9-.2-1.3-.5c-.3-.4-.5-.8-.5-1.4s.2-1,.5-1.4.8-.5,1.3-.5.7.1,1,.4ZM176.7,30.9c0,.7.4,1.2,1,1.2s1-.5,1-1.2-.4-1.2-1-1.2-1,.5-1,1.2Z"/>
        <path class="st0" d="M180.6,32.5c-.2-.2-.4-.5-.4-.8,0-.8.6-1.2,1.5-1.2s.5,0,.7.1v-.2c0-.4-.3-.6-.7-.6s-.7.2-.9.5l-.6-.5c.3-.5.8-.8,1.4-.8.9,0,1.6.5,1.6,1.4v2.4h-.8v-.3c-.3.2-.6.4-1,.4s-.6,0-.9-.3ZM181.7,32.1c.4,0,.6-.1.9-.3v-.4c-.3,0-.5-.1-.8-.1-.4,0-.6.2-.6.5s.2.4.6.4Z"/>
        <path class="st0" d="M184.3,32.7v-5.2h.8v5.2h-.8Z"/>
        <path class="st0" d="M189.4,31.2h-2.5c0,.5.4.9,1,.9s.7-.2.9-.5l.6.5c-.4.5-.9.7-1.5.7s-1-.2-1.3-.5c-.3-.3-.5-.8-.5-1.4s.2-1,.5-1.4c.3-.4.7-.6,1.2-.6,1.2,0,1.7.9,1.7,1.9v.3ZM186.9,30.5h1.6c0-.4-.2-.7-.8-.7s-.7.3-.8.7Z"/>
        <path class="st0" d="M191,32.7h-.8v-3.6h.8v.3c.2-.3.5-.4.9-.4.9,0,1.4.6,1.4,1.6v2.1h-.8v-2.1c0-.5-.3-.8-.7-.8s-.8.4-.8,1v2Z"/>
        <path class="st0" d="M194.5,32.5c-.2-.2-.4-.5-.4-.8,0-.8.6-1.2,1.5-1.2s.5,0,.7.1v-.2c0-.4-.3-.6-.7-.6s-.7.2-.9.5l-.6-.5c.3-.5.8-.8,1.4-.8.9,0,1.6.5,1.6,1.4v2.4h-.8v-.3c-.3.2-.6.4-1,.4s-.6,0-.9-.3ZM195.5,32.1c.4,0,.6-.1.9-.3v-.4c-.3,0-.5-.1-.8-.1-.4,0-.6.2-.6.5s.2.4.6.4Z"/>
      </g>
      <rect class="st0" x="142.8" y="12.1" width="1" height="22.2"/>
    </g>
  </g>
</svg>