<?xml version="1.0" encoding="UTF-8"?>
<svg id="Layer_1" xmlns="http://www.w3.org/2000/svg" version="1.1" viewBox="0 0 336 41.6">
  <!-- Generator: Adobe Illustrator 30.2.1, SVG Export Plug-In . SVG Version: 2.1.1 Build 1)  -->
  <defs>
    <style>
      .st0 {
        fill: #231f20;
      }

      .st1 {
        isolation: isolate;
      }

      .st2 {
        fill: #fafafa;
      }
    </style>
  </defs>
  <g class="st1">
    <g id="Layer_11">
      <rect class="st2" x="-26.9" y="-505.2" width="390" height="844"/>
      <g>
        <g>
          <path class="st0" d="M219.875,6.318c-.015.083.042.046.091.052,1.984.216,3.718.347,5.553,1.226,2.084.998,5.002,3.65,5.953,5.77.581,1.294.517,2.673-1.247,2.582-3.262-.168-4.018-3.923-6.512-5.369-.988-.573-2.104-.726-3.227-.856-2.326-.268-4.587-.204-6.56,1.179-1.892,1.326-3.413,3.104-4.205,5.294-.562,1.553-.996,3.908-.837,5.548.152,1.573.961,2.967,1.466,4.436.038.037.047-.002.052-.039.026-.205.005-.542.001-.76-.044-2.216-.155-4.594-.055-6.804.065-1.442.727-2.723,1.94-3.503,1.051-.676,2.226-1.287,3.313-1.921,1.904-1.111,3.645-2.64,5.993-1.632,2.003,1.167,4.088,2.238,6.051,3.474,1.272.801,2.027,1.845,2.122,3.4.141,2.302-.126,4.727.028,7.04-.071,1.378-.861,2.624-2.018,3.347-1.286.803-2.712,1.596-4.037,2.349-.04.023-.288.171-.305.152.06-.417.147-.83.205-1.247.406-2.892.433-6.264-.027-9.151-.254-1.593-.871-5.325-3.231-4.758-1.325.319-1.77,1.796-2.11,2.941-.7,2.352-.936,4.866-1.433,7.269h-.078c-.298-1.214-.576-2.435-.898-3.643-.287-1.077-.661-2.814-1.882-3.194-1.751-.545-2.409,1.674-2.703,2.938-.238,1.024-.44,2.15-.633,3.188-.117.63-.093.913-.059,1.535.039.7-.091,1.169-.786.577-.377-.321-.609-.748-.833-1.182-.579-1.12-1.055-2.298-1.63-3.421-.131-.178-.129.296-.128.364.059,2.85,1.563,5.201,3.481,7.17,1.385,1.422,2.783,2.33,4.705,2.884,3.732,1.074,6.967.67,10.225-1.431,2.003-1.291,2.736-3.187,4.265-4.868.576-.634,1.776-1.087,2.434-.34,1.13,1.282-.147,3.434-1.073,4.476-1.061,1.194-2.49,2.542-3.743,3.532-1.869,1.476-4.77,2.399-7.145,2.487-.05.002-.105-.027-.09.052h-2.303c.015-.08-.04-.049-.09-.052-2.931-.182-6.994-1.683-9.174-3.676-2.083-1.905-3.784-5.175-4.519-7.885-.409-1.507-.547-3.298-.609-4.861-.002-.05.027-.105-.052-.09v-1.492c.084.015.045-.043.051-.092.18-1.411.296-2.634.695-4.017.792-2.747,2.546-5.663,4.842-7.405.243-.184,1.153-.826,1.082-.121-.041.404-.361.813-.285,1.246.112-.032.212-.041.323-.082.793-.292,1.725-.892,2.537-1.257,1.807-.813,3.004-1.09,4.977-1.305.049-.005.106.032.091-.052h2.041ZM211.972,9.773c-.024-.025-.277.085-.323.108-.669.335-2.15,1.843-2.403,2.543-.012.032-.063.185-.048.201.166-.042.327-.103.469-.199.624-.421,1.597-1.481,2.028-2.107.051-.074.337-.484.277-.547Z"/>
          <path class="st0" d="M233.064,14.745c-.052.003-.103,0-.152-.017-.125-.043-.524-.592-.628-.733-1.14-1.556-2.189-3.259-3.281-4.858-.27-.395-.724-.922-.933-1.317-.04-.076-.064-.158-.056-.244.316.011.615.225.872.397,1.993,1.337,3.72,3.781,4.126,6.16.008.049-.029.105.053.09v.523Z"/>
          <path class="st0" d="M220.817,19.691c.231,1.03.405,2.074.497,3.127.24,2.733.212,7.039-.896,9.572-.036.081-.082.188-.176.217-.098.03-.42.019-.538.011-.5-.033-1.112-.205-1.558-.431-1.882-.952-3.695-2.266-5.581-3.238-.055-.039-.133-.057-.125-.137.452-1.596.847-3.209,1.075-4.856h.077c.121.472.226.948.349,1.419.309,1.176.624,2.452,1.006,3.6.348,1.045,1.175,2.226,2.44,1.72,1.404-.561,1.742-3.173,2.003-4.487.323-1.625.547-3.281.915-4.895.102-.449.218-1.006.373-1.433.026-.073.038-.19.137-.189Z"/>
        </g>
        <g>
          <path class="st0" d="M28.211,8.813c.067-.012.142-.01.2-.04.209-.109.413-.23.619-.345.317-.178.638-.35.952-.533.286-.167.566-.346.848-.519.029-.018.058-.047.089-.05.263-.023.434-.192.613-.36.062-.058.167-.075.255-.101.148-.044.284-.085.39-.223.149-.194.522-.196.744-.033.216.158.283.469.152.695-.557.964-1.271,1.797-2.121,2.511-.405.34-.829.659-1.264.958-.296.204-.626.358-.942.532-.231.127-.462.256-.699.372-.153.075-.316.127-.475.19-.029.011-.059.019-.088.03-.376.141-.751.286-1.129.423-.244.089-.489.176-.739.245-.287.08-.582.133-.87.209-.165.044-.327.103-.483.173-.044.02-.08.101-.085.158-.012.144-.013.291-.003.435.022.309.054.616.08.925.013.158.032.316.031.475-.001.252.124.386.371.427.343.057.694.065,1.025.199.199.081.417.115.618.191.138.053.268.134.39.219.109.075.201.078.319.02.392-.193.786-.383,1.186-.56.273-.121.555-.222.835-.328.187-.071.234-.17.135-.347-.269-.484-.26-.976-.023-1.461.179-.366.475-.625.847-.789.291-.128.597-.202.917-.171.592.056,1.095.291,1.434.794.168.249.277.529.254.846-.013.19.095.292.264.257.619-.128,1.246-.129,1.874-.125.514.003,1.028-.01,1.541.009.326.012.65.068.974.11.199.026.276-.032.271-.232-.015-.654.518-1.315,1.102-1.514.277-.095.551-.171.841-.146.599.052,1.115.292,1.443.804.325.508.367,1.058.056,1.605-.116.204-.088.27.138.35.84.296,1.643.673,2.422,1.103.073.04.133.104.206.143.144.078.227.038.287-.115.078-.197.152-.396.245-.585.247-.502.684-.704,1.217-.737.114-.007.23.002.344.013.146.014.234-.073.258-.217.053-.316.102-.636.194-.942.088-.293.229-.57.348-.853.056-.134-.009-.227-.18-.245-.167-.017-.336-.019-.502-.043-.249-.036-.496-.082-.742-.129-.251-.048-.504-.093-.752-.156-.404-.103-.812-.201-1.206-.337-.391-.135-.761-.322-1.124-.529-.562-.319-1.051-.722-1.473-1.201-.335-.381-.638-.791-.934-1.202-.261-.362-.498-.741-.735-1.118-.125-.198-.248-.4-.339-.615-.163-.387.136-.781.556-.755.026.002.054.007.079.001.203-.048.319.085.431.213.124.141.285.211.459.254.169.042.323.085.433.245.046.067.164.115.25.116.268.005.469.167.692.271.234.109.452.252.681.371.242.125.489.242.735.359.052.025.109.039.164.057.008-.015.017-.029.025-.044-.083-.062-.163-.129-.251-.184-.249-.157-.5-.314-.754-.464-.348-.204-.7-.4-1.049-.601-.111-.064-.22-.13-.336-.189-.319-.163-.615-.373-.918-.566-.283-.179-.529-.409-.81-.59-.044-.028-.082-.068-.119-.106-.381-.389-.119-.776.255-.925.392-.157.812-.157,1.22-.225.725-.121,1.457-.076,2.186-.046.58.024,1.158.11,1.727.239.314.071.635.117.945.201.324.087.646.192.958.315.423.167.841.347,1.25.544.629.303,1.197.699,1.714,1.171.341.312.653.649.919,1.024.178.25.326.526.458.803.125.262.218.54.314.815.036.103.029.221.062.325.101.316.141.636.104.967-.012.104.053.138.17.116.173-.031.347-.067.522-.085.435-.046.884.308.812.814-.05.356-.224.657-.369.972-.145.315-.329.605-.566.862-.121.131-.096.242.063.315.442.204.636.578.721,1.031.096.516.063,1.032-.014,1.546-.012.083-.057.167-.105.238-.094.139-.134.277-.099.449.084.416-.126.791-.548,1.041-.077.046-.144.126-.191.204-.185.313-.443.54-.78.67-.342.132-.688.253-1.033.378-.025.009-.051.015-.076.025-.156.062-.171.137-.048.25.114.105.233.205.345.311.331.312.542.696.652,1.135.087.346.178.693.241,1.044.039.216.041.441.038.662-.005.401.014.803-.114,1.196-.084.258-.105.537-.183.797-.174.577-.491,1.055-1.022,1.369-.076.045-.153.091-.218.15-.038.035-.081.105-.069.144.014.047.078.099.129.111.257.063.515.125.776.165.456.07.719.332.814.772.027.124.095.179.213.221.24.085.453.227.602.434.175.243.348.493.482.759.126.251.15.532.003.792-.089.157-.094.296.003.447.035.054.066.125.063.186-.015.317.117.605.157.91.018.138.018.285-.008.421-.02.107-.079.215-.146.303-.11.143-.123.27-.076.452.054.206.057.442.016.651-.051.262-.151.52-.267.762-.084.176-.219.332-.349.481-.43.495-.947.871-1.559,1.118-.392.158-.79.3-1.216.252-.362-.041-.692-.272-.679-.648.002-.065.027-.143.069-.192.186-.224.386-.436.572-.66.086-.104.16-.221.225-.339.128-.232.246-.469.369-.704.162-.308.222-.642.23-.983.002-.084-.074-.193-.146-.25-.147-.116-.191-.26-.182-.431.007-.132.029-.264.032-.397.005-.189.011-.38-.01-.567-.009-.079-.07-.165-.131-.222-.339-.312-.576-.688-.74-1.116-.021-.054-.08-.108-.135-.13-.277-.114-.563-.207-.836-.328-.258-.114-.506-.253-.757-.383-.055-.028-.106-.065-.155-.102-.084-.064-.168-.094-.269-.038-.119.067-.213.17-.211.3.001.07.093.156.164.205.338.232.659.476.837.865.051.111.142.204.195.315.054.114.074.244.128.357.048.1.106.205.187.278.503.451.677,1.007.546,1.661-.028.138-.022.263.049.383.1.168.091.34.05.525-.093.416-.28.793-.489,1.157-.085.148-.241.254-.352.39-.064.079-.118.173-.15.269-.11.327-.317.583-.583.79-.306.239-.654.385-1.031.492-.478.136-.958.12-1.435.084-.275-.021-.569-.1-.805-.237-.397-.23-.337-.619-.025-.889.144-.124.329-.2.494-.299.399-.238.802-.472,1.026-.908.012-.023.028-.047.047-.064.121-.106.113-.222.049-.359-.11-.238-.154-.491-.096-.751.021-.097.061-.195.113-.279.061-.098.067-.189.018-.287-.093-.188-.157-.382-.165-.597-.002-.062-.059-.14-.114-.177-.213-.144-.378-.319-.515-.542-.115-.188-.291-.341-.452-.498-.079-.077-.187-.073-.285-.016-.138.079-.276.158-.412.24-.163.098-.164.181-.037.321.192.212.306.468.414.734.139.343.03.629-.133.916-.058.102-.061.187,0,.296.062.112.121.249.114.371-.012.226-.066.451-.116.673-.032.141-.08.28-.134.414-.131.33-.395.547-.656.769-.057.048-.112.121-.128.192-.123.56-.42,1.012-.826,1.406-.276.268-.592.477-.954.584-.37.109-.768.152-1.139.017-.319-.116-.492-.488-.27-.828.15-.23.264-.487.363-.745.121-.314.214-.639.482-.868.087-.074.116-.164.097-.272-.064-.347.053-.643.255-.916.042-.057.078-.118.116-.178.106-.169.102-.258-.013-.427-.029-.043-.06-.093-.066-.142-.033-.284-.075-.568-.082-.854-.006-.235-.125-.337-.349-.275-.311.086-.625.162-.941.23-.418.09-.839.171-1.259.251-.099.019-.203.016-.303.029-.315.042-.629.087-.944.13-.057.008-.114.014-.172.014-.846.001-1.692.006-2.538-.002-.183-.002-.366-.056-.55-.078-.228-.027-.458-.041-.687-.068-.135-.016-.268-.047-.401-.072-.017-.003-.034-.012-.051-.015-.386-.071-.772-.146-1.16-.209-.198-.032-.25.022-.27.225-.024.235-.129.422-.311.578-.101.087-.178.207-.248.323-.077.128-.134.268-.201.401-.071.14-.061.285-.011.425.098.272.06.524-.062.782-.035.073-.01.212.041.281.164.222.197.489.299.731.099.234.22.462.36.673.143.216.148.434-.03.626-.167.181-.358.287-.617.279-.344-.011-.685.012-1.024-.1-.796-.264-1.308-.805-1.64-1.558-.13-.294-.198-.592-.223-.907-.006-.08-.031-.176-.082-.231-.136-.145-.118-.313-.111-.484.005-.114.01-.229.009-.343-.003-.18-.022-.355.099-.521.047-.065.048-.212.006-.285-.205-.359-.075-.523.098-.745.077-.099.188-.171.279-.26.103-.101.2-.207.301-.31.092-.094.174-.201.28-.276.132-.093.146-.208.008-.296-.026-.016-.056-.025-.084-.039-.185-.091-.369-.185-.556-.273-.148-.069-.298-.135-.452-.19-.086-.03-.151.014-.189.101-.139.312-.383.541-.643.744-.116.091-.276.131-.421.176-.094.029-.154.065-.176.168-.04.196-.164.334-.319.456-.259.204-.509.419-.762.631-.02.016-.045.041-.045.063-.003.187-.04.376.081.55.052.075.066.177.096.267.014.041.019.086.04.124.049.089.424.29.515.328.232.098.449.096.682,0,.105-.043.234-.032.353-.036.393-.012.671.275.737.611.037.189-.064.382-.198.529-.281.309-.626.521-1.016.677-.356.142-.721.136-1.071.067-.386-.076-.753-.245-1.132-.36-.225-.068-.405-.192-.559-.363-.029-.033-.064-.066-.078-.106-.055-.166-.184-.238-.336-.292-.285-.101-.458-.32-.592-.578-.012-.024-.019-.051-.035-.071-.419-.543-.304-1.133-.143-1.723.035-.128.123-.241.168-.368.026-.074.037-.171.012-.241-.083-.228-.029-.442.056-.645.088-.211.19-.42.319-.607.098-.142.242-.254.373-.371.068-.061.095-.112.058-.205-.074-.187.049-.488.171-.646.203-.262.503-.217.763-.303.092-.03.178-.082.27-.115.099-.036.202-.06.303-.091.046-.014.095-.023.137-.046.101-.056.11-.133.028-.213-.057-.055-.12-.104-.179-.158-.073-.066-.171-.064-.211.003-.078.133-.206.176-.325.243-.233.131-.454.286-.696.396-.142.064-.314.075-.474.082-.138.006-.228.04-.298.17-.057.104-.148.198-.243.271-.098.075-.22.119-.329.18-.029.016-.05.047-.076.069-.023.02-.043.047-.07.057-.133.049-.269.088-.399.143-.051.021-.112.065-.13.113-.11.292-.127.601-.06.9.069.305.037.573-.137.832-.031.047-.04.159-.009.189.143.139.114.317.142.483.015.088.045.174.07.261.005.017.021.033.02.048-.022.201.101.352.18.516.054.113.145.207.207.316.187.327.106.68-.201.894-.245.171-.525.214-.807.166-.22-.037-.435-.116-.646-.193-.522-.188-.947-.517-1.281-.953-.135-.176-.237-.386-.316-.594-.041-.108-.017-.253.015-.371.035-.131.042-.243-.017-.37-.107-.231-.121-.477-.084-.728.017-.114.025-.229.037-.343.025-.248.002-.5.112-.741.051-.11.05-.253.044-.379-.015-.282.041-.544.173-.791.062-.116.07-.231.02-.357-.048-.119-.016-.23.064-.335.182-.24.434-.375.705-.476.291-.109.56-.259.838-.391.269-.128.471-.28.623-.535.1-.167.306-.211.487-.276.232-.083.46-.18.68-.29.062-.031.12-.126.125-.196.003-.037-.107-.099-.175-.122-.43-.144-.78-.398-1.038-.767-.226-.325-.368-.687-.486-1.068-.087-.281-.067-.57-.154-.844-.138-.433-.081-.878-.071-1.318.003-.115.071-.226.094-.342.068-.337.121-.677.197-1.013.028-.127.1-.244.155-.364.169-.363.408-.669.729-.913.057-.043.105-.136.104-.206,0-.041-.1-.092-.164-.118-.412-.172-.83-.332-1.238-.511-.2-.088-.408-.183-.572-.322-.171-.146-.301-.343-.361-.575-.015-.057-.061-.121-.112-.152-.257-.156-.45-.364-.585-.634-.054-.107-.157-.189-.235-.284-.089-.109-.187-.213-.26-.332-.101-.164-.111-.337-.024-.52.04-.084.055-.191.047-.284-.022-.251.05-.473.177-.682.073-.119.091-.233.036-.365-.024-.058-.036-.134-.02-.194.154-.583.401-1.118.875-1.514.258-.216.564-.29.897-.201.054.014.099.059.153.076.041.013.089.004.134.005-.004-.036-.007-.072-.013-.107-.004-.021-.021-.04-.022-.061-.029-.44-.209-.849-.272-1.279-.047-.323-.067-.65.049-.98.091-.26.194-.498.381-.701.247-.269.532-.439.911-.385.18.026.288-.06.386-.198.117-.166.255-.317.378-.479.491-.649,1.059-1.227,1.68-1.749.364-.306.757-.583,1.158-.84.378-.242.777-.456,1.181-.654.296-.145.614-.246.925-.36.24-.088.484-.164.726-.246.029-.01.058-.022.089-.027.404-.071.811-.128,1.212-.215.724-.157,1.459-.129,2.19-.145.526-.011,1.053.033,1.579.059.276.014.587.367.562.64-.008.085-.046.192-.108.243-.23.191-.478.361-.715.544-.173.133-.391.213-.506.417-.158-.008-.223.153-.332.197-.224.09-.422.19-.554.397-.006.01-.022.023-.03.021-.149-.035-.22.09-.32.154-.503.328-1.003.66-1.509.983-.21.134-.435.245-.648.375-.048.03-.074.096-.111.145.009.012.017.023.026.035ZM45.886,19.586c0,.006,0,.013,0,.019.097,0,.195.005.292-.002.078-.005.159-.016.233-.041.079-.026.099-.082.038-.153-.154-.181-.293-.377-.46-.544-.318-.318-.655-.618-.98-.929-.296-.284-.62-.533-.959-.759-.543-.362-1.12-.667-1.71-.947-.317-.151-.62-.324-.963-.424-.282-.082-.538-.242-.836-.294-.167-.029-.329-.095-.492-.148-.038-.013-.072-.04-.108-.061.025-.038.042-.087.076-.112.097-.069.2-.131.302-.192.315-.186.473-.491.515-.826.057-.462-.099-.851-.493-1.156-.506-.392-1.037-.445-1.617-.243-.099.034-.198.08-.282.142-.264.192-.469.44-.548.757-.046.186-.059.397-.02.583.039.182.111.373.264.511.023.021.038.08.026.104-.012.023-.068.039-.101.034-.24-.032-.483-.052-.717-.11-.451-.11-.909-.127-1.367-.128-.788-.001-1.575.016-2.363.023-.189.002-.381-.02-.553.092-.02.013-.051.011-.077.013-.299.023-.598.047-.897.067-.035.002-.072-.016-.109-.025.015-.034.03-.068.045-.102.087-.199.222-.392.251-.599.086-.613-.409-1.25-.994-1.406-.665-.178-1.24-.031-1.706.479-.178.194-.275.438-.297.705-.016.192.034.368.1.552.069.189.162.339.323.449.129.089.265.167.392.258.04.029.073.085.083.133.004.018-.066.071-.105.074-.182.015-.356.048-.511.154-.027.019-.068.017-.102.026-.16.043-.323.079-.479.133-.558.191-1.089.445-1.61.719-.23.121-.44.279-.67.397-.542.277-1.03.633-1.482,1.033-.403.357-.779.746-1.158,1.13-.126.128-.228.28-.338.424-.06.078-.03.136.058.158.072.018.148.026.223.027.442.01.885.008,1.327.026.53.022,1.06.061,1.59.09.296.016.592.029.888.041.238.01.477.022.715.023.065,0,.152-.021.191-.066.252-.288.618-.403.916-.623.244-.18.528-.311.804-.443.383-.183.774-.345,1.19-.446.411-.099.816-.223,1.223-.335.042-.012.087-.016.131-.022.28-.036.559-.081.84-.104.338-.028.678-.051,1.018-.054.433-.004.867.005,1.3.027.206.01.409.062.613.097.374.065.751.113,1.119.201.363.086.718.205,1.073.324.569.191,1.107.455,1.613.776.275.174.532.378.804.557.087.057.198.108.298.108.46.002.921-.006,1.381-.027.95-.044,1.9-.098,2.85-.148ZM34.941,32.037c.597-.02,1.026-.033,1.455-.05.216-.009.434-.013.648-.042.385-.052.768-.118,1.15-.183.256-.043.512-.089.766-.144.246-.053.489-.118.733-.178.085-.021.171-.038.254-.064.275-.087.549-.179.824-.267.142-.046.289-.077.426-.134.187-.077.364-.177.548-.259.297-.132.61-.232.892-.389.528-.294,1.049-.603,1.553-.934.539-.354,1.027-.776,1.469-1.248.343-.367.667-.748.935-1.175.025-.041.061-.075.096-.109.082-.08.195-.155.147-.287-.047-.129-.182-.104-.289-.112-.299-.023-.599-.04-.899-.062-.167-.012-.334-.04-.501-.043-.814-.013-1.629-.019-2.443-.029-.052,0-.104-.016-.157-.022-.166-.017-.335-.054-.479.076-.353.317-.68.666-1.091.914-.399.24-.794.487-1.196.721-.104.061-.231.082-.345.127-.122.048-.241.105-.364.151-.192.073-.385.144-.581.207-.237.077-.474.161-.717.212-.313.067-.633.106-.95.154-.271.041-.541.102-.813.11-.552.017-1.105.007-1.658.005-.124,0-.249-.001-.371-.02-.448-.069-.896-.136-1.341-.221-.35-.067-.701-.137-1.039-.244-.363-.115-.716-.264-1.065-.42-.34-.152-.673-.322-1.001-.5-.169-.092-.319-.218-.48-.326-.077-.051-.17-.083-.236-.143-.251-.229-.49-.471-.744-.696-.066-.058-.172-.102-.259-.1-.903.019-1.806.046-2.708.075-.158.005-.317.023-.474.04-.129.014-.257.047-.387.054-.261.013-.523,0-.782.022-.196.017-.23.126-.108.279.047.059.096.116.139.178.397.57.841,1.094,1.366,1.554.514.451,1.04.884,1.619,1.248.026.016.052.033.079.049.224.13.484.197.669.394.016.017.047.02.071.031.372.167.743.339,1.118.501.302.131.603.269.916.37.43.139.867.256,1.305.366.391.099.784.194,1.181.26.553.092,1.109.172,1.667.225.536.051,1.076.059,1.448.078ZM46.949,12.179c.313-.024.429-.038.543-.155.264-.272.621-.349.957-.467.197-.07.407-.104.609-.162.461-.133.933-.245,1.308-.572.058-.05.119-.127.127-.197.013-.12,0-.248-.028-.367-.031-.137-.091-.266-.133-.4-.081-.259-.13-.532-.242-.775-.195-.423-.408-.84-.751-1.172-.203-.197-.387-.414-.592-.609-.153-.145-.318-.281-.492-.399-.236-.16-.483-.307-.732-.446-.311-.174-.616-.378-.95-.491-.51-.171-1.008-.374-1.541-.488-.53-.113-1.056-.244-1.593-.318-.306-.042-.612-.101-.92-.112-.504-.019-1.009-.018-1.513-.002-.357.012-.713.059-1.068.098-.153.017-.306.047-.455.085-.139.036-.159.132-.057.234.034.034.078.058.119.083.453.285.907.571,1.361.854.258.161.515.322.777.476.444.261.891.517,1.336.774.152.088.303.179.457.264.25.139.504.269.752.411.343.196.683.399,1.023.601.091.054.171.126.264.175.225.119.46.219.68.345.359.206.71.426,1.065.64.268.162.532.329.804.483.136.077.183.175.139.391-.03.147-.152.132-.243.111-.362-.085-.73-.159-1.079-.285-.541-.194-1.07-.42-1.599-.645-.495-.211-.986-.433-1.473-.661-.319-.149-.628-.318-.942-.478-.29-.148-.581-.293-.871-.442-.419-.215-.838-.431-1.257-.646-.223-.115-.446-.228-.667-.345-.181-.096-.36-.197-.54-.296-.058-.032-.11-.078-.171-.099-.102-.036-.162.017-.13.12.028.091.068.182.121.261.133.198.302.376.409.586.18.353.442.647.656.975.326.499.761.908,1.189,1.314.243.23.548.4.839.573.46.274.96.459,1.467.627.117.039.232.085.352.109.367.073.735.143,1.104.203.527.085,1.055.158,1.583.237ZM30.418,5.109c-.412.034-.828.058-1.24.105-.495.057-.992.109-1.47.269-.099.033-.212.024-.31.058-.215.074-.42.183-.638.241-.341.092-.661.221-.979.379-.462.231-.908.486-1.332.776-.637.434-1.219.937-1.73,1.517-.301.341-.586.695-.883,1.04-.141.164-.148.239-.002.399.211.231.426.459.638.689.269.292.539.583.803.88.228.257.449.519.669.782.064.076.124.135.234.109.304-.074.61-.14.912-.22.493-.131.976-.293,1.459-.459.711-.244,1.388-.55,2.042-.916.237-.133.493-.236.714-.391.468-.329.935-.664,1.372-1.033.421-.356.816-.745,1.139-1.199.133-.187.288-.357.426-.54.092-.122.174-.252.255-.383.015-.024.017-.078,0-.095-.017-.018-.066-.016-.096-.007-.041.013-.078.04-.115.065-.209.14-.412.291-.628.419-.364.214-.738.411-1.105.619-.176.1-.345.213-.52.314-.122.07-.253.125-.377.191-.516.275-1.03.553-1.547.827-.31.164-.62.329-.935.483-.343.169-.688.334-1.038.488-.421.185-.849.355-1.274.531-.032.013-.067.023-.099.036-.238.09-.474.189-.716.266-.099.031-.227.048-.317.011-.202-.084-.195-.346.012-.48.317-.205.644-.394.964-.594.127-.079.244-.175.371-.254.243-.151.494-.29.734-.444.49-.315.974-.641,1.465-.955.411-.263.85-.483,1.219-.808.013-.011.03-.018.045-.027.423-.261.849-.519,1.268-.786.297-.188.584-.39.879-.583.188-.123.381-.238.571-.358.322-.206.645-.41.962-.624.049-.033.093-.113.091-.169-.002-.037-.087-.096-.139-.102-.149-.015-.3-.004-.45-.01-.433-.017-.866-.038-1.303-.057ZM20.142,11.101c-.088.555.139,1.059.3,1.567.135.423.353.82.539,1.226.104.228.219.451.328.677.137.285.279.567.406.856.055.124.128.188.262.168.222-.033.443-.076.666-.102.293-.034.588-.057.883-.083.21-.019.284-.11.254-.315-.015-.105-.036-.209-.044-.314-.036-.497-.086-.995-.094-1.493-.004-.304-.096-.577-.229-.829-.091-.172-.263-.308-.417-.439-.372-.317-.684-.687-.972-1.079-.235-.319-.47-.637-.848-.805-.016-.007-.033-.016-.045-.028-.186-.19-.578-.085-.716.122-.175.262-.346.528-.274.871ZM48.187,15.373c.174.02.289-.096.42-.175.373-.224.769-.416,1.116-.675.483-.361.958-.742,1.382-1.169.422-.425.683-.97.885-1.536.08-.223.01-.33-.225-.348-.076-.006-.161.006-.232.034-.102.04-.191.114-.293.152-.076.028-.172.045-.247.024-.143-.041-.279-.107-.413-.174-.136-.068-.261-.058-.369.04-.318.288-.717.36-1.117.433-.282.051-.571.076-.842.162-.501.158-.871.485-1.118.955-.24.458-.363.954-.512,1.443-.068.222.041.368.22.486.409.269.896.242,1.346.347ZM37.704,24.077c-.009,0-.018,0-.027,0,0,.075,0,.15,0,.226,0,.075.004.15.002.226-.005.216.078.345.285.423.144.054.289.113.439.145.148.031.304.051.453.038.237-.02.47-.073.706-.108.565-.084,1.096-.263,1.58-.57.246-.156.322-.52.145-.747-.129-.166-.279-.32-.494-.383-.084-.025-.168-.054-.25-.086-.091-.035-.09-.091-.021-.147.034-.027.074-.05.115-.064.256-.09.463-.245.651-.441.333-.347.352-.479.075-.87-.018-.025-.034-.055-.059-.071-.18-.117-.356-.24-.543-.344-.299-.166-.625-.239-.968-.225-.529.021-1.059.049-1.588.066-.254.009-.38.111-.396.361-.037.558-.076,1.116-.102,1.675-.014.298-.002.597-.002.896ZM27.959,23.84c.005,0,.011,0,.016,0,0,.274-.002.549,0,.823.001.134.071.229.196.272.187.065.376.128.567.177.248.064.399-.046.415-.301.015-.238.007-.477.027-.714.007-.089.065-.173.1-.26.09.039.18.077.27.117.008.003.012.013.019.018.225.178.446.36.675.531.184.137.391.244.563.394.347.302.555.185.817-.001.124-.088.125-.175.032-.294-.049-.063-.097-.127-.152-.184-.261-.263-.524-.524-.787-.785-.079-.079-.081-.156.005-.226.089-.072.188-.132.276-.205.236-.198.483-.386.697-.605.178-.183.206-.47.014-.686-.156-.175-.298-.364-.469-.522-.106-.097-.248-.185-.386-.21-.329-.06-.664-.1-.998-.111-.514-.017-1.024.035-1.527.151-.143.033-.221.123-.248.261-.014.069-.022.14-.025.21-.033.716-.065,1.432-.098,2.148ZM35.856,24.952s0-.002,0-.004c.084,0,.168.003.252,0,.254-.013.365-.177.3-.417-.087-.318-.173-.637-.239-.959-.079-.388-.136-.78-.204-1.17-.03-.174-.082-.345-.093-.52-.013-.198-.1-.365-.22-.498-.063-.07-.217-.057-.33-.082-.03-.007-.06-.014-.091-.019-.331-.053-.661-.113-.993-.155-.21-.026-.403.04-.513.232-.087.15-.143.318-.212.479-.171.394-.347.787-.511,1.184-.122.296-.229.598-.337.9-.083.231-.148.468-.236.697-.066.169-.058.301.095.392.22.131.46.224.726.194.218-.025.308-.126.358-.33.044-.178.101-.355.167-.526.063-.164.121-.18.297-.179.263.002.527-.009.79-.021.092-.004.167.008.209.1.072.156.143.312.218.467.074.152.191.239.368.233.066-.002.133,0,.199,0ZM25.409,21.031s0,.007-.001.01c-.111,0-.222.004-.332,0-.339-.013-.629.115-.856.351-.271.282-.512.585-.673.955-.167.382-.321.754-.346,1.18-.02.339.105.626.278.877.186.27.495.424.801.544.472.185.964.184,1.464.141.459-.04.744-.332,1.032-.631.085-.088.161-.189.223-.294.036-.061.072-.158.047-.21-.042-.089-.119-.176-.204-.226-.112-.066-.246-.097-.371-.14-.209-.072-.308-.036-.428.144-.123.184-.247.366-.45.477-.085.046-.162.108-.243.16-.228.146-.733.1-.827-.306-.075-.322-.063-.631.068-.932.093-.214.188-.427.294-.635.101-.199.208-.397.331-.583.098-.147.25-.12.309.049.041.115.065.238.088.358.056.306.214.595.629.498.067-.016.141-.008.211-.005.189.007.326-.104.344-.293.012-.132.032-.269.009-.396-.034-.184-.069-.384-.168-.535-.162-.247-.401-.426-.704-.485-.173-.034-.35-.048-.525-.07ZM46.92,22.604c0-.007.002-.014.003-.021.066,0,.133.001.199,0,.185-.004.326-.116.323-.297-.003-.188-.045-.376-.078-.562-.006-.033-.045-.065-.075-.09-.083-.071-.164-.149-.257-.204-.103-.062-.216-.109-.329-.15-.107-.039-.222-.055-.331-.091-.356-.118-.704-.26-1.086-.067-.377.19-.753.353-.984.754-.234.405-.116.861.177,1.117.229.2.518.329.776.497.207.134.415.268.606.423.137.111.107.257-.044.346-.046.027-.095.049-.136.082-.107.087-.225.093-.35.057-.249-.073-.476-.183-.664-.37-.231-.228-.495-.223-.724.003-.129.127-.127.262.001.391.346.347.781.526,1.246.631.462.105.92.071,1.373-.078.43-.141.694-.428.794-.859.023-.1,0-.249-.064-.322-.149-.171-.321-.329-.509-.456-.184-.125-.406-.192-.598-.307-.219-.131-.428-.279-.631-.433-.132-.1-.184-.283-.109-.402.084-.133.184-.263.302-.365.147-.128.312-.051.349.141.016.087.036.173.057.259.039.158.128.275.293.307.155.031.312.047.469.07ZM45.73,17.506c.002.013.005.026.007.039.167-.045.338-.081.501-.139.149-.052.284-.147.435-.188.216-.058.44-.083.661-.123.363-.067.721-.147,1.064-.293.227-.097.338-.305.178-.491-.148-.172-.332-.34-.536-.43-.235-.104-.499-.176-.774-.109-.073.018-.16.004-.236-.015-.397-.099-.788-.22-1.188-.303-.407-.085-.771.009-1.041.355-.136.174-.222.369-.254.589-.033.228-.04.443.189.587.037.023.061.064.095.092.265.214.497.497.898.43ZM23.337,15.929c-.001-.006-.002-.012-.003-.019-.268.051-.54.091-.804.157-.217.054-.429.129-.636.214-.133.055-.167.209-.066.293.164.137.33.295.524.368.26.098.546.132.824.178.165.027.337.008.502.037.282.049.561.119.841.179.308.066.585.025.85-.173.281-.21.498-.521.881-.583.04-.006.093-.09.093-.138,0-.046-.055-.103-.1-.133-.049-.033-.114-.046-.174-.062-.453-.115-.901-.26-1.36-.331-.402-.062-.818-.104-1.225.01-.045.013-.097.002-.145.002ZM20.259,17.605c0,.006-.002.011-.003.017-.106.005-.212.019-.317.015-.19-.007-.342.061-.473.196-.161.166-.17.295.025.425.195.131.412.234.628.33.273.121.553.225.833.33.222.083.447.162.673.234.213.068.432.12.646.186.15.046.307.108.45.027.298-.169.586-.355.872-.543.079-.052.068-.14.012-.212-.117-.149-.265-.243-.46-.254-.06-.003-.123-.018-.178-.042-.149-.064-.296-.136-.443-.205-.657-.309-.657-.3-1.38-.316-.202-.004-.403-.076-.603-.119-.094-.02-.187-.046-.281-.07ZM48.883,35.26c.147-.013.249-.018.349-.031.126-.017.265-.012.375-.065.416-.2.839-.386,1.199-.692.267-.227.516-.479.649-.79.131-.308.308-.635.18-1.001-.004-.012-.001-.026-.002-.04-.011-.206-.118-.281-.322-.266-.289.022-.582.07-.869-.022-.248-.079-.342-.016-.351.241-.01.278-.076.54-.196.789-.073.151-.148.3-.227.447-.09.165-.177.333-.281.489-.075.112-.211.193-.258.313-.063.159-.166.263-.289.366-.048.04-.108.128-.092.165.022.053.109.079.136.096ZM47.466,19.46c.163-.043.358-.097.553-.145.456-.112.915-.212,1.368-.336.249-.068.487-.173.729-.265.204-.077.408-.156.609-.241.093-.039.173-.103.153-.221-.018-.109-.108-.139-.201-.166-.173-.049-.343-.112-.518-.151-.131-.028-.268-.036-.402-.034-.109.001-.217.038-.326.044-.309.017-.619.02-.928.043-.106.008-.212.051-.313.089-.234.088-.463.191-.699.274-.21.075-.427.128-.638.199-.051.017-.096.061-.136.1-.075.075-.073.15,0,.233.057.066.099.145.15.217.138.194.313.33.598.358ZM18.654,30.172c-.005.039-.009.087-.017.135-.041.27-.086.539-.125.809-.036.249-.064.498-.102.747-.018.12-.054.245.045.338.112.105.256.11.4.071.101-.028.207-.047.302-.09.309-.138.621-.272.917-.434.185-.101.211-.246.142-.446-.009-.025-.021-.05-.021-.076-.006-.299-.047-.599.037-.896.056-.2-.01-.339-.203-.419-.285-.118-.576-.22-.866-.327-.27-.1-.587.221-.525.461.01.038.009.079.015.128ZM46.736,27.738c.041.065.065.144.119.182.111.078.234.139.357.199.336.163.673.325,1.013.479.062.028.157.042.211.014.181-.097.351-.214.523-.328.076-.051.137-.133.219-.167.321-.133.649-.25.972-.38.062-.025.11-.084.165-.128-.049-.057-.094-.118-.148-.169-.023-.022-.064-.029-.098-.038-.239-.058-.475-.137-.717-.164-.251-.029-.479-.11-.711-.194-.265-.096-.534-.174-.764-.349-.13-.099-.215-.074-.345.032-.278.225-.491.505-.69.797-.041.06-.064.132-.102.214ZM24.884,29.379c-.074.016-.175.031-.272.059-.438.127-.877.255-1.312.392-.06.019-.144.096-.143.145.003.141.008.288.122.405.198.202.466.252.716.317.323.084.649.153.951.3.264.128.523.155.765-.048.088-.075.17-.158.248-.243.041-.045.067-.104.105-.152.125-.156.102-.314-.056-.446-.196-.163-.391-.327-.577-.502-.149-.141-.323-.208-.548-.227ZM50.38,28.29c-.158.032-.393.069-.622.13-.298.08-.589.173-.74.489-.074.155-.096.293.007.433.136.184.274.367.423.54.042.049.125.081.191.087.228.02.419-.092.606-.201.142-.083.29-.118.454-.12.217-.003.43-.002.64.07.121.041.253.016.343-.084.094-.104.109-.229.032-.355-.135-.222-.269-.444-.407-.663-.023-.036-.065-.059-.096-.09-.212-.204-.481-.221-.831-.235ZM45.171,31.118c.042-.022.091-.05.141-.074.141-.067.279-.143.425-.197.312-.117.665-.086.958-.282.139-.093.167-.159.068-.296-.046-.064-.076-.14-.125-.201-.153-.192-.303-.388-.471-.566-.11-.118-.251-.207-.374-.313-.232-.2-.243-.211-.536-.014-.025.017-.043.045-.067.064-.176.131-.354.26-.53.392-.144.109-.292.215-.427.334-.11.098-.089.202.032.293.063.047.122.103.171.164.118.143.225.296.344.438.1.119.213.224.39.26ZM50.758,30.218c-.002-.012-.003-.024-.005-.036-.191.03-.38.065-.572.089-.308.039-.423.19-.348.489.047.186.038.366-.013.548-.077.278.055.416.343.423.477.012.962-.083,1.43.098.138.054.243-.014.253-.162.01-.151-.006-.305-.024-.456-.02-.165-.074-.328-.079-.493-.012-.354-.308-.604-.659-.539-.108.02-.218.026-.327.038ZM28.304,35.07c0-.007-.001-.013-.002-.02-.201.022-.402.041-.603.067-.115.014-.152.08-.102.188.069.147.143.293.207.443.159.369.456.62.74.885.158.147.371.151.557.226.25.102.513.065.77.076.169.007.241-.162.129-.287-.119-.134-.205-.276-.254-.45-.057-.202-.155-.393-.209-.596-.057-.215-.184-.332-.395-.374-.093-.019-.185-.047-.277-.074-.09-.026-.178-.066-.269-.079-.095-.014-.194-.003-.292-.003ZM22.461,28.715c.04-.007.096-.018.152-.028.313-.055.53-.285.785-.443.17-.106.166-.256.048-.422-.135-.19-.273-.381-.383-.586-.2-.373-.438-.437-.78-.186-.025.018-.047.04-.072.058-.288.203-.598.361-.937.459-.092.026-.199.025-.277.072-.065.039-.136.13-.134.197.001.056.096.122.163.16.054.03.129.021.193.035.077.017.166.02.226.064.167.121.332.249.478.393.149.147.322.209.539.226ZM40.842,32.301c.005.087,0,.226.021.36.042.258.203.348.448.265.067-.022.135-.043.203-.059.347-.082.696-.152,1.04-.245.223-.06.408-.386.352-.605-.061-.242-.173-.464-.34-.652-.111-.125-.25-.194-.427-.152-.353.082-.703.168-1.034.326-.176.084-.252.213-.263.393-.007.106-.001.212-.001.369ZM18.951,32.784c-.001-.008-.003-.017-.004-.025-.086.017-.175.025-.257.053-.243.085-.287.273-.115.472.12.139.241.277.362.416.405.463.939.633,1.53.673.052.004.107-.006.158-.018.163-.038.203-.166.1-.298-.092-.118-.194-.232-.262-.363-.16-.312-.237-.651-.283-.997-.031-.236-.144-.297-.362-.203-.225.096-.456.181-.686.265-.056.02-.121.018-.181.026ZM28.471,33.084c.269-.006.435.045.637.172.23.144.321.122.458-.113.018-.03.026-.066.044-.096.104-.18.211-.36.401-.464.093-.051.147-.114.121-.222-.026-.108-.102-.142-.207-.172-.247-.072-.497-.15-.727-.263-.216-.106-.431-.179-.67-.179-.17,0-.294.071-.397.218-.166.238-.342.473-.597.631-.124.077-.125.174-.006.262.045.034.096.071.15.082.289.057.579.107.794.146ZM23.475,34.193c.39.002.507-.182.334-.487-.09-.158-.148-.315-.131-.501.012-.133-.097-.257-.225-.29-.19-.049-.385-.087-.569-.153-.103-.036-.2-.106-.281-.181-.081-.075-.159-.12-.271-.097-.114.024-.181.095-.199.204-.03.183-.061.366-.071.551-.019.377.043.737.273,1.052.167.228.364.268.587.085.178-.146.376-.177.554-.182ZM23.771,32.467c.181.002.315-.091.439-.213.094-.092.206-.164.3-.256.097-.094.2-.191.266-.306.086-.149.03-.245-.13-.283-.518-.125-1.02-.293-1.498-.53-.125-.062-.253-.07-.357.033-.11.108-.228.218-.303.349-.08.142-.137.306-.163.468-.031.19.094.313.288.311.154-.002.275.064.407.133.219.115.455.198.685.293.019.008.044.001.066.001ZM44.604,35.846c.001.015.003.029.004.044.336-.043.673-.074,1.006-.134.13-.023.244-.121.371-.169.25-.094.422-.288.597-.47.149-.155.103-.28-.093-.367-.165-.073-.328-.15-.489-.232-.117-.06-.225-.14-.344-.196-.187-.088-.347-.022-.439.163-.031.062-.061.134-.112.177-.263.221-.532.434-.799.65-.041.033-.083.066-.128.094-.097.06-.193.12-.294.172-.066.034-.157.041-.134.147.02.091.086.124.178.123.226-.003.451,0,.677,0ZM45.74,32.784c-.271.002-.349.038-.342.204.011.275-.048.577.3.736.339.154.647.383.992.517.253.099.507.036.622-.235.084-.198.177-.393.255-.594.04-.102.058-.212.08-.32.02-.098.025-.194-.073-.262-.103-.072-.205-.064-.313-.01-.066.033-.137.082-.206.083-.18.002-.36-.015-.539-.033-.268-.026-.536-.059-.778-.086ZM47.596,32.006c-.01-.088-.032-.176-.027-.263.014-.248-.107-.433-.27-.597-.176-.176-.321-.176-.533-.045-.118.073-.249.139-.383.167-.249.052-.504.077-.757.107-.136.016-.215.074-.228.213-.01.104.004.211.01.317.006.125.045.236.153.309.243.163.498.287.805.212.077-.019.155-.041.233-.047.192-.015.392-.056.577-.022.268.049.414-.149.42-.352ZM42.848,33.54c-.014-.09-.017-.148-.032-.203-.037-.145-.094-.159-.213-.071-.069.051-.148.111-.229.123-.27.04-.542.061-.814.086-.206.019-.403.047-.524.251-.09.151-.194.294-.296.438-.097.138-.148.402-.078.486.123.148.284.116.452.1.235-.023.484-.057.708-.007.425.096.612-.163.794-.479.071-.124.103-.271.147-.409.035-.113.062-.228.085-.315ZM20.733,29.685c.078-.03.134-.043.182-.071.213-.125.42-.259.635-.381.112-.064.133-.143.081-.254-.139-.298-.406-.426-.696-.524-.12-.04-.251-.059-.358-.121-.202-.117-.375-.068-.575.077-.088.064-.177.132-.276.173-.219.093-.443.173-.667.253-.095.034-.151.085-.145.193.007.111.086.122.172.145.317.087.633.18.947.277.239.074.475.158.699.233ZM41.152,35.228s0,.001,0,.002c-.142,0-.284.006-.425-.002-.168-.01-.304.063-.388.189-.111.167-.229.347-.271.538-.065.29-.197.535-.359.773-.094.138-.068.199.097.238.398.093.733-.097,1.044-.28.468-.276.775-.707.949-1.226.049-.146-.001-.224-.155-.23-.163-.006-.327-.001-.491-.001ZM21.229,17.23c.002.007.005.013.007.02.082-.033.206-.045.235-.105.027-.055-.046-.16-.076-.243-.003-.008-.011-.014-.016-.021-.201-.257-.229-.524-.063-.813.03-.053.035-.142.013-.199-.045-.119-.118-.226-.175-.34-.177-.35-.353-.701-.528-1.052-.1-.202-.193-.407-.298-.606-.023-.043-.083-.066-.127-.098-.028.041-.078.081-.08.123-.006.176.003.352.006.528.003.152,0,.305.008.457.007.139-.012.298.048.412.101.192.117.376.09.582-.012.088.008.197.054.272.05.082.151.131.222.201.169.165.369.332.32.596-.038.206.052.257.213.276.048.006.097.007.145.01ZM51.896,15.783c.012-.002.023-.004.035-.005-.032-.264-.078-.528-.092-.793-.011-.196-.103-.342-.213-.486-.124-.163-.27-.153-.379.021-.115.183-.236.362-.348.546-.167.274-.332.549-.489.829-.046.082-.089.193.037.25.095.043.201.062.303.091.262.072.527.133.784.218.197.065.322.003.339-.206.012-.154.016-.309.023-.463ZM24.904,35.57c.295.054.58-.043.833-.249.037-.03.085-.048.13-.064.157-.059.229-.191.277-.335.035-.106-.022-.181-.133-.17-.109.011-.215.047-.323.07-.103.022-.206.054-.31.058-.382.015-.717-.124-1.026-.335-.166-.113-.298-.109-.464-.002-.11.071-.233.121-.352.178-.095.046-.196.08-.288.132-.136.077-.14.175,0,.245.227.113.463.211.699.305.084.034.188.022.268.062.21.106.43.125.691.104ZM29.136,34.64c.275-.002.374-.155.292-.341-.023-.052-.043-.106-.067-.159-.14-.31-.345-.542-.705-.588-.296-.038-.592-.087-.889-.113-.24-.021-.403.18-.367.42.011.073.022.151.011.223-.036.228,0,.287.232.323.065.01.132.008.199.005.186-.008.371-.03.556-.025.101.003.204.042.301.078.168.062.332.134.438.178ZM18.856,16.242c-.179.022-.36.036-.536.07-.069.013-.174.064-.182.111-.011.072.025.183.081.228.177.142.299.318.408.513.192.346.354.374.669.135.018-.013.035-.027.052-.041.151-.128.318-.171.517-.136.094.017.203-.005.294-.039.144-.055.165-.223.033-.301-.223-.133-.41-.341-.695-.357-.051-.003-.108-.021-.148-.051-.148-.11-.313-.137-.492-.133ZM48.937,17.435l.013-.031c.035-.002.071-.003.106-.005.202-.011.229-.044.239-.249.004-.078.012-.167.052-.229.097-.15.209-.291.327-.426.076-.087.114-.171.092-.288-.014-.071-.02-.154.003-.221.053-.154.118-.305.192-.449.069-.135.164-.257.233-.393.026-.051.008-.123.011-.186-.07.015-.149.013-.207.048-.306.183-.602.383-.912.56-.169.096-.19.208-.077.371.097.141.188.307.215.472.05.316-.152.533-.368.732-.06.055-.105.127-.156.192.079.034.159.068.238.102ZM51.293,17.718c.123-.037.237-.048.317-.106.041-.03.021-.144.028-.219,0-.004,0-.009.001-.013.026-.298-.11-.489-.393-.554-.039-.009-.077-.019-.115-.031-.457-.147-.861-.044-1.224.256-.119.099-.112.236.026.298.079.036.184.059.265.038.3-.075.55-.005.785.191.085.071.209.097.309.141ZM19.56,14.14s-.005,0-.007,0c.004-.088.016-.177.012-.264-.006-.118-.018-.237-.042-.352-.008-.036-.068-.092-.096-.088-.164.027-.344.037-.458.175-.236.287-.428.602-.561.952-.035.091.002.146.089.144.103-.002.214-.01.308-.048.196-.079.378-.1.569.016.118.072.184.026.186-.111.002-.141,0-.283,0-.424ZM42.84,22.19c.171.011.279-.095.342-.301.063-.205.135-.41.224-.605.087-.191.02-.373-.185-.425-.085-.022-.173-.033-.261-.046-.197-.031-.308.049-.345.246-.041.22-.075.437-.181.644-.116.227.031.447.286.478.039.005.079.007.119.01ZM19.734,15.62c-.006-.022-.009-.092-.043-.136-.253-.327-.564-.592-1.018-.335-.042.024-.089.041-.128.069-.086.061-.185.114-.246.194-.043.056-.061.167-.035.229.023.054.124.097.194.101.098.005.201-.02.297-.05.106-.033.193-.021.288.037.108.066.225.122.343.166.206.077.338-.017.348-.275Z"/>
          <path class="st0" d="M37.034,16.843c-.124,0-.248.002-.372,0-.181-.003-.297-.165-.232-.332.063-.163.082-.328.084-.502.002-.205.029-.41.052-.614.011-.097.144-.206.25-.196.221.021.443.044.661.088.333.066.413.462.199.682-.139.142-.135.169-.008.322.097.116.084.242.023.357-.056.108-.133.208-.285.198-.123-.008-.248-.002-.372-.002ZM37.051,16.198l-.015-.023c-.064.036-.152.057-.185.111-.028.045-.016.16.022.19.069.055.167.084.257.098.09.014.165-.034.176-.135.012-.107-.029-.192-.136-.228-.037-.012-.078-.009-.118-.013ZM37.155,15.886c.089.005.191,0,.203-.132.01-.102-.097-.185-.228-.187-.12-.002-.194.06-.195.163,0,.115.053.155.219.156Z"/>
          <path class="st0" d="M28.439,17.372c-.075-.463.259-.649.534-.866.119-.094.251-.162.421-.147.129.011.24.04.335.126.062.056.124.114.178.178.263.31.216.821-.059,1.124-.255.281-.558.36-.912.33-.037-.003-.082-.013-.108-.037-.213-.199-.485-.368-.389-.708ZM29.654,17.289q0-.316-.218-.503c-.099-.085-.222-.097-.319-.024-.142.105-.297.217-.261.437.009.056.001.115.001.172,0,.149.103.293.25.353.144.059.301.018.415-.076.132-.107.145-.242.132-.359Z"/>
          <path class="st0" d="M39.382,14.664c-.418,0-.701-.233-.767-.606-.031-.18.054-.335.157-.463.192-.239.462-.309.752-.241.298.07.498.258.551.573.036.21-.049.385-.189.527-.146.147-.317.262-.505.21Z"/>
          <path class="st0" d="M30.708,13.334c.374,0,.738.28.821.557.069.231-.131.53-.281.628-.308.201-.612.199-.926.001-.366-.23-.378-.785-.005-1.006.145-.086.308-.142.391-.18Z"/>
          <path class="st0" d="M40.166,17.799c-.243-.074-.554-.18-.739-.455-.072-.107-.061-.303-.026-.443.056-.219.166-.425.252-.637.018-.044.023-.094.047-.133.041-.067.084-.169.14-.179.069-.012.175.036.223.093.042.05.064.179.03.22-.173.21-.158.484-.268.716-.096.203.096.417.317.391.038-.004.095-.016.106-.041.087-.187.225-.35.251-.567.015-.127.039-.259.161-.346.076-.054.145-.079.228-.024.094.063.165.143.134.262-.023.088-.072.168-.105.253-.07.177-.143.353-.207.532-.069.192-.282.358-.545.357Z"/>
          <path class="st0" d="M32.365,16.338c0,.187.001.332,0,.477-.001.123-.082.194-.183.234-.082.033-.16-.002-.206-.078-.023-.038-.033-.089-.035-.135-.005-.179-.013-.349-.08-.526-.058-.156-.026-.347-.027-.523,0-.093-.041-.21.065-.266.07-.037.171-.064.241-.042.053.017.094.114.114.183.019.065-.003.142.01.211.006.035.044.082.076.09.031.008.091-.016.108-.044.067-.11.134-.224.179-.344.064-.17.21-.282.384-.275.093.004.121.032.074.122-.075.143-.152.286-.211.435-.052.132-.067.332.089.46.126.103.236.226.347.347.086.093.045.209-.08.228-.18.028-.338-.005-.453-.168-.068-.097-.147-.186-.23-.271-.04-.041-.099-.064-.183-.117Z"/>
          <path class="st0" d="M35.311,16.756c-.082-.022-.163-.044-.245-.065-.02-.005-.042-.004-.063-.002-.178.015-.355.037-.534.045-.117.006-.34-.201-.348-.318-.013-.182-.015-.355.155-.49.063-.051.114-.172.102-.251-.039-.253.113-.394.27-.536.103-.093.37-.073.462.031.029.033.07.101.057.118-.035.049-.09.101-.147.114-.076.018-.167-.003-.197.094-.034.107-.015.208.063.295.096.107.201.193.355.124.082-.037.169-.049.208.034.035.075.061.191.026.254-.071.133-.095.234.022.35.034.033.033.102.048.155-.05.009-.099.02-.149.027-.026.004-.053,0-.079,0l-.005.02ZM34.49,16.262c-.003.144.047.203.174.209.111.005.198-.058.198-.144.001-.092-.139-.233-.235-.232-.11,0-.135.076-.137.167Z"/>
          <path class="st0" d="M26.847,18.041c.166-.172.316-.352.492-.501.095-.081.23-.124.353-.162.185-.057.495.219.415.51-.066.24-.01.374.207.517.015.01.034.013.046.025.066.064.209.094.124.231-.098.159-.251.194-.378.087-.172-.145-.337-.299-.505-.449.016-.012.033-.023.049-.035.03-.094.078-.188.083-.283.003-.057-.05-.148-.1-.17-.089-.039-.183-.002-.236.092-.066.118-.025.334.057.444.075.101.128.218.189.329.059.106.124.21.168.322.016.041-.005.118-.038.154-.15.165-.229.201-.335-.018-.128-.264-.261-.527-.398-.787-.057-.107-.129-.206-.194-.307Z"/>
          <path class="st0" d="M41.498,17.776c-.05.038-.113.062-.129.104-.017.044-.007.122.024.155.077.082.171.148.26.219.061.049.129.089.184.143.064.064.052.135-.01.198-.061.062-.127.073-.199.017-.128-.099-.256-.199-.387-.294-.052-.038-.111-.07-.171-.093-.228-.084-.273-.259-.135-.452.1-.14.169-.302.253-.453.091-.163.172-.334.28-.485.098-.138.174-.12.307-.012.145.117.309.21.464.315.057.039.12.073.168.121.06.06.087.134.015.21-.069.072-.149.091-.237.041-.038-.021-.07-.052-.103-.082-.042-.039-.078-.085-.124-.119-.087-.064-.215-.054-.262.018-.064.097-.008.173.062.229.091.073.203.122.287.201.032.03.034.125.011.172-.032.068-.1.114-.186.06-.066-.041-.133-.082-.2-.121-.051-.03-.104-.057-.171-.093Z"/>
          <path class="st0" d="M31.604,16.885c.037.246-.025.355-.235.41-.146.038-.299.051-.448.08-.238.047-.539-.286-.573-.463-.023-.115-.04-.231-.055-.348-.024-.182.05-.336.166-.464.178-.198.341-.417.631-.469.129-.023.264.037.31.16.034.091-.05.191-.167.202-.078.008-.165.002-.232.035-.148.073-.256.182-.233.374.012.1.001.203.002.305.002.183.115.302.298.293.11-.006.218-.043.327-.066.066-.014.132-.03.207-.047Z"/>
          <path class="st0" d="M43.439,18.437c-.063-.052-.116-.108-.18-.145-.052-.03-.13-.064-.173-.045-.045.02-.079.1-.086.158-.009.072.017.147.021.222.01.175.05.357.016.523-.038.189-.297.358-.495.17-.141-.134-.268-.281-.403-.422-.055-.058-.073-.127,0-.166.043-.023.121-.007.171.017.048.023.074.092.123.117.048.025.121.043.166.025.038-.015.072-.088.073-.136.008-.208.006-.416.002-.624-.003-.164.109-.258.226-.314.101-.048.235-.042.333.054.091.09.185.178.271.273.115.126.099.194-.066.294Z"/>
          <path class="st0" d="M37.942,16.887c.005-.03.004-.062.015-.09.138-.364.183-.748.254-1.127.021-.11.144-.181.278-.154.116.023.202.142.173.243-.046.164-.106.324-.139.491-.03.149-.043.304-.043.456,0,.125.106.194.268.19.109-.002.21.005.231.137.008.054.014.133-.017.163-.044.042-.126.077-.184.067-.235-.042-.469-.096-.7-.158-.099-.026-.146-.108-.137-.216Z"/>
          <path class="st0" d="M31.175,29.688c.03.1.062.244.119.377.021.05.094.089.152.107.017.005.074-.074.091-.122.044-.125.075-.256.116-.382.012-.036.036-.069.06-.1.102-.131.259-.148.375-.03.035.036.068.125.048.158-.203.347-.298.735-.436,1.107-.076.206-.205.259-.404.163-.035-.017-.075-.025-.111-.04-.122-.051-.208-.128-.204-.275.001-.042-.016-.086-.024-.128-.027-.136-.05-.273-.082-.407-.012-.05-.035-.123-.071-.136-.041-.015-.13.01-.15.045-.062.111-.127.232-.142.355-.016.132-.066.245-.178.262-.097.015-.218-.041-.31-.095-.08-.048-.046-.129-.003-.208.082-.155.149-.318.216-.48.091-.22.166-.447.268-.662.043-.091.129-.172.259-.1.068.038.15.051.217.089.175.1.259.249.193.504Z"/>
          <path class="st0" d="M34.562,31.457c-.15,0-.301.002-.451,0-.145-.002-.235-.139-.183-.272.015-.04.028-.084.031-.126.02-.271.033-.542.056-.813.009-.103.023-.21.06-.306.042-.112.142-.141.261-.13.235.022.471.037.707.053.062.004.124-.004.186.002.095.009.163.068.162.159,0,.09-.067.154-.163.157-.168.005-.336.003-.505.001-.103-.001-.177.035-.176.148.001.108.062.17.175.171.097.001.195.005.292,0,.106-.006.186.033.214.134.017.062-.126.182-.215.185-.124.004-.248.003-.372,0-.095-.002-.182.011-.2.125-.012.079.104.189.203.193.128.005.257,0,.385.002.115.001.207.073.206.16,0,.087-.092.158-.207.159-.155.001-.31,0-.465,0Z"/>
          <path class="st0" d="M40.454,29.629c-.02.207-.039.438-.066.668-.005.044-.032.105-.067.123-.139.07-.281.135-.429.183-.072.023-.093-.026-.071-.104.049-.181.109-.357.174-.533.057-.154.024-.348.006-.521-.012-.11-.192-.21-.285-.189-.113.026-.196.13-.171.245.013.06.066.118.114.162.067.062.154.102.148.217-.008.143-.061.18-.202.2-.222.031-.379-.082-.447-.253-.054-.135-.063-.344.008-.459.102-.167.28-.301.451-.408.261-.164.687-.019.803.266.045.112.023.251.034.403Z"/>
          <path class="st0" d="M41.416,29.135c-.052.066-.088.116-.129.162-.07.08-.163.101-.264.086-.127-.018-.352-.299-.369-.428-.04-.304.137-.479.348-.648.184-.147.392-.173.609-.142.173.025.268.172.335.312.057.116.074.256.089.387.014.122-.009.249.006.371.023.195-.042.345-.197.459-.073.054-.148.105-.227.149-.084.047-.117-.002-.109-.08.016-.16.039-.32.06-.48.015-.117.033-.233.045-.35.015-.152-.068-.26-.176-.349-.095-.079-.207-.067-.297.023-.079.079-.086.197-.001.285.081.085.177.156.277.242Z"/>
          <path class="st0" d="M38.059,31.112c.026-.081.037-.121.052-.159.012-.028.047-.055.043-.078-.029-.158.064-.253.163-.35.028-.028.05-.077.051-.117.006-.163.007-.327,0-.491-.004-.117-.092-.167-.192-.185-.102-.018-.196.014-.252.106-.056.092-.046.185.03.266.048.052.102.099.146.154.084.105.008.275-.128.295-.263.039-.505-.17-.505-.437,0-.36.323-.677.69-.679.184,0,.37-.019.518.133.077.079.133.159.122.277-.022.257-.022.517-.061.772-.026.169-.114.335-.271.417-.105.055-.242.048-.407.076Z"/>
          <path class="st0" d="M33.305,30.075c-.172-.006-.352-.028-.473.134-.044.06-.084.136-.091.208-.019.19-.021.375.165.511.087.063.161.116.271.105.044-.004.099-.017.13.003.064.041.152.094.165.155.018.085-.063.148-.156.159-.456.055-.795-.15-1.068-.491-.027-.034-.034-.088-.041-.134-.007-.048.006-.098-.003-.146-.069-.377.153-.603.419-.801.059-.043.143-.069.216-.072.216-.009.433,0,.65-.004.125-.002.195.072.245.169.041.081-.054.193-.165.203-.004,0-.009,0-.013,0-.084,0-.168,0-.252,0Z"/>
          <path class="st0" d="M27.989,29.113c.054.046.097.1.154.127.083.04.174.081.263.085.098.004.15-.068.122-.172-.042-.154-.083-.309-.135-.46-.08-.237.122-.526.373-.533.324-.009.531.178.702.417.084.117-.028.166-.108.23-.061-.054-.11-.117-.174-.148-.073-.035-.168-.07-.239-.05-.044.012-.085.124-.084.191.001.086.029.182.074.256.152.251.107.501-.135.65-.181.111-.369.058-.537-.03-.118-.062-.224-.155-.32-.25-.141-.139-.133-.173.044-.313Z"/>
          <path class="st0" d="M36.563,30.29c-.127-.002-.255.021-.307-.118-.053-.141.066-.209.133-.304.129-.184.312-.178.497-.162.089.008.151.07.156.166.019.416.039.833.053,1.249.006.18-.051.229-.237.228-.172,0-.233-.066-.241-.236-.013-.27-.034-.54-.053-.825Z"/>
          <path class="st0" d="M30.236,28.987c-.01.017-.018.032-.027.047-.2.356-.394.716-.604,1.066-.047.079-.163.188-.22.173-.112-.028-.209-.129-.303-.21-.016-.014,0-.084.019-.118.198-.341.399-.68.601-1.018.141-.235.368-.233.503.001.011.019.02.038.029.057Z"/>
          <path class="st0" d="M39.616,21.657c.167.009.305-.017.41.031.132.06.254.166.345.281.033.041-.008.194-.062.243-.292.261-.593.516-1.004.576-.213.031-.316-.061-.295-.269.013-.13.023-.26.024-.39.002-.244.089-.369.325-.43.097-.025.2-.033.256-.041Z"/>
          <path class="st0" d="M39.223,24.282c-.097,0-.197.014-.289-.006-.047-.01-.117-.085-.114-.127.009-.192.036-.384.066-.574.016-.1.084-.148.191-.143.221.01.445-.006.661.03.151.025.297.106.432.184.095.055.07.207-.047.294-.368.274-.43.349-.899.341Z"/>
          <path class="st0" d="M30.123,21.633c.221.003.407.061.498.273.032.074.038.193-.001.257-.166.27-.38.496-.673.64-.122.06-.227.157-.351.209-.08.033-.203.05-.267.01-.054-.034-.074-.161-.069-.245.016-.259.051-.517.077-.776.013-.131.065-.234.202-.263.194-.041.389-.07.584-.105Z"/>
          <path class="st0" d="M34.057,23.316c.011-.047.018-.095.034-.14.07-.193.149-.384.213-.579.031-.095.03-.2.056-.297.035-.129.077-.257.127-.381.015-.037.087-.09.102-.081.044.025.094.073.104.121.028.124.037.253.052.381.034.298.064.596.101.894.026.208-.012.282-.216.315-.127.021-.262.022-.39.006-.124-.015-.195-.1-.183-.239Z"/>
        </g>
        <g>
          <path class="st0" d="M261.306,15.094c2.374-.322,4.295,1.514,3.92,3.913-.172,1.104-1.601,3.477-2.245,4.479-.159.248-.832,1.345-1.017,1.373-.233.035-1.558-.319-1.901-.402-1.417-.344-4.289-1.078-5.148-2.262-1.695-2.338.09-5.635,2.959-5.419.242.018.753.213.923.159.117-.037.501-.723.655-.884.407-.424,1.27-.878,1.854-.957Z"/>
          <path class="st0" d="M276.666,14.902v10.038h-1.534c-.026,0,.019-.437,0-.51-1.221.582-2.353.724-3.572.035-2.207-1.248-2.258-4.46-.064-5.749,1.233-.724,2.397-.602,3.636.014v-3.828h1.534ZM275.138,21.568c0-1.038-.843-1.88-1.884-1.88s-1.884.842-1.884,1.88.843,1.88,1.884,1.88,1.884-.842,1.884-1.88Z"/>
          <path class="st0" d="M284.283,21.569c0,1.852-1.504,3.353-3.359,3.353s-3.359-1.501-3.359-3.353,1.504-3.353,3.359-3.353,3.359,1.501,3.359,3.353ZM282.814,21.566c0-1.041-.846-1.885-1.889-1.885s-1.889.844-1.889,1.885.846,1.885,1.889,1.885,1.889-.844,1.889-1.885Z"/>
          <path class="st0" d="M291.398,23.163c.24.379-.959,1.244-1.264,1.397-2.87,1.441-5.964-1.561-4.566-4.472,1.016-2.116,4.06-2.519,5.583-.718.102.12.382.45.266.595-.082.102-1.042.642-1.146.622-.114-.022-.416-.425-.572-.534-1.638-1.145-3.714.685-2.769,2.423.524.964,1.873,1.244,2.769.628.157-.108.456-.512.572-.535.063-.012,1.093.539,1.127.592Z"/>
          <path class="st0" d="M293.199,22.302v-1.404c0-.009.119-.128.128-.128h2.045c.009,0,.128.119.128.128v1.276c0,.009-.119.128-.128.128h-2.173Z"/>
          <path class="st0" d="M303.681,14.902v10.038h-1.534c-.03,0,.022-.517,0-.595-1.581,1.087-3.813.588-4.788-1.047-1.857-3.113,1.85-6.497,4.789-4.482v-3.913h1.534ZM302.136,21.565c0-1.039-.844-1.882-1.885-1.882s-1.885.842-1.885,1.882.844,1.882,1.885,1.882,1.885-.842,1.885-1.882Z"/>
          <path class="st0" d="M311.276,21.568c0,1.851-1.503,3.351-3.357,3.351s-3.357-1.5-3.357-3.351,1.503-3.351,3.357-3.351,3.357,1.5,3.357,3.351ZM309.817,21.563c0-1.042-.847-1.887-1.891-1.887s-1.891.845-1.891,1.887.847,1.887,1.891,1.887,1.891-.845,1.891-1.887Z"/>
          <path class="st0" d="M318.409,19.991c-.034.059-1.091.635-1.208.617-.042-.006-.341-.466-.592-.619-1.649-1.003-3.524.731-2.69,2.43.535,1.091,2.01,1.324,2.927.562.127-.106.327-.426.355-.43.067-.011,1.178.555,1.218.61.179.245-.748,1.063-.957,1.201-1.656,1.09-4.008.5-4.878-1.289-1.425-2.932,1.651-5.932,4.566-4.473.31.155,1.488,1.001,1.259,1.393Z"/>
        </g>
        <g>
          <path class="st0" d="M145.81,20.571c0-5.242-3.708-8.904-9.016-8.904s-9.016,3.661-9.016,8.904,3.708,8.904,9.016,8.904c1.551,0,2.964-.315,4.189-.888l-2.054,4.558h4.443l2.286-5.072h-3.732c2.414-1.528,3.885-4.201,3.885-7.502ZM136.794,25.189c-2.613,0-4.439-1.899-4.439-4.618s1.825-4.618,4.439-4.618c2.627,0,4.461,1.899,4.461,4.618s-1.834,4.618-4.461,4.618Z"/>
          <path class="st0" d="M157.336,23.019c0,1.489-1.022,2.529-2.484,2.529-1.476,0-2.507-1.04-2.507-2.529v-7.736h-4.443v8.32c0,3.457,2.22,5.871,5.4,5.871,1.984,0,3.156-.95,3.591-1.838l.623-1.271v2.862h4.286v-13.945h-4.465v7.736Z"/>
          <path class="st0" d="M176.798,17.324c-1.313-1.475-3.273-2.288-5.52-2.288-4.399,0-7.354,2.901-7.354,7.219,0,4.251,2.923,7.219,7.107,7.219,3.312,0,5.98-1.776,7.066-4.667h-4.291c-.581.769-1.48,1.19-2.55,1.19-1.619,0-2.907-.989-3.284-2.518l-.1-.406h10.635c.197-2.251-.404-4.284-1.708-5.749ZM167.998,21.036l.22-.469c.588-1.255,1.638-1.919,3.038-1.919,1.386,0,2.457.674,3.016,1.899l.211.462-6.484.027Z"/>
          <polygon class="st0" points="174.903 9.979 171.674 9.979 170.06 13.562 173.289 13.562 174.903 9.979"/>
          <path class="st0" d="M163.137,33.135c-.356-.12-.658-.187-.658-.485,0-.24.197-.394.48-.394.298,0,.524.192.524.476h.562c0-.576-.475-.98-1.105-.98-.61,0-1.028.37-1.028.918,0,.629.528.764.99.922.37.13.721.178.721.485,0,.274-.293.423-.581.423-.408,0-.678-.279-.678-.682h-.562c0,.697.481,1.187,1.206,1.187.677,0,1.177-.375,1.177-.956,0-.62-.567-.754-1.047-.913Z"/>
          <polygon class="st0" points="165.656 31.108 165.094 31.108 165.094 31.828 164.474 31.828 164.474 32.333 165.094 32.333 165.094 34.951 165.656 34.951 165.656 32.333 166.271 32.333 166.271 31.828 165.656 31.828 165.656 31.108"/>
          <path class="st0" d="M168.919,33.63c0,.519-.346.875-.85.875s-.85-.356-.85-.875v-1.802h-.562v1.797c0,.821.562,1.379,1.302,1.379.514,0,.85-.274.961-.533v.48h.562v-3.123h-.562v1.802Z"/>
          <path class="st0" d="M172.721,32.328c-.245-.346-.639-.553-1.129-.553-.874,0-1.532.658-1.532,1.614,0,.961.658,1.614,1.532,1.614.49,0,.884-.207,1.129-.548v.495h.562v-3.843h-.562v1.22ZM171.688,34.5c-.615,0-1.047-.447-1.047-1.11,0-.658.432-1.11,1.047-1.11.62,0,1.052.452,1.052,1.11,0,.663-.432,1.11-1.052,1.11Z"/>
          <rect class="st0" x="174.054" y="31.108" width=".562" height=".509"/>
          <rect class="st0" x="174.054" y="32.112" width=".562" height="2.839"/>
          <path class="st0" d="M176.832,31.776c-.966,0-1.638.658-1.638,1.614,0,.961.673,1.614,1.638,1.614s1.638-.653,1.638-1.614c0-.956-.673-1.614-1.638-1.614ZM176.832,34.5c-.62,0-1.057-.447-1.057-1.11,0-.658.437-1.11,1.057-1.11s1.057.452,1.057,1.11c0,.663-.437,1.11-1.057,1.11Z"/>
        </g>
        <g>
          <path class="st0" d="M84.829,34.864h-.926v-.231c-.226.202-.526.318-.903.318-.769,0-1.417-.619-1.417-1.539,0-.914.648-1.539,1.417-1.539.376,0,.677.116.903.318v-.231h.926v2.904ZM83.903,33.412c0-.446-.336-.752-.712-.752-.405,0-.7.307-.7.752,0,.451.295.752.7.752.376,0,.712-.301.712-.752"/>
          <path class="st0" d="M87.652,34.737c-.226.121-.463.214-.793.214-.723,0-1.157-.393-1.157-1.157v-1.099h-.527v-.735h.527v-.856h.925v.856h.856v.735h-.856v1.006c0,.301.145.422.388.422.127,0,.301-.046.422-.116l.214.729Z"/>
          <rect class="st0" x="88.005" y="30.699" width=".926" height="4.165"/>
          <path class="st0" d="M92.656,34.864h-.926v-.231c-.226.202-.526.318-.903.318-.769,0-1.417-.619-1.417-1.539,0-.914.648-1.539,1.417-1.539.376,0,.677.116.903.318v-.231h.926v2.904ZM91.73,33.412c0-.446-.336-.752-.712-.752-.405,0-.7.307-.7.752,0,.451.295.752.7.752.376,0,.712-.301.712-.752"/>
          <path class="st0" d="M96.272,33.083v1.782h-.92v-1.585c0-.341-.202-.573-.498-.573-.364,0-.602.249-.602.81v1.348h-.925v-2.904h.925v.278c.22-.231.527-.364.891-.364.677,0,1.128.48,1.128,1.209"/>
          <path class="st0" d="M99.957,34.864h-.926v-.231c-.226.202-.526.318-.903.318-.769,0-1.417-.619-1.417-1.539,0-.914.648-1.539,1.417-1.539.376,0,.677.116.903.318v-1.493h.926v4.165ZM99.031,33.412c0-.446-.336-.752-.712-.752-.405,0-.7.307-.7.752,0,.451.295.752.7.752.376,0,.712-.301.712-.752"/>
          <path class="st0" d="M102.762,31.943l-.04.926h-.168c-.648,0-1.001.336-1.001,1.088v.908h-.926v-2.904h.926v.555c.208-.347.527-.596,1.001-.596.081,0,.139.006.208.023"/>
          <path class="st0" d="M106.193,34.864h-.926v-.231c-.226.202-.526.318-.903.318-.769,0-1.417-.619-1.417-1.539,0-.914.648-1.539,1.417-1.539.376,0,.677.116.903.318v-.231h.926v2.904ZM105.267,33.412c0-.446-.336-.752-.712-.752-.405,0-.7.307-.7.752,0,.451.295.752.7.752.376,0,.712-.301.712-.752"/>
          <path class="st0" d="M106.252,29.134l-1.548-3.085-1.548-3.085-5.041-10.047-1.939-3.864-2.289-4.562-2.186,4.357-5.323,10.61-1.268,2.528-1.321,2.633-.485.966-.158.315-1.622,3.233h24.727ZM83.687,27.8l.891-1.775c.024.002.048.002.072.003.084.005.168.008.252.011.04.001.081.003.121.004.099.003.197.004.294.005.019,0,.039,0,.058,0h17.836l.878,1.75h-20.403ZM85.403,24.715c-.055,0-.112-.001-.167-.002l.707-1.409c.025-.001.05-.003.075-.004.042-.002.084-.005.126-.007.048-.003.095-.007.143-.01.042-.003.084-.007.126-.01.047-.004.094-.009.141-.014.042-.004.084-.009.126-.013.047-.005.094-.011.141-.017.042-.005.084-.01.125-.016.047-.006.094-.013.14-.02.042-.006.083-.012.124-.019.047-.008.094-.016.14-.024.041-.007.081-.014.122-.022.047-.009.094-.018.141-.028.04-.008.08-.016.12-.024.048-.01.096-.021.144-.032.039-.009.077-.017.116-.026.05-.012.1-.024.15-.037.036-.009.071-.017.107-.027.057-.015.113-.031.169-.046.029-.008.058-.015.086-.024.084-.024.167-.049.251-.075.032-.01.064-.021.095-.031.052-.017.104-.033.156-.051.036-.012.072-.025.108-.038.047-.017.094-.033.141-.05.038-.014.075-.028.113-.043.044-.017.089-.034.134-.051.039-.015.077-.031.115-.047.043-.017.086-.035.129-.053.039-.016.077-.033.115-.05.042-.018.085-.037.127-.055.038-.017.077-.035.115-.053.041-.019.083-.038.124-.058.038-.018.076-.037.115-.056.041-.02.082-.04.123-.061.038-.019.076-.039.113-.059.041-.021.081-.042.121-.064.037-.02.075-.041.112-.061.04-.022.08-.045.12-.067.037-.021.074-.042.11-.064.04-.023.079-.047.119-.071.036-.022.072-.044.109-.066.039-.024.078-.049.117-.073.036-.023.072-.045.107-.069.039-.025.078-.051.116-.077.035-.023.07-.047.105-.071.038-.026.077-.053.115-.08.035-.024.069-.048.103-.073.038-.028.076-.056.114-.084.033-.025.067-.05.1-.075.038-.029.076-.058.114-.088.033-.025.065-.051.097-.076.038-.031.076-.062.114-.093.031-.025.063-.051.093-.077.039-.032.077-.065.115-.098.03-.025.059-.051.089-.077.04-.035.079-.07.118-.106.027-.025.055-.049.082-.074.043-.04.086-.08.129-.121.023-.022.046-.043.068-.065.065-.063.129-.126.193-.19.063-.063.124-.127.186-.192.02-.022.04-.044.06-.065.04-.043.081-.087.12-.131.023-.026.046-.052.069-.078.036-.04.071-.081.106-.121.024-.028.048-.056.071-.085.033-.039.066-.079.099-.119.024-.029.048-.059.071-.088.032-.039.063-.079.094-.119.024-.03.047-.061.07-.091.03-.04.06-.079.09-.119.023-.031.046-.062.068-.093.029-.04.058-.081.087-.121.022-.031.044-.062.066-.094.029-.041.057-.083.085-.125.021-.031.042-.062.062-.092.029-.044.057-.087.085-.131.019-.03.038-.06.057-.09.029-.047.058-.095.087-.142.016-.027.033-.054.049-.081.034-.058.068-.117.101-.176.01-.017.02-.034.029-.051.043-.076.084-.152.125-.229.011-.02.021-.04.031-.06.03-.057.059-.114.088-.171.015-.029.029-.059.043-.088.024-.049.048-.097.071-.146.015-.032.03-.065.045-.097.021-.047.043-.093.063-.14.015-.034.03-.068.044-.102.02-.046.039-.092.058-.138.015-.035.029-.07.043-.105.018-.046.037-.091.055-.137.014-.035.027-.071.041-.106.017-.046.034-.092.051-.139.013-.036.026-.071.038-.107.017-.047.032-.094.048-.141.012-.035.024-.071.035-.106.016-.049.031-.097.046-.146.011-.034.021-.069.032-.103.015-.051.03-.103.045-.155.009-.032.018-.064.027-.096.016-.059.031-.119.047-.178.006-.025.013-.05.019-.074.021-.085.041-.17.06-.255.002-.009.004-.018.006-.026.017-.077.033-.153.048-.23.006-.028.011-.057.016-.085.011-.058.022-.115.032-.173.006-.034.011-.068.017-.101.009-.053.017-.106.025-.159.005-.036.01-.072.015-.108.007-.051.014-.102.021-.153.005-.037.009-.074.013-.112.006-.051.011-.101.017-.152.004-.038.007-.076.011-.113.005-.05.009-.101.013-.151.003-.038.006-.076.009-.114.001-.021.003-.042.004-.064l1.087,2.167c-.001.005-.002.011-.004.016-.008.033-.016.066-.024.099-.012.05-.024.101-.037.151-.009.034-.018.069-.028.103-.013.049-.026.097-.039.146-.01.036-.021.071-.031.106-.013.047-.027.094-.041.14-.011.036-.023.073-.034.109-.014.045-.028.091-.043.136-.012.037-.025.074-.037.11-.015.044-.03.089-.045.133-.013.037-.026.074-.04.111-.016.044-.031.087-.047.13-.014.037-.028.075-.042.112-.016.043-.033.085-.049.128-.015.037-.03.075-.045.112-.017.042-.034.084-.051.125-.016.038-.032.075-.048.112-.018.041-.036.082-.054.123-.017.037-.033.075-.051.112-.018.041-.037.081-.056.122-.017.037-.035.074-.053.112-.019.04-.038.08-.058.119-.018.037-.037.074-.055.111-.02.039-.04.079-.06.118-.019.037-.039.074-.058.111-.021.039-.041.077-.062.116-.02.037-.04.073-.061.11-.021.038-.043.076-.065.114-.021.037-.042.073-.063.109-.022.037-.044.075-.066.112-.022.036-.043.072-.065.108-.023.037-.045.074-.069.111-.022.036-.045.072-.068.107-.023.037-.047.073-.071.109-.023.035-.046.071-.07.106-.024.036-.048.072-.073.108-.024.035-.048.07-.072.105-.025.036-.05.071-.075.106-.024.034-.049.069-.074.103-.025.035-.051.07-.077.105-.025.034-.051.068-.076.102-.026.035-.053.069-.079.103-.026.033-.052.067-.078.1-.027.034-.055.068-.082.102-.026.033-.053.065-.08.098-.028.034-.056.067-.085.101-.027.032-.054.064-.081.096-.029.033-.058.066-.087.1-.027.031-.055.063-.083.093-.03.033-.06.066-.09.099-.028.03-.056.061-.084.091-.031.033-.062.065-.093.098-.028.03-.056.059-.085.088-.032.033-.065.065-.097.098-.028.028-.056.057-.085.085-.034.034-.069.067-.103.1-.028.027-.055.053-.083.08-.037.035-.074.069-.112.104-.026.024-.051.048-.078.072-.042.038-.084.075-.127.113-.022.02-.044.04-.067.059-.065.057-.131.113-.197.168-1.694,1.417-3.731,2.356-5.887,2.737-.18.032-.36.06-.541.084-.181.024-.363.044-.546.06-.365.032-.732.048-1.101.048M88.31,18.584l4.015-8.001v.002c.009.041.017.081.025.122.005.023.01.045.014.067.007.037.013.074.02.112.004.026.01.052.014.078.005.034.01.068.015.102.004.03.009.059.013.089.004.032.008.063.012.095.004.032.008.064.012.096.003.032.006.065.009.097.003.032.006.063.009.095.003.034.005.069.007.103.002.03.004.06.006.09.002.041.003.083.005.125,0,.023.002.046.003.069.002.065.003.13.003.195,0,.097-.003.194-.006.29-.001.031-.004.062-.005.093-.003.066-.008.131-.013.196-.003.036-.006.071-.01.107-.006.061-.013.122-.02.182-.004.036-.009.072-.014.107-.009.062-.018.123-.029.185-.006.033-.011.065-.017.098-.013.073-.028.145-.044.217-.004.02-.008.04-.012.06-.021.092-.043.184-.068.275-.006.022-.012.043-.018.064-.019.069-.039.138-.06.206-.01.031-.02.062-.03.093-.019.059-.039.118-.059.176-.012.032-.023.065-.035.097-.021.057-.043.114-.066.171-.012.031-.025.062-.037.092-.026.062-.053.123-.08.184-.011.024-.021.048-.032.072-.04.085-.08.169-.123.253l-.003.006c-.042.081-.085.16-.129.239-.014.024-.028.049-.042.073-.033.056-.066.112-.1.168-.017.028-.035.056-.052.083-.033.052-.066.103-.101.154-.018.027-.037.055-.055.082-.036.052-.073.104-.111.156-.017.024-.034.047-.052.071-.048.064-.097.126-.146.188-.008.01-.016.02-.024.031-.059.072-.119.144-.181.214-.014.016-.029.032-.044.048-.047.053-.095.106-.144.157-.022.023-.043.045-.065.067-.044.044-.087.089-.132.132-.024.023-.048.046-.072.069-.045.042-.09.084-.136.125-.024.021-.048.043-.072.064-.051.045-.104.089-.156.133-.019.016-.038.032-.057.047-.073.059-.147.116-.222.172-.008.006-.016.011-.024.017-.067.049-.134.097-.203.144-.025.017-.05.033-.075.05-.052.035-.105.07-.159.103-.029.018-.059.036-.088.054-.051.031-.103.062-.155.092-.03.017-.06.035-.091.051-.055.03-.11.06-.166.089-.028.015-.056.03-.084.044-.071.036-.142.07-.214.103-.013.006-.027.013-.04.019,0,0-.004.001-.005.002M93.888,7.467l1.036,2.064c.012.046.024.093.036.14.013.051.026.102.039.153.014.058.026.116.039.174.011.049.022.098.032.147.012.06.023.121.034.182.009.048.018.095.026.143.011.063.02.126.029.188.007.046.014.092.021.139.009.065.016.13.023.195.005.044.011.089.016.134.007.068.012.135.017.203.003.042.008.085.011.127.005.075.008.149.011.224.002.036.004.071.005.107.004.111.006.221.006.332,0,2.615-1.013,5.079-2.852,6.938-.089.09-.18.177-.272.263-.015.014-.03.029-.045.043-.088.082-.178.161-.268.239-.018.015-.036.031-.054.046-.092.078-.186.155-.281.23-.011.008-.022.017-.032.025-.092.072-.184.141-.278.209-.013.01-.026.019-.039.029-.097.07-.195.137-.294.203-.02.013-.04.027-.06.04-.098.064-.198.127-.298.188-.018.011-.035.021-.053.031-.101.06-.204.119-.307.176-.006.003-.011.006-.017.009-.106.058-.213.113-.321.167-.02.01-.04.02-.061.03-.105.051-.21.1-.316.148-.022.01-.043.019-.065.029-.109.048-.219.094-.33.138-.011.004-.022.008-.033.013-.107.042-.214.081-.323.119-.017.006-.034.012-.051.018-.111.038-.223.074-.336.108-.023.007-.046.014-.069.021-.113.033-.227.065-.341.094-.018.005-.036.009-.054.013-.114.029-.229.056-.344.08-.008.002-.017.004-.025.005-.119.025-.239.047-.359.068-.022.004-.044.008-.065.011-.117.019-.235.037-.354.051-.009.001-.017.002-.026.003l.811-1.616c.005-.001.01-.003.015-.004.041-.01.082-.023.124-.034.07-.019.141-.038.21-.058.046-.014.091-.029.136-.043.065-.02.129-.041.193-.063.047-.016.094-.034.141-.051.061-.022.123-.044.183-.068.048-.019.095-.038.142-.058.059-.024.118-.049.177-.074.048-.021.095-.043.142-.065.057-.026.114-.053.171-.081.047-.023.094-.047.141-.071.056-.028.111-.057.166-.087.046-.025.093-.051.139-.077.054-.031.108-.062.162-.094.046-.027.091-.055.136-.083.053-.033.106-.066.158-.1.044-.029.089-.058.132-.088.052-.035.103-.071.154-.107.043-.031.086-.061.128-.092.051-.038.101-.076.151-.115.041-.032.083-.064.123-.096.05-.04.099-.081.148-.123.039-.033.079-.066.118-.1.05-.043.098-.088.147-.133.037-.033.074-.066.11-.101.05-.048.099-.097.148-.146.033-.033.066-.065.099-.098.054-.056.106-.113.159-.17.026-.028.053-.056.078-.085.078-.087.153-.175.227-.265.771-.938,1.325-2.031,1.632-3.194.184-.698.28-1.421.28-2.15,0-.074,0-.147-.003-.221,0-.025-.002-.049-.003-.074-.002-.049-.003-.098-.006-.147-.002-.029-.003-.058-.005-.087-.003-.044-.005-.089-.009-.133-.002-.031-.005-.061-.008-.092-.004-.042-.008-.084-.012-.126-.003-.032-.007-.063-.011-.095-.005-.041-.01-.082-.015-.123-.004-.032-.009-.064-.013-.095-.006-.041-.012-.081-.018-.122-.005-.031-.01-.063-.015-.094-.007-.041-.014-.082-.022-.123-.006-.031-.011-.062-.017-.092-.008-.042-.017-.083-.026-.125-.006-.029-.012-.059-.019-.088-.01-.045-.021-.09-.031-.135-.006-.025-.012-.051-.018-.077-.015-.058-.03-.117-.046-.175-.003-.012-.006-.024-.009-.035-.019-.07-.04-.139-.061-.209-.006-.02-.013-.04-.019-.06-.016-.049-.031-.099-.048-.148-.008-.025-.017-.05-.026-.075-.015-.044-.031-.088-.047-.132-.01-.026-.02-.053-.03-.079-.016-.042-.032-.085-.049-.127-.011-.026-.021-.053-.032-.079-.01-.024-.019-.049-.03-.073l.708-1.412ZM100.994,21.63h-5.416c.097-.104.192-.21.285-.316.028-.032.056-.065.084-.097.067-.078.133-.157.199-.236.029-.035.057-.069.085-.104.075-.093.148-.186.221-.281.014-.018.029-.037.043-.055.085-.113.169-.227.251-.342.022-.031.044-.064.066-.095.06-.086.12-.173.178-.26.025-.038.051-.076.076-.115.059-.091.117-.182.175-.274.018-.029.037-.058.055-.088.073-.12.145-.241.215-.364.016-.028.031-.056.046-.084.054-.097.107-.194.159-.291.021-.04.042-.081.064-.121.047-.092.094-.185.14-.277.018-.037.036-.073.053-.109.061-.127.12-.255.177-.384.007-.016.014-.033.021-.049.05-.114.098-.228.145-.343.017-.041.033-.082.049-.123.038-.096.074-.192.11-.288.015-.04.03-.08.045-.121.008-.023.017-.045.025-.067l2.451,4.885ZM101.664,22.965l.878,1.75h-11.192c.007-.003.014-.007.021-.01.109-.051.217-.105.324-.159.027-.014.054-.028.081-.042.084-.044.168-.088.252-.133.032-.017.063-.034.095-.052.106-.058.212-.118.317-.18.004-.003.009-.005.013-.008.102-.059.202-.121.302-.183.03-.019.06-.038.091-.057.082-.052.164-.105.245-.158.024-.016.047-.031.071-.047.101-.068.201-.137.301-.207.023-.017.046-.033.07-.05.079-.057.158-.115.236-.174.028-.021.056-.042.084-.063.098-.075.196-.151.292-.228h7.52Z"/>
        </g>
      </g>
    </g>
  </g>
</svg>