<?xml version="1.0" encoding="UTF-8"?>
<svg id="Layer_1" xmlns="http://www.w3.org/2000/svg" version="1.1" viewBox="0 0 336 44.8">
  <!-- Generator: Adobe Illustrator 30.2.1, SVG Export Plug-In . SVG Version: 2.1.1 Build 1)  -->
  <defs>
    <style>
      .st0 {
        fill: #231f20;
      }

      .st1 {
        fill: #fafafa;
      }
    </style>
  </defs>
  <rect class="st1" x="-26.9" y="-441.2" width="390" height="844"/>
  <g>
    <g>
      <path class="st0" d="M232.5,4.6l4.3,7v-7h2.6v11h-3.1l-4.3-7c-.2,0-.1.1-.2.3,0,.7,0,1.3.1,1.9,0,1.6,0,3.2,0,4.8h-2.6V4.6h3.1Z"/>
      <path class="st0" d="M255.7,8.8c3-2.4,6.5,0,6.2,3.6s-3.9,5.2-6.4,2.7c0,.3.1.7-.2,1h-2.2l-.2-.2V4.9l.2-.2h2.4l.2.2v4ZM256.2,13.5c.1.1.6.4.8.4,2.7.6,3.1-3.5.9-3.9s-3.1,2.2-1.7,3.5Z"/>
      <polygon class="st0" points="252 7 247.4 7 247.3 7.1 247.3 9 251.3 9 251.5 9.2 251.5 11.2 247.4 11.2 247.3 11.4 247.3 13.3 247.4 13.5 252 13.5 252 15.7 244.7 15.7 244.7 4.9 244.8 4.7 251.9 4.7 252 4.9 252 7"/>
      <rect class="st0" x="240.8" y="8.1" width="2.6" height="10.6"/>
      <path class="st0" d="M240.9,4.7c1.1-1.3,3.5,0,2.4,1.7-1.1,1.7-3.6-.2-2.4-1.7Z"/>
      <polygon class="st0" points="265.3 4.7 265.3 13.2 272.2 13.2 272.2 15.6 262.8 15.6 262.7 15.5 262.7 4.9 262.8 4.7 265.3 4.7"/>
      <path class="st0" d="M276.6,15.4h-2.5v-4.7h-2.9l-1.3,1.7h-2.9l5.9-8.8h3.5l.2.2v11.5ZM274.1,8.8v-2.1c-.3.3-1.4,1.7-1.5,2.1s0,.1.2.2c.4,0,.8,0,1.2,0h.2Z"/>
      <path class="st0" d="M229.4,27.5v-7.3h6.6c1.5,0,3.4,1.3,3.6,2.9.8,5.7-6.7,4.2-10.2,4.4ZM230.5,26.5h5c.2,0,1.1-.3,1.4-.3,2.4-.9,2.1-4-.3-4.6s-1.1-.2-1.4-.2h-4.7v5.2Z"/>
      <path class="st0" d="M249.4,20.3v1h-7.6v1.9h4.7c.3.2.1.6.2,1h-4.9v2.3h7.5c.3.3.1.7.2,1.1h-8.8v-7.3h8.7Z"/>
      <polygon class="st0" points="265.6 20 265.6 30.3 262.9 30.3 262.9 23.4 259.9 30.2 257.8 30.3 254.9 23.5 254.9 40.1 252.3 40.1 252.1 39.9 252.1 20 256.2 20 258.9 25.7 261.5 20 265.6 20"/>
      <path class="st0" d="M272.5,19.8c2.8.3,3.5,2.1,3.4,4.7,0,1.7-.6,3.3-2.4,3.9l2.9,11.6h-2.8l-2.8-11.4h-1s0,11.4,0,11.4h-2.8v-20.2c1.7.1,3.8-.2,5.5,0ZM269.8,26.1h1.7c.5,0,1.5-.4,1.6-.9s.1-2.4-.3-2.8-.8-.4-.8-.4h-2.1v4.1Z"/>
      <path class="st0" d="M265.8,40.1h-2.2l-.2-.6c-1.8,1.8-5.7.6-4.8-2.3.6-1.8,3.3-1.8,4.9-2-.3-1.7-2.3-1.2-3.3-.4-.3-.3-1.3-1.1-1.3-1.4s.8-.6,1-.7c1.7-.9,4.8-1,5.6,1.1s.4,1,.4,1.2v5.1ZM263.4,36.7c-.6,0-2.3,0-2.6.8-.4,1.2,1.6,1.3,2.2.6s.4-.9.3-1.4Z"/>
      <path class="st0" d="M241.5,38.2l.5,1.3.5-1.3h.3s.3,1.6.3,1.6l.7-1.6c0-.1.2,0,.3,0,.3.1.7,1.5.8,1.8-.4,0-.2-.4-.4-.5s-.8,0-.9,0-.2.3-.2.4c-.5.7-.5-1.1-.6-1.4l-.7,1.4-.6-1.4c0,0-.2,1.1-.3,1.3s0,.3-.2.2l.3-1.8h.3ZM244.3,39.4c0-.2-.3-1.1-.4-1l-.3,1h.8Z"/>
      <path class="st0" d="M246.3,29.7c.6,0,1.8-.1,1.3.8s-.4.2-.4.4l.5.4.7-1.6h.3c0,0,.8,1.7.8,1.7-.3.3-.3-.4-.3-.5-.3,0-.9-.1-1.1,0s0,.6-.5.4-.3-.7-.9-.7.1.9-.4.8v-1.8ZM246.5,30.7c.4,0,1.2,0,.9-.7l-.9-.2v.9ZM249,30.8c0,0-.3-.9-.4-.9l-.4.9h.8Z"/>
      <path class="st0" d="M242.6,35.5h-1c0,.1,0,.4,0,.4.3.2.7.2.9.4s.1.4.3.5c0-.3.6-1.6.8-1.5s.8,1.5.8,1.8l-.3-.4h-1s-.2.4-.2.4c-.2,0-.2,0-.2-.2-.4.4-1.2.5-1.5,0,0,0,1.2.4,1.3-.2s-.9-.4-1.1-.6c-.6-.7.8-1.2,1.2-.6ZM244,36.5c0-.1-.4-1.1-.5-1l-.3,1h.9Z"/>
      <path class="st0" d="M243.5,34.1c.2,0,.2,0,.2-.1.3-.4.3-1.2.7-1.5,0,.3-.6,1.9-.8,1.9-.3,0-.8-1.4-.9-1.7h-1.2c0,0,.1.5.1.5l.9.2h-.9s-.1.7-.1.7c0,0,1.5-.1,1.1.2h-1.2s0-1.8,0-1.8h1.5c0,0,.6,1.5.6,1.5Z"/>
      <path class="st0" d="M246.2,34.5v-1.9c2.2-.2,2.2,2.2,0,1.9ZM246.4,34.2c1.6.2,1.6-1.7,0-1.5v1.5Z"/>
      <path class="st0" d="M239.4,32.7l.3-.2,1.1,1.4c0-.4-.2-1.1.2-1.4v1.9c-.5-.4-.8-.9-1.2-1.4s0-.2-.2-.1v1.5c0,0-.2-.1-.2-.2v-1.6Z"/>
      <path class="st0" d="M244.6,35.5h.3c0-.1,1.1,1.2,1.1,1.2,0-.4-.2-1.1.2-1.4v1.8c-.6-.2-.8-1.1-1.4-1.5v1.6c0,0-.2-.1-.2-.2v-1.6Z"/>
      <path class="st0" d="M237.4,37.3v-1.9c2.2-.2,2.2,2.1,0,1.9ZM237.6,35.5v1.5c1.6.2,1.6-1.8,0-1.5Z"/>
      <path class="st0" d="M245,38.2c.9-.2,2.1.4,1,1.1l.4.7c-.5,0-.5-.6-1-.7s.1.8-.4.7v-1.8ZM246.1,38.5h-.9s0,.7,0,.7c.3,0,.9,0,1-.4s0-.3-.1-.4Z"/>
      <path class="st0" d="M244.6,29.7c1-.2,2.2.3,1,1.1l.5.7c-.3.2-.6-.8-1-.8s0,.9-.5.8v-1.8ZM245.7,29.9h-1c0-.1,0,.6,0,.6.2.2.7,0,.9,0v-.6Z"/>
      <path class="st0" d="M249.5,37.2l-.4-.4h-1.1s-.3.4-.3.4l.8-1.8c.1,0,.2,0,.3,0s.7,1.5.8,1.8ZM249,36.5c0,0-.3-1.1-.4-1l-.3,1h.8Z"/>
      <path class="st0" d="M248.8,32.5l.8,1.9-.5-.5h-1s-.2.5-.2.5c-.2-.2-.1-.2,0-.4s.7-1.8,1-1.6ZM249,33.7c0-.1,0-.2,0-.3s-.2-.6-.4-.6l-.3,1h.8Z"/>
      <path class="st0" d="M246,34.5l-.5-.5h-.9s-.3.5-.3.5c0-.3.6-1.9.8-1.9.3,0,1,1.6.9,1.9ZM245.2,32.8c-.2-.2-.5.7-.5.9h.9l-.3-.9Z"/>
      <path class="st0" d="M239.3,35.3h1.3c.4.3-1,.2-1.1.2v.6c.1,0,1,.1,1,.1h-1c0,0,0,.8,0,.8.2,0,.5,0,.7,0s.5,0,.4.2-1.2.2-1.3-.1v-1.8Z"/>
      <path class="st0" d="M243,29.7h1.3c0,0-1.1.2-1.1.2v.6s1,0,1,0c0,.3-.9,0-1,.2v.7s1.5-.1,1.1.2h-1.3s0-1.8,0-1.8Z"/>
      <path class="st0" d="M242.2,29.7c0,0,0,.2-.1.2-.3,0-.5-.2-.9,0-.4.8,1.1.4,1.1,1,0,.9-1.7.6-1.4.3.3.1,1.2.3,1.2-.2s-1.2-.3-1.2-.9,1.1-.7,1.3-.5Z"/>
      <path class="st0" d="M249.5,40.1c-.4,0-.2-.4-.4-.5s-.8,0-1,0,0,.6-.4.5l.8-1.8c.4-.3,1,1.5,1.1,1.8ZM249,39.4c0,0-.2-1-.4-1l-.4,1h.8Z"/>
      <polygon class="st0" points="248 35.3 248 35.5 247.3 35.5 247.3 37.2 247.1 37.2 247.1 35.5 246.4 35.5 246.4 35.3 248 35.3"/>
      <polygon class="st0" points="248 38.2 248 38.5 247.3 38.5 247.3 40.1 247.1 40.1 247.1 38.5 246.4 38.5 246.4 38.2 248 38.2"/>
      <rect class="st0" x="242.5" y="29.7" width=".2" height="1.8"/>
    </g>
    <g>
      <path class="st0" d="M203.9,7.9s0,0,0,.1v.4s0,0,0,.1c0,.8-.8,1.4-1.6,1.5-1.7.2-2.6-1.9-1.5-3.1s2.9-.5,3.1.9ZM202,6.7c-1.1.1-1.7,1.3-1.2,2.3s2.1,1.2,2.7.1c.7-1.1-.2-2.5-1.5-2.4Z"/>
      <path class="st0" d="M204,8.1s0,0,0-.1h0Z"/>
      <path class="st0" d="M204,8.6h0s0,0,0-.1h0Z"/>
      <g>
        <path class="st0" d="M181.4,20.9s0-.1,0-.2c-1-2.1-2.1-4.1-3.1-6.2s-1.5-3.2-2.2-4.7,0-.1,0-.1,0,.1,0,.1c-.1.3,0,.7,0,1,0,.7,0,1.4,0,2.1,0,1.5.1,3.1,0,4.6s-.3,2.1.3,2.6.5,0,.7.1,0,.5,0,.7h-2.7c0,0,0-.3.1-.5s.2-.3.2-.3c.2,0,.3,0,.5-.2s.1-.7.1-.9c0-.9,0-1.9,0-2.8,0-2.3,0-4.7,0-7s0-.3,0-.4.1-.1.1-.2,0-.2,0-.3c0-.5.1-1.5-.7-1.6s-.2,0-.3,0-.1-.8,0-.8c.4.2.9,0,1.3,0s.9,0,1.3.2l1.2,2.3c.1.3.3,1,.6,1.2s0,0,.1,0c.1.1.1.6.2.8s.2.2.2.2,0,0,0,0c0,.1.3.7.3.8.4,1,1,1.9,1.4,2.9s.2.5.3.8c0-.4,0-.7,0-1.1,0-.7.1-1.3,0-2.1,0-1.5-.1-3,0-4.5,0-.3-.2-.6-.5-.7s-.4,0-.5-.1-.1-.2-.2-.2c0-.1,0-.4.1-.5s.4,0,.5,0c.7,0,1.4-.1,2.1,0s.3,0,.3.1c-.1.2-.3.5-.5.7s-.3,0-.4.5c-.2.7,0,1.3,0,2,0,2.5-.2,5-.2,7.5s.1,2.2.1,3.4,0,.7,0,.7c0,0-.4,0-.5,0Z"/>
        <path class="st0" d="M190.8,7.3c-.1-.1-.8-.4-1-.4s-.4,0-.5.1c0,.5,0,1,0,1.5,0,1.9,0,3.8-.1,5.7,0,1.3,0,2.7,0,4s0,.9.2,1.3.3.5.5.7c.3,0,.6,0,.9,0s.3.5.2.7c-.4,0-.8.1-1.2.2s-.7,0-1.1,0-.8,0-1.2,0c-.6,0-1.2,0-1.8,0h0c-.2-.3-.5-.3-.3-.6.3-.5,1.2,0,1.4-.6s0-.2,0-.2c0,0,.2,0,.2-.2s0-.2,0-.4.1-.2.1-.3c0-.1,0-.5,0-.6,0-.4,0-.8,0-1.2-.2-3.2-.2-6.5-.2-9.8,0-.2-.3-.2-.5-.2-.4,0-1.2.6-1.4.9s0,.1,0,.2c0,.2-.1.5-.1.7s0,0,0,.1,0,0,0,0c0,.2,0,.5,0,.7s0,.2,0,.4c0,.4.2,1.2-.2,1.5s-.5-.3-.5-.6c0-.4,0-.9,0-1.3,0-1.1,0-2.2,0-3.3.3,0,.7,0,1,0,.6,0,1.2-.1,1.8,0s.5,0,.7,0c.7,0,1.5,0,2.2,0s1.4,0,1.9,0,.3,0,.3.1c0,.2,0,.5,0,.7,0,.9.1,1.7.1,2.6s.1,1.4,0,1.7-.6.5-.7,0c-.3-1,0-2-.3-3.1s-.2-.7-.4-.8Z"/>
      </g>
      <path class="st0" d="M159.1,31.5s.2-.7.2-.8c.2-1.2.3-2.4.6-3.5s.5-1.7.7-2.6.2-.8.3-1.2c0,0,.3,0,.4,0,.6,0,1.1-.2,1.8,0s.2,0,.3.1,0,.3,0,.3c0,0-.3,0-.4.3-.3.5-.4,2.2-.4,2.9-.2,3-.1,6.1,0,9s0,.9,0,1.3.5.2.6.3v.5s-.3,0-.3,0c-.9.1-1.9,0-2.8,0-.3,0-.3-.5-.1-.7s.4,0,.5-.2c.3-.2.2-.5.2-.8,0-2.3,0-4.6,0-6.9,0-.3,0-.8,0-1.1s-.2-.1-.2,0-.1.5-.2.6c-.4,1.8-.6,3.7-1,5.6s-.2,1.2-.3,1.8-.1.5-.2.5-.2,0-.2,0c-.3,0-.4-.2-.5-.4-.3-.9-.5-2-.7-2.9-.3-1.7-.6-3.4-.9-5.1,0,0-.2,0-.2,0,0,.2,0,.3,0,.5-.1,2.2-.2,4.3,0,6.5s0,1.1.2,1.5.5.2.7.4c-.1.2,0,.5-.4.5s-.3,0-.5,0c-.5,0-1,.1-1.5,0-.2-.6.6-.7.8-1.1s0-.5,0-.7c0-1.3,0-2.7,0-4,0-2.2,0-4.4-.1-6.6s0-.4,0-.6,0-.3,0-.5-.2-.6-.4-.7,0,0-.2,0c-.2,0-.3-.2-.5-.3,0-.1,0-.4,0-.6s.2,0,.3,0c.9.4,2.5-.3,2.7,1s0,.4,0,.7c0,.7.3,1.6.5,2.3.3,1.2.6,2.9,1,4s.1.3.2.2Z"/>
      <g>
        <g>
          <path class="st0" d="M170.7,38.3s0,0-.1,0c0,0-.2,0-.3,0,0,0-.1,0-.1,0-.1,0-.5,0-.6,0s0-.6,0-.8,0,0,0,0c.3,0,.6-.3.5-.6.2-.4,0-1,0-1.4s-.4-1.1-.7-1.7,0,0,0,0c-.6-.1-1.2-.2-1.8-.3,0,0-.5,0-.5,0-.4,1.1-.9,2.7-.4,3.8h.4c0,.1.1.2.1.2,0,.2,0,.4,0,.6-.6,0-1.2,0-1.8,0-.1,0-.2,0-.3,0,0,0-.2,0-.3,0h-.1c0-.3,0-.6.2-.7s.2,0,.3-.1.5-.4.5-.5c.2-.2.2-1.1.3-1.5.2-1.1.5-2.2.7-3.3s.4-2.5.6-3.8c.1-.7.3-1.3.4-2s.3-1.4.5-2.1.1-1.2.8-1.1.3,0,.4.1c.7,2.1,1,4.3,1.5,6.5.5,2.3,1.2,4.6,1.7,6.9.2.5.5.5.9.8s.2.4,0,.7c-.8,0-1.7.1-2.5.2ZM168.2,28h-.1c-.2,1.6-.6,3.1-1,4.6.7-.2,1.5.3,2.1,0,0-.3,0-.5,0-.8s-.3-.8-.3-1.1.1-.3.1-.3-.1,0-.1-.1c0-.1,0-.4-.2-.5s-.1-.2-.2-.2,0-.1,0-.2c0-.5-.4-.9-.3-1.4Z"/>
          <path class="st0" d="M164.8,38.3s0,0,0,0h-.3c0,0,.2,0,.3,0Z"/>
          <path class="st0" d="M165.1,38.3h0s-.3,0-.3,0h0c.1,0,.2,0,.3,0Z"/>
          <path class="st0" d="M170.6,38.3s0,0,0,0h-.3s0,0,0,0c0,0,.2,0,.3,0Z"/>
        </g>
        <path class="st0" d="M164.1,20.7c0,0,0-.3.2-.3s.2,0,.3-.1.5-.4.5-.5c.2-.2.2-1.1.3-1.4.2-1.1.5-2.2.7-3.3s.4-2.8.7-4.2.2-1.1.3-1.7.3-1.4.5-2.2.1-.8.3-1,.6-.2.9,0c.8,2.2,1.1,4.6,1.6,6.9s1.1,4.3,1.7,6.5c0,.2.2.4.4.5s.7.3.7.5-.2.4-.3.4-.3,0-.4,0c-.9,0-1.8.3-2.8.2s-.3,0-.4,0c-.1,0,0-.6,0-.7.2,0,.6-.3.6-.5s0,0,0-.1c0-.1.1-.2.1-.5,0-.8-.6-1.9-.9-2.7h0c-.8-.1-1.6-.5-2.5-.2-.3,1-.7,2.1-.6,3.1s.1.7.2.8.3,0,.4.1v.7h-2.5s0-.1,0-.2ZM167.9,10.7h-.1c-.3,1.6-.6,3.1-1,4.6.6-.1,1.2.1,1.8,0s.3,0,.4,0c0-.1,0-.8-.1-.9,0-.3-.3-.7-.2-.9s.1-.3.1-.3-.1,0-.1-.1c0-.1,0-.4-.2-.5s-.1-.1-.2-.2c0,0,0-.2,0-.4,0-.4-.4-.8-.3-1.2Z"/>
      </g>
      <path class="st0" d="M181.3,23.8s.1,0,.2,0,.3.3.3.3c1.3,1.6,1,4.5-.6,5.8-.2.2-.5.4-.8.6.2.1.5.2.7.4.9.9,1,3.8,1.2,5.1s.1.8.4,1.2.5.4.5.6,0,.3,0,.3c0,0,0,0,0,0-.1,0-.7,0-.8,0-.1,0-.6-.3-.7-.4s0,0,0-.1c-.1-.1-.3-.1-.5-.4s-.2-.8-.3-1.1c-.2-1.2-.4-2.3-.7-3.5s-.1-.8-.2-1-.4-.4-.4-.5c-.7-.6-1.5-.3-2.3-.2,0,.2,0,.4,0,.6,0,1,0,2,0,3s0,1.9.2,2.8c0,.2.7,0,.9.2s.3.4.2.5-.8.1-.9.1h-3.2c0-.2.2-.2.2-.3s0,0,0-.1.6-.4.6-.5c.5-.5,0-.8.1-1.3s0-.2.1-.3c.1-.4,0-1,0-1.5,0-2.6-.1-5.2,0-7.8s0-1.6-.3-2.3c0,0-.6-.1-.8-.2-.3,0-.3-.6-.4-.8,0,0,.5,0,.6,0,.8,0,1.5,0,2.2,0,1.1,0,3.5-.3,4.4.5s0,.1,0,.1ZM177.5,24.2v5.8h1.8s.3-.2.3-.2c0,0,0,.1.1,0s.3-.3.4-.4.3-.4.3-.4,0,0,0-.1c0-.1.1-.4.1-.5.2-1,.2-2-.1-3s-.1-.4-.2-.5-.4-.4-.5-.5c-.5-.4-1.5,0-2.2,0Z"/>
      <g>
        <path class="st0" d="M195.4,20.9h-2.5c0-.2,0-.5.3-.7s.1,0,.2,0c.1,0,.4-.4.5-.5.2-.2.2-1.1.3-1.5.2-1,.5-2,.7-3,.3-1.5.4-2.9.7-4.4.1-.7.2-1.2.4-1.9s.3-1.2.4-1.7.1-.9.3-1.1.6-.2.9-.1c.8,2.2,1.1,4.6,1.6,6.9s1.1,4.4,1.7,6.6c.2.4.5.5.8.7s.4.2.2.5-.3.2-.6.2c-.9,0-1.9.3-2.8.2s-.3,0-.4,0c-.1,0,0-.6,0-.8.2,0,.6-.3.6-.5s0,0,0-.1,0-.2.1-.2c0-.4,0-.9-.2-1.2-.2-.6-.5-1.1-.7-1.7,0,0,0,0,0,0-.6-.1-1.6-.3-2.2-.2s-.2,0-.2,0c-.3,1-.7,2-.6,3.1s.1.7.2.8.3,0,.4.1v.7ZM196.7,10.7h-.1c-.3,1.6-.6,3.1-1,4.6.7-.2,1.5.3,2.2,0,0-.3,0-.7-.1-1s-.3-.6-.2-.9.1-.3.1-.3-.1,0-.1-.1c0-.1,0-.4-.2-.5s-.1-.2-.2-.2c0,0,0-.3,0-.4,0-.4-.4-.8-.3-1.2Z"/>
        <path class="st0" d="M199.4,38.1c-.1,0,0-.6,0-.7,0,0,.2,0,.2,0,.1,0,.4-.3.4-.4s0,0,0-.1c0,0,.1-.1.1-.3.1-.9-.6-2-.9-2.8,0,0,0,0-.1,0-.4,0-.9-.2-1.3-.2s-1,0-1.1,0-.1.3-.1.4c-.3.8-.6,2.1-.4,2.9s.1.5.2.5.4,0,.4.1v.7s-2.5,0-2.5,0c0-.3,0-.6.3-.8s.1,0,.2,0c.1,0,.4-.4.5-.5.1-.2.2-1.1.3-1.4.2-1,.5-2,.7-3,.3-1.5.4-3,.7-4.4s.2-1.1.3-1.7c.1-1,.5-1.9.6-2.8.2-.5.6-.5,1-.3.8,2.2,1.1,4.5,1.6,6.7s1.1,4.4,1.7,6.6c0,.2.2.3.3.4s.7.3.8.5,0,.4-.2.5-.2,0-.3,0c-1,0-1.9.3-2.9.2s-.4,0-.5,0ZM198,27.9h-.1c-.2,1.1-.4,2.1-.6,3.2s-.2,1-.4,1.4c.6-.2,1.2.1,1.9,0s.3,0,.3-.1c0-.1,0-.6,0-.7,0-.3-.3-.8-.3-1.1s.1-.3.1-.3-.1,0-.1-.1c0-.1,0-.4-.2-.5s-.1-.2-.2-.2c0,0,0-.3,0-.4,0-.4-.4-.8-.3-1.2Z"/>
      </g>
      <path class="st0" d="M202.6,7.2c.4,0,.6.6.3.9s-.1,0-.1.1c.4.2.1.7.3,1h-.3c0,0,0-.6-.1-.7s-.1-.1-.1-.1h-.7v.9h-.3v-2.1c.4,0,.8,0,1.1,0ZM201.8,8.1h.6s.2,0,.2,0c.1,0,.1-.4,0-.5s-.1,0-.1,0h-.7v.6Z"/>
      <path class="st0" d="M192.9,25.2s-.2.5-.3.6c-.2.3-.4.3-.6,0s-.2-.6-.4-.9c-.3-.7-.7-1.1-1.2-1.6s-.3-.3-.6-.4-.8-.3-1.1-.3c-.4,0-.8.1-1,.4-.5.6-.9,1.1-.9,2s0,1.2,0,1.8c0,.9,0,1.8.2,2.7.4,2.1,1.1,4.5,2.3,6.3.3.4,1,1,1.5,1.2s.7,0,1.1-.2c1.8-1.1,1.6-2.8,1.5-4.6s0-.2.2-.3c.3-.1.6-.1.8.2s0,.7,0,1c0,.6.2,1.4,0,1.9s-.2.4-.2.7c-.4,1.2-.9,2.1-2.2,2.4-2.4.6-4.5-1-5.3-3.2s0-.3,0-.3c0,0-.2,0-.2,0s0-.2,0-.2c0-.2,0-.2-.1-.3,0-.2-.2-.5-.3-.7-1.1-3-1.9-6.8-.2-9.7s1.3-1.7,2.7-1.9c.3,0,1-.2,1.3-.1s1,.7,1.4.7.5-.8.7-1.1c.2,0,.6.4.6.6s0,0,0,.2c0,.3.2,1.3.2,1.6s.3,1.4.5,1.7.1,0,.1,0Z"/>
      <g>
        <path class="st0" d="M158.5,5.7s0,0,0,0c0,0-.2,0-.3,0,0,0,0,0,0,0h.3Z"/>
        <path class="st0" d="M158.2,5.7h0c0,0,0,0-.1,0,0,0,0,0,0,0h.1Z"/>
        <path class="st0" d="M158.7,5.7h0c0,0,0,0,0,0,0,0,0,0,0,0h0Z"/>
        <path class="st0" d="M158.6,5.7h0c0,0,0,0,0,0h0s0,0,0,0Z"/>
        <path class="st0" d="M158.1,5.7h0c0,0,0,0,0,0h0s0,0,0,0Z"/>
        <path class="st0" d="M158.1,5.7s0,0,0,0c0,0,0,0,.1,0,0,0,.2,0,.3,0s0,0,0,0,0,0,0,0c.4,0,.9.2,1.3.3s1,.5,1.3.5,0-.5.2-.6.5,0,.6,0c.2.1.3.9.4,1.2,0,.8,0,1.7,0,2.5s0,.6-.1.8c-.2.3-.5.2-.8.2,0-.1,0-.2,0-.3s0-.3-.1-.4c0-.4,0-.9-.2-1.3s-.1-.2-.2-.3,0-.1,0-.2-.3-.5-.4-.5-.1,0-.2,0c-.2-.1-.4-.3-.6-.4s-.3-.1-.5-.3c-.5-.3-.9-.1-1.5,0s-1,.3-1.3.9-.4.9-.4,1c0,.2.2.4,0,.6s-.1.1-.1.1,0,.2,0,.2c.1.5.9,1.2,1.3,1.5s1.1.5,1.7.7,2,1.2,2.5,1.8,1.2,2.2,1.1,3.2-.3.7,0,1c-.3,0,0,.3-.1.4s0,0-.1,0,0,.2-.1.3c-.3.6-.7,1.1-1.2,1.5s-.4.4-.5.4c-.2.1-.9.3-1.1.4-1.2.3-2.5-.2-3.5-.9h0c0-.1-.2-.5-.3-.5s-.2.1-.2.2c0,.1,0,.1,0,.2s0,0,0,0c0,.2,0,.3-.1.5s-.4.3-.6.3c0-.2,0-.4,0-.6s0-.6,0-.8c0-1.2.1-2.4-.2-3.6,0-.2.4-.5.6-.5s.3.1.3.2,0,.2,0,.3c0,.7.4,1.6.6,2.2s0,.3.1.5,0,.2.2.2c0,.4.3.5.6.7s0,.1.1.1c0,0,.1,0,.2,0,.4.2.6.4,1.1.5s1,.2,1.6-.2c1.3-.8,2.3-2.7,1-4s-.4-.3-.5-.3,0-.1,0-.2c-.1-.2-.3-.3-.5-.5s-.7-.4-.7-.4,0,0-.1,0c-.2,0-.5-.2-.6-.3s-.4-.1-.6-.2c-2.1-1.1-2.9-2.6-2.8-5,0-.2.1-1,.2-1.1s.3-.2.3-.2,0,0,0-.1c.2-.5.8-1.1,1.3-1.4s.9-.4,1.3-.4Z"/>
      </g>
    </g>
    <g>
      <path class="st0" d="M27.6,38.7c1.2.1,1.4,1.8.3,2.2l.8,1.7h-.8c-.3-.6-.5-1.1-.9-1.6v1.6h-.7v-3.9c.4,0,.9,0,1.3,0ZM27,40.2c1.2.2,1.1-.9,0-.8v.8Z"/>
      <path class="st0" d="M30.6,42.6l1.4-3.9c0,0,.6,0,.7,0,.2,0,1.3,3.5,1.6,3.9h-.8c-.2-.1-.2-.7-.4-.8s-1.3,0-1.5,0,0,0,0,0l-.3.8h-.8ZM33,41.1l-.5-1.3-.5,1.3h1Z"/>
      <polygon class="st0" points="44 38.7 44 39.4 42.5 39.4 42.5 40.1 44 40.1 44 40.8 42.5 40.8 42.5 41.8 44 41.8 44 42.6 41.8 42.6 41.8 38.7 44 38.7"/>
      <polygon class="st0" points="36.9 38.7 37.9 41.4 38.9 38.7 39.7 38.7 38.3 42.6 37.5 42.5 36.2 38.7 36.9 38.7"/>
      <path class="st0" d="M50.7,38.6c.5,0,1.1.2,1.4.6l-.5.4c-.2,0-.3-.3-.6-.4s-.5.1-.3.4c.3.5,1.3.9,1.5,1.6.3,1.6-1.9,1.9-2.5.6l.6-.4h0c.1.5,1.1.7,1,0s-1.4-1.1-1.5-1.7.2-1.2.8-1.3Z"/>
      <path class="st0" d="M24.2,38.7v.7c-.2,0-.6,0-.7,0v3.1h-.8v-3.2h-.7v-.7h2.2Z"/>
      <polygon class="st0" points="46.9 38.7 46.9 41.9 48 41.9 48 42.6 46.1 42.6 46.1 38.7 46.9 38.7"/>
      <path class="st0" d="M34.9,1.3c.2,0,.3,0,.4.1l7.9,3c.2.7.4,1.5.5,2.2.8,5,.4,11-2.3,15.3-1.5,2.5-3.8,4.4-6.5,5.5-.2,0-1.8-.9-2.1-1.1-7.2-4.5-8.1-14.4-6.2-22l8.3-3.2ZM42.4,5.4l-7.4-2.6-7.3,2.6c0,0,0,0-.1.1-.1.3-.2,1-.3,1.4-1.1,6.8,0,15,6.5,18.7.2.1,1,.6,1.1.6.3,0,1.9-1,2.2-1.2,5-3.5,6.3-10,5.8-15.8,0-1.3-.3-2.6-.6-3.8Z"/>
      <path class="st0" d="M42.3,12.8c0,1-.1,2-.4,2.9h-1.9v3.1h1.1c-.3.6-.6,1.4-1,2s0,0-.1,0v-2l-2.4.2v3.1l1.7-.2c-.5.7-1.1,1.2-1.7,1.7v-1.5l-2.5.3v2.7c-.9-.4-1.7-.9-2.4-1.5v-1.6c-.1,0-1.4-.2-1.6-.2s-.7-.9-.9-1.1v-2s-1.1-.1-1.1-.1c-.4-1-.7-2-.8-3h2c0,.1,0,3.1,0,3.1l2.5.3v-1.3c.8.3,1.6.5,2.5.5v1.1l2.5-.3v-1.3c2-.9,3.4-2.8,3.7-4.9h1.2ZM32.5,22.2l2.4.3h.1v-3.2h-.1c0,0-2.2-.3-2.2-.3h-.1v3.1Z"/>
      <path class="st0" d="M40.8,12.1c0,3.2-2.6,5.8-5.8,5.8s-5.8-2.6-5.8-5.8,2.6-5.8,5.8-5.8,5.8,2.6,5.8,5.8ZM40.3,12.1c0-2.9-2.4-5.3-5.3-5.3s-5.3,2.4-5.3,5.3,2.4,5.3,5.3,5.3,5.3-2.4,5.3-5.3Z"/>
      <path class="st0" d="M40,6.7l2,.2.3,3h-1.5c0-.4-.8-1.5-.8-1.6v-1.6l-2.1-.2c0,0-.3-.1-.3-.2v-1.9l2.5.9v1.4Z"/>
      <path class="st0" d="M35,3.6v2.3c-.8,0-1.7.2-2.5.5v-1.9l2.5-.9Z"/>
      <polygon class="st0" points="30 5.3 30 6.7 32.2 6.5 30.8 7.5 30 8.4 30 6.8 28 6.9 28.2 5.9 30 5.3"/>
      <path class="st0" d="M27.7,12.8v-3s1.5,0,1.5,0c-.3.9-.5,2-.4,3h-1.2Z"/>
      <path class="st0" d="M35.2,10c.2,0,.3.1.4.2s.8,0,.9,0c.2,0,.2-.5.6-.4s.5,1.5-.2,1.3-.2-.3-.3-.4-.9,0-1,0-.2.3-.4.2c.1.5.3,3.3.6,3.5s1.2-.6,1.4-1c0,0-.6-.1-.6-.3l1.6-.8v2c-.1,0-.1,0-.1,0-.1-.1-.2-.4-.4-.5-.2.5-.6,1.1-1,1.5s-1.3.5-1.6,1.2c-.2-.5-.9-.7-1.3-1s-1.1-1-1.4-1.7l-.4.6v-2c-.1,0,1.4.8,1.4.8.1,0-.2.2-.3.3s-.3,0-.3.1.5.6.6.7c.2.2.5.3.8.3.3-.2.5-3,.5-3.5-.2,0-.3-.1-.4-.2-.3,0-.7,0-.9,0-.4.8-1.1.4-.9-.4s.8-.6.9,0c0,0,.9,0,1,0s.2-.3.5-.2c0-.3-.2-.3-.4-.5-.6-.5-.3-1.6.5-1.7s1.6,1.1.8,1.8-.4.1-.4.5ZM34.8,8.1c-.9,0-1,1.3,0,1.4s.2,0,.1,0c-.6,0-.8-.8-.4-1.2l.4-.2ZM35.5,8.8c0-.3-.2-.5-.5-.5s-.5.2-.5.5.2.5.5.5.5-.2.5-.5ZM32.8,9.9c-.4.1-.3.9,0,1.1,0-.1,0-.2-.1-.3,0-.3,0-.5.1-.8ZM37.1,9.9c-.3,0-.3.9,0,1s0-.2,0-.2c0-.3,0-.5.1-.8ZM34.6,10.6c0,.2.7.1.8,0s0-.3,0-.3v.3c-.1,0-.7,0-.7,0ZM34.9,15.4v-3.2c-.1.4-.1.8-.2,1.2,0,.7,0,1.8-1,1.1,0,0,0,0,0,0,.1.2,1,.5,1.2.8ZM36.9,13c.6.2.7,0,.9-.5l-.9.5ZM32,13.7c.5-.4.3-.7,0-1.1v1.1Z"/>
      <path class="st0" d="M65.7,32.9c0,2.2-1.8,3.9-3.9,3.9s-3.9-1.8-3.9-3.9,1.8-3.9,3.9-3.9,3.9,1.8,3.9,3.9ZM65.4,32.9c0-2-1.6-3.7-3.7-3.7s-3.7,1.6-3.7,3.7,1.6,3.7,3.7,3.7,3.7-1.6,3.7-3.7Z"/>
      <path class="st0" d="M47.5,36.7v-6.7c0-.3.6-.7.9-.7h1.3v6.5c0,.2-.1.5-.2.6s-.4.3-.6.3h-1.4ZM49.4,29.6h-1.2c-.1,0-.4.3-.4.5v6.4h1c.2,0,.7-.2.7-.4v-6.4Z"/>
      <path class="st0" d="M17.7,29.3c.3,0,.6,0,.9.2l1.9,2.1,1.7-2c.9-.8,2.5,0,1.8,1.2l-2,2.2,2,2.2c.6.9-.3,1.6-1.2,1.5s-.6-.4-.8-.6c-.5-.5-.9-1.1-1.5-1.6,0,0-1,1.1-1.2,1.2s-.7.7-.9.8c-.8.4-2.1-.4-1.5-1.3.4-.7,1.4-1.4,1.9-2s.1-.2.2-.2c0-.1-1.6-1.7-1.8-2s-.5-.6-.4-1,.5-.8.9-.8Z"/>
      <path class="st0" d="M8.5,31v5c0,.2-.5.6-.7.6h-1.5v-5.6h-1.3c-.3,0-.7-.4-.7-.8v-.9h0c0,0,5.4,0,5.4,0,0,0,.4.2.5.2.3.3.3,1.1,0,1.4s-.3.2-.4.2h-1.3Z"/>
      <path class="st0" d="M26.8,29.2v6.8c0,.3-.5.7-.8.7h-1.4v-6.8c0,0,.2-.4.3-.4.1,0,.5-.2.6-.2h1.3Z"/>
      <path class="st0" d="M14.1,35.4h-2.2c-.2.5-.4,1.2-1,1.3s-1.5-.6-1.3-1.4l2.7-6c.4,0,.8,0,1.2.1s.5.5.7.9c.8,1.6,1.5,3.3,2.2,4.9.1.7-.2,1.4-1,1.5s-1.1-.6-1.3-1.3ZM12.6,33.6h.8l-.4-1.1c-.1,0,0,0-.1.1-.1.3-.2.7-.3,1Z"/>
      <path class="st0" d="M54.9,32.5v-2.6c0-.3.6-.7.9-.7h1.3v6.8c0,.2-.4.5-.7.6-.7.2-1,0-1.5-.5-.7-.8-1.4-1.7-2.1-2.5s-.1-.1-.2-.2v2.5c0,.3-.5.8-.8.8h-1.4v-7.4h1.3c0,0,.4.1.5.1,1,1,1.8,2.1,2.7,3.1ZM55.2,33.2l-2.9-3.5c0,0-.3-.2-.4-.2h-1.2v6.8h0c0,0,.9,0,.9,0,.2,0,.7-.2.7-.4v-3.3c.1,0,.1,0,.1,0,1,1.1,1.9,2.3,2.8,3.4.3.3.8.3,1.2.2s.3-.3.3-.3v-6.4h-1.2c-.1,0-.4.3-.4.5v3.2Z"/>
      <path class="st0" d="M32.6,29.2v6.8c0,0-.2.4-.3.5-.4.3-1.3.3-1.7-.1s-.2-.3-.2-.3v-3.3l-1.5,1.7-1.5-1.7v-2.9l1.5,1.6c.8-.7,1.3-2,2.3-2.3h1.3ZM32.4,29.5h-1c-.3,0-.6.3-.8.5-.6.6-1,1.3-1.6,1.9l-1.2-1.3v2l1.2,1.3,1.7-2v3.9c0,.5,1.1.5,1.4.3s.2-.2.2-.3v-6.5Z"/>
      <path class="st0" d="M61.4,30.7c3.2-.4,3.2,4.8-.1,4.3-2.1-.3-2.1-4,.1-4.3ZM61.5,31c-2.1.2-2.1,3.5-.1,3.8,2.8.4,2.8-4.1.1-3.8Z"/>
      <path class="st0" d="M44.7,29.2c2.1.2,2.6,3.3.8,4.3.3.6,1.5,1.6,1.3,2.3s-1.6,1.2-2.1.3l-1.6-2.2v1.9s0,.3-.1.4c0,.2-.5.5-.7.5h-1.4v-7.4h3.8ZM42.9,33.1l2.4,3.1c.5.4,1.3,0,1.4-.6,0-.4-1.5-2.1-1.5-2.2,1.4-.6,1.6-2.6.4-3.5-.2-.2-.7-.4-.9-.4h-3.5v6.9h1.1c.3,0,.6-.3.6-.6v-2.7Z"/>
      <path class="st0" d="M42.9,32.7v-2.2h1.1c.1,0,.5.2.6.3.3.3.4,1,.2,1.4s-.4.5-.6.5h-1.3ZM43.1,32.4h1s.3-.1.3-.2c.3-.3.3-1,0-1.2s-.4-.2-.4-.2h-.9v1.6Z"/>
      <path class="st0" d="M38.4,36.4c-.3-.2-.4-.8-.5-1.1h-2.1c-.2,0-.3,1-.8,1.2-1.1.5-2-.8-1.4-1.8l2.6-5.5c.6,0,1.2,0,1.6.5l2.5,5.3c.5,1-.9,2.2-1.7,1.4ZM35.5,35.1h2.5c.2,0,.2,1.2.9,1.3s1.2-.6.9-1.3c-.5-1.6-1.7-3.3-2.3-5-.2-.6-.8-.7-1.4-.6l-2.6,5.6c-.3.6.2,1.3.8,1.3s.8-.8,1-1.3Z"/>
      <path class="st0" d="M37.6,33.8h-1.6l.8-2.2.8,2.2ZM37.2,33.6l-.4-1.2-.4,1.2h.9Z"/>
    </g>
    <g>
      <path class="st0" d="M96.4,19.7c-1-1-1.5-2.3-1.5-3.9s.5-2.9,1.5-3.9c1-1,2.3-1.5,3.9-1.5s2.5.3,3.5,1l.3,2.1h-.1c-.2-.8-.7-1.5-1.3-2s-1.4-.7-2.3-.7c-1.3,0-2.3.4-3.1,1.3-.8.9-1.2,2.1-1.2,3.6s.4,2.7,1.1,3.6c.8.9,1.8,1.4,3,1.4,1.1,0,2-.3,2.8-.9.8-.6,1.3-1.7,1.4-3.2h.1s-.2,2.3-.2,2.3c-.9,1.5-2.3,2.2-4.1,2.2-1.6,0-2.8-.5-3.8-1.5Z"/>
      <path class="st0" d="M115.3,20.8h.1s0,.1,0,.1h-3.3s0-.1,0-.1h.1c.2,0,.4,0,.5-.2.1-.1.2-.3.2-.4s0-.2,0-.4l-.9-2.5h-4s-1,2.5-1,2.5c0,.1,0,.2,0,.3s0,.2.2.4c.1.1.3.2.5.2h.1s0,.1,0,.1h-3s0-.1,0-.1h.1c.2,0,.5,0,.7-.2s.4-.4.6-.7l3.3-7.9c.4-.8.5-1.3.5-1.5h.1s4,9.5,4,9.5c.1.3.3.5.6.7.2.2.5.2.7.2ZM108,16.9h3.6s-1.8-4.7-1.8-4.7l-1.9,4.7Z"/>
      <path class="st0" d="M115.8,20.3c0-.1,0-.4,0-.8s0-.8.2-1.3h.1c0,.1,0,.2,0,.3,0,.6.2,1.1.5,1.5s.8.6,1.4.6,1.1-.2,1.5-.6c.4-.4.6-.8.6-1.4s-.2-1-.6-1.4l-2.8-2.6c-.5-.5-.8-1.1-.8-1.8s.2-1.3.7-1.8c.5-.5,1.1-.7,1.9-.7s.8,0,1.3.1h.6s0,1.8,0,1.8h-.1c0-.5-.2-.8-.5-1.1-.3-.3-.7-.4-1.2-.4s-.9.2-1.3.5c-.3.3-.5.8-.5,1.3s.2.9.6,1.3l2.9,2.7c.5.5.7,1.1.7,1.9s-.3,1.4-.8,1.9c-.5.5-1.2.8-2,.8s-.9,0-1.4-.2c-.5-.1-.9-.3-1.1-.6Z"/>
      <path class="st0" d="M132.2,20.8h.1s0,.1,0,.1h-3.3s0-.1,0-.1h.1c.2,0,.4,0,.5-.2.1-.1.2-.3.2-.4s0-.2,0-.4l-.9-2.5h-4s-1,2.5-1,2.5c0,.1,0,.2,0,.3s0,.2.2.4c.1.1.3.2.5.2h.1s0,.1,0,.1h-3s0-.1,0-.1h.1c.2,0,.5,0,.7-.2s.4-.4.6-.7l3.3-7.9c.4-.8.5-1.3.5-1.5h.1s4,9.5,4,9.5c.1.3.3.5.6.7.2.2.5.2.7.2ZM124.9,16.9h3.6s-1.8-4.7-1.8-4.7l-1.9,4.7Z"/>
      <path class="st0" d="M91.9,24.4c0-.2,0-.4-.3-.6-.2-.2-.4-.3-.6-.3h-2.8s0,8.8,0,8.8c0,.3.1.5.3.6.2.2.4.3.7.3h.2s0,.1,0,.1h-3.2s0-.1,0-.1h.2c.3,0,.5,0,.7-.3.2-.2.3-.4.3-.6v-8.8s-2.8,0-2.8,0c-.2,0-.4.1-.6.3-.2.2-.2.4-.2.6v.3s-.1,0-.1,0v-1.9c.1,0,.4.1.8.2.4,0,.7,0,1,0h5c.5,0,.9,0,1.2-.1s.5-.1.6-.2v1.9s-.1,0-.1,0v-.3Z"/>
      <path class="st0" d="M95.9,23.5h-.9s0,8.8,0,8.8c0,.3,0,.5.3.7.2.2.4.3.7.3h.2s0,.1,0,.1h-3.2s0-.1,0-.1h.2c.3,0,.5,0,.7-.3.2-.2.3-.4.3-.6v-8.2c0-.3-.1-.5-.3-.7-.2-.2-.4-.3-.7-.3h-.2s0-.1,0-.1h4c.9,0,1.6.2,2.1.7s.8,1.1.8,1.9-.2,1.5-.7,2c-.5.6-1.1.9-1.8.9.1,0,.3.2.5.4.2.2.4.4.5.6.8,1.2,1.4,2,1.7,2.2.3.3.4.5.5.6.1.1.2.2.4.3.1,0,.3.2.4.2.3.1.6.2.9.2h0c0,.1-.8.1-.8.1-.4,0-.8,0-1.2-.2-.4-.2-.6-.3-.8-.5-.2-.2-.3-.3-.5-.5s-.5-.7-1.1-1.5c-.6-.9-.9-1.4-1-1.5,0-.1-.2-.2-.3-.4-.3-.3-.6-.5-.9-.5h0c0-.1.2-.1.3-.1s.3,0,.5,0c1.2,0,2-.5,2.3-1.5,0-.2,0-.4,0-.6v-.3c0-.7-.2-1.2-.5-1.6s-.8-.6-1.3-.6c-.2,0-.5,0-.9,0Z"/>
      <path class="st0" d="M102.3,33.2c.3,0,.5,0,.7-.3.2-.2.3-.4.3-.7v-8.2c0-.3-.1-.5-.3-.6-.2-.2-.4-.3-.7-.3h-.2s0-.1,0-.1h3.2s0,.1,0,.1h-.2c-.3,0-.5,0-.7.3-.2.2-.3.4-.3.6v8.2c0,.3,0,.5.3.7.2.2.4.3.7.3h.2s0,.1,0,.1h-3.2s0-.1,0-.1h.2Z"/>
      <path class="st0" d="M116.5,33.2h.1s0,.1,0,.1h-3.3s0-.1,0-.1h.1c.2,0,.4,0,.5-.2.1-.1.2-.3.2-.4s0-.2,0-.4l-.9-2.5h-4s-1,2.5-1,2.5c0,.1,0,.2,0,.3s0,.2.2.4c.1.1.3.2.5.2h.1s0,.1,0,.1h-3s0-.1,0-.1h.1c.2,0,.5,0,.7-.2s.4-.4.6-.7l3.3-7.9c.4-.8.5-1.3.5-1.5h.1s4,9.5,4,9.5c.1.3.3.5.6.7.2.2.5.2.7.2ZM109.2,29.4h3.6s-1.8-4.7-1.8-4.7l-1.9,4.7Z"/>
      <path class="st0" d="M125.8,24.5c1,.9,1.5,2.2,1.5,3.7s-.5,2.8-1.5,3.7c-1,.9-2.3,1.4-3.8,1.4h-5s0-.1,0-.1h.2c.3,0,.5,0,.7-.3.2-.2.3-.4.3-.7v-8.3c0-.2,0-.4-.3-.6-.2-.2-.4-.2-.7-.2h-.2s0-.1,0-.1h5c1.6,0,2.8.5,3.8,1.4ZM119.1,23.5v9.4s2.9,0,2.9,0c.8,0,1.6-.2,2.2-.6.6-.4,1.1-.9,1.5-1.7.3-.7.5-1.5.5-2.5,0-1.4-.4-2.6-1.2-3.4-.8-.9-1.8-1.3-3-1.3h-2.9Z"/>
      <path class="st0" d="M137.8,33.2h.1s0,.1,0,.1h-3.3s0-.1,0-.1h.1c.2,0,.4,0,.5-.2.1-.1.2-.3.2-.4s0-.2,0-.4l-.9-2.5h-4s-1,2.5-1,2.5c0,.1,0,.2,0,.3s0,.2.2.4c.1.1.3.2.5.2h.1s0,.1,0,.1h-3s0-.1,0-.1h.1c.2,0,.5,0,.7-.2s.4-.4.6-.7l3.3-7.9c.4-.8.5-1.3.5-1.5h.1s4,9.5,4,9.5c.1.3.3.5.6.7.2.2.5.2.7.2ZM130.5,29.4h3.6s-1.8-4.7-1.8-4.7l-1.9,4.7Z"/>
    </g>
    <path class="st0" d="M331.3,44.3h-24.6s0-43.7,0-43.7h24.6s0,43.7,0,43.7ZM322.9,9.6s.1,0,.5-.2h0s.1,0,.2,0c0,0,0,0,.1.1h0c0,.2,0,.3,0,.4,0,.2-.1.3-.2.3s0,0-.2,0c0,0-.1,0-.2,0,.1.3.5.9.6,1.2,0,0,0,.2,0,.2h0c0,0,0,0-.1,0,0,0,0,0-.1,0l-.4-.7v1.5c0,.1,0,.2-.2.2s-.1,0-.1,0c0,0,0,0,0-.1,0-.4,0-1.7,0-2.1,0,0-.1,0-.2.1-.1,0-.2,0-.2,0,0,0-.1,0-.1-.3v-.2s0-.1,0-.2c0,0,0-.1,0-.2,0,0,.1,0,.2,0h0c.1,0,.3,0,.4,0ZM319.8,9.5h.5s-.3,2.1-.3,2.1c0,0,0,0,0,0s.4.5.8,1.4c.3.7.9,2,1.6,4.6,0,0,0,0,0,0s0,0,0,0c0,0,0,0,0-.1-.8-2.7-1.3-3.9-1.7-4.6-.4-.7-.7-1.2-.8-1.4l.3-2.1s0,0,0,0c0,0,0,0,0,0h-.5c0-.2,0-.4.1-.6,0,0,0-.1,0-.1,0,0-.1,0-.1,0-.1.4-.1.8-.1.8,0,0,0,0,0,0ZM326.4,35.8c.2-.7,1.9-6.2,2.9-8.4,0-.9-.6-1.4-1.6-1.4-1.7,0-1.8,1.3-1.8,1.7s0,.8,0,1.2c0,.8.1,1.7,0,2.2-.3,1.9-1.1,4.1-1.3,4.7h1.7ZM324.5,35.8c.2-.4,1-2.8,1.3-4.7,0-.4,0-1.1,0-1.7l-4.3,6.5h3ZM321.3,35.8l4.5-6.8s0,0,0,0c0-.5,0-.9,0-1.3s0-.8.3-1.1c-.6.5-1.1,1.3-1.7,2.1-1.1,1.8-2.4,3.8-5.8,4l-2.3,3.1h5ZM316,35.8l2.3-3.1c0,0-.2,0-.2,0-1.3,0-2.2-.5-2.9-1-.3.3-1.9,2-3.1,4.1h3.9ZM311.9,35.8c1.2-2.1,2.8-3.8,3.1-4.2-.2-.1-.3-.3-.5-.4-.2-.1-.3-.2-.5-.4-.4-.3-.8-.3-1.1-.2-.7.2-1.2,1.3-1.6,2.4h0c-.6,1.3-1.2,2.4-1.5,2.8h2.1ZM312.9,30.4c.1,0,.3,0,.5,0-.3-.2-.6-.3-1-.3-.8,0-1.1.4-1.1.8s.4.6.5.7c.3-.6.7-1,1.2-1.2ZM329.6,26.3c0-.6-.4-1.1-.9-1.5,0,0,0,0,0,0,0,0,0,0,0,0-.6-.4-1.5-.7-2.4-1.1-.2,0-.4-.1-.6-.2-1.9-.8-2.4-2.3-2.8-3.8,0-.4-.2-.7-.3-1.1-.4-1.2-1.1-2.2-1.6-2.8.1.4.2.9.2,1.5,0,1.9-1.1,3-2.2,4-.8.8-1.5,1.5-1.5,2.4,0,4-2.5,4.8-4.5,5.4-1.3.4-2.3.7-2.3,1.8s.3.8.8,1.1c0,0,0-.2.1-.2-.1,0-.6-.4-.6-.9s.4-1,1.3-1,1.6.5,2.3,1.1c.8.7,1.8,1.5,3.4,1.5,3.6,0,4.9-2.1,6.1-4,.8-1.3,1.6-2.5,3-2.8,0,0,0,0,0,0,0,0,.1,0,.2,0,0,0,.2,0,.3,0,.9,0,1.6.5,1.8,1.2,0-.3.1-.5.1-.7ZM306.9,19.2c.2-.8.2-1.6.3-2.4.2-2.2.4-4,2.4-4s.4,0,.5,0c.3-.2.7-.3,1.1-.3-.6-.3-1.2-.4-1.8-.4-1.4,0-2.5.9-2.5,2v5ZM313.7,4.1c1,0,1.6-.9,1.6-1.9s-.1-.8-.4-1.1c-.3-.3-.6-.5-1.1-.5-1,0-1.6.9-1.6,1.8s.1.8.4,1.1c.3.3.6.5,1.1.5ZM313,4.2l-.3.9c0,0,0-.2,0-.2,0,0,0,0,0,0,0,0,.1,0,.2,0l.2-.6c0,0-.2,0-.2,0ZM313.3,6c0-.2-.1-.4-.2-.5,0,0,0,0-.1.1,0,0,.2.3.2.5,0,0,0,0,0,0,0,0,0,0,0-.1ZM312.7,6.2v.4s0,0,0,0c0,0,0-.2,0-.4ZM323.2,4.5c-.4-1.2-1-1.8-2.1-1.8s-2.4.8-2.4,2.1.2,1,.6,1.5c0,0,.1.2.2.3,0,0,0,0,0,0,0,0,0,0,0,0-.2-.4-.3-.6-.3-.8,0-.5.4-1,1.4-1s.7-.2.9-.4c.2-.1.3-.2.5-.2.3,0,.8.2,1,.5,0,.2.2.3.2.4,0,0,0,0,0,0,0,0,0,0,0,0,0,0,0,0,0,0,0,0,0-.2-.1-.5ZM319.2,6.7c0,.3.4.7.7.7s.1,0,.1,0c0,0,0,0,0,0,0,0,0,0,0,0,.9,1,1.7,1.5,2.3,1.5,0,0,0,0,0,0,.3,0,.5-.1.7-.3.4-.5.5-1.5.3-2.6,0,0,0,0,0,0,0,0,.3-.2.3-.8s0-.5-.3-.5,0,0-.1,0c0,.1,0,.2,0,.3,0,.1,0,.2-.1.3,0,0-.1,0-.2,0,0,0-.1,0-.1-.1,0,0-.1-.2-.2-.4-.1-.3-.5-.4-.8-.4s-.2,0-.3.2c-.2.2-.5.5-1,.5-.9,0-1.2.4-1.2.8s.1.4.3.7c0,.1,0,.3,0,.3,0,0,0,0-.1,0,0,0-.1,0-.2,0,0,0,0-.1-.1-.2,0,0,0,0,0,.2ZM323.8,6.7c0,.4,0,.9,0,1.3.1.3,1.1,3.1,1.5,4.8,0-1.3,0-2.9,0-3.2l-.7-.7s0,0,0-.1l.5-.6c-.4-.5-.9-1.3-1.1-1.5h-.1ZM323.4,8.7c-.2.3-.5.4-.8.4h0c-.2,0-.5,0-.8-.2.3,3,.7,4.9.9,6.2.2,1,.4,1.8.4,2.5,0,.1,0,.2,0,.4.7,0,1.4,0,2.2-.3,0-1.4-.1-2.8,0-3.7,0,0,0,0,0-.1,0-1-1.2-4.6-1.6-5.6,0,.1-.1.3-.2.4ZM325.2,17.9c-.7.2-1.3.3-1.9.3s-.2,0-.3,0c0,0,0,.1,0,.2.6,0,1.5,0,2.2-.3,0,0,0-.1,0-.2ZM323,18.8c.8.1,1.5,0,2.3-.2,0-.1,0-.2,0-.3-.6.2-1.3.3-1.9.3s-.3,0-.4,0c0,0,0,.2,0,.2ZM317.5,10c-.5.4-1.2.9-1.2,3.2.3,0,.5,0,.8,0,1.9-.2,2.7-.3,3.6,1.7,0,.1.1.3.2.4.1.2,1.3,1.5,1.9,3.2,0,0,0,0,0,.1,0-.2,0-.4,0-.6,0,0,0,0,0,0,0,0,0,0,0,0,0-.1,0-.3,0-.4,0-.7-.2-1.5-.4-2.5-.3-1.4-.7-3.3-1-6.4-.3-.2-.6-.4-.9-.7-.7.4-2.6,1.6-3.1,2ZM315.4,13.5c-.6,0-1.3.2-1.5.2,0,0,0,0,0,0,0,.1,0,.2,0,.3,2,0,3.7.4,5.9,2.1,0,0,0,0,0,0,0,0,0,0,0,0,0,0,0,0,0,0,0,0,0,0,0,0,0,0,0,0,0,0,0,0,0,0,0,0,0,0,0,0,0,0,0,0,0,0,0,0,0,0,0,0,0,0,0,0,0,0,0,0,0,0,0,0,0,0,0,0,0,0,0,0,0,0,0,0,0,0,0,0,0,0,0,0,0,0,0,0,0,0,0,0,0,0,0,0,0,0,0,0,0,0-.9-.3-2.4-.6-5.3.8,0,.2,0,.4,0,.6.7-.2,1.2-.4,1.5-.5.5-.2,1-.1,1.4.1.3.2.4.5.4.8,0,.5-.4.9-1.3,1.1.8,0,1.7.1,2.2.5.3.2.5.5.5.9s0,.2,0,.3c1-.9,2-2,2-3.8s-.2-1.5-.3-1.9c0,0,0,0,0,0,0-.2-.1-.3-.2-.4-.9-1.9-1.4-1.8-3.4-1.6-.5,0-1.1.1-1.7.2ZM306.9,22.3c1.5-1.9,1.7-3.6,1.9-5,.1-.9.2-1.6.6-2.1-.2-.3-.4-.5-.4-.8s0-.1,0-.2c-.5.1-.7,1.2-.8,2.5-.2,1.5-.4,3.3-1.3,4.6,0,0,0,0,0,0v.9ZM309.8,13c0,0-.1,0-.2,0-1.8,0-2,1.7-2.2,3.8-.1,1-.2,2.1-.5,3.2v1c.8-1.2,1-2.9,1.2-4.3.2-1.4.3-2.6,1.1-2.7,0-.5.4-.8.7-1.1ZM306.9,23.5c2-2.3,3.1-5,3.1-7.6,0,0,0,0,0,0-.1-.1-.2-.2-.3-.4-.3.5-.4,1.1-.5,1.9-.2,1.4-.5,3.3-2.1,5.2,0,0,0,0,0,0v.9ZM306.9,24.5c2.1-1.9,3.7-5.6,3.7-7.7s-.2-.5-.4-.7c0,2.7-1.2,5.5-3.3,7.7v.7ZM310.8,16.8c0,.7-.2,1.5-.4,2.4.6-.2,2.4-.8,3.8-1.3,0-.9-.3-2-1.4-2.1-.5.5-1.2.9-1.9.9,0,0,0,0,0,.1ZM312.9,15.6c.7.1,1.2.6,1.3,1.4,2.4-1.2,3.9-1.2,4.8-.9-1.9-1.4-3.5-1.7-5.3-1.7-.1.4-.4.8-.8,1.2ZM309.7,20.8c1-.2,5.5-1.3,6.5-1.6,1-.3,1.3-.6,1.3-1s-.1-.5-.3-.6c-.3-.2-.7-.3-1.2-.1-1,.3-5.1,1.7-5.7,1.9-.2.5-.3.9-.6,1.4ZM311.8,12.7c-.6,0-1.2.1-1.7.4,0,0,0,0,0,0-.5.3-.8.7-.8,1.4s.4.8.8,1.2c0,0,0,0,.1.1,0,0,0,0,0,0,.2.3.5.5.6.8.7,0,1.4-.4,1.9-.9,0,0,0,0,0,0,.5-.4.8-.9.9-1.3,0,0,0,0,0,0,0-.1,0-.3,0-.4,0-.8-.6-1.2-1.8-1.2ZM311.5,8l.4-1c0,0-.2,0-.3,0s-.1,0-.2,0v1ZM311.7,8.2c0,0,.2.1.3.1l.5-1.6v-.6s0,0,0,0l-.8,2ZM312.9,6.5c.1,0,.1,0,.1-.2s-.1-.4-.2-.5c0,0,0,0,0,0,0,.2,0,.5,0,.7ZM312.5,5.1l-1.5.7c-.2.1-.4.3-.4.6l-1,5.6c.6,0,1.3.2,1.9.5l-.2-5.4s0,0,0,0c0,0,0,0,0-.1,0,0,0,0,.1,0,.4,0,.6,0,.8,0l.3-.7s0,0,0,0c0,0,.2-.1.2-.2.3-.2.5-.4.5-.7s0,0,0,0c0,0,0,0,0,0,0,0,0,.2-.2.3-.1.1-.6.3-.7.4,0,0-.1,0-.1,0,0,0,0-.1,0-.1,0,0,.3-.1.4-.2v-.2ZM306.9,35.3l4.1-3.4c-.3-.3-.4-.6-.4-.9,0-1.2,1.1-1.6,2.4-2,1.9-.6,4.3-1.3,4.3-5.2,0-.9.6-1.6,1.2-2.2,0,0,.3-.3.3-.7s-.1-.6-.4-.8c-.8-.7-2.8-.5-3.4-.4,0,0,0,0,0,0-1.9.5-5,1.2-5.4,1.3-.7,1.4-1.6,2.8-2.7,3.8,0,0,0,0,0,0v10.5ZM328.7,24.6l1.5-2.3c.3-.4.5-1,.5-1.5-.3,0-.8-.1-1.4-.1-2.4,0-3.6.8-3.6.8,0,0,0,0,0,0s0,0,0,0c0,0,0,0,0,0,0,0-.1-1.2-.2-2.6-.5.2-1,.3-1.6.3s-.5,0-.8,0c0,0,0,.1,0,.1,0,.2,0,.3.1.5.4,1.5.8,3,2.7,3.7.2,0,.4.1.6.2.9.3,1.7.7,2.4,1.1ZM331.1,20.6c-.6-1.5-1.1-2.7-1.6-3.7-1.1-2.4-1.8-4.1-1.8-6.9s.3-2.3,2.5-4.2c.3-.2.6-.5.9-.8V1.9c-.5.4-1,.7-1.3.9-1.3.9-2.5,1.6-3.5,2.1-1.2.6-2.1,1-2.2,1.6.1.2.7,1.1,1.1,1.6,0,0,0,0,0,.1l-.5.6.7.7s0,0,0,0c0,0,0,3,0,4.3,0,0,0,0,0,0,0,0,0,0,0,0,0,0,0,0,0,0,0,0,0,0,0,0-.2,1.8.3,6.3.4,7.1.4-.2,1.6-.7,3.6-.7s1.4.1,1.7.2ZM331.1,5.2c-.3.3-.6.5-.8.7-2.1,1.9-2.5,2.6-2.5,4.1,0,2.7.8,4.4,1.8,6.8.4,1,.9,2.1,1.4,3.4V5.2ZM314.7.7c.2,0,.3.2.4.3.3.3.4.7.4,1.2,0,1-.7,2.1-1.8,2.1s-.2,0-.3,0l-.2.7s0,0,0,.1c0,0,0,.2,0,.2,0,.1.3.4.3.7s0,.2-.1.3c0,0,0,0-.1,0,0,.1-.1.3-.4.3,0,0,0,0,0,0,0,0,0,0-.1,0s-.1,0-.1,0l-.5,1.6s0,0,0,0,0,0,0,0c-.2,0-.4-.1-.5-.2v4.2c.2,0,.3,0,.3,0,1.2,0,1.9.4,2,1.1.3,0,.9-.2,1.5-.2.3,0,.5,0,.7,0,0-2.3.6-2.9,1.3-3.4.5-.4,2.4-1.5,3.1-2-.1-.1-.2-.2-.3-.3,0,0-.1,0-.2,0-.5,0-.9-.5-.9-.9s0-.3.1-.3c-.3-.4-.6-.9-.6-1.6,0-1.5,1.5-2.3,2.6-2.3s1.9.7,2.2,1.9c0,0,0,0,.2,0,.3,0,.5.3.5.7,0,.5-.2.8-.3.9,0,.2,0,.4,0,.6h.1c.2-.7,1.1-1.2,2.3-1.8,1-.5,2.2-1.1,3.5-2,.3-.2.9-.6,1.4-1v-.9s-16.4,0-16.4,0ZM306.9,13.4c.4-.8,1.4-1.4,2.5-1.4l1-5.6c0-.3.3-.6.6-.7l1.6-.7.2-.8c-.1,0-.2-.2-.3-.3-.3-.3-.4-.8-.4-1.2,0-.7.3-1.5,1-1.8h-6.2s0,12.6,0,12.6ZM306.9,35.8h2.7c.2-.2.9-1.4,1.6-2.8h0c0-.3.2-.5.3-.7,0,0,0,0,0,0-.1,0-.2-.1-.3-.2l-4.2,3.5v.2ZM331.1,35.8v-15s0,0-.2,0c0,.6-.2,1.1-.5,1.6l-1.5,2.3c.6.4,1,.9,1,1.6,0,.3-.1.7-.3,1.1,0,0,0,0,0,0,0,0,0,0,0,0-1,2.2-2.6,7.5-2.9,8.3h4.5ZM308.3,39.6v-2.7s.7,0,.7,0v-.3h-1.7v.3h.7s0,2.7,0,2.7h.3ZM310.4,36.6h-.3s-1.3,3-1.3,3h.3s.4-1,.4-1h1.4s.4,1,.4,1h.3s-1.3-3-1.3-3ZM309.7,38.3l.6-1.4.6,1.4h-1.2ZM314,38.8c0-.3-.2-.6-.5-.7.2-.2.3-.4.3-.6,0-.5-.3-.8-1-.8h-.8v3h.9c.8,0,1-.5,1-.9ZM312.4,36.9h.5c.6,0,.7.3.7.5s0,.5-.7.5h-.5s0-1,0-1ZM312.4,39.4v-1.2s.6,0,.6,0c.4,0,.7.2.7.6s-.4.6-.7.6h-.6ZM316.1,39.4h-1.4s0-1.1,0-1.1h1.3v-.3h-1.3s0-1.1,0-1.1h1.4v-.3h-1.7v3h1.7v-.3ZM317.5,38.3h-.3s1,1.4,1,1.4h.4s-.9-1.1-.9-1.1c.5,0,.9-.4.9-.9s-.4-1-1.1-1h-.9v3h.3v-2.7s.6,0,.6,0c.7,0,.9.4.9.7,0,.4-.3.7-.9.7ZM319.4,37h0s1.8,2.7,1.8,2.7h.3v-3h-.3v2.5s0,0,0,0l-1.7-2.5h-.4v3h.3v-2.7ZM323.5,36.6h-.3s-1.3,3-1.3,3h.3s.4-1,.4-1h1.4s.4,1,.4,1h.3s-1.3-3-1.3-3ZM322.8,38.3l.6-1.4.6,1.4h-1.2ZM327.7,39.2c.3-.3.4-.7.4-1s-.2-1-.7-1.3c-.3-.2-.6-.3-1-.3h-.9v3h.9c.5,0,.9-.1,1.2-.5ZM325.9,39.4v-2.5s.5,0,.5,0c.4,0,.7,0,.9.3.3.2.5.6.5,1s-.1.6-.3.9c-.2.2-.6.4-1.1.4h-.6ZM330.1,39.4h-1.4s0-1.1,0-1.1h1.3v-.3h-1.3s0-1.1,0-1.1h1.4v-.3h-1.7v3h1.7v-.3ZM309.5,42.8l-1.1-2.6h-.5v3h.3v-2.7s0,0,0,0l1.1,2.7h.3s1.1-2.7,1.1-2.7h0s0,2.7,0,2.7h.3v-3h-.5s-1.1,2.6-1.1,2.6ZM312.8,40.2l-1.3,3h.3s.4-1,.4-1h1.4s.4,1,.4,1h.3s-1.3-3-1.3-3h-.3ZM312.3,42l.6-1.4.6,1.4h-1.2ZM316.9,42.7h0s-1.7-2.5-1.7-2.5h-.4v3h.3v-2.7s0,0,0,0l1.8,2.7h.3v-3h-.3v2.5ZM319.5,42.2c0,.7-.4.9-.7.9s-.7-.3-.7-.9v-1.9h-.3v1.9c0,.8.5,1.2,1,1.2s1-.4,1-1.2v-1.9h-.3v1.9ZM320.4,43.2h1.7v-.3h-1.4s0-1.1,0-1.1h1.3v-.3h-1.3s0-1.1,0-1.1h1.4v-.3h-1.7v3ZM323,40.2h-.3v3h1.6v-.3h-1.3s0-2.7,0-2.7ZM324.6,43.2h.3v-3h-.3v3ZM325.3,40.5h.7s0,2.7,0,2.7h.3v-2.7s.7,0,.7,0v-.3h-1.7v.3ZM328.7,40.2c-.9,0-1.6.7-1.6,1.6s.8,1.5,1.6,1.5,1.6-.7,1.6-1.6-.7-1.6-1.6-1.6ZM328.7,43c-.7,0-1.3-.6-1.3-1.3s.6-1.3,1.3-1.3,1.3.6,1.3,1.3-.6,1.3-1.3,1.3Z"/>
  </g>
</svg>