<?xml version="1.0" encoding="UTF-8"?>
<svg id="Layer_1" xmlns="http://www.w3.org/2000/svg" version="1.1" viewBox="0 0 336 38.5">
  <!-- Generator: Adobe Illustrator 30.2.1, SVG Export Plug-In . SVG Version: 2.1.1 Build 1)  -->
  <defs>
    <style>
      .st0 {
        fill: #231f20;
      }

      .st1 {
        fill: #fafafa;
      }
    </style>
  </defs>
  <rect class="st1" x="-26.9" y="-318.5" width="390" height="844"/>
  <g>
    <g>
      <path class="st0" d="M274.3,33.2c-.3-.2-.6-.3-.9-.4-2.4-1.2-4.7-2.5-7.1-3.7-.6-.3-1.3-.5-2-.5-2.7,0-5.4,0-8.1,0-.8,0-1-.2-1-1,0-5.7,0-11.5,0-17.2,0-.7.2-1,.9-1,5.8,0,11.6,0,17.3,0,.6,0,.9.1.9.8,0,7.4,0,14.8,0,22.2,0,.2,0,.4-.1.7ZM264.8,22.7c2.2,0,3.8-1.5,3.8-3.6,0-2-1.7-3.7-3.7-3.8-2,0-3.8,1.7-3.8,3.7,0,2,1.6,3.6,3.8,3.6ZM273.7,24c0-1.4-1-2.7-2.3-3.2-.8-.3-1.5,0-2.1.6-.6.6-.7,1.2-.4,2,.3.6.6,1.1.9,1.7.1.3,0,.7,0,1-.4,0-.9,0-1-.3-.4-.6-.7-1.3-1.1-2-.3,0-.7,0-1.2,0,0,1.5,1,3.3,2.4,3.7.8.3,1.6,0,2.2-.5.6-.6.7-1.3.4-2.1-.2-.5-.5-.9-.7-1.4-.2-.4-.7-1,0-1.2.2-.1.8.4,1.1.6,0,0,.1.2.2.3.2,1.1.9,1.1,1.7.7ZM256,13.5c0,1.6,1,3.2,2.3,3.7.8.3,1.6.2,2.2-.4.7-.6.8-1.4.5-2.2-.2-.5-.5-.9-.7-1.4-.1-.4,0-.8,0-1.2.4.2.8.4,1.2.6.1,0,.1.3.2.4q.5,1.1,1.7.5c-.3-1.4-1-2.5-2.4-3.1-.8-.3-1.5,0-2.1.5-.6.6-.8,1.3-.4,2,.2.5.6,1,.8,1.6.1.3,0,.8,0,1.2-.4-.1-.9-.2-1.1-.5-.4-.5-.6-1.2-.9-1.8-.4,0-.8,0-1.2,0ZM269.6,16.3c0,1.2,0,1.4.9,1.1,1.2-.3,2.1-1,2.7-2.1.5-.9.3-1.7-.3-2.4-.6-.7-1.4-.8-2.2-.4-.5.2-.9.5-1.4.7-.4.1-.8,0-1.2,0,.2-.4.4-.8.6-1.1,0-.1.3-.2.4-.2q1.2-.5.6-1.7c-1.3.2-2.3.8-2.9,2-.5.9-.3,1.7.3,2.4.7.7,1.4.8,2.3.4.6-.3,1.1-.6,1.7-.8.3,0,.6,0,.9,0,0,.3,0,.7-.2.9-.6.4-1.3.8-2.1,1.2ZM259.3,20.6c-1.5.1-2.8,1.1-3.2,2.4-.2.8,0,1.5.6,2,.5.5,1.2.7,1.9.4.6-.3,1.1-.6,1.7-.9.3-.1.7,0,1.1,0-.1.4-.1.9-.4,1.1-.6.4-1.2.7-1.9,1,0,1.4.2,1.6,1.4,1,.8-.4,1.6-1.1,2.2-1.9.6-.8.4-1.6-.3-2.4-.6-.7-1.4-.8-2.3-.4-.4.2-.8.5-1.2.6-.5.1-1.3.3-1.4.1-.4-.7.3-1,.8-1.3,0,0,.1,0,.2,0q1.1-.5.6-1.6Z"/>
      <path class="st0" d="M294,20.5c1.3-.4,2.2,0,2.8,1.2.3.7.8,1.2,1.2,2,.5-.8,1-1.3,1.3-2,.5-1.3,1.5-1.5,2.8-1.2v8h-1.8v-4.8c0,0-.1,0-.2,0-.7,1-1.4,2-2.1,3.1-.7-1.1-1.4-2.1-2.2-3.3v5h-1.8v-8Z"/>
      <path class="st0" d="M288.3,15.2v2.4h-1.8v-8.2c1.7.1,3.4.1,5.1.4,1,.1,1.5.9,1.7,1.9.2,1,0,1.9-.8,2.6-.2.2-.5.4-.8.6.6.9,1.2,1.8,1.8,2.7-1.8.4-2,.3-2.9-1.1-.5-.8-.9-1.7-2.2-1.2ZM288.4,13.4c.8,0,1.5.1,2.1,0,.4-.1.9-.6.9-1,0-.3-.4-.9-.8-1-.7-.2-1.4-.1-2.2-.2v2.3Z"/>
      <path class="st0" d="M315.1,26v2.4h-1.7v-8.1c1.5,0,2.9,0,4.3,0,1.2,0,2.1.8,2.4,1.9.3,1.2,0,2.3-1.1,3-.1.1-.3.2-.5.3.6.9,1.2,1.8,1.8,2.7-1.4.5-2,.3-2.7-.8-.2-.2-.3-.5-.5-.7-.4-.8-1-1.1-2-.8ZM315.1,24.3c.7,0,1.4,0,2,0,.6,0,1-.4,1.1-1.1,0-.7-.3-1.1-1-1.1-.7,0-1.4,0-2.1,0v2.2Z"/>
      <path class="st0" d="M333.9,24.5c0,2.4-1.9,4.2-4.4,4.2-2.5,0-4.3-1.8-4.3-4.2,0-2.4,1.9-4.2,4.4-4.2,2.5,0,4.3,1.8,4.3,4.2ZM332,24.4c0-1.4-1.1-2.5-2.4-2.5-1.4,0-2.4,1.1-2.4,2.5,0,1.4,1.1,2.5,2.4,2.5,1.4,0,2.4-1.1,2.4-2.5Z"/>
      <path class="st0" d="M304.2,16h4.4v1.5h-6.2v-8.1h6.1v1.6h-4.3v1.6h3.7v1.6h-3.7c0,.6,0,1,0,1.7Z"/>
      <path class="st0" d="M292.7,28.5c-.4,0-.7,0-.9,0-.8.1-1.2-.2-1.4-.9-.2-.7-.6-1-1.3-.9-.3,0-.6,0-.8,0-1.1-.2-1.8.1-2.2,1.3-.3,1-1.3.3-2.1.6.9-2.1,1.7-4,2.5-5.9.2-.5.4-.9.6-1.4.2-.6.5-1,1.3-1,.8,0,1,.5,1.3,1.1,1,2.4,2,4.7,3.1,7.2ZM287.4,25h2c-.3-.8-.6-1.5-1-2.4-.4,1-.7,1.7-1,2.4Z"/>
      <path class="st0" d="M312,28.5q-1.8.2-2.7-1.8c-.9,0-1.9,0-2.8,0-.3,0-.6.3-.7.6-.6,1.4-.6,1.4-2.3,1.1.6-1.3,1.1-2.7,1.7-4,.5-1.2,1-2.5,1.6-3.7.1-.2.5-.4.8-.4.4,0,1.1,0,1.2.3,1.2,2.5,2.2,5.1,3.4,7.8ZM307.7,22.6c-.4.9-.7,1.7-1,2.5h2c-.3-.8-.6-1.5-1-2.5Z"/>
      <path class="st0" d="M276.6,17.6c1.1-2.7,2.2-5.2,3.4-7.8.2-.5,1.7-.5,1.9,0,1.1,2.6,2.2,5.2,3.3,7.8-1.7.4-1.7.3-2.4-1.1,0,0,0-.2-.1-.2-1-.1-1.9-.3-2.9-.3-.3,0-.7.3-.8.5-.7,1.3-.7,1.3-2.4,1.2ZM279.9,14.2h2c-.3-.8-.6-1.6-1-2.5-.4.9-.7,1.7-1,2.5Z"/>
      <path class="st0" d="M282.1,22.5c-.8-.2-1.5-.5-2.2-.6-.3,0-.7.4-1,.6.2.3.4.7.7.8.7.3,1.5.4,2.2.7,1,.4,1.5,1.2,1.4,2.2,0,1-.6,1.8-1.6,2.2-1.8.6-3.4.1-4.9-1,.4-.5.7-.8,1-1.2.7.3,1.3.6,1.9.8.3,0,.6.1.9,0,.3-.1.6-.4.8-.6-.2-.3-.4-.6-.7-.8-.5-.2-1.1-.4-1.7-.5-1.6-.5-2.1-1.2-2-2.7.1-1.1,1-1.9,2.4-2.1,1.3-.2,2.4.2,3.5,1-.3.4-.6.9-.8,1.2Z"/>
      <path class="st0" d="M296.8,11.2h-2.4v-1.7h6.7v1.7h-2.4v6.4h-1.9v-6.4Z"/>
      <path class="st0" d="M323.5,28.5h-1.7v-8h1.7v8Z"/>
      <path class="st0" d="M266.8,19.1c0,1.1-.9,2-2,2-1.1,0-2-.9-2-2.1,0-1,1-2.1,2-2.1,1.1,0,2.1,1.1,2,2.2Z"/>
    </g>
    <g>
      <path class="st0" d="M131.9,25.6c0-1.4,1-2.5,2.5-2.5s2.5,1,2.5,2.5-1,2.5-2.5,2.5-2.5-1-2.5-2.5ZM136.3,25.6c0-1.1-.8-2-1.9-2s-1.9.8-1.9,2,.8,2,1.9,2,1.9-.8,1.9-2ZM133.4,26.7v-2.2h1.2c.5,0,.8.3.8.7s-.2.5-.5.6c.1,0,.3.1.3.3l.2.7h-.6l-.2-.6c0,0-.1-.2-.2-.2h-.6v.7h-.6ZM134,25.5h.7c.2,0,.3-.1.3-.3s0-.3-.3-.3h-.7v.6Z"/>
      <g>
        <path class="st0" d="M55.4,27.8v-10.4h-4v-1.9h10.1v1.9h-4v10.4h-2.1Z"/>
        <path class="st0" d="M61.3,24.6v-6.2h2v6.1c0,1.1.7,1.7,1.8,1.7s2.2-.9,2.2-2.1v-5.6h2v9.3h-1.6l-.2-1.4c-.5,1-1.6,1.6-2.9,1.6-2.2,0-3.4-1.4-3.4-3.4Z"/>
        <path class="st0" d="M70.7,23c0-3.1,2-4.9,4.7-4.9s4.2,1.6,4.4,3.9h-2c-.2-1.3-1.1-2.1-2.4-2.1s-2.6,1.2-2.6,3.1,1.1,3.2,2.7,3.2,2.1-.8,2.3-2.1h2c-.2,2.4-1.9,3.9-4.3,3.9s-4.7-2.2-4.7-5Z"/>
        <path class="st0" d="M81,24.6v-6.2h2v6.1c0,1.1.7,1.7,1.8,1.7s2.2-.9,2.2-2.1v-5.6h2v9.3h-1.6l-.2-1.4c-.5,1-1.6,1.6-2.9,1.6-2.2,0-3.4-1.4-3.4-3.4Z"/>
        <path class="st0" d="M90.8,27.8v-9.3h1.6l.2,1.8c.6-1.3,1.7-1.9,3.2-1.9h.3v2h-.3c-1.9,0-3,1-3,2.8v4.6h-2Z"/>
        <path class="st0" d="M97.1,15.8c0-.8.6-1.3,1.3-1.3s1.3.6,1.3,1.3-.6,1.4-1.3,1.4-1.3-.6-1.3-1.4ZM97.4,27.8v-9.3h2v9.3h-2Z"/>
        <path class="st0" d="M101.2,27.8v-9.3h1.6l.2,1.4c.6-1,1.7-1.7,3.1-1.7,1.9,0,3.2,1.3,3.2,3.4v6.2h-2v-6.1c0-1-.7-1.7-1.8-1.7s-2.2.9-2.2,2.1v5.6h-2Z"/>
        <path class="st0" d="M110.6,23c0-3.1,2-4.9,4.7-4.9s4.2,1.6,4.4,3.9h-2c-.2-1.3-1.1-2.1-2.4-2.1s-2.6,1.2-2.6,3.1,1.1,3.2,2.7,3.2,2.1-.8,2.3-2.1h2c-.2,2.4-1.9,3.9-4.3,3.9s-4.7-2.2-4.7-5Z"/>
        <path class="st0" d="M120.6,25.2c0-2.2,2.1-2.6,3.9-2.8,1.4-.2,2.4-.2,2.4-.9,0-.9-.7-1.5-1.9-1.5s-2.1.7-2.2,1.6h-2.1c.2-2,1.9-3.3,4.3-3.3s3.8,1.4,3.8,3.4v4.2c0,.3.1.4.4.4h.5v1.6h-1c-1.2,0-1.6-.5-1.7-1.4-.5,1-1.5,1.7-3.1,1.7s-3.5-1.1-3.5-2.8ZM126.9,24.3v-1.3c-.3.5-1.2.7-2.2.8-1.1.1-2.1.3-2.1,1.3s.6,1.4,1.8,1.4,2.4-.9,2.4-2.1Z"/>
      </g>
    </g>
    <g>
      <g>
        <path class="st0" d="M154.6,15.5h3.5l3.1,9.2,3.1-9.2h3.5v12.3h-2.7v-8.4l-2.8,8.4h-2.4l-2.8-8.3v8.3h-2.7v-12.3Z"/>
        <path class="st0" d="M171.5,27.5c-.7-.4-1.3-.9-1.7-1.7-.4-.7-.6-1.6-.6-2.5s.2-1.8.6-2.5c.4-.7.9-1.3,1.7-1.7.7-.4,1.5-.6,2.5-.6s1.7.2,2.5.6c.7.4,1.3.9,1.7,1.7.4.7.6,1.6.6,2.5s-.2,1.8-.6,2.5c-.4.7-.9,1.3-1.7,1.7-.7.4-1.5.6-2.5.6s-1.8-.2-2.5-.6ZM175.4,25.1c.3-.4.5-1,.5-1.7s-.2-1.3-.5-1.7c-.3-.4-.8-.6-1.4-.6s-1.1.2-1.4.6c-.3.4-.5,1-.5,1.7s.2,1.3.5,1.7c.3.4.8.6,1.4.6s1.1-.2,1.4-.6Z"/>
        <path class="st0" d="M181.6,27.5c-.7-.4-1.3-.9-1.7-1.7-.4-.7-.6-1.6-.6-2.5s.2-1.8.6-2.5c.4-.7.9-1.3,1.7-1.7.7-.4,1.5-.6,2.5-.6s1.7.2,2.5.6c.7.4,1.3.9,1.7,1.7.4.7.6,1.6.6,2.5s-.2,1.8-.6,2.5c-.4.7-.9,1.3-1.7,1.7-.7.4-1.5.6-2.5.6s-1.8-.2-2.5-.6ZM185.5,25.1c.3-.4.5-1,.5-1.7s-.2-1.3-.5-1.7c-.3-.4-.8-.6-1.4-.6s-1.1.2-1.4.6c-.3.4-.5,1-.5,1.7s.2,1.3.5,1.7c.3.4.8.6,1.4.6s1.1-.2,1.4-.6Z"/>
        <path class="st0" d="M191.4,27.5c-.6-.4-1.1-.9-1.5-1.6-.4-.7-.5-1.5-.5-2.5s.2-1.8.5-2.5c.4-.7.8-1.2,1.5-1.6.6-.4,1.3-.6,2-.6s1.1,0,1.5.3c.4.2.8.5,1,.8v-4.4h2.7v12.3h-2.6v-.9c-.3.4-.6.6-1.1.8-.4.2-.9.3-1.5.3-.8,0-1.5-.2-2.1-.6ZM195.4,25.1c.3-.4.5-1,.5-1.7s-.2-1.3-.5-1.7c-.3-.4-.8-.6-1.4-.6s-1,.2-1.4.6c-.3.4-.5,1-.5,1.7s.2,1.3.5,1.7c.3.4.8.6,1.4.6s1-.2,1.4-.6Z"/>
        <path class="st0" d="M204.3,15.5h2.8v12.3h-2.8v-12.3Z"/>
        <path class="st0" d="M209,19h2.4v1.1c.3-.5.6-.8,1.1-1.1.5-.2,1-.4,1.6-.4s1.2.1,1.7.4c.5.3.9.7,1.2,1.2.3.6.4,1.3.4,2.1v5.4h-2.7v-5.3c0-.5-.1-.9-.4-1.2-.3-.3-.6-.4-1.1-.4s-.8.1-1.1.4c-.3.3-.4.7-.4,1.2v5.3h-2.7v-8.8Z"/>
        <path class="st0" d="M220.6,27.5c-.6-.4-1.1-.9-1.5-1.6-.4-.7-.5-1.5-.5-2.5s.2-1.8.5-2.5c.4-.7.8-1.2,1.5-1.6.6-.4,1.3-.6,2-.6s1.1,0,1.5.3c.4.2.8.5,1,.8v-4.4h2.7v12.3h-2.6v-.9c-.3.4-.6.6-1.1.8-.4.2-.9.3-1.5.3-.8,0-1.5-.2-2.1-.6ZM224.7,25.1c.3-.4.5-1,.5-1.7s-.2-1.3-.5-1.7c-.3-.4-.8-.6-1.4-.6s-1,.2-1.4.6c-.3.4-.5,1-.5,1.7s.2,1.3.5,1.7c.3.4.8.6,1.4.6s1-.2,1.4-.6Z"/>
      </g>
      <path class="st0" d="M230.6,27.7c-.4-.3-.7-.6-1-1-.2-.4-.3-.9-.3-1.3s.1-.9.3-1.3c.2-.4.5-.7,1-1s.9-.4,1.5-.4h0c.6,0,1.1.1,1.5.4.4.3.7.6,1,1,.2.4.3.9.3,1.3s-.1.9-.3,1.3c-.2.4-.5.7-1,1-.4.3-.9.4-1.5.4h0c-.6,0-1.1-.1-1.5-.4ZM233.2,27c.3-.2.5-.4.7-.7.1-.3.2-.6.2-1s0-.7-.2-1c-.1-.3-.4-.5-.7-.7-.3-.2-.6-.3-1.1-.3h0c-.4,0-.8,0-1.1.3-.3.2-.5.4-.7.7-.1.3-.2.6-.2,1s0,.7.2,1c.1.3.4.5.7.7.3.2.6.3,1.1.3h0c.4,0,.8,0,1.1-.3ZM231,24h1.4c.3,0,.5,0,.7.3.2.2.3.4.3.6s0,.3-.1.4c0,.1-.2.2-.3.3l.5,1h-1l-.4-.8h0v.8h-1v-2.6ZM232.3,25.1s0,0,0-.2,0-.1,0-.2c0,0-.1,0-.2,0h-.2v.4h.2c0,0,.1,0,.2,0Z"/>
    </g>
    <g>
      <g>
        <g>
          <path class="st0" d="M7.5,28.2h2.9c2.3,0,3.5,1.6,3.5,3.9s-1.2,3.9-3.6,3.9h-2.8v-7.8ZM10.3,35c1.8,0,2.5-1.1,2.5-2.9s-.6-3-2.4-3h-1.8v5.9h1.7Z"/>
          <path class="st0" d="M14.4,33.4v-5.3h1.1v5.2c0,1.3.7,1.8,2,1.8s1.9-.6,1.9-1.8v-5.2h1.1v5.3c0,1.9-1.3,2.7-3,2.7s-3-.8-3-2.7Z"/>
          <path class="st0" d="M21.3,28.2h3.6c1.4,0,2.3.9,2.3,2.1s-.4,1.6-1.4,1.9h0c.9.3,1.1.8,1.2,1.9,0,1.2.2,1.6.4,1.7h0c0,0-1.1,0-1.1,0-.2-.1-.2-.5-.3-1.8,0-1.1-.5-1.5-1.6-1.5h-2.1v3.2h-1.1v-7.8ZM22.4,31.9h2.2c1.1,0,1.6-.5,1.6-1.4s-.4-1.4-1.5-1.4h-2.3v2.8Z"/>
          <path class="st0" d="M27.7,32.1c0-2.3,1.5-4.1,3.8-4.1s3.8,1.7,3.8,4.1-1.5,4.1-3.8,4.1-3.8-1.7-3.8-4.1ZM34.2,32.1c0-1.8-.9-3.1-2.7-3.1s-2.7,1.4-2.7,3.1,1,3.1,2.7,3.1,2.7-1.3,2.7-3.1Z"/>
        </g>
        <g>
          <path class="st0" d="M2.1,23.5l.8-.8,4,2.5c.7.4,1.7,1.2,1.7,1.2h0s-.8-1.1-1.2-1.8l-2.3-4.1.8-.8,4.1,2.4c.7.4,1.8,1.2,1.8,1.2h0s-.8-1.1-1.2-1.7l-2.4-4.1.8-.8,4,7-.7.7-4.4-2.6c-.6-.4-1.6-1.1-1.6-1.1h0s.7,1,1.1,1.7l2.6,4.5-.8.8-7-4.1Z"/>
          <path class="st0" d="M11.6,19.6c-1.7-1.7-1.8-3.9-.2-5.6,1.7-1.7,3.9-1.5,5.6.2,1.6,1.6,1.8,3.9.2,5.6-1.7,1.7-3.9,1.5-5.6-.2ZM16.2,15c-1.3-1.3-2.9-1.6-4.1-.3-1.3,1.3-1,2.9.3,4.1,1.3,1.3,2.9,1.5,4.1.3,1.3-1.3,1-2.9-.3-4.1Z"/>
          <path class="st0" d="M14.7,10.9l2.6-2.6c1-1,2.3-1,3.2-.1.7.7.9,1.4.4,2.4h0c.8-.4,1.4-.2,2.2.5.9.8,1.3,1,1.5,1h0s-.8.8-.8.8c-.2,0-.5-.2-1.4-1-.8-.7-1.4-.7-2.2,0l-1.5,1.5,2.3,2.3-.8.8-5.5-5.5ZM18.1,12.8l1.6-1.6c.7-.7.7-1.5.1-2.1-.6-.6-1.3-.7-2.1.1l-1.6,1.6,2,2Z"/>
          <path class="st0" d="M19.5,6.2l.8-.8,1.7,1.7c.4.4.7.8,1,1V2.8c0,0,.9-.9.9-.9v4.4l5.7.9-.9.9-4.9-.8v1.7s2,2,2,2l-.8.8-5.5-5.5Z"/>
        </g>
        <g>
          <path class="st0" d="M25.1,15l2.4,2.4c.6.6.9,1.2.9,1.8,0,.5-.2.9-.6,1.3-.6.6-1.3.6-2.1.2h0c.5.9.6,1.8-.2,2.5-.4.4-1,.7-1.5.7-.6,0-1.3-.3-1.9-.9l-2.5-2.5,5.5-5.5ZM22.7,22.3c.4.4.7.6,1.1.6.3,0,.6-.1.9-.4.7-.7.5-1.5-.1-2.1l-1.6-1.6-1.9,1.9,1.7,1.7ZM25.1,19.6c.6.6,1.3.7,1.9.2s.5-1.2-.1-1.8l-1.6-1.6-1.7,1.7,1.5,1.5Z"/>
          <path class="st0" d="M28,24.3l1.2-5.2.8.8-.7,2.7c-.2.6-.5,1.6-.5,1.6h0s1-.3,1.6-.5l2.7-.7.8.8-5.2,1.2-2.3,2.3-.8-.8,2.3-2.3Z"/>
        </g>
      </g>
      <path class="st0" d="M28.2,15.4c-.3-.1-.5-.3-.7-.5-.2-.2-.4-.5-.5-.8s-.2-.6-.2-.9,0-.7.2-.9.3-.5.5-.8c.2-.2.5-.4.7-.5.3-.1.6-.2.9-.2s.6,0,.9.2c.3.1.5.3.7.5.2.2.4.5.5.8s.2.6.2.9,0,.7-.2.9-.3.5-.5.8c-.2.2-.5.4-.7.5-.3.1-.6.2-.9.2s-.6,0-.9-.2ZM30,15.2c.2-.1.5-.3.6-.4.2-.2.3-.4.4-.7.1-.3.2-.5.2-.8s0-.6-.2-.8c-.1-.3-.2-.5-.4-.7-.2-.2-.4-.3-.6-.4-.2-.1-.5-.2-.8-.2s-.6,0-.8.2c-.2.1-.5.3-.6.4-.2.2-.3.4-.4.7-.1.3-.2.5-.2.8s0,.6.2.8c.1.3.2.5.4.7.2.2.4.3.6.4.2.1.5.2.8.2s.6,0,.8-.2ZM28.6,14.5c-.2,0-.3-.2-.4-.3-.1-.1-.2-.3-.3-.5s0-.4,0-.6,0-.4,0-.6c0-.2.2-.3.3-.5.1-.1.3-.2.4-.3.2,0,.4-.1.6-.1s.3,0,.5,0c.1,0,.3.1.3.2,0,0,.2.2.2.3,0,.1,0,.2.1.4h-.5c0-.2-.1-.3-.2-.4-.1,0-.3-.1-.5-.1s-.3,0-.4,0-.2.1-.3.2c0,0-.1.2-.2.3,0,.1,0,.3,0,.4,0,.3,0,.6.2.8.2.2.4.3.6.3s.4,0,.5-.2.2-.3.2-.4h.5c0,.1,0,.3,0,.4,0,.1-.1.2-.2.3,0,0-.2.2-.4.2-.1,0-.3,0-.5,0s-.4,0-.5-.1Z"/>
    </g>
  </g>
</svg>