<?xml version="1.0" encoding="UTF-8"?>
<svg id="Arte" xmlns="http://www.w3.org/2000/svg" version="1.1" viewBox="0 0 335.8 35.8">
  <!-- Generator: Adobe Illustrator 29.0.0, SVG Export Plug-In . SVG Version: 2.1.0 Build 186)  -->
  <defs>
    <style>
      .st0 {
        fill: blue;
      }
    </style>
  </defs>
  <g>
    <path class="st0" d="M195.3,3.7c2.3-.2,4.9,0,7.1.2,9.4.3,18.9-.2,28.3.1.8,0,1.5.7,1.5,1.5v28.1c-.3,1.7-2.2,1.3-3.5,1.3-6.9.2-13.8-.1-20.7,0-4.6.1-9.1,0-13.7,0-.6,0-1.2-.5-1.4-1.1,0-9.4,0-18.9,0-28.4.2-1.2,1.3-1.7,2.4-1.8ZM195.4,4.7c-.5,0-1.4.3-1.5,1,0,7,0,14.1,0,21.1,0,1.7-.2,3.5,0,5.2,0,1.1.2,2.1,1.5,2.2,4.1.3,8.5-.3,12.6,0,6.7,0,13.4-.4,20.1-.1s3.2.4,3.4-1.8c0-.9,0-1.9-.1-2.8s0-1.9,0-2.8c0-7.1,0-14.1,0-21.2,0-.3-.5-.4-.8-.4-1.1,0-2.3,0-3.4,0-9.5.1-19,0-28.5-.2-1,0-2.3-.1-3.3,0Z"/>
    <path class="st0" d="M227.7,20.6c.2.1-.1,1.4-.2,1.6s-.6.9-.6,1.1c0,.4.5.7-.3,1s-1.5.2-2.3,1,.2,2,.3,3c.4.5.7-.4.9-.7.4-.7,1.2-1.5,1.9-1.8s1.8-.5,1.9.3c.3,1.7-1.6,1.7-2.7,2.2s-1.6,1-1.8,1.7,0,.9-.4.9,0-.8-.7-1c-1.7-.7-3.7-.3-5.4-.5s-.8-.2-1.1-.3-.9,0-1.1-.2-.1-.4.1-.6c.4-.5,1.4-.8,2-1,1.8-.5,3.9-.5,5.3.8.6.2.2-.6.2-.9-.4-1.1-1.6-2.9-2.8-2.9-.7,0-1.8.8-2.5,1s-.6.1-.9.2-.8.5-1.2.3,0-.6-.2-.8-1.5-.4-1.4-.9,1.3-.2,1.7-.2.3-.3.5-.3c.4,0,.9.4,1.3.2s.2-.2.3-.3c.3-.1.7.3,1,.3s1,0,1.1,0c.4-.4-.6-.9-.8-1.1-.4-.4-.8-.8-1.1-1.2s-.4-.9-.8-1-.6,0-.9-.1-.2-.6-.3-.9c-.2-.4-1.4,0-1.5-1s.8-.7.8-1.2,0-.3,0-.5c0-.5.5-.7.9-.5s.3.7.6.7.5-.8,1.1-.7.4.4.4.7-.4.6-.3,1,1,0,1,.6-.3.8-.7.7-.8-.4-.8.2c0,.8,1.5,2.4,2.2,2.9.8.6.8.4.8-.4,0-.6,0-.9.1-1.5s.4-.8.2-.9-.7,0-.8-.4,0-.8.2-1,.2-.1.3-.3c0-.3-.6-.8-.2-1.3s.9.2,1.2.1.4-.9,1.2-.8.3.8.5,1.2.7.2,1,.3.4.9.1,1.2-.5.2-.6.4,0,.4,0,.6c0,.5-.3.9-.8.9-.8,0-1.3-1.2-1.8.2-.5,1.5.3,3.3,1.4,4.4s.7,0,.9-.5.3-.4.4-.6c.3-.5,0-1.2.5-1.6s.7,0,1-.2.5-1,.8-1.3.6-.5.9-.4ZM222.6,17.6c-.3,0-.7.4-.7.7-.2,1.4,2,1.3,1.8-.2s-.7-.6-1.1-.5ZM217.1,17.8c-.7.2-.5,1.5.4,1.3s.8-1.6-.4-1.3ZM228.5,26.2c-.3,0-1.3.5-1.4.8s0,.3.3.3,1.1-.3,1.3-.4c.4-.2.3-.7-.2-.6ZM222.7,28.4c-.3-.4-1.7-.7-2.2-.7-.8,0-1.9.1-2.7.4s-.4.3,0,.5c.9,0,1.8,0,2.7,0s.8,0,1.1,0,.7.2,1,.2.3-.2.2-.3Z"/>
    <path class="st0" d="M208.6,17.7c-.3.2-.4-.3-.5-.4-.3-.3-1.2-.5-1.6-.4-1,.1-1.5,1.7-.1,1.8s1.2-.4,1.2.4-.4.5-.9.4-1.4.2-1.4.9c0,1.2,1,1.7,2.1,1.1s1.3-1.4,1.2-.3-.4,1.1-1.1,1.2c-2.1.3-3.6-.8-3.7-2.9,0-1,.3-1.9.3-2.8s-.2-.4,0-.5c.3-.4,1.9-.4,2.4-.4.6,0,1.3,0,2,0,.3.1.4,1.6.3,1.7Z"/>
    <g>
      <g>
        <path class="st0" d="M214.8,13.2c0,.1-.2.4-.3.4-.7.5-1.7.2-2-.6-.3-.7,0-2.2-1.2-2.2s-.8,1.4-.5,2.1c0,.1.4.6.3.7s-1.1,0-1.3,0c-.7-.3-.6-2.2-.6-2.8,0-.8.3-2,.1-2.7,0-.4-.4-.5.2-.7,1-.3,3.3-.5,4.2.3.9.7.7,1.8,0,2.5s-.7.4-.7.7.4.6.5.7c.2.4.4,1.1.8,1.3s.5.1.5.1ZM210.7,9.8c.4.4,1.7.2,2-.2.5-.8-.2-1.4-1-1.5s-.9,0-1.1.2c-.3.2-.2,1.3,0,1.5Z"/>
        <g>
          <path class="st0" d="M217.4,7.3c.7,0,2.2,0,2.8.4s.8,1.5.2,2.1c-.1.2-.5.3-.5.5s.7.6.8.8c.8,1,.2,2.1-.9,2.5s-2.7.2-3.4.1-.6,0-.6-.3c.1-.8.4-1.5.4-2.3s0-2.2-.1-2.8-.6-.5-.1-.8,1-.3,1.4-.3ZM217.7,8.1c-.2,0-.2.2-.3.3,0,.3,0,1.3.3,1.5.8.4,2-.6,1.4-1.5s-1-.4-1.4-.4ZM217.9,10.9c-.2,0-.4.2-.4.4,0,.3-.2,1.3,0,1.6.2.5,1.2.5,1.7.2,1.1-.9.2-2.5-1.2-2.2Z"/>
          <path class="st0" d="M222.3,13c.2-.2.4,0,.6-.1s.3-.9.4-1.1c.2-.7.7-2.6.7-3.2s-.3-.9-.2-1c.3-.2,2.3-.2,2.7,0s.5.3.6.6c.4,1.3.8,3.5.9,4.9s0,.8-.3.9-1.2,0-1.5,0c-.5,0,0-.6,0-.9.3-.8.2-2-.8-2s-.9.9-1,1.7-.9,1.4-1.7,1.1-.7-.5-.4-.7ZM225.4,7.9c-.2,0-.2.2-.3.4-.1.3-.3,1.4-.1,1.7s.8.4,1,.1,0-1.6-.1-1.9-.3-.2-.5-.2Z"/>
        </g>
      </g>
      <path class="st0" d="M207.6,9c0,0-.2-.3-.3-.4-.3-.3-1.2-.5-1.7-.4-1,0-1.5,1.7-.2,1.8s1-.1,1.1,0c.2.1.2,1,0,1s-.6-.4-1.3-.1-.8.6-.6,1.3c.3,1.2,1.5,1.2,2.3.5.1-.1.8-.9.9-.3s-.2,1.3-.7,1.4c-1.5.4-3.5-.2-4-1.7s-.2-1.5-.1-2.1.3-1,.3-1.4-.2-.7-.1-.8c.2-.3,1-.4,1.3-.4,1-.1,2.1,0,3.1,0,.3,0,.4,1.3.3,1.5s-.2.3-.3.1Z"/>
    </g>
    <g>
      <path class="st0" d="M201.5,7.2c.6,0,.6.5.5,1-.3,1.2-1,2.3-1.5,3.5s-.2,1.9-1.3,2.3c-.6.2-1.5,0-1.6-.7-.1-1.2,1.3.7,1.2-.5,0-.8-.5-1.6-.9-2.3-.3-.5-1.1-1.9-1.5-2.3s-.7-.4-.4-.5.7-.1.9-.1c1.3,0,1.1.8,1.5,1.7s.8,1.4,1.2.9.7-1.6.7-2-.2-.7,0-.7c.3,0,.8,0,1.2,0Z"/>
      <path class="st0" d="M197.6,22.3c-.2-.2.3-.6.4-.9.2-.3.3-.6.3-1,0-.8,0-2,0-2.8s-.4-1.4-1.1-.8-.5.8-.7.8-.3-1.3.1-1.5.5-.1.7-.1c.9,0,2.1,0,3,0s1.1,0,1.2.4.2,1.2,0,1.3-.5-.6-.6-.7c-.3-.3-.9-.4-1,.2-.1,1.3,0,2.8,0,4.1,0,.4-.1.9-.5,1.1s-1.5.2-1.7,0Z"/>
    </g>
    <g>
      <path class="st0" d="M198.7,30.9c-.8,0-1.5.3-1.8-.7s-.1-1.7,0-2.3c0-.7.3-1.9.1-2.6s-.3-.4,0-.5c.5-.3,2.6-.4,3.2-.3,1.8.3,2.4,1.8,1,3.1-.2.2-.6.3-.5.6s.4.5.5.7c.2.4.4,1.1.8,1.3s.9,0,.2.6-1.6.2-1.9-.6c-.3-.7,0-2.2-1.2-2.2-.9,0-.9,1-.7,1.7.1.4.4.8.5,1.2ZM198.7,25.4c-.7,0-.8.3-.7,1s.1.7.5.8c.6.2,1.9,0,2-.8,0-.9-1.1-1.1-1.7-1Z"/>
      <g>
        <path class="st0" d="M207.9,30.2c0-.1.5,0,.7-.1s.4-1.1.4-1.3c.2-.7.7-2.8.6-3.4s-.3-.6-.1-.7c.3-.3,2.4-.2,2.8,0s.4.2.5.5c.4,1.3.9,3.9.9,5.3,0,.2,0,.5-.3.6s-1.6,0-1.7,0c-.2-.2.3-.8.4-1.1.2-.6,0-1.6-.8-1.7-1.4-.2-1,1-1.2,1.9s-.9,1.2-1.7.9-.7-.5-.5-.7ZM210.9,25.2c-.2.2-.4,1.7-.3,1.9s.6.4.9.3c.5-.1.2-1.8,0-2.1s-.4-.3-.6-.2Z"/>
        <path class="st0" d="M204.5,24.4c.2,0,.8,0,1,.1s.2.2.3.4c0,.5,0,1.5,0,2.1,0,.8-.1,2.4.2,3.1s.5.6,0,.7-1.5-.1-1.7-.9c-.2-1.4.2-2.8,0-4.1s0-.6,0-.7c0-.1-.3-.2-.4-.3-.3-.4.5-.5.7-.5Z"/>
      </g>
    </g>
  </g>
  <g>
    <path class="st0" d="M115.2,33c.6,0,1.8-.2,1.8.7s-.3.5-.3.6.4.1.4.6c0,1-1.2.9-1.9.9v-2.8ZM116.4,34c.1-.1.2-.5,0-.6h-.9c0,0,0,.7,0,.7,0,0,.8,0,.9-.1ZM115.5,35.4c1.6.2,1.6-1.2,0-1v1Z"/>
    <path class="st0" d="M89.9,33c1.3-.3,2.7.5,1.3,1.6l.6,1.1c-.8.6-.7-1.3-1.5-1v1.1s-.3,0-.3,0c-.2-.1,0-.2,0-.2v-2.6ZM91.2,33.4h-.9s0,.9,0,.9c.7,0,1.4-.1.9-.9Z"/>
    <path class="st0" d="M119,35.8c0-.3-.3,0-.4,0-1.5.2-.9-1.5.3-1.3,0-.9-1-.2-1.1-.3v-.4c1.1-.4,1.5-.2,1.5.9s0,1-.1,1h-.2ZM118.9,34.7c-.4,0-1,.2-.8.7.5.3.9-.2.8-.7Z"/>
    <path class="st0" d="M100.8,33.7v1.6c0,.2.7.2.8,0v-1.5s.5,0,.5,0v2c0,0-.3.2-.4.1v-.3c-.4.3-.8.4-1.2.2,0,0-.2-.4-.2-.4v-1.6s.5,0,.5,0Z"/>
    <path class="st0" d="M99.4,33.8c0,0,.2.7.2.8s0,1.2-.2,1.1c-.3-.3-.5,0-.8,0s-.6-.1-.6-.5c0-.7.5-.7,1-.8s.2,0,.2-.2c0-.6-.7-.2-1-.1-.2-.6,1-.7,1.3-.3ZM99.2,34.7c-.4,0-1.1.2-.7.7.5.2.8-.3.7-.7Z"/>
    <path class="st0" d="M106,35.8c-.3.1-.4-.2-.4-.2-.2,0-.9.5-1.2,0s.6-1.1,1.2-1.1l-.3-.4c-.3-.1-.7.4-.8,0,.3-.3,1-.5,1.3-.1s.2.4.2.4v1.6ZM105.3,34.7c-.7,0-.8.9-.2.8s.6-.8.2-.8Z"/>
    <path class="st0" d="M94,34.8h-1.4c0,.4.3.8.7.7s.5-.4.6,0c-.4.4-1.4.3-1.6-.3-.5-1.8,1.8-2.4,1.7-.5ZM93.5,34.1c-.3-.3-.9,0-.9.4h1c0-.1,0-.3-.1-.4Z"/>
    <path class="st0" d="M112.5,34.8h-1.3c-.2.4.3.7.6.7s.4-.3.6,0c0,.4-1.3.6-1.6-.3-.5-1.8,1.8-2.2,1.7-.4ZM112.1,34.5c.1-.7-.8-.7-1-.1s0,.1.1.1c.3,0,.6,0,.9,0Z"/>
    <path class="st0" d="M108.4,35.8h-.4s0-1.5,0-1.5c0-.5-.9-.2-.9,0v1.5s-.4,0-.4,0v-2.1c.5.2.5,0,.8,0s.8.2.8.5v1.7Z"/>
    <path class="st0" d="M95.9,33.8c0,.6-1.1-.2-1,.5s1,.2,1.1.8-1,.8-1.5.5l.2-.3c.2.2,1,.4,1,0s-1.1-.3-1.1-1c0-.7.9-.7,1.4-.4Z"/>
    <path class="st0" d="M97,33.7h.5s0,.3,0,.3h-.5c0,.3-.2,1.4.2,1.5s.3-.1.5,0c0,.3-.5.3-.7.2-.5-.1-.2-1.3-.3-1.7l-.4-.2v-.3s.4,0,.4,0v-.5s.2-.1.2-.1c.2.2.1.4.1.6Z"/>
    <path class="st0" d="M109.7,33.7h.5s0,.3,0,.3h-.5c-.1.1-.1,1.1,0,1.3.1.3.5,0,.6.2.2.3-.7.4-.9,0s.3-1.4-.4-1.7h.3c0-1,.5-1,.4-.1Z"/>
    <path class="st0" d="M120.1,33.7c.3-.1.4.2.4.2.2,0,.5-.4.8-.3v.3c-.6,0-.8.3-.8.9,0,.2,0,.7,0,.8,0,.2-.4.1-.4,0v-2Z"/>
    <path class="st0" d="M103.3,35.8c-.1,0-.4,0-.4-.1v-2c.2,0,.2,0,.3.2.1,0,.8-.5.9-.1s-.8.3-.8.7v1.3Z"/>
    <path class="st0" d="M113.8,33.9v.4c0,0,.5,0,.5,0l-.3.4.2.4c-.4.1-.3-.4-.5-.2s0,.1,0,.2c-.5.4-.2-.3-.2-.4,0-.2-.3,0-.3-.3.1-.2.3,0,.5,0,0-.2,0-.5.3-.5Z"/>
    <path class="st0" d="M105.1,12.6c-.9.7-1.8.7-2.8.5,0-.5.4-.7.5-1.1-1-.9-1.5-1.9-1.4-3.3l2.4.9c-.2-.4-.4-.8-.5-1.2s-.3-1.2,0-1.1l.7.4c-.1-1,.5-1.6,1.1-2.2.8.5,1.2,1.2,1.2,2.2.1.1.8-.7.9-.3.1.5-.5,1.6-.6,2.1l2.2-.9c.4,0,.1,1.1,0,1.4-.2.7-.6,1.6-1.3,1.9.3.4.6.7.6,1.2-.5.1-1,.3-1.6.2s-.9-.4-1.3-.6v6.2s-.3-.1-.3-.1v-6ZM106.1,8.3v-1.4c0-.2-.7-1.1-.9-1-.5.4-.9.9-.9,1.6s.3,1-.1.8-.6-.6-.8-.5l.8,2c-.3.4-2-.7-2.4-.7s-.2.3-.1.4c0,1,.8,2,1.6,2.5,0,0-.8.7-.7,1,.7,0,1.1.2,1.7-.1s.7-.8.7-1.7h.3c0,.8-.2,1,.5,1.5s1.4.6,2.1.2l-.7-1c1.1-.3,1.5-1.7,1.6-2.7-.9,0-1.6.9-2.5.7.2-.7.7-1.2.7-2l-.9.5Z"/>
    <path class="st0" d="M100.3,11.9l-4-9c-.3-2.9,4-2.8,3.8,0,0,.8-1,1.4-1,1.7s1.2,2.2,1.4,2.7c.3.9.2,3.3,0,4.4s0,.2-.2.2ZM100.3,10.9c0-1.1.3-2.3,0-3.4-.2-.7-1.4-2.4-1.4-2.9s1.1-.9,1-2.1c-.3-2.1-3.5-1.7-3.2.5,1.1,2.5,2.1,5,3.3,7.4,0,.2.2.5.4.6Z"/>
    <path class="st0" d="M113.6,1.2c.6.5.7,1.3.5,2.1l-3.8,8.3-.3.2c0-1.3-.5-2.8-.2-4.1s1.4-2.6,1.5-3.1-.4-.6-.6-.9c-1.3-1.9,1.2-4,2.8-2.5ZM110.3,10.9l3.6-7.8c.6-2.3-2.9-2.9-3.1-.7s1,1.4.9,2.2-1.2,2.1-1.4,3,0,2.2,0,3.3Z"/>
    <path class="st0" d="M110.3,4.4c.3.2-.9.5-1,.5-1.9.4-4.5.4-6.4.2s-2.5-.3-2.6-.5c0-.2,0-.2.1-.2s.7.2,1,.2c2.9.5,6,.4,8.8-.2Z"/>
    <path class="st0" d="M102.7,19.7c1.3-.6,3.1-.7,4.4-.2.3,0,.5.1.7.4-.1.2-.2.1-.3,0-1.4-.4-2.5-.6-4-.2s-.7.5-.8,0Z"/>
    <circle class="st0" cx="95.8" cy="10.1" r=".3"/>
    <path class="st0" d="M114.5,10.4c-.3-.5.3-.8.6-.4s-.5.7-.6.4Z"/>
    <path class="st0" d="M95.3,9c1.2.1,2.6,1.1,3.3,2.1s.6,1.3.9,1.8,0,.2.2.1c0-.2,0-.3,0-.5,0-.3-1.4-2.7-1.6-3.3-.8-1.6-2-4-2.5-5.7s0-2.6,1.3-3.2c2.3-1.1,4.6,1.2,3.5,3.5,3.2.1,6.3,0,9.5,0-1.1-2.4,1.4-4.7,3.7-3.4,1,.6,1.4,1.7,1.2,2.8s-1.3,3.3-1.8,4.3c-.4.9-.9,1.9-1.3,2.8s-1.2,2-1.2,2.2.2.3.2.5c.7-.8,1-2,1.9-2.8s1.9-1.2,2.5-1.2h1.6c-.7,2.6-3.4,3.7-5.6,4.8,0,.2.2,0,.3,0,.8-.1,1.4-.7,2.1-.9,1.1-.4,2.3-.5,3.4.1s.8.6.7.7c-2.1-.2-4.1,1.2-6.2.6.1.3.2.6.6.7s1.3.2,1.4.2.2-.4.5-.5c.9-.4,2.6.3,2.2,1.4s-1.9.7-2.4,0c-.2-.2-.2-.5-.4-.6s-.8-.1-1-.1-.1-.1-.3,0l.7.8c.7,0,1,0,1.6.4,1.5,1.3.7,3.9-1.2,2.4s-1-1.7-.6-2.6l-.8-1c-.3.6,0,.7.2,1.1.7,1.6-1.2,3.4-1.9,1.9-.5-.9.2-2.6,1.3-2.5.2-.7.3-1.2-.2-1.7-.2-.2-.6.3-.7.5-.3.5-.4,1.3-.8,1.8l-.2-1.5-1-.3c.5-.4,2.3-.9,2.3-1.6s-.2-.5-.3-.4c-.3.6-1,1.2-1.6,1.5s-1.6.4-1.9,1.2-.5,2.7-.3,3c.5.2,1.1.2,1.6.4,1.4.5,1.4,1.5-.2,1.7s-4,.2-5.4,0-1.6-1-.3-1.6,1.2-.3,1.8-.5c.2-.3-.1-2.7-.3-3.1-.3-.7-1-.7-1.7-1s-1-.6-1.4-1-.3-.5-.5-.5-.3.5-.3.5c0,.5,1.9,1.2,2.3,1.5-1.4.1-1.2.7-1.3,1.9-.2,0-.1,0-.2-.1-.3-.7-.4-1.6-1.1-2.2-.2-.1-.5.5-.6.6-.1.4,0,.8.1,1.1,1.7-.2,2,3.4.2,3s-1.2-1.7-.9-2.4.5-.2.3-1,0-.2-.2-.1l-.7,1c.7,1-.2,2.8-1.3,3-1.9.2-1.4-2.6,0-3.1s.8,0,1.1-.1.7-.8.6-1c-.3.2-1,0-1.3.2s-.2.5-.4.6c-.6.7-2.4.8-2.5-.3s1.7-1.7,2.5-1,.1.3.4.4,1.2-.1,1.4-.2c.3-.1.4-.4.5-.7-1.3.5-2.5-.2-3.8-.4s-1.6-.2-2.4-.2c.8-1.3,2.5-1.4,3.8-1,.7.2,1.5.9,2.2,1s.5.1.5,0c-2-.9-4-1.8-5.2-3.7-.2-.3-.5-.8-.5-1.1.5,0,1.1,0,1.6,0ZM110.5,4.1h-10.3s-.1-.2-.1-.2c1-1.3.2-3.4-1.4-3.6-1.8-.3-3.1,1.2-2.7,3s1.5,3.5,2,4.7c.8,1.8,2.1,5,4,6s1.3.4,1.7.8.7,1.8.7,2.5,0,1.3,0,1.5c-.2.3-.5.2-.9.2-1.2.2-3.2,1.2-.7,1.4,1,0,4.7.1,5.5-.1s.6-.1.4-.5c-.4-.7-2.6-.8-2.7-.9.1-1.1,0-3.5,1-4.2s1.8-.5,2.8-1.6c2.1-2.4,3.4-7,4.8-9.9.5-3-3.7-3.8-4.5-1.2-.3.9,0,1.5.3,2.3ZM99.5,13.5c-.9-1.8-1.7-3.6-3.8-4.2h-1.7c.7,1.7,2.4,2.7,4,3.5s1.3.7,1.4.6ZM116.4,9.2c-2.9-.3-4.4,1.9-5.4,4.3,2.1-1,4.6-1.9,5.4-4.3ZM98.8,14.1c-.6,0-1.2-.5-1.7-.8-1.2-.5-2.5-.7-3.6.2.6.1,1.2.1,1.8.3,1,.2,2.2.8,3.2.6s.3,0,.4-.2ZM117.1,13.4c-.4-.2-.8-.5-1.2-.5-1.5-.2-2.7.6-4,1.2s-.2,0-.1.2c1.1.3,2.1-.1,3.1-.4l2.3-.4ZM99.9,13.7c-.7.3,0,.5.2.8s.3.7.5,1,0,.2.2.2v-.8s.6-.2.6-.2c-.5-.3-1.3-.5-1.5-1ZM110.8,13.7c0,0-.8.6-.9.7-.3.2-.6.2-.9.3l.6.2v1c.1,0,.7-1.2.7-1.2l.6-.6v-.4ZM96.6,15.2s-.4-.2-.4-.2c-1.5-.3-2.4,1.5-.9,1.5s1.1-.2,1.4-.8l-.5-.2c.1-.2.3-.2.5-.1,0,0,0-.2,0-.3ZM113.8,15.7c.2.7,1.6,1.2,2,.5s-1.5-1.8-2-.9h.5c0,.1,0,.4,0,.4h-.5ZM99.9,16.6c-.1-.1-.4-.2-.6-.2,0,0,.2.6,0,.5l-.3-.3c-.4.6-.2,2.2.7,2.3s.9-1.7.3-2.2ZM111.3,16.4c-1.2-.1-1.6,2.6-.3,2.5s1.2-1.7.6-2.2l-.4.2v-.5ZM97.4,16.7c-1.1-.4-2.4,1.9-1.5,2.5,1,.7,2.6-1.5,1.7-2.4l-.4.2.2-.4ZM114.2,17.1c-.3-.3-.7-.4-1.1-.4v.4c0,0-.6-.5-.4.9s1,1.7,1.8,1.3.3-1.7-.2-2.2Z"/>
    <path class="st0" d="M117.4,30.7c-2.4.7-4.1-2.2-3.9-4.3.4-4.5,7.4-4.9,8.5-.8.4,1.7-.2,4.5-2.1,5s-1.7.3-1.3-.4,1.2-.5,1.5-.8c3.2-2.5-.1-7.5-3.9-5.5s-2.4,4.6-.3,5.7,2.1.5,1.5,1Z"/>
    <path class="st0" d="M91.8,22.8c3.5-.4,6,2,4.9,5.5-.4,1.3-1.4,2.6-2.9,2.5-.6,0-.8-.4-.2-.7.9-.6,1.5-.5,2.1-1.6,1.6-3-1.5-5.8-4.5-4.6-2.3.9-2.7,4.6-.6,5.8s1.3.4,1.5.6.1.2,0,.3c0,.6-1.6.2-1.9,0-3.2-1.8-2.5-7.2,1.5-7.7Z"/>
    <path class="st0" d="M99,23.2c.2-.3.7-.3.8.1s-.6,1.8-.6,2.3c-.1,1.7.6,4.2,2.6,4.3,2.8.2,3.4-3.4,2.9-5.5,0-.3-.7-1.5,0-1.5s1,1.7,1,2.2c.2,2.2-.5,5-2.8,5.6-2.5.7-4.2-1.9-4.3-4.2s.2-3,.6-3.5Z"/>
    <path class="st0" d="M108.3,30c.2.2,2.7,0,3.2,0s.4.1.4.3v.4c0,0-.4.1-.4.1l-4.6-.4c-.3-.4,1.4-2.3,1.7-2.7s2.2-3.2,2.2-3.6l-.2-.2h-3.2c-.3,0-.4-.4-.3-.7h4.6c.2,0,.2.2.1.4-1,1.5-1.8,3.1-2.8,4.6s-1.1,1.4-.9,1.7Z"/>
  </g>
  <g>
    <g>
      <path class="st0" d="M6.9,33.5v-1.4l-.5,1.2h-.3l-.5-1.2v1.4h-.4v-2h.5l.6,1.2.6-1.2h.5v2h-.4Z"/>
      <path class="st0" d="M9.1,31.8v.4h1v.4h-1v.4h1.1v.4h-1.6v-2h1.5v.4h-1.1Z"/>
      <path class="st0" d="M12.8,33.5l-1-1.3v1.3h-.4v-2h.4l1,1.3v-1.3h.4v2h-.4Z"/>
      <path class="st0" d="M15.4,31.4c.6,0,1.1.4,1.1,1s-.4,1-1.1,1h-.8v-2h.9ZM15,33.1h.4c.3,0,.6-.3.6-.6s-.3-.6-.6-.6h-.4v1.3Z"/>
      <path class="st0" d="M17.6,33.5v-2h.5v2h-.5Z"/>
      <path class="st0" d="M20.8,33.5v-.8h-.9v.8h-.5v-2h.5v.8h.9v-.8h.5v2h-.5Z"/>
      <path class="st0" d="M24.3,32.6c0,.5-.3.9-.9.9s-.9-.3-.9-.9v-1.2h.5v1.2c0,.3.2.5.5.5s.5-.2.5-.5v-1.2h.5v1.2Z"/>
      <path class="st0" d="M26,33.1l-.2.4h-.5l.9-2h.5l.9,2h-.5l-.2-.4h-.9ZM26.4,31.9l-.3.8h.6l-.3-.8Z"/>
      <path class="st0" d="M30.3,31.8l-.3.3c-.1-.2-.3-.3-.5-.3-.3,0-.6.3-.6.6s.3.6.6.6.4,0,.5-.2l.3.3c-.2.2-.5.4-.8.4-.6,0-1.1-.4-1.1-1s.5-1,1.1-1,.6.1.8.3Z"/>
      <path class="st0" d="M31.8,33.1l-.2.4h-.5l.9-2h.5l.9,2h-.5l-.2-.4h-.9ZM32.3,31.9l-.3.8h.6l-.3-.8Z"/>
      <path class="st0" d="M36,32.7v-.3h.7v.3h-.7Z"/>
      <path class="st0" d="M41.3,33.5v-1.4l-.5,1.2h-.3l-.5-1.2v1.4h-.4v-2h.5l.6,1.2.6-1.2h.5v2h-.4Z"/>
      <path class="st0" d="M43.4,33.1l-.2.4h-.5l.9-2h.5l.9,2h-.5l-.2-.4h-.9ZM43.9,31.9l-.3.8h.6l-.3-.8Z"/>
      <path class="st0" d="M47.8,32.5v.8c-.2.2-.5.3-.8.3-.6,0-1.1-.4-1.1-1s.5-1,1.1-1,.6.1.8.3l-.3.3c-.1-.1-.4-.2-.6-.2-.4,0-.6.3-.6.6s.3.6.6.6.3,0,.4-.1v-.5h.4Z"/>
      <path class="st0" d="M49.9,31.4c.6,0,1.1.4,1.1,1s-.4,1-1.1,1h-.8v-2h.9ZM49.5,33.1h.4c.3,0,.6-.3.6-.6s-.3-.6-.6-.6h-.4v1.3Z"/>
      <path class="st0" d="M52.5,33.1l-.2.4h-.5l.9-2h.5l.9,2h-.5l-.2-.4h-.9ZM52.9,31.9l-.3.8h.6l-.3-.8Z"/>
      <path class="st0" d="M56.4,33.1v.4h-1.3v-2h.5v1.6h.9Z"/>
      <path class="st0" d="M58,31.8v.4h1v.4h-1v.4h1.1v.4h-1.6v-2h1.5v.4h-1.1Z"/>
      <path class="st0" d="M61.8,33.5l-1-1.3v1.3h-.4v-2h.4l1,1.3v-1.3h.4v2h-.4Z"/>
      <path class="st0" d="M63.9,33.1l-.2.4h-.5l.9-2h.5l.9,2h-.5l-.2-.4h-.9ZM64.4,31.9l-.3.8h.6l-.3-.8Z"/>
    </g>
    <g>
      <path class="st0" d="M16.1,12.7h-3.6l.2-.7v-4.7l-.2-.7h2.2l-.3.8v3.7h.1c0,.1,1.2.1,1.2.1l.9-.3-.6,1.8Z"/>
      <path class="st0" d="M20,12.7v-.7c0,0,0-.5,0-.5h0c0,0-1.4,0-1.4,0h0c0,0-.1.6-.1.6v.7c0,0-1.9,0-1.9,0l.3-.7,1.2-4.8v-.6c-.1,0,2.8,0,2.8,0v.6c-.1,0,1.1,4.8,1.1,4.8l.3.7h-2.1ZM19.2,8.1v-.3s0,.3,0,.3l-.4,1.9h0c0,0,.8,0,.8,0h0c0,0-.4-2-.4-2Z"/>
      <path class="st0" d="M26.4,12.7h-3.9l.2-.7v-4.7l-.2-.7h3.9l1,1v1.2l-.7.7.7.7v1.5l-1,1ZM25.6,8.3v-.3c-.1,0-.4-.1-.4-.1h-.8v.9h0c0,0,.7,0,.7,0h.3c0-.1.1-.4.1-.4v-.2ZM25.7,10.6v-.3c-.1,0-.5-.2-.5-.2h-.8v1h.1c0,.1.7.1.7.1l.3-.2v-.3c.1,0,.1-.3.1-.3Z"/>
      <path class="st0" d="M32.3,12.7h-3.8l.2-.7v-4.7l-.2-.7h3.7l.5,1.7-.8-.3h-1.6v.7h0c0,0,.6,0,.6,0l.7-.2v1.8l-.7-.2h-.7v.9h.1c0,.1,1.5.1,1.5.1l.9-.3-.6,1.8Z"/>
      <path class="st0" d="M36.8,12.7l-.7-2h-.2c0,0-.5,0-.5,0h0v1.3l.2.7h-2.1l.2-.7v-4.7l-.2-.7h3.8l1.1,1.1v1.7l-.8.8.6,1.7.5.8h-2ZM36.7,8.5l-.2-.3-.3-.2h-.8v1.2h0c0,0,.7,0,.7,0l.3-.2.2-.3v-.2Z"/>
      <path class="st0" d="M39.5,12.7l.2-.7v-4.7l-.2-.7h2.1l-.2.7v4.7l.2.7h-2.1Z"/>
      <path class="st0" d="M47.7,7.3v5.4h-1.2l-1.9-3.2-.2-.4v.4s0,2.5,0,2.5l.2.7h-1.9l.2-.7v-4.7l-.3-.7h1.9l1.5,2.6.2.4v-.4s0-1.9,0-1.9l-.2-.7h1.9l-.2.7Z"/>
      <path class="st0" d="M52.5,8.1h-.8v3.7l.3.9h-2.3l.3-.9v-3.7h0c0,0-.7,0-.7,0l-.9.3.6-1.7h3.9l.6,1.7-.9-.3Z"/>
      <path class="st0" d="M57.6,12.7h-2.7l-1.1-1.1v-3.8l1.1-1.1h2.7l1.1,1.1v3.8l-1.1,1.1ZM57,8.5l-.2-.3-.3-.2h-.4l-.3.2-.2.3v2.3l.2.3.3.2h.4l.3-.2.2-.3v-2.3Z"/>
    </g>
    <g>
      <path class="st0" d="M7.7,27.3l.4-1.2v-5.3c0,0-.2.6-.2.6l-2.4,5.9h0l-2.4-5.9-.2-.6v.6c0,0,0,4.7,0,4.7l.4,1.2H0l.4-1.2v-8.1l-.4-1.2h3.8l1.7,4.2v.3c0,0,.2-.3.2-.3l1.7-4.2h3.8l-.4,1.2v8.1l.4,1.2h-3.5Z"/>
      <path class="st0" d="M18.3,27.3l.2-1.2-.2-.9-.2-.2h-2.5l-.2.2-.2.9.2,1.2h-3.5l.6-1.2,2.1-8.4-.2-1h5.1l-.2,1,2.1,8.4.6,1.2h-3.7ZM16.9,19.4v-.5c0,0-.2.5-.2.5l-.8,3.2.2.2h1.4l.2-.2-.8-3.2Z"/>
      <path class="st0" d="M28.9,27.3h-4.2l-2.1-2.1v-6.3l2.1-2.1h4.1l1,3.1-1.8-.6h-1l-.9.5-.4.8v3.2l.4.8.9.5h1.2l1.8-.6-1,3.1Z"/>
      <path class="st0" d="M37.6,27.3h-4.7l-2-2v-6.6l2-2h4.7l2,2v6.6l-2,2ZM36.6,20l-.3-.6-.6-.3h-.8l-.6.3-.3.6v3.9l.3.6.6.3h.8l.6-.3.3-.6v-3.9Z"/>
      <path class="st0" d="M50,17.9v9.3h-2l-3.3-5.6-.3-.8v.8c0,0,0,4.4,0,4.4l.4,1.2h-3.3l.4-1.2v-8.1l-.5-1.2h3.2l2.6,4.4.3.8v-.8c0,0,0-3.2,0-3.2l-.4-1.2h3.2l-.4,1.2Z"/>
      <path class="st0" d="M58.8,27.3h-6.5l.4-1.2v-8.1l-.4-1.2h6.5l2.1,2.1v6.3l-2.1,2.1ZM57.9,20.2l-.4-.8-.8-.4h-1l-.2.2v5.3l.2.2h.9l.8-.4.4-.8v-3.5Z"/>
      <path class="st0" d="M69.4,27.3h-4.7l-2-2v-6.6l2-2h4.7l2,2v6.6l-2,2ZM68.3,20l-.3-.6-.6-.3h-.8l-.6.3-.3.6v3.9l.3.6.6.3h.8l.6-.3.3-.6v-3.9Z"/>
    </g>
  </g>
  <g>
    <path class="st0" d="M271.3,32.9c-.4-.2-.7-.3-1-.4-2.6-1.3-5.1-2.7-7.7-4-.7-.3-1.4-.5-2.2-.5-2.9,0-5.8,0-8.8,0-.8,0-1-.3-1-1,0-6.2,0-12.4,0-18.6,0-.7.2-1.1,1-1,6.3,0,12.5,0,18.8,0,.7,0,1,.2,1,.9,0,8,0,16,0,24,0,.2,0,.4-.1.8ZM261.1,21.6c2.4,0,4.1-1.6,4.1-3.9,0-2.2-1.9-4-4-4.1-2.2,0-4.1,1.9-4.2,4.1,0,2.2,1.8,3.9,4.1,3.9ZM270.7,23c0-1.5-1.1-3-2.5-3.4-.9-.3-1.6,0-2.3.6-.6.6-.8,1.3-.4,2.1.3.6.7,1.2.9,1.9.1.3,0,.7,0,1.1-.4,0-.9,0-1.1-.3-.5-.6-.8-1.4-1.2-2.2-.4,0-.8,0-1.2,0,0,1.7,1.1,3.5,2.6,4,.9.3,1.7.1,2.4-.6.6-.7.7-1.4.4-2.2-.2-.5-.5-1-.8-1.5-.2-.5-.7-1,0-1.3.3-.1.8.4,1.2.7,0,0,.2.2.2.4.2,1.2.9,1.1,1.8.7ZM251.6,11.7c0,1.7,1.1,3.4,2.5,4,.9.3,1.7.2,2.4-.4.7-.7.9-1.5.5-2.4-.2-.5-.6-1-.8-1.5-.1-.4,0-.9,0-1.3.4.2.9.4,1.3.7.1,0,.2.3.2.4q.5,1.2,1.9.6c-.3-1.5-1-2.7-2.5-3.3-.9-.4-1.6,0-2.3.6-.6.6-.8,1.4-.5,2.2.3.6.6,1.1.9,1.7.1.4,0,.8,0,1.2-.4-.2-1-.2-1.2-.5-.4-.6-.7-1.3-1-2-.4,0-.8,0-1.3,0ZM266.3,14.7c0,1.3,0,1.5,1,1.2,1.3-.3,2.3-1.1,2.9-2.3.5-.9.3-1.8-.4-2.6-.7-.7-1.5-.9-2.4-.5-.5.2-1,.6-1.5.8-.4.1-.9,0-1.3,0,.2-.4.4-.8.6-1.2,0-.1.3-.2.4-.2q1.3-.6.7-1.9c-1.4.2-2.5.9-3.2,2.2-.5.9-.4,1.8.3,2.6.7.7,1.5.9,2.5.5.6-.3,1.2-.7,1.8-.9.3-.1.6,0,1,0,0,.3,0,.8-.2,1-.7.5-1.4.8-2.2,1.3ZM255.1,19.4c-1.6.1-3.1,1.2-3.4,2.6-.2.9,0,1.6.7,2.2.6.5,1.3.8,2,.4.6-.3,1.2-.7,1.9-.9.3-.1.8,0,1.2,0-.1.4-.1,1-.4,1.2-.6.4-1.3.7-2,1.1,0,1.5.2,1.8,1.5,1.1.9-.5,1.7-1.2,2.4-2,.6-.8.4-1.8-.3-2.6-.7-.8-1.5-.9-2.5-.5-.4.2-.8.5-1.3.6-.5.1-1.4.3-1.5.1-.4-.8.4-1.1.9-1.4,0,0,.1,0,.2,0q1.2-.5.7-1.8Z"/>
    <path class="st0" d="M292.6,19.2c1.5-.4,2.4,0,3,1.3.3.7.8,1.4,1.3,2.2.5-.8,1.1-1.5,1.4-2.2.6-1.5,1.7-1.6,3-1.3v8.7h-1.9v-5.2c0,0-.1,0-.2,0-.7,1.1-1.5,2.2-2.3,3.4-.8-1.2-1.5-2.2-2.4-3.5v5.4h-2v-8.6Z"/>
    <path class="st0" d="M286.5,13.5v2.6h-1.9V7.2c1.8.1,3.7.1,5.5.4,1,.1,1.6,1,1.8,2,.2,1.1,0,2.1-.9,2.8-.2.2-.5.4-.9.6.7,1,1.3,1.9,2,2.9-1.9.4-2.1.3-3.2-1.2-.5-.8-.9-1.9-2.4-1.3ZM286.6,11.5c.8,0,1.6.1,2.3,0,.4-.1.9-.7,1-1.1,0-.3-.5-1-.9-1.1-.7-.2-1.6-.1-2.4-.2v2.5Z"/>
    <path class="st0" d="M315.4,25.2v2.6h-1.9v-8.7c1.6,0,3.1,0,4.7,0,1.3,0,2.3.9,2.6,2,.3,1.3-.1,2.5-1.2,3.3-.2.1-.3.2-.6.4.7,1,1.3,1.9,2,2.9-1.5.5-2.2.3-2.9-.9-.2-.3-.4-.5-.5-.8-.4-.9-1.1-1.2-2.2-.8ZM315.5,23.3c.8,0,1.5,0,2.2,0,.7,0,1.1-.4,1.2-1.1,0-.7-.4-1.2-1-1.2-.7,0-1.5,0-2.3,0v2.4Z"/>
    <path class="st0" d="M335.8,23.5c0,2.6-2,4.6-4.7,4.5-2.7,0-4.7-2-4.6-4.5,0-2.6,2-4.6,4.7-4.6,2.7,0,4.7,1.9,4.7,4.6ZM333.7,23.5c0-1.5-1.2-2.7-2.6-2.7-1.5,0-2.6,1.2-2.6,2.8,0,1.5,1.2,2.7,2.6,2.7,1.5,0,2.6-1.2,2.6-2.7Z"/>
    <path class="st0" d="M303.7,14.4h4.8v1.7h-6.7V7.3h6.6v1.7h-4.6v1.8h4v1.7h-4.1c0,.6,0,1.1-.1,1.9Z"/>
    <path class="st0" d="M291.3,27.9c-.5,0-.7,0-1,0-.9.2-1.3-.2-1.5-1-.2-.8-.6-1.1-1.4-1-.3,0-.6,0-.9,0-1.2-.2-2,.1-2.4,1.4-.3,1.1-1.4.3-2.2.6,1-2.3,1.8-4.3,2.7-6.4.2-.5.4-1,.6-1.5.2-.7.5-1.1,1.4-1.1.9,0,1.1.5,1.4,1.1,1.1,2.5,2.2,5.1,3.3,7.8ZM285.5,24.1h2.2c-.4-.9-.7-1.6-1.1-2.6-.4,1-.7,1.8-1.1,2.6Z"/>
    <path class="st0" d="M312.1,27.8q-1.9.2-2.9-1.9c-1,0-2,0-3.1,0-.3,0-.7.4-.8.7-.7,1.5-.7,1.5-2.5,1.2.6-1.5,1.2-2.9,1.8-4.3.6-1.3,1.1-2.7,1.7-3.9.1-.2.5-.5.8-.5.4,0,1.2,0,1.3.4,1.3,2.8,2.4,5.6,3.7,8.4ZM307.4,21.4c-.4,1-.7,1.8-1.1,2.7h2.2c-.4-.9-.7-1.7-1.1-2.7Z"/>
    <path class="st0" d="M273.9,16c1.2-2.9,2.4-5.7,3.6-8.5.2-.5,1.9-.5,2.1,0,1.2,2.8,2.4,5.6,3.6,8.4-1.8.4-1.9.3-2.6-1.2,0,0,0-.3-.1-.3-1.1-.1-2.1-.3-3.2-.3-.3,0-.7.3-.9.6-.7,1.4-.7,1.4-2.6,1.3ZM277.4,12.4h2.2c-.4-.9-.7-1.7-1.1-2.7-.4,1-.7,1.8-1.1,2.7Z"/>
    <path class="st0" d="M279.8,21.4c-.9-.3-1.6-.6-2.4-.7-.3,0-.7.4-1.1.6.3.3.5.7.8.9.8.3,1.6.5,2.4.8,1.1.5,1.6,1.3,1.5,2.3,0,1.1-.6,2-1.7,2.3-1.9.6-3.7.1-5.3-1.1.4-.5.8-.9,1.1-1.3.7.3,1.4.6,2.1.9.3.1.7.1,1,0,.3-.1.6-.4.9-.7-.2-.3-.4-.7-.7-.8-.6-.3-1.2-.4-1.8-.6-1.7-.5-2.3-1.3-2.1-2.9.1-1.2,1-2.1,2.6-2.3,1.4-.2,2.6.2,3.8,1.1-.3.5-.6.9-.9,1.3Z"/>
    <path class="st0" d="M295.7,9.1h-2.6v-1.8h7.2v1.8h-2.6v6.9h-2v-6.9Z"/>
    <path class="st0" d="M324.6,27.9h-1.9v-8.7h1.9v8.7Z"/>
    <path class="st0" d="M263.3,17.7c0,1.2-1,2.1-2.2,2.1-1.2,0-2.2-1-2.2-2.3,0-1.1,1.1-2.2,2.2-2.3,1.1,0,2.2,1.2,2.2,2.4Z"/>
  </g>
  <g>
    <path class="st0" d="M140.3,6.1l3.2,5.3v-5.3h1.9v8.2h-2.3l-3.2-5.3c-.2,0-.1,0-.1.2,0,.5,0,1,0,1.5,0,1.2,0,2.4,0,3.6h-1.9V6.1h2.3Z"/>
    <path class="st0" d="M157.6,9.2c2.2-1.8,4.8,0,4.6,2.7-.2,2.5-2.9,3.9-4.8,2,0,.2,0,.6-.1.7h-1.7V6.3h.1c0-.1,1.8-.1,1.8-.1h.1v3.1ZM158,12.7c.1,0,.5.3.6.3,2,.4,2.3-2.6.7-2.9-1.5-.3-2.3,1.7-1.3,2.6Z"/>
    <polygon class="st0" points="154.9 7.8 151.4 7.8 151.3 8 151.3 9.4 154.3 9.4 154.4 9.5 154.4 11 151.4 11 151.3 11.1 151.3 12.6 151.4 12.7 154.9 12.7 154.9 14.4 149.3 14.4 149.3 6.3 149.5 6.1 154.7 6.1 154.9 6.3 154.9 7.8"/>
    <rect class="st0" x="146.4" y="8.6" width="1.9" height="7.9"/>
    <path class="st0" d="M146.5,6.2c.8-1,2.6,0,1.8,1.3-.8,1.3-2.7-.2-1.8-1.3Z"/>
    <polygon class="st0" points="164.7 6.1 164.7 12.5 169.9 12.5 169.9 14.3 162.9 14.3 162.8 14.2 162.8 6.3 162.9 6.1 164.7 6.1"/>
    <path class="st0" d="M173.2,14.1h-1.9v-3.5h-2.1l-1,1.3h-2.1l4.4-6.6h2.7v8.7ZM171.4,9.2v-1.6c-.3.3-1.1,1.3-1.1,1.6s0,.1.1.1c.3,0,.6,0,.9,0h.1Z"/>
    <path class="st0" d="M137.9,23.2v-5.4h4.9c1.1,0,2.5,1,2.7,2.2.6,4.3-5,3.1-7.6,3.3ZM138.7,22.4h3.8c.2,0,.8-.2,1-.3,1.8-.7,1.5-3-.2-3.4s-.9-.2-1-.2h-3.5v3.9Z"/>
    <path class="st0" d="M152.9,17.8v.7h-5.7v1.5h3.5c.2.2,0,.5.1.7h-3.6v1.7h5.6c.2.2,0,.5.1.8h-6.6v-5.4h6.5Z"/>
    <polygon class="st0" points="165 17.5 165 25.3 162.9 25.3 162.9 20.1 160.7 25.2 159.2 25.3 157 20.2 157 32.6 155.1 32.6 154.9 32.5 154.9 17.5 158 17.5 160 21.8 161.9 17.5 165 17.5"/>
    <path class="st0" d="M170.1,17.5c2.1.2,2.6,1.6,2.6,3.5,0,1.3-.5,2.5-1.8,2.9l2.2,8.7h-2.1l-2.1-8.5h-.7s0,8.5,0,8.5h-2.1v-15.1c1.3.1,2.8-.1,4.1,0ZM168.1,22.1h1.3c.4,0,1.1-.3,1.2-.7s0-1.8-.2-2.1-.6-.3-.6-.3h-1.6v3.1Z"/>
    <path class="st0" d="M165.1,32.6h-1.7l-.2-.5c-1.3,1.3-4.2.4-3.6-1.7.4-1.4,2.5-1.4,3.6-1.5-.2-1.3-1.7-.9-2.5-.3-.2-.2-1-.8-.9-1.1s.6-.4.7-.5c1.3-.7,3.6-.7,4.2.8s.3.8.3.9v3.8ZM163.3,30.1c-.5,0-1.7,0-1.9.6-.3.9,1.2.9,1.7.5s.3-.7.2-1Z"/>
    <path class="st0" d="M147,31.2l.4,1,.4-1h.2s.2,1.2.2,1.2l.5-1.2c0,0,.2,0,.2,0,.2,0,.5,1.1.6,1.4-.3,0-.2-.3-.3-.4s-.6,0-.7,0-.1.2-.2.3c-.4.5-.4-.8-.4-1l-.5,1-.5-1.1c0,0-.2.8-.2.9s0,.2-.2.2l.2-1.4h.2ZM149.1,32.1c0-.1-.2-.8-.3-.7l-.2.7h.6Z"/>
    <path class="st0" d="M150.6,24.8c.5,0,1.3,0,1,.6s-.3.1-.3.3l.4.3.5-1.2h.2s.6,1.3.6,1.3c-.2.2-.2-.3-.3-.4-.2,0-.7,0-.8,0s0,.4-.4.3-.2-.5-.7-.6,0,.6-.3.6v-1.4ZM150.7,25.5c.3,0,.9,0,.7-.5l-.7-.2v.6ZM152.6,25.6c0,0-.2-.6-.3-.6l-.3.6h.6Z"/>
    <path class="st0" d="M147.8,29.2h-.8c0,0,0,.3,0,.3.2.1.5.1.7.3s0,.3.2.4c0-.2.4-1.2.6-1.1s.6,1.2.6,1.4l-.3-.3h-.7s-.1.3-.1.3c-.2,0-.2,0-.2-.2-.3.3-.9.4-1.1,0,0,0,.9.3,1-.1s-.7-.3-.8-.5c-.4-.5.6-.9.9-.5ZM148.9,29.9c0,0-.3-.8-.4-.7l-.2.7h.6Z"/>
    <path class="st0" d="M148.5,28.1c.2,0,.1,0,.2-.1.2-.3.2-.9.5-1.1,0,.2-.5,1.4-.6,1.5-.2,0-.6-1-.7-1.2h-.9s0,.4,0,.4l.7.2h-.7s0,.5,0,.5c0,0,1.1,0,.8.2h-.9s0-1.4,0-1.4h1.1s.5,1.1.5,1.1Z"/>
    <path class="st0" d="M150.5,28.4v-1.5c1.6-.2,1.6,1.6,0,1.5ZM150.6,28.2c1.2.1,1.2-1.3,0-1.1v1.1Z"/>
    <path class="st0" d="M145.4,27h.2c0-.1.8.9.8.9,0-.3-.2-.9.2-1.1v1.5c-.4-.3-.6-.7-.9-1s0-.2-.2-.1v1.1c0,0-.2-.1-.2-.1v-1.2Z"/>
    <path class="st0" d="M149.3,29.1h.2c0,0,.8.9.8.9,0-.3-.2-.9.2-1.1v1.4c-.5-.2-.6-.9-1.1-1.1v1.2c0,0-.2-.1-.2-.1v-1.2Z"/>
    <path class="st0" d="M143.9,30.5v-1.5c1.6-.2,1.6,1.6,0,1.5ZM144.1,29.2v1.1c1.2.1,1.2-1.3,0-1.1Z"/>
    <path class="st0" d="M149.6,31.2c.7-.2,1.5.3.7.9l.3.5c-.4,0-.4-.5-.8-.5s0,.6-.3.5v-1.4ZM150.4,31.4h-.6s0,.6,0,.6c.2,0,.7,0,.7-.3s0-.3,0-.3Z"/>
    <path class="st0" d="M149.3,24.8c.8-.2,1.6.3.7.8l.4.5c-.2.2-.5-.6-.8-.6s0,.6-.4.6v-1.4ZM150.1,25h-.7c0,0,0,.5,0,.5.1.2.5,0,.7,0v-.5Z"/>
    <path class="st0" d="M153,30.4l-.3-.3h-.8s-.3.3-.3.3l.6-1.4c0,0,.2,0,.2,0s.5,1.1.6,1.3ZM152.6,29.9c0,0-.2-.8-.3-.7l-.2.7h.6Z"/>
    <path class="st0" d="M152.4,26.9l.6,1.5-.4-.4h-.8s-.1.4-.1.4c-.2-.1,0-.1,0-.3s.5-1.3.7-1.2ZM152.6,27.8c0,0,0-.2,0-.2s-.2-.4-.3-.5l-.2.7h.6Z"/>
    <path class="st0" d="M150.3,28.4l-.4-.4h-.7s-.3.4-.3.4c0-.2.5-1.4.6-1.5.2,0,.7,1.2.7,1.5ZM149.8,27.2c-.1-.1-.4.5-.4.6h.6l-.2-.6Z"/>
    <path class="st0" d="M145.3,29h1c.3.2-.8.1-.8.2v.4c0,0,.7,0,.7,0h-.7s0,.6,0,.6c.2,0,.4,0,.5,0s.3,0,.3.1-.9.1-1,0v-1.3Z"/>
    <path class="st0" d="M148.1,24.8h1s-.8.1-.8.1v.4s.7,0,.7,0c0,.3-.7,0-.7.1v.5s1.1,0,.8.2h-1s0-1.4,0-1.4Z"/>
    <path class="st0" d="M147.5,24.8s0,.2-.1.1c-.2,0-.4-.1-.7,0-.3.6.8.3.8.8,0,.7-1.3.5-1.1.2.2.1.9.2.9-.1s-.9-.2-.9-.6.8-.6,1-.4Z"/>
    <path class="st0" d="M153,32.6c-.3,0-.2-.3-.3-.4s-.6,0-.7,0,0,.4-.3.4l.6-1.4c.3-.2.7,1.1.8,1.4ZM152.6,32.1c0,0-.2-.7-.3-.7l-.3.7h.6Z"/>
    <polygon class="st0" points="151.9 29 151.9 29.2 151.3 29.2 151.3 30.4 151.1 30.4 151.1 29.2 150.6 29.2 150.6 29 151.9 29"/>
    <polygon class="st0" points="151.9 31.2 151.9 31.4 151.3 31.4 151.3 32.6 151.1 32.6 151.1 31.4 150.6 31.4 150.6 31.2 151.9 31.2"/>
    <rect class="st0" x="147.7" y="24.8" width=".2" height="1.4"/>
  </g>
</svg>