<?xml version="1.0" encoding="UTF-8"?>
<svg id="Layer_1" xmlns="http://www.w3.org/2000/svg" version="1.1" viewBox="0 0 336 38.508">
  <!-- Generator: Adobe Illustrator 29.0.0, SVG Export Plug-In . SVG Version: 2.1.0 Build 186)  -->
  <defs>
    <style>
      .st0 {
        fill: #0000fd;
      }

      .st1 {
        fill: #fafafa;
      }
    </style>
  </defs>
  <rect class="st1" x="-26.938" y="-318.462" width="390" height="844"/>
  <g>
    <g>
      <path class="st0" d="M11.017,33.029c0,1.018-.826,1.844-1.844,1.844s-1.844-.826-1.844-1.844.826-1.844,1.844-1.844,1.844.826,1.844,1.844ZM10.483,33.029c0-.723-.586-1.31-1.31-1.31s-1.31.586-1.31,1.31.586,1.31,1.31,1.31,1.31-.586,1.31-1.31Z"/>
      <path class="st0" d="M17.97,34.922h1.213c1.9,0,2.306,2.969.444,3.484-.383.106-.582.068-.949.062-.196-.003-.517.034-.689.002-.041-.008-.073-.013-.086-.06l.068-3.487ZM18.495,37.963c.105.033.635,0,.796,0,.072,0,.385-.139.464-.187.723-.441.72-1.711-.023-2.136-.364-.208-.593-.159-.984-.174-.087-.003-.22-.097-.236.017-.091.673-.013,1.418-.034,2.102-.003.083-.096.344.017.379Z"/>
      <path class="st0" d="M17.03,34.742c.032-.031.539.093.543.129l-.834,3.49-.109-.017c-.572-.95-1.101-1.936-1.628-2.914l-.58,2.315c-.032.031-.494-.063-.527-.106l.818-3.512.109.017,1.646,2.914.562-2.315Z"/>
      <g>
        <path class="st0" d="M31.224,33.599c0,1.019-.826,1.844-1.844,1.844s-1.844-.826-1.844-1.844.826-1.844,1.844-1.844,1.844.826,1.844,1.844ZM30.687,33.598c0-.723-.586-1.309-1.309-1.309s-1.309.586-1.309,1.309.586,1.309,1.309,1.309,1.309-.586,1.309-1.309Z"/>
        <path class="st0" d="M34.621,31.158l-3.439.073,1.793,1.593v.107s-.325.325-.325.325l-2.698-2.406c.053-.065.118-.082.198-.091.634-.073,1.565-.018,2.243-.037.332-.009.665.01.997.001l-1.81-1.611c.216-.237.219-.515.543-.253.84.68,1.611,1.497,2.463,2.17l.034.129Z"/>
      </g>
      <path class="st0" d="M22.27,34.677l2.215,3.249c-.108-.004-.474.122-.545.09-.066-.03-.313-.48-.349-.489-.201.01-.398.054-.596.085-.154.024-1.132.177-1.18.213-.06.045-.087.491-.17.572-.048.047-.538.128-.561.108l1.009-3.815.178-.013ZM23.291,37.094l-.941-1.375-.398,1.592,1.339-.217Z"/>
      <path class="st0" d="M13.847,33.839c.048-.034.498.2.5.232l-.967,1.998c-.845,1.553-3.104.577-2.475-1.135l.984-2.022c.059-.037.453.135.468.189.03.104-.804,1.677-.908,1.942-.393.996.533,1.679,1.309.983.42-.694.738-1.454,1.09-2.187Z"/>
      <g>
        <path class="st0" d="M36.214,19.431l2.373-.038c.014.102.061.47-.044.504l-3.489.097-.03-.104c.755-.792,1.601-1.502,2.348-2.304l-2.33.067c-.105-.035-.058-.402-.043-.504l3.551-.108-.018.13c-.77.755-1.575,1.479-2.318,2.26Z"/>
        <path class="st0" d="M37.845,16.062l-.329-1.554-.904.182.274,1.376c-.103.025-.448.157-.511.071l-.271-1.304c-.035-.036-.95.185-.993.213-.075.05.317,1.396.305,1.596l-.505.07-.433-2.056,3.376-.761.491,2.01c.006.11-.477.178-.503.157Z"/>
      </g>
      <path class="st0" d="M4.432,23.919c-.038-.009-.098.003-.152-.009-1.214-.274-2.431-.583-3.632-.894l-.018-.123,3.187-2.268c-.012.16.119.405.067.555-.022.064-.382.259-.46.32l.327,1.706c.061.117.501.1.59.206.048.058.106.423.091.506.023.006.051,0,.072.018l.791,1.928-.01.082-3.242,1.302c-.002-.101-.216-.427-.147-.488l2.753-1.105-.61-1.509c-.007-.119.35-.131.393-.228ZM3.238,23.123l-.271-1.302-1.285.905c.005.053.053.057.092.071.435.153,1.013.192,1.464.327Z"/>
      <path class="st0" d="M6.35,30.507l-1.212.934c-.027,0-.359-.353-.29-.427l2.749-2.208c.136.241,1.325,1.548,1.325,1.684,0,.046-.313.296-.352.302-.105.016-.872-1.044-1.004-1.192-.02-.021-.045-.035-.075-.035-.065,0-.637.518-.739.604l.864,1.085c.01.053-.363.345-.409.336l-.856-1.083Z"/>
      <g>
        <path class="st0" d="M34.988,23.407c-.015-.01-.15-.279-.168-.321-.659-1.596,1.121-3.098,2.589-2.227.932.553,1.18,1.841.468,2.679-.066.078-.306.331-.408.305-.04-.01-.319-.294-.312-.335.621-.454.828-1.221.338-1.866-1.027-1.351-3.042.216-2.006,1.569-.086.075-.406.256-.501.196Z"/>
        <path class="st0" d="M37.806,24.535l-.181.524-1.665.345c-.016.055.018.061.036.09.268.431.683.845.957,1.284.015.051-.177.543-.215.543l-1.411-1.846-1.397-.564c.015-.084.13-.466.2-.476l1.376.517,2.299-.416Z"/>
      </g>
      <path class="st0" d="M24.992,34.488l.972,2.814c.06.137-.476.244-.499.224l-.961-2.785-.042-.033c-.11-.037-.755.289-.932.29-.027-.006-.224-.482-.106-.503l2.281-.797c.099-.006.226.444.213.466-.042.07-.792.275-.926.325Z"/>
      <rect class="st0" x="26.771" y="33.189" width=".552" height="3.586" transform="translate(-12.649 15.501) rotate(-26.151)"/>
      <g>
        <g>
          <path class="st0" d="M29.119,5.062l.053,1.701c-.12-.088-.465-.229-.508-.36-.068-.278.009-1.448-.125-1.613-.026-.032-.407-.251-.431-.233l-.658,1.082c-.036.025-.429-.214-.431-.305l1.868-2.912c.738.459,1.667.816,1.446,1.882-.103.498-.725.888-1.214.758ZM29.015,3.148c-.055.032-.503.879-.613.991.307.272.882.632,1.257.286.323-.299.182-.745-.123-.992-.065-.053-.471-.314-.52-.285Z"/>
          <path class="st0" d="M31.678,4.378c.036-.01.052-.001.082.013.022.01.309.277.363.326.386.351.776.725,1.119,1.118-.082.073-.267.336-.37.309-.27-.155-.885-.952-1.113-1.029-.081-.027-.141.068-.198.128-.06.063-.455.486-.449.52l.941.871c.123.104-.263.435-.339.415l-.98-.898-.71.739,1.155,1.091-.341.374-1.536-1.461,2.376-2.516Z"/>
        </g>
        <g>
          <path class="st0" d="M31.513,8.108c.079-.05.389.066.487.102-.03.177-.073.301-.057.49.07.812,1.285,1.283,1.184.264-.058-.58-.573-1.325-.058-1.852.611-.626,1.725-.002,1.806.793.013.132-.01.71-.191.7-.051-.003-.373-.122-.385-.162-.012-.038.087-.302.067-.463-.078-.614-1.065-.889-1.01-.149.048.651.76,1.717-.204,2.149-1.014.455-2.114-.93-1.637-1.872Z"/>
          <g>
            <path class="st0" d="M33.323,11.69l3.195-1.342c.546,1.02,1.05,2.282-.14,3.075-1.181.788-2.18.29-2.74-.881-.055-.115-.355-.789-.315-.852ZM36.284,11.035l-2.315.94c.283.921.974,1.647,1.979,1.092.849-.469.689-1.286.335-2.032Z"/>
            <rect class="st0" x="32.574" y="9.856" width="3.542" height=".54" transform="translate(-.304 19.158) rotate(-31.038)"/>
          </g>
        </g>
      </g>
      <g>
        <g>
          <path class="st0" d="M14.788,2.894l.286,1.299-.454.101-.034-.026-.851-3.403c.686-.081,1.278-.502,1.952-.125.695.389.749,1.305.148,1.807l1.266,1.085c-.013.056-.498.157-.589.158l-1.186-.989c-.166-.068-.369.067-.539.092ZM14.643,2.417c.518-.008,1.301-.318,1.018-.963-.234-.534-.884-.306-1.31-.192l.292,1.155Z"/>
          <path class="st0" d="M11.346,5.714c-.085-1.06-.012-2.138-.035-3.205-.003-.145-.143-.743.089-.742l2.985,2.517c0,.031-.449.235-.489.235-.095-.002-.357-.37-.502-.362-.187.115-1.501.646-1.536.748-.047.137.043.483-.023.592-.014.023-.469.234-.489.217ZM11.817,2.746v1.629c.118-.112,1.195-.495,1.195-.561,0-.091-1.061-.925-1.195-1.067Z"/>
        </g>
        <path class="st0" d="M23.394,1.076c-.008.013-.252.123-.283.133-.203.061-.127-.029-.204-.16-.335-.569-1.316-.385-1.164.186.064.24.86.594,1.094.788,1.19.981-.193,2.209-1.428,1.609-.217-.105-.71-.529-.655-.791.005-.021.368-.198.39-.2.057-.005.221.309.32.393.284.242.928.34,1.191.034.456-.53-.721-.973-1.026-1.213-1.187-.933.298-2.228,1.399-1.435.137.099.474.484.366.655Z"/>
        <path class="st0" d="M26.658,1.334c.018.02-.125.496-.166.504-.145-.021-.849-.328-.922-.273l-.904,2.807c-.031.027-.464-.105-.49-.142-.086-.122.84-2.497.891-2.84l-.902-.314c-.039-.055.103-.408.14-.488l2.354.745Z"/>
        <path class="st0" d="M19.16,0c.071.157.033.335.042.502l-.941.072.218,3.004-.507.036-.253-3.004c-.323.031-.648.087-.973.069-.05-.163-.043-.334-.04-.503l2.456-.176Z"/>
        <rect class="st0" x="18.348" y="1.505" width="3.529" height=".561" transform="translate(17.65 21.826) rotate(-88.068)"/>
      </g>
      <circle class="st0" cx="4.647" cy="28.247" r=".695"/>
      <circle class="st0" cx="34.613" cy="28.247" r=".693"/>
      <g>
        <path class="st0" d="M33.015,18.85c0,7.473-6.059,13.532-13.533,13.532s-13.533-6.058-13.533-13.532,6.059-13.532,13.533-13.532,13.533,6.058,13.533,13.532ZM31.88,18.85c0-6.847-5.551-12.398-12.399-12.398s-12.399,5.551-12.399,12.398,5.551,12.398,12.399,12.398,12.399-5.551,12.399-12.398Z"/>
        <path class="st0" d="M19.299,10.028c.206-.061.69-.038.791.207l6.73,14.843c.228.525-.03.726-.541.761h-13.577c-.726-.151-.396-.663-.204-1.112,2.06-4.805,4.412-9.493,6.479-14.297.038-.109.216-.371.321-.403ZM19.63,13.284l-.143.017-2.244,5.063.007.049,2.297,1.235c.773-.352,1.48-.845,2.235-1.236l.091-.089-2.244-5.038ZM22.603,19.902c-.066-.004-.115.039-.168.067-.79.41-1.647,1.052-2.436,1.401-.261.115-.524.129-.794.031l-2.576-1.442-.105-.018-1.92,4.342,9.918-.036-1.919-4.343Z"/>
      </g>
      <g>
        <path class="st0" d="M2.042,12.483l-.454,1.556.855.273c.076-.059.332-1.082.425-1.278.022-.046-.016-.049.055-.04.03.004.385.123.402.135.029.02.023.026.025.058.013.198-.428,1.234-.387,1.287l.945.319.506-1.479c.073-.093.367.091.488.074l-.615,2.062-3.35-1.084.602-1.99c.178-.028.329.095.503.107Z"/>
        <path class="st0" d="M2.832,16.799c1.171-.111,1.42,1.657.623,2.325-.374.313-.397.177-.612-.187.094-.129.264-.184.374-.34.5-.709-.156-1.848-.747-.928-.266.414-.451,1.244-1.028,1.325-.952.133-1.367-.893-1.01-1.662.082-.177.44-.559.644-.502.069.019.253.353.227.394-.028.044-.18.082-.236.127-.461.369-.182,1.335.345,1.105.453-.197.503-1.571,1.419-1.658Z"/>
        <rect class="st0" x="2.127" y="14.166" width=".535" height="3.537" transform="translate(-13.706 15.295) rotate(-79.178)"/>
        <g>
          <path class="st0" d="M4.577,10.926l1.701-.253c.023.021-.232.53-.29.56l-1.536.238c-.101.006-.299.462-.271.502l1.117.549c.028.039-.176.465-.202.471-.181.039-2.733-1.443-3.129-1.581-.012-.075.544-1.102.636-1.209.695-.818,2.06-.403,1.973.724ZM3.337,10.319c-.376.079-.506.557-.674.843l1.061.558c.033-.008.305-.512.323-.583.122-.5-.17-.93-.709-.817Z"/>
          <path class="st0" d="M5.704,9.401l1.008.73c.027.04-.28.441-.338.43l-2.684-2.06c-.043-.03-.064-.066-.05-.12.014-.051.57-.755.648-.839.839-.905,2.235-.362,1.99.886l1.556.036-1.109-3.602.059-.073,3.583,1.558c.012.056-.334.363-.386.373-.064.013-.497-.256-.556-.23-.375.358-.807.669-1.177,1.031-.044.043-.121.098-.124.162-.006.113.199.463.16.564-.015.038-.227.182-.289.251-.073.082-.29.427-.343.453-.09.044-.899.023-1.07.019-.167-.004-.4-.083-.571-.031-.059.018-.344.399-.309.459ZM8.957,6.257l-1.484-.652.471,1.556,1.013-.904ZM5.183,7.605c-.389.024-.63.436-.821.729.121.093.847.711.92.711.075,0,.406-.445.447-.532.199-.421-.051-.938-.546-.908Z"/>
        </g>
      </g>
    </g>
    <g>
      <circle class="st0" cx="169.074" cy="25.308" r=".193"/>
      <path class="st0" d="M179.439,15.892h-1.248l2.151,4.429,1.024-2.31c.383-.965-.042-2.231-1.238-2.119-.003-.028.057-.086.065-.086h3.249c.021.133-.036.067-.105.086-.779.213-1.201.888-1.607,1.535l-2.676,5.839c-.183.014-.753.085-.856-.048l-3.533-7.327h-.602c-.003-.028.057-.086.065-.086h5.25c.007,0,.068.058.065.086Z"/>
      <g>
        <path class="st0" d="M164.422,13.441v.086h-1.42l2.624,6.105,1.304-3.406c.322-.895.005-2.557-1.109-2.7-.114-.015-.439.071-.409-.086h3.916c.033.141-.183.072-.302.106-.695.197-1.537,1.627-1.826,2.26l-2.991,7.502-1.081-.006-4.212-9.777h-.667c-.007,0-.068-.058-.065-.086h6.239Z"/>
        <g>
          <path class="st0" d="M173.372,15.548v7.61h.99c.003.028-.057.086-.065.086h-4.97v-.086h.947v-7.267h-.947l.064-.086c1.33-.025,2.689.108,3.981-.258Z"/>
          <path class="st0" d="M170.274,15.074c.082-.124.259-.155.365-.258.634-.608.958-3.031,2.229-2.57.394.143.538.607.493.99-.155,1.318-1.965,1.836-3.087,1.838Z"/>
        </g>
      </g>
      <path class="st0" d="M196.134,12.194v10.964h.947v.086h-4.97c-.008,0-.068-.058-.065-.086h.99v-9.631h-.925c-.007,0-.068-.058-.065-.086,1.172.045,2.363-.135,3.385-.724l.703-.523Z"/>
      <path class="st0" d="M201.117,15.561c2.926-.257,5.051,1.602,4.698,4.609-.31,2.643-2.621,3.615-5.05,3.284-4.58-.624-4.427-7.473.351-7.893ZM201.972,15.734c-.615-.595-.941.762-1.006,1.137-.231,1.333-.277,4.651.129,5.909.283.878.854.879,1.137,0,.407-1.262.329-4.174.184-5.534-.039-.37-.18-1.256-.444-1.512Z"/>
      <path class="st0" d="M186.96,15.561c3.279-.29,5.445,2.099,4.566,5.337-.957,3.528-7.172,3.559-8.065-.147-.628-2.604.751-4.947,3.499-5.19ZM187.513,15.603c-.278.016-.453.395-.535.621-.436,1.203-.358,4.173-.225,5.494.037.369.2,1.555.6,1.679.297.092.46-.021.597-.268.555-.999.453-4.833.303-6.049-.047-.382-.21-1.507-.741-1.477Z"/>
      <path class="st0" d="M182.752,25.846l.258-.065.021.215c.375-.308.766-.287,1.113.04.253-.298.746-.371,1.04-.085.06.059.192.256.192.324v1.096h-.301v-1.053c0-.021-.118-.209-.155-.232-.148-.095-.448-.055-.575.063-.026.024-.131.2-.131.213v1.01h-.301v-1.053c0-.182-.285-.293-.451-.282-.15.01-.409.178-.409.325v1.01h-.301v-1.526Z"/>
      <path class="st0" d="M186.194,25.179v.817c.701-.602,1.649.12,1.256.976-.211.459-.92.556-1.256.185v.215s-.302,0-.302,0v-2.193h.301ZM186.57,26.049c-.576.118-.49,1.148.186,1.089.719-.063.616-1.252-.186-1.089Z"/>
      <path class="st0" d="M163.389,25.781h.258s0,.215,0,.215c.159-.053.233-.173.419-.204.562-.094.995.304.958.87-.045.674-.866.965-1.334.495v.774h-.301v-2.15ZM164.066,26.049c-.584.106-.496,1.148.186,1.088.694-.061.639-1.239-.186-1.088Z"/>
      <path class="st0" d="M162.829,25.695c-.279-.276-1.319-.249-1.054.301.14.29,1.205.112,1.228.797.02.579-.713.634-1.132.569-.247-.038-.626-.185-.355-.462.233.314,1.349.369,1.165-.175-.113-.336-1.11-.187-1.219-.717-.164-.797.931-.895,1.435-.572l-.068.26Z"/>
      <path class="st0" d="M176.227,25.581c.413-.412,1.181-.432,1.6-.016l-.173.208c-.449-.453-1.316-.255-1.4.415-.105.836.781,1.206,1.393.714l.153.153c-.215.408-.969.388-1.326.205-.591-.303-.712-1.215-.247-1.679Z"/>
      <path class="st0" d="M194.144,25.276c.11-.015.222-.02.333-.01.162.014.77.204.581.408-.13.14-.433-.143-.669-.152-1.159-.046-1.164,1.774.128,1.588.242-.035.394-.327.544-.105.106.157-.288.334-.422.356-1.708.29-1.837-1.905-.495-2.085Z"/>
      <path class="st0" d="M202.632,26.684h-1.248c.057.501.69.581,1.011.259l.132.214c-.423.433-1.355.236-1.44-.412-.164-1.244,1.676-1.303,1.545-.061ZM202.373,26.469c-.067-.584-.951-.594-.99,0h.99Z"/>
      <path class="st0" d="M200.824,26.684h-1.291c.085.313.311.474.639.444.262-.024.39-.264.565.007-.401.438-1.36.28-1.459-.347-.206-1.294,1.641-1.368,1.546-.105ZM200.566,26.469c-.119-.597-.914-.597-1.033,0h1.033Z"/>
      <path class="st0" d="M166.831,26.684h-1.291c.074.296.31.47.618.458.257-.011.406-.294.586-.006-.425.459-1.369.267-1.458-.391-.172-1.261,1.654-1.293,1.545-.061ZM166.573,26.469c-.11-.596-.92-.597-1.033,0h1.033Z"/>
      <path class="st0" d="M190.024,27.372h-.301s0-.172,0-.172c-.396.343-1.219.226-1.064-.441.026-.113.257-.29.354-.29h.71c.011-.391-.229-.474-.577-.426-.211.029-.386.267-.452-.064.289-.276,1.04-.295,1.239.087.02.038.091.27.091.296v1.01ZM189.723,26.684h-.624c-.15,0-.294.331-.054.441.31.143.757-.06.678-.441Z"/>
      <path class="st0" d="M171.005,27.372h-.258s0-.172,0-.172c-.364.362-1.328.173-1.078-.455.045-.114.261-.276.369-.276h.667c.055-.571-.562-.475-.92-.298-.263-.371.52-.421.76-.38.192.033.462.24.462.441v1.139ZM170.704,26.684h-.624c-.178,0-.298.493.216.477.289-.009.472-.173.408-.477Z"/>
      <path class="st0" d="M182.365,26.582c0,.453-.367.82-.82.82s-.82-.367-.82-.82.367-.82.82-.82.82.367.82.82ZM181.406,26.049c-.589.121-.49,1.148.186,1.089.708-.062.62-1.254-.186-1.089Z"/>
      <path class="st0" d="M179.649,26.581c0,.452-.367.819-.819.819s-.819-.367-.819-.819.367-.819.819-.819.819.367.819.819ZM178.696,26.049c-.622.113-.484,1.147.186,1.088.682-.06.646-1.24-.186-1.088Z"/>
      <path class="st0" d="M196.938,26.583c0,.452-.367.819-.819.819s-.819-.367-.819-.819.367-.819.819-.819.819.367.819.819ZM196.667,26.584c0-.303-.245-.548-.548-.548s-.548.245-.548.548.245.548.548.548.548-.245.548-.548Z"/>
      <path class="st0" d="M174.147,27.028c.027.021.079-.07.094-.099.13-.242.324-.929.462-1.086.07-.079.163-.065.261-.062.008.06-.003.115-.02.173-.078.266-.656,1.57-.804,1.776-.173.241-.527.325-.784.153-.122-.082-.041-.178.043-.25.315.189.584.043.611-.316l-.679-1.472c.004-.073.266-.103.322-.021l.495,1.204Z"/>
      <path class="st0" d="M190.54,25.781h.258s0,.215,0,.215c.286-.244.847-.336,1.094.003.041.056.153.312.153.363v1.01h-.301v-1.01c0-.321-.57-.437-.794-.191-.039.043-.153.32-.153.363v.838h-.258v-1.591Z"/>
      <path class="st0" d="M198.415,26.039h-.258s0-.258,0-.258h.259c-.058-.54.4-.803.859-.538l-.109.19c-.342-.108-.5-.024-.449.349h.431s0,.258,0,.258h-.431s0,1.333,0,1.333h-.301v-1.333Z"/>
      <path class="st0" d="M167.723,25.791c.288-.049.693.021.82.313l-.185.14c-.951-.854-1.401.98-.406.894.27-.023.374-.338.6-.087-.054.154-.233.27-.385.302-1.275.269-1.416-1.396-.444-1.561Z"/>
      <path class="st0" d="M197.382,26.039h-.258s0-.258,0-.258h.259c-.104-.496.376-.794.799-.56l-.026.217c-.326-.118-.544-.025-.516.344l.433.019.04.239h-.474v1.333h-.258v-1.333Z"/>
      <path class="st0" d="M172.726,25.437v.344c.2.015.56-.095.455.218l-.455.04c.054.376-.226,1.347.475,1.05l.082.171c-.18.196-.639.157-.765-.087-.111-.215-.007-1.095-.048-1.134-.42.071-.42-.328,0-.258v-.344s.258,0,.258,0Z"/>
      <rect class="st0" x="180.041" y="25.179" width=".301" height="2.193"/>
      <rect class="st0" x="171.521" y="25.179" width=".301" height="2.193"/>
      <path class="st0" d="M188.217,27.372h-.301v-1.526c0-.088.301-.088.301,0v1.526Z"/>
      <rect class="st0" x="168.94" y="25.781" width=".258" height="1.591"/>
      <circle class="st0" cx="188.066" cy="25.308" r=".188"/>
      <path class="st0" d="M145.618,17.483c.378-.209.618-.148,1.006-.134.21.008.453-.14.582.192-.399.468-1.181.333-1.589-.058Z"/>
      <path class="st0" d="M146.909,16.451l-.167-1.692c.159-.184.181-.023.205.127.044.272.183,1.426.126,1.621-.065.221-.671.054-.868.156-.117-.03-.065-.211-.006-.211h.71Z"/>
      <path class="st0" d="M146.005,15.075c.167.164-.534.343-.626.345-.169.003-.736-.121-.643-.345.307.074.516.178.85.119.143-.025.261-.144.419-.119Z"/>
      <circle class="st0" cx="142.466" cy="17.12" r=".17"/>
      <path class="st0" d="M143.845,4.854c5.98-.372,11.046,4.114,11.413,10.068-.145,3.569.188,7.284-.002,10.837-.334,6.234-6.03,10.799-12.192,9.948-4.951-.683-8.893-4.943-9.152-9.946-.185-3.583.142-7.324.002-10.923.322-5.278,4.631-9.655,9.93-9.985ZM141.143,20.471c-.022-.329,0-.698,0-1.032,0-.123.148-.565.207-.696.09-.2.236-.367.353-.55-1.019-1.584-1.181-3.797-.464-5.537.357-.867,1.152-1.69,2.162-1.622.35.024.677.216,1.012.238.022-.014.198-.342.196-.371-.015-.163-.338-.75-.412-1.006-.715-2.492,1.927-1.76,3.027-2.566.398-.291.777-.905.904-1.38.012-.046.036-.055-.012-.096-.121-.103-1.077-.341-1.293-.388-2.745-.601-5.566-.062-7.918,1.442.822.636,1.24,1.526,1.42,2.536-.581.12-1.174.082-1.764.087.228.932-.221,1.91-1.133,2.243-.082.03-.46.092-.458.143.906.841,1.024,2.201,1.031,3.375-1.006.149-1.992-.039-2.949-.342-.152-.048-.54-.247-.653-.253-.037-.002-.099.032-.099.058v2.064c.784.306,1.584.569,2.353.917,1.596.723,3.171,1.667,4.468,2.845.141.005.023-.083.021-.107ZM135.464,10.689c-.255.337.292.74.572.868,1.423.648,2.882-.751,2.275-2.187-.194-.459-.673-.902-1.184-.955l-.201.253c1.856.235,1.514,2.959-.366,2.752-.518-.057-.699-.33-.998-.677-.026-.03.002-.081-.098-.054ZM153.276,9.958c-1.508.719-.481,2.922,1.076,2.321l-.045-.171c-1.338.511-2.235-1.275-.991-1.983l-.041-.167ZM144.198,18.644c.845.185,2.205.885,3.026.422.884-.498,1.422-2.207,1.53-3.158.172-1.51-.12-4.598-2.327-4.174-1.711.329-2.753,2.163-3.304,3.665-.564-.281-1.333-.635-1.613.193-.324.957.318,2.202,1.397,2.235-.189,1.171-.231,2.367-.393,3.541-.021.152-.063.295-.122.436.532.751,1.118,1.478,1.462,2.343,1.17-.517,2.368-.98,3.614-1.29l-1.614-1.16-.085-.818c-.989-.293-1.481-1.265-1.571-2.235ZM147.301,23.078c-.253,1.814,2.385,2.421,2.965.706.101-.298.142-.931-.066-1.184-.066-.08-.249-.08-.201.07.178.554.24.934-.147,1.43-.834,1.072-2.592.277-2.342-1.071l-.209.048ZM153.406,26.124l-.019-.13c-.125-.175-.632.212-.733.215-.119.004-.611-.34-.748-.252l-.05.142c.304.121.636.173.798.498.108-.346.45-.376.753-.474ZM151.9,26.899c-.362.123-.771.198-1.054.471-.283-.273-.692-.348-1.054-.471l-.044.215c.408.094.899.197,1.097.601.196-.4.69-.517,1.097-.601l-.044-.215ZM151.814,32.446c-2.174.483-4.421,0-6.279-1.186-1.955-1.247-3.572-3.509-6.229-2.175-.302.152-1.011.67-1.132.976-.022.057.005.075.061.061.186-.044.382-.141.591-.183,2.554-.52,4.011,1.731,5.987,2.816,1.46.801,3.909,1.394,5.528.866.479-.156,1.08-.846,1.471-1.174ZM154.095,29.092c-2.03.562-4.084-.261-6.133-.131-1.201.076-2.35.653-3.16,1.528l1.139.794c1.089-.595,2.269-.656,3.486-.557.831.068,1.663.258,2.496.3.24.012.825.04,1.031,0,.138-.027.456-.592.546-.744.225-.383.406-.789.595-1.189ZM149.964,33.865c-1.809.295-3.689-.098-5.278-.982-2.036-1.133-3.717-3.67-6.382-2.608-.398.159-1.236.707-1.377,1.118-.037.107.04.039.074.03.132-.033.257-.095.39-.126,2.643-.613,4.118,1.739,6.176,2.833,1.041.553,2.784,1.174,3.945.874.825-.213,1.76-.655,2.453-1.139ZM152.89,31.199c-2.246.11-4.637-.942-6.755.193,1.556.908,3.512,1.29,5.293.947.514-.099.611-.109.968-.495.174-.188.337-.44.494-.645ZM146.392,35.241c-1.443-.211-2.744-.767-3.929-1.599-1.525-1.071-2.869-2.678-4.962-2.19-.27.063-.527.18-.79.264-.018.065.017.071.042.108.154.224.543.599.753.796,2.058,1.941,4.908,2.964,7.746,2.793l1.14-.171Z"/>
    </g>
    <g>
      <g>
        <g>
          <path class="st0" d="M73.761,26.257c-.253.159-.631.184-.937.21-.357.023-.749.104-.91-.245-.113-.272-.2-.584-.339-.853-.265-.53-.502-1.155-.87-1.618-.29-.279-.399.151-.477.44-.216.665-.426,2.003-1.043,2.284-.498.24-1.097.161-1.265-.436-.136-.347-.299-.84-.426-1.228-.686-2.161-1.48-4.312-2.019-6.509-.103-.751,1.23-.732,1.687-.683.344.029.463.303.562.591.342.943.92,2.554,1.121,3.096.236.665.791-2.068,1.034-2.187.294-.352,1.136-.318,1.456-.086.208.169.28.421.4.659.228.5.502,1.164.721,1.633.099.235.399.821.609.352.38-1.299.56-2.671,1.011-3.953.186-.465.71-.513,1.171-.541.713-.057,1.22.086,1.033.917-.245,1.11-.719,2.136-.951,3.246-.38,1.471-1.002,3.87-1.322,4.628-.052.117-.112.198-.234.277l-.011.007Z"/>
          <path class="st0" d="M53.25,27.543c-.447-.349-.181-1.44-.15-1.983.16-2.409.229-4.842.099-7.242-.013-.237-.016-.506.094-.715.232-.536,1.539-.592,1.971-.362.208.138.248.376.36.593.242.54.611,1.363.921,2.055.202.387.261.765.574,1.029.117.082.165-.051.161-.156.022-.804.068-3.122.09-3.78.009-.121.046-.193.177-.244.375-.099,1.119-.172,1.489.033.259.181.267.618.298.919.193,2.435-.054,5.097.1,7.549.009.404-.01.971-.201,1.304-.268.374-.895.344-1.323.371-.343.019-.786-.046-.947-.34-.547-.929-.927-2.113-1.39-3.094-.164-.294-.322-.301-.324-.026-.059.878-.055,2.985-.182,3.803-.203.436-1.441.455-1.806.293l-.011-.007Z"/>
          <path class="st0" d="M85.34,25.324c-1.524-1.244-1.744-4.16-.91-5.849.881-1.785,2.411-2.229,4.299-2.193,1.312.025,2.018.701,2.504,1.845,1.252,2.946-.4,7.037-3.97,6.835-.495-.028-1.542-.326-1.924-.638ZM88.328,19.464c-1.115.254-1.514,2.47-1.36,3.407.154.939,1.427.466,1.832-.241s.841-3.466-.473-3.166Z"/>
          <path class="st0" d="M76.296,11.924c-.636-.031-1.265.08-1.891.179-.276.296-.527,2.05-.772,2.134-.266.091-1.593-.106-1.683-.402-.042-.139.239-1.383.299-1.635.497-2.06,1.147-4.1,1.81-6.109.204-.393,1.753-.465,2.057-.199.103.09.44.816.524,1.002.735,1.638,1.409,4.463,1.801,6.263.094.43.193.76-.312.928-.316.105-1.104.26-1.366.024-.264-.688-.303-1.463-.468-2.184ZM75.85,10.388c.119-.191-.416-1.68-.68-1.877-.1,0-.576,1.798-.55,1.912.046.196,1.192.025,1.23-.035Z"/>
          <path class="st0" d="M71.637,13.579c-.07.632-.22.782-.878.863-.579.082-1.121.138-1.717.215-.433.051-.871.097-1.288.101-.136,0-.282-.007-.407-.057-.296-.118-.29-.441-.32-.759-.056-2.029.178-6.582.181-7.65.022-.328.386-.456.687-.455.301-.021.655-.084.961-.098.297-.024.555.035.646.313.138.448.104.928.12,1.393.003.54.021,1.056-.055,1.577-.073.891.007,1.795-.042,2.685.001.156-.033.345.093.453.177.134.701.044,1.126-.022.424-.078.824-.133.9.324.036.359.035.747-.004,1.102l-.002.014Z"/>
          <path class="st0" d="M81.228,19.356c.114-.079.941-2.143,1.171-2.52.412-.674.679-.735,1.482-.775,1.632-.081.9,1.069.435,1.997-.783,1.565-2.074,2.981-2.215,4.818-.05.66.106,2.47-.271,2.942-.071.089-.082.117-.207.14-.275.051-1.634.044-1.786-.125-.323-.361-.117-2.349-.165-2.961-.099-1.253-1.548-2.822-2.189-3.976-.375-.675-1.11-1.767.03-2.083.334-.093,1.343-.231,1.633-.101.283.127.938,1.513,1.18,1.86.118.17.687.933.902.784Z"/>
          <path class="st0" d="M110.443,25.268c-.176.05-.53.078-.751.09-.496.044-.782-.056-.953-.528-.229-.543-.459-1.085-.625-1.647-.047-.137-.202-.74-.373-.7-.056.042-.051.293-.068.531-.01.19-.021.381-.032.571-.037.67-.079,1.436-.101,1.822.012.293-.317.351-.551.367-.366.026-.778.073-1.066-.125-.073-.061-.081-.12-.078-.199.033-1.059.243-6.265.296-7.67,0-.12.012-.243.123-.316.03-.019.06-.04.093-.053.267-.106.568-.127.853-.145.3-.004.644-.037.757.263.23.58.859,2.217,1.086,2.792.02.041.046.116.089.113.369-.426.189-2.419.271-3.08.017-.447.209-.596.688-.549.298.029.751.039.779.35-.069.99-.178,7.028-.334,7.992-.009.059-.028.092-.097.118l-.008.003Z"/>
          <path class="st0" d="M65.022,20.019c-.045.037-.123.052-.186.064-.69.125-1.383.236-2.085.243-.069,0-.151.003-.208.03-.061.027-.091.085-.109.168-.026.124-.046.285-.054.454-.011.297-.006.869.247.964.083.025.162.01.253.003.308-.03.813-.115,1.079-.145.25-.022.69-.055.87.059.217.193.056.98-.009,1.257-.053.172-.088.322-.233.414-.336.198-1.538.259-1.903.318-.068.008-.123.026-.125.1-.012.11.005.418.008.639,0,.083.004.198.093.225.547.036,1.109.038,1.66.006.428-.036.713-.119.865.092.143.219.144.578.142.858.007.636-.215.758-.786.876-.824.181-1.959.348-2.803.427-.482.021-1.259.256-1.416-.379-.322-2.374.128-5.118-.178-7.527-.027-.193-.037-.45.078-.601.36-.432,1.118-.275,1.624-.334.763-.081,2.165-.399,2.845-.259.46.104.383,1.126.399,1.552-.014.15.025.41-.059.489l-.008.007Z"/>
          <path class="st0" d="M97.813,25.423c-.897.407-1.201.83-1.82-.182-.272-.316-1.381-3.227-1.802-2.901-.045.683.129,2.741.091,3.456-.114.31-1.359.338-1.7.252-.2-.051-.23-.303-.245-.492-.189-2.251-.055-4.514-.279-6.757-.009-.15-.014-.296,0-.447.012-.525.514-.741.954-.849,1.356-.323,3.817-.703,4.452.933.213.43.32.889.225,1.372-.119.617-.439,1.247-.911,1.661-.211.217-.719.447-.674.773.198.549,2.165,2.814,1.719,3.176l-.009.007ZM95.878,18.942c-.311-.292-1.112-.279-1.49.005-.037.041-.05.086-.055.138-.03.436-.125,1.509-.158,2.129,0,.17.181.136.297.097.928-.29,2.255-1.573,1.417-2.359l-.012-.011Z"/>
          <path class="st0" d="M118.038,25.51c-.047.077-.174.132-.346.18-.283.075-.679.109-.972.084-.168-.019-.305-.033-.412-.151-.335-.38-.408-1.749-.707-2.049-.048-.036-.112-.05-.176-.058-.476-.052-1.193.222-1.714.211-.07.009-.107.046-.13.108-.153.463-.406,1.704-.618,1.95-.232.209-1.331-.013-1.647-.179-.083-.048-.091-.119-.07-.231.589-2.634.865-5.401,1.945-7.882.049-.108.116-.178.225-.21.645-.16,1.691-.44,2.079.192.705,1.473,1.224,3.147,1.752,4.764.241.772.45,1.498.642,2.222.07.316.243.734.155,1.041l-.005.009ZM113.897,22.058c.194.156,1.186.134,1.276-.149-.022-.296-.483-1.529-.682-1.816-.189-.186-.211.221-.259.342-.087.321-.206.794-.278,1.13-.046.25-.096.402-.061.488l.004.005Z"/>
          <path class="st0" d="M100.039,19.207c.081.063.156-.063.2-.131.332-.51,1.019-1.618,1.399-1.951.217-.217,1.085.051,1.122.371-.059,1.094-1.899,2.818-2.225,3.67-.032.121.025.2.082.32.393.758,1.907,2.766,1.984,3.367.01.119-.044.162-.178.249-.291.154-.791.375-1.036.126-.275-.326-.731-1.443-1.126-2.054-.107-.158-.272-.392-.266-.26.028.349.2,2.326.233,2.723.004.051.003.091-.028.136-.235.275-.785.316-1.099.175-.173-.104-.174-.251-.247-.479-.601-2.323-.313-4.797-.472-7.175-.036-.38-.087-.917-.068-1.279.023-.364.06-.442.423-.452.318-.018.967.021,1.144.152.082.065.091.149.115.258.046.266.086.543.083.813-.003.407-.076.801-.089,1.204-.003.068.007.17.044.212l.006.007Z"/>
          <path class="st0" d="M104.702,25.21c-.055.071-.152.085-.238.093-.229.019-.559.045-.785.061-.263.033-.454-.114-.462-.392-.025-2.337.263-4.655.275-6.99.041-.338.005-.866.38-.98.233-.06.636-.041.941-.061.099-.005.202-.019.298.002.345.1.28.593.283.883-.02.54-.04,1.076-.074,1.616-.161,1.946-.207,3.879-.608,5.757l-.008.01Z"/>
        </g>
        <g>
          <g>
            <path class="st0" d="M107.463,28.625s-.365-.327-.885-.178l-.396.385c-.449.526-.823,1.283-.814,1.785.018,1.102,1.087.877,1.711.388.649-.506,1.259-1.793.384-2.38ZM107.369,29.763c-.101.37-1.014,1.494-1.394.994-.25-.327.41-1.675.761-1.794.474-.158.744.39.633.799Z"/>
            <path class="st0" d="M118.04,27.945c.022-.129-.189-.263-.299-.211-.455.184-1.26,1.745-1.487,2.249-.077.15-.072.355-.18.504-.088.137-.445.347-.322.029.135-.346.453-.801.137-1.112-.409-.433-1.031.191-1.307.551-.123.16-.213.408-.31.569-.034.057-.086.102-.155.105-.118.005-.21-.081-.188-.191.023-.144.116-.403.18-.619.058-.194.087-.328.052-.502-.014-.07-.045-.167-.13-.161-.186.023-.555.365-.737.515-.048.039-.097.061-.064-.042.04-.14.212-.422-.007-.491-.147-.038-.213.02-.28.181-.154.329-.308.659-.453.991-.051.118-.01.269-.075.38-.087.102-.309.105-.437.083-.112-.029-.071-.104-.024-.242.075-.205.205-.526.234-.737.024-.154-.018-.238-.144-.232-.319.023-.583.758-.616,1.09-.03.431.42.675.748.401.104-.091.173-.225.285-.099.144.172.287.287.429.015.136-.231.209-.448.371-.641.069-.088.17-.2.209-.197.015,0,.022.016.022.044,0,.037-.011.092-.018.134-.059.324.008.621.148.736.15.141.381-.035.504-.221.041-.048.061-.12.122-.106.042.017.08.118.149.188.167.197.402.156.583.009.064-.042.112-.101.178-.124.016-.003.03.005.042.016.056.049.145.241.317.265.201.036.35-.128.459-.271.238-.283.301.308.702.21.134-.028.236-.126.308-.215.014-.018.028-.035.04-.052.016-.021.03-.041.043-.057.003-.004.007-.009.011-.013.002-.003.004-.005.006-.006.098-.107.219-.201.288-.256v-.005c-.059-.04-.11-.071-.151-.085-.046-.015-.079-.003-.12.028-.114.088-.314.345-.474.25l-.005-.004c-.105-.156.069-.445.144-.595.276-.507,1.158-1.593,1.271-2.053ZM115.521,29.894c-.149.205-.337.438-.495.615-.048.049-.228.263-.256.13-.032-.239.729-1.114.866-1.01l.002.005c.014.093-.066.187-.117.261Z"/>
            <path class="st0" d="M109.115,32.05c.032-.049.082-.079.132-.11.183-.111.557-.325.737-.441.122-.074.2-.189.273-.312.016-.03.03-.059.031-.088-.007-.085-.197-.003-.322-.021-.256-.004-.439-.192-.384-.456.104-.486.457-.924.862-1.166.196-.139.42-.14.636-.058.427.172.272.474.151.807-.149.404-.401.878-.634,1.222-.253.278-.749.605-1.157.909-.06.04-.108.084-.178.088-.17-.006-.231-.245-.151-.368l.004-.006ZM110.896,29.775c-.057-.09-.445.291-.515.346-.161.153-.319.327-.37.547-.005.065.021.111.08.093.164-.092.437-.418.592-.59.079-.098.235-.274.214-.391l-.002-.005Z"/>
            <path class="st0" d="M108.421,29.678c.139-.004.179-.145.329-.158.446-.038-.08.605-.165.79-.082.18-.25.802-.301.868-.093.12-.286.047-.327-.078-.13-.394.239-.842.21-.968-.025-.109-.213-.113-.189-.389.072-.829.863-1.068.441-.064Z"/>
            <path class="st0" d="M109.174,29.614c.637-.216-.145.984.099,1.149.027.018.209-.079.213.096.003.163-.558.552-.695.151-.092-.268.157-1.32.384-1.397Z"/>
            <path class="st0" d="M112.01,28.911c.077-.129.464-.032.451.204-.024.419-.613.068-.451-.204Z"/>
            <path class="st0" d="M109.46,28.93c.161-.058.408.135.29.325-.238.383-.543-.234-.29-.325Z"/>
            <path class="st0" d="M117.082,30.672s-.007.009-.011.013c-.012.016-.026.036-.043.057-.012.016-.026.034-.04.052.026-.041.058-.083.094-.122Z"/>
            <path class="st0" d="M107.463,28.625l-1.176.388s-.084-.077-.104-.181l.396-.385c.52-.149.885.178.885.178Z"/>
          </g>
          <g>
            <path class="st0" d="M100.612,28.991c-.464.567-.788,1.628-1.647,1.613.101-.117.196-.262.275-.395.101-.17.586-.952.548-1.082-.042-.143-.149-.143-.269-.086-.147.07-.765.981-.877,1.175-.131.227-.335.673-.023.841.104.056.438-.042.568-.081.032-.01.31-.203.25-.051-.014.036-.471.511-.533.56-.253.199-.153.103-.401.295-.021.017-.269.133-.293.148-.045.027-.24.1-.285.137.06-.034-.561.205-.395.485.111.188.864-.238.877-.224.127-.068.203-.124.434-.268.3-.195.954-.929,1.295-1.456.144-.222.796-1.302.79-1.488-.004-.13-.214-.234-.313-.126Z"/>
            <path class="st0" d="M96.548,29.896c.08.016.098-.047.144-.088.193-.169.659-.78.839-.847.077-.029.187.061.207.131.054.189-.7.949-.885,1.076-.04.132.536,1.011.213,1.096-.376.099-.514-.822-.566-.819-.191.01-.437.897-.747.858-.378-.248.484-1.376.372-1.477-.051.007-.09-.025-.125.033-.143.235-.211.48-.398.72-.263.338-.859.887-1.308.605-.493-.31.033-1.264.31-1.588.125-.146.633-.628.8-.63.11-.002.205.096.221.2.01.066-.097.136-.053.209.039.065.557.338.676.219.122-.218.654-1.564.793-1.625.056-.024.204.015.234.056.097.133-.191.735-.262.901-.142.329-.343.634-.463.973ZM95.434,29.647c-.02-.023-.196-.139-.22-.133-.074.02-.478.777-.513.907-.019.069-.098.355.003.37.179.027.807-.704.828-.897.008-.072-.051-.194-.098-.247Z"/>
            <path class="st0" d="M89.752,28.631c-.046.222-.142.528-.233.741-.323.76-.779,1.459-1.125,2.208-.216.198-.343.013-.294-.237.298-.832.764-1.596,1.146-2.392.042-.158-.24.045-.307.027-.063-.017-.127-.14-.099-.203.131-.291,1.366-.813,1.698-.87.207-.036.782-.052.861.193.201.626-.811,1.341-1.245,1.668.246.085.703.276.681.601-.032.467-.824,1.082-1.23,1.252-.237.099-.606.24-.783-.011.053-.204.296-.204.46-.294.263-.144.895-.504.997-.776.216-.57-.948-.212-.83-.659.021-.078.941-.768,1.101-.924.117-.114.508-.469.425-.622-.139-.256-1.034.161-1.224.297Z"/>
            <path class="st0" d="M103.948,28.939c.174.154.15.416.024.59-.19.264-.25-.089-.312-.089-.218.319.14.696.209,1.034.02.097.028.229.021.327-.063.803-1.239.684-1.606.096-.055-.088.009-.195-.142-.152-.014.004-.018.072-.07.099-.718.368-.711-.286-.518-.796-.294.123-.628,1.08-.915,1.066-.074-.004-.194-.183-.178-.277.038-.231.327-.821.448-1.051.176-.171.304-.72.553-.741.301-.025.119.36.036.499.109.083.568-.615.701-.2.115.358-.331.796-.295,1.156.464-.142.409.071.681.296.193.16.433.286.677.147.29-.165-.144-.932-.156-1.219-.007-.153.062-.459.146-.589.135-.21.484-.384.696-.196Z"/>
            <path class="st0" d="M93.819,29.584c.11.087.317.1.443.16.15.071-.119.184-.191.288-.068.096-.081.214-.148.31-.256.366-1.039,1.292-1.521.855-.489-.444.267-1.606.671-1.912.538-.406.482.09.746.3ZM93.682,29.86c-.008-.013-.091-.028-.124-.062-.073-.075-.149-.264-.291-.177-.082.051-.576,1.008-.435,1.183.265.062.938-.803.849-.944Z"/>
            <path class="st0" d="M98.251,31.096c-.048.067-.252.139-.34.149-.632.076-.558-.569-.394-.985.139-.354,1.081-2.159,1.319-2.32.256-.173.407.004.321.271-.09.277-.347.736-.493,1.006-.168.31-.762,1.126-.824,1.389-.102.434.348.164.443.291.023.05-.004.161-.032.2Z"/>
            <path class="st0" d="M91.579,29.62c.063.061.422-.285.526-.304.101-.019.203.071.18.17-.015.066-.431.457-.518.578-.166.23-.561,1.17-.687,1.233-.158.079-.32-.077-.3-.24.037-.308.503-.839.517-1.029.009-.12-.17-.013-.238-.141-.038-.072.26-.757.335-.831.095-.093.372-.189.379-.012.004.104-.267.504-.194.575Z"/>
          </g>
        </g>
      </g>
      <g>
        <g id="pX0QVh.tif">
          <g>
            <path class="st0" d="M86.779,9.371c.043-.043.039-.09.127-.075.133.022.015.222-.023.285-.314.513-.892.333-1.22-.064-.162-.196-.124-.409.017-.601.046-.063.149-.218.235-.122.056.063-.042.203-.065.275-.067.214-.066.3.126.427.219.145.438.224.661.036.042-.036.093-.111.141-.16Z"/>
            <path class="st0" d="M86.574,9.198c.005.086-.011.173-.071.238-.036.039-.174.079-.227.081-.174.007-.342-.171-.337-.343.002-.061.075-.184.123-.22.192-.144.448-.092.593.09.108.136.08.306-.081.154ZM86.358,9.089c-.049-.049-.117-.049-.173-.012-.037.025-.041.118-.016.136.012.009.278-.036.189-.124Z"/>
          </g>
        </g>
        <path class="st0" d="M92.489,11.092c-.065-.216-.287-.312-.47-.163-.034.028-.141.16-.161.197-.055.101-.094.332-.163.402-.041.041-.026-.018-.037-.033-.009-.013-.039-.02-.054-.037-.375-.394-.868-.765-1.388-.954-.548-.199-1.261-.412-1.738-.762-.084-.062-.204-.169-.236-.268-.032-.102-.056-.276-.066-.381-.007-.072.026-.228-.025-.259.124-.603.695-1.849.228-2.384-.379-.434-.953.029-1.203.37-.156.214-.265.471-.345.71-.031.093-.016.177-.107.238l-.799-.064c.01-.025.024-.05.029-.077.064-.404.018-1.366-.343-1.623-.112-.08-.26-.088-.35.024-.051.143-.104.292-.144.438-.118.428-.254.919-.274,1.36-.001.027.028.074.018.09-.007.012-.095.051-.121.074-.048.042-.227.257-.262.311-.124.19.042.285.203.167.206-.151.288-.424.574-.498.073-.019.205-.032.263.027-.048-.011-.053.03-.071.043-.299.215-.521.544-.669.883-.008.02-.007.044-.007.066-.007.008-.031.014-.029-.02.009-.186-.023-.342-.21-.431-.241-.114-.43.224-.44.427-.001.028.029.101.01.121-.004.004-.031-.003-.041.006-.094.077-.203.217-.281.313-.066.079-.055.068-.108.152-.074.118-.185.26-.211.386-.027.13-.002.325.106.416.021.018.048.009.05.011.004.004-.017.044-.013.069.024.144.248.357.375.422.192.097.412.15.618.211.037.05.16.105.182.16.009.023-.009.046-.006.069.032.205-.066.358-.112.56-.061.269-.111.569-.135.841-.004.043.003.321-.007.335-.012.015-.051.014-.073.025-.016.007-.025.028-.046.035-.059.023-.178.029-.233.077-.012.01-.003.032-.01.04-.122.144-.099.177-.14.345-.021.089-.114.156.032.217.108.046.261.003.371.006.392.007.775.047,1.169.034.079-.002.188-.021.235-.092l.221-.494c.014-.002.003.02.014.028.101.066.16.183.248.264.087.08.151.08.266.067-.114.081-.121.173.026.21.529.13,1.054.048,1.59.033.116-.003.456.04.524-.036.068-.077.099-.357.14-.469.085-.231.295-.428.271-.687-.006-.067-.032-.144-.107-.155-.085-.012-.121.116-.159.173-.021.032-.077.126-.09.141-.015.017-.041.006-.051.02-.011.017-.005.054-.019.068-.008.008-.041.008-.061.027-.192.174-.302.377-.292.643-.241.02-.482-.013-.722-.011-.143.002-.296.035-.43.051-.067.008-.237.029-.297.021-.02-.003-.041-.015-.062-.013.046-.178.351-.218.402-.385.051-.166.013-.444.038-.629.015-.11.069-.24.085-.353.008-.054.036-.279-.059-.271-.032.003-.18.15-.206.185-.11.151-.19.369-.209.554-.012.119.011.263.011.384-.004.013-.135.13-.16.151-.028.024-.083.037-.108.078-.018.028-.022.072-.037.101-.035.068-.031-.011-.046-.037-.154-.268-.381-.483-.556-.728-.128-.18-.212-.374-.292-.573-.031-.08-.019-.188-.127-.229-.123.039-.092.249-.078.356.012.088.066.304.1.388.021.053.164.269.164.287-.001.018-.075.073-.093.097-.088.117-.227.302-.255.459-.004.023.015.051.005.069-.032.056-.438.036-.519.038-.096.003-.194.002-.285.003-.099.001-.198-.002-.295.024,0-.228.23-.189.373-.253.043-.019.204-.175.22-.219.064-.183.026-.513.049-.712.03-.261.142-.534.192-.786.007-.035.042-.062.011-.11.123-.015.206.08.318-.015.091-.078-.104-.157-.148-.196-.04-.035-.074-.081-.114-.119-.331-.304-.457-.255-.83-.413-.134-.056-.361-.169-.453-.279-.075-.089.099-.105.17-.157.028-.019.237-.242.261-.218,0,.015,0,.035.009.047.129.194.208.369.415.512.322.221.734.202,1.082.061.106-.043.244-.185.313-.207.062-.02.155.007.233-.012.102-.023.371-.122.467-.166.097-.045.244-.173.122-.268-.123-.096-.344.073-.475.108-.101.027-.281.034-.382.001-.181-.06-.348-.264-.467-.41-.107-.132-.219-.33-.336-.43-.11-.094-.175-.059-.179-.241-.002-.065.017-.188.028-.251.002-.008.064-.098.082-.13.066-.115.314-.494.427-.559.019-.011.241-.11.254-.112.261-.037.535.035.803-.018-.146.538.537.847.84.953.084.029.134.026.167-.003.003.129.014.278-.005.383-.073.406-.403,1.011-.675,1.324-.14.162-.304.241-.496.333-.157.075-.318.15-.486.212-.077.028-.233.024-.236.13-.003.086.099.083.164.085.084.004.211-.023.285-.036.764-.136,1.304-.577,1.68-1.229.036-.063.063-.138.099-.201.007-.014.009-.03.03-.022l.292.179c.13.08.224.138.347.199-.31.151-.51.527-.607.961-.13.582.386,1.064.893,1.075.506.012.913-.457.813-1.036-.044-.254-.097-.484-.184-.667.209.067.415.137.606.233.092.046.179.098.262.155.04-.006.083-.006.127,0,.238.035.435.125.435.28,0,.052-.022.093-.061.125.436.405.644.779.803,1.4.033.129.094.374.103.499.01.127-.168.061-.251.064-.331.01-.686-.004-1.007.015-.117.007-.233.032-.35.041-.007-.025.008-.039.015-.058.093-.236.291-.458.346-.709.024-.106.017-.321-.114-.35-.06-.013-.122.047-.155.097-.078.117-.124.269-.21.392-.046.066-.117.122-.16.197-.029.051-.133.284-.139.333-.007.054.047.126.042.13-.004.003-.04-.007-.064.026-.01.013-.02.107-.014.117.013.02.118.066.148.073.136.034.299.008.442.009.46.005.946-.028,1.414-.047.131-.006.468.066.481-.122.007-.105-.042-.162-.147-.154.015-.055.037-.094.039-.154.006-.144-.023-.409-.039-.552-.006-.051-.045-.143-.035-.193.004-.018.048-.019.066-.035.058-.051.2-.253.228-.324.008-.02.059-.187.06-.197.02-.17-.014-.7-.061-.858ZM84.26,9.745c-.021.036-.157.166-.197.2-.043.036-.193.15-.236.17-.02.009-.041.014-.063.007-.053-.095-.009-.173.034-.264.033-.07.08-.147.128-.209.015-.021.136-.162.146-.168.063-.035.09.083.132.113.063.046.138.013.057.15ZM84.404,9.329c-.106-.194.047-.113.041.032-.042.008-.028-.009-.041-.032ZM84.364,8.971c.017-.106-.044-.166.073-.243.112.112.066.205-.073.243ZM84.778,9.312c.015-.003.081-.004.088.002.052.047-.078.162-.104.16-.023-.001-.072-.145.017-.162ZM85.185,9.457c.151.176.217.367.349.545.091.123.199.221.307.312.023.019.044.05.067.07-.096.005-.179.067-.273.093-.479.132-.727-.061-.971-.449-.018-.029-.051-.042-.068-.079-.021-.047-.013-.181.04-.195.028-.008.061,0,.09-.007.035-.008.102-.014.115-.018.119-.033.194-.134.242-.243.017-.04.003-.095.045-.109,0,.014-.003.032.004.044.007.011.038.018.053.036ZM85.576,6.702c-.012.173-.063.319-.096.486-.012.059-.068.432-.083.451-.018.023-.121.021-.155.032l.252-1.43c.093.103.092.324.083.46ZM92.203,12.023c-.009.018-.081.142-.088.148-.032.029-.026-.013-.032-.024-.051-.109-.101-.219-.161-.323.026-.036.064-.072.086-.11.035-.058.061-.141.106-.19l.132-.312c-.004.054.024.103.031.156.026.205.019.468-.073.655Z"/>
        <path class="st0" d="M91.107,11.327c0,.052-.022.093-.061.125-.075.062-.214.092-.374.115-.237.035-.435-.086-.435-.24,0-.126.129-.257.308-.28.04-.006.083-.006.127,0,.238.035.435.125.435.28Z"/>
      </g>
    </g>
    <g>
      <path class="st0" d="M280.918,18.017c-.342-.494-.781-.891-1.248-1.269-.902-.732-2.044-1.028-2.976-1.721-2.85-2.119-5.662-4.294-8.736-6.093-2.252-1.318-4.551-2.52-7.187-2.843-1.969-.241-3.944-.359-5.921-.359-1.146,0-2.293.04-3.442.118-.735.05-1.47.115-2.389.188,0,0-16.768,3.666-24.838,7.926-.017.009-.035.019-.053.028-2.569,1.224-2.246,2.478-2.246,2.478.172.382-.054.604-.233.857-.271.384-.514.781-.695,1.216-.185.446-.2.858.146,1.247.271.304.305.69.302,1.081-.003.353.054.723.374.904.48.271.632.697.767,1.18.089.322.263.626.432.92.82,1.425,2.035,2.443,3.432,3.258,2.088,1.219,4.345,2.048,6.626,2.815,4.852,1.631,9.822,2.611,14.955,2.649.067,0,.134,0,.201,0,3.078,0,6.071-.525,9.038-1.372,3.112-.89,6.169-1.923,9.194-3.062,3.884-1.463,7.601-3.312,11.424-4.918.803-.337,1.599-.7,2.322-1.196,1.492-1.021,1.779-2.551.752-4.034ZM280.582,20.036c-.108.583-.569,1.005-.937,1.257-.626.429-1.316.752-2.159,1.107-1.486.625-2.978,1.294-4.419,1.942-2.269,1.02-4.616,2.075-6.972,2.963-3.19,1.202-6.174,2.195-9.123,3.038-3.149.9-6.023,1.337-8.785,1.337h-.194c-4.77-.036-9.569-.887-14.668-2.601-2.499-.84-4.552-1.627-6.455-2.738-1.456-.85-2.441-1.778-3.099-2.922-.14-.243-.284-.494-.344-.708-.161-.58-.393-1.231-1.1-1.676-.004-.033-.007-.083-.006-.154.003-.326.009-1.088-.533-1.699-.048-.053-.07-.078.016-.284.133-.32.322-.65.596-1.037.017-.024.036-.049.054-.073.177-.239.572-.772.34-1.503.043-.233.402-.827,1.73-1.459.028-.013.054-.027.087-.045,7.626-4.026,23.437-7.582,24.545-7.827.28-.023.543-.044.794-.064.555-.045,1.034-.085,1.521-.118,1.127-.077,2.264-.116,3.379-.116,1.945,0,3.9.118,5.809.352,2.544.311,4.771,1.516,6.835,2.723,2.632,1.54,5.13,3.407,7.546,5.212.369.276.737.551,1.107.826.51.379,1.046.642,1.565.895.508.248.988.483,1.38.802.384.312.78.659,1.071,1.078.251.362.528.916.421,1.495Z"/>
      <path class="st0" d="M236.045,14.633c-.068,0-.137.023-.207.069-.07.046-.112.12-.127.222-.223,1.595-.566,3.154-1.03,4.676l-.305,1.001-.188-.602c-.745-2.33-1.117-3.838-1.117-4.524,0-.256.085-.445.254-.566-.416-.382-.85-.573-1.305-.573-.44,0-.735.145-.885.435-.111.218-.167.515-.167.892,0,.411.099,1.022.297,1.834.024.097.036.196.036.297,0,.469-.249,1.404-.747,2.806l-.188-.602c-.744-2.33-1.117-3.838-1.117-4.524,0-.256.085-.445.254-.566-.416-.382-.851-.573-1.305-.573-.44,0-.735.145-.885.435-.111.218-.167.515-.167.892,0,.831.406,2.468,1.218,4.908.188.575.333.964.435,1.167.16.315.364.532.613.653.249.121.473.182.671.182.391,0,.652-.153.783-.457.334-.759.65-1.65.95-2.675.387,1.237.655,2.004.805,2.298.16.315.364.532.613.653.249.121.473.182.671.182.392,0,.653-.15.783-.45.097-.222.176-.418.239-.587.575-1.522.965-2.832,1.168-3.93.222-1.213.334-2.081.334-2.603,0-.067-.022-.135-.065-.203-.073-.111-.179-.167-.319-.167Z"/>
      <path class="st0" d="M242.548,19.984c-.053-.024-.111-.036-.174-.036-.16,0-.266.071-.319.211-.382,1.015-.899,1.522-1.552,1.522-.623,0-1.037-.334-1.24-1-.078-.246-.13-.566-.159-.957.512-.048.973-.206,1.381-.472.408-.266.747-.595,1.015-.989.268-.394.44-.753.515-1.077.075-.324.112-.587.112-.79,0-.662-.242-1.169-.725-1.522-.329-.242-.793-.362-1.392-.362-1.044,0-1.842.5-2.393,1.501-.43.774-.645,1.682-.645,2.726,0,.846.157,1.624.471,2.335.217.488.546.882.986,1.182.439.3.94.449,1.5.449,1.344,0,2.279-.742,2.806-2.225.019-.053.029-.109.029-.167,0-.15-.072-.259-.217-.327ZM239.286,17.44c.256-1.189.662-1.784,1.218-1.784.367,0,.551.244.551.733,0,.372-.111.771-.334,1.196-.164.31-.384.586-.66.83s-.6.415-.972.511c.014-.459.08-.955.196-1.486Z"/>
      <path class="st0" d="M246.985,21.84c0-.072-.028-.143-.083-.214-.056-.07-.129-.105-.221-.105-.024,0-.072.013-.145.04-.073.027-.138.04-.196.04-.329,0-.575-.227-.74-.681-.106-.28-.168-.58-.185-.899-.017-.319-.025-.573-.025-.762,0-2.987.099-4.934.297-5.843.102-.45.254-.747.457-.892-.164-.261-.374-.482-.627-.663-.254-.181-.533-.272-.837-.272-.522,0-.882.491-1.081,1.472-.13.624-.201,1.339-.21,2.146-.015.716-.022,1.825-.022,3.328,0,1.421.206,2.463.616,3.125.382.609.906.914,1.573.914.464,0,.818-.068,1.062-.203.244-.136.366-.312.366-.53Z"/>
      <path class="st0" d="M250.65,22.37c.244-.136.366-.312.366-.53,0-.072-.028-.143-.083-.214-.056-.07-.13-.105-.221-.105-.024,0-.072.013-.145.04-.073.027-.138.04-.196.04-.329,0-.575-.227-.74-.681-.106-.28-.168-.58-.185-.899-.017-.319-.025-.573-.025-.762,0-2.987.099-4.934.297-5.843.102-.45.254-.747.457-.892-.164-.261-.374-.482-.627-.663-.254-.181-.533-.272-.837-.272-.522,0-.882.491-1.081,1.472-.13.624-.201,1.339-.21,2.146-.015.716-.022,1.825-.022,3.328,0,1.421.206,2.463.616,3.125.381.609.906.914,1.573.914.464,0,.818-.068,1.062-.203Z"/>
      <path class="st0" d="M253.627,21.63v-1.457c0-1.769.271-2.98.812-3.632.159-.193.312-.29.456-.29.324,0,.486.322.486.964,0,.493-.004.896-.011,1.211-.007.314-.011.764-.011,1.348,0,.629.053,1.197.159,1.704.155.73.505,1.095,1.051,1.095.45,0,.674-.283.674-.848,0-.15-.007-.364-.022-.642-.014-.278-.022-.53-.022-.758,0-.464.015-.897.043-1.298.019-.314.029-.624.029-.928,0-.681-.056-1.228-.167-1.639-.208-.764-.725-1.145-1.552-1.145-.967,0-1.629.479-1.987,1.436,0-.73.123-1.203.37-1.421-.14-.174-.304-.324-.493-.45-.256-.169-.536-.254-.841-.254-.415,0-.72.244-.914.732-.145.353-.229.809-.253,1.37-.015.319-.022.667-.022,1.044,0,.686.029,1.535.087,2.545.029.566.068.952.116,1.16.077.319.243.581.497.787.254.205.53.308.83.308.454,0,.681-.314.681-.943Z"/>
      <path class="st0" d="M259.63,22.254c.44.3.94.449,1.501.449,1.344,0,2.279-.742,2.806-2.225.019-.053.029-.109.029-.167,0-.15-.072-.259-.217-.327-.053-.024-.111-.036-.174-.036-.16,0-.266.071-.319.211-.382,1.015-.899,1.522-1.552,1.522-.624,0-1.037-.334-1.24-1-.078-.246-.13-.566-.159-.957.512-.048.973-.206,1.381-.472.408-.266.747-.595,1.015-.989.268-.394.44-.753.515-1.077.075-.324.112-.587.112-.79,0-.662-.242-1.169-.725-1.522-.329-.242-.793-.362-1.392-.362-1.044,0-1.842.5-2.393,1.501-.43.774-.645,1.682-.645,2.726,0,.846.157,1.624.471,2.335.217.488.546.882.986,1.182ZM260.485,17.44c.256-1.189.662-1.784,1.218-1.784.367,0,.551.244.551.733,0,.372-.111.771-.333,1.196-.164.31-.384.586-.66.83-.275.244-.599.415-.972.511.015-.459.08-.955.196-1.486Z"/>
      <path class="st0" d="M266.975,17.94c-.411-.261-.689-.466-.834-.616-.169-.169-.254-.369-.254-.602,0-.28.111-.547.334-.801.222-.254.486-.381.79-.381.324,0,.587.123.79.369.203.247.304.51.304.791.174-.024.324-.131.449-.319.087-.126.131-.256.131-.391,0-.377-.208-.713-.624-1.008-.329-.227-.742-.341-1.24-.341-.764,0-1.405.218-1.922.653-.541.454-.812,1.017-.812,1.689,0,.474.191.914.573,1.32.275.295.624.603,1.048.925.423.321.7.557.83.707.13.15.196.348.196.594,0,.343-.142.607-.428.79-.266.174-.592.261-.979.261-.242,0-.464-.058-.667-.174-.082-.048-.155-.072-.218-.072-.136,0-.242.063-.319.188-.039.063-.058.128-.058.196,0,.135.06.239.182.312.594.362,1.22.544,1.878.544.474,0,.905-.108,1.294-.323.389-.215.699-.495.931-.841.232-.346.348-.717.348-1.113,0-.614-.223-1.131-.667-1.551-.295-.275-.648-.544-1.058-.805Z"/>
      <path class="st0" d="M271.999,17.94c-.411-.261-.689-.466-.834-.616-.169-.169-.254-.369-.254-.602,0-.28.111-.547.334-.801.222-.254.486-.381.79-.381.324,0,.587.123.79.369.203.247.304.51.304.791.174-.024.324-.131.449-.319.087-.126.131-.256.131-.391,0-.377-.208-.713-.624-1.008-.329-.227-.742-.341-1.24-.341-.764,0-1.405.218-1.922.653-.541.454-.812,1.017-.812,1.689,0,.474.191.914.573,1.32.275.295.624.603,1.047.925.423.321.7.557.83.707.13.15.196.348.196.594,0,.343-.142.607-.428.79-.266.174-.592.261-.979.261-.242,0-.464-.058-.667-.174-.082-.048-.155-.072-.218-.072-.136,0-.242.063-.319.188-.039.063-.058.128-.058.196,0,.135.06.239.182.312.594.362,1.22.544,1.878.544.474,0,.905-.108,1.294-.323.389-.215.699-.495.931-.841.232-.346.348-.717.348-1.113,0-.614-.223-1.131-.667-1.551-.295-.275-.648-.544-1.058-.805Z"/>
      <path class="st0" d="M237.68,24.891c.104-.059.221-.088.351-.088.107,0,.205.021.294.063.089.042.163.104.223.188l.119-.087c-.069-.101-.158-.177-.268-.229-.11-.052-.233-.078-.367-.078-.162,0-.308.036-.436.107-.129.072-.229.172-.302.302-.073.129-.109.276-.109.441,0,.163.036.309.109.438.072.129.173.231.302.303.128.072.274.109.436.109.135,0,.257-.026.367-.079.11-.052.199-.129.268-.229l-.119-.087c-.06.084-.134.146-.223.188-.089.042-.187.063-.294.063-.131,0-.248-.03-.351-.088-.104-.059-.185-.142-.244-.249-.059-.107-.088-.23-.088-.369s.03-.262.088-.369c.059-.107.14-.19.244-.249Z"/>
      <path class="st0" d="M240.202,24.767c-.128-.072-.27-.109-.429-.109s-.301.037-.428.109c-.128.073-.228.174-.3.303-.073.13-.109.276-.109.438,0,.163.036.309.109.438.073.129.173.231.3.303.127.073.27.109.428.109s.301-.036.429-.109c.127-.073.227-.174.3-.303.072-.129.109-.275.109-.438,0-.162-.036-.308-.109-.438-.073-.129-.173-.23-.3-.303ZM240.359,25.875c-.059.107-.139.19-.241.25s-.217.09-.345.09-.243-.03-.345-.09c-.102-.06-.182-.143-.241-.25-.059-.107-.088-.229-.088-.366,0-.137.029-.259.088-.365.059-.107.139-.19.241-.251.102-.06.217-.09.345-.09s.244.03.345.09c.101.06.182.143.241.251.059.107.088.229.088.365,0,.138-.029.259-.088.366Z"/>
      <path class="st0" d="M241.421,24.891c.104-.059.221-.088.351-.088.107,0,.205.021.294.063.089.042.163.104.223.188l.119-.087c-.069-.101-.158-.177-.268-.229-.11-.052-.232-.078-.367-.078-.162,0-.308.036-.436.107-.128.072-.229.172-.302.302-.073.129-.109.276-.109.441,0,.163.036.309.109.438.073.129.173.231.302.303.129.072.274.109.436.109.135,0,.257-.026.367-.079.11-.052.199-.129.268-.229l-.119-.087c-.06.084-.134.146-.223.188-.089.042-.187.063-.294.063-.13,0-.247-.03-.351-.088-.104-.059-.185-.142-.244-.249-.059-.107-.088-.23-.088-.369s.03-.262.088-.369c.059-.107.14-.19.244-.249Z"/>
      <path class="st0" d="M242.969,24.004c-.036,0-.067.013-.093.039-.026.025-.038.057-.038.093,0,.036.013.067.038.091.026.025.056.037.093.037.036,0,.067-.013.093-.038.025-.026.038-.057.038-.093,0-.036-.013-.067-.038-.092-.026-.024-.057-.037-.093-.037Z"/>
      <rect class="st0" x="242.889" y="24.671" width=".16" height="1.675"/>
      <path class="st0" d="M244.545,24.658c-.156,0-.292.033-.406.1-.114.067-.201.158-.258.276v-.363h-.154v1.675h.16v-.892c0-.199.057-.357.17-.475.114-.118.269-.176.465-.176.171,0,.304.049.399.148.095.099.143.242.143.43v.966h.16v-.979c0-.229-.061-.404-.183-.526-.122-.122-.288-.183-.497-.183Z"/>
      <path class="st0" d="M246.451,24.658c-.128,0-.251.021-.369.063-.118.042-.218.1-.302.175l.08.116c.07-.064.157-.116.258-.154.102-.038.208-.058.319-.058.163,0,.286.041.371.122.084.081.127.2.127.356v.134h-.574c-.218,0-.377.044-.477.13-.099.086-.149.199-.149.338,0,.143.054.259.162.347.108.088.255.132.441.132.143,0,.267-.027.369-.082.102-.055.18-.131.234-.229v.298h.154v-1.062c0-.205-.056-.36-.167-.467-.111-.106-.271-.159-.478-.159ZM246.935,25.852c-.049.122-.123.215-.22.279-.097.064-.215.096-.354.096-.148,0-.262-.031-.343-.095-.082-.063-.122-.149-.122-.258,0-.105.037-.187.11-.247.074-.06.193-.09.358-.09h.571v.315Z"/>
      <path class="st0" d="M248.894,24.891c.104-.059.221-.088.351-.088.107,0,.205.021.294.063.089.042.163.104.223.188l.118-.087c-.068-.101-.158-.177-.268-.229-.11-.052-.232-.078-.367-.078-.162,0-.308.036-.436.107-.128.072-.229.172-.302.302-.073.129-.109.276-.109.441,0,.163.036.309.109.438.073.129.173.231.302.303.128.072.274.109.436.109.135,0,.257-.026.367-.079.11-.052.2-.129.268-.229l-.118-.087c-.06.084-.134.146-.223.188-.089.042-.187.063-.294.063-.13,0-.247-.03-.351-.088-.104-.059-.185-.142-.244-.249-.059-.107-.088-.23-.088-.369s.029-.262.088-.369c.059-.107.14-.19.244-.249Z"/>
      <path class="st0" d="M251.416,24.767c-.127-.072-.27-.109-.428-.109s-.301.037-.428.109c-.128.073-.227.174-.3.303-.073.13-.109.276-.109.438,0,.163.036.309.109.438.072.129.172.231.3.303.127.073.27.109.428.109s.301-.036.428-.109c.128-.073.228-.174.3-.303.073-.129.109-.275.109-.438,0-.162-.036-.308-.109-.438-.073-.129-.173-.23-.3-.303ZM251.573,25.875c-.059.107-.139.19-.24.25-.102.06-.217.09-.345.09s-.243-.03-.345-.09c-.102-.06-.182-.143-.241-.25s-.088-.229-.088-.366c0-.137.029-.259.088-.365.059-.107.139-.19.241-.251.101-.06.216-.09.345-.09s.243.03.345.09c.101.06.182.143.24.251.059.107.089.229.089.365,0,.138-.029.259-.089.366Z"/>
      <path class="st0" d="M253.141,24.658c-.156,0-.291.033-.406.1-.115.067-.201.158-.258.276v-.363h-.154v1.675h.16v-.892c0-.199.057-.357.17-.475.113-.118.269-.176.465-.176.171,0,.304.049.399.148.095.099.143.242.143.43v.966h.161v-.979c0-.229-.061-.404-.183-.526-.122-.122-.288-.183-.497-.183Z"/>
      <path class="st0" d="M255.279,25.523c-.08-.027-.186-.052-.316-.075-.117-.024-.209-.046-.274-.066-.065-.02-.121-.051-.165-.093-.045-.042-.067-.1-.067-.174,0-.095.04-.17.119-.228.079-.057.197-.087.353-.087.092,0,.182.013.269.039.088.026.166.063.234.112l.074-.128c-.066-.049-.152-.089-.257-.119-.105-.03-.211-.045-.318-.045-.203,0-.36.043-.47.13-.11.086-.165.196-.165.329,0,.109.029.195.087.257.057.062.127.107.208.135.081.028.188.054.321.077.113.021.202.042.267.061.064.019.118.049.162.09.043.041.066.096.066.167,0,.099-.04.175-.121.231-.08.056-.205.083-.374.083-.117,0-.231-.019-.338-.057-.108-.039-.196-.087-.265-.145l-.074.129c.068.062.164.113.286.154.122.041.25.061.385.061.209,0,.372-.042.488-.125s.173-.195.173-.334c0-.105-.028-.187-.083-.247-.056-.06-.124-.103-.204-.13Z"/>
      <path class="st0" d="M256.328,24.891c.104-.059.221-.088.352-.088.107,0,.205.021.294.063.089.042.163.104.223.188l.119-.087c-.068-.101-.158-.177-.268-.229-.11-.052-.233-.078-.367-.078-.162,0-.308.036-.436.107-.129.072-.229.172-.302.302-.073.129-.109.276-.109.441,0,.163.036.309.109.438.073.129.173.231.302.303.128.072.274.109.436.109.135,0,.257-.026.367-.079.11-.052.2-.129.268-.229l-.119-.087c-.06.084-.134.146-.223.188-.089.042-.187.063-.294.063-.131,0-.248-.03-.352-.088-.104-.059-.185-.142-.244-.249-.059-.107-.088-.23-.088-.369s.03-.262.088-.369c.059-.107.14-.19.244-.249Z"/>
      <path class="st0" d="M257.877,24.004c-.037,0-.068.013-.093.039-.026.025-.039.057-.039.093,0,.036.013.067.039.091.026.025.056.037.093.037.036,0,.067-.013.093-.038.026-.026.039-.057.039-.093,0-.036-.013-.067-.039-.092-.025-.024-.056-.037-.093-.037Z"/>
      <rect class="st0" x="257.797" y="24.671" width=".16" height="1.675"/>
      <path class="st0" d="M259.663,24.766c-.121-.072-.257-.108-.409-.108s-.289.036-.411.109c-.122.073-.218.174-.287.304-.07.129-.104.275-.104.438,0,.165.037.311.111.44.074.129.176.229.306.302.131.072.279.109.446.109.128,0,.248-.024.358-.071.11-.047.202-.114.274-.203l-.093-.105c-.062.077-.139.135-.232.175-.093.04-.194.059-.303.059-.133,0-.252-.027-.358-.083-.106-.056-.19-.134-.252-.236-.062-.101-.095-.218-.099-.348h1.441l.003-.045c0-.163-.035-.308-.105-.436-.07-.129-.165-.228-.286-.3ZM258.612,25.422c.009-.12.041-.227.098-.322.056-.095.132-.169.226-.221.094-.052.2-.079.318-.079s.224.027.317.08c.094.054.17.127.228.222.058.094.09.201.097.32h-1.284Z"/>
      <path class="st0" d="M261.368,24.658c-.156,0-.291.033-.406.1-.115.067-.201.158-.258.276v-.363h-.154v1.675h.16v-.892c0-.199.057-.357.17-.475.114-.118.269-.176.465-.176.171,0,.304.049.399.148.095.099.143.242.143.43v.966h.161v-.979c0-.229-.061-.404-.183-.526-.122-.122-.288-.183-.497-.183Z"/>
      <path class="st0" d="M263.213,26.221c-.103,0-.18-.028-.233-.085-.052-.056-.079-.14-.079-.248v-1.078h.532v-.138h-.532v-.366h-.16v.366h-.308v.138h.308v1.094c0,.144.039.255.118.336.08.08.192.12.337.12.066,0,.13-.01.191-.031.061-.02.112-.05.152-.088l-.067-.112c-.068.062-.155.093-.26.093Z"/>
      <path class="st0" d="M264.954,24.766c-.121-.072-.257-.108-.409-.108s-.289.036-.411.109c-.122.073-.218.174-.287.304-.07.129-.104.275-.104.438,0,.165.037.311.111.44.073.129.176.229.306.302.131.072.279.109.446.109.129,0,.248-.024.358-.071.11-.047.202-.114.274-.203l-.093-.105c-.062.077-.14.135-.232.175-.093.04-.194.059-.303.059-.133,0-.252-.027-.358-.083-.106-.056-.19-.134-.252-.236-.062-.101-.095-.218-.099-.348h1.441l.003-.045c0-.163-.035-.308-.105-.436-.07-.129-.165-.228-.286-.3ZM263.903,25.422c.009-.12.041-.227.098-.322.056-.095.132-.169.226-.221.094-.052.2-.079.318-.079s.223.027.317.08c.094.054.17.127.228.222.058.094.09.201.097.32h-1.284Z"/>
      <path class="st0" d="M266.853,24.892c-.335,0-.607.272-.607.607s.272.607.607.607.607-.272.607-.607-.272-.607-.607-.607Z"/>
      <path class="st0" d="M235.694,24.892c-.336,0-.607.272-.607.607s.272.607.607.607.607-.272.607-.607-.272-.607-.607-.607Z"/>
    </g>
    <g>
      <g>
        <path class="st0" d="M327.989,7.233c1.012,1.112,1.901,2.338,2.602,3.674.236.45.947,1.874,1.003,2.299.052.393-.378.506-.58.222-.203-.285-.465-1.188-.658-1.586-4.148-8.566-14.336-12.324-23.039-8.218-4.183,1.974-7.311,5.538-8.948,9.846-.13.178-.495.112-.535-.103-.089-.474,1.356-3.105,1.695-3.645,6.295-10.059,20.468-11.274,28.46-2.49Z"/>
        <path class="st0" d="M323.361,9.617c-6.206-5.537-15.546-3.954-19.835,3.05-.229.375-.402,1.201-.902,1.104-.454-.136.145-1.039.289-1.297,4.903-8.835,17.84-9.052,23.254-.578.194.304.993,1.523.782,1.822-.1.091-.297.094-.414.055-.098-.033-.599-1.055-.718-1.246-.693-1.109-1.482-2.042-2.455-2.91Z"/>
      </g>
      <path class="st0" d="M317.169,13.355c.534.104,1.113.338,1.556.653.108.077.494.299.329.477-.086.093-1.442-.904-1.85-.826-.172.033-.392.917-.64,1.176-.197.206-1.142.768-1.369.603-.458-.333.907-1.862,1.405-1.865-.043-.155-.402-.161-.523-.139-.234.041-.432.538-.6.735-.748.88-.897.601-1.792.943-.124.047-.438.409-.449.046-.01-.365.535-.996.803-1.235l.457-.348c-1.419.144-1.908,1.519-3.51,1.09-.24-.064-.93-.373-.456-.605.355-.173,1.231-.462,1.615-.489.527-.037,1.085.211,1.51-.103-.501-.036-1.425-.65-1.516-1.154-.055-.304.391-.224.639-.213.62.028,2.36.167,2.21,1.051h.701s-.433-.583-.433-.583c-.17-.304-.377-.854.05-1.035.09-.019.142.036.21.073.197.107,1.336.975,1.465,1.129.148.177.185.394.189.617ZM316.879,13.222l-.207-.388-1.335-.944c.027.763.813,1.332,1.542,1.332ZM314.698,13.216c.036-.089.066-.156.028-.253-.2-.505-1.719-.481-2.193-.581-.135.118.639.642.75.687.43.173.96.168,1.416.147ZM315.617,13.434c-.166-.123-1.083.465-1.256.601-.084.066-.724.654-.637.73.923.071,1.46-.63,1.893-1.331ZM315.478,15.116c.693-.149,1.131-.643,1.261-1.332-.53.297-1.126.703-1.261,1.332ZM312.953,13.855c-.683-.064-1.259.059-1.878.33-.084.037-.207.039-.226.159.722.166,1.603.141,2.104-.489Z"/>
      <path class="st0" d="M313.759,16.729c1.131.16,1.531,1.351.853,2.22l-.958.443c.472.32.923.743,1.354,1.136.069.063.15.062.118.197h-1.297c-.102,0-1.279-1.239-1.509-1.366l-.7-.036v1.297c-.243.215-.67.061-.982.105v-3.997c.965.098,2.188-.132,3.121,0ZM311.62,18.412h2.139c.157,0,.246-.497.141-.632-.041-.069-.495-.209-.562-.209h-1.718v.842Z"/>
      <polygon class="st0" points="319.755 16.729 319.748 17.564 316.879 17.57 316.88 18.272 319.474 18.272 319.474 19.184 316.81 19.184 316.81 19.815 319.755 19.815 319.755 20.726 315.898 20.726 315.898 16.729 319.755 16.729"/>
      <path class="st0" d="M322.052,16.677c.957-.13,1.989.135,2.752.719l-.677.584c-.378-.18-.672-.372-1.109-.413-.403-.037-1.575-.11-1.307.534.362.451,2.84-.091,3.076,1.063.431,2.107-3.37,1.916-4.33.825l.734-.527c.58.391,1.586.566,2.257.364.207-.062.506-.25.31-.475-.349-.399-2.828.15-3.076-1.061-.197-.958.49-1.495,1.37-1.614Z"/>
      <path class="st0" d="M298.296,20.726l2.28-3.927.563-.076,2.417,4.002h-1.017c-.199-.157-.332-.638-.492-.771-.209-.174-1.768-.039-2.145-.041l-.59.811h-1.017ZM301.452,19.043c-.018-.148-.451-.91-.526-.91l-.596.91h1.122Z"/>
      <path class="st0" d="M327.454,16.679c.844-.108,2.172.031,2.68.784l-.676.521c-.599-.371-1.366-.605-2.058-.377-1.338.44-1.048,2.179.382,2.281.654.046,1.099-.144,1.669-.413l.652.481c.093.185-.374.42-.503.482-1.741.836-4.343.217-4.018-2.124.121-.868,1.043-1.529,1.872-1.634Z"/>
      <path class="st0" d="M309.937,17.571h-2.875v.842h2.665s0,.912,0,.912h-2.665v1.403c-.311-.044-.739.11-.982-.105v-3.892s3.822,0,3.822,0l.088.102-.053.739Z"/>
      <path class="st0" d="M294.439,16.729v3.086h3.156c-.04.291.105.689-.105.912h-4.032s0-3.997,0-3.997h.982Z"/>
      <path class="st0" d="M330.625,20.726l2.325-3.986.588-.017,2.346,4.002-.982-.034c-.331-.304-.281-.761-.802-.811-.566-.055-1.237.037-1.814.017l-.539.828h-1.122ZM332.729,19.043h1.122s-.527-.912-.527-.912c-.141-.029-.088.042-.121.092-.172.26-.331.544-.475.82Z"/>
      <path class="st0" d="M332.151,22.567c.095.132.089.266.072.419-.276,2.555-2.54,6.408-4.261,8.297-9.273,10.178-26.201,6.602-30.37-6.521-.079-.25-.423-1.381-.414-1.55.011-.204.325-.372.513-.236.169.122.352,1.095.445,1.381,1.861,5.746,6.276,10.161,12.191,11.653,9.327,2.351,18.379-3.112,21.033-12.197.132-.451.144-1.642.789-1.245Z"/>
      <path class="st0" d="M305.473,28.346c6.454,6.542,17.525,4.464,21.167-3.925.143-.329.463-1.43.584-1.589.041-.054.085-.113.154-.132.193-.031.409.035.427.25.019.242-.412,1.322-.535,1.611-4.209,9.884-17.74,11.226-23.801,2.318-.583-.857-1.662-2.815-1.804-3.808-.077-.537.361-.721.587-.305.234.43.411,1.318.659,1.866.591,1.305,1.557,2.697,2.562,3.715Z"/>
      <path class="st0" d="M319.335,34.121c-.155.155.494,1.095-.062.973l-.633-1.909c.738-.623,1.964-.303,1.267.761.092.223.685.456.62.7-.122.454-.897-.718-1.192-.525ZM319.738,33.683c.22-.604-.345-.552-.755-.403l.143.558.611-.155Z"/>
      <path class="st0" d="M308.725,33.399c-.135.107-.312.088-.47.092l.069.981-.32-.066c-.092-.372.068-.943-.347-1.126-.065-.018-.285.918-.595.77-.012-.122,0-.234.033-.352.048-.169.543-1.263.637-1.396.23-.326.997.066,1.116.348.086.204.053.609-.123.749ZM307.979,32.513l-.186.488c.192.132.497.315.713.145l.102-.185c.079-.228-.523-.523-.629-.447Z"/>
      <path class="st0" d="M316.932,33.435c.685-.113.865.44.92,1.01.033.336.079.736-.205.97-.451.371-1.048.109-1.183-.424-.136-.536-.252-1.438.467-1.556ZM317.068,33.718c-.595.015-.382,1.198-.193,1.425.142.171.618.16.692-.089.087-.291-.063-1.346-.499-1.335Z"/>
      <path class="st0" d="M310.772,33.146l.113,2.099-.211.067c-.199-.377.013-.583-.57-.629-.406-.032-.26.349-.622.349-.103-.083-.113-.087-.077-.215.025-.088.882-1.405.99-1.536s.201-.178.377-.136ZM310.568,33.701c-.167-.038-.113.028-.156.091-.052.076-.364.576-.334.609l.49.071v-.771Z"/>
      <path class="st0" d="M324.243,32.788c-.355.07-.333-.297-.68-.156-.702.284-.045.643-.546.857-.113-.024-.63-2.073-.527-2.174.101-.011.183-.004.277.038.082.037,1.341,1.043,1.404,1.12.088.108.082.184.071.314ZM322.841,31.807c.105.437.107,1.106.629.526l-.629-.526Z"/>
      <path class="st0" d="M314.986,33.981v1.753s-.212.038-.212.038c-.275-.121-.08-1.468-.138-1.792l-.375-.01-.116-.234c.219-.08,1.263-.217,1.332,0l-.068.211-.423.033Z"/>
      <path class="st0" d="M306.976,31.541c.237.429-.343.214-.544.056-.235.368-.58,1.121-.882,1.399-.094.087-.104.125-.207.005-.074-.093-.033-.184.003-.279.103-.272.772-1.004.795-1.242.002-.153-.458-.319-.271-.514.093-.096,1.076.52,1.107.575Z"/>
      <path class="st0" d="M312.743,33.841c-.069.486-.073,1.12-.206,1.582-.116.401-.29.27-.291-.075-.002-.432.178-1.019.209-1.468-.048-.19-.587.002-.483-.391.251.01,1.184.026,1.299.208l-.035.179-.493-.037Z"/>
      <path class="st0" d="M321.929,34.121c-.114.001-.225.033-.314-.071-.058-.068-.754-1.516-.778-1.608-.032-.126-.032-.128.076-.213.133-.024.165.02.236.114.15.197.647,1.243.741,1.503.034.095.056.175.039.276Z"/>
    </g>
  </g>
</svg>