<?xml version="1.0" encoding="UTF-8"?>
<svg id="Layer_1" xmlns="http://www.w3.org/2000/svg" version="1.1" viewBox="0 0 296.6 150">
  <!-- Generator: Adobe Illustrator 29.0.0, SVG Export Plug-In . SVG Version: 2.1.0 Build 186)  -->
  <defs>
    <style>
      .st0 {
        fill: none;
      }

      .st1 {
        fill: blue;
      }
    </style>
  </defs>
  <rect class="st0" x="-75" y="-143.2" width="1080" height="1920"/>
  <g>
    <path class="st1" d="M102.6,91.8c-1.9,13.6-8.7,24-25,24-23,0-29.7-20.1-29.7-40.7,0-20.6,6.8-41.2,29.7-41.2,12.9,0,21.2,7.3,23.7,20h46.9C144.8,33.5,134.3,12.8,113.9,0v14.1c-9.3-5.9-21.4-9.5-36.8-9.5-16.8,0-31.2,4.8-42.5,13.2V0C12.8,16.3,0,43,0,75c0,31.3,12.8,58.2,34.6,74.7v-17.8c11.3,8.6,25.7,13.5,42.5,13.5,13.8,0,26.5-2.9,36.8-8.9v13.5c19-11.1,31.8-30.2,34.4-58.2h-45.6Z"/>
    <path class="st1" d="M250.9,91.8c-1.9,13.6-8.7,24-25,24-23,0-29.7-20.1-29.7-40.7,0-20.6,6.8-41.2,29.7-41.2,12.9,0,21.2,7.3,23.7,20h46.9c-3.4-20.3-13.9-41-34.3-53.8v14.1c-9.3-5.9-21.4-9.5-36.8-9.5-16.8,0-31.2,4.8-42.5,13.2V0c-21.9,16.3-34.6,43-34.6,75,0,31.3,12.8,58.2,34.6,74.7v-17.8c11.3,8.6,25.7,13.5,42.5,13.5,13.8,0,26.5-2.9,36.8-8.9v13.5c19-11.1,31.8-30.2,34.4-58.2h-45.6Z"/>
  </g>
</svg>