<?xml version="1.0" encoding="UTF-8"?>
<svg id="Arte" xmlns="http://www.w3.org/2000/svg" version="1.1" viewBox="0 0 333.198 44.777">
  <!-- Generator: Adobe Illustrator 29.0.0, SVG Export Plug-In . SVG Version: 2.1.0 Build 186)  -->
  <defs>
    <style>
      .st0 {
        fill: blue;
      }
    </style>
  </defs>
  <g>
    <path class="st0" d="M333.198,44.777c-.121,0-.225,0-.329,0-8.148,0-16.296,0-24.443,0q-.37,0-.371-.381c0-14.672,0-29.344,0-44.017q0-.38.371-.38c8.148,0,16.296,0,24.443,0h.328v44.777ZM312.978,32.256c.144-.14.14-.237-.021-.348-.341-.236-.513-.56-.418-.983.093-.418.387-.646.781-.742.622-.153,1.223-.051,1.758.283.471.294.896.66,1.354.975.465.32.915.687,1.425.909,1.639.712,3.268.483,4.843-.23,1.158-.524,1.96-1.458,2.659-2.488.561-.826,1.092-1.674,1.69-2.473.572-.766,1.346-1.237,2.328-1.31.831-.061,1.698.231,1.965,1.09.008.027.036.048.06.078.272-.567.188-1.23-.266-1.683-.284-.283-.606-.561-.964-.732-.867-.413-1.759-.775-2.651-1.132-1.007-.403-1.774-1.06-2.217-2.053-.222-.498-.412-1.016-.549-1.543-.353-1.354-.842-2.641-1.668-3.783-.09-.125-.186-.245-.28-.367-.042.101-.025.176-.023.251.02.651.108,1.31.039,1.951-.112,1.052-.699,1.892-1.416,2.639-.526.548-1.074,1.076-1.594,1.631-.477.51-.722,1.121-.715,1.831.003.291-.022.583-.055.872-.199,1.76-1.074,3.048-2.707,3.762-.636.278-1.315.458-1.966.703-.526.197-1.08.362-1.553.652-.921.565-.821,1.741.16,2.241ZM312.44,32.121c-.04-.059-.067-.103-.098-.144-.532-.704-.425-1.56.303-2.063.322-.222.696-.384,1.065-.519.737-.269,1.497-.475,2.229-.756,1.176-.45,2.094-1.202,2.587-2.399.311-.755.421-1.551.422-2.359,0-.526.137-1,.442-1.416.224-.305.48-.589.737-.868.575-.626.45-1.395-.302-1.783-.14-.072-.291-.131-.443-.172-.877-.235-1.775-.263-2.65-.066-1.805.407-3.597.876-5.397,1.306-.233.056-.356.17-.459.375-.634,1.266-1.417,2.429-2.456,3.401-.152.142-.202.286-.202.486.004,3.372.003,6.745.003,10.117v.279c.023.012.047.024.07.036,1.381-1.15,2.761-2.299,4.149-3.455ZM312.947,7.973c.046,1.435.092,2.844.137,4.239.935.099,1.916-.012,2.261,1.097.793-.106,1.558-.208,2.318-.309.027-.392.046-.762.078-1.131.087-1.016.483-1.848,1.383-2.404.933-.576,1.849-1.177,2.773-1.768.085-.054.166-.115.25-.173q-.234-.3-.573-.317c-.542-.028-.976-.619-.848-1.136.02-.083-.023-.201-.073-.279-.393-.615-.587-1.271-.376-1.992.281-.964.994-1.479,1.918-1.721.913-.239,1.73-.053,2.327.721.217.281.353.628.508.953.057.119.091.185.25.207.138.019.314.148.373.275.16.346.141.73-.059,1.045-.18.284-.106.524-.046.793.037-.006.061-.002.07-.012.029-.032.05-.07.079-.103.207-.236.385-.512.63-.698.343-.259.725-.476,1.112-.666,1.805-.888,3.537-1.889,5.139-3.116.356-.272.538-.527.486-.977-.04-.349-.01-.354-.356-.354-5.379,0-10.758,0-16.137,0-.091,0-.183.008-.365.018.693.484.866,1.108.822,1.83-.067,1.077-.852,1.841-1.927,1.861-.062.001-.165.027-.177.064-.126.396-.325.778-.061,1.211.296.486.147.864-.383,1.126-.264.131-.49.285-.539.625-.035.241-.139.473-.215.708q-.185.571-.78.383ZM333.035,1.356c-.137.096-.224.153-.307.216-1.083.811-2.182,1.599-3.384,2.231-.875.46-1.756.911-2.617,1.398-.285.162-.522.414-.764.644-.131.125-.147.278-.022.449.317.436.609.89.928,1.325.108.147.121.259.013.401-.122.161-.233.331-.385.551.133.11.257.224.391.322.276.202.344.467.335.803-.05,1.945-.135,3.891-.099,5.834.03,1.642.206,3.281.322,4.92.015.214.054.427.085.66,1.768-.788,3.576-.824,5.451-.581-.055-.153-.09-.269-.138-.38-.659-1.543-1.309-3.09-1.982-4.628-.83-1.896-1.383-3.846-1.354-5.943.014-1.036.306-1.942,1.019-2.679.749-.774,1.542-1.507,2.327-2.246.141-.133.209-.261.207-.455-.008-.841-.003-1.682-.004-2.523,0-.086-.011-.172-.021-.322ZM308.237,13.067c.061-.053.092-.069.109-.095.515-.781,1.273-1.154,2.172-1.259.214-.025.281-.107.314-.293.321-1.789.65-3.577.967-5.367.079-.447.302-.757.728-.93.417-.169.814-.393,1.239-.534.436-.144.406-.531.524-.844.085-.226-.177-.248-.252-.384-.038-.069-.101-.123-.145-.189-.551-.841-.357-2.162.41-2.809.06-.051.116-.107.233-.215h-.376c-1.857,0-3.714,0-5.572,0q-.368,0-.369.36c0,4.081,0,8.161,0,12.242,0,.092.009.184.016.317ZM328.411,36.087c.159.01.271.023.382.023,1.282.001,2.565.001,3.847,0q.416,0,.416-.418c0-4.851,0-9.701,0-14.552,0-.088.013-.181-.009-.264-.017-.063-.081-.112-.16-.213-.027.116-.041.157-.046.199-.063.592-.268,1.127-.607,1.619-.422.611-.826,1.235-1.237,1.853-.082.124-.16.25-.243.38.053.05.089.087.129.121.879.738,1.032,1.429.626,2.494-.716,1.88-1.417,3.766-2.096,5.66-.36,1.004-.659,2.029-1.002,3.097ZM333.032,4.764c-.068.042-.109.06-.139.088-.693.657-1.397,1.302-2.073,1.977-.825.824-1.177,1.826-1.147,3.002.041,1.629.35,3.194.976,4.693.671,1.606,1.371,3.199,2.057,4.798.095.222.182.447.273.67.018-.004.035-.008.053-.013V4.764ZM317.851,12.976c.089,0,.133.004.176,0,.606-.06,1.212-.118,1.818-.182.959-.101,1.669.272,2.127,1.118.147.272.274.554.422.826.117.215.23.438.38.629.697.89,1.274,1.847,1.677,2.906.02.053.052.1.1.191.021-.078.034-.108.036-.138.065-.861-.003-1.713-.181-2.556-.488-2.308-.902-4.627-1.099-6.98-.022-.264-.078-.489-.352-.624-.17-.084-.317-.226-.455-.362-.129-.127-.229-.142-.387-.039-.941.612-1.877,1.235-2.84,1.81-1.317.787-1.391,2.061-1.421,3.402ZM315.348,13.97c1.092.027,2.175.148,3.207.55,1.026.4,1.948.967,2.761,1.718-.104.032-.186.022-.262-.005-.726-.251-1.465-.281-2.22-.167-.917.138-1.774.454-2.613.834q-.452.205-.366.687c.006.032.023.062.039.105.513-.167,1.01-.355,1.521-.484.31-.078.646-.104.964-.082.423.03.798.404.871.784.088.458-.083.8-.538,1.045-.154.083-.324.138-.486.208-.056.024-.109.056-.225.117.153.008.233.004.309.018.458.085.93.128,1.369.271.703.228.937.6.961,1.343.001.032.01.063.018.105.039-.016.067-.019.083-.035.2-.2.403-.397.598-.603.947-1.002,1.481-2.164,1.386-3.572-.068-.999-.384-1.917-.886-2.776-.533-.912-1.142-1.201-2.189-1.064-.56.073-1.123.125-1.683.193-.762.092-1.524.18-2.283.291-.383.056-.38.078-.337.518ZM317.853,36.079c.111.013.186.03.261.03,1.539.001,3.078.005,4.616-.007.115,0,.272-.088.336-.184,1.483-2.21,2.958-4.426,4.426-6.646.07-.105.086-.261.087-.394.002-.486-.031-.972-.013-1.457.009-.226.107-.448.164-.672-.02-.015-.041-.029-.061-.044-.292.35-.608.683-.869,1.055-.441.63-.842,1.288-1.268,1.928-.604.905-1.297,1.726-2.232,2.31-.816.51-1.71.796-2.666.872-.292.023-.497.116-.678.367-.63.876-1.288,1.731-1.935,2.595-.052.069-.097.143-.169.248ZM326.494,36.073c.039.013.064.028.088.028.451.004.902-.003,1.352.013.221.008.317-.067.386-.286.882-2.774,1.738-5.558,2.873-8.244.029-.07.038-.154.036-.23-.016-.58-.358-1.065-.924-1.221-.309-.085-.644-.12-.965-.107-.883.038-1.494.542-1.593,1.405-.069.598.013,1.215.032,1.823.016.529.112,1.069.042,1.586-.122.897-.31,1.789-.534,2.667-.22.861-.521,1.7-.793,2.568ZM324.697,18.88c.006.102-.001.156.014.203.213.682.395,1.376.651,2.041.405,1.053,1.165,1.774,2.222,2.178.445.17.894.332,1.332.519.566.242,1.122.505,1.712.772.578-.89,1.187-1.781,1.74-2.704.174-.29.204-.668.289-1.009.036-.146-.027-.217-.193-.236-1.678-.194-3.312-.078-4.865.652-.15.07-.232.056-.248-.128-.033-.387-.073-.774-.111-1.161-.043-.436-.087-.872-.134-1.349-.793.271-1.58.302-2.407.222ZM325.362,7.926c-.448.902-1.131.899-1.925.583.041.367.067.682.114.994.237,1.579.467,3.159.726,4.735.187,1.139.525,2.256.497,3.426-.004.181.095.211.234.193.576-.074,1.15-.154,1.726-.228.263-.034.294-.181.283-.423-.044-1.024-.061-2.05-.089-3.075-.009-.342.041-.701-.045-1.023-.4-1.481-.837-2.952-1.265-4.426-.068-.234-.155-.462-.255-.757ZM320.962,6.149c-.172.441.311.961.715.859.19-.048.265.032.38.129.465.391.916.804,1.417,1.143.239.162.578.246.87.241.556-.01.793-.439.926-.912.174-.616.133-1.24.042-1.866-.02-.14.017-.31.085-.436.153-.287.208-.582.142-.895-.036-.17-.117-.313-.363-.265.028.127.077.239.067.345-.008.089-.068.206-.14.245-.052.028-.19-.031-.24-.091-.089-.106-.138-.245-.206-.368-.269-.484-.799-.587-1.205-.22-.332.301-.715.423-1.157.445-.231.011-.473.074-.681.174-.36.173-.481.544-.34.921.056.148.15.286.184.438.021.093-.01.258-.074.295-.079.045-.219.005-.324-.026-.044-.013-.065-.101-.097-.154ZM319.955,32.919c-1.234.064-2.267-.315-3.208-1.007-1.202,1.28-2.256,2.638-3.157,4.163.112.017.171.034.23.034,1.193.002,2.386.007,3.578-.007.115-.001.262-.098.336-.195.693-.905,1.375-1.819,2.058-2.731.046-.061.082-.128.162-.256ZM316.586,31.786c-.339-.264-.653-.539-.997-.769-.684-.456-1.318-.359-1.812.297-.248.328-.444.701-.627,1.072-.38.767-.722,1.553-1.107,2.318-.233.463-.519.9-.8,1.382.11.01.194.023.278.024.53.002,1.061-.005,1.591.004.18.003.281-.065.382-.215.554-.82,1.102-1.645,1.692-2.439.426-.572.914-1.098,1.4-1.674ZM313.333,12.368c-.626.046-1.224.142-1.772.442-1.01.553-1.164,1.548-.379,2.376.286.301.593.59.828.928.142.205.287.244.479.193,1.262-.34,2.153-1.12,2.618-2.34.238-.624-.054-1.181-.692-1.388-.347-.113-.722-.143-1.084-.211ZM327.549,29.519c-1.449,2.176-2.897,4.351-4.365,6.556.104.019.146.033.188.033.902.001,1.803-.001,2.704.004.167,0,.223-.089.273-.227.487-1.355.904-2.729,1.199-4.139.154-.734.15-1.47,0-2.226ZM311.16,20.731c.097-.013.149-.015.198-.028,1.875-.463,3.75-.92,5.622-1.393.537-.136,1.074-.287,1.591-.484.4-.153.569-.466.527-.773-.053-.381-.308-.69-.721-.745-.295-.039-.625-.028-.906.063-1.863.602-3.717,1.231-5.572,1.855-.078.026-.183.073-.21.138-.181.439-.345.886-.529,1.368ZM312.581,6.392c.115.019.19.034.266.043.497.063.591.022.736-.447.093-.298.259-.504.516-.668.145-.093.28-.221.378-.362.064-.091.055-.234.078-.354-.421.45-.811.679-1.103.593.095-.226.495-.146.514-.515-.527.235-1.009.45-1.491.665-.293.131-.435.373-.491.678-.28,1.526-.562,3.053-.841,4.579-.064.351-.119.704-.172,1.016.665.167,1.291.325,1.934.486,0-.088.002-.184,0-.28-.036-1.21-.043-2.423-.122-3.63-.039-.587.11-1.2-.203-1.804ZM315.219,3.677c.408,0,.766-.136,1.048-.43.543-.566.72-1.239.532-2.002-.308-1.254-1.865-1.355-2.513-.625-.393.442-.571.961-.536,1.534.058.948.632,1.521,1.468,1.522ZM315.774,16.914c1.557-.731,3.104-1.296,4.85-1.043-.016-.051-.055-.056-.084-.076-1.466-1.041-3.084-1.619-4.895-1.637-.286-.003-.45.059-.583.34-.155.328-.404.611-.631.94.79.165,1.15.733,1.342,1.477ZM311.795,19.058c.161-.046.261-.071.359-.104.961-.324,1.922-.649,2.883-.973.706-.238.718-.239.572-.967-.13-.647-.413-1.184-1.115-1.38-.179-.05-.314-.027-.46.096-.475.398-1.013.679-1.633.764-.167.023-.184.099-.203.24-.079.593-.171,1.185-.265,1.776-.026.163-.079.321-.137.549ZM321.336,6.233c-.101-.256-.179-.438-.247-.624-.137-.378-.027-.7.255-.961.266-.246.607-.334.955-.33.416.005.749-.143,1.055-.412.474-.416,1.132-.284,1.447.274.071.125.14.25.24.429,0-1.167-.891-2.267-1.912-2.435-1.05-.173-2.323.574-2.658,1.56-.279.82.131,2.105.862,2.498ZM309.633,36.111c.371,0,.743-.008,1.114.003.182.005.287-.065.385-.215.665-1.017,1.217-2.092,1.684-3.213.053-.127.112-.225-.045-.337-.146-.104-.236-.084-.364.025-.613.522-1.235,1.033-1.853,1.549-.714.595-1.43,1.186-2.137,1.788-.088.075-.125.209-.186.316.104.028.207.078.312.081.362.01.725.004,1.088.004ZM308.228,23.419c.023.008.046.015.069.023.053-.057.11-.11.159-.17,1.719-2.1,2.783-4.465,2.952-7.206.025-.413-.17-.607-.476-.828-.082.189-.186.35-.224.526-.135.619-.272,1.24-.365,1.867-.255,1.717-.801,3.316-1.898,4.681-.294.365-.198.731-.216,1.108ZM311.258,12.865c-.023-.032-.046-.063-.069-.095-.066-.01-.132-.027-.198-.029-.827-.022-1.492.418-1.751,1.303-.216.74-.338,1.513-.432,2.28-.145,1.191-.253,2.384-.54,3.555-.081.329-.012.695-.012,1.045.155-.18.264-.369.352-.568.539-1.211.675-2.512.856-3.806.093-.662.216-1.321.373-1.97.051-.213.212-.462.395-.565.232-.13.33-.296.432-.514.091-.195.247-.362.388-.53.046-.055.136-.073.206-.107ZM308.221,18.92l.056.008c.023-.089.057-.177.068-.268.126-1.033.243-2.068.375-3.101.086-.674.193-1.346.514-1.96.325-.621.832-1.002,1.537-.996.534.004,1.042-.046,1.535-.252.081-.034.171-.044.257-.065-.847-.414-1.712-.545-2.604-.29-1.146.329-1.739,1.131-1.739,2.317,0,1.442,0,2.884,0,4.325v.281ZM308.295,22.218c.063-.08.128-.159.189-.241,1.003-1.358,1.484-2.912,1.721-4.561.111-.775.165-1.568.586-2.265.021-.035.017-.102,0-.143-.126-.292-.259-.581-.41-.917-.089.098-.225.201-.293.337-.102.203-.188.424-.223.647-.171,1.081-.31,2.167-.487,3.246-.155.945-.387,1.879-.921,2.687-.257.388-.241.77-.161,1.21ZM308.246,24.564c.11-.101.176-.156.237-.217,1.057-1.058,1.837-2.304,2.462-3.652.564-1.216.99-2.473,1.097-3.822.032-.401-.146-.786-.463-.925-.007.073-.012.141-.02.209-.061.508-.092,1.022-.189,1.523-.427,2.213-1.44,4.144-2.901,5.841-.272.316-.259.623-.222,1.044ZM326.931,12.423c.016,0,.033,0,.049-.001.008-.092.023-.184.024-.276.011-.841.009-1.682.036-2.523.008-.236-.061-.393-.227-.552-.516-.498-.51-.504-.126-1.086.005-.007.015-.014.015-.021-.003-.092.026-.205-.017-.271-.285-.437-.584-.864-.883-1.292-.036-.052-.098-.085-.149-.127-.03.065-.081.127-.087.194-.026.299-.048.599-.055.899-.004.179-.011.369.04.537.274.895.574,1.782.85,2.676.189.611.353,1.229.528,1.844ZM312.201,41.154c.015.003.029.006.044.009,0,.084,0,.168,0,.253,0,.717,0,1.434,0,2.151,0,.115.008.238.16.201.073-.018.179-.118.18-.181.012-.92.009-1.841.004-2.762,0-.059-.035-.146-.08-.172-.179-.102-.431,0-.516.198-.255.593-.506,1.187-.76,1.779-.081.19-.168.378-.274.615-.196-.458-.37-.862-.543-1.267-.163-.382-.338-.759-.483-1.148-.093-.25-.285-.221-.455-.181-.065.015-.129.181-.134.281-.016.344-.006.69-.006,1.035,0,.531.004,1.062-.002,1.593-.002.182.087.255.242.2.054-.019.095-.152.095-.233.007-.799.004-1.598.004-2.477.051.115.069.154.085.193.324.774.643,1.55.976,2.32.038.087.15.199.225.196.078-.002.18-.115.223-.203.127-.262.23-.535.343-.804.224-.533.449-1.067.673-1.6ZM316.626,41.101c.086.119.137.186.184.256.509.754,1.013,1.512,1.534,2.258.06.086.213.106.323.157.037-.088.104-.176.105-.265.008-.876.006-1.751.003-2.627,0-.111.019-.239-.16-.246-.193-.007-.184.123-.184.249-.002.584-.001,1.167-.001,1.751,0,.145,0,.29,0,.435-.105-.047-.154-.104-.196-.166-.429-.638-.856-1.277-1.285-1.915-.064-.095-.113-.221-.203-.273-.103-.06-.244-.064-.369-.067-.032,0-.094.099-.094.153-.006.937-.007,1.875.002,2.812,0,.055.104.158.145.152.071-.012.153-.08.187-.147.032-.064.008-.156.008-.235,0-.74,0-1.479,0-2.282ZM315.042,38.384c.327-.26.388-.567.262-.905-.133-.357-.431-.499-.79-.523-.255-.017-.512-.014-.768-.024-.155-.006-.22.058-.219.219.005.903.004,1.806.001,2.709,0,.142.047.211.2.208.301-.007.602.009.902-.006.538-.027.885-.362.906-.852.015-.364-.163-.62-.494-.827ZM321.082,37.447c.016-.007.031-.014.047-.021.049.07.1.139.148.21.51.755,1.022,1.508,1.525,2.267.093.14.21.211.35.147.061-.028.097-.171.098-.263.007-.859.005-1.717.004-2.576,0-.29-.045-.318-.343-.214v2.499c-.161-.241-.282-.422-.403-.602-.41-.609-.81-1.225-1.241-1.818-.068-.094-.271-.104-.415-.118-.026-.003-.098.164-.099.254-.008.859-.006,1.717-.004,2.576,0,.296.035.318.333.229v-2.568ZM328.966,42.206c-.005.882.748,1.624,1.648,1.626.887.001,1.665-.757,1.664-1.622,0-.866-.773-1.625-1.66-1.629-.89-.005-1.647.741-1.652,1.626ZM327.39,40.11c.534-.05,1.058-.043,1.555-.158.627-.145,1.05-.766,1.06-1.396.011-.694-.372-1.271-1.008-1.497-.521-.185-1.059-.124-1.607-.115v3.167ZM318.209,36.917v3.12c.265.087.326-.025.324-.254-.008-.743-.004-1.486-.002-2.228,0-.094.01-.188.017-.314.297.014.573-.001.838.045.403.071.598.329.581.698-.016.359-.25.583-.657.628-.15.017-.3.032-.496.052.323.434.622.816.898,1.215.136.196.292.218.535.152-.281-.378-.546-.736-.82-1.105.069-.02.117-.033.165-.049.47-.152.741-.513.722-.959-.02-.48-.321-.862-.817-.936-.415-.062-.841-.046-1.287-.066ZM313.186,40.028c-.034-.09-.064-.179-.1-.265-.368-.86-.739-1.72-1.106-2.58-.056-.132-.098-.253-.287-.254-.192-.001-.232.123-.288.254-.37.869-.742,1.738-1.112,2.607-.033.077-.055.159-.083.243.222.081.341.021.414-.177.079-.215.164-.431.277-.629.05-.087.173-.177.268-.183.343-.022.689-.002,1.034-.012.161-.005.239.066.292.207.079.206.184.403.255.611.075.219.208.262.437.179ZM323.607,40.024c.296.12.403-.034.453-.241.141-.587.463-.807,1.101-.776.508.025.811.133.92.639.015.068.06.128.08.196.068.23.212.274.424.192-.004-.036-.001-.064-.011-.086-.409-.957-.816-1.914-1.237-2.866-.031-.071-.16-.138-.241-.135-.081.003-.198.077-.233.151-.167.35-.311.711-.463,1.068-.262.615-.524,1.23-.793,1.86ZM322.956,40.634c-.221,0-.442.005-.662-.002-.159-.005-.22.061-.219.219.004.902.004,1.803,0,2.705,0,.155.052.226.215.224.442-.006.883.005,1.325-.01.068-.002.133-.109.2-.167-.065-.051-.127-.143-.194-.147-.308-.016-.618-.015-.927-.005-.177.006-.263-.045-.254-.236.011-.212.009-.424,0-.636-.006-.168.052-.238.229-.23.291.012.583.004.874.003.114,0,.266.016.227-.158-.015-.068-.151-.147-.236-.153-.29-.02-.582-.012-.874-.008-.158.003-.224-.064-.22-.221.006-.212.006-.424,0-.636-.005-.161.064-.217.222-.213.318.008.636.012.953-.007.069-.004.132-.11.198-.168-.065-.051-.127-.139-.196-.145-.219-.019-.441-.007-.662-.007ZM315.924,43.736c-.037-.101-.063-.185-.097-.264-.372-.868-.74-1.738-1.124-2.601-.044-.099-.163-.195-.268-.228-.179-.057-.231.102-.288.236-.369.87-.741,1.738-1.111,2.608-.035.083-.061.17-.092.255.237.086.354.008.418-.187.036-.109.107-.207.132-.317.097-.422.343-.58.775-.517.277.04.631-.082.826.05.206.14.264.498.387.76.004.008.007.016.009.025.062.218.201.271.433.18ZM315.958,40.04c.057.011.091.024.125.024.451.002.902.009,1.352-.004.075-.002.197-.082.211-.145.04-.172-.106-.166-.222-.167-.301-.002-.601-.006-.902,0-.165.003-.246-.054-.24-.229.007-.221.009-.443,0-.663-.007-.175.064-.229.235-.223.318.011.637.009.954-.004.052-.002.101-.084.152-.13-.051-.054-.095-.141-.155-.153-.119-.025-.246-.008-.37-.008-.855,0-.851,0-.818-.859.006-.166.052-.238.23-.231.309.012.619.013.928-.004.075-.004.145-.095.218-.146-.069-.055-.137-.155-.208-.158-.406-.016-.813.005-1.219-.013-.24-.01-.299.083-.297.307.01.84.003,1.681.005,2.521,0,.095.014.19.021.284ZM321.166,41.797h-.002c0,.327.011.655-.003.982-.016.408-.264.69-.607.719-.462.04-.714-.145-.81-.603-.023-.111-.033-.227-.034-.341-.003-.566.004-1.133-.008-1.699-.002-.074-.081-.192-.146-.21-.153-.042-.188.074-.188.208.002.628-.016,1.258.007,1.885.024.662.459,1.09,1.061,1.094.592.003,1.047-.428,1.068-1.056.021-.645.01-1.292-.002-1.938-.001-.068-.108-.134-.166-.201-.057.068-.158.134-.162.205-.018.318-.008.637-.008.956ZM330.307,40.067c.519,0,1.004-.006,1.489.003.222.004.259-.094.189-.301-.097-.007-.201-.018-.305-.02-.283-.003-.566.006-.848-.008-.067-.003-.184-.075-.187-.12-.016-.322-.009-.646-.009-.995h1.326c-.007-.11-.011-.191-.018-.298h-1.294v-1.077c.405,0,.792.007,1.178-.007.064-.002.125-.096.188-.148-.062-.054-.121-.151-.185-.154-.335-.017-.671-.009-1.007-.01-.172,0-.343,0-.518,0v3.135ZM324.376,42.212c0,.443.003.885-.001,1.328-.001.159.042.246.225.242.398-.01.796.005,1.194-.01.074-.003.145-.1.217-.154-.07-.056-.137-.154-.211-.16-.264-.02-.531-.021-.795-.004-.225.014-.288-.072-.285-.288.01-.761.004-1.523.002-2.284,0-.111.019-.239-.16-.246-.193-.007-.184.124-.184.249-.002.443,0,.885,0,1.328ZM313.2,31.856c.375-.63.747-1.229,1.55-1.327-.474-.238-.947-.322-1.443-.164-.35.111-.592.337-.625.711-.032.362.209.577.518.78ZM309.328,37.25c0,.127,0,.222,0,.317,0,.743-.001,1.485.001,2.228,0,.125-.042.278.179.273.204-.005.162-.148.162-.263.002-.752,0-1.503.002-2.255,0-.094.008-.187.013-.3.194,0,.362.013.527-.007.062-.007.114-.091.171-.14-.05-.056-.098-.16-.15-.161-.486-.013-.972-.013-1.457,0-.054.001-.106.099-.159.152.053.052.102.142.161.149.172.02.348.007.55.007ZM327.808,40.963c0,.14,0,.236,0,.331,0,.717-.003,1.433.003,2.15.001.131-.078.332.177.331.247-.001.151-.196.156-.314.013-.283.004-.566.004-.849,0-.537,0-1.075,0-1.648.191,0,.359.018.521-.008.076-.012.139-.106.208-.163-.064-.052-.128-.148-.194-.15-.459-.013-.919-.013-1.379,0-.065.002-.127.098-.191.15.068.057.129.15.204.164.144.026.296.008.49.008ZM326.712,42.212c0-.442,0-.885,0-1.327,0-.127.014-.255-.18-.25-.177.004-.164.122-.164.239,0,.885,0,1.769,0,2.654,0,.127-.014.255.18.25.2-.006.162-.148.163-.265.003-.433.001-.867,0-1.301ZM327.051,18.155c-.022-.007-.041-.02-.055-.016-.688.214-1.39.308-2.11.286-.049-.001-.102.087-.152.133.053.051.1.137.16.148.655.115,1.295.023,1.933-.143.252-.066.312-.184.225-.408ZM313.435,7.928c.199-.748.566-1.45.547-2.26-.076.059-.132.129-.162.208-.214.57-.412,1.145-.637,1.711-.1.252.007.315.253.341ZM327.073,17.803c-.746.084-1.417.158-2.088.238-.072.009-.139.054-.209.082.063.041.124.114.188.117.657.03,1.302-.042,1.923-.271.066-.024.114-.1.186-.166ZM312.948,6.635v.891c.022.003.045.006.067.009.107-.293.214-.587.328-.9h-.395ZM314.279,4.4c.339-.021.406-.115.457-.612-.076-.019-.155-.039-.249-.063-.071.231-.135.44-.208.675ZM314.44,6.09c.202-.183.15-.443-.116-.703.04.242.075.455.116.703ZM314.739,5.711c.04-.012.08-.023.12-.035-.063-.19-.125-.38-.188-.569-.032.01-.064.02-.096.03-.091.233.119.38.164.574Z"/>
    <path class="st0" d="M324.313,17.521c-.038-.09-.086-.178-.113-.271-.434-1.464-.874-2.927-1.538-4.307-.229-.476-.508-.929-.797-1.372-.128-.196-.164-.375-.126-.593.099-.572.189-1.146.29-1.761-.139-.017-.258-.022-.372-.049-.079-.018-.177-.047-.22-.106-.093-.129.06-.7.257-.853-.041.28-.075.509-.111.751.117.025.201.048.286.061.352.052.357.052.302.413-.085.558-.181,1.114-.264,1.672-.012.08-.007.187.037.248.877,1.213,1.378,2.599,1.849,3.998.208.618.385,1.247.573,1.872.026.086.032.178.047.268-.033.009-.065.019-.098.028Z"/>
    <path class="st0" d="M324.451,9.89q-.478.169-.56-.325c-.062-.376.007-.456.378-.358.265.071.48.009.702-.119.319-.184.403-.143.483.214.012.051.016.105.021.157.031.325-.06.403-.376.327-.048-.012-.098-.017-.216-.036.158.319.291.591.427.861.051.103.128.198.153.306.024.102.037.276-.017.314-.158.109-.248-.023-.314-.162-.088-.187-.181-.371-.272-.556-.025.005-.05.01-.076.015,0,.355,0,.71,0,1.065,0,.097.02.2-.006.29-.027.093-.099.173-.151.259-.064-.088-.181-.175-.183-.266-.013-.458.004-.918.009-1.377.002-.199,0-.399,0-.61Z"/>
    <path class="st0" d="M314.325,39.756q-.43-.008-.431-.442c0-.071-.002-.141,0-.212.017-.615-.12-.523.621-.513.472.006.723.293.665.694-.037.257-.205.383-.435.434-.136.03-.28.027-.42.039Z"/>
    <path class="st0" d="M313.894,37.773c0-.574.018-.59.597-.517.332.042.516.214.522.492.007.301-.13.443-.49.51-.009.002-.017.003-.026.005-.577.101-.603.08-.603-.49Z"/>
    <path class="st0" d="M330.618,43.502c-.733,0-1.307-.56-1.307-1.277,0-.742.567-1.313,1.304-1.314.729,0,1.335.6,1.322,1.311-.013.716-.593,1.279-1.318,1.28Z"/>
    <path class="st0" d="M327.747,37.227c.35.03.696.024,1.026.096.585.126.929.672.885,1.328-.038.572-.467,1.01-1.054,1.076q-.89.1-.89-.791c0-.521.002-1.042.004-1.563,0-.026.01-.051.029-.145Z"/>
    <path class="st0" d="M311.694,37.346c.198.477.373.896.56,1.345h-1.132c.186-.437.368-.865.572-1.345Z"/>
    <path class="st0" d="M325.106,37.346c.206.495.38.914.561,1.35h-1.136c.189-.443.366-.859.575-1.35Z"/>
    <path class="st0" d="M314.43,41.05c.207.496.384.922.571,1.371h-1.151c.19-.449.37-.873.58-1.371Z"/>
  </g>
  <g>
    <g>
      <path class="st0" d="M34.532,10.578c1.012,1.112,1.901,2.338,2.602,3.674.236.45.947,1.874,1.003,2.299.052.393-.378.506-.58.222-.203-.285-.465-1.188-.658-1.586C32.752,6.622,22.563,2.865,13.86,6.97c-4.183,1.974-7.311,5.538-8.948,9.846-.13.178-.495.112-.535-.103-.089-.474,1.356-3.105,1.695-3.645C12.367,3.009,26.54,1.794,34.532,10.578Z"/>
      <path class="st0" d="M29.904,12.962c-6.206-5.537-15.546-3.954-19.835,3.05-.229.375-.402,1.201-.902,1.104-.454-.136.145-1.039.289-1.297,4.903-8.835,17.84-9.052,23.254-.578.194.304.993,1.523.782,1.822-.1.091-.297.094-.414.055-.098-.033-.599-1.055-.718-1.246-.693-1.109-1.482-2.042-2.455-2.91Z"/>
    </g>
    <path class="st0" d="M23.712,16.7c.534.104,1.113.338,1.556.653.108.077.494.299.329.477-.086.093-1.442-.904-1.85-.826-.172.033-.392.917-.64,1.176-.197.206-1.142.768-1.369.603-.458-.333.907-1.862,1.405-1.865-.043-.155-.402-.161-.523-.139-.234.041-.432.538-.6.735-.748.88-.897.601-1.792.943-.124.047-.438.409-.449.046-.01-.365.535-.996.803-1.235l.457-.348c-1.419.144-1.908,1.519-3.51,1.09-.24-.064-.93-.373-.456-.605.355-.173,1.231-.462,1.615-.489.527-.037,1.085.211,1.51-.103-.501-.036-1.425-.65-1.516-1.154-.055-.304.391-.224.639-.213.62.028,2.36.167,2.21,1.051h.701s-.433-.583-.433-.583c-.17-.304-.377-.854.05-1.035.09-.019.142.036.21.073.197.107,1.336.975,1.465,1.129.148.177.185.394.189.617ZM23.422,16.568l-.207-.388-1.335-.944c.027.763.813,1.332,1.542,1.332ZM21.241,16.561c.036-.089.066-.156.028-.253-.2-.505-1.719-.481-2.193-.581-.135.118.639.642.75.687.43.173.96.168,1.416.147ZM22.16,16.779c-.166-.123-1.083.465-1.256.601-.084.066-.724.654-.637.73.923.071,1.46-.63,1.893-1.331ZM22.021,18.461c.693-.149,1.131-.643,1.261-1.332-.53.297-1.126.703-1.261,1.332ZM19.496,17.2c-.683-.064-1.259.059-1.878.33-.084.037-.207.039-.226.159.722.166,1.603.141,2.104-.489Z"/>
    <path class="st0" d="M20.302,20.074c1.131.16,1.531,1.351.853,2.22l-.958.443c.472.32.923.743,1.354,1.136.069.063.15.062.118.197h-1.297c-.102,0-1.279-1.239-1.509-1.366l-.7-.036v1.297c-.243.215-.67.061-.982.105v-3.997c.965.098,2.188-.132,3.121,0ZM18.163,21.758h2.139c.157,0,.246-.497.141-.632-.041-.069-.495-.209-.562-.209h-1.718v.842Z"/>
    <polygon class="st0" points="26.298 20.074 26.291 20.909 23.422 20.916 23.423 21.617 26.017 21.617 26.017 22.529 23.353 22.529 23.353 23.16 26.298 23.16 26.298 24.072 22.441 24.072 22.441 20.074 26.298 20.074"/>
    <path class="st0" d="M28.595,20.022c.957-.13,1.989.135,2.752.719l-.677.584c-.378-.18-.672-.372-1.109-.413-.403-.037-1.575-.11-1.307.534.362.451,2.84-.091,3.076,1.063.431,2.107-3.37,1.916-4.33.825l.734-.527c.58.391,1.586.566,2.257.364.207-.062.506-.25.31-.475-.349-.399-2.828.15-3.076-1.061-.197-.958.49-1.495,1.37-1.614Z"/>
    <path class="st0" d="M4.839,24.072l2.28-3.927.563-.076,2.417,4.002h-1.017c-.199-.157-.332-.638-.492-.771-.209-.174-1.768-.039-2.145-.041l-.59.811h-1.017ZM7.995,22.389c-.018-.148-.451-.91-.526-.91l-.596.91h1.122Z"/>
    <path class="st0" d="M33.997,20.024c.844-.108,2.172.031,2.68.784l-.676.521c-.599-.371-1.366-.605-2.058-.377-1.338.44-1.048,2.179.382,2.281.654.046,1.099-.144,1.669-.413l.652.481c.093.185-.374.42-.503.482-1.741.836-4.343.217-4.018-2.124.121-.868,1.043-1.529,1.872-1.634Z"/>
    <path class="st0" d="M16.48,20.916h-2.875v.842h2.665s0,.912,0,.912h-2.665v1.403c-.311-.044-.739.11-.982-.105v-3.892s3.822,0,3.822,0l.088.102-.053.739Z"/>
    <path class="st0" d="M.982,20.074v3.086h3.156c-.04.291.105.689-.105.912H0s0-3.997,0-3.997h.982Z"/>
    <path class="st0" d="M37.168,24.072l2.325-3.986.588-.017,2.346,4.002-.982-.034c-.331-.304-.281-.761-.802-.811-.566-.055-1.237.037-1.814.017l-.539.828h-1.122ZM39.272,22.389h1.122s-.527-.912-.527-.912c-.141-.029-.088.042-.121.092-.172.26-.331.544-.475.82Z"/>
    <path class="st0" d="M38.694,25.912c.095.132.089.266.072.419-.276,2.555-2.54,6.408-4.261,8.297-9.273,10.178-26.201,6.602-30.37-6.521-.079-.25-.423-1.381-.414-1.55.011-.204.325-.372.513-.236.169.122.352,1.095.445,1.381,1.861,5.746,6.276,10.161,12.191,11.653,9.327,2.351,18.379-3.112,21.033-12.197.132-.451.144-1.642.789-1.245Z"/>
    <path class="st0" d="M12.016,31.691c6.454,6.542,17.525,4.464,21.167-3.925.143-.329.463-1.43.584-1.589.041-.054.085-.113.154-.132.193-.031.409.035.427.25.019.242-.412,1.322-.535,1.611-4.209,9.884-17.74,11.226-23.801,2.318-.583-.857-1.662-2.815-1.804-3.808-.077-.537.361-.721.587-.305.234.43.411,1.318.659,1.866.591,1.305,1.557,2.697,2.562,3.715Z"/>
    <path class="st0" d="M25.878,37.466c-.155.155.494,1.095-.062.973l-.633-1.909c.738-.623,1.964-.303,1.267.761.092.223.685.456.62.7-.122.454-.897-.718-1.192-.525ZM26.281,37.028c.22-.604-.345-.552-.755-.403l.143.558.611-.155Z"/>
    <path class="st0" d="M15.268,36.744c-.135.107-.312.088-.47.092l.069.981-.32-.066c-.092-.372.068-.943-.347-1.126-.065-.018-.285.918-.595.77-.012-.122,0-.234.033-.352.048-.169.543-1.263.637-1.396.23-.326.997.066,1.116.348.086.204.053.609-.123.749ZM14.522,35.858l-.186.488c.192.132.497.315.713.145l.102-.185c.079-.228-.523-.523-.629-.447Z"/>
    <path class="st0" d="M23.475,36.78c.685-.113.865.44.92,1.01.033.336.079.736-.205.97-.451.371-1.048.109-1.183-.424-.136-.536-.252-1.438.467-1.556ZM23.611,37.064c-.595.015-.382,1.198-.193,1.425.142.171.618.16.692-.089.087-.291-.063-1.346-.499-1.335Z"/>
    <path class="st0" d="M17.315,36.491l.113,2.099-.211.067c-.199-.377.013-.583-.57-.629-.406-.032-.26.349-.622.349-.103-.083-.113-.087-.077-.215.025-.088.882-1.405.99-1.536s.201-.178.377-.136ZM17.111,37.046c-.167-.038-.113.028-.156.091-.052.076-.364.576-.334.609l.49.071v-.771Z"/>
    <path class="st0" d="M30.786,36.133c-.355.07-.333-.297-.68-.156-.702.284-.045.643-.546.857-.113-.024-.63-2.073-.527-2.174.101-.011.183-.004.277.038.082.037,1.341,1.043,1.404,1.12.088.108.082.184.071.314ZM29.384,35.152c.105.437.107,1.106.629.526l-.629-.526Z"/>
    <path class="st0" d="M21.529,37.326v1.753s-.212.038-.212.038c-.275-.121-.08-1.468-.138-1.792l-.375-.01-.116-.234c.219-.08,1.263-.217,1.332,0l-.068.211-.423.033Z"/>
    <path class="st0" d="M13.52,34.886c.237.429-.343.214-.544.056-.235.368-.58,1.121-.882,1.399-.094.087-.104.125-.207.005-.074-.093-.033-.184.003-.279.103-.272.772-1.004.795-1.242.002-.153-.458-.319-.271-.514.093-.096,1.076.52,1.107.575Z"/>
    <path class="st0" d="M19.286,37.186c-.069.486-.073,1.12-.206,1.582-.116.401-.29.27-.291-.075-.002-.432.178-1.019.209-1.468-.048-.19-.587.002-.483-.391.251.01,1.184.026,1.299.208l-.035.179-.493-.037Z"/>
    <path class="st0" d="M28.472,37.466c-.114.001-.225.033-.314-.071-.058-.068-.754-1.516-.778-1.608-.032-.126-.032-.128.076-.213.133-.024.165.02.236.114.15.197.647,1.243.741,1.503.034.095.056.175.039.276Z"/>
  </g>
  <g>
    <g>
      <path class="st0" d="M269.735,37.289c.434-.375.829-.802,1.267-1.173.586-.495,1.861-1.505,2.592-.947.496.379.299.959.074,1.445-.041.088-.359.621-.307.674.856-.074,1.74-.352,2.524-.728.431-.207.885-.528,1.248-.857.317-.288.484-.5.894-.689s.929-.152,1.226.236c.453.592.175,1.145-.026,1.774,1.055.074,2.094-.249,3.031-.758.359-.195,1.311-.926,1.623-.946.214-.013.298.173.198.368-.36.705-2.649,1.669-3.385,1.821-.556.114-1.089.097-1.65.151-.133.045-.122.144-.191.23-.525.653-1.462,1.387-2.249.831-.601-.424-.461-1.26-.205-1.873-.616.407-1.257.678-1.967.813-.639.122-1.471.084-2.05.355-.516.242-.79.514-1.409.562-.447.035-1.364-.107-.666-.704.562-.481,1.248-.341,1.833-.566.37-.142.886-.875.993-1.284.195-.747-.54-.327-.83-.151-.88.534-1.799,1.53-2.516,2.308-.245.266-.851,1.074-1.186,1.102-.38.032-.242-.383-.174-.633.162-.594.464-1.208.694-1.774l-1.442,1.068c-.669.421-1.461.934-2.266.796-1.312-.225-.191-2.049-.212-2.892-.053-.061-.655.339-.744.399-.559.375-1.34,1.132-1.915,1.356-1.129.439-.482-1.378-.593-1.881-.039-.175-.608.221-.682.273-.934.663-1.599,1.593-2.427,2.348-.187.171-.375.304-.626.192-.189-.084-.126-.505-.094-.691.08-.477.284-.918.414-1.378-.934.575-1.969,1.057-3.053,1.144-.343.027-.7-.017-1.042.057-.103.031-.115.152-.171.222-.525.653-1.462,1.387-2.249.831-.971-.686-.075-2.279.475-2.959.535-.662,1.706-1.355,2.275-.361.313.548.039,1.079-.128,1.623,1.056.075,2.094-.249,3.031-.757.459-.249.875-.587,1.335-.835.088-.173.31-.65.502-.666.073-.006.21.074.238.147.073.191-.147.701-.221.9-.175.469-.413.909-.564,1.389.658-.501,1.215-1.153,1.885-1.638.393-.285.884-.593,1.374-.437.648.206.296,1.351.261,1.87.642-.448,1.245-1.036,1.919-1.424.316-.182.989-.5,1.28-.175.256.285.177.499.105.849-.105.511-.348,1.103-.413,1.6-.079.608.439.444.775.325,1.265-.447,2.432-1.778,3.543-2.557.991-2.015,2.101-3.966,3.327-5.817.145-.219.548-.886.732-.985.177-.095.596-.076.532.202-.049.216-.389.748-.516.96-1.337,2.233-2.587,4.254-3.726,6.64-.106.222-.206.45-.306.676ZM254.232,36.458c.056-.21.094-.726-.105-.848-.399-.243-.926.474-.749.913.071.176.538.577.679.401.062-.077.105-.328.134-.434.006-.021.039-.025.041-.032ZM278.818,36.458c.056-.21.094-.726-.105-.848-.397-.242-.927.469-.749.913.071.176.538.577.679.401.062-.077.105-.328.134-.434.006-.021.039-.025.041-.032ZM252.735,36.585c-.235.39-.725,1.214-.451,1.67.129.215.301.186.499.113.396-.147.718-.452.979-.801-.404-.25-.784-.535-1.026-.983ZM277.321,36.585c-.235.393-.727,1.211-.451,1.67.129.215.301.186.499.113.396-.147.718-.452.979-.801-.404-.25-.784-.535-1.026-.983Z"/>
      <g>
        <path class="st0" d="M238.002,36.849c-.494.401-.984.817-1.506,1.174-.578.396-1.53,1-2.218.709-.213-.09-.522-.354-.562-.614-.181-1.163.215-1.919.501-2.956.017-.063.057-.158.04-.221-.701.866-1.334,1.844-2.146,2.597-.304.282-.61.53-1.008.622-.546.126-1.048-.058-.989-.765.074-.878,1.13-2.545,1.983-2.63.454-.045.753.284,1.066.586.576-.827,1.125-1.683,1.662-2.543.739-1.185,1.427-2.479,2.196-3.628.161-.241.426-.726.735-.614.326.119.165.407.055.632-.242.495-.59.996-.853,1.497-.908,1.729-2.014,4.194-2.468,6.117-.08.338-.334,1.249.142,1.324.581.092,1.62-.696,2.099-1.059.879-.665,2.058-1.871,3.079-2.128.815-.206,1.315.467.698,1.208-.361.434-.773.536-1.291.574-.288.021-.523-.134-.572.28-.078.664.187,1.01.785,1.068,1.876.184,3.463-1.802,4.955-2.704.109-.066.501-.308.525-.038.018.201-.495.683-.64.821-.998.945-2.736,2.268-4.048,2.471-1.056.163-2.556-.286-2.22-1.782ZM232.155,35.359c-.454.079-1.221,1.422-1.354,1.885-.136.473-.01.504.339.285.311-.195,1.333-1.17,1.498-1.491.098-.191.013-.337-.103-.494-.108-.146-.2-.216-.379-.185ZM240.189,35.411c-.086-.096-.703.301-.787.411-.014-.147-.2.128-.162.206.096.196.484-.011.61-.094.161-.106.36-.298.339-.522Z"/>
        <path class="st0" d="M248.082,35.147c-.36.028-.885-.247-.908-.689-.044-.846,1.396-1.373,1.994-1.521.498-.926,1.001-1.852,1.543-2.747.158-.261.323-.56.496-.804.142-.2.3-.432.554-.239.277.211-.078.671-.201.891-.51.915-1.092,1.786-1.558,2.731.356-.01.769-.127,1.115-.009.436.149.434.714-.087.624-.093-.016-.186-.111-.295-.089l-1.133.194c-.187.335-.364.682-.507,1.041,1.789-.314,3.589-1.244,4.972-2.525,1.063-.984,1.857-2.282-.034-2.867-1.333-.412-3.181-.236-4.48.277-.929.367-2.45,1.328-2.891,2.336-.123.281-.128.888-.548.702-.314-.139-.106-.748-.002-.985.698-1.593,3.3-2.95,4.839-3.099,1.252-.121,3.874-.205,4.655,1.121.886,1.504-1.023,3.046-2.002,3.767-1.452,1.069-2.868,1.645-4.6,1.893-.245.035-.236.073-.351.289-.277.523-.552,1.298-.753,1.871-.081.232-.331.882-.348,1.086-.011.133.098.174-.02.359-.214.336-.721.188-.646-.329.057-.391.417-1.256.568-1.664.115-.311.233-.623.354-.931.034-.085.298-.656.271-.684ZM248.748,33.797c-.061-.053-.666.337-.755.416-.049.043-.246.221-.204.288.025.04.487.13.56.074l.4-.778Z"/>
      </g>
    </g>
    <g>
      <path class="st0" d="M251.008,20.979l6.418-.004c.715.209.686,1.292-.051,1.435l-6.344-.003c-.688-.172-.712-1.232-.023-1.428Z"/>
      <g>
        <path class="st0" d="M259.561,7.943c.529.059.961.448,1.258.905.755.055,1.567-.058,2.315.005,2.397.202,3.362,3.691,1.52,5.428-1.128,1.064-2.467.662-3.835.733-.172.351-.48.659-.818.808-.074.032-.352.133-.413.133h-10.6v-.763h10.52c.442,0,.842-.613.842-1.071,0-.44-.392-1.071-.816-1.071h-10.546v-.763h10.626c.032,0,.246.069.294.087.487.181.864.625,1.043,1.147.625-.04,1.296.05,1.915-.002,1.815-.15,1.846-2.931.08-3.169l-2.01.002c-.099.448-.448.877-.819,1.079-.074.04-.415.18-.477.18h-10.653v-.763h10.573c.297,0,.655-.451.734-.747.152-.573-.209-1.395-.787-1.395h-10.52v-.763h10.573Z"/>
        <path class="st0" d="M249.042,10.144v-.734h10.226c.207,0,.327.393.196.597-.025.04-.14.137-.169.137h-10.253Z"/>
        <path class="st0" d="M249.042,14.487v-.734h10.253c.029,0,.144.097.169.137.131.205.011.597-.196.597h-10.226Z"/>
      </g>
      <g>
        <path class="st0" d="M248.988,20.297v-.763h10.493c.059,0,.293-.098.357-.135.639-.372.675-1.361.092-1.826-.056-.045-.29-.181-.342-.181h-10.56s-.04-.041-.04-.044v-.719h10.68c.097,0,.456.177.555.241.999.648,1.084,2.21.191,3.016-.192.173-.633.412-.879.412h-10.546Z"/>
        <path class="st0" d="M249.042,18.83v-.734h10.253c.029,0,.144.097.169.137.067.104.081.266.037.384-.027.074-.194.213-.26.213h-10.2Z"/>
      </g>
    </g>
    <g>
      <path class="st0" d="M243.455,24.318c.544.081.822.808.414,1.248l-.214.131c.646.146.726,1.222.151,1.532-.037.02-.275.112-.298.112h-1.507v-3.023h1.453ZM243.162,24.787c-.202-.027-.446.02-.653,0v.734h.68c.04,0,.211-.09.244-.127.222-.252.002-.57-.271-.606ZM243.162,25.961c-.206-.024-.444.018-.653,0v.88h.813c.187,0,.342-.245.328-.446-.021-.289-.254-.407-.488-.434Z"/>
      <path class="st0" d="M246.922,24.318c.851.111,1.021,1.495.2,1.804l.586,1.218h-.573l-.547-1.115h-.453v1.115h-.533v-3.023c.417.039.913-.053,1.32,0ZM246.135,25.756c.337-.067.94.111.984-.429.018-.221-.151-.51-.358-.51h-.627v.939Z"/>
      <path class="st0" d="M253.748,24.318c.849.111,1.024,1.496.2,1.804l.586,1.218h-.573c-.114-.111-.502-1.115-.56-1.115h-.44v1.115h-.533v-3.023c.417.039.913-.053,1.32,0ZM252.962,25.756c.347-.067.965.114.987-.456.008-.209-.167-.483-.361-.483h-.627v.939Z"/>
      <polygon class="st0" points="251.015 24.318 251.015 24.817 249.575 24.817 249.575 25.521 250.868 25.521 250.908 25.565 250.908 26.02 249.575 26.02 249.575 26.812 251.122 26.812 251.122 27.34 249.042 27.34 249.042 24.318 251.015 24.318"/>
      <polygon class="st0" points="274.108 24.318 274.108 24.817 272.668 24.817 272.668 25.521 273.961 25.521 274.001 25.565 274.001 26.02 272.668 26.02 272.668 26.812 274.214 26.812 274.214 27.34 272.134 27.34 272.134 24.318 274.108 24.318"/>
      <path class="st0" d="M264.775,25.198l-.49.115c-.046-.017-.052-.142-.082-.205-.154-.324-.472-.409-.776-.293-.521.198-.59,1.056-.412,1.543.266.732,1.119.667,1.322-.076.05-.008.462.174.48.207.045.08-.196.444-.255.515-.499.597-1.448.558-1.905-.077-.423-.586-.417-1.678.039-2.242.61-.755,1.919-.576,2.079.513Z"/>
      <path class="st0" d="M265.601,27.34l.972-3.025.571.006.936,3.019h-.587l-.15-.589-1.021.005-.136.584h-.587ZM267.201,26.255l-.36-1.35-.36,1.35h.72Z"/>
      <path class="st0" d="M259.815,27.34h-.547c-.084-.172-.11-.383-.17-.569-.029-.046-.892-.011-1.018-.005l-.158.574h-.56l.923-3.024c.11.024.559-.038.611.031l.92,2.994ZM258.215,26.255h.747l-.36-1.321-.386,1.321Z"/>
      <polygon class="st0" points="271.014 24.318 271.014 24.817 269.748 24.817 269.708 24.861 269.708 25.536 269.748 25.58 270.854 25.58 270.854 26.079 269.708 26.079 269.708 27.34 269.201 27.34 269.201 24.318 271.014 24.318"/>
      <polygon class="st0" points="237.735 26.812 238.802 26.812 238.802 27.34 237.175 27.34 237.175 24.332 237.215 24.288 237.695 24.288 237.735 24.332 237.735 26.812"/>
      <rect class="st0" x="239.895" y="24.318" width=".533" height="3.023"/>
      <rect class="st0" x="255.735" y="24.318" width=".507" height="3.023"/>
      <rect class="st0" x="260.775" y="25.697" width=".507" height=".587"/>
      <path class="st0" d="M256.535,23.496c.012.051-.019.059-.04.088-.034.049-.321.397-.345.412-.101.064-.273.012-.388.027l.227-.528h.547Z"/>
      <path class="st0" d="M273.601,23.496c.011.051-.019.059-.04.088-.053.076-.288.376-.345.412-.097.062-.251.013-.361.028-.032-.035.181-.44.187-.528h.56Z"/>
    </g>
  </g>
  <g>
    <path class="st0" d="M71.427,21.973c-.954-.958-1.43-2.221-1.43-3.787s.476-2.829,1.43-3.787c.953-.958,2.215-1.437,3.787-1.437,1.284,0,2.419.326,3.406.978l.288,2.027h-.13c-.211-.825-.637-1.46-1.279-1.905s-1.404-.668-2.285-.668c-1.256,0-2.259.436-3.011,1.308-.752.873-1.128,2.027-1.128,3.464s.371,2.594,1.113,3.47c.743.877,1.722,1.33,2.939,1.358,1.073,0,1.969-.291,2.688-.876.776-.633,1.246-1.662,1.408-3.09h.115l-.173,2.256c-.872,1.428-2.218,2.142-4.039,2.142-1.514-.009-2.747-.494-3.701-1.451Z"/>
    <path class="st0" d="M89.773,23.08h.115v.144h-3.234v-.144h.13c.201,0,.352-.064.453-.194.101-.129.151-.251.151-.366s-.019-.23-.058-.345l-.919-2.443h-3.881l-.963,2.457c-.039.116-.058.228-.058.338s.05.23.151.359c.101.13.251.194.453.194h.13v.144h-2.889v-.144h.129c.239,0,.474-.076.704-.229s.417-.379.561-.676l3.248-7.732c.354-.777.532-1.269.532-1.481h.129l3.852,9.213c.134.297.316.523.546.676.23.153.469.229.718.229ZM82.702,19.3h3.536l-1.725-4.613-1.811,4.613Z"/>
    <path class="st0" d="M90.305,22.634c-.029-.133-.043-.393-.043-.775s.072-.791.216-1.222h.129c-.009.105-.014.211-.014.316,0,.585.177,1.071.532,1.46s.824.581,1.408.581c.604,0,1.099-.181,1.488-.546.388-.364.582-.821.582-1.372s-.187-.999-.56-1.344l-2.76-2.558c-.517-.48-.776-1.058-.776-1.739s.227-1.262.683-1.746c.455-.484,1.07-.726,1.847-.726.364,0,.776.048,1.236.144h.561v1.768h-.13c0-.45-.156-.809-.467-1.078-.312-.268-.712-.402-1.2-.402s-.898.163-1.229.489c-.33.325-.496.732-.496,1.221s.192.911.575,1.266l2.832,2.615c.479.441.719,1.044.719,1.811s-.244,1.397-.733,1.89c-.488.494-1.14.74-1.954.74-.422,0-.87-.064-1.344-.194-.474-.129-.84-.327-1.099-.597Z"/>
    <path class="st0" d="M106.258,23.08h.115v.144h-3.234v-.144h.13c.201,0,.352-.064.453-.194.101-.129.151-.251.151-.366s-.019-.23-.058-.345l-.919-2.443h-3.881l-.963,2.457c-.039.116-.058.228-.058.338s.05.23.151.359c.101.13.251.194.453.194h.13v.144h-2.889v-.144h.129c.239,0,.474-.076.704-.229s.417-.379.561-.676l3.248-7.732c.354-.777.532-1.269.532-1.481h.129l3.852,9.213c.134.297.316.523.546.676.23.153.469.229.718.229ZM99.187,19.3h3.536l-1.725-4.613-1.811,4.613Z"/>
    <path class="st0" d="M66.965,26.569c0-.23-.081-.428-.244-.597-.163-.167-.354-.256-.575-.266h-2.73v8.608c.009.249.103.46.28.633.177.172.391.258.64.258h.187v.144h-3.147v-.144h.187c.249,0,.462-.087.639-.258.177-.173.271-.379.281-.618v-8.624h-2.731c-.23.009-.424.098-.582.266-.158.168-.237.366-.237.597v.244l-.143.014v-1.811c.143.057.392.115.747.172.354.058.681.087.978.087h4.857c.47,0,.86-.036,1.171-.108s.501-.122.568-.151v1.811l-.144-.014v-.244Z"/>
    <path class="st0" d="M70.917,25.735h-.92v8.566c0,.249.089.462.266.64.177.177.395.266.654.266h.173l.015.144h-3.147v-.144h.187c.249,0,.462-.087.64-.258.177-.173.27-.384.28-.633v-7.977c-.01-.249-.103-.462-.28-.639-.178-.178-.391-.267-.64-.267h-.187v-.144h3.88c.872,0,1.557.242,2.055.726s.747,1.111.747,1.883-.237,1.436-.711,1.998c-.474.56-1.051.841-1.732.841.144.067.314.199.511.394.196.196.371.401.525.612.824,1.178,1.36,1.904,1.609,2.177.249.274.426.461.532.561.105.101.22.199.345.294.124.096.249.173.374.23.278.135.575.201.891.201v.144h-.79c-.412,0-.796-.074-1.15-.222-.355-.149-.62-.303-.798-.461-.178-.158-.331-.311-.46-.46s-.487-.644-1.071-1.488c-.584-.842-.925-1.324-1.02-1.444-.096-.119-.196-.236-.302-.352-.306-.325-.613-.488-.92-.488v-.144c.077.009.177.014.302.014s.278-.005.46-.014c1.188-.029,1.935-.527,2.242-1.495.057-.192.086-.372.086-.539v-.324c-.019-.641-.187-1.159-.503-1.552s-.743-.604-1.279-.632c-.23-.009-.518-.015-.863-.015Z"/>
    <path class="st0" d="M77.154,35.206c.249,0,.462-.089.64-.266.177-.178.27-.391.28-.64v-7.977c-.01-.249-.103-.46-.28-.633-.178-.172-.391-.258-.64-.258h-.187v-.144h3.147v.144h-.187c-.249,0-.462.087-.639.258-.178.173-.271.384-.281.633v7.977c0,.249.091.462.273.64.182.177.398.266.647.266h.187v.144h-3.147v-.144h.187Z"/>
    <path class="st0" d="M90.966,35.206h.115v.144h-3.234v-.144h.13c.201,0,.352-.064.453-.194.101-.129.151-.251.151-.366s-.019-.23-.058-.345l-.919-2.443h-3.881l-.963,2.457c-.039.116-.058.228-.058.338s.05.23.151.359c.101.13.251.194.453.194h.13v.144h-2.889v-.144h.129c.239,0,.474-.076.704-.229s.417-.379.561-.676l3.248-7.732c.354-.777.532-1.269.532-1.481h.129l3.852,9.213c.134.297.316.523.546.676.23.153.469.229.718.229ZM83.895,31.426h3.536l-1.725-4.613-1.811,4.613Z"/>
    <path class="st0" d="M100.085,26.676c.953.925,1.43,2.139,1.43,3.643s-.477,2.719-1.43,3.643c-.953.925-2.197,1.387-3.729,1.387h-4.872v-.144h.187c.249,0,.462-.089.64-.266.177-.178.27-.391.28-.64v-8.048c0-.23-.094-.425-.28-.582-.187-.158-.401-.237-.64-.237h-.173l-.014-.144h4.872c1.533,0,2.776.463,3.729,1.387ZM93.524,25.721v9.198h2.832c.805,0,1.516-.191,2.134-.574.618-.384,1.097-.923,1.437-1.618.34-.694.51-1.496.51-2.407,0-1.379-.376-2.491-1.128-3.335-.752-.842-1.737-1.264-2.953-1.264h-2.832Z"/>
    <path class="st0" d="M111.719,35.206h.115v.144h-3.234v-.144h.13c.201,0,.352-.064.453-.194.101-.129.151-.251.151-.366s-.019-.23-.058-.345l-.919-2.443h-3.881l-.963,2.457c-.039.116-.058.228-.058.338s.05.23.151.359c.101.13.251.194.453.194h.13v.144h-2.889v-.144h.129c.239,0,.474-.076.704-.229s.417-.379.561-.676l3.248-7.732c.354-.777.532-1.269.532-1.481h.129l3.852,9.213c.134.297.316.523.546.676.23.153.469.229.718.229ZM104.648,31.426h3.536l-1.725-4.613-1.811,4.613Z"/>
  </g>
  <g>
    <g>
      <path class="st0" d="M180.075,13.1l-1.063,3.677.739.286c.671-1.618,1.156-2.447,2.87-2.197l1.821.265-1.819,10.206c-.081.454-.479.782-.937.772l-1.301-.028-.02.827s2.078.138,3.361.369c1.284.231,3.28.824,3.28.824l.267-.782-1.229-.427c-.434-.151-.694-.596-.613-1.05l1.819-10.206,1.8.386c1.694.363,1.863,1.309,1.933,3.06l.792-.011.273-3.819s-3.656-.423-6.027-.849-5.946-1.302-5.946-1.302Z"/>
      <path class="st0" d="M157.125,26.965c-.465.038-.894-.256-1.011-.694s-2.45-9.152-2.45-9.152c-.117-.438.113-.888.541-1.063l1.216-.494-.331-.746s-1.982.704-3.268,1.01c-1.286.306-3.385.571-3.385.571l.084.805,1.319-.109c.465-.038.894.256,1.011.694l2.45,9.152c.117.438-.113.888-.541,1.063l-1.216.494.331.746s1.982-.704,3.268-1.01c1.286-.306,3.385-.571,3.385-.571l-.084-.805-1.319.109Z"/>
      <path class="st0" d="M173.614,13.288c-1.051.032-2.149-.053-2.149-.053l-.103.764.896.11c.637.078.879.557.892,1.017l.214,7.049-7.047-8.84s-1.268.094-2.35.127c-1.082.032-2.443.017-2.443.017l.023.781c1.257.03,1.794.251,1.818,1.052l.288,9.617c.014.46-.198.953-.83,1.069l-.888.163.148.756s1.09-.15,2.141-.181c1.051-.032,2.149.053,2.149.053l.103-.764-.896-.11c-.637-.078-.879-.557-.892-1.017l-.266-8.874,8.415,10.571,1.688-.051-.341-11.449c-.014-.46.198-.953.83-1.069l.888-.163-.148-.756s-1.09.15-2.141.181Z"/>
      <path class="st0" d="M147.287,26.259c.135,1.652-.312,3.327-2.004,4.03-2.586,1.074-4.661.042-6.082-3.381-1.575-3.793-1.181-6.108.98-7.006,2.361-.981,4.396.19,5.377,2.551l.843-.35-1.871-4.503-.821.341.353.851c-.886-.211-2.612-.424-4.558.384-3.377,1.403-5.211,5.057-3.656,8.801,1.598,3.846,5.233,5.336,9.111,3.726,2.677-1.112,3.565-2.835,3.308-5.85l-.981.407Z"/>
      <path class="st0" d="M202.771,19.123c-3.094-1.73-7.12-.968-9.154,2.518-2.197,3.766-.601,7.299,2.493,9.028,3.104,1.713,7.131.933,9.146-2.564,2.177-3.778.608-7.276-2.485-8.983ZM202.578,26.628c-2.008,3.484-3.973,4.267-5.959,3.171-1.98-1.107-2.358-3.192-.332-6.665,2.026-3.473,3.996-4.246,5.976-3.139,1.987,1.096,2.323,3.15.316,6.634Z"/>
    </g>
    <g>
      <path class="st0" d="M152.272,34.66c-.261.553-.68.829-1.258.829-.27,0-.525-.06-.765-.179s-.433-.292-.579-.52c-.145-.227-.218-.492-.218-.797,0-.21.039-.411.118-.603.079-.193.192-.365.341-.52s.325-.275.529-.36.422-.128.655-.128c.298,0,.56.063.786.192.226.127.339.304.339.528,0,.103-.035.19-.106.264-.071.072-.153.109-.246.109-.088,0-.156-.022-.204-.067-.048-.044-.079-.09-.094-.137s-.037-.131-.065-.249c-.028-.115-.074-.196-.139-.244-.065-.049-.155-.072-.272-.072-.196,0-.37.078-.522.237-.152.157-.228.454-.228.886,0,.232.031.445.092.64.062.194.159.348.291.461.133.114.295.171.487.171.214,0,.377-.057.488-.172.112-.115.212-.25.298-.404l.272.137Z"/>
      <path class="st0" d="M155.971,34.632c0,.178-.034.33-.1.455-.067.124-.157.217-.27.277-.113.06-.241.089-.383.089-.181,0-.332-.046-.453-.138-.121-.093-.193-.204-.217-.332-.36.314-.723.47-1.087.47-.232,0-.423-.061-.572-.184s-.223-.284-.223-.486c0-.166.04-.317.12-.452.079-.134.196-.254.351-.36.154-.105.337-.198.551-.278.214-.082.48-.166.799-.255v-.2c0-.166-.036-.297-.108-.392-.073-.094-.206-.142-.4-.142-.166,0-.286.037-.359.112-.073.074-.122.188-.146.341-.017.107-.049.195-.095.265s-.143.104-.289.104c-.091,0-.17-.028-.239-.084-.07-.056-.104-.139-.104-.249,0-.218.109-.408.326-.569.218-.162.552-.243,1.003-.243.475,0,.801.087.979.26.178.173.267.405.267.696v1.109c0,.14.003.243.01.309.006.065.024.115.053.149s.075.051.137.051c.056,0,.106-.032.148-.095.041-.063.063-.139.063-.228h.239ZM154.486,34.66v-.87c-.409.14-.67.277-.781.413-.111.134-.167.266-.167.394,0,.107.031.194.091.26s.145.099.256.099c.118,0,.223-.027.314-.081.09-.055.186-.126.287-.215Z"/>
      <path class="st0" d="M159.735,35.373h-1.675v-.323c.127,0,.218-.017.273-.054.055-.037.088-.09.101-.16.013-.071.02-.187.02-.348v-.993c0-.199-.027-.356-.081-.472-.054-.116-.164-.173-.33-.173-.226,0-.395.094-.506.282-.111.189-.167.406-.167.652v.786c0,.186.024.311.074.38.049.068.156.101.32.101v.323h-1.707v-.323c.14,0,.243-.013.311-.04.067-.027.111-.074.132-.144.021-.068.032-.178.032-.328v-1.134c0-.164-.029-.271-.087-.321s-.187-.076-.388-.076v-.323l1.258-.301c.019.135.029.262.029.38,0,.031,0,.056-.001.078-.001.023-.002.048-.002.076.136-.156.277-.284.423-.384.147-.099.33-.149.55-.149.186,0,.352.037.5.109.148.073.264.183.348.331.084.146.126.325.126.533v1.183c0,.196.024.332.073.404.048.073.173.109.373.109v.323Z"/>
      <path class="st0" d="M162.159,34.748c-.117.265-.253.454-.408.569s-.337.172-.547.172c-.254,0-.442-.056-.563-.168s-.195-.238-.223-.377-.042-.295-.042-.469v-1.654h-.488v-.323c.205,0,.383-.041.534-.127.151-.084.27-.198.357-.341s.143-.295.167-.459h.265v.926h.915v.323h-.915v1.674c0,.204.012.35.037.441.024.09.085.135.182.135.104,0,.189-.044.256-.132.067-.088.131-.198.194-.328l.278.137Z"/>
      <path class="st0" d="M164.082,35.373h-1.756v-.323h.093c.125,0,.217-.018.273-.056.057-.037.092-.089.106-.157.013-.068.019-.167.019-.299v-1.042c0-.145-.008-.248-.024-.309-.016-.061-.059-.105-.126-.133s-.182-.044-.341-.046v-.323l1.326-.301v2.155c0,.196.023.332.068.404.045.073.166.109.362.109v.323ZM163.717,31.008c0,.14-.046.261-.138.36-.092.1-.202.149-.331.149-.127,0-.237-.05-.331-.153-.094-.101-.141-.22-.141-.356,0-.14.046-.26.139-.361.093-.1.204-.151.333-.151.132,0,.243.05.333.148.091.099.136.22.136.365Z"/>
      <path class="st0" d="M168.004,35.373h-1.675v-.323c.127,0,.218-.017.273-.054.055-.037.088-.09.101-.16.013-.071.02-.187.02-.348v-.993c0-.199-.027-.356-.081-.472-.054-.116-.164-.173-.33-.173-.226,0-.395.094-.506.282-.111.189-.167.406-.167.652v.786c0,.186.024.311.074.38.049.068.156.101.32.101v.323h-1.707v-.323c.14,0,.243-.013.311-.04.067-.027.111-.074.132-.144.021-.068.032-.178.032-.328v-1.134c0-.164-.029-.271-.087-.321s-.187-.076-.388-.076v-.323l1.258-.301c.019.135.029.262.029.38,0,.031,0,.056-.001.078-.001.023-.002.048-.002.076.136-.156.277-.284.423-.384.147-.099.33-.149.55-.149.186,0,.352.037.5.109.148.073.264.183.348.331.084.146.126.325.126.533v1.183c0,.196.024.332.073.404.048.073.173.109.373.109v.323Z"/>
      <path class="st0" d="M171.661,34.632c0,.178-.034.33-.1.455-.067.124-.157.217-.27.277-.113.06-.241.089-.383.089-.181,0-.332-.046-.453-.138-.121-.093-.193-.204-.217-.332-.36.314-.723.47-1.087.47-.232,0-.423-.061-.572-.184s-.223-.284-.223-.486c0-.166.04-.317.12-.452.079-.134.196-.254.351-.36.154-.105.337-.198.551-.278.214-.082.48-.166.799-.255v-.2c0-.166-.036-.297-.108-.392-.073-.094-.206-.142-.4-.142-.166,0-.286.037-.359.112-.073.074-.122.188-.146.341-.017.107-.049.195-.095.265s-.143.104-.289.104c-.091,0-.17-.028-.239-.084-.07-.056-.104-.139-.104-.249,0-.218.109-.408.326-.569.218-.162.552-.243,1.003-.243.475,0,.801.087.979.26.178.173.267.405.267.696v1.109c0,.14.003.243.01.309.006.065.024.115.053.149s.075.051.137.051c.056,0,.106-.032.148-.095.041-.063.063-.139.063-.228h.239ZM170.176,34.66v-.87c-.409.14-.67.277-.781.413-.111.134-.167.266-.167.394,0,.107.031.194.091.26s.145.099.256.099c.118,0,.223-.027.314-.081.09-.055.186-.126.287-.215Z"/>
      <path class="st0" d="M176.296,34.66c-.261.553-.68.829-1.258.829-.27,0-.525-.06-.765-.179s-.433-.292-.579-.52c-.145-.227-.218-.492-.218-.797,0-.21.039-.411.118-.603.079-.193.192-.365.341-.52s.325-.275.529-.36.422-.128.655-.128c.298,0,.56.063.786.192.226.127.339.304.339.528,0,.103-.035.19-.106.264-.071.072-.153.109-.246.109-.088,0-.156-.022-.204-.067-.048-.044-.079-.09-.094-.137s-.037-.131-.065-.249c-.028-.115-.074-.196-.139-.244-.065-.049-.155-.072-.272-.072-.196,0-.37.078-.522.237-.152.157-.228.454-.228.886,0,.232.031.445.092.64.062.194.159.348.291.461.133.114.295.171.487.171.214,0,.377-.057.488-.172.112-.115.212-.25.298-.404l.272.137Z"/>
      <path class="st0" d="M179.995,34.632c0,.178-.034.33-.1.455-.067.124-.157.217-.27.277-.113.06-.241.089-.383.089-.181,0-.332-.046-.453-.138-.121-.093-.193-.204-.217-.332-.36.314-.723.47-1.087.47-.232,0-.423-.061-.572-.184s-.223-.284-.223-.486c0-.166.04-.317.12-.452.079-.134.196-.254.351-.36.154-.105.337-.198.551-.278.214-.082.48-.166.799-.255v-.2c0-.166-.036-.297-.108-.392-.073-.094-.206-.142-.4-.142-.166,0-.286.037-.359.112-.073.074-.122.188-.146.341-.017.107-.049.195-.095.265s-.143.104-.289.104c-.091,0-.17-.028-.239-.084-.07-.056-.104-.139-.104-.249,0-.218.109-.408.326-.569.218-.162.552-.243,1.003-.243.475,0,.801.087.979.26.178.173.267.405.267.696v1.109c0,.14.003.243.01.309.006.065.024.115.053.149s.075.051.137.051c.056,0,.106-.032.148-.095.041-.063.063-.139.063-.228h.239ZM178.51,34.66v-.87c-.409.14-.67.277-.781.413-.111.134-.167.266-.167.394,0,.107.031.194.091.26s.145.099.256.099c.118,0,.223-.027.314-.081.09-.055.186-.126.287-.215Z"/>
      <path class="st0" d="M182.995,32.937c0,.135-.038.243-.115.321-.077.078-.167.117-.27.117-.123,0-.231-.065-.323-.196-.043-.059-.079-.1-.107-.126-.028-.027-.068-.039-.12-.039-.168,0-.299.099-.393.297-.093.198-.14.403-.14.616v.61c0,.196.023.332.07.404.046.073.168.109.367.109h.171v.323h-2.008v-.323h.168c.181,0,.292-.037.333-.112.041-.074.062-.207.062-.4v-1.025c0-.156-.015-.269-.044-.337-.029-.067-.081-.112-.157-.135-.075-.022-.196-.033-.362-.033v-.323l1.261-.301c.032.12.062.373.09.762.06-.138.14-.264.238-.378s.208-.207.33-.278c.122-.07.247-.105.374-.105.176,0,.317.054.42.161.103.109.155.239.155.394Z"/>
      <path class="st0" d="M184.97,35.373h-1.756v-.323h.093c.125,0,.217-.018.273-.056.057-.037.092-.089.106-.157.013-.068.019-.167.019-.299v-1.042c0-.145-.008-.248-.024-.309-.016-.061-.059-.105-.126-.133s-.182-.044-.341-.046v-.323l1.326-.301v2.155c0,.196.023.332.068.404.045.073.166.109.362.109v.323ZM184.604,31.008c0,.14-.046.261-.138.36-.092.1-.202.149-.331.149-.127,0-.237-.05-.331-.153-.094-.101-.141-.22-.141-.356,0-.14.046-.26.139-.361.093-.1.204-.151.333-.151.132,0,.243.05.333.148.091.099.136.22.136.365Z"/>
      <path class="st0" d="M188.752,33.912c0,.225-.038.436-.113.631-.076.195-.182.364-.319.506-.137.143-.294.253-.469.327s-.362.112-.558.112c-.231,0-.429-.049-.595-.145-.166-.098-.303-.222-.411-.375-.199.216-.342.389-.43.52h-.253v-3.89c0-.134-.015-.232-.043-.294-.029-.061-.078-.101-.146-.118-.068-.018-.173-.029-.315-.034v-.316l1.339-.309v2.271c.11-.112.237-.21.383-.293.145-.083.336-.124.571-.124.22,0,.416.044.587.131.171.085.314.203.428.35.115.148.2.311.258.492.057.181.085.366.085.558ZM187.856,33.884c0-.292-.045-.55-.134-.775-.09-.226-.265-.338-.528-.338-.095,0-.189.021-.28.062-.092.04-.177.096-.256.166-.079.071-.151.153-.218.247v1.429c.129.182.258.299.386.349s.242.076.341.076c.181,0,.323-.066.427-.195.103-.129.173-.284.209-.465.035-.181.053-.365.053-.555Z"/>
      <path class="st0" d="M192.105,33.828h-1.989c.002.045.009.139.018.284.009.145.04.294.09.447.051.151.138.279.262.384.124.104.29.156.5.156.114,0,.253-.032.414-.095s.301-.186.42-.365l.252.186c-.254.443-.658.664-1.213.664-.248,0-.474-.039-.677-.116s-.377-.184-.519-.323c-.142-.138-.251-.3-.326-.488-.076-.187-.113-.388-.113-.603,0-.283.063-.546.189-.787.126-.24.306-.432.541-.575.236-.143.503-.215.806-.215.295,0,.545.07.749.207s.354.317.451.537c.098.22.146.454.146.702ZM191.303,33.505c0-.535-.194-.801-.582-.801-.188,0-.332.073-.432.221s-.156.341-.167.58h1.181Z"/>
    </g>
  </g>
</svg>