<?xml version="1.0" encoding="UTF-8"?>
<svg id="Layer_1" xmlns="http://www.w3.org/2000/svg" version="1.1" viewBox="0 0 116.9 103.6">
  <!-- Generator: Adobe Illustrator 29.0.0, SVG Export Plug-In . SVG Version: 2.1.0 Build 186)  -->
  <defs>
    <style>
      .st0 {
        fill: #fff;
      }
    </style>
  </defs>
  <path class="st0" d="M8.8,103.6c-3.2,0-6-1.6-7.6-4.4-1.6-2.8-1.6-6,0-8.8L50.8,4.4c1.6-2.8,4.4-4.4,7.6-4.4s6,1.6,7.6,4.4l49.6,86c1.6,2.8,1.6,6,0,8.8-1.6,2.8-4.4,4.4-7.6,4.4H8.8ZM108.1,97.7c1.5,0,2.3-1,2.5-1.5s.8-1.6,0-2.9L61,7.3c-.8-1.3-2-1.5-2.5-1.5s-1.8.1-2.5,1.5L6.3,93.3c-.8,1.3-.3,2.5,0,2.9.3.4,1,1.5,2.5,1.5h99.3Z"/>
  <path class="st0" d="M54,79.5h8.9v9h-8.9v-9ZM54.3,46.9v-19h8.2v19l-2,24h-4.2l-2.1-24Z"/>
</svg>