<?xml version="1.0" encoding="UTF-8"?>
<svg id="Layer_1" xmlns="http://www.w3.org/2000/svg" version="1.1" viewBox="0 0 336 35.822">
  <!-- Generator: Adobe Illustrator 29.0.0, SVG Export Plug-In . SVG Version: 2.1.0 Build 186)  -->
  <defs>
    <style>
      .st0 {
        fill: #0000fd;
      }

      .st1 {
        fill: #fafafa;
      }
    </style>
  </defs>
  <rect class="st1" x="-26.938" y="-382.476" width="390" height="844"/>
  <g>
    <g>
      <path class="st0" d="M194.645,3.709c2.258-.219,4.858.092,7.135.152,9.415.251,18.853-.166,28.287.107.778.051,1.452.674,1.47,1.469v28.121c-.302,1.684-2.208,1.262-3.471,1.299-6.894.198-13.776-.116-20.682.058-4.556.115-9.135.027-13.7.057-.644-.038-1.177-.527-1.374-1.121-.089-9.444-.012-18.905-.038-28.356.176-1.157,1.318-1.683,2.373-1.786ZM194.7,4.707c-.549.056-1.409.3-1.487.953.011,7.026-.009,14.051-.001,21.077.002,1.71-.154,3.51-.055,5.213.064,1.104.169,2.096,1.47,2.191,4.077.295,8.479-.303,12.593-.056,6.684.042,13.399-.389,20.073-.114,1.672.069,3.214.382,3.357-1.799.061-.93-.097-1.902-.116-2.828-.02-.945.058-1.893.061-2.828.023-7.052,0-14.112-.029-21.16-.087-.335-.474-.418-.776-.444-1.107-.095-2.28.046-3.382.06-9.486.117-18.972.007-28.452-.224-1.011-.025-2.277-.139-3.255-.04Z"/>
      <path class="st0" d="M227.035,20.559c.237.148-.117,1.37-.222,1.62-.133.318-.574.865-.589,1.131-.024.419.498.681-.29,1.039-.834.379-1.458.231-2.274.998-.918.863.169,2.014.343,2.985.434.474.659-.421.854-.734.407-.655,1.187-1.514,1.91-1.806.505-.204,1.76-.509,1.881.28.257,1.678-1.582,1.732-2.696,2.232-.615.276-1.581.991-1.777,1.662-.08.273-.022.906-.427.898-.45-.008-.093-.788-.699-1.025-1.686-.66-3.665-.253-5.399-.479-.387-.05-.752-.184-1.131-.255-.319-.06-.852-.022-1.094-.181-.341-.225-.118-.421.103-.646.445-.452,1.366-.809,1.977-.99,1.775-.525,3.86-.472,5.308.795.554.167.237-.619.152-.876-.364-1.1-1.562-2.856-2.827-2.941-.686-.046-1.762.811-2.451,1.041-.298.099-.636.117-.946.219-.371.121-.781.459-1.193.337-.314-.092-.004-.601-.206-.792-.184-.174-1.505-.354-1.364-.862.134-.482,1.341-.173,1.666-.223.217-.033.306-.254.507-.274.423-.042.873.43,1.294.189.108-.062.198-.234.284-.273.27-.124.721.296.981.349.188.038,1,.049,1.123-.071.383-.374-.582-.881-.832-1.108-.403-.367-.777-.791-1.098-1.231-.239-.328-.427-.898-.838-.992-.282-.065-.612.052-.856-.142-.258-.206-.167-.635-.271-.894-.177-.44-1.437-.061-1.486-.959-.039-.713.802-.669.831-1.165.009-.157-.097-.321-.072-.515.06-.467.48-.713.91-.484.3.16.319.704.634.703.351-.001.454-.762,1.105-.669.336.048.395.398.36.686-.044.361-.419.643-.316.992.104.353.951.099,1.039.625.076.459-.302.786-.739.743-.302-.029-.754-.425-.76.197-.008.819,1.539,2.407,2.167,2.94.762.646.819.441.835-.447.01-.564-.01-.946.136-1.523.058-.231.358-.758.181-.929-.131-.127-.745-.047-.817-.43-.068-.359.015-.751.229-1.044.077-.106.236-.138.26-.298.042-.276-.597-.796-.214-1.264.345-.42.905.194,1.235.131.422-.081.423-.946,1.22-.811.606.103.332.844.529,1.247.221.454.66.223,1.026.305.503.113.434.92.124,1.21-.176.165-.495.164-.626.427-.133.269-.006.366-.011.595-.01.453-.278.945-.79.907-.769-.058-1.34-1.171-1.806.162-.538,1.539.313,3.263,1.375,4.367.642.667.667-.063.92-.518.124-.223.316-.427.419-.635.265-.536.048-1.173.516-1.646.384-.389.725.028,1.025-.195.207-.154.492-.985.804-1.303.152-.156.641-.511.854-.379ZM221.926,17.57c-.313.053-.656.367-.701.685-.208,1.449,1.999,1.28,1.826-.173-.06-.5-.717-.581-1.124-.512ZM216.436,17.847c-.746.153-.542,1.513.364,1.306.741-.169.843-1.553-.364-1.306ZM227.807,26.22c-.314.031-1.309.456-1.406.762-.083.262.03.296.266.267.235-.029,1.131-.284,1.315-.406.36-.237.331-.674-.175-.623ZM221.979,28.442c-.313-.351-1.741-.703-2.227-.739-.811-.061-1.927.134-2.691.421-.291.109-.397.297-.084.469.907-.004,1.811-.088,2.72-.058.339.011.769.031,1.106.058.291.024.75.175,1.002.168.199-.005.314-.162.174-.319Z"/>
      <path class="st0" d="M207.904,17.661c-.254.165-.411-.279-.546-.411-.307-.299-1.218-.456-1.638-.414-1.025.103-1.536,1.708-.11,1.829.573.048,1.196-.446,1.196.417,0,.813-.423.452-.855.352-.591-.136-1.4.24-1.367.921.058,1.205,1.036,1.677,2.09,1.149.311-.156,1.326-1.394,1.231-.266-.069.821-.352,1.122-1.137,1.248-2.103.338-3.621-.76-3.736-2.905-.053-.987.347-1.854.272-2.768-.013-.164-.191-.36-.036-.517.345-.353,1.893-.39,2.397-.403.647-.078,1.327.058,1.986.066.35.127.406,1.602.254,1.701Z"/>
      <g>
        <g>
          <path class="st0" d="M214.066,13.176c.072.105-.22.382-.305.443-.677.483-1.653.156-1.957-.594-.273-.674-.078-2.202-1.199-2.174-1.135.029-.825,1.444-.525,2.123.064.146.404.562.302.703-.096.134-1.061.096-1.254.027-.743-.264-.633-2.189-.607-2.83.03-.758.31-2.015.141-2.693-.097-.391-.41-.479.166-.659,1.049-.327,3.267-.457,4.157.273.872.714.745,1.792-.028,2.526-.19.181-.699.379-.668.662.007.069.424.567.51.713.231.394.385,1.117.771,1.336.105.06.48.122.495.143ZM209.981,9.83c.41.425,1.697.246,2.024-.24.526-.779-.197-1.384-.968-1.454-.252-.023-.892.021-1.096.166-.331.236-.214,1.264.04,1.528Z"/>
          <g>
            <path class="st0" d="M216.661,7.314c.724-.042,2.224-.006,2.812.427.675.498.761,1.471.222,2.108-.134.158-.492.348-.475.524.009.091.689.599.836.778.81.985.217,2.13-.873,2.512-.593.208-2.723.18-3.428.125-.192-.015-.567-.051-.626-.264.105-.778.381-1.528.434-2.317.044-.651.049-2.2-.149-2.789-.134-.398-.564-.5-.124-.812.341-.242.958-.268,1.371-.292ZM217.045,8.086c-.187.043-.242.171-.262.348-.04.341-.063,1.348.278,1.499.837.37,1.953-.607,1.378-1.489-.242-.371-.997-.448-1.393-.358ZM217.156,10.859c-.186.038-.359.178-.415.362-.094.309-.171,1.289-.057,1.583.21.543,1.248.546,1.653.235,1.116-.858.198-2.461-1.181-2.179Z"/>
            <path class="st0" d="M221.62,12.968c.176-.166.419.095.623-.128.144-.158.338-.904.403-1.149.188-.703.679-2.56.683-3.203.002-.275-.302-.869-.155-1.011.258-.247,2.316-.21,2.706-.098.331.095.482.259.581.584.403,1.325.798,3.529.861,4.906.013.286.082.831-.264.906-.252.054-1.239.057-1.484.01-.523-.099-.027-.635.075-.865.34-.762.217-1.963-.8-2.018-1.178-.064-.855.916-1.038,1.734-.182.812-.899,1.401-1.744,1.051-.21-.087-.659-.519-.448-.718ZM224.753,7.862c-.194.029-.241.22-.29.377-.11.348-.275,1.371-.125,1.679.146.3.834.44,1.034.117.213-.344.059-1.602-.147-1.947-.08-.134-.32-.25-.472-.227Z"/>
          </g>
        </g>
        <path class="st0" d="M206.929,8.999c-.082-.07-.17-.278-.264-.372-.332-.329-1.206-.48-1.659-.435-1.003.1-1.517,1.657-.166,1.818.281.033.975-.127,1.075-.079.247.118.241.981-.028,1.031-.355.066-.635-.354-1.285-.124-.669.237-.844.599-.645,1.276.342,1.162,1.49,1.209,2.342.532.145-.115.779-.897.891-.326.1.515-.176,1.279-.718,1.441-1.465.438-3.516-.151-3.965-1.748-.179-.635-.216-1.474-.132-2.128.055-.433.272-.983.27-1.393,0-.203-.192-.663-.116-.778.173-.262,1.001-.378,1.309-.414,1.026-.119,2.066-.042,3.094.011.312.091.429,1.275.347,1.544-.052.17-.191.278-.346.146Z"/>
      </g>
      <g>
        <path class="st0" d="M200.784,7.186c.631.089.556.464.455.954-.251,1.221-1.048,2.323-1.468,3.468-.332.905-.23,1.934-1.344,2.261-.614.18-1.525.041-1.61-.72-.129-1.158,1.253.651,1.224-.502-.021-.834-.495-1.616-.901-2.317-.295-.509-1.12-1.94-1.485-2.286-.101-.096-.696-.376-.405-.526.175-.091.724-.123.933-.112,1.264.069,1.073.789,1.495,1.665.154.319.785,1.354,1.184.853.249-.312.747-1.646.732-2.046-.005-.13-.188-.692.025-.692.344,0,.846-.045,1.165,0Z"/>
        <path class="st0" d="M196.888,22.313c-.225-.215.289-.64.419-.858.192-.323.256-.602.267-.978.025-.822.028-2.029-.032-2.84-.054-.726-.352-1.391-1.139-.802-.234.175-.456.838-.662.774-.226-.07-.311-1.346.122-1.536.139-.061.538-.116.704-.128.858-.061,2.135-.051,2.999,0,.349.021,1.053.048,1.194.414.082.214.191,1.15,0,1.283-.222.154-.483-.557-.64-.697-.302-.27-.933-.357-1.002.164-.109,1.335.077,2.754-.023,4.081-.028.375-.118.936-.501,1.107-.305.136-1.476.234-1.706.014Z"/>
      </g>
      <g>
        <path class="st0" d="M197.982,30.92c-.822.094-1.51.289-1.791-.674-.16-.548-.122-1.692-.096-2.294.033-.739.302-1.885.131-2.566-.061-.24-.302-.365-.057-.522.543-.347,2.564-.42,3.222-.314,1.771.287,2.388,1.82,1.006,3.1-.193.179-.616.303-.519.625.022.075.406.507.499.668.222.386.386,1.124.771,1.336.266.146.911.096.181.577-.709.467-1.62.181-1.947-.585-.285-.67-.085-2.216-1.203-2.181-.92.029-.891.996-.712,1.655.117.43.432.753.514,1.174ZM198.027,25.391c-.686.083-.762.349-.708,1.01.026.314.142.684.466.809.631.244,1.898-.008,1.961-.824.069-.891-1.064-1.074-1.72-.995Z"/>
        <g>
          <path class="st0" d="M207.252,30.208c.069-.11.511.012.662-.142.122-.125.366-1.062.424-1.295.177-.7.708-2.752.612-3.354-.03-.186-.286-.551-.139-.693.272-.263,2.406-.219,2.804-.086.31.104.386.212.484.515.419,1.296.891,3.949.916,5.3.003.186-.087.494-.276.555-.194.063-1.6.056-1.698-.083-.16-.228.304-.793.381-1.067.173-.615-.023-1.596-.771-1.704-1.413-.204-.955,1.002-1.24,1.912-.22.703-.928,1.155-1.651.868-.206-.081-.658-.486-.508-.726ZM210.253,25.169c-.214.204-.392,1.652-.276,1.94.12.297.612.392.889.309.46-.138.213-1.759.007-2.092-.117-.19-.444-.323-.62-.156Z"/>
          <path class="st0" d="M203.852,24.447c.223-.01.802.049.992.141.196.096.246.238.279.442.087.547-.086,1.505-.099,2.09-.016.755-.112,2.442.158,3.063.123.283.531.619-.03.724-.65.122-1.537-.115-1.665-.859-.234-1.366.188-2.751.097-4.09-.009-.137-.054-.59-.096-.681-.066-.144-.277-.183-.372-.294-.327-.384.479-.525.736-.537Z"/>
        </g>
      </g>
    </g>
    <g>
      <path class="st0" d="M114.484,32.97c.578.003,1.792-.175,1.809.68.005.266-.262.483-.267.635-.001.04.376.105.376.64,0,.993-1.214.879-1.918.864v-2.819ZM115.734,34.039c.139-.12.164-.505-.014-.623l-.872-.083v.819c.047.047.787-.028.886-.114ZM114.848,35.426c1.597.221,1.601-1.221,0-1.001v1.001Z"/>
      <path class="st0" d="M89.205,32.97c1.289-.265,2.685.507,1.267,1.597l.641,1.086c-.808.587-.659-1.316-1.544-1.046l-.043,1.094-.274.088c-.202-.119-.046-.191-.046-.226v-2.592ZM90.458,33.354l-.89-.021v.91c.693.098,1.436-.117.89-.89Z"/>
      <path class="st0" d="M118.325,35.759c-.055-.327-.259-.02-.449.01-1.542.238-.931-1.499.338-1.345.063-.853-1.014-.189-1.091-.273l.012-.351c1.048-.409,1.449-.152,1.532.944.017.221.071.96-.136,1.044l-.205-.029ZM118.212,34.698c-.447.048-.963.161-.805.714.545.262.917-.151.805-.714Z"/>
      <path class="st0" d="M100.117,33.697v1.591c0,.226.704.151.818-.091v-1.5s.455,0,.455,0v1.955c0,.097-.262.174-.363.137l-.045-.273c-.32.297-.724.381-1.115.158-.02-.095-.205-.353-.205-.386v-1.591s.455,0,.455,0Z"/>
      <path class="st0" d="M98.73,33.811c.09.099.19.675.204.843.019.235.095,1.182-.212,1.123-.275-.304-.455.01-.832.02-.393.01-.58-.107-.595-.51-.028-.729.458-.666.986-.839.13-.042.23.042.202-.161-.077-.555-.741-.212-1.047-.134-.184-.552.987-.681,1.294-.342ZM98.479,34.698c-.409.079-1.12.18-.688.736.48.23.798-.266.688-.736Z"/>
      <path class="st0" d="M105.3,35.789c-.322.134-.386-.186-.412-.187-.215-.005-.92.516-1.177-.088-.355-.836.587-1.057,1.225-1.09l-.337-.44c-.346-.147-.743.428-.845-.059.302-.301.985-.456,1.316-.135.03.03.23.383.23.407v1.591ZM104.641,34.713c-.729.089-.798.916-.16.765.585-.138.57-.815.16-.765Z"/>
      <path class="st0" d="M93.297,34.789h-1.364c-.037.36.311.755.676.727.232-.017.506-.395.597.044-.418.432-1.413.286-1.596-.312-.546-1.786,1.769-2.381,1.687-.459ZM92.82,34.084c-.321-.314-.898-.022-.887.432h.999c.005-.129-.021-.341-.113-.432Z"/>
      <path class="st0" d="M111.757,34.789l-1.277.042c-.173.348.273.682.598.676.222-.004.396-.327.587-.035.07.359-1.342.645-1.593-.317-.461-1.765,1.829-2.172,1.685-.366ZM111.393,34.515c.104-.712-.82-.743-.999-.134-.05.17.029.121.133.135.267.036.59-.025.866,0Z"/>
      <path class="st0" d="M107.755,35.789h-.364s0-1.5,0-1.5c0-.529-.909-.238-.909,0v1.5s-.364,0-.364,0v-2.091c.495.242.458.021.814-.056.308-.067.822.17.822.465v1.682Z"/>
      <path class="st0" d="M95.206,33.789c.037.57-1.138-.17-.989.488.063.276,1.012.212,1.079.838.089.835-1.018.775-1.544.49l.225-.339c.181.246.963.357.962-.069,0-.413-1.138-.287-1.096-.994.04-.665.909-.661,1.363-.415Z"/>
      <path class="st0" d="M96.297,33.698h.547s0,.272,0,.272h-.547c.057.345-.153,1.351.183,1.505.136.062.329-.137.453.088.051.275-.514.258-.682.226-.533-.101-.236-1.279-.329-1.671l-.35-.152-.003-.268h.365s-.005-.486-.005-.486l.232-.149c.213.151.126.414.136.635Z"/>
      <path class="st0" d="M109.028,33.698h.547s0,.272,0,.272l-.461.04c-.12.082-.125,1.1-.07,1.264.101.304.472.096.577.242.233.324-.711.446-.908-.001-.236-.535.286-1.39-.41-1.68l.349-.148c-.057-.854.47-.821.376.012Z"/>
      <path class="st0" d="M119.395,33.697c.322-.133.384.185.41.185.176,0,.472-.403.772-.275l.004.316c-.6.097-.787.296-.825.907-.015.238.098.744.083.814-.05.235-.444.138-.444.008v-1.955Z"/>
      <path class="st0" d="M102.572,35.789c-.106.037-.364-.04-.364-.136v-1.955c.238-.033.233.002.319.185.111-.003.781-.516.863-.138.047.217-.818.318-.818.726v1.319Z"/>
      <path class="st0" d="M113.12,33.879l.088.418.458.084-.346.361.165.41c-.358.133-.309-.434-.549-.227-.042.036-.049.137-.082.165-.451.398-.165-.329-.193-.428-.043-.154-.336-.08-.267-.281.121-.197.273-.043.454-.046-.013-.21-.01-.482.273-.455Z"/>
      <path class="st0" d="M104.391,12.601c-.86.749-1.758.747-2.815.451-.076-.469.363-.742.536-1.12-1.006-.854-1.493-1.946-1.358-3.286l2.365.863c-.173-.377-.412-.757-.519-1.162-.047-.178-.279-1.16.068-1.071l.724.415c-.107-.98.453-1.597,1.15-2.175.784.484,1.24,1.235,1.216,2.175.113.131.797-.693.902-.307.144.531-.453,1.615-.629,2.126l2.152-.897c.391-.039.15,1.129.096,1.372-.165.739-.645,1.567-1.339,1.891.25.361.62.708.637,1.18-.538.107-1.02.253-1.584.174-.507-.07-.882-.427-1.326-.628v6.184s-.273-.136-.273-.136v-6.047ZM105.391,8.327v-1.409c0-.164-.689-1.066-.851-1.038-.487.408-.861.937-.88,1.589-.006.215.254.976-.136.771-.148-.078-.646-.559-.771-.458l.818,1.999c-.265.354-2.013-.666-2.41-.728-.215-.033-.153.259-.141.415.08.996.774,1.983,1.64,2.451.002.08-.819.661-.725.954.691.095,1.078.178,1.731-.133.891-.424.741-.777.724-1.686h.272c.005.779-.174.992.48,1.476.628.466,1.374.632,2.065.207l-.726-.954c1.116-.309,1.548-1.671,1.636-2.729-.894.097-1.603.871-2.545.727.198-.686.744-1.249.726-2l-.908.546Z"/>
      <path class="st0" d="M99.572,11.873l-3.98-8.978c-.304-2.856,4.05-2.842,3.788-.08-.079.836-.986,1.391-.985,1.739,0,.215,1.204,2.228,1.375,2.711.337.947.167,3.335-.022,4.377-.02.109-.05.215-.176.232ZM99.57,10.873c-.01-1.078.278-2.332-.025-3.384-.213-.741-1.405-2.388-1.426-2.945-.021-.582,1.125-.942.959-2.131-.3-2.138-3.469-1.671-3.215.481,1.118,2.46,2.147,4.974,3.328,7.404.094.193.177.474.379.575Z"/>
      <path class="st0" d="M112.907,1.174c.613.546.676,1.288.534,2.063l-3.758,8.336-.291.209c-.056-1.344-.475-2.787-.174-4.128.181-.804,1.449-2.631,1.451-3.1.002-.429-.391-.579-.59-.87-1.278-1.863,1.19-3.965,2.827-2.509ZM109.575,10.873l3.615-7.796c.56-2.259-2.862-2.907-3.138-.682-.155,1.244.952,1.427.892,2.248-.05.671-1.189,2.123-1.42,2.951-.301,1.078-.003,2.191.052,3.279Z"/>
      <path class="st0" d="M109.573,4.417c.269.234-.908.484-.997.503-1.897.394-4.483.403-6.413.223-.339-.031-2.533-.319-2.594-.499.006-.161-.071-.239.138-.23.275.012.703.193,1.029.246,2.903.476,5.971.394,8.837-.243Z"/>
      <path class="st0" d="M102.027,19.695c1.266-.556,3.072-.682,4.384-.248.269.089.525.134.706.383-.143.2-.167.115-.334.064-1.393-.422-2.523-.56-3.979-.196-.315.079-.735.51-.778-.004Z"/>
      <circle class="st0" cx="95.07" cy="10.145" r=".326"/>
      <path class="st0" d="M113.769,10.405c-.283-.465.338-.838.581-.443.271.438-.452.656-.581.443Z"/>
      <path class="st0" d="M94.615,8.963c1.238.139,2.591,1.068,3.266,2.099.347.53.596,1.252.941,1.785.057.088-.01.162.203.117-.01-.169.099-.341.095-.503-.008-.315-1.372-2.742-1.627-3.284-.771-1.636-1.978-4.035-2.472-5.712-.378-1.281.058-2.565,1.288-3.177,2.254-1.12,4.564,1.24,3.536,3.49,3.152.13,6.304.095,9.456,0-1.109-2.357,1.45-4.744,3.701-3.382.97.587,1.377,1.657,1.189,2.77-.153.902-1.345,3.342-1.781,4.311-.418.929-.852,1.877-1.3,2.792-.163.333-1.167,1.996-1.15,2.178.013.137.205.326.162.515.715-.844,1.017-2.049,1.864-2.818.49-.445,1.902-1.183,2.545-1.183h1.591c-.749,2.623-3.381,3.729-5.637,4.821-.025.155.218.098.309.082.761-.128,1.356-.668,2.056-.946,1.129-.447,2.347-.511,3.426.117.117.068.831.589.664.745-2.114-.246-4.148,1.249-6.183.638.145.31.246.599.598.72.171.059,1.296.224,1.429.192.058-.014.25-.409.495-.528.911-.44,2.603.315,2.228,1.409-.314.916-1.888.654-2.435.029-.176-.201-.201-.544-.376-.624s-.824-.128-1.05-.136c-.094-.003-.127-.122-.25.073l.652.846c.653-.064,1.048-.041,1.571.384,1.547,1.255.703,3.879-1.164,2.437-.833-.644-.977-1.694-.619-2.647l-.761-.974c-.343.584.004.688.183,1.09.735,1.64-1.18,3.412-1.945,1.945-.489-.938.156-2.587,1.346-2.496.158-.662.276-1.161-.223-1.719-.21-.235-.589.306-.697.48-.341.549-.393,1.3-.8,1.791l-.225-1.549-1.048-.315c.467-.381,2.308-.875,2.258-1.613-.009-.135-.183-.549-.347-.433-.307.563-.997,1.176-1.577,1.47-.716.363-1.644.358-1.948,1.235-.16.462-.478,2.722-.257,3.029.53.156,1.096.191,1.618.383,1.424.524,1.436,1.471-.157,1.702-1.419.206-4.018.185-5.446-.009-1.419-.193-1.57-1.029-.269-1.614.581-.261,1.201-.317,1.811-.462.199-.28-.143-2.716-.334-3.133-.339-.74-1.04-.734-1.688-1.04-.513-.242-1.031-.623-1.444-1.012-.142-.133-.333-.499-.452-.549-.149-.062-.272.478-.279.54-.05.514,1.949,1.225,2.325,1.506-1.394.145-1.175.679-1.273,1.863-.233.037-.142-.019-.19-.128-.329-.74-.41-1.637-1.08-2.194-.206-.127-.519.472-.569.619-.134.391.018.762.127,1.144,1.73-.163,2.015,3.396.232,2.996-.877-.197-1.242-1.668-.905-2.412.206-.454.489-.196.292-.98-.033-.133.067-.161-.178-.135l-.698,1.046c.73.994-.193,2.835-1.349,2.957-1.873.198-1.352-2.557.069-3.114.4-.157.832-.013,1.064-.116.146-.066.741-.816.638-.955-.326.173-.98.05-1.271.229-.124.077-.213.451-.373.627-.593.651-2.404.808-2.453-.266-.05-1.099,1.704-1.724,2.508-1.046.142.12.125.328.364.37.135.024,1.193-.137,1.356-.192.312-.108.444-.404.506-.721-1.307.545-2.538-.187-3.798-.43-.76-.147-1.614-.205-2.385-.207.764-1.28,2.538-1.406,3.843-.977.745.245,1.49.87,2.226,1.048.093.022.482.106.478-.068-1.958-.928-4.024-1.756-5.165-3.702-.189-.323-.463-.758-.472-1.119.51.041,1.092-.056,1.591,0ZM109.755,4.143l-10.31-.009-.103-.171c1.001-1.264.189-3.368-1.387-3.615-1.828-.287-3.103,1.181-2.688,2.96.267,1.145,1.472,3.538,2.013,4.716.833,1.812,2.145,5.043,3.954,5.958.503.254,1.295.394,1.694.761.53.488.673,1.757.732,2.451.021.246.088,1.346.026,1.477-.159.333-.543.162-.866.228-1.2.243-3.166,1.239-.663,1.435,1.019.08,4.692.133,5.524-.121.317-.097.569-.143.388-.517-.363-.748-2.591-.802-2.667-.925.104-1.115-.09-3.476.957-4.155.988-.641,1.799-.526,2.756-1.609,2.113-2.391,3.352-7.043,4.817-9.915.461-3.006-3.683-3.81-4.497-1.223-.28.891.025,1.46.319,2.274ZM98.843,13.51c-.886-1.79-1.67-3.621-3.796-4.16l-1.66-.112c.72,1.848,2.367,2.779,4.031,3.652.201.106,1.324.713,1.425.62ZM115.666,9.237c-2.904-.266-4.393,1.884-5.364,4.273,2.065-.97,4.569-1.923,5.364-4.273ZM98.116,14.057c-.631-.013-1.18-.532-1.729-.773-1.215-.533-2.527-.667-3.636.181.6.123,1.238.131,1.839.252.96.192,2.203.787,3.167.571.13-.029.325-.079.359-.231ZM116.393,13.42c-.398-.163-.814-.457-1.249-.525-1.528-.238-2.666.557-3.988,1.152-.108.049-.164-.043-.128.19,1.058.256,2.074-.119,3.074-.427l2.291-.39ZM99.205,13.694c-.741.272-.022.517.211.84.245.34.343.675.495,1.049.055.136-.055.247.204.2l.042-.821.594-.223c-.512-.322-1.272-.476-1.548-1.044ZM110.119,13.692c-.089-.067-.774.563-.935.655-.27.155-.592.24-.882.346l.615.202.113.979.56-1.212.613-.575-.084-.394ZM95.92,15.159c-.012-.019-.362-.163-.416-.173-1.477-.261-2.401,1.453-.891,1.532.625.032,1.114-.229,1.411-.781l-.543-.181c.12-.153.275-.223.452-.136-.008-.083.026-.198-.013-.261ZM113.121,15.693c.156.727,1.619,1.165,2.04.539.581-.865-1.463-1.785-2.038-.949l.453.137v.272s-.455,0-.455,0ZM99.179,16.631c-.141-.12-.417-.217-.607-.211-.068.067.247.557-.092.501l-.271-.32c-.43.599-.15,2.187.689,2.273,1.021.104.905-1.715.281-2.244ZM110.574,16.421c-1.239-.122-1.584,2.614-.326,2.452.73-.094,1.201-1.657.643-2.18l-.408.181.09-.454ZM96.752,16.694c-1.13-.398-2.438,1.925-1.492,2.536,1.01.652,2.588-1.464,1.719-2.352l-.409.178.181-.362ZM113.542,17.089c-.307-.301-.717-.447-1.149-.396l.09.363c-.052.055-.738-.524-.537.856.102.698,1.037,1.653,1.787,1.348.798-.324.291-1.699-.191-2.171Z"/>
      <path class="st0" d="M116.735,30.674c-2.394.728-4.079-2.234-3.886-4.296.423-4.524,7.429-4.857,8.501-.773.448,1.709-.236,4.506-2.134,5.048-.363.104-1.727.257-1.321-.411.102-.168,1.192-.541,1.544-.82,3.188-2.531-.107-7.459-3.943-5.489-2.008,1.031-2.373,4.618-.274,5.71.279.145,2.076.491,1.514,1.032Z"/>
      <path class="st0" d="M91.092,22.809c3.462-.44,5.96,1.987,4.937,5.483-.366,1.251-1.414,2.587-2.858,2.493-.613-.04-.795-.386-.212-.743.913-.558,1.509-.484,2.1-1.628,1.566-3.033-1.519-5.826-4.525-4.616-2.279.918-2.701,4.629-.561,5.811.343.189,1.301.39,1.506.585.083.079.109.158.093.271-.058.648-1.561.246-1.941.032-3.175-1.781-2.46-7.19,1.461-7.689Z"/>
      <path class="st0" d="M98.325,23.175c.232-.279.711-.311.774.13.03.211-.578,1.764-.623,2.341-.13,1.668.613,4.175,2.591,4.326,2.829.216,3.37-3.375,2.919-5.464-.072-.334-.718-1.528-.099-1.542.609-.014.989,1.743,1.039,2.239.217,2.171-.45,4.959-2.828,5.607-2.526.689-4.204-1.934-4.348-4.16-.041-.635.202-3.028.576-3.478Z"/>
      <path class="st0" d="M107.576,29.966c.191.199,2.714.022,3.219.1.185.029.392.101.42.315l-.087.37-.322.131-4.559-.363c-.28-.382,1.399-2.303,1.674-2.703.366-.531,2.201-3.203,2.199-3.627l-.152-.209-3.15.055c-.34-.037-.395-.436-.297-.711l4.597-.04c.154.096.226.24.146.411-.955,1.511-1.848,3.06-2.8,4.573-.168.267-1.149,1.426-.889,1.697Z"/>
    </g>
    <g>
      <g>
        <path class="st0" d="M7.217,33.469v-1.362l-.537,1.157h-.297l-.537-1.157v1.362h-.413v-2.02h.511l.589,1.235.586-1.235h.508v2.02h-.41Z"/>
        <path class="st0" d="M9.395,31.827v.439h.975v.378h-.975v.447h1.114v.378h-1.57v-2.02h1.538v.378h-1.082Z"/>
        <path class="st0" d="M13.146,33.469l-.978-1.296v1.296h-.436v-2.02h.416l.981,1.298v-1.298h.433v2.02h-.416Z"/>
        <path class="st0" d="M15.728,31.449c.626,0,1.062.413,1.062,1.01s-.442,1.01-1.079,1.01h-.84v-2.02h.857ZM15.327,33.085h.413c.338,0,.586-.254.586-.623,0-.372-.26-.629-.606-.629h-.392v1.252Z"/>
        <path class="st0" d="M17.956,33.469v-2.02h.456v2.02h-.456Z"/>
        <path class="st0" d="M21.095,33.469v-.796h-.915v.796h-.456v-2.02h.456v.843h.915v-.843h.456v2.02h-.456Z"/>
        <path class="st0" d="M24.647,32.623c0,.534-.349.866-.906.866-.56,0-.918-.332-.918-.866v-1.174h.456v1.174c0,.291.19.467.462.467s.45-.176.45-.467v-1.174h.456v1.174Z"/>
        <path class="st0" d="M26.259,33.076l-.159.392h-.47l.877-2.02h.47l.863,2.02h-.488l-.159-.392h-.935ZM26.73,31.925l-.32.785h.638l-.317-.785Z"/>
        <path class="st0" d="M30.59,31.769l-.265.323c-.139-.159-.338-.263-.525-.263-.346,0-.615.268-.615.62s.268.623.615.623c.182,0,.381-.092.525-.237l.268.291c-.214.219-.522.361-.817.361-.603,0-1.059-.447-1.059-1.033s.464-1.022,1.076-1.022c.291,0,.597.13.796.335Z"/>
        <path class="st0" d="M32.108,33.076l-.159.392h-.47l.877-2.02h.47l.863,2.02h-.488l-.159-.392h-.935ZM32.578,31.925l-.32.785h.638l-.317-.785Z"/>
        <path class="st0" d="M36.268,32.733v-.294h.744v.294h-.744Z"/>
        <path class="st0" d="M41.609,33.469v-1.362l-.537,1.157h-.297l-.537-1.157v1.362h-.413v-2.02h.511l.589,1.235.586-1.235h.508v2.02h-.41Z"/>
        <path class="st0" d="M43.729,33.076l-.159.392h-.47l.877-2.02h.47l.863,2.02h-.488l-.159-.392h-.935ZM44.2,31.925l-.32.785h.638l-.317-.785Z"/>
        <path class="st0" d="M48.083,32.45v.776c-.214.156-.54.263-.819.263-.612,0-1.076-.444-1.076-1.03s.473-1.024,1.102-1.024c.3,0,.606.116.811.294l-.257.326c-.15-.139-.358-.225-.554-.225-.358,0-.635.274-.635.629,0,.358.28.632.638.632.121,0,.265-.043.395-.11v-.531h.395Z"/>
        <path class="st0" d="M50.204,31.449c.626,0,1.062.413,1.062,1.01s-.442,1.01-1.079,1.01h-.84v-2.02h.857ZM49.803,33.085h.413c.338,0,.586-.254.586-.623,0-.372-.26-.629-.606-.629h-.392v1.252Z"/>
        <path class="st0" d="M52.775,33.076l-.159.392h-.47l.877-2.02h.47l.863,2.02h-.488l-.159-.392h-.935ZM53.245,31.925l-.32.785h.638l-.317-.785Z"/>
        <path class="st0" d="M56.753,33.071v.398h-1.322v-2.02h.456v1.622h.866Z"/>
        <path class="st0" d="M58.346,31.827v.439h.975v.378h-.975v.447h1.114v.378h-1.57v-2.02h1.538v.378h-1.082Z"/>
        <path class="st0" d="M62.097,33.469l-.978-1.296v1.296h-.436v-2.02h.415l.981,1.298v-1.298h.433v2.02h-.416Z"/>
        <path class="st0" d="M64.22,33.076l-.159.392h-.47l.877-2.02h.47l.863,2.02h-.488l-.159-.392h-.935ZM64.691,31.925l-.32.785h.638l-.317-.785Z"/>
      </g>
      <g>
        <path class="st0" d="M16.399,12.714h-3.568l.218-.696v-4.699l-.218-.696h2.175l-.261.783v3.698l.131.131h1.218l.896-.305-.592,1.784Z"/>
        <path class="st0" d="M20.314,12.714l.087-.696-.131-.522-.087-.087h-1.436l-.087.087-.13.522.087.696h-2.001l.348-.696,1.218-4.829-.13-.566h2.958l-.13.566,1.218,4.829.348.696h-2.132ZM19.505,8.145l-.043-.304-.043.304-.435,1.871.087.087h.783l.087-.087-.435-1.871Z"/>
        <path class="st0" d="M26.71,12.714h-3.872l.218-.696v-4.699l-.218-.696h3.872l.957.957v1.175l-.653.653.74.74v1.523l-1.044,1.044ZM25.927,8.319l-.131-.261-.261-.13h-.74l-.087.087v.783l.087.087h.74l.261-.131.131-.261v-.174ZM25.97,10.625l-.131-.261-.348-.174h-.696l-.087.087v.957l.13.13h.653l.348-.174.131-.261v-.305Z"/>
        <path class="st0" d="M32.627,12.714h-3.785l.218-.696v-4.699l-.218-.696h3.655l.548,1.653-.766-.261h-1.497l-.07.087v.609l.087.087h.566l.653-.217v1.827l-.653-.217h-.566l-.087.087v.827l.13.131h1.462l.914-.305-.592,1.784Z"/>
        <path class="st0" d="M37.065,12.714l-.653-1.958-.174-.087h-.479l-.087.087v1.262l.217.696h-2.088l.218-.696v-4.699l-.218-.696h3.785l1.131,1.131v1.697l-.783.783.609,1.653.479.827h-1.958ZM37.021,8.537l-.174-.348-.348-.174h-.74l-.087.087v1.088l.087.087h.74l.348-.174.174-.348v-.217Z"/>
        <path class="st0" d="M39.805,12.714l.218-.696v-4.699l-.218-.696h2.132l-.218.696v4.699l.218.696h-2.132Z"/>
        <path class="st0" d="M47.985,7.319v5.395h-1.175l-1.914-3.219-.174-.435.044.435v2.523l.217.696h-1.914l.218-.696v-4.699l-.261-.696h1.871l1.523,2.567.174.435-.043-.435v-1.871l-.218-.696h1.871l-.218.696Z"/>
        <path class="st0" d="M52.797,8.058h-.679l-.087.087v3.655l.304.914h-2.306l.304-.914v-3.655l-.087-.087h-.679l-.905.305.583-1.74h3.872l.583,1.74-.905-.305Z"/>
        <path class="st0" d="M57.948,12.714h-2.697l-1.131-1.131v-3.829l1.131-1.131h2.697l1.131,1.131v3.829l-1.131,1.131ZM57.339,8.494l-.174-.348-.348-.174h-.435l-.348.174-.174.348v2.262l.174.348.348.174h.435l.348-.174.174-.348v-2.262Z"/>
      </g>
      <g>
        <path class="st0" d="M7.981,27.274l.376-1.204v-4.665l.075-.602-.226.602-2.408,5.869h-.075l-2.408-5.869-.226-.602.075.602v4.665l.376,1.204H.306l.376-1.204v-8.126l-.376-1.204h3.762l1.731,4.244.075.346.075-.346,1.731-4.244h3.838l-.376,1.204v8.126l.376,1.204h-3.537Z"/>
        <path class="st0" d="M18.59,27.274l.151-1.204-.226-.903-.151-.151h-2.483l-.15.151-.226.903.15,1.204h-3.461l.602-1.204,2.107-8.352-.226-.978h5.116l-.226.978,2.107,8.352.602,1.204h-3.687ZM17.191,19.373l-.075-.527-.075.527-.752,3.235.151.15h1.354l.151-.15-.752-3.235Z"/>
        <path class="st0" d="M29.199,27.274h-4.214l-2.107-2.107v-6.321l2.107-2.107h4.063l1.023,3.085-1.806-.602h-1.023l-.903.451-.376.752v3.16l.376.752.903.451h1.174l1.806-.602-1.023,3.085Z"/>
        <path class="st0" d="M37.928,27.274h-4.665l-1.956-1.956v-6.621l1.956-1.956h4.665l1.956,1.956v6.621l-1.956,1.956ZM36.874,19.975l-.301-.602-.602-.301h-.752l-.602.301-.301.602v3.913l.301.602.602.301h.752l.602-.301.301-.602v-3.913Z"/>
        <path class="st0" d="M50.267,17.944v9.33h-2.032l-3.311-5.568-.301-.752.075.752v4.364l.376,1.204h-3.311l.376-1.204v-8.126l-.451-1.204h3.235l2.634,4.439.301.752-.075-.752v-3.235l-.376-1.204h3.235l-.376,1.204Z"/>
        <path class="st0" d="M59.146,27.274h-6.546l.376-1.204v-8.126l-.376-1.204h6.546l2.107,2.107v6.321l-2.107,2.107ZM58.243,20.201l-.376-.752-.752-.376h-.978l-.151.151v5.342l.226.226h.903l.752-.376.376-.752v-3.461Z"/>
        <path class="st0" d="M69.68,27.274h-4.665l-1.956-1.956v-6.621l1.956-1.956h4.665l1.956,1.956v6.621l-1.956,1.956ZM68.627,19.975l-.301-.602-.602-.301h-.752l-.602.301-.301.602v3.913l.301.602.602.301h.752l.602-.301.301-.602v-3.913Z"/>
      </g>
    </g>
    <g>
      <path class="st0" d="M271.435,32.925c-.367-.169-.668-.291-.953-.441-2.552-1.344-5.086-2.724-7.664-4.017-.656-.329-1.449-.524-2.184-.539-2.924-.06-5.85-.053-8.774-.007-.813.013-1.033-.263-1.03-1.029.022-6.192.02-12.384.001-18.575-.002-.742.173-1.053,1.01-1.048,6.253.035,12.507.027,18.76.007.67-.002.965.16.963.886-.018,7.999-.01,15.998-.015,23.997,0,.222-.065.443-.115.766ZM261.219,21.57c2.373-.005,4.082-1.637,4.072-3.89-.009-2.184-1.854-4.049-4.015-4.058-2.211-.009-4.145,1.877-4.155,4.053-.01,2.207,1.771,3.899,4.097,3.894ZM270.834,23.011c-.054-1.514-1.133-2.974-2.497-3.425-.913-.302-1.649-.003-2.281.634-.595.601-.803,1.316-.442,2.11.29.637.688,1.229.938,1.878.121.315.013.717.008,1.079-.381-.091-.931-.057-1.11-.298-.466-.625-.77-1.37-1.189-2.161-.351.026-.804.059-1.244.091-.096,1.654,1.129,3.547,2.567,4.009.906.292,1.724.104,2.404-.586.642-.65.724-1.42.411-2.225-.204-.526-.51-1.013-.765-1.52-.232-.461-.713-1.034-.01-1.346.262-.116.83.423,1.242.69.096.062.156.226.177.352.206,1.232.928,1.137,1.79.719ZM251.689,11.665c-.022,1.683,1.083,3.41,2.464,3.953.889.349,1.716.229,2.431-.429.731-.672.863-1.489.49-2.377-.219-.522-.585-.989-.752-1.522-.128-.409-.049-.883-.062-1.328.43.227.871.437,1.282.694.12.075.161.285.226.439q.501,1.177,1.864.581c-.304-1.518-1.03-2.711-2.546-3.315-.894-.357-1.645-.058-2.293.567-.641.62-.841,1.365-.47,2.193.259.578.645,1.105.854,1.697.132.375.041.827.05,1.245-.422-.16-1.002-.201-1.233-.505-.429-.562-.655-1.278-.989-1.979-.4.026-.826.054-1.314.087ZM266.426,14.688c-.051,1.285.069,1.461,1.002,1.206,1.281-.35,2.309-1.068,2.944-2.261.501-.941.333-1.803-.37-2.581-.674-.747-1.495-.852-2.383-.481-.524.219-.993.588-1.529.752-.415.127-.895.04-1.346.048.206-.41.393-.832.63-1.223.074-.123.279-.175.431-.244q1.258-.566.68-1.877c-1.388.241-2.497.903-3.178,2.168-.506.939-.365,1.83.349,2.581.709.746,1.541.912,2.47.46.603-.293,1.168-.673,1.79-.911.274-.105.648.047.976.083-.07.329-.027.81-.23.959-.657.483-1.404.845-2.233,1.32ZM255.229,19.351c-1.603.129-3.055,1.241-3.443,2.628-.246.879.082,1.584.698,2.17.572.544,1.255.796,2.029.44.638-.293,1.236-.685,1.891-.926.346-.127.776-.023,1.169-.024-.128.404-.133.97-.41,1.177-.596.446-1.331.707-2.026,1.052-.086,1.463.215,1.756,1.519,1.063.906-.481,1.735-1.239,2.372-2.05.643-.819.394-1.776-.31-2.559-.703-.782-1.548-.875-2.472-.475-.43.186-.817.494-1.259.618-.489.137-1.384.313-1.47.148-.401-.772.362-1.057.867-1.413.053-.037.126-.045.188-.071q1.187-.5.658-1.78Z"/>
      <path class="st0" d="M292.75,19.219c1.452-.431,2.43-.041,3.027,1.336.312.72.828,1.352,1.339,2.16.518-.812,1.072-1.458,1.376-2.206.593-1.454,1.659-1.61,3.027-1.323v8.66h-1.903v-5.177c-.073-.025-.146-.051-.22-.076-.733,1.078-1.465,2.157-2.282,3.359-.785-1.159-1.506-2.222-2.404-3.547v5.441h-1.961v-8.627Z"/>
      <path class="st0" d="M286.61,13.464v2.607h-1.903V7.186c1.84.116,3.672.131,5.47.384,1.028.144,1.638.998,1.814,2.05.181,1.082-.012,2.067-.883,2.824-.247.215-.535.384-.871.622.66.97,1.308,1.923,1.976,2.905-1.941.407-2.131.333-3.169-1.231-.545-.821-.947-1.867-2.433-1.276ZM286.686,11.515c.841,0,1.612.137,2.292-.05.42-.116.927-.7.977-1.122.04-.343-.477-.984-.863-1.094-.74-.212-1.561-.141-2.407-.191v2.457Z"/>
      <path class="st0" d="M315.534,25.218v2.613h-1.885v-8.715c1.591,0,3.134-.055,4.67.017,1.307.061,2.279.911,2.564,2.049.327,1.305-.106,2.504-1.182,3.266-.162.115-.333.217-.557.363.667.981,1.317,1.938,1.975,2.905-1.525.496-2.152.3-2.947-.891-.167-.25-.362-.488-.487-.758-.42-.904-1.095-1.182-2.152-.848ZM315.574,23.315c.799,0,1.502.042,2.197-.012.668-.051,1.127-.405,1.154-1.14.026-.722-.365-1.163-1.046-1.229-.748-.073-1.51-.017-2.305-.017v2.398Z"/>
      <path class="st0" d="M335.884,23.514c-.008,2.619-2.031,4.554-4.738,4.532-2.661-.022-4.651-1.96-4.648-4.527.003-2.619,2.018-4.58,4.71-4.582,2.718-.002,4.684,1.923,4.675,4.578ZM333.831,23.48c-.017-1.517-1.193-2.732-2.645-2.733-1.461,0-2.609,1.215-2.6,2.753.009,1.526,1.17,2.724,2.637,2.72,1.476-.004,2.625-1.212,2.608-2.74Z"/>
      <path class="st0" d="M303.803,14.391h4.796v1.66h-6.656V7.319h6.576v1.712h-4.611v1.76h4.05v1.744h-4.053c-.033.607-.062,1.133-.102,1.856Z"/>
      <path class="st0" d="M291.407,27.911c-.477,0-.75-.039-1.008.007-.85.152-1.337-.216-1.502-1.02-.166-.808-.633-1.1-1.435-.971-.295.048-.61.048-.904,0-1.207-.193-1.978.123-2.361,1.432-.324,1.11-1.36.328-2.237.61.96-2.264,1.843-4.347,2.727-6.429.209-.492.445-.974.63-1.474.243-.658.502-1.105,1.392-1.108.915-.003,1.102.512,1.367,1.142,1.071,2.547,2.165,5.084,3.33,7.811ZM285.596,24.093h2.16c-.362-.867-.679-1.625-1.095-2.62-.419,1.031-.727,1.79-1.065,2.62Z"/>
      <path class="st0" d="M312.243,27.839q-1.913.163-2.931-1.903c-1.007,0-2.049-.048-3.081.031-.288.022-.665.366-.798.655-.68,1.476-.661,1.488-2.525,1.153.619-1.456,1.228-2.889,1.838-4.321.563-1.321,1.1-2.653,1.715-3.949.116-.243.548-.477.829-.472.447.008,1.169.095,1.293.367,1.262,2.755,2.427,5.554,3.66,8.439ZM307.531,21.449c-.405.998-.724,1.786-1.078,2.66h2.158c-.351-.865-.671-1.653-1.08-2.66Z"/>
      <path class="st0" d="M273.969,16.041c1.229-2.879,2.407-5.677,3.625-8.457.229-.523,1.861-.522,2.09.001,1.216,2.78,2.392,5.576,3.589,8.384-1.793.383-1.877.343-2.556-1.16-.041-.091-.075-.255-.128-.262-1.054-.133-2.109-.296-3.167-.333-.29-.01-.726.298-.87.576-.734,1.414-.708,1.427-2.583,1.251ZM277.519,12.368h2.175c-.36-.893-.676-1.678-1.077-2.673-.408.995-.741,1.805-1.097,2.673Z"/>
      <path class="st0" d="M279.933,21.433c-.884-.266-1.631-.589-2.405-.677-.337-.038-.729.405-1.096.63.263.3.47.728.801.874.76.337,1.603.485,2.373.804,1.109.46,1.617,1.269,1.528,2.344-.093,1.124-.614,1.994-1.736,2.349-1.947.616-3.679.149-5.321-1.129.412-.49.773-.918,1.102-1.309.741.312,1.401.626,2.088.862.3.103.693.141.978.034.336-.127.599-.442.894-.676-.235-.283-.415-.68-.717-.824-.567-.27-1.207-.389-1.813-.58-1.733-.546-2.268-1.283-2.116-2.901.115-1.221,1.039-2.066,2.566-2.252,1.356-.165,2.586.203,3.786,1.103-.318.469-.626.925-.913,1.348Z"/>
      <path class="st0" d="M295.764,9.133h-2.623v-1.798h7.243v1.799h-2.599v6.936h-2.021v-6.936Z"/>
      <path class="st0" d="M324.693,27.865h-1.869v-8.691h1.869v8.691Z"/>
      <path class="st0" d="M263.397,17.74c-.018,1.187-.995,2.132-2.193,2.122-1.238-.011-2.21-1.023-2.169-2.258.037-1.126,1.098-2.238,2.154-2.258,1.138-.021,2.227,1.161,2.208,2.395Z"/>
    </g>
    <g>
      <path class="st0" d="M139.587,6.055l3.238,5.257v-5.257h1.943v8.249h-2.347l-3.198-5.258c-.185-.031-.11.081-.121.201-.044.523.072.978.084,1.454.031,1.199-.03,2.404-.003,3.602h-1.943V6.055h2.347Z"/>
      <path class="st0" d="M156.908,9.209c2.222-1.823,4.823.001,4.612,2.708-.197,2.528-2.901,3.858-4.773,1.983-.025.244.09.555-.122.728h-1.619l-.121-.121V6.257l.121-.121h1.781l.121.121v2.952ZM157.259,12.74c.102.096.465.305.597.333,2.03.428,2.345-2.594.675-2.938-1.5-.309-2.284,1.657-1.272,2.605Z"/>
      <polygon class="st0" points="154.156 7.835 150.716 7.835 150.594 7.956 150.594 9.371 153.63 9.371 153.751 9.493 153.751 10.989 150.716 10.989 150.594 11.11 150.594 12.566 150.716 12.687 154.156 12.687 154.156 14.386 148.652 14.386 148.652 6.257 148.773 6.136 154.034 6.136 154.156 6.257 154.156 7.835"/>
      <rect class="st0" x="145.738" y="8.643" width="1.943" height="7.926"/>
      <path class="st0" d="M145.845,6.162c.809-.96,2.593.054,1.791,1.265-.83,1.251-2.707-.178-1.791-1.265Z"/>
      <polygon class="st0" points="164.03 6.136 164.03 12.525 169.21 12.525 169.21 14.305 162.209 14.305 162.088 14.183 162.088 6.257 162.209 6.136 164.03 6.136"/>
      <path class="st0" d="M172.529,14.143h-1.862v-3.478h-2.145l-.971,1.294h-2.145l4.411-6.551h2.59l.121.121v8.613ZM170.667,9.169v-1.577c-.251.254-1.079,1.279-1.135,1.576-.031.162.022.108.121.122.262.037.608-.012.879-.013l.134-.109Z"/>
      <path class="st0" d="M137.24,23.201v-5.419h4.897c1.112,0,2.547.998,2.704,2.15.585,4.27-5.042,3.103-7.601,3.268ZM138.049,22.392h3.764c.156,0,.849-.192,1.034-.261,1.766-.662,1.542-2.968-.248-3.436-.207-.054-.854-.185-1.028-.185h-3.521v3.882Z"/>
      <path class="st0" d="M152.213,17.782v.728h-5.666v1.456h3.521c.212.172.099.484.121.728h-3.642v1.698h5.625c.222.192.091.542.121.809h-6.556v-5.419h6.475Z"/>
      <polygon class="st0" points="164.273 17.54 164.273 25.304 162.25 25.304 162.25 20.128 160.024 25.224 158.456 25.293 156.26 20.209 156.26 32.583 154.358 32.583 154.237 32.462 154.237 17.54 157.272 17.54 159.295 21.825 161.238 17.54 164.273 17.54"/>
      <path class="st0" d="M169.413,17.459c2.13.24,2.632,1.574,2.553,3.521-.053,1.305-.473,2.455-1.79,2.918l2.192,8.685h-2.104l-2.112-8.484-.72-.008v8.492h-2.104v-15.124c1.298.106,2.817-.143,4.087,0ZM167.43,22.15h1.255c.356,0,1.103-.274,1.168-.693.068-.433.082-1.801-.242-2.093-.056-.051-.563-.287-.603-.287h-1.578v3.073Z"/>
      <path class="st0" d="M164.435,32.583h-1.659l-.161-.485c-1.334,1.336-4.247.426-3.584-1.721.426-1.379,2.46-1.357,3.625-1.475-.201-1.301-1.718-.901-2.459-.288-.187-.217-.988-.826-.948-1.08.007-.044.628-.443.731-.495,1.285-.65,3.556-.724,4.192.832.061.149.263.758.263.87v3.842ZM162.655,30.075c-.485-.032-1.727-.002-1.907.563-.279.872,1.202.945,1.666.45.253-.27.265-.666.241-1.013Z"/>
      <path class="st0" d="M146.303,31.208l.366.971.369-.968.237-.003.204,1.214.52-1.165c.011-.082.151-.064.202-.043.194.082.546,1.116.613,1.368-.263.059-.158-.267-.322-.365-.105-.063-.563-.069-.679-.029-.143.05-.113.228-.176.309-.386.503-.395-.82-.442-1.047l-.525,1.05-.486-1.051c-.053.002-.154.81-.191.946-.038.139.058.225-.173.187l.244-1.375h.24ZM148.409,32.097c.051-.13-.222-.804-.323-.727l-.244.727h.566Z"/>
      <path class="st0" d="M149.866,24.819c.474-.023,1.31-.09.998.629-.06.139-.302.141-.268.299l.362.287.52-1.164.202-.043.616,1.327c-.246.196-.194-.302-.253-.354-.22.006-.693-.085-.844.07-.139.143-.021.444-.386.311-.255-.093-.249-.534-.661-.555-.315-.016.086.642-.285.569v-1.375ZM150.028,25.547c.333-.028.894-.026.689-.487l-.69-.16v.648ZM151.889,25.627c.073-.071-.205-.643-.283-.645l-.283.645h.566Z"/>
      <path class="st0" d="M147.114,29.185l-.772.079-.002.25c.193.14.511.132.692.279s.091.315.242.363c0-.196.42-1.177.607-1.132.119.029.599,1.155.608,1.374l-.254-.312h-.747s-.132.313-.132.313c-.172.023-.174.006-.163-.161-.32.288-.874.391-1.131,0,.045-.034.901.27.967-.131.052-.314-.68-.302-.813-.468-.415-.517.582-.874.898-.454ZM148.166,29.913c-.028-.085-.3-.808-.404-.727l-.243.727h.647Z"/>
      <path class="st0" d="M147.763,28.134c.185.039.129-.02.181-.103.205-.327.226-.867.545-1.11.012.234-.472,1.423-.607,1.456-.204.049-.63-1.041-.678-1.246l-.9-.048.076.45.653.156-.654-.005-.076.532c.031.032,1.132-.084.809.161l-.895-.035-.04-1.345,1.101-.039.483,1.176Z"/>
      <path class="st0" d="M149.785,28.377v-1.456c1.632-.163,1.63,1.649,0,1.456ZM149.947,28.215c1.176.123,1.175-1.256,0-1.132v1.132Z"/>
      <path class="st0" d="M144.686,27.043l.202-.121.85,1.051c.059-.315-.152-.853.163-1.051v1.456c-.369-.264-.579-.695-.867-1.03-.05-.058.004-.152-.186-.103v1.132c-.053.006-.162-.107-.162-.121v-1.213Z"/>
      <path class="st0" d="M148.571,29.146l.245-.084.806,1.014c.059-.315-.152-.853.163-1.051v1.375c-.472-.166-.631-.857-1.052-1.132v1.213c-.053.006-.162-.107-.162-.121v-1.213Z"/>
      <path class="st0" d="M143.229,30.48v-1.456c1.625-.184,1.643,1.595,0,1.456ZM143.391,29.186v1.132c1.17.145,1.188-1.34,0-1.132Z"/>
      <path class="st0" d="M148.895,31.208c.703-.152,1.537.265.727.85l.325.524c-.353-.046-.394-.469-.767-.488-.307-.015.077.561-.285.488v-1.375ZM149.692,31.382l-.635-.012v.567c.244.01.702.064.724-.281.003-.05-.062-.257-.088-.274Z"/>
      <path class="st0" d="M148.571,24.819c.757-.156,1.639.251.729.849l.404.525c-.229.177-.483-.565-.769-.569-.381-.005-.019.639-.364.57v-1.375ZM149.452,24.989l-.72-.09.036.571c.12.175.505.013.684-.013v-.468Z"/>
      <path class="st0" d="M152.294,30.399l-.297-.326-.825.016-.254.31.571-1.371c.085-.012.165-.016.242.034.097.062.51,1.128.563,1.337ZM151.889,29.914c.062-.059-.234-.796-.322-.727l-.243.727h.566Z"/>
      <path class="st0" d="M151.726,26.922l.567,1.456-.36-.41-.763.016-.13.394c-.171-.119-.081-.146-.042-.281.045-.156.492-1.35.728-1.175ZM151.889,27.811c.016-.09-.01-.162-.037-.245-.034-.106-.177-.427-.286-.482l-.243.727h.566Z"/>
      <path class="st0" d="M149.622,28.377l-.36-.41-.679.019-.254.392c-.012-.234.472-1.423.607-1.456.208-.05.726,1.206.686,1.456ZM149.055,27.164c-.149-.14-.394.544-.403.646h.647l-.244-.646Z"/>
      <path class="st0" d="M144.605,29.024h.971c.323.246-.778.13-.809.162l.076.45.653.076-.73.04v.567c.175.006.352-.008.527,0,.109.005.337-.067.283.121-.018.062-.886.112-.972-.08v-1.334Z"/>
      <path class="st0" d="M147.438,24.819l.972.04-.812.087v.439s.73.041.73.041c.073.254-.664.054-.729.12v.486c.031.032,1.133-.084.809.161h-.971s0-1.374,0-1.374Z"/>
      <path class="st0" d="M146.79,24.82c.039.041.058.175-.102.143-.242-.048-.408-.117-.66.009-.309.599.789.268.844.779.074.69-1.267.478-1.052.2.199.105.893.195.893-.123,0-.345-.86-.242-.897-.65-.04-.444.788-.554.975-.359Z"/>
      <path class="st0" d="M152.294,32.582c-.263.059-.158-.267-.322-.365-.114-.068-.627-.073-.733-.002-.113.076-.055.414-.32.366l.571-1.371c.33-.219.736,1.12.805,1.372ZM151.889,32.097c.059-.056-.179-.724-.283-.726l-.283.726h.566Z"/>
      <polygon class="st0" points="151.161 29.024 151.161 29.186 150.594 29.186 150.594 30.399 150.433 30.399 150.433 29.186 149.947 29.186 149.947 29.024 151.161 29.024"/>
      <polygon class="st0" points="151.161 31.208 151.161 31.369 150.594 31.37 150.594 32.583 150.433 32.583 150.433 31.37 149.947 31.369 149.947 31.208 151.161 31.208"/>
      <rect class="st0" x="147.033" y="24.819" width=".162" height="1.375"/>
    </g>
  </g>
</svg>