<?xml version="1.0" encoding="UTF-8"?>
<svg id="Arte" xmlns="http://www.w3.org/2000/svg" version="1.1" viewBox="0 0 335.2 31.3">
  <!-- Generator: Adobe Illustrator 29.0.0, SVG Export Plug-In . SVG Version: 2.1.0 Build 186)  -->
  <defs>
    <style>
      .st0 {
        fill: blue;
      }
    </style>
  </defs>
  <g>
    <g>
      <path class="st0" d="M118.4,2.8v18.1s-.3.1-.3.1c-3.1-.3-7.4.8-10-1.3-3.8-3.1-2.9-10.7,2.2-12s3.5,0,5.1-.2.4-.1.4-.2V2.8h2.5ZM111.5,10c-4.3.6-4.1,9.1,1.4,8.4s4.2-9.2-1.4-8.4Z"/>
      <g>
        <path class="st0" d="M136.6,25.2c0-.5-.2-1,0-1.4.2-.3.9,0,1.2-.5s.1-1.5,0-1.8c-.3-.7-1.2-.1-1.2-.9v-5.2c0-.1,0-.1.1-.2.3-.2,2.4-.2,2.7,0s0,0,0,.2v7.9c0,.6-.3,1.3-.8,1.6s-.6.3-.6.3h-1.4Z"/>
        <path class="st0" d="M133.7,16.1h.1c0,2.5-2.1,4.6-4.3,5-5.7,1.1-9.1-3.9-8-9.1,1.5-7,11.8-6.6,12.2.8,0,.6,0,1.3,0,1.9h0c-2.3.3-4.6,0-6.9.1s-1.4,0-1.7.4c-1,.7-.5,2,.1,2.8,1.5,1.7,4.7,1.4,5.8-.6.2-.4.3-.9.6-1.3h2.2ZM127.5,9.2c-1.5,0-3.3,1-3,2.7s.3.7.7.9,3.7.1,4.3,0,1.1-.5,1.2-1.2c0-1.7-1.7-2.5-3.2-2.5Z"/>
      </g>
    </g>
    <g>
      <path class="st0" d="M82.6,10.3s.1,0,.2,0c1.2-2.6,3.1-3.4,6-3.1,5.6.6,3.8,5.8,4.1,9.7,0,.7.4,1.4,1.1,1.6s1,0,1,.3v2.1h-.1c0,.1-8.3.1-8.3.1,0,0-.9-.2-1-.3-3.4-1.2-3.5-6.1-.1-7.4,1.4-.5,3.3,0,4.8-.3v-2c0-.1-.2-.6-.3-.7-.9-1.2-3.7-1.2-4.5.2-.2.3-.2.8-.4,1h-2.4c0-.2,0-1.1,0-1.2ZM85.9,18.2c1,1.2,3.8,1.1,4.4-.6,1-2.9-3.9-3.5-4.7-1.3-.2.6,0,1.4.4,1.9Z"/>
      <path class="st0" d="M101.8,9.9c-1.3.1-1.7,1.1-1.8,2.2-.2,2.8.2,5.8,0,8.6,0,.3-.2.4-.5.4s-1.9,0-2-.1v-.4c0,0,0-12.7,0-12.7l.5-.3h6.6c0,0,.2.1.3.2.1.2.1,2.2-.2,2.2-.8,0-1.9,0-2.7,0Z"/>
    </g>
  </g>
  <g>
    <path class="st0" d="M11.4,1.2H0v26.3h16.8V1.2h-5.4ZM2.7,1.8h0s0,0,0,0h0ZM2.5,1.8h0s0,0,0,0h0ZM.6,1.8h0s0,0,0,0h0ZM.5,1.8h0s0,0,0,0H.5ZM.5,5.4s0,0,0,0c0,0,0,.1,0,.2,0,0,0,0,0,0,0,0,0,0,0,0,0,0,0,.1,0,.2,0,0,0,0,0,0v-.5ZM.5,13.9s0,0,0,0c0,0,0,.1,0,.2,0,0,0,0,0,0,0,0,0,0,0,0,0,0,0,.1,0,.2,0,0,0,0,0,0v-.5ZM.5,22.5s0,0,0,0c0,0,0,.1,0,.2,0,0,0,0,0,0,0,0,0,0,0,0,0,0,0,.1,0,.2,0,0,0,0,0,0v-.5ZM.6,27h0s0,0,0,0h0ZM2.5,26.9h0s0,0,0,0h0s0,0,0,0h0s0,0,0,0h0s0,0,0,0ZM2.7,26.9s0,0,0,0h0s0-.1,0-.1h0s0,0,0,0ZM2.7,26.5c-.1,0-.2,0-.3,0,0,0-.2.1-.2.2,0,0,0,.2,0,.2H.8s0-.1,0-.2c0,0-.1-.2-.2-.2,0,0,0,0,0,0v-3.3c0,.1,0,.2.2.3,0,0,.1,0,.2,0s0,0,.1,0c0,0,.1,0,.2-.1l1.3,1.5c0,0-.1,0-.2.2,0,.1,0,.3,0,.4,0,.1.2.2.3.2,0,0,0,0,.1,0s0,0,.1,0v.8ZM.8,23.1s0,0,0,0h0c0,.1-.2,0-.2,0,0,0,0,0,0,0ZM.7,22.4h.2s0,0,0,0c0,0,0,0,0,0,0,0,0,0,0,0ZM1,22.3h0s0,0,0,0h0ZM1,23.3h0s0,0,0,0h0ZM2.6,25.3h0s0,0,0,0c0,0,0,0,0,0h0c0-.1,0-.1,0-.1,0,0,0,0,0,0,0,0,0,0,0,0ZM2.7,24.6l-1.5-1.8h0s0,0,0,0c0,0,0,0,0,0h0s1.5-1.8,1.5-1.8v3.7ZM2.5,20.4h0s0,0,0,0h0ZM2.5,20.4h0s0,0,0,0h0ZM2.6,20.3h0s0,0,0,0h0ZM2.6,20.3h0s0,0,0,0h0s0,0,0,0ZM2.6,20.2h0s0,0,0,0h0ZM2.7,19.8c0,0-.1,0-.2,0-.1,0-.2.1-.3.2,0,0,0,.2,0,.4,0,0,0,.1.2.2l-1.3,1.5c0,0,0-.1-.2-.1-.1,0-.2,0-.3,0,0,0-.1.2-.2.3v-3s0,0,0,0c0,0,.2-.1.2-.2,0,0,0-.1,0-.2h1.5c0,0,0,.1,0,.2,0,.1.1.2.2.2,0,0,0,0,.1,0s0,0,.1,0v.4ZM2.5,19h0s0,0,0,0ZM2.7,19h0s0,0,0,0h0ZM2.6,18.3h.1c0,0,0,0,0,0,0,0,0,0,0,0h-.1ZM2.7,19.1h-.1c0,0,0-.1,0-.1,0,0,0,0,0,0h0ZM2.7,18c-.1,0-.2,0-.3,0,0,0-.2.1-.2.2,0,0,0,.1,0,.2H.8c0,0,0-.1,0-.2,0,0-.1-.2-.2-.2,0,0,0,0,0,0v-3.3c0,.1,0,.2.2.3,0,0,.1,0,.2,0s0,0,.1,0c0,0,.1,0,.2-.1l1.3,1.5c0,0-.1,0-.2.2,0,.1,0,.3,0,.4,0,.1.2.2.3.2,0,0,0,0,.1,0s0,0,.1,0v.8ZM.9,13.9s0,0,0,0c0,0,0,0,0,0h.2s0,0,0,0ZM.9,14.7h-.2s0,0,0-.1c0,0,0,0,0,0h0ZM1,13.7h0s0,0,0,0h0ZM1,14.7h0s0,0,0,0h0ZM2.6,16.7h0s0,0,0,0c0,0,0,0,0,0h0c0-.1,0-.1,0-.1,0,0,0,0,0,0,0,0,0,0,0,0ZM2.7,16.1l-1.5-1.8s0,0,0,0c0,0,0,0,0,0h0s0,0,0,0c0,0,0,0,0,0l1.5-1.8v3.7ZM2.5,11.9h0s0,0,0,0h0ZM2.6,11.7h0s0,0,0,0h0ZM2.6,11.6h0s0,0,0,0h0ZM2.7,11.3c0,0-.1,0-.2,0-.1,0-.2.1-.3.2,0,0,0,.2,0,.4,0,0,0,.1.2.2l-1.3,1.5c0,0,0-.1-.2-.1-.1,0-.2,0-.3,0,0,0-.1.2-.2.3v-3s0,0,0,0c0,0,.2-.1.2-.2,0,0,0-.1,0-.2h1.5c0,0,0,.1,0,.2,0,.1.1.2.2.2,0,0,0,0,.1,0s0,0,.1,0v.4ZM2.5,10.4h0s0,0,0,0ZM2.7,10.4h0s0,0,0,0h0ZM2.6,9.7h.1c0,0,0,0,0,0,0,0,0,0,0,0h-.1ZM2.7,10.5h-.1c0,0,0-.1,0-.1,0,0,0,0,0,0h0ZM2.7,9.4c-.1,0-.2,0-.3,0,0,0-.2.1-.2.2,0,0,0,.1,0,.2H.8c0,0,0-.1,0-.2,0,0-.1-.2-.2-.2,0,0,0,0,0,0v-3.3c0,.1,0,.2.2.3,0,0,.1,0,.2,0s0,0,.1,0c0,0,.1,0,.2-.1l1.3,1.5c0,0-.1,0-.2.2,0,.1,0,.3,0,.4,0,.1.2.2.3.2,0,0,0,0,.1,0s0,0,.1,0v.8ZM.9,5.3s0,0,0,0c0,0,0,0,0,0h.2s0,0,0,0ZM.9,6.1h-.2s0,0,0-.1c0,0,0,0,0,0h0ZM1,5.2h0s0,0,0,0h0ZM1,6.1h0s0,0,0,0h0ZM2.6,8.1h0s0,0,0,0c0,0,0,0,0,0h0c0-.1,0-.1,0-.1,0,0,0,0,0,0,0,0,0,0,0,0ZM2.7,7.5l-1.5-1.8s0,0,0,0c0,0,0,0,0,0h0s1.5-1.8,1.5-1.8v3.7ZM2.5,3.3h0c0,0,0,0,0,0h0ZM2.6,3.1h0s0,0,0,0h0ZM2.6,3.1h0s0,0,0,0h0ZM2.7,2.7c0,0-.1,0-.2,0-.1,0-.2.1-.3.2,0,0,0,.2,0,.4,0,0,0,.1.2.2l-1.3,1.5c0,0,0-.1-.2-.1-.1,0-.2,0-.3,0,0,0-.1.2-.2.3v-3s0,0,0,0c0,0,.2-.1.2-.2,0,0,0-.2,0-.2h1.5c0,.1,0,.2,0,.3,0,.1.1.2.2.2,0,0,0,0,.1,0s0,0,.1,0v.4ZM2.7,2h-.1c0,0,0-.1,0-.1,0,0,0,0,0,0h0ZM5.3,1.8h0s0,0,0,0h0ZM3.3,1.8h0s0,0,0,0h0s0,0,0,0h0s0,0,0,0ZM3.2,1.8s0,0,0,0h0s0,0,0,0h0ZM3.2,3s0,0,0,0h0c0,.1,0,.1,0,.1,0,0,0,0,0,0,0,0,0,0,0,0h0ZM3.2,4l1.3,1.6s0,0,0,0c0,0,0,0,0,0h0s-1.4,1.7-1.4,1.7v-3.4ZM3.3,8h0c0,0,0,0,0,0h0ZM3.2,8.2h0s0,.1,0,.1c0,0,0,0,0,0h0ZM3.2,9.6h0s0,.1,0,.1c0,0,0,0,0,0h0ZM3.2,10.4s0,0,0,0h0s0,0,0,0h0s0,0,0,0ZM3.2,11.6s0,0,0,0h0c0,.1,0,.1,0,.1,0,0,0,0,0,0,0,0,0,0,0,0h0ZM3.2,12.5l1.3,1.6s0,0,0,0c0,0,0,0,0,0h0s-1.4,1.7-1.4,1.7v-3.4ZM3.3,11.8h0c0,0,0,0,0,0h0ZM3.3,16.6h0c0,0,0,0,0,0h0ZM3.2,16.7h0s0,0,0,0h0ZM3.2,16.8h0s0,0,0,0c0,0,0,0,0,0h0ZM3.2,18.2h0s0,.1,0,.1c0,0,0,0,0,0h0ZM3.2,19s0,0,0,0h0s0,0,0,0h0s0,0,0,0ZM3.2,20.2s0,0,0,0h0c0,.1,0,.1,0,.1,0,0,0,0,0,0,0,0,0,0,0,0h0ZM3.2,21.1l1.3,1.6s0,0,0,0c0,0,0,0,0,0h0s-1.4,1.7-1.4,1.7v-3.4ZM3.3,25.2h0c0,0,0,0,0,0h0ZM3.2,25.3h0s0,0,0,0h0ZM3.2,25.4h0s0,0,0,0c0,0,0,0,0,0h0ZM3.2,26.9s0,0,0,0h0c0-.1,0,0,0,0h0ZM3.4,26.9h0s0,0,0,0h0ZM5.2,27h0s0,0,0,0h0ZM5.3,26.9h0s0,0,0,0h0ZM5.4,27s0,0,0,0h0c0,0,0,0,0,0h0ZM5.4,26.5s0,0-.1,0c0,0-.2.1-.2.2,0,0,0,.2,0,.2h-1.5c0-.1,0-.2,0-.3,0-.1-.1-.2-.2-.2,0,0-.1,0-.2,0v-.7s0,0,0,0c.1,0,.2-.1.3-.2,0,0,0-.2,0-.4,0,0,0-.1-.2-.2l1.3-1.5c0,0,0,.1.2.1,0,0,0,0,.1,0,0,0,.1,0,.2,0,0,0,.2-.2.2-.3,0,0,0-.2,0-.2,0,0,0-.1,0-.2,0,0,0,0,0,0,0,0,0,0,0,0,0,0,0-.1,0-.2,0,0,0-.1,0-.2,0-.1,0-.2-.2-.3,0,0-.2,0-.3,0,0,0-.1,0-.2.1l-1.3-1.5c0,0,.1,0,.2-.2,0-.1,0-.3,0-.4,0-.1-.2-.2-.3-.2,0,0,0,0,0,0v-.4s0,0,0,0c0,0,0,0,.1,0,0,0,.2-.1.2-.2,0,0,0-.1,0-.2h1.5c0,0,0,.1,0,.2,0,0,.1.2.2.2,0,0,0,0,0,0s0,0,0,0v7.1ZM4.8,22.3h0s0,0,0,0h0s0,0,0,0h0ZM4.9,23.3h0s0,0,0,0h0ZM5,22.5s0,0,0,0h0c0-.1.2,0,.2,0,0,0,0,0,0,0ZM5.1,23.2h-.2s0,0,0,0c0,0,0,0,0,0,0,0,0,0,0,0ZM3.3,19h0s0,0,0,0h0ZM3.4,18.3h0s0,0,0,0h0ZM5.4,18.3h0,0s0,0,0,0h0ZM5.4,17.9s0,0-.1,0c0,0-.2.1-.2.2,0,0,0,.1,0,.2h-1.5c0,0,0-.2,0-.2,0-.1-.1-.2-.2-.2,0,0-.1,0-.2,0v-.7s0,0,0,0c.1,0,.2-.1.3-.2,0,0,0-.2,0-.4,0,0,0-.1-.2-.2l1.3-1.5c0,0,0,.1.2.1,0,0,0,0,.1,0,0,0,.1,0,.2,0,0,0,.2-.2.2-.3,0,0,0-.2,0-.2,0,0,0-.1,0-.2,0,0,0,0,0,0,0,0,0,0,0,0,0,0,0-.1,0-.2,0,0,0-.1,0-.2,0-.1,0-.2-.2-.3,0,0-.2,0-.3,0,0,0-.1,0-.2.1l-1.3-1.5c0,0,.1,0,.2-.2,0-.1,0-.3,0-.4,0-.1-.2-.2-.3-.2,0,0,0,0,0,0v-.4s0,0,0,0c0,0,0,0,.1,0,0,0,.2-.1.2-.2,0,0,0-.1,0-.2h1.5c0,0,0,.1,0,.2,0,0,.1.2.2.2,0,0,0,0,0,0s0,0,0,0v7.1ZM4.8,13.8h0s0,0,0,0h0ZM4.9,14.7h0s0,0,0,0h0ZM5,14.6s0,0,0,0h-.2s0,0,0,0c0,0,0,0,0,0ZM4.9,14.6h0c0,0,0-.1,0-.1h-.1ZM5,13.9s0,0,0,0h0c0-.1.2,0,.2,0,0,0,0,0,0,0ZM3.3,10.4h0s0,0,0,0h0ZM3.4,9.8h0s0,0,0,0h0ZM5.4,9.8h0,0s0,0,0,0h0ZM5.4,9.4s0,0-.1,0c0,0-.2.1-.2.2,0,0,0,.1,0,.2h-1.5c0,0,0-.2,0-.2,0-.1-.1-.2-.2-.2,0,0-.1,0-.2,0v-.7s0,0,0,0c.1,0,.2-.1.3-.2,0,0,0-.2,0-.4,0,0,0-.1-.2-.2l1.3-1.5c0,0,0,.1.2.1,0,0,0,0,.1,0,0,0,.1,0,.2,0,0,0,.2-.2.2-.3,0,0,0-.2,0-.2,0,0,0-.1,0-.2,0,0,0,0,0,0,0,0,0,0,0,0,0,0,0-.1,0-.2,0,0,0-.1,0-.2,0-.1,0-.2-.2-.3,0,0-.2,0-.3,0,0,0-.1,0-.2.1l-1.3-1.5c0,0,.1,0,.2-.2,0-.1,0-.3,0-.4,0-.1-.2-.2-.3-.2,0,0,0,0,0,0v-.4s0,0,0,0c0,0,0,0,.1,0,0,0,.2-.1.2-.2,0,0,0-.2,0-.2h1.5s0,.1,0,.2c0,0,.1.2.2.2,0,0,0,0,0,0s0,0,0,0v7.1ZM4.8,5.2h0s0,0,0,0h0ZM4.9,6.1h0s0,0,0,0h0ZM5,6s0,0,0,0h-.2s0,0,0,0c0,0,0,0,0,0ZM4.9,6h0c0,0,0-.1,0-.1h-.1ZM5,5.3s0,0,0,0h0c0-.1.2,0,.2,0,0,0,0,0,0,0ZM5.4,1.8h0s0,0,0,0c0,0,0,0,0,0,0,0,0,0,0,0h0ZM8.1,1.8s0,0,0,0h0s0,0,0,0h0ZM8,1.8h0s0,0,0,0h0ZM6,1.8h0s0,0,0,0h0ZM5.9,1.8h0s0,0,0,0h0ZM5.9,5.4c0,0,0,.1,0,.2,0,0,0,0,0,0,0,0,0,0,0,0,0,0,0,.1,0,.2v-.4ZM5.9,14c0,0,0,.1,0,.2,0,0,0,0,0,0,0,0,0,0,0,0,0,0,0,.1,0,.2v-.4ZM5.9,22.6c0,0,0,.1,0,.2,0,0,0,0,0,0,0,0,0,0,0,0,0,0,0,.1,0,.2v-.4ZM6,27h0s0,0,0,0h0ZM7.9,26.9h0s0,0,0,0h0s0,0,0,0h0s0,0,0,0h0s0,0,0,0ZM8.1,26.9s0,0,0,0h0s0-.1,0-.1h0s0,0,0,0ZM8.2,26.5c-.1,0-.2,0-.3,0,0,0-.2.1-.2.2,0,0,0,.2,0,.2h-1.5s0-.1,0-.2c0,0-.1-.2-.2-.2,0,0,0,0,0,0v-3.3c0,.1,0,.2.2.2,0,0,.1,0,.2,0s0,0,.1,0c0,0,.1,0,.2-.1l1.3,1.5c0,0-.1,0-.2.2,0,.1,0,.3,0,.4,0,.1.2.2.3.2,0,0,0,0,.1,0s0,0,.1,0v.8ZM6.2,22.4s0,0,0,0h.2s0,0,0,0c0,0,0,0,0,0ZM6.3,22.5h0c0,0,0,.1,0,.1h.1c0-.1,0-.1,0-.1ZM6.2,23.1s0,0,0,0h0c0,.1-.2,0-.2,0,0,0,0,0,0,0ZM6.4,23.3h0s0,0,0,0h0s0,0,0,0h0ZM6.4,22.3h0s0,0,0,0h0ZM8,25.3h0s0,0,0,0c0,0,0,0,0,0h0c0-.1,0-.1,0-.1,0,0,0,0,0,0,0,0,0,0,0,0ZM8.2,24.6l-1.5-1.8h0s0,0,0,0c0,0,0,0,0,0h0s1.5-1.8,1.5-1.8v3.7ZM8,20.4h0c0,0,0,0,0,0h0ZM8,20.3h0s0,0,0,0h0ZM8.1,20.3h0s0,0,0,0h0s0,0,0,0ZM8,20.2h0s0,0,0,0h0ZM8.2,19.8c0,0-.1,0-.2,0-.1,0-.2.1-.3.2,0,0,0,.2,0,.4,0,0,0,.1.2.2l-1.3,1.5c0,0,0-.1-.2-.1-.1,0-.2,0-.3,0,0,0-.1.1-.2.2v-2.9s0,0,0,0c0,0,.2-.1.2-.2,0,0,0-.1,0-.2h1.5c0,0,0,.1,0,.2,0,.1.1.2.2.2,0,0,0,0,.1,0s0,0,.1,0v.4ZM8,19h0s0,0,0,0ZM8,18.3h.1c0,0,0,0,0,0,0,0,0,0,0,0h-.1ZM8.2,19.1h-.1c0,0,0-.1,0-.1,0,0,0,0,0,0h0ZM8.2,18c-.1,0-.2,0-.3,0,0,0-.2.1-.2.2,0,0,0,.1,0,.2h-1.5c0,0,0-.1,0-.2,0,0-.1-.2-.2-.2,0,0,0,0,0,0v-3.3c0,.1,0,.2.2.2,0,0,.1,0,.2,0s0,0,.1,0c0,0,.1,0,.2-.1l1.3,1.5c0,0-.1,0-.2.2,0,.1,0,.3,0,.4,0,.1.2.2.3.2,0,0,0,0,.1,0s0,0,.1,0v.8ZM6.2,13.8s0,0,0,0h.2s0,0,0,0c0,0,0,0,0,0ZM6.3,13.9h0c0,0,0,.1,0,.1h.1q0-.1,0-.1ZM6.2,14.6s0,0,0,0h0c0,.1-.2,0-.2,0,0,0,0,0,0,0ZM6.4,14.7h0s0,0,0,0h0s0,0,0,0h0s0,0,0,0h0s0,0,0,0ZM6.4,13.7h0s0,0,0,0h0ZM8,16.7h0s0,0,0,0c0,0,0,0,0,0h0c0-.1,0-.1,0-.1,0,0,0,0,0,0,0,0,0,0,0,0ZM8.2,16.1l-1.5-1.8s0,0,0,0c0,0,0,0,0,0h0s0,0,0,0c0,0,0,0,0,0l1.5-1.8v3.7ZM8,11.9h0c0,0,0,0,0,0h0ZM8.1,11.7h0s0,0,0,0h0ZM8,11.6h0s0,0,0,0h0ZM8.2,11.3c0,0-.1,0-.2,0-.1,0-.2.1-.3.2,0,0,0,.2,0,.4,0,0,0,.1.2.2l-1.3,1.5c0,0,0-.1-.2-.1-.1,0-.2,0-.3,0,0,0-.1.1-.2.2v-2.9s0,0,0,0c0,0,.2-.1.2-.2,0,0,0-.1,0-.2h1.5c0,0,0,.1,0,.2,0,.1.1.2.2.2,0,0,0,0,.1,0s0,0,.1,0v.4ZM8,10.4h0s0,0,0,0ZM8,9.7h.1c0,0,0,0,0,0,0,0,0,0,0,0h-.1ZM8.2,10.5h-.1c0,0,0-.1,0-.1,0,0,0,0,0,0h0ZM8.2,9.4c-.1,0-.2,0-.3,0,0,0-.2.1-.2.2,0,0,0,.1,0,.2h-1.5c0,0,0-.1,0-.2,0,0-.1-.2-.2-.2,0,0,0,0,0,0v-3.3c0,.1,0,.2.2.2,0,0,.1,0,.2,0s0,0,.1,0c0,0,.1,0,.2-.1l1.3,1.5c0,0-.1,0-.2.2,0,.1,0,.3,0,.4,0,.1.2.2.3.2,0,0,0,0,.1,0s0,0,.1,0v.8ZM6.2,6s0,0,0,0h0c0,.1-.2,0-.2,0,0,0,0,0,0,0ZM6.2,5.2h.2s0,0,0,0c0,0,0,0,0,0,0,0,0,0,0,0ZM6.4,5.2h0s0,0,0,0h0ZM6.4,6.1h0s0,0,0,0h0ZM8,8.1h0s0,0,0,0c0,0,0,0,0,0h0c0-.1,0-.1,0-.1,0,0,0,0,0,0,0,0,0,0,0,0ZM8.2,7.5l-1.5-1.8s0,0,0,0c0,0,0,0,0,0h0s1.5-1.8,1.5-1.8v3.7ZM8,3.3h0c0,0,0,0,0,0h0ZM8.1,3.1h0s0,0,0,0h0ZM8,3.1h0s0,0,0,0h0ZM8.2,2.7c0,0-.1,0-.2,0-.1,0-.2.1-.3.2,0,0,0,.2,0,.4,0,0,0,.1.2.2l-1.3,1.5c0,0,0-.1-.2-.1-.1,0-.2,0-.3,0,0,0-.1.1-.2.2v-2.9s0,0,0,0c0,0,.2-.1.2-.2,0,0,0-.2,0-.2h1.5c0,.1,0,.2,0,.3,0,.1.1.2.2.2,0,0,0,0,.1,0s0,0,.1,0v.4ZM8.2,2h-.1c0,0,0-.1,0-.1,0,0,0,0,0,0h0ZM10.7,1.8h0s0,0,0,0h0ZM8.8,1.8h0s0,0,0,0h0ZM8.8,1.8h0s0,0,0,0h0ZM8.6,1.8s0,0,0,0h0s0,0,0,0h0ZM8.6,3s0,0,0,0h0c0,.1,0,.1,0,.1,0,0,0,0,0,0,0,0,0,0,0,0h0ZM8.6,4l1.3,1.6s0,0,0,0c0,0,0,0,0,0h0s-1.4,1.7-1.4,1.7v-3.4ZM8.7,8h0c0,0,0,0,0,0h0ZM8.7,8.1h0s0,0,0,0h0ZM8.6,8.2h0s0,0,0,0h0c0,0,0,0,0,0h0ZM8.6,9.6h0s0,.1,0,.1c0,0,0,0,0,0h0ZM8.6,10.4s0,0,0,0h0s0,0,0,0h0s0,0,0,0ZM8.6,11.6s0,0,0,0h0c0,.1,0,.1,0,.1,0,0,0,0,0,0,0,0,0,0,0,0h0ZM8.6,12.5l1.3,1.6s0,0,0,0c0,0,0,0,0,0h0s0,0,0,0c0,0,0,0,0,0l-1.3,1.7v-3.4ZM8.7,11.8h0c0,0,0,0,0,0h0ZM8.7,16.6h0s0,0,0,0h0ZM8.6,16.7h0s0,0,0,0h0ZM8.6,16.8h0s0,0,0,0c0,0,0,0,0,0h0ZM8.6,18.2h0s0,.1,0,.1c0,0,0,0,0,0h0ZM8.6,19s0,0,0,0h0s0,0,0,0h0s0,0,0,0ZM8.6,20.2s0,0,0,0h0c0,.1,0,.1,0,.1,0,0,0,0,0,0,0,0,0,0,0,0h0ZM8.6,21.1l1.3,1.6s0,0,0,0c0,0,0,0,0,0h0s0,0,0,0c0,0,0,0,0,0l-1.3,1.7v-3.4ZM8.7,25.2h0c0,0,0,0,0,0h0ZM8.6,25.3h0s0,0,0,0h0ZM8.6,25.4h0s0,0,0,0c0,0,0,0,0,0h0ZM8.7,26.9s0,0,0,0h0c0-.1,0,0,0,0h0ZM8.8,26.9h0s0,0,0,0h0ZM10.7,27h0s0,0,0,0h0ZM10.9,27s0,0,0,0h0c0,0,0,0,0,0h0ZM10.9,26.5s0,0-.1,0c0,0-.2.1-.2.2,0,0,0,.2,0,.2h-1.5c0-.1,0-.2,0-.3,0-.1-.1-.2-.2-.2,0,0-.1,0-.2,0v-.7s0,0,0,0c.1,0,.2-.1.3-.2,0,0,0-.2,0-.4,0,0,0-.1-.2-.2l1.3-1.5c0,0,0,.1.2.1,0,0,0,0,.1,0,0,0,.1,0,.2,0,0,0,.2-.2.2-.3,0,0,0-.2,0-.2,0,0,0-.1,0-.2,0,0,0,0,0,0,0,0,0,0,0,0,0,0,0-.1,0-.2,0,0,0-.1,0-.2,0-.1,0-.2-.2-.3,0,0-.2,0-.3,0,0,0-.1,0-.2.1l-1.3-1.5c0,0,.1,0,.2-.2,0-.1,0-.3,0-.4,0-.1-.2-.2-.3-.2,0,0,0,0,0,0v-.4s0,0,0,0c0,0,0,0,.1,0,0,0,.2-.1.2-.2,0,0,0-.1,0-.2h1.5c0,0,0,.1,0,.2,0,0,.1.2.2.2,0,0,0,0,0,0s0,0,0,0v7.1ZM10.3,22.3h0s0,0,0,0h0ZM10.3,23.3h0s0,0,0,0h0ZM10.4,22.5s0,0,0,0h0c0-.1.2,0,.2,0,0,0,0,0,0,0ZM10.5,23.2h-.2s0,0,0,0c0,0,0,0,0,0,0,0,0,0,0,0ZM8.8,19h0s0,0,0,0h0,0s0,0,0,0h0ZM8.8,18.3h0s0,0,0,0h0ZM10.9,18.3h0,0s0,0,0,0ZM10.9,17.9s0,0-.1,0c0,0-.2.1-.2.2,0,0,0,.1,0,.2h-1.5c0,0,0-.2,0-.2,0-.1-.1-.2-.2-.2,0,0-.1,0-.2,0v-.7s0,0,0,0c.1,0,.2-.1.3-.2,0,0,0-.2,0-.4,0,0,0-.1-.2-.2l1.3-1.5c0,0,0,.1.2.1,0,0,0,0,.1,0,0,0,.1,0,.2,0,0,0,.2-.2.2-.3,0,0,0-.2,0-.2,0,0,0-.1,0-.2,0,0,0,0,0,0,0,0,0,0,0,0,0,0,0-.1,0-.2,0,0,0-.1,0-.2,0-.1,0-.2-.2-.3,0,0-.2,0-.3,0,0,0-.1,0-.2.1l-1.3-1.5c0,0,.1,0,.2-.2,0-.1,0-.3,0-.4,0-.1-.2-.2-.3-.2,0,0,0,0,0,0v-.4s0,0,0,0c0,0,0,0,.1,0,0,0,.2-.1.2-.2,0,0,0-.1,0-.2h1.5c0,0,0,.1,0,.2,0,0,.1.2.2.2,0,0,0,0,0,0s0,0,0,0v7.1ZM10.3,13.8h0s0,0,0,0h0ZM10.3,14.7h0s0,0,0,0h0ZM10.4,13.9s0,0,0,0h0c0-.1.2,0,.2,0,0,0,0,0,0,0ZM10.5,14.7h-.2s0,0,0,0c0,0,0,0,0,0,0,0,0,0,0,0ZM8.8,10.4h0s0,0,0,0h0,0s0,0,0,0h0ZM8.8,9.8h0s0,0,0,0h0ZM10.9,9.8h0,0s0,0,0,0h0ZM10.9,9.4s0,0-.1,0c0,0-.2.1-.2.2,0,0,0,.1,0,.2h-1.5c0,0,0-.2,0-.2,0-.1-.1-.2-.2-.2,0,0-.1,0-.2,0v-.7s0,0,0,0c.1,0,.2-.1.3-.2,0,0,0-.2,0-.4,0,0,0-.1-.2-.2l1.3-1.5c0,0,0,.1.2.1,0,0,0,0,.1,0,0,0,.1,0,.2,0,0,0,.2-.2.2-.3,0,0,0-.2,0-.2,0,0,0-.1,0-.2,0,0,0,0,0,0,0,0,0,0,0,0,0,0,0-.1,0-.2,0,0,0-.1,0-.2,0-.1,0-.2-.2-.3,0,0-.2,0-.3,0,0,0-.1,0-.2.1l-1.3-1.5c0,0,.1,0,.2-.2,0-.1,0-.3,0-.4,0-.1-.2-.2-.3-.2,0,0,0,0,0,0v-.4s0,0,0,0c0,0,0,0,.1,0,0,0,.2-.1.2-.2,0,0,0-.2,0-.2h1.5s0,.1,0,.2c0,0,.1.2.2.2,0,0,0,0,0,0s0,0,0,0v7.1ZM10.4,6s0,0,0,0h-.2s0,0,0,0c0,0,0,0,0,0ZM10.4,6h0c0,0,0-.1,0-.1h-.1ZM10.4,5.3s0,0,0,0h0c0-.1.2,0,.2,0,0,0,0,0,0,0ZM10.3,6.1h0s0,0,0,0h0ZM10.3,5.2h0s0,0,0,0h0ZM10.9,1.8h0s0,0,0,0c0,0,0,0,0,0h0ZM13.4,1.8h0s0,0,0,0h0ZM11.5,1.8h0s0,0,0,0h0s0,0,0,0h0s0,0,0,0ZM11.4,1.8h0s0,0,0,0h0ZM11.4,5.4c0,0,0,.1,0,.2,0,0,0,0,0,0,0,0,0,0,0,0,0,0,0,.1,0,.2v-.4ZM11.4,14c0,0,0,.1,0,.2,0,0,0,0,0,0,0,0,0,0,0,0,0,0,0,.1,0,.2v-.4ZM11.4,22.6c0,0,0,.1,0,.2,0,0,0,0,0,0,0,0,0,0,0,0,0,0,0,.1,0,.2v-.4ZM11.4,27h0s0,0,0,0h0ZM13.4,27h0s0,0,0,0h0ZM13.4,26.9h0s0,0,0,0h0ZM13.6,26.9s0,0,0,0h0s0-.1,0-.1h0s0,0,0,0ZM13.6,26.5c-.1,0-.2,0-.3,0,0,0-.2.1-.2.2,0,0,0,.2,0,.2h-1.5s0-.1,0-.2c0,0-.1-.2-.2-.2,0,0,0,0,0,0v-3.3c0,.1,0,.2.2.2,0,0,.1,0,.2,0s0,0,.1,0c0,0,.1,0,.2-.1l1.3,1.5c0,0-.1,0-.2.2,0,.1,0,.3,0,.4,0,.1.2.2.3.2,0,0,0,0,.1,0s0,0,.1,0v.8ZM11.7,22.4s0,0,0,0h.2s0,0,0,0c0,0,0,0,0,0ZM11.8,22.5h0c0,0,0,.1,0,.1h.1c0-.1,0-.1,0-.1ZM11.7,23.1s0,0,0,0h0c0,.1-.2,0-.2,0,0,0,0,0,0,0ZM11.8,23.3h0s0,0,0,0h0s0,0,0,0h0ZM11.9,22.3h0s0,0,0,0h0ZM13.5,25.3h0s0,0,0,0c0,0,0,0,0,0h0c0-.1,0-.1,0-.1,0,0,0,0,0,0,0,0,0,0,0,0ZM13.6,24.6l-1.5-1.8s0,0,0,0c0,0,0,0,0,0h0s0,0,0,0c0,0,0,0,0,0l1.5-1.8v3.7ZM13.4,20.4h0s0,0,0,0h0ZM13.4,20.3h0s0,0,0,0h0ZM13.5,20.3h0s0,0,0,0h0s0,0,0,0ZM13.5,20.2h0s0,0,0,0h0ZM13.6,19.8c0,0-.1,0-.2,0-.1,0-.2.1-.3.2,0,0,0,.2,0,.4,0,0,0,.1.2.2l-1.3,1.5c0,0-.1-.1-.2-.1-.1,0-.2,0-.3,0,0,0-.1.1-.2.2v-2.9s0,0,0,0c0,0,.2-.1.2-.2,0,0,0-.1,0-.2h1.5c0,0,0,.1,0,.2,0,.1.1.2.2.2,0,0,0,0,.1,0s0,0,.1,0v.4ZM13.4,19h0s0,0,0,0ZM13.5,18.3h.1c0,0,0,0,0,0,0,0,0,0,0,0h-.1ZM13.6,19.1h-.1c0,0,0-.1,0-.1,0,0,0,0,0,0h0ZM13.6,18c-.1,0-.2,0-.3,0,0,0-.2.1-.2.2,0,0,0,.1,0,.2h-1.5c0,0,0-.1,0-.2,0,0-.1-.2-.2-.2,0,0,0,0,0,0v-3.3c0,.1,0,.2.2.2,0,0,.1,0,.2,0s0,0,.1,0c0,0,.1,0,.2-.1l1.3,1.5c0,0-.1,0-.2.2,0,.1,0,.3,0,.4,0,.1.2.2.3.2,0,0,0,0,.1,0s0,0,.1,0v.8ZM11.7,13.8s0,0,0,0h.2s0,0,0,0c0,0,0,0,0,0ZM11.8,13.9h0c0,0,0,.1,0,.1h.1c0-.1,0-.1,0-.1ZM11.7,14.6s0,0,0,0h0c0,.1-.2,0-.2,0,0,0,0,0,0,0ZM11.8,14.7h0s0,0,0,0h0s0,0,0,0h0s0,0,0,0h0s0,0,0,0ZM11.9,13.7h0s0,0,0,0h0ZM13.5,16.7h0s0,0,0,0c0,0,0,0,0,0h0c0-.1,0-.1,0-.1,0,0,0,0,0,0,0,0,0,0,0,0ZM13.6,16.1l-1.5-1.8h0s0,0,0,0c0,0,0,0,0,0h0s0,0,0,0c0,0,0,0,0,0l1.5-1.8v3.7ZM13.4,11.9h0s0,0,0,0h0ZM13.5,11.7h0s0,0,0,0h0ZM13.5,11.6h0s0,0,0,0h0ZM13.6,11.3c0,0-.1,0-.2,0-.1,0-.2.1-.3.2,0,0,0,.2,0,.4,0,0,0,.1.2.2l-1.3,1.5c0,0-.1-.1-.2-.1-.1,0-.2,0-.3,0,0,0-.1.1-.2.2v-2.9s0,0,0,0c0,0,.2-.1.2-.2,0,0,0-.1,0-.2h1.5c0,0,0,.1,0,.2,0,.1.1.2.2.2,0,0,0,0,.1,0s0,0,.1,0v.4ZM13.4,10.4h0s0,0,0,0ZM13.5,9.7h.1c0,0,0,0,0,0,0,0,0,0,0,0h-.1ZM13.6,10.5h-.1c0,0,0-.1,0-.1,0,0,0,0,0,0h0ZM13.6,9.4c-.1,0-.2,0-.3,0,0,0-.2.1-.2.2,0,0,0,.1,0,.2h-1.5c0,0,0-.1,0-.2,0,0-.1-.2-.2-.2,0,0,0,0,0,0v-3.3c0,.1,0,.2.2.2,0,0,.1,0,.2,0s0,0,.1,0c0,0,.1,0,.2-.1l1.3,1.5c0,0-.1,0-.2.2,0,.1,0,.3,0,.4,0,.1.2.2.3.2,0,0,0,0,.1,0s0,0,.1,0v.8ZM11.7,6s0,0,0,0h0c0,.1-.2,0-.2,0,0,0,0,0,0,0ZM11.6,5.2h.2s0,0,0,0c0,0,0,0,0,0,0,0,0,0,0,0ZM11.9,5.2h0s0,0,0,0h0ZM11.9,6.1h0s0,0,0,0h0ZM13.5,8.1h0s0,0,0,0c0,0,0,0,0,0h0c0-.1,0-.1,0-.1,0,0,0,0,0,0,0,0,0,0,0,0ZM13.6,7.5l-1.5-1.8h0s0,0,0,0c0,0,0,0,0,0h0s0,0,0,0c0,0,0,0,0,0l1.5-1.8v3.7ZM13.4,3.3h0s0,0,0,0h0ZM13.5,3.1h0s0,0,0,0h0ZM13.5,3.1h0s0,0,0,0h0ZM13.6,2.7c0,0-.1,0-.2,0-.1,0-.2.1-.3.2,0,0,0,.2,0,.4,0,0,0,.1.2.2l-1.3,1.5c0,0,0-.1-.2-.1-.1,0-.2,0-.3,0,0,0-.1.1-.2.2v-2.9s0,0,0,0c0,0,.2-.1.2-.2,0,0,0-.2,0-.2h1.5c0,.1,0,.2,0,.3,0,.1.1.2.2.2,0,0,0,0,.1,0s0,0,.1,0v.4ZM13.6,2h-.1c0,0,0-.1,0-.1,0,0,0,0,0,0h0ZM14.1,26.9s0,0,0,0h0s0,0,0,0h0ZM14.2,26.9h0s0,0,0,0h0ZM16.2,27h0s0,0,0,0h0ZM16.3,27s0,0,0,0h0c0,0,0,0,0,0h0ZM16.3,19h0s0,0,0,0h0ZM16.3,18.3h0,0s0,0,0,0h0ZM16.3,10.4h0s0,0,0,0h0ZM16.3,9.8h0,0s0,0,0,0h0ZM16.3,1.7s0,0,0,0h0c0,0,0,0,0,0h0ZM16.1,1.8h0s0,0,0,0h0ZM14.2,1.8h0s0,0,0,0h0s0,0,0,0h0s0,0,0,0h0s0,0,0,0ZM14.1,1.8s0,0,0,0h0s0,0,0,0h0ZM14.1,3s0,0,0,0h0c0,.1,0,.1,0,.1,0,0,0,0,0,0,0,0,0,0,0,0h0ZM14.1,4l1.3,1.6h0s0,0,0,0c0,0,0,0,0,0h0s-1.4,1.7-1.4,1.7v-3.4ZM14.2,8h0c0,0,0,0,0,0h0ZM14.1,8.1h0s0,0,0,0h0ZM14.1,8.2h0s0,0,0,0h0c0,0,0,0,0,0h0ZM14.1,8.6s0,0,0,0c.1,0,.2-.1.3-.2,0,0,0-.2,0-.4,0,0,0-.1-.2-.2l1.3-1.5c0,0,0,.1.2.1,0,0,0,0,.1,0,0,0,.1,0,.2,0,0,0,.2-.2.2-.3,0,0,0-.2,0-.2,0,0,0-.1,0-.2,0,0,0,0,0,0,0,0,0,0,0,0,0,0,0-.1,0-.2,0,0,0-.1,0-.2,0-.1,0-.2-.2-.3,0,0-.2,0-.3,0,0,0-.1,0-.2.1l-1.3-1.5c0,0,.1,0,.2-.2,0-.1,0-.3,0-.4,0-.1-.2-.2-.3-.2,0,0,0,0,0,0v-.4s0,0,0,0c0,0,0,0,.1,0,0,0,.2-.1.2-.2,0,0,0-.2,0-.2h1.5s0,.1,0,.2c0,0,.1.2.2.2,0,0,0,0,0,0s0,0,0,0v7.1s0,0-.1,0c0,0-.2.1-.2.2,0,0,0,.1,0,.2h-1.5c0,0,0-.2,0-.2,0-.1-.1-.2-.2-.2,0,0-.1,0-.2,0v-.7ZM15.9,6s0,0,0,0h-.2s0,0,0,0c0,0,0,0,0,0ZM15.8,6h0c0,0,0-.1,0-.1h-.1ZM15.9,5.3s0,0,0,0h0c0-.1.2,0,.2,0,0,0,0,0,0,0ZM15.8,6.1h0s0,0,0,0h0ZM15.7,5.2h0s0,0,0,0h0ZM14.3,9.8h0s0,0,0,0h0ZM14.2,10.4h0s0,0,0,0h0ZM14.2,9.7h0s0,0,0,0h0s0,0,0,0ZM14.1,9.6h0s0,.1,0,.1c0,0,0,0,0,0h0ZM14.1,10.4s0,0,0,0h0s0,0,0,0h0s0,0,0,0ZM14.1,11.6s0,0,0,0h0c0,.1,0,.1,0,.1,0,0,0,0,0,0,0,0,0,0,0,0h0ZM14.1,12.5l1.3,1.6h0s0,0,0,0c0,0,0,0,0,0h0s0,0,0,0c0,0,0,0,0,0l-1.3,1.7v-3.4ZM14.1,11.8h0c0,0,0,0,0,0h0ZM14.2,16.6h0s0,0,0,0h0ZM14.1,16.7h0s0,0,0,0h0ZM14.1,16.8h0s0,0,0,0c0,0,0,0,0,0h0ZM14.1,17.2s0,0,0,0c.1,0,.2-.1.3-.2,0,0,0-.2,0-.4,0,0,0-.1-.2-.2l1.3-1.5c0,0,0,.1.2.1,0,0,0,0,.1,0,0,0,.1,0,.2,0,0,0,.2-.2.2-.3,0,0,0-.2,0-.2,0,0,0-.1,0-.2,0,0,0,0,0,0,0,0,0,0,0,0,0,0,0-.1,0-.2,0,0,0-.1,0-.2,0-.1,0-.2-.2-.3,0,0-.2,0-.3,0,0,0-.1,0-.2.1l-1.3-1.5c0,0,.1,0,.2-.2,0-.1,0-.3,0-.4,0-.1-.2-.2-.3-.2,0,0,0,0,0,0v-.4s0,0,0,0c0,0,0,0,.1,0,0,0,.2-.1.2-.2,0,0,0-.1,0-.2h1.5c0,0,0,.1,0,.2,0,0,.1.2.2.2,0,0,0,0,0,0s0,0,0,0v7.1s0,0-.1,0c0,0-.2.1-.2.2,0,0,0,.1,0,.2h-1.5c0,0,0-.2,0-.2,0-.1-.1-.2-.2-.2,0,0-.1,0-.2,0v-.7ZM15.7,13.8h0s0,0,0,0h0ZM15.8,14.7h0s0,0,0,0h0ZM15.9,13.9s0,0,0,0h0c0-.1.2,0,.2,0,0,0,0,0,0,0ZM16,14.7h-.2s0,0,0,0c0,0,0,0,0,0,0,0,0,0,0,0ZM14.3,18.3h0s0,0,0,0h0ZM14.2,19h0s0,0,0,0h0ZM14.2,18.3h0s0,0,0,0h0s0,0,0,0ZM14.1,18.2h0s0,.1,0,.1c0,0,0,0,0,0h0ZM14.1,19s0,0,0,0h0s0,0,0,0h0s0,0,0,0ZM14.1,20.2s0,0,0,0h0c0,.1,0,.1,0,.1,0,0,0,0,0,0,0,0,0,0,0,0h0ZM14.1,21.1l1.3,1.6h0s0,0,0,0c0,0,0,0,0,0h0s0,0,0,0c0,0,0,0,0,0l-1.3,1.7v-3.4ZM14.2,25.2h0c0,0,0,0,0,0h0ZM14.1,25.3h0s0,0,0,0h0ZM14.1,25.4h0s0,0,0,0c0,0,0,0,0,0h0ZM14.1,25.8s0,0,0,0c.1,0,.2-.1.3-.2,0,0,0-.2,0-.4,0,0,0-.1-.2-.2l1.3-1.5c0,0,0,.1.2.1,0,0,0,0,.1,0,0,0,.1,0,.2,0,0,0,.2-.2.2-.3,0,0,0-.2,0-.2,0,0,0-.1,0-.2,0,0,0,0,0,0,0,0,0,0,0,0,0,0,0-.1,0-.2,0,0,0-.1,0-.2,0-.1,0-.2-.2-.3,0,0-.2,0-.3,0,0,0-.1,0-.2.1l-1.3-1.5c0,0,.1,0,.2-.2,0-.1,0-.3,0-.4,0-.1-.2-.2-.3-.2,0,0,0,0,0,0v-.4s0,0,0,0c0,0,0,0,.1,0,0,0,.2-.1.2-.2,0,0,0-.1,0-.2h1.5c0,0,0,.1,0,.2,0,0,.1.2.2.2,0,0,0,0,0,0s0,0,0,0v7.2s0,0-.1,0c0,0-.2.1-.2.2,0,0,0,.2,0,.2h-1.5c0-.1,0-.2,0-.3,0-.1-.1-.2-.2-.2,0,0-.1,0-.2,0v-.7ZM15.7,22.3h0s0,0,0,0h0ZM15.8,23.3h0s0,0,0,0h0ZM15.9,22.5s0,0,0,0h0c0-.1.2,0,.2,0,0,0,0,0,0,0ZM16,23.2h-.2s0,0,0,0c0,0,0,0,0,0,0,0,0,0,0,0ZM14.1,26.8h0s0,.1,0,.1c0,0,0,0,0,0h0Z"/>
    <path class="st0" d="M23.9,6.5c-.4,0-.8,0-1.3,0-.3,0-.6,0-.9,0-.2,0-.2,0-.2-.2,0,0,0-.1,0-.2,0-.7,0-1.4,0-2.1,0-.4,0-.9,0-1.3,0-.3,0-.7,0-1,0-.2,0-.2-.2-.2,0,0,0,0-.1,0-.4,0-.8,0-1.2,0-.2,0-.2,0-.2.2,0,0,0,.2,0,.3,0,.4,0,.9,0,1.3,0,1.2,0,2.4,0,3.6,0,.3,0,.7,0,1,0,.2,0,.2.2.2.6,0,1.2,0,1.8,0,.7,0,1.3,0,2,0,0,0,0,0,0,0,.2,0,.2,0,.2-.2,0-.4,0-.9,0-1.3,0-.1,0-.2-.2-.2Z"/>
    <path class="st0" d="M31,7.5c-.2-.9-.4-1.7-.5-2.6-.2-1.1-.5-2.1-.8-3.2,0-.2,0-.2-.3-.2-.2,0-.5,0-.7,0,0,0,0,0,0,0-.2,0-.4,0-.6,0-.2,0-.3,0-.3.3,0,.1,0,.3,0,.4-.2.9-.5,1.9-.7,2.9-.2,1-.4,2-.6,3,0,.2,0,.2.2.3.4,0,.8,0,1.2,0,.1,0,.2,0,.2-.2,0-.1,0-.2,0-.3,0,0,0-.1.2-.1.3,0,.7,0,1,0,0,0,.1,0,.2.1,0,0,0,.2,0,.3,0,.1,0,.2.2.2,0,0,.2,0,.3,0,.3,0,.6,0,.9,0,.2,0,.2,0,.2-.3,0-.1,0-.3,0-.4ZM28.8,5.9s0,0-.1,0c0,0,0,0,0,0,0,0,0,0,0-.1,0-.2,0-.4.1-.7,0,0,0,0,0,0,0,0,0,0,0,0,0,.2.1.4.1.6,0,.1,0,.2-.1.2Z"/>
    <path class="st0" d="M33.3,6.1c0,.3.1.5.2.7.2.4.4.7.7,1,.2.2.4.3.7.4.3,0,.6,0,.8,0,.4,0,.8-.2,1.1-.4.4-.3.7-.7.8-1.1,0-.2,0-.2-.1-.3-.2-.1-.5-.2-.7-.3,0,0-.2,0-.3,0-.1,0-.1,0-.2,0,0,.1-.1.2-.2.3-.4.4-.8.3-1-.2,0,0,0,0,0,0,0-.2-.1-.4-.1-.6,0,0,0-.2,0-.3,0-.4,0-.9,0-1.3,0-.1,0-.2,0-.3,0-.2.1-.4.2-.5.2-.3.5-.3.8,0,.1.1.2.2.3.4,0,.1.1.2.3.1.3,0,.7-.2,1-.4.1,0,.2-.1.1-.2,0,0,0-.2,0-.2-.2-.6-.9-1.1-1.5-1.3-.2,0-.4,0-.6,0-.5,0-1,.2-1.4.6-.3.4-.6.8-.8,1.4,0,.2,0,.4,0,.6,0,.3,0,.5,0,.8,0,.4,0,.8,0,1.2Z"/>
    <path class="st0" d="M44.4,7.5c-.2-.9-.4-1.7-.5-2.6-.2-1.1-.5-2.1-.8-3.2,0-.2,0-.2-.3-.2-.2,0-.5,0-.7,0,0,0,0,0,0,0-.2,0-.4,0-.6,0-.2,0-.3,0-.3.3,0,.1,0,.3,0,.4-.2.9-.5,1.9-.7,2.9-.2,1-.4,2-.6,3,0,.2,0,.2.2.3.4,0,.8,0,1.2,0,.1,0,.2,0,.2-.2,0-.1,0-.2,0-.3,0,0,0-.1.2-.1.3,0,.7,0,1,0,0,0,.1,0,.2.1,0,0,0,.2,0,.3,0,.1,0,.2.2.2,0,0,.2,0,.3,0,.3,0,.6,0,.9,0,.2,0,.2,0,.2-.3,0-.1,0-.3,0-.4ZM42.2,5.9s0,0-.1,0c0,0,0,0,0,0,0,0,0,0,0-.1,0-.2,0-.4.1-.7,0,0,0,0,0,0,0,0,0,0,0,0,0,.2.1.4.1.6,0,.1,0,.2-.1.2Z"/>
    <path class="st0" d="M46.9,6.9c.3.3.7.7,1.1.9.4.2.8.4,1.3.3.2,0,.4,0,.7-.1.1,0,.2,0,.4-.2.4-.2.8-.5.9-1,.1-.5,0-1.1-.2-1.5-.1-.2-.3-.4-.5-.6-.3-.3-.7-.5-1.1-.7-.2,0-.4-.2-.5-.4,0,0,0-.2,0-.3,0-.2.3-.3.5-.2.1,0,.3.1.4.2.3.2.5.4.7.5.1.1.2.1.3,0,.1-.1.3-.3.4-.4.2-.2.3-.3.5-.5,0,0,0-.1,0-.2,0,0,0,0,0,0-.3-.3-.6-.5-.9-.8-.5-.4-1.1-.5-1.8-.4-.5.1-1,.4-1.4.8-.3.3-.4.6-.4,1,0,.6.2,1.2.8,1.6.3.3.7.5,1,.7.2.1.4.3.5.4,0,0,.1.1.1.2,0,.2,0,.4-.3.4-.1,0-.2,0-.3-.1-.3-.2-.6-.4-.8-.6,0,0-.2-.1-.3-.2,0,0-.1,0-.2,0,0,0,0,0,0,0-.2.2-.4.4-.6.6,0,0,0,.1-.1.2,0,0,0,.1,0,.2,0,0,0,0,0,0Z"/>
    <path class="st0" d="M55,8c0-.1,0-.2,0-.3,0,0,0-.1.2-.1.3,0,.7,0,1,0,0,0,.1,0,.2.1,0,0,0,.2,0,.3,0,.1,0,.2.2.2,0,0,.2,0,.3,0,.3,0,.6,0,.9,0,.2,0,.2,0,.2-.3,0-.1,0-.3,0-.4-.2-.9-.4-1.7-.5-2.6-.2-1.1-.5-2.1-.8-3.2,0-.2,0-.2-.3-.2-.2,0-.5,0-.7,0,0,0,0,0,0,0-.2,0-.4,0-.6,0-.2,0-.3,0-.3.3,0,.1,0,.3,0,.4-.2.9-.5,1.9-.7,2.9-.2,1-.4,2-.6,3,0,.2,0,.2.2.3.4,0,.8,0,1.2,0,.1,0,.2,0,.2-.2ZM55.7,5.1s0,0,0,0c0,0,0,0,0,0,0,.2.1.4.1.6,0,.1,0,.2-.1.2,0,0,0,0-.1,0,0,0,0,0,0,0,0,0,0,0,0-.1,0-.2,0-.4.1-.7Z"/>
    <path class="st0" d="M24,13.8c0-.4,0-.9-.2-1.3-.1-.4-.4-.7-.7-1,0,0-.1,0-.2,0-.2,0-.5-.1-.7-.1-.7,0-1.4,0-2.1,0-.3,0-.3,0-.3.3,0,1,0,1.9,0,2.9s0,1.9,0,2.9c0,0,0,0,0,.1,0,.2,0,.2.2.2,0,0,0,0,.1,0,.7,0,1.4,0,2.1,0,0,0,.2,0,.2,0,.2,0,.5,0,.6-.2.4-.3.6-.6.8-1,.1-.4.2-.9.2-1.3,0-.5,0-1,0-1.5ZM22.4,15.8c0,.3-.3.5-.6.5-.2,0-.3,0-.5,0-.1,0-.1,0-.2-.1,0,0,0-.1,0-.2,0-.5,0-.9,0-1.4h0v-1.4c0-.3,0-.3.3-.3.1,0,.3,0,.4,0,.2,0,.4.2.5.4,0,.1,0,.3,0,.5,0,.5,0,1,0,1.5,0,.2,0,.3,0,.5Z"/>
    <path class="st0" d="M30.8,16.2c-.4,0-.7,0-1.1,0-.3,0-.7,0-1,0,0,0-.1,0-.2,0-.1,0-.1,0-.1-.2,0-.2,0-.4,0-.6,0,0,0-.1.1-.1,0,0,0,0,.1,0,.3,0,.5,0,.8,0,0,0,0,0,.1,0,0,0,.1,0,.1-.2,0-.3,0-.7,0-1,0,0,0,0,0,0,0-.1,0-.2-.2-.2-.1,0-.3,0-.4,0-.2,0-.4,0-.6,0-.1,0-.1,0-.2-.1,0-.2,0-.4,0-.7,0,0,0-.1.1-.1,0,0,.1,0,.2,0,.2,0,.5,0,.7,0,.4,0,.9,0,1.3,0,.2,0,.2,0,.2-.2,0-.4,0-.9,0-1.3,0-.2,0-.2-.2-.2-.2,0-.4,0-.6,0-.4,0-.9,0-1.3,0-.3,0-.6,0-.9,0-.3,0-.7,0-1,0,0,0,0,0,0,0,0,0-.1,0-.1.1,0,0,0,.1,0,.2,0,.3,0,.5,0,.8,0,.9,0,1.9,0,2.8,0,.5,0,1,0,1.5,0,.3,0,.6,0,1,0,.2,0,.2.2.2.6,0,1.3,0,1.9,0,.7,0,1.3,0,2,0,0,0,0,0,.1,0,.1,0,.2,0,.2-.2,0-.4,0-.9,0-1.3,0-.1,0-.2-.2-.2Z"/>
    <path class="st0" d="M37.7,16.2c-.4,0-.8,0-1.3,0-.3,0-.6,0-.9,0-.2,0-.2,0-.2-.2,0,0,0-.1,0-.2,0-.7,0-1.4,0-2.1,0-.4,0-.9,0-1.3,0-.3,0-.7,0-1,0-.2,0-.2-.2-.2,0,0,0,0-.1,0-.4,0-.8,0-1.2,0-.2,0-.2,0-.2.2,0,0,0,.2,0,.3,0,.4,0,.9,0,1.3,0,1.2,0,2.4,0,3.6,0,.3,0,.7,0,1,0,.2,0,.2.2.2.6,0,1.2,0,1.8,0,.7,0,1.3,0,2,0,0,0,0,0,0,0,.2,0,.2,0,.2-.2,0-.4,0-.9,0-1.3,0-.1,0-.2-.2-.2Z"/>
    <path class="st0" d="M23.6,20.8c-.1,0-.3,0-.4,0-.5,0-1.1,0-1.6,0-.5,0-1.1,0-1.6,0,0,0-.1,0-.2,0,0,0-.1,0-.1.2,0,0,0,0,0,.1,0,.3,0,.5,0,.8,0,.4,0,.4.4.4.2,0,.4,0,.7,0,.1,0,.2,0,.2.2,0,.2,0,.5,0,.7,0,.6,0,1.2,0,1.7,0,.7,0,1.3,0,2,0,0,0,.2,0,.2,0,.1,0,.2.2.2,0,0,.1,0,.2,0,.3,0,.6,0,.8,0,0,0,.1,0,.2,0,.1,0,.2,0,.2-.2,0,0,0-.2,0-.3,0-.4,0-.7,0-1.1,0-.2,0-.4,0-.7,0-.1,0-.2,0-.4,0-.5,0-1,0-1.5,0-.2,0-.5,0-.7,0-.2,0-.2.2-.2,0,0,.1,0,.2,0,.2,0,.5,0,.7,0,.1,0,.2,0,.2-.2,0-.3,0-.7,0-1.1,0-.1,0-.2-.2-.2Z"/>
    <path class="st0" d="M29.8,21.4c-.6-.6-1.3-.8-2.1-.7-.6.1-1,.5-1.3,1-.3.6-.5,1.2-.5,1.8,0,.4,0,.8,0,1.2,0,.3,0,.6.1.9.2.5.5,1,.8,1.4.2.2.5.4.8.4.2,0,.4,0,.7,0,.8,0,1.3-.4,1.7-1.1.3-.5.4-1,.4-1.6,0-.2,0-.5,0-.7,0,0,0-.2,0-.2,0-.5,0-1-.2-1.5-.1-.3-.2-.7-.5-.9ZM28.9,25c0,.1,0,.3-.1.4-.1.2-.3.4-.5.4-.3,0-.4-.2-.6-.4,0-.1-.1-.3-.1-.4,0-.6,0-1.3,0-1.9,0-.2,0-.5.3-.6.2-.3.6-.3.8,0,.2.2.2.4.3.6,0,.1,0,.3,0,.4,0,.2,0,.4,0,.6,0,.3,0,.6,0,.9Z"/>
    <path class="st0" d="M36.5,20.8c-.1,0-.3,0-.4,0-.5,0-1.1,0-1.6,0-.5,0-1.1,0-1.6,0,0,0-.1,0-.2,0,0,0-.1,0-.1.2,0,0,0,0,0,.1,0,.3,0,.5,0,.8,0,.4,0,.4.4.4.2,0,.4,0,.7,0,.1,0,.2,0,.2.2,0,.2,0,.5,0,.7,0,.6,0,1.2,0,1.7,0,.7,0,1.3,0,2,0,0,0,.2,0,.2,0,.1,0,.2.2.2,0,0,.1,0,.2,0,.3,0,.6,0,.8,0,0,0,.1,0,.2,0,.1,0,.2,0,.2-.2,0,0,0-.2,0-.3,0-.4,0-.7,0-1.1,0-.2,0-.4,0-.7,0-.1,0-.2,0-.4,0-.5,0-1,0-1.5,0-.2,0-.5,0-.7,0-.2,0-.2.2-.2,0,0,.1,0,.2,0,.2,0,.5,0,.7,0,.1,0,.2,0,.2-.2,0-.3,0-.7,0-1.1,0-.1,0-.2-.2-.2Z"/>
    <path class="st0" d="M43.6,20.9c0,0,0-.1-.1-.1,0,0-.1,0-.2,0-.3,0-.7,0-1,0,0,0,0,0-.1,0,0,0-.1,0-.1.1,0,0,0,0,0,0,0,.5,0,.9,0,1.4,0,.7,0,1.5,0,2.2,0,.2,0,.3,0,.4,0,.1,0,.3-.2.4-.2.2-.6.3-.8,0-.1-.1-.2-.2-.3-.4,0-.1,0-.2,0-.3,0-.4,0-.8,0-1.1s0-.5,0-.7c0-.1,0-.2,0-.4,0-.5,0-1.1,0-1.6,0-.2,0-.2-.2-.2-.4,0-.8,0-1.2,0-.2,0-.2,0-.2.2,0,.5,0,1,0,1.5,0,.7,0,1.5,0,2.2,0,.7.3,1.4.7,1.9.2.2.4.4.7.5.6.2,1.1.2,1.7,0,.1,0,.3-.1.4-.2.4-.4.7-.8.9-1.4.1-.4.1-.8.2-1.2,0-1.1,0-2.2,0-3.3,0,0,0,0,0-.1Z"/>
    <path class="st0" d="M52.3,21c0-.1,0-.2-.2-.2-.4,0-.8,0-1.2,0,0,0-.2,0-.2.1,0,0,0,0,0,.1-.3.6-.5,1.1-.7,1.7-.1.3-.3.6-.4.9,0,0,0,.1-.1.1,0,0,0,0-.1-.1,0,0,0,0,0,0-.3-.6-.6-1.3-.9-1.9,0-.2-.2-.4-.3-.6,0-.1-.2-.2-.3-.2-.4,0-.7,0-1.1,0,0,0-.1,0-.2,0-.1,0-.2,0-.2.2,0,.2,0,.4,0,.6,0,.8,0,1.6,0,2.3,0,1,0,1.9,0,2.9,0,0,0,0,0,.1,0,0,0,.1.1.1,0,0,.1,0,.2,0,.3,0,.7,0,1,0,.2,0,.2,0,.2-.2,0,0,0,0,0-.1,0-.6,0-1.3,0-1.9,0,0,0-.1,0-.2,0,0,0,0,0,0,0,0,0,0,0,0,0,0,0,0,0,0,.1.3.2.5.3.8,0,.1.1.3.2.4,0,.1.1.2.2.2.4,0,.7,0,1.1,0,.2,0,.3,0,.3-.3,0-.2.2-.5.3-.7,0-.2.2-.4.3-.6,0,0,0,0,0,0,0,0,0,0,0,0,0,.7,0,1.4,0,2.1,0,.2,0,.2.2.3.3,0,.6,0,.9,0,.3,0,.3,0,.3-.3,0-.7,0-1.3,0-2,0-.4,0-.8,0-1.2,0-.9,0-1.7,0-2.6Z"/>
    <path class="st0" d="M60.7,21.4c0-.2-.2-.4-.4-.5,0,0,0,0,0,0,0,0,0,0,0,0,0,0,.1,0,.2,0,0,0,0,0,0,0,0,0,0,0,0,0,0,0,0,0,0,0,0,0,0,0,0,0-.2,0-.3,0-.5,0,0,0,0,0,0,0,0-.1,0-.2,0-.3,0-.2,0-.5,0-.7,0-.6-.3-1.1-.5-1.5,0,0-.1-.2-.2-.3,0,0,0,0-.2-.1,0,0-.1,0-.2,0,0,0,0,.1-.1.2-.1.3-.2.6-.1,1,0,.3.1.5.2.7.2.5.5.9.9,1.1,0,0,0,0,0,0,0,0,0,0,0,0,0,0-.2.2-.3.3,0,0,0,0,0,0,0,0,0,0,0,0-.3-.2-.5-.4-.8-.5-.3-.1-.7-.2-1-.2-.1,0-.3,0-.4,0-.2,0-.3,0-.5.1-.3.1-.6.3-.9.6,0,0,0,0,0,0-.1.1-.2.3-.3.4-.2.3-.4.7-.4,1.1,0,0,0,.1,0,.2,0,.3-.2.6-.2.9,0,.2,0,.4,0,.6,0,.2,0,.3,0,.5,0,0,0,.2,0,.3,0,.2,0,.3,0,.5,0,.4.2.8.5,1.1.2.3.4.5.7.7.4.3.9.5,1.4.5.1,0,.3,0,.4,0,.1,0,.3,0,.4,0,.3,0,.5-.1.8-.3.2-.1.4-.2.5-.4.1-.2.3-.4.3-.6.2-.4.3-.8.4-1.3,0-.3.1-.5.1-.8,0-.2,0-.3,0-.5,0-.2,0-.3,0-.5,0-.2,0-.4,0-.5,0-.2,0-.3,0-.5,0-.3-.2-.7-.4-.9,0,0-.1-.1-.2-.2,0,0,0,0,0,0,0,0,0,0,0,0,.1-.1.3-.2.4-.3,0,0,0,0,.1,0,0,0,0,0,0,0,0,0,0,.2,0,.3,0,.3.1.5.2.7,0,0,0,0,.1.1,0,0,.1,0,.2,0,0,0,0-.1,0-.2,0-.2,0-.3,0-.5Z"/>
  </g>
  <g>
    <path class="st0" d="M274.8,3s0,0,0,.1v.3s0,0,0,0c0,.6-.7,1.2-1.3,1.2-1.4.1-2.2-1.5-1.2-2.5s2.4-.4,2.5.8ZM273.2,2c-.9,0-1.4,1.1-1,1.9.4.9,1.7,1,2.2,0s-.1-2.1-1.2-2Z"/>
    <path class="st0" d="M274.8,3.1s0,0,0-.1h0Z"/>
    <path class="st0" d="M274.8,3.5h0s0,0,0,0h0Z"/>
    <g>
      <path class="st0" d="M256.3,13.7s0-.1,0-.1c-.8-1.7-1.7-3.4-2.6-5.1-.6-1.3-1.2-2.6-1.8-3.9s0-.1,0-.1,0,0,0,.1c0,.2,0,.6,0,.8,0,.6,0,1.2,0,1.7,0,1.3.1,2.6,0,3.8s-.3,1.7.3,2.1.4,0,.6.1,0,.4,0,.6h-2.3c0,0,0-.2,0-.4s.2-.2.2-.2c.1,0,.3,0,.4-.2s.1-.5.1-.7c0-.8,0-1.6,0-2.3,0-1.9,0-3.9,0-5.8,0,0,0-.2,0-.3s.1,0,.1-.1,0-.2,0-.3c0-.4.1-1.3-.6-1.3s-.2,0-.2,0,0-.7,0-.7c.3.2.7,0,1.1,0s.7,0,1.1.1l1,1.9c.1.2.3.8.5,1s0,0,0,0c0,0,.1.5.2.6s.2.2.2.2,0,0,0,0c0,0,.2.5.3.7.4.8.8,1.6,1.1,2.4s.1.4.2.6c0-.3,0-.6,0-.9,0-.6,0-1.1,0-1.7,0-1.2,0-2.5,0-3.7,0-.2-.1-.5-.4-.5s-.3,0-.4-.1-.1-.2-.1-.2c0-.1,0-.3.1-.4s.3,0,.4,0c.6,0,1.1-.1,1.7,0s.2,0,.2,0c-.1.2-.3.4-.4.6s-.2,0-.3.4c-.2.6,0,1.1,0,1.7,0,2.1-.2,4.1-.2,6.2s0,1.9.1,2.8,0,.5,0,.6c0,0-.3,0-.4,0Z"/>
      <path class="st0" d="M264,2.5c-.1-.1-.6-.3-.8-.4s-.4,0-.4,0c0,.4,0,.8,0,1.2,0,1.6,0,3.1,0,4.7s0,2.2,0,3.3c0,.4,0,.7.2,1s.2.4.4.6c.2,0,.5,0,.7,0s.2.4.2.6c-.3,0-.6.1-1,.1s-.6,0-.9,0-.7,0-1,0c-.5,0-1,0-1.5,0h0c-.2-.2-.4-.2-.2-.5.3-.4,1,0,1.2-.5s0-.2,0-.2c0,0,.2,0,.2-.2s0-.2,0-.4.1-.2.1-.2c0,0,0-.4,0-.5,0-.3,0-.7,0-1-.1-2.7-.2-5.4-.1-8,0-.2-.2-.2-.4-.2-.4,0-1,.5-1.2.8s0,0,0,.2c0,.2-.1.4,0,.6s0,0,0,0,0,0,0,0c0,.1,0,.4,0,.5s0,.2,0,.3c0,.3.2,1-.2,1.2s-.4-.3-.4-.5c0-.4,0-.7,0-1.1,0-.9,0-1.8,0-2.7.3,0,.5,0,.8,0,.5,0,1,0,1.5,0s.4,0,.6,0c.6,0,1.2,0,1.8,0s1.2,0,1.6,0,.3,0,.3.1c0,.2,0,.4,0,.6,0,.8.1,1.4,0,2.2s0,1.1,0,1.4-.5.4-.6,0c-.2-.8,0-1.7-.3-2.5,0-.1-.2-.6-.3-.7Z"/>
    </g>
    <path class="st0" d="M237.8,22.4s.1-.6.2-.7c.2-1,.3-1.9.5-2.9.2-.7.4-1.4.6-2.1,0-.3.2-.7.2-1,0,0,.3,0,.4,0,.5,0,.9-.2,1.4,0s.2,0,.2.1,0,.2,0,.2c0,0-.2,0-.3.2-.2.4-.3,1.8-.3,2.4-.1,2.4-.1,5,0,7.4,0,.3,0,.7,0,1.1s.5.1.5.3v.4s-.2,0-.3,0c-.8.1-1.6,0-2.3,0-.2,0-.3-.4-.1-.5s.3,0,.4-.1c.3-.2.2-.4.2-.6,0-1.9,0-3.8,0-5.7,0-.3,0-.7,0-.9s-.1-.1-.2,0-.1.4-.1.5c-.3,1.5-.5,3.1-.8,4.6,0,.5-.2,1-.3,1.5s-.1.4-.2.4-.2,0-.2,0c-.2,0-.4-.1-.4-.3-.3-.7-.4-1.7-.6-2.4-.3-1.4-.5-2.8-.8-4.2,0,0-.1,0-.2,0,0,.1,0,.3,0,.4-.1,1.8-.1,3.6,0,5.3s0,.9.1,1.3.4.1.6.3c0,.2,0,.4-.3.4s-.3,0-.4,0c-.4,0-.8.1-1.2,0-.2-.5.5-.6.7-.9s0-.4,0-.6c0-1.1,0-2.2,0-3.3,0-1.8,0-3.7,0-5.5s0-.3,0-.5,0-.2,0-.4-.2-.5-.3-.6,0,0-.1,0c-.1,0-.3-.2-.4-.2,0-.1,0-.4,0-.5s.2,0,.3,0c.7.3,2.1-.3,2.2.9s0,.4,0,.5c0,.6.3,1.3.4,1.9.2,1,.5,2.4.8,3.3s0,.2.2.2Z"/>
    <g>
      <g>
        <path class="st0" d="M247.4,28s0,0-.1,0c0,0-.1,0-.2,0,0,0,0,0-.1,0,0,0-.4,0-.5,0s0-.5,0-.6,0,0,0,0c.2,0,.5-.2.4-.5.2-.3,0-.8,0-1.1s-.4-.9-.6-1.4,0,0,0,0c-.5,0-1-.2-1.5-.2,0,0-.4,0-.5,0-.3.9-.7,2.2-.3,3.1h.3c0,0,0,.1,0,.2,0,.2,0,.4,0,.5-.5,0-1,0-1.5,0,0,0-.2,0-.3,0,0,0-.2,0-.3,0h0c0-.2,0-.5.2-.6s.1,0,.2,0,.4-.3.4-.4c.1-.2.2-.9.3-1.2.2-.9.4-1.8.6-2.7s.3-2.1.5-3.1.2-1,.3-1.6c0-.6.3-1.2.4-1.7s0-1,.7-.9.3,0,.3.1c.6,1.7.8,3.6,1.3,5.4.4,1.9,1,3.8,1.4,5.7.1.4.4.4.7.6s.1.4,0,.6c-.7,0-1.4.1-2.1.1ZM245.3,19.6h0c-.2,1.3-.5,2.6-.8,3.8.6-.2,1.2.2,1.8,0,0-.2,0-.4,0-.6s-.3-.7-.2-.9,0-.2,0-.3,0,0-.1-.1c0,0,0-.3-.1-.4s-.1-.1-.1-.2,0,0,0-.1c0-.4-.4-.7-.3-1.2Z"/>
        <path class="st0" d="M242.6,28s0,0,0,0h-.3c0,0,.2,0,.3,0Z"/>
        <path class="st0" d="M242.8,28h0s-.3,0-.3,0h0c0,0,.2,0,.3,0Z"/>
        <path class="st0" d="M247.3,28s0,0,0,0h-.2s0,0,0,0c0,0,.1,0,.2,0Z"/>
      </g>
      <path class="st0" d="M241.9,13.6c0,0,0-.2.1-.3s.2,0,.3-.1.4-.3.4-.4c.1-.2.2-.9.2-1.2.2-.9.4-1.8.6-2.7s.3-2.3.6-3.4c.1-.5.2-.9.3-1.4s.2-1.2.4-1.8,0-.6.3-.9.5-.1.7,0c.6,1.9.9,3.8,1.3,5.7.4,1.8.9,3.6,1.4,5.4,0,.2.2.3.3.4s.6.2.6.4-.1.3-.2.3-.3,0-.4,0c-.8,0-1.5.2-2.3.2s-.3,0-.3,0c-.1,0,0-.5,0-.6.2,0,.5-.2.5-.4s0,0,0-.1c0,0,.1-.2.1-.4,0-.7-.5-1.5-.7-2.2h0c-.7-.1-1.3-.4-2-.2-.3.8-.6,1.7-.5,2.6s.1.6.2.6.3,0,.4,0v.6h-2.1s0-.1,0-.2ZM245.1,5.3h0c-.2,1.3-.5,2.6-.9,3.8.5-.1,1,.1,1.5,0s.3,0,.3,0c0,0,0-.6,0-.8,0-.2-.2-.5-.2-.8s0-.2,0-.3,0,0-.1-.1c0-.1,0-.3-.1-.5s-.1-.1-.1-.2c0,0,0-.2,0-.3,0-.3-.4-.7-.2-1Z"/>
    </g>
    <path class="st0" d="M256.2,16.1s.1,0,.2,0,.2.2.3.3c1.1,1.3.8,3.7-.5,4.8s-.4.3-.6.5c.2,0,.4.2.6.3.8.8.8,3.2,1,4.2s0,.7.3,1,.4.3.4.5,0,.2,0,.2c0,0,0,0,0,0,0,0-.6,0-.6,0-.1,0-.5-.2-.5-.3s0,0,0,0c-.1-.1-.3-.1-.4-.3s-.2-.7-.2-.9c-.2-1-.3-1.9-.6-2.9,0-.2,0-.6-.2-.8s-.3-.3-.4-.4c-.6-.5-1.2-.2-1.9-.2,0,.2,0,.3,0,.5,0,.8,0,1.6,0,2.5,0,.8,0,1.6.2,2.3,0,.1.5,0,.7.1s.2.3.2.4-.7,0-.8.1h-2.6c0-.1.1-.2.2-.2s0,0,0-.1.5-.3.5-.4c.4-.4,0-.6,0-1.1s0-.2,0-.2c0-.3,0-.8,0-1.2,0-2.1,0-4.3,0-6.4,0-.6,0-1.3-.2-1.9,0,0-.5-.1-.6-.1-.2,0-.3-.5-.3-.7,0,0,.4,0,.5,0,.6,0,1.2,0,1.8,0,.9,0,2.9-.2,3.6.4s0,0,0,.1ZM253,16.5v4.7h1.5s.2-.1.2-.2c0,0,0,0,0,0s.3-.3.3-.3.3-.3.3-.3,0,0,0-.1c0,0,0-.3.1-.4.2-.8.1-1.7-.1-2.5s0-.3-.1-.4-.4-.4-.4-.4c-.4-.3-1.3,0-1.8,0Z"/>
    <g>
      <path class="st0" d="M267.8,13.7h-2.1c0-.2,0-.4.2-.5s.1,0,.2,0c0,0,.4-.3.4-.4.1-.2.2-.9.3-1.2.2-.8.4-1.7.6-2.5.2-1.2.4-2.4.6-3.6s.2-1,.3-1.6.2-1,.3-1.4.1-.7.2-.9.5-.2.8,0c.6,1.8.9,3.8,1.3,5.7s.9,3.6,1.4,5.4c.1.3.4.4.7.6s.3.2.2.4-.2.2-.5.2c-.8,0-1.5.2-2.3.2s-.3,0-.3,0c-.1,0,0-.5,0-.6.2,0,.5-.2.5-.4s0,0,0,0,0-.1,0-.2c0-.3,0-.7-.2-1-.2-.5-.4-.9-.5-1.4,0,0,0,0,0,0-.5-.1-1.3-.3-1.8-.2s-.1,0-.2,0c-.3.8-.6,1.7-.5,2.5,0,.1.1.6.2.7s.3,0,.3,0v.6ZM268.8,5.3h0c-.2,1.3-.5,2.6-.9,3.8.6-.1,1.2.2,1.8,0,0-.3,0-.5-.1-.8s-.2-.5-.2-.7,0-.2,0-.3,0,0-.1-.1c0,0,0-.3-.1-.5s-.1-.1-.1-.2c0,0,0-.2,0-.3,0-.3-.3-.6-.2-1Z"/>
      <path class="st0" d="M271.1,27.9c0,0,0-.5,0-.6,0,0,.1,0,.2,0,.1,0,.3-.2.3-.4s0,0,0,0c0,0,0-.1.1-.2.1-.7-.5-1.7-.7-2.3,0,0,0,0,0,0-.3,0-.7-.1-1.1-.2s-.8,0-.9,0-.1.3-.1.3c-.2.7-.5,1.7-.4,2.4s0,.4.2.4.3,0,.4.1v.6s-2.1,0-2.1,0c0-.2,0-.5.2-.6s.1,0,.2,0c0,0,.4-.3.4-.4.1-.2.2-.9.2-1.1.2-.8.4-1.7.6-2.5.2-1.2.4-2.4.6-3.6s.2-.9.3-1.4c.1-.8.4-1.5.5-2.3.2-.4.5-.4.8-.2.6,1.8.9,3.7,1.3,5.6.4,1.8.9,3.6,1.4,5.4,0,.1.1.3.3.4s.5.3.6.4,0,.3-.1.4-.2,0-.2,0c-.8,0-1.6.2-2.4.2s-.4,0-.4,0ZM269.9,19.5h0c-.2.9-.3,1.8-.5,2.6s-.2.8-.3,1.2c.5-.1,1,0,1.5,0s.2,0,.2,0c0-.1,0-.5,0-.6,0-.3-.3-.7-.2-.9s0-.2,0-.3,0,0-.1-.1c0,0,0-.3-.1-.4s-.1-.1-.1-.2c0,0,0-.2,0-.3,0-.3-.3-.6-.2-1Z"/>
    </g>
    <path class="st0" d="M273.7,2.4c.3,0,.5.5.3.8s0,0-.1.1c.3.1,0,.6.3.9h-.3c0,0,0-.5,0-.6s0-.1-.1-.1h-.6v.7h-.3v-1.7c.3,0,.7,0,.9,0ZM273,3.2h.5s.2,0,.2,0c0,0,.1-.3,0-.4s0,0-.1,0h-.6v.5Z"/>
    <path class="st0" d="M265.7,17.3s-.2.4-.2.5c-.2.2-.3.3-.5,0s-.2-.5-.3-.7c-.2-.5-.6-.9-1-1.3-.2-.2-.2-.3-.5-.3s-.7-.2-.9-.3c-.3,0-.6.1-.8.4-.4.5-.8.9-.8,1.6,0,.5,0,1,0,1.5,0,.8,0,1.5.1,2.2.4,1.7.9,3.7,1.9,5.2.2.4.8.8,1.2,1s.5,0,.9-.2c1.5-.9,1.3-2.3,1.2-3.8,0-.2,0-.2.2-.2.2,0,.5-.1.6.1s0,.5,0,.8c0,.5.2,1.2,0,1.6s-.1.3-.2.6c-.3,1-.7,1.7-1.8,2-2,.5-3.7-.9-4.4-2.7s0-.3,0-.3c0,0-.2,0-.2,0s0-.1,0-.2c0-.1,0-.1-.1-.2,0-.2-.1-.4-.2-.6-.9-2.4-1.6-5.6-.2-8,.6-1,1.1-1.4,2.2-1.5s.8-.1,1.1-.1.8.6,1.1.6.4-.7.6-.9c.2,0,.5.4.5.5s0,0,0,.1c0,.2.1,1.1.2,1.3s.2,1.2.4,1.4,0,0,0,0Z"/>
    <g>
      <path class="st0" d="M237.4,1.2s0,0,0,0c0,0-.2,0-.2,0,0,0,0,0,0,0h.2Z"/>
      <path class="st0" d="M237.1,1.2h0c0,0,0,0,0,0,0,0,0,0,0,0h0Z"/>
      <path class="st0" d="M237.5,1.2h0c0,0,0,0,0,0,0,0,0,0,0,0h0Z"/>
      <path class="st0" d="M237.5,1.2h0c0,0,0,0,0,0h0s0,0,0,0Z"/>
      <path class="st0" d="M237.1,1.2h0c0,0,0,0,0,0h0s0,0,0,0Z"/>
      <path class="st0" d="M237,1.2s0,0,0,0c0,0,0,0,0,0,0,0,.2,0,.2,0s0,0,0,0,0,0,0,0c.4,0,.7.1,1.1.3s.9.4,1.1.4,0-.4.2-.5.4,0,.5,0c.2,0,.3.7.3,1,0,.7,0,1.4,0,2.1s0,.5,0,.6c-.1.3-.4.2-.6.1,0,0,0-.2,0-.3s0-.2,0-.3c0-.4,0-.7-.2-1.1s-.1-.2-.1-.3,0-.1,0-.2-.3-.4-.4-.5-.1,0-.2,0c-.1,0-.3-.3-.5-.3s-.3-.1-.4-.2c-.4-.2-.8-.1-1.2,0s-.8.2-1,.8-.3.8-.3.8c0,.2.1.3,0,.5s0,0,0,.1,0,.1,0,.2c.1.4.8,1,1.1,1.2s.9.4,1.4.6,1.7,1,2.1,1.5c.5.6,1,1.8.9,2.7s-.2.6,0,.8c-.2,0,0,.2,0,.3s0,0,0,0,0,.2-.1.2c-.3.5-.6.9-1,1.3s-.3.3-.4.4c-.2.1-.7.3-.9.4-1,.3-2.1-.2-2.9-.8h0c0-.1-.1-.4-.3-.4s-.2.1-.2.1c0,0,0,.1,0,.1s0,0,0,0c0,.2,0,.3,0,.4s-.3.2-.5.2c0-.2,0-.3,0-.5s0-.5,0-.7c0-1,.1-2-.1-3,0-.2.4-.4.5-.4s.2.1.3.2,0,.2,0,.3c0,.6.3,1.3.5,1.9s0,.2.1.4,0,.2.2.2c0,.3.3.4.5.6s0,0,0,.1c0,0,.1,0,.2,0,.3.1.5.3.9.4s.8.1,1.3-.1c1.1-.7,1.9-2.2.8-3.3s-.3-.2-.4-.3,0-.1,0-.1c-.1-.2-.2-.3-.4-.4s-.5-.3-.6-.4,0,0-.1,0c-.2,0-.4-.2-.5-.3s-.3,0-.5-.2c-1.8-.9-2.4-2.1-2.3-4.1,0-.2.1-.8.2-.9s.2-.1.2-.2,0,0,0-.1c.1-.4.7-.9,1.1-1.1s.7-.3,1-.3Z"/>
    </g>
  </g>
  <g>
    <path class="st0" d="M303.1,29.9h-.2c-.1,0-.2,0-.3.1-.1.1-.2.3-.2.5,0,.3,0,.5.3.6,0,0,.1,0,.2,0s.3,0,.4-.1h.1c0,0,0,0,0,0s0,0,0,0c0,0,0,0,0,.1s0,0,0,0c-.2.2-.5.2-.7.2s-.5,0-.6-.2c-.1-.2-.2-.4-.2-.6s0-.5.3-.6.4-.2.7-.2.5,0,.6.2c0,0,0,0,0,.2s0,.1,0,.2c0,0-.1,0-.2,0s-.1,0-.2,0,0,0,0-.1,0,0,0-.1"/>
    <path class="st0" d="M306,31.3s0,0,0,0c0,0-.1,0-.1,0,0,0,0,0,0,0,0,0,0,0,0-.1-.1,0-.3.1-.5.1s-.4,0-.5-.1c-.1,0-.2-.2-.2-.3s0-.3.2-.4c.1,0,.3-.1.5-.1h.5c0-.2,0-.3,0-.4,0,0,0,0-.1-.1,0,0-.1,0-.2,0h-.2s0,0,0,.1,0,0,0,.1c0,0-.1,0-.2,0-.1,0-.2,0-.2-.1,0,0,0,0,0,0,0,0,0-.1.1-.2.1,0,.3-.1.6-.1s.4,0,.5.2c0,0,.1.2.1.4v.8s0,.3,0,.3M305.2,31.1c.2,0,.3,0,.5-.2v-.3h-.4c-.1,0-.2,0-.2,0,0,0-.1.1-.1.2,0,.1,0,.2.2.2,0,0,0,0,.1,0"/>
    <path class="st0" d="M307.9,31.3c0,0,0,0,0,0h-.2s0,0,0,0v-.2s0-1.1,0-1.1h-.4c0-.2,0-.3,0-.3h0c.1,0,.2,0,.2,0,0,0,0,0,0,0v-.2c0-.3.1-.5.3-.6,0,0,.2,0,.3,0s.2,0,.3,0c0,0,.1.1.1.2s0,.1,0,.2c0,0-.1,0-.2,0-.1,0-.2,0-.2-.1,0,0,0,0,0,0h0c0,0,0,0,0,0,0,0-.2,0-.2.3,0,0,0,.1,0,.2v.3h.5s0,0,0,0,0,.1,0,.1c0,0,0,0,0,0h-.5v1.2s0,0,0,.1"/>
    <path class="st0" d="M309.3,30.5c0-.3,0-.5.3-.6.2-.1.4-.2.6-.2h0c.2,0,.4,0,.5.2.1.1.2.3.2.5s0,0,0,.1c0,0-.1,0-.2,0h-1c0,.3.1.4.3.5,0,0,.1,0,.2,0s.1,0,.2,0c0,0,.1,0,.2-.1,0,0,.1,0,.2,0s0,0,0,0c0,0,0,0,0,0,0,0,0,0,0,0,0,0,0,0,0,0-.2.2-.5.2-.7.2s-.5,0-.6-.2c-.1-.2-.2-.4-.2-.6M310.6,30.3c0-.3-.1-.4-.4-.4s-.2,0-.3.1c-.1,0-.2.2-.2.3h.9ZM310.2,29.4c0,0,0,0-.1,0,0,0,0,0,0-.1l.5-.5h0c0,0,.1,0,.2,0,0,0,0,.1,0,.2l-.6.4Z"/>
    <path class="st0" d="M315.5,31.1s0,.1,0,.2c0,0,0,0-.1,0s-.1,0-.2,0c0,0-.2,0-.3-.2-.2.1-.4.2-.7.2s-.4,0-.6-.2c-.1-.1-.2-.3-.2-.5s0-.3.1-.4c0-.1.2-.2.4-.4h0c-.1-.3-.2-.4-.2-.6,0-.2,0-.3.2-.4.1-.1.3-.2.5-.2.2,0,.4,0,.5.2,0,0,.1.2.1.3s0,.3-.1.4c0,.1-.2.3-.4.4l.5.6c.1-.2.2-.3.2-.4,0,0,0,0,0-.2,0,0,0,0,0,0,0,0,0,0,0,0,0,0,0,0,0,.1,0,0,0,0,0,.1,0,.2-.1.4-.3.6h0c0,.1,0,.1.1.2,0,0,.1,0,.2,0M314,30.1c-.1.1-.2.3-.2.4,0,.2,0,.3.1.4,0,0,.2.1.3.1.2,0,.4,0,.5-.1l-.7-.8ZM314.3,29.9c.2-.2.3-.3.3-.6,0-.1,0-.2-.2-.3,0,0,0,0-.1,0h0c-.1,0-.2,0-.2,0,0,0,0,.1,0,.2,0,.1,0,.2,0,.3,0,0,.1.2.3.3"/>
    <path class="st0" d="M318.2,28.9s0-.1,0-.1c0,0,.1,0,.2,0,0,0,0,0,0,.1v.9c.2,0,.3-.1.5-.1h0c.2,0,.4,0,.6.2.1.2.2.4.2.6s0,.5-.2.6c-.2.2-.4.2-.6.2s-.2,0-.3,0c0,0,0,0,0,0,0,0,0,0-.1.1,0,0,0,0,0,0s0,0-.1,0c0,0,0,0,0,0,0,0,0-.1,0-.2,0-.5,0-2,0-2h0ZM318.5,31c.1,0,.2.1.3.1.2,0,.4,0,.5-.3,0,0,0-.2,0-.3,0-.2,0-.4-.2-.5,0,0-.2-.1-.3-.1-.1,0-.2,0-.3,0,0,0,0,0,0,0v.9Z"/>
    <path class="st0" d="M321,31.3c0,0,0,0,0,0h-.3s0,0,0,0v-.2s0-1.1,0-1.1v-.2c0,0,0-.1,0-.1,0,0,.2,0,.2,0,0,0,0,0,0,.1v1.5ZM320.8,29.4c-.1,0-.2,0-.2-.1,0,0,0,0,0,0,0-.1,0-.2.2-.2,0,0,0,0,0,0,0,0,.1,0,.2,0,0,0,0,0,0,.2s0,.1,0,.2c0,0-.1,0-.2,0"/>
    <path class="st0" d="M322.4,31.1h.2c.2,0,.3,0,.3-.1,0,0,0,0,0,0,0,0,0-.1,0-.1,0,0-.2,0-.3-.1-.1,0-.2,0-.3,0,0,0-.1,0-.2,0-.1,0-.2-.2-.2-.3,0-.2.1-.3.4-.4,0,0,.2,0,.3,0,.2,0,.4,0,.5,0,.1,0,.2.1.2.3,0,0,0,.1,0,.2,0,0-.1,0-.2,0-.1,0-.2,0-.2-.1,0,0,0,0,0,0s0,0,0-.1h-.2c0,0-.2,0-.2,0,0,0-.1.1-.1.2s0,.2.3.2h.1c.2.1.4.2.5.2.1,0,.2.2.2.4,0,.1,0,.3-.2.3-.1,0-.3.1-.5.1s-.3,0-.5,0c-.2,0-.3-.2-.3-.3s0-.1,0-.2c0,0,.1,0,.2,0s.1,0,.2,0c0,0,0,0,0,.1s0,0,0,.1"/>
    <path class="st0" d="M324.1,29.9c0-.2,0-.3,0-.3h0c.2,0,.3,0,.3,0v-.4c0,0,.2,0,.3,0v.5h.5s0,0,0,0c0,0,0,.1,0,.1,0,0,0,0,0,0h-.5v1c0,.1,0,.2.1.2s.2,0,.2,0c0,0,0,0,0,0s0,0,0,0c0,0,0,0,0,0s0,0,0,0c-.2,0-.3.1-.5.1-.3,0-.4-.2-.4-.5v-1h-.3Z"/>
    <path class="st0" d="M326.6,31.2c0,0,0,0,0,0h-.2s0,0,0,0c0,0,0-.2,0-.2v-1.2c0,0,0-.1,0-.1,0,0,.1,0,.2,0,0,0,0,0,0,0,0,0,0,0,0,0,0,0,0,0,0,0,0,0,0,0,0,0,0,0,0,0,0,0,.2-.2.4-.3.6-.3,0,0,0,0,0,0,0,0,0,0,0,0,0,0,0,0,0,0,0,0,0,0,0,.1s0,.1,0,.2c0,0-.1,0-.2,0s-.1,0-.2,0c0,0,0,0,0-.1,0,0-.1,0-.2.1,0,0,0,0,0,.1h0v1.1Z"/>
    <path class="st0" d="M328.9,31.3c-.3,0-.5,0-.6-.2-.1-.2-.2-.4-.2-.6s0-.5.3-.6c.2-.1.4-.2.7-.2h0c.2,0,.4,0,.6.2.1.2.2.4.2.6s0,.5-.2.6c-.2.1-.4.2-.6.2M328.9,29.9c-.2,0-.4,0-.4.3,0,0,0,.2,0,.3,0,.2,0,.4.1.5,0,.1.2.2.4.2s.3,0,.3-.2c0-.1.1-.3.1-.4,0-.3,0-.5-.3-.6,0,0-.1,0-.2,0M329,29.4c0,0,0,0-.1,0,0,0,0,0,0-.1l.5-.5h0c0,0,.1,0,.2,0,0,0,0,.1,0,.2l-.6.4Z"/>
    <path class="st0" d="M333.5,16.1c-.5-.7-1.1-1.1-2-1.3-1-.2-2,.7-1.9,1.6,0,.9,1.1,1.2,1.9,1,.9-.2,1.3.2,1.5.9s.5,2.2,0,3.8c-.4,1.6-1.6,3.4-3.3,3.4-1.2,0-2.1-.6-3-2.1-.5-.9-.7-1.9-.7-3.5,0-1.9.6-3.5,1.7-4.5,1.4-1.2,3.3-1.2,3.3-1.4,0-.2-2.4-.8-4.4,1.1-2,1.9-1.9,5.4-1.9,5.4.5,5.9,3.9,5.9,5,5.9,3.3-.1,4.6-2.7,4.9-4.9,0-.5,0-1,.1-1.4,0-1.2-.3-2.1-.3-2.3-.1-.4-.5-1.2-.9-1.8"/>
    <path class="st0" d="M324,14c-.6-.4-1.4,0-1.7.5-.5.6-.7,1.4-.9,2.2,0,.2-.1.8,0,.8,0,0,.2-.5.6-.9.3-.4.9-.7,1.7-.9.8-.2,1-1.2.4-1.6"/>
    <path class="st0" d="M322.9,22.1c-.5-2.1-.8-4.4,1-6,0,0,0,0,0,0,0-.1-.3,0-.4,0-.2.1-.5.3-.7.4-.4.3-.7.6-1,1.2,0,.2-.1.4-.2.7,0,.2,0,.4,0,.6,0,.9,0,1.9.1,2.8,0,.9.2,1.8.4,2.6.1.6.3,1.4.8,1.8.4.3,1,.3,1.3,0,.4-.5,0-1.2-.2-1.6-.4-.8-.9-1.6-1.1-2.5"/>
    <path class="st0" d="M319.5,13.9h-.6c-.2,0-.4,0-.7,0-1.5,0-3,.2-4.1,1-.8.5-1.6,1.6-1.6,2.8,0,2.4,1.8,3.7,5.2,3.7-2.3,1.5-3.6,2-5.8,2.8-1.3.4-2.6.7-3.9,1-1.3.2-2.7.3-4,.1-1.9-.2-3.6-1.2-4.4-3.5-.9-2.4.3-4.9,1.8-6,1.5-1.1,3-.9,3.7-.8.8.1,1.8.5,2.4.9.6.4,1,.8,1.3,1.5.3.5.3,1.1.3,1.5,0,.7-.3,1.5-.7,2.1-.5.6-.9,1-1.6,1.1-.3,0-.6,0-.9-.2,0,0,.1-.1.2-.2.3-.3.5-.6.4-1,0-.4-.4-.6-.8-.5-.4.1-.7,1.1-.4,1.6-.3.3-.7.4-1,.4-1-.1-.6-1.3-.5-1.7.2-.5.6-1.8,1-2.9,0-.1.3-.7,0-.8-.4,0-.6.2-.8.6-.2.6-.4,1.2-.5,1.8,0,.3-.2.9-.3,1.3-.8,0-1.7.1-2.1.9-.3.7.2,1.3.9,1.2.5-.1.8-.6,1.1-1.1,0,.3,0,.6.3.8.5.5,1.3.3,1.9,0,.7.6,1.4.4,2.2,0,1-.5,1.5-1.4,1.8-2.3.4-.9.4-2,0-3-.8-2-3.4-3.1-5.5-3.1-2.2,0-4.6,1.1-5.8,3-1.1,1.9-1.2,4.3,0,6.2,1.5,2.4,2.9,2.9,5.2,3.2,2.7.4,5.5-.1,8.1-.9,2.5-.7,4.7-2.1,6.9-3.5v4.4c0,0,0,.1.1.1h1.2c0,0,.1,0,.1-.1v-12.3c0,0,0-.1-.1-.1M302.5,21.7c-.2.3-.9.9-1,.3-.1-.3.3-.7.6-.8.3-.1.6-.2.9-.2-.1.2-.2.4-.4.7M305.4,21.6s0,0,0-.1c0-.2,0-.8.2-.9.4-.1.4.4.3.5,0,.1-.2.3-.4.4,0,0,0,0,0,0M314.5,20c-1-.8-1-1.9-.8-2.5.6-2,3.6-2.2,4.5-2.2v5.5c-1,0-2.6,0-3.7-.8"/>
    <path class="st0" d="M310.8,12.6c1.9,0,3-1.7,3.5-2.9v2.8c0,0,0,.1.1.1h1c0,0,.1,0,.1-.1v-3.4s0,0,0,0c0-.3,0-.6-.2-.8-.2-.3-.8-.2-1.2-.2-.4,0-.8.1-1.2.2-.6,0-.9,0-1.4,0-.5,0-.7,0-1.2-.2-.1,0-.2,0-.2,0,0,.1,0,.3.4.4.7.2.9.2,1.6.2.4,0,1.1,0,1.5,0,.4,0,.5,0,.4.3-.4,1.1-1.4,3-3.3,2.9-2.7-.2-2.8-3.7-1.9-6.4.6-1.7,1.7-2.6,2.7-3.1.9-.4,1.8-.4,2.6,0,.8.3,1.4-.2,1.3-1.1,0-.9-1.1-1.4-2.5-1.3-.6,0-2.3.4-3.9,2.3-1.6,2-1.8,5.2-1.8,6.1,0,2.5.8,4.1,3.4,4.1"/>
    <path class="st0" d="M323.8,8.2c.8-3.3.5-4.9.4-6.5-.1-1-.5-1.6-1.2-1.6-.5,0-.9.3-.9.7,0,.5.4,1.1.7,2.2.4,1.7.5,4.7-.4,7-.4,1-1,1.8-2.1,1.8s-1.7-.8-2.1-1.8c-.9-2.2-.8-5.2-.4-7,.3-1.2.7-1.7.7-2.2,0-.4-.4-.8-.9-.7-.7,0-1.1.6-1.2,1.6-.2,1.6-.4,3.2.4,6.5.6,2.6,1.6,4.4,3.5,4.4h0s0,0,0,0c0,0,0,0,0,0h0c1.9,0,2.9-1.8,3.5-4.4"/>
    <path class="st0" d="M300.7,11.3c.5-.6,1.2-1.5,1.9-2.8.3,0,.6.1,1.1.2.4,0,1.1,0,1.5,0,.2,0,.3,0,.3,0v3.8c0,0,0,.1.1.1h1c0,0,.1,0,.1-.1V.1c0,0,0-.1-.1-.1h-1c0,0-.1,0-.1.1-.2.5-2.2,5.8-4.4,8,0,0-1.3,1.5-2.6,2.1-.9.4-1.8.5-1.9,1.2,0,.7.5,1.1,1.4,1.1.9,0,1.8-.4,2.6-1.3M305.5,1.3v6.7c-.3,0-.6.1-1,.1-.6,0-1,0-1.4,0-.1,0-.2,0-.3,0,0-.2.2-.4.3-.6.6-1.3,1.8-4.3,2.5-6.1"/>
    <path class="st0" d="M335.2,11.5c0-.7-1-.8-1.9-1.2-1.3-.6-2.6-2.1-2.6-2.1-2.2-2.2-4.2-7.6-4.4-8,0,0,0-.1-.1-.1h-1c0,0-.1,0-.1.1v12.3c0,0,0,.1.1.1h1c0,0,.1,0,.1-.1v-3.8c0,0,.2,0,.3,0,.4,0,1.1,0,1.5,0,.5,0,.8,0,1.1-.2.7,1.3,1.4,2.3,1.9,2.8.8.8,1.6,1.2,2.6,1.3.9,0,1.5-.4,1.4-1.1M328.7,8.1c-.5,0-.8,0-1.4,0-.3,0-.6,0-.9-.1V1.4c.7,1.8,1.9,4.8,2.5,6.1,0,.2.2.4.2.5,0,0-.2,0-.3,0"/>
  </g>
  <g id="XFSj1M.tif">
    <g>
      <path class="st0" d="M185.1,2.1c-.4.1-.8-.1-1.2-.3v.3c-.2,0-.3,0-.5,0-1.4.1-3,0-4.4,0-4,0-8.1,0-12.1,0-1.5,0-3-.2-4.5,0s-.2,0-.3,0v18.4s48.6.3,48.6.3v-.2c0-5.6.2-11.3,0-16.9,0-.2,0-1.3,0-1.4-.3,0-.7,0-1,0-2.7,0-5.8.3-8.5,0s-.6,0-.6-.2c-.2.2-.5.2-.8.2-2.1.2-4.5,0-6.6,0s-4.2,0-6.2,0-1.5,0-1.6,0h0c0-.3.1-.4,0-.6,0-.1.2-.1.3-.1.7,0,1.9,0,2.7,0,4.1,0,8.3,0,12.5,0h.2c0,0-.1.4-.1.4,0,0,.1-.1.2-.2.7-.4,3.5-.2,4.4-.2,1.6,0,3.1,0,4.7,0s.8-.1,1.2,0,.2.4.2.6c.3,4.2,0,8.6.2,12.8-.2,4.1.2,8.3,0,12.4,0,.2,0,.4,0,.7,0,.1-3,.1-3.4.1-12.1,0-24.3-.1-36.4-.1-3.2,0-6.8.3-10,0s-.6,0-.6-.3c-.1-5.8,0-11.5,0-17.3,0-2.7,0-5.5,0-8.2s-.3-.9.3-1c2.4,0,4.9,0,7.3.1,4.5,0,9.1,0,13.6,0,.5,0,1.4,0,1.8.1s.4.4.4.4c.1,0,0-.5.3-.5.2.2.1.5.1.7ZM211,21.5c-.2,0-.4,0-.7,0-6.2-.3-12.6.3-18.8,0-7.8,0-15.6,0-23.3-.1-1.9,0-3.8,0-5.7,0-.4.2-.2.6-.2,1,0,1.7-.2,3.3,0,5,0,.2,2.6,0,3,0,14.5,0,29.1-.1,43.7.1.4,0,1.3,0,1.7,0s.2-.2.3-.4c.1-1,0-2.6,0-3.7,0-.6,0-1.2,0-1.8Z"/>
      <path class="st0" d="M185.4,10.3c.3,0,1.2.1,1.5.2,1.5.4,1.9,2.3.8,3.4s-1.2.6-.9,1.3c.6.7,1,1.7,1.5,2.4.4.5,1,.5,1.4.8v.2c-.2.3-.5.1-.8.1s-1.4,0-1.5,0-.4-.7-.5-.9-.4-.6-.6-.8c-.3-.5-.5-1.1-.9-1.6s-1.1-.6-1.1.2,0,.4,0,.6c0,.5-.2,1.1.1,1.7.3.5.7.3,1,.5s-.2.4-.4.4c-.7,0-2,0-2.7,0s-.7-.2-.4-.4.5-.1.7-.3.4-.5.5-.9c0-.6,0-1.5,0-2.1,0-.7.1-3.3-.1-3.8s-1.3-.3-1.2-.8.8-.1,1,0c1,.1,1.4,0,2.3-.2ZM185.2,11c-.4,0-.8.3-.8.7s0,2.1,0,2.5.8.4,1.2.3,1-.6,1.2-1,.2-1.5,0-1.8-.6-.6-.7-.6c-.2,0-.7,0-.9,0Z"/>
      <path class="st0" d="M179.3,12.4h-.2c-.3-.3-1-1.2-1.3-1.3s-.5-.1-.7-.1c-.2,0-.6,0-.8,0-1,0-.8,1-.9,1.7s-.2,1.3.1,1.5,1.3,0,1.7,0c.5-.2.3-1.8.9-.9v1.4c0,.3,0,1.3-.2,1.4-.4.2-.3-1-.7-1.2s-1.5-.2-1.7,0-.2.1-.2.2c0,.8-.1,1.8,0,2.6s.1.4.3.5c.7.3,1.2.1,1.9,0s.4,0,.8-.3,1-1.2,1.2-1.2.1,0,.2,0c.3.3-.1.6-.2.9s-.1.9-.4,1.1-1.3,0-1.6,0c-1.2,0-2.4,0-3.6,0s-.9,0-1-.1,0-.1,0-.2c.3-.3.8-.2,1-.7v-6.3c0-.2,0-.4-.2-.5-.2-.2-.8-.2-.8-.5,0-.4.5-.1.8,0,1.2,0,2.9,0,4.1,0s.7-.2.9-.1c.3,0,.2.8.2,1.1s.3.6.2.9Z"/>
      <path class="st0" d="M164.6,10.4c.3,0,.5.1.8.2.9.1,1.7-.2,2.5-.2s1.3.2,1.7.3.7.4.8.6c.5.8.5,2.1,0,2.8-.8,1.1-1.6,1.3-2.9,1.4s-.3,0-.4,0c-.4,0-.2.7-.3,1,0,.4-.2,1.3.2,1.6s.7.2.9.5c0,.1,0,.2-.1.2h-3.4c-.1,0-.2-.2,0-.3,0-.2.6,0,.9-.3.6-.6.3-2.2.4-3.1s.2-1.9.1-2.8,0-.9-.4-1.2-.9,0-.9-.6c0,0,0-.1.1-.1ZM168,11c-.4,0-1,0-1.1.5s0,1-.1,1.5c.1.3,0,1.5.2,1.7s1.2.1,1.5,0c1-.5,1.3-2.3.7-3.1s-.6-.7-1.1-.7Z"/>
      <path class="st0" d="M208.6,18.8h-3.4s0-.3,0-.3c.3-.2.8-.1.8-.6s-.3-1.3-.4-1.6c-.1-.4-.2-.7-.7-.8s-1.3,0-1.6,0-.3.2-.3.3c-.2.4-.6,1.4-.6,1.8,0,.8.5.5.8.8.2.3-.2.4-.4.4-.3,0-1.9,0-2.1,0s-.1,0-.2-.1c-.2-.3.4-.4.6-.5.8-.5,1.4-2.9,1.7-3.8s.8-1.9,1.2-2.9.3-1,.4-1c.3-.2.5,0,.6.3.3.7.5,1.5.7,2.2.4,1.1.9,2.3,1.3,3.4.3.7.2,1.4,1,1.9s.9.1.7.6ZM204.1,12.8h-.1c0,.6-.7,1.6-.6,2s.2.2.3.2,1,0,1,0c.2,0,.3-.3.3-.5-.2-.3-.5-1.7-.7-1.8s-.1,0-.2,0Z"/>
      <path class="st0" d="M198.6,16.6c.2.2-.2,1.2-.3,1.4s0,.5-.1.7c-.2.3-2,0-2.4,0-1.1,0-2.2,0-3.2,0s-.6,0-.5-.3.6-.3.8-.4c.3-.2.4-.7.4-1,.1-1.8,0-3.8,0-5.6-.1-.9-1.1-.5-1.1-1s.8,0,1.1,0,1,0,1.2,0,1.1-.5,1.2,0-.9.2-1,1,0,1.8,0,2.6c0,1.1-.1,2.3,0,3.4s.5.8.9.8,1.6-.3,1.9-.6c.3-.3.9-1.6,1.3-1.2Z"/>
      <path class="st0" d="M173.9,4.4c.9,0,2.8-.3,3.5.3s.5,1.1.2,1.5-1,.2-.6,1,.9,1.2,1.2,1.4.5,0,.5.3c0,0-.1,0-.2.1-.2,0-.6,0-.8,0s-.4,0-.5-.1c-.5-.3-.9-1.4-1.3-1.8s-.6-.1-.7.1,0,1,.2,1.3.6.3.4.5-1.1,0-1.3,0-.5.1-.8,0c-.1-.2.3-.3.3-.3.3-.2.3-.4.3-.7,0-.9,0-2,0-3,0-.4-1.1-.3-.6-.7ZM176,4.7c-.4,0-.7.5-.7.8s0,.8,0,.9c.2.6,1.5,0,1.6-.6s-.2-1.2-.9-1.1Z"/>
      <path class="st0" d="M185.9,4.4c.1.1.2.5.2.7s.2.2.2.4c.3.7.8,2.7,1.3,3.1s.9.4.3.5-1.8,0-1.9,0c-.2-.3.4-.3.4-.6s-.2-.8-.4-1c-.3-.2-1.1-.2-1.4,0s-.4.6-.4.7c0,.4.6.7.3.8h-1.5c-.3-.2.5-.6.6-.7.3-.3.2-.5.3-.8s.3-.8.5-1.1c.3-.7.7-1.3.9-2,0-.1.3-.1.4,0ZM185.4,6c-.3,0-.5.7-.1.8.8.3.7-1,.1-.8Z"/>
      <path class="st0" d="M192.7,7.8c.3-.2.5.6.7.7.5.5,1.7.5,1.7-.4,0-.6-.7-.9-1.2-1.2-.7-.5-1.3-.8-1.1-1.7s.6-.8.9-.9,1.4-.2,1.7,0,.5,1.5,0,1-.3-.7-.9-.8-.8.2-.8.4c-.2,1,1.3,1.3,1.8,1.7.8.7.4,2.1-.5,2.4s-1.8,0-2.1-.4-.2-.9,0-1Z"/>
      <path class="st0" d="M167.4,4.9c0,.2-.1.4-.1.5,0,.7,0,2.2,0,2.8s0,.3.2.4.5.2.5.3c0,0-.1,0-.2,0-.4,0-.9,0-1.3,0s-.4.2-.5,0c.3-.3.6-.3.6-.7v-3.2c-.2-.4-.9-.3-1.2-.1s-.4.4-.7.6c-.2,0-.3-.2-.2-.3.2-.2.2-.8.4-.9s.8,0,1.2.1c.6,0,1.8,0,2.4,0s1-.4,1.1,0,0,.7,0,.8,0,.2,0,.2c-.2,0-.3-.3-.5-.5-.4-.4-1-.3-1.5-.2Z"/>
      <path class="st0" d="M208.3,7.9c0,0,.3,0,.4.2s0,.2,0,.3-1.3,0-1.4,0c-.5-.1.3-.4.3-.5v-.6c-.1,0-.8,0-.8,0-.1,0-.5.6-.5.7s.4.2.3.4-1.2.1-1.3,0c-.3-.3.3-.4.4-.5.6-.5,1.2-1.9,1.7-2.6.1-.2.4-.2.5,0l.6,2.6ZM207.2,6.8v-.5c0,0-.4.5-.4.5h.4Z"/>
      <path class="st0" d="M203,5.2c.2.3-.5.4-.5.6,0,.4-.5,1.9-.4,2.1s.7,0,.8,0c.3-.1.5-.7.9-.6.3,0-.3.9-.4,1h-2.6s0-.3,0-.3c0,0,.3,0,.4-.1.2-.1.4-1.9.5-2.2h0c-.3-.2-.5-.4-.2-.6.3.2,1.4,0,1.5,0Z"/>
      <path class="st0" d="M198.4,24.3l.3-.8h.6c0,.2-.2.3-.2.4s0,.6,0,.7,0,.2.1.3c0,.3-.5,0-.6.2h-.1c0-.3.3-.5.1-.8-.2,0-.3.5-.4.7-.4,0-.3-.5-.6-.6-.1.3,0,.4,0,.6-.2,0-.4,0-.6,0,.1-.4.3-.8.3-1.2s-.3-.3-.1-.5c.1,0,.4,0,.5,0s.3,1,.5.8Z"/>
      <path class="st0" d="M203.8,23.4c.3,0,.4.4.4.7s-.2.2-.2.4.5.4.4.7c-.2,0-.4,0-.5,0s-.3-.5-.4-.5,0,.1,0,.2c0,.1.3.2.2.3s-.3,0-.4,0-.4.2-.4,0,.1-.2.2-.2c0-.2.1-.8,0-1s-.3-.4,0-.4.7,0,.9,0ZM203.6,23.7h-.3s0,.5,0,.5c.3,0,.4-.2.3-.5Z"/>
      <path class="st0" d="M189.3,23.5c.2.2.5.8.7.7.1-.3,0-.5-.1-.8.2,0,.5-.1.7,0-.3.5-.2,1-.3,1.5-.2.1-.7-.4-.8-.6s-.2-.4-.3-.4c-.3.4.1.7,0,1h-.6c-.1-.2.1-.3.2-.5,0-.3,0-.9-.2-1.2.2-.2.5-.1.7,0Z"/>
      <path class="st0" d="M170.9,23.4h1s.4.2.4.2c.4.3.3,1,0,1.3s-1.5.4-1.5,0c.3-.3.3-.8.2-1.2s-.3-.3,0-.4ZM171.5,24.9c.4.2.9-.4.6-.9s-.4-.3-.5-.3c-.4,0-.2,1.2-.1,1.3Z"/>
      <path class="st0" d="M173.9,23.4c1.5-.3,1.5,2,0,1.8s-.9-1.6,0-1.8ZM174.1,23.7c-.7,0-.7,1.3,0,1.3s.7-1.3,0-1.3Z"/>
      <path class="st0" d="M167.6,24.4c0-.3,0-.5,0-.8s.5-.2.6,0c-.4.4-.2.9-.3,1.5,0,0-.1,0-.2,0-.2-.1-.7-.9-.9-.9-.2.3,0,.7,0,1h-.6c.1-.4.3-.6.3-1.1s-.2-.5-.1-.6c.7-.2.7.7,1.3.9Z"/>
      <path class="st0" d="M207,23.5c0,0,.1.5,0,.5s-.3-.5-.5-.2c0,.3,0,.6,0,.9s.3.5,0,.5-.4,0-.7,0c-.1-.2.1-.2.1-.5,0-.4.2-1.5-.5-.8-.2-.1,0-.5.1-.5s1.3,0,1.4,0Z"/>
      <path class="st0" d="M187.8,25.1c-.4,0-.9.1-.6-.4-.4-.4-.4,0-.4.4-.1,0-.6.1-.6,0,.4-.5.5-1.1.8-1.6h.2c.2,0,.3.8.4,1s.3.4.3.6Z"/>
      <path class="st0" d="M201,25.1s.2-.5-.2-.6,0,.5-.2.6c-.1,0-.5,0-.5,0s.5-1,.5-1.2l.3-.4c.3,0,.6,1.4.9,1.5,0,.3-.5,0-.7.1Z"/>
      <path class="st0" d="M209,23.5c0,0,.4,1,.5,1.2s.3.2.2.5h-.7c0,0,0-.5,0-.5-.4-.2-.4,0-.4.3s-.6.2-.5,0c.1-.2.2-.4.3-.6s.3-1.1.6-.9Z"/>
      <path class="st0" d="M194.9,25.1v-.4c-.3-.4-.5,0-.4.4-.2,0-.4.1-.5-.1l.8-1.5c.2,0,.6,1.4.8,1.5,0,.2-.6.2-.7.1Z"/>
      <path class="st0" d="M163.9,23.5c.1,0,.6,0,.6,0-.2.3-.3,1,0,1.3.5.4.7-.5.6-.9s-.5-.5,0-.5.2.2.2.4c-.2.5.3,1.4-.7,1.4s-.5-.9-.6-1.4-.3-.3,0-.4Z"/>
      <path class="st0" d="M184.6,23.6c0,0-.2,0-.3,0,0,.6.9.5.6,1.3s-.8.3-1,.2-.2-.4,0-.5c.2,0,.2.4.6.3s-.5-.6-.6-.8c-.2-.5.4-.9.9-.6s.2.4,0,.5-.2-.1-.2-.2Z"/>
      <path class="st0" d="M176.9,23.9c0,0-.5-.4-.6,0s.8.3.7,1-.7.5-1.1.4v-.5c.2,0,.4.3.5.3l.2-.2c-.2-.4-.7-.3-.7-.9s1.1-.7,1,0Z"/>
      <path class="st0" d="M191.5,23.3c.1,0,1,0,1.1,0s.3.2.4.4c0,.4-.4,0-.5-.1-.2,0-.1.9,0,1.1s.1.1.2.2c0,.3-.5,0-.6.2h-.1c0-.3.1-.3.2-.5s0-.9-.1-.9l-.4.2c-.1,0-.2-.5,0-.6Z"/>
      <path class="st0" d="M169.7,25.2h-.7c0-.3.2-.3.2-.6s0-.7,0-.7c0-.1-.4-.4,0-.5s.6,0,.7,0-.2.2-.2.4c0,.4,0,.8.1,1.3Z"/>
      <path class="st0" d="M182,24.7h-.1s0,.2,0,.2c-.7.1-.3-.3-.2-.6s0-.3,0-.4c0-.2.6-.2.7,0,.2.3,0,.4,0,.6s.3.4,0,.5l-.2-.2Z"/>
      <path class="st0" d="M180.5,23.8c.7,0,.5,1.4-.3,1.1s-.3-1.1.3-1.1ZM180.4,24c-.2.1-.4.5-.1.7.3-.1.4-.4.3-.6h-.2Z"/>
      <path class="st0" d="M178.7,23.7c.2,0,.5.1.6.3.2.5-.4.4-.5.5.1.4-.2.5-.4.3,0-.2.2-.4.2-.7s-.1-.3.1-.4Z"/>
    </g>
  </g>
</svg>