<?xml version="1.0" encoding="UTF-8"?>
<svg id="Layer_1" xmlns="http://www.w3.org/2000/svg" version="1.1" viewBox="0 0 336 35.8">
  <!-- Generator: Adobe Illustrator 30.2.1, SVG Export Plug-In . SVG Version: 2.1.1 Build 1)  -->
  <defs>
    <style>
      .st0 {
        fill: #231f20;
      }

      .st1 {
        fill: #fafafa;
      }
    </style>
  </defs>
  <rect class="st1" x="-26.9" y="-629" width="390" height="844"/>
  <g>
    <g>
      <path class="st0" d="M234.424,20.789c-.037.056-.136.034-.197.034-.705.007-1.456.025-2.158,0-.069-.003-.144.035-.124-.067.823.014,1.653.019,2.479.034Z"/>
      <path class="st0" d="M228.376,12.849c.082.047.354.242.432.303.15.117.333.406.537.425.101.009.172-.036.249-.035.189.003.3.263.449.354.052.032.546.172.465.254-.148.008-.257.108-.412.103-.164-.005-.423-.197-.569-.104-.034.022-.037.083-.084.097-.122.038-.737-.061-.854-.132-.031-.019-.174-.23-.185-.265-.039-.123.007-.242-.036-.37-.058-.173-.356-.373-.409-.627-.012-.06-.035-.154.053-.151.062.003.302.113.364.148Z"/>
      <rect class="st0" x="213.768" y="18.801" width=".107" height=".067"/>
      <path class="st0" d="M234.424,20.789c4.008.074,8.021.24,12.015.439,2.331.116,4.587.232,6.899.504.049.006.114.024.053.067l-49.969.034v5.51s-.05.051-.054.051h-4.634c-.169-.277-.056-.629-.052-.925.019-1.468-.009-2.936-.038-4.399h-9.502c-.012,0-.055-.045-.09-.034v-3.319c2.462-3.59,4.942-7.229,7.368-10.84.163-.118.373-.62.515-.704.07-.041.238-.06.324-.067,1.909-.138,4.002.107,5.93,0,.052-.016.232.048.232.086v10.413s.05.051.054.051h1.006c.021,0,.047-.045.048-.077.002-.096-.108-.338-.134-.449-.656-2.744.024-5.531,2.032-7.625.222-.231.539-.449.751-.676.04-.043.045-.119.059-.129.059-.045.329-.136.435-.241.076-.075.076-.095.194-.169.752-.47,1.526-.862,2.387-1.124,4.561-1.388,9.47.943,11.052,5.124.039.072-.07.168-.129.21-.756.527-1.81.727-2.661,1.135-.592.284-1.332.911-1.999.483-.641-2.055-3.002-3.338-5.126-2.186-1.606.871-2.064,2.678-2.043,4.294,0,.07.04.139.036.199-.008.133-.253.251-.353.345-.177.165-.349.387-.543.534-.29.218-.664.237-.995.381-.456.199-.882.621-1.329.876-.921.525-1.971.885-2.893,1.364-.041.021-.09.042-.101.091.103.009.197-.017.294-.044.801-.225,1.949-.681,2.707-.998.712-.298,1.285-.772,2.014-.975.1-.028.24-.019.344-.048.409-.111.88-.705,1.242-.967,1.053-.763,2.259-.712,3.418-1.368.515-.291,1.698-1.185,2.25-1.194.327-.005.827.309,1.159.394.955.245,1.792-.516,2.584-.856.951-.408,1.743-.507,2.629-1.139.414-.296,1.023-.936,1.517-1.104.296-.1.649-.117.956-.216.867-.28,1.666-1.15,2.547-1.587.101-.05.486-.242.568-.244.065-.001.227.093.287.136.805.575,1.439,1.214,2.33,1.691.601.322,1.185.65,1.716,1.086l.822.427c.048.066-.424.28-.492.294-.253.049-.648-.092-.87-.213-.184-.101-.293-.253-.443-.362-.362-.261-.512-.376-.836-.663-.525-.464-1.22-.802-1.798-1.295-.224-.192-.406-.442-.673-.587-.112.003-.583.568-.687.67-.411.401-.537.519-1.05.786-.045.023-.107.145-.156.172-.159.085-.439.187-.638.285-.338.167-1.011.448-1.299.662-.129.096-.194.232-.328.332-.199.149-1.243.697-1.468.746-.244.053-.549.048-.788.137-.291.107-.675.466-.911.561-.07.028-.148.011-.197.035-.027.013-.118.155-.161.169-.092.032-.183.012-.278.042-.15.047-.471.239-.623.326-.057.033-.154.049-.133.127.139-.027.33-.077.459-.125.044-.016.1-.052.194-.087.328-.12.65-.257.985-.362.118-.021.172.143.256.165.136.034.756-.392.961-.468.207-.078.342-.068.525-.114.528-.134,1.04-.326,1.538-.546.083-.037.133-.046.111-.147l-.846.2-.159.002c.169-.213.466-.29.691-.438s1.02-.833,1.203-.868c.109-.021.214.012.324-.033.133-.053.297-.425.458-.411.053.005.086.058.137.058.342,0,.686-.562.864-.535l.598.912c-.173.065-.653-.279-.754-.22-.212.125-.142.799-.064,1.005.069.182.353.444.508.585.074.068.206.109.264.157.125.106.23.3.387.428.123.101.28.149.378.268-.201-.003-.425.019-.618-.044-.322-.104-.757-.493-1.069-.581-.186-.052-.353.046-.504.137l.179.05c-.005.029.009.082-.002.099-.018.027-.586.148-.645.205-.059.058.011.057.054.066.093.021.5.04.521.068.015.02-.003.07-.038.082-.507.183-.992.411-1.506.575-.421.135-.836.262-1.258.404-.179.06-.425.093-.592.152-.056.02-.103.029-.09.101.367-.055.766-.074,1.128-.137.059-.01.099-.058.15-.065.139-.02.316.198.438.268.465.265,1.231.511,1.769.692.427.144.639.199,1.078.269.119.019.928.396.969.355.028-.028.007-.08-.045-.11-.117-.069-.339-.119-.482-.187-.379-.18-.756-.341-1.123-.531-.187-.097-.399-.283-.588-.358-.34-.135-.877-.139-1.255-.238-.316-.082-.34-.176-.016-.266.714-.198,1.564-.493,2.304-.535.405-.023.834.019,1.241.002.059.048-.225.187-.263.208-.161.084-.384.196-.563.197v.1c.334.09.66.202.99.302.34.102.677.174,1.011.333.281.133.538.343.791.478.276.146.574.265.855.405.066-.153-.256-.216-.386-.303-.306-.203-.626-.487-.949-.669-.029-.016-.76-.312-.497-.343.176-.01.365.015.539,0,.095-.008.168-.054.254-.065.159-.019,1.443.229,1.651.299.376.125.728.436,1.111.575.205.075.457.084.626.154.225.093.565.417.824.549.109.056.278.151.401.122l-.323-.421c.085-.059.765.175.887.229.218.096.454.288.674.379.249.103.803.236,1.083.298.11.024.223.044.337.037-.369-.297-.975-.377-1.361-.627-.119-.077-.182-.201-.268-.271-.259-.212-1.461-.883-1.769-.922-.103-.013-.21.056-.32.068-.486.05-1.066-.305-1.498-.509-.452-.213-.465-.14-.936-.207-.371-.053-.758-.181-1.11-.273-.329-.085-.532.084-.839.111-.188.017-.437-.029-.609.002-.103.018-.196.146-.343.099.045-.126.207-.093.296-.136.428-.209.818-.567,1.337-.606.234-.017.523.033.747-.007.581-.102,1.815-.947,2.334-1.307.644-.446,1.352-1.125,2.027-1.475.559-.29.56-.01.937.263.438.317.79.41,1.253.635.268.13.546.34.806.457.145.064.35.096.497.174.15.08.261.251.389.352.468.37,1.077.853,1.613,1.106.459.217.971.18,1.462.246.59.079,1.4.613,1.924.925.54.322,1.174.826,1.743,1.06.281.115.6.155.889.245.805.249,1.717.852,2.476,1.25.261.137.952.407,1.129.558.043.037.199.525.267.474l.108-.101.072.303c.113-.014.202-.29.217-.302.134-.106.136.23.157.304.027.091.112.159.092.267.092.095.191-.363.207-.395.017-.036.033-.086.08-.042.022.02.14.454.184.545.065.135.186.274.264.399.027.042.008.103.027.127.007.008.197.08.206.074.06-.04.084-.223.092-.234.019-.025.079-.022.09-.059.006-.019.004-.338.107-.245.016.015.031.164.048.208.056.15.088.23.16.339.03.046-.033.172.129.152.077-.009.117-.099.202-.093.048.059.024.293.036.303.03.027.246-.082.216.202-.018.015-.415-.027-.482-.036-.51-.067-1.107-.222-1.586-.269-.078-.008-.19.1-.391.067-.257-.042-.303-.171-.453-.248-.059-.03-.167-.025-.205-.06-.048-.045-.107-.397-.223-.296-.004.003.009.056-.013.088-.01.014-.044.018-.056.04-.032.056-.015.143-.076.191-.02.016-.198.08-.226.077-.189-.014-.156-.133-.213-.236-.061-.11-.129-.219-.189-.33-.019-.036-.021-.175-.123-.099-.069.052-.105.554-.374.466-.089-.029-.041-.13-.069-.189-.005-.01-.053-.01-.072-.05-.029-.059-.094-.399-.205-.296-.016.015.026.119-.018.135-.083-.055-.14-.383-.216-.405-.154-.045-.144.28-.166.302-.014.013-.086-.007-.099.005-.026.024.019.152-.009.195-.036.055-.54.064-.57-.08.258-.129-.082-.18-.105-.276-.016-.065.055-.1.056-.128,0-.01-.059-.174-.066-.181-.019-.018-.086.014-.102-.026-.035-.089-.047-.458-.161-.518-.082-.043-.084.183-.103.224-.011.024-.13.124-.13.133-.001.043.047.098.037.16-.004.025-.07.023-.085.064-.019.051.024.149.012.16-.011.01-.097-.01-.108,0-.017.016.132.317-.18.27l.072.134c-.211.006-.221.088-.341-.101-.034.068-.028.081-.124.066-.049-.14-.07-.304-.199-.403-.134.085-.106.222-.172.344-.029.053-.088.06-.09.065-.008.021.043.069.013.129-.087.173-.226-.081-.271-.033.032.114-.093.276-.199.169-.026-.026-.233-.639-.341-.451-.116.202-.01.416-.395.281l.071-.202c-.278.08-.124-.102-.147-.13-.012-.014-.071-.015-.087-.036-.016-.023.028-.095-.007-.162-.03-.059-.118-.072-.122-.098-.004-.035.038-.085.03-.125-.008-.045-.177-.179-.136-.29-.053-.046-.203.235-.209.26-.012.057.049.15.029.176-.009.011-.128.021-.141.038-.04.053.141.297-.182.267-.044.133.111.087.108.202-.183.046-.193.042-.31-.081-.024-.026-.003-.116-.109-.114-.095.001-.162.2-.301.113-.078-.049.011-.144.004-.2-.002-.012-.135-.028-.038-.189-.268.082-.22-.212-.252-.236-.095-.073-.128.1-.167.161-.022.034-.076.043-.078.047-.021.047.023.077.025.113,0,.012-.042.015-.064.044-.014.019.003.065-.004.072-.023.022-.165-.045-.214-.033.134.273-.507.338-.467.186.011-.04.159-.062.143-.135l-.323-.102c-.021-.097.34-.114-.036-.27l.108-.184-.287-.102c-.007-.114.151-.067.108-.202-.162.026-.085-.048-.118-.141-.017-.049-.133-.326-.152-.331-.116-.035-.145.184-.183.267-.042.092-.161.091-.014.239h-.144c-.022.065.085.1.072.151-.012.049-.172.045-.21.142-.058.149.101.091.101.212l-.215.051c-.037.074.229.103.215.134-.051.108-.284.089-.395.118-.021.11.143.089.179.152.028.049-.149.112-.168.114-.097.008-.156-.209-.194-.272-.014-.023-.046-.027-.055-.041-.015-.021-.025-.16-.12-.088-.024.018-.028.281-.043.298-.077.087-.426.071-.317-.062.006-.007.168.032.107-.084-.048-.093-.517-.032-.179-.236-.191-.07.029-.121,0-.168-.032-.053-.185-.062-.233-.152-.071-.131.016-.084.064-.101.099-.035-.053-.091-.092-.142-.067-.089-.064-.183-.097-.24-.021-.035-.063-.034-.09-.023-.018.007-.139.296-.146.336-.011.061.028.113.022.147-.007.039-.175.116-.181.125-.009.014.106.105.071.168l-.179-.033c-.062.104.169.155.143.218-.068.102-.172.091-.287.085-.047.164.156.067.216.202-.088-.004-.181.074-.251.086-.097.018-.141-.044-.204-.045-.048-.001-.218.118-.295.057-.012-.009-.049-.215-.079-.279-.024-.052-.152-.298-.211-.256-.016.012-.118.293-.216.32.221.083-.054.097-.071.119-.024.03.052.151.036.167-.088.012-.219.047-.301.002-.048-.027-.012-.104-.028-.149-.006-.016-.165-.222-.186-.265-.034-.071.011-.209-.114-.162-.062.023-.087.4-.269.304.093.24-.033.072-.108.115-.1.057.007.253-.227.183-.12-.036-.006-.182-.024-.197h-.144c.074-.299-.016-.159-.065-.206-.013-.012-.088-.31-.116-.332-.1-.078-.106.069-.123.099-.077.139-.056.191-.093.279-.012.029-.114.097-.133.186-.01.049.036.103.011.142-.021.033-.239.161-.293.168-.278.034-.26-.187-.392-.202-.095-.011-.033.109-.126.153-.066.031-.193.022-.267.013-.203-.025-.1-.081-.129-.209-.006-.028-.06-.026-.071-.047-.04-.079-.07-.166-.109-.246-.053.031-.193.26-.24.269-.208.04-.212-.132-.249-.137-.091-.014-.253.108-.372.036.012-.088.099-.136.072-.235-.326.026-.174-.024-.217-.212-.004-.016-.158-.16-.17-.182-.023-.044-.096-.329-.118-.345-.122-.092-.129.149-.16.199-.071.113-.172-.007-.068.204-.065.057-.149.07-.235.067.02.05.043.108.107.101.017.057-.051.019-.068.037-.02.022.055.088,0,.15-.104.118-.261,0-.341.012-.036.005-.02.089-.113.106-.048.009-.364-.089-.378-.103-.022-.022.051-.155.036-.168-.012-.01-.097.01-.108,0-.014-.013.026-.091.022-.119-.003-.02-.177-.303-.198-.345-.026-.053-.034-.118-.039-.176-.181-.016-.097.225-.109.235-.009.008-.077-.013-.099.007-.019.017.005.075-.028.098-.093.063-.202-.044-.159.199-.106-.121-.275-.078-.373-.139-.152-.094.024-.107.042-.138.106-.176-.162-.097-.207-.213-.027-.068.093-.056.127-.117.11-.198-.172-.226-.199-.287-.021-.078.091-.023.071-.1-.031-.048-.169-.131-.176-.173-.008-.044.097-.107.067-.145-.006-.007-.069,0-.099-.058-.043-.081-.056-.254-.115-.348l-.22.35c-.245.138.009.104.001.2-.011.141-.233.097-.214.242.012.095.147.055.11.168-.037.081-.202.039-.215.051-.006.006-.005.158.004.166.018.018.15-.039.105.086-.005.014-.071.016-.07.031.002.023.054.101.033.12-.01.01-.236.025-.287.068-.01.055.095.039.108.084.021.076-.18.155-.251.151l.036-.134c-.227.028-.111-.048-.144-.179-.007-.027-.153-.214-.178-.251-.026-.04-.028-.227-.142-.141-.01.008-.091.195-.103.225-.033.088.054.171-.115.144.038.069.052.147.001.213-.027.035-.092-.001-.073.073.008.032.08.008.073.033-.078.258-.136.175-.314.245-.086.034-.212.263-.295.21-.022-.014-.168-.373-.217-.448-.06-.09-.184.087-.21.14-.042.086-.071.182-.11.267-.037.08.012.188-.136.203-.201.019-.194-.206-.262-.347-.043-.089-.095-.168-.145-.252-.043-.008-.056.052-.072.082-.06.118-.106.208-.16.321-.157.325-.293-.302-.415-.402-.108-.059-.133.266-.284.219-.178-.056-.11-.115-.112-.199,0-.01-.124-.119-.139-.149-.031-.063-.033-.224-.112-.31-.156.049-.112.219-.163.303-.013.021-.068.027-.076.044-.027.056-.107.346-.124.357-.03.018-.219.002-.282.038.057-.191-.063-.19-.11-.259-.041-.059-.009-.211-.168-.157-.092.032-.054.13-.085.187-.015.029-.054.031-.065.053-.032.065-.039.194-.092.244-.074.07-.201.007-.263.04-.013.007-.039.081-.076.112-.166.14-.27.026-.47.049-.052-.084.205-.215.053-.269-.068-.024-.097.129-.144.167-.187.15-.08-.058-.088-.066-.011-.01-.133-.008-.216-.118-.047-.063-.13-.309-.144-.32-.103-.083-.201.168-.234.201-.043.043-.092.043-.135.069-.025.016-.027.059-.031.061-.017.006-.339-.035-.354-.044-.16-.091-.055-.374-.071-.388-.012-.011-.159.028-.219-.047-.032-.04-.096-.322-.141-.357-.032-.025-.175.148-.178.159-.012.054.016.138-.006.173-.011.018-.129.025-.158.071-.016.026.029.087.019.1-.047.066-.571.048-.61-.098l.215-.085c-.073-.081-.179-.092-.287-.085-.049-.04.301-.331-.072-.303-.041-.086.171-.094.108-.168-.017-.019-.326-.03-.199-.204.026-.035.107-.014.091-.066-.03-.003-.079.01-.101-.006-.021-.015-.171-.408-.205-.467-.071-.001-.143.486-.305.473.249.218-.078.199-.106.29-.021.069.096.134.07.214h-.144s.072.135.072.135l-.108.068.071.017-.179.101.179.085c-.027.16-.372.077-.395.1-.028.028.071.18-.108.135.092-.158-.026-.066-.089-.134-.022-.023-.205-.49-.252-.472-.099.059-.084.159-.126.246-.008.017-.055.018-.069.05-.06.137.033.349-.218.311-.03.089.099.089.107.102.063.093-.173.102-.214.119-.059.024-.101.122-.216.081-.036-.11.012-.273-.145-.235.03-.086.063-.168-.071-.168-.062.162-.163.461-.408.406-.072-.016-.05-.229-.06-.238-.026-.025-.256.057-.319-.004-.052-.079.138-.466-.067-.354-.009.005-.014.053-.027.056-.133.034-.082-.086-.129-.176-.013-.025-.055-.026-.074-.073-.032-.077-.003-.264-.134-.186-.014.009-.094.235-.119.277-.027.047-.088.051-.095.062-.019.031.078.297-.096.364-.055.01-.082-.038-.09-.084-.014-.085.082-.02.072-.084-.061,0-.296.062-.323.034-.026-.027.071-.176-.108-.135.104-.193-.087-.195-.102-.256-.009-.034.051-.127.03-.148-.007-.007-.097.005-.129-.033-.023-.028.018-.095.006-.138-.033-.112-.137-.205-.128-.335-.174.003-.153.237-.199.303-.018.026-.075.026-.085.039-.017.022.035.079.028.11-.009.042-.102.04-.107.074-.011.077.128.177-.105.181.012.089.088.104.036.202-.155-.048-.269-.013-.422-.008l-.188-.21c.054-.106.367-.049.323-.253l-.467-.102c.019-.08.152-.054.177-.121.044-.119-.117-.171-.104-.229.017-.076.178-.059.143-.155-.113.041-.437-.082-.322-.201.007-.007.188.022.104-.099-.029-.042-.33-.027-.07-.222-.227-.115-.163-.426-.341-.59-.053.118-.085.261-.135.379-.021.049-.083.08-.094.117-.03.107.108.174-.051.254-.061.03-.215.012-.117.129.031.037.166.012.127.082-.041.074-.263.067-.287.136-.044.126.133.108.142.119.096.104-.179.127-.207.174-.099.171.139.096.207.212,0,.097-.8.134-.107.337-.002.115-.179.083-.252.084-.033.125.125.014.108.118-.022.139-.188.193-.298.085-.039-.039-.038-.153-.115-.136-.102.023-.066.352-.233.337.002-.069-.081-.103-.097-.157-.015-.047.027-.142-.018-.225-.028-.051-.089-.052-.096-.063-.015-.024.03-.073.02-.105-.007-.026-.123-.281-.137-.289-.124-.073-.091.059-.113.104-.089.182-.04.177-.077.298-.036.119-.199.336-.236.43-.013.032.009.098-.001.109-.011.012-.203-.007-.251,0l.072-.134c-.213.024-.112-.026-.154-.142-.022-.06-.153-.416-.172-.43-.116-.088-.111.106-.136.155-.043.084-.12.172-.142.274-.011.05.04.133.029.142-.013.011-.103-.022-.11.018-.009.05.023.14-.003.179-.014.022-.114.05-.157.007-.043-.044-.138-.406-.184-.503-.019-.04-.092-.219-.157-.173-.014.01-.111.258-.127.302-.019.049-.005.105-.019.145-.01.03-.071.024-.071.044,0,.032.051.088.035.111-.034.047-.242.034-.07.206-.286.02-.122-.025-.16-.1-.017-.033-.077-.055-.094-.084-.044-.076-.081-.126-.12-.188-.027-.042-.026-.191-.111-.167-.072.021-.163.339-.201.385-.048.06-.123.044-.135.058-.023.025.011.116-.023.164-.026.037-.112.046-.127.033-.022-.02.042-.13.036-.134-.009-.007-.09.011-.126-.033-.058-.072-.152-.571-.287-.54-.081.019-.258.628-.289.741-.079.146-.328.031-.433.037-.057.004-.1.073-.14.065-.057-.011-.109-.23-.136-.278-.086-.153-.138.034-.192.108-.081.111-.042.087-.083.154-.117.193-.31.303-.553.251-.029-.006-.029-.053-.051-.066-.131-.074-.127.022-.213.062-.337.156-.768.148-1.139.108l-.347.132c.687-.017,1.38-.006,2.067-.032,8.351-.317,16.7-.276,25.055-.136-.02.102.055.065.124.067.701.026,1.452.008,2.158,0,.061,0,.16.022.197-.034ZM235.014,12.385c-.058-.05-.059-.144-.179-.056-.047.034-.155.236-.208.294-.185.201-.356.404-.539.607-.165.183-.456.318-.49.585.058.051.405-.157.487-.17.061-.009.042.053.079.066.048.018.112.006.164.034.037.02.431.526.508.61.072.077.187.141.263.223.047.052.316.368.33.4.052.117-.265-.04-.294-.054-.131-.064-.3-.137-.433-.207-.092-.048-.487-.44-.565-.362-.062.062.079.114.092.165.019.071.003.152.025.214.09.249.355.76.568.916.475.349,2.111,1.043,2.713,1.196.515.13,1.081.205,1.588.364.186.058,1.386.598,1.444.549.045-.038-.056-.091-.083-.107-.16-.101-.457-.214-.644-.307-.556-.278-1.09-.46-1.64-.718-.364-.171-.818-.53-1.124-.789-.116-.098-.573-.496-.604-.589.144-.04.273.123.407.191.135.068.318.095.411.194l.834.238c.057-.042-.675-.615-.718-.657-.034-.033-.267-.279-.126-.253.051.009.375.168.456.206.733.348,1.491.825,2.249,1.173.807.37,1.447.07,2.227.33.664.221,1.107.831,1.653.977,1.095.293,2.159.632,3.221,1.022.204.075.419.143.63.201.019-.068-.098-.12-.147-.147-.123-.069-.295-.094-.389-.141-.405-.201-.824-.505-1.236-.694-.515-.236-1.195-.334-1.673-.554-.71-.327-1.521-1.003-2.239-1.397-.284-.156-.953-.123-1.334-.171-.724-.092-1.963-.999-2.537-1.461-.096-.077-.145-.183-.238-.248-.184-.128-.595-.188-.803-.342-.066.079.311.329.108.404-.058-.126-.251-.208-.367-.304-.136-.113-.479-.517-.63-.532-.064-.006-.119.031-.171.027-.121-.01-.353-.338-.448-.423-.19-.171-.403-.333-.597-.501ZM198.645,17.656l-.054-5.324-.273.479c-.96,1.441-1.987,2.933-2.907,4.417-.094.151-.216.219-.215.428h3.449ZM233.777,14.016c-.21.076-.477.081-.678.155-.25.093-.654.41-.918.554-.155.084-.418.238-.57.308-.162.075-.425.092-.528.229.223-.042.528-.002.734-.035.262-.043.794-.248,1.007-.403.16-.117.224-.268.346-.383.14-.133.366-.211.523-.318.045-.03.1-.035.083-.107ZM216.845,15.478c-.331-.155-.825-.411-1.163-.51-.104-.031-.149-.056-.265-.027-.031.008-.413.364-.463.418-.169.183-.184.373-.461.468-.452.156-.353.164-.707.381-.169.103-.432.2-.618.297-.055.029-.175.065-.155.141.15-.01.317-.074.458-.125.069-.025.153-.056.232-.086.161-.061.404-.219.558-.252.216-.046.392.019.644-.07.358-.126.519-.622.846-.605.291.015,1.08.504,1.392.65.45.211,1.132.518,1.635.524.378.005.752-.128,1.141-.028.289.074.607.419.869.499.1.03.224.047.327.035.081-.01.057-.082.111-.099.381-.123.862.291,1.167.446.13.066.756.336.858.256l-.107-.134c.597-.036,1.152.215,1.708.368.36.099.731.18,1.093.271.005-.004-.036-.086-.063-.101-.144-.077-.502-.169-.675-.234-.152-.057-.308-.099-.447-.154-.31-.123-.865-.454-1.142-.513-.264-.056-.543.034-.841-.054-.361-.106-.669-.481-1.006-.573-.244-.066-.546.014-.792-.032-.25-.047-.54-.344-.787-.441-.315-.123-.783.064-1.128.08-.82.037-1.538-.475-2.222-.796Z"/>
      <path class="st0" d="M196.458,24.761c.02.033.151.018.176.188.055.371-.183.534-.558.527-.062-.001-.409-.088-.441-.112-.021-.016-.111-.269-.11-.313.003-.17.206-.286.21-.304.025-.104-.063-.077-.104-.136-.178-.255.036-.528.335-.555.259-.024.508-.022.621.23.127.286-.195.369-.129.475ZM196.268,24.266c-.027-.016-.218-.013-.263-.005-.241.044-.196.441.179.369.175-.034.181-.307.084-.364ZM196.296,24.881c-.538-.246-.628.395-.184.392.238-.002.383-.3.184-.392Z"/>
      <path class="st0" d="M197.921,24.13c-.044.35-.21.136-.373.127-.16-.009-.368.174-.379.323-.009.126.145-.006.201-.014.893-.133.803,1.046-.022.893-.513-.095-.609-.728-.387-1.109.191-.327.626-.393.96-.22ZM197.593,24.776c-.194-.076-.483.069-.406.295.102.298.654.208.517-.182-.003-.007-.103-.11-.111-.113Z"/>
      <path class="st0" d="M195.14,24.211c.175.187.221.59.162.834-.006.024-.054.025-.067.05-.023.044-.022.094-.058.141-.209.269-.619.294-.91.132.056-.311.111-.159.266-.132.317.054.513-.103.483-.403-.06-.006-.114.096-.133.1-.336.067-.708-.089-.691-.452.022-.455.657-.582.948-.27ZM195.018,24.506c0-.14-.121-.253-.27-.253s-.27.113-.27.253.121.253.27.253.27-.113.27-.253Z"/>
      <path class="st0" d="M190.598,24.058v.202h-.665c-.082,0-.049.303-.054.371h.611v.202h-.557c-.08,0-.08.404,0,.404h.701c.009.048.001.202-.054.202h-.934c-.039,0-.051-.082-.056-.116-.05-.4.088-.856.038-1.265h.97Z"/>
      <path class="st0" d="M191.635,24.627c-.092.076-.408-.182-.534.022-.01.042.04.08.075.099.1.055.246.072.347.111.284.111.226.486-.079.583-.406.129-.841-.188-.533-.267.085-.022.514.24.514-.021,0-.162-.495-.101-.592-.355-.126-.332.311-.484.607-.435.032.005.21.084.221.098.018.024-.018.159-.025.165Z"/>
      <path class="st0" d="M192.286,24.362c.032.031.297-.072.325.085.045.247-.287.115-.325.151-.022.02-.004.53.018.573.05.096.209.065.306.067.022.183.01.235-.199.237-.627.005-.329-.539-.41-.855-.014-.056-.171-.035-.183-.074-.049-.168.15-.133.177-.205.065-.174-.128-.237.257-.234.071.048.017.239.035.256Z"/>
      <path class="st0" d="M193.903,24.058v1.382c-.058.003-.287.014-.287-.051v-1.028c-.119.02-.183.132-.323.101-.071-.281.366-.436.611-.404Z"/>
      <path class="st0" d="M192.758,25.175c.077-.116.451-.004.3.231-.121.189-.424-.046-.3-.231Z"/>
      <path class="st0" d="M217.349,24.946c0,1.156-.999,2.092-2.231,2.092s-2.231-.937-2.231-2.092.999-2.092,2.231-2.092,2.231.937,2.231,2.092ZM215.874,24.072c-.483-.407-1.269-.33-1.654.157-.377.477-.255,1.422.326,1.711,1.346.669,2.262-1.081,1.328-1.868Z"/>
      <path class="st0" d="M234.316,26.855c-.017-.006-.058.013-.074-.022-.099-.13-.664-1.123-.735-1.123h-.593v1.163s-.05.051-.054.051h-1.006c-.013,0-.058-.034-.084-.039l-.008-.044v-3.777s.024-.053.024-.053c.057-.021.115-.027.175-.031.63-.042,2.136-.061,2.674.191.869.406.979,1.601.237,2.169-.077.058-.275.131-.269.184.015.127.678.984.807,1.168.027.038.013.089.019.098.011.1-.066.066-.123.068-.329.013-.662-.012-.99-.001ZM233.688,23.822c-.241-.026-.526.019-.772,0v1.078c.49-.021,1.337.143,1.332-.522-.003-.338-.214-.519-.56-.556Z"/>
      <path class="st0" d="M220.831,23.742c-.005.01-.042.015-.055.039-.025.048-.077.271-.134.279-.186-.024-.327-.152-.501-.201-.158-.044-.562-.118-.717-.106-.246.019-.59.16-.464.439.088.195.87.311,1.101.382.786.244,1.375.762,1.007,1.596-.436.99-2.109.934-2.985.562-.1-.042-.437-.197-.403-.3.033-.098.139-.294.194-.395.261-.483.234-.268.665-.104.216.083.779.239.993.21.099-.013.41-.107.451-.191.235-.482-.523-.526-.833-.626-.531-.171-1.233-.376-1.317-.988-.194-1.405,1.535-1.609,2.617-1.275.071.022.504.189.524.216.059.081-.093.363-.142.461Z"/>
      <rect class="st0" x="221.743" y="22.98" width="1.114" height="3.943"/>
      <path class="st0" d="M223.683,26.889l-.036-3.875h3.197v.809h-2.084v.708h1.832v.809h-1.832v.708c.677.023,1.373-.031,2.048,0v.809h-3.053v-.944c-.063-.008-.034.076-.036.118-.013.283.038.588-.036.86Z"/>
      <path class="st0" d="M211.236,23.013c1.195.14,1.704,1.571.789,2.291-.075.059-.306.162-.306.219,0,.168.851,1.115.936,1.366h-1.239l-.772-1.213h-.593s-.054.047-.054.051v1.163h-1.114v-3.875h2.353ZM210.805,23.822c-.252-.027-.55.02-.808,0v1.078h.808c.012,0,.216-.042.235-.049.202-.07.331-.312.325-.508-.01-.298-.262-.49-.56-.522Z"/>
      <path class="st0" d="M227.599,26.889l-.036-3.875h2.353c.033,0,.378.111.433.133,1.014.41,1.066,1.94.018,2.328l-.002.048.935,1.366h-1.257c-.199-.429-.53-.792-.762-1.206-.106-.058-.513.029-.639.027-.006,0-.007-.028-.018-.034-.054-.03.004,1.097-.018,1.179-.039.036-.881-.053-1.006.034ZM229.485,23.822c-.222-.027-.553,0-.79,0-.004,0-.054.047-.054.051v.994c.271.061,1.095.072,1.259-.159.252-.356.043-.83-.415-.886Z"/>
      <path class="st0" d="M235.61,26.855l1.619-3.839,1.185.014c.622,1.267,1.128,2.584,1.723,3.859h-1.185l-.284-.72c-.051-.062-1.455-.008-1.657-.004-.091.071-.268.707-.323.725-.335-.089-.737.004-1.078-.034ZM237.334,25.372h1.006l-.485-1.281c-.075-.015-.05.028-.07.068-.03.059-.057.131-.083.193-.051.12-.408.982-.368,1.02Z"/>
      <path class="st0" d="M206.943,23.013c.585-.016,1.298.433,1.399.996.164.912-.362,1.62-1.348,1.731-.294.033-.773-.056-1.021.036-.018.007-.065-.02-.073.021l.002,1.057h-.97v-3.808c.63-.005,1.26.006,1.89.002.065,0,.115-.036.121-.036ZM205.973,24.934h.844c.039,0,.284-.153.322-.203.196-.265.153-.696-.176-.844-.032-.015-.197-.065-.218-.065h-.772v1.112Z"/>
      <path class="st0" d="M205.937,26.889l.036-.067c-.003.033.011.056-.036.067Z"/>
      <path class="st0" d="M231.335,27.95c.022-.068.223-.067.287-.033.079.041.271.509.342.624.021.034-.002.085.071.067.046-.011.275-.609.36-.674.075-.058.305-.046.305.016v1.163h-.251v-.741c-.085-.019-.102.103-.133.162-.068.129-.12.403-.283.409-.203.008-.247-.284-.326-.432-.029-.053-.038-.125-.12-.105v.691c0,.069-.251.069-.251,0v-1.146Z"/>
      <path class="st0" d="M212.583,27.95c.02-.061.229-.07.28-.043.085.046.424.68.582.767v-.725c0-.071.287-.071.287,0v1.163c0,.008-.14.037-.163.036-.226-.007-.5-.649-.699-.777v.741c0,.021-.238.041-.287,0v-1.163Z"/>
      <path class="st0" d="M226.88,27.9c.068.011.19-.021.244.007.042.023.472.649.543.752.019.027-.02.069.075.049v-.809c.077.004.217-.029.246.055.026.074.022.955.007,1.075-.005.036.001.078-.035.101-.245.159-.544-.452-.65-.6l-.179-.16v.741c0,.013-.251.066-.251-.017v-1.196Z"/>
      <path class="st0" d="M207.949,27.984c.048-.161.801-.083.925.025.09.077.137.297.114.411-.028.14-.212.202-.214.27-.002.071.273.408.252.422l-.318-.005c-.112-.203-.177-.477-.472-.399-.021.284.123.501-.287.405v-1.129ZM208.659,28.465c.034-.032.051-.132.048-.178-.017-.233-.292-.186-.47-.185v.405c.106-.009.348.028.423-.042Z"/>
      <path class="st0" d="M218.456,27.9c.014.002.236.083.259.094.306.144.374.624.203.881-.025.038-.289.239-.319.239h-.736v-1.163s.05-.051.054-.051c.153,0,.403-.022.539,0ZM218.115,28.186c-.037.212.027.503,0,.725.18,0,.531.042.588-.172.035-.131.059-.418-.047-.52-.105-.1-.51-.207-.54-.032Z"/>
      <path class="st0" d="M221.761,27.9c.016.003.278.107.303.12.269.147.295.588.18.831-.021.044-.279.262-.339.262h-.736v-1.163s.05-.051.054-.051c.149,0,.41-.023.539,0ZM221.42,28.152c-.053.161.039.567,0,.758.432.078.765-.16.599-.579-.083-.209-.554-.315-.599-.179Z"/>
      <path class="st0" d="M209.942,27.9c.092.016.33.138.361.234.084.256-.009.426-.235.558.144.124.201.298.323.421-.092-.011-.245.027-.323-.017-.159-.09-.16-.502-.503-.388v.405s-.251,0-.251,0v-1.163s.05-.051.054-.051c.159,0,.437-.024.575,0ZM209.565,28.506c.12-.013.284.028.395-.018.17-.071.145-.35-.054-.386-.411-.073-.347.097-.341.404Z"/>
      <path class="st0" d="M235.017,27.9c.015.003.252.092.276.104.175.084.179.456.046.57-.068.058-.147-.011-.124.116.007.038.179.317.215.366.024.032.084.006.072.057-.082-.014-.254.026-.315-.007-.014-.008-.162-.219-.184-.255-.022-.036-.024-.124-.043-.138-.036-.025-.218.008-.283-.004v.405s-.251,0-.251,0v-1.163s.05-.051.054-.051c.148,0,.411-.023.539,0ZM234.675,28.506c.688.113.689-.518,0-.405v.405Z"/>
      <path class="st0" d="M226.156,27.905c.068.039.394,1.069.509,1.207-.079-.01-.225.025-.289-.015-.063-.039-.047-.211-.092-.222-.04-.01-.524-.006-.547.008-.076.045-.052.335-.365.23l.47-1.159c.03-.071.272-.072.314-.048ZM226.054,28.203h-.107c.036.183-.134.297-.108.472h.324c.031-.172-.115-.303-.108-.472Z"/>
      <path class="st0" d="M207.661,28.102h-.593c-.075,0-.054.247-.054.303h.521c.055,0,.063.154.054.202h-.521c-.075,0-.054.247-.054.303h.629c.052,0,.072.185.054.202-.021.02-.501-.004-.594-.001-.064.002-.34.081-.34-.015v-1.196h.844c.055,0,.063.154.054.202Z"/>
      <path class="st0" d="M217.173,27.941l.475,1.171c-.079-.01-.225.025-.289-.015-.063-.039-.047-.211-.092-.222-.066-.017-.534-.007-.571.035-.04.045-.04.184-.058.198-.018.014-.314.067-.278-.041l.504-1.162c.032-.026.274-.003.31.036ZM217.181,28.675c.02-.019-.121-.458-.215-.472l-.144.472h.359Z"/>
      <path class="st0" d="M211.793,29.113c-.056-.009-.267.016-.286-.002-.014-.013-.008-.223-.06-.236-.038-.01-.493-.005-.53.007-.091.029-.075.208-.1.227-.012.009-.27.056-.283-.013l.509-1.19c.102-.013.238-.032.298.063.036.156.509,1.088.451,1.144ZM211.361,28.675c.02-.018-.095-.296-.116-.345-.02-.046-.044-.152-.099-.16.033.088-.201.487-.18.505h.395Z"/>
      <path class="st0" d="M238.016,29.112c-.326.105-.316-.202-.364-.231-.045-.028-.553-.023-.6.051-.104.162.061.215-.329.18l.508-1.207c.102-.014.238-.032.298.063l.486,1.144ZM237.549,28.675l-.009-.109-.206-.362-.144.471h.359Z"/>
      <path class="st0" d="M230.032,27.91c.006.002.056.072.078.083,0,.188.464.997.433,1.099-.026.083-.24.048-.277.013-.038-.036-.034-.216-.046-.226-.021-.019-.551-.013-.587-.004-.046.012-.029.183-.092.222-.059.037-.181.008-.253.015l.499-1.191c.051-.042.183-.03.246-.011ZM230.113,28.675c.013-.012-.09-.284-.106-.321-.019-.041-.057-.142-.109-.15l-.18.471h.395Z"/>
      <path class="st0" d="M214.954,27.9v.202h-.557c-.075,0-.054.247-.054.303.138.029.562-.087.541.118-.018.173-.435.029-.543.099-.064.041-.024.215-.034.289h.629c.05,0,.115.148.09.202h-.97c-.008-.267.037-.526.038-.794,0-.147-.078-.27-.002-.42h.862Z"/>
      <path class="st0" d="M233.7,27.905l.508,1.207c-.403.052-.239-.06-.355-.216-.02-.028-.498-.035-.556-.016-.075.024-.065.339-.382.231l.486-1.144c.06-.095.197-.077.298-.063ZM233.598,28.203c-.047-.054-.064.015-.08.043-.026.045-.153.412-.135.429h.359c-.034-.066-.125-.45-.144-.472Z"/>
      <path class="st0" d="M219.906,27.905l.508,1.207c-.403.052-.24-.06-.355-.216-.021-.028-.496-.035-.556-.015-.089.028-.068.337-.382.231l.486-1.144c.06-.095.197-.077.298-.063ZM219.803,28.203c-.007-.006-.078.004-.107,0,.036.183-.134.297-.108.472h.359c-.035-.064-.125-.455-.144-.472Z"/>
      <path class="st0" d="M223.467,27.9v.202h-.611c-.016,0-.052.26-.036.303h.575v.202h-.521c-.075,0-.054.247-.054.303h.629c.052,0,.072.185.054.202-.023.022-.565-.004-.666-.002-.051.001-.232.062-.232-.015v-1.196h.862Z"/>
      <path class="st0" d="M205.752,28.005c.027.041.008.141-.054.161-.114.036-.164-.046-.248-.062-.219-.042-.437.116-.23.249.14.09.403.051.554.222.242.276-.085.575-.43.574-.181,0-.291-.041-.427-.126-.033-.021-.09-.009-.093-.012-.047-.048.114-.221.196-.202.017.004.016.058.063.078.363.154.778-.07.249-.269-.251-.094-.464-.052-.441-.4.018-.278.371-.361.624-.311.024.005.23.087.237.098Z"/>
      <path class="st0" d="M225.19,28.003c.034.047-.035.146-.096.162-.096.024-.16-.047-.245-.061-.155-.025-.379.027-.278.201.093.16.629.057.659.455.04.526-.918.424-.938.202-.005-.051.033-.101.038-.151.045-.029.366.202.584.094.32-.159-.343-.306-.415-.338-.368-.163-.239-.608.137-.664.104-.015.502.031.553.101Z"/>
      <path class="st0" d="M215.378,27.907c.036.019.248.57.283.661.044.115.034.381.153.156.096-.181.211-.683.308-.789.055-.06.158-.03.233-.034.058.053-.398,1.063-.454,1.215-.085-.012-.269.029-.319-.035l-.41-1.064-.002-.115c.06.008.16-.019.208.007Z"/>
      <path class="st0" d="M229.287,27.9v.202s-.359,0-.359,0v1.011c0,.014-.287.07-.287-.017v-.994c-.068-.011-.416.015-.431,0-.018-.018.002-.202.054-.202h1.024Z"/>
      <path class="st0" d="M236.669,27.9c.058.017.071.185.054.202-.016.016-.431-.043-.431.084v.927h-.251v-.96c0-.077-.323-.046-.395-.05v-.202c.199,0,.895-.038,1.024,0Z"/>
      <path class="st0" d="M206.117,27.9c.058-.003.287-.014.287.051v1.146c0,.071-.287.071-.287,0v-1.196Z"/>
    </g>
    <g id="XFSj1M.tif">
      <g>
        <path class="st0" d="M295.927,5.154c-.448.125-.829-.109-1.187-.354v.329c-.166.037-.334.077-.504.09-1.484.117-3.044-.055-4.524-.065-4.154-.026-8.3-.003-12.449-.054-1.497-.018-3.086-.186-4.585-.064-.109.009-.218.009-.311.076l.042,18.893,49.859.315.101-.197c-.1-5.768.151-11.569-.065-17.326-.009-.235.056-1.359-.053-1.435-.347.004-.703-.089-1.046-.089-2.784,0-5.942.271-8.695.065-.204-.015-.58-.04-.652-.24-.228.154-.559.219-.832.24-2.133.168-4.631-.048-6.787-.064-2.133-.016-4.26-.005-6.374-.056-.295-.007-1.51.052-1.661-.054l-.041-.095c.037-.211.105-.35-.04-.537.066-.145.174-.139.31-.152.744-.072,1.941.044,2.745.061,4.251.086,8.529.057,12.801.059l.206.094-.119.266c.098-.046.151-.139.255-.191.736-.368,3.58-.165,4.535-.164,1.606.003,3.223.038,4.828,0,.375-.009.869-.134,1.248-.063.183.034.197.441.211.623.313,4.323-.021,8.823.239,13.158-.194,4.165.248,8.549,0,12.688-.014.23-.066.457-.088.686-.1.148-3.086.121-3.52.118-12.432-.089-24.898-.121-37.331-.124-3.287,0-6.991.297-10.241.065-.222-.016-.566-.017-.621-.272-.136-5.903-.031-11.831-.058-17.744-.013-2.781.008-5.609-.06-8.395-.008-.331-.271-.974.262-1.043,2.505-.089,5.015.097,7.503.125,4.617.052,9.334-.1,13.937.055.524.018,1.405.029,1.889.136.361.08.374.399.431.401.154.006-.094-.503.3-.466.179.178.153.47.143.701ZM322.425,24.985c-.233.026-.452-.051-.682-.063-6.339-.326-12.935.302-19.291-.06-7.98.038-15.98-.086-23.935-.119-1.965-.008-3.93.01-5.895.004-.425.166-.21.653-.207.978.015,1.694-.168,3.4.007,5.083.099.154,2.648.006,3.059.008,14.925.065,29.908-.143,44.828.124.435.008,1.353.068,1.728-.004.187-.036.251-.216.271-.384.121-1.052.033-2.625.061-3.75.015-.6-.064-1.241.057-1.818Z"/>
        <path class="st0" d="M296.153,13.567c.331-.049,1.213.152,1.564.253,1.54.442,1.906,2.327.857,3.477-.368.404-1.252.665-.881,1.31.615.709.988,1.788,1.546,2.503.377.483.99.535,1.487.836v.181c-.245.309-.54.121-.834.116s-1.397.061-1.555-.053c-.151-.109-.398-.706-.524-.905-.168-.264-.452-.59-.586-.843-.286-.544-.507-1.17-.891-1.669-.454-.589-1.111-.661-1.174.236-.018.254.063.428.058.647-.014.562-.209,1.158.148,1.693.319.479.759.296.979.509.276.267-.181.374-.386.391-.719.059-2.09.067-2.803,0-.222-.021-.743-.178-.381-.386.201-.115.514-.119.766-.305.281-.208.445-.55.48-.89.063-.619.05-1.49.063-2.14.016-.76.115-3.34-.104-3.891-.204-.512-1.381-.346-1.263-.804.099-.385.79-.125,1.037-.101,1.068.103,1.408-.017,2.395-.164ZM296.037,14.224c-.363.037-.776.273-.823.667-.055.467-.063,2.107.016,2.547.105.589.839.459,1.263.338.415-.118,1.032-.605,1.194-1.009.15-.373.154-1.494-.062-1.843-.062-.101-.578-.6-.679-.631-.163-.05-.725-.088-.909-.069Z"/>
        <path class="st0" d="M289.971,15.689l-.174.04c-.282-.343-.985-1.286-1.383-1.416-.13-.043-.533-.104-.672-.107-.208-.005-.607.005-.816.016-1.019.054-.853,1.058-.876,1.745-.011.326-.169,1.307.153,1.51.309.195,1.345-.067,1.754-.02.519-.172.286-1.822.932-.89l-.097,1.428c.016.269.154,1.353-.064,1.487-.393.242-.337-1.033-.731-1.239-.255-.134-1.499-.162-1.755-.06-.059.024-.198.138-.223.194.018.841-.13,1.89-.032,2.71.025.212.106.379.298.476.703.356,1.236.144,1.937.029.478-.078.404.071.834-.297.238-.203,1.07-1.18,1.216-1.226.068-.021.132-.041.203-.021.309.316-.135.616-.246.932-.105.3-.132.972-.373,1.175-.197.166-1.309.085-1.638.089-1.211.014-2.478.04-3.69.003-.232-.007-.96.065-1.073-.118-.064-.103.01-.119.06-.182.27-.339.842-.194,1.058-.669l.099-6.439c-.022-.195-.132-.371-.295-.479-.235-.156-.85-.173-.827-.481.093-.373.562-.103.858-.086,1.249.074,2.982.073,4.232,0,.269-.016.719-.178.938-.111.315.097.19.828.225,1.085.041.295.28.567.167.921Z"/>
        <path class="st0" d="M274.896,13.624c.318-.095.543.135.82.168.884.106,1.778-.235,2.564-.182.434.029,1.368.166,1.747.336.259.116.678.418.831.658.49.77.557,2.149.008,2.906-.782,1.079-1.647,1.352-2.952,1.395-.133.004-.26-.069-.411-.059-.46.032-.252.722-.262.988-.017.425-.196,1.354.176,1.665.239.199.701.233.923.506.084.113-.063.177-.148.213l-3.456-.003c-.118-.074-.157-.201-.091-.328.087-.172.608-.072.897-.355.601-.586.354-2.299.382-3.13.03-.906.179-1.963.124-2.858-.023-.37-.082-.969-.421-1.186-.276-.176-.974-.021-.881-.585.02-.069.082-.129.151-.15ZM278.355,14.224c-.433.01-1.014.038-1.106.564-.083.472-.045,1.047-.134,1.532.143.354.019,1.532.211,1.757.19.222,1.218.135,1.498.013,1.076-.467,1.378-2.31.704-3.167-.318-.405-.643-.71-1.173-.698Z"/>
        <path class="st0" d="M319.969,22.231l-3.473.02-.057-.305c.27-.208.795-.152.862-.568.053-.334-.268-1.316-.397-1.679-.149-.42-.189-.711-.706-.783-.367-.051-1.303-.07-1.649.007-.156.035-.275.172-.352.303-.212.362-.625,1.456-.644,1.86-.035.781.563.532.779.827.241.329-.214.374-.449.394-.35.03-1.902.044-2.15-.058-.069-.028-.134-.057-.177-.122-.179-.352.413-.392.647-.547.806-.532,1.424-2.989,1.795-3.92.392-.981.866-1.971,1.25-2.977.07-.182.289-1.025.368-1.076.32-.205.531.015.645.303.268.68.462,1.567.702,2.275.399,1.175.893,2.336,1.321,3.501.28.762.214,1.481.999,1.978.318.201.945.12.684.566ZM315.38,16.059l-.113.129c-.057.472-.698,1.547-.57,1.967.03.099.173.186.269.207.079.018.984.074,1.044.062.246-.049.325-.32.27-.541-.18-.283-.495-1.697-.7-1.803-.065-.033-.13-.042-.2-.022Z"/>
        <path class="st0" d="M309.73,19.938c.173.167-.249,1.203-.317,1.47-.055.216-.006.541-.141.737-.209.303-2.035.093-2.478.097-1.108.009-2.223.07-3.331.067-.175,0-.604-.095-.554-.323.056-.257.615-.26.823-.365.335-.169.394-.669.418-1.011.129-1.847-.096-3.849-.01-5.712-.111-.908-1.092-.479-1.176-1.033-.075-.496.868-.091,1.095-.075.243.017,1.02.023,1.25,0,.297-.029,1.145-.466,1.272-.018.153.541-.947.238-1.059,1.065-.102.75.002,1.878-.003,2.676-.006,1.108-.112,2.401-.005,3.513.045.469.463.799.926.8.499,0,1.62-.286,1.965-.654.263-.28.886-1.659,1.325-1.236Z"/>
        <path class="st0" d="M284.422,7.492c.935.095,2.909-.308,3.619.345.418.384.542,1.084.177,1.545-.338.427-.988.255-.574,1.055.182.352.879,1.215,1.204,1.415.219.135.518.02.564.271-.067.066-.15.102-.243.115-.172.025-.602.068-.77.068-.158,0-.384-.063-.526-.134-.53-.262-.932-1.47-1.348-1.867-.209-.2-.602-.137-.689.147-.11.358-.027.98.212,1.283.115.146.613.354.418.479-.108.069-1.117.024-1.344.025-.254.001-.508.14-.773-.056-.134-.171.276-.258.35-.308.27-.18.312-.361.338-.674.082-.97-.064-2.054-.003-3.037-.037-.359-1.131-.287-.611-.674ZM286.507,7.79c-.363.036-.724.521-.743.865-.009.158.046.81.1.942.243.601,1.525-.011,1.607-.665s-.247-1.214-.964-1.143Z"/>
        <path class="st0" d="M296.749,7.436c.142.137.156.529.223.699.055.141.179.256.239.416.259.695.802,2.787,1.344,3.181.104.076.972.438.326.513-.231.027-1.876.016-1.93-.07-.171-.272.384-.286.406-.621.014-.209-.212-.846-.384-.98-.266-.207-1.164-.169-1.431.059-.117.1-.373.576-.406.73-.093.42.578.679.32.851h-1.551c-.268-.166.532-.592.626-.687.29-.295.227-.519.359-.832.164-.388.325-.784.495-1.173.304-.695.697-1.347.96-2.061.089-.116.305-.123.405-.026ZM296.211,9.098c-.273.08-.476.761-.121.871.859.264.68-1.035.121-.871Z"/>
        <path class="st0" d="M303.734,10.998c.282-.19.542.568.677.712.513.55,1.73.51,1.762-.451.021-.643-.767-.879-1.201-1.181-.673-.467-1.344-.827-1.18-1.791.05-.292.614-.807.889-.897.349-.115,1.453-.161,1.759.029.383.239.498,1.506-.004,1.016-.27-.264-.276-.746-.895-.773-.248-.011-.783.184-.846.455-.231.99,1.301,1.333,1.828,1.778.814.688.424,2.186-.55,2.477-.459.137-1.87.075-2.15-.372-.109-.174-.25-.894-.088-1.002Z"/>
        <path class="st0" d="M277.784,7.969c-.075.173-.119.361-.134.55-.054.671-.079,2.214.007,2.855.017.125.087.331.171.424.105.116.509.211.478.354-.055.086-.116.083-.205.093-.431.047-.935-.01-1.375-.006-.223.002-.399.169-.562-.087.268-.283.583-.261.648-.72l-.022-3.302c-.138-.446-.925-.266-1.242-.105-.312.158-.401.443-.678.637-.162.043-.303-.155-.244-.304.2-.2.197-.807.38-.935.212-.148.869.094,1.183.117.644.046,1.813.061,2.443-.003.27-.027,1.027-.379,1.15.042.014.047.081.759.076.823-.008.088-.013.156-.095.208-.177.055-.336-.349-.476-.476-.414-.373-1.01-.357-1.505-.166Z"/>
        <path class="st0" d="M319.702,11.037c.066.07.315.096.373.192.061.099.05.251-.07.29-.101.033-1.354.03-1.467-.003-.513-.15.296-.453.31-.501l-.108-.643-.751-.035c-.127.015-.497.623-.492.686.008.087.423.223.278.44-.061.091-1.219.107-1.334.006-.303-.264.273-.369.441-.513.614-.526,1.198-1.983,1.764-2.642.114-.188.419-.168.49.041l.565,2.681ZM318.615,9.921l-.089-.536-.328.535h.417Z"/>
        <path class="st0" d="M314.263,8.259c.201.295-.467.378-.515.575-.02.401-.515,1.899-.427,2.18.06.192.694.063.83.01.341-.133.476-.668.912-.57.257.066-.264.926-.377,1.045l-2.683.004-.048-.324c.028-.043.342-.068.429-.122.206-.127.461-1.915.563-2.252l-.043-.105c-.323-.053-.546-.343-.157-.501.257.174,1.413-.093,1.517.06Z"/>
        <path class="st0" d="M309.505,27.842l.358-.805.596.032c-.052.134-.178.225-.182.384-.003.138.053.606.078.761.025.157.098.238.132.346.1.323-.483.054-.654.177l-.148-.092c.057-.249.298-.388.148-.684-.185.004-.3.563-.393.707-.448.1-.273-.509-.588-.647-.139.266.038.399.057.653-.207.08-.386.081-.592,0,.112-.399.304-.792.289-1.222-.007-.184-.283-.309-.113-.475.15-.045.383-.066.512.027.127.091.313.979.501.838Z"/>
        <path class="st0" d="M315.072,26.949c.28.049.438.402.376.672-.035.154-.199.217-.17.426.033.235.513.376.419.688-.169-.014-.378.04-.535-.03-.151-.068-.331-.561-.447-.563-.053-.001-.102.116-.08.197.033.123.279.18.202.338-.079.161-.269.048-.419.053-.121.004-.452.161-.449-.084.001-.094.129-.159.165-.253.082-.211.116-.778.074-.996-.012-.06-.334-.447-.088-.447.269,0,.714-.042.953,0ZM314.918,27.253l-.265.05-.026.42c.337.035.432-.185.291-.47Z"/>
        <path class="st0" d="M300.196,27.03c.191.161.473.779.765.753.115-.323-.015-.558-.148-.833.222-.057.513-.15.688.058-.302.491-.205,1.043-.327,1.583-.199.143-.706-.445-.838-.6-.079-.093-.182-.417-.326-.387-.3.37.112.708.089,1.071l-.589-.005c-.127-.214.131-.3.169-.504.062-.328.047-.93-.175-1.187.188-.179.505-.109.693.05Z"/>
        <path class="st0" d="M281.373,27.008h1.012c.035,0,.388.171.443.212.404.302.359,1.046-.026,1.336-.261.197-1.521.411-1.575.082.272-.302.295-.791.232-1.181-.034-.209-.284-.307-.086-.45ZM281.947,28.488c.391.243.929-.462.64-.967-.057-.1-.392-.335-.501-.333-.364.007-.216,1.253-.139,1.3Z"/>
        <path class="st0" d="M284.364,26.963c1.539-.323,1.577,2.078-.01,1.828-.896-.141-.955-1.626.01-1.828ZM284.649,27.216c-.725-.025-.725,1.344-.061,1.344.676,0,.7-1.322.061-1.344Z"/>
        <path class="st0" d="M277.89,27.961c.048-.307-.023-.505-.092-.772-.075-.289.545-.204.568-.09-.434.461-.246.954-.326,1.519-.063.087-.125.069-.21.028-.218-.103-.764-.929-.923-.922-.25.33-.004.684.089,1.01h-.654c.132-.384.353-.646.345-1.102-.004-.185-.247-.505-.109-.597.7-.205.763.743,1.311.924Z"/>
        <path class="st0" d="M318.363,27.023c.091.091.121.492-.017.521-.124.026-.272-.463-.508-.199.035.295-.04.656.006.94.022.133.349.503.033.507-.198.002-.438-.093-.689.002-.115-.216.118-.251.146-.466-.077-.46.158-1.495-.534-.785-.182-.141-.08-.466.104-.55.167-.077,1.348-.083,1.46.03Z"/>
        <path class="st0" d="M298.67,28.675c-.424-.017-.917.143-.663-.434-.361-.418-.456-.005-.417.367-.12.077-.616.128-.647-.023.397-.477.516-1.087.832-1.61h.18c.173.093.357.82.447,1.044.093.229.286.411.267.656Z"/>
        <path class="st0" d="M312.244,28.735c-.041-.043.167-.547-.218-.582-.446-.04-.07.496-.206.576-.131.007-.484.057-.527-.089-.031-.106.525-1.019.54-1.237l.262-.394c.267-.066.614,1.431.913,1.589-.076.337-.506.062-.766.138Z"/>
        <path class="st0" d="M320.394,27.076c.069.043.377,1.039.471,1.225.091.18.31.244.25.494l-.715-.059-.008-.468c-.426-.155-.458-.036-.422.336.032.328-.59.218-.557.009.108-.208.248-.396.343-.612.089-.203.302-1.136.637-.926Z"/>
        <path class="st0" d="M305.94,28.668l.039-.373c-.36-.39-.592-.051-.468.376-.217.051-.459.152-.53-.143l.803-1.579c.255-.06.584,1.431.858,1.586.042.243-.579.222-.702.133Z"/>
        <path class="st0" d="M274.179,27.018c.108-.034.591-.041.616.081-.195.308-.316,1.068-.005,1.313.521.41.731-.519.647-.885-.053-.23-.489-.5.041-.523.607-.026.208.252.162.403-.162.535.257,1.445-.758,1.392-.916-.048-.489-.912-.635-1.392-.026-.086-.336-.306-.068-.389Z"/>
        <path class="st0" d="M295.377,27.206c-.086-.062-.173-.089-.28-.078.018.595.946.506.61,1.295-.128.301-.791.358-1.028.224-.123-.07-.182-.459-.028-.507.227-.071.235.454.624.268.412-.198-.517-.634-.624-.864-.221-.479.427-.905.881-.642.157.091.239.413.07.464-.173.053-.171-.121-.225-.159Z"/>
        <path class="st0" d="M287.476,27.425c-.08.087-.509-.384-.595-.087-.109.379.862.286.702.998-.118.523-.69.512-1.123.433l-.055-.51c.23-.078.423.299.565.299l.21-.21c-.201-.436-.75-.29-.722-.894.028-.609,1.109-.736,1.018-.029Z"/>
        <path class="st0" d="M302.462,26.901c.141-.041,1.003-.035,1.175-.008.224.035.329.201.366.411.071.408-.392-.08-.551-.108-.248-.023-.127.891-.063,1.078.031.091.135.138.155.204.1.341-.47.09-.622.194l-.142-.09c-.024-.173.146-.264.174-.414.031-.165.067-.926-.145-.922l-.417.24c-.127-.025-.167-.514.07-.584Z"/>
        <path class="st0" d="M280.093,28.794l-.714-.06c-.075-.248.203-.278.22-.514.005-.061-.013-.69-.021-.726-.035-.143-.363-.395-.1-.478.115-.036.638-.043.675.081.039.131-.156.22-.182.412-.059.445.061.862.122,1.283Z"/>
        <path class="st0" d="M292.714,28.319h-.118s.06.178.06.178c-.686.135-.305-.273-.253-.579.033-.193-.02-.289-.021-.43,0-.206.58-.156.717,0,.233.264-.063.379-.088.568-.03.22.291.384-.077.492l-.22-.228Z"/>
        <path class="st0" d="M291.147,27.324c.718-.038.466,1.412-.355,1.161-.402-.123-.269-1.128.355-1.161ZM291.087,27.612c-.21.147-.378.511-.129.703.259-.105.385-.386.301-.653l-.172-.05Z"/>
        <path class="st0" d="M289.305,27.316c.169-.049.55.105.601.27.16.514-.405.412-.501.552.114.385-.158.478-.441.268.083-.219.188-.437.227-.67.025-.152-.128-.349.114-.419Z"/>
      </g>
    </g>
    <g>
      <path class="st0" d="M149.316,25.551v-.381h1.185v2.64c.053,1.865-2.036,1.995-3.352,1.444-.074-.031-.268-.082-.233-.17l.335-.69.031-.031c.193.072.374.17.574.224.317.086.794.133,1.093-.022.317-.164.39-.494.388-.827-.416.455-.966.595-1.557.402-1.254-.408-1.308-2.415-.117-2.928.576-.248,1.234-.131,1.654.338ZM149.318,26.662c0-.37-.3-.67-.671-.67s-.671.3-.671.67.3.67.671.67.671-.3.671-.67Z"/>
      <polygon class="st0" points="105.666 25.21 105.666 25.852 107.734 25.852 107.734 26.816 105.666 26.816 105.666 27.498 107.995 27.498 107.995 28.522 104.462 28.522 104.462 24.186 107.955 24.186 107.955 25.19 105.666 25.21"/>
      <path class="st0" d="M131.507,23.986v4.536h-1.185v-.422l-.211.2c-.549.474-1.386.353-1.856-.171-.717-.798-.575-2.504.496-2.935.565-.227,1.166-.092,1.571.357v-1.566h1.185ZM129.514,26.098c-.726.105-.73,1.428.075,1.5.991.089,1.013-1.657-.075-1.5Z"/>
      <path class="st0" d="M158.391,23.986v4.536h-1.185v-.422c-.339.377-.731.566-1.249.476-1.092-.19-1.445-1.459-1.155-2.407.329-1.076,1.617-1.484,2.404-.618v-1.566h1.185ZM156.398,26.098c-.711.12-.715,1.424.076,1.5,1.012.098,1.015-1.684-.076-1.5Z"/>
      <path class="st0" d="M125.624,28.522h-1.185v-1.937c0-.035-.054-.188-.076-.225-.187-.319-.706-.27-.837.075-.013.035-.05.162-.05.19v1.897h-1.185v-3.352h1.185v.442c.368-.41.757-.614,1.322-.489.452.1.826.552.826,1.021v2.379Z"/>
      <path class="st0" d="M160.535,25.096c2.547-.228,2.749,3.347.335,3.506-2.46.162-2.708-3.294-.335-3.506ZM160.635,26.099c-.89.096-.765,1.57.155,1.5s.817-1.605-.155-1.5Z"/>
      <path class="st0" d="M154.235,28.522h-1.165v-.321l-.308.224c-.863.461-1.999-.017-1.795-1.112.136-.731.923-.864,1.551-.818.187.014.367.081.552.1.007-.818-1.094-.569-1.587-.39l-.232-.835c.292-.125.609-.207.925-.24,1.013-.104,1.984.113,2.059,1.294v2.098ZM153.068,27.139c-.306-.104-.929-.144-.977.295-.061.557.848.529.965.041.027-.11.011-.224.012-.336Z"/>
      <path class="st0" d="M144.196,27.177c.155.564.774.677,1.231.378.081-.053.142-.128.225-.178.085.053.659.507.651.55-.008.044-.239.253-.29.293-.941.743-2.553.393-2.891-.823-.301-1.083.327-2.241,1.505-2.309,1.1-.063,1.761.653,1.819,1.716.003.054.013.372-.031.372h-2.219ZM145.32,26.555c-.061-.792-1.053-.773-1.144,0h1.144Z"/>
      <path class="st0" d="M133.133,27.177c.155.564.774.677,1.231.378.081-.053.142-.128.225-.178.085.053.659.507.651.55-.008.044-.239.253-.29.293-.941.743-2.553.393-2.891-.823-.301-1.083.327-2.241,1.505-2.309,1.1-.063,1.761.653,1.819,1.716.003.054.013.372-.031.372h-2.219ZM134.257,26.555c-.061-.792-1.053-.773-1.144,0h1.144Z"/>
      <path class="st0" d="M119.56,27.177c.155.564.774.677,1.231.378.081-.053.142-.128.225-.178.085.053.659.507.651.55-.008.044-.239.253-.29.293-.941.743-2.553.393-2.891-.823-.301-1.083.327-2.241,1.505-2.309,1.1-.063,1.761.653,1.819,1.716.003.054.013.372-.031.372h-2.219ZM120.685,26.555c-.061-.792-1.053-.773-1.144,0h1.144Z"/>
      <polygon class="st0" points="115.725 24.186 115.725 25.25 114.44 25.25 114.44 28.522 113.216 28.522 113.216 25.25 111.931 25.25 111.931 24.186 115.725 24.186"/>
      <polygon class="st0" points="140.722 24.186 140.722 27.458 142.81 27.458 142.81 28.522 139.518 28.522 139.518 24.186 140.722 24.186"/>
      <rect class="st0" x="108.537" y="23.986" width="1.205" height="4.536"/>
      <rect class="st0" x="135.884" y="23.986" width="1.205" height="4.536"/>
      <path class="st0" d="M118.215,25.11v1.244c-.413-.026-.802.103-.967.508-.027.067-.097.303-.097.365v1.295h-1.185v-3.352h1.185v.602l.181-.291c.222-.271.53-.401.883-.371Z"/>
      <path class="st0" d="M107.955,25.19l-2.289.02,2.289-.02Z"/>
      <path class="st0" d="M112.433,6.382v14.713s-12.007,0-12.007,0c0-3.753,0-7.507,0-11.261.127-1.879,1.569-3.396,3.485-3.432l.049-.021h8.473ZM102.661,12.05l-.846,3.053,1.352.375.846-3.053-1.352-.375ZM110.253,12.066l-1.35.374.847,3.053,1.35-.374-.847-3.053ZM106.345,12.37c-.579.059-1.087.522-1.195,1.094-.06.316-.069.709.37.51.202-.091.257-.278.418-.405s.607-.274.812-.313c.171-.033.219.049.343.141l1.948,1.746c.083.065.171.018.242-.038l-.633-2.281c-.047-.035-.256.055-.343.062-.33.027-.569-.201-.86-.324-.355-.15-.713-.231-1.102-.191ZM105.245,12.524c-.215-.003-.435.023-.647.066-.074.015-.277.053-.315.107l-.58,2.07c-.007.112.143.273.216.357.469.534,1.415,1.366,1.999,1.775.118.083.263.161.371.01.127-.178-.031-.297-.15-.412-.101-.098-.429-.322-.434-.452-.003-.07.069-.154.137-.167.058-.011.11.026.156.057.324.221.633.613.954.853.033.025.07.056.107.073.259.119.503-.156.335-.395-.13-.186-.537-.467-.723-.642-.068-.064-.202-.172-.203-.261-.001-.18.164-.201.293-.111.369.259.74.747,1.107.98.307.195.627-.132.437-.417-.124-.186-.677-.549-.882-.724-.078-.067-.272-.206-.269-.311.002-.088.096-.173.187-.15.346.198.635.496.957.73.144.104.313.255.47.073.15-.174.037-.285-.091-.412-.344-.341-.794-.679-1.165-1.003-.16-.139-.513-.522-.691-.573-.162-.046-.335.013-.486.078-.368.156-.43.556-.905.621-.808.111-.698-.884-.464-1.367.068-.141.195-.263.259-.383.013-.024.027-.038.019-.071Z"/>
      <path class="st0" d="M135.161,6.382c1.577.028,2.862,1.337,2.872,2.92v11.793h-11.586V6.382h8.714ZM132.708,10.438c0-.416-.337-.753-.753-.753s-.753.337-.753.753.337.753.753.753.753-.337.753-.753ZM134.197,16.74h-.492c-.046,0-.14.099-.15.152-.026.14.046.148.071.229.037.122-.173.454-.129.589.004.011.02.033.027.033h2.128c.116,0-.105-.522-.105-.576,0-.065.076-.098.091-.161.021-.092-.015-.188-.098-.235-.137-.077-.567-.01-.752-.031-.039-.005-.072-.009-.099-.042l-1.662-2.734c-.054-.084.026-.143.04-.21.043-.202-.038-.353-.225-.428-.31-.123-.71-.165-1.019-.286-.041-.016-.087-.028-.114-.067-.113-.342-.236-.683-.323-1.031l.485.759c.012.007.045.008.055.002.032-.021.258-.645.262-.714.012-.243-.125-.408-.329-.509-.168-.083-.83-.362-.984-.363-.077,0-.177.026-.251.052-.341.121-1.026.43-1.339.608-.219.124-.297.301-.164.532l.571.695c.03.099-.187.487-.223.623-.057.218-.032.344.056.546.206.475.512.934.717,1.413l-.009.089c-.148.495-.375.999-.514,1.494-.04.144-.059.247.017.386.04.074.157.167.24.182.303.055.423-.093.528-.346.225-.546.363-1.176.577-1.732l.003-.154c.004-.156-.63-1.17-.58-1.216.012-.011.071.001.077.033.208.435.474.843.664,1.284l-.199,1.727c.006.187.132.384.329.409.304.038.443-.138.49-.414.081-.479.156-1.178.183-1.664.005-.098,0-.199-.004-.296-.074-.274-.68-1.049-.68-1.269,0-.039.035-.129.02-.149-.01-.014-.24-.077-.318-.134-.244-.181-.254-.357-.283-.641l-.06-.953.381,1.155c.033.116.127.2.236.246.219.092,1.126.264,1.231.375l1.589,2.627.037.114Z"/>
      <path class="st0" d="M125.383,6.382v14.713s-7.58,0-7.58,0c-2.351-.148-4.143-1.997-4.246-4.346V6.382h11.827ZM118.692,9.94c-.315.039-1.199.605-1.467.821-.15.12-.218.237-.165.439.033.124.274.33.401.342.972-.012,1.949.02,2.917-.016.212-.14.45-.378.275-.646-.078-.12-.749-.533-.914-.632-.361-.216-.601-.364-1.047-.308ZM120.343,11.962h-2.931c.027.405.389.638.772.663.392.026,1.018.03,1.407,0,.368-.029.718-.279.752-.663ZM121.704,12.509c-.086.005-.153.052-.204.117-.146.185-.397.662-.517.888-.066.125-.169.252-.092.4.22.311.381.746.6,1.046.056.077.09.106.186.115.313.029.954.029,1.267,0,.092-.008.11-.024.166-.095.234-.297.403-.779.63-1.096.049-.105-.01-.186-.054-.276-.134-.272-.368-.677-.536-.929-.064-.095-.081-.144-.206-.155-.336-.031-.779-.001-1.126.002-.039,0-.075-.018-.115-.016ZM117.392,12.795c-.024.095,0,.418,0,.542,0,.229.152.572.285.759.645.906,2.061.771,2.536-.227.172-.362.146-.695.131-1.084-.018-.019-.24.124-.287.144-.233.099-.347.081-.587.096-.415.025-1.348.067-1.716-.07-.096-.036-.262-.167-.321-.182-.02-.005-.038.009-.041.021ZM119.4,15.054c-.225.038-.442.076-.672.06-.036-.003-.372-.073-.372-.05l.532.732.512-.743ZM117.909,15.258c-.031.008-.232.141-.253.17-.046.061-.059.151-.028.223.168.198.358.576.546.739.091.079.167.077.27.026.075-.037.237-.144.184-.239-.096-.11-.601-.9-.668-.92-.019-.006-.033-.003-.051.001ZM119.796,15.257c-.078.021-.586.827-.689.94-.028.08.168.211.229.235.1.039.161.02.243-.046l.555-.75c.025-.074.003-.142-.04-.202-.036-.051-.243-.192-.297-.177ZM122.12,15.495c-.007.01-.03.025-.03.03v2.067c0,.067.162.152.229.149.075-.003.213-.096.213-.169v-2.047s-.028-.03-.03-.03h-.381ZM118.657,16.8c-.3.084-.561.099-.794-.14-.111-.114-.543-.691-.602-.823-.065-.147-.001-.269-.2-.261-.432.019-.873.362-1.03.758-.068.173-.083.43-.086.617-.003.22.028.438.026.658.03.089.121.122.208.133.087.011.531.018.596-.002.033-.01.048-.035.054-.067.034-.184-.101-.58.196-.607.106-.01.226.112.226.207v.452c.02-.007.044.02.05.02h1.325s.03-.028.03-.03v-.913ZM120.926,17.723c0,.033.596.026.651.018.091-.012.196-.07.211-.17.029-.184.019-.744,0-.942-.048-.521-.534-1.006-1.056-1.052-.246-.021-.16.032-.219.198-.056.157-.587.864-.722.964-.125.093-.284.135-.44.118-.093-.01-.176-.068-.273-.058v.893s.031.035.04.04c.409-.006.87.043,1.276.011.039-.003.073-.012.109-.021v-.472c0-.095.135-.196.23-.19.079.005.192.115.192.19v.472Z"/>
      <path class="st0" d="M150.46,6.382v14.713s-7.882,0-7.882,0c-1.866-.107-3.394-1.631-3.483-3.503V6.382h11.365ZM143.589,10.082c-1.068.085-1.795,1.125-1.512,2.162.275,1.004,1.872,2.324,2.787,2.773.081.04.12.073.22.052.097-.02.497-.285.607-.356.876-.565,2.203-1.624,2.336-2.723.188-1.55-1.593-2.479-2.798-1.512-.058.046-.131.162-.201.162s-.143-.116-.201-.162c-.348-.279-.789-.432-1.238-.396ZM145.099,15.515h-.06v.432c0,.012-.05.023-.056.034-.017.03.01.076-.024.107-.045.039-.334.161-.415.207-.204.116-.576.389-.8.386-.198-.002-.483-.158-.653-.113-.056.015-.14.086-.207.114-.3.128-.615.194-.903.362-.056.032-.353.233-.377.266-.04.055,0,.132-.028.173-.015.022-.204.075-.238.123l-.937.157h9.577l-.173-.074c-.118.006-.328.014-.435-.03-.02-.008-.125-.141-.166-.176-.072-.061-.341-.268-.412-.31-.091-.054-.615-.266-.715-.288-.063-.014-.135.008-.193-.008-.111-.032-.307-.211-.419-.243-.098-.028-.219-.004-.318-.043-.072-.028-.075-.082-.179-.102-.205-.04-.416,0-.623-.12l-1.165-.25c.042-.095-.058-.141-.061-.154-.002-.01-.019-.149-.019-.157v-.291Z"/>
      <path class="st0" d="M160.057,6.402c3.257-.042,6.078,2.625,6.325,5.85v8.843h-14.698V6.402h8.372ZM159.175,9.864c0-.161-.131-.291-.291-.291s-.291.13-.291.291.131.291.291.291.291-.13.291-.291ZM157.849,11.079c.133-.003.293.053.421.052.017,0,.041-.007.041-.022v-.321c0-.028-.297-.138-.346-.156-1.245-.46-2.719-.467-3.961.005-.049.018-.311.118-.311.151v.351l.301-.04v4.456h8.011v.442h-8.031c-.144.381-.186.727.017,1.097.39.715,1.385.882,1.992.339.03-.027.063-.091.08-.101.029-.017.619-.021.668-.006.039.012.158.157.205.196.394.324.891.33,1.342.118.078-.037.217-.146.285-.157.073-.012.671-.009.711.009.035.016.108.116.151.15.308.24.574.24.883,0,.148-.116.116-.194.363-.161.086.012.126.102.189.152.337.264.581.251.913-.011.028-.022.131-.14.141-.14h.412v.281h2.048l-1.345-1.756c.163-.009.281.002.411-.111.196-.17.204-.432.308-.636.045-.089.115-.151.16-.262.145-.357.149-.983-.026-1.33-.038-.076-.103-.126-.134-.187-.057-.11-.083-.289-.147-.415-.063-.125-.227-.342-.381-.342h-.773c-.002-.149.004-.286.131-.381.015-.011.094-.06.1-.06h.673v-.873s-.028-.03-.03-.03h-.582c-.026,0-.156.022-.192.029-.611.119-1.035.696-.983,1.316h-.442v-1.556c0-.05.348-.553.393-.671.006-.016.02-.039-.002-.042l-2.138-.02.401.712v1.576h-.442v-.753c0-.027-.076-.15-.1-.175-.149-.151-.502-.16-.661-.025-.034.029-.122.163-.122.2v.753h-.602v-1.646Z"/>
    </g>
    <g>
      <g>
        <path d="M25.601,12.838h-1.022c-.096,0-.174.078-.174.174v1.779c0,.085-.106.123-.16.058l-1.618-1.948c-.033-.04-.082-.063-.134-.063h-.945c-.096,0-.174.078-.174.174v4.256c0,.096.078.174.174.174h1.022c.096,0,.174-.078.174-.174v-1.956c0-.086.108-.123.161-.056l1.69,2.121c.033.041.083.065.136.065h.87c.096,0,.174-.078.174-.174v-4.256c0-.096-.078-.174-.174-.174ZM21.81,15.91h-.101v-.101h.101v.101ZM21.861,15.641h-.101v-.101h.101v.101ZM21.861,13.674h-.101v-.101h.101v.101ZM22.219,15.691h-.101v-.101h.101v.101ZM22.219,14.547h-.101v-.101h.101v.101ZM22.862,14.497h-.101v-.101h.101v.101ZM24.443,16.023h-.101v-.101h.101v.101ZM24.519,15.59h.101v.101h-.101v-.101ZM24.689,16.339h-.101v-.101h.101v.101ZM24.934,13.882h.101v.101h-.101v-.101ZM25.085,16.099h-.101v-.101h.101v.101ZM25.085,15.212h-.101v-.101h.101v.101Z"/>
        <path d="M40.851,12.838h-1.105c-.052,0-.101.023-.134.063l-.966,1.464c-.03.046-.098.046-.129,0l-.966-1.464c-.033-.04-.082-.063-.134-.063h-1.105c-.096,0-.174.078-.174.174v4.256c0,.096.078.174.174.174h.942c.096,0,.174-.078.174-.174v-2.036c0-.075.097-.106.14-.045l.872,1.232c.069.098.214.098.283,0l.872-1.232c.043-.061.14-.031.14.045v2.036c0,.096.078.174.174.174h.942c.096,0,.174-.078.174-.174v-4.256c0-.096-.078-.174-.174-.174ZM36.501,14.396h.101v.101h-.101v-.101ZM36.652,16.503h-.101v-.101h.101v.101ZM36.652,14.051h-.101v-.101h.101v.101ZM36.752,13.349h-.101v-.101h.101v.101ZM36.995,14.051h-.101v-.101h.101v.101ZM37.072,13.618h.101v.101h-.101v-.101ZM37.241,14.367h-.101v-.101h.101v.101ZM37.637,14.127h-.101v-.101h.101v.101ZM38.175,14.656h-.101v-.101h.101v.101ZM39.827,14.186h-.101v-.101h.101v.101ZM40.044,14.497h-.101v-.101h.101v.101ZM40.368,15.86h-.101v-.101h.101v.101ZM40.469,14.263h-.101v-.101h.101v.101Z"/>
        <path d="M65.267,12.838h-1.105c-.052,0-.101.023-.134.063l-.966,1.464c-.03.046-.098.046-.129,0l-.966-1.464c-.033-.04-.082-.063-.134-.063h-1.105c-.096,0-.174.078-.174.174v4.256c0,.096.078.174.174.174h.942c.096,0,.174-.078.174-.174v-2.036c0-.075.097-.106.14-.045l.872,1.232c.069.098.214.098.283,0l.872-1.232c.043-.061.14-.031.14.045v2.036c0,.096.078.174.174.174h.942c.096,0,.174-.078.174-.174v-4.256c0-.096-.078-.174-.174-.174ZM60.932,14.396h.101v.101h-.101v-.101ZM61.083,16.503h-.101v-.101h.101v.101ZM61.083,14.051h-.101v-.101h.101v.101ZM61.184,13.349h-.101v-.101h.101v.101ZM61.426,14.051h-.101v-.101h.101v.101ZM61.503,13.618h.101v.101h-.101v-.101ZM61.673,14.367h-.101v-.101h.101v.101ZM62.068,14.127h-.101v-.101h.101v.101ZM62.607,14.656h-.101v-.101h.101v.101ZM64.258,14.186h-.101v-.101h.101v.101ZM64.476,14.497h-.101v-.101h.101v.101ZM64.8,15.86h-.101v-.101h.101v.101ZM64.9,14.263h-.101v-.101h.101v.101Z"/>
        <path d="M16.115,12.838h-3.4c-.096,0-.174.078-.174.174v4.256c0,.096.078.174.174.174h1.022c.096,0,.174-.078.174-.174v-1.292c0-.064.052-.116.116-.116h1.875c.096,0,.174-.078.174-.174v-.856c0-.096-.078-.174-.174-.174h-1.875c-.064,0-.116-.052-.116-.116v-.383c0-.064.052-.116.116-.116h2.088c.096,0,.174-.078.174-.174v-.856c0-.096-.078-.174-.174-.174ZM12.867,16.827h-.101v-.101h.101v.101ZM12.867,13.752h.101v.101h-.101v-.101ZM13.017,15.691h-.101v-.101h.101v.101ZM13.112,15.061h-.101v-.101h.101v.101ZM13.112,13.39h-.101v-.101h.101v.101ZM13.276,15.14h-.101v-.101h.101v.101ZM13.366,14.648h-.101v-.101h.101v.101ZM13.438,15.353h.101v.101h-.101v-.101ZM13.589,16.023h-.101v-.101h.101v.101ZM13.69,15.308h-.101v-.097h-.101v-.101h.101v.097h.101v.101ZM15.172,15.061h.101v.101h-.101v-.101ZM14.785,15.208h.101v.101h-.101v-.101ZM14.111,15.453h.101v.101h-.101v-.101ZM14.212,13.624h-.101v-.101h-.101v-.101h.101v.101h.101v.101ZM15.273,13.39h-.101v-.101h.101v.101ZM15.526,13.674h-.101v-.101h.101v.101Z"/>
        <path d="M76.936,13.939h2.13c.096,0,.174-.078.174-.174v-.754c0-.096-.078-.174-.174-.174h-3.361c-.096,0-.174.078-.174.174v4.256c0,.096.078.174.174.174h1.022c.023,0,.045-.005.065-.013h2.274c.096,0,.174-.078.174-.174v-.789c0-.096-.078-.174-.174-.174h-2.13c-.064,0-.116-.052-.116-.116v-.384c0-.064.052-.116.116-.116h1.878c.096,0,.174-.078.174-.174v-.724c0-.096-.078-.174-.174-.174h-1.878c-.064,0-.116-.052-.116-.116v-.435c0-.064.052-.116.116-.116ZM78.668,13.574h.101v.101h-.101v-.101ZM78.416,13.574h.101v.101h-.101v-.101ZM78.162,13.289h.101v.101h-.101v-.101ZM77.001,13.423h.101v.101h.101v.101h-.101v-.101h-.101v-.101ZM76.256,14.547h.101v.101h-.101v-.101ZM75.857,16.827h-.101v-.101h.101v.101ZM75.857,13.752h.101v.101h-.101v-.101ZM76.008,15.691h-.101v-.101h.101v.101ZM76.102,15.061h-.101v-.101h.101v.101ZM76.102,13.39h-.101v-.101h.101v.101ZM76.267,15.14h-.101v-.101h.101v.101ZM76.406,17.221h-.101v-.101h.101v.101ZM76.406,16.615h-.101v-.101h.101v.101ZM76.428,15.353h.101v.101h-.101v-.101ZM76.579,16.023h-.101v-.101h.101v.101ZM76.68,15.308h-.101v-.097h-.101v-.101h.101v.097h.101v.101ZM78.617,16.726h.101v.101h-.101v-.101ZM77.959,16.726h.101v.101h-.101v-.101ZM77.787,17.171h.101v.101h-.101v-.101ZM77.488,16.565h.101v.101h-.101v-.101ZM77.488,16.777h.101v.101h.101v.101h-.101v-.101h-.101v-.101ZM77.152,17.12h.101v.101h-.101v-.101ZM78.517,15.158h.101v.101h-.101v-.101ZM78.366,14.717h.101v.101h-.101v-.101ZM78.162,15.061h.101v.101h-.101v-.101ZM77.775,15.208h.101v.101h-.101v-.101ZM77.243,14.859h.101v.101h-.101v-.101ZM77.101,15.453h.101v.101h-.101v-.101Z"/>
        <path d="M59.889,12.838h-1.022c-.096,0-.174.078-.174.174v1.779c0,.085-.106.123-.16.058l-1.618-1.948c-.033-.04-.082-.063-.134-.063h-.945c-.096,0-.174.078-.174.174v4.256c0,.096.078.174.174.174h1.022c.096,0,.174-.078.174-.174v-1.956c0-.086.108-.123.161-.056l1.69,2.121c.033.041.083.065.136.065h.87c.096,0,.174-.078.174-.174v-4.256c0-.096-.078-.174-.174-.174ZM56.098,15.91h-.101v-.101h.101v.101ZM56.149,15.641h-.101v-.101h.101v.101ZM56.149,13.674h-.101v-.101h.101v.101ZM56.507,15.691h-.101v-.101h.101v.101ZM56.507,14.547h-.101v-.101h.101v.101ZM57.151,14.497h-.101v-.101h.101v.101ZM58.731,16.023h-.101v-.101h.101v.101ZM58.808,15.59h.101v.101h-.101v-.101ZM58.977,16.339h-.101v-.101h.101v.101ZM59.222,13.882h.101v.101h-.101v-.101ZM59.373,16.099h-.101v-.101h.101v.101ZM59.373,15.212h-.101v-.101h.101v.101Z"/>
        <path d="M33.88,12.946c-.027-.065-.09-.108-.161-.108h-1.119c-.071,0-.134.043-.161.108l-1.736,4.256c-.047.114.037.239.161.239h.99c.072,0,.137-.045.163-.113l.228-.611c.025-.068.09-.113.163-.113h1.503c.072,0,.137.045.163.113l.228.611c.025.068.09.113.163.113h.99c.123,0,.207-.125.161-.239l-1.736-4.256ZM31.415,16.503h-.101v-.101h.101v.101ZM31.492,16.07h.101v.101h-.101v-.101ZM31.662,16.819h-.101v-.101h.101v.101ZM32.057,16.579h-.101v-.101h.101v.101ZM32.057,15.691h-.101v-.101h.101v.101ZM32.311,14.757h-.101v-.101h.101v.101ZM32.414,14.396h.101v.101h-.101v-.101ZM32.565,16.288h-.101v-.101h.101v.101ZM32.886,13.523h.101v.101h.101v.101h-.101v-.101h-.101v-.101ZM33.137,13.882v.101h-.101v-.101h.101ZM33.367,16.452h-.101v-.101h.101v.101ZM32.806,15.59c-.068,0-.115-.068-.091-.132l.353-.948c.032-.085.151-.085.183,0l.353.948c.024.064-.023.132-.091.132h-.707ZM33.653,16.023h-.101v-.101h.101v.101ZM33.754,14.317h-.101v-.101h.101v.101ZM33.997,16.023h-.101v-.101h.101v.101ZM34.073,15.691v-.101h.101v.101h-.101ZM34.243,16.339h-.101v-.101h.101v.101ZM34.344,15.212h-.101v-.101h.101v.101ZM34.639,16.1h-.101v-.101h.101v.101ZM34.639,15.212h-.101v-.101h.101v.101Z"/>
        <path d="M28.503,12.832h-2.019c-.096,0-.174.078-.174.174v4.262c0,.096.078.174.174.174h2.019c1.282,0,2.193-1.157,2.193-2.308s-.868-2.302-2.193-2.302ZM29.569,13.969h.101v.101h-.101v-.101ZM29.322,13.652h.101v.101h-.101v-.101ZM28.927,13.892h.101v.101h-.101v-.101ZM27.717,13.423h.101v.101h-.101v-.101ZM26.718,15.989h-.101v-.101h.101v.101ZM26.888,15.51h-.101v-.101h.101v.101ZM26.888,14.174h-.101v-.101h.101v.101ZM27.026,14.497h-.101v-.101h.101v.101ZM27.183,15.51h-.101v-.101h.101v.101ZM27.233,14.83h-.101v-.101h.101v.101ZM27.801,16.239c-.096,0-.174-.078-.174-.174v-1.908c0-.096.078-.174.174-.174h.702c.524,0,.868.563.868,1.126s-.36,1.129-.868,1.129h-.702ZM28.666,16.718h.101v.101h-.101v-.101ZM28.868,17.066h-.101v-.101h.101v.101ZM29.078,16.321h-.101v-.101h.101v.101ZM29.421,16.321h-.101v-.101h.101v.101ZM29.492,14.401h-.101v-.101h.101v.101ZM29.498,15.889h.101v.101h-.101v-.101ZM29.668,16.637h-.101v-.101h.101v.101ZM29.768,15.51h-.101v-.101h.101v.101ZM29.912,13.969h.101v.101h-.101v-.101ZM30.063,16.397h-.101v-.101h.101v.101ZM30.063,15.51h-.101v-.101h.101v.101ZM30.113,14.83h-.101v-.101h.101v.101ZM30.408,14.83h-.101v-.101h.101v.101ZM30.308,14.497v-.101h.101v.101h-.101Z"/>
        <path d="M20.723,12.838h-1.022c-.096,0-.174.078-.174.174v2.578c0,.432-.3.698-.782.698s-.782-.266-.782-.698v-2.578c0-.096-.078-.174-.174-.174h-1.022c-.096,0-.174.078-.174.174v2.578c0,1.228.984,1.919,2.151,1.919s2.151-.691,2.151-1.919v-2.578c0-.096-.078-.174-.174-.174ZM17.515,13.98h.101v.101h-.101v-.101ZM17.12,14.22h.101v.101h-.101v-.101ZM17.12,15.108h.101v.101h-.101v-.101ZM17.07,15.888v-.101h.101v.101h-.101ZM17.271,16.649h-.101v-.101h.101v.101ZM17.415,15.108h.101v.101h-.101v-.101ZM17.614,16.649h-.101v-.101h.101v.101ZM17.685,14.729h-.101v-.101h.101v.101ZM17.691,16.217h.101v.101h-.101v-.101ZM17.861,16.965h-.101v-.101h.101v.101ZM17.863,14.397h-.101v-.101h.101v.101ZM18.256,16.725h-.101v-.101h.101v.101ZM19.493,16.827h-.101v-.101h.101v.101ZM20.32,13.005h.101v.101h-.101v-.101ZM20.007,15.691h-.101v-.101h.101v.101ZM20.21,15.86h-.101v-.101h.101v.101ZM20.21,14.686h-.101v-.101h.101v.101ZM20.32,13.94v-.101h.101v.101h-.101ZM20.521,14.188h-.101v-.101h.101v.101Z"/>
        <path d="M45.856,13.012c0-.096-.078-.174-.174-.174h-1.022c-.096,0-.174.078-.174.174v.91h-1.563v-.91c0-.096-.078-.174-.174-.174h-1.022c-.096,0-.174.078-.174.174v.91h-.233v1.29h.233v.379c0,1.228.984,1.919,2.151,1.919s2.151-.691,2.151-1.919v-.379h.212v-1.29h-.212v-.91ZM42.475,13.98h.101v.101h-.101v-.101ZM42.08,14.22h.101v.101h-.101v-.101ZM42.08,15.108h.101v.101h-.101v-.101ZM42.029,15.888v-.101h.101v.101h-.101ZM42.23,16.649h-.101v-.101h.101v.101ZM42.374,15.108h.101v.101h-.101v-.101ZM42.574,16.649h-.101v-.101h.101v.101ZM42.645,14.729h-.101v-.101h.101v.101ZM42.651,16.217h.101v.101h-.101v-.101ZM42.82,16.965h-.101v-.101h.101v.101ZM42.822,14.397h-.101v-.101h.101v.101ZM43.216,16.725h-.101v-.101h.101v.101ZM44.452,16.827h-.101v-.101h.101v.101ZM44.487,15.59c0,.432-.3.698-.782.698s-.782-.266-.782-.698v-.379h1.563v.379ZM45.279,13.005h.101v.101h-.101v-.101ZM44.967,15.691h-.101v-.101h.101v.101ZM45.17,15.86h-.101v-.101h.101v.101ZM45.17,14.686h-.101v-.101h.101v.101ZM45.279,13.94v-.101h.101v.101h-.101ZM45.481,14.188h-.101v-.101h.101v.101Z"/>
        <path d="M55.155,13.012c0-.096-.078-.174-.174-.174h-1.022c-.096,0-.174.078-.174.174v.91h-1.563v-.91c0-.096-.078-.174-.174-.174h-1.022c-.096,0-.174.078-.174.174v.91h-.233v1.29h.233v.379c0,1.228.984,1.919,2.151,1.919s2.151-.691,2.151-1.919v-.379h.212v-1.29h-.212v-.91ZM51.774,13.98h.101v.101h-.101v-.101ZM51.379,14.22h.101v.101h-.101v-.101ZM51.379,15.108h.101v.101h-.101v-.101ZM51.328,15.888v-.101h.101v.101h-.101ZM51.53,16.649h-.101v-.101h.101v.101ZM51.674,15.108h.101v.101h-.101v-.101ZM51.873,16.649h-.101v-.101h.101v.101ZM51.944,14.729h-.101v-.101h.101v.101ZM51.95,16.217h.101v.101h-.101v-.101ZM52.12,16.965h-.101v-.101h.101v.101ZM52.121,14.397h-.101v-.101h.101v.101ZM52.515,16.725h-.101v-.101h.101v.101ZM53.752,16.827h-.101v-.101h.101v.101ZM53.786,15.59c0,.432-.3.698-.782.698s-.782-.266-.782-.698v-.379h1.563v.379ZM54.579,13.005h.101v.101h-.101v-.101ZM54.266,15.691h-.101v-.101h.101v.101ZM54.469,15.86h-.101v-.101h.101v.101ZM54.469,14.686h-.101v-.101h.101v.101ZM54.579,13.94v-.101h.101v.101h-.101ZM54.78,14.188h-.101v-.101h.101v.101Z"/>
        <path d="M70.308,13.012c0-.096-.078-.174-.174-.174h-1.022c-.096,0-.174.078-.174.174v.91h-1.563v-.91c0-.096-.078-.174-.174-.174h-1.022c-.096,0-.174.078-.174.174v.91h-.233v1.29h.233v.379c0,1.228.984,1.919,2.151,1.919s2.151-.691,2.151-1.919v-.379h.212v-1.29h-.212v-.91ZM66.926,13.98h.101v.101h-.101v-.101ZM66.531,14.22h.101v.101h-.101v-.101ZM66.531,15.108h.101v.101h-.101v-.101ZM66.481,15.888v-.101h.101v.101h-.101ZM66.682,16.649h-.101v-.101h.101v.101ZM66.826,15.108h.101v.101h-.101v-.101ZM67.025,16.649h-.101v-.101h.101v.101ZM67.096,14.729h-.101v-.101h.101v.101ZM67.102,16.217h.101v.101h-.101v-.101ZM67.272,16.965h-.101v-.101h.101v.101ZM67.274,14.397h-.101v-.101h.101v.101ZM67.667,16.725h-.101v-.101h.101v.101ZM68.904,16.827h-.101v-.101h.101v.101ZM68.938,15.59c0,.432-.3.698-.782.698s-.782-.266-.782-.698v-.379h1.563v.379ZM69.731,13.005h.101v.101h-.101v-.101ZM69.418,15.691h-.101v-.101h.101v.101ZM69.621,15.86h-.101v-.101h.101v.101ZM69.621,14.686h-.101v-.101h.101v.101ZM69.731,13.94v-.101h.101v.101h-.101ZM69.932,14.188h-.101v-.101h.101v.101Z"/>
        <rect x="52.61" y="11.987" width="1.102" height=".455" rx=".145" ry=".145" transform="translate(6.934 41.168) rotate(-45)"/>
        <path d="M73.457,14.91c-.048-.068-.042-.16.015-.221l1.519-1.644c.073-.079.017-.208-.091-.208h-1.235c-.05,0-.098.022-.131.059l-1.321,1.511c-.049.056-.14.021-.14-.053v-1.344c0-.096-.078-.174-.174-.174h-.942c-.096,0-.174.078-.174.174v4.256c0,.096.078.174.174.174h.942c.096,0,.174-.078.174-.174v-1.065l.268-.29c.075-.081.205-.073.269.017l1.022,1.438c.033.046.085.073.142.073h1.135c.141,0,.223-.159.142-.274l-1.593-2.257ZM73.76,14.033h-.101v-.101h.101v.101ZM73.609,13.523h.101v.101h-.101v-.101ZM71.508,14.547h.101v.101h-.101v-.101ZM71.109,16.827h-.101v-.101h.101v.101ZM71.109,13.752h.101v.101h-.101v-.101ZM71.26,15.691h-.101v-.101h.101v.101ZM71.355,15.061h-.101v-.101h.101v.101ZM71.355,13.39h-.101v-.101h.101v.101ZM71.418,15.039h.101v.101h-.101v-.101ZM71.458,16.464h.101v.101h-.101v-.101ZM71.659,17.221h-.101v-.101h.101v.101ZM71.681,15.353h.101v.101h-.101v-.101ZM71.832,16.023h-.101v-.101h.101v.101ZM71.932,15.308h-.101v-.097h-.101v-.101h.101v.097h.101v.101ZM72.405,15.061h-.101v-.101h.101v.101ZM72.505,14.671h-.101v-.101h.101v.101ZM72.682,15.161h-.101v-.101h.101v.101ZM72.842,14.467h-.101v-.101h.101v.101ZM73.055,15.065h-.101v-.101h.101v.101ZM73.155,14.419h.101v.101h-.101v-.101ZM73.306,16.358h-.101v-.101h.101v.101ZM73.401,15.728h-.101v-.101h.101v.101ZM73.401,14.417h-.101v-.101h.101v.101ZM73.401,14.057h-.101v-.101h.101v.101ZM73.565,15.807h-.101v-.101h.101v.101ZM73.705,17.282h-.101v-.101h.101v.101ZM73.727,16.12v-.101h.101v.101h-.101ZM73.878,16.69h-.101v-.101h.101v.101ZM73.878,15.879h-.101v-.101h.101v.101Z"/>
        <path d="M49.551,15.907c-.037-.053-.018-.127.041-.154.557-.253.845-.728.845-1.355,0-.954-.665-1.559-1.93-1.559h-1.998c-.096,0-.174.078-.174.174v4.256c0,.096.078.174.174.174h.942c.096,0,.174-.078.174-.174v-1.13c0-.064.052-.116.116-.116h.267c.037,0,.073.018.094.049l.922,1.297c.033.046.085.073.142.073h1.135c.141,0,.223-.159.142-.274l-.89-1.261ZM49.87,13.95h.101v.101h-.101v-.101ZM46.79,15.699h-.101v-.101h.101v.101ZM46.976,16.503h-.101v-.101h.101v.101ZM47.289,15.488h-.101v-.101h.101v.101ZM47.39,13.206h-.101v-.101h.101v.101ZM48.799,13.36h.101v.101h-.101v-.101ZM47.971,13.523h.101v.101h-.101v-.101ZM47.873,15.538h-.101v-.101h.101v.101ZM48.429,16.03h-.101v-.101h.101v.101ZM48.773,16.03h-.101v-.101h.101v.101ZM49.019,16.346h-.101v-.101h.101v.101ZM48.849,15.699v-.101h.101v.101h-.101ZM48.452,14.99h-.648c-.096,0-.174-.077-.174-.173v-.68c0-.096.078-.173.174-.173h.648c.478,0,.661.199.661.513s-.183.513-.661.513ZM49.213,15.061h.101v.101h-.101v-.101ZM49.415,16.107h-.101v-.101h.101v.101Z"/>
      </g>
      <g>
        <path d="M12.637,18.846h1.128v.239h-.861v.396h.763v.239h-.763v.409h.872v.239h-1.139v-1.521Z"/>
        <path d="M14.707,20.146l.161-.191c.146.126.291.198.48.198.165,0,.27-.076.27-.191v-.004c0-.109-.061-.167-.343-.233-.324-.078-.506-.174-.506-.454v-.004c0-.261.217-.441.519-.441.222,0,.398.067.552.191l-.143.202c-.137-.102-.274-.156-.413-.156-.157,0-.248.08-.248.18v.004c0,.117.07.17.361.239.322.078.489.193.489.446v.004c0,.285-.224.454-.543.454-.233,0-.452-.08-.635-.243Z"/>
        <path d="M16.916,18.846h.6c.354,0,.578.202.578.509v.004c0,.341-.274.519-.609.519h-.302v.489h-.267v-1.521ZM17.494,19.637c.202,0,.328-.113.328-.272v-.004c0-.178-.128-.272-.328-.272h-.311v.548h.311Z"/>
        <path d="M19.47,18.835h.248l.669,1.532h-.283l-.154-.367h-.719l-.156.367h-.274l.669-1.532ZM19.853,19.763l-.263-.609-.261.609h.524Z"/>
        <path d="M21.203,19.611v-.004c0-.433.324-.787.785-.787.28,0,.45.098.596.237l-.172.198c-.122-.113-.252-.189-.426-.189-.291,0-.502.239-.502.537v.004c0,.298.211.541.502.541.187,0,.306-.076.437-.198l.172.174c-.159.165-.333.27-.617.27-.443,0-.774-.346-.774-.783Z"/>
        <path d="M23.606,18.846h.267v1.521h-.267v-1.521Z"/>
        <path d="M24.928,19.611v-.004c0-.428.33-.787.798-.787s.793.354.793.782v.004c0,.428-.33.787-.798.787s-.793-.354-.793-.783ZM26.238,19.611v-.004c0-.296-.215-.541-.517-.541s-.513.241-.513.537v.004c0,.296.215.541.517.541s.513-.241.513-.537Z"/>
        <path d="M28.926,18.846h.567c.478,0,.809.328.809.756v.004c0,.428-.33.761-.809.761h-.567v-1.521ZM29.493,20.124c.32,0,.528-.215.528-.513v-.004c0-.298-.209-.517-.528-.517h-.3v1.035h.3Z"/>
        <path d="M31.341,18.846h1.128v.239h-.861v.396h.763v.239h-.763v.409h.872v.239h-1.139v-1.521Z"/>
        <path d="M34.881,18.846h.567c.478,0,.809.328.809.756v.004c0,.428-.33.761-.809.761h-.567v-1.521ZM35.448,20.124c.32,0,.528-.215.528-.513v-.004c0-.298-.209-.517-.528-.517h-.3v1.035h.3Z"/>
        <path d="M37.312,18.846h.267v1.521h-.267v-1.521Z"/>
        <path d="M39.24,18.835h.248l.669,1.532h-.283l-.154-.367h-.719l-.156.367h-.274l.669-1.532ZM39.622,19.763l-.263-.609-.261.609h.524ZM39.499,18.383l.239.104-.278.211h-.204l.243-.315Z"/>
        <path d="M41.134,18.846h.267v1.278h.8v.243h-1.067v-1.521Z"/>
        <path d="M43.041,19.611v-.004c0-.428.33-.787.798-.787s.793.354.793.782v.004c0,.428-.33.787-.798.787s-.793-.354-.793-.783ZM44.351,19.611v-.004c0-.296-.215-.541-.517-.541s-.513.241-.513.537v.004c0,.296.215.541.517.541s.513-.241.513-.537Z"/>
        <path d="M45.604,19.611v-.004c0-.426.326-.787.785-.787.265,0,.428.074.585.207l-.17.202c-.117-.1-.233-.163-.426-.163-.28,0-.493.246-.493.537v.004c0,.313.207.543.517.543.143,0,.274-.046.367-.115v-.285h-.389v-.233h.648v.639c-.15.128-.365.237-.635.237-.476,0-.789-.339-.789-.783Z"/>
        <path d="M48.024,19.611v-.004c0-.428.33-.787.798-.787s.793.354.793.782v.004c0,.428-.33.787-.798.787s-.793-.354-.793-.783ZM49.334,19.611v-.004c0-.296-.215-.541-.517-.541s-.513.241-.513.537v.004c0,.296.215.541.517.541s.513-.241.513-.537Z"/>
        <path d="M52.037,18.846h.267v1.521h-.267v-1.521Z"/>
        <path d="M53.426,18.846h.248l.815,1.052v-1.052h.263v1.521h-.224l-.839-1.082v1.082h-.263v-1.521Z"/>
        <path d="M56.233,19.094h-.483v-.248h1.235v.248h-.483v1.274h-.269v-1.274Z"/>
        <path d="M57.984,18.846h1.128v.239h-.861v.396h.763v.239h-.763v.409h.872v.239h-1.139v-1.521Z"/>
        <path d="M60.156,18.846h.678c.191,0,.341.056.439.152.08.083.126.196.126.328v.004c0,.25-.15.4-.363.461l.411.576h-.315l-.374-.53h-.335v.53h-.267v-1.521ZM60.814,19.6c.191,0,.313-.1.313-.254v-.004c0-.163-.117-.252-.315-.252h-.389v.511h.391Z"/>
        <path d="M62.375,19.611v-.004c0-.433.324-.787.785-.787.28,0,.45.098.596.237l-.172.198c-.122-.113-.252-.189-.426-.189-.291,0-.502.239-.502.537v.004c0,.298.211.541.502.541.187,0,.307-.076.437-.198l.172.174c-.159.165-.333.27-.617.27-.443,0-.774-.346-.774-.783Z"/>
        <path d="M64.739,19.722v-.876h.267v.865c0,.283.146.435.385.435.237,0,.383-.144.383-.424v-.876h.267v.863c0,.454-.256.682-.654.682-.396,0-.648-.228-.648-.669Z"/>
        <path d="M67.124,18.846h.267v1.278h.8v.243h-1.067v-1.521Z"/>
        <path d="M69.341,19.094h-.483v-.248h1.235v.248h-.483v1.274h-.269v-1.274Z"/>
        <path d="M71.068,19.722v-.876h.267v.865c0,.283.146.435.385.435.237,0,.383-.144.383-.424v-.876h.267v.863c0,.454-.256.682-.654.682-.396,0-.648-.228-.648-.669Z"/>
        <path d="M73.453,18.846h.678c.191,0,.341.056.439.152.08.083.126.196.126.328v.004c0,.25-.15.4-.363.461l.411.576h-.315l-.374-.53h-.335v.53h-.267v-1.521ZM74.111,19.6c.191,0,.313-.1.313-.254v-.004c0-.163-.117-.252-.315-.252h-.389v.511h.391Z"/>
        <path d="M76.279,18.835h.248l.669,1.532h-.283l-.154-.367h-.719l-.156.367h-.274l.67-1.532ZM76.662,19.763l-.263-.609-.261.609h.524Z"/>
        <path d="M78.173,18.846h.267v1.278h.8v.243h-1.067v-1.521Z"/>
      </g>
    </g>
  </g>
</svg>