<?xml version="1.0" encoding="UTF-8"?>
<svg id="Layer_1" xmlns="http://www.w3.org/2000/svg" version="1.1" viewBox="0 0 336 44.777">
  <!-- Generator: Adobe Illustrator 29.0.0, SVG Export Plug-In . SVG Version: 2.1.0 Build 186)  -->
  <defs>
    <style>
      .st0 {
        fill: #0000fd;
      }

      .st1 {
        fill: #fafafa;
      }
    </style>
  </defs>
  <rect class="st1" x="-26.938" y="-441.183" width="390" height="844"/>
  <g>
    <g>
      <g>
        <path class="st0" d="M8.419,17.48c-.248,0-.45.208-.432.455.014.202.034.403.059.602.027.217.212.379.431.379h11.791c.175,0,.346-.044.502-.123,1.034-.532,2.115-.975,3.236-1.313h-15.586Z"/>
        <path class="st0" d="M8.823,19.734c-.291,0-.496.28-.415.56.056.196.119.39.186.582.06.173.226.287.41.287h7.933c.165,0,.324-.058.452-.162.557-.454,1.136-.878,1.738-1.266h-10.304Z"/>
        <path class="st0" d="M9.761,21.98c-.329,0-.541.355-.38.641.094.168.193.334.296.497.113.179.307.289.519.289h4.421c.19,0,.369-.083.495-.225.371-.418.759-.82,1.164-1.203h-6.514Z"/>
        <path class="st0" d="M11.109,24.955c.402.416.839.804,1.308,1.159.203.154.493.088.625-.129.225-.37.461-.73.708-1.081.201-.286-.005-.677-.354-.677h-1.971c-.378,0-.58.457-.317.729"/>
        <path class="st0" d="M20.659,28.334c.109-.014.221-.021.329-.038,2.587-.396,4.975-1.695,6.724-3.659.086-.096.167-.196.249-.295-2.841.398-5.424,1.81-7.302,3.991"/>
        <path class="st0" d="M28.895,22.014c-4.264.224-8.233,2.406-10.718,5.869-.147.205-.012.492.239.511.051.004.102.008.153.011.204.013.418.02.637.021.163,0,.317-.074.417-.203,2.169-2.766,5.348-4.498,8.839-4.813.132-.012.252-.081.324-.192.116-.179.229-.362.334-.548l.086-.15c.132-.232-.044-.521-.311-.507"/>
        <path class="st0" d="M29.707,19.75c-.028,0-.057,0-.085,0-5.659,0-10.885,2.932-13.854,7.705-.111.178-.02.414.181.476.257.079.516.149.776.208.131.03.266-.029.339-.142,2.735-4.246,7.495-6.867,12.559-6.867h.002c.13,0,.247-.079.293-.201.013-.035.026-.071.038-.106.059-.169.113-.34.164-.513.081-.278-.122-.557-.412-.559"/>
        <path class="st0" d="M29.622,17.512c-6.52,0-12.528,3.414-15.879,8.966-.125.208-.053.484.161.599.159.086.319.167.481.244.199.095.435.016.549-.172,3.109-5.118,8.667-8.266,14.687-8.266.139,0,.28.002.422.006.222.006.418-.152.445-.373.022-.179.04-.36.054-.541.018-.241-.174-.45-.416-.457-.17-.005-.339-.007-.505-.007"/>
        <path class="st0" d="M19.265,14.353c1.371,0,2.504,1,2.72,2.309h8.024c.309,0,.547-.268.519-.575-.522-5.754-5.38-10.284-11.262-10.284s-10.742,4.53-11.264,10.284c-.028.308.21.576.519.576h8.024c.216-1.309,1.35-2.309,2.721-2.309M10.099,14.606c-.055-.016-.102-.071-.086-.144.42-1.843,1.438-3.553,2.864-4.818.842-.764,1.838-1.371,2.96-1.807,1.076-.411,2.229-.624,3.424-.633,1.192.008,2.344.22,3.425.631,1.124.436,2.121,1.044,2.962,1.807,1.429,1.265,2.447,2.979,2.866,4.825.016.074-.03.128-.086.145-.012.003-.024.005-.035.005-.049,0-.094-.031-.111-.081-.61-1.743-1.67-3.262-3.066-4.389-1.679-1.368-3.778-2.119-5.915-2.119h-.081c-2.137,0-4.235.752-5.915,2.12-1.394,1.127-2.452,2.642-3.062,4.384-.021.062-.082.095-.146.075M12.635,14.478c-.021.043-.062.068-.107.068-.015,0-.031-.003-.047-.009-.06-.024-.089-.086-.07-.147.393-1.272,1.193-2.445,2.252-3.303.61-.507,1.334-.916,2.153-1.214.773-.273,1.597-.415,2.449-.423.859.009,1.682.152,2.449.423.816.297,1.541.706,2.154,1.215,1.057.856,1.856,2.028,2.25,3.297.019.061-.011.123-.07.147-.061.024-.125,0-.154-.059-.572-1.152-1.413-2.141-2.428-2.861-1.221-.865-2.699-1.341-4.165-1.341h-.066c-1.468,0-2.947.476-4.169,1.342-1.017.72-1.858,1.71-2.431,2.864M15.114,14.53c-.04.047-.104.059-.156.026-.052-.033-.071-.096-.045-.154.323-.712.871-1.361,1.543-1.827.37-.266.818-.486,1.332-.653.457-.142.953-.219,1.476-.226h.018c.992,0,1.983.312,2.792.879.673.466,1.221,1.116,1.544,1.831.026.057.007.121-.045.154-.02.013-.042.019-.064.019-.034,0-.068-.015-.093-.045-.491-.585-1.06-1.054-1.691-1.395-.747-.403-1.598-.617-2.46-.62h-.036c-.825,0-1.662.214-2.425.619-.63.339-1.199.808-1.689,1.393"/>
      </g>
      <path class="st0" d="M6.693,24.173l-.445-.824.248-.134.617,1.142-1.296.7-.6-1.111.248-.134.428.793.272-.147-.335-.62.233-.126.335.62.295-.159Z"/>
      <path class="st0" d="M5.385,21.795c.158-.068.202-.218.13-.45-.027-.087-.061-.158-.103-.213-.041-.055-.087-.075-.135-.06-.035.011-.058.036-.069.075s-.016.1-.014.182l.014.425c.008.253-.084.409-.274.468-.094.029-.182.025-.263-.012-.082-.037-.15-.095-.203-.173-.054-.078-.097-.172-.131-.282-.056-.182-.063-.345-.02-.488s.135-.244.276-.302l.116.321c-.058.026-.098.073-.121.139-.023.067-.018.152.014.257.024.077.053.133.09.169.036.036.073.048.112.036.033-.01.055-.033.068-.07.013-.036.018-.089.016-.157l-.015-.405c-.006-.144.011-.257.051-.342.04-.084.113-.143.219-.175.145-.045.271-.019.379.077.109.097.195.247.258.453.067.219.077.399.029.542-.049.143-.152.244-.311.305l-.112-.32Z"/>
      <path class="st0" d="M4.545,19.359c-.233.023-.425-.028-.574-.152-.15-.125-.237-.311-.262-.558-.02-.205.009-.376.087-.513.078-.137.195-.226.35-.269l.06.343c-.071.025-.125.075-.162.15s-.05.161-.041.259c.014.138.068.239.162.303.095.064.209.089.345.076.139-.014.248-.064.326-.152.077-.087.109-.201.095-.342-.011-.106-.044-.19-.099-.252-.056-.061-.123-.097-.203-.108l-.014-.35c.175.008.314.07.419.185s.169.28.19.495c.025.255-.023.461-.144.616-.121.155-.299.244-.534.268Z"/>
      <path class="st0" d="M4.897,15.931l.092-.932.281.028-.127,1.292-1.466-.144.124-1.257.281.028-.088.896.308.03.069-.702.264.026-.069.702.333.033Z"/>
      <path class="st0" d="M4.488,12.07l.103-.33,1.406.44-.182.582-1.357.136,1.197.374-.103.33-1.406-.44.182-.581,1.358-.138-1.197-.374Z"/>
      <path class="st0" d="M7.18,9.771l-.331-.057-.349.618.219.254-.175.31-1.008-1.211.267-.473,1.558.237-.181.321ZM6.311,10.112l.252-.445-.743-.127.491.573Z"/>
      <path class="st0" d="M8.851,7.555l-.695-.035-.155.177.412.36-.238.273-1.11-.969.545-.625c.108-.123.227-.2.357-.231.129-.03.255.008.375.113.191.166.212.366.064.598l.736.005-.291.333ZM7.519,7.279l.276.24.288-.33c.049-.056.076-.11.081-.161.005-.051-.015-.097-.061-.137-.045-.04-.094-.054-.145-.043s-.102.045-.151.1l-.288.33Z"/>
      <path class="st0" d="M10.193,6.277l-.932-1.141.281-.229.932,1.141-.281.229Z"/>
      <path class="st0" d="M11.752,4.918c-.191-.048-.345-.175-.461-.382-.116-.207-.144-.405-.085-.593s.203-.346.431-.474c.227-.127.437-.167.63-.12.192.048.346.175.462.382.116.207.144.405.084.593s-.204.347-.432.474c-.227.127-.437.168-.629.12ZM11.547,4.004c-.028.114-.008.233.06.355s.159.201.271.237c.112.035.232.017.359-.054.127-.071.206-.164.235-.279s.01-.233-.059-.355-.16-.201-.272-.236-.233-.016-.36.055-.205.164-.234.278Z"/>
      <path class="st0" d="M16.695,2.405l.742-.129.117.668c-.213.135-.434.223-.664.263-.269.047-.489.016-.658-.092s-.274-.279-.315-.511c-.04-.231-.004-.426.11-.584.113-.159.292-.26.535-.302.195-.034.362-.02.502.043.14.063.239.164.298.305l-.339.087c-.036-.059-.091-.102-.164-.128-.074-.026-.156-.031-.245-.016-.137.024-.234.085-.29.184-.056.099-.072.215-.049.349.024.14.086.245.185.313.099.068.228.088.388.061.119-.021.235-.06.347-.116l-.04-.23-.419.073-.041-.237Z"/>
      <path class="st0" d="M20.182,3.005l-.103-.319-.709-.023-.124.312-.356-.011.604-1.455.543.017.513,1.49-.368-.012ZM19.477,2.393l.511.016-.232-.717-.279.701Z"/>
      <path class="st0" d="M22.27,2.78c-.021.171.086.284.322.34.089.021.168.027.236.018.068-.008.108-.037.12-.086.008-.036-.001-.069-.03-.098-.028-.03-.078-.064-.149-.104l-.374-.203c-.222-.122-.31-.279-.265-.473.022-.096.071-.169.144-.221.073-.052.158-.081.252-.088.094-.007.198.003.31.029.186.044.33.121.431.231.102.11.142.24.121.391l-.336-.062c.006-.063-.013-.122-.059-.175-.046-.053-.122-.093-.228-.118-.078-.018-.141-.021-.191-.008-.049.013-.078.039-.088.079-.008.033,0,.064.025.094.025.03.067.061.127.094l.357.193c.127.067.216.14.269.217s.066.17.04.278c-.035.147-.121.244-.259.288s-.312.042-.521-.007c-.222-.053-.383-.136-.482-.25-.098-.114-.134-.255-.106-.423l.333.065Z"/>
      <path class="st0" d="M26.342,3.186l-.122.271-.48-.217-.485,1.072-.33-.149.485-1.072-.479-.217.123-.271,1.288.584Z"/>
      <path class="st0" d="M27.798,5.844l-.031-.696-.191-.138-.319.444-.294-.211.86-1.196.673.484c.133.096.221.207.263.334.042.126.016.255-.077.384-.148.206-.345.246-.59.121l.064.733-.359-.258ZM27.948,4.492l-.214.297.356.256c.06.043.116.065.168.065.052,0,.095-.024.13-.073.035-.049.045-.099.029-.149-.016-.05-.054-.097-.114-.14l-.356-.256Z"/>
      <path class="st0" d="M29.417,7.012c.003-.197.092-.376.267-.536.175-.16.361-.232.558-.218.197.015.384.119.56.311s.263.388.261.586c-.003.198-.091.378-.266.537-.175.16-.361.232-.559.217-.197-.015-.384-.119-.56-.312s-.263-.388-.26-.585ZM30.26,6.604c-.118-.002-.228.045-.332.139-.103.095-.16.201-.169.318s.036.23.134.338c.098.108.207.162.325.165.118.002.229-.044.332-.138.104-.095.16-.201.168-.319s-.037-.23-.135-.338c-.098-.108-.206-.163-.324-.164Z"/>
      <path class="st0" d="M32.956,9.61l.174.298-1.273.742-.307-.527.814-1.094-1.084.632-.174-.298,1.273-.742.307.525-.813,1.096,1.084-.632Z"/>
      <path class="st0" d="M32.693,12.124c.085-.179.24-.305.465-.378.226-.073.425-.062.598.033.173.095.3.267.38.515.08.248.078.462-.006.641-.085.179-.239.305-.465.378-.225.073-.425.062-.598-.034s-.3-.268-.381-.516c-.081-.248-.078-.462.006-.64ZM33.63,12.101c-.107-.05-.226-.054-.36-.01-.133.043-.228.116-.285.219s-.062.224-.017.363c.045.139.121.234.227.285.106.051.227.055.36.012.134-.043.228-.117.285-.221.056-.104.062-.225.017-.364s-.121-.234-.227-.284ZM34.181,12.108l.312.118.107.331-.338-.196-.082-.252Z"/>
      <path class="st0" d="M34.844,16.146l.052.625-1.468.12-.029-.344,1.265-.106-1.296-.274-.04-.487,1.231-.482-1.263.105-.029-.344,1.468-.122.052.629-1.23.447,1.287.233Z"/>
      <path class="st0" d="M33.338,18.423l1.465.153-.038.36-1.465-.153.038-.36Z"/>
      <path class="st0" d="M33.783,20.426c.225.064.385.181.479.352.094.171.107.376.04.615-.056.198-.146.347-.269.446-.122.099-.264.139-.423.122l.07-.341c.075.002.144-.025.206-.081.062-.056.106-.132.133-.226.038-.134.024-.248-.04-.342-.065-.094-.162-.16-.293-.197-.135-.038-.255-.03-.359.022-.104.053-.175.148-.213.284-.029.103-.029.193,0,.27.029.078.079.136.15.175l-.115.331c-.16-.071-.267-.18-.323-.325-.056-.146-.055-.322.004-.53.07-.247.189-.421.359-.521s.368-.118.595-.054Z"/>
      <path class="st0" d="M32.213,23.244c.187-.064.385-.041.595.07s.341.261.394.452c.052.19.018.401-.104.632-.122.231-.276.379-.463.443-.187.064-.386.042-.596-.069-.21-.111-.341-.261-.393-.453-.052-.191-.018-.402.104-.633.122-.231.276-.378.463-.442ZM32.882,23.9c-.038-.111-.119-.2-.244-.265-.124-.065-.243-.083-.356-.051-.113.031-.204.112-.272.24-.068.129-.083.249-.046.361s.119.201.243.266c.124.066.243.082.357.05.113-.032.204-.113.272-.242.068-.129.083-.249.046-.36Z"/>
      <path class="st0" d="M8.635,35.32c-.207.066-.453.1-.739.1-.778,0-1.201-.274-1.271-.82l-1.359.044c.074,1.251.945,1.876,2.615,1.876.773,0,1.385-.134,1.836-.403.451-.268.676-.678.676-1.23,0-.399-.123-.709-.369-.931-.246-.222-.613-.399-1.1-.532l-1.403-.384c-.202-.054-.35-.112-.443-.173-.094-.062-.14-.139-.14-.233,0-.108.068-.196.203-.262.135-.067.324-.1.565-.1.364,0,.635.067.812.2.177.133.281.298.31.495l1.366-.067c-.049-.551-.299-.978-.75-1.278-.45-.3-1.018-.451-1.703-.451-.414,0-.784.051-1.112.152-.328.101-.599.272-.816.514-.217.241-.325.542-.325.901,0,.709.428,1.182,1.285,1.418l1.47.399c.256.074.437.142.543.203.106.062.159.144.159.247,0,.143-.103.248-.31.314"/>
      <polygon class="st0" points="21.762 35.301 18.519 35.301 18.519 34.333 20.949 34.333 20.949 33.27 18.519 33.27 18.519 32.391 21.643 32.391 21.643 31.26 17.063 31.26 17.063 36.431 21.762 36.431 21.762 35.301"/>
      <path class="st0" d="M23.424,36.431h1.5c.29-1.438,1.022-2.841,2.194-4.21v-.96h-4.617v1.145h3.162c-1.177,1.305-1.923,2.647-2.238,4.026"/>
      <polygon class="st0" points="32.79 35.301 29.547 35.301 29.547 34.333 31.978 34.333 31.978 33.27 29.547 33.27 29.547 32.391 32.672 32.391 32.672 31.26 28.092 31.26 28.092 36.431 32.79 36.431 32.79 35.301"/>
      <polygon class="st0" points="7.04 42.279 6.072 38.009 3.538 38.009 3.538 43.18 4.92 43.18 4.92 38.881 6.042 43.18 8 43.18 9.123 38.881 9.123 43.18 10.504 43.18 10.511 38.009 7.992 38.009 7.04 42.279"/>
      <path class="st0" d="M13.267,38.009l-1.891,5.171h1.426l.355-1.034h2.356l.355,1.034h1.478l-1.898-5.171h-2.179ZM13.533,41.053l.805-2.327.798,2.327h-1.603Z"/>
      <path class="st0" d="M23.269,39.708c0-.576-.196-1.004-.587-1.282-.391-.278-.885-.417-1.481-.417h-2.992v5.171h1.455v-1.854h.657l1.433,1.854h1.773l-1.633-1.906c.916-.167,1.374-.69,1.374-1.566M21.075,40.24h-1.411v-1.071h1.411c.493,0,.738.18.738.54,0,.354-.246.532-.738.532"/>
      <polygon class="st0" points="25.898 41.082 28.329 41.082 28.329 40.018 25.898 40.018 25.898 39.139 29.023 39.139 29.023 38.009 24.443 38.009 24.443 43.18 29.141 43.18 29.141 42.05 25.898 42.05 25.898 41.082"/>
      <path class="st0" d="M34.622,40.705c-.246-.222-.613-.399-1.101-.532l-1.404-.384c-.202-.054-.35-.112-.443-.173-.094-.062-.141-.139-.141-.233,0-.109.068-.196.203-.262.135-.067.324-.1.565-.1.364,0,.635.067.812.2.177.133.281.298.31.495l1.367-.067c-.049-.551-.299-.977-.75-1.278-.451-.3-1.018-.45-1.703-.45-.414,0-.784.051-1.112.152-.328.101-.6.272-.816.513-.217.241-.325.542-.325.901,0,.709.429,1.182,1.285,1.418l1.47.399c.256.074.437.142.543.203.106.062.159.144.159.248,0,.143-.103.247-.31.314-.207.067-.453.1-.739.1-.778,0-1.201-.273-1.271-.82l-1.359.044c.074,1.251.945,1.876,2.615,1.876.773,0,1.385-.134,1.836-.403.451-.268.676-.678.676-1.23,0-.399-.123-.709-.369-.931"/>
      <polygon class="st0" points="16.103 35.242 14.279 35.242 14.279 32.45 16.103 32.45 16.103 31.26 10.999 31.26 10.999 32.45 12.824 32.45 12.824 35.242 10.999 35.242 10.999 36.431 16.103 36.431 16.103 35.242"/>
    </g>
    <g>
      <path class="st0" d="M330.968,44.777c-.121,0-.225,0-.329,0-8.148,0-16.296,0-24.443,0q-.37,0-.371-.381c0-14.672,0-29.344,0-44.017q0-.38.371-.38c8.148,0,16.296,0,24.443,0h.328v44.777ZM310.748,32.256c.144-.14.14-.237-.021-.348-.341-.236-.513-.56-.418-.983.093-.418.387-.646.781-.742.622-.153,1.223-.051,1.758.283.471.294.896.66,1.354.975.465.32.915.687,1.425.909,1.639.712,3.268.483,4.843-.23,1.158-.524,1.96-1.458,2.659-2.488.561-.826,1.092-1.674,1.69-2.473.572-.766,1.346-1.237,2.328-1.31.831-.061,1.698.231,1.965,1.09.008.027.036.048.06.078.272-.567.188-1.23-.266-1.683-.284-.283-.606-.561-.964-.732-.867-.413-1.759-.775-2.651-1.132-1.007-.403-1.774-1.06-2.217-2.053-.222-.498-.412-1.016-.549-1.543-.353-1.354-.842-2.641-1.668-3.783-.09-.125-.186-.245-.28-.367-.042.101-.025.176-.023.251.02.651.108,1.31.039,1.951-.112,1.052-.699,1.892-1.416,2.639-.526.548-1.074,1.076-1.594,1.631-.477.51-.722,1.121-.715,1.831.003.291-.022.583-.055.872-.199,1.76-1.074,3.048-2.707,3.762-.636.278-1.315.458-1.966.703-.526.197-1.08.362-1.553.652-.921.565-.821,1.741.16,2.241ZM310.211,32.121c-.04-.059-.067-.103-.098-.144-.532-.704-.425-1.56.303-2.063.322-.222.696-.384,1.065-.519.737-.269,1.497-.475,2.229-.756,1.176-.45,2.094-1.202,2.587-2.399.311-.755.421-1.551.422-2.359,0-.526.137-1,.442-1.416.224-.305.48-.589.737-.868.575-.626.45-1.395-.302-1.783-.14-.072-.291-.131-.443-.172-.877-.235-1.775-.263-2.65-.066-1.805.407-3.597.876-5.397,1.306-.233.056-.356.17-.459.375-.634,1.266-1.417,2.429-2.456,3.401-.152.142-.202.286-.202.486.004,3.372.003,6.745.003,10.117v.279c.023.012.047.024.07.036,1.381-1.15,2.761-2.299,4.149-3.455ZM310.717,7.973c.046,1.435.092,2.844.137,4.239.935.099,1.916-.012,2.261,1.097.793-.106,1.558-.208,2.318-.309.027-.392.046-.762.078-1.131.087-1.016.483-1.848,1.383-2.404.933-.576,1.849-1.177,2.773-1.768.085-.054.166-.115.25-.173q-.234-.3-.573-.317c-.542-.028-.976-.619-.848-1.136.02-.083-.023-.201-.073-.279-.393-.615-.587-1.271-.376-1.992.281-.964.994-1.479,1.918-1.721.913-.239,1.73-.053,2.327.721.217.281.353.628.508.953.057.119.091.185.25.207.138.019.314.148.373.275.16.346.141.73-.059,1.045-.18.284-.106.524-.046.793.037-.006.061-.002.07-.012.029-.032.05-.07.079-.103.207-.236.385-.512.63-.698.343-.259.725-.476,1.112-.666,1.805-.888,3.537-1.889,5.139-3.116.356-.272.538-.527.486-.977-.04-.349-.01-.354-.356-.354-5.379,0-10.758,0-16.137,0-.091,0-.183.008-.365.018.693.484.866,1.108.822,1.83-.067,1.077-.852,1.841-1.927,1.861-.062.001-.165.027-.177.064-.126.396-.325.778-.061,1.211.296.486.147.864-.383,1.126-.264.131-.49.285-.539.625-.035.241-.139.473-.215.708q-.185.571-.78.383ZM330.805,1.356c-.137.096-.224.153-.307.216-1.083.811-2.182,1.599-3.384,2.231-.875.46-1.756.911-2.617,1.398-.285.162-.522.414-.764.644-.131.125-.147.278-.022.449.317.436.609.89.928,1.325.108.147.121.259.013.401-.122.161-.233.331-.385.551.133.11.257.224.391.322.276.202.344.467.335.803-.05,1.945-.135,3.891-.099,5.834.03,1.642.206,3.281.322,4.92.015.214.054.427.085.66,1.768-.788,3.576-.824,5.451-.581-.055-.153-.09-.269-.138-.38-.659-1.543-1.309-3.09-1.982-4.628-.83-1.896-1.383-3.846-1.354-5.943.014-1.036.306-1.942,1.019-2.679.749-.774,1.542-1.507,2.327-2.246.141-.133.209-.261.207-.455-.008-.841-.003-1.682-.004-2.523,0-.086-.011-.172-.021-.322ZM306.008,13.067c.061-.053.092-.069.109-.095.515-.781,1.273-1.154,2.172-1.259.214-.025.281-.107.314-.293.321-1.789.65-3.577.967-5.367.079-.447.302-.757.728-.93.417-.169.814-.393,1.239-.534.436-.144.406-.531.524-.844.085-.226-.177-.248-.252-.384-.038-.069-.101-.123-.145-.189-.551-.841-.357-2.162.41-2.809.06-.051.116-.107.233-.215h-.376c-1.857,0-3.714,0-5.572,0q-.368,0-.369.36c0,4.081,0,8.161,0,12.242,0,.092.009.184.016.317ZM326.181,36.087c.159.01.271.023.382.023,1.282.001,2.565.001,3.847,0q.416,0,.416-.418c0-4.851,0-9.701,0-14.552,0-.088.013-.181-.009-.264-.017-.063-.081-.112-.16-.213-.027.116-.041.157-.046.199-.063.592-.268,1.127-.607,1.619-.422.611-.826,1.235-1.237,1.853-.082.124-.16.25-.243.38.053.05.089.087.129.121.879.738,1.032,1.429.626,2.494-.716,1.88-1.417,3.766-2.096,5.66-.36,1.004-.659,2.029-1.002,3.097ZM330.802,4.764c-.068.042-.109.06-.139.088-.693.657-1.397,1.302-2.073,1.977-.825.824-1.177,1.826-1.147,3.002.041,1.629.35,3.194.976,4.693.671,1.606,1.371,3.199,2.057,4.798.095.222.182.447.273.67.018-.004.035-.008.053-.013V4.764ZM315.621,12.976c.089,0,.133.004.176,0,.606-.06,1.212-.118,1.818-.182.959-.101,1.669.272,2.127,1.118.147.272.274.554.422.826.117.215.23.438.38.629.697.89,1.274,1.847,1.677,2.906.02.053.052.1.1.191.021-.078.034-.108.036-.138.065-.861-.003-1.713-.181-2.556-.488-2.308-.902-4.627-1.099-6.98-.022-.264-.078-.489-.352-.624-.17-.084-.317-.226-.455-.362-.129-.127-.229-.142-.387-.039-.941.612-1.877,1.235-2.84,1.81-1.317.787-1.391,2.061-1.421,3.402ZM313.118,13.97c1.092.027,2.175.148,3.207.55,1.026.4,1.948.967,2.761,1.718-.104.032-.186.022-.262-.005-.726-.251-1.465-.281-2.22-.167-.917.138-1.774.454-2.613.834q-.452.205-.366.687c.006.032.023.062.039.105.513-.167,1.01-.355,1.521-.484.31-.078.646-.104.964-.082.423.03.798.404.871.784.088.458-.083.8-.538,1.045-.154.083-.324.138-.486.208-.056.024-.109.056-.225.117.153.008.233.004.309.018.458.085.93.128,1.369.271.703.228.937.6.961,1.343.001.032.01.063.018.105.039-.016.067-.019.083-.035.2-.2.403-.397.598-.603.947-1.002,1.481-2.164,1.386-3.572-.068-.999-.384-1.917-.886-2.776-.533-.912-1.142-1.201-2.189-1.064-.56.073-1.123.125-1.683.193-.762.092-1.524.18-2.283.291-.383.056-.38.078-.337.518ZM315.623,36.079c.111.013.186.03.261.03,1.539.001,3.078.005,4.616-.007.115,0,.272-.088.336-.184,1.483-2.21,2.958-4.426,4.426-6.646.07-.105.086-.261.087-.394.002-.486-.031-.972-.013-1.457.009-.226.107-.448.164-.672-.02-.015-.041-.029-.061-.044-.292.35-.608.683-.869,1.055-.441.63-.842,1.288-1.268,1.928-.604.905-1.297,1.726-2.232,2.31-.816.51-1.71.796-2.666.872-.292.023-.497.116-.678.367-.63.876-1.288,1.731-1.935,2.595-.052.069-.097.143-.169.248ZM324.264,36.073c.039.013.064.028.088.028.451.004.902-.003,1.352.013.221.008.317-.067.386-.286.882-2.774,1.738-5.558,2.873-8.244.029-.07.038-.154.036-.23-.016-.58-.358-1.065-.924-1.221-.309-.085-.644-.12-.965-.107-.883.038-1.494.542-1.593,1.405-.069.598.013,1.215.032,1.823.016.529.112,1.069.042,1.586-.122.897-.31,1.789-.534,2.667-.22.861-.521,1.7-.793,2.568ZM322.467,18.88c.006.102-.001.156.014.203.213.682.395,1.376.651,2.041.405,1.053,1.165,1.774,2.222,2.178.445.17.894.332,1.332.519.566.242,1.122.505,1.712.772.578-.89,1.187-1.781,1.74-2.704.174-.29.204-.668.289-1.009.036-.146-.027-.217-.193-.236-1.678-.194-3.312-.078-4.865.652-.15.07-.232.056-.248-.128-.033-.387-.073-.774-.111-1.161-.043-.436-.087-.872-.134-1.349-.793.271-1.58.302-2.407.222ZM323.133,7.926c-.448.902-1.131.899-1.925.583.041.367.067.682.114.994.237,1.579.467,3.159.726,4.735.187,1.139.525,2.256.497,3.426-.004.181.095.211.234.193.576-.074,1.15-.154,1.726-.228.263-.034.294-.181.283-.423-.044-1.024-.061-2.05-.089-3.075-.009-.342.041-.701-.045-1.023-.4-1.481-.837-2.952-1.265-4.426-.068-.234-.155-.462-.255-.757ZM318.732,6.149c-.172.441.311.961.715.859.19-.048.265.032.38.129.465.391.916.804,1.417,1.143.239.162.578.246.87.241.556-.01.793-.439.926-.912.174-.616.133-1.24.042-1.866-.02-.14.017-.31.085-.436.153-.287.208-.582.142-.895-.036-.17-.117-.313-.363-.265.028.127.077.239.067.345-.008.089-.068.206-.14.245-.052.028-.19-.031-.24-.091-.089-.106-.138-.245-.206-.368-.269-.484-.799-.587-1.205-.22-.332.301-.715.423-1.157.445-.231.011-.473.074-.681.174-.36.173-.481.544-.34.921.056.148.15.286.184.438.021.093-.01.258-.074.295-.079.045-.219.005-.324-.026-.044-.013-.065-.101-.097-.154ZM317.725,32.919c-1.234.064-2.267-.315-3.208-1.007-1.202,1.28-2.256,2.638-3.157,4.163.112.017.171.034.23.034,1.193.002,2.386.007,3.578-.007.115-.001.262-.098.336-.195.693-.905,1.375-1.819,2.058-2.731.046-.061.082-.128.162-.256ZM314.356,31.786c-.339-.264-.653-.539-.997-.769-.684-.456-1.318-.359-1.812.297-.248.328-.444.701-.627,1.072-.38.767-.722,1.553-1.107,2.318-.233.463-.519.9-.8,1.382.11.01.194.023.278.024.53.002,1.061-.005,1.591.004.18.003.281-.065.382-.215.554-.82,1.102-1.645,1.692-2.439.426-.572.914-1.098,1.4-1.674ZM311.103,12.368c-.626.046-1.224.142-1.772.442-1.01.553-1.164,1.548-.379,2.376.286.301.593.59.828.928.142.205.287.244.479.193,1.262-.34,2.153-1.12,2.618-2.34.238-.624-.054-1.181-.692-1.388-.347-.113-.722-.143-1.084-.211ZM325.319,29.519c-1.449,2.176-2.897,4.351-4.365,6.556.104.019.146.033.188.033.902.001,1.803-.001,2.704.004.167,0,.223-.089.273-.227.487-1.355.904-2.729,1.199-4.139.154-.734.15-1.47,0-2.226ZM308.93,20.731c.097-.013.149-.015.198-.028,1.875-.463,3.75-.92,5.622-1.393.537-.136,1.074-.287,1.591-.484.4-.153.569-.466.527-.773-.053-.381-.308-.69-.721-.745-.295-.039-.625-.028-.906.063-1.863.602-3.717,1.231-5.572,1.855-.078.026-.183.073-.21.138-.181.439-.345.886-.529,1.368ZM310.351,6.392c.115.019.19.034.266.043.497.063.591.022.736-.447.093-.298.259-.504.516-.668.145-.093.28-.221.378-.362.064-.091.055-.234.078-.354-.421.45-.811.679-1.103.593.095-.226.495-.146.514-.515-.527.235-1.009.45-1.491.665-.293.131-.435.373-.491.678-.28,1.526-.562,3.053-.841,4.579-.064.351-.119.704-.172,1.016.665.167,1.291.325,1.934.486,0-.088.002-.184,0-.28-.036-1.21-.043-2.423-.122-3.63-.039-.587.11-1.2-.203-1.804ZM312.989,3.677c.408,0,.766-.136,1.048-.43.543-.566.72-1.239.532-2.002-.308-1.254-1.865-1.355-2.513-.625-.393.442-.571.961-.536,1.534.058.948.632,1.521,1.468,1.522ZM313.544,16.914c1.557-.731,3.104-1.296,4.85-1.043-.016-.051-.055-.056-.084-.076-1.466-1.041-3.084-1.619-4.895-1.637-.286-.003-.45.059-.583.34-.155.328-.404.611-.631.94.79.165,1.15.733,1.342,1.477ZM309.565,19.058c.161-.046.261-.071.359-.104.961-.324,1.922-.649,2.883-.973.706-.238.718-.239.572-.967-.13-.647-.413-1.184-1.115-1.38-.179-.05-.314-.027-.46.096-.475.398-1.013.679-1.633.764-.167.023-.184.099-.203.24-.079.593-.171,1.185-.265,1.776-.026.163-.079.321-.137.549ZM319.107,6.233c-.101-.256-.179-.438-.247-.624-.137-.378-.027-.7.255-.961.266-.246.607-.334.955-.33.416.005.749-.143,1.055-.412.474-.416,1.132-.284,1.447.274.071.125.14.25.24.429,0-1.167-.891-2.267-1.912-2.435-1.05-.173-2.323.574-2.658,1.56-.279.82.131,2.105.862,2.498ZM307.403,36.111c.371,0,.743-.008,1.114.003.182.005.287-.065.385-.215.665-1.017,1.217-2.092,1.684-3.213.053-.127.112-.225-.045-.337-.146-.104-.236-.084-.364.025-.613.522-1.235,1.033-1.853,1.549-.714.595-1.43,1.186-2.137,1.788-.088.075-.125.209-.186.316.104.028.207.078.312.081.362.01.725.004,1.088.004ZM305.998,23.419c.023.008.046.015.069.023.053-.057.11-.11.159-.17,1.719-2.1,2.783-4.465,2.952-7.206.025-.413-.17-.607-.476-.828-.082.189-.186.35-.224.526-.135.619-.272,1.24-.365,1.867-.255,1.717-.801,3.316-1.898,4.681-.294.365-.198.731-.216,1.108ZM309.028,12.865c-.023-.032-.046-.063-.069-.095-.066-.01-.132-.027-.198-.029-.827-.022-1.492.418-1.751,1.303-.216.74-.338,1.513-.432,2.28-.145,1.191-.253,2.384-.54,3.555-.081.329-.012.695-.012,1.045.155-.18.264-.369.352-.568.539-1.211.675-2.512.856-3.806.093-.662.216-1.321.373-1.97.051-.213.212-.462.395-.565.232-.13.33-.296.432-.514.091-.195.247-.362.388-.53.046-.055.136-.073.206-.107ZM305.991,18.92l.056.008c.023-.089.057-.177.068-.268.126-1.033.243-2.068.375-3.101.086-.674.193-1.346.514-1.96.325-.621.832-1.002,1.537-.996.534.004,1.042-.046,1.535-.252.081-.034.171-.044.257-.065-.847-.414-1.712-.545-2.604-.29-1.146.329-1.739,1.131-1.739,2.317,0,1.442,0,2.884,0,4.325v.281ZM306.065,22.218c.063-.08.128-.159.189-.241,1.003-1.358,1.484-2.912,1.721-4.561.111-.775.165-1.568.586-2.265.021-.035.017-.102,0-.143-.126-.292-.259-.581-.41-.917-.089.098-.225.201-.293.337-.102.203-.188.424-.223.647-.171,1.081-.31,2.167-.487,3.246-.155.945-.387,1.879-.921,2.687-.257.388-.241.77-.161,1.21ZM306.016,24.564c.11-.101.176-.156.237-.217,1.057-1.058,1.837-2.304,2.462-3.652.564-1.216.99-2.473,1.097-3.822.032-.401-.146-.786-.463-.925-.007.073-.012.141-.02.209-.061.508-.092,1.022-.189,1.523-.427,2.213-1.44,4.144-2.901,5.841-.272.316-.259.623-.222,1.044ZM324.701,12.423c.016,0,.033,0,.049-.001.008-.092.023-.184.024-.276.011-.841.009-1.682.036-2.523.008-.236-.061-.393-.227-.552-.516-.498-.51-.504-.126-1.086.005-.007.015-.014.015-.021-.003-.092.026-.205-.017-.271-.285-.437-.584-.864-.883-1.292-.036-.052-.098-.085-.149-.127-.03.065-.081.127-.087.194-.026.299-.048.599-.055.899-.004.179-.011.369.04.537.274.895.574,1.782.85,2.676.189.611.353,1.229.528,1.844ZM309.971,41.154c.015.003.029.006.044.009,0,.084,0,.168,0,.253,0,.717,0,1.434,0,2.151,0,.115.008.238.16.201.073-.018.179-.118.18-.181.012-.92.009-1.841.004-2.762,0-.059-.035-.146-.08-.172-.179-.102-.431,0-.516.198-.255.593-.506,1.187-.76,1.779-.081.19-.168.378-.274.615-.196-.458-.37-.862-.543-1.267-.163-.382-.338-.759-.483-1.148-.093-.25-.285-.221-.455-.181-.065.015-.129.181-.134.281-.016.344-.006.69-.006,1.035,0,.531.004,1.062-.002,1.593-.002.182.087.255.242.2.054-.019.095-.152.095-.233.007-.799.004-1.598.004-2.477.051.115.069.154.085.193.324.774.643,1.55.976,2.32.038.087.15.199.225.196.078-.002.18-.115.223-.203.127-.262.23-.535.343-.804.224-.533.449-1.067.673-1.6ZM314.396,41.101c.086.119.137.186.184.256.509.754,1.013,1.512,1.534,2.258.06.086.213.106.323.157.037-.088.104-.176.105-.265.008-.876.006-1.751.003-2.627,0-.111.019-.239-.16-.246-.193-.007-.184.123-.184.249-.002.584-.001,1.167-.001,1.751,0,.145,0,.29,0,.435-.105-.047-.154-.104-.196-.166-.429-.638-.856-1.277-1.285-1.915-.064-.095-.113-.221-.203-.273-.103-.06-.244-.064-.369-.067-.032,0-.094.099-.094.153-.006.937-.007,1.875.002,2.812,0,.055.104.158.145.152.071-.012.153-.08.187-.147.032-.064.008-.156.008-.235,0-.74,0-1.479,0-2.282ZM312.812,38.384c.327-.26.388-.567.262-.905-.133-.357-.431-.499-.79-.523-.255-.017-.512-.014-.768-.024-.155-.006-.22.058-.219.219.005.903.004,1.806.001,2.709,0,.142.047.211.2.208.301-.007.602.009.902-.006.538-.027.885-.362.906-.852.015-.364-.163-.62-.494-.827ZM318.852,37.447c.016-.007.031-.014.047-.021.049.07.1.139.148.21.51.755,1.022,1.508,1.525,2.267.093.14.21.211.35.147.061-.028.097-.171.098-.263.007-.859.005-1.717.004-2.576,0-.29-.045-.318-.343-.214v2.499c-.161-.241-.282-.422-.403-.602-.41-.609-.81-1.225-1.241-1.818-.068-.094-.271-.104-.415-.118-.026-.003-.098.164-.099.254-.008.859-.006,1.717-.004,2.576,0,.296.035.318.333.229v-2.568ZM326.736,42.206c-.005.882.748,1.624,1.648,1.626.887.001,1.665-.757,1.664-1.622,0-.866-.773-1.625-1.66-1.629-.89-.005-1.647.741-1.652,1.626ZM325.16,40.11c.534-.05,1.058-.043,1.555-.158.627-.145,1.05-.766,1.06-1.396.011-.694-.372-1.271-1.008-1.497-.521-.185-1.059-.124-1.607-.115v3.167ZM315.98,36.917v3.12c.265.087.326-.025.324-.254-.008-.743-.004-1.486-.002-2.228,0-.094.01-.188.017-.314.297.014.573-.001.838.045.403.071.598.329.581.698-.016.359-.25.583-.657.628-.15.017-.3.032-.496.052.323.434.622.816.898,1.215.136.196.292.218.535.152-.281-.378-.546-.736-.82-1.105.069-.02.117-.033.165-.049.47-.152.741-.513.722-.959-.02-.48-.321-.862-.817-.936-.415-.062-.841-.046-1.287-.066ZM310.956,40.028c-.034-.09-.064-.179-.1-.265-.368-.86-.739-1.72-1.106-2.58-.056-.132-.098-.253-.287-.254-.192-.001-.232.123-.288.254-.37.869-.742,1.738-1.112,2.607-.033.077-.055.159-.083.243.222.081.341.021.414-.177.079-.215.164-.431.277-.629.05-.087.173-.177.268-.183.343-.022.689-.002,1.034-.012.161-.005.239.066.292.207.079.206.184.403.255.611.075.219.208.262.437.179ZM321.377,40.024c.296.12.403-.034.453-.241.141-.587.463-.807,1.101-.776.508.025.811.133.92.639.015.068.06.128.08.196.068.23.212.274.424.192-.004-.036-.001-.064-.011-.086-.409-.957-.816-1.914-1.237-2.866-.031-.071-.16-.138-.241-.135-.081.003-.198.077-.233.151-.167.35-.311.711-.463,1.068-.262.615-.524,1.23-.793,1.86ZM320.726,40.634c-.221,0-.442.005-.662-.002-.159-.005-.22.061-.219.219.004.902.004,1.803,0,2.705,0,.155.052.226.215.224.442-.006.883.005,1.325-.01.068-.002.133-.109.2-.167-.065-.051-.127-.143-.194-.147-.308-.016-.618-.015-.927-.005-.177.006-.263-.045-.254-.236.011-.212.009-.424,0-.636-.006-.168.052-.238.229-.23.291.012.583.004.874.003.114,0,.266.016.227-.158-.015-.068-.151-.147-.236-.153-.29-.02-.582-.012-.874-.008-.158.003-.224-.064-.22-.221.006-.212.006-.424,0-.636-.005-.161.064-.217.222-.213.318.008.636.012.953-.007.069-.004.132-.11.198-.168-.065-.051-.127-.139-.196-.145-.219-.019-.441-.007-.662-.007ZM313.694,43.736c-.037-.101-.063-.185-.097-.264-.372-.868-.74-1.738-1.124-2.601-.044-.099-.163-.195-.268-.228-.179-.057-.231.102-.288.236-.369.87-.741,1.738-1.111,2.608-.035.083-.061.17-.092.255.237.086.354.008.418-.187.036-.109.107-.207.132-.317.097-.422.343-.58.775-.517.277.04.631-.082.826.05.206.14.264.498.387.76.004.008.007.016.009.025.062.218.201.271.433.18ZM313.728,40.04c.057.011.091.024.125.024.451.002.902.009,1.352-.004.075-.002.197-.082.211-.145.04-.172-.106-.166-.222-.167-.301-.002-.601-.006-.902,0-.165.003-.246-.054-.24-.229.007-.221.009-.443,0-.663-.007-.175.064-.229.235-.223.318.011.637.009.954-.004.052-.002.101-.084.152-.13-.051-.054-.095-.141-.155-.153-.119-.025-.246-.008-.37-.008-.855,0-.851,0-.818-.859.006-.166.052-.238.23-.231.309.012.619.013.928-.004.075-.004.145-.095.218-.146-.069-.055-.137-.155-.208-.158-.406-.016-.813.005-1.219-.013-.24-.01-.299.083-.297.307.01.84.003,1.681.005,2.521,0,.095.014.19.021.284ZM318.936,41.797h-.002c0,.327.011.655-.003.982-.016.408-.264.69-.607.719-.462.04-.714-.145-.81-.603-.023-.111-.033-.227-.034-.341-.003-.566.004-1.133-.008-1.699-.002-.074-.081-.192-.146-.21-.153-.042-.188.074-.188.208.002.628-.016,1.258.007,1.885.024.662.459,1.09,1.061,1.094.592.003,1.047-.428,1.068-1.056.021-.645.01-1.292-.002-1.938-.001-.068-.108-.134-.166-.201-.057.068-.158.134-.162.205-.018.318-.008.637-.008.956ZM328.077,40.067c.519,0,1.004-.006,1.489.003.222.004.259-.094.189-.301-.097-.007-.201-.018-.305-.02-.283-.003-.566.006-.848-.008-.067-.003-.184-.075-.187-.12-.016-.322-.009-.646-.009-.995h1.326c-.007-.11-.011-.191-.018-.298h-1.294v-1.077c.405,0,.792.007,1.178-.007.064-.002.125-.096.188-.148-.062-.054-.121-.151-.185-.154-.335-.017-.671-.009-1.007-.01-.172,0-.343,0-.518,0v3.135ZM322.147,42.212c0,.443.003.885-.001,1.328-.001.159.042.246.225.242.398-.01.796.005,1.194-.01.074-.003.145-.1.217-.154-.07-.056-.137-.154-.211-.16-.264-.02-.531-.021-.795-.004-.225.014-.288-.072-.285-.288.01-.761.004-1.523.002-2.284,0-.111.019-.239-.16-.246-.193-.007-.184.124-.184.249-.002.443,0,.885,0,1.328ZM310.971,31.856c.375-.63.747-1.229,1.55-1.327-.474-.238-.947-.322-1.443-.164-.35.111-.592.337-.625.711-.032.362.209.577.518.78ZM307.099,37.25c0,.127,0,.222,0,.317,0,.743-.001,1.485.001,2.228,0,.125-.042.278.179.273.204-.005.162-.148.162-.263.002-.752,0-1.503.002-2.255,0-.094.008-.187.013-.3.194,0,.362.013.527-.007.062-.007.114-.091.171-.14-.05-.056-.098-.16-.15-.161-.486-.013-.972-.013-1.457,0-.054.001-.106.099-.159.152.053.052.102.142.161.149.172.02.348.007.55.007ZM325.578,40.963c0,.14,0,.236,0,.331,0,.717-.003,1.433.003,2.15.001.131-.078.332.177.331.247-.001.151-.196.156-.314.013-.283.004-.566.004-.849,0-.537,0-1.075,0-1.648.191,0,.359.018.521-.008.076-.012.139-.106.208-.163-.064-.052-.128-.148-.194-.15-.459-.013-.919-.013-1.379,0-.065.002-.127.098-.191.15.068.057.129.15.204.164.144.026.296.008.49.008ZM324.482,42.212c0-.442,0-.885,0-1.327,0-.127.014-.255-.18-.25-.177.004-.164.122-.164.239,0,.885,0,1.769,0,2.654,0,.127-.014.255.18.25.2-.006.162-.148.163-.265.003-.433.001-.867,0-1.301ZM324.821,18.155c-.022-.007-.041-.02-.055-.016-.688.214-1.39.308-2.11.286-.049-.001-.102.087-.152.133.053.051.1.137.16.148.655.115,1.295.023,1.933-.143.252-.066.312-.184.225-.408ZM311.205,7.928c.199-.748.566-1.45.547-2.26-.076.059-.132.129-.162.208-.214.57-.412,1.145-.637,1.711-.1.252.007.315.253.341ZM324.843,17.803c-.746.084-1.417.158-2.088.238-.072.009-.139.054-.209.082.063.041.124.114.188.117.657.03,1.302-.042,1.923-.271.066-.024.114-.1.186-.166ZM310.718,6.635v.891c.022.003.045.006.067.009.107-.293.214-.587.328-.9h-.395ZM312.049,4.4c.339-.021.406-.115.457-.612-.076-.019-.155-.039-.249-.063-.071.231-.135.44-.208.675ZM312.21,6.09c.202-.183.15-.443-.116-.703.04.242.075.455.116.703ZM312.509,5.711c.04-.012.08-.023.12-.035-.063-.19-.125-.38-.188-.569-.032.01-.064.02-.096.03-.091.233.119.38.164.574Z"/>
      <path class="st0" d="M322.083,17.521c-.038-.09-.086-.178-.113-.271-.434-1.464-.874-2.927-1.538-4.307-.229-.476-.508-.929-.797-1.372-.128-.196-.164-.375-.126-.593.099-.572.189-1.146.29-1.761-.139-.017-.258-.022-.372-.049-.079-.018-.177-.047-.22-.106-.093-.129.06-.7.257-.853-.041.28-.075.509-.111.751.117.025.201.048.286.061.352.052.357.052.302.413-.085.558-.181,1.114-.264,1.672-.012.08-.007.187.037.248.877,1.213,1.378,2.599,1.849,3.998.208.618.385,1.247.573,1.872.026.086.032.178.047.268-.033.009-.065.019-.098.028Z"/>
      <path class="st0" d="M322.221,9.89q-.478.169-.56-.325c-.062-.376.007-.456.378-.358.265.071.48.009.702-.119.319-.184.403-.143.483.214.012.051.016.105.021.157.031.325-.06.403-.376.327-.048-.012-.098-.017-.216-.036.158.319.291.591.427.861.051.103.128.198.153.306.024.102.037.276-.017.314-.158.109-.248-.023-.314-.162-.088-.187-.181-.371-.272-.556-.025.005-.05.01-.076.015,0,.355,0,.71,0,1.065,0,.097.02.2-.006.29-.027.093-.099.173-.151.259-.064-.088-.181-.175-.183-.266-.013-.458.004-.918.009-1.377.002-.199,0-.399,0-.61Z"/>
      <path class="st0" d="M312.095,39.756q-.43-.008-.431-.442c0-.071-.002-.141,0-.212.017-.615-.12-.523.621-.513.472.006.723.293.665.694-.037.257-.205.383-.435.434-.136.03-.28.027-.42.039Z"/>
      <path class="st0" d="M311.665,37.773c0-.574.018-.59.597-.517.332.042.516.214.522.492.007.301-.13.443-.49.51-.009.002-.017.003-.026.005-.577.101-.603.08-.603-.49Z"/>
      <path class="st0" d="M328.388,43.502c-.733,0-1.307-.56-1.307-1.277,0-.742.567-1.313,1.304-1.314.729,0,1.335.6,1.322,1.311-.013.716-.593,1.279-1.318,1.28Z"/>
      <path class="st0" d="M325.517,37.227c.35.03.696.024,1.026.096.585.126.929.672.885,1.328-.038.572-.467,1.01-1.054,1.076q-.89.1-.89-.791c0-.521.002-1.042.004-1.563,0-.026.01-.051.029-.145Z"/>
      <path class="st0" d="M309.464,37.346c.198.477.373.896.56,1.345h-1.132c.186-.437.368-.865.572-1.345Z"/>
      <path class="st0" d="M322.877,37.346c.206.495.38.914.561,1.35h-1.136c.189-.443.366-.859.575-1.35Z"/>
      <path class="st0" d="M312.201,41.05c.207.496.384.922.571,1.371h-1.151c.19-.449.37-.873.58-1.371Z"/>
    </g>
    <g>
      <g>
        <path class="st0" d="M268.006,36.606c.451-.39.862-.834,1.318-1.219.61-.515,1.935-1.565,2.695-.985.516.394.311.997.077,1.503-.042.091-.373.645-.319.701.89-.077,1.809-.366,2.625-.757.448-.215.921-.549,1.298-.891.33-.299.504-.519.929-.716s.965-.158,1.275.245c.471.615.182,1.191-.027,1.845,1.097.077,2.178-.259,3.152-.788.373-.202,1.363-.963,1.687-.983.222-.014.31.179.206.382-.375.733-2.754,1.736-3.52,1.893-.579.119-1.132.101-1.715.157-.139.047-.126.149-.199.239-.546.679-1.52,1.442-2.338.864-.625-.441-.479-1.31-.213-1.947-.64.423-1.307.704-2.046.845-.664.127-1.529.087-2.132.37-.537.252-.822.534-1.465.585-.465.037-1.418-.112-.693-.732.584-.5,1.297-.355,1.905-.588.384-.147.921-.91,1.033-1.335.203-.776-.562-.34-.863-.157-.915.555-1.87,1.591-2.616,2.4-.255.276-.884,1.117-1.234,1.146-.395.033-.252-.398-.181-.658.169-.617.482-1.256.722-1.845l-1.499,1.111c-.696.437-1.519.971-2.356.828-1.364-.234-.198-2.131-.221-3.007-.055-.064-.681.352-.774.414-.581.39-1.393,1.177-1.991,1.409-1.174.456-.501-1.433-.616-1.956-.04-.182-.632.229-.709.284-.971.689-1.662,1.656-2.523,2.441-.195.178-.39.316-.651.2-.197-.088-.131-.525-.098-.719.083-.496.295-.955.431-1.432-.972.598-2.047,1.099-3.175,1.19-.356.029-.728-.018-1.083.059-.107.032-.12.158-.178.231-.546.679-1.52,1.442-2.338.864-1.01-.713-.078-2.369.494-3.077.556-.688,1.774-1.409,2.366-.375.326.57.04,1.122-.133,1.687,1.097.078,2.178-.259,3.152-.788.477-.259.91-.61,1.388-.868.091-.18.322-.676.522-.693.076-.006.218.077.247.153.076.198-.153.729-.23.935-.182.487-.429.945-.587,1.444.684-.521,1.263-1.199,1.959-1.703.409-.296.919-.616,1.429-.455.674.214.308,1.405.272,1.944.667-.466,1.295-1.078,1.995-1.48.329-.189,1.028-.519,1.331-.182.266.296.184.519.109.882-.109.531-.362,1.147-.429,1.663-.082.632.456.462.806.338,1.315-.465,2.528-1.849,3.684-2.658,1.03-2.095,2.184-4.123,3.46-6.048.151-.227.569-.921.761-1.024.185-.099.619-.079.553.21-.051.224-.405.778-.537.999-1.39,2.321-2.689,4.423-3.874,6.904-.11.231-.214.468-.318.702ZM251.888,35.742c.058-.219.098-.755-.109-.881-.415-.253-.963.493-.779.949.074.182.56.6.706.417.064-.08.109-.341.139-.451.006-.022.041-.026.043-.034ZM277.45,35.742c.058-.219.098-.755-.109-.881-.412-.251-.964.488-.779.949.073.183.56.6.706.417.064-.08.109-.341.139-.451.006-.022.041-.026.043-.034ZM250.331,35.874c-.245.406-.754,1.262-.469,1.736.134.224.313.194.519.117.412-.153.747-.47,1.018-.832-.42-.26-.816-.556-1.067-1.022ZM275.894,35.874c-.244.409-.756,1.259-.469,1.736.134.224.313.194.519.117.412-.153.747-.47,1.018-.832-.42-.26-.816-.556-1.067-1.022Z"/>
        <g>
          <path class="st0" d="M235.013,36.148c-.514.417-1.023.849-1.566,1.221-.601.412-1.591,1.04-2.307.737-.221-.094-.543-.368-.585-.638-.188-1.21.223-1.995.521-3.074.018-.066.059-.164.041-.229-.729.901-1.387,1.918-2.232,2.701-.316.293-.634.551-1.048.647-.568.131-1.09-.06-1.028-.796.077-.913,1.175-2.646,2.062-2.734.472-.047.783.296,1.109.609.599-.859,1.17-1.75,1.728-2.644.768-1.232,1.484-2.577,2.284-3.772.168-.251.443-.755.764-.638.339.124.172.423.057.657-.252.515-.613,1.036-.887,1.557-.944,1.797-2.094,4.361-2.566,6.36-.083.351-.347,1.298.147,1.377.604.096,1.684-.724,2.183-1.101.914-.692,2.14-1.945,3.202-2.213.848-.214,1.367.486.726,1.256-.376.451-.803.558-1.343.597-.299.022-.544-.139-.595.291-.081.69.194,1.05.816,1.111,1.951.191,3.601-1.873,5.152-2.812.114-.069.521-.321.546-.039.019.209-.515.71-.666.854-1.037.983-2.845,2.358-4.208,2.569-1.098.17-2.658-.298-2.308-1.853ZM228.934,34.599c-.472.083-1.269,1.478-1.408,1.96-.142.492-.011.524.352.296.323-.203,1.386-1.216,1.558-1.55.102-.199.014-.35-.107-.514-.112-.152-.208-.225-.395-.192ZM237.286,34.653c-.09-.1-.731.313-.818.427-.014-.153-.208.133-.168.214.1.204.503-.012.634-.098.168-.111.374-.31.352-.543Z"/>
          <path class="st0" d="M245.493,34.379c-.375.029-.92-.257-.944-.716-.046-.88,1.452-1.428,2.073-1.581.518-.962,1.041-1.925,1.605-2.857.164-.271.335-.582.516-.836.148-.208.312-.45.576-.248.288.219-.081.698-.209.927-.53.952-1.135,1.857-1.62,2.84.37-.01.799-.132,1.159-.009.453.155.451.742-.09.648-.097-.017-.194-.115-.307-.092l-1.178.202c-.194.348-.378.709-.527,1.082,1.86-.327,3.731-1.294,5.17-2.625,1.106-1.023,1.931-2.373-.035-2.981-1.386-.429-3.308-.246-4.657.288-.966.382-2.548,1.38-3.006,2.429-.128.293-.133.923-.57.73-.326-.144-.11-.778-.002-1.024.726-1.656,3.431-3.067,5.032-3.222,1.301-.126,4.027-.213,4.84,1.166.921,1.563-1.064,3.167-2.082,3.916-1.51,1.112-2.982,1.71-4.783,1.968-.255.036-.245.076-.364.301-.288.544-.574,1.349-.783,1.946-.084.241-.344.917-.362,1.129-.011.138.101.181-.021.373-.223.35-.75.195-.671-.342.059-.406.433-1.306.59-1.73.119-.323.242-.648.369-.967.035-.089.31-.682.282-.711ZM246.186,32.975c-.063-.055-.693.35-.785.432-.05.045-.256.23-.212.299.026.041.506.135.582.077l.416-.809Z"/>
        </g>
      </g>
      <g>
        <path class="st0" d="M248.536,19.649l6.673-.005c.743.217.713,1.344-.053,1.492l-6.596-.003c-.715-.178-.74-1.281-.024-1.485Z"/>
        <g>
          <path class="st0" d="M257.429,6.094c.55.061.999.465,1.308.941.785.058,1.63-.06,2.407.005,2.493.21,3.495,3.837,1.58,5.643-1.173,1.106-2.565.688-3.987.762-.179.365-.499.685-.851.84-.077.034-.366.138-.429.138h-11.021v-.793h10.938c.459,0,.876-.637.876-1.114,0-.457-.407-1.114-.848-1.114h-10.965v-.793h11.048c.033,0,.255.071.306.09.507.188.898.65,1.085,1.193.649-.042,1.348.052,1.991-.002,1.887-.156,1.919-3.048.083-3.294l-2.09.003c-.103.466-.466.911-.852,1.122-.077.042-.432.187-.496.187h-11.076v-.793h10.993c.309,0,.681-.469.763-.777.158-.596-.217-1.45-.819-1.45h-10.938v-.793h10.993Z"/>
          <path class="st0" d="M246.491,8.382v-.763h10.633c.215,0,.34.408.204.621-.026.041-.146.142-.176.142h-10.66Z"/>
          <path class="st0" d="M246.491,12.898v-.763h10.66c.03,0,.15.101.176.142.136.213.011.621-.204.621h-10.633Z"/>
        </g>
        <g>
          <path class="st0" d="M246.436,18.94v-.793h10.91c.061,0,.305-.102.371-.141.665-.387.702-1.415.095-1.898-.058-.046-.302-.188-.356-.188h-10.979s-.042-.043-.042-.046v-.748h11.104c.1,0,.474.184.577.25,1.039.673,1.127,2.297.199,3.136-.2.18-.658.428-.914.428h-10.965Z"/>
          <path class="st0" d="M246.491,17.414v-.763h10.66c.03,0,.15.101.176.142.07.109.084.277.039.399-.028.076-.202.221-.27.221h-10.605Z"/>
        </g>
      </g>
      <g>
        <path class="st0" d="M240.683,23.12c.566.084.855.84.431,1.298l-.222.136c.671.152.755,1.271.157,1.592-.039.021-.286.117-.31.117h-1.566v-3.143h1.511ZM240.378,23.608c-.21-.028-.464.021-.679,0v.763h.707c.041,0,.22-.093.254-.132.231-.262.003-.592-.282-.63ZM240.378,24.828c-.214-.025-.461.018-.679,0v.915h.846c.194,0,.356-.255.341-.464-.021-.3-.264-.423-.507-.451Z"/>
        <path class="st0" d="M244.287,23.12c.885.115,1.061,1.554.208,1.876l.61,1.267h-.596l-.568-1.159h-.471v1.159h-.555v-3.143c.434.041.949-.055,1.372,0ZM243.469,24.615c.351-.07.977.116,1.023-.447.019-.229-.157-.53-.372-.53h-.652v.976Z"/>
        <path class="st0" d="M251.385,23.12c.883.115,1.065,1.555.208,1.876l.61,1.267h-.596c-.118-.115-.522-1.159-.582-1.159h-.457v1.159h-.555v-3.143c.434.041.949-.055,1.372,0ZM250.567,24.615c.36-.07,1.003.119,1.027-.474.009-.217-.173-.502-.375-.502h-.652v.976Z"/>
        <polygon class="st0" points="248.543 23.12 248.543 23.638 247.046 23.638 247.046 24.371 248.39 24.371 248.432 24.416 248.432 24.889 247.046 24.889 247.046 25.713 248.654 25.713 248.654 26.262 246.491 26.262 246.491 23.12 248.543 23.12"/>
        <polygon class="st0" points="272.553 23.12 272.553 23.638 271.056 23.638 271.056 24.371 272.4 24.371 272.442 24.416 272.442 24.889 271.056 24.889 271.056 25.713 272.664 25.713 272.664 26.262 270.501 26.262 270.501 23.12 272.553 23.12"/>
        <path class="st0" d="M262.849,24.035l-.509.12c-.048-.018-.055-.148-.085-.213-.16-.337-.491-.425-.807-.305-.542.206-.613,1.098-.429,1.604.277.761,1.163.694,1.375-.079.052-.009.48.181.5.215.047.083-.204.462-.265.535-.519.621-1.506.58-1.981-.08-.439-.61-.433-1.744.04-2.331.634-.785,1.995-.599,2.162.533Z"/>
        <path class="st0" d="M263.708,26.262l1.011-3.145.594.006.974,3.139h-.61l-.156-.612-1.062.005-.141.607h-.61ZM265.372,25.133l-.374-1.404-.374,1.404h.749Z"/>
        <path class="st0" d="M257.692,26.262h-.568c-.087-.179-.115-.398-.177-.592-.031-.048-.927-.011-1.058-.005l-.165.597h-.582l.96-3.145c.115.025.581-.04.635.032l.956,3.113ZM256.029,25.133h.776l-.375-1.373-.402,1.373Z"/>
        <polygon class="st0" points="269.337 23.12 269.337 23.638 268.02 23.638 267.978 23.684 267.978 24.386 268.02 24.432 269.17 24.432 269.17 24.95 267.978 24.95 267.978 26.262 267.451 26.262 267.451 23.12 269.337 23.12"/>
        <polygon class="st0" points="234.736 25.713 235.845 25.713 235.845 26.262 234.153 26.262 234.153 23.135 234.195 23.089 234.694 23.089 234.736 23.135 234.736 25.713"/>
        <rect class="st0" x="236.981" y="23.12" width=".555" height="3.143"/>
        <rect class="st0" x="253.45" y="23.12" width=".527" height="3.143"/>
        <rect class="st0" x="258.69" y="24.554" width=".527" height=".61"/>
        <path class="st0" d="M254.282,22.265c.012.053-.02.061-.041.092-.035.051-.333.412-.359.429-.105.066-.283.012-.404.029l.236-.549h.568Z"/>
        <path class="st0" d="M272.026,22.265c.012.053-.02.061-.041.092-.055.079-.299.39-.359.429-.101.064-.261.014-.376.029-.034-.036.188-.458.194-.549h.582Z"/>
      </g>
    </g>
    <g>
      <path class="st0" d="M69.199,22.051c-1.022-1.027-1.533-2.381-1.533-4.06s.51-3.033,1.533-4.06c1.022-1.027,2.375-1.541,4.06-1.541,1.376,0,2.593.35,3.651,1.048l.308,2.173h-.139c-.226-.884-.683-1.565-1.371-2.042s-1.505-.716-2.449-.716c-1.346,0-2.422.468-3.228,1.402-.806.935-1.209,2.173-1.209,3.714s.398,2.781,1.194,3.72c.796.94,1.846,1.426,3.151,1.456,1.15,0,2.111-.312,2.881-.939.832-.678,1.335-1.782,1.51-3.313h.123l-.185,2.419c-.935,1.531-2.378,2.296-4.329,2.296-1.623-.01-2.945-.529-3.967-1.556Z"/>
      <path class="st0" d="M88.865,23.237h.123v.154h-3.467v-.154h.139c.216,0,.377-.069.485-.208.108-.138.162-.27.162-.392s-.021-.247-.062-.37l-.985-2.619h-4.16l-1.032,2.634c-.041.124-.062.244-.062.362s.054.247.162.385c.108.139.27.208.485.208h.139v.154h-3.097v-.154h.139c.256,0,.508-.081.755-.246s.447-.406.601-.725l3.482-8.289c.38-.833.57-1.36.57-1.587h.139l4.129,9.876c.144.318.339.56.586.725.246.164.503.246.77.246ZM81.286,19.185h3.79l-1.849-4.945-1.941,4.945Z"/>
      <path class="st0" d="M89.435,22.759c-.031-.143-.046-.421-.046-.831s.077-.848.231-1.31h.139c-.01.113-.015.226-.015.339,0,.627.19,1.148.57,1.565s.883.623,1.51.623c.648,0,1.179-.194,1.595-.586.416-.39.624-.88.624-1.471s-.2-1.071-.601-1.441l-2.958-2.742c-.554-.514-.832-1.135-.832-1.864s.244-1.353.732-1.872c.488-.519,1.147-.779,1.98-.779.39,0,.832.051,1.325.154h.601v1.896h-.139c0-.483-.167-.868-.5-1.156-.334-.287-.763-.431-1.286-.431s-.963.174-1.318.524c-.354.349-.532.785-.532,1.309s.206.977.616,1.357l3.035,2.803c.513.473.77,1.12.77,1.941s-.262,1.497-.786,2.026c-.523.529-1.222.794-2.095.794-.452,0-.932-.069-1.441-.208-.508-.138-.901-.351-1.179-.639Z"/>
      <path class="st0" d="M106.536,23.237h.123v.154h-3.467v-.154h.139c.216,0,.377-.069.485-.208.108-.138.162-.27.162-.392s-.021-.247-.062-.37l-.985-2.619h-4.16l-1.032,2.634c-.041.124-.062.244-.062.362s.054.247.162.385c.108.139.27.208.485.208h.139v.154h-3.097v-.154h.139c.256,0,.508-.081.755-.246s.447-.406.601-.725l3.482-8.289c.38-.833.57-1.36.57-1.587h.139l4.129,9.876c.144.318.339.56.586.725.246.164.503.246.77.246ZM98.956,19.185h3.79l-1.849-4.945-1.941,4.945Z"/>
      <path class="st0" d="M64.415,26.977c0-.247-.087-.459-.262-.639-.174-.179-.38-.275-.616-.285h-2.927v9.228c.01.267.11.493.3.678.19.184.419.277.686.277h.2v.154h-3.374v-.154h.201c.267,0,.495-.093.685-.277.19-.186.29-.406.301-.662v-9.244h-2.928c-.246.01-.454.105-.624.285-.17.181-.255.392-.255.639v.262l-.154.015v-1.941c.154.061.421.123.801.184.38.063.73.093,1.048.093h5.207c.503,0,.922-.039,1.256-.115s.537-.13.609-.162v1.941l-.154-.015v-.262Z"/>
      <path class="st0" d="M68.652,26.083h-.986v9.183c0,.267.095.495.285.686.19.189.424.285.701.285h.185l.016.154h-3.374v-.154h.2c.267,0,.495-.093.686-.277.19-.186.29-.411.3-.678v-8.551c-.011-.267-.11-.495-.3-.685-.191-.191-.419-.286-.686-.286h-.2v-.154h4.159c.935,0,1.669.26,2.203.779s.801,1.191.801,2.019-.254,1.54-.762,2.141c-.508.601-1.127.901-1.857.901.154.071.337.213.547.423.211.211.398.43.562.656.883,1.263,1.458,2.041,1.725,2.333.267.293.457.494.57.602.113.108.236.213.37.315.133.103.266.186.401.247.298.144.616.216.955.216v.154h-.847c-.442,0-.853-.079-1.232-.238-.381-.159-.665-.325-.855-.494-.191-.169-.355-.334-.493-.493s-.522-.691-1.148-1.595c-.626-.903-.991-1.419-1.094-1.548-.103-.128-.211-.253-.323-.377-.328-.349-.657-.523-.986-.523v-.154c.082.01.19.015.323.015s.298-.005.493-.015c1.273-.031,2.074-.565,2.404-1.602.061-.206.092-.399.092-.578v-.347c-.021-.687-.2-1.243-.539-1.664s-.796-.647-1.371-.677c-.246-.01-.555-.016-.925-.016Z"/>
      <path class="st0" d="M75.338,36.236c.267,0,.495-.095.686-.285.19-.191.29-.419.3-.686v-8.551c-.011-.267-.11-.493-.3-.678-.191-.184-.419-.277-.686-.277h-.2v-.154h3.374v.154h-.201c-.267,0-.495.093-.685.277-.191.186-.291.411-.301.678v8.551c0,.267.098.495.293.686.195.189.426.285.693.285h.201v.154h-3.374v-.154h.2Z"/>
      <path class="st0" d="M90.144,36.236h.123v.154h-3.467v-.154h.139c.216,0,.377-.069.485-.208.108-.138.162-.27.162-.392s-.021-.247-.062-.37l-.985-2.619h-4.16l-1.032,2.634c-.041.124-.062.244-.062.362s.054.247.162.385c.108.139.27.208.485.208h.139v.154h-3.097v-.154h.139c.256,0,.508-.081.755-.246s.447-.406.601-.725l3.482-8.289c.38-.833.57-1.36.57-1.587h.139l4.129,9.876c.144.318.339.56.586.725.246.164.503.246.77.246ZM82.564,32.184h3.79l-1.849-4.945-1.941,4.945Z"/>
      <path class="st0" d="M99.919,27.092c1.022.992,1.533,2.293,1.533,3.906s-.512,2.915-1.533,3.906c-1.022.992-2.355,1.487-3.998,1.487h-5.223v-.154h.2c.267,0,.495-.095.686-.285.19-.191.29-.419.3-.686v-8.627c0-.247-.1-.455-.3-.624-.201-.169-.429-.255-.686-.255h-.185l-.015-.154h5.223c1.643,0,2.976.496,3.998,1.487ZM92.886,26.068v9.86h3.035c.863,0,1.626-.204,2.288-.616.663-.411,1.176-.989,1.541-1.734.364-.743.547-1.604.547-2.58,0-1.478-.403-2.671-1.209-3.575-.806-.903-1.862-1.355-3.166-1.355h-3.035Z"/>
      <path class="st0" d="M112.391,36.236h.123v.154h-3.467v-.154h.139c.216,0,.377-.069.485-.208.108-.138.162-.27.162-.392s-.021-.247-.062-.37l-.985-2.619h-4.16l-1.032,2.634c-.041.124-.062.244-.062.362s.054.247.162.385c.108.139.27.208.485.208h.139v.154h-3.097v-.154h.139c.256,0,.508-.081.755-.246s.447-.406.601-.725l3.482-8.289c.38-.833.57-1.36.57-1.587h.139l4.129,9.876c.144.318.339.56.586.725.246.164.503.246.77.246ZM104.811,32.184h3.79l-1.849-4.945-1.941,4.945Z"/>
    </g>
    <g>
      <g>
        <path class="st0" d="M177.458,11.194l-1.063,3.677.739.286c.671-1.618,1.156-2.447,2.87-2.197l1.821.265-1.819,10.206c-.081.454-.479.782-.937.772l-1.301-.028-.02.827s2.078.138,3.361.369c1.284.231,3.28.824,3.28.824l.267-.782-1.229-.427c-.434-.151-.694-.596-.613-1.05l1.819-10.206,1.8.386c1.694.363,1.863,1.309,1.933,3.06l.792-.011.273-3.819s-3.656-.423-6.027-.849c-2.371-.426-5.946-1.302-5.946-1.302Z"/>
        <path class="st0" d="M154.508,25.06c-.465.038-.894-.256-1.011-.694s-2.45-9.152-2.45-9.152c-.117-.438.113-.888.541-1.063l1.216-.494-.331-.746s-1.982.704-3.268,1.01c-1.286.306-3.385.571-3.385.571l.084.805,1.319-.109c.465-.038.894.256,1.011.694l2.45,9.152c.117.438-.113.888-.541,1.063l-1.216.494.331.746s1.982-.704,3.268-1.01c1.286-.306,3.385-.571,3.385-.571l-.084-.805-1.319.109Z"/>
        <path class="st0" d="M170.997,11.382c-1.051.032-2.149-.053-2.149-.053l-.103.764.896.11c.637.078.879.557.892,1.017l.214,7.049-7.047-8.84s-1.268.094-2.35.127c-1.082.032-2.443.017-2.443.017l.023.781c1.257.03,1.794.251,1.818,1.052l.288,9.617c.014.46-.198.953-.83,1.069l-.888.163.148.756s1.09-.15,2.141-.181c1.051-.032,2.149.053,2.149.053l.103-.764-.896-.11c-.637-.078-.879-.557-.892-1.017l-.266-8.874,8.415,10.571,1.688-.051-.341-11.449c-.014-.46.198-.953.83-1.069l.888-.163-.148-.756s-1.09.15-2.141.181Z"/>
        <path class="st0" d="M144.67,24.354c.135,1.652-.312,3.327-2.004,4.03-2.586,1.074-4.661.042-6.082-3.381-1.575-3.793-1.181-6.108.98-7.006,2.361-.981,4.396.19,5.377,2.551l.843-.35-1.871-4.503-.821.341.353.851c-.886-.211-2.612-.424-4.558.384-3.377,1.403-5.211,5.057-3.656,8.801,1.598,3.846,5.233,5.336,9.111,3.726,2.677-1.112,3.565-2.835,3.308-5.85l-.981.407Z"/>
        <path class="st0" d="M200.153,17.217c-3.094-1.73-7.12-.968-9.154,2.518-2.197,3.766-.601,7.299,2.493,9.028,3.104,1.713,7.131.933,9.146-2.564,2.177-3.778.608-7.276-2.485-8.983ZM199.961,24.722c-2.008,3.484-3.973,4.267-5.959,3.171-1.98-1.107-2.358-3.192-.332-6.665,2.026-3.473,3.996-4.246,5.976-3.139,1.987,1.096,2.323,3.15.316,6.634Z"/>
      </g>
      <g>
        <path class="st0" d="M149.654,32.754c-.261.553-.68.829-1.258.829-.27,0-.525-.06-.765-.179s-.433-.292-.579-.52c-.145-.227-.218-.492-.218-.797,0-.21.039-.411.118-.603.079-.193.192-.365.341-.52s.325-.275.529-.36.422-.128.655-.128c.298,0,.56.063.786.192.226.127.339.304.339.528,0,.103-.035.19-.106.264-.071.072-.153.109-.246.109-.088,0-.156-.022-.204-.067-.048-.044-.079-.09-.094-.137s-.037-.131-.065-.249c-.028-.115-.074-.196-.139-.244-.065-.049-.155-.072-.272-.072-.196,0-.37.078-.522.237-.152.157-.228.454-.228.886,0,.232.031.445.092.64.062.194.159.348.291.461.133.114.295.171.487.171.214,0,.377-.057.488-.172.112-.115.212-.25.298-.404l.272.137Z"/>
        <path class="st0" d="M153.353,32.726c0,.178-.034.33-.1.455-.067.124-.157.217-.27.277-.113.06-.241.089-.383.089-.181,0-.332-.046-.453-.138-.121-.093-.193-.204-.217-.332-.36.314-.723.47-1.087.47-.232,0-.423-.061-.572-.184s-.223-.284-.223-.486c0-.166.04-.317.12-.452.079-.134.196-.254.351-.36.154-.105.337-.198.551-.278.214-.082.48-.166.799-.255v-.2c0-.166-.036-.297-.108-.392-.073-.094-.206-.142-.4-.142-.166,0-.286.037-.359.112-.073.074-.122.188-.146.341-.017.107-.049.195-.095.265s-.143.104-.289.104c-.091,0-.17-.028-.239-.084-.07-.056-.104-.139-.104-.249,0-.218.109-.408.326-.569.218-.162.552-.243,1.003-.243.475,0,.801.087.979.26.178.173.267.405.267.696v1.109c0,.14.003.243.01.309.006.065.024.115.053.149s.075.051.137.051c.056,0,.106-.032.148-.095.041-.063.063-.139.063-.228h.239ZM151.868,32.754v-.87c-.409.14-.67.277-.781.413-.111.134-.167.266-.167.394,0,.107.031.194.091.26s.145.099.256.099c.118,0,.223-.027.314-.081.09-.055.186-.126.287-.215Z"/>
        <path class="st0" d="M157.117,33.467h-1.675v-.323c.127,0,.218-.017.273-.054.055-.037.088-.09.101-.16.013-.071.02-.187.02-.348v-.993c0-.199-.027-.356-.081-.472-.054-.116-.164-.173-.33-.173-.226,0-.395.094-.506.282-.111.189-.167.406-.167.652v.786c0,.186.024.311.074.38.049.068.156.101.32.101v.323h-1.707v-.323c.14,0,.243-.013.311-.04.067-.027.111-.074.132-.144.021-.068.032-.178.032-.328v-1.134c0-.164-.029-.271-.087-.321s-.187-.076-.388-.076v-.323l1.258-.301c.019.135.029.262.029.38,0,.031,0,.056-.001.078-.001.023-.002.048-.002.076.136-.156.277-.284.423-.384.147-.099.33-.149.55-.149.186,0,.352.037.5.109.148.073.264.183.348.331.084.146.126.325.126.533v1.183c0,.196.024.332.073.404.048.073.173.109.373.109v.323Z"/>
        <path class="st0" d="M159.541,32.842c-.117.265-.253.454-.408.569s-.337.172-.547.172c-.254,0-.442-.056-.563-.168s-.195-.238-.223-.377-.042-.295-.042-.469v-1.654h-.488v-.323c.205,0,.383-.041.534-.127.151-.084.27-.198.357-.341s.143-.295.167-.459h.265v.926h.915v.323h-.915v1.674c0,.204.012.35.037.441.024.09.085.135.182.135.104,0,.189-.044.256-.132.067-.088.131-.198.194-.328l.278.137Z"/>
        <path class="st0" d="M161.465,33.467h-1.756v-.323h.093c.125,0,.217-.018.273-.056.057-.037.092-.089.106-.157.013-.068.019-.167.019-.299v-1.042c0-.145-.008-.248-.024-.309-.016-.061-.059-.105-.126-.133s-.182-.044-.341-.046v-.323l1.326-.301v2.155c0,.196.023.332.068.404.045.073.166.109.362.109v.323ZM161.099,29.103c0,.14-.046.261-.138.36-.092.1-.202.149-.331.149-.127,0-.237-.05-.331-.153-.094-.101-.141-.22-.141-.356,0-.14.046-.26.139-.361.093-.1.204-.151.333-.151.132,0,.243.05.333.148.091.099.136.22.136.365Z"/>
        <path class="st0" d="M165.386,33.467h-1.675v-.323c.127,0,.218-.017.273-.054.055-.037.088-.09.101-.16.013-.071.02-.187.02-.348v-.993c0-.199-.027-.356-.081-.472-.054-.116-.164-.173-.33-.173-.226,0-.395.094-.506.282-.111.189-.167.406-.167.652v.786c0,.186.024.311.074.38.049.068.156.101.32.101v.323h-1.707v-.323c.14,0,.243-.013.311-.04.067-.027.111-.074.132-.144.021-.068.032-.178.032-.328v-1.134c0-.164-.029-.271-.087-.321s-.187-.076-.388-.076v-.323l1.258-.301c.019.135.029.262.029.38,0,.031,0,.056-.001.078-.001.023-.002.048-.002.076.136-.156.277-.284.423-.384.147-.099.33-.149.55-.149.186,0,.352.037.5.109.148.073.264.183.348.331.084.146.126.325.126.533v1.183c0,.196.024.332.073.404.048.073.173.109.373.109v.323Z"/>
        <path class="st0" d="M169.043,32.726c0,.178-.034.33-.1.455-.067.124-.157.217-.27.277-.113.06-.241.089-.383.089-.181,0-.332-.046-.453-.138-.121-.093-.193-.204-.217-.332-.36.314-.723.47-1.087.47-.232,0-.423-.061-.572-.184s-.223-.284-.223-.486c0-.166.04-.317.12-.452.079-.134.196-.254.351-.36.154-.105.337-.198.551-.278.214-.082.48-.166.799-.255v-.2c0-.166-.036-.297-.108-.392-.073-.094-.206-.142-.4-.142-.166,0-.286.037-.359.112-.073.074-.122.188-.146.341-.017.107-.049.195-.095.265s-.143.104-.289.104c-.091,0-.17-.028-.239-.084-.07-.056-.104-.139-.104-.249,0-.218.109-.408.326-.569.218-.162.552-.243,1.003-.243.475,0,.801.087.979.26.178.173.267.405.267.696v1.109c0,.14.003.243.01.309.006.065.024.115.053.149s.075.051.137.051c.056,0,.106-.032.148-.095.041-.063.063-.139.063-.228h.239ZM167.558,32.754v-.87c-.409.14-.67.277-.781.413-.111.134-.167.266-.167.394,0,.107.031.194.091.26s.145.099.256.099c.118,0,.223-.027.314-.081.09-.055.186-.126.287-.215Z"/>
        <path class="st0" d="M173.678,32.754c-.261.553-.68.829-1.258.829-.27,0-.525-.06-.765-.179s-.433-.292-.579-.52c-.145-.227-.218-.492-.218-.797,0-.21.039-.411.118-.603.079-.193.192-.365.341-.52s.325-.275.529-.36.422-.128.655-.128c.298,0,.56.063.786.192.226.127.339.304.339.528,0,.103-.035.19-.106.264-.071.072-.153.109-.246.109-.088,0-.156-.022-.204-.067-.048-.044-.079-.09-.094-.137s-.037-.131-.065-.249c-.028-.115-.074-.196-.139-.244-.065-.049-.155-.072-.272-.072-.196,0-.37.078-.522.237-.152.157-.228.454-.228.886,0,.232.031.445.092.64.062.194.159.348.291.461.133.114.295.171.487.171.214,0,.377-.057.488-.172.112-.115.212-.25.298-.404l.272.137Z"/>
        <path class="st0" d="M177.377,32.726c0,.178-.034.33-.1.455-.067.124-.157.217-.27.277-.113.06-.241.089-.383.089-.181,0-.332-.046-.453-.138-.121-.093-.193-.204-.217-.332-.36.314-.723.47-1.087.47-.232,0-.423-.061-.572-.184s-.223-.284-.223-.486c0-.166.04-.317.12-.452.079-.134.196-.254.351-.36.154-.105.337-.198.551-.278.214-.082.48-.166.799-.255v-.2c0-.166-.036-.297-.108-.392-.073-.094-.206-.142-.4-.142-.166,0-.286.037-.359.112-.073.074-.122.188-.146.341-.017.107-.049.195-.095.265s-.143.104-.289.104c-.091,0-.17-.028-.239-.084-.07-.056-.104-.139-.104-.249,0-.218.109-.408.326-.569.218-.162.552-.243,1.003-.243.475,0,.801.087.979.26.178.173.267.405.267.696v1.109c0,.14.003.243.01.309.006.065.024.115.053.149s.075.051.137.051c.056,0,.106-.032.148-.095.041-.063.063-.139.063-.228h.239ZM175.892,32.754v-.87c-.409.14-.67.277-.781.413-.111.134-.167.266-.167.394,0,.107.031.194.091.26s.145.099.256.099c.118,0,.223-.027.314-.081.09-.055.186-.126.287-.215Z"/>
        <path class="st0" d="M180.377,31.031c0,.135-.038.243-.115.321-.077.078-.167.117-.27.117-.123,0-.231-.065-.323-.196-.043-.059-.079-.1-.107-.126-.028-.027-.068-.039-.12-.039-.168,0-.299.099-.393.297-.093.198-.14.403-.14.616v.61c0,.196.023.332.07.404.046.073.168.109.367.109h.171v.323h-2.008v-.323h.168c.181,0,.292-.037.333-.112.041-.074.062-.207.062-.4v-1.025c0-.156-.015-.269-.044-.337-.029-.067-.081-.112-.157-.135-.075-.022-.196-.033-.362-.033v-.323l1.261-.301c.032.12.062.373.09.762.06-.138.14-.264.238-.378s.208-.207.33-.278c.122-.07.247-.105.374-.105.176,0,.317.054.42.161.103.109.155.239.155.394Z"/>
        <path class="st0" d="M182.352,33.467h-1.756v-.323h.093c.125,0,.217-.018.273-.056.057-.037.092-.089.106-.157.013-.068.019-.167.019-.299v-1.042c0-.145-.008-.248-.024-.309-.016-.061-.059-.105-.126-.133s-.182-.044-.341-.046v-.323l1.326-.301v2.155c0,.196.023.332.068.404.045.073.166.109.362.109v.323ZM181.987,29.103c0,.14-.046.261-.138.36-.092.1-.202.149-.331.149-.127,0-.237-.05-.331-.153-.094-.101-.141-.22-.141-.356,0-.14.046-.26.139-.361.093-.1.204-.151.333-.151.132,0,.243.05.333.148.091.099.136.22.136.365Z"/>
        <path class="st0" d="M186.134,32.006c0,.225-.038.436-.113.631-.076.195-.182.364-.319.506-.137.143-.294.253-.469.327s-.362.112-.558.112c-.231,0-.429-.049-.595-.145-.166-.098-.303-.222-.411-.375-.199.216-.342.389-.43.52h-.253v-3.89c0-.134-.015-.232-.043-.294-.029-.061-.078-.101-.146-.118-.068-.018-.173-.029-.315-.034v-.316l1.339-.309v2.271c.11-.112.237-.21.383-.293.145-.083.336-.124.571-.124.22,0,.416.044.587.131.171.085.314.203.428.35.115.148.2.311.258.492.057.181.085.366.085.558ZM185.239,31.978c0-.292-.045-.55-.134-.775-.09-.226-.265-.338-.528-.338-.095,0-.189.021-.28.062-.092.04-.177.096-.256.166-.079.071-.151.153-.218.247v1.429c.129.182.258.299.386.349s.242.076.341.076c.181,0,.323-.066.427-.195.103-.129.173-.284.209-.465.035-.181.053-.365.053-.555Z"/>
        <path class="st0" d="M189.488,31.922h-1.989c.002.045.009.139.018.284.009.145.04.294.09.447.051.151.138.279.262.384.124.104.29.156.5.156.114,0,.253-.032.414-.095s.301-.186.42-.365l.252.186c-.254.443-.658.664-1.213.664-.248,0-.474-.039-.677-.116s-.377-.184-.519-.323c-.142-.138-.251-.3-.326-.488-.076-.187-.113-.388-.113-.603,0-.283.063-.546.189-.787.126-.24.306-.432.541-.575.236-.143.503-.215.806-.215.295,0,.545.07.749.207s.354.317.451.537c.098.22.146.454.146.702ZM188.686,31.6c0-.535-.194-.801-.582-.801-.188,0-.332.073-.432.221s-.156.341-.167.58h1.181Z"/>
      </g>
    </g>
  </g>
</svg>