<?xml version="1.0" encoding="UTF-8"?>
<svg id="Layer_1" xmlns="http://www.w3.org/2000/svg" xmlns:xlink="http://www.w3.org/1999/xlink" version="1.1" viewBox="0 0 336 38.5">
  <!-- Generator: Adobe Illustrator 30.2.1, SVG Export Plug-In . SVG Version: 2.1.1 Build 1)  -->
  <defs>
    <style>
      .st0 {
        fill: #acacab;
      }

      .st1 {
        fill: #858586;
      }

      .st2 {
        fill: #606160;
      }

      .st3 {
        fill: #6c6c6c;
      }

      .st4 {
        fill: #414141;
      }

      .st5 {
        fill: #8f8f8f;
      }

      .st6 {
        fill: #474747;
      }

      .st7 {
        fill: #878786;
      }

      .st8 {
        fill: #5b5b5b;
      }

      .st9 {
        fill: #b5b5b5;
      }

      .st10 {
        fill: #9a9a9a;
      }

      .st11 {
        fill: #a8a7a7;
      }

      .st12 {
        fill: #b3b3b4;
      }

      .st13 {
        fill: #231f20;
      }

      .st14 {
        fill: #454545;
      }

      .st15 {
        fill: #a2a2a3;
      }

      .st16 {
        fill: #b3b4b5;
      }

      .st17 {
        fill: #868686;
      }

      .st18 {
        fill: #aeadac;
      }

      .st19 {
        fill: #a1a2a1;
      }

      .st20 {
        fill: #373837;
      }

      .st21 {
        fill: #5e5e5f;
      }

      .st22 {
        fill: url(#linear-gradient);
      }

      .st23 {
        fill: #aeaeaf;
      }

      .st24 {
        fill: #afafb0;
      }

      .st25 {
        fill: #fbfcfc;
      }

      .st26 {
        fill: #9a9a99;
      }

      .st27 {
        fill: #a1a0a0;
      }

      .st28 {
        fill: #afadad;
      }

      .st29 {
        fill: #b4b4b4;
      }

      .st30 {
        fill: #605f5f;
      }

      .st31 {
        fill: #b2b2b3;
      }

      .st32 {
        fill: #a0a0a0;
      }

      .st33 {
        fill: #373737;
      }

      .st34 {
        fill: #b2b2b1;
      }

      .st35 {
        fill: #6b6c6c;
      }

      .st36 {
        fill: #5d5d5d;
      }

      .st37 {
        fill: #afaeaf;
      }

      .st38 {
        fill: #b0b1b0;
      }

      .st39 {
        fill: #bebdbe;
      }

      .st40 {
        fill: #424343;
      }

      .st41 {
        fill: #99999a;
      }

      .st42 {
        fill: #fcfdfc;
      }

      .st43 {
        fill: #b0b0b0;
      }

      .st44 {
        fill: #605f5e;
      }

      .st45 {
        fill: #909191;
      }

      .st46 {
        fill: #fff;
      }

      .st47 {
        fill: #a2a3a2;
      }

      .st48 {
        fill: #555655;
      }

      .st49 {
        fill: #bcbcbc;
      }

      .st50 {
        fill: #969796;
      }

      .st51 {
        fill: #aeacac;
      }

      .st52 {
        fill: #fafafa;
      }

      .st53 {
        fill: #afafae;
      }

      .st54 {
        fill: #555756;
      }

      .st55 {
        fill: #aaa9aa;
      }

      .st56 {
        fill: #a3a2a3;
      }

      .st57 {
        fill: #8e8d8d;
      }

      .st58 {
        fill: #8b8a8b;
      }

      .st59 {
        fill: #acabac;
      }

      .st60 {
        fill: #a3a3a3;
      }

      .st61 {
        fill: #858585;
      }

      .st62 {
        fill: #5e5e5e;
      }

      .st63 {
        fill: #acacac;
      }

      .st64 {
        fill: #a2a2a2;
      }

      .st65 {
        fill: #aeb0af;
      }

      .st66 {
        fill: #5b5c5b;
      }

      .st67 {
        fill: #aeadad;
      }

      .st68 {
        fill: #b1b0b0;
      }

      .st69 {
        fill: #b4b4b5;
      }

      .st70 {
        fill: #8c8c8c;
      }

      .st71 {
        fill: #afaeae;
      }

      .st72 {
        fill: #afadae;
      }

      .st73 {
        fill: #aeaeae;
      }

      .st74 {
        fill: #9e9e9e;
      }

      .st75 {
        fill: #a2a0a1;
      }

      .st76 {
        fill: #6c6b6b;
      }

      .st77 {
        fill: #616161;
      }

      .st78 {
        fill: #adadad;
      }

      .st79 {
        fill: #adabac;
      }

      .st80 {
        fill: #afafaf;
      }

      .st81 {
        fill: #434343;
      }

      .st82 {
        fill: #b2b1b1;
      }

      .st83 {
        fill: #b2b2b2;
      }

      .st84 {
        fill: #5e5d5e;
      }

      .st85 {
        fill: #bfbebe;
      }

      .st86 {
        fill: #878687;
      }

      .st87 {
        fill: #8b898a;
      }
    </style>
    <linearGradient id="linear-gradient" x1="20.2" y1="13.1" x2="20.8" y2="19.7" gradientUnits="userSpaceOnUse">
      <stop offset="0" stop-color="#5e5f5f"/>
      <stop offset="1" stop-color="#6e6f6e"/>
    </linearGradient>
  </defs>
  <rect class="st52" x="-26.9" y="-569.1" width="390" height="844"/>
  <g>
    <g>
      <path class="st13" d="M110.6,16.5c0-.5.6-1.8,1.2-1.9s.5,0,.6,0,.8-1.1.9-.4,0,1.9.2,2.1.3-.1.3.1-.7,1.2-1.1,1.3-.3-.2-.4-.4c-.4.7-1,1.7-1.7.6,0,.4-.9,1.2-1.2,1.2s-.2-.5-.3-.4-.5.7-.8.9c-1.2.6-.8-1.4-1-2h-.4v.7s-.2.4-.2.5c-.4.5-1,.7-1.6.8q0,.2.2.2c.5,0,1.5-.8,1.8,0s-.4,1.4-1,1.6-1.6.4-1.7-.3,0-.3,0-.3c0,0-.2-.3-.2-.2s0,.1-.2.2c-.3.2-1.8.5-1.7-.1s.3-.2.2-.5-1.1,0-1.2,0c-.3.3.6.3.3.8s-1.1.3-1.3.2-.3-.2-.3-.4c0-.4.2-.2.3-.5s.2-.7.3-.9c.3-.9.5-1.8.5-2.7,0-.4.7-.4,1-.2.7.5,1.1,2.6,1.6,3.4s.2.2.3.3,0-.2.2-.3.2-.2.3-.3c0,0-.2-.2-.3-.3-.2-.2-.2-.7-.2-1s.5-.9.9-1,.8-.2,1-.3,0-.5.3-.6.3.1.4.2c.2.3,0,.6.2.8,0-.4,1-1.3,1.3-1.2s.2.2.2.3v1.5q0,.5.2.4c.5-.2,0-1.8.3-2.3s1-.9,1.1-.4,0,1,0,1.5,0,.5,0,.5h.3v-1.2h.3ZM112.3,15.2c-.2-.1-.4.6-.4.7,0,.2-.2,1.1,0,1.1s.4-1,.4-1.2v-.7h0ZM105.7,17.7c-.4-.5-.5,1.2-.2,1.3s.3-1.1.2-1.3ZM101.5,19.3h.7c0,0-.3-.9-.4-.9s0,0,0,0c0,.1-.2.8-.2.9h0ZM106.1,20.6c-.4,0-.7.2-1.1.2,0,.6,1.2.3,1.1-.2Z"/>
      <path class="st13" d="M127.1,9.5c0-.6.3-.4.4-.6s0-.4.1-.6.8-.4.9-.3c0,0,0,.6.1.7s.4,0,.5,0c0,.2.1.4,0,.5s-.4,0-.5.3,0,1.1.1,1.1.5-.1.5-.1v-.6c0-.8.9-1.7,1.7-1.8,1.4-.2,1,1.6,0,2s-.5,0-.4.2.5.2.6,0,.5-.6.7-.2-.5,1-1,1.1c-.6.2-1.4,0-1.7-.6-.2.5-1.3,1.2-1.7.8s-.2-.5-.2-.7v-1.3c0-.1-.3,0-.5,0v1.1q0,.4.1.4c.1,0,.3,0,.2.2,0,.4-1.1,1-1.4.7s-.1-1.2-.2-1.6-.2-.2-.3,0c-.3.4.1,1.4-.1,1.8s-.9.6-1.1.3,0-1.7-.3-1.8-.3,0-.3,0v.5c0,.3-.4.6-.6.7s-.6.3-.6.3c0,.2.2.2.3.2.4,0,.8-.8,1.1-.6.4.4-.9,1.3-1.2,1.4s-.8.2-1.1,0l-.3-.3c0,.5-.9,1.3-1.4,1.2s-.2-.6-.2-.7v-1.2c0-.1-.2,0-.3,0-.3-.2.3-.7.4-.9s.8-.6,1-.4.1,1.6.2,2h.3c-.3-1.1.3-2.2,1.2-2.7s1-.4,1.3.1c0-.3,1-.9,1.3-.8s.1.3.3.4c.4-.4.8-.9,1.4-.7s.2.2.3.3l.4.2ZM130.7,9.6c.2.2.5-.9.2-.9s-.3.8-.2.9ZM122.7,10.6c-.2,0-.4.9-.1.9s.5-.8.1-.9Z"/>
      <path class="st13" d="M115.2,14.2c0,1.1.7,2-.6,2.6s-.5.2-.6-.2,0-1.8,0-1.9-.6.3-.5-.4.8-1,1-1.1.3.5.4.5c.2-.3,0-.7.5-.9.9-.4,1.1,1.3.3,1.5s-.3-.1-.5-.2h0Z"/>
      <path class="st13" d="M120.5,10.4c-.1.1-.5.4-.7.5-.5,0-.6-.1-.4-.5s.4-.5.7-.6c.8-.4,1.1.1.5.7h-.1Z"/>
      <path class="st13" d="M119.3,13.5c.1,0,.5-.1.3.4s-.9,1.2-1.2,1-.1-.5-.3-.4-.3.6-.4.7c-.4.5-1,.6-1.2,0s0-2.3.6-2.9.5-.2.8-.2v-.5c0-.1-.5.2-.4-.3s.7-.8,1-.9.4-.2.5,0c.1.4.2,3,.3,3.1ZM117.9,12.6c-.2,0-.3.5-.3.7s0,1,0,1c.3,0,.4-.7.4-.9s0-.9-.2-.8h0Z"/>
      <path class="st13" d="M125.3,15.1c0,.6-.3,1.2-.8,1.6s-.6.3-.6.4,0,.2.1.2c.5.2,1-.7,1.2-.7s.3.4.2.6c-.3.7-1.8,1.7-2.6,1.2l-.3-.4c0,.4-.9,1.4-1.3,1.4s-.3-.5-.4-.4-.5.7-.6.8c-.3.3-.8.6-1.1.2s0-1.7-.2-1.9-.6.2-.4-.4.9-1,1.2-1.2.3-.2.4,0c.2.3,0,2,.3,2.2s.4-.6.4-.7c0-.5-.1-1.2,0-1.6s.9-.9,1.2-.6,0,1.7.2,2.1.3,0,.4,0c-.3-1.2.4-2.6,1.5-3.1s1.2-.4,1.4.2c.2-.4.8-.8,1.2-1s.4.4.6.4.6-.8,1.2-.8c1.1,0,.6,1.6.8,2.2s.2.1.3.2c.4.5-.9,1.2-1.3,1.1s-.3-1.4-.3-1.8,0-.5-.3-.5c-.5.1-.1,1.8-.3,2.2s-.8.6-1.1.5-.1-1.3-.1-1.6v-.6c0-.2-.3,0-.5-.2h-.4ZM123.8,16.4c.4,0,.6-1,.3-1.1s-.4.9-.3,1.1Z"/>
      <path class="st13" d="M106.5,22.4c1.3-.2.6,1.7.9,1.9s.3,0,.3.2c0,.4-1.1,1.1-1.5.9s0-1.5-.3-1.8c-.8.2,0,1.4-.4,1.9s-1.1.6-1.2.2,0-1.7-.2-1.7-.4,0-.4-.2,1-.9,1.3-.9.3.5.5.4.6-.7,1-.8h0Z"/>
      <path class="st13" d="M107.8,22.8c0-.2-.5.2-.5-.2s.4-.4.5-.6,0-.6.2-.8.7-.5.9-.4,0,.6.2.8c0,0,.5-.3.5,0v.5c0,.2-.4,0-.5.4s0,1.1,0,1.2c.2.3.7-.5.7,0s-1.9,2-2.1.8,0-.5,0-.7v-.9h.1Z"/>
      <path class="st13" d="M126.6,13.1c0,.7-.9.7-.7-.1s1.2-.5,1.7-.4c0-.6.8-.6.8,0,0,1.1-1.2.6-1.8.6h0Z"/>
      <path class="st13" d="M110.9,19.3c.6,0,.5.5.2.8s-1,.9-1.4.7.7-1.4,1.2-1.5Z"/>
      <path class="st13" d="M118.7,21.2s.4,0,.4.2c0,.4-.8.8-1.1.9s-1.1.4-1.1,0,.2-.2.3-.4,0-.6,0-.9c0-.5-.3,0-.4.2-.3.4-1,1.1-1.5.6-.8-.9,0-3.4,1.2-3.8s.5,0,.7,0,.3-.4.5-.6.4-.3.5,0c.2,1,.2,2.2.3,3.2s0,.5.1.5h.1ZM116.9,18.6c-.3,0-.5,1.5-.4,1.8s0,.2.2.2c.3-.3.4-.8.5-1.2s0-1-.2-.9h0Z"/>
      <path class="st13" d="M100.8,25.7v.3c0,0,.3,0,.4.2,0,.4-.7.6-1,.7s-.7.2-.8,0c-.2-.4.2-.5.3-.7.3-.5.8-2.2.9-2.8s0-1.2.6-1.2.9.3,1.2.8,1.1,2.4,1.3,2.5.5,0,.4.3-.8.5-1.1.6-1,.3-1.1,0,.4-.4.2-.6-1.2,0-1.3.2v-.3ZM101.3,23.8c0,0-.4.9-.3,1s.7,0,.7-.1-.4-.9-.5-.9h.1Z"/>
      <path class="st13" d="M130.7,13.2c2.3-.3,2.5,3.3.5,3.6s-2.4-3.3-.5-3.6ZM130.8,14c-.1,0-.2.3-.2.4,0,.3,0,1.3.2,1.6.2.3.4,0,.4-.2s0-1.6-.2-1.7-.2,0-.2,0h0Z"/>
      <path class="st13" d="M111.9,22.8h0c-.4-.9.2-2.2.9-2.8s2-1.1,2.3.2-.4,2.4-1.4,2.9-1.3.4-1.7-.2h-.1ZM113.4,20.3c-.3,0-.2.9-.2,1.2s0,1.2.4.8,0-1.7,0-1.9,0,0-.2,0h0Z"/>
      <path class="st13" d="M111.9,22.8c0,.6-1.3,1.6-1.6,1.2s0-1.5-.2-1.9c0,0-.4.2-.4-.2s.3-.6.5-.7.9-.7,1.1-.6,0,1.9.2,2.2h.4Z"/>
      <path class="st13" d="M111.9,22.8h0Z"/>
      <path class="st13" d="M121.6,27.7h3c.3,0,.4.4,0,.5-.9.1-1.9,0-2.8,0s-1.3.3-1.3-.2.1-.3.2-.4c.9-.9,2.7-1.9,3-3.2s-1-.8-1.6-.4-.4.5-.6.2,0-.5.2-.6c.7-.6,2.4-.9,2.6.3s-1.8,2.9-2.8,3.7h.1Z"/>
      <path class="st13" d="M127.1,26.2h1l.2.2s-.1.3-.2.3h-1.1v1.4c0,.1-.2.1-.3,0-.3-.2,0-1.2-.1-1.5h-1.8c-.5-.1-.6-.3-.3-.7.4-.8,1.5-1.9,2-2.6s.3-.5.5-.5c.5,0,.3,1.3.3,1.6v1.6l-.2.2ZM126.7,24.1l-1.7,2.1h1.6v-2.1h0Z"/>
      <path class="st13" d="M129.5,23.7c0,.4-.3.7-.7.7s-.7-.3-.7-.7.3-.7.7-.7.7.3.7.7ZM128.7,23.4c-.2,0-.2.8.2.6s.2-.8-.2-.6Z"/>
      <path class="st13" d="M126.6,31.4h0c.2,0,.4-.6.5-.8.1-.3.2-1,.3-1.1.2-.3.2.1.2.3,0,.5-.2.9-.2,1.4s.1.7-.2.8c0-.1.1-1.1,0-1.1-.1.3-.5.9-.8,1s0,0,0,0v-.3c0,0,0,0,0,0-.5,0-1.2.6-1.7.7s-.2,0-.2,0c0-.5,1.2-1.7,1.5-2.1,0-.1,0,0-.1,0-.2,0-.8.3-.9.2,0-.4,1.2-.5,1.3-.4s0,0,0,.1c0,.4-1.2,1.5-1.3,1.9.5-.2,1-.5,1.5-.6v-.7c0-.3,0-.7.3-.7v1.7l-.2-.3Z"/>
      <path class="st13" d="M131.4,29.7c.5-.1,1,0,.5.5s-.3.2-.5.3,0,0,0,0c0,.2.7.7.9.9s0,.4-.2.3-.9-1.1-1.1-1c-.2.3,0,1.1-.5,1.2,0,0,.3-1.2.3-1.4s0-.1.1-.2c.1-.3.2-.8.5-.9v.2h0ZM131.2,30.3l.7-.3c-.3-.2-.7,0-.7.3Z"/>
      <path class="st13" d="M130.2,28.2c.2.4-.5.8-.8,1s-1,.4-.8,0,.5-.2.7-.3.6-.3.6-.4c0-.3-1.2.2-1.4-.1s.2-.9.5-1.1.8-.5.8-.2-.3.2-.5.3-.8.6-.6.8,1.2-.2,1.4,0h.1Z"/>
      <path class="st13" d="M132.4,26.8s-.3.9-.3,1.1v1.4q-.1.1-.2,0l-.6-1.8c0,.3-.1.7-.2,1s0,.9-.2.9,0-.7,0-.8c0-.3.1-.8.2-1.1s.1-.5.3-.7c0,.4.2.9.3,1.3s.1.4.2.3c0-.4,0-.8.2-1.2s.2-.6.4-.5h0Z"/>
      <path class="st13" d="M124.1,30.4s-.3.1-.4.1c-.2.2-.2,1-.4,1.2s-.1,0-.1,0l.2-.8h-.2c0-.2.3-.3.4-.5.2-.3.2-.9.6-1.1.1,0,.2.5.2.6,0,0,.5-.3.4,0s-.4.2-.4.3v1.5c0,.1-.1.2-.2.2v-1.6h-.1ZM123.8,30.3c.3,0,.3-.2.2-.5,0,0-.3.5-.2.5Z"/>
      <path class="st13" d="M130.8,29.9c0,.2-.4.3-.4.3v1.7c0,.2-.2,0-.2,0v-1.5c-.6.1-.4,1-.7,1.3s-.1,0-.2,0l.2-.8h-.2c0-.2.3-.3.3-.4.1-.2.3-1,.6-1s.2.5.3.5.3-.2.4,0h-.1ZM130,29.9c-.1,0,0,0-.1.1s-.2.3-.1.3c.3,0,.3-.2.2-.4h0Z"/>
      <path class="st13" d="M128.8,29.7c.1.1,0,.4-.2.3s0-.2-.2-.1c-.2,0-.4,1-.4,1.2s0,.6.1.7c.2,0,.7-1,1-1.1s.2,0,.1.1-.6.9-.7,1c-.2.2-.6.4-.7,0s0-1.4.3-1.9.4-.6.7-.3h0Z"/>
      <path class="st13" d="M130.9,26.9c-.2.6-.3,1.2-.4,1.8s.1.6-.2.7c0-.6,0-1.3.2-1.9s.2-.6.4-.6Z"/>
      <path class="st13" d="M127.5,28.7c.4,0-.2.8-.3.8s-.2.1-.2,0,.4-.8.5-.8Z"/>
      <path class="st13" d="M134.9,2.5v2.4c-4.9-.3-9.6,1.2-14,3-7,2.8-14.6,7.3-22.2,7.6s-1.1,0-1.4,0-.2,0-.2,0v-2.3c7.8,0,14.8-3.9,21.7-6.8,6.9-2.9,10.5-4.1,16.1-3.8h0Z"/>
      <path class="st13" d="M134.9,21.5h-.9c-1.3,0-2.6,0-4,.3-2,.3-3.9.8-5.8,1.5-.8-.5-2-.3-2.7.3s-.4.4-.4.8c-7.8,3-15.5,7.6-24.1,7.7v-2.4c7.7,0,14.7-3.8,21.7-6.7,3.8-1.6,7.9-3.2,12.1-3.7s2.8-.3,3.9-.2.2,0,.2,0v2.3h0Z"/>
      <g>
        <polygon class="st13" points="122.7 35.1 122.8 35.6 122.9 35.1 123.1 35.1 123.1 35.7 123 35.7 123 35.3 122.9 35.7 122.8 35.7 122.8 35.7 122.7 35.3 122.7 35.7 122.6 35.7 122.6 35.1 122.7 35.1"/>
        <polygon class="st13" points="127.2 35.1 127.4 35.6 127.5 35.1 127.6 35.1 127.6 35.7 127.5 35.7 127.5 35.3 127.4 35.7 127.3 35.7 127.3 35.7 127.2 35.3 127.2 35.7 127.1 35.7 127.1 35.1 127.2 35.1"/>
        <polygon class="st13" points="117.8 35.1 117.9 35.6 117.9 35.1 118 35.1 118 35.7 117.9 35.7 117.8 35.2 117.8 35.7 117.7 35.7 117.7 35.1 117.8 35.1"/>
        <polygon class="st13" points="125.2 35.1 125.3 35.6 125.3 35.1 125.4 35.1 125.4 35.7 125.3 35.7 125.2 35.2 125.2 35.7 125.1 35.7 125.1 35.1 125.2 35.1"/>
        <polygon class="st13" points="128 35.1 128.2 35.6 128.2 35.1 128.3 35.1 128.3 35.7 128.2 35.7 128 35.2 128 35.7 127.9 35.7 127.9 35.1 128 35.1"/>
        <path class="st13" d="M120.1,35.1h0v.2h0v.4c0,.1,0,0,0,0h-.2v-.6s.1,0,.2,0ZM120,35.4h0v-.2c0-.1,0,0,0,0h0v.2ZM120,35.7h0c0-.2,0,0,0,0h0v.2h0Z"/>
        <path class="st13" d="M120.8,35.1h0v.2h0v.4c0,.1,0,0,0,0h-.2v-.6s.1,0,.2,0ZM120.7,35.4h0v-.2c0-.1,0,0,0,0h0v.2ZM120.7,35.7h0c0-.2,0,0,0,0h0v.2h0Z"/>
        <path class="st13" d="M123.3,35.1h0v.2h0v.4c0,.1,0,0,0,0h-.2v-.6s.1,0,.2,0ZM123.2,35.4h0v-.2c0-.1,0,0,0,0h0v.2ZM123.2,35.7h0c0-.2,0,0,0,0h0v.2h0Z"/>
        <path class="st13" d="M114.2,35.1h0v.2h0v.4c0,.1,0,0,0,0h-.2v-.6s0,0,.2,0ZM114,35.4h0v-.2c0-.1,0,0,0,0h0v.2ZM114,35.7h0c0-.2,0,0,0,0h0v.2h0Z"/>
        <path class="st13" d="M119.1,35.7v-.6h.2v.5h0c0,.2,0,0,0,0h-.2ZM119.1,35.7h0v-.4h0v.5h0Z"/>
        <path class="st13" d="M118.1,35.7v-.6h.2v.5h0c0,.2,0,0,0,0h-.2ZM118.1,35.7h0v-.4h0v.5h0Z"/>
        <path class="st13" d="M121.1,35.7v-.6h.2v.5h0c0,.2,0,0,0,0h-.2ZM121.2,35.7h0v-.4h0v.5h0Z"/>
        <path class="st13" d="M131.8,35.7v-.6h.2v.5h0c0,.2,0,0,0,0h-.2ZM131.8,35.7h0v-.4h0v.5h0Z"/>
        <path class="st13" d="M131,35.7v-.6h.2v.5h0c0,.2,0,0,0,0h-.2ZM131.1,35.7h0v-.4h0v.5h0Z"/>
        <path class="st13" d="M129.8,35.7v-.6h.2v.5h0c0,.2,0,0,0,0h-.2ZM129.9,35.7h0v-.4h0v.5h0Z"/>
        <path class="st13" d="M111.8,35.7v-.6h.2v.5h0c0,.2,0,0,0,0h-.2ZM111.8,35.7h0v-.4h0v.5h0Z"/>
        <path class="st13" d="M106.1,35.7v-.6h.2v.5h0c0,.2,0,0,0,0h-.2ZM106.2,35.7h0v-.4h0v.5h0Z"/>
        <path class="st13" d="M100.3,35.7v-.6h.2v.5h0c0,.2,0,0,0,0h-.2ZM100.4,35.7h0v-.4h0v.5h0Z"/>
        <path class="st13" d="M123.7,35.1s.1,0,.1,0v.2c.1,0,0,.2,0,.3h0v-.2c0-.1,0,0,0,0h0v.3h0v-.6h.2-.3ZM123.6,35.2h0v.2h0v-.2Z"/>
        <path class="st13" d="M112.9,35.1s0,0,0,0v.2c0,0,0,.2,0,.3h0v-.2c0-.1,0,0,0,0h0v.3h0v-.6h.2-.3ZM112.9,35.2h0v.2h0v-.2Z"/>
        <path class="st13" d="M128.9,35.1s.1,0,.1,0v.2c.1,0,0,.2,0,.3h0v-.2c0-.1,0,0,0,0h0v.3h0v-.6h.2-.3ZM128.8,35.2h0v.2h0v-.2Z"/>
        <path class="st13" d="M108.8,35.1s0,0,0,0v.2c0,0,0,.2,0,.3h0v-.2c0-.1,0,0,0,0h0v.3h0v-.6h.2-.3ZM108.8,35.2h0v.2h0v-.2Z"/>
        <path class="st13" d="M105.3,35.1s0,0,0,0v.2c0,0,0,.2,0,.3h0v-.2c0-.1,0,0,0,0h0v.3h0v-.6h.2-.3ZM105.3,35.2h0v.2h0v-.2Z"/>
        <polygon class="st13" points="113.5 35.1 113.5 35.4 113.7 35.4 113.7 35.1 113.8 35.1 113.8 35.7 113.7 35.7 113.7 35.5 113.5 35.5 113.5 35.7 113.5 35.7 113.5 35.1 113.5 35.1"/>
        <polygon class="st13" points="102.6 35.1 102.6 35.4 102.7 35.4 102.7 35.1 102.8 35.1 102.8 35.7 102.7 35.7 102.7 35.5 102.6 35.5 102.6 35.7 102.5 35.7 102.5 35.1 102.6 35.1"/>
        <path class="st13" d="M113.2,35.1s.2,0,.2,0v.4c0,0-.3,0-.3,0v-.4c0-.1,0-.2,0-.2h0ZM113.2,35.2h0v.3c0,0,0,0,0,0h0v-.4h0Z"/>
        <path class="st13" d="M118.7,35.1s.2,0,.2,0v.4c0,0-.3,0-.3,0v-.4c0-.1,0-.2.1-.2h0ZM118.7,35.2h0v.3c0,0,0,0,0,0h0v-.4h0Z"/>
        <path class="st13" d="M128.4,35.1s.2,0,.2,0v.4c0,0-.3,0-.3,0v-.4c0-.1,0-.2.1-.2h0ZM128.5,35.2h0v.3c0,0,0,0,0,0h0v-.4h0Z"/>
        <path class="st13" d="M99.9,35.1s.2,0,.2,0v.4c0,0-.3,0-.3,0v-.4c0-.1,0-.2,0-.2h0ZM99.9,35.2h0v.3c0,0,0,0,0,0h0v-.4h0Z"/>
        <path class="st13" d="M134.3,35.1s.2,0,.2,0v.4c0,0-.3,0-.3,0v-.4c0-.1,0-.2.1-.2h0ZM134.3,35.2h0v.3c0,0,0,0,0,0h0v-.4h0Z"/>
        <path class="st13" d="M103,35.1s.2,0,.2,0v.4c0,0-.3,0-.3,0v-.4c0-.1,0-.2,0-.2h0ZM103,35.2h0v.3c0,0,0,0,0,0h0v-.4h0Z"/>
        <path class="st13" d="M102.3,35.1s.2,0,.2,0v.4c0,0-.3,0-.3,0v-.4c0-.1,0-.2,0-.2h0ZM102.3,35.2h0v.3c0,0,0,0,0,0h0v-.4h0Z"/>
        <path class="st13" d="M124.7,35.3h0q0,0-.1,0c-.1,0,0,0,0,0v.3c0,0,0,0,0,0h0v-.2h.1v.2s0,0-.1,0-.2,0-.2-.2v-.3c0,0,0-.2.2-.2s.1,0,.1,0h0v.3Z"/>
        <path class="st13" d="M107.1,35.7v-.6h.2v.6c0,0,0,0,0,0h0c0,0-.2,0-.2,0h0ZM107.3,35.6v-.4.4c0,0,0,0,0,0Z"/>
        <path class="st13" d="M131.4,35.7v-.6h.2v.6c.1,0,0,0,0,0h0c0,0-.2,0-.2,0h0ZM131.6,35.6v-.4.4c-.1,0,0,0,0,0Z"/>
        <path class="st13" d="M121.4,35.7v-.6h.2v.6c.1,0,0,0,0,0h0c0,0-.2,0-.2,0h0ZM121.7,35.6v-.4.4c-.1,0,0,0,0,0Z"/>
        <path class="st13" d="M114.3,35.7v-.6h.2v.6c0,0,0,0,0,0h0c0,0-.2,0-.2,0h0ZM114.6,35.6v-.4.4c0,0,0,0,0,0Z"/>
        <path class="st13" d="M126.6,35.7v-.6h.2v.6c.1,0,0,0,0,0h0c0,0-.2,0-.2,0h0ZM126.8,35.6v-.4.4c-.1,0,0,0,0,0Z"/>
        <path class="st13" d="M101.1,35.7v-.6h.2v.6c0,0,0,0,0,0h0c0,0-.2,0-.2,0h0ZM101.3,35.6v-.4.4c0,0,0,0,0,0Z"/>
        <path class="st13" d="M108.3,35.7v-.6h.2v.6c0,0,0,0,0,0h0c0,0-.2,0-.2,0h0ZM108.5,35.6v-.4.4c0,0,0,0,0,0Z"/>
        <path class="st13" d="M124,35.7v-.6h.2v.6c.1,0,0,0,0,0h0c0,0-.2,0-.2,0h0ZM124.2,35.6v-.4.4c-.1,0,0,0,0,0Z"/>
        <path class="st13" d="M109,35.7v-.6h.2v.6c0,0,0,0,0,0h0c0,0-.2,0-.2,0h0ZM109.2,35.6v-.4.4c0,0,0,0,0,0Z"/>
        <path class="st13" d="M124.7,35.7v-.6h.2v.6c.1,0,0,0,0,0h0c0,0-.2,0-.2,0h0ZM124.9,35.6v-.4.4c-.1,0,0,0,0,0Z"/>
        <path class="st13" d="M109.8,35.7v-.6h.2v.6c0,0,0,0,0,0h0c0,0-.2,0-.2,0h0ZM110.1,35.6v-.4.4c0,0,0,0,0,0Z"/>
        <path class="st13" d="M110.7,35.7v-.6h.2v.6c0,0,0,0,0,0h0c0,0-.2,0-.2,0h0ZM110.9,35.6v-.4.4c0,0,0,0,0,0Z"/>
        <path class="st13" d="M105.8,35.1v.5h0v-.5h0v.5c0,0,0,.2-.2.2s0,0,0,0v-.5h.2Z"/>
        <path class="st13" d="M111.5,35.1v.5h0v-.5h0v.5c0,0,0,.2-.2.2s0,0,0,0v-.5h.2Z"/>
        <polygon class="st13" points="98.5 35.1 98.6 35.4 98.6 35.1 98.7 35.1 98.6 35.4 98.7 35.7 98.6 35.7 98.5 35.5 98.4 35.7 98.4 35.7 98.5 35.4 98.4 35.1 98.5 35.1"/>
        <polygon class="st13" points="116.7 35.1 116.8 35.4 116.9 35.1 117 35.1 116.8 35.4 117 35.7 116.9 35.7 116.8 35.5 116.7 35.7 116.6 35.7 116.7 35.4 116.6 35.1 116.7 35.1"/>
        <path class="st13" d="M133.9,35.1v.5c.1,0,.2-.5.2-.5h0v.6h-.2v-.6c-.1,0,0,0,0,0Z"/>
        <path class="st13" d="M133,35.1v.4h-.2l.2-.5h0ZM132.9,35.6v-.3.3c-.1,0,0,0,0,0Z"/>
        <path class="st13" d="M106.9,35.3h0q0,0,0,0c0,0,0,0,0,0v.3c0,0,0,0,0,0h0q0,.1,0,.1c0,0-.2,0-.2-.2v-.3c0,0,0-.2.2-.2s0,0,0,0h0v.3Z"/>
        <path class="st13" d="M99.1,35.3h0q0,0,0,0c0,0,0,0,0,0v.3c0,0,0,0,0,0h0q0,.1,0,.1c0,0-.2,0-.2-.2v-.3c0,0,0-.2.2-.2s0,0,0,0h0v.3Z"/>
        <path class="st13" d="M102.1,35.3h0q0,0,0,0c0,0,0,0,0,0v.3c0,0,0,0,0,0h0q0,.1,0,.1c0,0-.2,0-.2-.2v-.3c0,0,0-.2.2-.2s0,0,0,0h0v.3Z"/>
        <path class="st13" d="M112.5,35.5v.3h0v-.6h.2v.3c0,0,0,0,0,0h-.2ZM112.5,35.4h0v-.2h0v.3h0Z"/>
        <path class="st13" d="M108,35.5v.3h0v-.6h.2v.3c0,0,0,0,0,0h-.2ZM108,35.4h0v-.2h0v.3h0Z"/>
        <path class="st13" d="M104.6,35.5v.3h0v-.6h.2v.3c0,0,0,0,0,0h-.2ZM104.6,35.4h0v-.2h0v.3h0Z"/>
        <path class="st13" d="M117.1,35.5v.3h0v-.6h.2v.3c0,0,0,0,0,0h-.2ZM117.1,35.4h0v-.2h0v.3h0Z"/>
        <path class="st13" d="M104.3,35.3h0s.2.1.2.2,0,.2-.2.2,0,0,0,0h0c0,0,0,0,0,0q0,0-.2-.2c0,0,0-.3,0-.3s0,0,0,0h0Z"/>
        <path class="st13" d="M110.7,35.3h0s.2.1.2.2,0,.2-.2.2,0,0,0,0h0c0,0,0,0,0,0q0,0-.2-.2c0,0,0-.3,0-.3s0,0,0,0h0Z"/>
        <path class="st13" d="M129.6,35.3h0s.2.1.2.2,0,.2-.2.2,0,0,0,0h0c0,0,.1,0,.1,0,0,0-.1-.2-.2-.3s0-.3,0-.3c0,0,.2,0,.2.2h-.1Z"/>
        <path class="st13" d="M99.7,35.3h0q0,0,0,0c0,0,0,0,.2.2,0,0,0,.3,0,.3s0,0,0,0h0c0,0,0,0,0,0q0,0-.2-.2c0,0,0-.3,0-.3s0,0,0,0h-.2Z"/>
        <path class="st13" d="M126.4,35.3h0s.2.1.2.2,0,.2-.2.2,0,0,0,0h0c0,0,.1,0,.1,0,0,0-.1-.2-.2-.3s0-.3,0-.3c0,0,.2,0,.2.2h-.1Z"/>
        <path class="st13" d="M122.1,35.3h0s.2.1.2.2,0,.2-.2.2,0,0,0,0h0c0,0,.1,0,.1,0,0,0-.1-.2-.2-.3s0-.3,0-.3c0,0,.2,0,.2.2h-.1Z"/>
        <path class="st13" d="M115,35.3h0s.2.1.2.2,0,.2-.2.2,0,0,0,0h0c0,0,0,0,0,0,0,0,0-.2-.2-.3s0-.3,0-.3c0,0,.2,0,.2.2h0Z"/>
        <path class="st13" d="M132.5,35.7h.2-.3c0-.2.2-.3.2-.5s0,0-.1,0,0,0,0,0h0c0,0,0-.2.1-.2.2,0,.2.2.1.3s-.2.2-.2.3h0Z"/>
        <polygon class="st13" points="119.7 35.1 119.7 35.2 119.5 35.2 119.5 35.4 119.7 35.4 119.7 35.4 119.7 35.5 119.5 35.5 119.5 35.7 119.7 35.7 119.7 35.7 119.4 35.7 119.4 35.1 119.7 35.1"/>
        <polygon class="st13" points="120.5 35.1 120.5 35.2 120.3 35.2 120.3 35.4 120.5 35.4 120.5 35.4 120.5 35.5 120.3 35.5 120.3 35.7 120.5 35.7 120.5 35.7 120.3 35.7 120.3 35.1 120.5 35.1"/>
        <polygon class="st13" points="97.5 35.1 97.5 35.2 97.4 35.2 97.4 35.4 97.5 35.4 97.5 35.4 97.5 35.5 97.4 35.5 97.4 35.7 97.5 35.7 97.5 35.7 97.3 35.7 97.3 35.1 97.5 35.1"/>
        <polygon class="st13" points="117.6 35.1 117.6 35.2 117.4 35.2 117.4 35.4 117.6 35.4 117.6 35.4 117.6 35.5 117.4 35.5 117.4 35.7 117.6 35.7 117.6 35.7 117.4 35.7 117.4 35.1 117.6 35.1"/>
        <polygon class="st13" points="116.6 35.1 116.6 35.2 116.4 35.2 116.4 35.4 116.5 35.4 116.5 35.4 116.5 35.5 116.4 35.5 116.4 35.7 116.6 35.7 116.6 35.7 116.3 35.7 116.3 35.1 116.6 35.1"/>
        <polygon class="st13" points="122.6 35.1 122.6 35.2 122.4 35.2 122.4 35.4 122.5 35.4 122.5 35.4 122.5 35.5 122.4 35.5 122.4 35.7 122.6 35.7 122.6 35.7 122.3 35.7 122.3 35.1 122.6 35.1"/>
        <polygon class="st13" points="98.3 35.1 98.3 35.2 98.1 35.2 98.1 35.4 98.3 35.4 98.3 35.4 98.3 35.5 98.1 35.5 98.1 35.7 98.3 35.7 98.3 35.7 98.1 35.7 98.1 35.1 98.3 35.1"/>
        <polygon class="st13" points="115.8 35.1 115.8 35.2 115.6 35.2 115.6 35.4 115.7 35.4 115.8 35.4 115.8 35.5 115.6 35.5 115.6 35.7 115.8 35.7 115.8 35.7 115.5 35.7 115.5 35.1 115.8 35.1"/>
        <polygon class="st13" points="115.3 35.1 115.3 35.2 115.1 35.2 115.1 35.4 115.3 35.4 115.3 35.4 115.3 35.5 115.1 35.5 115.1 35.7 115.3 35.7 115.3 35.7 115.1 35.7 115.1 35.1 115.3 35.1"/>
        <polygon class="st13" points="99.4 35.1 99.4 35.2 99.2 35.2 99.2 35.4 99.3 35.4 99.3 35.4 99.3 35.5 99.2 35.5 99.2 35.7 99.4 35.7 99.4 35.7 99.1 35.7 99.1 35.1 99.4 35.1"/>
        <polygon class="st13" points="100.9 35.1 100.9 35.2 100.7 35.2 100.7 35.4 100.9 35.4 100.9 35.4 100.9 35.5 100.7 35.5 100.7 35.7 100.9 35.7 100.9 35.7 100.6 35.7 100.6 35.1 100.9 35.1"/>
        <polygon class="st13" points="130.9 35.1 130.9 35.2 130.8 35.2 130.8 35.4 130.9 35.4 130.9 35.4 130.9 35.5 130.8 35.5 130.8 35.7 130.9 35.7 130.9 35.7 130.7 35.7 130.7 35.1 130.9 35.1"/>
        <polygon class="st13" points="130.5 35.1 130.5 35.2 130.3 35.2 130.3 35.4 130.4 35.4 130.4 35.4 130.4 35.5 130.3 35.5 130.3 35.7 130.5 35.7 130.5 35.7 130.2 35.7 130.2 35.1 130.5 35.1"/>
        <polygon class="st13" points="129.3 35.1 129.3 35.2 129.1 35.2 129.1 35.4 129.3 35.4 129.3 35.4 129.3 35.5 129.1 35.5 129.1 35.7 129.3 35.7 129.3 35.7 129 35.7 129 35.1 129.3 35.1"/>
        <polygon class="st13" points="126.1 35.1 126.1 35.2 125.9 35.2 125.9 35.4 126 35.4 126 35.4 126 35.5 125.9 35.5 125.9 35.7 126.1 35.7 126.1 35.7 125.8 35.7 125.8 35.1 126.1 35.1"/>
        <polygon class="st13" points="103.9 35.1 103.9 35.2 103.8 35.2 103.8 35.4 103.9 35.4 103.9 35.4 103.9 35.5 103.8 35.5 103.8 35.7 103.9 35.7 103.9 35.7 103.7 35.7 103.7 35.1 103.9 35.1"/>
        <polygon class="st13" points="105.1 35.1 105.1 35.2 104.9 35.2 104.9 35.4 105.1 35.4 105.1 35.4 105.1 35.5 104.9 35.5 104.9 35.7 105.1 35.7 105.1 35.7 104.8 35.7 104.8 35.1 105.1 35.1"/>
        <polygon class="st13" points="127.9 35.1 127.9 35.2 127.7 35.2 127.7 35.4 127.8 35.4 127.9 35.4 127.9 35.5 127.7 35.5 127.7 35.7 127.9 35.7 127.9 35.7 127.6 35.7 127.6 35.1 127.9 35.1"/>
        <polygon class="st13" points="125.8 35.1 125.8 35.2 125.8 35.2 125.6 35.2 125.6 35.7 125.6 35.7 125.6 35.2 125.5 35.2 125.5 35.1 125.8 35.1"/>
        <polygon class="st13" points="103.3 35.1 103.3 35.7 103.5 35.7 103.5 35.7 103.2 35.7 103.2 35.1 103.3 35.1"/>
        <polygon class="st13" points="107.6 35.1 107.6 35.7 107.7 35.7 107.7 35.7 107.5 35.7 107.5 35.1 107.6 35.1"/>
        <polygon class="st13" points="109.6 35.1 109.6 35.7 109.8 35.7 109.8 35.7 109.5 35.7 109.5 35.1 109.6 35.1"/>
        <polygon class="st13" points="111.2 35.1 111.2 35.7 111.4 35.7 111.4 35.7 111.1 35.7 111.1 35.1 111.2 35.1"/>
        <polygon class="st13" points="115.9 35.1 115.9 35.7 116.1 35.7 116.1 35.7 115.9 35.7 115.9 35.1 115.9 35.1"/>
        <polygon class="st13" points="97.7 35.1 97.7 35.7 97.9 35.7 97.9 35.7 97.6 35.7 97.6 35.1 97.7 35.1"/>
        <polygon class="st13" points="134.6 35.1 134.6 35.7 134.8 35.7 134.8 35.7 134.5 35.7 134.5 35.1 134.6 35.1"/>
        <polygon class="st13" points="101.6 35.1 101.6 35.7 101.8 35.7 101.8 35.7 101.5 35.7 101.5 35.1 101.6 35.1"/>
        <path class="st13" d="M105.7,35.1v.5h0c0,.2,0,0,0,0h0c0,0,0,0,0,0v-.5h0Z"/>
        <rect class="st13" x="123.8" y="35.1" height=".6"/>
        <rect class="st13" x="120.9" y="35.1" height=".6"/>
        <rect class="st13" x="118.4" y="35.1" height=".6"/>
        <rect class="st13" x="106.5" y="35.1" height=".6"/>
        <rect class="st13" x="107" y="35.1" height=".6"/>
        <rect class="st13" x="113.8" y="35.1" height=".6"/>
        <path class="st13" d="M133.5,35.3h.1v.3s-.2,0-.2,0v-.3c0,0,0,0,0,0h0ZM133.5,35.4h0v.2h0v-.2h0Z"/>
        <path class="st13" d="M133.2,35.1h.1v.3c0,0-.2,0-.2,0v-.3c0,0,0,0,0,0h0ZM133.2,35.5h0v-.2h0v.2h0Z"/>
        <path class="st13" d="M133.5,35.1l-.3.6h0l.2-.6h.1Z"/>
        <path class="st13" d="M112.2,35.7h0Z"/>
        <path class="st13" d="M132.2,35.7h0Z"/>
        <path class="st13" d="M113.9,35h0Z"/>
      </g>
    </g>
    <g>
      <g>
        <path class="st13" d="M207.5,9.3h.4c0,0,0,0,0,0h5.3c.7,0,1.3,0,1.7.6s0,1.5,0,2.1,0,.7-.3,1-.9.3-1.4.3c-2.5,0-4.9-.1-7.4-.2s-.9-.2-1.2.3-.5,1-.8,1.5c-.6,1.1-1.1,2.1-1.7,3.2-.5,1-.2,2.3,0,3.3.2,1.6.5,3.3.6,4.9s.1,1.2-.2,1.8c-.5,1-1.4.7-2.4.7h-1.9c-1.4-.1-1.3-2-1.1-3,.3-1.2.7-2.4,1.1-3.5s.8-2.8.2-4.3-.7-1.4-1-2.1c-.7-1.4-1.3-2.8-2-4.2-.3-.8,0-1.3.7-1.5s1.5-.4,2-.1.5.4.6.7c.4.8.6,1.7.9,2.6s.2.7.4,1,.4.3.6,0c.5-1.3.8-2.8,1.3-4.1.4-.9,1.2-1,2.1-1h3.5Z"/>
        <path class="st13" d="M211.2,9.3h-.4c0,0,0,0,0,0h.5-.1Z"/>
        <path class="st13" d="M208,9.3h-.4.5-.1Z"/>
        <path class="st13" d="M211.6,9.3h-.4.4Z"/>
        <path class="st13" d="M207.5,9.3h-.3.3Z"/>
        <path class="st13" d="M209.2,14.2c2.3,0,5.1.5,5.8,3.1.7,2.6.2,1.3.2,2v5.3c0,1.8.3,3.8-1.7,4.2s-1.9.1-2.3-.2-.2-.5-.4-.5-.5.3-.6.4c-1.5,1-4.3.9-5.2-1s-.2-4,.4-5.4,1.7-2.9,3.4-2.7.8.3,1.1.4c.9.2.7-1.3.4-1.8-.6-1.1-2.2-.4-3.2-.7s-.8-.9-.7-1.5c.3-1.4,1.5-1.4,2.7-1.4v-.2ZM209,22.3c-.8,0-1.4,1.1-1.4,1.8s.1.4.4.4c.7,0,1.2-1,1.4-1.5s.2-.8-.4-.7Z"/>
        <path class="st13" d="M212.4,9.3h-.2.2Z"/>
      </g>
      <g>
        <path class="st13" d="M170.8,26.6v-1.1c0-4.6.7-9.1,1.1-13.7,0-.6,0-1.1.5-1.6.7-.9,1.9-.8,2.9-.8s2.2,0,3.1.3,1.7,1.4,2.3,2.4c1.9,3.3,3.1,7.1,2.3,10.9s-1.7,4.6-4.1,5.5-3.3.4-4.9.4h-1.7c-1.1-.2-1.4-1.2-1.4-2.2h-.1ZM176.3,17.4c.2.2.5,0,.6-.2.6-.7.6-2,.2-2.7s-.2-.4-.4-.4-.3.3-.3.5c0,.7-.1,1.5-.1,2.2v.7h0Z"/>
        <path class="st13" d="M189.7,9.3c.5,0,1.1,0,1.6.1,2,.4,2.5,2.2,2.9,3.9.7,2.9,1,5.9,1.5,8.9.3,2.2-.3,5.1-2.7,6s-4,.9-5.7.6-3.1-.9-3.4-2.9c-.3-1.6,0-3.1.4-4.6.5-2.7.8-5.5,1.6-8.1.6-2,1.6-3.8,3.9-3.9h-.1ZM190,19c-.4,0-.5.7-.5,1v1.8c0,.5.6.3.8,0,.5-.6.4-1.4.3-2.1s-.2-.8-.6-.7Z"/>
      </g>
    </g>
    <g>
      <path class="st13" d="M266,18.8c-1.1-.2-1.4-.4-1.4-.9s.4-.8,1.1-.8,1.2.4,1.4.7l.4-.3c-.3-.5-.9-.8-1.8-.8s-1.7.5-1.7,1.3.5,1.1,1.6,1.3c1.2.2,1.4.5,1.4,1s-.5.9-1.2.9-1.2-.3-1.6-.7l-.4.4c.5.6,1.2.9,2,.9,1.2,0,1.8-.6,1.8-1.4s-.5-1.2-1.6-1.4h0v-.2Z"/>
      <path class="st13" d="M271,16.6c-1.1,0-2.2.7-2.2,2.5s1.2,2.5,2.2,2.5,2.2-.7,2.2-2.5-1.2-2.5-2.2-2.5ZM271,21.1c-1,0-1.6-.7-1.6-2s.7-2,1.6-2,1.6.7,1.6,2-.7,2-1.6,2Z"/>
      <path class="st13" d="M275.2,16.7h-.6v4.8h2.8v-.5h-2.2v-4.3h0Z"/>
      <path class="st13" d="M280,16.7l-1.6,4.8h.6l.3-.9h2.2l.3.9h.6l-1.6-4.8h-.8ZM279.4,20.1l.9-2.9.9,2.9h-1.9.1Z"/>
      <path class="st13" d="M286.9,18.1c0-.7-.5-1.4-1.7-1.4h-1.6v4.8h.6v-2h1l1.2,2h.7l-1.3-2.1c.8-.2,1.1-.7,1.1-1.3h0ZM284.2,19v-1.8h1.1c.7,0,1,.3,1,.9s-.4.9-1,.9h-1.1Z"/>
      <path class="st13" d="M291.2,16.7h-.6v4.8h2.8v-.5h-2.2v-4.3h0Z"/>
      <path class="st13" d="M295.3,19.3h2.2v-.5h-2.2v-1.6h2.3v-.5h-2.9v4.8h2.9v-.5h-2.4v-1.7h.1Z"/>
      <path class="st13" d="M301.5,20.9l-1.4-4.2h-.9v4.8h.5v-4.2l1.4,4.2h.7l1.4-4.2v4.2h.6v-4.8h-.9l-1.4,4.2h0Z"/>
      <path class="st13" d="M307.5,16.6c-1.1,0-2.2.7-2.2,2.5s1.2,2.5,2.2,2.5,2.2-.7,2.2-2.5-1.2-2.5-2.2-2.5ZM307.5,21.1c-1,0-1.6-.7-1.6-2s.7-2,1.6-2,1.6.7,1.6,2-.7,2-1.6,2Z"/>
      <path class="st13" d="M314.1,20.6l-2.4-3.9h-.6v4.8h.5v-3.8l2.4,3.8h.6v-4.8h-.5v3.9Z"/>
      <path class="st13" d="M317.5,16.7l-1.6,4.8h.6l.3-.9h2.2l.3.9h.6l-1.6-4.8h-.8ZM317,20.1l.9-2.9.9,2.9h-1.9.1Z"/>
      <path class="st13" d="M322.5,16.7h-1.4v4.8h1.6c1,0,2.2-.6,2.2-2.5s-1.1-2.3-2.4-2.3h0ZM322.7,21h-1v-3.7h.8c1.2,0,1.7.7,1.7,1.8,0,1.6-.8,1.9-1.6,1.9h.1Z"/>
      <path class="st13" d="M326.9,21v-1.7h2.2v-.5h-2.2v-1.6h2.3v-.5h-2.9v4.8h2.9v-.5h-2.4.1Z"/>
      <path class="st13" d="M258.7,16.5v-3.1l-2.9.6-1.9-2.4-1.9,2.4-3-.6v3.1l-2.6,1.5,2,2.3-1,2.9,3,.5,1,2.9,2.6-1.5,2.6,1.5,1-2.9,3-.5-1-2.9,2-2.3-2.6-1.5h-.3ZM257.4,18.2c-.2.3-.3.7-.4,1.1,0,.5-.2.9-.5,1.3s-.8.7-1.2,1c-.3.1-.6.2-.9.3-.4,0-.9.1-1.3,0-.5,0-1-.2-1.5-.5-.3-.2-.6-.3-.9-.5-.2-.1-.4-.2-.5-.4-.3-.4-.3-.9,0-1.3.2-.2.3-.5.4-.8.1-.3.3-.5.5-.8.3-.3.6-.6,1-.8.3-.2.6-.3.9-.4.2,0,.4-.1.7-.2h1.3c.4,0,.8.3,1.1.6.3.2.6.5.9.5s.5.4.3.8h.1Z"/>
    </g>
    <g id="Generative_Object">
      <ellipse class="st33" cx="40.8" cy="19.4" rx="27.7" ry="15.1"/>
      <g>
        <path class="st85" d="M32,16.7s.1,0,.1.2c-.6.4-1,.9-1.3,1.5-.4,1.1,0,2.3.8,3,0,0,0,0,0,.1s-.9,0-1.1,0c-.7,0-1.6,0-2.3,0-.4,0-.7,0-1.1,0-.2,0-.3,0-.3,0-.3-.1-.4-.2-.1-.5,0-.4-.2-.4-.8-.2-.2-.2-.5-.2-.8,0,0,.1,0,.3-.1.4.2.1.2.3,0,.3h0c0,0-1.2,0-1.2,0,0-.1,0-.3,0-.4-.1,0-.1-.1,0-.1,0-.2.2-.3.4-.3.4.1.8,0,.8-.5h0c0,0,0-.2,0-.2.4-.3.8-.7,1.2-1.1v-.8s0,0,0,0c0,0,0-.1.2,0-.1-.5-.3-.9-.6-1.3h0c0-.2,0-.2.1-.2,1.9,0,3.8.1,5.7.2h.2Z"/>
        <path class="st85" d="M16.6,16.5c.9,0,1.8,0,2.6,0h.6c-.1.4-.3.8-.5,1.2,0,0,0,.1-.2.2l-.2.2c-.2,0-.4,0-.6.1,0,0,0,0,0,.1h0c-.5.2-.3.5,0,.7l1.1.3c0,0,0,.1,0,.2l.8.2c0,0,0,.1,0,.2,0,0,0,0,0,0,0,0,0,.5,0,.6h0s0,.1,0,.1c-.2-.1-.8-.3-.7.1s.1.2.2.2c.5,0,.3.3,0,.5h-.1c-.7-.1-1.4-.3-2.1,0h-.1c-.2,0-.5.1-.6,0,0,0,0,0,0,0,0-.2,0-1.4,0-1.4.2-.1.5-.2.7-.3,0-.2.2-.3.2,0,.2-.1.5-.2.7-.1,0-.1,0-.3-.2-.3-.4-.3-.9.2-1.2.5-.1.1-.2,0-.2,0,.1-.4.2-.7.1-1s-.4-.4-.6-.2c.1.2.3.8.2,1s0,.1-.2,0c-.1-.6-.7-.8-1.2-.3.2,0,.8.2.8.3s0,.1-.1.1c-.3-.1-.9-.3-1,.1s.1.2.1,0c0,0,.2,0,.2.1h.1c.2,0,.3,0,.4-.1,0,0,.2,0,.2.1.2,0,.4,0,.6.1h0c0,0,0,1.4,0,1.4h0c0,0,0,.1,0,.1-.2,0-1.5,0-1.6,0h0c-.5-1.7-.4-3.4.2-5,.5,0,1,0,1.5,0Z"/>
        <path class="st8" d="M23.9,21h0c0,.1,0,.5,0,.5v.3c0,0,0,0,0,0,0,0,.2.4.2.4h0c0,.1.1.1.1.1.2.3.4.5.7.7s.2.2.3,0l.2-.7h0c0-.2,0-.4.2-.5s.5,0,.5,0c.1,0,0,.4-.1.4h0c-.3.8.1,1.1.7.5h.1c0,0,0,0,0,0,.2,0,.6,0,.3.3.2,0,.3.2.2.3,0,0,0,0,0,.1,0,.2-.6.4-.8.4-.5,0-1,.2-1.5.4s-.6.3-.5.7h0c0,.3-.3.4-.2.1-.4-.1-.4.3-.1.5,0,.1,0,.2-.2.2,0,.2.1.3.5.3h0c0,0,0,.1,0,.1,0,.2,0,.5,0,.7,0,.1,0,.2,0,.3h0s0,.3,0,.8c0,.2,0,.4,0,.6l-1,.9-.6-.3v-1.3s0-.3,0-.3c0-.3-.1-.5,0-.8h0c0,0,0-.1,0-.1v-2.6c0-.2,0-.3,0-.3,0-.2.1-.1.3,0,.2,0,.3,0,.3-.2.3,0,.5,0,.8,0,.1-.2,0-.3-.2-.4,0-.6-.7-.8-1.2-.5-.3.2-.4.2-.4,0-.2,0-.3,0-.3-.2-.1,0-.2,0-.1,0-.2,0-.3-.1-.5-.2-.1,0-.2,0-.2-.2-.2,0-.5-.3-.6-.5h0c-.1-.1-.2-.2,0-.3s.7,0,.5.1h0c0,0,0,0,0,.1,0,0,.2,0,.2.2h0c.5.2,1.3.4,1.4-.4h0c-.1,0,0-.3,0-.3,0-.1,0-.2,0-.2.1,0,.7-.2.5,0Z"/>
        <path class="st60" d="M31,22.7l-2.3,2.2-2.8,2.6h-.2c-.4,0-.8,0-1.1,0h0c0,0,0-1.2,0-1.2,0-.1.3-.2.4-.2.4,0,.9,0,.4-.4,0-.4-.3-.9-.7-.6h-.1c0-.4,0-.7.4-.9s1-.3,1.5-.4.7-.2.9-.5h.1c.4,0,.7,0,1.1,0,.1-.1.1-.2,0-.4,0-.1,0-.2,0-.3,0-.1,0-.1.2-.2.4,0,1.5.2,1.9.3s0,0,.1,0,0,0,0,0Z"/>
        <path class="st7" d="M26.9,21.5c0,0,.1.1,0,.2.5-.3,1.3-.4,1.7.1.7,0,1.5.2,2.3.3.2,0,.4,0,.5.2l-.4.4c-.7-.2-1.5-.3-2.2-.4,0,.2,0,.3,0,.4,0,0,.1.2.1.3s-.1.2-.3.2h-.4c-.3,0-.5,0-.7,0,0-.1-.3-.1-.3-.3s0,0,.1-.1h-.3c0,0,0,0,0,0-.2,0-.3-.3-.1-.5-.2,0-.5,0-.7,0h0c0,0,0-.4,0-.4-.2,0-.4,0-.5,0v.4c-.1,0-1.5,0-1.5,0h0c-.2-.4-.3-.7-.2-1,.1,0,.1,0,.1.3h1.1c0-.1,0-.2,0-.3,0,0,.1,0,.2-.1,0,0-.2,0-.2,0,0-.2.1-.3.1-.3v-.2c.3-.1.6-.1.9,0,.2,0,.5-.2.7-.2s.2.2.1.3,0,.2-.2.3c.1,0,.2,0,.2.2Z"/>
        <path class="st14" d="M21.5,22.2c0,.1,0,.4,0,.5h0c0,1.2.1,2.3.2,3.5h0c0,.2,0,.4,0,.5.1.1.1.5,0,.6,0,0,0,0,0,0s0,0,0,0c-.3-.5-.9-.9-1.4-.8,0,0-.1,0,0-.2,0,0,0,0,0-.2v-.2c-.1-.2-.2-1.1-.1-1.3s0,0,0,0h.3c.4,0,.7-.3.7-.7h-.2c0-.4-.3-.5-.5-.6h-.7c-.1,0-.2,0-.3-.1,0,0,0,0,0,0,0,0-.5-.6-.6-.7h0c0,0-.3-.4-.3-.4,0,0,0,0,0,0-.1,0-.1,0,0-.1,0-.2.5-.4.7,0s0,.2,0,.2h.1c.2.3.4.7.7.8v-.7c0,0,.2,0,.2,0v-.2c0,0,0-.1,0-.2.2,0,.4,0,.6,0,0,0,.2-.1.3,0,.1.1.2.3.4.4s.1.1.2.2Z"/>
        <path class="st64" d="M31.4,22.4c-.5-.1-.9-.2-1.4-.2l-1.4-.2c-.3-.5-1.1-.5-1.5-.2s-.2.1-.4,0c.1,0,.1-.2.1-.3h3.7s1.1,0,1.1,0c0,0,0,0,0,0l.4.3-.7.7Z"/>
        <path class="st47" d="M16.5,21.5v1.7c-.4,0-.6-.1-.9,0-.3-.6-.6-1.2-.8-1.8,0,0,0,0,.2,0h1.5Z"/>
        <path class="st70" d="M22.9,27v.9s-.4-.4-.4-.4c-.2-.3-.6-.4-.9-.1v-1.1s0,0,0,0v.4c.4.1.8.2,1.2.3Z"/>
        <path class="st58" d="M25.9,27.5c0,0-.1.1-.2.2-.3-.2-.6-.2-.8,0s-.3.3-.3.4c0,0,0,0,0-.1v-.7s1.4.2,1.4.2Z"/>
        <path class="st1" d="M24.2,19.4h0c.3,0,.6.1.5.5.2,0,.3.1.2.2,0,.1,0,.3,0,.4-.1.2-.4.3-.7.2s-.3,0-.5.2c0,0,0,0,0,0h-.5c0,0,0,.2,0,.2,0,0-.1-.1-.2-.2h0c-.3,0-.6,0-.6-.4-.8,0-.5-.7.1-.7h0c0-.4.3-.5.6-.4.1-.1.2-.2.4-.2.2,0,.4,0,.6.1Z"/>
        <path class="st46" d="M25.8,16.6h.1c.2.4.5,1,.5,1.4h0c0,0,0,1,0,1-.4.4-.8.7-1.2,1.1s0,0-.1,0c0-.1-.2-.1-.3-.1,0-.1,0-.3,0-.4-.2-.2-.4,0-.5-.2h0c0,0,.6,0,.6,0,.2-.4.4-.7.5-1.2l.4-1.7s0,0,0,0,0,0,0,0Z"/>
        <path class="st46" d="M22.7,19.1h.2s.2,0,.2,0c.2,0,.3,0,.5.1-.2.1-.3.2-.4.4,0-.2-.2-.1-.3,0s-.2.2-.2.3h-.2c-.2,0-.6,0-.8,0-.1,0-.7.1-.6,0s0,0,0,0l.7-.4c.3-.1.5-.2.8-.2Z"/>
        <path class="st6" d="M26,16.6l.5.7c.1.2.2.5.2.8h-.3s-.2-.7-.2-.7c0-.3-.3-.5-.4-.8s0-.2,0-.3c0,0,.1.2.2.3Z"/>
        <path class="st19" d="M25.1,21.4c0,0,0,.1,0,.2,0,.2.3,0,.6,0,0,.1-.2,0-.3,0-.5,0-1,0-1.5,0,0-.1,0-.2,0-.3s0-.2,0-.3v.3s1.2,0,1.2,0Z"/>
        <path class="st17" d="M20.3,20.6c0,0,0,0,.2,0,.1-.2.6-.4.7-.1.2,0,.2.1.1.3-.1,0-.1.1,0,.2,0,0,0,0,0,0,.8,0,.5.4,0,.8,0,0,0-.1,0-.1h-.5c0,0,0,0,0,0s0,0,0,0c-.2.2-.5.3-.8.2,0,.1,0,.2,0,.3-.1,0-.1-.2,0-.2-.3,0-.6-.3-.3-.5,0-.1.1-.2.3-.3-.2,0-.4,0-.5-.2s0-.3,0-.4.2-.2.4-.1l.4.2Z"/>
        <path class="st15" d="M17.4,21.5c0,0,0,.1-.1.2l1.1.2c0,0,.2,0,.2,0l.3.4s0,0,0,0,0,0,0,0c-.4.1-.7.2-1.1.2-.3,0-.5.2-.8.4v-1.6s.6,0,.6,0Z"/>
        <path class="st21" d="M19.7,21.4c0,.3.1.3.3.5,0,.2-.3.2-.5.2-.2,0-.3,0-.5,0,0,0,0-.2-.1-.3s-.5.1-.4.3c-.1,0-.3,0-.4,0l-1-.2c.1-.1.2-.2.3-.3.7-.4,1.5-.3,2.3,0Z"/>
        <path class="st40" d="M21.1,19.8c.1,0,.1.2,0,.3.1,0,.2.4,0,.3-.2-.2-.5,0-.7.2h-.2c0,0,0-.8,0-.8,0-.4,0-.8.2-1.3.4,0,.4.7.5,1.2Z"/>
        <path class="st56" d="M22.2,22.6h.1c0,.1,0,.2,0,.2-.3,0-.4.2-.3.3.2.1.3.2.2.3-.5.2-.2.6.3.5.1,0,.3,0,.4,0v.3c0,0,0,2.7,0,2.7,0,0,0,0-.2,0l-1.1-.3v-.4s0,0,0,0l-.2-3.5s0,0,0,0c.2,0,.6,0,.8,0Z"/>
        <path class="st61" d="M22.9,23.9c-.2.1-.4.2-.7.1s-.4-.3-.3-.5.2-.1.3-.2c-.1,0-.3-.1-.3-.3s0-.2.1-.3h.3c0,0,.2,0,.4,0v.2c.3-.3.8-.4,1.2-.1s.3.3.3.5c.1,0,.3,0,.3.2s0,.3,0,.3c-.3,0-.5,0-.8,0v.2c-.4.2-.6-.1-.6-.1s0,0,0,0Z"/>
        <path class="st86" d="M24.6,26.3c-.4,0-.7,0-.7-.4s.1-.2.3-.2c-.2-.1-.3-.4-.2-.6s.3,0,.4,0v.2s.1-.2.1-.2c0,0,.2-.2.4-.2.4,0,.6.4.5.8.1,0,.2.1.2.2s0,.2,0,.3c-.2,0-.4,0-.6,0h-.4Z"/>
        <path class="st56" d="M25.5,22.4l-.2.7c0,0-.2.2-.3.2-.4-.2-.7-.6-1-1h1.3s0,0,0,0,0,0,0,0Z"/>
        <path class="st32" d="M23.2,21.4c0,.2,0,.4-.2.5-.3.4-.9.2-1.4,0,0-.1.2-.5.3-.4h.1c.3,0,.7,0,1,0h0Z"/>
        <path class="st56" d="M26.9,22.9c-.3.3-.6.5-.9.3s-.1-.5,0-.9h.6c.1,0,.2,0,.3.1,0,0-.1.1-.1.2,0,.1.2.2.1.3Z"/>
        <path class="st39" d="M23.3,21.1v.3s-1.3,0-1.3,0c0-.1.2-.5.3-.4,0,0,.2-.1.4,0,.2,0,.3,0,.4,0,0,0,.1,0,.1,0s0,.1,0,.2Z"/>
        <path class="st4" d="M22.3,21c-.1,0-.2.3-.3.4s-.3.3-.3.4c0,0-.2,0-.2-.2h0c0-.1.3-.4.3-.4,0-.2.1-.3.2-.3-.1-.3.2-.6.4-.4s.1.4,0,.4Z"/>
        <path class="st87" d="M22.2,22.6h-.8c0,0,0-.2,0-.4.2,0,.5.2.7.4Z"/>
        <path class="st43" d="M21.9,21c-.1.2-.3.4-.5.6,0,0,0,0,0,0,0,0,0,0,0-.1s.5-.2.3-.4-.3-.1-.5-.1c-.2,0,0-.2,0-.2s.6.2.6.2h0Z"/>
        <path class="st70" d="M19.4,23.2s0,0,0,0l-.8-.2-.6-.4c-.1,0-.3,0-.4,0,.4,0,.8-.1,1.2-.3l.6.8Z"/>
        <g>
          <path class="st77" d="M16.8,21.5h0c0,.5,0,1,0,1.5,0,0,.5-.3.6-.3s0,0,0,0c.4,0,.7,0,1,.3.3,0,.6.1.8.2,0,0,.2,0,.3,0h.7c.3,0,.5.2.6.5.5.2,0,.8-.3.9s-.5.1-.6,0c0,0,0,0,0,0,0,0-.7-.1-.8-.1h0c0,0,0-.1,0-.1.2-.2.1,0-.3.2-.1,0-.2,0-.2,0,.2-.7.2-.7,0,0h-.1c0,.1-.2.2-.3.2h0c0-.2,0-.4-.2-.6,0,.2,0,.3.1.4h0c0,.2-.3.4-.4.3-.2,0-.2-.3-.1-.4-.1,0-.2,0-.3-.3,0,.2.2.5.3.7h0c0,0,0,.2,0,.2-.2,0-.4-.1-.6-.2-.4-.5-.8-1-1.1-1.6,0-.1,0-.2.2-.2h.6s0-1.5,0-1.5h0c0,0,0-1.5,0-1.5h-.7c0,0,0-.3,0-.3,0,0,0,.1,0,.1s-.3,0-.4-.1c0,.1,0,.1-.2.1s0-.1,0-.2c0,0,0,.1,0,.2,0,0-.2,0-.3,0,0-.2.1-.5.3-.5s.5,0,.8.2c-.2-.2-.6-.3-.9-.3.2-.3.6-.6,1-.4s.3.4.4.7c0-.7-.2-1.1-.2-1.1,0,0,0-.1.1-.2.2,0,.6,0,.6.3,0,.4,0,.8-.2,1.2.2-.2.4-.4.6-.6s.6-.2.8,0,0,.3.2.4h-.6c0,0-.3.2-.4.1s0,0,0-.1v.2s-.8.2-.8.2v1.4Z"/>
          <path class="st81" d="M19.2,24.4h0c-.5.4-.7.8-.8,1.3h-.1c.1.1.1.5,0,.6,0,0-.1-.1-.2-.2l-.6-.6-.2-.7h0c-.1-.4-.4-.9-.3-.9s.1,0,.1,0v.3c.1,0,.3-.4.3-.4,0,0,0,0,0,0s.1,0,0,0l-.2.5c0,.1,0,.2,0,.3,0,0,.2,0,.2.2.1.1.2,0,.1-.3h0c-.1-.4-.2-.7,0-.7s0,0,.1,0v.6c.2,0,.3,0,.3.1,0-.1.1-.2.2-.3l.3-.7s.2,0,.2,0l-.2.6c.3,0,.5-.5.6-.3s0,0,0,0h-.1Z"/>
          <path class="st57" d="M20.1,26.1v.4c-.1,0-.3.2-.5.3-.5-.8-1.2-.4-1.3-.5v-.5s.1,0,.1,0c.5.2,1.1.3,1.6.4h.1Z"/>
          <path class="st75" d="M17.4,24.9c0,.2.2.6.1.7-.3-.3-.5-.6-.8-.9.1-.1.4.1.6.1Z"/>
          <path class="st56" d="M20.1,24.6c0,.5,0,1,0,1.5,0,0,0,.1,0,.2-.5-.1-1-.2-1.5-.4s-.2,0-.3,0c0-.4.2-.8.4-1.1l.5-.3.9.2Z"/>
          <path class="st74" d="M18,24.6c0,.1,0,.4,0,.5-.2,0-.3-.2-.4-.3.2,0,.3-.2.4-.2Z"/>
          <path class="st26" d="M18.5,24.6c0,.1,0,.3-.2.4v-.3c-.1,0-.1,0,0,0h.3Z"/>
        </g>
        <path class="st50" d="M20,21.9c0,0,0,.2,0,.2v.9c-.5-.2-.8-.6-1-1,.3,0,.7,0,1-.1Z"/>
        <g>
          <path class="st45" d="M60,28.7c-6.2,3.4-14.2,4.6-21.3,4.3-4.8-.2-9.6-1.1-14.1-2.9l3.1-2.9,4.8-4.5.6-.6h.4s31.3,0,31.3,0c.6,0,1.2.7,1,1.2s-.5.9-.8,1.3c-1.3,1.7-3.2,3.1-5.1,4.1Z"/>
          <g>
            <path class="st78" d="M33.5,26.7h-.6c.1-.3.3-.6.6-.8.1.1.1.3.2.5-.2.1,0,.2-.2.4Z"/>
            <path class="st23" d="M35,27l-.4-.2h-.2c.2,0,.3-.5.7-.7v.5c.1.1.2.2.3.3h-.3Z"/>
            <path class="st11" d="M43.5,27.1l-.7-.2c.2,0,.3-.3.6-.5,0,.3,0,.5.3.7,0,0-.2,0-.2,0Z"/>
            <path class="st67" d="M31.7,29.7h-.5c0,0,0-.2.1-.2.1-.2.3-.3.4-.4.2.3,0,.4,0,.7Z"/>
            <path class="st80" d="M32.8,30.2l-.3-.2c0,0-.2,0-.2,0,.2,0,.3-.3.6-.5,0,.3,0,.5.1.7,0,0-.2,0-.2,0Z"/>
            <path class="st29" d="M53.6,29.8h-.3c0-.1-.5-.1-.5-.1-.1,0-.3,0-.4,0,0-.2.1-.4.3-.6.2.2,0,.3,0,.5h.5c0-.2.1-.3.3-.5,0,.3.2.5.1.6Z"/>
            <g>
              <path class="st78" d="M42.4,26.9h-.4s-1.4,0-1.4,0c0,0,0,0,0,0h.9c.1-.2.3-.4.5-.6,0,.1.1.2.1.4-.1,0-.2.2,0,.3s.2,0,.2,0Z"/>
              <path class="st0" d="M43.3,27.9h.3c0,.1-.1.3,0,.4-.4,0-.6-.2-.9-.3h.6Z"/>
              <path class="st80" d="M41.9,28.1h-.4c.1.2.1.3,0,.5-.2-.2-.4-.3-.5-.5.2,0,.5,0,.8,0s.1,0,.1,0Z"/>
              <g>
                <path class="st46" d="M40.6,26.8c.3,0,.7,0,1,0,.2,0,.3,0,.5,0,0,0,.1.1.2.1h.5c.1,0,.3,0,.4,0,.2,0,.3,0,.3.2,0,0,0,0,0,0h.2c.4,0,1-.3,1.7-.3l-.3.5c-.2.3.3.3.4.7l-1-.2c-.5,0-.9,0-1.3,0,0,0,0,0,0,0,0,.2-.5.2-.6.1h-.7c-.1,0-.2,0-.4,0-.1.1-.4,0-.5,0-.7,0-1.3-.2-1.9-.6l-.2-.2c.3-.4,1.2-.4,1.7-.4Z"/>
                <path class="st11" d="M43.8,27.2c0,0-.2,0-.2,0,0,0,.2,0,.2,0Z"/>
                <circle class="st30" cx="39.4" cy="27.3" r="0"/>
              </g>
            </g>
            <g>
              <path class="st73" d="M39.8,31.7c.2,0,.4-.1.6-.2,0,0,0,0,.2,0-.1.1,0,.3,0,.5-.4,0-.6-.3-.8-.3Z"/>
              <path class="st24" d="M40.5,30.7c-.2,0-.4-.1-.6-.2.3,0,.3-.3.6-.5,0,.3,0,.5.2.6-.1,0-.2,0-.2,0Z"/>
              <path class="st69" d="M39.3,30.5h-.6s-.5,0-.5,0c0,0,0,0,0,0h.6c0-.2.2-.5.4-.6.2.2,0,.4,0,.6Z"/>
              <g>
                <path class="st46" d="M40.4,31.5c0,.3-.4.3-.6.2h-.1c-.3,0-.5,0-.8,0,0,0-.4,0-.4,0-.7,0-1.4-.3-2-.7.3-.4,1.3-.5,1.8-.5.2,0,.4,0,.6,0,0-.1.4-.1.4,0h0s.3,0,.3,0h.2c.2,0,.4,0,.5,0h0c.6.4,1.1-.2,1.8-.2l-.3.6.4.4c0,0-.2,0-.2,0l-1-.2c-.3,0-.6,0-.8.1Z"/>
                <path class="st37" d="M39.7,31.7s0,0,0,0h-.7c0,.2.1.3,0,.5-.2-.2-.3-.3-.4-.5h1.2Z"/>
                <path class="st69" d="M39.7,30.5c-.1,0-.2,0-.3,0,0,0,.2,0,.3,0Z"/>
                <path class="st66" d="M36.9,31.1s0-.2,0-.2,0,.1,0,.2Z"/>
              </g>
            </g>
            <g>
              <path class="st38" d="M54.7,24.1l-.4-.2h-.2s.2,0,.2,0c.1-.2.2-.4.4-.5,0,.3,0,.5.2.7-.1,0-.2,0-.2,0Z"/>
              <path class="st28" d="M53.9,25.1c.2,0,.4,0,.6-.2,0,0,.1,0,.2,0,0,.1,0,.3,0,.4-.4,0-.6-.3-.8-.3Z"/>
              <path class="st59" d="M53.7,23.9h-.7c0-.3.2-.5.4-.7,0,.1.1.2,0,.4h0c0,.2,0,.3,0,.3s.1,0,.2,0Z"/>
              <g>
                <path class="st46" d="M54.5,24.9c0,.3-.4.2-.6.2h-.1c-.2,0-.5,0-.8,0-.1.1-.3,0-.5,0-.7,0-1.3-.2-1.8-.6s-.1,0,0-.1c0-.2.7-.4,1.1-.4h1.3c0-.1,0-.2,0-.2.2,0,.4,0,.6.1,0,0,.2,0,.2,0h.2c.1,0,.5,0,.5.2h0c.2,0,.3,0,.5,0l.5-.2c.2,0,.5-.2.7-.2l-.2.4c0,0,0,.2,0,.2l.4.4c0,0-.1,0-.2,0h-.7c-.4-.2-.8-.2-1.2,0Z"/>
                <path class="st31" d="M53.8,25.1s0,0,0,0h-.7c.1.1.1.3,0,.5-.2-.2-.3-.3-.4-.5.2,0,.4,0,.6,0h.6Z"/>
                <path class="st38" d="M55.2,24.1c-.2,0-.3,0-.5,0h.5Z"/>
                <path class="st54" d="M51.1,24.5s0-.2,0-.2,0,.1,0,.2Z"/>
              </g>
            </g>
            <g>
              <path class="st63" d="M50.6,27.1h-1c0-.3.2-.5.4-.7.2.3,0,.4,0,.6h.5s0,0,0,0Z"/>
              <path class="st65" d="M50.5,28.3c.2,0,.4,0,.6-.2,0,0,.1,0,.3,0,0,.2,0,.3,0,.4-.4,0-.6-.3-.9-.3Z"/>
              <path class="st24" d="M51.2,27.3l-.5-.2c.2,0,.2-.4.5-.5,0,.3,0,.4.2.6h-.2Z"/>
              <g>
                <path class="st46" d="M51,28.1c0,.1-.1.2-.3.2h-.3s-.7,0-.7,0c-.9,0-1.8-.2-2.6-.7.2-.5,1.8-.6,2.4-.6,0-.1.4,0,.4,0s0,0,0,0c.2,0,.4,0,.5,0,0,0,0,0,.1,0,.1,0,.5,0,.5.2h.2c.1,0,.2,0,.3,0l.5-.2c.2,0,.5-.2.7-.2l-.3.6.4.4c0,0-.1,0-.2,0l-.9-.2c-.3,0-.7,0-.9.2Z"/>
                <path class="st24" d="M51.7,27.3c-.1,0-.2,0-.3,0h.3Z"/>
                <path class="st8" d="M47.7,27.7c0,0,0,0,0,0s0,0,0,0,0,0,0,0c0,0,0,.1,0,.1Z"/>
              </g>
            </g>
            <g>
              <path class="st71" d="M61.5,24.1l-.4-.2.4-.6c0,.3,0,.5.2.7-.1,0-.2,0-.2,0Z"/>
              <path class="st67" d="M61.1,25.1c.2,0,.3-.1.4-.2h.2c0,.2,0,.4,0,.5-.3,0-.5-.1-.6-.3Z"/>
              <path class="st68" d="M60.6,23.9h-.4c0-.2.2-.5.4-.6,0,0,0,.2.1.3,0,0,0,.2,0,.3Z"/>
              <g>
                <path class="st46" d="M61.5,24.9c0,.2-.3.3-.4.2-.9.2-2.3,0-3-.7.2-.4,1.6-.6,2.1-.6,0-.1.4-.1.4,0h.6c0,0,.4,0,.4.2.6.2,1-.3,1.6-.3l-.2.4c-.2.3.2.4.3.7-.6.1-1.1-.3-1.7,0Z"/>
                <path class="st2" d="M58.5,24.5s0-.2,0-.2,0,.1,0,.2Z"/>
              </g>
            </g>
            <g>
              <path class="st71" d="M38.3,23.7c-.2,0-.4-.2-.7-.2,0,0,.2,0,.2,0,.2-.2.3-.5.6-.7v.5c.1.1.2.2.3.3-.2,0-.4,0-.4,0Z"/>
              <path class="st79" d="M36.9,23.4h-.6c.1-.3.3-.6.6-.9,0,.2.1.3.1.5-.2.2,0,.3-.1.4Z"/>
              <path class="st72" d="M38.3,24.8c0,0,.1,0,.2,0,0,.2,0,.4,0,.6-.3,0-.6,0-.8-.3s-.1-.1-.2-.1c.3,0,.5-.2.8-.3Z"/>
              <path class="st82" d="M36.6,25.1h-.4c.2.2.2.5,0,.7-.2-.2-.4-.4-.6-.7.4,0,.7,0,1,0Z"/>
              <g>
                <path class="st46" d="M38.3,24.8c0,.1-.3.3-.4.3,0,0-.2,0-.3,0h-.1s-.3,0-.3,0h-.5s-.4,0-.4,0c0,0,0,0,0,0-.1,0-.5,0-.6,0l-1.1-.2c-.6-.1-1.1-.4-1.6-.8.4-.4.8-.5,1.3-.6.7-.1,1.4-.2,2.1-.2,0-.1.5-.1.6,0s0,0,0,0h0c.2,0,.4,0,.6,0h.1c.2,0,.6,0,.7.2.4.1.8.1,1.3,0s.8-.3,1.3-.3l-.4.6c0,.1,0,.2,0,.3l.5.4c0,0-.1,0-.2,0h-.9c-.5-.2-1.1-.2-1.5,0Z"/>
                <path class="st79" d="M37.5,23.5h-.5s0,0,0,0h.5s0,0,0,0Z"/>
                <path class="st82" d="M37.4,25.1c0,0-.2,0-.3,0,0,0,.2,0,.3,0Z"/>
                <path class="st48" d="M33.6,24.2c0,0-.1,0-.1-.1s0-.1,0-.1.1.2,0,.2Z"/>
              </g>
            </g>
            <g>
              <path class="st73" d="M58.6,27h-.3c0-.1-.3-.2-.3-.2,0,0,.1,0,.2,0l.3-.5c.1,0,0,.3.2.6,0,0-.1,0-.1.1Z"/>
              <path class="st73" d="M57.8,26.7c-.3,0-.6,0-1,0,0,0,.2,0,.3,0,.1-.2.2-.4.4-.6,0,0,0,.2.1.3,0,0-.1.2,0,.3s.2,0,.2,0Z"/>
              <path class="st51" d="M57.9,28c.2,0,.4,0,.5-.2,0,0,.1,0,.2,0,0,.1,0,.3,0,.4-.4,0-.5-.3-.8-.3Z"/>
              <path class="st43" d="M57.8,28s0,0,0,0h-.6c0,.2.1.3,0,.4-.2-.2-.3-.3-.4-.5h1.1Z"/>
              <g>
                <path class="st46" d="M58.5,27.8c0,.2-.3.2-.5.2,0,0,0,0-.1,0-.2,0-.4,0-.7,0,0,0-.3,0-.4,0-.6,0-1.2-.3-1.7-.7.3-.5,1.2-.5,1.8-.6.1,0,.3,0,.4-.1.1,0,.3,0,.3,0h.3s.1,0,.2,0c.1,0,.2,0,.3,0,.2,0,.3.1.3.2.4.2.9-.3,1.5-.3,0,.3-.3.5-.2.7s.3.2.3.4c-.2,0-.5,0-.7,0-.4,0-.8,0-1.1.1Z"/>
                <path class="st36" d="M55.4,27.3s0-.2,0-.2,0,.1,0,.2Z"/>
              </g>
            </g>
            <g>
              <path class="st73" d="M34.9,28.1c0,0,.2,0,.3,0-.1.2,0,.4,0,.6-.4,0-.7-.2-.9-.4h-.7s0,0,0,0h.8c.2,0,.4-.1.6-.2Z"/>
              <path class="st23" d="M32.9,28.2s0,0,0,0c.2.1.2.4,0,.6-.2-.2-.5-.5-.6-.7h.6Z"/>
              <g>
                <path class="st46" d="M32.8,26.6c0,0,0,0,.1,0,.1,0,.5,0,.5.1h.8c0,.1,0,.1,0,.1.2,0,.5,0,.6.2,0,0,.1,0,.2,0h.1c.7.2,1.4-.3,2.2-.2l-.4.6c0,.1,0,.2,0,.3l.5.4c0,0-.2,0-.3,0l-1.3-.3c-.3,0-.6,0-.8,0s-.2,0-.3.1c0,.2-.4.3-.6.2-.3,0-.5,0-.8,0h-.6c0,0-.1,0-.1,0-.2,0-.4,0-.5-.1-.8-.1-2-.5-2.7-1.1.2-.2.5-.3.8-.4.6-.1,1.2-.1,1.8,0h.7Z"/>
                <path class="st23" d="M35.3,27.1s-.1,0-.1,0c0,0,.1,0,.1,0Z"/>
                <path class="st77" d="M30.2,27.2c0,0,0-.2,0-.2s.1,0,.1.1,0,.1-.1.1Z"/>
              </g>
            </g>
            <g>
              <path class="st18" d="M46.7,31.6c.2,0,.4-.1.6-.3,0,0,0,0,.2,0,0,.1,0,.3,0,.5-.4,0-.5-.3-.8-.3Z"/>
              <path class="st34" d="M47.4,30.5l-.4-.2c.2-.1.2-.4.5-.5,0,.3,0,.5.1.7-.1,0-.2,0-.2,0Z"/>
              <path class="st12" d="M46.4,30.3h-.4c0-.2.2-.5.4-.6,0,0,.1.2.1.3,0,0,0,.2,0,.3Z"/>
              <g>
                <path class="st46" d="M47.3,31.3h0c-.2.2-.4.3-.6.3-1,0-2,0-2.8-.7.3-.5,1.5-.6,2.1-.6,0-.1.4-.1.4,0h.6c0,0,.4,0,.4.2.6.2,1-.3,1.6-.3,0,.2-.3.4-.2.6s.3.3.4.4c-.1,0-.3,0-.4,0-.5-.1-1-.2-1.4,0Z"/>
                <rect class="st35" x="44.2" y="30.8" width=".2" height=".1" transform="translate(12.6 74.4) rotate(-88.8)"/>
              </g>
            </g>
            <g>
              <path class="st34" d="M47.3,23.9c-.2,0-.3-.1-.5-.1h-.3c.3,0,.3-.4.7-.6,0,.2,0,.4.2.6,0,0,0,0,0,.1Z"/>
              <path class="st79" d="M47,24.7c0,0,.1,0,.2,0-.1.2-.1.3,0,.5-.3,0-.6,0-.8-.3.2,0,.4-.1.6-.2Z"/>
              <path class="st55" d="M46.1,23.7h-.8c0-.3.2-.5.5-.7,0,0,.1.2.1.4-.1,0-.1.2,0,.3,0,0,.2,0,.3,0Z"/>
              <path class="st23" d="M46,24.9s0,0,0,0h-.7c.1.1.1.4,0,.4-.2,0-.4-.3-.5-.5h1.2Z"/>
              <g>
                <path class="st46" d="M47,24.7c0,.2-.4.3-.6.2h-.5c-.2,0-.5,0-.7,0,0,0,0,0,0,0-.1,0-.4,0-.5,0h-.6c-.6-.2-1.2-.3-1.7-.7.3-.3.7-.4,1.1-.4h1.7c0-.3.4-.2.5-.1,0,0,.2,0,.3,0,0,0,.2,0,.3,0,.1,0,.3,0,.4,0,.1,0,.4.1.4.2.2,0,.4,0,.6,0,.4-.1.8-.3,1.2-.3-.2.4-.5.5-.2.8l.4.3c-.1,0-.2,0-.4,0h-1.1c-.3-.1-.6-.1-.8,0Z"/>
                <path class="st62" d="M43,24.3c0,0,0-.2,0-.2s0,0,0,.1,0,.1,0,0Z"/>
              </g>
            </g>
            <g>
              <path class="st82" d="M52.5,30.7s0,0-.2,0c0,.1,0,.3,0,.4-.2-.1-.2-.2-.3-.4h-.2c0,0,.7,0,.7,0Z"/>
              <g>
                <path class="st46" d="M52.5,30.7c-.1,0-.2,0-.2,0-.2,0-.3,0-.5,0-.5,0-.9-.2-1.2-.5.2-.2.4-.4.7-.4l1-.2c0-.1.3-.1.3,0h.5c0,0,.4,0,.4.2.5,0,.7-.4,1.2-.4l-.2.5c0,.2.2.3.3.4-.5.2-.9-.3-1.6.2s-.5.2-.8.2Z"/>
                <path class="st76" d="M51,30.3s0-.1,0-.2c0,0,.1.1,0,.2Z"/>
              </g>
            </g>
            <g>
              <path class="st53" d="M32.7,31c0,0,.1,0,.2.1,0,.2,0,.3,0,.5-.3,0-.6-.2-.7-.5h.6Z"/>
              <path class="st83" d="M31.2,31c-.2,0,0,.3-.2.4-.2-.2-.3-.4-.4-.6l.6.2Z"/>
              <g>
                <path class="st46" d="M31.1,29.7c.1,0,.5,0,.5,0l.7.2c.2,0,.5,0,.5.3.7.4,1.2,0,2,0l-.3.4c0,0,0,.2,0,.3l.4.4c0,0-.1,0-.2,0l-1-.3c-.3,0-.6,0-.9,0,0,0,0,0,0,0-.1,0-.5.1-.6,0h-.3s-.3,0-.3,0h-.4c0,0-.2,0-.2,0-.2,0-.3,0-.4-.2-.7-.2-1.5-.5-2-1.1.3-.2.6-.3,1-.3h1.6Z"/>
                <path class="st53" d="M31.8,31.1c-.1,0-.2,0-.3,0,.1,0,.2,0,.3,0Z"/>
                <rect class="st44" x="28.9" y="29.8" width=".2" height=".1" transform="translate(-4.6 54.4) rotate(-81.9)"/>
              </g>
            </g>
          </g>
        </g>
        <g>
          <path class="st46" d="M66.3,20.7c-.4.3-.8.4-1.3.4h-31.3c-.6,0-1.1-.3-1.4-.7s-.6-1.2-.3-1.8.9-1.2,1.7-1.2h31.5c.5,0,1,.3,1.3.7.7.8.6,2-.2,2.6Z"/>
          <path class="st33" d="M55.7,20.6v-1.4s-1,1.1-1,1.1c-.1.1-.2.3-.4.3s-.3,0-.4-.2l-1-1.2v1.3s-.8,0-.8,0v-2.3c0-.2.1-.3.3-.3.1,0,.3,0,.4.1l1.4,1.7,1.4-1.7c0-.1.3,0,.4,0,.2,0,.3.1.3.3v2.3s-.7,0-.7,0Z"/>
          <path class="st33" d="M63.2,19.6h-.8s0-.6,0-.6h1.6s0,.8,0,.8c0,.4-.3.7-.7.7-.6,0-1.2,0-1.8,0s-.7-.2-.7-.6v-1.3c0-.3.2-.5.4-.6h.6c0,0,2.2,0,2.2,0v.7s-2.2,0-2.2,0c-.1,0-.2,0-.2.2v.9c0,0,0,.2.2.2h1.2c0,0,.1,0,.2,0,0,0,0-.2,0-.2Z"/>
          <path class="st33" d="M35.6,19.9h2s0,.7,0,.7h-2.2c-.5,0-.8-.3-.8-.8v-1.1c0-.5.3-.7.8-.7h2.2s0,.7,0,.7h-2c-.1,0-.2,0-.2.2v.9c0,0,0,.2.1.2Z"/>
          <g>
            <path class="st33" d="M43.8,20.6l-1-.8c-.1-.1-.4,0-.6,0v.8s-.8,0-.8,0v-1.9c0-.6.8-.7,1.4-.7h1.2c.4,0,.7.3.7.7s0,.4,0,.7-.4.4-.8.4l1.1.8h-1.1Z"/>
            <path class="st46" d="M43.6,19.1h-1.5c0-.1,0-.3,0-.4s.2-.1.3-.1h1.1c0,0,.1,0,.2,0,0,0,0,.3,0,.4s0,0-.2,0Z"/>
          </g>
          <g>
            <path class="st33" d="M41,19.9c0,.6-.8.7-1.4.7h-1.1c-.4,0-.7-.3-.7-.7v-1.2c0-.4.3-.6.7-.6.6,0,1.2,0,1.9,0s.7.3.7.7v1.3Z"/>
            <path class="st46" d="M40,19.9h-1.2c-.1,0-.2,0-.2-.2v-.9c0-.1,0-.2.2-.2h1.2c.1,0,.2,0,.2.2v.9c0,.1,0,.2-.2.2Z"/>
          </g>
          <g>
            <path class="st33" d="M47.4,19.9h-1.7s0,.7,0,.7h-.8s0-1.8,0-1.8c0-.5.3-.8.8-.8h1.7c.3,0,.6.1.7.4s.2,1.1,0,1.3-.4.2-.6.2Z"/>
            <path class="st46" d="M47.4,18.7c.1,0,0,.5,0,.5h-1.5c0-.2,0-.4,0-.6h1.4c0,0,.1,0,.2,0Z"/>
          </g>
          <g>
            <path class="st33" d="M59.6,20h-1.7s-.4.5-.4.5h-.9s1.7-2.5,1.7-2.5c.2-.2.7-.2.9,0l1.7,2.5h-.9s-.4-.5-.4-.5Z"/>
            <polygon class="st25" points="59.1 19.4 58.3 19.4 58.7 18.8 59.1 19.4"/>
          </g>
          <g>
            <path class="st20" d="M50.7,20h-1.7s-.4.5-.4.5h-.9s1.7-2.5,1.7-2.5c.2-.2.7-.3.8,0l1.7,2.5h-.9s-.4-.5-.4-.5Z"/>
            <polygon class="st42" points="50.3 19.4 49.5 19.4 49.9 18.8 50.3 19.4"/>
          </g>
        </g>
        <path class="st49" d="M21.2,19.7c0,.1.3.1.5.1-.1.1-.4.3-.6.2v-.3c0,0,0-.1,0-.1Z"/>
        <path class="st62" d="M22.6,19.8c0,0-.1,0-.2.1-.2,0-.4.3-.3.5.1.1.3,0,.5,0,0,0,0,.1,0,.2,0,.2.4.2.7,0,0,.1,0,.2-.1.3-.2,0-.5.2-.8.1v-.3c0,0-.1-.2-.2,0s-.1.2-.2.3l-.7-.2c0,0,0,.1,0,.2h-.3s.2-.2.2-.2c0,0,0-.3,0-.3,0-.1,0-.2,0-.3.2-.1.4-.2.6-.2s.5,0,.8,0Z"/>
        <g>
          <path class="st22" d="M21.3,13.4c.1,0,.1,0,0,0h0c-.2.3-.2.6.1.6.2,0,.3,0,.3,0h0c.1.1.3.2.5.2h0c.1.2.3.4.4.6.2.2.3.4,0,.6h0c.5.1.7.1.7.1h0c0,0,0,.1,0,.1h.5c0,.1,0,.2,0,.2h0c0,0,1.5.2,1.5.2.1,0,.2,0,0,.2,0,0,0,.2,0,.3-.2.9-.4,2-.9,2.9,0,.1-.2.1-.3,0-.1,0-.3,0-.4,0,0,0-.2,0-.3,0-.2,0-.3,0-.3-.1-.2,0-.4,0-.5-.1-.1,0-.2-.2,0-.3.2,0,.4,0,.6-.1-.2,0-.2-.2-.2-.3-.8-.5-2.1-.9-3.1-.8-.2,0-.4,0-.6,0-.2,0-.3,0-.5,0,0-.2,0-.4.2-.6l.2-.4h-.4s0,0,0,0c-.9,0-1.8,0-2.6,0,0,0-.1,0-.2,0-.2,0-1,.1-1.2,0s0,0-.1,0c.3-.7.6-1.3,1-1.9.2,0,.4-.2.6-.2.8-.3,1.5-.7,2.2-1.1.6-.3,1.4-.6,2.1-.1.1,0,.3,0,.3.2Z"/>
          <path class="st21" d="M23.1,19.2c0,.1-.2.1-.2,0h-.2c0,0-.2,0-.4,0-.4.2-.7.3-1.1.5h0c0,0,0,0-.1.1h0c0-.5-.1-.8-.4-1.1-.1.3-.2.7-.2,1.1h0c0,0,0,0,0,0-.3,0-.6,0-1-.2l.2-.2c-.6-.2-1.6-.3-1.5-.9s.3-.1.4-.2c0,0-.1,0-.1-.1,0-.2.3-.2.6-.2.1-.1.3-.3.4-.4.3,0,.6,0,.9,0,0,0,.2,0,.3,0,1,0,2.2.3,3.1.9,0,0,0,0,0,.1,0,0,.2.1.2.2s-.2.1-.3.2h-.5c0,.1,0,.2,0,.3Z"/>
          <path class="st3" d="M22.9,19.2c0,0-.1,0-.2,0,0,0,.1,0,.2,0Z"/>
        </g>
        <g>
          <path class="st41" d="M28.9,13.8s0,0-.1,0c0,0,0,0,0-.1h.1Z"/>
          <g>
            <path class="st41" d="M60.2,9.9s0,0,0,0,0,0,0,0c-.7,0-1.3,0-1.9-.2-.8,0-1.7,0-2.5,0h-.2s0,0,0,0c0,0-.4-.4-.4-.4s0,0,0-.1c0,0,0-.1,0-.1.9,0,1.9,0,2.8,0-.2-.1-.4-.2-.7-.1-.8,0-1.5,0-2.3.2h-.2c0,0,0,0,0,0-.6-.6-1.5-.9-2.4-1.1s-.4,0-.6,0l-1.2.6c-.5.2-1,.2-1.6.1-.7-.3-1.4-.3-2.1,0-.1.1-.3.1-.4.1h-.3c-3,0-4.5,0-4.5,0,1.4.1,2.8.2,4.1.3,0,0,.1,0,0,.1,0,0,0,0,0,0,0,0-.4.3-.4.2h-.2c0,0-.7,0-.7,0l-.4.2c-.4,0-.8,0-1.2,0-.2,0-.3.1-.5.3h-.1c0,0-1.8.2-1.8.2h-.2c0,.1-.2.2-.2.2h0c0,0-1-.4-1-.4-.3-.1-.5,0-.8,0l-1.4.6h0c0,0-.3,0-.3,0-1.5-.3-3-.6-4.5-.5-.2.1-.3.2-.5.1-.9-.3-2.1-.3-2.6.5s.9,1.1,1.4,1.2c.9,0,1.8,0,2.7,0,.2,0,.3,0,.1.2h0c-.8.5-1.6,1-2.4,1.5h-.1c0,0-5.7-5.4-5.7-5.4,2.3-.9,4.6-1.6,7-2.1,3.8-.7,7.7-1,11.6-.8,5.1.3,10.3,1.3,14.9,3.4l1.9,1Z"/>
            <path class="st5" d="M58,12.7s0,0,0,0c-1.2,1-2.5,1.9-3.8,2.6-.4,0-.9.2-1.3.3-.4.2-.7.4-1.1.6h-.2c0,0-1.6,0-1.6,0h-.2s-1.8-1.1-1.8-1.1c-.8-.4-1.7-.2-2.5,0l-1.6.5c-1.4.3-2.1.2-3.2-.8l-.9-1c-.7-.7-1.4-1-2.3-.7-.8.4-1.5.8-2.3,1.2-.7.3-1.4.4-2.1.2-.7-.2-1.4-.3-2.1-.3h-.2c0,0-.6-.6-.6-.6.1,0,.2,0,.3-.2.7-.4,1.3-.9,2-1.3h.2c0-.2,0-.2,0-.1.6-.3,1.3-.5,2-.6s1.9-.4,2.9-.3c1,.1,1.9.2,2.9.3.3,0,.5,0,.7,0h0c0,0,.5,0,.5,0,.7-.2,1.3-.5,1.9-.9,0,0,0,0,.1,0,.5-.3,1.2-.2,1.8-.1.8.2,1.7.4,2.6.5.9,0,1.7,0,2.6-.1,1,0,2,.2,3,.6,1.1.4,2.3.7,3.4,1h.5c0,0,.2.1.2.1Z"/>
            <path class="st21" d="M31,14.3c.4,0,.9,0,1.3,0l.9.2c.7.2,1.4.1,2.1-.2l1.3-.7.8-.4c.6-.3,1.3-.2,1.9.1s1.3,1.3,2,1.9,1.8.6,2.7.4l1.4-.4c1-.3,2-.4,2.8.1l1.7,1h1.6s.9-.6.9-.6c.7-.4,1.4-.2,1.8-.5l1.5-.9,2.2-1.6s0,0,0,0c.2-.2,1-.8,1.2-.9s.1,0,.2,0c0,0,0,0,0,0,.4-.2,1.3-.8,1.7-.9s.3,0,.5,0c.9.6,1.7,1.2,2.4,1.9s1.4,1.4,1.9,2.3,0,.7,0,.9-.6.5-1,.5h-13.2s-1.6,0-1.6,0h-16s-.8,0-.8,0l-2.3-2.2Z"/>
            <path class="st9" d="M60.2,9.9l1.4.8c-.3,0-.6,0-.9.2l-1.3.8c-.6,0-1.3-.2-1.9-.5s-1.9-1-2-1.3,0,0,0-.1h1.6c.5-.2,1-.1,1.5,0s1.1.2,1.7.1Z"/>
            <path class="st46" d="M54.7,9.1c.1,0,.3.1.3.3l.5.5c.5.4,1,.8,1.6,1.1s1.3.7,2.1.8.2,0,.3,0l-1.4,1c-.4,0-.9,0-1.3-.2l-2.7-.8c-.8-.2-1.5-.4-2.3-.6-1.3-.2-2.4.4-4.4,0l-1.3-.3c-.7-.2-1.4-.2-2,0h0c.4-.4.8-.7,1.2-1.1h.2c0,0,.4-.4.4-.4,0,0,0,0,0,0,0,0,.5-.3.7-.3.8-.5,1.4-.5,2.3-.2s1.3.2,1.9-.2l.9-.5c.2-.1.5-.2.7-.1.8.1,1.6.4,2.2.9l.3.3Z"/>
            <path class="st16" d="M36.6,10.7s0,.1,0,.1c-.3.2-.8.3-1.2.3l-.6.3c-.6.3-1.1.6-1.7.8h0s0,0,0,0c-.9,0-1.8,0-2.8,0s-1-.1-1.4-.4-.4-.6-.2-.9.5-.5.8-.6c1-.4,1.9.1,2.1,0s.2-.2.4-.2c1.5,0,3,.2,4.4.5s.2,0,.3,0Z"/>
            <path class="st46" d="M39.9,10.5h.2c.5.3,1,.6,1.4,1h0c-.4.1-.9.2-1.3.1l-1.5-.2c-1.9-.2-2.6-.1-4.4.4l-1.3.4c.7-.5,1.5-.9,2.3-1.2.5,0,.9-.2,1.3-.4l1.4-.6c.3-.1.7-.2,1,0l1,.5Z"/>
            <path class="st12" d="M45.3,9.6l-1.4,1.1c-.3,0-.9.8-2,1h-.5c0,0-.4-.4-.4-.4-.3-.3-.7-.6-1.1-.8.1-.2.3-.3.5-.3h1.7c.3-.1.3-.5.9-.5h1c.1,0,.3-.2.5-.1h.9Z"/>
            <path class="st29" d="M46.4,8.9l-.6.4s0,0,0,0h-1.7c-2.1-.3-4.2-.3-6.3-.1s-.7,0-1-.2c0-.2.2-.1.3-.1h1.7c0,0,1.9,0,1.9,0h3.5c0,0,2.4,0,2.4,0Z"/>
            <path class="st69" d="M55,9.3l-.3-.3c.7,0,3.4-.4,3.2,0s0,0-.1,0h-2.8c0,0,0,0,0,.1Z"/>
          </g>
          <g>
            <path class="st41" d="M27.4,12.4c0,0,0,.2.2.3.1.1.3.2.4.3h.1c0,.2,0,.3.2.3l.5.5c0,0,0,.1.1.1l.4.4c0,.2.1.2.3.3h.1c0,.1,0,.2,0,.2-.8.2-1.6-.3-2.1-.9,0,0,0,0-.1,0-.5-.8-1.3-1.6-2.3-1.9s-1.5-.1-2.3.1c-.6.3-1.2.5-1.8.6-.9.2-1.7,0-2.5-.4,0,0-.2,0-.1-.1,1.6-1.3,3.3-2.4,5.2-3.2l3.6,3.4v.2Z"/>
            <path class="st84" d="M25.1,15.8h.1c1.2-.2,2.3-.7,3.4-.8s1.1.1,1.5.4l1.1.6.8.7c-1,0-2.1,0-3.1,0h-2.8c0-.1,0,0,0,0-.1,0-.2-.1-.2-.3,0,0,0,0,0,0l-1.5-.3c0,0,0-.1,0-.2,0-.4,0-.8,0-1.1,0,0,0,0,0,0v1.1s.8,0,.8,0Z"/>
            <path class="st5" d="M18.6,12.2c0,.1.2.1.3.2.2.1.3.2.6.2l.5.2c.1,0,.3,0,.4,0,.3,0,.5.2.7.4.2,0,.3,0,.3.2-.5-.2-.9-.4-1.5-.3s-.9.3-1.3.6-1.1.6-1.7.8-.5,0-.7.1c.7-1,1.4-1.8,2.3-2.6h.1Z"/>
            <path class="st41" d="M28,12.9c-.1,0-.2,0-.2-.2-.2,0-.3-.1-.4-.3,0,0,0,0,0,0,0,0,0,0,0,0,.2.2.4.4.6.6Z"/>
            <path class="st41" d="M29.6,14.5c0,0-.2,0-.2,0s0-.1,0-.2l.3.3Z"/>
            <path class="st41" d="M28.3,13.2s0,0-.1,0,0,0,0-.1l.2.2Z"/>
            <path class="st4" d="M24,12.9c0,0,.1,0,.1,0h0c0,0,0,.2,0,.2,0,.1,0,.3.2.3.3,0,.6-.1.8-.3h0c0-.4.4-.2.2,0,0,.3-.6.2-.8.7h0c-.3,0-.7.2-.5.6.1,0,.2,0,.4,0,0,.5,0,.9,0,1.4l-.9-.2c.1,0,.2,0,.3,0,0-.1,0-.2,0-.3.1-.2,0-.3-.1-.2-.1,0-.2-.1-.2-.3-.2-.2-.4-.3-.7-.3,0,0-.1,0-.1-.1-.2,0-.5,0-.6-.3,0,0,0-.2,0-.2,0,0,.1,0,.2,0,.3.2.4.2.4,0,0-.3-.1-.6.2-.4,0,0,0,.1,0,.1,0,0,0,.2,0,.3v.2c0,0,.2,0,.2,0,0,.2.4-.2.3-.2,0-.2.2-.3.3-.4,0,0,0,0,0,0,0-.1,0-.3,0-.4,0-.1.1,0,.2,0Z"/>
            <path class="st41" d="M22.9,13.5s-.2,0-.2,0c0,.2.2.4,0,.6s-.5-.3-.6-.1,0,0,0,0h-.2c-.2,0-.4.1-.6,0-.1-.4,0-.4.1-.6s.5-.2.8,0c0,0,0-.1,0-.2s0-.1,0-.2c0,0,0-.1,0-.2,0,0,0,0,0,0,.1-.1.3,0,.4,0s.3-.1.5,0,0,.2,0,.3c.2.2,0,0-.2.3Z"/>
            <path class="st10" d="M23.7,15.7c-.1,0-.3,0-.4,0h-.3c-.1,0-.1,0-.1-.1s0-.1.1-.2c0-.2,0-.3-.2-.5l-.3-.4s0,0,0,0h.5c.2.2.3.2.5.3s0,.2,0,.3c0,0,.2,0,.3,0s0,.2,0,.3c0,0,.1.1.1.2s0,0-.1.1Z"/>
            <path class="st21" d="M19.2,16.5h-2.6s0,0,0,0h2.5s0,0,0,0Z"/>
            <path class="st27" d="M24.5,14s0,0,.1,0c0,0,.3,0,.4,0s0,.2-.1.2c0,0,.3.1.2.2-.2.3-.9,0-1.2,0s-.2,0-.1-.2,0-.2.1-.3c.1-.2.4-.2.6-.1Z"/>
            <path class="st5" d="M24.1,12.9h0s0,0-.1,0h.1Z"/>
            <g>
              <path class="st5" d="M27.6,13.8c.6.7,1.3,1.1,2.2.9l1.4,1.3h0c0,0-1.2-.6-1.2-.6-1.1-.5-1.6-.4-2.7-.1-.7.2-1.3.4-2,.5h0s-.1,0-.1,0c0,0,0,0,0,0,0,0-.7,0-.7,0,0-.4,0-.8,0-1.3,0,.1-.3.1-.4,0,0,0,0-.1.2,0,.3,0,.6,0,.9,0-.1,0-.2-.2-.1-.3.1,0,0-.2,0-.1-.2.1-.3,0-.3,0,0-.1,0-.2.1-.3.2-.1.5-.3.7-.4,0,0,.1,0,.3,0,.2,0,.2-.1,0-.3,0,0,.1-.1.2-.2-.1,0-.3,0-.4,0h-.1s0,0,0,.2c-.4,0-.4,0,0,.2h0c.1.2,0,.2,0,.2h-.2c-.2.2-.4.2-.5.3-.2.1-.4-.3-.2-.3h0c-.1-.1-.1-.2,0-.2,0,0,0,0,0,0,0-.2.1-.2.3-.2h.1c.2-.2.2-.2-.2-.3,0,0,0-.1,0-.2-.1,0-.2,0-.4,0-.2,0-.4,0-.5.3-.3,0-.3.3,0,.3.2,0,.3,0,.3,0,0,.1,0,.3,0,.5,0,0,0,0,0,0,0,.1-.1.2-.2.2-.2-.2-.5,0-.3.1.4,0,.2.3,0,.4s-.2,0-.2,0c-.1,0-.2-.1,0-.2,0-.1,0-.2,0-.3-.1,0-.2,0,0-.1,0-.1,0-.2.1-.2,0-.2,0-.3,0-.4-.3,0-.6,0-.8,0-.2,0,0-.2.2-.2.2,0,.4,0,.2-.1,0-.1.2-.2.4,0,.2,0,.4-.2.5-.4-.1,0-.3,0-.5,0-.3.2-.6.3-1,.4-.2.1-.5.2-.8.2.2,0,.3,0,.3.3.1,0,.4,0,.5,0s0,0,0,0c.2,0,.2.2,0,.3,0,.1,0,.2,0,.2-.2-.1-.4-.1-.5,0,0,0-.1,0-.2,0h0c0-.2-.2-.3-.4-.3-.3-.2-.7-.4-1.1-.4-.2,0-1.3-.4-1.3-.5s0,0,0-.1l.7.3c.6.2,1.3.3,2,.1s1.2-.4,1.8-.6c1.1-.5,2.3-.3,3.2.4s.9.7,1.2,1.2.1.2.2.3Z"/>
              <g>
                <path class="st41" d="M29.8,14.6h0c0,.2-.1.1-.2.1-.4,0-.7,0-1.1-.1s-.7-.5-1-.8c.1,0,.4.4.7.5l.3.2c.2.1.4.1.7.2s.4,0,.5,0Z"/>
                <path class="st5" d="M22.1,12.9h0c-.1.2-.2.2-.4.2s-.2,0-.2,0,0-.1,0-.2c-.1,0-.3,0-.4,0,0-.1.2-.1.3-.1h.4c.1,0,.2-.2.3-.2h.4c.1-.1.3-.2.4-.3s.2-.1.4,0,.2-.1.3,0c0,0,0,.3-.2.3l-.3.2h-.4s0,0,.2,0c0,0-.1.2-.2.2s-.1,0-.2,0-.1,0-.1.1Z"/>
                <path class="st41" d="M24.1,12.9s0,0-.1,0c0,0-.1,0-.2,0,0,0,0,0,0,0-.1,0-.3.1-.6,0s-.1-.2-.1-.3.2-.1.2-.2c.1-.1.2-.3.3-.3s.3,0,.4.1c0,0,.1-.1.2,0s0,.1,0,.2c.2,0,.4,0,.4.3-.1,0-.2,0-.3.2-.1,0-.3,0-.3,0Z"/>
                <path class="st41" d="M25.4,13.3v-.2c-.1,0-.2,0-.2.1-.1,0-.4,0-.3-.2s.3,0,.4-.1,0-.2.1-.3.1,0,.2,0c.1,0,.4,0,.5,0s0,.1,0,.2,0,0-.1,0c0,0,0,.1,0,.2,0,.2-.3.3-.5.2Z"/>
                <path class="st5" d="M23.8,13.4c0,.3-.5.9-.6.8s0,0,0-.1c0,0,.2,0,.2,0l.2-.2c0,0-.2,0-.3,0s0-.3,0-.3.2,0,.3,0c0,0,.1-.1.2-.1Z"/>
                <path class="st5" d="M24.9,12.1c-.1,0-.3.1-.4,0s0-.1,0-.2c0,0,.2,0,.2,0,.2.2.3,0,.3.1s0,0,0,0Z"/>
                <path class="st5" d="M25.1,13.3c0,.1-.5.4-.8.3.1,0,.2,0,.2-.2h.3c0,0,.1-.1.2-.1Z"/>
                <path class="st5" d="M25.1,12.7c0,0-.1,0-.2,0-.1,0,0-.5,0-.4,0,.1,0,.2.1.3Z"/>
                <path class="st5" d="M23,13.9c0,0,0-.2,0-.3,0,0,.1,0,.1.1s0,.1,0,.2Z"/>
                <path class="st5" d="M23.8,13.4v-.5s0,0,0,0c0,.1,0,.3,0,.4Z"/>
                <path class="st5" d="M24.2,13.2s0,0,0-.1c0,0,0,0,0,.1Z"/>
                <path class="st3" d="M25.2,15.7s0,0-.1,0c0,0,0,0,.1,0Z"/>
              </g>
            </g>
          </g>
        </g>
      </g>
    </g>
  </g>
</svg>