<?xml version="1.0" encoding="UTF-8"?>
<svg id="Layer_1" xmlns="http://www.w3.org/2000/svg" version="1.1" viewBox="0 0 928.9 92.8">
  <!-- Generator: Adobe Illustrator 29.0.0, SVG Export Plug-In . SVG Version: 2.1.0 Build 186)  -->
  <defs>
    <style>
      .st0 {
        fill: none;
      }

      .st1 {
        fill: blue;
      }
    </style>
  </defs>
  <rect class="st0" x="-75" y="-1753.1" width="1080" height="1920"/>
  <g>
    <g>
      <path class="st1" d="M240.4,85.5c0-4.1,3-7.2,7.4-7.2s7.3,2.9,7.3,7.2-3,7.2-7.3,7.2-7.4-2.9-7.4-7.2ZM253.5,85.5c0-3.3-2.3-5.7-5.7-5.7s-5.7,2.3-5.7,5.7,2.4,5.8,5.7,5.8,5.7-2.4,5.7-5.8ZM244.9,88.8v-6.6h3.7c1.4,0,2.4.8,2.4,2s-.5,1.5-1.4,1.8c.4,0,.8.3.9.8l.7,2h-1.7l-.5-1.6c0-.3-.3-.5-.7-.5h-1.7v2.1s-1.7,0-1.7,0ZM246.6,85.3h2.1c.5,0,.8-.4.8-.8s-.3-.8-.8-.8h-2.1v1.7h0Z"/>
      <g>
        <path class="st1" d="M12,91.9v-30.5H0v-5.6h30.2v5.6h-12v30.5h-6.2Z"/>
        <path class="st1" d="M29.6,82.7v-18.1h6.1v17.8c0,3.1,2.2,4.9,5.4,4.9s6.6-2.7,6.7-6.2v-16.5h6.1v27.3h-4.9l-.5-4c-1.6,2.9-4.8,4.7-8.6,4.7-6.5,0-10.2-4.1-10.2-10h-.1Z"/>
        <path class="st1" d="M57.6,78.1c0-9,6-14.2,13.9-14.2s12.5,4.6,13,11.4h-6c-.6-3.8-3.2-6.2-7.1-6.2s-7.7,3.5-7.7,9.1,3.4,9.4,7.9,9.4,6.3-2.4,6.9-6.3h6c-.7,7-5.6,11.5-12.9,11.5s-14.1-6.4-14.1-14.6h0Z"/>
        <path class="st1" d="M88.4,82.7v-18.1h6.1v17.8c0,3.1,2.2,4.9,5.4,4.9s6.6-2.7,6.7-6.2v-16.5h6.1v27.3h-4.9l-.5-4c-1.6,2.9-4.8,4.7-8.6,4.7-6.5,0-10.2-4.1-10.2-10h0Z"/>
        <path class="st1" d="M117.7,91.9v-27.3h4.9l.7,5.3c1.7-3.7,4.9-5.7,9.5-5.7h1v5.9h-1c-5.7,0-9,3-9,8.2v13.5h-6.1,0Z"/>
        <path class="st1" d="M136.5,57c0-2.2,1.7-3.9,3.9-3.9s3.9,1.7,3.9,3.9-1.6,4-3.9,4-3.9-1.7-3.9-4ZM137.3,91.9v-27.3h6.1v27.3s-6.1,0-6.1,0Z"/>
        <path class="st1" d="M148.8,91.9v-27.3h4.9l.5,4c1.7-2.8,5.1-4.8,9.2-4.8,5.8,0,9.6,3.9,9.6,10v18.1h-6.1v-17.7c0-3-2-5-5.4-5s-6.6,2.7-6.7,6.3v16.5h-6.1.1Z"/>
        <path class="st1" d="M176.9,78.1c0-9,6-14.2,13.9-14.2s12.5,4.6,13,11.4h-6c-.6-3.8-3.2-6.2-7.1-6.2s-7.7,3.5-7.7,9.1,3.4,9.4,7.9,9.4,6.3-2.4,6.9-6.3h6c-.7,7-5.6,11.5-12.9,11.5s-14.1-6.4-14.1-14.6h.1Z"/>
        <path class="st1" d="M206.7,84.3c0-6.4,6.4-7.7,11.7-8.3,4.1-.5,7.2-.6,7.2-2.8s-2.1-4.4-5.6-4.4-6.2,2-6.5,4.8h-6.1c.6-5.8,5.7-9.8,12.8-9.8s11.4,4,11.4,9.8v12.3c0,.8.4,1.2,1.3,1.2h1.5v4.7h-2.9c-3.5,0-4.7-1.5-5.2-4.1-1.6,2.9-4.6,4.9-9.2,4.9s-10.4-3.2-10.3-8.3h0ZM225.6,81.7v-3.8c-1,1.6-3.7,2-6.5,2.3-3.4.4-6.2.9-6.2,3.8s1.9,4,5.5,4,7.3-2.6,7.3-6.2h-.1Z"/>
      </g>
    </g>
    <g>
      <path class="st1" d="M328.1,91.9l10.6-37.4h14l2.5,15.3c.3,2,.3,3.8.3,4.3h.3c.3-1.6.6-2.7,1.3-4.3l6.2-15.3h13.8l1.5,37.4h-13.1l.4-16.8c0-1.3,0-2.1.2-3.7h-.2c-.3,1-.8,2.4-1.1,3.1l-7.7,17.3h-8l-3-16.4c-.2-1.3-.4-2.5-.2-4.1h-.4c0,.7-.3,2.2-.4,2.9l-4,17.5h-13.2l.2.2Z"/>
      <path class="st1" d="M416.6,86.8c-3.6,3.3-9.1,6-16.3,6s-12-2.7-14.8-6c-2.5-3-4.3-7.6-3.5-13.6.7-5.9,3.6-10.5,6.9-13.5,3.6-3.3,9.1-6,16.3-6s12,2.7,14.8,6c2.5,3,4.3,7.6,3.6,13.5-.7,6-3.6,10.6-6.9,13.6h-.1ZM398.5,67.7c-1.5,1.4-2.6,3.6-2.8,5.6-.3,2.1.3,4.2,1.4,5.5,1,1.1,2.6,1.9,4.6,1.9s3.9-.8,5.1-1.9c1.4-1.2,2.5-3.2,2.8-5.5.3-2.4-.3-4.3-1.4-5.6-.9-1-2.4-1.9-4.6-1.9s-4.1,1-5.1,1.9Z"/>
      <path class="st1" d="M460.8,86.8c-3.6,3.3-9.1,6-16.3,6s-12-2.7-14.8-6c-2.5-3-4.3-7.6-3.5-13.6.7-5.9,3.6-10.5,6.9-13.5,3.6-3.3,9.1-6,16.3-6s12,2.7,14.8,6c2.5,3,4.3,7.6,3.6,13.5-.7,6-3.6,10.6-6.9,13.6h-.1ZM442.8,67.7c-1.5,1.4-2.6,3.6-2.8,5.6-.3,2.1.3,4.2,1.4,5.5,1,1.1,2.6,1.9,4.6,1.9s3.9-.8,5.1-1.9c1.4-1.2,2.5-3.2,2.8-5.5.3-2.4-.3-4.3-1.4-5.6-.9-1-2.4-1.9-4.6-1.9s-4.1,1-5.1,1.9Z"/>
      <path class="st1" d="M469,91.9l4.6-37.4h14.4c3.1,0,11.1.3,15.8,5.7,2.1,2.4,4.2,6.6,3.4,13.5-.5,3.9-1.8,8.9-6.4,12.9-2.5,2.3-7.3,5.3-14,5.3h-17.8ZM483.8,80.5h1c1.6,0,3.9,0,6-1.7,1.4-1.1,2.6-3,2.8-5.4.3-2.4-.4-4.4-1.5-5.6-1.4-1.5-3.5-1.8-5.1-1.8h-1.5l-1.8,14.5h.1Z"/>
    </g>
    <g>
      <g>
        <path class="st1" d="M853.9,70.9h7.8c6.3,0,9.4,4.3,9.4,10.6s-3.3,10.4-9.6,10.4h-7.6v-21h0ZM861.3,89.4c4.7,0,6.7-3.1,6.7-7.9s-1.8-8.1-6.5-8.1h-4.7v16h4.5Z"/>
        <path class="st1" d="M872.5,85.1v-14.2h2.9v13.9c0,3.4,1.9,4.9,5.3,4.9s5.2-1.5,5.2-4.9v-13.9h2.9v14.2c0,5.1-3.5,7.1-8.1,7.1s-8.1-2.1-8.1-7.1h-.1Z"/>
        <path class="st1" d="M891,70.9h9.8c3.8,0,6.3,2.3,6.3,5.8s-1,4.4-3.8,5.3h0c2.4.8,3.1,2.2,3.2,5.2.3,3.3.5,4.3,1,4.6h0c0,0-3.1,0-3.1,0-.5-.4-.5-1.4-.8-4.7-.2-3-1.4-4-4.2-4h-5.6v8.8h-2.9v-21h0ZM893.9,80.8h6c2.9,0,4.3-1.4,4.3-3.7s-1.2-3.7-4.1-3.7h-6.2v7.5h0Z"/>
        <path class="st1" d="M908.3,81.4c0-6.3,3.9-11,10.3-11s10.3,4.7,10.3,11-4,11-10.3,11-10.3-4.7-10.3-11ZM925.9,81.4c0-4.8-2.5-8.5-7.3-8.5s-7.3,3.6-7.3,8.5,2.6,8.4,7.3,8.4,7.3-3.6,7.3-8.4Z"/>
      </g>
      <g>
        <path class="st1" d="M839.4,58.4l2.1-2.1,10.9,6.6c1.8,1.1,4.6,3.2,4.6,3.2h0s-2.1-2.9-3.2-4.8l-6.3-11.1,2.2-2.2,11,6.4c1.8,1.1,4.7,3.2,4.7,3.2h0s-2.1-2.9-3.2-4.7l-6.5-11,2.1-2.1,10.7,19-2,2-11.9-7.1c-1.7-1-4.4-3-4.4-3h0s2,2.8,3,4.5l6.9,12.1-2,2-18.7-11h0Z"/>
        <path class="st1" d="M864.9,47.8c-4.5-4.5-5-10.5-.5-15s10.6-4,15,.5c4.4,4.4,4.9,10.6.5,15-4.5,4.5-10.6,4-15-.5ZM877.3,35.3c-3.4-3.4-7.8-4.2-11.2-.8s-2.6,7.8.8,11.2c3.4,3.4,7.8,4.1,11.1.8,3.4-3.4,2.6-7.7-.8-11.1h.1Z"/>
        <path class="st1" d="M873.3,24.5l6.9-6.9c2.7-2.7,6.1-2.8,8.5-.4,1.8,1.8,2.4,3.8,1,6.4h0c2.2-1.1,3.7-.6,5.9,1.4,2.5,2.2,3.4,2.7,3.9,2.6h0l-2.2,2.3c-.6,0-1.3-.6-3.9-2.8-2.2-2-3.9-1.8-5.8,0l-4,4,6.2,6.2-2,2-14.9-14.9h.4ZM882.4,29.5l4.3-4.3c2-2,2-4,.4-5.7-1.7-1.7-3.5-1.8-5.6.3l-4.4,4.4,5.3,5.3Z"/>
        <path class="st1" d="M886.1,11.7l2-2,4.6,4.6c1,1,2,2.1,2.7,2.8l-.2-14.5L897.8,0v11.9l15.4,2.5-2.4,2.4-13.1-2.1v4.5l5.3,5.4-2,2-14.9-14.9h0Z"/>
      </g>
      <g>
        <path class="st1" d="M901.4,35.4l6.4,6.4c1.5,1.5,2.3,3.1,2.3,4.8s-.5,2.5-1.6,3.6c-1.6,1.6-3.6,1.7-5.6.6h0c1.4,2.3,1.5,4.8-.5,6.7-1.2,1.2-2.6,1.8-4,1.8s-3.5-.7-5.1-2.3l-6.7-6.7,14.9-14.9h-.1ZM894.9,55c1,1,2,1.5,3,1.5s1.6-.3,2.3-1c1.8-1.8,1.4-3.9-.4-5.7l-4.4-4.4-5.1,5.1,4.5,4.5h.1ZM901.2,47.9c1.7,1.7,3.6,1.9,5.1.4,1.4-1.4,1.3-3.2-.3-4.8l-4.3-4.3-4.6,4.6,4.1,4.1Z"/>
        <path class="st1" d="M909.1,60.4l3.3-14,2.3,2.3-1.8,7.1c-.4,1.7-1.3,4.2-1.3,4.2h0s2.6-.8,4.3-1.3l7.2-1.8,2.2,2.2-14.1,3.3-6.1,6.1-2-2,6.2-6.2h-.2Z"/>
      </g>
    </g>
    <g>
      <g>
        <g>
          <rect class="st1" x="623.7" y="43.9" width="7.6" height="37.2"/>
          <polygon class="st1" points="597 43.9 611.3 80.5 615.1 71.1 604.6 43.9 597 43.9"/>
          <path class="st1" d="M597.1,75.2h-.2c0,2.8-1.9,5.1-4.5,5.7v.2h9.3v-.2c-2.6-.6-4.5-3-4.5-5.7h0Z"/>
        </g>
        <path class="st1" d="M644.9,91.8h-64.6v-58.7h64.6v58.7ZM639.9,87.4v-49.7h-54.6v49.7h54.6Z"/>
      </g>
      <rect class="st1" x="684.5" y="44.5" width="3.3" height="21.5"/>
      <polygon class="st1" points="673.9 65.9 670.6 65.9 670.7 50.2 664.6 60.6 662.8 60.6 656.7 50.2 656.8 65.9 653.5 65.9 653.5 44.5 656.6 44.5 663.7 56.5 670.8 44.5 673.9 44.5 673.9 65.9"/>
      <path class="st1" d="M701.4,65.9h-3.3v-21.5h7.9c4,0,7.2,2.9,7.2,6.9s-3.2,7-7.2,7h-4.6v7.6h0ZM701.4,55.4h4.4c2.3,0,4.2-1.7,4.2-4s-1.9-3.9-4.2-3.9h-4.4v7.9Z"/>
      <path class="st1" d="M756.2,66.4c-6.2,0-11.2-5-11.2-11.2s5-11.2,11.2-11.2,11.2,5,11.2,11.2-5,11.2-11.2,11.2ZM756.2,47.2c-4.4,0-7.8,3.6-7.8,8s3.4,8,7.8,8,7.8-3.6,7.8-8-3.4-8-7.8-8Z"/>
      <polygon class="st1" points="739.5 65.9 735.6 65.9 727.6 55.2 728.2 55.2 724.2 59.2 725 57.8 725 65.9 721.8 65.9 721.8 44.5 725 44.5 725 55.2 725 54.4 734.9 44.5 738.9 44.5 730 53.4 739.5 65.9"/>
      <g>
        <path class="st1" d="M657.4,77.3c-.3-.4-.8-.6-1.3-.6-1.2,0-2,.9-2,2.1s.7,2.1,1.9,2.1,1.1-.3,1.4-.7l.8.6c-.5.6-1.2,1-2.2,1-1.8,0-3-1.2-3-3s1.3-2.9,3.1-2.9,1.6.3,2,.9l-.8.6h0Z"/>
        <path class="st1" d="M665,75.8c1.8,0,3,1.1,3,2.9s-1.3,3-3,3-3-1.2-3-3,1.3-2.9,3-2.9ZM665,80.8c1.2,0,1.9-.9,1.9-2.1s-.8-2.1-1.9-2.1-1.9.9-1.9,2.1.8,2.1,1.9,2.1Z"/>
        <path class="st1" d="M672.5,75.9h1.3l2.6,4.2h0v-4.2h1v5.6h-1.3l-2.7-4.4h0v4.4h-1v-5.6h.1Z"/>
        <path class="st1" d="M685.1,77.1c-.2-.3-.6-.5-1-.5s-1,.2-1,.8.4.7,1.1.9c.7.2,1.6.5,1.6,1.6s-.9,1.8-2.1,1.8-1.5-.3-1.9-.8l.7-.7c.3.4.8.6,1.2.6s1-.2,1-.8-.6-.8-1.3-1-1.4-.5-1.4-1.6,1-1.7,2.1-1.7,1.2.2,1.6.6l-.7.7h.1Z"/>
        <path class="st1" d="M691.3,76.8h-1.7v-.9h4.5v.9h-1.7v4.8h-1v-4.8h0Z"/>
        <path class="st1" d="M698.2,75.9h2c1.1,0,2.1.4,2.1,1.6s-.5,1.3-1.3,1.5l1.5,2.5h-1.2l-1.3-2.4h-.7v2.4h-1v-5.6h0ZM700.1,78.4c.6,0,1.2,0,1.2-.8s-.6-.8-1.1-.8h-.9v1.6s.8,0,.8,0Z"/>
        <path class="st1" d="M711.3,79.5c0,1.4-1,2.2-2.3,2.2s-2.3-.9-2.3-2.2v-3.6h1v3.5c0,.7.3,1.4,1.3,1.4s1.3-.7,1.3-1.4v-3.5h1v3.6Z"/>
        <path class="st1" d="M720,77.3c-.3-.4-.8-.6-1.3-.6-1.2,0-2,.9-2,2.1s.7,2.1,1.9,2.1,1.1-.3,1.4-.7l.8.6c-.5.6-1.2,1-2.2,1-1.8,0-3-1.2-3-3s1.3-2.9,3.1-2.9,1.6.3,2,.9l-.8.6h0Z"/>
        <path class="st1" d="M726.1,76.8h-1.7v-.9h4.5v.9h-1.7v4.8h-1v-4.8h0Z"/>
        <path class="st1" d="M735.5,75.8c1.8,0,3,1.1,3,2.9s-1.3,3-3,3-3-1.2-3-3,1.3-2.9,3-2.9ZM735.5,80.8c1.2,0,1.9-.9,1.9-2.1s-.8-2.1-1.9-2.1-1.9.9-1.9,2.1.8,2.1,1.9,2.1Z"/>
        <path class="st1" d="M743,75.9h2c1.1,0,2.1.4,2.1,1.6s-.5,1.3-1.3,1.5l1.5,2.5h-1.2l-1.3-2.4h-.7v2.4h-1v-5.6h0ZM744.9,78.4c.6,0,1.2,0,1.2-.8s-.6-.8-1.1-.8h-.9v1.6s.8,0,.8,0Z"/>
        <path class="st1" d="M751.6,75.9h3.7v.9h-2.7v1.4h2.6v.8h-2.6v1.6h2.9v.9h-3.9v-5.6Z"/>
        <path class="st1" d="M762.8,77.1c-.2-.3-.6-.5-1-.5s-1,.2-1,.8.4.7,1.1.9c.7.2,1.6.5,1.6,1.6s-.9,1.8-2.1,1.8-1.5-.3-1.9-.8l.7-.7c.3.4.8.6,1.2.6s1-.2,1-.8-.6-.8-1.3-1-1.4-.5-1.4-1.6,1-1.7,2.1-1.7,1.2.2,1.6.6l-.7.7h.1Z"/>
      </g>
    </g>
  </g>
</svg>