<?xml version="1.0" encoding="UTF-8"?>
<svg id="Layer_1" xmlns="http://www.w3.org/2000/svg" version="1.1" viewBox="0 0 336 38.5">
  <!-- Generator: Adobe Illustrator 30.2.1, SVG Export Plug-In . SVG Version: 2.1.1 Build 1)  -->
  <defs>
    <style>
      .st0 {
        fill: #231f20;
      }

      .st1 {
        fill: #fafafa;
      }
    </style>
  </defs>
  <rect class="st1" x="-26.9" y="-318.5" width="390" height="844"/>
  <g>
    <g>
      <path class="st0" d="M271.986,33.113c-.332-.153-.604-.263-.863-.399-2.309-1.216-4.602-2.465-6.934-3.634-.594-.298-1.311-.474-1.976-.487-2.645-.054-5.293-.048-7.939-.006-.736.012-.934-.238-.932-.931.019-5.602.018-11.205.001-16.807-.002-.672.156-.952.914-.948,5.658.031,11.316.024,16.974.007.606-.002.873.145.872.801-.016,7.238-.009,14.475-.014,21.713,0,.201-.058.401-.104.693ZM262.743,22.839c2.147-.005,3.693-1.481,3.685-3.52-.008-1.976-1.678-3.663-3.632-3.671-2.001-.008-3.751,1.699-3.76,3.668-.009,1.997,1.602,3.528,3.707,3.524ZM271.442,24.143c-.048-1.37-1.025-2.69-2.259-3.099-.826-.273-1.492-.003-2.064.574-.538.543-.726,1.191-.399,1.909.262.576.622,1.112.849,1.7.11.285.012.648.008.976-.345-.082-.842-.052-1.005-.269-.422-.565-.697-1.239-1.076-1.955-.317.023-.727.053-1.126.082-.087,1.497,1.022,3.209,2.323,3.628.82.264,1.56.094,2.175-.53.581-.588.655-1.285.372-2.014-.185-.476-.462-.917-.692-1.376-.21-.417-.645-.936-.009-1.218.237-.105.751.383,1.123.624.087.056.141.204.16.318.186,1.115.84,1.029,1.619.65ZM254.12,13.877c-.02,1.523.98,3.086,2.229,3.576.804.316,1.552.207,2.199-.388.661-.608.781-1.348.444-2.151-.198-.472-.529-.895-.681-1.377-.116-.37-.045-.799-.056-1.202.389.206.788.395,1.16.628.109.068.145.258.204.397q.454,1.065,1.686.526c-.275-1.374-.932-2.453-2.304-2.999-.809-.323-1.488-.053-2.074.513-.58.561-.761,1.235-.425,1.984.234.523.584,1,.772,1.535.119.339.037.749.045,1.127-.382-.145-.906-.182-1.116-.457-.388-.509-.593-1.157-.894-1.79-.362.024-.747.049-1.189.078ZM267.454,16.613c-.046,1.163.062,1.322.907,1.091,1.159-.317,2.089-.967,2.663-2.046.453-.851.301-1.631-.334-2.335-.61-.676-1.353-.77-2.156-.435-.474.198-.898.532-1.383.681-.375.115-.81.036-1.218.043.186-.371.355-.752.57-1.107.067-.111.252-.159.39-.22q1.138-.512.615-1.698c-1.256.218-2.259.817-2.876,1.962-.458.85-.33,1.656.315,2.335.642.675,1.394.825,2.235.416.545-.265,1.057-.609,1.619-.824.248-.095.586.043.883.075-.063.298-.025.733-.208.868-.594.437-1.271.764-2.021,1.194ZM257.323,20.832c-1.451.117-2.764,1.123-3.116,2.378-.223.795.074,1.434.631,1.963.518.492,1.136.72,1.836.398.577-.265,1.118-.62,1.711-.838.313-.115.702-.021,1.057-.022-.116.365-.121.878-.371,1.065-.539.404-1.205.64-1.833.952-.078,1.324.194,1.589,1.374.962.819-.435,1.57-1.121,2.146-1.854.581-.741.357-1.607-.28-2.316-.636-.707-1.4-.792-2.237-.429-.389.168-.739.447-1.14.559-.442.124-1.252.284-1.33.134-.363-.699.328-.956.785-1.278.048-.034.114-.041.17-.064q1.074-.453.596-1.61Z"/>
      <path class="st0" d="M291.272,20.712c1.313-.39,2.199-.037,2.739,1.209.282.651.749,1.223,1.212,1.955.468-.734.97-1.32,1.245-1.996.537-1.316,1.501-1.457,2.739-1.197v7.836h-1.722v-4.684c-.066-.023-.132-.046-.199-.069-.663.976-1.326,1.952-2.065,3.039-.711-1.048-1.363-2.01-2.175-3.209v4.923h-1.774v-7.806Z"/>
      <path class="st0" d="M285.717,15.505v2.358h-1.722v-8.039c1.665.105,3.322.119,4.949.347.93.131,1.482.903,1.641,1.854.164.979-.011,1.87-.799,2.555-.224.195-.484.348-.788.563.597.878,1.183,1.74,1.788,2.629-1.756.368-1.928.301-2.868-1.114-.493-.743-.857-1.689-2.201-1.154ZM285.785,13.741c.761,0,1.458.124,2.074-.046.38-.105.839-.633.884-1.015.036-.31-.432-.89-.781-.99-.669-.192-1.413-.128-2.177-.173v2.224Z"/>
      <path class="st0" d="M311.887,26.14v2.364h-1.706v-7.885c1.44,0,2.835-.05,4.226.015,1.183.055,2.062.824,2.32,1.854.295,1.181-.096,2.266-1.069,2.955-.147.104-.301.197-.504.328.603.887,1.192,1.753,1.787,2.629-1.38.449-1.947.272-2.667-.806-.151-.226-.327-.442-.441-.686-.38-.818-.991-1.069-1.947-.767ZM311.924,24.418c.723,0,1.359.038,1.988-.011.605-.046,1.02-.366,1.044-1.031.024-.654-.33-1.052-.946-1.112-.677-.066-1.366-.015-2.086-.015v2.169Z"/>
      <path class="st0" d="M330.3,24.598c-.007,2.37-1.838,4.12-4.287,4.1-2.408-.02-4.208-1.773-4.205-4.096.003-2.37,1.826-4.144,4.262-4.146,2.459-.002,4.238,1.74,4.23,4.142ZM328.442,24.567c-.016-1.372-1.08-2.472-2.393-2.473-1.322,0-2.361,1.099-2.352,2.491.008,1.381,1.059,2.465,2.386,2.461,1.335-.003,2.375-1.096,2.36-2.479Z"/>
      <path class="st0" d="M301.273,16.344h4.34v1.502h-6.023v-7.902h5.95v1.549h-4.172v1.593h3.664v1.578h-3.667c-.03.549-.056,1.025-.092,1.68Z"/>
      <path class="st0" d="M290.057,28.576c-.431,0-.679-.035-.912.006-.769.138-1.21-.196-1.359-.923-.15-.731-.573-.996-1.298-.878-.266.043-.552.043-.818,0-1.092-.175-1.79.111-2.136,1.296-.294,1.004-1.231.297-2.024.551.869-2.048,1.667-3.933,2.467-5.817.189-.445.403-.881.57-1.334.22-.596.455-1,1.26-1.003.828-.002.997.463,1.237,1.033.969,2.304,1.959,4.6,3.013,7.067ZM284.799,25.122h1.954c-.328-.784-.615-1.47-.991-2.37-.379.933-.658,1.619-.963,2.37Z"/>
      <path class="st0" d="M308.909,28.511q-1.731.148-2.652-1.722c-.911,0-1.854-.044-2.788.028-.26.02-.602.331-.722.593-.615,1.335-.598,1.347-2.285,1.044.56-1.317,1.111-2.614,1.663-3.91.509-1.195.995-2.401,1.552-3.573.105-.22.496-.431.751-.427.405.007,1.057.086,1.17.332,1.142,2.493,2.196,5.026,3.312,7.635ZM304.646,22.729c-.366.903-.655,1.616-.975,2.406h1.952c-.318-.783-.607-1.496-.977-2.406Z"/>
      <path class="st0" d="M274.279,17.837c1.112-2.605,2.178-5.137,3.28-7.652.207-.473,1.684-.472,1.891,0,1.1,2.515,2.164,5.045,3.248,7.586-1.623.347-1.698.31-2.312-1.049-.037-.083-.068-.231-.116-.237-.954-.12-1.908-.267-2.866-.302-.263-.009-.657.27-.787.521-.664,1.279-.641,1.292-2.337,1.132ZM277.491,14.513h1.968c-.326-.808-.612-1.518-.975-2.418-.37.9-.67,1.633-.993,2.418Z"/>
      <path class="st0" d="M279.676,22.716c-.8-.24-1.476-.533-2.176-.613-.305-.035-.66.367-.992.57.238.271.425.658.725.791.688.305,1.451.438,2.147.727,1.003.416,1.463,1.149,1.383,2.121-.084,1.017-.556,1.804-1.571,2.125-1.761.557-3.329.135-4.815-1.021.373-.443.699-.831.997-1.185.67.282,1.268.567,1.89.78.272.093.627.128.885.031.304-.114.542-.4.809-.612-.213-.256-.375-.616-.648-.746-.513-.245-1.092-.352-1.64-.525-1.568-.494-2.052-1.161-1.914-2.625.104-1.105.94-1.869,2.322-2.038,1.227-.15,2.34.183,3.426.998-.288.425-.567.837-.826,1.22Z"/>
      <path class="st0" d="M293.999,11.586h-2.373v-1.627h6.553v1.627h-2.351v6.276h-1.829v-6.276Z"/>
      <path class="st0" d="M320.175,28.535h-1.691v-7.864h1.691v7.864Z"/>
      <path class="st0" d="M264.714,19.374c-.016,1.074-.901,1.929-1.984,1.92-1.12-.01-1.999-.926-1.963-2.043.033-1.019.993-2.025,1.949-2.043,1.029-.019,2.015,1.05,1.998,2.167Z"/>
    </g>
    <g>
      <path class="st0" d="M132.704,25.672c0-1.374.995-2.402,2.417-2.402,1.378,0,2.409.984,2.409,2.402,0,1.365-.986,2.402-2.409,2.402-1.377,0-2.417-.984-2.417-2.402ZM136.992,25.672c0-1.096-.761-1.912-1.87-1.912-1.071,0-1.879.778-1.879,1.912,0,1.087.77,1.921,1.879,1.921,1.071,0,1.87-.787,1.87-1.921ZM134.179,26.762v-2.189h1.2c.462,0,.782.275.782.656,0,.284-.178.505-.453.594.142.036.249.115.293.266l.222.674h-.56l-.16-.549c-.027-.098-.107-.151-.213-.151h-.569v.7h-.542ZM134.722,25.619h.675c.169,0,.258-.142.258-.284s-.089-.284-.258-.284h-.675v.567Z"/>
      <g>
        <path class="st0" d="M57.824,27.818v-10.171h-3.946v-1.856h9.899v1.856h-3.929v10.171h-2.024Z"/>
        <path class="st0" d="M63.574,24.742v-6.031h1.99v5.945c0,1.031.708,1.632,1.771,1.632,1.366,0,2.175-.911,2.192-2.079v-5.498h1.99v9.106h-1.602l-.152-1.323c-.523.979-1.585,1.581-2.833,1.581-2.125,0-3.356-1.357-3.356-3.333Z"/>
        <path class="st0" d="M72.767,23.2c0-2.99,1.973-4.759,4.57-4.759,2.445,0,4.098,1.529,4.267,3.797h-1.956c-.185-1.254-1.062-2.062-2.327-2.062-1.518,0-2.53,1.168-2.53,3.024,0,1.993,1.113,3.144,2.597,3.144,1.214,0,2.057-.79,2.26-2.096h1.956c-.236,2.354-1.838,3.831-4.216,3.831-2.918,0-4.621-2.13-4.621-4.879Z"/>
        <path class="st0" d="M82.853,24.742v-6.031h1.99v5.945c0,1.031.708,1.632,1.771,1.632,1.366,0,2.175-.911,2.192-2.079v-5.498h1.99v9.106h-1.602l-.152-1.323c-.523.979-1.585,1.581-2.833,1.581-2.125,0-3.356-1.357-3.356-3.333Z"/>
        <path class="st0" d="M92.478,27.818v-9.106h1.602l.236,1.787c.573-1.237,1.619-1.89,3.103-1.89h.337v1.976h-.337c-1.855,0-2.951,1.016-2.951,2.732v4.501h-1.99Z"/>
        <path class="st0" d="M98.618,16.165c0-.739.557-1.306,1.282-1.306.742,0,1.282.567,1.282,1.306s-.54,1.323-1.282,1.323c-.725,0-1.282-.584-1.282-1.323ZM98.905,27.813v-9.106h1.99v9.106h-1.99Z"/>
        <path class="st0" d="M102.672,27.818v-9.106h1.602l.169,1.34c.557-.945,1.686-1.615,3.019-1.615,1.906,0,3.154,1.306,3.154,3.35v6.031h-1.99v-5.927c0-1.014-.658-1.684-1.771-1.684-1.299,0-2.175.911-2.192,2.096v5.515h-1.99Z"/>
        <path class="st0" d="M111.865,23.196c0-2.99,1.973-4.759,4.57-4.759,2.445,0,4.098,1.529,4.267,3.797h-1.956c-.186-1.254-1.062-2.062-2.327-2.062-1.518,0-2.53,1.168-2.53,3.024,0,1.993,1.113,3.144,2.597,3.144,1.214,0,2.057-.79,2.26-2.096h1.956c-.236,2.354-1.838,3.831-4.216,3.831-2.918,0-4.621-2.13-4.621-4.879Z"/>
        <path class="st0" d="M121.638,25.292c.017-2.13,2.091-2.577,3.828-2.783,1.349-.155,2.344-.206,2.361-.928-.017-.893-.691-1.478-1.838-1.478-1.181,0-2.024.653-2.142,1.598h-2.007c.186-1.924,1.872-3.264,4.182-3.264,2.412,0,3.744,1.34,3.744,3.282v4.123c0,.258.135.395.438.395h.489v1.581h-.944c-1.163,0-1.553-.511-1.703-1.374-.523.979-1.501,1.631-3.019,1.631-2.057,0-3.407-1.082-3.39-2.783ZM127.828,24.399v-1.271c-.337.533-1.197.653-2.142.773-1.113.137-2.041.292-2.041,1.254,0,.79.624,1.329,1.788,1.329,1.366,0,2.395-.865,2.395-2.085Z"/>
      </g>
    </g>
    <g>
      <g>
        <path class="st0" d="M154.88,15.791h3.438l3.077,8.972,3.077-8.972h3.42v12.032h-2.63v-8.199l-2.716,8.199h-2.303l-2.733-8.147v8.147h-2.63v-12.032Z"/>
        <path class="st0" d="M171.407,27.599c-.693-.378-1.232-.92-1.616-1.624-.384-.705-.576-1.521-.576-2.449s.192-1.745.576-2.449c.384-.705.922-1.246,1.616-1.624.693-.378,1.498-.567,2.415-.567.905,0,1.704.189,2.398.567.693.378,1.232.92,1.616,1.624.384.705.576,1.521.576,2.449s-.192,1.745-.576,2.449c-.384.705-.922,1.246-1.616,1.624-.693.378-1.493.567-2.398.567-.917,0-1.722-.189-2.415-.567ZM175.231,25.21c.332-.401.498-.963.498-1.684s-.166-1.283-.498-1.684c-.332-.401-.802-.602-1.409-.602s-1.08.201-1.418.602c-.338.401-.507.963-.507,1.684s.169,1.283.507,1.684c.338.401.811.602,1.418.602s1.077-.2,1.409-.602Z"/>
        <path class="st0" d="M181.273,27.599c-.693-.378-1.232-.92-1.616-1.624-.384-.705-.576-1.521-.576-2.449s.192-1.745.576-2.449c.384-.705.922-1.246,1.616-1.624.693-.378,1.498-.567,2.415-.567.905,0,1.704.189,2.398.567.693.378,1.232.92,1.616,1.624.384.705.576,1.521.576,2.449s-.192,1.745-.576,2.449c-.384.705-.922,1.246-1.616,1.624-.693.378-1.493.567-2.398.567-.917,0-1.722-.189-2.415-.567ZM185.097,25.21c.332-.401.498-.963.498-1.684s-.166-1.283-.498-1.684c-.332-.401-.802-.602-1.409-.602s-1.08.201-1.418.602c-.338.401-.507.963-.507,1.684s.169,1.283.507,1.684c.338.401.811.602,1.418.602s1.077-.2,1.409-.602Z"/>
        <path class="st0" d="M190.898,27.531c-.613-.367-1.091-.897-1.435-1.59-.344-.693-.516-1.498-.516-2.415s.175-1.719.524-2.406c.349-.688.825-1.217,1.427-1.59.602-.372,1.269-.559,2.003-.559.55,0,1.043.097,1.478.292.435.195.768.47.997.825v-4.297h2.63v12.032h-2.544l-.017-.859c-.252.355-.593.63-1.023.825-.43.195-.908.292-1.435.292-.779,0-1.476-.183-2.088-.55ZM194.852,25.219c.327-.407.49-.971.49-1.693,0-.71-.163-1.269-.49-1.676-.327-.407-.776-.61-1.349-.61s-1.023.204-1.349.61c-.326.407-.49.965-.49,1.676,0,.722.163,1.286.49,1.693.327.407.776.61,1.349.61s1.023-.203,1.349-.61Z"/>
        <path class="st0" d="M203.506,15.791h2.716v12.032h-2.716v-12.032Z"/>
        <path class="st0" d="M208.129,19.229h2.303v1.048c.263-.447.627-.791,1.091-1.031.464-.241,1-.361,1.607-.361.63,0,1.189.135,1.676.404.487.269.868.676,1.143,1.22.275.544.413,1.223.413,2.037v5.277h-2.664v-5.174c0-.493-.126-.871-.378-1.134-.252-.263-.602-.395-1.049-.395s-.805.132-1.074.395c-.269.264-.404.642-.404,1.134v5.174h-2.664v-8.594Z"/>
        <path class="st0" d="M219.5,27.531c-.613-.367-1.091-.897-1.435-1.59-.344-.693-.516-1.498-.516-2.415s.175-1.719.524-2.406c.349-.688.825-1.217,1.427-1.59.602-.372,1.269-.559,2.003-.559.55,0,1.043.097,1.478.292.435.195.768.47.997.825v-4.297h2.63v12.032h-2.544l-.017-.859c-.252.355-.593.63-1.023.825-.43.195-.908.292-1.435.292-.779,0-1.476-.183-2.088-.55ZM223.453,25.219c.327-.407.49-.971.49-1.693,0-.71-.163-1.269-.49-1.676-.327-.407-.776-.61-1.349-.61s-1.023.204-1.349.61c-.326.407-.49.965-.49,1.676,0,.722.163,1.286.49,1.693.327.407.776.61,1.349.61s1.023-.203,1.349-.61Z"/>
      </g>
      <path class="st0" d="M229.209,27.724c-.414-.248-.726-.575-.937-.98-.211-.405-.317-.84-.317-1.305,0-.456.105-.888.317-1.293.211-.405.523-.732.937-.98s.913-.372,1.497-.372h.024c.584,0,1.085.124,1.503.372.418.248.732.575.943.98.211.406.317.837.317,1.293,0,.465-.106.9-.317,1.305-.211.406-.525.732-.943.98-.418.248-.919.372-1.503.372h-.024c-.584,0-1.083-.124-1.497-.372ZM231.758,27.092c.288-.181.505-.417.651-.709.146-.291.219-.606.219-.945s-.073-.651-.219-.939c-.146-.287-.363-.521-.651-.703-.288-.181-.631-.272-1.029-.272h-.024c-.398,0-.741.091-1.029.272-.288.181-.505.415-.651.703-.146.287-.219.6-.219.939,0,.331.073.644.219.939.146.295.363.533.651.714.288.181.631.272,1.029.272h.024c.398,0,.74-.09,1.029-.272ZM229.635,24.152h1.412c.268,0,.485.083.651.248.166.165.25.366.25.602,0,.158-.035.299-.104.425-.069.126-.168.228-.298.307l.499.945h-.962l-.402-.815h-.097v.815h-.949v-2.527ZM230.943,25.185c.045-.043.067-.096.067-.159,0-.055-.023-.104-.067-.148-.045-.043-.103-.065-.176-.065h-.207v.437h.207c.073,0,.132-.022.176-.065Z"/>
    </g>
    <g>
      <g>
        <g>
          <path class="st0" d="M10.964,28.224h2.82c2.276,0,3.404,1.559,3.404,3.845s-1.19,3.784-3.476,3.784h-2.748v-7.629ZM13.671,34.94c1.723,0,2.43-1.118,2.43-2.871s-.636-2.933-2.369-2.933h-1.712v5.804h1.651Z"/>
          <path class="st0" d="M17.732,33.371v-5.148h1.046v5.055c0,1.251.697,1.795,1.918,1.795,1.179,0,1.877-.544,1.877-1.795v-5.055h1.046v5.148c0,1.836-1.272,2.594-2.943,2.594-1.712,0-2.943-.759-2.943-2.594Z"/>
          <path class="st0" d="M24.459,28.224h3.569c1.364,0,2.287.841,2.287,2.102,0,.933-.379,1.589-1.395,1.907v.031c.861.256,1.107.769,1.179,1.866.092,1.2.195,1.569.349,1.671v.051h-1.118c-.174-.144-.195-.492-.277-1.712-.072-1.077-.523-1.466-1.518-1.466h-2.03v3.179h-1.046v-7.629ZM25.505,31.833h2.184c1.036,0,1.548-.523,1.548-1.354,0-.892-.42-1.354-1.497-1.354h-2.235v2.707Z"/>
          <path class="st0" d="M30.734,32.038c0-2.287,1.425-3.979,3.733-3.979s3.743,1.692,3.743,3.979-1.446,3.979-3.743,3.979-3.733-1.702-3.733-3.979ZM37.123,32.038c0-1.753-.923-3.076-2.656-3.076s-2.666,1.323-2.666,3.076c0,1.743.933,3.056,2.666,3.056s2.656-1.313,2.656-3.056Z"/>
        </g>
        <g>
          <path class="st0" d="M5.7,23.699l.776-.776,3.952,2.4c.66.399,1.682,1.175,1.682,1.175l.015-.015s-.761-1.051-1.153-1.718l-2.299-4.039.783-.783,4.01,2.328c.667.392,1.718,1.153,1.718,1.153l.015-.015s-.761-1.037-1.16-1.697l-2.371-3.981.761-.761,3.894,6.896-.718.718-4.336-2.567c-.602-.355-1.602-1.095-1.602-1.095l-.015.015s.732,1.008,1.08,1.602l2.509,4.409-.74.74-6.801-3.988Z"/>
          <path class="st0" d="M14.967,19.827c-1.617-1.617-1.805-3.821-.174-5.453,1.624-1.624,3.843-1.45,5.46.167,1.61,1.61,1.791,3.836.167,5.46-1.631,1.631-3.843,1.436-5.453-.174ZM19.484,15.31c-1.24-1.24-2.828-1.523-4.053-.297-1.225,1.225-.95,2.821.29,4.061,1.233,1.233,2.821,1.501,4.046.276,1.225-1.225.95-2.806-.283-4.039Z"/>
          <path class="st0" d="M18.027,11.373l2.523-2.523c.964-.964,2.212-1.022,3.103-.131.66.66.856,1.392.363,2.335l.022.022c.79-.428,1.327-.239,2.154.486.914.783,1.247.972,1.428.935l.036.036-.79.79c-.225.022-.486-.21-1.407-1.015-.812-.711-1.407-.667-2.11.036l-1.436,1.436,2.248,2.248-.74.74-5.395-5.395ZM21.319,13.185l1.544-1.544c.732-.732.725-1.465.138-2.052-.631-.631-1.254-.66-2.016.102l-1.581,1.581,1.914,1.914Z"/>
          <path class="st0" d="M22.667,6.732l.74-.74,1.668,1.668c.363.363.718.747.964,1.022l-.065-5.271.928-.928v4.336l5.576.892-.863.863-4.749-.761-.015,1.624,1.951,1.95-.74.74-5.395-5.395Z"/>
        </g>
        <g>
          <path class="st0" d="M28.213,15.342l2.32,2.32c.558.558.834,1.138.834,1.747-.007.457-.181.906-.573,1.298-.587.587-1.298.631-2.045.218l-.022.022c.508.812.544,1.718-.167,2.429-.428.428-.943.638-1.465.638-.624.015-1.269-.268-1.849-.848l-2.429-2.429,5.395-5.395ZM25.857,22.47c.37.37.732.544,1.08.544.297.007.595-.116.848-.37.645-.645.508-1.421-.131-2.059l-1.602-1.602-1.842,1.842,1.646,1.646ZM28.134,19.86c.631.631,1.32.696,1.864.152.508-.508.464-1.146-.116-1.726l-1.566-1.566-1.66,1.66,1.479,1.479Z"/>
          <path class="st0" d="M31.027,24.42l1.189-5.076.827.827-.653,2.596c-.16.609-.479,1.537-.479,1.537l.014.015s.935-.312,1.544-.471l2.603-.645.79.79-5.134,1.204-2.226,2.226-.74-.74,2.262-2.262Z"/>
        </g>
      </g>
      <path class="st0" d="M31.261,15.723c-.279-.116-.522-.278-.729-.484-.206-.206-.368-.452-.484-.738s-.175-.594-.175-.928.059-.643.175-.928.278-.532.484-.74c.207-.209.449-.371.729-.488.279-.116.579-.175.9-.175s.621.059.9.175c.279.116.521.279.728.488.206.208.368.455.484.74s.175.595.175.928-.059.643-.175.928-.278.532-.484.738c-.207.206-.449.368-.728.484-.279.117-.579.175-.9.175s-.621-.058-.9-.175ZM32.957,15.498c.244-.104.454-.249.632-.434.177-.185.316-.405.418-.659.102-.254.154-.532.154-.832s-.051-.577-.154-.831c-.102-.254-.241-.475-.418-.663-.177-.187-.388-.333-.632-.437-.243-.104-.509-.156-.796-.156s-.554.052-.797.156c-.244.104-.454.25-.632.437-.177.188-.316.408-.418.663-.102.254-.153.531-.153.831s.051.577.153.832c.102.254.241.474.418.659.177.185.388.33.632.434.243.104.509.157.797.157s.553-.052.796-.157ZM31.642,14.892c-.163-.071-.301-.169-.416-.297-.115-.127-.204-.278-.269-.453s-.096-.366-.096-.575c0-.204.03-.394.09-.572.06-.177.148-.331.263-.462.115-.132.253-.234.415-.307.163-.073.348-.109.556-.109.167,0,.316.024.447.072.132.048.245.112.341.194.096.081.173.178.231.29.059.113.096.232.113.356h-.475c-.029-.154-.1-.278-.213-.371-.112-.094-.262-.141-.45-.141-.137,0-.258.027-.362.081s-.191.128-.26.222c-.068.094-.121.204-.156.331-.035.127-.053.266-.053.416,0,.304.075.552.225.744.15.191.352.287.606.287.209,0,.37-.057.485-.172s.182-.257.203-.428h.462c-.004.129-.033.257-.087.381-.054.126-.129.234-.225.326-.096.091-.213.163-.35.215-.138.052-.3.078-.488.078-.196,0-.375-.035-.537-.106Z"/>
    </g>
  </g>
</svg>