<?xml version="1.0" encoding="UTF-8"?>
<svg id="Arte" xmlns="http://www.w3.org/2000/svg" version="1.1" viewBox="0 0 333.07 38.51">
  <!-- Generator: Adobe Illustrator 29.0.0, SVG Export Plug-In . SVG Version: 2.1.0 Build 186)  -->
  <defs>
    <style>
      .st0 {
        fill: blue;
      }
    </style>
  </defs>
  <g>
    <path class="st0" d="M176.86,13.6s.09.03.11.05c.02.02.02.07.03.11,0,.07.02.14.06.18.04.04.11.05.2.07.05.01.11.03.14.04.01.02.04.07.09.1.04.03.1.04.15.05.02,0,.03,0,.05.01,0,.01,0,.03,0,.05,0,.06.02.14.05.2.14.22.44.17.68.13.09-.02.18-.03.23-.02.04,0,.06.03.09.06.03.03.06.06.11.08.26.08.46-.05.59-.13.04-.02.09-.05.1-.06.01,0,.03.04.05.06.05.09.14.23.4.23.04,0,.07,0,.12,0,.29-.04.43-.25.57-.46.03-.04.06-.09.09-.13.3-.41.59-.85.86-1.28.15-.23.29-.45.44-.68h0s0-.03,0-.03c-.01-.3-.07-.44-.17-.51-.1-.06-.25-.03-.48.09-.06.03-.09.06-.11.07-.02.01-.02.02-.05.02.01-.04.03-.08.04-.11.06-.15.11-.28-.03-.52-.05-.09-.12-.14-.21-.16-.19-.03-.4.14-.52.25,0,0-.02.02-.03.02-.02-.04-.04-.1-.09-.14-.18-.15-.54-.12-.88-.09-.18.02-.35.03-.48.02-.02,0-.04-.03-.07-.07-.04-.06-.11-.15-.23-.17-.22-.03-.46.21-.58.36-.17.2-.35.5-.53.79-.22.36-.44.73-.65.92-.04.04-.11.07-.17.09-.09.04-.16.07-.18.13-.03.09-.03.16,0,.22.04.09.14.12.22.15ZM181.37,11.96s.04-.03.1-.06c.19-.1.31-.13.38-.09.07.04.11.16.12.4-.15.22-.29.44-.43.66-.27.42-.56.86-.86,1.27-.03.04-.06.09-.09.14-.13.2-.26.38-.5.42-.28.04-.35-.08-.41-.18-.03-.05-.06-.1-.11-.11,0,0-.01,0-.02,0-.05,0-.09.03-.16.07-.12.08-.29.18-.5.12-.02,0-.04-.03-.06-.05-.04-.04-.08-.09-.16-.09-.07,0-.16,0-.26.03-.21.04-.47.08-.57-.08-.03-.04-.03-.11-.04-.16,0-.05,0-.09-.03-.11-.02-.02-.05-.03-.11-.04-.04,0-.09-.02-.12-.03,0,0-.02-.01-.02-.02,0,0,0,0,0,0,.1-.03.25-.06.35-.07,0,0,0,0,.01,0,.01,0,.03,0,.04,0,.01,0,.03,0,.04,0,.03,0,.07.03.1.07.06.05.12.12.24.12h0c.14,0,.26-.08.37-.15.06-.04.13-.08.16-.09,0,.01.02.03.03.04.05.09.14.22.25.25.02,0,.04.01.06.01,0,0,.01,0,.02,0,.01,0,.03,0,.05,0,0,0,0,0,0,0,0,0,0,0,.01,0,.02,0,.04,0,.07,0,0,0,.01,0,.02,0,.03,0,.06-.01.09-.02,0,0,.01,0,.02,0,.03,0,.05-.02.08-.03,0,0,.02,0,.03-.01.03-.01.07-.03.11-.05h.01s1.42-2.06,1.42-2.06c.01-.02.02-.02.05-.02.01,0,.02,0,.03,0h0s0,0,0,0h.03s0,0,0,0c.09-.01.1-.02.14-.05Z"/>
    <path class="st0" d="M183.56,18.4c.11-.02.51-.28.59-.35.05-.05.08-.11.1-.16.02-.04.03-.07.05-.09.02-.02.07-.03.12-.04.08-.02.16-.04.21-.09.05-.05.06-.12.07-.19,0-.04,0-.07.02-.1.02-.03.05-.06.09-.1.08-.07.19-.17.08-.37-.15-.26-.41-.48-.69-.43,0-.05-.03-.12-.08-.19-.1-.16-.3-.37-.4-.38-.06,0-.12,0-.17.02-.04.01-.08.02-.12.02-.38,0-.82-.01-1.28-.03-.9-.03-1.83-.06-2.52.03-.2.03-.55.2-.66.4-.08.15-.08.29-.05.4-.02-.05-.05-.09-.08-.12-.11-.11-.29-.16-.56-.14,0-.11-.03-.24-.1-.35-.07-.11-.17-.18-.28-.2-.26-.04-.6-.03-.92-.01-.23.01-.44.02-.64.01-.47-.02-.95-.09-1.41-.16-.43-.06-.87-.12-1.28-.15-.6-.03-.89.41-1.17.83-.06.09-.12.19-.19.27-.55.76-1.07,1.56-1.57,2.33-.34.52-.69,1.06-1.05,1.58.03-.17.06-.34.1-.52.18-.91.36-1.86.26-2.73-.04-.33-.38-.56-.71-.66-.04-.14-.18-.29-.38-.42-.26-.16-.56-.23-.74-.18-.08.02-.37.28-.99.86l-.05.04c-.65.61-1.32,1.33-1.9,1.95-.76.82-1.51,1.69-2.23,2.53-.68.79-1.38,1.61-2.11,2.4.18-.35.37-.77.56-1.18.15-.33.29-.65.41-.89.79-1.54,1.6-3.11,2.38-4.62.78-1.51,1.59-3.08,2.37-4.62h0c.06-.32.11-.76-.11-.95-.12-.1-.31-.12-.56-.05,0-.24-.04-.41-.14-.52-.08-.08-.19-.12-.34-.12-.06,0-.13.03-.21.06-.06.02-.15.05-.17.05,0,0,0-.02-.01-.03-.04-.08-.11-.25-.25-.34-.12-.08-.24-.09-.33-.11-.05,0-.09-.01-.12-.02,0,0,0,0,0-.01-.03-.05-.08-.15-.19-.14-.09,0-.17.08-.24.16-.05.05-.09.1-.14.12,0-.23-.01-.66-.21-.79-.07-.05-.15-.05-.25,0-.31.14-.81,1.09-1.07,1.61-.04.07-.07.13-.09.18-.75,1.41-1.47,2.87-2.16,4.28-1.06,2.16-2.16,4.39-3.4,6.5-.06.1-.12.2-.18.32-.67,1.17-1.79,3.12-3.07,3.22.07-.95.57-1.88,1.01-2.71l.02-.04c.61-1.13,1.33-2.22,2.03-3.28.33-.5.67-1.02,1-1.54.03-.05.08-.12.14-.22.33-.5.65-1,.68-1.14.03-.17-.11-.22-.19-.25.16-.16.35-.49.27-.68-.03-.07-.11-.15-.33-.12-.1.01-.17.06-.23.11-.05.03-.09.06-.14.08,0-.01,0-.03.01-.04.06-.18.18-.51.02-.76-.05-.08-.15-.13-.27-.15-.12-.02-.26,0-.36.06.01-.3-.05-.49-.2-.58-.24-.14-.59.03-.87.21-.07-.09-.19-.21-.29-.28.37-.24.8-.42,1.21-.59.33-.13.66-.27.97-.44.37-.21.57-.44.56-.66,0-.18-.14-.35-.39-.49.37-.29.56-.68.47-.97-.04-.14-.19-.37-.71-.4,0-.16-.05-.29-.16-.39-.25-.24-.71-.23-.97-.2-.19.02-.36.08-.52.14-.1.03-.2.07-.3.09,0-.21-.06-.36-.17-.45-.23-.18-.63-.06-1.02.07-2.27.76-5.08,2.47-7.51,4.57-2.7,2.32-4.56,4.78-5.25,6.92-.34,1.07-.47,2.32-.34,3.36.17,1.33.75,2.28,1.67,2.74.36.49,1,.72,1.47.84.39.09.79.13,1.19.13,1.4,0,2.83-.48,4.13-.92l.08-.03c.07.05.15.1.22.15.14.09.28.18.4.28.03.02.06.06.1.1.05.06.1.12.16.17.45.35.97.49,1.5.49,1.2,0,2.5-.67,3.39-1.14.46.33.93.67,1.49.84,1.56.46,2.88-.32,3.96-1.14.67-.57,1.33-1.18,1.97-1.77.46-.43.94-.88,1.43-1.3-.02.12-.04.26-.07.4-.15.87-.35,2.05-.07,2.62.16.32.39.5.77.59.08.22.23.39.44.49.19.09.41.13.64.13.3,0,.61-.07.86-.16.91-.32,1.42-1.09,1.92-1.83l.02-.02c.63-.95,1.24-1.95,1.83-2.91.45-.75.92-1.52,1.4-2.26.22-.35.49-.71.75-1.07.24-.32.48-.66.69-.98-.34.86-.76,1.69-1.16,2.49-.36.72-.74,1.46-1.05,2.22-.28.66-.86,2.04-.45,2.94.16.35.45.61.88.75.35.59,1.12.75,1.78.75.27,0,.53-.03.72-.07.85-.17,1.98-.91,2.58-1.67.26-.34.34-.75.21-1.07-.11-.26-.34-.43-.67-.48-.05-.11-.24-.36-.31-.42-.15-.11-.34-.15-.5-.18.07-.16.21-.55.4-1.08.1-.29.2-.56.24-.66.2-.47.42-.96.65-1.49.61-1.36,1.23-2.76,1.56-4.01.2.09.41.09.61.08.03,0,.06,0,.1,0-.08.11-.1.24-.07.35.04.12.14.21.31.24h3.88s.01,0,.01,0ZM178.95,16.95s.04.1.03.12c0,.01-.01.02-.04.02,0-.07,0-.13,0-.19,0,.01.01.03.02.04ZM149.3,24.84c-.71.55-1.48.81-2.16.72-.03-.14-.08-.29-.12-.43-.07-.23-.15-.46-.17-.71-.13-1.42.62-2.66,1.37-3.68,1.56-2.13,3.77-4.04,6.24-5.4l-5.16,9.5ZM169.89,17.44c.1.85-.08,1.79-.26,2.7-.05.26-.1.51-.14.75l-1.07,1.61c.09-.62.23-1.23.36-1.83.13-.55.26-1.12.34-1.69,0-.03,0-.06.01-.09,0,0,0,0,0,0,0-.03,0-.06.01-.1,0,0,0-.01,0-.02,0-.03,0-.06.01-.1,0-.01,0-.03,0-.04,0-.03,0-.06.01-.09,0-.01,0-.03,0-.04,0-.03,0-.06.01-.09,0-.02,0-.04,0-.05,0-.03,0-.06.01-.09,0-.02,0-.04,0-.06,0-.03,0-.06.01-.09,0-.02,0-.04,0-.06,0-.03,0-.06,0-.09,0-.02,0-.04,0-.07,0-.03,0-.06,0-.09,0-.02,0-.04,0-.07,0-.03,0-.06,0-.09,0-.02,0-.05,0-.07,0-.03,0-.06,0-.08,0-.02,0-.04,0-.07,0-.03,0-.05,0-.08,0-.02,0-.04,0-.06,0-.03,0-.05,0-.07,0-.02,0-.04,0-.06,0-.02,0-.05,0-.07,0-.02,0-.04,0-.06,0-.02,0-.04,0-.06,0-.02,0-.03,0-.05,0,0,0,0,0,0,.27.09.55.29.59.56ZM166.44,11.77c.13.12.16.39.08.83-.79,1.54-1.59,3.1-2.37,4.61-.78,1.51-1.59,3.08-2.38,4.63-.13.25-.27.57-.42.9-.27.6-.55,1.23-.8,1.59,0,0,0,0,0,0-.08.11-.21.26-.32.39-.02.02-.03.04-.05.05l-.05.05c-.13.14-.8.82-.86.86-.06.02-.16-.01-.21-.06-.02-.03-.02-.06,0-.09,1.57-3.25,3.24-6.5,4.86-9.66.63-1.22,1.27-2.48,1.91-3.72.02-.04.03-.07.04-.11,0-.01,0-.02.01-.04,0-.02.02-.05.02-.07,0-.01,0-.03,0-.04,0-.02,0-.04.01-.06,0-.01,0-.03,0-.04,0-.01,0-.03,0-.04.23-.07.4-.07.5.02ZM164.01,10.7c.06-.06.11-.12.17-.13.04,0,.06.03.09.08,0,0,0,0-.01,0-.03.02-.06.03-.08.05-.14.09-.28.17-.38.34,0-.03,0-.1,0-.19,0,0,0,0,0,0,.09-.02.16-.1.22-.16ZM157.35,15.41c.09.01.16.05.2.1.13.2.03.5-.03.66-.03.1-.05.14-.02.17h.01s.02.02.02.02c.12,0,.2-.05.26-.1.06-.04.11-.08.18-.09.12-.02.19,0,.22.06.06.15-.14.49-.29.61h0s-.02.05-.02.05v.02s.06.04.1.05c.11.03.15.06.14.13-.03.14-.45.79-.66,1.11-.06.09-.11.17-.14.22-.33.52-.67,1.03-1,1.53-.7,1.06-1.42,2.15-2.03,3.29l-.02.04c-.45.84-.96,1.79-1.02,2.76,0,0-.01,0-.02,0-.02,0-.04,0-.05,0-.01,0-.02,0-.03,0-.02,0-.04,0-.05,0,0,0-.02,0-.03,0-.02,0-.03,0-.05-.01,0,0-.02,0-.03,0-.01,0-.03,0-.04-.02,0,0-.02,0-.03-.01-.01,0-.02-.01-.04-.02-.01,0-.02-.01-.03-.02,0,0-.02-.01-.03-.02-.01,0-.02-.02-.03-.03,0,0-.01-.01-.02-.02-.02-.02-.03-.03-.04-.05-.31-.46.17-1.54.37-2v-.02c.48-1.08,1.11-2.12,1.76-3.14.3-.46.6-.92.91-1.37.58-.87,1.18-1.76,1.7-2.66h0c.03-.12.03-.19,0-.25-.04-.06-.11-.08-.17-.08.25-.29.35-.56.25-.7-.07-.09-.23-.16-.65.03,0-.05.03-.09.08-.13h0c.08-.07.24-.11.37-.09ZM158.36,11.59c.08.26-.13.64-.5.9l-.07.05.08.04c.27.13.4.28.41.44,0,.18-.18.39-.51.57-.3.16-.63.3-.95.43-.44.18-.89.37-1.28.62-.01,0-.03,0-.04-.01-.01,0-.03-.01-.04-.02-.02,0-.03,0-.05-.01-.01,0-.03,0-.04,0-.02,0-.03,0-.05,0-.01,0-.02,0-.04,0-.02,0-.03,0-.05,0-.01,0-.02,0-.03,0-.02,0-.03,0-.05,0,0,0-.02,0-.02,0-.02,0-.04.01-.05.02,0,0,0,0-.01,0-.02,0-.04.02-.07.03h0c-.19.11-.33.32-.44.5-2.54,1.37-4.82,3.33-6.42,5.51-.76,1.04-1.52,2.29-1.39,3.75.02.25.1.49.17.73.04.12.08.25.11.38-.02,0-.04,0-.07-.01,0,0-.01,0-.02,0-.01,0-.03,0-.04,0,0,0-.01,0-.02,0-.01,0-.02,0-.03,0,0,0-.01,0-.02,0,0,0-.02,0-.03,0,0,0-.01,0-.02,0,0,0-.01,0-.02,0,0,0-.01,0-.02,0,0,0-.01,0-.02,0,0,0,0,0-.01,0,0,0-.01,0-.02-.01,0,0,0,0-.01-.01,0,0,0,0-.01-.01,0,0,0,0-.01-.01,0,0,0,0-.01-.02,0,0,0,0-.01-.01,0,0,0-.01-.01-.02,0,0,0-.01-.01-.02,0,0,0-.01-.01-.02,0,0,0-.01-.01-.02,0,0,0-.02-.01-.02,0,0,0-.01-.01-.02,0,0,0-.02-.01-.03,0,0,0-.01-.01-.02,0-.01-.01-.02-.02-.03,0,0,0-.01-.01-.02,0-.02-.02-.04-.03-.06l-.04-.1c-.97-2.1.3-4.03,1.81-5.81,1.84-2.16,4.1-3.83,7.34-5.43.09-.05.24-.11.41-.18.79-.33,1.51-.66,1.61-.95.05-.14.03-.29-.05-.42-.07-.11-.18-.2-.3-.23.05-.09.12-.16.19-.24.02-.02.03-.03.05-.05,0,0,0-.01.01-.02.01-.01.02-.02.03-.04,0,0,.01-.01.02-.02,0-.01.02-.02.03-.03,0,0,.01-.02.02-.02,0-.01.02-.02.02-.03,0,0,.01-.02.02-.03,0-.01.01-.02.02-.04,0,0,0-.02.01-.03,0-.01.01-.03.02-.04,0-.01,0-.02.01-.03,0-.01,0-.03.01-.04,0-.01,0-.02,0-.03,0,0,0-.01,0-.02.34.02.56.13.62.33ZM149.93,27.94c-1.66.56-3.54,1.19-5.26.79-.33-.08-.89-.26-1.27-.63.03.01.06.02.09.03.03,0,.05.02.08.03.04.01.08.02.11.04.02,0,.05.02.07.02.04.01.08.02.12.03.02,0,.04.01.07.02.05.01.1.02.15.03.02,0,.03,0,.05,0,.13.02.27.04.4.05.01,0,.02,0,.03,0,.06,0,.11,0,.17.01.02,0,.04,0,.06,0,.05,0,.1,0,.15,0,.02,0,.05,0,.07,0,.05,0,.09,0,.14,0,.03,0,.05,0,.08,0,.04,0,.09,0,.13,0,.03,0,.05,0,.08,0,.04,0,.09,0,.13,0,.03,0,.06,0,.08,0,.04,0,.09,0,.13-.01.03,0,.06,0,.09-.01.04,0,.08-.01.13-.02.03,0,.06,0,.09-.01.04,0,.08-.01.13-.02.03,0,.06,0,.09-.01.04,0,.08-.01.13-.02.03,0,.06-.01.09-.02.04,0,.08-.02.12-.02.03,0,.06-.01.09-.02.04,0,.08-.02.12-.03.03,0,.06-.01.09-.02.04,0,.08-.02.12-.03.03,0,.06-.01.09-.02.04,0,.08-.02.12-.03.03,0,.06-.01.09-.02.04-.01.08-.02.12-.03.03,0,.06-.02.09-.02.04-.01.08-.02.12-.03.03,0,.06-.02.09-.02.04-.01.08-.02.12-.03.03,0,.06-.02.08-.03.04-.01.08-.02.11-.03.03,0,.06-.02.08-.03.04-.01.07-.02.11-.04.03,0,.06-.02.08-.03.04-.01.07-.02.11-.04.03,0,.05-.02.08-.03.04-.01.07-.02.11-.04.03,0,.05-.02.08-.03.03-.01.07-.02.1-.04.03,0,.05-.02.08-.03.03-.01.06-.02.1-.03.03,0,.05-.02.08-.03.03-.01.07-.02.1-.04.02,0,.05-.02.07-.02.03-.01.07-.02.1-.04.08-.03.15-.05.23-.08l.37.61-.05.02ZM155.8,27.96c-1.27.66-3.41,1.77-4.81.68-.05-.04-.09-.08-.13-.13.02,0,.04,0,.06.01.01,0,.02,0,.03,0,.07.02.15.03.22.04.01,0,.02,0,.03,0,.08.01.15.02.23.02,0,0,.02,0,.02,0,.08,0,.16,0,.23,0,0,0,0,0,0,0,0,0,0,0,0,0,.07,0,.13,0,.2,0,0,0,.02,0,.03,0,.07,0,.13,0,.2-.02,0,0,.02,0,.03,0,.14-.02.27-.04.41-.07.01,0,.02,0,.03,0,.07-.01.13-.03.2-.05,0,0,.01,0,.02,0,.06-.02.13-.03.19-.05,0,0,.01,0,.02,0,.07-.02.13-.04.2-.06,0,0,.02,0,.03,0,.13-.05.26-.09.4-.15,0,0,.02,0,.03-.01.06-.03.13-.05.19-.08,0,0,.02,0,.02-.01.06-.03.13-.06.19-.08,0,0,0,0,0,0,.06-.03.13-.06.19-.09.01,0,.02,0,.03-.01.06-.03.12-.06.18-.09,0,0,.01,0,.02,0,.06-.03.12-.06.17-.09,0,0,.02,0,.03-.01.06-.03.12-.06.18-.09.01,0,.02-.01.04-.02.06-.03.12-.06.17-.09l.11.08c.09.06.19.13.28.19,0,0,.02.01.03.02.09.06.19.12.28.18,0,0,.02.01.03.02h0ZM163.17,25.92c-.64.59-1.29,1.2-1.96,1.77-1.06.8-2.35,1.56-3.87,1.12-.49-.14-.92-.43-1.33-.73,0,0,0,0,0,0,0,0,0,0,0,0,.05.03.1.05.15.08.02,0,.03.01.05.02.04.02.08.04.12.05.02,0,.03.01.05.02.06.02.11.04.17.06,1.61.48,2.97-.34,4.09-1.21l4.22-3.87s0,.02,0,.03c-.03.28-.07.57-.11.85-.02.14-.04.28-.06.42-.52.45-1.03.93-1.52,1.39ZM173.07,20.61c-.26.36-.53.73-.75,1.07-.48.74-.95,1.51-1.4,2.26-.59.97-1.19,1.97-1.83,2.91v.02c-.5.73-1.01,1.48-1.89,1.79-.4.14-1.01.23-1.42.03-.17-.08-.29-.21-.37-.38,0,0,0,0,0,0,.05,0,.1.01.16.02.01,0,.02,0,.03,0,.05,0,.1,0,.15,0,1.37,0,2.27-1.39,2.94-2.44l.09-.13c.53-.82,1.05-1.66,1.55-2.48.82-1.34,1.67-2.72,2.59-4.03.03-.04.07-.1.12-.17.27-.4.84-1.22,1.05-1.32.11-.05.26-.1.32-.04.01.01.02.03.03.04.08.21-.13.8-.3,1.17-.04.09-.08.17-.11.22-.26.46-.62.95-.97,1.43ZM177.24,26.08c.12.28.04.65-.2.97-.58.75-1.68,1.47-2.51,1.63-.69.14-1.83.1-2.32-.53,0,0,0,0,.01,0,.02,0,.04.01.07.02.03,0,.06.02.1.02.02,0,.05,0,.07.01.03,0,.06.01.09.02.02,0,.05,0,.08.01.03,0,.06,0,.09.01.03,0,.05,0,.08,0,.03,0,.06,0,.09,0,.03,0,.05,0,.08,0,.03,0,.06,0,.09,0,.03,0,.05,0,.08,0,.03,0,.06,0,.09,0,.03,0,.05,0,.08,0,.03,0,.06,0,.09,0,.03,0,.05,0,.08,0,.03,0,.06,0,.1-.01.03,0,.05,0,.08-.01.03,0,.06-.01.1-.02.03,0,.05,0,.08-.02.03,0,.07-.01.1-.02.02,0,.05-.01.07-.02.03,0,.07-.02.1-.03.02,0,.05-.01.07-.02.03-.01.07-.02.1-.03.02,0,.05-.02.07-.02.04-.01.07-.03.11-.04.02,0,.04-.02.06-.02.04-.02.08-.03.12-.05.02,0,.03-.01.05-.02.06-.03.11-.05.17-.08.02,0,.03-.02.05-.03,0,0,.01,0,.02-.01.01,0,.02-.01.04-.02,0,0,.02-.01.03-.02.01,0,.02-.01.03-.02,0,0,.02-.01.03-.02.01,0,.02-.01.04-.02.01,0,.02-.01.03-.02.01,0,.02-.02.04-.02.01,0,.02-.01.03-.02.01,0,.03-.02.04-.03.01,0,.02-.02.03-.02.01,0,.03-.02.04-.03.01,0,.02-.02.04-.03.01,0,.03-.02.04-.03.01,0,.02-.02.04-.03.01-.01.03-.02.04-.03.01,0,.02-.02.04-.03.01-.01.03-.02.04-.03.01,0,.02-.02.04-.03.01-.01.03-.02.04-.04.01,0,.02-.02.04-.03.02-.01.03-.02.05-.04.01-.01.02-.02.04-.03.02-.01.03-.03.05-.04.01-.01.02-.02.04-.03.02-.01.03-.03.05-.04.01-.01.02-.02.03-.03.02-.01.03-.03.05-.04.01-.01.02-.02.03-.03.01-.01.03-.03.04-.04.01-.01.02-.02.03-.03.01-.01.03-.03.04-.04.01-.01.02-.02.03-.03.01-.01.03-.03.04-.04.01-.01.02-.02.03-.03.01-.02.03-.03.04-.05,0-.01.02-.02.03-.03.01-.02.03-.03.04-.05,0-.01.02-.02.03-.03.01-.02.02-.03.04-.05,0-.01.02-.02.03-.03.01-.02.02-.03.03-.05,0-.01.02-.02.02-.03.01-.02.02-.03.03-.05,0-.01.01-.02.02-.03,0-.02.02-.03.03-.05,0-.01.01-.02.02-.03,0-.02.02-.03.02-.05,0-.01.01-.02.02-.03,0-.02.01-.03.02-.05,0-.01,0-.02.01-.03,0-.02.01-.03.02-.05,0-.01,0-.02.01-.03,0-.02,0-.03.01-.05,0-.01,0-.02,0-.03,0-.02,0-.03,0-.05,0-.01,0-.02,0-.03,0-.02,0-.03,0-.05,0,0,0-.02,0-.03,0-.02,0-.04,0-.05,0,0,0-.02,0-.02,0,0,0,0,0,0,.27.05.46.2.54.41ZM177.07,21.7c-.23.52-.45,1.02-.65,1.49-.04.1-.14.36-.24.67-.14.4-.36,1-.42,1.11,0,0,0,0-.01,0,0,0-.01,0-.02,0,0,0-.02,0-.02,0,0,0-.01,0-.02,0,0,0-.02.01-.03.02,0,0-.01,0-.02,0-.01.01-.03.03-.04.04-.04.06-.07.13-.09.2-.04.11-.08.22-.18.31-.09.08-.28.15-.39.12-.05-.01-.08-.04-.09-.08-.09-.26.37-1.49.52-1.9l.04-.09c.36-.96.77-1.93,1.17-2.85.56-1.31,1.14-2.66,1.58-4.05.01-.03.04-.07.06-.09,0,0,0,0,0,0,.25-.02.43.01.52.11.08.08.12.22.1.41-.01,0-.02.01-.03.02,0,0-.02.02-.03.02-.01,0-.02.02-.03.03,0,0-.02.01-.02.02,0,0-.01.02-.02.03,0,0-.01.01-.02.02,0,0,0,.02-.01.03,0,0,0,.01,0,.02,0,0,0,.02,0,.03,0,0,0,.01,0,.02,0,0,0,.02,0,.03,0,0,0,.01,0,.02,0,0,0,.02,0,.03,0,0,0,0,0,.01,0,.01,0,.03,0,.04,0,.01,0,.02,0,.04,0,.04,0,.08-.01.12-.32,1.25-.96,2.67-1.57,4.05ZM179.67,18.31c-.11-.02-.19-.08-.22-.17-.03-.1,0-.22.1-.32,0,0,0,0,.01,0,.23,0,.47,0,.7,0,0,0,0,0,.01,0,.23,0,.47,0,.7,0,.58,0,1.18,0,1.76.02h.01s.01,0,.01,0c.14-.06.35-.16.52-.3.06-.05.13-.14.19-.22.04-.05.09-.12.11-.13.02-.01.05-.02.09-.03.05-.01.12-.03.16-.07.03-.03.05-.08.1-.17.05-.11.14-.29.21-.32h0c.28-.1.53.18.63.36.07.13.02.17-.06.24-.04.04-.09.08-.11.13-.02.04-.02.09-.03.14,0,.05,0,.1-.04.12-.03.03-.09.04-.15.06-.06.01-.12.03-.16.06-.04.03-.06.08-.09.13-.02.05-.04.1-.08.13-.07.07-.44.3-.53.32h-3.87Z"/>
    <path class="st0" d="M202.62,11.01c-.14-.12-.38-.08-.51-.06,0,0-.01,0-.02,0,.01-.14-.03-.21-.08-.31-.01-.02-.02-.04-.04-.06l-.05-.1h0c-.14-.19-.3-.15-.52-.1h-.02c-.02-.26-.11-.44-.27-.52-.31-.16-.78.08-1.06.26-.06-.08-.16-.08-.23-.07-.03,0-.06,0-.08,0-.08-.02-.16-.15-.24-.27-.12-.18-.25-.38-.45-.33-.06.02-.17.14-.39.39-.1.11-.19.22-.24.26-.64.57-1.5.94-2.42,1.04-.12.01-.24,0-.36,0-.24,0-.48-.01-.74.12-.02.01-.22.14-.32.21-.14-.15-.33-.14-.5-.14-.03,0-.06,0-.09,0,.02-.28-.08-.46-.31-.54,0-.03-.01-.06-.02-.09-.07-.31-.16-.69-.42-.82-.11-.06-.23-.06-.38-.01-.12-.32-.22-.52-.4-.58-.15-.05-.33,0-.61.18-.31.19-.59.4-.86.6-.75.55-1.46,1.06-2.51,1.25-.16.03-.34.03-.51.04-.38.01-.77.02-1.03.26-.18.16-.25.32-.23.46.05.26.4.41.61.5.02,0,.04.02.06.03-.37.25-.54.46-.53.68,0,.17.12.33.35.48-.01.01-.03.03-.04.04-.15.14-.34.32-.28.56.03.14.56.2.79.21-.04.06-.05.12-.06.17,0,.03-.01.05-.02.06h0c-.28.53-.97,1.29-1.59,1.96-.32.35-.63.69-.85.96-1.83,2.25-3.59,5.18-4.62,7.65,0,.02-.76,1.91-.63,2.04h.01c.1.06.21,0,.3-.05.03-.01.06-.03.08-.04,0,.01.02.05.03.07.02.08.06.18.15.23.06.03.14.03.23,0h.01s0-.01,0-.01c.03-.03.34-.21.46-.27,0,0,0,0,0,0,.01.08.03.26.22.28.2.02.44-.16.66-.31.11-.08.25-.18.31-.19.11.15.46.55.59.6.02,0,.03,0,.06,0,.02,0,.04,0,.07,0,0,0,0,0,.01,0,.09.15.34.5.68.58.04,0,.08.01.12.01.11,0,.22-.04.33-.11.06-.04.1-.11.13-.16,0-.01.02-.02.02-.03.04,0,.1.03.16.06.13.06.29.13.47.1.25-.05.37-.42.37-.64.52.04.93-.1,1.3-.42.33-.29.31-.42.25-.67-.02-.09-.05-.2-.06-.34-.14-2.19,1.61-4.7,2.65-6.2,1.12-1.62,2.34-3.21,3.53-4.75.31-.4.61-.8.91-1.19-.01.12,0,.22.05.31.11.19.38.26.65.31,0,.09,0,.2.07.27-.38.44-.78.89-1.2,1.37-2.16,2.43-4.6,5.19-5.73,7.85-.15.36-.27.73-.39,1.08-.1.31-.2.64-.33.95h0s0,.03,0,.03c.02.12.06.2.13.24.12.07.29,0,.43-.06.08-.03.16-.06.21-.07.05,0,.07.02.1.05,0,0,0,0,0,0-.16.29-.19.48-.11.59.05.06.13.09.24.09.07,0,.15-.01.24-.03.06.24.15.38.28.42.03.01.06.02.09.02.08,0,.18-.04.28-.11,0,.04.02.07.02.11.05.25.11.56.43.56.03,0,.07,0,.11-.01.21-.04.41-.3.52-.43.02-.03.04-.06.06-.07.06,0,.11.03.17.07.06.04.12.08.19.09.16.02.29,0,.39-.08.17-.13.22-.38.24-.62h0s0,0,0,0c.04.19.27.54.42.59.05.01.09.02.13.02.24,0,.38-.21.46-.32.01-.02.03-.05.05-.07.02.02.03.05.05.07.13.18.28.39.56.3.2-.06.17-.26.15-.45-.01-.1-.02-.2,0-.28.04-.16.31-.65.51-1,.08-.14.14-.26.19-.34.5-.95,1.02-1.86,1.62-2.88,1.71-2.93,3.77-6.28,6.69-8.92l.02-.02v-.02s-.03-.07-.09-.11c-.03-.02-.08-.07-.09-.08-.02-.05.07-.35.32-.89.04-.09.12-.24.21-.39.22-.4.38-.69.39-.82,0-.12-.02-.21-.09-.27ZM194.48,12.82c0-.08,0-.15,0-.22,0-.04.02-.07.04-.11.01-.03.03-.06.04-.09l.57.3-.66.49c.02-.13.02-.25.02-.36ZM199.82,10.17c.08,0,.12,0,.14.03,0,0-.01.01-.02.02,0,0,0,0-.01.01-.01.01-.03.03-.04.04-.01.01-.02.03-.03.04,0,0,0,0,0-.01,0,0,0,0,0,0,0,0,0-.01-.01-.02,0,0,0,0,0,0,0,0,0-.02-.01-.03,0,0,0,0,0,0,0-.01-.01-.03-.02-.05,0,0,0,0,0,0,0,0,.02,0,.03,0ZM193.19,10c.21.11.29.47.36.75,0,.01,0,.03.01.04,0,0,0,0,0,0-.03,0-.05,0-.08,0,0,0,0,0-.01,0-.03,0-.05,0-.08,0,0,0,0,0-.01,0-.03,0-.05,0-.07,0,0,0-.01,0-.02,0-.02,0-.04,0-.06,0-.02,0-.04,0-.06,0-.04-.08-.13-.38-.19-.57-.03-.1-.06-.18-.08-.24,0,0,0,0,0,0,.11-.04.21-.04.29,0ZM192.98,15.11c-1.18,1.54-2.41,3.13-3.53,4.75-1.05,1.51-2.8,4.04-2.67,6.27,0,.15.04.27.06.36.05.22.08.31-.22.57-.36.31-.77.44-1.28.39h-.06s0,.06,0,.06c.02.21-.1.56-.28.59-.14.03-.29-.04-.41-.09-.09-.04-.17-.07-.23-.06-.03,0-.05.03-.08.08-.03.04-.07.1-.11.13-.11.08-.24.11-.36.08-.23-.05-.44-.27-.58-.48.03,0,.05,0,.07-.01,0,0,.01,0,.02,0,.02,0,.03-.01.05-.02,0,0,.01,0,.02,0,.01,0,.02-.01.04-.02,0,0,.01,0,.02-.01.01,0,.02-.01.03-.02,0,0,.01,0,.02-.01.01,0,.02-.02.03-.02,0,0,0,0,.01-.01.01,0,.02-.02.03-.03,0,0,0,0,0,0,.01-.01.02-.02.03-.03.05-.05.08-.08.11-.08,0,0,0,0,0,0,.03,0,.09.03.14.06.02,0,.03.02.05.03.05.03.1.05.16.06.18.03.31,0,.4-.06.13-.1.15-.27.17-.41,0-.07.02-.15.04-.16.01,0,.06,0,.09.01.05.01.1.03.15.02.33-.03.57-.11.87-.31.45-.3.46-.36.43-.66,0-.08-.02-.17-.02-.3-.06-2.55,1.34-4.56,2.7-6.51.85-1.22,1.76-2.43,2.64-3.6.4-.53.79-1.05,1.18-1.58.07-.1.17-.22.28-.35.32-.38.71-.86.77-1.17.02-.11.02-.21.02-.31,0-.09,0-.17.01-.25.01-.08.05-.18.1-.27.01-.03.03-.07.04-.1,0,0,0-.01,0-.02.01-.03.02-.06.03-.09,0,0,0,0,0,0,.04,0,.08,0,.11,0,.17,0,.32-.01.43.11,0,0,0,.01,0,.02,0,0,0,0,0,.01,0,.01,0,.03-.01.04,0,0,0,0,0,0-.01.04-.02.08-.04.11,0,0,0,0,0,0,0,.01,0,.03-.01.04,0,0,0,0,0,.01,0,.01,0,.02,0,.03,0,0,0,0,0,0,0,.01,0,.02,0,.02,0,.1.01.18.03.26.01.06.03.12.02.17h0s-.02.08-.04.12c-.02.05-.05.09-.05.15,0,.08,0,.15,0,.24,0,.15.01.31-.05.47-.02.07-.19.3-.29.44-.35.46-.71.92-1.06,1.38ZM187.94,26.85s-.05-.17.11-.47c0,0,0,0,0,0,.03.01.05.02.07.03,0,0,0,0,0,0,.02,0,.04.02.05.02,0,0,0,0,0,0,.01,0,.03.01.04.02,0,0,0,0,0,0,0,0,.02.01.02.02,0,0,0,0,0,0,0,0,.01.01.02.02,0,0,0,0,0,0,0,0,0,.02,0,.02,0,0,0,0,0,0,0,0,0,.02,0,.03,0,0,0,0,0,0,0,.01,0,.02,0,.04,0,.02,0,.03,0,.05,0,0,0,.01,0,.02,0,.01,0,.03,0,.05,0,0,0,.02,0,.03,0,.02,0,.03,0,.05,0,.01,0,.02,0,.04,0,.01,0,.02,0,.03-.25.06-.35.02-.38-.02ZM190.82,27.44c-.08.06-.18.08-.31.06-.05,0-.1-.04-.15-.07-.07-.05-.16-.1-.26-.08-.03,0-.05.03-.11.11-.1.13-.28.36-.45.4-.31.06-.36-.14-.42-.46-.01-.06-.02-.11-.03-.17,0,0,0,0,0,0,.02-.02.03-.03.05-.05,0,0,0,0,.01-.01.02-.02.03-.04.05-.07.07-.08.17-.21.22-.23.03,0,.08.02.13.06.05.04.12.08.19.09.16.03.27,0,.36-.05.19-.11.25-.37.3-.61l.28.46h0s.03.03.04.04c0,0,0,0,.01,0,0,0,.02.01.03.02,0,0,.01,0,.02,0,0,0,.02,0,.03.01,0,0,.01,0,.02,0,0,0,.02,0,.03,0,0,0,.01,0,.02,0,0,0,.02,0,.03,0,0,0,.01,0,.02,0,0,0,.02,0,.03,0,0,0,.01,0,.02,0,0,0,.02,0,.03,0,0,0,.01,0,.02,0,0,0,0,0,0,0-.02.21-.07.43-.2.53ZM202.23,12.06c-.09.17-.17.31-.21.4-.38.84-.33.94-.32.97.02.04.06.07.12.12.01,0,.02.02.03.03-2.91,2.64-4.97,5.99-6.68,8.92-.59,1.02-1.12,1.93-1.62,2.88-.04.08-.11.2-.19.34-.21.38-.47.85-.52,1.02-.03.1-.01.21,0,.32.02.2.03.3-.08.33-.21.06-.32-.09-.45-.26-.03-.04-.06-.08-.08-.11l-.02-.02h-.02s0,0,0,0c-.05,0-.09.05-.14.13-.1.14-.23.34-.48.26-.12-.03-.35-.42-.35-.53.01-.04.21-.34.23-.37.03,0,.08.11.11.15.03.05.05.09.08.12.08.08.25.21.4.19.05,0,.12-.04.16-.13.06-.12.04-.25.01-.36-.01-.07-.03-.14-.01-.2.04-.18.3-.65.49-.99.07-.12.12-.23.16-.3.08-.16.16-.31.24-.47.02-.04.04-.08.06-.12.07-.13.14-.26.2-.39.05-.09.09-.17.14-.26.02-.03.03-.06.05-.09.76-1.42,1.67-2.98,2.66-4.51,0,0,0-.01.01-.02.06-.09.11-.17.17-.26.03-.05.06-.09.09-.14.03-.05.07-.1.1-.15.06-.08.11-.16.17-.25,0,0,.01-.02.02-.03.99-1.45,1.87-2.56,2.61-3.4.02-.02.04-.04.05-.06.04-.05.09-.1.13-.15.07-.07.13-.15.2-.22.02-.02.04-.04.06-.07.08-.08.16-.17.24-.25.05-.06.21-.2.38-.36.62-.57.77-.72.78-.77.02-.11-.07-.16-.13-.19-.02-.01-.05-.03-.06-.03l.9-2.09c.05.08.07.14.04.27v.03s.01.02.01.02c.03.03.06.02.14,0,.11-.02.33-.06.43.03.04.04.06.1.06.19,0,.12-.22.5-.38.78Z"/>
  </g>
  <g>
    <g>
      <g>
        <path class="st0" d="M76.2,26.34c-.25.16-.63.18-.94.21-.36.02-.75.1-.91-.25-.11-.27-.2-.58-.34-.85-.26-.53-.5-1.15-.87-1.62-.29-.28-.4.15-.48.44-.22.67-.43,2-1.04,2.28-.5.24-1.1.16-1.27-.44-.14-.35-.3-.84-.43-1.23-.69-2.16-1.48-4.31-2.02-6.51-.1-.75,1.23-.73,1.69-.68.34.03.46.3.56.59.34.94.92,2.55,1.12,3.1.24.66.79-2.07,1.03-2.19.29-.35,1.14-.32,1.46-.09.21.17.28.42.4.66.23.5.5,1.16.72,1.63.1.23.4.82.61.35.38-1.3.56-2.67,1.01-3.95.19-.46.71-.51,1.17-.54.71-.06,1.22.09,1.03.92-.24,1.11-.72,2.14-.95,3.25-.38,1.47-1,3.87-1.32,4.63-.05.12-.11.2-.23.28h-.01Z"/>
        <path class="st0" d="M55.68,27.63c-.45-.35-.18-1.44-.15-1.98.16-2.41.23-4.84.1-7.24-.01-.24-.02-.51.09-.71.23-.54,1.54-.59,1.97-.36.21.14.25.38.36.59.24.54.61,1.36.92,2.06.2.39.26.77.57,1.03.12.08.17-.05.16-.16.02-.8.07-3.12.09-3.78,0-.12.05-.19.18-.24.38-.1,1.12-.17,1.49.03.26.18.27.62.3.92.19,2.43-.05,5.1.1,7.55,0,.4-.01.97-.2,1.3-.27.37-.89.34-1.32.37-.34.02-.79-.05-.95-.34-.55-.93-.93-2.11-1.39-3.09-.16-.29-.32-.3-.32-.03-.06.88-.05,2.99-.18,3.8-.2.44-1.44.45-1.81.29h-.01Z"/>
        <path class="st0" d="M87.77,25.41c-1.52-1.24-1.74-4.16-.91-5.85.88-1.79,2.41-2.23,4.3-2.19,1.31.03,2.02.7,2.5,1.85,1.25,2.95-.4,7.04-3.97,6.83-.5-.03-1.54-.33-1.92-.64ZM90.76,19.55c-1.11.25-1.51,2.47-1.36,3.41.15.94,1.43.47,1.83-.24s.84-3.47-.47-3.17Z"/>
        <path class="st0" d="M78.73,12.01c-.64-.03-1.27.08-1.89.18-.28.3-.53,2.05-.77,2.13-.27.09-1.59-.11-1.68-.4-.04-.14.24-1.38.3-1.63.5-2.06,1.15-4.1,1.81-6.11.2-.39,1.75-.46,2.06-.2.1.09.44.82.52,1,.73,1.64,1.41,4.46,1.8,6.26.09.43.19.76-.31.93-.32.1-1.1.26-1.37.02-.26-.69-.3-1.46-.47-2.18ZM78.28,10.48c.12-.19-.42-1.68-.68-1.88-.1,0-.58,1.8-.55,1.91.05.2,1.19.03,1.23-.03Z"/>
        <path class="st0" d="M74.07,13.67c-.07.63-.22.78-.88.86-.58.08-1.12.14-1.72.21-.43.05-.87.1-1.29.1-.14,0-.28,0-.41-.06-.3-.12-.29-.44-.32-.76-.06-2.03.18-6.58.18-7.65.02-.33.39-.46.69-.45.3-.02.66-.08.96-.1.3-.02.55.03.65.31.14.45.1.93.12,1.39,0,.54.02,1.06-.05,1.58-.07.89,0,1.8-.04,2.69,0,.16-.03.35.09.45.18.13.7.04,1.13-.02.42-.08.82-.13.9.32.04.36.04.75,0,1.1h0Z"/>
        <path class="st0" d="M83.66,19.44c.11-.08.94-2.14,1.17-2.52.41-.67.68-.74,1.48-.77,1.63-.08.9,1.07.44,2-.78,1.56-2.07,2.98-2.21,4.82-.05.66.11,2.47-.27,2.94-.07.09-.08.12-.21.14-.27.05-1.63.04-1.79-.13-.32-.36-.12-2.35-.17-2.96-.1-1.25-1.55-2.82-2.19-3.98-.38-.68-1.11-1.77.03-2.08.33-.09,1.34-.23,1.63-.1s.94,1.51,1.18,1.86c.12.17.69.93.9.78Z"/>
        <path class="st0" d="M112.88,25.36c-.18.05-.53.08-.75.09-.5.04-.78-.06-.95-.53-.23-.54-.46-1.09-.62-1.65-.05-.14-.2-.74-.37-.7-.06.04-.05.29-.07.53-.01.19-.02.38-.03.57-.04.67-.08,1.44-.1,1.82.01.29-.32.35-.55.37-.37.03-.78.07-1.07-.13-.07-.06-.08-.12-.08-.2.03-1.06.24-6.27.3-7.67,0-.12.01-.24.12-.32.03-.02.06-.04.09-.05.27-.11.57-.13.85-.15.3,0,.64-.04.76.26.23.58.86,2.22,1.09,2.79.02.04.05.12.09.11.37-.43.19-2.42.27-3.08.02-.45.21-.6.69-.55.3.03.75.04.78.35-.07.99-.18,7.03-.33,7.99,0,.06-.03.09-.1.12h0Z"/>
        <path class="st0" d="M67.46,20.11s-.12.05-.19.06c-.69.12-1.38.24-2.09.24-.07,0-.15,0-.21.03-.06.03-.09.09-.11.17-.03.12-.05.29-.05.45-.01.3,0,.87.25.96.08.02.16,0,.25,0,.31-.03.81-.12,1.08-.14.25-.02.69-.06.87.06.22.19.06.98,0,1.26-.05.17-.09.32-.23.41-.34.2-1.54.26-1.9.32-.07,0-.12.03-.13.1-.01.11,0,.42,0,.64,0,.08,0,.2.09.22.55.04,1.11.04,1.66,0,.43-.04.71-.12.87.09.14.22.14.58.14.86,0,.64-.21.76-.79.88-.82.18-1.96.35-2.8.43-.48.02-1.26.26-1.42-.38-.32-2.37.13-5.12-.18-7.53-.03-.19-.04-.45.08-.6.36-.43,1.12-.28,1.62-.33.76-.08,2.17-.4,2.84-.26.46.1.38,1.13.4,1.55-.01.15.02.41-.06.49h0Z"/>
        <path class="st0" d="M100.25,25.51c-.9.41-1.2.83-1.82-.18-.27-.32-1.38-3.23-1.8-2.9-.05.68.13,2.74.09,3.46-.11.31-1.36.34-1.7.25-.2-.05-.23-.3-.25-.49-.19-2.25-.05-4.51-.28-6.76,0-.15-.01-.3,0-.45.01-.52.51-.74.95-.85,1.36-.32,3.82-.7,4.45.93.21.43.32.89.23,1.37-.12.62-.44,1.25-.91,1.66-.21.22-.72.45-.67.77.2.55,2.16,2.81,1.72,3.18h0ZM98.31,19.03c-.31-.29-1.11-.28-1.49,0-.04.04-.05.09-.05.14-.03.44-.13,1.51-.16,2.13,0,.17.18.14.3.1.93-.29,2.25-1.57,1.42-2.36h-.01Z"/>
        <path class="st0" d="M120.47,25.6c-.05.08-.17.13-.35.18-.28.08-.68.11-.97.08-.17-.02-.3-.03-.41-.15-.34-.38-.41-1.75-.71-2.05-.05-.04-.11-.05-.18-.06-.48-.05-1.19.22-1.71.21-.07,0-.11.05-.13.11-.15.46-.41,1.7-.62,1.95-.23.21-1.33-.01-1.65-.18-.08-.05-.09-.12-.07-.23.59-2.63.87-5.4,1.95-7.88.05-.11.12-.18.22-.21.65-.16,1.69-.44,2.08.19.71,1.47,1.22,3.15,1.75,4.76.24.77.45,1.5.64,2.22.07.32.24.73.15,1.04h0ZM116.33,22.15c.19.16,1.19.13,1.28-.15-.02-.3-.48-1.53-.68-1.82-.19-.19-.21.22-.26.34-.09.32-.21.79-.28,1.13-.05.25-.1.4-.06.49h0Z"/>
        <path class="st0" d="M102.47,19.29c.08.06.16-.06.2-.13.33-.51,1.02-1.62,1.4-1.95.22-.22,1.08.05,1.12.37-.06,1.09-1.9,2.82-2.23,3.67-.03.12.03.2.08.32.39.76,1.91,2.77,1.98,3.37,0,.12-.04.16-.18.25-.29.15-.79.37-1.04.13-.27-.33-.73-1.44-1.13-2.05-.11-.16-.27-.39-.27-.26.03.35.2,2.33.23,2.72,0,.05,0,.09-.03.14-.24.28-.79.32-1.1.17-.17-.1-.17-.25-.25-.48-.6-2.32-.31-4.8-.47-7.17-.04-.38-.09-.92-.07-1.28.02-.36.06-.44.42-.45.32-.02.97.02,1.14.15.08.07.09.15.11.26.05.27.09.54.08.81,0,.41-.08.8-.09,1.2,0,.07,0,.17.04.21h0Z"/>
        <path class="st0" d="M107.14,25.3c-.06.07-.15.08-.24.09-.23.02-.56.05-.79.06-.26.03-.45-.11-.46-.39-.02-2.34.26-4.65.28-6.99.04-.34,0-.87.38-.98.23-.06.64-.04.94-.06.1,0,.2-.02.3,0,.34.1.28.59.28.88-.02.54-.04,1.08-.07,1.62-.16,1.95-.21,3.88-.61,5.76h0Z"/>
      </g>
      <g>
        <g>
          <path class="st0" d="M109.9,28.71s-.36-.33-.88-.18l-.4.38c-.45.53-.82,1.28-.81,1.79.02,1.1,1.09.88,1.71.39.65-.51,1.26-1.79.38-2.38ZM109.8,29.85c-.1.37-1.01,1.49-1.39.99-.25-.33.41-1.67.76-1.79.47-.16.74.39.63.8Z"/>
          <path class="st0" d="M120.47,28.03c.02-.13-.19-.26-.3-.21-.46.18-1.26,1.75-1.49,2.25-.08.15-.07.36-.18.5-.09.14-.44.35-.32.03.14-.35.45-.8.14-1.11-.41-.43-1.03.19-1.31.55-.12.16-.21.41-.31.57-.03.06-.09.1-.16.1-.12,0-.21-.08-.19-.19.02-.14.12-.4.18-.62.06-.19.09-.33.05-.5-.01-.07-.05-.17-.13-.16-.19.02-.56.36-.74.51-.05.04-.1.06-.06-.04.04-.14.21-.42,0-.49-.15-.04-.21.02-.28.18-.15.33-.31.66-.45.99-.05.12,0,.27-.08.38-.09.1-.31.1-.44.08-.11-.03-.07-.1-.02-.24.07-.2.2-.53.23-.74.02-.15-.02-.24-.14-.23-.32.02-.58.76-.62,1.09-.03.43.42.67.75.4.1-.09.17-.23.29-.1.14.17.29.29.43.01.14-.23.21-.45.37-.64.07-.09.17-.2.21-.2.01,0,.02.02.02.04,0,.04-.01.09-.02.13-.06.32,0,.62.15.74.15.14.38-.03.5-.22.04-.05.06-.12.12-.11.04.02.08.12.15.19.17.2.4.16.58,0,.06-.04.11-.1.18-.12.02,0,.03,0,.04.02.06.05.15.24.32.27.2.04.35-.13.46-.27.24-.28.3.31.7.21.13-.03.24-.13.31-.22.01-.02.03-.04.04-.05.02-.02.03-.04.04-.06,0,0,0,0,.01-.01,0,0,0,0,0,0,.1-.11.22-.2.29-.26h0c-.06-.04-.11-.08-.15-.09-.05-.01-.08,0-.12.03-.11.09-.31.35-.47.25h0c-.11-.16.07-.45.14-.6.28-.51,1.16-1.59,1.27-2.05ZM117.96,29.98c-.15.21-.34.44-.5.61-.05.05-.23.26-.26.13-.03-.24.73-1.11.87-1.01h0c.01.1-.07.19-.12.27Z"/>
          <path class="st0" d="M111.55,32.14s.08-.08.13-.11c.18-.11.56-.32.74-.44.12-.07.2-.19.27-.31.02-.03.03-.06.03-.09,0-.09-.2,0-.32-.02-.26,0-.44-.19-.38-.46.1-.49.46-.92.86-1.17.2-.14.42-.14.64-.06.43.17.27.47.15.81-.15.4-.4.88-.63,1.22-.25.28-.75.61-1.16.91-.06.04-.11.08-.18.09-.17,0-.23-.24-.15-.37h0ZM113.33,29.86c-.06-.09-.44.29-.51.35-.16.15-.32.33-.37.55,0,.06.02.11.08.09.16-.09.44-.42.59-.59.08-.1.23-.27.21-.39h0Z"/>
          <path class="st0" d="M110.86,29.77c.14,0,.18-.15.33-.16.45-.04-.08.61-.16.79s-.25.8-.3.87c-.09.12-.29.05-.33-.08-.13-.39.24-.84.21-.97-.02-.11-.21-.11-.19-.39.07-.83.86-1.07.44-.06Z"/>
          <path class="st0" d="M111.61,29.7c.64-.22-.14.98.1,1.15.03.02.21-.08.21.1,0,.16-.56.55-.7.15-.09-.27.16-1.32.38-1.4Z"/>
          <path class="st0" d="M114.44,29c.08-.13.46-.03.45.2-.02.42-.61.07-.45-.2Z"/>
          <path class="st0" d="M111.89,29.02c.16-.06.41.13.29.33-.24.38-.54-.23-.29-.33Z"/>
          <path class="st0" d="M119.52,30.76s0,0-.01.01c-.01.02-.03.04-.04.06-.01.02-.03.03-.04.05.03-.04.06-.08.09-.12Z"/>
          <path class="st0" d="M109.9,28.71l-1.18.39s-.08-.08-.1-.18l.4-.38c.52-.15.88.18.88.18Z"/>
        </g>
        <g>
          <path class="st0" d="M103.05,29.08c-.46.57-.79,1.63-1.65,1.61.1-.12.2-.26.27-.39.1-.17.59-.95.55-1.08-.04-.14-.15-.14-.27-.09-.15.07-.76.98-.88,1.18-.13.23-.33.67-.02.84.1.06.44-.04.57-.08.03,0,.31-.2.25-.05-.01.04-.47.51-.53.56-.25.2-.15.1-.4.3-.02.02-.27.13-.29.15-.04.03-.24.1-.28.14.06-.03-.56.2-.4.48.11.19.86-.24.88-.22.13-.07.2-.12.43-.27.3-.2.95-.93,1.29-1.46.14-.22.8-1.3.79-1.49,0-.13-.21-.23-.31-.13Z"/>
          <path class="st0" d="M98.98,29.98c.08.02.1-.05.14-.09.19-.17.66-.78.84-.85.08-.03.19.06.21.13.05.19-.7.95-.89,1.08-.04.13.54,1.01.21,1.1-.38.1-.51-.82-.57-.82-.19.01-.44.9-.75.86-.38-.25.48-1.38.37-1.48-.05,0-.09-.02-.13.03-.14.23-.21.48-.4.72-.26.34-.86.89-1.31.61-.49-.31.03-1.26.31-1.59.13-.15.63-.63.8-.63.11,0,.2.1.22.2.01.07-.1.14-.05.21.04.06.56.34.68.22.12-.22.65-1.56.79-1.62.06-.02.2.01.23.06.1.13-.19.74-.26.9-.14.33-.34.63-.46.97ZM97.87,29.73s-.2-.14-.22-.13c-.07.02-.48.78-.51.91-.02.07-.1.35,0,.37.18.03.81-.7.83-.9,0-.07-.05-.19-.1-.25Z"/>
          <path class="st0" d="M92.19,28.72c-.05.22-.14.53-.23.74-.32.76-.78,1.46-1.12,2.21-.22.2-.34.01-.29-.24.3-.83.76-1.6,1.15-2.39.04-.16-.24.05-.31.03-.06-.02-.13-.14-.1-.2.13-.29,1.37-.81,1.7-.87.21-.04.78-.05.86.19.2.63-.81,1.34-1.24,1.67.25.09.7.28.68.6-.03.47-.82,1.08-1.23,1.25-.24.1-.61.24-.78-.01.05-.2.3-.2.46-.29.26-.14.89-.5,1-.78.22-.57-.95-.21-.83-.66.02-.08.94-.77,1.1-.92.12-.11.51-.47.42-.62-.14-.26-1.03.16-1.22.3Z"/>
          <path class="st0" d="M106.38,29.03c.17.15.15.42.02.59-.19.26-.25-.09-.31-.09-.22.32.14.7.21,1.03.02.1.03.23.02.33-.06.8-1.24.68-1.61.1-.05-.09,0-.19-.14-.15-.01,0-.02.07-.07.1-.72.37-.71-.29-.52-.8-.29.12-.63,1.08-.92,1.07-.07,0-.19-.18-.18-.28.04-.23.33-.82.45-1.05.18-.17.3-.72.55-.74.3-.02.12.36.04.5.11.08.57-.62.7-.2.11.36-.33.8-.29,1.16.46-.14.41.07.68.3.19.16.43.29.68.15.29-.16-.14-.93-.16-1.22,0-.15.06-.46.15-.59.14-.21.48-.38.7-.2Z"/>
          <path class="st0" d="M96.25,29.67c.11.09.32.1.44.16.15.07-.12.18-.19.29-.07.1-.08.21-.15.31-.26.37-1.04,1.29-1.52.86s.27-1.61.67-1.91c.54-.41.48.09.75.3ZM96.12,29.95s-.09-.03-.12-.06c-.07-.08-.15-.26-.29-.18-.08.05-.58,1.01-.43,1.18.26.06.94-.8.85-.94Z"/>
          <path class="st0" d="M100.69,31.18c-.05.07-.25.14-.34.15-.63.08-.56-.57-.39-.99.14-.35,1.08-2.16,1.32-2.32.26-.17.41,0,.32.27s-.35.74-.49,1.01c-.17.31-.76,1.13-.82,1.39-.1.43.35.16.44.29.02.05,0,.16-.03.2Z"/>
          <path class="st0" d="M94.01,29.71c.06.06.42-.28.53-.3s.2.07.18.17c-.02.07-.43.46-.52.58-.17.23-.56,1.17-.69,1.23-.16.08-.32-.08-.3-.24.04-.31.5-.84.52-1.03,0-.12-.17-.01-.24-.14-.04-.07.26-.76.33-.83.1-.09.37-.19.38-.01,0,.1-.27.5-.19.58Z"/>
        </g>
      </g>
    </g>
    <g>
      <g id="pX0QVh.tif">
        <g>
          <path class="st0" d="M89.21,9.46s.04-.09.13-.08c.13.02.02.22-.02.28-.31.51-.89.33-1.22-.06-.16-.2-.12-.41.02-.6.05-.06.15-.22.23-.12.06.06-.04.2-.06.27-.07.21-.07.3.13.43.22.15.44.22.66.04.04-.04.09-.11.14-.16Z"/>
          <path class="st0" d="M89.01,9.29c0,.09-.01.17-.07.24-.04.04-.17.08-.23.08-.17,0-.34-.17-.34-.34,0-.06.07-.18.12-.22.19-.14.45-.09.59.09.11.14.08.31-.08.15ZM88.79,9.18s-.12-.05-.17-.01c-.04.02-.04.12-.02.14.01,0,.28-.04.19-.12Z"/>
        </g>
      </g>
      <path class="st0" d="M94.92,11.18c-.06-.22-.29-.31-.47-.16-.03.03-.14.16-.16.2-.06.1-.09.33-.16.4-.04.04-.03-.02-.04-.03,0-.01-.04-.02-.05-.04-.38-.39-.87-.77-1.39-.95-.55-.2-1.26-.41-1.74-.76-.08-.06-.2-.17-.24-.27-.03-.1-.06-.28-.07-.38,0-.07.03-.23-.02-.26.12-.6.69-1.85.23-2.38-.38-.43-.95.03-1.2.37-.16.21-.27.47-.35.71-.03.09-.02.18-.11.24l-.8-.06s.02-.05.03-.08c.06-.4.02-1.37-.34-1.62-.11-.08-.26-.09-.35.02-.05.14-.1.29-.14.44-.12.43-.25.92-.27,1.36,0,.03.03.07.02.09,0,.01-.09.05-.12.07-.05.04-.23.26-.26.31-.12.19.04.28.2.17.21-.15.29-.42.57-.5.07-.02.21-.03.26.03-.05-.01-.05.03-.07.04-.3.22-.52.54-.67.88,0,.02,0,.04,0,.07,0,0-.03.01-.03-.02,0-.19-.02-.34-.21-.43-.24-.11-.43.22-.44.43,0,.03.03.1.01.12,0,0-.03,0-.04,0-.09.08-.2.22-.28.31-.07.08-.06.07-.11.15-.07.12-.18.26-.21.39-.03.13,0,.33.11.42.02.02.05,0,.05.01,0,0-.02.04-.01.07.02.14.25.36.38.42.19.1.41.15.62.21.04.05.16.1.18.16,0,.02,0,.05,0,.07.03.21-.07.36-.11.56-.06.27-.11.57-.14.84,0,.04,0,.32,0,.33-.01.02-.05.01-.07.02-.02,0-.03.03-.05.04-.06.02-.18.03-.23.08-.01.01,0,.03,0,.04-.12.14-.1.18-.14.35-.02.09-.11.16.03.22.11.05.26,0,.37,0,.39,0,.78.05,1.17.03.08,0,.19-.02.23-.09l.22-.49s0,.02.01.03c.1.07.16.18.25.26.09.08.15.08.27.07-.11.08-.12.17.03.21.53.13,1.05.05,1.59.03.12,0,.46.04.52-.04.07-.08.1-.36.14-.47.08-.23.3-.43.27-.69,0-.07-.03-.14-.11-.16-.08-.01-.12.12-.16.17-.02.03-.08.13-.09.14-.01.02-.04,0-.05.02-.01.02,0,.05-.02.07,0,0-.04,0-.06.03-.19.17-.3.38-.29.64-.24.02-.48-.01-.72-.01-.14,0-.3.03-.43.05-.07,0-.24.03-.3.02-.02,0-.04-.01-.06-.01.05-.18.35-.22.4-.38.05-.17.01-.44.04-.63.01-.11.07-.24.08-.35,0-.05.04-.28-.06-.27-.03,0-.18.15-.21.18-.11.15-.19.37-.21.55-.01.12.01.26.01.38,0,.01-.14.13-.16.15-.03.02-.08.04-.11.08-.02.03-.02.07-.04.1-.03.07-.03-.01-.05-.04-.15-.27-.38-.48-.56-.73-.13-.18-.21-.37-.29-.57-.03-.08-.02-.19-.13-.23-.12.04-.09.25-.08.36.01.09.07.3.1.39.02.05.16.27.16.29,0,.02-.08.07-.09.1-.09.12-.23.3-.26.46,0,.02.02.05,0,.07-.03.06-.44.04-.52.04-.1,0-.19,0-.28,0-.1,0-.2,0-.3.02,0-.23.23-.19.37-.25.04-.02.2-.17.22-.22.06-.18.03-.51.05-.71.03-.26.14-.53.19-.79,0-.03.04-.06.01-.11.12-.01.21.08.32-.02.09-.08-.1-.16-.15-.2-.04-.03-.07-.08-.11-.12-.33-.3-.46-.25-.83-.41-.13-.06-.36-.17-.45-.28-.08-.09.1-.11.17-.16.03-.02.24-.24.26-.22,0,.02,0,.03,0,.05.13.19.21.37.42.51.32.22.73.2,1.08.06.11-.04.24-.18.31-.21.06-.02.16,0,.23-.01.1-.02.37-.12.47-.17.1-.04.24-.17.12-.27-.12-.1-.34.07-.47.11-.1.03-.28.03-.38,0-.18-.06-.35-.26-.47-.41-.11-.13-.22-.33-.34-.43-.11-.09-.17-.06-.18-.24,0-.06.02-.19.03-.25,0,0,.06-.1.08-.13.07-.12.31-.49.43-.56.02-.01.24-.11.25-.11.26-.04.53.04.8-.02-.15.54.54.85.84.95.08.03.13.03.17,0,0,.13.01.28,0,.38-.07.41-.4,1.01-.67,1.32-.14.16-.3.24-.5.33-.16.08-.32.15-.49.21-.08.03-.23.02-.24.13,0,.09.1.08.16.09.08,0,.21-.02.28-.04.76-.14,1.3-.58,1.68-1.23.04-.06.06-.14.1-.2,0-.01,0-.03.03-.02l.29.18c.13.08.22.14.35.2-.31.15-.51.53-.61.96-.13.58.39,1.06.89,1.08.51.01.91-.46.81-1.04-.04-.25-.1-.48-.18-.67.21.07.41.14.61.23.09.05.18.1.26.15.04,0,.08,0,.13,0,.24.04.44.12.44.28,0,.05-.02.09-.06.12.44.4.64.78.8,1.4.03.13.09.37.1.5,0,.13-.17.06-.25.06-.33.01-.69,0-1.01.01-.12,0-.23.03-.35.04,0-.02,0-.04.02-.06.09-.24.29-.46.35-.71.02-.11.02-.32-.11-.35-.06-.01-.12.05-.15.1-.08.12-.12.27-.21.39-.05.07-.12.12-.16.2-.03.05-.13.28-.14.33,0,.05.05.13.04.13,0,0-.04,0-.06.03,0,.01-.02.11-.01.12.01.02.12.07.15.07.14.03.3,0,.44,0,.46,0,.95-.03,1.41-.05.13,0,.47.07.48-.12,0-.11-.04-.16-.15-.15.02-.05.04-.09.04-.15,0-.14-.02-.41-.04-.55,0-.05-.05-.14-.03-.19,0-.02.05-.02.07-.04.06-.05.2-.25.23-.32,0-.02.06-.19.06-.2.02-.17-.01-.7-.06-.86ZM86.69,9.83s-.16.17-.2.2c-.04.04-.19.15-.24.17-.02,0-.04.01-.06,0-.05-.09,0-.17.03-.26.03-.07.08-.15.13-.21.02-.02.14-.16.15-.17.06-.03.09.08.13.11.06.05.14.01.06.15ZM86.84,9.42c-.11-.19.05-.11.04.03-.04,0-.03,0-.04-.03ZM86.8,9.06c.02-.11-.04-.17.07-.24.11.11.07.2-.07.24ZM87.21,9.4s.08,0,.09,0c.05.05-.08.16-.1.16-.02,0-.07-.15.02-.16ZM87.62,9.54c.15.18.22.37.35.54.09.12.2.22.31.31.02.02.04.05.07.07-.1,0-.18.07-.27.09-.48.13-.73-.06-.97-.45-.02-.03-.05-.04-.07-.08-.02-.05-.01-.18.04-.2.03,0,.06,0,.09,0,.04,0,.1-.01.12-.02.12-.03.19-.13.24-.24.02-.04,0-.1.05-.11,0,.01,0,.03,0,.04,0,.01.04.02.05.04ZM88.01,6.79c-.01.17-.06.32-.1.49-.01.06-.07.43-.08.45-.02.02-.12.02-.16.03l.25-1.43c.09.1.09.32.08.46ZM94.64,12.11s-.08.14-.09.15c-.03.03-.03-.01-.03-.02-.05-.11-.1-.22-.16-.32.03-.04.06-.07.09-.11.04-.06.06-.14.11-.19l.13-.31c0,.05.02.1.03.16.03.21.02.47-.07.65Z"/>
      <path class="st0" d="M93.54,11.41c0,.05-.02.09-.06.12-.08.06-.21.09-.37.12-.24.03-.43-.09-.43-.24,0-.13.13-.26.31-.28.04,0,.08,0,.13,0,.24.04.44.12.44.28Z"/>
    </g>
  </g>
  <g>
    <path class="st0" d="M10.71,33.03c0,1.02-.83,1.84-1.84,1.84s-1.84-.83-1.84-1.84.83-1.84,1.84-1.84,1.84.83,1.84,1.84ZM10.18,33.03c0-.72-.59-1.31-1.31-1.31s-1.31.59-1.31,1.31.59,1.31,1.31,1.31,1.31-.59,1.31-1.31Z"/>
    <path class="st0" d="M17.66,34.92h1.21c1.9,0,2.31,2.97.44,3.48-.38.11-.58.07-.95.06-.2,0-.52.03-.69,0-.04,0-.07-.01-.09-.06l.07-3.49ZM18.19,37.96c.11.03.63,0,.8,0,.07,0,.39-.14.46-.19.72-.44.72-1.71-.02-2.14-.36-.21-.59-.16-.98-.17-.09,0-.22-.1-.24.02-.09.67-.01,1.42-.03,2.1,0,.08-.1.34.02.38Z"/>
    <path class="st0" d="M16.72,34.74s.54.09.54.13l-.83,3.49-.11-.02c-.57-.95-1.1-1.94-1.63-2.91l-.58,2.31s-.49-.06-.53-.11l.82-3.51.11.02,1.65,2.91.56-2.32Z"/>
    <g>
      <path class="st0" d="M30.92,33.6c0,1.02-.83,1.84-1.84,1.84s-1.84-.83-1.84-1.84.83-1.84,1.84-1.84,1.84.83,1.84,1.84ZM30.38,33.6c0-.72-.59-1.31-1.31-1.31s-1.31.59-1.31,1.31.59,1.31,1.31,1.31,1.31-.59,1.31-1.31Z"/>
      <path class="st0" d="M34.31,31.16l-3.44.07,1.79,1.59v.11s-.32.33-.32.33l-2.7-2.41c.05-.07.12-.08.2-.09.63-.07,1.57-.02,2.24-.04.33,0,.67.01,1,0l-1.81-1.61c.22-.24.22-.51.54-.25.84.68,1.61,1.5,2.46,2.17l.03.13Z"/>
    </g>
    <path class="st0" d="M21.96,34.68l2.22,3.25c-.11,0-.47.12-.55.09-.07-.03-.31-.48-.35-.49-.2.01-.4.05-.6.09-.15.02-1.13.18-1.18.21-.06.04-.09.49-.17.57-.05.05-.54.13-.56.11l1.01-3.82h.18ZM22.99,37.09l-.94-1.37-.4,1.59,1.34-.22Z"/>
    <path class="st0" d="M13.54,33.84s.5.2.5.23l-.97,2c-.85,1.55-3.1.58-2.47-1.14l.98-2.02c.06-.04.45.13.47.19.03.1-.8,1.68-.91,1.94-.39,1,.53,1.68,1.31.98.42-.69.74-1.45,1.09-2.19Z"/>
    <g>
      <path class="st0" d="M35.91,19.43l2.37-.04c.01.1.06.47-.04.5l-3.49.1-.03-.1c.76-.79,1.6-1.5,2.35-2.3l-2.33.07c-.1-.03-.06-.4-.04-.5l3.55-.11-.02.13c-.77.76-1.57,1.48-2.32,2.26Z"/>
      <path class="st0" d="M37.54,16.06l-.33-1.55-.9.18.27,1.38c-.1.02-.45.16-.51.07l-.27-1.3s-.95.19-.99.21c-.07.05.32,1.4.31,1.6l-.5.07-.43-2.06,3.38-.76.49,2.01c0,.11-.48.18-.5.16Z"/>
    </g>
    <path class="st0" d="M4.13,23.92s-.1,0-.15,0c-1.21-.27-2.43-.58-3.63-.89l-.02-.12,3.19-2.27c-.01.16.12.41.07.55-.02.06-.38.26-.46.32l.33,1.71c.06.12.5.1.59.21.05.06.11.42.09.51.02,0,.05,0,.07.02l.79,1.93v.08s-3.25,1.3-3.25,1.3c0-.1-.22-.43-.15-.49l2.75-1.11-.61-1.51c0-.12.35-.13.39-.23ZM2.93,23.12l-.27-1.3-1.28.9c0,.05.05.06.09.07.44.15,1.01.19,1.46.33Z"/>
    <path class="st0" d="M6.04,30.51l-1.21.93s-.36-.35-.29-.43l2.75-2.21c.14.24,1.33,1.55,1.33,1.68,0,.05-.31.3-.35.3-.11.02-.87-1.04-1-1.19-.02-.02-.04-.04-.07-.04-.06,0-.64.52-.74.6l.86,1.09c0,.05-.36.34-.41.34l-.86-1.08Z"/>
    <g>
      <path class="st0" d="M34.68,23.41s-.15-.28-.17-.32c-.66-1.6,1.12-3.1,2.59-2.23.93.55,1.18,1.84.47,2.68-.07.08-.31.33-.41.3-.04-.01-.32-.29-.31-.33.62-.45.83-1.22.34-1.87-1.03-1.35-3.04.22-2.01,1.57-.09.07-.41.26-.5.2Z"/>
      <path class="st0" d="M37.5,24.53l-.18.52-1.66.34c-.02.06.02.06.04.09.27.43.68.85.96,1.28.02.05-.18.54-.21.54l-1.41-1.85-1.4-.56c.01-.08.13-.47.2-.48l1.38.52,2.3-.42Z"/>
    </g>
    <path class="st0" d="M24.69,34.49l.97,2.81c.06.14-.48.24-.5.22l-.96-2.79-.04-.03c-.11-.04-.76.29-.93.29-.03,0-.22-.48-.11-.5l2.28-.8c.1,0,.23.44.21.47-.04.07-.79.27-.93.32Z"/>
    <rect class="st0" x="26.47" y="33.19" width=".55" height="3.59" transform="translate(-12.68 15.37) rotate(-26.15)"/>
    <g>
      <g>
        <path class="st0" d="M28.81,5.06l.05,1.7c-.12-.09-.47-.23-.51-.36-.07-.28,0-1.45-.12-1.61-.03-.03-.41-.25-.43-.23l-.66,1.08s-.43-.21-.43-.3l1.87-2.91c.74.46,1.67.82,1.45,1.88-.1.5-.73.89-1.21.76ZM28.71,3.15c-.06.03-.5.88-.61.99.31.27.88.63,1.26.29.32-.3.18-.75-.12-.99-.07-.05-.47-.31-.52-.29Z"/>
        <path class="st0" d="M31.37,4.38s.05,0,.08.01c.02.01.31.28.36.33.39.35.78.72,1.12,1.12-.08.07-.27.34-.37.31-.27-.16-.89-.95-1.11-1.03-.08-.03-.14.07-.2.13-.06.06-.46.49-.45.52l.94.87c.12.1-.26.43-.34.41l-.98-.9-.71.74,1.15,1.09-.34.37-1.54-1.46,2.38-2.52Z"/>
      </g>
      <g>
        <path class="st0" d="M31.21,8.11c.08-.05.39.07.49.1-.03.18-.07.3-.06.49.07.81,1.28,1.28,1.18.26-.06-.58-.57-1.32-.06-1.85.61-.63,1.73,0,1.81.79.01.13,0,.71-.19.7-.05,0-.37-.12-.38-.16-.01-.04.09-.3.07-.46-.08-.61-1.07-.89-1.01-.15.05.65.76,1.72-.2,2.15-1.01.46-2.11-.93-1.64-1.87Z"/>
        <g>
          <path class="st0" d="M33.02,11.69l3.19-1.34c.55,1.02,1.05,2.28-.14,3.08-1.18.79-2.18.29-2.74-.88-.05-.11-.35-.79-.31-.85ZM35.98,11.04l-2.31.94c.28.92.97,1.65,1.98,1.09.85-.47.69-1.29.34-2.03Z"/>
          <rect class="st0" x="32.27" y="9.86" width="3.54" height=".54" transform="translate(-.35 19) rotate(-31.04)"/>
        </g>
      </g>
    </g>
    <g>
      <g>
        <path class="st0" d="M14.48,2.89l.29,1.3-.45.1-.03-.03-.85-3.4c.69-.08,1.28-.5,1.95-.13s.75,1.31.15,1.81l1.27,1.09c-.01.06-.5.16-.59.16l-1.19-.99c-.17-.07-.37.07-.54.09ZM14.34,2.42c.52,0,1.3-.32,1.02-.96-.23-.53-.88-.31-1.31-.19l.29,1.16Z"/>
        <path class="st0" d="M11.04,5.71c-.09-1.06-.01-2.14-.04-3.2,0-.14-.14-.74.09-.74l2.99,2.52s-.45.24-.49.23c-.1,0-.36-.37-.5-.36-.19.11-1.5.65-1.54.75-.05.14.04.48-.02.59-.01.02-.47.23-.49.22ZM11.51,2.75v1.63c.12-.11,1.19-.5,1.19-.56,0-.09-1.06-.93-1.19-1.07Z"/>
      </g>
      <path class="st0" d="M23.09,1.08s-.25.12-.28.13c-.2.06-.13-.03-.2-.16-.33-.57-1.32-.39-1.16.19.06.24.86.59,1.09.79,1.19.98-.19,2.21-1.43,1.61-.22-.11-.71-.53-.66-.79,0-.02.37-.2.39-.2.06,0,.22.31.32.39.28.24.93.34,1.19.03.46-.53-.72-.97-1.03-1.21-1.19-.93.3-2.23,1.4-1.43.14.1.47.48.37.65Z"/>
      <path class="st0" d="M26.35,1.33s-.12.5-.17.5c-.15-.02-.85-.33-.92-.27l-.9,2.81s-.46-.1-.49-.14c-.09-.12.84-2.5.89-2.84l-.9-.31c-.04-.05.1-.41.14-.49l2.35.75Z"/>
      <path class="st0" d="M18.85,0c.07.16.03.34.04.5l-.94.07.22,3-.51.04-.25-3c-.32.03-.65.09-.97.07-.05-.16-.04-.33-.04-.5l2.46-.18Z"/>
      <rect class="st0" x="18.04" y="1.51" width="3.53" height=".56" transform="translate(17.35 21.52) rotate(-88.07)"/>
    </g>
    <circle class="st0" cx="4.34" cy="28.25" r=".69"/>
    <circle class="st0" cx="34.31" cy="28.25" r=".69"/>
    <g>
      <path class="st0" d="M32.71,18.85c0,7.47-6.06,13.53-13.53,13.53s-13.53-6.06-13.53-13.53,6.06-13.53,13.53-13.53,13.53,6.06,13.53,13.53ZM31.57,18.85c0-6.85-5.55-12.4-12.4-12.4s-12.4,5.55-12.4,12.4,5.55,12.4,12.4,12.4,12.4-5.55,12.4-12.4Z"/>
      <path class="st0" d="M18.99,10.03c.21-.06.69-.04.79.21l6.73,14.84c.23.52-.03.73-.54.76h-13.58c-.73-.15-.4-.66-.2-1.11,2.06-4.81,4.41-9.49,6.48-14.3.04-.11.22-.37.32-.4ZM19.32,13.28l-.14.02-2.24,5.06v.05s2.3,1.23,2.3,1.23c.77-.35,1.48-.84,2.24-1.24l.09-.09-2.24-5.04ZM22.3,19.9c-.07,0-.11.04-.17.07-.79.41-1.65,1.05-2.44,1.4-.26.12-.52.13-.79.03l-2.58-1.44-.11-.02-1.92,4.34,9.92-.04-1.92-4.34Z"/>
    </g>
    <g>
      <path class="st0" d="M1.74,12.48l-.45,1.56.86.27c.08-.06.33-1.08.42-1.28.02-.05-.02-.05.06-.04.03,0,.38.12.4.13.03.02.02.03.02.06.01.2-.43,1.23-.39,1.29l.95.32.51-1.48c.07-.09.37.09.49.07l-.61,2.06-3.35-1.08.6-1.99c.18-.03.33.1.5.11Z"/>
      <path class="st0" d="M2.53,16.8c1.17-.11,1.42,1.66.62,2.33-.37.31-.4.18-.61-.19.09-.13.26-.18.37-.34.5-.71-.16-1.85-.75-.93-.27.41-.45,1.24-1.03,1.32-.95.13-1.37-.89-1.01-1.66.08-.18.44-.56.64-.5.07.02.25.35.23.39-.03.04-.18.08-.24.13-.46.37-.18,1.33.35,1.11.45-.2.5-1.57,1.42-1.66Z"/>
      <rect class="st0" x="1.82" y="14.17" width=".54" height="3.54" transform="translate(-13.95 14.99) rotate(-79.18)"/>
      <g>
        <path class="st0" d="M4.27,10.93l1.7-.25s-.23.53-.29.56l-1.54.24c-.1,0-.3.46-.27.5l1.12.55s-.18.47-.2.47c-.18.04-2.73-1.44-3.13-1.58-.01-.07.54-1.1.64-1.21.69-.82,2.06-.4,1.97.72ZM3.03,10.32c-.38.08-.51.56-.67.84l1.06.56s.31-.51.32-.58c.12-.5-.17-.93-.71-.82Z"/>
        <path class="st0" d="M5.4,9.4l1.01.73s-.28.44-.34.43l-2.68-2.06s-.06-.07-.05-.12.57-.75.65-.84c.84-.9,2.23-.36,1.99.89l1.56.04-1.11-3.6.06-.07,3.58,1.56c.01.06-.33.36-.39.37-.06.01-.5-.26-.56-.23-.38.36-.81.67-1.18,1.03-.04.04-.12.1-.12.16,0,.11.2.46.16.56-.01.04-.23.18-.29.25-.07.08-.29.43-.34.45-.09.04-.9.02-1.07.02s-.4-.08-.57-.03c-.06.02-.34.4-.31.46ZM8.65,6.26l-1.48-.65.47,1.56,1.01-.9ZM4.88,7.6c-.39.02-.63.44-.82.73.12.09.85.71.92.71s.41-.45.45-.53c.2-.42-.05-.94-.55-.91Z"/>
      </g>
    </g>
  </g>
  <g>
    <g>
      <path class="st0" d="M308.56,14.73c-.23,0-.42.19-.4.42.01.19.03.37.05.56.02.2.2.35.4.35h10.87c.16,0,.32-.04.46-.11.95-.49,1.95-.9,2.98-1.21h-14.37Z"/>
      <path class="st0" d="M308.94,16.81c-.27,0-.46.26-.38.52.05.18.11.36.17.54.06.16.21.26.38.26h7.32c.15,0,.3-.05.42-.15.51-.42,1.05-.81,1.6-1.17h-9.5Z"/>
      <path class="st0" d="M309.8,18.88c-.3,0-.5.33-.35.59.09.15.18.31.27.46.1.16.28.27.48.27h4.08c.17,0,.34-.08.46-.21.34-.39.7-.76,1.07-1.11h-6.01Z"/>
      <path class="st0" d="M311.04,21.62c.37.38.77.74,1.21,1.07.19.14.45.08.58-.12.21-.34.43-.67.65-1,.19-.26,0-.62-.33-.62h-1.82c-.35,0-.54.42-.29.67"/>
      <path class="st0" d="M319.85,24.74c.1-.01.2-.02.3-.03,2.39-.36,4.59-1.56,6.2-3.37.08-.09.15-.18.23-.27-2.62.37-5,1.67-6.73,3.68"/>
      <path class="st0" d="M327.45,18.91c-3.93.21-7.59,2.22-9.88,5.41-.14.19-.01.45.22.47.05,0,.09,0,.14,0,.19.01.39.02.59.02.15,0,.29-.07.38-.19,2-2.55,4.93-4.15,8.15-4.44.12-.01.23-.07.3-.18.11-.17.21-.33.31-.5l.08-.14c.12-.21-.04-.48-.29-.47"/>
      <path class="st0" d="M328.19,16.82s-.05,0-.08,0c-5.22,0-10.04,2.7-12.78,7.11-.1.16-.02.38.17.44.24.07.48.14.72.19.12.03.24-.03.31-.13,2.52-3.92,6.91-6.33,11.58-6.33h0c.12,0,.23-.07.27-.19.01-.03.02-.07.04-.1.05-.16.1-.31.15-.47.07-.26-.11-.51-.38-.52"/>
      <path class="st0" d="M328.12,14.76c-6.01,0-11.55,3.15-14.64,8.27-.12.19-.05.45.15.55.15.08.29.15.44.23.18.09.4.01.51-.16,2.87-4.72,7.99-7.62,13.54-7.62.13,0,.26,0,.39,0,.2,0,.39-.14.41-.34.02-.17.04-.33.05-.5.02-.22-.16-.42-.38-.42-.16,0-.31,0-.47,0"/>
      <path class="st0" d="M318.56,11.84c1.26,0,2.31.92,2.51,2.13h7.4c.28,0,.5-.25.48-.53-.48-5.31-4.96-9.48-10.39-9.48s-9.91,4.18-10.39,9.48c-.03.28.19.53.48.53h7.4c.2-1.21,1.24-2.13,2.51-2.13M310.11,12.08c-.05-.01-.09-.07-.08-.13.39-1.7,1.33-3.28,2.64-4.44.78-.7,1.69-1.26,2.73-1.67.99-.38,2.06-.58,3.16-.58,1.1,0,2.16.2,3.16.58,1.04.4,1.96.96,2.73,1.67,1.32,1.17,2.26,2.75,2.64,4.45.02.07-.03.12-.08.13-.01,0-.02,0-.03,0-.05,0-.09-.03-.1-.07-.56-1.61-1.54-3.01-2.83-4.05-1.55-1.26-3.48-1.95-5.45-1.95h-.07c-1.97,0-3.91.69-5.45,1.96-1.29,1.04-2.26,2.44-2.82,4.04-.02.06-.08.09-.13.07M312.45,11.96s-.06.06-.1.06c-.01,0-.03,0-.04,0-.05-.02-.08-.08-.06-.14.36-1.17,1.1-2.25,2.08-3.05.56-.47,1.23-.84,1.99-1.12.71-.25,1.47-.38,2.26-.39.79,0,1.55.14,2.26.39.75.27,1.42.65,1.99,1.12.97.79,1.71,1.87,2.08,3.04.02.06,0,.11-.06.14-.06.02-.11,0-.14-.05-.53-1.06-1.3-1.97-2.24-2.64-1.13-.8-2.49-1.24-3.84-1.24h-.06c-1.35,0-2.72.44-3.84,1.24-.94.66-1.71,1.58-2.24,2.64M314.74,12.01s-.1.05-.14.02c-.05-.03-.07-.09-.04-.14.3-.66.8-1.26,1.42-1.68.34-.24.75-.45,1.23-.6.42-.13.88-.2,1.36-.21h.02c.92,0,1.83.29,2.57.81.62.43,1.13,1.03,1.42,1.69.02.05,0,.11-.04.14-.02.01-.04.02-.06.02-.03,0-.06-.01-.09-.04-.45-.54-.98-.97-1.56-1.29-.69-.37-1.47-.57-2.27-.57h-.03c-.76,0-1.53.2-2.24.57-.58.31-1.11.74-1.56,1.28"/>
    </g>
    <path class="st0" d="M306.97,20.9l-.41-.76.23-.12.57,1.05-1.2.65-.55-1.02.23-.12.39.73.25-.14-.31-.57.21-.12.31.57.27-.15Z"/>
    <path class="st0" d="M305.77,18.71c.15-.06.19-.2.12-.41-.02-.08-.06-.15-.1-.2-.04-.05-.08-.07-.12-.05-.03,0-.05.03-.06.07s-.01.09-.01.17v.39c.02.23-.06.38-.24.43-.09.03-.17.02-.24-.01-.08-.03-.14-.09-.19-.16-.05-.07-.09-.16-.12-.26-.05-.17-.06-.32-.02-.45s.12-.22.25-.28l.11.3c-.05.02-.09.07-.11.13-.02.06-.02.14.01.24.02.07.05.12.08.16.03.03.07.04.1.03.03,0,.05-.03.06-.06.01-.03.02-.08.02-.14v-.37c-.02-.13,0-.24.03-.31.04-.08.1-.13.2-.16.13-.04.25-.02.35.07.1.09.18.23.24.42.06.2.07.37.03.5-.04.13-.14.23-.29.28l-.1-.3Z"/>
    <path class="st0" d="M304.99,16.46c-.21.02-.39-.03-.53-.14-.14-.11-.22-.29-.24-.51-.02-.19,0-.35.08-.47.07-.13.18-.21.32-.25l.05.32c-.07.02-.12.07-.15.14s-.05.15-.04.24c.01.13.06.22.15.28.09.06.19.08.32.07.13-.01.23-.06.3-.14.07-.08.1-.19.09-.32,0-.1-.04-.18-.09-.23-.05-.06-.11-.09-.19-.1v-.32c.15,0,.28.06.37.17s.16.26.18.46c.02.24-.02.42-.13.57-.11.14-.28.23-.49.25Z"/>
    <path class="st0" d="M305.32,13.3l.08-.86.26.03-.12,1.19-1.35-.13.11-1.16.26.03-.08.83.28.03.06-.65.24.02-.06.65.31.03Z"/>
    <path class="st0" d="M304.94,9.74l.1-.3,1.3.41-.17.54-1.25.13,1.1.35-.09.3-1.3-.41.17-.54,1.25-.13-1.1-.35Z"/>
    <path class="st0" d="M307.42,7.62l-.3-.05-.32.57.2.23-.16.29-.93-1.12.25-.44,1.44.22-.17.3ZM306.62,7.93l.23-.41-.69-.12.45.53Z"/>
    <path class="st0" d="M308.96,5.58l-.64-.03-.14.16.38.33-.22.25-1.02-.89.5-.58c.1-.11.21-.18.33-.21.12-.03.24,0,.35.1.18.15.2.34.06.55h.68s-.27.31-.27.31ZM307.73,5.32l.25.22.27-.3c.04-.05.07-.1.07-.15,0-.05-.01-.09-.06-.13-.04-.04-.09-.05-.13-.04s-.09.04-.14.09l-.27.3Z"/>
    <path class="st0" d="M310.2,4.4l-.86-1.05.26-.21.86,1.05-.26.21Z"/>
    <path class="st0" d="M311.64,3.14c-.18-.04-.32-.16-.43-.35-.11-.19-.13-.37-.08-.55s.19-.32.4-.44c.21-.12.4-.15.58-.11.18.04.32.16.43.35.11.19.13.37.08.55s-.19.32-.4.44c-.21.12-.4.15-.58.11ZM311.45,2.3c-.03.11,0,.21.06.33s.15.19.25.22c.1.03.21.02.33-.05.12-.07.19-.15.22-.26s0-.21-.05-.33-.15-.19-.25-.22-.21-.02-.33.05-.19.15-.22.26Z"/>
    <path class="st0" d="M316.2.83l.68-.12.11.62c-.2.12-.4.21-.61.24-.25.04-.45.01-.61-.09s-.25-.26-.29-.47c-.04-.21,0-.39.1-.54.1-.15.27-.24.49-.28.18-.03.33-.02.46.04.13.06.22.15.27.28l-.31.08c-.03-.05-.08-.09-.15-.12-.07-.02-.14-.03-.23-.01-.13.02-.22.08-.27.17-.05.09-.07.2-.04.32.02.13.08.23.17.29.09.06.21.08.36.06.11-.02.22-.06.32-.11l-.04-.21-.39.07-.04-.22Z"/>
    <path class="st0" d="M319.41,1.38l-.1-.29-.65-.02-.11.29h-.33s.56-1.35.56-1.35l.5.02.47,1.37h-.34ZM318.76.82l.47.02-.21-.66-.26.65Z"/>
    <path class="st0" d="M321.34,1.17c-.02.16.08.26.3.31.08.02.15.02.22.02.06,0,.1-.03.11-.08,0-.03,0-.06-.03-.09-.03-.03-.07-.06-.14-.1l-.34-.19c-.21-.11-.29-.26-.24-.44.02-.09.07-.16.13-.2.07-.05.15-.07.23-.08.09,0,.18,0,.29.03.17.04.3.11.4.21.09.1.13.22.11.36l-.31-.06c0-.06-.01-.11-.05-.16-.04-.05-.11-.09-.21-.11-.07-.02-.13-.02-.18,0-.05.01-.07.04-.08.07,0,.03,0,.06.02.09.02.03.06.06.12.09l.33.18c.12.06.2.13.25.2s.06.16.04.26c-.03.14-.11.22-.24.27s-.29.04-.48,0c-.21-.05-.35-.13-.44-.23-.09-.11-.12-.24-.1-.39l.31.06Z"/>
    <path class="st0" d="M325.09,1.55l-.11.25-.44-.2-.45.99-.3-.14.45-.99-.44-.2.11-.25,1.19.54Z"/>
    <path class="st0" d="M326.43,4l-.03-.64-.18-.13-.29.41-.27-.19.79-1.1.62.45c.12.09.2.19.24.31.04.12.02.23-.07.35-.14.19-.32.23-.54.11l.06.68-.33-.24ZM326.57,2.75l-.2.27.33.24c.06.04.11.06.16.06.05,0,.09-.02.12-.07.03-.04.04-.09.03-.14-.01-.05-.05-.09-.11-.13l-.33-.24Z"/>
    <path class="st0" d="M327.93,5.08c0-.18.08-.35.25-.49.16-.15.33-.21.51-.2.18.01.35.11.52.29s.24.36.24.54c0,.18-.08.35-.25.5-.16.15-.33.21-.52.2-.18-.01-.35-.11-.52-.29s-.24-.36-.24-.54ZM328.7,4.7c-.11,0-.21.04-.31.13-.1.09-.15.19-.16.29s.03.21.12.31c.09.1.19.15.3.15.11,0,.21-.04.31-.13.1-.09.15-.19.15-.29s-.03-.21-.12-.31c-.09-.1-.19-.15-.3-.15Z"/>
    <path class="st0" d="M331.19,7.47l.16.27-1.17.68-.28-.49.75-1.01-1,.58-.16-.28,1.17-.68.28.48-.75,1.01,1-.58Z"/>
    <path class="st0" d="M330.95,9.79c.08-.16.22-.28.43-.35.21-.07.39-.06.55.03.16.09.28.25.35.48.07.23.07.43,0,.59-.08.17-.22.28-.43.35-.21.07-.39.06-.55-.03s-.28-.25-.35-.48c-.07-.23-.07-.43,0-.59ZM331.81,9.77c-.1-.05-.21-.05-.33,0-.12.04-.21.11-.26.2s-.06.21-.02.33c.04.13.11.22.21.26.1.05.21.05.33.01.12-.04.21-.11.26-.2.05-.1.06-.21.02-.34s-.11-.22-.21-.26ZM332.32,9.77l.29.11.1.3-.31-.18-.08-.23Z"/>
    <path class="st0" d="M332.93,13.5l.05.58-1.35.11-.03-.32,1.17-.1-1.2-.25-.04-.45,1.14-.44-1.16.1-.03-.32,1.35-.11.05.58-1.13.41,1.19.21Z"/>
    <path class="st0" d="M331.54,15.6l1.35.14-.03.33-1.35-.14.03-.33Z"/>
    <path class="st0" d="M331.95,17.44c.21.06.36.17.44.32.09.16.1.35.04.57-.05.18-.13.32-.25.41-.11.09-.24.13-.39.11l.06-.31c.07,0,.13-.02.19-.07.06-.05.1-.12.12-.21.04-.12.02-.23-.04-.31-.06-.09-.15-.15-.27-.18-.12-.04-.23-.03-.33.02-.1.05-.16.14-.2.26-.03.09-.03.18,0,.25.03.07.07.13.14.16l-.11.3c-.15-.07-.25-.17-.3-.3-.05-.13-.05-.3,0-.49.06-.23.17-.39.33-.48s.34-.11.55-.05Z"/>
    <path class="st0" d="M330.5,20.04c.17-.06.36-.04.55.06s.31.24.36.42c.05.18.02.37-.1.58-.11.21-.25.35-.43.41-.17.06-.36.04-.55-.06-.19-.1-.31-.24-.36-.42-.05-.18-.02-.37.1-.58.11-.21.25-.35.43-.41ZM331.12,20.65c-.04-.1-.11-.18-.22-.24-.11-.06-.22-.08-.33-.05-.1.03-.19.1-.25.22-.06.12-.08.23-.04.33s.11.19.22.25c.11.06.22.08.33.05.1-.03.19-.1.25-.22.06-.12.08-.23.04-.33Z"/>
    <path class="st0" d="M308.76,31.18c-.19.06-.42.09-.68.09-.72,0-1.11-.25-1.17-.76l-1.25.04c.07,1.15.87,1.73,2.41,1.73.71,0,1.28-.12,1.69-.37.42-.25.62-.63.62-1.13,0-.37-.11-.65-.34-.86-.23-.2-.57-.37-1.01-.49l-1.29-.35c-.19-.05-.32-.1-.41-.16-.09-.06-.13-.13-.13-.21,0-.1.06-.18.19-.24.12-.06.3-.09.52-.09.34,0,.59.06.75.18.16.12.26.27.29.46l1.26-.06c-.05-.51-.28-.9-.69-1.18-.42-.28-.94-.42-1.57-.42-.38,0-.72.05-1.03.14-.3.09-.55.25-.75.47-.2.22-.3.5-.3.83,0,.65.39,1.09,1.19,1.31l1.36.37c.24.07.4.13.5.19.1.06.15.13.15.23,0,.13-.1.23-.29.29"/>
    <polygon class="st0" points="320.87 31.16 317.88 31.16 317.88 30.27 320.12 30.27 320.12 29.29 317.88 29.29 317.88 28.48 320.76 28.48 320.76 27.44 316.54 27.44 316.54 32.2 320.87 32.2 320.87 31.16"/>
    <path class="st0" d="M322.4,32.2h1.38c.27-1.33.94-2.62,2.02-3.88v-.89h-4.26v1.06h2.92c-1.09,1.2-1.77,2.44-2.06,3.71"/>
    <polygon class="st0" points="331.04 31.16 328.05 31.16 328.05 30.27 330.29 30.27 330.29 29.29 328.05 29.29 328.05 28.48 330.93 28.48 330.93 27.44 326.7 27.44 326.7 32.2 331.04 32.2 331.04 31.16"/>
    <polygon class="st0" points="307.29 37.6 306.4 33.66 304.06 33.66 304.06 38.43 305.34 38.43 305.34 34.46 306.37 38.43 308.18 38.43 309.21 34.46 309.21 38.43 310.49 38.43 310.49 33.66 308.17 33.66 307.29 37.6"/>
    <path class="st0" d="M313.03,33.66l-1.74,4.77h1.31l.33-.95h2.17l.33.95h1.36l-1.75-4.77h-2.01ZM313.28,36.46l.74-2.15.74,2.15h-1.48Z"/>
    <path class="st0" d="M322.26,35.23c0-.53-.18-.93-.54-1.18-.36-.26-.82-.38-1.37-.38h-2.76v4.77h1.34v-1.71h.61l1.32,1.71h1.63l-1.51-1.76c.84-.15,1.27-.64,1.27-1.44M320.23,35.72h-1.3v-.99h1.3c.45,0,.68.17.68.5s-.23.49-.68.49"/>
    <polygon class="st0" points="324.68 36.49 326.92 36.49 326.92 35.51 324.68 35.51 324.68 34.7 327.56 34.7 327.56 33.66 323.34 33.66 323.34 38.43 327.67 38.43 327.67 37.38 324.68 37.38 324.68 36.49"/>
    <path class="st0" d="M332.73,36.14c-.23-.2-.57-.37-1.02-.49l-1.29-.35c-.19-.05-.32-.1-.41-.16-.09-.06-.13-.13-.13-.21,0-.1.06-.18.19-.24.12-.06.3-.09.52-.09.34,0,.59.06.75.18.16.12.26.27.29.46l1.26-.06c-.05-.51-.28-.9-.69-1.18-.42-.28-.94-.42-1.57-.42-.38,0-.72.05-1.03.14-.3.09-.55.25-.75.47-.2.22-.3.5-.3.83,0,.65.4,1.09,1.19,1.31l1.36.37c.24.07.4.13.5.19.1.06.15.13.15.23,0,.13-.1.23-.29.29-.19.06-.42.09-.68.09-.72,0-1.11-.25-1.17-.76l-1.25.04c.07,1.15.87,1.73,2.41,1.73.71,0,1.28-.12,1.69-.37.42-.25.62-.63.62-1.13,0-.37-.11-.65-.34-.86"/>
    <polygon class="st0" points="315.65 31.11 313.97 31.11 313.97 28.53 315.65 28.53 315.65 27.44 310.94 27.44 310.94 28.53 312.63 28.53 312.63 31.11 310.94 31.11 310.94 32.2 315.65 32.2 315.65 31.11"/>
  </g>
  <g>
    <path class="st0" d="M282.39,18.1c-.34-.49-.78-.89-1.25-1.27-.9-.73-2.04-1.03-2.98-1.72-2.85-2.12-5.66-4.29-8.74-6.09-2.25-1.32-4.55-2.52-7.19-2.84-1.97-.24-3.94-.36-5.92-.36-1.15,0-2.29.04-3.44.12-.74.05-1.47.12-2.39.19,0,0-16.77,3.67-24.84,7.93-.02,0-.03.02-.05.03-2.57,1.22-2.25,2.48-2.25,2.48.17.38-.05.6-.23.86-.27.38-.51.78-.69,1.22-.18.45-.2.86.15,1.25.27.3.3.69.3,1.08,0,.35.05.72.37.9.48.27.63.7.77,1.18.09.32.26.63.43.92.82,1.43,2.04,2.44,3.43,3.26,2.09,1.22,4.35,2.05,6.63,2.82,4.85,1.63,9.82,2.61,14.95,2.65.07,0,.13,0,.2,0,3.08,0,6.07-.52,9.04-1.37,3.11-.89,6.17-1.92,9.19-3.06,3.88-1.46,7.6-3.31,11.42-4.92.8-.34,1.6-.7,2.32-1.2,1.49-1.02,1.78-2.55.75-4.03ZM282.06,20.12c-.11.58-.57,1-.94,1.26-.63.43-1.32.75-2.16,1.11-1.49.62-2.98,1.29-4.42,1.94-2.27,1.02-4.62,2.07-6.97,2.96-3.19,1.2-6.17,2.2-9.12,3.04-3.15.9-6.02,1.34-8.78,1.34h-.19c-4.77-.04-9.57-.89-14.67-2.6-2.5-.84-4.55-1.63-6.46-2.74-1.46-.85-2.44-1.78-3.1-2.92-.14-.24-.28-.49-.34-.71-.16-.58-.39-1.23-1.1-1.68,0-.03,0-.08,0-.15,0-.33,0-1.09-.53-1.7-.05-.05-.07-.08.02-.28.13-.32.32-.65.6-1.04.02-.02.04-.05.05-.07.18-.24.57-.77.34-1.5.04-.23.4-.83,1.73-1.46.03-.01.05-.03.09-.05,7.63-4.03,23.44-7.58,24.54-7.83.28-.02.54-.04.79-.06.55-.05,1.03-.08,1.52-.12,1.13-.08,2.26-.12,3.38-.12,1.95,0,3.9.12,5.81.35,2.54.31,4.77,1.52,6.83,2.72,2.63,1.54,5.13,3.41,7.55,5.21.37.28.74.55,1.11.83.51.38,1.05.64,1.56.89.51.25.99.48,1.38.8.38.31.78.66,1.07,1.08.25.36.53.92.42,1.49Z"/>
    <path class="st0" d="M237.52,14.72c-.07,0-.14.02-.21.07-.07.05-.11.12-.13.22-.22,1.59-.57,3.15-1.03,4.68l-.3,1-.19-.6c-.74-2.33-1.12-3.84-1.12-4.52,0-.26.08-.45.25-.57-.42-.38-.85-.57-1.3-.57s-.74.14-.88.43c-.11.22-.17.51-.17.89,0,.41.1,1.02.3,1.83.02.1.04.2.04.3,0,.47-.25,1.4-.75,2.81l-.19-.6c-.74-2.33-1.12-3.84-1.12-4.52,0-.26.08-.45.25-.57-.42-.38-.85-.57-1.3-.57s-.74.14-.88.43c-.11.22-.17.51-.17.89,0,.83.41,2.47,1.22,4.91.19.58.33.96.43,1.17.16.31.36.53.61.65.25.12.47.18.67.18.39,0,.65-.15.78-.46.33-.76.65-1.65.95-2.68.39,1.24.65,2,.8,2.3.16.31.36.53.61.65.25.12.47.18.67.18.39,0,.65-.15.78-.45.1-.22.18-.42.24-.59.58-1.52.96-2.83,1.17-3.93.22-1.21.33-2.08.33-2.6,0-.07-.02-.14-.07-.2-.07-.11-.18-.17-.32-.17Z"/>
    <path class="st0" d="M244.02,20.07c-.05-.02-.11-.04-.17-.04-.16,0-.27.07-.32.21-.38,1.01-.9,1.52-1.55,1.52s-1.04-.33-1.24-1c-.08-.25-.13-.57-.16-.96.51-.05.97-.21,1.38-.47.41-.27.75-.6,1.01-.99.27-.39.44-.75.51-1.08.07-.32.11-.59.11-.79,0-.66-.24-1.17-.72-1.52-.33-.24-.79-.36-1.39-.36-1.04,0-1.84.5-2.39,1.5-.43.77-.65,1.68-.65,2.73,0,.85.16,1.62.47,2.33.22.49.55.88.99,1.18.44.3.94.45,1.5.45,1.34,0,2.28-.74,2.81-2.23.02-.05.03-.11.03-.17,0-.15-.07-.26-.22-.33ZM240.76,17.53c.26-1.19.66-1.78,1.22-1.78.37,0,.55.24.55.73,0,.37-.11.77-.33,1.2-.16.31-.38.59-.66.83s-.6.41-.97.51c.01-.46.08-.95.2-1.49Z"/>
    <path class="st0" d="M248.46,21.93c0-.07-.03-.14-.08-.21-.06-.07-.13-.11-.22-.11-.02,0-.07.01-.15.04-.07.03-.14.04-.2.04-.33,0-.58-.23-.74-.68-.11-.28-.17-.58-.18-.9-.02-.32-.03-.57-.03-.76,0-2.99.1-4.93.3-5.84.1-.45.25-.75.46-.89-.16-.26-.37-.48-.63-.66-.25-.18-.53-.27-.84-.27-.52,0-.88.49-1.08,1.47-.13.62-.2,1.34-.21,2.15-.01.72-.02,1.82-.02,3.33,0,1.42.21,2.46.62,3.13.38.61.91.91,1.57.91.46,0,.82-.07,1.06-.2.24-.14.37-.31.37-.53Z"/>
    <path class="st0" d="M252.12,22.46c.24-.14.37-.31.37-.53,0-.07-.03-.14-.08-.21-.06-.07-.13-.11-.22-.11-.02,0-.07.01-.15.04-.07.03-.14.04-.2.04-.33,0-.58-.23-.74-.68-.11-.28-.17-.58-.18-.9-.02-.32-.03-.57-.03-.76,0-2.99.1-4.93.3-5.84.1-.45.25-.75.46-.89-.16-.26-.37-.48-.63-.66-.25-.18-.53-.27-.84-.27-.52,0-.88.49-1.08,1.47-.13.62-.2,1.34-.21,2.15-.01.72-.02,1.82-.02,3.33,0,1.42.21,2.46.62,3.13.38.61.91.91,1.57.91.46,0,.82-.07,1.06-.2Z"/>
    <path class="st0" d="M255.1,21.72v-1.46c0-1.77.27-2.98.81-3.63.16-.19.31-.29.46-.29.32,0,.49.32.49.96,0,.49,0,.9-.01,1.21,0,.31-.01.76-.01,1.35,0,.63.05,1.2.16,1.7.15.73.51,1.09,1.05,1.09.45,0,.67-.28.67-.85,0-.15,0-.36-.02-.64-.01-.28-.02-.53-.02-.76,0-.46.01-.9.04-1.3.02-.31.03-.62.03-.93,0-.68-.06-1.23-.17-1.64-.21-.76-.72-1.15-1.55-1.15-.97,0-1.63.48-1.99,1.44,0-.73.12-1.2.37-1.42-.14-.17-.3-.32-.49-.45-.26-.17-.54-.25-.84-.25-.42,0-.72.24-.91.73-.14.35-.23.81-.25,1.37-.01.32-.02.67-.02,1.04,0,.69.03,1.53.09,2.55.03.57.07.95.12,1.16.08.32.24.58.5.79.25.21.53.31.83.31.45,0,.68-.31.68-.94Z"/>
    <path class="st0" d="M261.1,22.34c.44.3.94.45,1.5.45,1.34,0,2.28-.74,2.81-2.23.02-.05.03-.11.03-.17,0-.15-.07-.26-.22-.33-.05-.02-.11-.04-.17-.04-.16,0-.27.07-.32.21-.38,1.01-.9,1.52-1.55,1.52s-1.04-.33-1.24-1c-.08-.25-.13-.57-.16-.96.51-.05.97-.21,1.38-.47.41-.27.75-.6,1.01-.99.27-.39.44-.75.51-1.08.07-.32.11-.59.11-.79,0-.66-.24-1.17-.72-1.52-.33-.24-.79-.36-1.39-.36-1.04,0-1.84.5-2.39,1.5-.43.77-.65,1.68-.65,2.73,0,.85.16,1.62.47,2.33.22.49.55.88.99,1.18ZM261.96,17.53c.26-1.19.66-1.78,1.22-1.78.37,0,.55.24.55.73,0,.37-.11.77-.33,1.2-.16.31-.38.59-.66.83-.28.24-.6.41-.97.51.01-.46.08-.95.2-1.49Z"/>
    <path class="st0" d="M268.45,18.03c-.41-.26-.69-.47-.83-.62-.17-.17-.25-.37-.25-.6,0-.28.11-.55.33-.8.22-.25.49-.38.79-.38.32,0,.59.12.79.37.2.25.3.51.3.79.17-.02.32-.13.45-.32.09-.13.13-.26.13-.39,0-.38-.21-.71-.62-1.01-.33-.23-.74-.34-1.24-.34-.76,0-1.4.22-1.92.65-.54.45-.81,1.02-.81,1.69,0,.47.19.91.57,1.32.28.3.62.6,1.05.92.42.32.7.56.83.71.13.15.2.35.2.59,0,.34-.14.61-.43.79-.27.17-.59.26-.98.26-.24,0-.46-.06-.67-.17-.08-.05-.15-.07-.22-.07-.14,0-.24.06-.32.19-.04.06-.06.13-.06.2,0,.14.06.24.18.31.59.36,1.22.54,1.88.54.47,0,.9-.11,1.29-.32.39-.21.7-.5.93-.84.23-.35.35-.72.35-1.11,0-.61-.22-1.13-.67-1.55-.29-.28-.65-.54-1.06-.8Z"/>
    <path class="st0" d="M273.47,18.03c-.41-.26-.69-.47-.83-.62-.17-.17-.25-.37-.25-.6,0-.28.11-.55.33-.8.22-.25.49-.38.79-.38.32,0,.59.12.79.37.2.25.3.51.3.79.17-.02.32-.13.45-.32.09-.13.13-.26.13-.39,0-.38-.21-.71-.62-1.01-.33-.23-.74-.34-1.24-.34-.76,0-1.4.22-1.92.65-.54.45-.81,1.02-.81,1.69,0,.47.19.91.57,1.32.28.3.62.6,1.05.92.42.32.7.56.83.71.13.15.2.35.2.59,0,.34-.14.61-.43.79-.27.17-.59.26-.98.26-.24,0-.46-.06-.67-.17-.08-.05-.15-.07-.22-.07-.14,0-.24.06-.32.19-.04.06-.06.13-.06.2,0,.14.06.24.18.31.59.36,1.22.54,1.88.54.47,0,.9-.11,1.29-.32.39-.21.7-.5.93-.84.23-.35.35-.72.35-1.11,0-.61-.22-1.13-.67-1.55-.29-.28-.65-.54-1.06-.8Z"/>
    <path class="st0" d="M239.15,24.98c.1-.06.22-.09.35-.09.11,0,.2.02.29.06.09.04.16.1.22.19l.12-.09c-.07-.1-.16-.18-.27-.23-.11-.05-.23-.08-.37-.08-.16,0-.31.04-.44.11-.13.07-.23.17-.3.3-.07.13-.11.28-.11.44s.04.31.11.44c.07.13.17.23.3.3.13.07.27.11.44.11.13,0,.26-.03.37-.08.11-.05.2-.13.27-.23l-.12-.09c-.06.08-.13.15-.22.19-.09.04-.19.06-.29.06-.13,0-.25-.03-.35-.09-.1-.06-.18-.14-.24-.25-.06-.11-.09-.23-.09-.37s.03-.26.09-.37c.06-.11.14-.19.24-.25Z"/>
    <path class="st0" d="M241.68,24.85c-.13-.07-.27-.11-.43-.11s-.3.04-.43.11c-.13.07-.23.17-.3.3-.07.13-.11.28-.11.44s.04.31.11.44c.07.13.17.23.3.3.13.07.27.11.43.11s.3-.04.43-.11c.13-.07.23-.17.3-.3.07-.13.11-.28.11-.44s-.04-.31-.11-.44c-.07-.13-.17-.23-.3-.3ZM241.83,25.96c-.06.11-.14.19-.24.25s-.22.09-.35.09-.24-.03-.34-.09c-.1-.06-.18-.14-.24-.25-.06-.11-.09-.23-.09-.37s.03-.26.09-.37c.06-.11.14-.19.24-.25.1-.06.22-.09.34-.09s.24.03.35.09c.1.06.18.14.24.25.06.11.09.23.09.37s-.03.26-.09.37Z"/>
    <path class="st0" d="M242.89,24.98c.1-.06.22-.09.35-.09.11,0,.2.02.29.06.09.04.16.1.22.19l.12-.09c-.07-.1-.16-.18-.27-.23-.11-.05-.23-.08-.37-.08-.16,0-.31.04-.44.11-.13.07-.23.17-.3.3-.07.13-.11.28-.11.44s.04.31.11.44c.07.13.17.23.3.3.13.07.27.11.44.11.13,0,.26-.03.37-.08.11-.05.2-.13.27-.23l-.12-.09c-.06.08-.13.15-.22.19-.09.04-.19.06-.29.06-.13,0-.25-.03-.35-.09-.1-.06-.18-.14-.24-.25-.06-.11-.09-.23-.09-.37s.03-.26.09-.37c.06-.11.14-.19.24-.25Z"/>
    <path class="st0" d="M244.44,24.09s-.07.01-.09.04c-.03.03-.04.06-.04.09s.01.07.04.09c.03.02.06.04.09.04s.07-.01.09-.04c.03-.03.04-.06.04-.09s-.01-.07-.04-.09c-.03-.02-.06-.04-.09-.04Z"/>
    <rect class="st0" x="244.36" y="24.76" width=".16" height="1.68"/>
    <path class="st0" d="M246.02,24.75c-.16,0-.29.03-.41.1-.11.07-.2.16-.26.28v-.36h-.15v1.68h.16v-.89c0-.2.06-.36.17-.47.11-.12.27-.18.47-.18.17,0,.3.05.4.15.1.1.14.24.14.43v.97h.16v-.98c0-.23-.06-.4-.18-.53-.12-.12-.29-.18-.5-.18Z"/>
    <path class="st0" d="M247.92,24.75c-.13,0-.25.02-.37.06-.12.04-.22.1-.3.18l.08.12c.07-.06.16-.12.26-.15.1-.04.21-.06.32-.06.16,0,.29.04.37.12.08.08.13.2.13.36v.13h-.57c-.22,0-.38.04-.48.13-.1.09-.15.2-.15.34s.05.26.16.35c.11.09.26.13.44.13.14,0,.27-.03.37-.08.1-.05.18-.13.23-.23v.3h.15v-1.06c0-.21-.06-.36-.17-.47-.11-.11-.27-.16-.48-.16ZM248.41,25.94c-.05.12-.12.21-.22.28-.1.06-.22.1-.35.1-.15,0-.26-.03-.34-.09-.08-.06-.12-.15-.12-.26s.04-.19.11-.25c.07-.06.19-.09.36-.09h.57v.31Z"/>
    <path class="st0" d="M250.37,24.98c.1-.06.22-.09.35-.09.11,0,.2.02.29.06.09.04.16.1.22.19l.12-.09c-.07-.1-.16-.18-.27-.23-.11-.05-.23-.08-.37-.08-.16,0-.31.04-.44.11-.13.07-.23.17-.3.3-.07.13-.11.28-.11.44s.04.31.11.44c.07.13.17.23.3.3.13.07.27.11.44.11.13,0,.26-.03.37-.08.11-.05.2-.13.27-.23l-.12-.09c-.06.08-.13.15-.22.19-.09.04-.19.06-.29.06-.13,0-.25-.03-.35-.09-.1-.06-.18-.14-.24-.25-.06-.11-.09-.23-.09-.37s.03-.26.09-.37c.06-.11.14-.19.24-.25Z"/>
    <path class="st0" d="M252.89,24.85c-.13-.07-.27-.11-.43-.11s-.3.04-.43.11c-.13.07-.23.17-.3.3-.07.13-.11.28-.11.44s.04.31.11.44c.07.13.17.23.3.3.13.07.27.11.43.11s.3-.04.43-.11c.13-.07.23-.17.3-.3.07-.13.11-.28.11-.44s-.04-.31-.11-.44c-.07-.13-.17-.23-.3-.3ZM253.05,25.96c-.06.11-.14.19-.24.25-.1.06-.22.09-.35.09s-.24-.03-.34-.09c-.1-.06-.18-.14-.24-.25s-.09-.23-.09-.37.03-.26.09-.37c.06-.11.14-.19.24-.25.1-.06.22-.09.34-.09s.24.03.35.09c.1.06.18.14.24.25.06.11.09.23.09.37s-.03.26-.09.37Z"/>
    <path class="st0" d="M254.61,24.75c-.16,0-.29.03-.41.1-.11.07-.2.16-.26.28v-.36h-.15v1.68h.16v-.89c0-.2.06-.36.17-.47.11-.12.27-.18.47-.18.17,0,.3.05.4.15.1.1.14.24.14.43v.97h.16v-.98c0-.23-.06-.4-.18-.53-.12-.12-.29-.18-.5-.18Z"/>
    <path class="st0" d="M256.75,25.61c-.08-.03-.19-.05-.32-.08-.12-.02-.21-.05-.27-.07-.07-.02-.12-.05-.17-.09-.04-.04-.07-.1-.07-.17,0-.09.04-.17.12-.23.08-.06.2-.09.35-.09.09,0,.18.01.27.04.09.03.17.06.23.11l.07-.13c-.07-.05-.15-.09-.26-.12-.1-.03-.21-.05-.32-.05-.2,0-.36.04-.47.13-.11.09-.17.2-.17.33,0,.11.03.19.09.26.06.06.13.11.21.13.08.03.19.05.32.08.11.02.2.04.27.06.06.02.12.05.16.09.04.04.07.1.07.17,0,.1-.04.18-.12.23-.08.06-.2.08-.37.08-.12,0-.23-.02-.34-.06-.11-.04-.2-.09-.26-.14l-.07.13c.07.06.16.11.29.15.12.04.25.06.39.06.21,0,.37-.04.49-.13s.17-.19.17-.33c0-.1-.03-.19-.08-.25-.06-.06-.12-.1-.2-.13Z"/>
    <path class="st0" d="M257.8,24.98c.1-.06.22-.09.35-.09.11,0,.2.02.29.06.09.04.16.1.22.19l.12-.09c-.07-.1-.16-.18-.27-.23-.11-.05-.23-.08-.37-.08-.16,0-.31.04-.44.11-.13.07-.23.17-.3.3-.07.13-.11.28-.11.44s.04.31.11.44c.07.13.17.23.3.3.13.07.27.11.44.11.13,0,.26-.03.37-.08.11-.05.2-.13.27-.23l-.12-.09c-.06.08-.13.15-.22.19-.09.04-.19.06-.29.06-.13,0-.25-.03-.35-.09-.1-.06-.18-.14-.24-.25-.06-.11-.09-.23-.09-.37s.03-.26.09-.37c.06-.11.14-.19.24-.25Z"/>
    <path class="st0" d="M259.35,24.09s-.07.01-.09.04c-.03.03-.04.06-.04.09s.01.07.04.09c.03.02.06.04.09.04s.07-.01.09-.04c.03-.03.04-.06.04-.09s-.01-.07-.04-.09c-.03-.02-.06-.04-.09-.04Z"/>
    <rect class="st0" x="259.27" y="24.76" width=".16" height="1.68"/>
    <path class="st0" d="M261.14,24.85c-.12-.07-.26-.11-.41-.11s-.29.04-.41.11c-.12.07-.22.17-.29.3-.07.13-.1.28-.1.44s.04.31.11.44c.07.13.18.23.31.3.13.07.28.11.45.11.13,0,.25-.02.36-.07.11-.05.2-.11.27-.2l-.09-.11c-.06.08-.14.14-.23.17-.09.04-.19.06-.3.06-.13,0-.25-.03-.36-.08-.11-.06-.19-.13-.25-.24-.06-.1-.1-.22-.1-.35h1.44v-.05c0-.16-.03-.31-.1-.44-.07-.13-.16-.23-.29-.3ZM260.09,25.51c0-.12.04-.23.1-.32.06-.09.13-.17.23-.22.09-.05.2-.08.32-.08s.22.03.32.08c.09.05.17.13.23.22.06.09.09.2.1.32h-1.28Z"/>
    <path class="st0" d="M262.84,24.75c-.16,0-.29.03-.41.1-.11.07-.2.16-.26.28v-.36h-.15v1.68h.16v-.89c0-.2.06-.36.17-.47.11-.12.27-.18.47-.18.17,0,.3.05.4.15.1.1.14.24.14.43v.97h.16v-.98c0-.23-.06-.4-.18-.53-.12-.12-.29-.18-.5-.18Z"/>
    <path class="st0" d="M264.69,26.31c-.1,0-.18-.03-.23-.09-.05-.06-.08-.14-.08-.25v-1.08h.53v-.14h-.53v-.37h-.16v.37h-.31v.14h.31v1.09c0,.14.04.26.12.34.08.08.19.12.34.12.07,0,.13-.01.19-.03.06-.02.11-.05.15-.09l-.07-.11c-.07.06-.16.09-.26.09Z"/>
    <path class="st0" d="M266.43,24.85c-.12-.07-.26-.11-.41-.11s-.29.04-.41.11c-.12.07-.22.17-.29.3-.07.13-.1.28-.1.44s.04.31.11.44c.07.13.18.23.31.3.13.07.28.11.45.11.13,0,.25-.02.36-.07.11-.05.2-.11.27-.2l-.09-.11c-.06.08-.14.14-.23.17-.09.04-.19.06-.3.06-.13,0-.25-.03-.36-.08-.11-.06-.19-.13-.25-.24-.06-.1-.1-.22-.1-.35h1.44v-.05c0-.16-.03-.31-.1-.44-.07-.13-.16-.23-.29-.3ZM265.38,25.51c0-.12.04-.23.1-.32.06-.09.13-.17.23-.22.09-.05.2-.08.32-.08s.22.03.32.08c.09.05.17.13.23.22.06.09.09.2.1.32h-1.28Z"/>
    <path class="st0" d="M268.33,24.98c-.34,0-.61.27-.61.61s.27.61.61.61.61-.27.61-.61-.27-.61-.61-.61Z"/>
    <path class="st0" d="M237.17,24.98c-.34,0-.61.27-.61.61s.27.61.61.61.61-.27.61-.61-.27-.61-.61-.61Z"/>
  </g>
</svg>