<?xml version="1.0" encoding="UTF-8"?>
<svg id="Arte" xmlns="http://www.w3.org/2000/svg" version="1.1" viewBox="0 0 335.78 35.82">
  <!-- Generator: Adobe Illustrator 29.0.0, SVG Export Plug-In . SVG Version: 2.1.0 Build 186)  -->
  <defs>
    <style>
      .st0 {
        fill: blue;
      }
    </style>
  </defs>
  <g>
    <path class="st0" d="M195.34,3.71c2.26-.22,4.86.09,7.14.15,9.42.25,18.85-.17,28.29.11.78.05,1.45.67,1.47,1.47v28.12c-.3,1.68-2.21,1.26-3.47,1.3-6.89.2-13.78-.12-20.68.06-4.56.12-9.13.03-13.7.06-.64-.04-1.18-.53-1.37-1.12-.09-9.44-.01-18.91-.04-28.36.18-1.16,1.32-1.68,2.37-1.79ZM195.4,4.71c-.55.06-1.41.3-1.49.95.01,7.03,0,14.05,0,21.08,0,1.71-.15,3.51-.06,5.21.06,1.1.17,2.1,1.47,2.19,4.08.29,8.48-.3,12.59-.06,6.68.04,13.4-.39,20.07-.11,1.67.07,3.21.38,3.36-1.8.06-.93-.1-1.9-.12-2.83s.06-1.89.06-2.83c.02-7.05,0-14.11-.03-21.16-.09-.33-.47-.42-.78-.44-1.11-.1-2.28.05-3.38.06-9.49.12-18.97,0-28.45-.22-1.01-.02-2.28-.14-3.26-.04Z"/>
    <path class="st0" d="M227.73,20.56c.24.15-.12,1.37-.22,1.62-.13.32-.57.86-.59,1.13-.02.42.5.68-.29,1.04-.83.38-1.46.23-2.27,1-.92.86.17,2.01.34,2.98.43.47.66-.42.85-.73.41-.66,1.19-1.51,1.91-1.81.5-.2,1.76-.51,1.88.28.26,1.68-1.58,1.73-2.7,2.23-.62.28-1.58.99-1.78,1.66-.08.27-.02.91-.43.9-.45,0-.09-.79-.7-1.02-1.69-.66-3.67-.25-5.4-.48-.39-.05-.75-.18-1.13-.26-.32-.06-.85-.02-1.09-.18-.34-.22-.12-.42.1-.65.44-.45,1.37-.81,1.98-.99,1.77-.53,3.86-.47,5.31.79.55.17.24-.62.15-.88-.36-1.1-1.56-2.86-2.83-2.94-.69-.05-1.76.81-2.45,1.04-.3.1-.64.12-.95.22-.37.12-.78.46-1.19.34-.31-.09,0-.6-.21-.79-.18-.17-1.5-.35-1.36-.86s1.34-.17,1.67-.22c.22-.03.31-.25.51-.27.42-.04.87.43,1.29.19.11-.06.2-.23.28-.27.27-.12.72.3.98.35.19.04,1,.05,1.12-.07.38-.37-.58-.88-.83-1.11-.4-.37-.78-.79-1.1-1.23-.24-.33-.43-.9-.84-.99-.28-.06-.61.05-.86-.14-.26-.21-.17-.64-.27-.89-.18-.44-1.44-.06-1.49-.96-.04-.71.8-.67.83-1.17,0-.16-.1-.32-.07-.52.06-.47.48-.71.91-.48.3.16.32.7.63.7.35,0,.45-.76,1.1-.67.34.05.4.4.36.69-.04.36-.42.64-.32.99s.95.1,1.04.62c.08.46-.3.79-.74.74-.3-.03-.75-.42-.76.2,0,.82,1.54,2.41,2.17,2.94.76.65.82.44.84-.45.01-.56-.01-.95.14-1.52.06-.23.36-.76.18-.93-.13-.13-.75-.05-.82-.43-.07-.36.01-.75.23-1.04.08-.11.24-.14.26-.3.04-.28-.6-.8-.21-1.26.34-.42.91.19,1.24.13.42-.08.42-.95,1.22-.81.61.1.33.84.53,1.25.22.45.66.22,1.03.31.5.11.43.92.12,1.21-.18.16-.5.16-.63.43s0,.37-.01.59c-.01.45-.28.95-.79.91-.77-.06-1.34-1.17-1.81.16-.54,1.54.31,3.26,1.38,4.37.64.67.67-.06.92-.52.12-.22.32-.43.42-.63.26-.54.05-1.17.52-1.65.38-.39.73.03,1.03-.2.21-.15.49-.98.8-1.3.15-.16.64-.51.85-.38ZM222.62,17.57c-.31.05-.66.37-.7.68-.21,1.45,2,1.28,1.83-.17-.06-.5-.72-.58-1.12-.51ZM217.13,17.85c-.75.15-.54,1.51.36,1.31.74-.17.84-1.55-.36-1.31ZM228.5,26.22c-.31.03-1.31.46-1.41.76-.08.26.03.3.27.27s1.13-.28,1.32-.41c.36-.24.33-.67-.18-.62ZM222.67,28.44c-.31-.35-1.74-.7-2.23-.74-.81-.06-1.93.13-2.69.42-.29.11-.4.3-.08.47.91,0,1.81-.09,2.72-.06.34.01.77.03,1.11.06.29.02.75.17,1,.17.2,0,.31-.16.17-.32Z"/>
    <path class="st0" d="M208.6,17.66c-.25.16-.41-.28-.55-.41-.31-.3-1.22-.46-1.64-.41-1.02.1-1.54,1.71-.11,1.83.57.05,1.2-.45,1.2.42,0,.81-.42.45-.85.35-.59-.14-1.4.24-1.37.92.06,1.2,1.04,1.68,2.09,1.15.31-.16,1.33-1.39,1.23-.27-.07.82-.35,1.12-1.14,1.25-2.1.34-3.62-.76-3.74-2.91-.05-.99.35-1.85.27-2.77-.01-.16-.19-.36-.04-.52.35-.35,1.89-.39,2.4-.4.65-.08,1.33.06,1.99.07.35.13.41,1.6.25,1.7Z"/>
    <g>
      <g>
        <path class="st0" d="M214.76,13.18c.07.1-.22.38-.31.44-.68.48-1.65.16-1.96-.59-.27-.67-.08-2.2-1.2-2.17s-.83,1.44-.53,2.12c.06.15.4.56.3.7s-1.06.1-1.25.03c-.74-.26-.63-2.19-.61-2.83.03-.76.31-2.02.14-2.69-.1-.39-.41-.48.17-.66,1.05-.33,3.27-.46,4.16.27.87.71.74,1.79-.03,2.53-.19.18-.7.38-.67.66,0,.07.42.57.51.71.23.39.39,1.12.77,1.34.11.06.48.12.49.14ZM210.68,9.83c.41.42,1.7.25,2.02-.24.53-.78-.2-1.38-.97-1.45-.25-.02-.89.02-1.1.17-.33.24-.21,1.26.04,1.53Z"/>
        <g>
          <path class="st0" d="M217.36,7.31c.72-.04,2.22,0,2.81.43.68.5.76,1.47.22,2.11-.13.16-.49.35-.47.52,0,.09.69.6.84.78.81.99.22,2.13-.87,2.51-.59.21-2.72.18-3.43.13-.19-.01-.57-.05-.63-.26.11-.78.38-1.53.43-2.32.04-.65.05-2.2-.15-2.79-.13-.4-.56-.5-.12-.81.34-.24.96-.27,1.37-.29ZM217.74,8.09c-.19.04-.24.17-.26.35-.04.34-.06,1.35.28,1.5.84.37,1.95-.61,1.38-1.49-.24-.37-1-.45-1.39-.36ZM217.85,10.86c-.19.04-.36.18-.41.36-.09.31-.17,1.29-.06,1.58.21.54,1.25.55,1.65.23,1.12-.86.2-2.46-1.18-2.18Z"/>
          <path class="st0" d="M222.31,12.97c.18-.17.42.09.62-.13.14-.16.34-.9.4-1.15.19-.7.68-2.56.68-3.2,0-.27-.3-.87-.15-1.01.26-.25,2.32-.21,2.71-.1.33.09.48.26.58.58.4,1.32.8,3.53.86,4.91.01.29.08.83-.26.91-.25.05-1.24.06-1.48.01-.52-.1-.03-.63.08-.86.34-.76.22-1.96-.8-2.02-1.18-.06-.85.92-1.04,1.73s-.9,1.4-1.74,1.05c-.21-.09-.66-.52-.45-.72ZM225.45,7.86c-.19.03-.24.22-.29.38-.11.35-.28,1.37-.12,1.68s.83.44,1.03.12c.21-.34.06-1.6-.15-1.95-.08-.13-.32-.25-.47-.23Z"/>
        </g>
      </g>
      <path class="st0" d="M207.62,9c-.08-.07-.17-.28-.26-.37-.33-.33-1.21-.48-1.66-.44-1,.1-1.52,1.66-.17,1.82.28.03.98-.13,1.07-.08.25.12.24.98-.03,1.03-.35.07-.63-.35-1.29-.12s-.84.6-.64,1.28c.34,1.16,1.49,1.21,2.34.53.14-.12.78-.9.89-.33.1.51-.18,1.28-.72,1.44-1.47.44-3.52-.15-3.97-1.75-.18-.63-.22-1.47-.13-2.13.06-.43.27-.98.27-1.39,0-.2-.19-.66-.12-.78.17-.26,1-.38,1.31-.41,1.03-.12,2.07-.04,3.09.01.31.09.43,1.27.35,1.54-.05.17-.19.28-.35.15Z"/>
    </g>
    <g>
      <path class="st0" d="M201.48,7.19c.63.09.56.46.45.95-.25,1.22-1.05,2.32-1.47,3.47-.33.91-.23,1.93-1.34,2.26-.61.18-1.52.04-1.61-.72-.13-1.16,1.25.65,1.22-.5-.02-.83-.49-1.62-.9-2.32-.29-.51-1.12-1.94-1.48-2.29-.1-.1-.7-.38-.41-.53.18-.09.72-.12.93-.11,1.26.07,1.07.79,1.5,1.67.15.32.78,1.35,1.18.85.25-.31.75-1.65.73-2.05,0-.13-.19-.69.02-.69.34,0,.85-.04,1.16,0Z"/>
      <path class="st0" d="M197.58,22.31c-.23-.22.29-.64.42-.86.19-.32.26-.6.27-.98.03-.82.03-2.03-.03-2.84-.05-.73-.35-1.39-1.14-.8-.23.18-.46.84-.66.77-.23-.07-.31-1.35.12-1.54.14-.06.54-.12.7-.13.86-.06,2.14-.05,3,0,.35.02,1.05.05,1.19.41.08.21.19,1.15,0,1.28-.22.15-.48-.56-.64-.7-.3-.27-.93-.36-1,.16-.11,1.33.08,2.75-.02,4.08-.03.38-.12.94-.5,1.11-.3.14-1.48.23-1.71.01Z"/>
    </g>
    <g>
      <path class="st0" d="M198.68,30.92c-.82.09-1.51.29-1.79-.67-.16-.55-.12-1.69-.1-2.29.03-.74.3-1.88.13-2.57-.06-.24-.3-.37-.06-.52.54-.35,2.56-.42,3.22-.31,1.77.29,2.39,1.82,1.01,3.1-.19.18-.62.3-.52.62.02.07.41.51.5.67.22.39.39,1.12.77,1.34.27.15.91.1.18.58s-1.62.18-1.95-.59c-.29-.67-.08-2.22-1.2-2.18-.92.03-.89,1-.71,1.66.12.43.43.75.51,1.17ZM198.72,25.39c-.69.08-.76.35-.71,1.01.03.31.14.68.47.81.63.24,1.9,0,1.96-.82.07-.89-1.06-1.07-1.72-.99Z"/>
      <g>
        <path class="st0" d="M207.95,30.21c.07-.11.51.01.66-.14.12-.12.37-1.06.42-1.29.18-.7.71-2.75.61-3.35-.03-.19-.29-.55-.14-.69.27-.26,2.41-.22,2.8-.09.31.1.39.21.48.51.42,1.3.89,3.95.92,5.3,0,.19-.09.49-.28.56s-1.6.06-1.7-.08c-.16-.23.3-.79.38-1.07.17-.62-.02-1.6-.77-1.7-1.41-.2-.95,1-1.24,1.91-.22.7-.93,1.15-1.65.87-.21-.08-.66-.49-.51-.73ZM210.95,25.17c-.21.2-.39,1.65-.28,1.94s.61.39.89.31c.46-.14.21-1.76,0-2.09-.12-.19-.44-.32-.62-.16Z"/>
        <path class="st0" d="M204.55,24.45c.22-.01.8.05.99.14s.25.24.28.44c.09.55-.09,1.5-.1,2.09-.02.75-.11,2.44.16,3.06.12.28.53.62-.03.72-.65.12-1.54-.12-1.66-.86-.23-1.37.19-2.75.1-4.09,0-.14-.05-.59-.1-.68-.07-.14-.28-.18-.37-.29-.33-.38.48-.53.74-.54Z"/>
      </g>
    </g>
  </g>
  <g>
    <path class="st0" d="M115.18,32.97c.58,0,1.79-.17,1.81.68,0,.27-.26.48-.27.64,0,.04.38.1.38.64,0,.99-1.21.88-1.92.86v-2.82ZM116.43,34.04c.14-.12.16-.5-.01-.62l-.87-.08v.82s.79-.03.89-.11ZM115.54,35.43c1.6.22,1.6-1.22,0-1v1Z"/>
    <path class="st0" d="M89.9,32.97c1.29-.26,2.69.51,1.27,1.6l.64,1.09c-.81.59-.66-1.32-1.54-1.05l-.04,1.09-.27.09c-.2-.12-.05-.19-.05-.23v-2.59ZM91.15,33.35l-.89-.02v.91c.69.1,1.44-.12.89-.89Z"/>
    <path class="st0" d="M119.02,35.76c-.05-.33-.26-.02-.45,0-1.54.24-.93-1.5.34-1.34.06-.85-1.01-.19-1.09-.27v-.35c1.06-.41,1.46-.15,1.54.94.02.22.07.96-.14,1.04l-.21-.03ZM118.91,34.7c-.45.05-.96.16-.81.71.55.26.92-.15.81-.71Z"/>
    <path class="st0" d="M100.81,33.7v1.59c0,.23.7.15.82-.09v-1.5s.45,0,.45,0v1.96c0,.1-.26.17-.36.14l-.05-.27c-.32.3-.72.38-1.11.16-.02-.09-.2-.35-.2-.39v-1.59s.45,0,.45,0Z"/>
    <path class="st0" d="M99.42,33.81c.09.1.19.67.2.84.02.24.1,1.18-.21,1.12-.28-.3-.46.01-.83.02s-.58-.11-.6-.51c-.03-.73.46-.67.99-.84.13-.04.23.04.2-.16-.08-.56-.74-.21-1.05-.13-.18-.55.99-.68,1.29-.34ZM99.17,34.7c-.41.08-1.12.18-.69.74.48.23.8-.27.69-.74Z"/>
    <path class="st0" d="M105.99,35.79c-.32.13-.39-.19-.41-.19-.21,0-.92.52-1.18-.09-.36-.84.59-1.06,1.22-1.09l-.34-.44c-.35-.15-.74.43-.85-.06.3-.3.99-.46,1.32-.13.03.03.23.38.23.41v1.59ZM105.34,34.71c-.73.09-.8.92-.16.77.58-.14.57-.82.16-.77Z"/>
    <path class="st0" d="M93.99,34.79h-1.36c-.04.36.31.75.68.73.23-.02.51-.4.6.04-.42.43-1.41.29-1.6-.31-.55-1.79,1.77-2.38,1.69-.46ZM93.51,34.08c-.32-.31-.9-.02-.89.43h1c0-.13-.02-.34-.11-.43Z"/>
    <path class="st0" d="M112.45,34.79l-1.28.04c-.17.35.27.68.6.68.22,0,.4-.33.59-.04.07.36-1.34.65-1.59-.32-.46-1.77,1.83-2.17,1.69-.37ZM112.09,34.52c.1-.71-.82-.74-1-.13-.05.17.03.12.13.13.27.04.59-.02.87,0Z"/>
    <path class="st0" d="M108.45,35.79h-.36s0-1.5,0-1.5c0-.53-.91-.24-.91,0v1.5s-.36,0-.36,0v-2.09c.49.24.46.02.81-.06.31-.07.82.17.82.47v1.68Z"/>
    <path class="st0" d="M95.9,33.79c.04.57-1.14-.17-.99.49.06.28,1.01.21,1.08.84.09.83-1.02.77-1.54.49l.23-.34c.18.25.96.36.96-.07s-1.14-.29-1.1-.99c.04-.67.91-.66,1.36-.41Z"/>
    <path class="st0" d="M96.99,33.7h.55s0,.27,0,.27h-.55c.06.35-.15,1.35.18,1.51.14.06.33-.14.45.09.05.27-.51.26-.68.23-.53-.1-.24-1.28-.33-1.67l-.35-.15v-.27s.36,0,.36,0v-.49s.23-.15.23-.15c.21.15.13.41.14.64Z"/>
    <path class="st0" d="M109.72,33.7h.55s0,.27,0,.27l-.46.04c-.12.08-.12,1.1-.07,1.26.1.3.47.1.58.24.23.32-.71.45-.91,0-.24-.53.29-1.39-.41-1.68l.35-.15c-.06-.85.47-.82.38.01Z"/>
    <path class="st0" d="M120.09,33.7c.32-.13.38.18.41.18.18,0,.47-.4.77-.28v.32c-.6.1-.78.3-.82.91-.01.24.1.74.08.81-.05.23-.44.14-.44,0v-1.96Z"/>
    <path class="st0" d="M103.27,35.79c-.11.04-.36-.04-.36-.14v-1.96c.24-.03.23,0,.32.19.11,0,.78-.52.86-.14.05.22-.82.32-.82.73v1.32Z"/>
    <path class="st0" d="M113.81,33.88l.09.42.46.08-.35.36.16.41c-.36.13-.31-.43-.55-.23-.04.04-.05.14-.08.16-.45.4-.17-.33-.19-.43-.04-.15-.34-.08-.27-.28.12-.2.27-.04.45-.05-.01-.21,0-.48.27-.46Z"/>
    <path class="st0" d="M105.09,12.6c-.86.75-1.76.75-2.82.45-.08-.47.36-.74.54-1.12-1.01-.85-1.49-1.95-1.36-3.29l2.36.86c-.17-.38-.41-.76-.52-1.16-.05-.18-.28-1.16.07-1.07l.72.41c-.11-.98.45-1.6,1.15-2.18.78.48,1.24,1.24,1.22,2.18.11.13.8-.69.9-.31.14.53-.45,1.61-.63,2.13l2.15-.9c.39-.04.15,1.13.1,1.37-.17.74-.65,1.57-1.34,1.89.25.36.62.71.64,1.18-.54.11-1.02.25-1.58.17-.51-.07-.88-.43-1.33-.63v6.18s-.27-.14-.27-.14v-6.05ZM106.09,8.33v-1.41c0-.16-.69-1.07-.85-1.04-.49.41-.86.94-.88,1.59,0,.22.25.98-.14.77-.15-.08-.65-.56-.77-.46l.82,2c-.27.35-2.01-.67-2.41-.73-.22-.03-.15.26-.14.41.08,1,.77,1.98,1.64,2.45,0,.08-.82.66-.73.95.69.09,1.08.18,1.73-.13.89-.42.74-.78.72-1.69h.27c0,.78-.17.99.48,1.48s1.37.63,2.07.21l-.73-.95c1.12-.31,1.55-1.67,1.64-2.73-.89.1-1.6.87-2.55.73.2-.69.74-1.25.73-2l-.91.55Z"/>
    <path class="st0" d="M100.27,11.87l-3.98-8.98c-.3-2.86,4.05-2.84,3.79-.08-.08.84-.99,1.39-.99,1.74,0,.22,1.2,2.23,1.38,2.71.34.95.17,3.33-.02,4.38-.02.11-.05.22-.18.23ZM100.26,10.87c-.01-1.08.28-2.33-.02-3.38-.21-.74-1.41-2.39-1.43-2.94s1.13-.94.96-2.13c-.3-2.14-3.47-1.67-3.21.48,1.12,2.46,2.15,4.97,3.33,7.4.09.19.18.47.38.58Z"/>
    <path class="st0" d="M113.6,1.17c.61.55.68,1.29.53,2.06l-3.76,8.34-.29.21c-.06-1.34-.48-2.79-.17-4.13.18-.8,1.45-2.63,1.45-3.1,0-.43-.39-.58-.59-.87-1.28-1.86,1.19-3.96,2.83-2.51ZM110.27,10.87l3.62-7.8c.56-2.26-2.86-2.91-3.14-.68-.15,1.24.95,1.43.89,2.25-.05.67-1.19,2.12-1.42,2.95-.3,1.08,0,2.19.05,3.28Z"/>
    <path class="st0" d="M110.27,4.42c.27.23-.91.48-1,.5-1.9.39-4.48.4-6.41.22-.34-.03-2.53-.32-2.59-.5,0-.16-.07-.24.14-.23.27.01.7.19,1.03.25,2.9.48,5.97.39,8.84-.24Z"/>
    <path class="st0" d="M102.72,19.69c1.27-.56,3.07-.68,4.38-.25.27.09.53.13.71.38-.14.2-.17.11-.33.06-1.39-.42-2.52-.56-3.98-.2-.31.08-.74.51-.78,0Z"/>
    <circle class="st0" cx="95.76" cy="10.15" r=".33"/>
    <path class="st0" d="M114.46,10.41c-.28-.46.34-.84.58-.44.27.44-.45.66-.58.44Z"/>
    <path class="st0" d="M95.31,8.96c1.24.14,2.59,1.07,3.27,2.1.35.53.6,1.25.94,1.78.06.09,0,.16.2.12-.01-.17.1-.34.09-.5,0-.32-1.37-2.74-1.63-3.28-.77-1.64-1.98-4.03-2.47-5.71-.38-1.28.06-2.57,1.29-3.18,2.25-1.12,4.56,1.24,3.54,3.49,3.15.13,6.3.1,9.46,0-1.11-2.36,1.45-4.74,3.7-3.38.97.59,1.38,1.66,1.19,2.77-.15.9-1.34,3.34-1.78,4.31-.42.93-.85,1.88-1.3,2.79-.16.33-1.17,2-1.15,2.18.01.14.2.33.16.52.72-.84,1.02-2.05,1.86-2.82.49-.45,1.9-1.18,2.55-1.18h1.59c-.75,2.62-3.38,3.73-5.64,4.82-.02.16.22.1.31.08.76-.13,1.36-.67,2.06-.95,1.13-.45,2.35-.51,3.43.12.12.07.83.59.66.75-2.11-.25-4.15,1.25-6.18.64.15.31.25.6.6.72.17.06,1.3.22,1.43.19.06-.01.25-.41.49-.53.91-.44,2.6.32,2.23,1.41-.31.92-1.89.65-2.43.03-.18-.2-.2-.54-.38-.62s-.82-.13-1.05-.14c-.09,0-.13-.12-.25.07l.65.85c.65-.06,1.05-.04,1.57.38,1.55,1.26.7,3.88-1.16,2.44-.83-.64-.98-1.69-.62-2.65l-.76-.97c-.34.58,0,.69.18,1.09.73,1.64-1.18,3.41-1.95,1.95-.49-.94.16-2.59,1.35-2.5.16-.66.28-1.16-.22-1.72-.21-.23-.59.31-.7.48-.34.55-.39,1.3-.8,1.79l-.23-1.55-1.05-.31c.47-.38,2.31-.87,2.26-1.61,0-.13-.18-.55-.35-.43-.31.56-1,1.18-1.58,1.47-.72.36-1.64.36-1.95,1.24-.16.46-.48,2.72-.26,3.03.53.16,1.1.19,1.62.38,1.42.52,1.44,1.47-.16,1.7-1.42.21-4.02.19-5.45,0s-1.57-1.03-.27-1.61c.58-.26,1.2-.32,1.81-.46.2-.28-.14-2.72-.33-3.13-.34-.74-1.04-.73-1.69-1.04-.51-.24-1.03-.62-1.44-1.01-.14-.13-.33-.5-.45-.55-.15-.06-.27.48-.28.54-.05.51,1.95,1.22,2.33,1.51-1.39.14-1.17.68-1.27,1.86-.23.04-.14-.02-.19-.13-.33-.74-.41-1.64-1.08-2.19-.21-.13-.52.47-.57.62-.13.39.02.76.13,1.14,1.73-.16,2.02,3.4.23,3-.88-.2-1.24-1.67-.9-2.41.21-.45.49-.2.29-.98-.03-.13.07-.16-.18-.13l-.7,1.05c.73.99-.19,2.83-1.35,2.96-1.87.2-1.35-2.56.07-3.11.4-.16.83-.01,1.06-.12.15-.07.74-.82.64-.96-.33.17-.98.05-1.27.23-.12.08-.21.45-.37.63-.59.65-2.4.81-2.45-.27s1.7-1.72,2.51-1.05c.14.12.12.33.36.37.14.02,1.19-.14,1.36-.19.31-.11.44-.4.51-.72-1.31.54-2.54-.19-3.8-.43-.76-.15-1.61-.21-2.39-.21.76-1.28,2.54-1.41,3.84-.98.75.24,1.49.87,2.23,1.05.09.02.48.11.48-.07-1.96-.93-4.02-1.76-5.16-3.7-.19-.32-.46-.76-.47-1.12.51.04,1.09-.06,1.59,0ZM110.45,4.14h-10.31s-.1-.18-.1-.18c1-1.26.19-3.37-1.39-3.62-1.83-.29-3.1,1.18-2.69,2.96.27,1.14,1.47,3.54,2.01,4.72.83,1.81,2.14,5.04,3.95,5.96.5.25,1.29.39,1.69.76.53.49.67,1.76.73,2.45.02.25.09,1.35.03,1.48-.16.33-.54.16-.87.23-1.2.24-3.17,1.24-.66,1.44,1.02.08,4.69.13,5.52-.12.32-.1.57-.14.39-.52-.36-.75-2.59-.8-2.67-.92.1-1.12-.09-3.48.96-4.16.99-.64,1.8-.53,2.76-1.61,2.11-2.39,3.35-7.04,4.82-9.91.46-3.01-3.68-3.81-4.5-1.22-.28.89.02,1.46.32,2.27ZM99.54,13.51c-.89-1.79-1.67-3.62-3.8-4.16l-1.66-.11c.72,1.85,2.37,2.78,4.03,3.65.2.11,1.32.71,1.42.62ZM116.36,9.24c-2.9-.27-4.39,1.88-5.36,4.27,2.06-.97,4.57-1.92,5.36-4.27ZM98.81,14.06c-.63-.01-1.18-.53-1.73-.77-1.22-.53-2.53-.67-3.64.18.6.12,1.24.13,1.84.25.96.19,2.2.79,3.17.57.13-.03.33-.08.36-.23ZM117.09,13.42c-.4-.16-.81-.46-1.25-.52-1.53-.24-2.67.56-3.99,1.15-.11.05-.16-.04-.13.19,1.06.26,2.07-.12,3.07-.43l2.29-.39ZM99.9,13.69c-.74.27-.02.52.21.84.25.34.34.67.5,1.05.06.14-.05.25.2.2l.04-.82.59-.22c-.51-.32-1.27-.48-1.55-1.04ZM110.81,13.69c-.09-.07-.77.56-.94.65-.27.15-.59.24-.88.35l.61.2.11.98.56-1.21.61-.58-.08-.39ZM96.61,15.16s-.36-.16-.42-.17c-1.48-.26-2.4,1.45-.89,1.53.62.03,1.11-.23,1.41-.78l-.54-.18c.12-.15.27-.22.45-.14,0-.08.03-.2-.01-.26ZM113.82,15.69c.16.73,1.62,1.17,2.04.54.58-.86-1.46-1.78-2.04-.95l.45.14v.27s-.45,0-.45,0ZM99.87,16.63c-.14-.12-.42-.22-.61-.21-.07.07.25.56-.09.5l-.27-.32c-.43.6-.15,2.19.69,2.27,1.02.1.91-1.72.28-2.24ZM111.27,16.42c-1.24-.12-1.58,2.61-.33,2.45.73-.09,1.2-1.66.64-2.18l-.41.18.09-.45ZM97.45,16.69c-1.13-.4-2.44,1.92-1.49,2.54,1.01.65,2.59-1.46,1.72-2.35l-.41.18.18-.36ZM114.24,17.09c-.31-.3-.72-.45-1.15-.4l.09.36c-.05.06-.74-.52-.54.86.1.7,1.04,1.65,1.79,1.35.8-.32.29-1.7-.19-2.17Z"/>
    <path class="st0" d="M117.43,30.67c-2.39.73-4.08-2.23-3.89-4.3.42-4.52,7.43-4.86,8.5-.77.45,1.71-.24,4.51-2.13,5.05-.36.1-1.73.26-1.32-.41.1-.17,1.19-.54,1.54-.82,3.19-2.53-.11-7.46-3.94-5.49-2.01,1.03-2.37,4.62-.27,5.71.28.14,2.08.49,1.51,1.03Z"/>
    <path class="st0" d="M91.79,22.81c3.46-.44,5.96,1.99,4.94,5.48-.37,1.25-1.41,2.59-2.86,2.49-.61-.04-.8-.39-.21-.74.91-.56,1.51-.48,2.1-1.63,1.57-3.03-1.52-5.83-4.52-4.62-2.28.92-2.7,4.63-.56,5.81.34.19,1.3.39,1.51.59.08.08.11.16.09.27-.06.65-1.56.25-1.94.03-3.18-1.78-2.46-7.19,1.46-7.69Z"/>
    <path class="st0" d="M99.02,23.18c.23-.28.71-.31.77.13.03.21-.58,1.76-.62,2.34-.13,1.67.61,4.18,2.59,4.33,2.83.22,3.37-3.38,2.92-5.46-.07-.33-.72-1.53-.1-1.54s.99,1.74,1.04,2.24c.22,2.17-.45,4.96-2.83,5.61-2.53.69-4.2-1.93-4.35-4.16-.04-.63.2-3.03.58-3.48Z"/>
    <path class="st0" d="M108.27,29.97c.19.2,2.71.02,3.22.1.19.03.39.1.42.32l-.09.37-.32.13-4.56-.36c-.28-.38,1.4-2.3,1.67-2.7.37-.53,2.2-3.2,2.2-3.63l-.15-.21-3.15.06c-.34-.04-.4-.44-.3-.71l4.6-.04c.15.1.23.24.15.41-.95,1.51-1.85,3.06-2.8,4.57-.17.27-1.15,1.43-.89,1.7Z"/>
  </g>
  <g>
    <g>
      <path class="st0" d="M6.91,33.47v-1.36l-.54,1.16h-.3l-.54-1.16v1.36h-.41v-2.02h.51l.59,1.24.59-1.24h.51v2.02h-.41Z"/>
      <path class="st0" d="M9.09,31.83v.44h.98v.38h-.98v.45h1.11v.38h-1.57v-2.02h1.54v.38h-1.08Z"/>
      <path class="st0" d="M12.84,33.47l-.98-1.3v1.3h-.44v-2.02h.42l.98,1.3v-1.3h.43v2.02h-.42Z"/>
      <path class="st0" d="M15.42,31.45c.63,0,1.06.41,1.06,1.01s-.44,1.01-1.08,1.01h-.84v-2.02h.86ZM15.02,33.09h.41c.34,0,.59-.25.59-.62s-.26-.63-.61-.63h-.39v1.25Z"/>
      <path class="st0" d="M17.65,33.47v-2.02h.46v2.02h-.46Z"/>
      <path class="st0" d="M20.79,33.47v-.8h-.91v.8h-.46v-2.02h.46v.84h.91v-.84h.46v2.02h-.46Z"/>
      <path class="st0" d="M24.34,32.62c0,.53-.35.87-.91.87s-.92-.33-.92-.87v-1.17h.46v1.17c0,.29.19.47.46.47s.45-.18.45-.47v-1.17h.46v1.17Z"/>
      <path class="st0" d="M25.95,33.08l-.16.39h-.47l.88-2.02h.47l.86,2.02h-.49l-.16-.39h-.93ZM26.42,31.93l-.32.78h.64l-.32-.78Z"/>
      <path class="st0" d="M30.28,31.77l-.27.32c-.14-.16-.34-.26-.53-.26-.35,0-.61.27-.61.62s.27.62.61.62c.18,0,.38-.09.53-.24l.27.29c-.21.22-.52.36-.82.36-.6,0-1.06-.45-1.06-1.03s.46-1.02,1.08-1.02c.29,0,.6.13.8.33Z"/>
      <path class="st0" d="M31.8,33.08l-.16.39h-.47l.88-2.02h.47l.86,2.02h-.49l-.16-.39h-.93ZM32.27,31.93l-.32.78h.64l-.32-.78Z"/>
      <path class="st0" d="M35.96,32.73v-.29h.74v.29h-.74Z"/>
      <path class="st0" d="M41.3,33.47v-1.36l-.54,1.16h-.3l-.54-1.16v1.36h-.41v-2.02h.51l.59,1.24.59-1.24h.51v2.02h-.41Z"/>
      <path class="st0" d="M43.42,33.08l-.16.39h-.47l.88-2.02h.47l.86,2.02h-.49l-.16-.39h-.93ZM43.89,31.93l-.32.78h.64l-.32-.78Z"/>
      <path class="st0" d="M47.78,32.45v.78c-.21.16-.54.26-.82.26-.61,0-1.08-.44-1.08-1.03s.47-1.02,1.1-1.02c.3,0,.61.12.81.29l-.26.33c-.15-.14-.36-.23-.55-.23-.36,0-.63.27-.63.63s.28.63.64.63c.12,0,.27-.04.4-.11v-.53h.4Z"/>
      <path class="st0" d="M49.9,31.45c.63,0,1.06.41,1.06,1.01s-.44,1.01-1.08,1.01h-.84v-2.02h.86ZM49.5,33.09h.41c.34,0,.59-.25.59-.62s-.26-.63-.61-.63h-.39v1.25Z"/>
      <path class="st0" d="M52.47,33.08l-.16.39h-.47l.88-2.02h.47l.86,2.02h-.49l-.16-.39h-.93ZM52.94,31.93l-.32.78h.64l-.32-.78Z"/>
      <path class="st0" d="M56.45,33.07v.4h-1.32v-2.02h.46v1.62h.87Z"/>
      <path class="st0" d="M58.04,31.83v.44h.98v.38h-.98v.45h1.11v.38h-1.57v-2.02h1.54v.38h-1.08Z"/>
      <path class="st0" d="M61.79,33.47l-.98-1.3v1.3h-.44v-2.02h.42l.98,1.3v-1.3h.43v2.02h-.42Z"/>
      <path class="st0" d="M63.91,33.08l-.16.39h-.47l.88-2.02h.47l.86,2.02h-.49l-.16-.39h-.93ZM64.38,31.93l-.32.78h.64l-.32-.78Z"/>
    </g>
    <g>
      <path class="st0" d="M16.09,12.71h-3.57l.22-.7v-4.7l-.22-.7h2.18l-.26.78v3.7l.13.13h1.22l.9-.3-.59,1.78Z"/>
      <path class="st0" d="M20.01,12.71l.09-.7-.13-.52-.09-.09h-1.44l-.09.09-.13.52.09.7h-2l.35-.7,1.22-4.83-.13-.57h2.96l-.13.57,1.22,4.83.35.7h-2.13ZM19.2,8.15l-.04-.3-.04.3-.44,1.87.09.09h.78l.09-.09-.44-1.87Z"/>
      <path class="st0" d="M26.4,12.71h-3.87l.22-.7v-4.7l-.22-.7h3.87l.96.96v1.17l-.65.65.74.74v1.52l-1.04,1.04ZM25.62,8.32l-.13-.26-.26-.13h-.74l-.09.09v.78l.09.09h.74l.26-.13.13-.26v-.17ZM25.66,10.63l-.13-.26-.35-.17h-.7l-.09.09v.96l.13.13h.65l.35-.17.13-.26v-.3Z"/>
      <path class="st0" d="M32.32,12.71h-3.79l.22-.7v-4.7l-.22-.7h3.65l.55,1.65-.77-.26h-1.5l-.07.09v.61l.09.09h.57l.65-.22v1.83l-.65-.22h-.57l-.09.09v.83l.13.13h1.46l.91-.3-.59,1.78Z"/>
      <path class="st0" d="M36.76,12.71l-.65-1.96-.17-.09h-.48l-.09.09v1.26l.22.7h-2.09l.22-.7v-4.7l-.22-.7h3.79l1.13,1.13v1.7l-.78.78.61,1.65.48.83h-1.96ZM36.72,8.54l-.17-.35-.35-.17h-.74l-.09.09v1.09l.09.09h.74l.35-.17.17-.35v-.22Z"/>
      <path class="st0" d="M39.5,12.71l.22-.7v-4.7l-.22-.7h2.13l-.22.7v4.7l.22.7h-2.13Z"/>
      <path class="st0" d="M47.68,7.32v5.39h-1.17l-1.91-3.22-.17-.44.04.44v2.52l.22.7h-1.91l.22-.7v-4.7l-.26-.7h1.87l1.52,2.57.17.44-.04-.44v-1.87l-.22-.7h1.87l-.22.7Z"/>
      <path class="st0" d="M52.49,8.06h-.68l-.09.09v3.65l.3.91h-2.31l.3-.91v-3.65l-.09-.09h-.68l-.9.3.58-1.74h3.87l.58,1.74-.9-.3Z"/>
      <path class="st0" d="M57.64,12.71h-2.7l-1.13-1.13v-3.83l1.13-1.13h2.7l1.13,1.13v3.83l-1.13,1.13ZM57.03,8.49l-.17-.35-.35-.17h-.44l-.35.17-.17.35v2.26l.17.35.35.17h.44l.35-.17.17-.35v-2.26Z"/>
    </g>
    <g>
      <path class="st0" d="M7.67,27.27l.38-1.2v-4.66l.08-.6-.23.6-2.41,5.87h-.08l-2.41-5.87-.23-.6.08.6v4.66l.38,1.2H0l.38-1.2v-8.13l-.38-1.2h3.76l1.73,4.24.08.35.08-.35,1.73-4.24h3.84l-.38,1.2v8.13l.38,1.2h-3.54Z"/>
      <path class="st0" d="M18.28,27.27l.15-1.2-.23-.9-.15-.15h-2.48l-.15.15-.23.9.15,1.2h-3.46l.6-1.2,2.11-8.35-.23-.98h5.12l-.23.98,2.11,8.35.6,1.2h-3.69ZM16.88,19.37l-.08-.53-.08.53-.75,3.24.15.15h1.35l.15-.15-.75-3.24Z"/>
      <path class="st0" d="M28.89,27.27h-4.21l-2.11-2.11v-6.32l2.11-2.11h4.06l1.02,3.08-1.81-.6h-1.02l-.9.45-.38.75v3.16l.38.75.9.45h1.17l1.81-.6-1.02,3.08Z"/>
      <path class="st0" d="M37.62,27.27h-4.66l-1.96-1.96v-6.62l1.96-1.96h4.66l1.96,1.96v6.62l-1.96,1.96ZM36.57,19.98l-.3-.6-.6-.3h-.75l-.6.3-.3.6v3.91l.3.6.6.3h.75l.6-.3.3-.6v-3.91Z"/>
      <path class="st0" d="M49.96,17.94v9.33h-2.03l-3.31-5.57-.3-.75.08.75v4.36l.38,1.2h-3.31l.38-1.2v-8.13l-.45-1.2h3.24l2.63,4.44.3.75-.08-.75v-3.24l-.38-1.2h3.24l-.38,1.2Z"/>
      <path class="st0" d="M58.84,27.27h-6.55l.38-1.2v-8.13l-.38-1.2h6.55l2.11,2.11v6.32l-2.11,2.11ZM57.94,20.2l-.38-.75-.75-.38h-.98l-.15.15v5.34l.23.23h.9l.75-.38.38-.75v-3.46Z"/>
      <path class="st0" d="M69.37,27.27h-4.67l-1.96-1.96v-6.62l1.96-1.96h4.67l1.96,1.96v6.62l-1.96,1.96ZM68.32,19.98l-.3-.6-.6-.3h-.75l-.6.3-.3.6v3.91l.3.6.6.3h.75l.6-.3.3-.6v-3.91Z"/>
    </g>
  </g>
  <g>
    <path class="st0" d="M271.33,32.93c-.37-.17-.67-.29-.95-.44-2.55-1.34-5.09-2.72-7.66-4.02-.66-.33-1.45-.52-2.18-.54-2.92-.06-5.85-.05-8.77,0-.81.01-1.03-.26-1.03-1.03.02-6.19.02-12.38,0-18.58,0-.74.17-1.05,1.01-1.05,6.25.03,12.51.03,18.76,0,.67,0,.96.16.96.89-.02,8-.01,16-.02,24,0,.22-.06.44-.11.77ZM261.11,21.57c2.37,0,4.08-1.64,4.07-3.89,0-2.18-1.85-4.05-4.01-4.06-2.21,0-4.15,1.88-4.16,4.05,0,2.21,1.77,3.9,4.1,3.89ZM270.73,23.01c-.05-1.51-1.13-2.97-2.5-3.42-.91-.3-1.65,0-2.28.63-.6.6-.8,1.32-.44,2.11.29.64.69,1.23.94,1.88.12.31.01.72,0,1.08-.38-.09-.93-.06-1.11-.3-.47-.62-.77-1.37-1.19-2.16-.35.03-.8.06-1.24.09-.1,1.65,1.13,3.55,2.57,4.01.91.29,1.72.1,2.4-.59.64-.65.72-1.42.41-2.23-.2-.53-.51-1.01-.77-1.52-.23-.46-.71-1.03,0-1.35.26-.12.83.42,1.24.69.1.06.16.23.18.35.21,1.23.93,1.14,1.79.72ZM251.58,11.66c-.02,1.68,1.08,3.41,2.46,3.95.89.35,1.72.23,2.43-.43.73-.67.86-1.49.49-2.38-.22-.52-.59-.99-.75-1.52-.13-.41-.05-.88-.06-1.33.43.23.87.44,1.28.69.12.08.16.29.23.44q.5,1.18,1.86.58c-.3-1.52-1.03-2.71-2.55-3.32-.89-.36-1.65-.06-2.29.57-.64.62-.84,1.36-.47,2.19.26.58.65,1.1.85,1.7.13.37.04.83.05,1.25-.42-.16-1-.2-1.23-.51-.43-.56-.65-1.28-.99-1.98-.4.03-.83.05-1.31.09ZM266.32,14.69c-.05,1.29.07,1.46,1,1.21,1.28-.35,2.31-1.07,2.94-2.26.5-.94.33-1.8-.37-2.58-.67-.75-1.5-.85-2.38-.48-.52.22-.99.59-1.53.75-.41.13-.9.04-1.35.05.21-.41.39-.83.63-1.22.07-.12.28-.18.43-.24q1.26-.57.68-1.88c-1.39.24-2.5.9-3.18,2.17-.51.94-.37,1.83.35,2.58.71.75,1.54.91,2.47.46.6-.29,1.17-.67,1.79-.91.27-.1.65.05.98.08-.07.33-.03.81-.23.96-.66.48-1.4.84-2.23,1.32ZM255.12,19.35c-1.6.13-3.06,1.24-3.44,2.63-.25.88.08,1.58.7,2.17.57.54,1.26.8,2.03.44.64-.29,1.24-.69,1.89-.93.35-.13.78-.02,1.17-.02-.13.4-.13.97-.41,1.18-.6.45-1.33.71-2.03,1.05-.09,1.46.21,1.76,1.52,1.06.91-.48,1.74-1.24,2.37-2.05.64-.82.39-1.78-.31-2.56-.7-.78-1.55-.87-2.47-.47-.43.19-.82.49-1.26.62-.49.14-1.38.31-1.47.15-.4-.77.36-1.06.87-1.41.05-.04.13-.04.19-.07q1.19-.5.66-1.78Z"/>
    <path class="st0" d="M292.64,19.22c1.45-.43,2.43-.04,3.03,1.34.31.72.83,1.35,1.34,2.16.52-.81,1.07-1.46,1.38-2.21.59-1.45,1.66-1.61,3.03-1.32v8.66h-1.9v-5.18c-.07-.03-.15-.05-.22-.08-.73,1.08-1.47,2.16-2.28,3.36-.79-1.16-1.51-2.22-2.4-3.55v5.44h-1.96v-8.63Z"/>
    <path class="st0" d="M286.5,13.46v2.61h-1.9V7.19c1.84.12,3.67.13,5.47.38,1.03.14,1.64,1,1.81,2.05.18,1.08-.01,2.07-.88,2.82-.25.22-.53.38-.87.62.66.97,1.31,1.92,1.98,2.91-1.94.41-2.13.33-3.17-1.23-.55-.82-.95-1.87-2.43-1.28ZM286.58,11.51c.84,0,1.61.14,2.29-.05.42-.12.93-.7.98-1.12.04-.34-.48-.98-.86-1.09-.74-.21-1.56-.14-2.41-.19v2.46Z"/>
    <path class="st0" d="M315.43,25.22v2.61h-1.88v-8.71c1.59,0,3.13-.05,4.67.02,1.31.06,2.28.91,2.56,2.05.33,1.3-.11,2.5-1.18,3.27-.16.11-.33.22-.56.36.67.98,1.32,1.94,1.98,2.91-1.52.5-2.15.3-2.95-.89-.17-.25-.36-.49-.49-.76-.42-.9-1.1-1.18-2.15-.85ZM315.47,23.32c.8,0,1.5.04,2.2-.01.67-.05,1.13-.4,1.15-1.14.03-.72-.36-1.16-1.05-1.23-.75-.07-1.51-.02-2.3-.02v2.4Z"/>
    <path class="st0" d="M335.78,23.51c0,2.62-2.03,4.55-4.74,4.53-2.66-.02-4.65-1.96-4.65-4.53,0-2.62,2.02-4.58,4.71-4.58,2.72,0,4.68,1.92,4.68,4.58ZM333.72,23.48c-.02-1.52-1.19-2.73-2.64-2.73-1.46,0-2.61,1.21-2.6,2.75,0,1.53,1.17,2.72,2.64,2.72,1.48,0,2.63-1.21,2.61-2.74Z"/>
    <path class="st0" d="M303.7,14.39h4.8v1.66h-6.66V7.32h6.58v1.71h-4.61v1.76h4.05v1.74h-4.05c-.03.61-.06,1.13-.1,1.86Z"/>
    <path class="st0" d="M291.3,27.91c-.48,0-.75-.04-1.01,0-.85.15-1.34-.22-1.5-1.02-.17-.81-.63-1.1-1.44-.97-.29.05-.61.05-.9,0-1.21-.19-1.98.12-2.36,1.43-.32,1.11-1.36.33-2.24.61.96-2.26,1.84-4.35,2.73-6.43.21-.49.45-.97.63-1.47.24-.66.5-1.11,1.39-1.11.91,0,1.1.51,1.37,1.14,1.07,2.55,2.17,5.08,3.33,7.81ZM285.49,24.09h2.16c-.36-.87-.68-1.62-1.1-2.62-.42,1.03-.73,1.79-1.06,2.62Z"/>
    <path class="st0" d="M312.14,27.84q-1.91.16-2.93-1.9c-1.01,0-2.05-.05-3.08.03-.29.02-.67.37-.8.65-.68,1.48-.66,1.49-2.53,1.15.62-1.46,1.23-2.89,1.84-4.32.56-1.32,1.1-2.65,1.71-3.95.12-.24.55-.48.83-.47.45,0,1.17.09,1.29.37,1.26,2.75,2.43,5.55,3.66,8.44ZM307.42,21.45c-.4,1-.72,1.79-1.08,2.66h2.16c-.35-.87-.67-1.65-1.08-2.66Z"/>
    <path class="st0" d="M273.86,16.04c1.23-2.88,2.41-5.68,3.63-8.46.23-.52,1.86-.52,2.09,0,1.22,2.78,2.39,5.58,3.59,8.38-1.79.38-1.88.34-2.56-1.16-.04-.09-.08-.26-.13-.26-1.05-.13-2.11-.3-3.17-.33-.29-.01-.73.3-.87.58-.73,1.41-.71,1.43-2.58,1.25ZM277.41,12.37h2.17c-.36-.89-.68-1.68-1.08-2.67-.41,1-.74,1.81-1.1,2.67Z"/>
    <path class="st0" d="M279.83,21.43c-.88-.27-1.63-.59-2.41-.68-.34-.04-.73.41-1.1.63.26.3.47.73.8.87.76.34,1.6.48,2.37.8,1.11.46,1.62,1.27,1.53,2.34-.09,1.12-.61,1.99-1.74,2.35-1.95.62-3.68.15-5.32-1.13.41-.49.77-.92,1.1-1.31.74.31,1.4.63,2.09.86.3.1.69.14.98.03.34-.13.6-.44.89-.68-.23-.28-.41-.68-.72-.82-.57-.27-1.21-.39-1.81-.58-1.73-.55-2.27-1.28-2.12-2.9.12-1.22,1.04-2.07,2.57-2.25,1.36-.17,2.59.2,3.79,1.1-.32.47-.63.92-.91,1.35Z"/>
    <path class="st0" d="M295.66,9.13h-2.62v-1.8h7.24v1.8h-2.6v6.94h-2.02v-6.94Z"/>
    <path class="st0" d="M324.59,27.86h-1.87v-8.69h1.87v8.69Z"/>
    <path class="st0" d="M263.29,17.74c-.02,1.19-1,2.13-2.19,2.12-1.24-.01-2.21-1.02-2.17-2.26.04-1.13,1.1-2.24,2.15-2.26,1.14-.02,2.23,1.16,2.21,2.39Z"/>
  </g>
  <g>
    <path class="st0" d="M140.28,6.06l3.24,5.26v-5.26h1.94v8.25h-2.35l-3.2-5.26c-.18-.03-.11.08-.12.2-.04.52.07.98.08,1.45.03,1.2-.03,2.4,0,3.6h-1.94V6.06h2.35Z"/>
    <path class="st0" d="M157.6,9.21c2.22-1.82,4.82,0,4.61,2.71-.2,2.53-2.9,3.86-4.77,1.98-.02.24.09.56-.12.73h-1.62l-.12-.12V6.26l.12-.12h1.78l.12.12v2.95ZM157.95,12.74c.1.1.46.31.6.33,2.03.43,2.35-2.59.67-2.94-1.5-.31-2.28,1.66-1.27,2.6Z"/>
    <polygon class="st0" points="154.85 7.83 151.41 7.83 151.29 7.96 151.29 9.37 154.32 9.37 154.45 9.49 154.45 10.99 151.41 10.99 151.29 11.11 151.29 12.57 151.41 12.69 154.85 12.69 154.85 14.39 149.35 14.39 149.35 6.26 149.47 6.14 154.73 6.14 154.85 6.26 154.85 7.83"/>
    <rect class="st0" x="146.43" y="8.64" width="1.94" height="7.93"/>
    <path class="st0" d="M146.54,6.16c.81-.96,2.59.05,1.79,1.26-.83,1.25-2.71-.18-1.79-1.26Z"/>
    <polygon class="st0" points="164.72 6.14 164.72 12.53 169.9 12.53 169.9 14.3 162.9 14.3 162.78 14.18 162.78 6.26 162.9 6.14 164.72 6.14"/>
    <path class="st0" d="M173.22,14.14h-1.86v-3.48h-2.14l-.97,1.29h-2.14l4.41-6.55h2.59l.12.12v8.61ZM171.36,9.17v-1.58c-.25.25-1.08,1.28-1.13,1.58-.03.16.02.11.12.12.26.04.61-.01.88-.01l.13-.11Z"/>
    <path class="st0" d="M137.93,23.2v-5.42h4.9c1.11,0,2.55,1,2.7,2.15.58,4.27-5.04,3.1-7.6,3.27ZM138.74,22.39h3.76c.16,0,.85-.19,1.03-.26,1.77-.66,1.54-2.97-.25-3.44-.21-.05-.85-.19-1.03-.19h-3.52v3.88Z"/>
    <path class="st0" d="M152.91,17.78v.73h-5.67v1.46h3.52c.21.17.1.48.12.73h-3.64v1.7h5.63c.22.19.09.54.12.81h-6.56v-5.42h6.48Z"/>
    <polygon class="st0" points="164.97 17.54 164.97 25.3 162.94 25.3 162.94 20.13 160.72 25.22 159.15 25.29 156.95 20.21 156.95 32.58 155.05 32.58 154.93 32.46 154.93 17.54 157.97 17.54 159.99 21.82 161.93 17.54 164.97 17.54"/>
    <path class="st0" d="M170.11,17.46c2.13.24,2.63,1.57,2.55,3.52-.05,1.31-.47,2.45-1.79,2.92l2.19,8.68h-2.1l-2.11-8.48h-.72s0,8.48,0,8.48h-2.1v-15.12c1.3.11,2.82-.14,4.09,0ZM168.12,22.15h1.25c.36,0,1.1-.27,1.17-.69s.08-1.8-.24-2.09c-.06-.05-.56-.29-.6-.29h-1.58v3.07Z"/>
    <path class="st0" d="M165.13,32.58h-1.66l-.16-.48c-1.33,1.34-4.25.43-3.58-1.72.43-1.38,2.46-1.36,3.62-1.48-.2-1.3-1.72-.9-2.46-.29-.19-.22-.99-.83-.95-1.08,0-.04.63-.44.73-.5,1.28-.65,3.56-.72,4.19.83.06.15.26.76.26.87v3.84ZM163.35,30.08c-.48-.03-1.73,0-1.91.56-.28.87,1.2.95,1.67.45.25-.27.27-.67.24-1.01Z"/>
    <path class="st0" d="M147,31.21l.37.97.37-.97h.24s.2,1.21.2,1.21l.52-1.17c.01-.08.15-.06.2-.04.19.08.55,1.12.61,1.37-.26.06-.16-.27-.32-.36-.11-.06-.56-.07-.68-.03-.14.05-.11.23-.18.31-.39.5-.39-.82-.44-1.05l-.53,1.05-.49-1.05c-.05,0-.15.81-.19.95s.06.22-.17.19l.24-1.37h.24ZM149.1,32.1c.05-.13-.22-.8-.32-.73l-.24.73h.57Z"/>
    <path class="st0" d="M150.56,24.82c.47-.02,1.31-.09,1,.63-.06.14-.3.14-.27.3l.36.29.52-1.16.2-.04.62,1.33c-.25.2-.19-.3-.25-.35-.22,0-.69-.08-.84.07-.14.14-.02.44-.39.31-.26-.09-.25-.53-.66-.56-.31-.02.09.64-.29.57v-1.37ZM150.72,25.55c.33-.03.89-.03.69-.49l-.69-.16v.65ZM152.58,25.63c.07-.07-.21-.64-.28-.65l-.28.64h.57Z"/>
    <path class="st0" d="M147.81,29.19l-.77.08v.25c.19.14.51.13.69.28s.09.32.24.36c0-.2.42-1.18.61-1.13.12.03.6,1.16.61,1.37l-.25-.31h-.75s-.13.31-.13.31c-.17.02-.17,0-.16-.16-.32.29-.87.39-1.13,0,.04-.03.9.27.97-.13.05-.31-.68-.3-.81-.47-.41-.52.58-.87.9-.45ZM148.86,29.91c-.03-.08-.3-.81-.4-.73l-.24.73h.65Z"/>
    <path class="st0" d="M148.46,28.13c.19.04.13-.02.18-.1.21-.33.23-.87.55-1.11.01.23-.47,1.42-.61,1.46-.2.05-.63-1.04-.68-1.25l-.9-.05.08.45.65.16h-.65s-.08.53-.08.53c.03.03,1.13-.08.81.16l-.9-.03-.04-1.34,1.1-.04.48,1.18Z"/>
    <path class="st0" d="M150.48,28.38v-1.46c1.63-.16,1.63,1.65,0,1.46ZM150.64,28.22c1.18.12,1.17-1.26,0-1.13v1.13Z"/>
    <path class="st0" d="M145.38,27.04l.2-.12.85,1.05c.06-.31-.15-.85.16-1.05v1.46c-.37-.26-.58-.69-.87-1.03-.05-.06,0-.15-.19-.1v1.13c-.05,0-.16-.11-.16-.12v-1.21Z"/>
    <path class="st0" d="M149.27,29.15l.25-.08.81,1.01c.06-.31-.15-.85.16-1.05v1.37c-.47-.17-.63-.86-1.05-1.13v1.21c-.05,0-.16-.11-.16-.12v-1.21Z"/>
    <path class="st0" d="M143.92,30.48v-1.46c1.62-.18,1.64,1.59,0,1.46ZM144.09,29.19v1.13c1.17.15,1.19-1.34,0-1.13Z"/>
    <path class="st0" d="M149.59,31.21c.7-.15,1.54.26.73.85l.33.52c-.35-.05-.39-.47-.77-.49-.31-.02.08.56-.29.49v-1.37ZM150.39,31.38h-.64s0,.55,0,.55c.24.01.7.06.72-.28,0-.05-.06-.26-.09-.27Z"/>
    <path class="st0" d="M149.27,24.82c.76-.16,1.64.25.73.85l.4.53c-.23.18-.48-.57-.77-.57-.38,0-.02.64-.36.57v-1.37ZM150.15,24.99l-.72-.09.04.57c.12.18.5.01.68-.01v-.47Z"/>
    <path class="st0" d="M152.99,30.4l-.3-.33-.82.02-.25.31.57-1.37c.09-.01.16-.02.24.03.1.06.51,1.13.56,1.34ZM152.58,29.91c.06-.06-.23-.8-.32-.73l-.24.73h.57Z"/>
    <path class="st0" d="M152.42,26.92l.57,1.46-.36-.41-.76.02-.13.39c-.17-.12-.08-.15-.04-.28.04-.16.49-1.35.73-1.17ZM152.58,27.81c.02-.09-.01-.16-.04-.25-.03-.11-.18-.43-.29-.48l-.24.73h.57Z"/>
    <path class="st0" d="M150.32,28.38l-.36-.41-.68.02-.25.39c-.01-.23.47-1.42.61-1.46.21-.05.73,1.21.69,1.46ZM149.75,27.16c-.15-.14-.39.54-.4.65h.65l-.24-.65Z"/>
    <path class="st0" d="M145.3,29.02h.97c.32.25-.78.13-.81.16l.08.45.65.08-.73.04v.57c.17,0,.35,0,.53,0,.11,0,.34-.07.28.12-.02.06-.89.11-.97-.08v-1.33Z"/>
    <path class="st0" d="M148.13,24.82l.97.04-.81.09v.44s.73.04.73.04c.07.25-.66.05-.73.12v.49s1.13-.08.81.16h-.97s0-1.37,0-1.37Z"/>
    <path class="st0" d="M147.48,24.82s.06.17-.1.14c-.24-.05-.41-.12-.66,0-.31.6.79.27.84.78.07.69-1.27.48-1.05.2.2.1.89.19.89-.12,0-.35-.86-.24-.9-.65-.04-.44.79-.55.97-.36Z"/>
    <path class="st0" d="M152.99,32.58c-.26.06-.16-.27-.32-.36-.11-.07-.63-.07-.73,0-.11.08-.06.41-.32.37l.57-1.37c.33-.22.74,1.12.81,1.37ZM152.58,32.1c.06-.06-.18-.72-.28-.73l-.28.73h.57Z"/>
    <polygon class="st0" points="151.86 29.02 151.86 29.19 151.29 29.19 151.29 30.4 151.13 30.4 151.13 29.19 150.64 29.19 150.64 29.02 151.86 29.02"/>
    <polygon class="st0" points="151.86 31.21 151.86 31.37 151.29 31.37 151.29 32.58 151.13 32.58 151.13 31.37 150.64 31.37 150.64 31.21 151.86 31.21"/>
    <rect class="st0" x="147.73" y="24.82" width=".16" height="1.37"/>
  </g>
</svg>