<?xml version="1.0" encoding="UTF-8"?>
<svg id="Layer_1" xmlns="http://www.w3.org/2000/svg" version="1.1" viewBox="0 0 336 31.6">
  <!-- Generator: Adobe Illustrator 30.2.1, SVG Export Plug-In . SVG Version: 2.1.1 Build 1)  -->
  <defs>
    <style>
      .st0 {
        fill: #231f20;
      }

      .st1 {
        fill: #fafafa;
      }
    </style>
  </defs>
  <rect class="st1" x="-27" y="-266.7" width="390" height="844"/>
  <g>
    <g>
      <path class="st0" d="M113.597,10.56c-.787-1.063-1.821-1.823-2.999-2.415-.508-.251-1.037-.414-1.596-.559-.474-.005-.888.285-.888.779l-.004,4.321c-1.769,1.096-3.812,1.654-5.895,1.603l-2.366-1.917c-.228-.184-.559-.201-.837-.065-.18.087-.352.332-.421.59-.347,1.294-.523,2.568-.494,3.898l1.541.36c.017-.785.037-1.451.142-2.202.033-.234.422-.279.571-.16l1.29,1.036c2.642.182,5.232-.5,7.499-1.936.232-.147.526-.375.527-.624l.011-3.22c0-.105.117-.308.212-.338.082-.025.268-.004.369.02.95.535,1.738,1.217,2.341,2.126.161.2.429.375.716.325,4.403-.774,8.772,1.16,11.16,4.956.542-.061,1.05-.184,1.588-.372-2.499-4.416-7.398-6.876-12.466-6.204"/>
      <path class="st0" d="M101.529,10.073c2.695-4.197,7.234-6.339,12.03-5.775,3.644.429,6.993,2.514,9.002,5.721l1.747.669c.06.023.241.005.252-.055l.04-.218c-.448-.818-.905-1.546-1.442-2.319-1.514-1.958-3.525-3.484-5.802-4.408-5.863-2.379-12.548-.577-16.388,4.432-.514.738-.987,1.481-1.418,2.294l.049.197c.035.141,1.236-.407,1.932-.539"/>
      <path class="st0" d="M120.831,19.204c-1.829-.821-3.896-.896-5.743-.068-1.864.835-3.954.922-5.831.072-1.94-.877-4.07-.871-6.006.014-1.549.708-3.223.718-4.877.283l.449,1.666c1.556.374,3.088.217,4.559-.432,1.739-.768,3.783-.879,5.54-.085,2.041.923,4.199.951,6.243.019,1.77-.807,3.831-.711,5.592.068,1.453.642,2.959.797,4.531.444l.459-1.686c-1.716.483-3.36.393-4.915-.294"/>
      <path class="st0" d="M120.783,23.063c-1.904-.87-4.006-.83-5.908.023-1.807.811-3.864.785-5.664-.021-1.948-.873-4.084-.837-6.01.056-1.02.474-2.072.567-3.203.562.322.601.645,1.077,1.028,1.578.909-.078,1.709-.32,2.532-.678,1.325-.575,2.79-.776,4.178-.413.439.115.87.235,1.272.422,1.943.904,4.12.908,6.07.023,1.144-.519,2.912-.839,4.004-.506l1.292.394c.897.37,1.746.693,2.735.752.384-.494.705-.97,1.027-1.575-1.192.029-2.285-.129-3.354-.618"/>
      <path class="st0" d="M114.999,26.943c-1.877.843-3.982.853-5.857-.005-2.016-.881-4.252-.801-6.263.25l1.296,1.014c1.681-.504,3.406-.403,5.006.312,1.854.829,3.922.827,5.778.001,1.603-.712,3.326-.822,5.006-.312l1.296-1.01c-1.932-1.031-4.231-1.16-6.261-.249"/>
      <path class="st0" d="M143.996,18.588c-1.217,0-1.87.492-1.963,1.377h1.213c.115-.259.318-.377.674-.377.485,0,.712.161.712.374,0,.366-.57.305-1.4.48-.908.192-1.308.687-1.308,1.517,0,.939.618,1.442,1.666,1.442.407,0,.752-.059,1.095-.265l.071.252h1.082v-3.59c0-.675-.596-1.209-1.842-1.209M143.796,22.375c-.421,0-.655-.133-.655-.486,0-.279.161-.438.446-.512.291-.075,1.045-.274,1.045-.274.051.607-.117,1.272-.836,1.272"/>
      <path class="st0" d="M157.574,18.588c-1.217,0-1.87.492-1.963,1.377h1.213c.115-.259.318-.377.674-.377.485,0,.712.161.712.374,0,.366-.57.305-1.4.48-.908.192-1.308.687-1.308,1.517,0,.939.618,1.442,1.666,1.442.407,0,.752-.059,1.095-.265l.071.252h1.082v-3.59c0-.675-.596-1.209-1.842-1.209M157.374,22.375c-.421,0-.655-.133-.655-.486,0-.279.161-.438.446-.512.291-.075,1.045-.274,1.045-.274.051.607-.117,1.272-.836,1.272"/>
      <path class="st0" d="M171.663,18.588c-1.217,0-1.87.492-1.963,1.377h1.213c.115-.259.318-.377.674-.377.485,0,.712.161.712.374,0,.366-.57.305-1.4.48-.908.192-1.308.687-1.308,1.517,0,.939.618,1.442,1.666,1.442.407,0,.752-.059,1.095-.265l.071.252h1.082v-3.59c0-.675-.596-1.209-1.842-1.209M171.463,22.375c-.421,0-.655-.133-.655-.486,0-.279.161-.438.446-.512.291-.075,1.045-.274,1.045-.274.051.607-.117,1.272-.836,1.272"/>
      <path class="st0" d="M167.057,18.676c-1.279,0-2.029.715-2.029,1.617v3.094h1.318v-3.076c0-.382.332-.571.71-.571s.71.19.71.571v2.501c0,.318.257.575.575.575h.744v-3.005c0-.902-.75-1.705-2.029-1.705"/>
      <path class="st0" d="M163.89,18.792h-.744v4.595h1.319v-4.02c0-.318-.257-.575-.575-.575"/>
      <path class="st0" d="M153.003,17.446l-1.114,4.221-1.115-4.221h-1.294c-.317,0-.574.257-.574.575v5.372h1.237v-4.246l1.096,4.246h1.311l1.1-4.265v4.265h1.237v-5.947h-1.883Z"/>
      <path class="st0" d="M163.89,17.446h-.744v1.064h1.319v-.489c0-.318-.257-.575-.575-.575"/>
      <path class="st0" d="M135.98,18.792h-.744v4.595h1.319v-4.02c0-.318-.257-.575-.575-.575"/>
      <path class="st0" d="M135.98,17.446h-.744v1.064h1.319v-.489c0-.318-.257-.575-.575-.575"/>
      <path class="st0" d="M161.277,18.966c-.051-.265-.284-.466-.564-.466h-.744v4.887h1.319v-2.488c0-.75.728-.843,1.355-.804v-1.3c-.313-.062-.928-.032-1.366.17"/>
      <path class="st0" d="M149.861,11.698v-1.29c-.313-.062-.928-.032-1.366.17-.051-.266-.284-.466-.564-.466h-.744v4.887h1.318v-2.443c0-.535.277-.833.908-.858h.448Z"/>
      <path class="st0" d="M140.861,17.446h-.744v1.706c-.277-.325-.666-.565-1.217-.565-1.203,0-1.867,1.203-1.867,2.406,0,1.48.636,2.406,2.037,2.406.512,0,.918-.151,1.202-.306l.082.292h1.082v-5.366c0-.318-.257-.575-.575-.575M139.226,22.311c-.64,0-.907-.572-.907-1.316,0-.701.267-1.272.907-1.272.614,0,.91.502.91,1.294,0,.694-.275,1.294-.91,1.294"/>
      <path class="st0" d="M160.821,9.641c0-.318-.257-.575-.575-.575h-.744v1.706c-.277-.325-.666-.565-1.217-.565-1.203,0-1.867,1.203-1.867,2.406,0,1.48.636,2.406,2.037,2.406.512,0,.918-.151,1.202-.306l.082.292h1.083v-5.366ZM158.611,13.931c-.641,0-.907-.572-.907-1.316,0-.701.267-1.272.907-1.272.614,0,.91.502.91,1.294,0,.694-.275,1.294-.91,1.294"/>
      <path class="st0" d="M141.214,11.932c0-.382.332-.571.71-.571s.71.19.71.571v2.501c0,.317.257.574.575.574h.744v-3.005c0-.901-.75-1.704-2.029-1.704s-2.029.715-2.029,1.616v3.094h1.318v-3.075Z"/>
      <path class="st0" d="M152.468,14.999c1.494,0,2.095-1.203,2.095-2.406,0-1.48-.799-2.406-2.095-2.406-1.688,0-2.193,1.203-2.193,2.406,0,1.479.745,2.406,2.193,2.406M152.415,11.299c.604,0,.868.486.868,1.339,0,.796-.264,1.294-.868,1.294s-.868-.486-.868-1.338c0-.797.264-1.294.868-1.294"/>
      <path class="st0" d="M137.246,14.999c1.031,0,1.868-.581,2.019-1.592h-1.241c-.139.299-.382.504-.744.504-.62,0-.89-.416-.89-.935h2.93c.014-.127.021-.255.021-.383,0-1.48-.799-2.406-2.095-2.406-1.687,0-2.193,1.203-2.193,2.406,0,1.479.745,2.406,2.193,2.406M137.201,11.299c.451,0,.777.262.777.79l-1.588.007c0-.515.386-.797.811-.797"/>
      <path class="st0" d="M164.258,13.406c-.139.299-.383.504-.744.504-.62,0-.89-.416-.89-.935h2.93c.013-.127.021-.255.021-.383,0-1.48-.799-2.406-2.095-2.406-1.688,0-2.193,1.203-2.193,2.406,0,1.479.745,2.406,2.193,2.406,1.031,0,1.868-.581,2.019-1.592h-1.241ZM163.436,11.299c.451,0,.777.262.777.79l-1.589.007c0-.515.386-.797.811-.797"/>
      <path class="st0" d="M133.08,17.892l-1.085,3.761-1.203-4.207h-1.463l2.069,5.94h1.229l2.033-5.94h-.988c-.275,0-.517.182-.593.446"/>
      <path class="st0" d="M131.86,15.05c1.838,0,2.58-1.062,2.644-2.255h-1.29c-.106.734-.634,1.085-1.305,1.085-.801,0-1.501-.53-1.501-1.963s.699-1.91,1.501-1.91c.585,0,1.004.215,1.209.659.094.204.3.334.525.334h.861c-.064-1.193-.895-2.203-2.644-2.203-1.306,0-2.782.707-2.782,3.143,0,2.272,1.232,3.109,2.782,3.109"/>
      <path class="st0" d="M146.026,9.645c0-.318-.257-.575-.575-.575h-.744v5.229c0,.391.317.707.707.707h1.264v-.991h-.653v-2.717h.151c.277,0,.501-.224.501-.502v-.378h-.653v-.774Z"/>
    </g>
    <g>
      <path class="st0" d="M286.413,20.592l1.145-.054c.007-.133.02-.245.019-.355-.007-.958-.018-1.916-.024-2.874-.003-.569.045-.615.606-.622.191-.002.384-.009.575.004.341.024.448.133.455.483.015.689.015,1.379.021,2.068.018,1.813.035,3.627.053,5.44.006.689,0,1.379.012,2.068.007.382.052.763.059,1.145.007.412-.106.517-.523.521-.256.002-.511-.001-.767-.009-.315-.011-.377-.085-.38-.391-.018-1.813-.037-3.626-.059-5.439,0-.062-.011-.124-.019-.2-.399-.141-.788-.035-1.223-.024,0,.152-.001.289,0,.427.011,1.418.022,2.835.034,4.253.004.344.017.688.027,1.032.008.301-.008.338-.302.366-.355.033-.713.049-1.07.048-.263,0-.327-.078-.338-.356-.019-.497-.042-.995-.042-1.493-.004-2.349-.002-4.7.002-7.05,0-.778-.005-1.557-.003-2.335,0-.406.039-.443.43-.451.281-.005.563-.018.844-.004.306.015.409.127.413.433.011.969.015,1.939.025,2.909.002.137.016.275.029.464"/>
      <path class="st0" d="M292.777,26.796c.128.007.252.019.376.019.269,0,.537-.011.806-.011.364,0,.43.06.443.412.01.268.016.536.012.804-.004.265-.101.375-.374.379-.882.015-1.764.016-2.646.027-.077.012-.156-.008-.216-.057-.06-.049-.097-.121-.101-.199-.026-.137-.046-.276-.057-.415-.031-1.379-.063-2.758-.083-4.136-.029-2.082-.052-4.164-.071-6.245-.006-.606.015-.628.614-.642.857-.019,1.713-.03,2.569-.042.323-.005.39.052.415.357.025.305.048.611.056.917.008.292-.085.383-.382.403-.482.032-.965.062-1.495.097-.024.687-.012,1.375.034,2.061h1.056c.115,0,.23-.006.345-.002.308.01.384.075.411.38.025.292.045.586.05.88.006.341-.053.402-.389.428-.382.029-.765.052-1.148.068-.188.008-.279.084-.278.28.006,1.354.009,2.708.014,4.061.007.06.019.118.037.176"/>
      <path class="st0" d="M300.392,27.922c.029.082.016.173-.034.245-.049.071-.131.114-.217.115-.268.004-.536,0-.765.002-.64.003-.658.004-.843-.63-.264-.906-.498-1.821-.744-2.732-.022-.107-.069-.207-.136-.293-.013.101-.021.202-.024.303.016.932.034,1.863.054,2.795.006.093.005.187-.002.28-.026.187-.181.329-.371.337-.382.016-.767.011-1.15-.009-.199-.01-.214-.183-.219-.345-.014-.472-.049-.944-.047-1.416.009-1.686.04-3.372.047-5.058.006-1.405-.014-2.81-.016-4.215-.001-.585.028-.62.602-.598.549.005,1.096.048,1.639.13,1.008.182,1.662.794,1.928,1.792.166.672.199,1.371.1,2.056-.077.629-.38,1.21-.852,1.633-.065.061-.134.118-.207.17-.195.134-.228.285-.158.522.468,1.59.919,3.187,1.369,4.782.012.041.028.087.045.135M297.716,18.531c0,.823,0,1.622,0,2.422.003.048.008.095.017.142.58-.157.957-.718.883-1.315-.073-.825-.248-1.148-.9-1.249"/>
      <path class="st0" d="M304.329,27.107h-1.065c-.025.326-.048.629-.072.931-.019.238-.09.327-.327.334-.395.011-.792.001-1.187-.008-.072.007-.143-.02-.193-.073s-.072-.126-.06-.197c.005-.14.004-.281.019-.421.126-1.103.254-2.206.384-3.309.197-1.661.395-3.32.596-4.979.082-.685.16-1.369.251-2.052.058-.44.126-.499.561-.504.409-.005.818.002,1.227.014.274.008.367.082.409.355.084.542.159,1.085.223,1.63.196,1.661.389,3.322.577,4.983.16,1.395.319,2.79.477,4.185.03.268-.026.357-.299.374-.382.024-.767.019-1.15.018-.15.012-.28-.099-.292-.249-.027-.189-.045-.379-.06-.57-.011-.137-.012-.275-.021-.46M304.132,25.295c-.148-.836-.042-1.656-.293-2.442-.175.805-.296,1.621-.363,2.442h.656Z"/>
      <path class="st0" d="M308.83,16.688c.164.001.303.121.327.283.034.192.054.385.061.579.013,1.506.006,3.012.018,4.519.011,1.455.037,2.909.057,4.364.001.061.012.122.022.225.383,0,.75-.002,1.117,0,.424.003.48.052.514.483.022.267.035.535.038.803.003.299-.075.394-.378.411-.51.028-1.021.037-1.532.045-.396.007-.793.009-1.188-.001-.258-.006-.336-.084-.342-.311-.017-.854-.036-1.709-.042-2.563-.016-2.412-.031-4.825-.042-7.238-.002-.383-.027-.766-.024-1.148.002-.349.083-.435.425-.447.313-.01.624-.006.97-.004"/>
      <path class="st0" d="M312.488,23.065c-.027-1.583-.048-2.949-.073-4.314-.009-.51-.028-1.019-.037-1.53-.006-.367.077-.43.444-.466.717-.051,1.434.082,2.086.385.596.255,1.042.729,1.382,1.282.386.622.595,1.338.605,2.07.027,1.365.061,2.73.06,4.095-.001,1.103-.45,2.062-1.109,2.916-.385.474-.946.769-1.554.817-.458.039-.919.048-1.378.025-.361-.006-.394-.044-.398-.405-.015-1.009-.024-2.017-.029-3.025-.003-.689,0-1.378,0-1.85M314.197,18.814c.032,1.29.084,2.538.088,3.785.004,1.255-.039,2.509-.063,3.776.324-.085.386-.121.527-.339.262-.381.417-.825.448-1.286.049-1.069.088-2.141.075-3.211-.017-.547-.089-1.092-.218-1.625-.104-.461-.318-.888-.858-1.101"/>
      <path class="st0" d="M284.641,10.453c-.046.218-.095.435-.137.654-.168.877-.331,1.755-.502,2.632-.017.258-.238.453-.496.437-.217.01-.435.008-.652-.004-.303-.015-.382-.072-.452-.367-.18-.757-.354-1.516-.52-2.276-.076-.408-.179-.811-.308-1.206-.025.126-.061.25-.073.377-.094.927-.184,1.855-.275,2.782-.009.102-.013.204-.028.305-.049.334-.098.375-.447.378-.306.003-.614.017-.92.001-.35-.018-.443-.101-.421-.447.056-.904.138-1.806.21-2.709.009-.114.033-.227.043-.341.146-1.781.288-3.563.437-5.344.065-.775.142-1.55.214-2.325.035-.375.129-.464.504-.467.256-.002.512-.006.766.013.385.028.433.074.506.443.163.826.316,1.653.481,2.479.15.751.307,1.499.464,2.248.017.082.053.161.108.323.232-1.144.447-2.201.659-3.258.124-.613.242-1.226.369-1.838.067-.324.133-.384.457-.4.293-.014.588-.011.882-.002.288.008.39.104.414.389.164,1.946.322,3.893.488,5.839.067.775.151,1.549.223,2.323.073.788.141,1.576.209,2.365.006.089.006.179.002.268-.015.429-.068.477-.503.469-.281-.004-.562-.006-.843-.013-.352-.009-.422-.061-.463-.416-.064-.558-.106-1.118-.163-1.677-.055-.543-.116-1.084-.174-1.626l-.062-.01Z"/>
      <path class="st0" d="M290.8,12.95h-1.065c-.025.326-.048.629-.072.931-.019.238-.09.327-.327.334-.395.011-.792.001-1.187-.008-.072.007-.143-.02-.193-.073-.049-.053-.072-.126-.06-.197.005-.14.004-.281.019-.421.126-1.103.254-2.206.384-3.309.197-1.661.395-3.32.596-4.98.082-.684.16-1.369.251-2.052.059-.44.126-.499.561-.504.409-.005.818.002,1.227.014.274.008.367.082.409.355.084.542.159,1.085.223,1.63.196,1.661.389,3.322.577,4.983.16,1.395.319,2.789.477,4.185.031.268-.025.357-.298.374-.382.024-.767.019-1.15.018-.15.012-.281-.099-.292-.249-.027-.189-.045-.379-.061-.57-.01-.137-.012-.275-.02-.46M290.602,11.138c-.148-.836-.042-1.656-.293-2.442-.175.805-.296,1.621-.363,2.442h.656Z"/>
      <path class="st0" d="M295.601,8.534c.022.873.042,1.806.073,2.738.012.35.08.675.396.91.23.172.472.167.728.152.423-.025.433-.025.5.378.054.327.1.656.128.986.027.323-.07.445-.364.539-.427.142-.883.167-1.323.074-.443-.095-.837-.345-1.113-.705-.415-.546-.725-1.143-.741-1.853-.05-2.236-.118-4.471.008-6.706.024-.461.157-.91.387-1.309.312-.536.802-.944,1.385-1.154.618-.243,1.21-.081,1.777.179.248.114.297.262.225.539-.102.395-.219.787-.341,1.177-.081.257-.183.298-.433.204-.12-.044-.233-.108-.355-.143-.397-.114-.659-.002-.785.389-.089.279-.138.569-.144.862-.018.894-.007,1.789-.007,2.742"/>
      <path class="st0" d="M298.734,5.151c.031-.655.252-1.286.635-1.819.183-.28.451-.496.764-.613.702-.263,1.404-.346,2.127-.052.61.229,1.07.741,1.23,1.372.093.306.148.621.165.94.038,1.315.055,2.631.071,3.946.009.728.005,1.457,0,2.184-.004.55-.077,1.097-.217,1.628-.157.605-.593,1.099-1.174,1.329-.695.312-1.478.367-2.211.155-.242-.078-.46-.216-.636-.4-.513-.495-.807-1.175-.814-1.888-.017-1.137-.005-2.274-.005-3.411-.008,0,.035-2.248.065-3.372M301.823,7.974c-.016-.544-.037-1.501-.077-2.457-.015-.228-.057-.454-.126-.672-.091-.312-.274-.404-.584-.322-.219.047-.389.22-.433.441-.081.295-.133.597-.154.902-.022,1.798-.027,3.596-.027,5.394.018.216.049.43.094.641.054.41.369.501.693.511.286.008.473-.184.53-.548.047-.289.074-.582.08-.874.01-.867.004-1.735.004-3.015"/>
      <path class="st0" d="M307.787,6.436c.005-.134.012-.515.009-.649-.018-.933-.038-1.865-.06-2.797-.009-.404.047-.464.457-.469.294-.004.589-.003.882.006.384.012.445.066.449.455.011.933-.004,1.866.016,2.798.048,2.337.11,4.673.163,7.01.007.306.006.613-.008.918-.016.324-.126.433-.448.453-.255.016-.512.018-.767.012-.336-.009-.362-.028-.446-.352-.255-.988-.503-1.978-.755-2.967-.045-.19-.114-.373-.206-.545-.005.139-.002.278.009.417.008.983.021,1.966.032,2.949.001.077.004.153-.001.23.004.072-.022.142-.073.193-.051.051-.121.077-.193.072-.396.005-.793.01-1.188.006-.215-.002-.279-.154-.285-.337-.011-.332-.018-.663-.022-.996-.021-2.184-.034-4.368-.064-6.552-.011-.804-.067-1.607-.092-2.412-.009-.318.002-.638.021-.956.015-.27.039-.296.325-.311.318-.018.636-.019.954-.005.35.018.409.082.481.423.18.848.357,1.697.54,2.544.065.295.154.583.268.863"/>
      <path class="st0" d="M311.317,8.908c-.027-1.583-.048-2.949-.073-4.314-.009-.51-.028-1.019-.037-1.53-.006-.367.077-.43.444-.466.717-.051,1.434.082,2.086.385.596.255,1.042.729,1.382,1.282.386.622.595,1.338.605,2.07.028,1.365.062,2.73.06,4.095,0,1.103-.45,2.062-1.109,2.916-.385.474-.946.769-1.554.817-.458.039-.919.048-1.378.025-.361-.006-.394-.044-.398-.405-.015-1.009-.024-2.017-.029-3.025-.004-.689,0-1.378,0-1.85M313.027,4.657c.032,1.29.084,2.538.088,3.785.004,1.255-.039,2.509-.063,3.776.324-.085.386-.121.527-.339.262-.381.417-.825.448-1.286.049-1.069.088-2.141.075-3.211-.017-.547-.089-1.092-.218-1.625-.104-.461-.318-.888-.858-1.101"/>
      <path class="st0" d="M317.221,5.151c.031-.655.252-1.286.635-1.819.183-.28.451-.496.764-.613.702-.263,1.404-.346,2.127-.052.61.229,1.07.741,1.23,1.372.093.306.148.621.165.94.038,1.315.055,2.631.071,3.946.009.728.005,1.457,0,2.184-.004.55-.077,1.097-.217,1.628-.157.605-.593,1.099-1.174,1.329-.695.312-1.478.367-2.211.155-.242-.078-.46-.216-.636-.4-.513-.495-.807-1.175-.814-1.888-.017-1.137-.004-2.274-.004-3.411-.008,0,.035-2.248.064-3.372M320.311,7.974c-.016-.544-.037-1.501-.077-2.457-.015-.228-.057-.454-.126-.672-.091-.312-.274-.404-.584-.322-.219.047-.389.22-.433.441-.081.295-.133.597-.154.902-.022,1.798-.027,3.596-.027,5.394.017.216.048.43.093.641.054.41.369.501.693.511.287.008.473-.184.53-.548.047-.289.074-.582.08-.874.01-.867.004-1.735.004-3.015"/>
      <path class="st0" d="M329.933,16.12c-.702.004-1.403.001-2.105.001v.012c-.702,0-1.405.005-2.107-.002-.374-.004-.456-.073-.49-.434-.026-.289-.034-.58-.022-.871.012-.295.089-.367.371-.367.79,0,1.58.013,2.369.017.6.004,1.2-.002,1.8.006.405.005.497.104.513.494.011.255.026.509.035.764.012.329-.031.379-.365.38"/>
      <path class="st0" d="M275.297,16.12c-.701.004-1.403.001-2.104.001v.012c-.703,0-1.405.005-2.107-.002-.374-.004-.456-.073-.49-.434-.026-.289-.034-.58-.022-.871.012-.295.089-.367.371-.367.79,0,1.58.013,2.369.017.6.004,1.2-.002,1.8.006.405.005.497.104.513.494.01.255.025.509.035.764.012.329-.031.379-.365.38"/>
    </g>
    <g>
      <path class="st0" d="M5.7,24.939h18.697V6.845H5.7v18.094ZM7.164,8.342h15.681v15.132H7.164v-15.132Z"/>
      <rect class="st0" x="17.934" y="10.464" width="2.326" height="10.856"/>
      <polygon class="st0" points="10.266 10.463 14.47 21.494 15.586 18.446 12.463 10.463 10.266 10.463"/>
      <path class="st0" d="M11.039,20.298c-.175.923-.806,1.392-1.532,1.904h3.005c-.538-.249-1.345-.999-1.473-1.904"/>
      <path class="st0" d="M38.872,9.396v.378h3.705v-1.293l-3.705.915Z"/>
      <path class="st0" d="M26.747,21.231v-.006c0-.593.443-1.078,1.075-1.078.384,0,.616.134.816.325l-.235.271c-.167-.155-.345-.259-.583-.259-.4,0-.689.327-.689.736v.005c0,.408.289.742.689.742.256,0,.42-.104.598-.271l.236.239c-.218.227-.456.37-.846.37-.607,0-1.06-.474-1.06-1.073"/>
      <path class="st0" d="M31.094,21.231v-.006c0-.587.453-1.078,1.093-1.078s1.087.485,1.087,1.072v.005c0,.587-.453,1.079-1.093,1.079s-1.087-.486-1.087-1.073M32.89,21.231v-.006c0-.405-.295-.741-.709-.741s-.703.33-.703.736v.005c0,.405.294.742.709.742s.703-.33.703-.736"/>
      <polygon class="st0" points="35.928 20.182 36.267 20.182 37.384 21.624 37.384 20.182 37.744 20.182 37.744 22.268 37.438 22.268 36.288 20.784 36.288 22.268 35.928 22.268 35.928 20.182"/>
      <path class="st0" d="M40.35,21.964l.22-.262c.2.173.4.271.658.271.227,0,.37-.105.37-.262v-.006c0-.149-.084-.229-.471-.318-.444-.108-.695-.239-.695-.623v-.006c0-.357.298-.605.712-.605.304,0,.545.093.756.262l-.196.277c-.188-.14-.375-.214-.566-.214-.214,0-.339.111-.339.247v.007c0,.16.095.232.494.327.441.107.671.265.671.61v.007c0,.39-.307.622-.745.622-.319,0-.62-.11-.87-.333"/>
      <polygon class="st0" points="45.073 20.522 44.412 20.522 44.412 20.182 46.103 20.182 46.103 20.522 45.442 20.522 45.442 22.268 45.073 22.268 45.073 20.522"/>
      <path class="st0" d="M48.699,20.183h.929c.262,0,.467.078.601.209.111.113.173.268.173.45v.005c0,.343-.205.548-.498.631l.563.789h-.432l-.513-.726h-.458v.726h-.366v-2.085ZM49.602,21.216c.262,0,.429-.137.429-.349v-.005c0-.223-.161-.346-.432-.346h-.533v.7h.536Z"/>
      <path class="st0" d="M53.029,21.383v-1.2h.367v1.186c0,.387.2.595.527.595.325,0,.524-.196.524-.581v-1.2h.367v1.183c0,.622-.351.935-.896.935s-.888-.313-.888-.917"/>
      <path class="st0" d="M57.433,21.231v-.006c0-.593.443-1.078,1.075-1.078.384,0,.617.134.816.325l-.235.271c-.167-.155-.345-.259-.583-.259-.4,0-.688.327-.688.736v.005c0,.408.288.742.688.742.256,0,.42-.104.599-.271l.235.239c-.218.227-.456.37-.846.37-.607,0-1.06-.474-1.06-1.073"/>
      <polygon class="st0" points="62.445 20.522 61.784 20.522 61.784 20.182 63.475 20.182 63.475 20.522 62.814 20.522 62.814 22.268 62.445 22.268 62.445 20.522"/>
      <path class="st0" d="M65.866,21.231v-.006c0-.587.453-1.078,1.093-1.078s1.087.485,1.087,1.072v.005c0,.587-.453,1.079-1.093,1.079s-1.087-.486-1.087-1.073M67.662,21.231v-.006c0-.405-.295-.741-.709-.741s-.703.33-.703.736v.005c0,.405.294.742.709.742s.703-.33.703-.736"/>
      <path class="st0" d="M70.699,20.183h.929c.262,0,.467.078.602.209.11.113.173.268.173.45v.005c0,.343-.205.548-.498.631l.563.789h-.432l-.513-.726h-.458v.726h-.366v-2.085ZM71.602,21.216c.262,0,.429-.137.429-.349v-.005c0-.223-.161-.346-.432-.346h-.533v.7h.536Z"/>
      <polygon class="st0" points="75.062 20.182 76.608 20.182 76.608 20.51 75.428 20.51 75.428 21.052 76.473 21.052 76.473 21.38 75.428 21.38 75.428 21.94 76.622 21.94 76.622 22.268 75.062 22.268 75.062 20.182"/>
      <path class="st0" d="M79.126,21.964l.22-.262c.2.173.4.271.658.271.227,0,.37-.105.37-.262v-.006c0-.149-.084-.229-.471-.318-.444-.108-.695-.239-.695-.623v-.006c0-.357.298-.605.712-.605.304,0,.545.093.756.262l-.196.277c-.188-.14-.375-.214-.566-.214-.214,0-.339.111-.339.247v.007c0,.16.095.232.494.327.441.107.671.265.671.61v.007c0,.39-.307.622-.745.622-.319,0-.62-.11-.87-.333"/>
      <polygon class="st0" points="26.686 10.737 28.199 10.737 30.659 14.559 33.119 10.737 34.631 10.737 34.631 18.821 33.211 18.821 33.211 13.023 30.659 16.834 30.612 16.834 28.083 13.047 28.083 18.821 26.686 18.821 26.686 10.737"/>
      <polygon class="st0" points="37.171 10.737 43.165 10.737 43.165 12.007 38.592 12.007 38.592 14.109 42.646 14.109 42.646 15.379 38.592 15.379 38.592 17.55 43.223 17.55 43.223 18.821 37.171 18.821 37.171 10.737"/>
      <polygon class="st0" points="47.357 12.053 44.793 12.053 44.793 10.736 51.353 10.736 51.353 12.053 48.789 12.053 48.789 18.821 47.357 18.821 47.357 12.053"/>
      <path class="st0" d="M53.315,10.736h3.603c1.016,0,1.813.3,2.333.809.427.439.67,1.039.67,1.744v.023c0,1.329-.796,2.125-1.928,2.449l2.183,3.06h-1.675l-1.986-2.818h-1.778v2.818h-1.42v-8.085ZM56.815,14.744c1.017,0,1.663-.531,1.663-1.351v-.023c0-.866-.623-1.34-1.674-1.34h-2.067v2.714h2.079Z"/>
      <rect class="st0" x="62.208" y="10.737" width="1.42" height="8.084"/>
      <polygon class="st0" points="66.249 10.737 67.669 10.737 67.669 14.802 71.515 10.737 73.259 10.737 69.898 14.213 73.409 18.821 71.688 18.821 68.928 15.183 67.669 16.476 67.669 18.821 66.249 18.821 66.249 10.737"/>
      <path class="st0" d="M74.113,14.802v-.023c0-2.275,1.755-4.181,4.239-4.181s4.215,1.882,4.215,4.157v.023c0,2.275-1.755,4.181-4.239,4.181s-4.215-1.883-4.215-4.158M81.077,14.802v-.023c0-1.571-1.143-2.876-2.749-2.876s-2.725,1.283-2.725,2.853v.023c0,1.57,1.143,2.876,2.749,2.876s2.725-1.282,2.725-2.853"/>
    </g>
    <g>
      <path class="st0" d="M202.822,9.883c-.651-.603-1.656-.603-2.307,0l-2.143,1.984-1.802-1.668c-.843-.78-2.145-.78-2.988,0l-4.486,4.151c-.391.362-.614.872-.614,1.405v4.399c0,1.214.985,2.199,2.2,2.199h16.185c.771,0,1.396-.625,1.396-1.395v-5.204c0-.533-.223-1.042-.614-1.405l-4.826-4.466ZM195.689,14.349c-.391.362-.614.872-.614,1.405v5.204c0,.094.01.186.028.275h-4.421c-.595,0-1.079-.484-1.079-1.079v-4.399c0-.221.093-.432.254-.582l4.486-4.151c.2-.185.46-.287.732-.287s.533.102.733.287l1.739,1.609-1.858,1.719Z"/>
      <path class="st0" d="M213.409,9.525c-1.647,0-2.982,1.335-2.982,2.982v6.77c0,1.647,1.335,2.982,2.982,2.982s2.981-1.335,2.981-2.982v-6.77c0-1.647-1.335-2.982-2.981-2.982M214.631,19.277c0,.675-.547,1.222-1.222,1.222s-1.222-.547-1.222-1.222v-6.771c0-.675.547-1.222,1.222-1.222s1.222.547,1.222,1.222v6.771Z"/>
      <path class="st0" d="M239.554,9.525h0c-.486,0-.88.394-.88.88v8.873c0,.674-.547,1.222-1.222,1.222s-1.222-.547-1.222-1.222v-8.873c0-.486-.394-.88-.88-.88s-.88.394-.88.88v8.872c0,1.646,1.335,2.981,2.982,2.981s2.982-1.335,2.982-2.981v-8.872c0-.486-.394-.88-.88-.88"/>
      <path class="st0" d="M249.662,9.525c-.322,0-.612.194-.737.491l-2.11,5.056c-.127.303-.557.303-.684,0l-2.11-5.056c-.124-.297-.415-.491-.737-.491-.441,0-.798.358-.798.798v11.055c0,.486.394.88.88.88s.88-.394.88-.88v-5.4c0-.197.27-.252.348-.071.345.808.764,1.788,1.118,2.616.286.67,1.235.67,1.522,0l1.118-2.616c.077-.181.348-.126.348.071v5.4c0,.486.394.88.88.88s.88-.394.88-.88v-11.055c0-.44-.357-.798-.798-.798"/>
      <path class="st0" d="M231.612,20.427h-2.156c-.4,0-.677-.399-.536-.774l3.259-8.698c.246-.657-.24-1.358-.941-1.358h-4.102c-.486,0-.88.394-.88.88s.394.879.88.879h2.27c.4,0,.677.399.536.774l-3.35,8.943c-.202.539.196,1.114.772,1.114h4.248c.486,0,.88-.394.88-.879s-.394-.88-.88-.88"/>
      <path class="st0" d="M259.848,21.259l-2.494-10.842c-.276-1.203-1.99-1.203-2.267,0l-2.497,10.856c-.118.514.278,1.003.806.995h.024c.374-.007.695-.267.778-.63l.275-1.197c.073-.318.357-.543.683-.541l2.138.01c.324.001.604.225.676.541l.27,1.173c.085.369.413.63.792.63h.023c.523,0,.909-.486.792-.995M256.788,17.986l-1.138-.006c-.313-.001-.544-.292-.474-.598.248-1.078.489-2.127.677-2.944.09-.39.644-.389.734,0l.678,2.949c.071.307-.163.599-.478.598"/>
      <path class="st0" d="M223.695,18.571c-.295-.605-.253-1.321.112-1.887l.396-.614c.361-.56.553-1.211.553-1.877v-1.478c0-1.742-1.412-3.154-3.154-3.154h-1.793c-.785,0-1.421.636-1.421,1.421v10.361c0,.485.394.88.88.88s.88-.394.88-.88v-2.993c0-.388.315-.703.703-.703.268,0,.514.153.632.394l1.799,3.688c.147.302.453.493.789.493.649,0,1.074-.68.789-1.263l-1.165-2.388ZM223.138,14.038c0,.843-.684,1.528-1.528,1.528h-.636c-.456,0-.826-.37-.826-.826v-2.595c0-.456.37-.826.826-.826h.636c.844,0,1.528.684,1.528,1.528v1.19Z"/>
    </g>
  </g>
</svg>