<?xml version="1.0" encoding="UTF-8"?>
<svg id="Layer_1" xmlns="http://www.w3.org/2000/svg" version="1.1" viewBox="0 0 336 44.8">
  <!-- Generator: Adobe Illustrator 30.2.1, SVG Export Plug-In . SVG Version: 2.1.1 Build 1)  -->
  <defs>
    <style>
      .st0 {
        fill: #231f20;
      }

      .st1 {
        fill: #fafafa;
      }
    </style>
  </defs>
  <rect class="st1" x="-26.9" y="-441.2" width="390" height="844"/>
  <g>
    <g>
      <path class="st0" d="M236.066,6.174l3.976,6.455v-6.455h2.385v10.13h-2.882l-3.927-6.456c-.227-.038-.135.099-.148.247-.055.642.088,1.201.104,1.785.038,1.472-.037,2.952-.004,4.424h-2.385V6.174h2.882Z"/>
      <path class="st0" d="M257.335,10.047c2.728-2.239,5.922.001,5.663,3.326-.242,3.104-3.562,4.738-5.861,2.435-.03.3.111.682-.15.894h-1.988l-.149-.149V6.422l.149-.149h2.187l.149.149v3.625ZM257.767,14.383c.125.117.571.375.734.409,2.492.525,2.88-3.185.828-3.608-1.842-.379-2.805,2.034-1.562,3.198Z"/>
      <polygon class="st0" points="253.956 8.359 249.732 8.359 249.583 8.508 249.583 10.246 253.31 10.246 253.459 10.395 253.459 12.232 249.732 12.232 249.583 12.381 249.583 14.169 249.732 14.318 253.956 14.318 253.956 16.404 247.197 16.404 247.197 6.422 247.346 6.273 253.807 6.273 253.956 6.422 253.956 8.359"/>
      <rect class="st0" x="243.619" y="9.352" width="2.385" height="9.733"/>
      <path class="st0" d="M243.751,6.305c.994-1.178,3.185.067,2.199,1.553-1.019,1.537-3.325-.219-2.199-1.553Z"/>
      <polygon class="st0" points="266.081 6.273 266.081 14.119 272.442 14.119 272.442 16.304 263.845 16.304 263.696 16.155 263.696 6.422 263.845 6.273 266.081 6.273"/>
      <path class="st0" d="M276.517,16.106h-2.286v-4.271h-2.634l-1.193,1.589h-2.634l5.417-8.045h3.18l.149.149v10.577ZM274.231,9.998v-1.937c-.309.312-1.324,1.571-1.393,1.935-.038.199.027.133.149.15.321.045.746-.015,1.079-.016l.165-.133Z"/>
      <path class="st0" d="M233.183,27.229v-6.654h6.013c1.365,0,3.127,1.225,3.321,2.641.718,5.243-6.192,3.811-9.334,4.014ZM234.177,26.236h4.622c.191,0,1.042-.235,1.27-.32,2.168-.812,1.893-3.645-.305-4.219-.254-.066-1.048-.228-1.263-.228h-4.323v4.767Z"/>
      <path class="st0" d="M251.57,20.575v.894h-6.957v1.788h4.323c.26.211.121.594.149.894h-4.473v2.086h6.908c.273.236.112.666.149.993h-8.051v-6.654h7.951Z"/>
      <polygon class="st0" points="266.38 20.277 266.38 29.811 263.895 29.811 263.895 23.455 261.162 29.712 259.237 29.798 256.54 23.554 256.54 38.749 254.204 38.749 254.055 38.6 254.055 20.277 257.782 20.277 260.267 25.539 262.652 20.277 266.38 20.277"/>
      <path class="st0" d="M272.691,20.177c2.615.294,3.232,1.933,3.135,4.324-.065,1.603-.581,3.014-2.198,3.583l2.691,10.665h-2.584l-2.594-10.418-.885-.01v10.428h-2.584v-18.572c1.593.131,3.459-.176,5.019,0ZM270.256,25.938h1.541c.437,0,1.354-.336,1.435-.85.084-.532.101-2.211-.297-2.571-.069-.062-.692-.353-.74-.353h-1.938v3.774Z"/>
      <path class="st0" d="M266.578,38.749h-2.037l-.198-.595c-1.638,1.64-5.215.523-4.401-2.113.523-1.694,3.021-1.667,4.451-1.812-.247-1.597-2.109-1.106-3.019-.353-.229-.266-1.213-1.015-1.164-1.326.009-.054.771-.544.898-.608,1.578-.799,4.367-.889,5.148,1.021.075.183.322.931.322,1.068v4.717ZM264.392,35.67c-.596-.039-2.12-.003-2.342.691-.342,1.071,1.476,1.161,2.046.553.311-.332.326-.817.297-1.244Z"/>
      <path class="st0" d="M244.313,37.061l.449,1.193.453-1.189.291-.004.25,1.491.638-1.431c.013-.101.186-.079.248-.052.239.1.671,1.37.753,1.68-.323.073-.194-.328-.396-.448-.129-.077-.691-.085-.834-.035-.176.062-.139.28-.216.38-.474.618-.485-1.007-.543-1.286l-.645,1.289-.596-1.29c-.065.002-.189.994-.235,1.162-.046.17.071.276-.212.229l.299-1.688h.295ZM246.899,38.153c.063-.159-.273-.988-.396-.893l-.299.893h.695Z"/>
      <path class="st0" d="M248.688,29.215c.582-.028,1.608-.111,1.226.772-.074.17-.371.173-.33.367l.444.352.638-1.43.248-.053.756,1.629c-.302.24-.238-.371-.311-.434-.27.008-.851-.104-1.036.085-.171.176-.026.546-.474.382-.313-.114-.305-.656-.812-.682-.387-.019.106.789-.35.699v-1.688ZM248.887,30.109c.409-.035,1.098-.032.847-.598l-.847-.197v.795ZM251.172,30.208c.09-.087-.252-.79-.347-.792l-.347.792h.695Z"/>
      <path class="st0" d="M245.309,34.577l-.948.096-.002.308c.237.172.627.162.85.342s.112.387.298.446c0-.24.515-1.445.745-1.39.146.035.736,1.418.746,1.688l-.312-.383-.918-.002-.162.385c-.211.028-.214.007-.2-.198-.393.353-1.074.48-1.389,0,.055-.042,1.106.331,1.187-.161.064-.386-.835-.371-.998-.574-.509-.635.715-1.073,1.103-.557ZM246.601,35.471c-.034-.104-.368-.992-.496-.893l-.299.893h.795Z"/>
      <path class="st0" d="M246.105,33.287c.228.048.159-.025.222-.126.252-.402.278-1.065.67-1.363.015.287-.579,1.748-.746,1.787-.25.06-.774-1.279-.832-1.53l-1.105-.059.094.553.802.191-.803-.006-.093.653c.039.039,1.39-.104.994.198l-1.099-.043-.05-1.651,1.352-.047.594,1.444Z"/>
      <path class="st0" d="M248.589,33.585v-1.788c2.005-.201,2.002,2.026,0,1.788ZM248.787,33.386c1.444.151,1.443-1.542,0-1.39v1.39Z"/>
      <path class="st0" d="M242.327,31.946l.247-.149,1.044,1.291c.073-.387-.187-1.048.2-1.291v1.788c-.454-.325-.711-.853-1.064-1.264-.061-.072.005-.186-.228-.126v1.39c-.065.007-.199-.132-.199-.149v-1.49Z"/>
      <path class="st0" d="M247.098,34.528l.301-.103.99,1.245c.073-.387-.187-1.048.2-1.291v1.688c-.579-.204-.774-1.052-1.292-1.39v1.49c-.065.007-.199-.132-.199-.149v-1.49Z"/>
      <path class="st0" d="M240.538,36.167v-1.788c1.995-.227,2.018,1.959,0,1.788ZM240.737,34.578v1.39c1.437.178,1.458-1.645,0-1.39Z"/>
      <path class="st0" d="M247.495,37.061c.863-.186,1.887.325.893,1.044l.399.643c-.433-.056-.484-.576-.942-.599-.377-.019.094.689-.35.6v-1.688ZM248.474,37.274l-.78-.015v.696c.3.012.862.078.889-.345.004-.062-.076-.315-.108-.336Z"/>
      <path class="st0" d="M247.098,29.215c.929-.191,2.012.308.895,1.042l.497.645c-.281.217-.593-.694-.944-.699-.468-.006-.024.784-.448.7v-1.688ZM248.18,29.424l-.884-.11.044.701c.148.215.62.016.84-.016v-.575Z"/>
      <path class="st0" d="M251.669,36.067l-.364-.401-1.013.02-.312.381.701-1.684c.105-.015.202-.019.298.042.119.076.627,1.385.691,1.642ZM251.172,35.471c.076-.073-.287-.977-.396-.893l-.299.893h.695Z"/>
      <path class="st0" d="M250.973,31.798l.696,1.787-.442-.504-.937.019-.16.484c-.21-.147-.099-.179-.052-.344.055-.191.604-1.657.895-1.442ZM251.173,32.889c.02-.11-.013-.199-.045-.301-.042-.131-.218-.524-.351-.591l-.299.892h.695Z"/>
      <path class="st0" d="M248.389,33.585l-.442-.504-.834.023-.313.481c-.015-.287.579-1.748.746-1.787.256-.061.892,1.481.843,1.787ZM247.693,32.096c-.183-.172-.484.668-.495.794h.794l-.299-.794Z"/>
      <path class="st0" d="M242.228,34.38h1.192c.397.302-.956.159-.994.199l.094.553.802.093-.896.049v.696c.214.007.432-.01.648,0,.134.006.413-.083.347.148-.022.077-1.088.138-1.193-.098v-1.639Z"/>
      <path class="st0" d="M245.706,29.215l1.194.05-.997.107v.539s.897.05.897.05c.089.312-.815.066-.896.147v.597c.038.039,1.391-.104.994.198h-1.192s0-1.688,0-1.688Z"/>
      <path class="st0" d="M244.911,29.217c.048.051.071.215-.125.176-.297-.059-.501-.143-.81.011-.379.736.969.329,1.036.957.091.848-1.556.587-1.292.245.245.129,1.097.239,1.096-.151-.001-.424-1.056-.297-1.102-.798-.05-.545.968-.68,1.197-.44Z"/>
      <path class="st0" d="M251.669,38.749c-.323.073-.194-.328-.396-.448-.14-.083-.77-.09-.9-.002-.138.094-.068.508-.394.45l.701-1.684c.405-.269.904,1.375.989,1.684ZM251.173,38.153c.072-.069-.22-.889-.348-.891l-.347.891h.695Z"/>
      <polygon class="st0" points="250.278 34.38 250.278 34.578 249.583 34.578 249.583 36.068 249.384 36.068 249.384 34.578 248.788 34.578 248.787 34.38 250.278 34.38"/>
      <polygon class="st0" points="250.278 37.061 250.278 37.259 249.583 37.26 249.583 38.749 249.384 38.749 249.384 37.26 248.788 37.259 248.787 37.061 250.278 37.061"/>
      <rect class="st0" x="245.209" y="29.215" width=".199" height="1.688"/>
    </g>
    <g>
      <path class="st0" d="M205.5,9.228c.006.039.014.082.022.13v.346c-.007.038-.014.074-.022.108-.046.689-.766,1.323-1.439,1.384-1.533.138-2.409-1.701-1.374-2.823.907-.982,2.678-.465,2.812.855ZM203.744,8.088c-.992.101-1.555,1.197-1.124,2.085.485.998,1.904,1.068,2.473.108.599-1.009-.164-2.314-1.349-2.193Z"/>
      <path class="st0" d="M205.522,9.357c-.039-.024-.017-.089-.022-.13h.022v.13Z"/>
      <path class="st0" d="M205.522,9.812h-.022c.002-.035-.014-.09.022-.108v.108Z"/>
      <g>
        <path class="st0" d="M184.871,21.096c-.013-.017-.032-.112-.052-.154-.932-1.91-1.942-3.782-2.871-5.695-.699-1.439-1.333-2.91-2.032-4.348-.013-.026-.045-.131-.079-.115-.019.009-.074.103-.087.13-.108.237-.016.633-.01.897.015.649-.011,1.299-.002,1.948.02,1.398.113,2.844.067,4.239-.022.652-.288,1.944.301,2.379.193.142.443.029.644.113.21.088-.001.489-.051.634l-2.515.126c-.089-.215-.021-.373.106-.549.023-.031.198-.23.216-.238.141-.06.311.059.437-.169.082-.15.116-.6.125-.783.042-.863-.022-1.736-.044-2.594-.055-2.149-.035-4.3-.085-6.447-.002-.1-.055-.26-.011-.356.018-.04.115-.098.114-.159,0-.046-.067-.208-.079-.288-.078-.498.132-1.397-.62-1.436-.073-.004-.2.039-.238,0-.052-.053-.104-.738-.075-.779.374.221.785.024,1.179,0,.407-.025.806.068,1.202.144l1.076,2.076c.121.273.298.933.55,1.072.033.018.081.006.104.031.099.107.124.531.21.693.035.066.174.177.174.19,0,.011-.043.032-.037.081.012.097.259.612.318.745.398.902.906,1.771,1.275,2.683.096.237.159.494.275.719.039-.341.047-.685.076-1.027.056-.653.105-1.218.087-1.883-.037-1.38-.108-2.765-.088-4.151-.032-.252-.142-.535-.415-.602-.139-.034-.339.008-.451-.112-.013-.013-.137-.193-.141-.205-.041-.129.017-.377.119-.467.077-.068.349.008.465.013.651.027,1.265-.112,1.92.027.045.01.268.055.276.092-.115.229-.283.478-.487.636-.245.191-.26.06-.355.424-.175.672.013,1.18,0,1.838-.047,2.304-.209,4.592-.175,6.9.015,1.031.096,2.061.132,3.091.004.102.014.602-.021.651-.065.091-.368.057-.429-.018Z"/>
        <path class="st0" d="M193.445,8.673c-.133-.132-.721-.379-.912-.396-.09-.008-.401-.009-.422.097-.008.454-.008.91-.02,1.364-.049,1.737-.089,3.471-.108,5.213-.014,1.209-.064,2.444-.023,3.655.013.391.036.795.179,1.162.1.255.265.441.443.644.248.024.557-.033.797-.002.222.029.233.481.226.65-.358-.023-.72.13-1.07.152-.299.019-.669-.039-.973-.045-.376-.007-.753.022-1.125.024-.545.003-1.09-.004-1.634-.001l.086-.097c-.169-.162-.477-.166-.269-.486.303-.465,1.092-.018,1.311-.57.021-.052.036-.178.042-.185.023-.028.211-.005.224-.207.009-.144-.05-.225-.005-.406.023-.092.12-.211.125-.245.013-.096-.057-.431-.065-.561-.024-.376-.025-.751-.043-1.125-.138-2.981-.192-5.96-.153-8.953-.088-.186-.278-.2-.462-.182-.405.041-1.106.506-1.299.864-.071.133-.024.105-.037.201-.029.225-.122.442-.104.671.003.038.037.088.034.11-.002.021-.057.055-.075.091-.077.156-.042.424-.071.599-.018.106-.076.208-.084.326-.025.359.207,1.13-.187,1.349-.423.235-.469-.312-.485-.591-.022-.41,0-.827.002-1.233.004-1.007.027-2.009.045-3.016.304-.083.612-.05.918-.066.544-.029,1.098-.094,1.644-.067.206.01.435.058.647.067.669.026,1.358-.07,2.035-.067.509.003,1.287-.027,1.767.05.073.012.284.041.298.113.01.222.007.45.022.671.054.841.112,1.574.107,2.422-.003.409.094,1.263-.047,1.596-.163.382-.53.415-.651-.031-.247-.914-.024-1.85-.302-2.813-.046-.159-.219-.639-.326-.745Z"/>
      </g>
      <path class="st0" d="M164.336,30.832c.033-.021.151-.677.169-.772.198-1.073.295-2.166.533-3.231.178-.797.443-1.592.64-2.388.092-.369.174-.74.25-1.112.044-.051.311.018.39.022.549.023,1.045-.203,1.611-.032.052.016.226.082.248.12.019.033.063.231.052.266-.023.072-.256.049-.355.23-.261.475-.343,2.039-.377,2.629-.155,2.71-.129,5.572,0,8.284.017.366.001.83.07,1.184.063.326.502.164.568.297v.498c-.026.043-.245.075-.306.084-.84.116-1.746.03-2.594.079-.246-.048-.292-.474-.12-.608.072-.057.323-.051.468-.138.292-.175.186-.433.182-.703-.028-2.119.036-4.244-.02-6.361-.068-.291.014-.737-.07-1.011-.025-.082-.148-.137-.224-.082-.06.043-.132.459-.154.56-.359,1.691-.592,3.431-.9,5.134-.096.531-.183,1.142-.311,1.658-.023.095-.126.424-.179.487-.019.022-.169.055-.207.058-.278.022-.394-.146-.487-.378-.319-.791-.475-1.843-.642-2.689-.304-1.545-.549-3.106-.871-4.645-.061-.027-.151-.002-.18.061-.013.152-.029.307-.039.459-.122,1.973-.159,3.973-.064,5.949.02.424.012,1.003.158,1.4.113.308.442.153.662.33-.111.223-.037.446-.355.445-.156,0-.314-.011-.475,0-.451.06-.898.136-1.353.077-.185-.552.56-.664.747-.965.078-.126.047-.479.054-.638.053-1.221.012-2.454,0-3.675-.02-2.036-.053-4.068-.106-6.101-.005-.179-.043-.375-.023-.562.019-.173.083-.266.066-.476-.017-.198-.184-.538-.357-.639-.071-.042-.091.002-.153.002-.141,0-.29-.212-.418-.264.046-.136.009-.405.075-.514.091-.152.203.014.318.067.801.373,2.33-.315,2.502.959.028.206-.017.406.006.6.076.653.294,1.48.434,2.14.231,1.092.507,2.7.929,3.7.03.072.101.276.208.208Z"/>
      <g>
        <g>
          <path class="st0" d="M175.024,37.085c-.039.018-.092.017-.13,0-.077.018-.16.018-.238,0-.036.017-.092.018-.13,0-.107.008-.462.021-.534-.055-.087-.092-.08-.596-.026-.701.01-.02.021-.035.043-.044.252-.042.519-.261.485-.532.206-.359.052-.891-.086-1.261-.189-.51-.4-1.026-.619-1.527-.001-.003-.045-.029-.048-.03-.556-.099-1.123-.196-1.686-.237-.054-.009-.494.03-.502.054-.374,1.041-.826,2.44-.37,3.492l.33.08c.071.02.099.072.101.142-.002.193-.024.394-.057.58-.551.039-1.108.047-1.661.038-.092.018-.19.017-.281,0-.091.006-.185.013-.281.022h-.108c-.002-.233.003-.515.218-.658.075-.051.153-.054.23-.094.108-.057.418-.338.491-.439.148-.205.213-1.053.279-1.365.212-1.011.492-1.996.679-3.02.211-1.16.333-2.337.576-3.49.134-.635.246-1.151.342-1.799.099-.666.282-1.288.441-1.939.11-.454.094-1.145.751-1.055.061.008.31.077.339.115.668,1.932.938,3.97,1.397,5.957.486,2.106,1.075,4.191,1.58,6.293.16.439.495.469.817.697.297.21.15.396-.044.62-.77-.069-1.533.121-2.299.154ZM172.709,27.655h-.108c-.229,1.436-.543,2.861-.93,4.261.642-.181,1.343.233,1.969-.014.005-.235-.024-.471-.076-.7-.061-.267-.302-.741-.265-.979.011-.069.11-.263.1-.303-.014-.054-.111-.08-.137-.124-.057-.099-.079-.357-.14-.487-.029-.062-.132-.159-.141-.201-.008-.037.017-.108.011-.165-.055-.451-.396-.82-.281-1.287Z"/>
          <path class="st0" d="M169.616,37.085c.019.006.019.013,0,.022h-.281c.072-.04.192-.021.281-.022Z"/>
          <path class="st0" d="M169.897,37.085v.022h-.281v-.022c.093,0,.188.002.281,0Z"/>
          <path class="st0" d="M174.894,37.085c.019.006.019.013,0,.022h-.238c-.019-.006-.019-.013,0-.022.079.002.159.002.238,0Z"/>
        </g>
        <path class="st0" d="M168.924,20.961c.011-.081.088-.247.15-.304.082-.075.192-.084.28-.131.112-.06.424-.329.5-.431.153-.207.204-.986.266-1.291.206-1.004.491-1.988.679-2.998.236-1.268.37-2.554.641-3.815.119-.556.214-.993.299-1.561.104-.692.277-1.307.441-1.981.071-.292.093-.722.281-.952.235-.289.52-.158.822-.065.712,2.062.991,4.241,1.492,6.359.474,2.003,1.024,3.991,1.515,5.99.077.19.202.336.371.451.16.108.634.264.623.483-.005.092-.152.369-.238.386-.074.015-.283-.024-.39-.022-.845.013-1.677.232-2.529.174-.071-.005-.316-.035-.366-.067-.133-.085-.041-.543-.032-.687.182.008.509-.261.534-.43.007-.046-.019-.081-.014-.12.013-.106.119-.222.121-.416.009-.772-.588-1.712-.822-2.439l-.076-.054c-.746-.072-1.502-.365-2.25-.173-.291.913-.639,1.885-.568,2.861.009.131.112.627.205.703.064.052.31.09.401.107v.649l-2.336.087c.009-.099-.013-.217,0-.314ZM172.428,11.78l-.109.014c-.262,1.426-.529,2.86-.951,4.247.547-.136,1.112.124,1.654.086.063-.004.296-.037.325-.086.063-.104-.065-.704-.104-.849-.067-.249-.261-.602-.226-.844.011-.076.109-.267.1-.304-.011-.045-.107-.071-.137-.125-.066-.12-.082-.371-.147-.502-.026-.053-.128-.133-.142-.182-.024-.082.002-.227-.014-.332-.056-.361-.406-.73-.25-1.123Z"/>
      </g>
      <path class="st0" d="M184.763,23.799c.042.034.122.035.178.071.06.039.258.25.313.315,1.222,1.438.907,4.127-.508,5.33-.221.188-.49.326-.702.519.229.099.47.174.65.356.861.869.88,3.508,1.062,4.713.057.377.104.77.364,1.063.115.129.459.353.456.517,0,.028-.046.261-.054.272-.017.024-.041.019-.065.022-.101.013-.624.013-.705-.011-.135-.04-.539-.248-.603-.372-.021-.04.006-.073-.023-.103-.112-.122-.315-.117-.429-.33s-.202-.763-.253-1.023c-.217-1.098-.373-2.109-.645-3.205-.058-.233-.107-.699-.193-.888-.024-.052-.342-.363-.405-.417-.643-.542-1.332-.237-2.077-.205-.005.184.007.369.001.553-.028.916-.026,1.83,0,2.745.024.867.054,1.735.199,2.591.06.167.608.052.782.148.11.061.248.354.177.453-.031.043-.759.105-.866.129h-2.91c-.057-.148.154-.209.171-.276.016-.063-.073-.085-.063-.125.009-.037.507-.372.595-.465.455-.481.084-.696.099-1.177.003-.093.072-.184.096-.272.104-.388.065-.925.074-1.331.054-2.372-.109-4.745-.063-7.114.014-.723.031-1.483-.272-2.152-.05-.06-.587-.116-.707-.158-.245-.084-.31-.506-.341-.729.02-.027.462-.083.53-.087.709-.042,1.355.004,2.054.044,1.024.058,3.239-.237,4,.477.031.029.059.101.084.121ZM181.21,24.195v5.277h1.655c.026,0,.257-.156.249-.216.076-.011.038.093.108.054.066-.036.294-.304.357-.379.044-.052.285-.348.287-.382.003-.036-.038-.064-.035-.12.006-.107.107-.359.137-.492.205-.937.15-1.871-.135-2.785-.034-.109-.101-.34-.157-.427-.045-.07-.406-.401-.487-.464-.492-.383-1.407-.045-1.979-.065Z"/>
      <g>
        <path class="st0" d="M197.67,21.145l-2.336.087c-.009-.263.008-.562.273-.69.061-.029.123-.032.189-.071.098-.057.413-.338.478-.43.148-.21.213-1.05.278-1.365.194-.931.458-1.845.635-2.782.254-1.34.401-2.696.684-4.031.131-.619.224-1.128.321-1.755.084-.54.246-1.063.375-1.593.07-.288.117-.795.274-1.024.219-.321.543-.208.851-.101.713,2.054.992,4.226,1.492,6.338.477,2.014,1.026,4.015,1.525,6.024.151.384.414.446.729.634.219.131.332.203.198.465-.16.311-.237.182-.527.187-.853.014-1.722.262-2.573.174-.078-.008-.311-.032-.366-.067-.13-.082-.028-.546-.034-.689.201.014.52-.27.552-.453.006-.036-.033-.06-.029-.096.002-.021.078-.146.094-.208.086-.327-.071-.824-.179-1.142-.176-.519-.439-1.005-.611-1.525-.014-.024-.056-.025-.082-.03-.57-.115-1.487-.293-2.046-.22-.063.008-.162.012-.196.063-.296.881-.643,1.878-.575,2.822.01.139.114.656.218.734.06.044.303.082.388.098v.649ZM198.838,11.737h-.107c-.26,1.431-.526,2.871-.953,4.261.661-.16,1.343.244,1.991.008.013-.302-.044-.6-.125-.889-.066-.235-.253-.581-.217-.811.011-.069.11-.264.1-.303-.014-.054-.111-.08-.137-.124-.061-.105-.079-.367-.147-.502-.026-.051-.137-.156-.143-.182-.012-.047.006-.241-.017-.349-.077-.367-.385-.713-.246-1.106Z"/>
        <path class="st0" d="M201.374,36.929c-.103-.088-.008-.517-.024-.652.015-.045.147-.057.2-.081.115-.052.345-.275.355-.401.003-.036-.036-.061-.029-.095.011-.055.098-.136.115-.253.113-.785-.574-1.845-.798-2.586-.019-.038-.062-.044-.099-.052-.346-.077-.834-.155-1.187-.197-.158-.019-.932-.063-1.019.024-.014.014-.117.32-.135.373-.267.778-.556,1.885-.404,2.697.019.101.103.443.181.489.07.042.376.075.393.126l-.019.614-2.315.087c-.013-.262.009-.563.273-.69.061-.029.121-.034.189-.071.102-.056.412-.335.478-.43.135-.194.196-.986.257-1.279.193-.931.457-1.846.635-2.782.257-1.345.402-2.71.688-4.049.121-.568.211-1.006.295-1.586.128-.879.414-1.724.586-2.593.187-.485.51-.434.936-.276.692,2.006.969,4.124,1.449,6.186.471,2.023,1.038,4.026,1.525,6.046.054.159.154.303.282.411.168.142.6.29.694.453.067.117-.071.39-.164.466-.065.053-.175.001-.258,0-.88-.019-1.77.233-2.661.174-.056-.004-.394-.051-.417-.07ZM200.071,27.591h-.107c-.171.986-.365,1.969-.596,2.942-.103.436-.201.877-.357,1.297.562-.146,1.132.11,1.699.066.082-.006.238-.021.27-.098.052-.127-.022-.512-.054-.66-.063-.288-.307-.764-.265-1.022.011-.068.107-.245.099-.284s-.105-.072-.135-.123c-.064-.107-.086-.36-.153-.496-.027-.056-.129-.155-.138-.189-.012-.048.006-.234-.013-.332-.07-.36-.388-.713-.25-1.102Z"/>
      </g>
      <path class="st0" d="M204.257,8.557c.373.05.544.575.31.851-.038.045-.101.064-.127.122.374.146.095.68.303.952h-.314c-.076,0-.073-.582-.108-.671-.015-.038-.096-.129-.13-.129h-.681v.8h-.303v-1.925c.326.032.733-.043,1.049,0ZM203.51,9.401h.552c.033,0,.182-.044.213-.068.106-.082.115-.357.013-.439-.014-.011-.11-.055-.118-.055h-.66v.562Z"/>
      <path class="st0" d="M195.334,25.125c.027.035-.213.449-.26.508-.219.268-.324.28-.506-.012-.159-.255-.217-.543-.333-.813-.26-.605-.656-1.047-1.117-1.5-.199-.196-.234-.288-.519-.389-.21-.075-.77-.248-.975-.279-.369-.057-.702.137-.939.399-.501.554-.854,1.05-.865,1.815-.008.554-.021,1.115-.024,1.665-.005.862-.016,1.652.163,2.499.399,1.885,1.001,4.165,2.079,5.773.274.408.878.925,1.335,1.109.421.169.607.031.965-.19,1.66-1.02,1.453-2.536,1.364-4.236-.009-.176.008-.185.168-.245.253-.095.57-.134.699.157.146.328,0,.605-.023.93-.039.548.198,1.281-.032,1.785-.114.251-.143.356-.227.617-.365,1.136-.797,1.943-2.033,2.228-2.233.514-4.124-.952-4.889-2.963-.018-.048-.077-.28-.089-.29-.021-.017-.182.009-.209-.083-.018-.058.002-.146-.004-.212-.016-.152-.077-.161-.133-.278-.088-.181-.165-.436-.234-.631-.973-2.725-1.743-6.282-.22-8.937.626-1.09,1.227-1.516,2.483-1.713.302-.047.898-.141,1.183-.125.372.021.909.647,1.274.615.37-.032.462-.776.656-1.009.195.024.529.394.546.574.003.035-.072.08-.09.14-.073.233.149,1.199.213,1.489.077.353.264,1.309.486,1.547.038.04.105.049.109.054Z"/>
      <g>
        <path class="st0" d="M163.841,7.195c.019.006.019.013,0,.022-.079.059-.181.059-.26,0-.019-.006-.019-.013,0-.022h.26Z"/>
        <path class="st0" d="M163.581,7.195v.022c-.028.061-.08.06-.108,0-.019-.006-.019-.013,0-.022h.108Z"/>
        <path class="st0" d="M164.014,7.195v.022c-.017.06-.07.061-.087,0-.019-.006-.019-.013,0-.022h.087Z"/>
        <path class="st0" d="M163.927,7.195v.022c-.021.06-.065.06-.087,0v-.022h.087Z"/>
        <path class="st0" d="M163.473,7.195v.022c-.018.062-.033.053-.065,0v-.022h.065Z"/>
        <path class="st0" d="M163.408,7.216c.021-.002.043.001.065,0,.036-.002.072.001.108,0,.085-.003.174-.003.26,0,.029,0,.058-.001.087,0s.058-.002.087,0c.394.027.825.153,1.195.287.286.104.949.458,1.196.471.308.016.038-.43.204-.531.046-.028.447-.016.506.014.218.111.312.834.338,1.068.081.727.085,1.582.044,2.315-.011.191-.021.56-.105.717-.156.292-.422.206-.696.157-.007-.107.077-.177.064-.289-.011-.094-.08-.258-.101-.376-.072-.399-.043-.802-.197-1.187-.031-.078-.136-.225-.15-.282-.016-.063,0-.119-.022-.194-.03-.098-.317-.444-.405-.504-.054-.037-.132-.051-.191-.09-.164-.11-.35-.28-.519-.367-.162-.084-.293-.137-.462-.23-.469-.258-.861-.129-1.343.012-.573.168-.876.275-1.148.842-.059.124-.371.843-.366.92.011.181.14.374.043.552-.024.043-.1.1-.104.124-.005.031.033.165.046.205.137.428.839,1.13,1.214,1.381.497.332.986.413,1.526.615.705.264,1.839,1.07,2.283,1.675.528.719,1.075,2.058.996,2.956-.026.294-.233.642-.04.9-.234-.012-.071.263-.111.376-.013.035-.07.031-.103.07-.043.05-.081.197-.121.269-.29.53-.672,1.005-1.114,1.417-.117.109-.354.33-.482.404-.206.119-.794.321-1.037.39-1.111.318-2.321-.185-3.196-.861l-.086.033c.018-.15-.146-.476-.314-.467-.032.002-.214.127-.223.158-.03.097.061.135.061.147,0,.006-.05.045-.061.068-.09.177-.06.318-.094.489-.043.215-.379.25-.558.232-.019-.192.027-.383.023-.574-.005-.238-.058-.511-.067-.755-.04-1.095.136-2.208-.152-3.288.013-.17.403-.492.551-.486.08.004.258.113.288.188.041.101-.012.202-.016.297-.023.638.347,1.44.513,2.061.046.172.053.257.119.422.045.112.004.224.168.167-.028.322.316.474.52.659.035.032.061.101.095.121.048.029.138.026.207.053.359.141.552.335.97.415.556.106.938.153,1.43-.157,1.19-.751,2.086-2.453.911-3.633-.127-.127-.368-.237-.449-.318-.023-.023-.047-.112-.075-.152-.12-.176-.246-.32-.421-.444-.077-.055-.607-.39-.657-.404-.043-.012-.076.015-.117.012-.188-.016-.421-.222-.596-.293-.198-.081-.354-.109-.563-.216-1.964-1.005-2.661-2.347-2.531-4.565.012-.201.121-.879.222-1.033.048-.073.239-.165.266-.211.024-.039-.01-.079.005-.123.162-.482.774-1.032,1.216-1.272.34-.185.782-.329,1.168-.356Z"/>
      </g>
    </g>
    <g>
      <path class="st0" d="M31.601,37.458c1.071.127,1.26,1.624.268,1.986l.773,1.595h-.774c-.234-.51-.486-1.053-.823-1.5v1.5h-.678v-3.581c.392.033.851-.045,1.234,0ZM31.044,38.862c1.059.14,1.041-.871,0-.726v.726Z"/>
      <path class="st0" d="M34.335,41.04l1.33-3.534c.056-.068.563-.066.68-.051.191.023,1.22,3.186,1.426,3.585h-.702c-.143-.126-.201-.668-.347-.718-.087-.03-1.209-.03-1.35-.011-.021.003-.047-.006-.064.009l-.247.72h-.726ZM36.513,39.636l-.46-1.162-.46,1.162h.92Z"/>
      <polygon class="st0" points="46.579 37.458 46.579 38.136 45.273 38.136 45.273 38.765 46.579 38.765 46.579 39.442 45.273 39.442 45.273 40.362 46.579 40.362 46.579 41.04 44.595 41.04 44.595 37.458 46.579 37.458"/>
      <polygon class="st0" points="40.118 37.458 41.038 39.927 41.957 37.458 42.659 37.458 41.371 41.043 40.65 40.992 39.417 37.458 40.118 37.458"/>
      <path class="st0" d="M52.809,37.373c.501-.085,1.004.174,1.269.594l-.467.405c-.158.041-.293-.302-.527-.333-.225-.03-.45.134-.313.365.277.465,1.228.824,1.346,1.461.269,1.456-1.747,1.735-2.254.521l.556-.357.063.015c.118.463,1.006.591.959.064-.036-.4-1.261-.981-1.383-1.572-.113-.547.187-1.067.751-1.163Z"/>
      <path class="st0" d="M28.479,37.458v.678c-.215.03-.51-.076-.678.073v2.831h-.726v-2.904h-.629v-.678h2.033Z"/>
      <polygon class="st0" points="49.289 37.458 49.289 40.41 50.257 40.41 50.257 41.04 48.563 41.04 48.563 37.458 49.289 37.458"/>
      <path class="st0" d="M38.292,3.155c.152-.017.273.059.41.1l7.271,2.795c.208.673.344,1.369.452,2.065.712,4.568.37,10.079-2.12,14.076-1.422,2.281-3.462,3.998-5.933,5.056-.186.012-1.69-.833-1.952-.996-6.63-4.125-7.404-13.22-5.719-20.181l7.591-2.915ZM45.115,6.885l-6.783-2.43-6.673,2.378c-.067.023-.081.079-.107.135-.108.237-.203.951-.252,1.249-1.024,6.226.061,13.772,5.954,17.199.187.109.889.521,1.044.548.239.041,1.725-.9,2.004-1.097,4.593-3.246,5.742-9.159,5.356-14.485-.085-1.173-.275-2.355-.544-3.497Z"/>
      <path class="st0" d="M45.031,13.696c-.055.907-.136,1.819-.345,2.704l-1.784.055v2.759l.969-.024c-.249.607-.537,1.309-.909,1.848-.03.043.009.089-.108.063v-1.839l-2.226.194v2.855l1.549-.193c-.419.6-.98,1.141-1.549,1.597v-1.355l-2.275.29v2.517c-.808-.338-1.528-.859-2.23-1.376l-.052-1.424c-.048-.077-1.258-.16-1.458-.211-.241-.062-.671-.797-.798-1.041l-.014-1.85-1.019-.128c-.323-.903-.641-1.821-.768-2.778l1.839.097-.042,2.751,2.268.249v-1.21c.736.239,1.488.48,2.275.436v.968l2.253-.239.029-1.205c1.817-.79,3.113-2.532,3.331-4.508h1.065ZM36.077,22.311l2.176.319.099-.052v-2.855l-.121-.073-2.045-.184-.109.063v2.783Z"/>
      <path class="st0" d="M43.706,13.029c0,2.96-2.4,5.36-5.36,5.36s-5.36-2.4-5.36-5.36,2.4-5.36,5.36-5.36,5.36,2.4,5.36,5.36ZM43.233,13.027c0-2.699-2.188-4.886-4.886-4.886s-4.886,2.188-4.886,4.886,2.188,4.886,4.886,4.886,4.886-2.188,4.886-4.886Z"/>
      <path class="st0" d="M42.901,8.131l1.834.15.295,2.754-1.421-.093c.021-.265-.757-1.258-.757-1.335v-1.476l-1.909-.148c-.065-.004-.317-.129-.317-.167v-1.766l2.275.799v1.282Z"/>
      <path class="st0" d="M38.352,5.275v2.081c-.779.003-1.562.172-2.275.484v-1.766l2.275-.799Z"/>
      <polygon class="st0" points="33.803 6.824 33.803 8.131 35.787 7.938 34.528 8.832 33.803 9.631 33.803 8.179 31.964 8.324 32.158 7.381 33.803 6.824"/>
      <path class="st0" d="M31.673,13.696v-2.71s1.404-.023,1.404-.023c-.32.867-.494,1.814-.339,2.734h-1.065Z"/>
      <path class="st0" d="M38.545,11.18c.199-.07.285.119.412.145.115.023.755.023.871,0,.198-.037.146-.47.579-.387.515.099.431,1.332-.179,1.198-.226-.049-.215-.27-.304-.376-.057-.068-.791-.072-.918-.048-.151.029-.206.251-.413.193.094.434.256,3.003.532,3.17.342.207,1.109-.577,1.258-.872-.003-.07-.553-.111-.579-.314l1.428-.726-.025,1.79c-.112.028-.08-.022-.111-.061-.104-.133-.166-.334-.324-.423-.184.504-.524,1.018-.953,1.347-.473.363-1.177.495-1.444,1.073-.21-.486-.784-.628-1.2-.881-.586-.357-1.007-.896-1.244-1.539l-.386.532-.097-1.79,1.403.702c.115.084-.225.22-.288.243-.079.028-.29-.013-.243.095.04.091.461.521.564.597.19.139.452.282.694.278.272-.167.446-2.778.484-3.222-.2.07-.284-.119-.412-.145-.242-.048-.603.034-.862-.003-.325.775-.976.333-.844-.398.105-.58.721-.538.841.016.049.013.848.012.904-.002.041-.01.163-.312.421-.195.068-.315-.194-.288-.388-.459-.564-.496-.283-1.495.46-1.574.979-.104,1.434,1.033.698,1.617-.184.146-.399.102-.335.415ZM38.207,9.39c-.85-.027-.952,1.187-.072,1.306.038.005.175.016.096-.048-.553-.044-.702-.711-.346-1.097l.322-.161ZM38.81,10.042c0-.266-.216-.482-.482-.482s-.482.216-.482.482.216.482.482.482.482-.216.482-.482ZM36.368,11.083c-.375.099-.312.787-.024.967.057-.098-.086-.167-.111-.276-.053-.233-.011-.503.135-.691ZM40.288,11.083c-.32.041-.266.826-.072.919.159.076-.015-.191-.023-.219-.083-.296-.027-.43.095-.7ZM38.013,11.664c.079.162.653.123.731.028.064-.078.061-.282-.053-.319l-.097.266-.581.024ZM38.255,16.068l-.072-2.904c-.043.358-.034.73-.073,1.089-.069.637-.051,1.661-.944,1.041-.033-.01-.035.046-.023.072.096.217.932.427,1.112.702ZM40.095,13.889c.536.166.687-.007.87-.483l-.87.483ZM35.642,14.519c.422-.348.269-.614-.048-.968l.048.968Z"/>
      <path class="st0" d="M66.502,32.14c0,1.996-1.618,3.614-3.614,3.614s-3.614-1.618-3.614-3.614,1.618-3.614,3.614-3.614,3.614,1.618,3.614,3.614ZM66.246,32.141c0-1.854-1.503-3.358-3.358-3.358s-3.358,1.503-3.358,3.358,1.503,3.358,3.358,3.358,3.358-1.503,3.358-3.358Z"/>
      <path class="st0" d="M49.822,35.619v-6.17c0-.306.52-.653.799-.653h1.161l.073.073v5.904c0,.147-.114.44-.216.558-.094.11-.401.289-.534.289h-1.282ZM51.564,29.086h-1.089c-.137,0-.411.32-.411.46v5.832h.895c.176,0,.605-.205.605-.411v-5.88Z"/>
      <path class="st0" d="M22.515,28.808c.307-.044.557-.001.81.181l1.742,1.886,1.595-1.792c.797-.752,2.278.076,1.615,1.131l-1.878,2.041,1.878,1.992c.52.835-.272,1.503-1.118,1.36-.325-.055-.545-.322-.763-.544-.456-.462-.852-.99-1.336-1.425-.088-.015-.94.99-1.081,1.135-.172.176-.609.665-.79.759-.776.402-1.948-.348-1.381-1.236.385-.602,1.24-1.247,1.711-1.822.056-.069.11-.142.154-.218,0-.121-1.429-1.553-1.63-1.792-.223-.266-.437-.531-.377-.906.062-.387.478-.697.848-.749Z"/>
      <path class="st0" d="M14.009,30.441v4.622c0,.179-.484.557-.653.557h-1.331v-5.178h-1.186c-.316,0-.653-.397-.653-.702v-.871l.073-.073h4.936c.084,0,.387.145.46.218.287.29.269,1.031-.079,1.276-.036.025-.314.152-.332.152h-1.234Z"/>
      <path class="st0" d="M30.851,28.796v6.219c0,.249-.466.605-.702.605h-1.282v-6.219c0-.07.177-.326.245-.384.098-.084.438-.221.554-.221h1.186Z"/>
      <path class="st0" d="M19.181,34.416l-2.018.002c-.184.448-.332,1.117-.907,1.197-.776.109-1.343-.514-1.226-1.274l2.496-5.547c.382.007.726-.045,1.083.121.363.168.469.482.635.816.735,1.481,1.347,3.034,2.051,4.531.124.683-.188,1.299-.923,1.358-.801.064-.975-.584-1.192-1.203ZM17.784,32.764h.774l-.363-1.017c-.099-.02-.068.038-.094.097-.126.28-.214.627-.317.92Z"/>
      <path class="st0" d="M56.645,31.796v-2.396c0-.283.547-.605.799-.605h1.186v6.267c0,.207-.403.468-.598.515-.604.145-.959-.017-1.363-.442-.673-.708-1.273-1.592-1.934-2.324-.047-.052-.105-.12-.17-.145v2.25c0,.311-.458.702-.75.702h-1.282v-6.824h1.186c.046,0,.385.105.445.135.9.883,1.624,1.939,2.483,2.865ZM56.887,32.474l-2.691-3.189c-.056-.054-.278-.199-.334-.199h-1.089v6.219l.073.073h.823c.178,0,.605-.193.605-.411v-3.025c.094-.022.093.034.136.082.904.989,1.714,2.114,2.612,3.113.279.242.761.313,1.093.139.062-.032.272-.257.272-.309v-5.88h-1.089c-.137,0-.411.32-.411.46v2.928Z"/>
      <path class="st0" d="M36.174,28.796v6.219c0,.086-.21.372-.293.433-.369.268-1.207.244-1.523-.117-.033-.038-.168-.247-.168-.268v-3.073l-1.331,1.548-1.331-1.524v-2.638l1.331,1.499c.704-.659,1.155-1.816,2.129-2.08h1.186ZM35.932,29.038h-.895c-.243,0-.544.292-.703.458-.515.538-.951,1.226-1.475,1.767l-1.089-1.209v1.863l1.089,1.233,1.573-1.79v3.605c0,.463.977.496,1.294.277.064-.044.207-.225.207-.277v-5.928Z"/>
      <path class="st0" d="M62.587,30.164c2.956-.357,2.971,4.421-.137,3.933-1.967-.309-1.97-3.679.137-3.933ZM62.684,30.406c-1.921.208-1.902,3.211-.098,3.458,2.581.354,2.592-3.728.098-3.458Z"/>
      <path class="st0" d="M47.233,28.796c1.887.199,2.414,3.035.751,3.944.301.529,1.353,1.49,1.237,2.107-.163.869-1.441,1.112-1.915.312l-1.501-2.056v1.766c0,.017-.091.296-.107.328-.087.171-.46.422-.643.422h-1.282v-6.824h3.46ZM45.563,32.377l2.181,2.876c.483.396,1.189.008,1.252-.573-.003-.34-1.382-1.9-1.352-2.034,1.284-.596,1.497-2.354.387-3.246-.177-.143-.63-.362-.847-.362h-3.17v6.34h.992c.249,0,.557-.31.557-.557v-2.444Z"/>
      <path class="st0" d="M45.563,31.941v-1.984h1.04c.113,0,.468.174.558.264.284.283.33.928.153,1.27-.074.143-.413.45-.566.45h-1.186ZM45.805,31.699h.895c.017,0,.236-.136.269-.167.256-.242.284-.9.023-1.141-.043-.04-.353-.193-.388-.193h-.799v1.5Z"/>
      <path class="st0" d="M41.466,35.409c-.243-.225-.354-.705-.482-1.002l-1.971.011c-.155.053-.238.899-.725,1.114-1.033.457-1.848-.74-1.3-1.638l2.363-5.09c.557-.031,1.085-.067,1.441.431l2.255,4.859c.502.963-.788,2.051-1.582,1.316ZM38.795,34.176l2.333-.002c.181.061.205,1.122.834,1.199.74.09,1.069-.543.851-1.191-.503-1.497-1.557-3.066-2.097-4.581-.206-.556-.716-.613-1.244-.556l-2.344,5.181c-.233.546.156,1.168.764,1.155.625-.014.693-.769.903-1.206Z"/>
      <path class="st0" d="M40.723,33.006h-1.5l.75-2.033.75,2.033ZM40.385,32.764l-.411-1.065-.411,1.065h.823Z"/>
    </g>
    <g>
      <path class="st0" d="M96.719,20c-.898-.902-1.346-2.091-1.346-3.565,0-1.474.448-2.663,1.346-3.565.897-.902,2.085-1.353,3.565-1.353,1.208,0,2.277.307,3.206.92l.271,1.908h-.122c-.198-.776-.6-1.374-1.204-1.794s-1.321-.629-2.151-.629c-1.182,0-2.127.411-2.835,1.231-.708.821-1.062,1.908-1.062,3.261s.35,2.442,1.048,3.267c.699.826,1.621,1.252,2.767,1.278,1.01,0,1.854-.274,2.53-.825.731-.596,1.173-1.565,1.326-2.909h.108s-.162,2.124-.162,2.124c-.821,1.344-2.088,2.016-3.802,2.016-1.425-.009-2.586-.465-3.484-1.366Z"/>
      <path class="st0" d="M113.99,21.041h.108s0,.135,0,.135h-3.044s0-.135,0-.135h.122c.189,0,.331-.061.426-.183.095-.121.142-.237.142-.345s-.018-.217-.055-.325l-.865-2.3h-3.653s-.906,2.313-.906,2.313c-.036.109-.055.215-.055.318s.047.217.142.338c.095.122.237.183.426.183h.122s0,.135,0,.135h-2.72s0-.135,0-.135h.122c.225,0,.446-.072.663-.216s.393-.357.528-.636l3.058-7.279c.334-.731.5-1.195.5-1.394h.122s3.626,8.673,3.626,8.673c.126.28.297.492.514.636.216.144.442.216.676.216ZM107.334,17.483h3.329s-1.624-4.343-1.624-4.343l-1.705,4.343Z"/>
      <path class="st0" d="M114.491,20.622c-.027-.126-.041-.37-.041-.73s.068-.744.203-1.151h.122c-.009.099-.013.198-.013.297,0,.551.167,1.009.5,1.374s.776.547,1.326.547c.569,0,1.035-.171,1.401-.514.366-.342.548-.773.548-1.292s-.176-.94-.527-1.265l-2.598-2.408c-.487-.451-.731-.996-.731-1.637s.214-1.188.643-1.644c.428-.456,1.007-.684,1.739-.684.342,0,.731.045,1.163.135h.528s0,1.665,0,1.665h-.122c0-.424-.146-.762-.439-1.015-.293-.252-.67-.379-1.13-.379s-.846.153-1.157.46c-.311.306-.467.689-.467,1.15s.181.858.541,1.191l2.666,2.462c.451.415.677.983.677,1.704s-.23,1.315-.69,1.779c-.46.465-1.074.697-1.84.697-.397,0-.819-.061-1.265-.183-.446-.121-.791-.308-1.035-.562Z"/>
      <path class="st0" d="M129.509,21.041h.108s0,.135,0,.135h-3.044s0-.135,0-.135h.122c.189,0,.331-.061.426-.183.095-.121.142-.237.142-.345s-.018-.217-.055-.325l-.865-2.3h-3.653s-.906,2.313-.906,2.313c-.036.109-.055.215-.055.318s.047.217.142.338c.095.122.237.183.426.183h.122s0,.135,0,.135h-2.72s0-.135,0-.135h.122c.225,0,.446-.072.663-.216s.393-.357.528-.636l3.058-7.279c.334-.731.5-1.195.5-1.394h.122s3.626,8.673,3.626,8.673c.126.28.297.492.514.636.216.144.442.216.676.216ZM122.852,17.483h3.329s-1.624-4.343-1.624-4.343l-1.705,4.343Z"/>
      <path class="st0" d="M92.518,24.326c0-.217-.077-.403-.23-.562-.153-.157-.334-.241-.541-.25h-2.57s0,8.104,0,8.104c.009.235.097.433.264.596.167.162.368.243.602.243h.176s0,.135,0,.135h-2.963s0-.135,0-.135h.176c.235,0,.435-.081.602-.243.167-.163.255-.357.264-.581v-8.118s-2.571,0-2.571,0c-.216.009-.399.092-.548.25-.149.159-.224.345-.224.562v.23s-.135.013-.135.013v-1.704c.135.054.369.108.703.162.334.055.641.081.92.081h4.573c.442,0,.81-.034,1.103-.101s.471-.115.535-.142v1.704s-.135-.013-.135-.013v-.23Z"/>
      <path class="st0" d="M96.239,23.541h-.866s0,8.064,0,8.064c0,.235.084.435.25.602.167.166.372.25.615.25h.162s.014.135.014.135h-2.963s0-.135,0-.135h.176c.235,0,.435-.081.602-.243.167-.163.254-.361.264-.596v-7.509c-.009-.235-.097-.435-.264-.601-.167-.167-.368-.251-.602-.251h-.176s0-.135,0-.135h3.653c.821,0,1.466.228,1.935.684s.704,1.046.704,1.773-.223,1.352-.669,1.881c-.446.527-.99.792-1.631.792.135.063.296.187.481.371.185.185.35.378.494.576.776,1.109,1.281,1.793,1.515,2.049.235.258.401.434.501.529.099.095.207.187.325.276.117.09.234.163.352.217.262.127.541.189.838.189v.135s-.744,0-.744,0c-.388,0-.749-.069-1.082-.209-.334-.14-.584-.285-.751-.434-.167-.149-.312-.293-.433-.433s-.458-.607-1.008-1.401c-.55-.793-.87-1.246-.961-1.36-.09-.112-.185-.222-.284-.331-.288-.306-.577-.459-.866-.459v-.135c.072.009.167.013.284.013s.262-.004.433-.013c1.118-.028,1.822-.497,2.111-1.407.054-.181.081-.35.081-.508v-.305c-.018-.603-.176-1.091-.473-1.461s-.699-.568-1.204-.595c-.216-.009-.487-.014-.812-.014Z"/>
      <path class="st0" d="M102.111,32.457c.235,0,.435-.084.602-.25.167-.167.254-.368.264-.602v-7.509c-.009-.235-.097-.433-.264-.596-.167-.162-.368-.243-.602-.243h-.176s0-.135,0-.135h2.963s0,.135,0,.135h-.176c-.235,0-.435.081-.602.243-.167.163-.255.361-.264.596v7.509c0,.235.086.435.257.602.171.166.374.25.609.25h.176s0,.135,0,.135h-2.963s0-.135,0-.135h.176Z"/>
      <path class="st0" d="M115.113,32.457h.108s0,.135,0,.135h-3.044s0-.135,0-.135h.122c.189,0,.331-.061.426-.183.095-.121.142-.237.142-.345s-.018-.217-.055-.325l-.865-2.3h-3.653s-.906,2.313-.906,2.313c-.036.109-.055.215-.055.318s.047.217.142.338c.095.122.237.183.426.183h.122s0,.135,0,.135h-2.72s0-.135,0-.135h.122c.225,0,.446-.072.663-.216s.393-.357.528-.636l3.058-7.279c.334-.731.5-1.195.5-1.394h.122s3.626,8.673,3.626,8.673c.126.28.297.492.514.636.216.144.442.216.676.216ZM108.456,28.899h3.329s-1.624-4.343-1.624-4.343l-1.705,4.343Z"/>
      <path class="st0" d="M123.698,24.427c.897.871,1.347,2.014,1.347,3.43s-.449,2.56-1.347,3.43c-.897.871-2.068,1.306-3.511,1.306h-4.587s0-.135,0-.135h.176c.235,0,.435-.084.602-.25.167-.167.254-.368.264-.602v-7.576c0-.217-.088-.4-.264-.548-.176-.149-.377-.224-.602-.224h-.162s-.013-.135-.013-.135h4.587c1.443,0,2.613.436,3.511,1.306ZM117.521,23.528v8.659s2.666,0,2.666,0c.758,0,1.428-.179,2.009-.541.582-.361,1.033-.869,1.353-1.523.32-.653.48-1.408.48-2.266,0-1.298-.354-2.345-1.062-3.139-.708-.793-1.635-1.19-2.78-1.19h-2.666Z"/>
      <path class="st0" d="M134.65,32.457h.108s0,.135,0,.135h-3.044s0-.135,0-.135h.122c.189,0,.331-.061.426-.183.095-.121.142-.237.142-.345s-.018-.217-.055-.325l-.865-2.3h-3.653s-.906,2.313-.906,2.313c-.036.109-.055.215-.055.318s.047.217.142.338c.095.122.237.183.426.183h.122s0,.135,0,.135h-2.72s0-.135,0-.135h.122c.225,0,.446-.072.663-.216s.393-.357.528-.636l3.058-7.279c.334-.731.5-1.195.5-1.394h.122s3.626,8.673,3.626,8.673c.126.28.297.492.514.636.216.144.442.216.676.216ZM127.994,28.899h3.329s-1.624-4.343-1.624-4.343l-1.705,4.343Z"/>
    </g>
    <path class="st0" d="M327.149,42.864h-23.305s0-41.426,0-41.426h23.305s0,41.426,0,41.426ZM319.153,9.995c.027,0,.127-.021.456-.217l.023-.014c.029-.017.105-.052.18-.02.035.015.081.05.103.132l.015.058c.033.125.071.266.071.36,0,.198-.111.268-.215.268-.044,0-.088-.016-.143-.037-.057-.021-.125-.047-.207-.06.113.248.433.89.594,1.171.043.075.02.172-.052.22l-.037.024c-.04.026-.089.034-.135.021-.046-.013-.084-.044-.105-.087l-.342-.706v1.412c0,.098-.08.178-.178.178-.059,0-.104-.019-.138-.053-.034-.034-.052-.079-.051-.126.003-.359.014-1.568.017-1.95-.048.029-.114.073-.189.126-.104.074-.181.053-.217.035-.048-.025-.106-.086-.106-.238v-.175c-.01-.031-.036-.118-.046-.183-.01-.061.012-.123.058-.167.032-.03.105-.076.225-.049l.083.019c.114.027.244.057.336.057ZM316.29,9.936l.476.043-.308,1.904c-.004.027.003.054.02.075.004.005.419.519.798,1.294.327.669.844,1.848,1.555,4.36.012.042.05.069.091.069.008,0,.017-.001.026-.004.05-.014.08-.066.065-.117-.715-2.527-1.237-3.717-1.567-4.392-.338-.691-.695-1.169-.795-1.297l.317-1.963c.004-.026-.003-.052-.019-.073-.016-.021-.04-.034-.066-.036l-.492-.044c0-.115.015-.34.097-.569.018-.049-.008-.103-.057-.121-.049-.017-.103.008-.121.057-.132.366-.107.712-.106.727.003.046.04.083.086.087ZM322.508,34.804c.198-.642,1.811-5.84,2.782-7.951-.008-.84-.571-1.341-1.509-1.341-1.612,0-1.737,1.208-1.737,1.579,0,.306.028.731.057,1.182.052.801.107,1.63.033,2.093-.282,1.787-1.042,3.903-1.241,4.439h1.614ZM320.693,34.804c.146-.39.962-2.611,1.256-4.468.058-.366.029-1.015-.01-1.655l-4.079,6.123h2.833ZM317.632,34.804l4.287-6.435c-.002-.028-.004-.057-.005-.084-.03-.453-.058-.882-.058-1.194,0-.351.087-.711.287-1.015-.606.476-1.07,1.205-1.572,1.998-1.084,1.712-2.308,3.641-5.467,3.815l-2.189,2.915h4.718ZM312.678,34.804l2.181-2.905c-.074.002-.148.004-.225.004-1.208,0-2.039-.438-2.732-.94-.293.302-1.759,1.86-2.916,3.841h3.692ZM308.766,34.804c1.151-2.002,2.637-3.596,2.982-3.955-.161-.122-.315-.245-.465-.366-.148-.119-.292-.234-.435-.342-.411-.244-.763-.314-1.076-.213-.671.217-1.09,1.194-1.534,2.228l-.015.035c-.523,1.217-1.177,2.243-1.424,2.613h1.967ZM309.714,29.749c.14-.045.284-.062.435-.051-.296-.145-.609-.237-.969-.237-.713,0-1.032.387-1.032.77,0,.359.358.592.469.656.3-.557.64-.99,1.097-1.138ZM325.577,25.832c.004-.59-.344-1.033-.883-1.404-.01-.003-.021-.003-.03-.009-.013-.008-.022-.02-.029-.032-.597-.394-1.412-.707-2.251-1.028-.178-.068-.358-.137-.536-.207-1.843-.722-2.251-2.191-2.646-3.611-.094-.339-.192-.69-.308-1.024-.398-1.148-1.08-2.126-1.475-2.634.107.4.185.873.185,1.442,0,1.83-1.088,2.882-2.049,3.81-.777.751-1.449,1.4-1.449,2.318,0,3.809-2.344,4.521-4.227,5.094-1.22.371-2.184.664-2.184,1.694,0,.386.265.764.726,1.037.036-.076.073-.151.11-.224-.132-.074-.57-.355-.57-.824,0-.462.382-.96,1.221-.96.898,0,1.541.517,2.221,1.065.803.646,1.713,1.378,3.232,1.378,3.407,0,4.665-1.987,5.776-3.741.772-1.219,1.507-2.374,2.864-2.605.026-.005.054-.008.081-.012.049-.007.097-.015.148-.019.089-.008.181-.013.278-.013.899,0,1.505.438,1.659,1.166.089-.248.136-.463.137-.657ZM304.033,19.131c.158-.75.235-1.515.311-2.261.206-2.043.385-3.808,2.263-3.808.199,0,.373.047.444.069.312-.167.675-.275,1.057-.33-.545-.24-1.104-.363-1.667-.363-1.305,0-2.407.885-2.407,1.934v4.759ZM310.489,4.845c.943,0,1.507-.893,1.507-1.757,0-.398-.119-.759-.336-1.017-.244-.291-.608-.444-1.052-.444-.954,0-1.468.886-1.468,1.721,0,.405.118.775.332,1.042.239.298.591.456,1.016.456ZM309.82,4.895l-.265.858c.045-.082.061-.162.062-.163.007-.034.031-.062.064-.072.013-.004.106-.031.199-.008l.177-.533c-.082-.022-.161-.048-.236-.083ZM310.117,6.66c0-.193-.102-.379-.179-.492-.028.041-.061.08-.096.117.042.078.168.32.22.508.007-.003.014-.008.021-.014.029-.028.035-.081.035-.12ZM309.54,6.816l-.034.394c.012.003.032.007.061.009.013-.065.002-.217-.026-.403ZM319.466,5.204c-.339-1.166-.979-1.733-1.957-1.733-.918,0-2.247.717-2.247,2.014,0,.506.162.926.558,1.452.06.08.124.16.191.243.019.023.052.028.076.012.023-.016.031-.047.019-.072-.169-.341-.26-.559-.26-.734,0-.442.346-.957,1.322-.957.409,0,.652-.212.847-.383.144-.127.269-.236.427-.236.329,0,.738.151.909.488.085.166.15.291.193.372.004.008.012.012.017.014.004.001.013.003.022-.003.012-.007.017-.02.014-.032-.025-.084-.068-.226-.131-.444ZM315.705,7.295c0,.239.339.651.686.651.103,0,.13-.031.13-.032.013-.029.037-.045.069-.05.031-.004.061.01.082.034.864.933,1.611,1.431,2.163,1.439.005,0,.01,0,.015,0,.268,0,.488-.103.655-.306.375-.456.475-1.426.253-2.472-.007-.035.005-.07.033-.093.01-.008.253-.217.253-.715,0-.16-.052-.463-.247-.463-.055,0-.087.006-.106.012.04.136.068.232.087.294.03.098-.012.202-.102.252-.051.029-.111.035-.167.019-.057-.017-.103-.054-.131-.106-.043-.082-.11-.208-.195-.375-.134-.264-.478-.384-.74-.384-.087,0-.182.083-.303.189-.207.181-.491.43-.971.43-.835,0-1.133.397-1.133.768,0,.151.119.404.24.65.054.11.019.244-.083.312-.042.028-.09.042-.138.042-.071,0-.142-.031-.191-.091-.044-.054-.084-.106-.125-.158-.018.03-.036.081-.036.154ZM320.051,7.304c.028.414.007.836-.091,1.202.113.33,1.015,2.975,1.395,4.592.024-1.211.05-2.76.054-3.028l-.648-.647c-.032-.032-.037-.084-.011-.121l.431-.614c-.383-.443-.858-1.207-1.006-1.449l-.124.065ZM319.65,9.151c-.204.249-.474.375-.8.375h-.019c-.221-.003-.464-.072-.726-.204.27,2.879.626,4.622.888,5.899.198.968.342,1.668.349,2.388.001.114,0,.225-.003.332.7.031,1.307-.052,2.049-.28-.089-1.302-.142-2.66-.058-3.469,0-.036.002-.075.003-.115-.026-.928-1.149-4.314-1.474-5.278-.056.13-.125.25-.21.353ZM321.402,17.854c-.643.194-1.19.283-1.785.283-.093,0-.189-.004-.284-.008-.002.058-.005.115-.008.17.608.045,1.46-.03,2.088-.296-.004-.049-.007-.099-.011-.148ZM319.292,18.723c.759.108,1.449.044,2.161-.201-.009-.106-.017-.214-.025-.323-.554.222-1.216.301-1.752.301-.13,0-.251-.006-.363-.014-.007.087-.013.167-.02.236ZM314.08,10.433c-.491.345-1.162.818-1.144,3.027.267-.029.513-.06.744-.088,1.845-.228,2.534-.313,3.408,1.604.058.127.118.267.175.421.127.143,1.245,1.432,1.809,3.058.015.044.028.089.042.133.013-.154.026-.34.033-.548,0-.005-.002-.01-.002-.015,0-.004.002-.007.003-.01.004-.128.006-.264.005-.405-.007-.702-.149-1.394-.345-2.352-.267-1.302-.631-3.082-.904-6.052-.268-.161-.555-.385-.86-.669-.635.397-2.452,1.537-2.963,1.896ZM312.073,13.731c-.587.045-1.242.185-1.46.235.001.025.004.049.004.075,0,.1-.019.209-.048.321,1.876.015,3.474.37,5.544,2,.001.001.002.003.003.004.005.004.009.01.013.015.003.005.007.009.01.014.003.006.004.012.006.018.002.006.003.011.004.017,0,.006,0,.011-.001.017,0,.007-.001.013-.003.02,0,.001,0,.003,0,.004-.002.004-.005.007-.007.011-.002.005-.004.01-.007.014-.001.001-.003.002-.004.003-.006.007-.014.012-.021.017-.004.002-.007.006-.011.007-.011.005-.024.008-.037.008,0,0-.001,0-.002,0-.002,0-.003-.001-.004-.002-.01,0-.02-.001-.029-.005-.844-.323-2.278-.596-4.985.747.026.167.04.346.044.537.638-.212,1.181-.392,1.461-.481.513-.163.98-.119,1.313.125.247.181.394.46.394.747,0,.517-.372.829-1.277,1.072.747-.005,1.606.106,2.122.509.289.225.435.519.435.874,0,.1-.016.194-.04.282.917-.887,1.926-1.901,1.926-3.611,0-.781-.149-1.38-.321-1.845,0-.002-.002-.004-.002-.007-.057-.154-.117-.293-.174-.42-.816-1.791-1.372-1.722-3.213-1.495-.466.058-.995.123-1.63.171ZM304.033,22.04c1.384-1.767,1.63-3.393,1.826-4.707.122-.82.223-1.472.567-1.942-.193-.239-.334-.487-.334-.756,0-.054.006-.105.01-.157-.508.117-.629,1.109-.779,2.345-.17,1.399-.382,3.141-1.272,4.365-.005.006-.011.01-.017.015v.837ZM306.823,13.271c-.064-.011-.138-.02-.216-.02-1.707,0-1.87,1.605-2.075,3.638-.096.949-.205,2.024-.499,3.016v.972c.747-1.172.943-2.774,1.102-4.076.165-1.36.299-2.442.995-2.516.089-.433.342-.769.693-1.013ZM304.033,23.176c1.866-2.154,2.897-4.712,2.907-7.237-.022-.022-.044-.045-.067-.067-.109-.11-.219-.221-.321-.333-.297.432-.392,1.05-.508,1.822-.195,1.306-.461,3.095-1.999,4.968-.004.005-.009.007-.014.011v.836ZM304.033,24.155c2.009-1.841,3.498-5.343,3.498-7.322,0-.225-.177-.459-.406-.704-.061,2.573-1.151,5.168-3.091,7.336v.69ZM307.72,16.834c0,.631-.143,1.408-.401,2.236.549-.185,2.226-.75,3.572-1.199-.004-.869-.245-1.901-1.341-1.992-.518.464-1.171.817-1.838.853.005.034.008.068.008.102ZM309.729,15.71c.666.116,1.101.589,1.271,1.369,2.255-1.109,3.653-1.114,4.563-.895-1.843-1.333-3.325-1.627-5.054-1.634-.142.379-.417.794-.78,1.16ZM306.719,20.624c.961-.235,5.183-1.27,6.143-1.518.992-.256,1.195-.547,1.195-.906,0-.227-.118-.449-.317-.594-.283-.207-.689-.242-1.144-.097-.942.299-4.87,1.623-5.352,1.786-.146.436-.321.883-.525,1.33ZM308.706,12.946c-.547,0-1.138.107-1.6.36-.008.006-.016.01-.025.013-.47.266-.801.689-.801,1.316,0,.375.369.745.726,1.103.032.032.064.064.095.096,0,0,0,0,0,0,.236.238.451.47.554.71.641-.02,1.281-.37,1.785-.827.004-.004.008-.009.013-.012.431-.394.76-.864.898-1.275.002-.007.004-.014.008-.021.042-.131.066-.256.066-.369,0-.747-.547-1.095-1.721-1.095ZM308.391,8.537l.357-.967c-.074.021-.153.032-.241.032-.045,0-.096-.006-.146-.011l.03.946ZM308.544,8.666c.074.06.17.104.272.126l.497-1.556.05-.576c-.036.026-.071.05-.108.078l-.712,1.928ZM309.758,7.074c.125-.014.137-.075.137-.148,0-.098-.111-.344-.198-.51-.011.009-.022.017-.033.026.041.188.088.435.095.632ZM309.345,5.793l-1.395.619c-.223.099-.382.301-.425.541l-.971,5.299c.604.017,1.202.166,1.781.446l-.164-5.139c-.03-.006-.056-.01-.088-.017-.051-.012-.082-.063-.07-.114.012-.051.061-.082.114-.07.382.091.552.061.711-.032l.251-.68c.006-.017.017-.031.031-.042.079-.061.158-.116.232-.169.301-.212.519-.366.519-.669,0-.023-.003-.054-.019-.065-.014-.01-.04-.013-.066-.011-.024.078-.078.213-.183.31-.141.131-.611.328-.665.35-.048.02-.103-.003-.123-.051-.02-.048.003-.103.051-.123.087-.036.273-.118.421-.196l.058-.186ZM304.033,34.355l3.881-3.23c-.262-.262-.408-.568-.408-.883,0-1.17,1.074-1.496,2.318-1.875,1.823-.554,4.093-1.244,4.092-4.913,0-.849.529-1.487,1.164-2.12.004-.005.257-.311.257-.679,0-.297-.119-.534-.363-.725-.799-.624-2.629-.499-3.257-.342,0,0,0,0,0,0-1.786.444-4.706,1.159-5.103,1.256-.645,1.345-1.534,2.656-2.579,3.568,0,0-.002,0-.003.002v9.941ZM324.696,24.201l1.462-2.195c.284-.426.439-.918.454-1.428-.314-.049-.783-.102-1.333-.102-2.292,0-3.418.718-3.43.726-.016.01-.034.015-.052.015-.014,0-.027-.003-.04-.009-.03-.014-.05-.042-.054-.075-.01-.093-.127-1.132-.234-2.417-.496.166-.982.249-1.487.249-.232,0-.468-.02-.711-.054-.007.062-.013.106-.016.129.044.151.087.303.128.452.4,1.439.778,2.798,2.533,3.486.178.07.356.138.534.206.829.317,1.635.627,2.245,1.018ZM326.905,20.436c-.524-1.4-1.031-2.535-1.479-3.537-1.01-2.258-1.74-3.89-1.74-6.494,0-1.446.313-2.149,2.386-4.023.258-.234.56-.501.888-.788v-2.871c-.488.356-.936.684-1.228.899-1.194.878-2.371,1.476-3.316,1.956-1.131.574-1.952.992-2.102,1.524.112.184.661,1.077,1.059,1.517.03.033.033.082.007.118l-.428.61.62.619c.018.018.028.043.028.069,0,.03-.047,2.885-.077,4.063,0,.031,0,.059-.002.085,0,.006,0,.012,0,.017,0,0,0,0,0,.001,0,.002,0,.004,0,.006-.177,1.68.265,5.927.355,6.763.361-.192,1.47-.682,3.403-.682.754,0,1.348.095,1.627.15ZM326.96,5.845c-.279.245-.536.474-.761.677-2.019,1.825-2.324,2.502-2.324,3.883,0,2.564.723,4.18,1.723,6.417.415.928.879,1.967,1.362,3.225V5.845ZM311.408,1.627c.151.082.285.189.397.322.245.292.38.696.38,1.138,0,.957-.635,1.946-1.696,1.946-.085,0-.167-.008-.246-.019l-.208.627c.015.033.025.073.025.125,0,.076-.013.144-.031.207.08.1.277.376.277.686,0,.113-.033.2-.097.26-.043.039-.089.056-.128.065-.016.131-.095.263-.335.279-.008.039-.019.072-.036.094-.027.034-.065.053-.107.053-.058,0-.103-.007-.141-.017l-.49,1.535c-.013.04-.049.066-.09.066-.003,0-.006,0-.009,0-.178-.018-.351-.095-.474-.206l.127,3.976c.06-.003.12-.005.181-.005,1.146,0,1.765.335,1.886,1.019.242-.054.885-.189,1.466-.234.246-.019.472-.041.688-.063-.021-2.146.567-2.74,1.225-3.202.504-.353,2.257-1.454,2.929-1.874-.1-.098-.202-.201-.306-.312-.045.024-.11.043-.203.043-.434,0-.876-.489-.876-.84,0-.129.042-.24.108-.307-.292-.397-.551-.856-.551-1.503,0-1.419,1.44-2.204,2.436-2.204,1.049,0,1.765.619,2.128,1.837.041-.012.092-.021.159-.021.301,0,.436.328.436.652,0,.466-.191.725-.279.82.034.169.062.347.081.529l.095-.05c.172-.611,1.027-1.045,2.201-1.641.939-.477,2.109-1.07,3.29-1.94.315-.232.81-.594,1.34-.981v-.861s-15.552,0-15.552,0ZM304.033,13.595c.379-.76,1.287-1.315,2.328-1.343l.977-5.333c.054-.301.254-.556.535-.68l1.547-.686.233-.752c-.122-.079-.232-.176-.326-.293-.241-.3-.374-.712-.374-1.16,0-.681.315-1.391.909-1.721h-5.828s0,11.968,0,11.968ZM304.033,34.804h2.538c.147-.214.895-1.33,1.478-2.688l.015-.035c.093-.216.185-.429.278-.634-.006-.002-.011-.001-.017-.005-.099-.059-.187-.123-.27-.19l-4.023,3.348v.204ZM326.96,34.804v-14.164c-.039-.008-.093-.019-.16-.031-.021.536-.186,1.053-.484,1.501l-1.463,2.197c.559.396.919.876.914,1.527-.002.304-.096.646-.294,1.074,0,0,0,0,0,.001,0,0,0,.002,0,.002-.942,2.036-2.506,7.056-2.765,7.893h4.254ZM305.34,38.47v-2.603s.654,0,.654,0v-.259h-1.597v.259h.658s0,2.603,0,2.603h.286ZM307.382,35.607h-.321s-1.222,2.862-1.222,2.862h.298s.418-.963.418-.963h1.331s.414.963.414.963h.313s-1.23-2.862-1.23-2.862ZM306.663,37.247l.561-1.315.549,1.315h-1.11ZM310.767,37.649c0-.305-.17-.576-.476-.704.228-.182.313-.34.313-.577,0-.433-.321-.762-.921-.762h-.735v2.862h.851c.747,0,.967-.429.967-.82ZM309.235,35.867h.429c.53,0,.654.278.654.491,0,.166-.081.483-.631.483h-.452s0-.974,0-.974ZM309.235,38.211v-1.11s.542,0,.542,0c.421,0,.704.224.704.549,0,.414-.336.561-.704.561h-.542ZM312.727,38.211h-1.28s0-1.056,0-1.056h1.238v-.259h-1.238s0-1.029,0-1.029h1.28v-.259h-1.566v2.862h1.566v-.259ZM314.089,37.174h-.278s.971,1.296.971,1.296h.36s-.808-1.068-.808-1.068c.503-.039.851-.406.851-.87,0-.483-.333-.924-1.079-.924h-.863v2.862h.286v-2.603s.545,0,.545,0c.658,0,.824.387.824.657,0,.391-.301.65-.808.65ZM315.903,35.952h.008s1.698,2.518,1.698,2.518h.286v-2.862h-.286v2.375s-.008,0-.008,0l-1.597-2.375h-.387v2.862h.286v-2.518ZM319.786,35.607h-.321s-1.222,2.862-1.222,2.862h.298s.418-.963.418-.963h1.33s.414.963.414.963h.313s-1.23-2.862-1.23-2.862ZM319.067,37.247l.561-1.315.549,1.315h-1.11ZM323.731,38.04c.279-.286.414-.63.414-.986,0-.484-.236-.94-.623-1.195-.255-.166-.604-.251-.948-.251h-.847v2.862h.835c.484,0,.89-.139,1.168-.429ZM322.014,38.211v-2.344s.514,0,.514,0c.367,0,.673.089.874.244.302.232.457.557.457.928,0,.298-.101.595-.317.828-.209.22-.526.344-1.002.344h-.526ZM326.002,38.211h-1.28s0-1.056,0-1.056h1.238v-.259h-1.238s0-1.029,0-1.029h1.28v-.259h-1.566v2.862h1.566v-.259ZM306.545,41.468l-1.041-2.437h-.441v2.862h.286v-2.549s.008,0,.008,0l1.064,2.549h.244s1.071-2.549,1.071-2.549h.008s0,2.549,0,2.549h.286v-2.862h-.441s-1.044,2.437-1.044,2.437ZM309.593,39.031l-1.222,2.862h.298s.418-.963.418-.963h1.331s.414.963.414.963h.313s-1.23-2.862-1.23-2.862h-.321ZM309.195,40.671l.561-1.315.549,1.315h-1.11ZM313.469,41.406h-.008s-1.597-2.375-1.597-2.375h-.387v2.862h.286v-2.518s.008,0,.008,0l1.698,2.518h.286v-2.862h-.286v2.375ZM316.002,40.857c0,.623-.36.828-.688.828-.379,0-.689-.255-.689-.832v-1.822h-.286v1.806c0,.743.429,1.106.975,1.106.553,0,.975-.375.975-1.098v-1.814h-.286v1.826ZM316.853,41.893h1.566v-.259h-1.28s0-1.056,0-1.056h1.238v-.259h-1.238s0-1.029,0-1.029h1.28v-.259h-1.566v2.862ZM319.259,39.031h-.286v2.862h1.47v-.259h-1.184s0-2.603,0-2.603ZM320.814,41.893h.286v-2.862h-.286v2.862ZM321.495,39.29h.658s0,2.603,0,2.603h.286v-2.603s.654,0,.654,0v-.259h-1.597v.259ZM324.72,38.981c-.839,0-1.512.673-1.512,1.497,0,.832.731,1.466,1.512,1.466.831,0,1.516-.673,1.516-1.481,0-.816-.685-1.482-1.516-1.482ZM324.72,41.684c-.665,0-1.226-.561-1.226-1.207,0-.665.545-1.238,1.222-1.238.688,0,1.234.565,1.234,1.226,0,.658-.545,1.218-1.23,1.218Z"/>
  </g>
</svg>