<?xml version="1.0" encoding="UTF-8"?>
<svg id="Layer_1" xmlns="http://www.w3.org/2000/svg" version="1.1" viewBox="0 0 336 38.5">
  <!-- Generator: Adobe Illustrator 30.2.1, SVG Export Plug-In . SVG Version: 2.1.1 Build 1)  -->
  <defs>
    <style>
      .st0 {
        fill: #231f20;
      }

      .st1 {
        fill: #fafafa;
      }
    </style>
  </defs>
  <rect class="st1" x="-26.9" y="-569.1" width="390" height="844"/>
  <g>
    <g>
      <path class="st0" d="M15.2,22.3c0-.8,0-1.6.1-2.4.7-2.8,4-4.5,6.7-3.4.3.1,1.4.8,1.5.8s.5-.7.6-.8c.6-.6,1.7-.4,1.9.4s-.5,2-.6,3.1c-.2,1.7,1.3,3.2.3,4.9s-2.3.9-2.8-.2c-.3-.6-.2-1.6-1.2-.7s-.8.9-1.5,1.3c-1.1.6-2.7.5-3.7-.3s-.7-.7-.9-1.1c0,.8-.5,1.5-1.3,1.7-1.4.3-2.7-.6-4.2-.4s-2,.8-3.1.3-.6-.4-.7-.8c-.5-1.7,1.1-2.8,1.6-4.3s0-3.4.6-4.8,2.9-1.2,3.1.7c.2,2.5-2.9,2.9-2.1,5.8s2.2.3,3.1,0,1.6-.2,2.2,0,.3.3.4.2ZM20.8,18c-3.4,0-3.8,5.4,0,4.4s1.6-.9,2.1-1.6c1-1.6-.4-2.8-2-2.8Z"/>
      <path class="st0" d="M64.7,12.7c1.2-.1,2.2.7,1.7,1.9-.6,1.8-3.6,1.6-3.4-.5s.9-1.4,1.7-1.5Z"/>
      <path class="st0" d="M40.8,17c.3-.2.7-.4,1-.5,2.2-.8,6.5-.8,6.4,2.5-.1,2.3-2.5,3-4.4,2.6s-1.3-.5-1.8-.6c-1-.1-1.2.8-.5,1.4s2.5.7,3.5.5,2.3-1.2,3.3-.4h0c.3-.5.5-1,.7-1.5s.2-1.1.3-1.6c0-1.5-.3-3.9,2.2-2.9s.8.6,1.4.4c1-.3,1.3-.8,2.6-.6s1.1.5,1.6,1.2,0,0,0,0c.2-.9.6-2.8,1.5-3.1s1.6.3,1.9,1.1c.6,2.7-2.7,3.6-2.5,5.8s.1.7.4.9c1.1.8,3-1.3,3.7.5,0,0,.4-.7.4-.8.6-1.4.4-2.7.6-4.1s1.4-1.9,2.6-1.1c0-.5.1-1,.5-1.3.9-.7,2.1-.1,3,0,1.5.3,3.3-.3,4.8-.4s2.5,0,2.5,1.6c.4-.2.9-.4,1.4-.5,1.2-.2,2.2,0,3.2.5.2.1.7.5.9.5s.1,0,.2,0c0,0,.3-.5.4-.6.6-.7,1.8-.6,2,.4s-.6,2-.7,3.1c-.1,1.6,1.4,3.3.2,4.9-.5.7-2.2.8-2.6,0s-.4-1.2-.5-1.3c-.4-.2-1,.6-1.2.8-.6.6-1.4,1.1-2.3,1.1-3.8.3-4.8-4.4-3.1-7.1-.4,0-.8-.2-1.2-.2-1.2,0-1.9,1.3-2.1,2.3s0,2.5-.4,3.7c-.8,2.2-3.3,1.4-3.2-.8s.8-1.9,1.2-2.7.8-1.5.8-1.9c.2-1.4-1.7-.5-2.4-.4s-1-.2-1.4-.6c-.3,1.4-1,2.8-1.1,4.2s0,.6,0,.9c0,.4,0,1.7-.3,2-.5,1-2.3.8-2.8-.2-.5.4-1,.6-1.6.7-1.2.2-2.8.2-3.8-.7s-.7-2.8-.2-4.2c-.6.2-1.4.3-1.9-.1s-1.1-1.4-2-.9-1.1,2.5-1.2,3.5-.3,1.6-.6,2c-.6.7-2,.7-2.4-.1-1.3.7-3,.8-4.5.6-2.4-.3-4.9-2-4.7-4.7-.9.4-2,.5-3,.4s-1.1-.2-1.5-.2-.7.5-.8.9c-.2.8-.1,1.7-.3,2.6-.3,1.4-2.5,1.4-2.8,0s2-3.6,1.5-5.9-.6-.3-1.2-.2c-2.1.2-2.4-2.7-.6-3.6s6.3-.7,8.1-.3,2.5,1,2.7,2.4ZM35.5,16.7c-1.3,0-1.9.7-1.8,2s.1.7.7.9c1,.2,3-.2,3.3-1.4s-1.3-1.5-2.1-1.5ZM80.7,21.5c2.9-2.9-2.1-4.9-3.7-2.2-.6,1.1-.7,2.9.8,3.2s2.2-.3,2.9-1ZM43.7,18.1c-.6,0-1.6.6-1.1,1.3s1.5.6,2,.4.9-.8.5-1.3-1-.4-1.4-.3Z"/>
    </g>
    <g>
      <path class="st0" d="M120.6,16.5c0-.5.6-1.8,1.2-1.9s.5,0,.6,0,.8-1.1.9-.4,0,1.9.2,2.1.3-.1.3.1-.7,1.2-1.1,1.3-.3-.2-.4-.4c-.4.7-1,1.7-1.7.6,0,.4-.9,1.2-1.2,1.2s-.2-.5-.3-.4-.5.7-.8.9c-1.2.6-.8-1.4-1-2h-.4c0,0,0,.7,0,.7,0,0-.2.4-.2.5-.4.5-1,.7-1.6.8,0,.2,0,.2.2.2.5,0,1.5-.8,1.8,0s-.4,1.4-1,1.6-1.6.4-1.7-.3,0-.3,0-.3-.2-.3-.2-.2,0,.1-.2.2c-.3.2-1.8.5-1.7-.1s.3-.2.2-.5-1.1,0-1.2,0c-.3.3.6.3.3.8s-1.1.3-1.3.2-.3-.2-.3-.4c0-.4.2-.2.3-.5s.2-.7.3-.9c.3-.9.5-1.8.5-2.7.1-.4.7-.4,1-.2.7.5,1.1,2.6,1.6,3.4s.2.2.3.3.1-.2.2-.3.2-.2.3-.3c0,0-.2-.2-.3-.3-.2-.2-.2-.7-.2-1s.5-.9.9-1,.8-.2,1-.3.1-.5.3-.6.3.1.4.2c.2.3-.1.6.2.8,0-.4,1-1.3,1.3-1.2s.2.2.2.3c0,.5,0,1,0,1.5s0,.5.2.4c.5-.2,0-1.8.3-2.3s1-.9,1.1-.4,0,1,0,1.5,0,.5.1.5.3,0,.3,0c0-.4,0-.8,0-1.2ZM122.3,15.2c-.2-.1-.4.6-.4.7,0,.2-.2,1.1,0,1.1s.4-1,.4-1.2,0-.6,0-.7ZM115.7,17.7c-.4-.5-.5,1.2-.2,1.3s.3-1.1.2-1.3ZM111.5,19.3c.1,0,.6,0,.7,0s-.3-.9-.4-.9,0,0,0,0c0,.1-.2.8-.2.9ZM116.1,20.6c-.4,0-.7.2-1.1.2,0,.6,1.2.3,1.1-.2Z"/>
      <path class="st0" d="M137.1,9.5c0-.6.3-.4.4-.6s0-.4.1-.6.8-.4.9-.3,0,.6.1.7.4,0,.5,0c0,.2.1.4,0,.5s-.4,0-.5.3,0,1.1.1,1.1.5-.1.5-.1,0-.5,0-.6c0-.8.9-1.7,1.7-1.8,1.4-.2,1,1.6,0,2s-.5,0-.4.2.5.2.6,0,.5-.6.7-.2-.5,1-1,1.1c-.6.2-1.4,0-1.7-.6-.2.5-1.3,1.2-1.7.8s-.2-.5-.2-.7,0-1.2,0-1.3-.3,0-.5,0c0,.3,0,.7,0,1.1s0,.4.1.4.3,0,.2.2c0,.4-1.1,1-1.4.7s-.1-1.2-.2-1.6-.2-.2-.3,0c-.3.4.1,1.4-.1,1.8s-.9.6-1.1.3,0-1.7-.3-1.8-.3,0-.3,0c0,0,0,.4,0,.5,0,.3-.4.6-.6.7s-.6.3-.6.3c0,.2.2.2.3.2.4,0,.8-.8,1.1-.6.4.4-.9,1.3-1.2,1.4s-.8.2-1.1,0l-.3-.3c0,.5-.9,1.3-1.4,1.2s-.2-.6-.2-.7c0-.4,0-.8,0-1.2,0-.1-.2,0-.3,0-.3-.2.3-.7.4-.9s.8-.6,1-.4.1,1.6.2,2h.3c-.3-1.1.3-2.2,1.2-2.7s1-.4,1.3.1c0-.3,1-.9,1.3-.8s.1.3.3.4c.4-.4.8-.9,1.4-.7s.2.2.3.3ZM140.7,9.6c.2.2.5-.9.2-.9s-.3.8-.2.9ZM132.7,10.6c-.2,0-.4.9-.1.9s.5-.8.1-.9Z"/>
      <path class="st0" d="M125.2,14.2c0,1.1.7,2-.6,2.6s-.5.2-.6-.2,0-1.8-.1-1.9-.6.3-.5-.4.8-1,1-1.1.3.5.4.5c.2-.3.1-.7.5-.9.9-.4,1.1,1.3.3,1.5s-.3-.1-.5-.2Z"/>
      <path class="st0" d="M130.5,10.4c-.1.1-.5.4-.7.5-.5,0-.6-.1-.4-.5s.4-.5.7-.6c.8-.4,1.1.1.5.7Z"/>
      <path class="st0" d="M129.3,13.5c.1,0,.5-.1.3.4s-.9,1.2-1.2,1-.1-.5-.3-.4-.3.6-.4.7c-.4.5-1,.6-1.2,0s0-2.3.6-2.9.5-.2.8-.2c0-.1,0-.4,0-.5s-.5.2-.4-.3.7-.8,1-.9.4-.2.5,0c.1.4.2,3,.3,3.1ZM127.9,12.6c-.2,0-.3.5-.3.7s-.1,1,0,1c.3,0,.4-.7.4-.9s0-.9-.2-.8Z"/>
      <path class="st0" d="M135.3,15.1c0,.6-.3,1.2-.8,1.6s-.6.3-.6.4,0,.2.1.2c.5.2,1-.7,1.2-.7s.3.4.2.6c-.3.7-1.8,1.7-2.6,1.2l-.3-.4c0,.4-.9,1.4-1.3,1.4s-.3-.5-.4-.4-.5.7-.6.8c-.3.3-.8.6-1.1.2s0-1.7-.2-1.9-.6.2-.4-.4.9-1,1.2-1.2.3-.2.4,0c.2.3,0,2,.3,2.2s.4-.6.4-.7c0-.5-.1-1.2,0-1.6s.9-.9,1.2-.6,0,1.7.2,2.1.3,0,.4,0c-.3-1.2.4-2.6,1.5-3.1s1.2-.4,1.4.2c.2-.4.8-.8,1.2-1s.4.4.6.4.6-.8,1.2-.8c1.1,0,.6,1.6.8,2.2s.2.1.3.2c.4.5-.9,1.2-1.3,1.1s-.3-1.4-.3-1.8,0-.5-.3-.5c-.5.1-.1,1.8-.3,2.2s-.8.6-1.1.5-.1-1.3-.1-1.6,0-.5,0-.6c0-.2-.3,0-.5-.2ZM133.8,16.4c.4,0,.6-1,.3-1.1s-.4.9-.3,1.1Z"/>
      <path class="st0" d="M116.5,22.4c1.3-.2.6,1.7.9,1.9s.3,0,.3.2c0,.4-1.1,1.1-1.5.9s0-1.5-.3-1.8c-.8.2-.1,1.4-.4,1.9s-1.1.6-1.2.2,0-1.7-.2-1.7-.4,0-.4-.2,1-.9,1.3-.9.3.5.5.4.6-.7,1-.8Z"/>
      <path class="st0" d="M117.8,22.8c0-.2-.5.2-.5-.2s.4-.4.5-.6,0-.6.2-.8.7-.5.9-.4,0,.6.2.8c.1,0,.5-.3.5,0s0,.4,0,.5c0,.2-.4,0-.5.4s0,1.1,0,1.2c.2.3.7-.5.7,0s-1.9,2-2.1.8,0-.5,0-.7c0-.2,0-.8,0-.9Z"/>
      <path class="st0" d="M136.6,13.1c0,.7-.9.7-.7-.1s1.2-.5,1.7-.4c0-.6.8-.6.8,0,0,1.1-1.2.6-1.8.6Z"/>
      <path class="st0" d="M120.9,19.3c.6,0,.5.5.2.8s-1,.9-1.4.7.7-1.4,1.2-1.5Z"/>
      <path class="st0" d="M128.7,21.2c0,0,.4,0,.4.2,0,.4-.8.8-1.1.9s-1.1.4-1.1,0,.2-.2.3-.4.1-.6,0-.9c0-.5-.3,0-.4.2-.3.4-1,1.1-1.5.6-.8-.9,0-3.4,1.2-3.8s.5,0,.7,0,.3-.4.5-.6.4-.3.5,0c.2,1,.2,2.2.3,3.2s0,.5.1.5ZM126.9,18.6c-.3,0-.5,1.5-.4,1.8s0,.2.2.2c.3-.3.4-.8.5-1.2s.1-1-.2-.9Z"/>
      <path class="st0" d="M110.8,25.7c0,0,0,.2,0,.3s.3,0,.4.2c0,.4-.7.6-1,.7s-.7.2-.8,0c-.2-.4.2-.5.3-.7.3-.5.8-2.2.9-2.8s-.1-1.2.6-1.2.9.3,1.2.8,1.1,2.4,1.3,2.5.5,0,.4.3-.8.5-1.1.6-1,.3-1.1,0,.4-.4.2-.6-1.2,0-1.3.2ZM111.3,23.8c-.1,0-.4.9-.3,1s.7,0,.7-.1-.4-.9-.5-.9Z"/>
      <path class="st0" d="M140.7,13.2c2.3-.3,2.5,3.3.5,3.6s-2.4-3.3-.5-3.6ZM140.8,14c-.1,0-.2.3-.2.4,0,.3,0,1.3.2,1.6.2.3.4,0,.4-.2s0-1.6-.2-1.7-.2,0-.2,0Z"/>
      <path class="st0" d="M121.9,22.8s0,0,0,0c-.4-.9.2-2.2.9-2.8s2-1.1,2.3.2-.4,2.4-1.4,2.9-1.3.4-1.7-.2ZM123.4,20.3c-.3,0-.2.9-.2,1.2s0,1.2.4.8.1-1.7,0-1.9-.1,0-.2,0Z"/>
      <path class="st0" d="M121.9,22.8c.1.6-1.3,1.6-1.6,1.2s-.1-1.5-.2-1.9c0,0-.4.2-.4-.2s.3-.6.5-.7.9-.7,1.1-.6.1,1.9.2,2.2h.3c0,0,0,0,0,0Z"/>
      <path class="st0" d="M121.9,22.8s0,0,0,0c0,0,0,0,0,0Z"/>
      <path class="st0" d="M131.6,27.7h3c.3,0,.4.4,0,.5-.9.1-1.9,0-2.8,0s-1.3.3-1.3-.2.1-.3.2-.4c.9-.9,2.7-1.9,3-3.2s-1-.8-1.6-.4-.4.5-.6.2,0-.5.2-.6c.7-.6,2.4-.9,2.6.3s-1.8,2.9-2.8,3.7Z"/>
      <path class="st0" d="M137.1,26.2h1s.2.2.2.2-.1.3-.2.3h-1.1v1s0,.4,0,.4c0,.1-.2.1-.3,0-.3-.2,0-1.2-.1-1.5h-1.8c-.5-.1-.6-.3-.3-.7.4-.8,1.5-1.9,2-2.6s.3-.5.5-.5c.5,0,.3,1.3.3,1.6v1.6ZM136.7,24.1l-1.7,2.1h1.6s0-2.1,0-2.1Z"/>
      <path class="st0" d="M139.5,23.7c0,.4-.3.7-.7.7s-.7-.3-.7-.7.3-.7.7-.7.7.3.7.7ZM138.7,23.4c-.2,0-.2.8.2.6s.2-.8-.2-.6Z"/>
      <path class="st0" d="M136.6,31.4s0,0,0,0c.2,0,.4-.6.5-.8.1-.3.2-1,.3-1.1.2-.3.2.1.2.3,0,.5-.2.9-.2,1.4s.1.7-.2.8c0-.1.1-1.1,0-1.1-.1.3-.5.9-.8,1s0,0,0,0c0-.1,0-.2,0-.3s0,0,0,0c-.5,0-1.2.6-1.7.7s-.2,0-.2,0c0-.5,1.2-1.7,1.5-2.1,0-.1,0,0-.1,0-.2,0-.8.3-.9.2,0-.4,1.2-.5,1.3-.4s0,0,0,.1c0,.4-1.2,1.5-1.3,1.9.5-.2,1-.5,1.5-.6,0-.2,0-.4,0-.7s0-.7.3-.7v1.7Z"/>
      <path class="st0" d="M141.4,29.7c.5-.1,1,0,.5.5s-.3.2-.5.3,0,0,0,0c0,.2.7.7.9.9s0,.4-.2.3-.9-1.1-1.1-1c-.2.3,0,1.1-.5,1.2,0,0,.3-1.2.3-1.4s0-.1.1-.2c.1-.3.2-.8.5-.9v.2ZM141.2,30.3s.7-.3.7-.3c-.3-.2-.7,0-.7.3Z"/>
      <path class="st0" d="M140.2,28.2c.2.4-.5.8-.8,1s-1,.4-.8,0,.5-.2.7-.3.6-.3.6-.4c0-.3-1.2.2-1.4-.1s.2-.9.5-1.1.8-.5.8-.2-.3.2-.5.3-.8.6-.6.8,1.2-.2,1.4,0Z"/>
      <path class="st0" d="M142.4,26.8s-.3.9-.3,1.1c0,.5,0,.9,0,1.4-.1.1-.1.1-.2,0l-.6-1.8c0,.3-.1.7-.2,1s0,.9-.2.9,0-.7,0-.8c0-.3.1-.8.2-1.1s.1-.5.3-.7c0,.4.2.9.3,1.3s.1.4.2.3c0-.4,0-.8.2-1.2s.2-.6.4-.5Z"/>
      <path class="st0" d="M134.1,30.4s-.3.1-.4.1c-.2.2-.2,1-.4,1.2s-.1,0-.1,0l.2-.8h-.2c0-.2.3-.3.4-.5.2-.3.2-.9.6-1.1.1,0,.2.5.2.6,0,0,.5-.3.4,0s-.4.2-.4.3,0,.6,0,.8,0,.5,0,.7c0,.1-.1.2-.2.2v-1.6ZM133.8,30.3c.3,0,.3-.2.2-.5,0,0-.3.5-.2.5Z"/>
      <path class="st0" d="M140.8,29.9c0,.2-.4.3-.4.3,0,.3,0,1.5,0,1.7s-.2,0-.2,0c0-.3,0-.7,0-1s0-.3,0-.5c-.6.1-.4,1-.7,1.3s-.1,0-.2,0l.2-.8h-.2c0-.2.3-.3.3-.4.1-.2.3-1,.6-1s.2.5.3.5.3-.2.4,0ZM140,29.9c-.1,0,0,0-.1.1s-.2.3-.1.3c.3,0,.3-.2.2-.4Z"/>
      <path class="st0" d="M138.8,29.7c.1.1,0,.4-.2.3s0-.2-.2-.1c-.2,0-.4,1-.4,1.2s0,.6.1.7c.2,0,.7-1,1-1.1s.2,0,.1.1-.6.9-.7,1c-.2.2-.6.4-.7,0s0-1.4.3-1.9.4-.6.7-.3Z"/>
      <path class="st0" d="M140.9,26.9c-.2.6-.3,1.2-.4,1.8s.1.6-.2.7c0-.6,0-1.3.2-1.9s.2-.6.4-.6Z"/>
      <path class="st0" d="M137.5,28.7c.4,0-.2.8-.3.8s-.2.1-.2,0,.4-.8.5-.8Z"/>
      <path class="st0" d="M144.9,2.5v2.4c-4.9-.3-9.6,1.2-14,3-7,2.8-14.6,7.1-22.2,7.6s-1.1,0-1.4,0-.2,0-.2,0v-2.3c7.8,0,14.8-3.9,21.7-6.8s10.5-4.1,16.1-3.8Z"/>
      <path class="st0" d="M144.9,21.5c-.3,0-.6,0-.9,0-1.3,0-2.6,0-4,.3-2,.3-3.9.8-5.8,1.5-.8-.5-2-.3-2.7.3s-.4.4-.4.8c-7.8,3-15.5,7.6-24.1,7.7v-2.4c7.7,0,14.7-3.8,21.7-6.7,3.8-1.6,7.9-3.2,12.1-3.7s2.8-.3,3.9-.2.2,0,.2,0v2.3Z"/>
      <g>
        <polygon class="st0" points="132.7 35.1 132.8 35.6 132.9 35.1 133.1 35.1 133.1 35.7 133 35.7 133 35.3 132.9 35.7 132.8 35.7 132.8 35.7 132.7 35.3 132.7 35.7 132.6 35.7 132.6 35.1 132.7 35.1"/>
        <polygon class="st0" points="137.2 35.1 137.4 35.6 137.5 35.1 137.6 35.1 137.6 35.7 137.5 35.7 137.5 35.3 137.4 35.7 137.3 35.7 137.3 35.7 137.2 35.3 137.2 35.7 137.1 35.7 137.1 35.1 137.2 35.1"/>
        <polygon class="st0" points="127.8 35.1 127.9 35.6 127.9 35.1 128 35.1 128 35.7 127.9 35.7 127.8 35.2 127.8 35.7 127.7 35.7 127.7 35.1 127.8 35.1"/>
        <polygon class="st0" points="135.2 35.1 135.3 35.6 135.3 35.1 135.4 35.1 135.4 35.7 135.3 35.7 135.2 35.2 135.2 35.7 135.1 35.7 135.1 35.1 135.2 35.1"/>
        <polygon class="st0" points="138 35.1 138.2 35.6 138.2 35.1 138.3 35.1 138.3 35.7 138.2 35.7 138 35.2 138 35.7 137.9 35.7 137.9 35.1 138 35.1"/>
        <path class="st0" d="M130.1,35.1s0,0,0,0c0,0,0,.2,0,.2h0c0,0,0,.1,0,.2s0,.1,0,.2,0,0,0,0h-.2v-.6c0,0,.1,0,.2,0ZM130,35.4h0s0,0,0,0c0,0,0-.1,0-.2s0,0,0,0h0v.2ZM130,35.7h0s0,0,0,0c0,0,0,0,0-.1s0,0,0,0,0,0,0,0h0v.2Z"/>
        <path class="st0" d="M130.8,35.1s0,0,0,0c0,0,0,.2,0,.2h0c0,0,0,.1,0,.2s0,.1,0,.2,0,0,0,0h-.2v-.6c0,0,.1,0,.2,0ZM130.7,35.4h0s0,0,0,0c0,0,0-.1,0-.2s0,0,0,0h0v.2ZM130.7,35.7h0s0,0,0,0c0,0,0,0,0-.1s0,0,0,0,0,0,0,0h0v.2Z"/>
        <path class="st0" d="M133.3,35.1s0,0,0,0c0,0,0,.2,0,.2h0c0,0,0,.1,0,.2s0,.1,0,.2,0,0,0,0h-.2v-.6c0,0,.1,0,.2,0ZM133.2,35.4h0s0,0,0,0c0,0,0-.1,0-.2s0,0,0,0h0v.2ZM133.2,35.7h0s0,0,0,0c0,0,0,0,0-.1s0,0,0,0,0,0,0,0h0v.2Z"/>
        <path class="st0" d="M124.2,35.1s0,0,0,0c0,0,0,.2,0,.2h0c0,0,0,.1,0,.2s0,.1,0,.2,0,0,0,0h-.2v-.6c0,0,.1,0,.2,0ZM124,35.4h0s0,0,0,0c0,0,0-.1,0-.2s0,0,0,0h0v.2ZM124,35.7h0s0,0,0,0c0,0,0,0,0-.1s0,0,0,0,0,0,0,0h0v.2Z"/>
        <path class="st0" d="M129.1,35.7v-.6h.2s0,0,0,0c0,0,0,0,0,.1,0,.1,0,.2,0,.4,0,0,0,0,0,.1s0,0,0,0h-.2ZM129.1,35.7h0s0,0,0,0c0,0,0,0,0,0,0-.1,0-.3,0-.4,0,0,0,0,0,0s0,0,0,0h0v.5Z"/>
        <path class="st0" d="M128.1,35.7v-.6h.2s0,0,0,0c0,0,0,0,0,.1,0,.1,0,.2,0,.4,0,0,0,0,0,.1s0,0,0,0h-.2ZM128.1,35.7h0s0,0,0,0c0,0,0,0,0,0,0-.1,0-.3,0-.4,0,0,0,0,0,0s0,0,0,0h0v.5Z"/>
        <path class="st0" d="M131.1,35.7v-.6h.2s0,0,0,0c0,0,0,0,0,.1,0,.1,0,.2,0,.4,0,0,0,0,0,.1s0,0,0,0h-.2ZM131.2,35.7h0s0,0,0,0c0,0,0,0,0,0,0-.1,0-.3,0-.4,0,0,0,0,0,0s0,0,0,0h0v.5Z"/>
        <path class="st0" d="M141.8,35.7v-.6h.2s0,0,0,0c0,0,0,0,0,.1,0,.1,0,.2,0,.4,0,0,0,0,0,.1s0,0,0,0h-.2ZM141.8,35.7h0s0,0,0,0c0,0,0,0,0,0,0-.1,0-.3,0-.4,0,0,0,0,0,0s0,0,0,0h0v.5Z"/>
        <path class="st0" d="M141,35.7v-.6h.2s0,0,0,0c0,0,0,0,0,.1,0,.1,0,.2,0,.4,0,0,0,0,0,.1s0,0,0,0h-.2ZM141.1,35.7h0s0,0,0,0c0,0,0,0,0,0,0-.1,0-.3,0-.4,0,0,0,0,0,0s0,0,0,0h0v.5Z"/>
        <path class="st0" d="M139.8,35.7v-.6h.2s0,0,0,0c0,0,0,0,0,.1,0,.1,0,.2,0,.4,0,0,0,0,0,.1s0,0,0,0h-.2ZM139.9,35.7h0s0,0,0,0c0,0,0,0,0,0,0-.1,0-.3,0-.4,0,0,0,0,0,0s0,0,0,0h0v.5Z"/>
        <path class="st0" d="M121.8,35.7v-.6h.2s0,0,0,0c0,0,0,0,0,.1,0,.1,0,.2,0,.4,0,0,0,0,0,.1s0,0,0,0h-.2ZM121.8,35.7h0s0,0,0,0c0,0,0,0,0,0,0-.1,0-.3,0-.4,0,0,0,0,0,0s0,0,0,0h0v.5Z"/>
        <path class="st0" d="M116.1,35.7v-.6h.2s0,0,0,0c0,0,0,0,0,.1,0,.1,0,.2,0,.4,0,0,0,0,0,.1s0,0,0,0h-.2ZM116.2,35.7h0s0,0,0,0c0,0,0,0,0,0,0-.1,0-.3,0-.4,0,0,0,0,0,0s0,0,0,0h0v.5Z"/>
        <path class="st0" d="M110.3,35.7v-.6h.2s0,0,0,0c0,0,0,0,0,.1,0,.1,0,.2,0,.4,0,0,0,0,0,.1s0,0,0,0h-.2ZM110.4,35.7h0s0,0,0,0c0,0,0,0,0,0,0-.1,0-.3,0-.4,0,0,0,0,0,0s0,0,0,0h0v.5Z"/>
        <path class="st0" d="M133.7,35.1c0,0,.1,0,.1.1s0,.2,0,.2c.1,0,0,.2,0,.3h0c0,0,0-.1,0-.2s0,0,0,0,0,0,0,0h0v.3h0v-.6c0,0,.1,0,.2,0ZM133.6,35.2s0,0,0,0v.2h0s0,0,0,0c0,0,0,0,0,0,0,0,0-.1,0-.1s0,0,0,0Z"/>
        <path class="st0" d="M122.9,35.1c0,0,.1,0,.1.1s0,.2,0,.2c.1,0,0,.2,0,.3h0c0,0,0-.1,0-.2s0,0,0,0,0,0,0,0h0v.3h0v-.6c0,0,.1,0,.2,0ZM122.9,35.2s0,0,0,0v.2h0s0,0,0,0c0,0,0,0,0,0,0,0,0-.1,0-.1s0,0,0,0Z"/>
        <path class="st0" d="M138.9,35.1c0,0,.1,0,.1.1s0,.2,0,.2c.1,0,0,.2,0,.3h0c0,0,0-.1,0-.2s0,0,0,0,0,0,0,0h0v.3h0v-.6c0,0,.1,0,.2,0ZM138.8,35.2s0,0,0,0v.2h0s0,0,0,0c0,0,0,0,0,0,0,0,0-.1,0-.1s0,0,0,0Z"/>
        <path class="st0" d="M118.8,35.1c0,0,.1,0,.1.1s0,.2,0,.2c.1,0,0,.2,0,.3h0c0,0,0-.1,0-.2s0,0,0,0,0,0,0,0h0v.3h0v-.6c0,0,.1,0,.2,0ZM118.8,35.2s0,0,0,0v.2h0s0,0,0,0c0,0,0,0,0,0,0,0,0-.1,0-.1s0,0,0,0Z"/>
        <path class="st0" d="M115.3,35.1c0,0,.1,0,.1.1s0,.2,0,.2c.1,0,0,.2,0,.3h0c0,0,0-.1,0-.2s0,0,0,0,0,0,0,0h0v.3h0v-.6c0,0,.1,0,.2,0ZM115.3,35.2s0,0,0,0v.2h0s0,0,0,0c0,0,0,0,0,0,0,0,0-.1,0-.1s0,0,0,0Z"/>
        <polygon class="st0" points="123.5 35.1 123.5 35.4 123.7 35.4 123.7 35.1 123.8 35.1 123.8 35.7 123.7 35.7 123.7 35.5 123.5 35.5 123.5 35.7 123.5 35.7 123.5 35.1 123.5 35.1"/>
        <polygon class="st0" points="112.6 35.1 112.6 35.4 112.7 35.4 112.7 35.1 112.8 35.1 112.8 35.7 112.7 35.7 112.7 35.5 112.6 35.5 112.6 35.7 112.5 35.7 112.5 35.1 112.6 35.1"/>
        <path class="st0" d="M123.2,35.1c0,0,.2,0,.2.1s0,.3,0,.4c0,.1-.3.1-.3,0s0-.3,0-.4,0-.2.1-.2ZM123.2,35.2s0,0,0,0c0,.1,0,.2,0,.3s0,0,0,0,0,0,0,0c0-.1,0-.3,0-.4,0,0,0,0,0,0Z"/>
        <path class="st0" d="M128.7,35.1c0,0,.2,0,.2.1s0,.3,0,.4c0,.1-.3.1-.3,0s0-.3,0-.4,0-.2.1-.2ZM128.7,35.2s0,0,0,0c0,.1,0,.2,0,.3s0,0,0,0,0,0,0,0c0-.1,0-.3,0-.4,0,0,0,0,0,0Z"/>
        <path class="st0" d="M138.4,35.1c0,0,.2,0,.2.1s0,.3,0,.4c0,.1-.3.1-.3,0s0-.3,0-.4,0-.2.1-.2ZM138.5,35.2s0,0,0,0c0,.1,0,.2,0,.3s0,0,0,0,0,0,0,0c0-.1,0-.3,0-.4,0,0,0,0,0,0Z"/>
        <path class="st0" d="M109.9,35.1c0,0,.2,0,.2.1s0,.3,0,.4c0,.1-.3.1-.3,0s0-.3,0-.4,0-.2.1-.2ZM109.9,35.2s0,0,0,0c0,.1,0,.2,0,.3s0,0,0,0,0,0,0,0c0-.1,0-.3,0-.4,0,0,0,0,0,0Z"/>
        <path class="st0" d="M144.3,35.1c0,0,.2,0,.2.1s0,.3,0,.4c0,.1-.3.1-.3,0s0-.3,0-.4,0-.2.1-.2ZM144.3,35.2s0,0,0,0c0,.1,0,.2,0,.3s0,0,0,0,0,0,0,0c0-.1,0-.3,0-.4,0,0,0,0,0,0Z"/>
        <path class="st0" d="M113,35.1c0,0,.2,0,.2.1s0,.3,0,.4c0,.1-.3.1-.3,0s0-.3,0-.4,0-.2.1-.2ZM113,35.2s0,0,0,0c0,.1,0,.2,0,.3s0,0,0,0,0,0,0,0c0-.1,0-.3,0-.4,0,0,0,0,0,0Z"/>
        <path class="st0" d="M112.3,35.1c0,0,.2,0,.2.1s0,.3,0,.4c0,.1-.3.1-.3,0s0-.3,0-.4,0-.2.1-.2ZM112.3,35.2s0,0,0,0c0,.1,0,.2,0,.3s0,0,0,0,0,0,0,0c0-.1,0-.3,0-.4,0,0,0,0,0,0Z"/>
        <path class="st0" d="M134.7,35.3h0c0,0,0-.1,0-.1,0,0,0,0-.1,0s0,0,0,0c0,0,0,.2,0,.3s0,0,0,0,0,0,0,0,0,0,0,0v-.2h0s0,0,0,0h0c0,0,.1,0,.1,0v.2c0,0,0,.1-.1.1-.1,0-.2,0-.2-.2s0-.2,0-.3,0-.2.2-.2.1,0,.1.1h0Z"/>
        <path class="st0" d="M117.1,35.7v-.6c.1,0,.2,0,.2,0v.6c.1,0,0,0,0,0h0c0-.1-.2-.1-.2-.1,0,0,0,.1,0,.1h0ZM117.3,35.6v-.4c0,0-.1.4-.1.4h.1Z"/>
        <path class="st0" d="M141.4,35.7v-.6c.1,0,.2,0,.2,0v.6c.1,0,0,0,0,0h0c0-.1-.2-.1-.2-.1,0,0,0,.1,0,.1h0ZM141.6,35.6v-.4c0,0-.1.4-.1.4h.1Z"/>
        <path class="st0" d="M131.4,35.7v-.6c.1,0,.2,0,.2,0v.6c.1,0,0,0,0,0h0c0-.1-.2-.1-.2-.1,0,0,0,.1,0,.1h0ZM131.7,35.6v-.4c0,0-.1.4-.1.4h.1Z"/>
        <path class="st0" d="M124.3,35.7v-.6c.1,0,.2,0,.2,0v.6c.1,0,0,0,0,0h0c0-.1-.2-.1-.2-.1,0,0,0,.1,0,.1h0ZM124.6,35.6v-.4c0,0-.1.4-.1.4h.1Z"/>
        <path class="st0" d="M136.6,35.7v-.6c.1,0,.2,0,.2,0v.6c.1,0,0,0,0,0h0c0-.1-.2-.1-.2-.1,0,0,0,.1,0,.1h0ZM136.8,35.6v-.4c0,0-.1.4-.1.4h.1Z"/>
        <path class="st0" d="M111.1,35.7v-.6c.1,0,.2,0,.2,0v.6c.1,0,0,0,0,0h0c0-.1-.2-.1-.2-.1,0,0,0,.1,0,.1h0ZM111.3,35.6v-.4c0,0-.1.4-.1.4h.1Z"/>
        <path class="st0" d="M118.3,35.7v-.6c.1,0,.2,0,.2,0v.6c.1,0,0,0,0,0h0c0-.1-.2-.1-.2-.1,0,0,0,.1,0,.1h0ZM118.5,35.6v-.4c0,0-.1.4-.1.4h.1Z"/>
        <path class="st0" d="M134,35.7v-.6c.1,0,.2,0,.2,0v.6c.1,0,0,0,0,0h0c0-.1-.2-.1-.2-.1,0,0,0,.1,0,.1h0ZM134.2,35.6v-.4c0,0-.1.4-.1.4h.1Z"/>
        <path class="st0" d="M119,35.7v-.6c.1,0,.2,0,.2,0v.6c.1,0,0,0,0,0h0c0-.1-.2-.1-.2-.1,0,0,0,.1,0,.1h0ZM119.2,35.6v-.4c0,0-.1.4-.1.4h.1Z"/>
        <path class="st0" d="M134.7,35.7v-.6c.1,0,.2,0,.2,0v.6c.1,0,0,0,0,0h0c0-.1-.2-.1-.2-.1,0,0,0,.1,0,.1h0ZM134.9,35.6v-.4c0,0-.1.4-.1.4h.1Z"/>
        <path class="st0" d="M119.8,35.7v-.6c.1,0,.2,0,.2,0v.6c.1,0,0,0,0,0h0c0-.1-.2-.1-.2-.1,0,0,0,.1,0,.1h0ZM120.1,35.6v-.4c0,0-.1.4-.1.4h.1Z"/>
        <path class="st0" d="M120.7,35.7v-.6c.1,0,.2,0,.2,0v.6c.1,0,0,0,0,0h0c0-.1-.2-.1-.2-.1,0,0,0,.1,0,.1h0ZM120.9,35.6v-.4c0,0-.1.4-.1.4h.1Z"/>
        <path class="st0" d="M115.8,35.1v.5s0,0,0,0c0,0,.1,0,.1,0s0,0,0,0v-.5h0v.5c0,.1,0,.2-.2.2s-.1,0-.1-.1v-.5h0Z"/>
        <path class="st0" d="M121.5,35.1v.5s0,0,0,0c0,0,.1,0,.1,0s0,0,0,0v-.5h0v.5c0,.1,0,.2-.2.2s-.1,0-.1-.1v-.5h0Z"/>
        <polygon class="st0" points="108.5 35.1 108.6 35.4 108.6 35.1 108.7 35.1 108.6 35.4 108.7 35.7 108.6 35.7 108.5 35.5 108.4 35.7 108.4 35.7 108.5 35.4 108.4 35.1 108.5 35.1"/>
        <polygon class="st0" points="126.7 35.1 126.8 35.4 126.9 35.1 127 35.1 126.8 35.4 127 35.7 126.9 35.7 126.8 35.5 126.7 35.7 126.6 35.7 126.7 35.4 126.6 35.1 126.7 35.1"/>
        <path class="st0" d="M143.9,35.1v.5c.1,0,.2-.5.2-.5h0v.6c-.2,0-.2,0-.2,0s0,0,0,0v-.6c-.1,0,0,0,0,0Z"/>
        <path class="st0" d="M143,35.1v.4h0c0,0,0,0,0,0h0c0,.1,0,.1,0,.1h0c0-.1-.2-.1-.2-.1h0c0,0,.2-.5.2-.5h0ZM142.9,35.6v-.3.3c-.1,0,0,0,0,0Z"/>
        <path class="st0" d="M116.9,35.3h0c0,0,0-.1,0-.1,0,0,0,0-.1,0s0,0,0,0c0,0,0,.2,0,.3s0,0,0,0,0,0,0,0,0,0,0,0h0c0-.1,0-.1,0-.1h0c0,.2,0,.2-.1.2-.1,0-.2,0-.2-.2s0-.2,0-.3,0-.2.2-.2.1,0,.1.1h0Z"/>
        <path class="st0" d="M109.1,35.3h0c0,0,0-.1,0-.1,0,0,0,0-.1,0s0,0,0,0c0,0,0,.2,0,.3s0,0,0,0,0,0,0,0,0,0,0,0h0c0-.1,0-.1,0-.1h0c0,.2,0,.2-.1.2-.1,0-.2,0-.2-.2s0-.2,0-.3,0-.2.2-.2.1,0,.1.1h0Z"/>
        <path class="st0" d="M112.1,35.3h0c0,0,0-.1,0-.1,0,0,0,0-.1,0s0,0,0,0c0,0,0,.2,0,.3s0,0,0,0,0,0,0,0,0,0,0,0h0c0-.1,0-.1,0-.1h0c0,.2,0,.2-.1.2-.1,0-.2,0-.2-.2s0-.2,0-.3,0-.2.2-.2.1,0,.1.1h0Z"/>
        <path class="st0" d="M122.5,35.5v.3h0v-.6h.2s0,0,0,0c0,0,0,.2,0,.3s0,0,0,0h0ZM122.5,35.4h0s0,0,0,0c0,0,0,0,0,0,0,0,0-.2,0-.2s0,0,0,0h0v.3Z"/>
        <path class="st0" d="M118,35.5v.3h0v-.6h.2s0,0,0,0c0,0,0,.2,0,.3s0,0,0,0h0ZM118,35.4h0s0,0,0,0c0,0,0,0,0,0,0,0,0-.2,0-.2s0,0,0,0h0v.3Z"/>
        <path class="st0" d="M114.6,35.5v.3h0v-.6h.2s0,0,0,0c0,0,0,.2,0,.3s0,0,0,0h0ZM114.6,35.4h0s0,0,0,0c0,0,0,0,0,0,0,0,0-.2,0-.2s0,0,0,0h0v.3Z"/>
        <path class="st0" d="M127.1,35.5v.3h0v-.6h.2s0,0,0,0c0,0,0,.2,0,.3s0,0,0,0h0ZM127.1,35.4h0s0,0,0,0c0,0,0,0,0,0,0,0,0-.2,0-.2s0,0,0,0h0v.3Z"/>
        <path class="st0" d="M114.3,35.3h0s0-.1,0-.1,0,0,0,0c0,.1.2.2.2.3s0,.2-.2.2,0,0,0-.1h0c0,0,0,0,0,0h0c0,0,0,.1,0,.1,0,0,.1,0,.1,0,0-.1,0-.1-.2-.2-.1-.1,0-.3.1-.3s.1,0,.1.1h0Z"/>
        <path class="st0" d="M120.7,35.3h0s0-.1,0-.1,0,0,0,0c0,.1.2.2.2.3s0,.2-.2.2,0,0,0-.1h0c0,0,0,0,0,0h0c0,0,0,.1,0,.1,0,0,.1,0,.1,0,0-.1,0-.1-.2-.2-.1-.1,0-.3.1-.3s.1,0,.1.1h0Z"/>
        <path class="st0" d="M139.6,35.3h0s0-.1,0-.1,0,0,0,0c0,.1.2.2.2.3s0,.2-.2.2,0,0,0-.1h0c0,0,0,0,0,0h0c0,0,0,.1,0,.1,0,0,.1,0,.1,0,0-.1-.1-.2-.2-.3s0-.3,0-.3.2,0,.2.2Z"/>
        <path class="st0" d="M109.7,35.3h0s0-.1,0-.1c0,0,0,0,0,.1s.1.1.2.2c.1.1,0,.3-.1.3s0,0,0-.1h0c0,0,0,0,0,0h0c0,0,0,.1,0,.1,0,0,.1,0,.1,0,0-.1,0-.1-.2-.2-.1-.1,0-.3.1-.3s.1,0,.1.1h0Z"/>
        <path class="st0" d="M136.4,35.3h0s0-.1,0-.1,0,0,0,0c0,.1.2.2.2.3s0,.2-.2.2,0,0,0-.1h0c0,0,0,0,0,0h0c0,0,0,.1,0,.1,0,0,.1,0,.1,0,0-.1-.1-.2-.2-.3s0-.3,0-.3.2,0,.2.2Z"/>
        <path class="st0" d="M132.1,35.3h0s0-.1,0-.1,0,0,0,0c0,.1.2.2.2.3s0,.2-.2.2,0,0,0-.1h0c0,0,0,0,0,0h0c0,0,0,.1,0,.1,0,0,.1,0,.1,0,0-.1-.1-.2-.2-.3s0-.3,0-.3.2,0,.2.2Z"/>
        <path class="st0" d="M125,35.3h0s0-.1,0-.1,0,0,0,0c0,.1.2.2.2.3s0,.2-.2.2,0,0,0-.1h0c0,0,0,0,0,0h0c0,0,0,.1,0,.1,0,0,.1,0,.1,0,0-.1-.1-.2-.2-.3s0-.3,0-.3.2,0,.2.2Z"/>
        <path class="st0" d="M142.5,35.7h.2c0,0-.3,0-.3,0h0c0-.2.2-.3.2-.5s0,0-.1,0,0,0,0,0h0c0,0,0,0,0,0h0c0-.1,0-.2.1-.2.2,0,.2.2.1.3s-.2.2-.2.3Z"/>
        <polygon class="st0" points="129.7 35.1 129.7 35.2 129.5 35.2 129.5 35.4 129.7 35.4 129.7 35.4 129.7 35.5 129.5 35.5 129.5 35.7 129.7 35.7 129.7 35.7 129.4 35.7 129.4 35.1 129.7 35.1"/>
        <polygon class="st0" points="130.5 35.1 130.5 35.2 130.3 35.2 130.3 35.4 130.5 35.4 130.5 35.4 130.5 35.5 130.3 35.5 130.3 35.7 130.5 35.7 130.5 35.7 130.3 35.7 130.3 35.1 130.5 35.1"/>
        <polygon class="st0" points="107.5 35.1 107.5 35.2 107.4 35.2 107.4 35.4 107.5 35.4 107.5 35.4 107.5 35.5 107.4 35.5 107.4 35.7 107.5 35.7 107.5 35.7 107.3 35.7 107.3 35.1 107.5 35.1"/>
        <polygon class="st0" points="127.6 35.1 127.6 35.2 127.4 35.2 127.4 35.4 127.6 35.4 127.6 35.4 127.6 35.5 127.4 35.5 127.4 35.7 127.6 35.7 127.6 35.7 127.4 35.7 127.4 35.1 127.6 35.1"/>
        <polygon class="st0" points="126.6 35.1 126.6 35.2 126.4 35.2 126.4 35.4 126.5 35.4 126.5 35.4 126.5 35.5 126.4 35.5 126.4 35.7 126.6 35.7 126.6 35.7 126.3 35.7 126.3 35.1 126.6 35.1"/>
        <polygon class="st0" points="132.6 35.1 132.6 35.2 132.4 35.2 132.4 35.4 132.5 35.4 132.5 35.4 132.5 35.5 132.4 35.5 132.4 35.7 132.6 35.7 132.6 35.7 132.3 35.7 132.3 35.1 132.6 35.1"/>
        <polygon class="st0" points="108.3 35.1 108.3 35.2 108.1 35.2 108.1 35.4 108.3 35.4 108.3 35.4 108.3 35.5 108.1 35.5 108.1 35.7 108.3 35.7 108.3 35.7 108.1 35.7 108.1 35.1 108.3 35.1"/>
        <polygon class="st0" points="125.8 35.1 125.8 35.2 125.6 35.2 125.6 35.4 125.7 35.4 125.8 35.4 125.8 35.5 125.6 35.5 125.6 35.7 125.8 35.7 125.8 35.7 125.5 35.7 125.5 35.1 125.8 35.1"/>
        <polygon class="st0" points="125.3 35.1 125.3 35.2 125.1 35.2 125.1 35.4 125.3 35.4 125.3 35.4 125.3 35.5 125.1 35.5 125.1 35.7 125.3 35.7 125.3 35.7 125.1 35.7 125.1 35.1 125.3 35.1"/>
        <polygon class="st0" points="109.4 35.1 109.4 35.2 109.2 35.2 109.2 35.4 109.3 35.4 109.3 35.4 109.3 35.5 109.2 35.5 109.2 35.7 109.4 35.7 109.4 35.7 109.1 35.7 109.1 35.1 109.4 35.1"/>
        <polygon class="st0" points="110.9 35.1 110.9 35.2 110.7 35.2 110.7 35.4 110.9 35.4 110.9 35.4 110.9 35.5 110.7 35.5 110.7 35.7 110.9 35.7 110.9 35.7 110.6 35.7 110.6 35.1 110.9 35.1"/>
        <polygon class="st0" points="140.9 35.1 140.9 35.2 140.8 35.2 140.8 35.4 140.9 35.4 140.9 35.4 140.9 35.5 140.8 35.5 140.8 35.7 140.9 35.7 140.9 35.7 140.7 35.7 140.7 35.1 140.9 35.1"/>
        <polygon class="st0" points="140.5 35.1 140.5 35.2 140.3 35.2 140.3 35.4 140.4 35.4 140.4 35.4 140.4 35.5 140.3 35.5 140.3 35.7 140.5 35.7 140.5 35.7 140.2 35.7 140.2 35.1 140.5 35.1"/>
        <polygon class="st0" points="139.3 35.1 139.3 35.2 139.1 35.2 139.1 35.4 139.3 35.4 139.3 35.4 139.3 35.5 139.1 35.5 139.1 35.7 139.3 35.7 139.3 35.7 139 35.7 139 35.1 139.3 35.1"/>
        <polygon class="st0" points="136.1 35.1 136.1 35.2 135.9 35.2 135.9 35.4 136 35.4 136 35.4 136 35.5 135.9 35.5 135.9 35.7 136.1 35.7 136.1 35.7 135.8 35.7 135.8 35.1 136.1 35.1"/>
        <polygon class="st0" points="113.9 35.1 113.9 35.2 113.8 35.2 113.8 35.4 113.9 35.4 113.9 35.4 113.9 35.5 113.8 35.5 113.8 35.7 113.9 35.7 113.9 35.7 113.7 35.7 113.7 35.1 113.9 35.1"/>
        <polygon class="st0" points="115.1 35.1 115.1 35.2 114.9 35.2 114.9 35.4 115.1 35.4 115.1 35.4 115.1 35.5 114.9 35.5 114.9 35.7 115.1 35.7 115.1 35.7 114.8 35.7 114.8 35.1 115.1 35.1"/>
        <polygon class="st0" points="137.9 35.1 137.9 35.2 137.7 35.2 137.7 35.4 137.8 35.4 137.9 35.4 137.9 35.5 137.7 35.5 137.7 35.7 137.9 35.7 137.9 35.7 137.6 35.7 137.6 35.1 137.9 35.1"/>
        <polygon class="st0" points="135.8 35.1 135.8 35.2 135.8 35.2 135.6 35.2 135.6 35.7 135.6 35.7 135.6 35.2 135.5 35.2 135.5 35.1 135.8 35.1"/>
        <polygon class="st0" points="113.3 35.1 113.3 35.7 113.5 35.7 113.5 35.7 113.2 35.7 113.2 35.1 113.3 35.1"/>
        <polygon class="st0" points="117.6 35.1 117.6 35.7 117.7 35.7 117.7 35.7 117.5 35.7 117.5 35.1 117.6 35.1"/>
        <polygon class="st0" points="119.6 35.1 119.6 35.7 119.8 35.7 119.8 35.7 119.5 35.7 119.5 35.1 119.6 35.1"/>
        <polygon class="st0" points="121.2 35.1 121.2 35.7 121.4 35.7 121.4 35.7 121.1 35.7 121.1 35.1 121.2 35.1"/>
        <polygon class="st0" points="125.9 35.1 125.9 35.7 126.1 35.7 126.1 35.7 125.9 35.7 125.9 35.1 125.9 35.1"/>
        <polygon class="st0" points="107.7 35.1 107.7 35.7 107.9 35.7 107.9 35.7 107.6 35.7 107.6 35.1 107.7 35.1"/>
        <polygon class="st0" points="144.6 35.1 144.6 35.7 144.8 35.7 144.8 35.7 144.5 35.7 144.5 35.1 144.6 35.1"/>
        <polygon class="st0" points="111.6 35.1 111.6 35.7 111.8 35.7 111.8 35.7 111.5 35.7 111.5 35.1 111.6 35.1"/>
        <path class="st0" d="M115.7,35.1v.5s0,0,0,.1,0,0,0,0h0s0,0,0,0h0c0,0,0,0,.1,0s0,0,0,0v-.5h0Z"/>
        <rect class="st0" x="133.8" y="35.1" width="0" height=".6"/>
        <rect class="st0" x="130.9" y="35.1" width="0" height=".6"/>
        <rect class="st0" x="128.4" y="35.1" width="0" height=".6"/>
        <rect class="st0" x="116.5" y="35.1" width="0" height=".6"/>
        <rect class="st0" x="117" y="35.1" width="0" height=".6"/>
        <rect class="st0" x="123.8" y="35.1" width="0" height=".6"/>
        <path class="st0" d="M143.5,35.3c0,0,.1,0,.1,0s0,.2,0,.3c0,0-.2.1-.2,0s0-.2,0-.3,0,0,0,0ZM143.5,35.4s0,0,0,0c0,0,0,.2,0,.2s0,0,0,0,0-.2,0-.2c0,0,0,0,0,0Z"/>
        <path class="st0" d="M143.2,35.1c0,0,.1,0,.1,0s0,.2,0,.3c0,.1-.2,0-.2,0s0-.2,0-.3,0,0,0,0ZM143.2,35.5s0,0,0,0c0,0,0-.2,0-.2s0,0,0,0,0,.2,0,.2c0,0,0,0,0,0Z"/>
        <path class="st0" d="M143.5,35.1l-.3.6s0,0,0,0l.2-.6h0Z"/>
        <path class="st0" d="M122.2,35.7h0c0,0,0,0,0,0,0,0,0,0,0,0h0Z"/>
        <path class="st0" d="M142.2,35.7h0c0,0,0,0,0,0,0,0,0,0,0,0h0Z"/>
        <path class="st0" d="M123.9,35s0,0,0,0c0,0,0,0,0,0,0,0,0,0,0,0s0,0,0,0h0c0,0,0,0,0,0Z"/>
      </g>
    </g>
    <g>
      <g>
        <path class="st0" d="M213.4,9.3c.1,0,.3,0,.4,0s0,0,0,0h2.7s0,0,0,0c.1,0,.3,0,.4,0s.3,0,.4,0c.2,0,.4,0,.6,0,0,0,.2,0,.2,0,.3,0,.7,0,1,0,.7,0,1.3,0,1.7.6s0,1.5,0,2.1,0,.7-.3,1-.9.3-1.4.3c-2.5,0-4.9-.1-7.4-.2s-.9-.2-1.2.3-.5,1-.8,1.5c-.6,1.1-1.1,2.1-1.7,3.2-.5,1-.2,2.3,0,3.3.2,1.6.5,3.3.6,4.9s.1,1.2-.2,1.8c-.5,1-1.4.7-2.4.7s-1.3,0-1.9,0c-1.4-.1-1.3-2-1.1-3,.3-1.2.7-2.4,1.1-3.5s.8-2.8.2-4.3-.7-1.4-1-2.1c-.7-1.4-1.3-2.8-2-4.2-.3-.8,0-1.3.7-1.5s1.5-.4,2-.1.5.4.6.7c.4.8.6,1.7.9,2.6s.2.7.4,1,.4.3.6,0c.5-1.3.8-2.8,1.3-4.1.4-.9,1.2-1,2.1-1s1.9,0,2.8,0h0s0,0,0,0c.1,0,.2,0,.3,0Z"/>
        <path class="st0" d="M217.1,9.3h0c-.1,0-.3,0-.4,0s0,0,0,0h.5Z"/>
        <path class="st0" d="M213.9,9.3s0,0,0,0c-.1,0-.3,0-.4,0h0s.5,0,.5,0Z"/>
        <path class="st0" d="M217.5,9.3h0c-.1,0-.3,0-.4,0h0s.4,0,.4,0Z"/>
        <path class="st0" d="M213.4,9.3h0c-.1,0-.2,0-.3,0h.3Z"/>
        <path class="st0" d="M215.1,14.2c2.3,0,5.1.5,5.8,3.1s.2,1.3.2,2c0,1.8,0,3.5,0,5.3s.3,3.8-1.7,4.2-1.9.1-2.3-.2-.2-.5-.4-.5-.5.3-.6.4c-1.5,1-4.3.9-5.2-1s-.2-4,.4-5.4,1.7-2.9,3.4-2.7.8.3,1.1.4c.9.2.7-1.3.4-1.8-.6-1.1-2.2-.4-3.2-.7s-.8-.9-.7-1.5c.3-1.4,1.5-1.4,2.7-1.4ZM214.9,22.3c-.8,0-1.4,1.1-1.4,1.8s.1.4.4.4c.7,0,1.2-1,1.4-1.5s.2-.8-.4-.7Z"/>
        <path class="st0" d="M218.3,9.3c0,0-.2,0-.2,0,0,0,.2,0,.2,0Z"/>
      </g>
      <g>
        <path class="st0" d="M176.7,26.6c0-.4,0-.8,0-1.1,0-4.6.7-9.1,1.1-13.7,0-.6,0-1.1.5-1.6.7-.9,1.9-.8,2.9-.8s2.2,0,3.1.3,1.7,1.4,2.3,2.4c1.9,3.3,3.1,7.1,2.3,10.9s-1.7,4.6-4.1,5.5-3.3.4-4.9.4-1.2,0-1.7,0c-1.1-.2-1.4-1.2-1.4-2.2ZM182.2,17.4c.2.2.5,0,.6-.2.6-.7.6-2,.2-2.7s-.2-.4-.4-.4-.3.3-.3.5c0,.7-.1,1.5-.1,2.2s0,.5,0,.7Z"/>
        <path class="st0" d="M195.6,9.3c.5,0,1.1,0,1.6.1,2,.4,2.5,2.2,2.9,3.9.7,2.9,1,5.9,1.5,8.9.3,2.2-.3,5.1-2.7,6s-4,.9-5.7.6-3.1-.9-3.4-2.9c-.3-1.6,0-3.1.4-4.6.5-2.7.8-5.5,1.6-8.1.6-2,1.6-3.8,3.9-3.9ZM195.9,19c-.4,0-.5.7-.5,1,0,.4,0,.9,0,1.3s0,.3,0,.5c0,.5.6.3.8,0,.5-.6.4-1.4.3-2.1s-.2-.8-.6-.7Z"/>
      </g>
    </g>
    <g>
      <path class="st0" d="M266.8,18.8c-1.1-.2-1.4-.4-1.4-.9s.4-.8,1.1-.8,1.2.4,1.4.7l.4-.3c-.3-.5-.9-.8-1.8-.8s-1.7.5-1.7,1.3.5,1.1,1.6,1.3c1.2.2,1.4.5,1.4,1s-.5.9-1.2.9-1.2-.3-1.6-.7l-.4.4c.5.6,1.2.9,2,.9,1.2,0,1.8-.6,1.8-1.4s-.5-1.2-1.6-1.4h0Z"/>
      <path class="st0" d="M271.8,16.6c-1.1,0-2.2.7-2.2,2.5s1.2,2.5,2.2,2.5,2.2-.7,2.2-2.5-1.2-2.5-2.2-2.5ZM271.8,21.1c-1,0-1.6-.7-1.6-2s.7-2,1.6-2,1.6.7,1.6,2-.7,2-1.6,2Z"/>
      <path class="st0" d="M276,16.7h-.6v4.8h2.8v-.5h-2.2v-4.3Z"/>
      <path class="st0" d="M280.8,16.7l-1.6,4.8h.6l.3-.9h2.2l.3.9h.6l-1.6-4.8h-.7ZM280.2,20.1l.9-2.9.9,2.9h-1.9Z"/>
      <path class="st0" d="M287.7,18.1c0-.7-.5-1.4-1.7-1.4h-1.6v4.8h.6v-2h1l1.2,2h.7l-1.3-2.1c.8-.2,1.1-.7,1.1-1.3h0ZM285,19v-1.8h1.1c.7,0,1,.3,1,.9s-.4.9-1,.9h-1.1Z"/>
      <path class="st0" d="M292,16.7h-.6v4.8h2.8v-.5h-2.2v-4.3Z"/>
      <path class="st0" d="M296.1,19.3h2.2v-.5h-2.2v-1.6h2.3v-.5h-2.9v4.8h2.9v-.5h-2.4v-1.7Z"/>
      <path class="st0" d="M302.3,20.9l-1.4-4.2h-.9v4.8h.5v-4.2l1.4,4.2h.7l1.4-4.2v4.2h.6v-4.8h-.9l-1.4,4.2Z"/>
      <path class="st0" d="M308.3,16.6c-1.1,0-2.2.7-2.2,2.5s1.2,2.5,2.2,2.5,2.2-.7,2.2-2.5-1.2-2.5-2.2-2.5ZM308.3,21.1c-1,0-1.6-.7-1.6-2s.7-2,1.6-2,1.6.7,1.6,2-.7,2-1.6,2Z"/>
      <path class="st0" d="M314.9,20.6l-2.4-3.9h-.6v4.8h.5v-3.8l2.4,3.8h.6v-4.8h-.5v3.9Z"/>
      <path class="st0" d="M318.3,16.7l-1.6,4.8h.6l.3-.9h2.2l.3.9h.6l-1.6-4.8h-.7ZM317.8,20.1l.9-2.9.9,2.9h-1.9Z"/>
      <path class="st0" d="M323.3,16.7h-1.4v4.8h1.6c1,0,2.2-.6,2.2-2.5s-1.1-2.3-2.4-2.3h0ZM323.5,21h-1v-3.7h.8c1.2,0,1.7.7,1.7,1.8,0,1.6-.8,1.9-1.6,1.9Z"/>
      <path class="st0" d="M327.7,21v-1.7h2.2v-.5h-2.2v-1.6h2.3v-.5h-2.9v4.8h2.9v-.5h-2.4Z"/>
      <path class="st0" d="M259.5,16.5v-3.1s-2.9.6-2.9.6l-1.9-2.4-1.9,2.4-3-.6v3.1s-2.6,1.5-2.6,1.5l2,2.3-1,2.9,3,.5,1,2.9,2.6-1.5,2.6,1.5,1-2.9,3-.5-1-2.9,2-2.3-2.6-1.5ZM258.2,18.2c-.2.3-.3.7-.4,1.1,0,.5-.2.9-.5,1.3-.3.4-.8.7-1.2,1-.3.1-.6.2-.9.3-.4,0-.9.1-1.3,0-.5,0-1-.2-1.5-.5-.3-.2-.6-.3-.9-.5-.2-.1-.4-.2-.5-.4-.3-.4-.3-.9,0-1.3.2-.2.3-.5.4-.8.1-.3.3-.5.5-.8.3-.3.6-.6,1-.8.3-.2.6-.3.9-.4.2,0,.4-.1.7-.2.4,0,.9,0,1.3,0,.4,0,.8.3,1.1.6.3.2.6.5.9.5.4,0,.5.4.3.8h0Z"/>
    </g>
  </g>
</svg>