<?xml version="1.0" encoding="UTF-8"?>
<svg xmlns="http://www.w3.org/2000/svg" version="1.1" viewBox="0 0 336 41.59">
  <!-- Generator: Adobe Illustrator 29.0.0, SVG Export Plug-In . SVG Version: 2.1.0 Build 186)  -->
  <defs>
    <style>
      .st0, .st1 {
        fill: blue;
      }

      .st2 {
        isolation: isolate;
      }

      .st1 {
        mix-blend-mode: multiply;
      }

      .st3 {
        fill: #fafafa;
      }
    </style>
  </defs>
  <g class="st2">
    <g id="Layer_1">
      <rect class="st3" x="-26.938" y="-505.209" width="390" height="844"/>
      <g>
        <g>
          <path class="st0" d="M188.364,19.45c.133-.01.266-.016.399-.016.644-.003,1.288.014,1.931-.01.633-.024,1.124-.301,1.364-.92.21-.543.069-1.228-.416-1.614-.329-.262-.712-.346-1.118-.346-1.802-.003-3.605-.001-5.407,0-.155,0-.312-.007-.466.007-.265.024-.527.072-.759.215-.549.337-.753.842-.67,1.462.065.479.331.827.771,1.04.266.129.547.165.838.168.728.008,1.456-.026,2.183.019.331.021.557.242.562.577.01.75.011,1.5,0,2.25-.004.236-.111.432-.351.533-.157.066-.319.067-.482.067-.644.002-1.287,0-1.931.002-.168,0-.332.012-.499.055-.485.123-.828.393-1.015.865-.226.571-.051,1.254.427,1.632.302.239.652.328,1.029.328.972.001,1.944,0,2.917,0v-.002c1.008,0,2.016.011,3.023-.003.845-.012,1.448-.621,1.456-1.411.008-.802-.552-1.368-1.33-1.45-.259-.027-.523-.013-.785-.015-.546-.004-1.092.003-1.638-.011-.386-.01-.612-.229-.618-.605-.011-.741-.012-1.482,0-2.223.006-.367.217-.564.586-.592Z"/>
          <path class="st0" d="M172.523,18.2c-.652-.759-1.497-1.201-2.448-1.453-.498-.132-1.012-.189-1.526-.197-.923-.014-1.846-.007-2.77-.008-.24,0-.477.002-.715.054-.347.076-.634.24-.852.519-.22.281-.297.609-.298.958-.001,1.025,0,2.05,0,3.075,0,1.034-.002,2.068,0,3.102,0,.388.101.744.372,1.037.301.324.684.468,1.116.472.883.008,1.767.003,2.65.004.501,0,1.001-.012,1.498-.096.668-.113,1.302-.313,1.888-.658,1.19-.7,1.861-1.757,2.072-3.101.13-.829.055-1.652-.246-2.446-.175-.464-.42-.886-.743-1.262ZM173.13,22.041c-.159.222-.38.374-.621.483-.309.14-.638.22-.978.267-1.167.161-2.34.046-3.299.087-1.236,0-2.262,0-3.287,0-.155,0-.311-.004-.458-.058-.271-.099-.372-.329-.377-.586-.013-.719-.016-1.438,0-2.157.007-.307.156-.604.588-.619.115-.004.23-.017.345-.017,1.594-.001,3.188,0,4.782-.002.449,0,.898,0,1.344.037.537.045,1.07.137,1.54.427.371.228.61.545.673.994.059.419-.005.799-.252,1.145Z"/>
          <path class="st0" d="M134.921,23.032c-.256-.112-.522-.152-.8-.152-1.625,0-3.249.003-4.874-.008-.613-.004-1.219-.074-1.796-.309-.586-.239-.997-.725-.983-1.442.013-.651.38-1.102.912-1.341.5-.225,1.034-.3,1.576-.325.883-.041,1.766-.013,2.574-.022.941,0,1.807,0,2.673,0,.027,0,.053-.002.08-.003.334-.018.643-.107.917-.309.636-.469.724-1.432.245-2.024-.327-.405-.774-.547-1.27-.552-.883-.009-1.767-.011-2.65,0-.62.008-1.234.075-1.838.241-.693.191-1.323.495-1.873.958-.557.469-.954,1.051-1.208,1.732-.123.328-.206.667-.248,1.014-.029.242-.085.485-.064.727.047.537.11,1.072.3,1.585.185.5.444.953.796,1.351.496.561,1.107.955,1.806,1.217.683.257,1.393.379,2.119.387.963.011,1.926.004,2.89.005.134,0,.265-.018.397-.041.572-.101,1.038-.572,1.129-1.142.104-.654-.197-1.282-.808-1.549Z"/>
          <path class="st0" d="M153.74,23.053c-.271-.133-.561-.174-.862-.173-1.62.001-3.241.003-4.861-.008-.617-.004-1.229-.068-1.807-.315-.486-.208-.84-.531-.941-1.078-.144-.786.187-1.386.88-1.697.504-.227,1.042-.302,1.588-.327.874-.04,1.749-.012,2.834-.025.686,0,1.582.004,2.479-.002.301-.002.582-.089.84-.25.494-.309.758-.984.571-1.597-.126-.414-.382-.711-.779-.885-.251-.11-.516-.153-.789-.153-.826,0-1.651-.003-2.477.001-.51.003-1.017.046-1.52.142-.569.109-1.108.293-1.613.575-.651.363-1.177.858-1.563,1.499-.362.602-.56,1.256-.617,1.954-.068.83.041,1.632.387,2.397.5,1.105,1.349,1.827,2.464,2.256.604.232,1.233.358,1.878.38,1.092.037,2.184.021,3.276.009.383-.004.734-.143,1.002-.424.392-.411.506-.901.341-1.447-.114-.38-.357-.656-.712-.831Z"/>
          <path class="st0" d="M144.519,19.373c-.316-.782-.802-1.436-1.486-1.946-.636-.474-1.346-.76-2.119-.878-.795-.122-1.587-.087-2.37.136-.6.171-1.144.439-1.63.826-.998.796-1.535,1.852-1.678,3.103-.118,1.032.073,2.018.594,2.928.474.829,1.152,1.44,2.019,1.836.69.316,1.42.46,2.229.456.233-.01.514-.02.797-.064.481-.075.944-.201,1.38-.411,1.121-.539,1.896-1.397,2.319-2.569.154-.427.241-.869.267-1.321.02-.341.007-.679-.043-1.02-.054-.371-.14-.732-.279-1.076ZM144.672,21.441c-.081.558-.441.898-.939,1.11-.659.28-1.358.318-2.059.326-.55.006-1.101.001-1.86.001-.613-.009-1.436.039-2.254-.04-.559-.054-1.114-.149-1.592-.485-.51-.359-.67-.863-.587-1.454.098-.692.564-1.041,1.19-1.243.61-.196,1.238-.215,1.867-.217,1.256-.004,2.513-.027,3.769.017.542.019,1.078.096,1.576.325.696.32,1.006.86.891,1.659Z"/>
          <path class="st0" d="M209.697,19.395c-.296-.759-.758-1.393-1.398-1.9-.651-.515-1.393-.819-2.205-.945-.656-.102-1.314-.094-1.971.038-.587.118-1.136.322-1.64.644-1.154.738-1.817,1.802-2.039,3.137-.168,1.008-.03,1.985.422,2.91.471.964,1.202,1.665,2.174,2.108.661.301,1.361.443,2.088.447.86.02,1.826-.195,2.576-.62,1.229-.696,1.954-1.757,2.231-3.122.087-.429.128-.871.074-1.32-.057-.472-.14-.933-.313-1.377ZM209.842,21.483c-.096.536-.457.869-.95,1.074-.657.272-1.35.311-2.047.32-.55.007-1.101.001-1.846.001-.621-.01-1.439.038-2.253-.039-.56-.054-1.115-.146-1.595-.477-.486-.336-.664-.81-.611-1.381.067-.725.557-1.116,1.172-1.317.612-.2,1.245-.223,1.878-.224,1.265-.003,2.529-.027,3.794.018.542.019,1.077.098,1.574.326.747.343,1.018.95.884,1.7Z"/>
          <path class="st0" d="M162.011,17.585c-.67-.562-1.448-.899-2.307-1.033-.656-.103-1.313-.096-1.971.034-.728.143-1.39.423-1.98.874-.967.738-1.524,1.727-1.714,2.912-.172,1.073-.014,2.109.507,3.077.392.728.95,1.298,1.656,1.719.601.358,1.262.559,1.953.637.778.087,1.549.019,2.299-.219.206-.106.427-.176.64-.265.299-.137.571-.317.828-.521.879-.701,1.41-1.621,1.611-2.712.192-1.042.083-2.063-.388-3.031-.277-.57-.652-1.063-1.136-1.47ZM163.385,21.671c-.136.437-.464.702-.869.876-.588.254-1.215.314-1.846.324-.626.01-1.252.002-1.878.002-.821-.005-1.644.044-2.463-.036-.559-.054-1.115-.148-1.593-.484-.494-.348-.661-.835-.595-1.414.081-.716.598-1.094,1.196-1.283.61-.193,1.238-.215,1.867-.216,1.247-.003,2.495-.026,3.742.017.552.019,1.094.098,1.603.325.782.349,1.086,1.079.834,1.89Z"/>
          <path class="st0" d="M178.079,21.26c.692-.002,1.385,0,2.077-.003.431-.002.858-.044,1.275-.163.424-.12.812-.308,1.122-.627.411-.423.569-.943.565-1.526-.004-.548-.177-1.022-.552-1.423-.382-.408-.873-.624-1.396-.776-.445-.129-.905-.185-1.366-.191-1.123-.014-2.246-.008-3.369-.009-.368,0-.737-.008-1.105.007-.27.011-.537.069-.772.214-.47.288-.692.714-.69,1.264.003,1.22,0,2.441,0,3.661,0,1.252,0,2.503,0,3.755,0,.031,0,.062,0,.093.002.055.025.098.084.099.058,0,.087-.041.094-.093.006-.039.003-.08.003-.12,0-1.274,0-2.547,0-3.821,0-.293.049-.341.339-.341.821,0,1.642.004,2.464-.002.301-.002.558.091.794.276.62.485,1.247.963,1.87,1.444.62.479,1.239.959,1.859,1.437.498.384.996.767,1.494,1.15.039.03.08.055.129.067.037.009.071.009.096-.025.027-.038.021-.078-.005-.111-.021-.028-.05-.05-.078-.072-.729-.562-1.458-1.124-2.188-1.684-.948-.728-1.897-1.454-2.844-2.183-.069-.053-.186-.097-.146-.211.038-.107.153-.085.243-.086ZM177.759,21.073c-.12.001-.24,0-.359,0-.99,0-1.979,0-2.969,0-.067,0-.133-.002-.199-.007-.098-.006-.159-.063-.167-.158-.026-.332-.031-.666.012-.996.034-.256.244-.433.5-.458.119-.012.239-.02.358-.02,1.7-.001,3.399-.002,5.099,0,.412,0,.826,0,1.225.123.39.121.652.337.608.791-.017.18-.108.316-.252.418-.29.205-.629.262-.97.281-.962.055-1.925.016-2.888.025Z"/>
          <path class="st0" d="M200.362,23.197c-.327-.233-.691-.317-1.087-.317-1.949.003-3.897.001-5.846.001-.142,0-.285.005-.424-.033-.168-.046-.302-.134-.382-.3-.084-.176-.077-.362-.077-.547-.002-1.704-.001-3.408-.001-5.112,0-.04,0-.08-.003-.12-.005-.05-.031-.08-.086-.081-.056,0-.082.029-.087.079-.004.035-.003.071-.003.106,0,1.252,0,2.503,0,3.755,0,1.207.002,2.414-.001,3.621,0,.256.034.503.154.731.287.543.764.776,1.353.778,1.838.008,3.675.003,5.513.004.166,0,.332-.016.486-.067.539-.179.882-.528,1.008-1.105.098-.45-.11-1.104-.517-1.394Z"/>
          <path class="st0" d="M160.68,25.52c.141-.062.302-.086.417-.202-.205.109-.422.188-.64.265.084.012.155-.033.224-.063Z"/>
          <path class="st0" d="M161.096,25.319c-.213.088-.434.159-.64.265.218-.077.436-.156.64-.265Z"/>
        </g>
        <g>
          <path class="st0" d="M97.315,12.271c-.156-.094-.311-.137-.473-.131-.029.001-.06.004-.09.008-.048.007-.1.011-.153.013-.08.003-.167,0-.264-.008-.024-.002-.038-.005-.046-.008,0-.01.004-.028.015-.061.024-.072.081-.119.147-.175.028-.023.056-.047.083-.074.031-.03.062-.06.093-.089.091-.087.186-.177.269-.277.128-.153.113-.369-.036-.527-.076-.08-.176-.123-.282-.119-.071.002-.143.026-.209.068-.068.044-.127.099-.171.142-.046.045-.09.092-.134.136-.064.067-.13.135-.197.197-.052.047-.097.08-.146.084.002-.045.004-.089.008-.13,0-.004.004-.013.007-.02.005-.013.012-.03.016-.049.008-.037.017-.074.025-.111.03-.132.06-.269.084-.405.013-.074-.014-.149-.035-.199-.071-.17-.207-.273-.353-.268-.008,0-.017.001-.025.002-.219.027-.274.229-.295.305l-.018.067c-.063.231-.127.47-.177.709-.029.136-.088.257-.186.38-.061.077-.107.116-.136.117-.034.001-.096-.042-.139-.075-.072-.055-.139-.115-.21-.18-.059-.054-.12-.109-.184-.16l-.006-.005c-.1-.08-.203-.163-.326-.212-.053-.021-.107-.031-.159-.029-.092.003-.175.043-.234.112-.068.078-.098.186-.084.302.021.183.108.328.275.456l.043.033c.151.116.307.236.445.367.204.192.284.397.245.626l-.005.031c-.034.2-.07.407-.144.589-.144.353-.344.813-.615,1.24-.013.021-.026.041-.039.062-.063.1-.128.203-.2.295-.354.45-.705.814-1.075,1.113-.38.307-.745.568-1.116.8-.111.069-.206.13-.298.189-.158.101-.307.197-.504.312-.128.075-.386.209-.531.277-.297.139-.747.352-1.121.519-.166-.407-.332-.814-.498-1.221-.044-.107-.199-.47-.35-.942-.024-.069-.043-.121-.059-.173-.09-.293-.182-.585-.268-.879-.151-.513-.3-1.024-.281-1.57.011-.307.02-.614.116-.906.125-.382.225-.769.291-1.164.041-.248.057-.497-.027-.742-.125-.369-.251-.737-.368-1.108-.307-.966-.684-1.906-1.068-2.843-.077-.188-.183-.37-.368-.483-.559-.343-1.183-.482-1.824-.54-.414-.037-.833-.058-1.25-.002-.22.03-.444.043-.661.089-.413.088-.827.176-1.231.296-.372.11-.735.253-1.095.397-.314.126-.623.268-.928.414-.235.112-.467.234-.69.368-.204.122-.395.266-.592.399-.267.18-.552.339-.8.542-.44.358-.87.729-1.262,1.142-.181.191-.288.422-.379.659-.06.158-.093.333-.048.508.06.236.108.477.182.709.179.566.369,1.129.558,1.693.12.358.237.717.374,1.069.124.32.264.636.415.944.073.149.194.275.348.35.285.139.572.272.861.402.283.127.535.291.732.535.116.143.217.292.281.468.104.287.218.572.337.853.128.302.267.599.398.9.016.037.071.17.079.218l.329.912c.035.071.091.194.114.255.102.276.199.554.302.831.032.085.064.17.095.255-.402.086-.894.18-1.218.243-.157.031-.446.074-.593.089-.227.023-.404.034-.591.045-.109.006-.221.013-.352.023-.436.032-.886.036-1.373.012-.474-.023-.973-.11-1.524-.265-.113-.032-.226-.077-.336-.121-.023-.009-.045-.018-.068-.027-.47-.186-.903-.439-1.228-.639-.167-.103-.318-.249-.463-.391l-.023-.022c-.167-.161-.223-.374-.171-.65.035-.187.09-.376.143-.559l.015-.052c.059-.202.044-.371-.047-.531-.058-.102-.145-.171-.247-.195-.088-.021-.179-.004-.255.048-.043.029-.081.069-.111.117-.07.112-.105.24-.138.364l-.002.007c-.022.08-.038.16-.054.238-.019.094-.037.183-.063.269-.016.052-.04.123-.068.142-.024.016-.085.012-.179-.014-.152-.041-.271-.104-.374-.197-.182-.164-.374-.318-.561-.468l-.054-.043c-.061-.049-.224-.18-.417-.072-.007.004-.015.008-.022.013-.122.082-.17.245-.128.425.013.053.036.129.09.181.1.096.205.188.307.277.029.025.057.05.086.075.015.013.03.023.042.03.006.004.015.009.018.012.028.032.055.065.083.101-.043.026-.098.026-.168.018-.091-.01-.185-.027-.276-.043-.061-.011-.125-.022-.188-.032-.06-.009-.14-.019-.222-.014-.078.005-.15.028-.209.068-.088.059-.144.152-.158.262-.027.215.088.399.281.447.126.031.256.049.381.065.043.006.085.011.128.018.038.006.075.008.111.01.086.006.16.011.222.055.028.02.042.033.048.041-.005.007-.014.017-.033.033-.074.064-.142.117-.209.162-.044.03-.089.057-.131.08-.027.014-.053.03-.077.046-.135.091-.234.217-.305.385-.075.18-.01.3.058.37.096.099.213.126.357.084.215-.063.396-.179.571-.29.022-.014.043-.028.065-.041.193-.122.404-.243.641-.309.162-.045.284-.033.41.04.695.405,1.424.696,2.107.949.373.138.79.271,1.311.417.45.126.904.158,1.409.184.542.027,1.094.011,1.686-.049.449-.046.862-.103,1.261-.174.231-.041.399-.085.578-.133.135-.036.275-.073.448-.109.044-.009.091-.02.142-.032.047.127.094.254.141.382.124.339.241.681.357,1.023.098.289.183.582.285.87.148.419.315.832.457,1.252.212.626.411,1.257.616,1.886.091.28.192.557.276.839.117.389.221.782.335,1.171.02.069,0,.117-.032.171-.172.279-.339.56-.514.837-.329.522-.662,1.042-.992,1.564-.127.202-.253.406-.371.614-.245.43-.482.865-.726,1.295-.26.459-.574.886-.8,1.366-.075.16-.185.304-.271.459-.041.074-.098.097-.175.105-.243.026-.485.063-.728.084-.42.035-.841.065-1.262.09-.166.01-.333-.008-.5-.001-.183.007-.366.025-.548.045-.082.008-.097.06-.041.126.018.021.037.044.061.057.101.057.207.106.306.167.417.256.832.516,1.248.773.459.284.912.576,1.391.824.083.043.141.018.197-.027.197-.158.428-.253.647-.37.031-.016.065-.027.131-.053-.04.1-.066.165-.093.23-.046.107-.09.214-.142.318-.053.107,0,.181.071.247.032.03.076.046.114.069.146.09.291.179.459.283.022-.02.071-.048.094-.09.114-.209.227-.419.33-.634.186-.384.363-.772.546-1.157.162-.34.323-.682.494-1.018.247-.486.499-.969.756-1.449.243-.455.49-.909.744-1.358.161-.284.335-.561.507-.839.063-.102.137-.198.223-.321.059.092.112.161.152.237.163.311.382.571.676.765.059.039.127.085.194.089.403.026.808.077,1.21-.015.119-.027.239-.052.359-.072.301-.05.604-.088.903-.146.523-.101,1.043-.213,1.564-.322.063-.013.105-.003.133.062.096.225.199.447.293.673.165.401.323.805.489,1.205.104.251.216.498.326.746.099.225.167.465.302.674.028.044.038.1.056.151.046.13.074.27.141.388.103.18.139.382.226.567.082.174.12.368.191.548.104.263.219.522.331.783.061.143.062.273-.035.408-.084.117-.145.25-.216.376-.114.203-.224.41-.344.61-.169.281-.346.557-.518.835-.173.278-.345.557-.516.836-.023.037-.047.079-.053.121-.006.039.002.087.022.12.007.012.07,0,.102-.015.141-.066.279-.137.418-.205.259-.126.517-.253.777-.376.19-.09.382-.177.574-.264.126-.057.254-.113.381-.169.186-.082.374-.162.558-.249.062-.03.144-.067.167-.122.056-.132.086-.275.119-.415.033-.139.053-.282.086-.421.009-.039.042-.071.064-.107.084.032.117.083.137.151.023.078.06.153.093.228.021.048.047.094.078.157.065-.025.134-.044.196-.077.112-.06.213-.148.331-.187.13-.042.194-.129.257-.248-.047-.121-.093-.252-.148-.379-.12-.274-.252-.543-.365-.82-.178-.436-.344-.877-.515-1.316-.135-.346-.262-.694-.407-1.036-.183-.434-.382-.862-.571-1.294-.082-.187-.152-.379-.232-.567-.149-.347-.302-.692-.451-1.039-.063-.147-.116-.299-.177-.448-.099-.241-.201-.48-.3-.721-.028-.068-.02-.126.05-.173.225-.152.448-.309.671-.465.272-.19.503-.409.63-.731.112-.283.122-.561.043-.847-.056-.203-.12-.403-.189-.602-.114-.332-.234-.661-.351-.991-.054-.152-.113-.302-.159-.455-.055-.18-.112-.357-.192-.531-.143-.313-.253-.641-.372-.964-.165-.448-.321-.899-.487-1.346-.175-.474-.356-.946-.536-1.419-.166-.436-.329-.874-.502-1.307-.066-.165-.164-.317-.23-.481-.186-.459-.36-.922-.545-1.382-.066-.165-.138-.328-.21-.491.004-.002.008-.003.011-.005.162-.073.297-.125.427-.176.172-.067.334-.13.545-.233.364-.178.73-.375,1.121-.603.514-.3.969-.612,1.391-.954.392-.318.741-.612,1.03-.979.335-.426.593-.779.813-1.11.403-.608.82-1.272,1.143-2.009.058-.133.15-.215.307-.274.231-.087.473-.113.7-.128.026-.002.051-.003.077-.005.208-.013.422-.027.633-.102.141-.051.22-.142.239-.278.014-.096-.005-.232-.171-.333M93.401,39.054c.022.005.045.009.066.018.003,0-.004.025-.006.039-.023-.007-.046-.013-.068-.02.003-.012.006-.024.008-.037ZM86.008,7.591c.024.05.049.096.07.143.253.558.462,1.132.656,1.713.026.079.06.156.092.233.027.065.013.116-.04.163-.203.181-.403.365-.605.547-.02.018-.045.029-.092.058-.119-.229-.233-.438-.339-.651-.15-.304-.29-.613-.44-.917-.107-.218-.112-.217.041-.402.038-.046.082-.088.141-.151.097.192.188.362.27.537.114.241.222.485.333.727.011.025.022.059.043.069.037.018.09.038.121.023.028-.014.054-.077.045-.109-.029-.101-.071-.199-.114-.294-.162-.354-.326-.707-.493-1.058-.032-.068-.033-.118.014-.182.101-.139.191-.285.298-.448ZM77.1,11.603c-.041-.108-.025-.154.084-.161.293-.017.587-.021.885-.031.131.319.254.622.38.924.066.159.135.317.206.474.016.035.04.07.069.092.074.057.181.011.184-.082.002-.059-.015-.122-.038-.177-.064-.153-.142-.302-.204-.456-.1-.245-.191-.494-.291-.754.426-.043.836-.085,1.254-.127.257.635.505,1.246.758,1.871-.14.034-.277.073-.415.101-.249.052-.498.115-.75.141-.286.03-.576.03-.865.032-.16,0-.321-.02-.482-.035-.087-.008-.115-.08-.141-.147-.064-.166-.124-.333-.188-.499-.148-.389-.298-.778-.447-1.167ZM77.483,13.335c-.172.024-.316-.046-.49-.057-.196-.601-.394-1.206-.602-1.843.146.022.254.038.373.056.272.594.485,1.216.72,1.844ZM79.919,11.318c-.006-.014-.002-.033-.004-.074.299-.063.6-.127.906-.192.059.119.117.226.166.337.084.193.161.39.241.585.008.021.012.048.028.059.037.028.086.073.118.065.034-.009.081-.075.076-.11-.016-.113-.043-.227-.083-.334-.081-.217-.172-.431-.26-.646.386-.138.756-.271,1.147-.411.046.095.094.193.141.291.137.292.272.584.409.875.029.062.089.102.148.071.037-.02.067-.09.065-.136-.003-.064-.035-.128-.062-.188-.149-.335-.301-.668-.459-1.019.065-.03.118-.055.168-.078.126.131.606,1.187.803,1.762-.146.068-.294.139-.444.207-.487.221-.998.37-1.513.508-.23.062-.459.131-.688.196-.16.045-.175.038-.236-.114-.222-.551-.445-1.101-.666-1.653ZM82.9,10.211c.209-.104.411-.204.611-.303.099.117.863,1.619.894,1.765-.225.124-.443.244-.681.375-.285-.607-.535-1.22-.823-1.836ZM83.752,9.769c.26-.181.495-.344.747-.519.334.572.519,1.202.886,1.75-.233.209-.491.346-.743.516-.299-.587-.592-1.163-.889-1.747ZM84.7,9.089c.105-.087.189-.157.292-.242.334.586.598,1.19.893,1.786-.11.082-.202.15-.304.226-.352-.566-.564-1.188-.88-1.771ZM75.41,10.614c-.067-.091-.09-.178-.044-.293.126-.322.352-.564.604-.784.297-.26.601-.512.908-.761.385-.312.796-.585,1.228-.828.188-.106.365-.23.551-.338.211-.122.419-.25.641-.35.409-.185.819-.374,1.243-.519.498-.171,1.011-.302,1.532-.387.224-.037.455-.032.683-.042.267-.012.534-.016.8-.031.29-.016.577.002.862.046.319.049.633.123.924.272.203.104.362.252.456.464.028.063.035.122.02.193-.062.287-.22.52-.396.744-.096.122-.198.241-.308.351-.149.15-.302.297-.464.432-.415.347-.851.666-1.331.918-.6.315-1.202.628-1.854.825-.356.108-.713.214-1.074.301-.241.058-.496.065-.736.126-.25.064-.503.085-.757.107-.349.031-.699.051-1.043.076-.138,0-.271-.002-.405,0-.515.01-1.021-.045-1.518-.187-.208-.059-.391-.155-.523-.334ZM76.108,12.999c-.066-.068-.079-.19-.111-.29-.148-.46-.294-.92-.44-1.38-.016-.051-.028-.104-.044-.166.146.041.277.079.408.116.098.028.159.085.191.188.108.344.222.686.338,1.027.055.163.12.322.181.483.023.062.046.124.069.186-.008.013-.017.025-.025.038-.093-.028-.187-.052-.279-.084-.099-.034-.221-.05-.288-.118ZM85.398,32.663c-.11-.055-.229-.137-.29-.239-.194-.323-.362-.66-.539-.993-.01-.018-.007-.043-.015-.095.228.017.437.027.645.053.043.005.091.06.115.105.045.082.074.173.11.26.127.306.255.612.389.934-.146.059-.291.038-.416-.025ZM86.19,32.689c-.032,0-.077-.042-.094-.076-.125-.252-.249-.506-.366-.763-.063-.139-.113-.285-.176-.448.256-.035.494-.068.75-.103.17.437.339.872.515,1.322-.212.063-.421.067-.629.067ZM87.211,32.578c-.058.01-.11-.012-.14-.069-.023-.045-.052-.086-.071-.132-.13-.308-.259-.615-.384-.925-.026-.064-.035-.136-.056-.221.129-.03.241-.055.369-.084.211.448.419.891.636,1.353-.131.029-.242.058-.354.078ZM87.825,32.453c-.215-.453-.425-.897-.646-1.365.094-.034.155-.056.23-.083.17.47.338.931.509,1.403-.018.009-.046.022-.093.045ZM88.928,32.196c-.199.051-.399.099-.599.148-.082.02-.138-.004-.171-.088-.103-.257-.212-.513-.315-.77-.052-.129-.097-.26-.143-.391-.014-.041-.022-.084-.036-.138.278-.079.533-.152.808-.23.181.477.359.948.541,1.427-.029.014-.056.034-.086.041ZM90.734,31.529c-.177.092-.362.171-.539.262-.279.144-.572.242-.904.289-.236-.454-.397-.943-.594-1.425.155-.091.313-.139.469-.191.105-.036.209-.075.312-.117.118-.048.14-.044.194.071.116.247.228.494.342.742.012.025.023.051.035.076.029.063.058.127.146.1.066-.02.111-.118.086-.195-.019-.057-.05-.111-.076-.166-.109-.225-.216-.451-.328-.674-.035-.07-.043-.127.035-.169.166-.091.332-.181.498-.27.008-.004.021.001.059.005.197.472.442.934.715,1.379-.129.155-.298.207-.449.285ZM91.757,30.893c-.076.079-.174.137-.268.197-.097.062-.127.054-.182-.051-.115-.222-.226-.446-.339-.669-.088-.173-.181-.344-.263-.52-.063-.134-.056-.147.068-.231.193-.131.388-.257.601-.397.125.23.25.444.361.666.112.223.211.452.32.689-.059.136-.198.21-.299.316ZM92.149,28.531c.026.033.042.044.045.058.08.3.16.601.238.902.029.113.059.226.077.34.032.201-.012.372-.255.522-.018-.024-.045-.045-.055-.073-.141-.383-.371-.721-.562-1.078-.071-.133-.071-.131.042-.232.098-.089.191-.184.288-.275.056-.053.114-.103.182-.164ZM89.3,20.848c.104.251.201.506.296.76.182.49.357.982.541,1.471.18.478.372.953.554,1.43.228.596.45,1.195.676,1.792.12.317.243.633.362.95.106.281.203.564.314.843.037.093.029.158-.048.219-.065.052-.125.11-.19.163-.291.241-.578.486-.874.72-.143.113-.302.207-.458.303-.208.128-.419.252-.631.374-.305.176-.63.303-.964.411-.18.059-.358.124-.538.179-.249.075-.499.146-.749.215-.278.076-.555.157-.836.22-.466.104-.928.238-1.412.232-.105-.001-.209.004-.314-.002-.177-.01-.353-.029-.53-.038-.071-.003-.11-.031-.138-.096-.225-.526-.483-1.037-.662-1.583-.231-.702-.467-1.402-.706-2.101-.185-.541-.378-1.08-.565-1.621-.164-.472-.324-.945-.487-1.417-.022-.063-.043-.127-.074-.186-.247-.477-.393-.99-.555-1.498-.093-.291-.202-.576-.303-.864-.113-.324-.221-.651-.339-.973-.186-.506-.377-1.01-.568-1.515-.263-.696-.52-1.395-.793-2.087-.159-.404-.353-.793-.64-1.126-.155-.179-.339-.314-.562-.404-.262-.106-.523-.218-.776-.346-.243-.123-.416-.313-.543-.565-.188-.374-.33-.765-.483-1.152-.012-.031-.023-.063-.031-.095-.004-.015,0-.032.002-.061.306.067.597.141.891.194.642.114,1.287.211,1.942.13.274-.034.549-.081.817-.145.567-.134,1.135-.271,1.695-.43.501-.142,1.004-.284,1.484-.498.733-.327,1.44-.699,2.091-1.171.333-.241.667-.483.987-.74.194-.156.364-.342.545-.515.063-.06.128-.12.207-.193.039.101.072.183.101.265.05.142.097.284.144.426.012.037.028.075.029.112.006.377.055.756-.046,1.129-.054.198-.096.4-.155.596-.164.547-.225,1.106-.123,1.667.092.508.213,1.011.385,1.5.068.193.112.395.176.59.105.322.21.644.329.96.115.307.245.608.374.91.109.255.23.506.34.761.154.357.302.717.455,1.074.118.276.243.548.357.825Z"/>
          <path class="st0" d="M85.035,5.147c.042-.018.076-.075.096-.122.069-.158.12-.324.198-.477.365-.718.738-1.432,1.103-2.15.057-.112.09-.237.134-.356-.009-.076-.044-.122-.106-.149-.065-.028-.119-.009-.159.049-.038.055-.08.108-.111.167-.308.585-.617,1.171-.92,1.758-.079.153-.149.311-.211.472-.078.202-.148.408-.208.616-.016.055-.002.136.031.183.02.028.11.03.154.011"/>
          <path class="st0" d="M71.997,8.412c.082.037.162.051.253.052.283.004.566.012.849.019.371.01.595.005.966.015,0-.008.147.001.147-.006.205-.012.411-.022.616-.036.113-.008.218-.041.306-.104.074-.053.074-.118-.006-.161-.039-.021-.092-.031-.139-.033-.094-.003-.189.004-.283.005-.573.004-1.147.006-1.72.01-.278.002-.556.003-.834.008-.048,0-.103.007-.144.028-.102.05-.112.157-.01.203"/>
          <path class="st0" d="M79.021,1.068c.067.258.153.511.227.767.131.454.257.909.39,1.363.127.432.258.863.393,1.293.038.121.093.237.14.355.027.068.069.116.152.096.075-.017.108-.072.124-.151-.001-.019,0-.048-.006-.074-.042-.172-.078-.346-.13-.515-.079-.26-.173-.515-.254-.775-.058-.185-.095-.377-.157-.561-.135-.401-.238-.809-.331-1.221-.109-.482-.239-.959-.362-1.438-.014-.053-.032-.108-.062-.154-.042-.066-.108-.068-.169-.015-.096.084-.135.189-.109.314.05.239.093.48.154.716"/>
          <path class="st0" d="M75.07,2.28c.148.201.289.408.449.599.521.622,1.014,1.265,1.477,1.932.167.24.368.458.558.682.1.119.21.229.316.344.047.052.099.095.174.052.073-.042.093-.113.072-.186-.021-.073-.056-.145-.098-.208-.056-.083-.126-.155-.187-.234-.313-.404-.626-.807-.938-1.212-.339-.44-.688-.872-1.011-1.324-.223-.312-.431-.633-.683-.923-.09-.103-.194-.182-.357-.208-.025.02-.068.044-.096.081-.043.057-.02.118.016.17.101.146.202.292.307.435"/>
          <path class="st0" d="M73.199,5.764c.424.183.848.363,1.273.544.46.196.921.391,1.382.586.123.052.246.103.371.15.061.023.125.022.168-.034.047-.061.012-.111-.029-.162-.098-.125-.22-.226-.36-.293-.445-.213-.891-.425-1.345-.62-.566-.243-1.141-.468-1.721-.704-.111.065-.124.106-.075.228.063.157.19.243.336.306"/>
          <path class="st0" d="M82.629,4.503c.077-.019.092-.076.098-.137.023-.232.049-.464.061-.697.02-.417.025-.834.046-1.251.025-.505.061-1.009.092-1.514l.028.002c.02-.143.04-.286.059-.429.008-.061.02-.122.02-.182,0-.091-.067-.146-.141-.165-.04-.01-.109.024-.139.06-.041.047-.07.113-.081.175-.055.295-.1.59-.11.892-.012.377-.061.752-.089,1.129-.024.321-.041.642-.029.965.011.282-.021.566-.033.849-.003.084.002.166.063.235.042.048.08.086.154.068"/>
          <path class="st0" d="M76.552,10.735c.268.043.542.045.814.065.665-.018,1.325-.07,1.98-.178.637-.105,1.251-.296,1.858-.511.508-.18,1.008-.38,1.481-.641.17-.094.355-.161.519-.262.367-.228.73-.465,1.087-.708.29-.198.553-.431.788-.691.074-.082.147-.172.189-.272.138-.326.105-.56-.17-.771-.116-.089-.261-.154-.403-.189-.176-.044-.362-.056-.544-.066-.194-.011-.39.005-.584-.007-.386-.023-.766.025-1.143.091-.388.067-.772.162-1.152.267-.572.158-1.147.311-1.675.599-.321.175-.659.321-.977.502-.416.236-.822.487-1.227.742-.41.258-.796.551-1.14.895-.146.146-.275.306-.356.5-.038.091-.038.169.026.263.154.225.377.334.627.374M80.012,10.308c-.053-.065-.002-.119.005-.175.042-.326.255-.547.472-.764.055-.055.121-.097.181-.147.265-.223.59-.267.915-.32.255-.041.498-.02.734.084.145.064.218.124.35.288-.842.481-1.743.77-2.657,1.035ZM76.186,10.126c.13-.188.272-.363.439-.521.256-.242.543-.44.836-.631.343-.223.683-.451,1.031-.665.15-.092.319-.154.476-.235.334-.171.661-.357,1.001-.515.261-.121.535-.221.81-.306.409-.126.822-.24,1.238-.341.389-.094.784-.155,1.185-.18.345-.021.686.007,1.028.029.258.016.5.105.725.233.176.099.211.268.093.433-.268.375-.6.686-.975.952-.321.227-.648.446-.975.666-.068.046-.148.076-.245.125-.158-.258-.387-.407-.66-.491-.116-.035-.24-.075-.357-.068-.481.028-.948.114-1.354.405-.271.194-.453.46-.587.755-.084.184-.123.388-.193.616-.21.036-.453.092-.7.118-.42.045-.842.081-1.264.102-.355.018-.712.028-1.067-.028-.189-.03-.343-.121-.473-.259-.058-.062-.063-.123-.014-.194Z"/>
          <path class="st0" d="M83.911,16.344c-.006.015-.017.029-.024.044-.035.074-.027.139.042.191.018-.006.036-.007.048-.016.022-.016.041-.036.061-.056.226-.218.476-.41.766-.524.473-.186.96-.318,1.478-.181.052.014.123.018.145-.046.022-.065-.021-.116-.081-.147-.025-.013-.052-.03-.077-.029-.092.004-.125-.058-.154-.127-.076-.179-.158-.356-.225-.538-.099-.268-.233-.517-.418-.733-.073-.085-.175-.165-.28-.2-.417-.142-.801.008-1.093.305-.178.181-.219.426-.202.667.02.276.073.55.115.825.015.104.041.206.056.31.018.126-.118.162-.157.256M84.774,14.125c.278-.034.461.082.616.294.243.332.351.725.525,1.112-.189.017-.362.032-.54.048-.07-.15-.129-.294-.203-.429-.074-.136-.149-.276-.249-.392-.186-.215-.42-.326-.724-.254.156-.184.314-.347.575-.379Z"/>
          <path class="st0" d="M86.274,25.266c-.032.092-.014.162.021.231.022.042.038.088.053.133.056.166.108.332.166.497.089.255.181.51.27.765.026.074.048.148.074.233.37-.057.707-.178,1.044-.359-.229-.607-.454-1.202-.688-1.82-.328.082-.637.209-.941.321M87.548,26.289c.044.112.122.235.146.373-.181.054-.559.252-.737.276-.217-.482-.379-1.026-.527-1.54.156-.061.522-.195.689-.259.057.142.11.301.162.43.098.243.172.477.267.721Z"/>
          <path class="st0" d="M82.564,16.956c.155,0,.311.003.466.001.131-.001.149-.026.137-.186-.105-.017-.214-.053-.322-.049-.143.005-.189-.073-.237-.184-.177-.413-.37-.815-.718-1.122-.188-.166-.393-.245-.638-.209-.131.019-.262.051-.389.088-.091.026-.162.086-.228.159-.23.256-.273.561-.255.887.02.369.096.729.226,1.072.071.187.063.338-.053.495-.053.072-.064.153.032.252.047-.045.092-.082.128-.126.106-.128.195-.273.314-.387.429-.412.923-.688,1.537-.691M81.65,16.915c-.035-.07-.074-.137-.101-.208-.082-.211-.218-.387-.361-.556-.144-.17-.328-.241-.551-.175-.008-.316.388-.625.717-.556.182.038.332.113.456.253.216.243.4.505.515.811.03.081.07.159.102.232-.272.069-.517.132-.777.199Z"/>
          <path class="st0" d="M88.379,27.065c-.116-.312-.234-.622-.348-.934-.074-.201-.141-.405-.217-.605-.105-.278-.212-.556-.326-.83-.048-.115-.141-.143-.269-.107-.201.057-.404.109-.602.174-.221.072-.437.158-.657.236-.073.026-.106.074-.114.167.006.015.017.052.032.087.029.068.066.134.089.204.055.166.102.334.154.5.171.547.343,1.093.565,1.622.133.318.26.639.392.957.05.12.095.135.229.088.099-.035.196-.073.294-.107.117-.04.235-.076.352-.116.17-.059.338-.121.507-.183.057-.021.115-.043.167-.073.107-.06.117-.091.079-.195-.109-.295-.217-.591-.327-.886M88.403,28.01c-.192.07-.382.144-.574.214-.182.066-.366.129-.571.202-.512-1.045-.85-2.142-1.192-3.257.134-.049.274-.105.417-.151.194-.062.389-.121.586-.172.271-.069.272-.08.359.155.085.229.158.463.24.694.078.218.164.433.243.65.058.16.107.324.165.483.107.291.219.581.327.872.023.061.038.125.063.186.025.063.004.099-.064.124Z"/>
          <path class="st0" d="M85.534,20.019c.194-.273.293-.589.373-.908.043-.171.04-.352.071-.526.043-.241.017-.476-.048-.707-.016-.059-.067-.108-.113-.179-.101.076-.178.134-.255.19-.324.239-.674.432-1.038.602-.4.188-.815.334-1.238.461-.192.058-.388.078-.587.066-.082-.005-.16.009-.196.085-.034.07.029.124.069.174.079.099.164.194.243.292.294.364.677.613,1.097.796.293.128.607.141.925.076.286-.059.526-.184.696-.423M84.465,19.246c-.292.132-.602.21-.915.274-.084.017-.167.041-.251.061-.132.031-.249.022-.335-.106-.049-.074-.115-.136-.185-.217,1.075-.206,2.028-.649,2.933-1.221.062.139.081.268.059.4-.009.056-.037.12-.078.157-.086.078-.179.155-.282.206-.312.156-.629.303-.947.446Z"/>
          <path class="st1" d="M67.6,31.42c-.008.049-.035.094-.079.134-.045.041-.095.061-.152.061h-4.367c-.089,0-.156-.028-.2-.085-.045-.057-.051-.129-.018-.218l.17-.497v-7.605c-.024-.065-.055-.15-.091-.255-.036-.105-.063-.19-.079-.255-.024-.089-.014-.162.03-.218.044-.057.107-.085.188-.085h1.796c.081,0,.143.028.188.085.044.056.054.129.03.218l-.158.533v6.417l.012.012c0,.008.004.012.012.012h2.147c.089-.016.18-.04.273-.073.093-.032.184-.056.273-.073.089-.016.164,0,.224.049.061.048.083.117.067.207l-.267,1.635Z"/>
          <path class="st1" d="M70.462,31.3c.04.081.04.154,0,.218-.041.065-.105.097-.194.097h-1.771c-.081,0-.144-.032-.188-.097-.044-.065-.047-.137-.006-.218l.158-.364v-5.798l-.17-.412c-.032-.081-.026-.152.018-.212.044-.061.107-.091.188-.091h1.771c.089,0,.156.03.2.091.044.061.047.132.006.212l-.158.412v5.798l.146.364Z"/>
          <path class="st1" d="M73.385,31.3c.04.081.038.154-.006.218-.045.065-.107.097-.188.097h-1.771c-.089,0-.153-.032-.194-.097-.041-.065-.041-.137,0-.218l.158-.364v-5.81l-.17-.412c-.032-.073-.028-.141.012-.206.04-.065.105-.097.194-.097h1.589c.032,0,.069.012.109.036.04.024.069.057.085.097l1.65,3.238v-2.656l-.17-.412c-.033-.073-.029-.141.012-.206.04-.065.105-.097.194-.097h1.795c.081,0,.145.032.194.097.049.065.053.133.012.206l-.17.412v5.81l.158.364c.04.081.038.154-.006.218-.045.065-.107.097-.188.097h-1.613c-.033,0-.071-.014-.115-.042-.045-.028-.075-.055-.091-.079l-1.637-3.263v2.705l.158.364Z"/>
          <path class="st1" d="M83.051,25.878c.016.089-.002.16-.055.212-.053.053-.119.071-.2.054l-.594-.121h-.958l-.024.012v4.9l.158.364c.032.081.028.153-.012.218-.04.065-.105.097-.194.097h-1.783c-.089,0-.154-.032-.194-.097-.04-.065-.044-.138-.012-.218l.158-.364v-4.912h-1.019c-.089.016-.182.036-.279.061-.097.024-.19.045-.279.061-.089.016-.16-.002-.212-.054-.053-.052-.071-.123-.055-.212l.267-1.261c.016-.049.044-.091.085-.127.04-.036.085-.055.133-.055h4.573c.049,0,.095.018.14.055.044.036.075.079.091.127l.267,1.261Z"/>
          <path class="st1" d="M83.827,31.615c-.089,0-.156-.03-.2-.091-.045-.061-.051-.131-.018-.212l.17-.4v-5.786l-.158-.376c-.033-.081-.028-.153.012-.218.04-.065.105-.097.194-.097h4.269c.049,0,.095.018.14.054.044.036.071.079.079.127l.267,1.237c.016.089-.006.16-.067.212-.061.053-.131.067-.212.042l-.57-.121h-2.062c0,.008-.004.012-.012.012-.008,0-.016.004-.024.012v1.177l.024.012h.631c.162-.049.327-.093.497-.133.073-.016.14-.004.2.036.061.041.091.101.091.182v1.407c0,.081-.03.144-.091.188-.061.044-.127.054-.2.03l-.497-.133h-.655v1.249h2.098l.57-.121c.081-.016.152.002.212.055.061.053.083.123.067.212l-.267,1.262c-.008.057-.034.101-.079.133-.045.033-.091.049-.14.049h-4.269Z"/>
          <path class="st1" d="M89.358,31.615c-.089,0-.154-.032-.194-.097-.041-.065-.045-.137-.012-.218l.158-.364v-5.798l-.17-.412c-.024-.081-.016-.152.024-.212.04-.061.105-.091.194-.091h3.808l.776.594c.016.016.034.046.055.091.02.044.03.075.03.091v3.069c0,.024-.008.057-.024.097-.016.041-.033.069-.049.085l-.606.485.57,1.941.218.425c.04.081.038.153-.006.218-.045.065-.111.097-.2.097h-1.759c-.073,0-.132-.028-.176-.085-.045-.057-.059-.121-.042-.194l.097-.34c-.097-.323-.19-.643-.279-.958-.089-.315-.186-.639-.291-.97h-.315v1.868l.158.364c.04.081.038.153-.006.218-.044.065-.111.097-.2.097h-1.759ZM92.16,26.011h-.995v1.48h.995v-1.48Z"/>
          <path class="st1" d="M97.181,31.3c.04.081.038.154-.006.218-.045.065-.107.097-.188.097h-1.771c-.089,0-.154-.032-.194-.097-.041-.065-.041-.137,0-.218l.158-.364v-5.81l-.17-.412c-.032-.073-.028-.141.012-.206.04-.065.105-.097.194-.097h1.589c.032,0,.069.012.109.036.04.024.069.057.085.097l1.65,3.238v-2.656l-.17-.412c-.033-.073-.029-.141.012-.206.04-.065.105-.097.194-.097h1.795c.081,0,.146.032.194.097.049.065.053.133.012.206l-.17.412v5.81l.158.364c.041.081.038.154-.006.218-.045.065-.107.097-.188.097h-1.613c-.033,0-.071-.014-.115-.042-.045-.028-.075-.055-.091-.079l-1.637-3.263v2.705l.158.364Z"/>
          <path class="st1" d="M107.612,31.142c.057.105.063.204.018.297-.044.093-.111.14-.2.14h-1.795c-.089,0-.154-.038-.194-.115-.04-.077-.045-.168-.012-.273l.097-.279c-.041-.21-.087-.4-.14-.57-.053-.17-.099-.36-.139-.57-.008-.008-.012-.01-.012-.006,0,.004-.008-.006-.024-.03h-1.262l-.036.049c-.049.186-.097.37-.145.552-.049.182-.093.374-.133.576.016.048.032.095.049.139.016.045.032.091.048.14.032.105.026.196-.018.273-.044.077-.111.115-.2.115h-1.783c-.097,0-.168-.046-.212-.14-.045-.093-.039-.192.018-.297l.267-.509c.275-1.189.562-2.436.861-3.742.299-1.306.586-2.557.861-3.754-.016-.065-.038-.133-.067-.206-.028-.073-.05-.146-.067-.218-.032-.105-.026-.196.018-.273.044-.077.111-.115.2-.115h1.941c.089,0,.153.039.194.115.04.077.044.168.012.273l-.133.424,1.722,7.447.267.558ZM104.276,27.746v-.037h-.036l.036.037ZM104.579,26.242c-.049.251-.097.491-.145.722-.049.23-.101.479-.158.746.113,0,.216.006.309.018.093.012.192.018.297.018-.032-.17-.059-.301-.079-.394-.02-.093-.041-.186-.061-.279-.02-.093-.043-.202-.067-.327-.024-.125-.057-.293-.097-.503Z"/>
        </g>
        <g>
          <path class="st0" d="M277.943,13.361c.998.985.174,3.148-.294,4.251-1.372,3.234-3.575,6.512-5.427,9.498-.429,1.56,1.081.904,1.86.378,2.198-1.485,1.812-2.765,2.336-5.058.659-2.879,2.482-7.405,4.868-9.247,1.108-.855,2.777-1.124,3.255.503.671,2.287-1.363,5.652-2.623,7.522-.857,1.273-3.736,4.355-3.804,5.613-.033.62.209,1.628.982,1.527,1.751-.228,2.387-3.803,3.677-3.878,1.137-.066.321,2.089.08,2.647-.793,1.832-2.97,4.043-5.131,3.201-.743-.29-1.517-1.717-1.797-1.667-.081.015-1.062.8-1.341.953-.865.474-1.633.802-2.653.589-.545-.114-1.279-.792-1.667-.751-.217.023-1.176.838-1.546,1.018-.732.357-1.585.633-2.404.376-.432-.135-.944-.844-1.275-.827-.234.013-1.302.764-1.766.921-1.76.595-3.263.318-4.038-1.481-.827.892-1.382,1.989-2.282,2.824-3.753,3.482-10.237,3.973-13.717-.136-4.373-5.164-2.146-12.841,1.82-17.541.313-.371,1.411-1.268,1.54-1.552.187-.412-.12-1.334.29-1.466.449-.144.858.436,1.294.37.297-.045.99-.523,1.353-.673,2.679-1.104,6.508-2.3,9.142-.492,1.632,1.12,1.585,3.648.077,4.873-2.093,1.701-5.56,1.346-7.917.413-.624-.247-2.67-1.573-2.997-1.523-1.261.195-3.691,4.735-4.134,5.958-1.627,4.495-1.127,10.783,4.245,12.296,9.635,2.714,11.332-12.525,18.677-11.821.614.059,1.561.377,1.873.95.858,1.576-1.729.914-2.644,1.1-1.431.29-3.023,1.871-3.757,3.098-.314.524-1.3,2.595-.423,2.894,1.164.395,2.779-1.188,3.46-2.007.488-.588,1.8-3.066,2.192-3.185.122-.037.249-.043.376-.044,2.229-.002-.62,3.732-.603,4.662.021,1.091,2.292-.913,2.521-1.384.253-.522.342-2.355.5-3.13.513-2.513,1.765-5.706,3.186-7.837.745-1.117,3.137-4.212,4.633-2.735ZM254.706,11.607c-.709.036-5.052.989-5.079,1.64,1.686,1.291,4.166,1.731,6.253,1.551.899-.078,2.269-.601,2.223-1.682-.058-1.366-2.381-1.56-3.397-1.508ZM282.694,14.525c-.146-.167-.893.691-.996.817-1.552,1.897-2.567,4.761-3.169,7.113,1.089-1.172,2.134-2.733,2.892-4.164.603-1.14,1.272-2.446,1.273-3.766ZM272.345,23.262c.77-1.051,1.468-2.211,2.085-3.358.807-1.499,1.597-3.072,2.079-4.708-2.078,2.126-3.44,5.204-4.165,8.066Z"/>
          <path class="st0" d="M238.602,18.826c.564-.339.322-1.83,1.212-1.559,1.115.339-.251,2.975-1.287,3.166-.538.1-1.19-.032-1.438-.565-.106-.227-.002-.625-.234-.638-.005.453-.168,1.288-.668,1.421l-6.503.202c-.353-.391-.321-.963.251-1.081.266-.054.739.122.849-.227.09-.762.51-6.011.289-6.232-.169-.17-1.182.406-1.207-.484-.012-.422.349-.656.744-.717.839-.13,2.053-.061,2.949-.143.515-.047,2.135-.437,2.419-.405s.391.344.536.361c.51.06,2.495-1.363,2.503.244.004.773-.235,1.887-.28,2.692-.074,1.315-.09,2.649-.134,3.964ZM237.121,18.422l.134-5.511c-.822.166-.035,1.401-1.145,1.352-.887-.039-.454-.934-.679-1.099-.277-.203-2.186-.173-2.443.048-.136.117-.302,2.031-.241,2.12.129.189,1.235.043,1.28-.004.054-.055-.126-1.264.858-.923.569.197.332,2.441.131,2.912-.292.685-1.491.082-1.121-.777l-1.208.136c.159.459-.228,2.486-.078,2.697.2.28,2.145.046,2.504-.069.823-.263.471-1.328,1.143-1.422.604-.085.519.281.864.541Z"/>
        </g>
        <g>
          <path class="st0" d="M320.267,3.087c.385.042.768.096,1.154.124,1.775.125,3.508.442,5.159,1.127,1.281.532,2.39,1.341,3.454,2.212,1.059.867,2.024,1.83,2.854,2.922.57.75,1.058,1.546,1.356,2.446.145.439.171.889.061,1.342-.135.554-.615.933-1.182.968-1.531.095-2.811-.448-3.827-1.566-.697-.767-1.377-1.562-1.969-2.411-1.09-1.564-2.486-2.639-4.382-2.979-.854-.153-1.718-.262-2.582-.344-.636-.06-1.282-.081-1.92-.05-1.709.082-3.351.45-4.765,1.463-1.982,1.42-3.641,3.142-4.634,5.408-.559,1.276-.892,2.627-1.108,4.001-.119.757-.208,1.526-.22,2.292-.018,1.186.228,2.333.687,3.434.363.871.696,1.754,1.043,2.632.009.023.029.042.045.065.016-.018.037-.03.037-.042-.017-1.327-.044-2.655-.053-3.982-.009-1.515-.003-3.029-.002-4.544,0-.674.056-1.316.336-1.966.198-.46.402-.899.686-1.307.376-.539.9-.904,1.456-1.228,1.006-.587,2.016-1.165,3.022-1.751.673-.392,1.341-.792,2.011-1.187.497-.293.982-.608,1.494-.873.958-.495,1.973-.647,3.046-.475.822.131,1.504.547,2.2.956,1.247.733,2.504,1.449,3.754,2.177.871.507,1.759.989,2.598,1.543.776.512,1.268,1.262,1.607,2.138.26.673.335,1.348.331,2.055-.012,2.23-.009,4.461-.001,6.691.002.64.068,1.281-.135,1.905-.407,1.253-1.109,2.263-2.287,2.928-1.598.903-3.174,1.846-4.76,2.771-.047.027-.098.048-.173.085.089-.534.191-1.039.253-1.549.103-.846.222-1.694.259-2.544.056-1.289.086-2.582.058-3.873-.05-2.295-.324-4.567-.94-6.785-.249-.898-.584-1.759-1.325-2.396-.752-.647-1.636-.677-2.412-.235-.853.485-1.279,1.301-1.571,2.184-.281.851-.55,1.712-.736,2.587-.297,1.389-.522,2.794-.775,4.193-.161.89-.318,1.78-.477,2.67-.024.001-.047.003-.071.004-.09-.368-.178-.736-.271-1.104-.352-1.4-.681-2.806-1.069-4.196-.209-.747-.49-1.484-1.029-2.075-.89-.976-2.373-.872-3.073.314-.549.93-.836,1.944-1.045,2.986-.202,1.005-.345,2.023-.585,3.018-.087.36-.134.723-.186,1.082-.045.31.04.639.056.959.01.192.012.388-.01.579-.041.355-.294.461-.595.269-.519-.332-.865-.82-1.132-1.351-.569-1.134-1.098-2.288-1.644-3.434-.132-.277-.268-.553-.401-.829-.034.009-.068.018-.103.027-.01.103-.033.207-.028.309.091,2.231.734,4.28,2.055,6.094.909,1.248,1.927,2.397,3.095,3.416,1.21,1.056,2.586,1.79,4.115,2.244,1.668.496,3.368.798,5.116.751,1.478-.04,2.897-.355,4.257-.939,1.04-.447,2.06-.929,2.999-1.566,1.084-.736,1.929-1.686,2.653-2.778.618-.932,1.326-1.807,2.033-2.675.475-.583,1.163-.84,1.891-.881.547-.031.92.341,1.192.79.332.548.27,1.152.174,1.735-.2,1.223-.85,2.224-1.673,3.116-1.329,1.441-2.752,2.782-4.263,4.033-1.63,1.35-3.541,2.054-5.558,2.539-1.266.304-2.55.438-3.853.471-1.68.043-3.324-.164-4.945-.574-2.08-.526-4.02-1.385-5.857-2.492-1.483-.894-2.643-2.11-3.64-3.508-1.171-1.641-2.08-3.417-2.775-5.303-.459-1.244-.812-2.521-.945-3.844-.128-1.271-.278-2.545-.309-3.82-.031-1.277.091-2.553.299-3.82.295-1.794.809-3.517,1.586-5.156,1.073-2.264,2.603-4.181,4.528-5.779.246-.205.537-.365.828-.504.326-.156.522-.006.449.345-.071.342-.216.669-.308,1.008-.036.132-.017.279-.022.419.13-.029.273-.034.389-.092.848-.418,1.681-.866,2.536-1.266,1.183-.553,2.386-1.066,3.662-1.363.583-.136,1.188-.184,1.783-.264.375-.05.751-.085,1.127-.127.613,0,1.227,0,1.84,0ZM311.379,7.088c-.607-.171-3.313,2.571-3.259,3.321.196-.086.403-.128.549-.246.967-.786,1.834-1.67,2.535-2.706.074-.11.116-.242.175-.369Z"/>
          <path class="st0" d="M313.226,23.555c.132.544.25,1.091.398,1.63.387,1.417.769,2.836,1.188,4.244.167.56.474,1.063.873,1.505.837.927,2.039.63,2.655-.04.611-.663.917-1.486,1.113-2.334.331-1.432.617-2.877.874-4.324.329-1.849.618-3.706,1.166-5.508.015-.051.037-.099.111-.152.107.528.233,1.053.319,1.584.288,1.781.397,3.578.385,5.378-.015,2.172-.127,4.34-.716,6.45-.127.454-.298.895-.44,1.344-.066.208-.199.295-.412.288-.854-.027-1.665-.186-2.418-.628-1.981-1.165-3.973-2.311-5.961-3.464-.175-.102-.352-.2-.485-.276.257-.971.533-1.902.745-2.847.212-.943.362-1.901.539-2.852.022,0,.044,0,.065,0Z"/>
          <path class="st0" d="M330.002,4.517c.13.036.274.047.389.111.998.559,1.835,1.317,2.607,2.15,1.117,1.205,1.96,2.583,2.499,4.132.192.552.254,1.149.365,1.727.013.069-.043.152-.066.228-.08-.034-.187-.046-.235-.105-.247-.3-.494-.602-.712-.923-1.292-1.901-2.573-3.808-3.863-5.71-.296-.437-.611-.861-.913-1.294-.05-.072-.076-.16-.113-.241.014-.025.029-.049.043-.074Z"/>
        </g>
        <g>
          <g>
            <path class="st0" d="M21.059,32.892c.052-.058,1.278-1.452,1.902-4.619.156-.79.256-1.623.307-2.491.001-.009.004-.018.004-.027,0-.003-.002-.005-.002-.008.066-1.149.044-2.358-.074-3.623-.005-.056-.013-.114-.019-.17,0-.003.001-.005.001-.008,0-.007-.003-.014-.005-.021-.05-.5-.116-1.009-.194-1.525,0-.003.002-.006.002-.009,0-.016-.005-.031-.01-.045-.094-.614-.209-1.238-.343-1.874,0-.003.001-.006.001-.009-.001-.021-.007-.041-.016-.059-.09-.422-.189-.848-.296-1.279,0-.024-.006-.048-.017-.07-.326-1.299-.726-2.635-1.208-4.006-.001-.004-.005-.007-.006-.011-.004-.008-.008-.015-.013-.023-.007-.01-.014-.02-.022-.028-.006-.006-.012-.011-.019-.016-.01-.008-.021-.013-.033-.018-.005-.002-.008-.006-.013-.008-.003,0-.006,0-.009-.001-.013-.003-.026-.004-.039-.004-.008,0-.016-.001-.023,0-.003,0-.005,0-.007,0-.012.002-.022.008-.033.012-.006.002-.012.003-.018.006-.018.01-.035.022-.048.038h0c-.014.016-.024.035-.031.055,0,.001-.001.002-.002.003-.006.02-.319,1.001-.708,2.521,0,.003-.001.005-.002.008-.11.429-.226.901-.343,1.406,0,.002-.002.003-.002.005,0,0,0,.002,0,.003-.107.461-.214.948-.319,1.457,0,0,0,.001,0,.002-.115.56-.226,1.144-.329,1.744,0,0,0,0,0,0,0,0,0,0,0,0-.07.412-.137.831-.197,1.255-.214,1.505-.328,2.884-.346,4.134-.004.018-.004.036-.001.055-.01.814.021,1.571.094,2.267,0,.007.001.014.002.022.005.048.008.099.014.147.07.6.173,1.153.308,1.661,0,0,0,.002,0,.002.378,1.429,1.009,2.493,1.885,3.171,0,0,0,0,0,0,0,0,0,0,0,0,.002.002.005.002.007.004.011.008.023.016.036.021,0,0,.002,0,.003,0,.018.007.037.01.057.01.025,0,.049-.006.071-.016.008-.004.014-.01.021-.015.011-.008.024-.014.033-.024ZM21.101,31.555l.696-.6c-.108.249-.212.466-.306.646-.147.282-.283.505-.39.669v-.715ZM22.063,30.283l-.962.83v-1.083l1.435-1.381c-.142.624-.306,1.17-.474,1.634ZM22.657,28.07l-1.555,1.496v-1.35l1.799-1.979c-.052.633-.133,1.245-.244,1.834ZM21.101,25.836v-1.669l1.774-1.837c.034.394.058.782.074,1.164l-1.849,2.342ZM21.101,18.038v-1.313l.559-.776c.108.381.21.76.304,1.134l-.863.954ZM21.101,16.153v-2.038c.158.48.302.955.441,1.426l-.441.612ZM20.41,15.581c.131-.51.253-.957.357-1.323v1.86l-.357-.537ZM20.767,16.722v1.233l-.701-.972c.079-.338.157-.661.233-.965l.468.704ZM20.767,24.172v1.71l-1.821-2.025c.032-.412.072-.835.122-1.271l1.699,1.586ZM20.767,26.382v1.328l-1.903-2.148c.006-.401.021-.814.048-1.243l1.855,2.064ZM22.937,25.698l-1.836,2.019v-1.342l1.865-2.362c.012.576.002,1.137-.029,1.685ZM21.101,23.685v-1.279l1.593-1.648c.054.382.101.76.14,1.133l-1.732,1.794ZM21.101,21.925v-1.645l1.262-1.44c.102.506.194,1.006.271,1.498l-1.533,1.586ZM21.101,19.772v-1.234l.96-1.061c.077.32.15.637.218.952l-1.177,1.343ZM20.767,18.527v1.205l-1.02-1.3c.072-.349.146-.687.219-1.014l.801,1.109ZM20.767,20.275v1.587l-1.351-1.69c.077-.446.159-.884.243-1.309l1.107,1.412ZM19.342,20.614l1.425,1.783v1.316l-1.649-1.539c.028-.222.055-.444.088-.671.043-.299.088-.595.136-.889ZM20.767,28.214v1.354l-1.816-1.732c-.057-.553-.087-1.144-.091-1.774l1.907,2.151ZM20.767,30.031v1.049l-1.515-1.489c-.098-.383-.178-.795-.24-1.233l1.755,1.673ZM20.767,31.549v.867c-.561-.525-1.002-1.247-1.317-2.161l1.317,1.294Z"/>
            <path class="st0" d="M10.5,23.901c.154.4.366.781.645,1.108.648.762,1.977.994,2.931.994.401,0,.724-.119.986-.359.342.065.625.106.782.126.303,1.16.594,1.9.599,1.912.025.064.087.105.155.105.021,0,.042-.004.062-.012.086-.034.128-.132.093-.218-.007-.017-.678-1.725-1.034-4.02-.212-1.369-.337-3.14-.057-4.936.673-.226,1.354-1.022,1.782-1.72.381-.622.501-1.374.426-2.093-.035-.333-.111-.668-.182-.994-.023-.104-.03-.255-.138-.31-.052-.027-.116-.024-.165.007-.165.103-.351.206-.552.317-1.066.591-2.392,1.326-2.167,2.909.002.015.343,1.535.662,1.848-.223,1.442-.192,2.862-.063,4.081-.072-.04-.154-.088-.246-.143.081-.436-.05-.965-.154-1.389-.112-.457-.379-.874-.756-1.158-.426-.322-.955-.401-1.441-.59-.271-.105-.454-.255-.658-.452-.147-.142-.351-.284-.43-.001-.037.13-.088.254-.121.385-.079.311-.106.626-.08.936.065.77.448,1.451,1.076,1.917.557.413,1.209.64,1.835.64.162,0,.321-.018.476-.047.245.149.441.254.546.308.024.186.049.368.076.542.104.668.233,1.283.366,1.825-.144-.021-.343-.053-.57-.095-.023-.114-.087-.251-.176-.407-.108-.192-.248-.398-.293-.451-.496-.582-1.229-.647-1.945-.619-.468.018-.951.071-1.411-.044-.254-.063-.419-.198-.639-.322-.179-.101-.382-.052-.296.208.023.071.048.141.075.21ZM13.03,24.595c-.035-.028-.079-.04-.123-.035-.045.005-.084.027-.112.062-.028.035-.04.079-.035.123.005.045.027.084.062.112.403.318,1.13.543,1.786.692-.383.19-.843.106-1.293.02-.07-.014-.138-.027-.207-.039-.537-.095-1.272-.226-1.709-.74-.187-.22-.356-.489-.502-.8.46.196.982.234,1.477.222.449-.01.933-.069,1.381.044.524.132.825.521,1.049.99-.65-.14-1.398-.355-1.775-.653ZM16.541,15.683c.019-.04.022-.086.007-.128s-.045-.076-.085-.095c-.04-.019-.086-.022-.128-.007-.042.015-.076.045-.096.086-.393.816-.654,1.671-.822,2.527-.169-.417-.389-1.194-.418-1.395-.193-1.356.971-2,1.998-2.569.128-.071.252-.14.37-.208.195.957.33,1.937-.208,2.814-.357.582-.899,1.242-1.432,1.507.162-.857.421-1.714.813-2.53ZM13.076,20.697c-.041-.082-.141-.116-.225-.075-.083.041-.116.142-.075.225.27.542.79,1.082,1.544,1.607-.562.007-1.15-.189-1.664-.571-.55-.408-.884-1.003-.941-1.677-.023-.272,0-.55.071-.825.004-.017.024-.062.04-.102.002-.005.004-.009.006-.014.303.301.723.419,1.1.526.103.029.2.056.292.087,1.095.366,1.455,1.353,1.481,2.429-.579-.38-1.302-.952-1.629-1.609Z"/>
            <path class="st0" d="M18.682,32.626c-.055-.024-.345-.149-.799-.363-.246-1.944-1.624-3.555-3.693-4.314-.559-.205-1.134-.385-1.693-.561-.402-.126-.857-.269-1.291-.418-.238-.082-.486-.159-.704-.227-.268-.083-.534-.17-.803-.249-.133-.039-.591-.242-.537.071.002.013.006.026.011.037.881,2.159,2.474,4.217,4.589,5.28.633.318,1.318.537,2.015.656.353.06.711.094,1.07.093.174,0,.348-.009.521-.027.108-.012.286-.075.39-.026.494.232.791.358.795.36.021.009.043.013.065.013.067,0,.128-.04.154-.102.018-.041.018-.087.001-.128-.017-.041-.049-.074-.091-.092ZM14.864,31.078c.867.493,1.672.905,2.258,1.191-1.254-.102-2.473-.245-3.577-.889-1.035-.603-1.918-1.457-2.638-2.408-.171-.225-.332-.457-.485-.695-.14-.218-.257-.559-.437-.741,1.419,1.436,3.414,2.707,4.879,3.541ZM9.825,26.877s.004.001.006.002c.189.063.382.123.571.182.216.067.46.144.695.225.437.151.896.294,1.312.425.549.172,1.117.351,1.666.552,1.862.683,3.142,2.108,3.444,3.826-2.079-1.004-5.714-2.962-7.694-5.212ZM9.399,26.45h0s0,0,0,0Z"/>
            <path class="st0" d="M31.43,23.901c-.154.4-.366.781-.645,1.108-.648.762-1.977.994-2.931.994-.401,0-.724-.119-.986-.359-.342.065-.625.106-.782.126-.303,1.16-.594,1.9-.599,1.912-.025.064-.087.105-.155.105-.021,0-.042-.004-.062-.012-.086-.034-.128-.132-.093-.218.007-.017.678-1.725,1.034-4.02.212-1.369.337-3.14.057-4.936-.673-.226-1.354-1.022-1.782-1.72-.381-.622-.501-1.374-.426-2.093.035-.333.111-.668.182-.994.023-.104.03-.255.138-.31.052-.027.116-.024.165.007.165.103.351.206.552.317,1.066.591,2.392,1.326,2.167,2.909-.002.015-.343,1.535-.662,1.848.223,1.442.192,2.862.063,4.081.072-.04.154-.088.246-.143-.081-.436.05-.965.154-1.389.112-.457.379-.874.756-1.158.426-.322.955-.401,1.441-.59.271-.105.454-.255.658-.452.147-.142.351-.284.43-.001.037.13.088.254.121.385.079.311.106.626.08.936-.065.77-.448,1.451-1.076,1.917-.557.413-1.209.64-1.835.64-.162,0-.321-.018-.476-.047-.245.149-.441.254-.546.308-.024.186-.049.368-.076.542-.104.668-.233,1.283-.366,1.825.144-.021.343-.053.57-.095.023-.114.087-.251.176-.407.108-.192.248-.398.293-.451.496-.582,1.229-.647,1.945-.619.468.018.951.071,1.411-.044.254-.063.419-.198.639-.322.179-.101.382-.052.296.208-.023.071-.048.141-.075.21ZM28.901,24.595c.035-.028.079-.04.123-.035.045.005.084.027.112.062.028.035.04.079.035.123-.005.045-.027.084-.062.112-.403.318-1.13.543-1.786.692.383.19.843.106,1.293.02.07-.014.138-.027.207-.039.537-.095,1.272-.226,1.709-.74.187-.22.356-.489.502-.8-.46.196-.982.234-1.477.222-.449-.01-.933-.069-1.381.044-.524.132-.825.521-1.049.99.65-.14,1.398-.355,1.775-.653ZM25.39,15.683c-.019-.04-.022-.086-.007-.128s.045-.076.085-.095c.04-.019.086-.022.128-.007.042.015.076.045.096.086.393.816.654,1.671.822,2.527.169-.417.389-1.194.418-1.395.193-1.356-.971-2-1.998-2.569-.128-.071-.252-.14-.37-.208-.195.957-.33,1.937.208,2.814.357.582.899,1.242,1.432,1.507-.162-.857-.421-1.714-.813-2.53ZM28.855,20.697c.041-.082.141-.116.225-.075.083.041.116.142.075.225-.27.542-.79,1.082-1.544,1.607.562.007,1.15-.189,1.664-.571.55-.408.884-1.003.941-1.677.023-.272,0-.55-.071-.825-.004-.017-.024-.062-.04-.102-.002-.005-.004-.009-.006-.014-.303.301-.723.419-1.1.526-.103.029-.2.056-.292.087-1.095.366-1.455,1.353-1.481,2.429.579-.38,1.302-.952,1.629-1.609Z"/>
            <path class="st0" d="M23.249,32.626c.055-.024.345-.149.799-.363.246-1.944,1.624-3.555,3.693-4.314.559-.205,1.134-.385,1.693-.561.402-.126.857-.269,1.291-.418.238-.082.486-.159.704-.227.268-.083.534-.17.803-.249.133-.039.591-.242.537.071-.002.013-.006.026-.011.037-.881,2.159-2.474,4.217-4.589,5.28-.633.318-1.318.537-2.015.656-.353.06-.711.094-1.07.093-.174,0-.348-.009-.521-.027-.108-.012-.286-.075-.39-.026-.494.232-.791.358-.795.36-.021.009-.043.013-.065.013-.067,0-.128-.04-.154-.102-.018-.041-.018-.087-.001-.128.017-.041.049-.074.091-.092ZM27.067,31.078c-.867.493-1.672.905-2.258,1.191,1.254-.102,2.473-.245,3.577-.889,1.035-.603,1.918-1.457,2.638-2.408.171-.225.332-.457.485-.695.14-.218.257-.559.437-.741-1.419,1.436-3.414,2.707-4.879,3.541ZM32.106,26.877s-.004.001-.006.002c-.189.063-.382.123-.571.182-.216.067-.46.144-.695.225-.437.151-.896.294-1.312.425-.549.172-1.117.351-1.666.552-1.862.683-3.142,2.108-3.444,3.826,2.079-1.004,5.714-2.962,7.694-5.212ZM32.532,26.45h0s0,0,0,0Z"/>
          </g>
          <g>
            <g>
              <path class="st0" d="M2.713,29.894c1.263,0,2.213-.957,2.213-2.19,0-.72-.314-1.355-.835-1.745v-.031l.207-.268h.031c.589.467.965,1.202.965,2.044,0,1.47-1.118,2.588-2.58,2.588S.133,29.174.133,27.704c0-.842.375-1.577.965-2.044h.031l.207.268v.031c-.521.39-.835,1.026-.835,1.745,0,1.233.942,2.19,2.213,2.19Z"/>
              <path class="st0" d="M2.713,30.325c-1.49,0-2.613-1.127-2.613-2.621,0-.824.356-1.578.977-2.07.006-.005.013-.007.02-.007h.031c.01,0,.02.005.026.013l.207.268c.004.006.007.013.007.02v.031c0,.01-.005.02-.013.026-.522.391-.821,1.018-.821,1.719,0,1.229.937,2.157,2.18,2.157s2.18-.927,2.18-2.157c0-.701-.299-1.328-.821-1.719-.008-.006-.013-.016-.013-.026v-.031c0-.007.002-.014.007-.02l.207-.268c.006-.008.016-.013.026-.013h.031c.007,0,.015.003.02.007.621.492.977,1.246.977,2.07,0,1.494-1.123,2.621-2.613,2.621ZM1.109,25.693c-.599.479-.943,1.212-.943,2.011,0,1.457,1.095,2.555,2.547,2.555s2.547-1.098,2.547-2.555c0-.799-.344-1.532-.943-2.011h-.003l-.19.249c.531.404.835,1.046.835,1.762,0,1.267-.966,2.223-2.246,2.223s-2.246-.955-2.246-2.223c0-.716.304-1.358.835-1.762v-.003l-.193-.246Z"/>
            </g>
            <g>
              <path class="st0" d="M5.329,19.628l.03.017c.057.08.095.213.087.35-.009.153-.07.272-.16.374-.098.109-.256.192-.483.271l-.696.243-.156,2.658,1.162.574-.023.405L.247,22.098l.014-.244,4.423-1.573c.266-.092.393-.169.403-.344.005-.092-.022-.155-.05-.195l.009-.03.281-.083ZM3.745,21.015l-2.857,1.006,2.719,1.347.138-2.353Z"/>
              <path class="st0" d="M5.089,24.553c-.005,0-.01-.001-.015-.004L.233,22.127c-.012-.006-.019-.018-.018-.031l.014-.244c0-.013.009-.024.022-.029l4.423-1.573c.284-.098.373-.171.381-.315.004-.068-.011-.127-.044-.173-.006-.009-.008-.019-.005-.029l.009-.03c.003-.011.012-.019.022-.022l.281-.083c.009-.002.018-.001.026.003l.03.017s.008.006.011.01c.065.092.101.234.093.371-.009.147-.064.276-.168.394-.097.108-.251.194-.497.28l-.676.236-.153,2.615,1.143.564c.012.006.019.018.018.031l-.023.405c0,.011-.007.021-.016.027-.005.003-.011.004-.016.004ZM.282,22.078l4.777,2.39.019-.333-1.143-.564c-.012-.006-.019-.018-.018-.031l.156-2.658c0-.013.01-.025.022-.029l.696-.243c.236-.082.38-.162.47-.262.095-.108.144-.22.152-.354.007-.118-.023-.244-.077-.323l-.011-.006-.249.074c.026.042.051.108.046.201-.012.196-.152.279-.426.373l-4.402,1.566-.012.201ZM3.607,23.401c-.005,0-.01-.001-.015-.003l-2.719-1.347c-.012-.006-.019-.018-.018-.032,0-.013.01-.025.022-.029l2.857-1.006c.01-.004.022-.002.031.005.009.007.014.017.013.028l-.138,2.353c0,.011-.007.021-.016.027-.005.003-.011.004-.017.004ZM.973,22.026l2.605,1.29.132-2.254-2.736.963Z"/>
            </g>
            <g>
              <path class="st0" d="M1.692,16.408l1.801.71.736-1.866.32.126-.736,1.866,2.179.859-.143.363-4.628-1.824,1.072-2.72.328.129-.929,2.357Z"/>
              <path class="st0" d="M5.85,18.5s-.008,0-.012-.002l-4.628-1.824c-.008-.003-.015-.01-.018-.018s-.004-.017,0-.025l1.072-2.72c.007-.017.026-.025.043-.019l.328.129c.008.003.015.01.018.018s.004.017,0,.025l-.917,2.326,1.74.686.724-1.835c.007-.017.026-.025.043-.019l.32.126c.008.003.015.01.018.018s.004.017,0,.025l-.724,1.835,2.148.847c.008.003.015.01.018.018s.004.017,0,.025l-.143.363c-.005.013-.018.021-.031.021ZM1.265,16.624l4.567,1.8.119-.302-2.148-.847c-.008-.003-.015-.01-.018-.018s-.004-.017,0-.025l.724-1.835-.259-.102-.724,1.835c-.007.017-.026.025-.043.019l-1.801-.71c-.008-.003-.015-.01-.018-.018s-.004-.017,0-.025l.917-2.326-.266-.105-1.048,2.659Z"/>
            </g>
            <g>
              <path class="st0" d="M3.854,8.852l.353.033.018.014-.256,1.597-.019.024-.226-.021-.024-.019.136-1.604.019-.024ZM4.262,11.414l1.526,1.192,1.334-1.707.271.212-1.333,1.707,1.568,1.225,1.692-2.166.278.217-1.932,2.474-3.921-3.063,1.932-2.473.278.217-1.692,2.166Z"/>
              <path class="st0" d="M7.665,14.6c-.007,0-.014-.002-.02-.007l-3.921-3.063c-.014-.011-.017-.032-.006-.046l1.932-2.473c.011-.014.032-.017.046-.006l.278.217c.007.005.011.013.013.022.001.009-.001.018-.007.024l-1.671,2.14,1.474,1.151,1.313-1.681c.011-.014.032-.017.046-.006l.271.212c.007.005.011.013.012.022.001.009-.001.018-.007.024l-1.313,1.681,1.516,1.184,1.671-2.14c.011-.014.032-.017.046-.006l.278.217c.007.005.011.013.012.022.001.009-.001.018-.007.024l-1.932,2.474c-.005.007-.013.011-.022.012-.001,0-.003,0-.004,0ZM3.79,11.499l3.869,3.022,1.891-2.422-.226-.176-1.671,2.14c-.005.007-.013.011-.022.012-.009.001-.017-.001-.024-.007l-1.568-1.225c-.014-.011-.017-.032-.006-.046l1.313-1.681-.219-.171-1.313,1.681c-.011.014-.032.016-.046.006l-1.526-1.192c-.014-.011-.017-.032-.006-.046l1.671-2.14-.226-.176-1.891,2.421ZM3.95,10.552s-.002,0-.003,0l-.226-.021c-.006,0-.012-.003-.017-.007l-.024-.019c-.009-.007-.013-.018-.013-.029l.136-1.604c0-.006.003-.012.007-.018l.019-.024c.007-.009.017-.016.029-.012l.353.033c.006,0,.012.003.017.007l.018.014c.01.007.014.019.013.031l-.256,1.597c0,.006-.003.011-.007.015l-.019.024c-.006.008-.016.013-.026.013ZM3.736,10.466l.199.019.003-.003.251-1.566-.32-.03-.002.002-.133,1.576.002.002Z"/>
            </g>
            <g>
              <path class="st0" d="M16.22,5.477c.536,1.261-.031,2.707-1.369,3.275-1.338.569-2.811-.02-3.382-1.365-.571-1.345.027-2.814,1.379-3.388.775-.329,1.592-.285,2.245.078l.012.028-.16.309-.028.012c-.563-.326-1.27-.367-1.932-.086-1.134.482-1.647,1.722-1.15,2.892.494,1.162,1.745,1.661,2.872,1.183,1.078-.458,1.607-1.639,1.19-2.659l-1.937.823-.138-.324,2.275-.967.043.023c.034.06.055.11.079.166Z"/>
              <path class="st0" d="M13.809,9.001c-.324,0-.645-.061-.949-.183-.637-.256-1.142-.76-1.422-1.418-.582-1.37.018-2.846,1.397-3.431.768-.326,1.596-.297,2.274.079.006.004.012.009.014.016l.012.028c.004.009.003.019-.001.028l-.16.309c-.003.007-.009.012-.016.015l-.028.012c-.009.004-.021.003-.029-.002-.564-.327-1.257-.358-1.903-.084-1.131.481-1.618,1.705-1.132,2.848s1.702,1.644,2.829,1.165c1.042-.443,1.568-1.597,1.185-2.585l-1.906.81c-.017.007-.036,0-.043-.018l-.138-.324c-.007-.017,0-.036.018-.043l2.275-.967c.009-.004.02-.003.029.001l.043.023c.006.003.01.007.013.013.034.061.056.11.08.169h0c.265.623.271,1.306.018,1.923-.256.624-.755,1.12-1.405,1.396-.343.146-.701.219-1.055.219ZM13.917,3.809c-.351,0-.709.073-1.055.22-1.344.571-1.93,2.009-1.362,3.345.273.642.765,1.133,1.385,1.383.62.249,1.313.237,1.953-.035.634-.269,1.12-.752,1.37-1.36.246-.601.24-1.265-.018-1.872h0c-.024-.056-.043-.101-.072-.154l-.021-.011-2.23.947.112.263,1.907-.81c.008-.004.017-.004.025,0,.008.003.015.01.018.018.42,1.028-.121,2.24-1.208,2.702-1.162.493-2.415-.023-2.916-1.2-.5-1.178.002-2.44,1.167-2.935.659-.279,1.368-.251,1.947.079h.002s.147-.286.147-.286v-.003c-.354-.194-.747-.291-1.152-.291Z"/>
            </g>
            <g>
              <path class="st0" d="M22.762,7.342l-.014.031c-.074.064-.203.114-.34.12-.153.005-.277-.044-.387-.124-.118-.088-.215-.237-.315-.456l-.308-.67-2.661.097-.462,1.211-.405.015,1.953-5.049.245-.009,1.985,4.255c.117.256.205.376.381.369.092-.003.152-.036.189-.068l.031.007.109.272ZM21.232,5.896l-1.271-2.749-1.084,2.834,2.356-.086Z"/>
              <path class="st0" d="M17.87,7.598c-.011,0-.021-.005-.027-.014-.006-.009-.008-.021-.004-.031l1.953-5.049c.005-.012.016-.021.029-.021l.245-.009c.015,0,.026.007.031.019l1.985,4.255c.124.273.209.356.35.35.086-.003.139-.035.169-.06.008-.006.019-.009.029-.007l.031.007c.011.002.02.01.024.02l.109.272c.003.009.003.018,0,.026l-.014.031s-.005.008-.009.011c-.086.073-.224.122-.361.128-.148.006-.281-.037-.408-.13-.117-.086-.217-.231-.326-.469l-.299-.65-2.617.095-.454,1.191c-.005.012-.016.021-.03.021l-.405.015h-.001ZM19.845,2.549l-1.927,4.982.333-.012.454-1.191c.005-.012.016-.021.03-.021l2.661-.097h.001c.013,0,.024.007.03.019l.308.67c.104.227.198.363.305.443.114.084.235.12.367.117.118-.004.24-.046.314-.107l.005-.012-.097-.241c-.039.03-.103.061-.195.065-.005,0-.01,0-.015,0-.186,0-.281-.132-.397-.389l-1.975-4.235-.201.007ZM18.876,6.015c-.011,0-.021-.005-.027-.014-.006-.009-.008-.021-.004-.031l1.084-2.834c.005-.012.016-.021.03-.021.014.003.025.007.031.019l1.271,2.749c.005.01.004.022-.002.031-.006.009-.016.015-.027.016l-2.356.086h-.001ZM19.963,3.232l-1.038,2.715,2.256-.082-1.218-2.633Z"/>
            </g>
            <g>
              <path class="st0" d="M27.539,8.798l-.024.025c-.14.036-.28.023-.412-.018-.65-.206-.655-.922-.714-1.599-.037-.389-.129-1.037-.385-1.118l-1.029-.326-.654,2.065-.372-.118,1.502-4.743,1.657.525c1.007.319,1.421.988,1.153,1.835-.24.759-.853,1.095-1.712.919.172.191.227.754.253,1.076.047.561.088,1.04.46,1.158.088.028.175.031.237.011l.032.026.007.283ZM26.444,5.866c.701.222,1.246-.055,1.438-.661.194-.613-.106-1.134-.8-1.354l-1.365-.432-.638,2.014,1.365.432Z"/>
              <path class="st0" d="M27.345,8.877c-.082,0-.167-.014-.253-.041-.621-.197-.674-.846-.724-1.474-.004-.052-.008-.103-.013-.154-.079-.83-.24-1.051-.362-1.089l-.997-.316-.644,2.034c-.005.017-.024.027-.041.021l-.372-.118c-.008-.003-.015-.009-.019-.016-.004-.008-.005-.017-.002-.025l1.502-4.743c.006-.017.024-.027.041-.021l1.657.525c.508.161.869.408,1.073.734.202.322.237.717.102,1.143-.238.751-.844,1.097-1.669.956.13.221.181.658.212,1.026.046.546.085,1.017.437,1.129.079.025.16.03.217.011.011-.003.022-.001.031.006l.032.026c.007.006.012.015.012.025l.007.283c0,.009-.003.017-.009.024l-.024.025s-.01.007-.015.009c-.058.015-.117.022-.178.022ZM24.975,5.729s.007,0,.01.002l1.029.326c.204.065.341.45.407,1.146.005.052.009.103.013.155.051.634.099,1.233.678,1.416.134.042.263.049.385.02l.008-.008-.006-.254-.007-.006c-.068.017-.154.012-.24-.016-.394-.125-.435-.617-.483-1.186-.019-.236-.071-.864-.245-1.057-.01-.011-.011-.026-.004-.039.007-.012.02-.019.035-.016.843.172,1.437-.146,1.674-.897.131-.412.099-.778-.095-1.088-.195-.312-.544-.55-1.037-.706l-1.625-.514-1.482,4.68.309.098.644-2.034c.004-.014.018-.023.031-.023ZM26.903,5.975c-.148,0-.306-.026-.469-.078l-1.365-.432c-.008-.003-.015-.009-.019-.016-.004-.008-.005-.017-.002-.025l.638-2.014c.005-.017.025-.026.041-.021l1.365.432c.708.225,1.023.759.821,1.395-.098.31-.287.538-.545.66-.14.066-.296.099-.464.099ZM25.121,5.413l1.333.422c.331.105.638.098.886-.018.242-.114.418-.329.511-.621.189-.597-.109-1.1-.778-1.312l-1.333-.422-.618,1.951Z"/>
            </g>
            <g>
              <path class="st0" d="M33.677,10.179c-.917,1.188-2.312,1.368-3.555.41l-1.418-1.094,3.039-3.94,1.418,1.094c1.242.959,1.423,2.354.516,3.53ZM33.351,9.938c.786-1.018.65-2.196-.405-3.01l-1.109-.856-2.609,3.382,1.109.856c1.054.813,2.228.646,3.014-.372Z"/>
              <path class="st0" d="M31.765,11.238c-.561,0-1.131-.212-1.662-.622l-1.418-1.094c-.007-.005-.012-.013-.013-.022-.001-.009.001-.017.007-.024l3.039-3.94c.005-.007.013-.012.022-.013.008-.002.018.001.024.007l1.418,1.094c1.249.964,1.454,2.368.521,3.576l-.026-.02.026.02c-.457.593-1.037.946-1.677,1.022-.087.01-.174.015-.261.015ZM28.751,9.489l1.392,1.074c.6.463,1.25.669,1.876.594.622-.074,1.187-.419,1.633-.997.908-1.177.708-2.545-.51-3.484l-1.392-1.074-2.999,3.888ZM31.713,10.859c-.471,0-.949-.178-1.395-.522l-1.109-.856c-.007-.005-.012-.013-.013-.022-.001-.009.001-.017.007-.024l2.609-3.382c.005-.007.013-.012.022-.013.008-.002.018.001.024.007l1.109.856c.522.402.835.904.905,1.45.07.541-.101,1.096-.494,1.606l-.026-.02.026.02c-.393.51-.887.816-1.428.886-.079.01-.158.015-.237.015ZM29.275,9.449l1.083.836c.508.391,1.056.562,1.583.494.523-.068,1.002-.365,1.384-.86.382-.496.548-1.034.481-1.557-.068-.529-.372-1.015-.88-1.406l-1.083-.835-2.569,3.33Z"/>
            </g>
            <g>
              <path class="st0" d="M37.179,11.211l-1.62,1.062,1.188,1.812-.288.189-1.188-1.812-1.665,1.091,1.507,2.299-.295.193-1.72-2.625,4.162-2.728,1.72,2.625-.294.193-1.507-2.299Z"/>
              <path class="st0" d="M34.817,16.078c-.011,0-.021-.005-.028-.015l-1.72-2.625c-.01-.015-.006-.036.01-.046l4.162-2.728c.007-.005.016-.006.025-.005.009.002.016.007.021.014l1.72,2.625c.005.007.006.016.005.025s-.007.016-.014.021l-.294.193c-.015.01-.035.006-.046-.01l-1.489-2.271-1.565,1.026,1.17,1.785c.005.007.006.016.005.025s-.007.016-.014.021l-.288.189c-.015.01-.035.006-.046-.01l-1.17-1.785-1.61,1.055,1.489,2.271c.005.007.006.016.005.025s-.007.016-.014.021l-.295.193c-.005.004-.012.005-.018.005ZM33.143,13.429l1.684,2.57.239-.157-1.489-2.271c-.01-.015-.006-.036.01-.046l1.665-1.091c.007-.005.016-.006.025-.005.009.002.016.007.021.014l1.17,1.785.233-.153-1.17-1.785c-.005-.007-.006-.016-.005-.025s.007-.016.014-.021l1.62-1.062c.015-.01.036-.006.046.01l1.489,2.271.239-.157-1.684-2.57-4.107,2.691Z"/>
            </g>
            <g>
              <path class="st0" d="M41.257,20.178l-4.832,1.181-.058-.238,3.279-4.346-4.096,1.001-.091-.372,4.832-1.181.058.238-3.279,4.346,4.096-1.001.091.372Z"/>
              <path class="st0" d="M36.425,21.391c-.015,0-.028-.01-.032-.025l-.058-.238c-.002-.01,0-.02.006-.028l3.223-4.272-4.007.979c-.009.003-.017.001-.025-.004-.007-.004-.013-.012-.015-.02l-.091-.372c-.004-.018.006-.036.024-.04l4.832-1.181c.018-.005.036.006.04.024l.058.238c.002.01,0,.02-.006.028l-3.223,4.272,4.007-.979c.008-.003.018-.001.025.004.007.004.013.012.015.02l.091.372c.004.018-.006.036-.024.04l-4.832,1.181s-.005.001-.008.001ZM36.402,21.128l.047.19,4.768-1.165-.075-.307-4.064.993c-.013.004-.028-.002-.035-.014-.008-.012-.007-.027.001-.038l3.27-4.334-.047-.19-4.768,1.165.075.307,4.064-.993c.013-.004.028.002.035.014.008.012.007.027-.001.038l-3.27,4.334Z"/>
            </g>
            <g>
              <path class="st0" d="M41.361,23.779l-4.976.021-.002-.39,4.976-.021.002.39Z"/>
              <path class="st0" d="M36.384,23.833c-.018,0-.033-.015-.033-.033l-.002-.39c0-.009.003-.017.01-.023s.015-.01.023-.01l4.976-.021h0c.018,0,.033.015.033.033l.002.39c0,.009-.003.017-.01.023s-.015.01-.023.01l-4.976.021h0ZM36.416,23.442v.325s4.912-.02,4.912-.02v-.325s-4.912.02-4.912.02Z"/>
            </g>
            <g>
              <path class="st0" d="M36.429,30.486l-.031-.015c-.061-.077-.107-.207-.107-.344,0-.153.053-.276.138-.383.092-.115.245-.206.467-.298l.681-.283v-2.664l-1.194-.505v-.406l4.976,2.136v.245l-4.326,1.83c-.26.107-.383.192-.383.368,0,.092.03.153.061.192l-.007.031-.276.099ZM37.93,29.008l2.795-1.171-2.795-1.187v2.358Z"/>
              <path class="st0" d="M36.429,30.519c-.005,0-.01-.001-.015-.004l-.031-.015s-.008-.005-.011-.009c-.07-.088-.114-.228-.114-.365,0-.148.047-.28.145-.403.091-.113.239-.209.48-.309l.661-.275v-2.621l-1.174-.497c-.012-.005-.02-.017-.02-.03v-.406c0-.011.006-.021.015-.028.009-.006.021-.007.031-.003l4.976,2.136c.012.005.02.017.02.03v.245c0,.013-.008.025-.02.03l-4.326,1.83c-.278.114-.363.193-.363.337,0,.069.018.126.054.171.006.008.009.019.006.028l-.007.031c-.003.011-.01.02-.021.023l-.276.099s-.007.002-.011.002ZM36.42,30.444l.011.006.245-.088c-.038-.054-.057-.122-.057-.198,0-.196.136-.288.403-.398l4.305-1.821v-.201l-4.91-2.108v.334l1.174.497c.012.005.02.017.02.03v2.664c0,.013-.008.025-.02.03l-.681.283c-.23.096-.37.185-.454.289-.088.112-.13.23-.13.362,0,.118.037.242.095.318ZM37.93,29.041c-.006,0-.013-.002-.018-.005-.009-.006-.015-.016-.015-.028v-2.358c0-.011.006-.021.015-.028.01-.006.021-.007.031-.003l2.795,1.187c.012.005.02.017.02.03,0,.013-.008.025-.02.03l-2.795,1.171s-.008.003-.013.003ZM37.963,26.7v2.259l2.677-1.122-2.677-1.137Z"/>
            </g>
          </g>
          <g>
            <path class="st0" d="M2.204,37.79c0,.386-.13.588-.594.588h-.42v.657c0,.024-.016.04-.04.04h-.17c-.024,0-.04-.016-.04-.04v-1.792c0-.024.016-.04.04-.04h.63c.464,0,.594.201.594.587ZM1.962,37.79c0-.318-.102-.36-.352-.36h-.42v.721h.42c.25,0,.352-.043.352-.361Z"/>
            <path class="st0" d="M5.769,39.075h-.17c-.021,0-.039-.008-.045-.032l-.103-.36h-.76l-.103.36c-.007.024-.024.032-.045.032h-.169c-.029,0-.04-.019-.032-.046l.527-1.794c.007-.022.027-.032.048-.032h.309c.021,0,.04.011.047.032l.528,1.794c.007.027-.003.046-.032.046ZM5.388,38.463l-.288-1.003h-.059l-.288,1.003h.634Z"/>
            <path class="st0" d="M9.225,37.243v1.792c0,.024-.016.04-.04.04h-.219c-.021,0-.04-.008-.048-.027l-.731-1.494v1.48c0,.024-.016.04-.04.04h-.151c-.024,0-.04-.016-.04-.04v-1.792c0-.024.016-.04.04-.04h.222c.021,0,.039.008.048.027l.729,1.49v-1.476c0-.024.016-.04.04-.04h.151c.024,0,.04.016.04.04Z"/>
            <path class="st0" d="M16.353,38.988l-.088.087c-.019.019-.04.02-.057.001l-.181-.215c-.144.132-.314.238-.547.238-.334,0-.57-.186-.57-.506,0-.257.201-.426.404-.572-.12-.138-.234-.279-.234-.437,0-.235.159-.402.436-.402.27,0,.441.167.441.396,0,.203-.159.35-.336.485l.416.492.083-.092c.017-.019.035-.019.053,0l.092.096c.017.017.015.035-.001.053-.031.034-.062.067-.092.102l.183.217c.016.019.016.039-.003.057ZM15.892,38.702l-.435-.515c-.162.122-.301.246-.301.406,0,.167.136.28.328.28.164,0,.294-.072.408-.171ZM15.484,37.901c.138-.102.247-.199.247-.321,0-.124-.091-.189-.215-.189-.122,0-.21.064-.21.194,0,.106.086.21.178.316Z"/>
            <path class="st0" d="M23.299,37.243v1.792c0,.024-.016.04-.04.04h-.219c-.021,0-.04-.008-.048-.027l-.731-1.494v1.48c0,.024-.016.04-.04.04h-.151c-.024,0-.04-.016-.04-.04v-1.792c0-.024.016-.04.04-.04h.222c.021,0,.039.008.048.027l.729,1.49v-1.476c0-.024.016-.04.04-.04h.151c.024,0,.04.016.04.04Z"/>
            <path class="st0" d="M26.881,39.075h-.17c-.021,0-.039-.008-.046-.032l-.103-.36h-.759l-.103.36c-.007.024-.024.032-.046.032h-.169c-.029,0-.04-.019-.032-.046l.527-1.794c.007-.022.027-.032.048-.032h.309c.021,0,.04.011.047.032l.528,1.794c.007.027-.003.046-.032.046ZM26.5,38.463l-.287-1.003h-.059l-.287,1.003h.634Z"/>
            <path class="st0" d="M30.39,37.243v.147c0,.024-.016.04-.04.04h-.523v1.605c0,.024-.016.04-.04.04h-.17c-.024,0-.04-.016-.04-.04v-1.605h-.524c-.024,0-.04-.016-.04-.04v-.147c0-.024.016-.04.04-.04h1.297c.024,0,.04.016.04.04Z"/>
            <path class="st0" d="M33.855,37.243v1.145c0,.523-.222.727-.635.727s-.635-.204-.635-.727v-1.145c0-.024.016-.04.04-.04h.17c.024,0,.04.016.04.04v1.139c0,.357.124.496.385.496.262,0,.385-.139.385-.496v-1.139c0-.024.016-.04.04-.04h.17c.024,0,.04.016.04.04Z"/>
            <path class="st0" d="M37.362,39.028c.013.028.001.047-.029.047h-.169c-.023,0-.037-.009-.047-.029l-.319-.667h-.42v.657c0,.024-.016.04-.04.04h-.17c-.024,0-.04-.016-.04-.04v-1.792c0-.024.016-.04.04-.04h.63c.464,0,.594.201.594.587,0,.31-.083.5-.354.564l.325.674ZM36.378,38.151h.42c.25,0,.352-.043.352-.361s-.102-.36-.352-.36h-.42v.721Z"/>
            <path class="st0" d="M40.956,39.075h-.17c-.021,0-.039-.008-.046-.032l-.103-.36h-.759l-.103.36c-.007.024-.024.032-.046.032h-.169c-.029,0-.04-.019-.032-.046l.527-1.794c.007-.022.027-.032.048-.032h.309c.021,0,.04.011.047.032l.528,1.794c.007.027-.003.046-.032.046ZM40.575,38.463l-.287-1.003h-.059l-.287,1.003h.634Z"/>
          </g>
        </g>
      </g>
    </g>
  </g>
</svg>