<?xml version="1.0" encoding="UTF-8"?>
<svg id="Layer_1" xmlns="http://www.w3.org/2000/svg" version="1.1" viewBox="0 0 335.811 33.511">
  <!-- Generator: Adobe Illustrator 29.0.0, SVG Export Plug-In . SVG Version: 2.1.0 Build 186)  -->
  <defs>
    <style>
      .st0 {
        fill: blue;
      }

      .st1 {
        fill: #fafafa;
      }
    </style>
  </defs>
  <rect class="st1" x="-27.002" y="-783.684" width="390" height="844"/>
  <g>
    <g>
      <path class="st0" d="M86.842,30.877c0-1.486,1.097-2.598,2.663-2.598,1.518,0,2.653,1.064,2.653,2.598,0,1.476-1.087,2.598-2.653,2.598-1.518,0-2.663-1.064-2.663-2.598ZM91.566,30.876c0-1.186-.838-2.067-2.06-2.067-1.18,0-2.07.841-2.07,2.067,0,1.176.849,2.077,2.07,2.077,1.18,0,2.06-.851,2.06-2.077ZM88.468,32.056v-2.367h1.322c.509,0,.862.297.862.709,0,.307-.196.546-.499.642.157.038.274.125.323.288l.245.728h-.617l-.176-.594c-.029-.105-.117-.163-.235-.163h-.627v.757h-.597ZM89.065,30.819h.744c.186,0,.284-.153.284-.307s-.098-.307-.284-.307h-.744v.613Z"/>
      <g>
        <path class="st0" d="M4.348,33.197v-10.999H0v-2.007h10.906v2.007h-4.329v10.999h-2.23Z"/>
        <path class="st0" d="M10.683,29.871v-6.521h2.192v6.428c0,1.115.78,1.765,1.951,1.765,1.505,0,2.397-.985,2.415-2.248v-5.945h2.192v9.847h-1.765l-.167-1.431c-.576,1.059-1.746,1.709-3.121,1.709-2.341,0-3.697-1.468-3.697-3.604Z"/>
        <path class="st0" d="M20.81,28.204c0-3.233,2.174-5.146,5.035-5.146,2.694,0,4.515,1.654,4.701,4.106h-2.155c-.204-1.356-1.17-2.229-2.564-2.229-1.672,0-2.787,1.263-2.787,3.27,0,2.155,1.226,3.4,2.861,3.4,1.338,0,2.267-.855,2.49-2.267h2.155c-.26,2.545-2.025,4.143-4.645,4.143-3.214,0-5.091-2.304-5.091-5.276Z"/>
        <path class="st0" d="M31.922,29.871v-6.521h2.192v6.428c0,1.115.78,1.765,1.951,1.765,1.505,0,2.397-.985,2.415-2.248v-5.945h2.192v9.847h-1.765l-.167-1.431c-.576,1.059-1.746,1.709-3.121,1.709-2.341,0-3.697-1.468-3.697-3.604Z"/>
        <path class="st0" d="M42.526,33.197v-9.847h1.765l.26,1.932c.632-1.338,1.784-2.044,3.419-2.044h.372v2.137h-.372c-2.044,0-3.251,1.099-3.251,2.954v4.868h-2.192Z"/>
        <path class="st0" d="M49.29,20.596c0-.799.613-1.412,1.412-1.412.818,0,1.412.613,1.412,1.412s-.595,1.431-1.412,1.431c-.799,0-1.412-.632-1.412-1.431ZM49.606,33.194v-9.848h2.193v9.848h-2.193Z"/>
        <path class="st0" d="M53.756,33.197v-9.847h1.765l.186,1.449c.613-1.022,1.858-1.746,3.326-1.746,2.099,0,3.474,1.412,3.474,3.623v6.521h-2.192v-6.41c0-1.096-.725-1.821-1.951-1.821-1.431,0-2.397.985-2.415,2.267v5.964h-2.192Z"/>
        <path class="st0" d="M63.884,28.199c0-3.233,2.174-5.146,5.035-5.146,2.694,0,4.515,1.654,4.701,4.106h-2.155c-.204-1.356-1.17-2.229-2.564-2.229-1.672,0-2.787,1.263-2.787,3.27,0,2.155,1.226,3.4,2.861,3.4,1.338,0,2.267-.855,2.49-2.267h2.155c-.26,2.545-2.025,4.143-4.645,4.143-3.214,0-5.091-2.304-5.091-5.276Z"/>
        <path class="st0" d="M74.651,30.466c.019-2.304,2.304-2.787,4.218-3.01,1.486-.167,2.583-.223,2.601-1.003-.019-.966-.762-1.598-2.025-1.598-1.301,0-2.23.706-2.36,1.728h-2.211c.204-2.081,2.062-3.53,4.608-3.53,2.657,0,4.125,1.449,4.125,3.549v4.459c0,.279.149.427.483.427h.539v1.709h-1.04c-1.281,0-1.71-.553-1.876-1.486-.576,1.059-1.654,1.764-3.326,1.764-2.267,0-3.753-1.17-3.734-3.009ZM81.47,29.5v-1.375c-.372.576-1.319.706-2.36.836-1.226.149-2.248.316-2.248,1.356,0,.855.687,1.437,1.969,1.437,1.505,0,2.638-.935,2.638-2.254Z"/>
      </g>
    </g>
    <g>
      <path class="st0" d="M118.914,33.207l3.844-13.502h5.041l.901,5.526c.115.709.114,1.376.112,1.559h.122c.092-.587.223-.992.455-1.559l2.257-5.526h5.001l.549,13.502h-4.717l.136-6.053c.017-.466.013-.769.083-1.336h-.081c-.103.344-.289.87-.402,1.134l-2.772,6.255h-2.875l-1.076-5.911c-.082-.486-.131-.911-.082-1.478h-.142c-.032.263-.097.789-.149,1.053l-1.446,6.336h-4.757Z"/>
      <path class="st0" d="M150.866,31.345c-1.298,1.174-3.303,2.166-5.873,2.166s-4.332-.992-5.342-2.166c-.921-1.073-1.547-2.733-1.281-4.899.263-2.146,1.297-3.806,2.482-4.879,1.298-1.174,3.302-2.166,5.874-2.166s4.332.992,5.342,2.166c.921,1.073,1.547,2.733,1.284,4.879-.266,2.166-1.299,3.826-2.484,4.899ZM144.344,24.442c-.548.506-.928,1.296-1.018,2.024-.094.769.097,1.518.523,2.004.355.405.928.688,1.677.688s1.391-.283,1.846-.688c.5-.445.911-1.154,1.015-2.004s-.092-1.559-.521-2.024c-.32-.364-.867-.688-1.677-.688-.871,0-1.48.344-1.846.688Z"/>
      <path class="st0" d="M166.839,31.345c-1.298,1.174-3.303,2.166-5.874,2.166s-4.332-.992-5.342-2.166c-.921-1.073-1.547-2.733-1.282-4.899.264-2.146,1.298-3.806,2.482-4.879,1.298-1.174,3.302-2.166,5.873-2.166s4.332.992,5.342,2.166c.921,1.073,1.547,2.733,1.284,4.879-.266,2.166-1.3,3.826-2.484,4.899ZM160.318,24.442c-.548.506-.929,1.296-1.018,2.024-.094.769.097,1.518.523,2.004.355.405.928.688,1.677.688s1.391-.283,1.846-.688c.5-.445.911-1.154,1.015-2.004.104-.85-.092-1.559-.521-2.024-.32-.364-.867-.688-1.677-.688-.871,0-1.48.344-1.846.688Z"/>
      <path class="st0" d="M169.789,33.207l1.658-13.502h5.203c1.134,0,3.996.101,5.721,2.045.764.87,1.529,2.389,1.223,4.879-.172,1.397-.656,3.198-2.315,4.676-.912.83-2.622,1.903-5.072,1.903h-6.417ZM175.155,29.078h.364c.567,0,1.4-.02,2.162-.628.515-.405.924-1.093,1.028-1.943.107-.87-.148-1.599-.541-2.024-.52-.547-1.277-.648-1.844-.648h-.526l-.644,5.243Z"/>
    </g>
    <g>
      <g>
        <path class="st0" d="M308.709,25.606h2.805c2.265,0,3.387,1.55,3.387,3.825s-1.183,3.764-3.458,3.764h-2.734v-7.589ZM311.402,32.287c1.714,0,2.418-1.112,2.418-2.856s-.632-2.917-2.356-2.917h-1.703v5.773h1.642Z"/>
        <path class="st0" d="M315.441,30.726v-5.121h1.04v5.029c0,1.244.694,1.785,1.908,1.785,1.173,0,1.867-.541,1.867-1.785v-5.029h1.04v5.121c0,1.826-1.265,2.581-2.928,2.581-1.703,0-2.928-.755-2.928-2.581Z"/>
        <path class="st0" d="M322.132,25.606h3.55c1.357,0,2.275.836,2.275,2.091,0,.928-.377,1.581-1.387,1.897v.031c.857.255,1.102.765,1.173,1.856.092,1.193.194,1.561.347,1.663v.051h-1.112c-.173-.143-.194-.49-.275-1.703-.071-1.071-.52-1.459-1.51-1.459h-2.02v3.162h-1.04v-7.589ZM323.173,29.196h2.173c1.03,0,1.54-.52,1.54-1.346,0-.887-.418-1.346-1.489-1.346h-2.224v2.693Z"/>
        <path class="st0" d="M328.375,29.4c0-2.275,1.418-3.958,3.713-3.958s3.723,1.683,3.723,3.958-1.438,3.958-3.723,3.958-3.713-1.693-3.713-3.958ZM334.73,29.4c0-1.744-.918-3.06-2.642-3.06s-2.652,1.316-2.652,3.06c0,1.734.928,3.04,2.652,3.04s2.642-1.306,2.642-3.04Z"/>
      </g>
      <g>
        <path class="st0" d="M303.472,21.105l.772-.772,3.931,2.387c.656.397,1.673,1.168,1.673,1.168l.014-.014s-.757-1.046-1.147-1.709l-2.286-4.018.779-.779,3.989,2.315c.664.389,1.709,1.147,1.709,1.147l.014-.014s-.757-1.031-1.154-1.688l-2.359-3.96.757-.757,3.873,6.859-.714.714-4.313-2.553c-.599-.353-1.594-1.089-1.594-1.089l-.014.014s.728,1.003,1.075,1.594l2.496,4.385-.736.736-6.766-3.967Z"/>
        <path class="st0" d="M312.69,17.253c-1.608-1.608-1.796-3.801-.173-5.424,1.616-1.616,3.823-1.443,5.431.166s1.782,3.816.166,5.431c-1.623,1.623-3.823,1.428-5.424-.173ZM317.184,12.759c-1.233-1.233-2.813-1.515-4.032-.296-1.219,1.219-.945,2.806.289,4.039,1.226,1.226,2.806,1.493,4.025.274,1.219-1.219.945-2.791-.281-4.018Z"/>
        <path class="st0" d="M315.734,8.843l2.51-2.51c.959-.959,2.2-1.017,3.087-.13.656.656.851,1.385.361,2.323l.022.022c.786-.426,1.32-.238,2.142.483.909.779,1.241.967,1.421.93l.036.036-.786.786c-.224.022-.483-.209-1.399-1.01-.808-.707-1.399-.664-2.099.036l-1.428,1.428,2.236,2.236-.736.736-5.366-5.366ZM319.009,10.646l1.536-1.536c.728-.728.721-1.457.137-2.041-.628-.627-1.248-.656-2.005.101l-1.572,1.572,1.904,1.904Z"/>
        <path class="st0" d="M320.35,4.227l.736-.736,1.659,1.659c.361.361.714.743.959,1.017l-.065-5.244.923-.923v4.313l5.547.887-.858.858-4.724-.757-.014,1.616,1.94,1.94-.736.736-5.366-5.366Z"/>
      </g>
      <g>
        <path class="st0" d="M325.867,12.792l2.308,2.308c.555.555.83,1.132.829,1.738-.007.454-.18.902-.57,1.291-.584.584-1.291.628-2.034.216l-.022.022c.505.808.541,1.709-.166,2.416-.426.426-.938.635-1.457.635-.62.014-1.262-.267-1.839-.844l-2.416-2.416,5.366-5.366ZM323.523,19.882c.368.368.728.541,1.075.541.296.007.591-.115.844-.368.642-.642.505-1.414-.13-2.048l-1.594-1.594-1.832,1.832,1.637,1.637ZM325.788,17.285c.628.628,1.313.692,1.854.151.505-.505.462-1.14-.115-1.717l-1.558-1.558-1.652,1.652,1.471,1.471Z"/>
        <path class="st0" d="M328.666,21.822l1.183-5.049.822.822-.649,2.582c-.159.606-.476,1.529-.476,1.529l.014.014s.93-.31,1.536-.469l2.589-.642.786.786-5.107,1.197-2.214,2.214-.736-.736,2.25-2.25Z"/>
      </g>
    </g>
    <g>
      <g>
        <g>
          <rect class="st0" x="225.676" y="15.867" width="2.752" height="13.437"/>
          <polygon class="st0" points="216.021 15.867 221.203 29.093 222.551 25.689 218.773 15.867 216.021 15.867"/>
          <path class="st0" d="M216.06,27.168h-.08c0,1.006-.696,1.85-1.632,2.076v.06h3.345v-.06c-.937-.226-1.632-1.07-1.632-2.076Z"/>
        </g>
        <path class="st0" d="M233.339,33.175h-23.321V11.984h23.321v21.191ZM231.54,31.556V13.603h-19.723v17.953h19.723Z"/>
      </g>
      <rect class="st0" x="247.617" y="16.062" width="1.174" height="7.75"/>
      <polygon class="st0" points="243.807 23.813 242.632 23.813 242.649 18.123 240.452 21.906 239.805 21.906 237.609 18.123 237.626 23.813 236.45 23.813 236.45 16.062 237.557 16.062 240.129 20.418 242.7 16.062 243.807 16.062 243.807 23.813"/>
      <path class="st0" d="M253.748,23.811h-1.174v-7.748h2.839c1.43,0,2.594,1.046,2.594,2.477s-1.164,2.527-2.594,2.527h-1.664v2.744ZM253.748,20.023h1.597c.84,0,1.524-.617,1.524-1.457s-.684-1.407-1.524-1.407h-1.597v2.864Z"/>
      <path class="st0" d="M273.543,23.973c-2.226,0-4.036-1.811-4.036-4.036s1.811-4.036,4.036-4.036,4.036,1.811,4.036,4.036-1.811,4.036-4.036,4.036ZM273.543,17.061c-1.585,0-2.811,1.29-2.811,2.875s1.225,2.875,2.811,2.875,2.811-1.29,2.811-2.875-1.225-2.875-2.811-2.875Z"/>
      <polygon class="st0" points="267.509 23.811 266.102 23.811 263.187 19.936 263.415 19.933 261.976 21.372 262.271 20.87 262.271 23.811 261.097 23.811 261.097 16.062 262.271 16.062 262.271 19.931 262.271 19.661 265.846 16.062 267.288 16.062 264.065 19.284 267.509 23.811"/>
      <g>
        <path class="st0" d="M237.835,27.908c-.107-.147-.299-.21-.463-.21-.42,0-.705.325-.705.745,0,.443.271.751.691.751.219,0,.391-.095.495-.236l.291.204c-.178.224-.443.357-.789.357-.636,0-1.088-.44-1.088-1.076,0-.653.478-1.065,1.105-1.065.265,0,.579.098.74.311l-.276.219Z"/>
        <path class="st0" d="M240.593,27.379c.636,0,1.099.412,1.099,1.065,0,.636-.463,1.076-1.099,1.076-.627,0-1.091-.44-1.091-1.076,0-.653.463-1.065,1.091-1.065ZM240.595,29.195c.417,0,.702-.317.702-.751,0-.42-.279-.745-.702-.745-.42,0-.699.325-.699.745,0,.435.285.751.699.751Z"/>
        <path class="st0" d="M243.31,27.431h.481l.947,1.525h.006v-1.525h.363v2.038h-.46l-.967-1.574h-.006v1.574h-.363v-2.038Z"/>
        <path class="st0" d="M247.861,27.856c-.078-.101-.23-.176-.374-.176-.167,0-.36.081-.36.279,0,.187.158.242.389.314.262.081.596.196.596.596,0,.437-.343.65-.743.65-.265,0-.538-.101-.699-.291l.259-.242c.101.138.285.224.446.224.17,0,.368-.083.368-.302,0-.213-.213-.273-.469-.354-.248-.078-.515-.199-.515-.579,0-.414.377-.599.745-.599.204,0,.437.072.593.219l-.236.259Z"/>
        <path class="st0" d="M250.107,27.747h-.625v-.317h1.612v.317h-.625v1.721h-.363v-1.721Z"/>
        <path class="st0" d="M252.597,27.431h.708c.383,0,.751.153.751.584,0,.294-.181.486-.466.55l.544.904h-.437l-.472-.863h-.265v.863h-.363v-2.038ZM253.256,28.308c.204,0,.437-.049.437-.296,0-.222-.219-.276-.406-.276h-.328v.573h.296Z"/>
        <path class="st0" d="M257.298,28.72c0,.492-.354.8-.82.8s-.82-.308-.82-.8v-1.289h.363v1.275c0,.236.109.489.458.489s.458-.253.458-.489v-1.275h.363v1.289Z"/>
        <path class="st0" d="M260.468,27.908c-.107-.147-.299-.21-.463-.21-.42,0-.705.325-.705.745,0,.443.271.751.691.751.219,0,.391-.095.495-.236l.291.204c-.178.224-.443.357-.789.357-.636,0-1.088-.44-1.088-1.076,0-.653.478-1.065,1.105-1.065.265,0,.579.098.74.311l-.276.219Z"/>
        <path class="st0" d="M262.662,27.747h-.625v-.317h1.612v.317h-.625v1.721h-.363v-1.721Z"/>
        <path class="st0" d="M266.058,27.379c.636,0,1.099.412,1.099,1.065,0,.636-.463,1.076-1.099,1.076-.627,0-1.091-.44-1.091-1.076,0-.653.463-1.065,1.091-1.065ZM266.061,29.195c.417,0,.702-.317.702-.751,0-.42-.279-.745-.702-.745-.42,0-.699.325-.699.745,0,.435.285.751.699.751Z"/>
        <path class="st0" d="M268.776,27.431h.708c.383,0,.751.153.751.584,0,.294-.181.486-.466.55l.544.904h-.437l-.472-.863h-.265v.863h-.363v-2.038ZM269.435,28.308c.204,0,.437-.049.437-.296,0-.222-.219-.276-.406-.276h-.328v.573h.296Z"/>
        <path class="st0" d="M271.854,27.431h1.35v.317h-.987v.518h.935v.305h-.935v.576h1.039v.322h-1.402v-2.038Z"/>
        <path class="st0" d="M275.915,27.856c-.078-.101-.23-.176-.374-.176-.167,0-.36.081-.36.279,0,.187.158.242.389.314.262.081.596.196.596.596,0,.437-.343.65-.743.65-.265,0-.538-.101-.699-.291l.259-.242c.101.138.285.224.446.224.17,0,.368-.083.368-.302,0-.213-.213-.273-.469-.354-.248-.078-.515-.199-.515-.579,0-.414.377-.599.745-.599.204,0,.437.072.593.219l-.236.259Z"/>
      </g>
    </g>
  </g>
</svg>