<?xml version="1.0" encoding="UTF-8"?>
<svg id="Layer_1" xmlns="http://www.w3.org/2000/svg" version="1.1" viewBox="0 0 336 35.8">
  <!-- Generator: Adobe Illustrator 30.2.1, SVG Export Plug-In . SVG Version: 2.1.1 Build 1)  -->
  <defs>
    <style>
      .st0 {
        fill: #231f20;
      }

      .st1 {
        fill: #fafafa;
      }
    </style>
  </defs>
  <rect class="st1" x="-26.9" y="-629" width="390" height="844"/>
  <g>
    <g>
      <path class="st0" d="M238.8,21c0,0-.1,0-.2,0-.8,0-1.6,0-2.4,0s-.2,0-.1,0c.9,0,1.8,0,2.7,0Z"/>
      <path class="st0" d="M232.2,12.3c0,0,.4.3.5.3.2.1.4.4.6.5s.2,0,.3,0c.2,0,.3.3.5.4s.6.2.5.3c-.2,0-.3.1-.4.1s-.5-.2-.6-.1,0,0,0,.1c-.1,0-.8,0-.9-.1s-.2-.3-.2-.3c0-.1,0-.3,0-.4s-.4-.4-.4-.7,0-.2,0-.2.3.1.4.2Z"/>
      <rect class="st0" x="216.3" y="18.8" width=".1" height="0"/>
      <path class="st0" d="M238.8,21c4.4,0,8.8.3,13.1.5,2.5.1,5,.3,7.5.6,0,0,.1,0,0,0h-54.6v6.1s0,0,0,0h-5.1c-.2-.3,0-.7,0-1,0-1.6,0-3.2,0-4.8h-10.4s0,0,0,0v-3.6c2.7-3.9,5.4-7.9,8-11.8.2-.1.4-.7.6-.8s.3,0,.4,0c2.1-.2,4.4.1,6.5,0,0,0,.3,0,.3,0v11.4s0,0,0,0h1.1s0,0,0,0c0-.1-.1-.4-.1-.5-.7-3,0-6,2.2-8.3.2-.3.6-.5.8-.7s0-.1,0-.1c0,0,.4-.1.5-.3s0-.1.2-.2c.8-.5,1.7-.9,2.6-1.2,5-1.5,10.3,1,12.1,5.6,0,0,0,.2-.1.2-.8.6-2,.8-2.9,1.2s-1.5,1-2.2.5c-.7-2.2-3.3-3.6-5.6-2.4s-2.3,2.9-2.2,4.7,0,.2,0,.2c0,.1-.3.3-.4.4-.2.2-.4.4-.6.6-.3.2-.7.3-1.1.4s-1,.7-1.5,1c-1,.6-2.2,1-3.2,1.5s0,0-.1,0c.1,0,.2,0,.3,0,.9-.2,2.1-.7,3-1.1s1.4-.8,2.2-1.1.3,0,.4,0c.4-.1,1-.8,1.4-1.1,1.1-.8,2.5-.8,3.7-1.5.6-.3,1.9-1.3,2.5-1.3s.9.3,1.3.4c1,.3,2-.6,2.8-.9s1.9-.6,2.9-1.2,1.1-1,1.7-1.2.7-.1,1-.2c.9-.3,1.8-1.3,2.8-1.7s.5-.3.6-.3.2.1.3.1c.9.6,1.6,1.3,2.5,1.8s1.3.7,1.9,1.2l.9.5c0,0-.5.3-.5.3-.3,0-.7-.1-.9-.2s-.3-.3-.5-.4c-.4-.3-.6-.4-.9-.7-.6-.5-1.3-.9-2-1.4s-.4-.5-.7-.6c-.1,0-.6.6-.7.7-.4.4-.6.6-1.1.9s-.1.2-.2.2c-.2,0-.5.2-.7.3-.4.2-1.1.5-1.4.7s-.2.3-.4.4c-.2.2-1.4.8-1.6.8s-.6,0-.9.1-.7.5-1,.6-.2,0-.2,0-.1.2-.2.2c-.1,0-.2,0-.3,0-.2,0-.5.3-.7.4s-.2,0-.1.1c.2,0,.4,0,.5-.1s.1,0,.2,0c.4-.1.7-.3,1.1-.4.1,0,.2.2.3.2.1,0,.8-.4,1-.5s.4,0,.6-.1c.6-.1,1.1-.4,1.7-.6s.1,0,.1-.2l-.9.2h-.2c.2-.2.5-.3.8-.5s1.1-.9,1.3-.9.2,0,.4,0,.3-.5.5-.4,0,0,.1,0c.4,0,.7-.6.9-.6l.7,1c-.2,0-.7-.3-.8-.2-.2.1-.2.9,0,1.1s.4.5.6.6.2.1.3.2c.1.1.3.3.4.5s.3.2.4.3c-.2,0-.5,0-.7,0-.4-.1-.8-.5-1.2-.6s-.4,0-.6.1h.2c0,0,0,.1,0,.2,0,0-.6.2-.7.2s0,0,0,0c.1,0,.5,0,.6,0s0,0,0,0c-.6.2-1.1.4-1.6.6s-.9.3-1.4.4-.5.1-.6.2-.1,0,0,.1c.4,0,.8,0,1.2-.1s.1,0,.2,0c.2,0,.3.2.5.3.5.3,1.3.6,1.9.8s.7.2,1.2.3,1,.4,1.1.4,0,0,0-.1c-.1,0-.4-.1-.5-.2-.4-.2-.8-.4-1.2-.6s-.4-.3-.6-.4c-.4-.1-1-.2-1.4-.3s-.4-.2,0-.3c.8-.2,1.7-.5,2.5-.6s.9,0,1.4,0c0,0-.2.2-.3.2-.2,0-.4.2-.6.2h0c.4.2.7.3,1.1.4s.7.2,1.1.4.6.4.9.5.6.3.9.4c0-.2-.3-.2-.4-.3-.3-.2-.7-.5-1-.7s-.8-.3-.5-.4c.2,0,.4,0,.6,0s.2,0,.3,0c.2,0,1.6.3,1.8.3.4.1.8.5,1.2.6s.5,0,.7.2.6.5.9.6.3.2.4.1l-.4-.5c0,0,.8.2,1,.2.2.1.5.3.7.4s.9.3,1.2.3.2,0,.4,0c-.4-.3-1.1-.4-1.5-.7s-.2-.2-.3-.3c-.3-.2-1.6-1-1.9-1s-.2,0-.3,0c-.5,0-1.2-.3-1.6-.6s-.5-.2-1-.2-.8-.2-1.2-.3-.6,0-.9.1-.5,0-.7,0-.2.2-.4.1c0-.1.2-.1.3-.1.5-.2.9-.6,1.5-.7s.6,0,.8,0c.6-.1,2-1,2.5-1.4s1.5-1.2,2.2-1.6.6,0,1,.3.9.4,1.4.7.6.4.9.5.4.1.5.2.3.3.4.4c.5.4,1.2.9,1.8,1.2s1.1.2,1.6.3,1.5.7,2.1,1,1.3.9,1.9,1.2.7.2,1,.3c.9.3,1.9.9,2.7,1.4s1,.4,1.2.6.2.6.3.5h.1c0-.1,0,.2,0,.2.1,0,.2-.3.2-.3.1-.1.1.3.2.3s.1.2.1.3c.1.1.2-.4.2-.4s0,0,0,0,.2.5.2.6c0,.1.2.3.3.4s0,.1,0,.1.2,0,.2,0c0,0,0-.2.1-.3,0,0,0,0,0,0s0-.4.1-.3,0,.2,0,.2c0,.2,0,.3.2.4s0,.2.1.2.1-.1.2-.1c0,0,0,.3,0,.3,0,0,.3,0,.2.2,0,0-.5,0-.5,0-.6,0-1.2-.2-1.7-.3s-.2.1-.4,0-.3-.2-.5-.3-.2,0-.2,0-.1-.4-.2-.3,0,0,0,0,0,0,0,0c0,0,0,.2,0,.2s-.2,0-.2,0c-.2,0-.2-.1-.2-.3s-.1-.2-.2-.4,0-.2-.1-.1-.1.6-.4.5,0-.1,0-.2,0,0,0,0c0,0-.1-.4-.2-.3s0,.1,0,.1c0,0-.2-.4-.2-.4-.2,0-.2.3-.2.3s0,0-.1,0c0,0,0,.2,0,.2s-.6,0-.6,0c.3-.1,0-.2-.1-.3s0-.1,0-.1,0-.2,0-.2c0,0,0,0-.1,0,0,0,0-.5-.2-.6s0,.2-.1.2-.1.1-.1.1c0,0,0,.1,0,.2s0,0,0,0,0,.2,0,.2-.1,0-.1,0c0,0,.1.3-.2.3h0c-.2.2-.2.2-.4,0,0,0,0,0-.1,0,0-.2,0-.3-.2-.4-.1,0-.1.2-.2.4s0,0,0,0c0,0,0,0,0,.1,0,.2-.2,0-.3,0,0,.1-.1.3-.2.2s-.3-.7-.4-.5,0,.5-.4.3v-.2c-.2,0,0-.1,0-.1s0,0,0,0,0-.1,0-.2-.1,0-.1-.1,0,0,0-.1-.2-.2-.1-.3c0,0-.2.3-.2.3,0,0,0,.2,0,.2s-.1,0-.2,0c0,0,.2.3-.2.3,0,.1.1,0,.1.2-.2,0-.2,0-.3,0s0-.1-.1-.1-.2.2-.3.1,0-.2,0-.2-.1,0,0-.2c-.3,0-.2-.2-.3-.3-.1,0-.1.1-.2.2s0,0,0,0c0,0,0,0,0,.1s0,0,0,0,0,0,0,0c0,0-.2,0-.2,0,.1.3-.6.4-.5.2s.2,0,.2-.1h-.4c0-.2.4-.2,0-.4v-.2c.1,0-.2-.1-.2-.1,0-.1.2,0,.1-.2-.2,0,0,0-.1-.2s-.1-.4-.2-.4c-.1,0-.2.2-.2.3s-.2,0,0,.3h-.2c0,0,0,.1,0,.2s-.2,0-.2.2c0,.2.1,0,.1.2h-.2c0,.1.3.2.2.2,0,.1-.3,0-.4.1,0,.1.2,0,.2.2s-.2.1-.2.1c-.1,0-.2-.2-.2-.3s0,0,0,0c0,0,0-.2-.1,0s0,.3,0,.3c0,0-.5,0-.3,0s.2,0,.1,0-.6,0-.2-.3c-.2,0,0-.1,0-.2s-.2,0-.3-.2c0-.1,0,0,0-.1.1,0,0,0,0-.2,0,0,0-.2-.1-.3s0,0,0,0-.2.3-.2.4c0,0,0,.1,0,.2s-.2.1-.2.1c0,0,.1.1,0,.2h-.2c0,0,.2.1.2.2,0,.1-.2,0-.3,0,0,.2.2,0,.2.2,0,0-.2,0-.3,0s-.2,0-.2,0-.2.1-.3,0,0-.2,0-.3-.2-.3-.2-.3-.1.3-.2.3c.2,0,0,.1,0,.1s0,.2,0,.2c0,0-.2,0-.3,0s0-.1,0-.2-.2-.2-.2-.3c0,0,0-.2-.1-.2s0,.4-.3.3c.1.3,0,0-.1.1s0,.3-.2.2,0-.2,0-.2h-.2c0-.3,0-.2,0-.2s0-.3-.1-.4c-.1,0-.1,0-.1.1,0,.2,0,.2-.1.3s-.1.1-.1.2,0,.1,0,.2-.3.2-.3.2c-.3,0-.3-.2-.4-.2s0,.1-.1.2-.2,0-.3,0c-.2,0-.1,0-.1-.2s0,0,0,0c0,0,0-.2-.1-.3,0,0-.2.3-.3.3-.2,0-.2-.1-.3-.1,0,0-.3.1-.4,0,0,0,.1-.1,0-.3-.4,0-.2,0-.2-.2s-.2-.2-.2-.2c0,0-.1-.4-.1-.4-.1-.1-.1.2-.2.2,0,.1-.2,0,0,.2,0,0-.2,0-.3,0,0,0,0,.1.1.1,0,0,0,0,0,0s0,0,0,.2c-.1.1-.3,0-.4,0s0,0-.1.1-.4,0-.4-.1c0,0,0-.2,0-.2s-.1,0-.1,0,0,0,0-.1-.2-.3-.2-.4,0-.1,0-.2c-.2,0-.1.2-.1.3s0,0-.1,0,0,0,0,.1c-.1,0-.2,0-.2.2-.1-.1-.3,0-.4-.2-.2-.1,0-.1,0-.2.1-.2-.2-.1-.2-.2s.1,0,.1-.1c.1-.2-.2-.2-.2-.3,0,0,0,0,0-.1,0,0-.2-.1-.2-.2s.1-.1,0-.2,0,0-.1,0,0-.3-.1-.4l-.2.4c-.3.2,0,.1,0,.2,0,.2-.3.1-.2.3s.2,0,.1.2c0,0-.2,0-.2,0s0,.2,0,.2c0,0,.2,0,.1,0s0,0,0,0c0,0,0,.1,0,.1s-.3,0-.3,0c0,0,.1,0,.1,0,0,0-.2.2-.3.2h0c-.2-.1-.1-.2-.2-.3s-.2-.2-.2-.3,0-.2-.2-.2,0,.2-.1.2c0,0,0,.2-.1.2,0,0,0,.2,0,.2s-.1,0,0,0,0,0,0,0c0,.3-.1.2-.3.3s-.2.3-.3.2-.2-.4-.2-.5-.2,0-.2.2c0,0,0,.2-.1.3s0,.2-.1.2-.2-.2-.3-.4-.1-.2-.2-.3c0,0,0,0,0,0,0,.1-.1.2-.2.4-.2.4-.3-.3-.5-.4-.1,0-.1.3-.3.2s-.1-.1-.1-.2-.1-.1-.2-.2c0,0,0-.2-.1-.3-.2,0-.1.2-.2.3s0,0,0,0c0,0-.1.4-.1.4,0,0-.2,0-.3,0,0-.2,0-.2-.1-.3s0-.2-.2-.2,0,.1,0,.2,0,0,0,0c0,0,0,.2-.1.3s-.2,0-.3,0,0,0,0,.1c-.2.2-.3,0-.5,0,0,0,.2-.2,0-.3s-.1.1-.2.2c-.2.2,0,0,0,0s-.1,0-.2-.1-.1-.3-.2-.3c-.1,0-.2.2-.3.2s-.1,0-.1,0,0,0,0,0c0,0-.4,0-.4,0-.2,0,0-.4,0-.4s-.2,0-.2,0-.1-.4-.2-.4-.2.2-.2.2c0,0,0,.2,0,.2s-.1,0-.2,0,0,0,0,.1c0,0-.6,0-.7-.1h.2c0-.2-.2-.2-.3-.2,0,0,.3-.4,0-.3,0,0,.2-.1.1-.2s-.4,0-.2-.2.1,0,0,0c0,0,0,0-.1,0s-.2-.4-.2-.5c0,0-.2.5-.3.5.3.2,0,.2-.1.3s.1.1,0,.2h-.2s0,.1,0,.1h-.1c0,0,0,0,0,0h-.2c0,.1.2.2.2.2,0,.2-.4,0-.4.1s0,.2-.1.1c.1-.2,0,0,0-.1s-.2-.5-.3-.5c-.1,0,0,.2-.1.3s0,0,0,0c0,.1,0,.4-.2.3,0,0,.1,0,.1.1,0,.1-.2.1-.2.1,0,0-.1.1-.2,0,0-.1,0-.3-.2-.3,0,0,0-.2,0-.2,0,.2-.2.5-.4.4s0-.2,0-.3c0,0-.3,0-.3,0,0,0,.2-.5,0-.4s0,0,0,0c-.1,0,0,0-.1-.2s0,0,0,0c0,0,0-.3-.1-.2s-.1.3-.1.3,0,0-.1,0c0,0,0,.3-.1.4,0,0,0,0,0,0,0,0,0,0,0,0,0,0-.3,0-.4,0s0-.2-.1-.1c.1-.2,0-.2-.1-.3s0-.1,0-.2-.1,0-.1,0,0-.1,0-.2c0-.1-.2-.2-.1-.4-.2,0-.2.3-.2.3s0,0,0,0c0,0,0,0,0,.1s-.1,0-.1,0c0,0,.1.2-.1.2,0,0,0,.1,0,.2-.2,0-.3,0-.5,0l-.2-.2c0-.1.4,0,.4-.3h-.5c0-.2.2-.2.2-.2,0-.1-.1-.2-.1-.2s.2,0,.2-.2c-.1,0-.5,0-.4-.2s.2,0,.1-.1-.4,0,0-.2c-.2-.1-.2-.5-.4-.6,0,.1,0,.3-.1.4s0,0-.1.1c0,.1.1.2,0,.3s-.2,0-.1.1.2,0,.1,0-.3,0-.3.1c0,.1.1.1.2.1.1.1-.2.1-.2.2-.1.2.2.1.2.2,0,.1-.9.1-.1.4,0,.1-.2,0-.3,0,0,.1.1,0,.1.1s-.2.2-.3,0,0-.2-.1-.1,0,.4-.3.4c0,0,0-.1-.1-.2s0-.2,0-.2,0,0-.1,0c0,0,0,0,0-.1s-.1-.3-.1-.3c-.1,0,0,0-.1.1,0,.2,0,.2,0,.3s-.2.4-.3.5,0,.1,0,.1-.2,0-.3,0h0c-.2-.1-.1-.2-.2-.3s-.2-.5-.2-.5c-.1,0-.1.1-.1.2,0,0-.1.2-.2.3s0,.1,0,.2-.1,0-.1,0,0,.2,0,.2-.1,0-.2,0-.2-.4-.2-.5-.1-.2-.2-.2-.1.3-.1.3,0,.1,0,.2,0,0,0,0c0,0,0,0,0,.1,0,0-.3,0,0,.2-.3,0-.1,0-.2-.1s0,0-.1,0c0,0,0-.1-.1-.2s0-.2-.1-.2-.2.4-.2.4-.1,0-.1,0c0,0,0,.1,0,.2s-.1,0-.1,0c0,0,0-.1,0-.1,0,0,0,0-.1,0,0,0-.2-.6-.3-.6s-.3.7-.3.8c0,.2-.4,0-.5,0s-.1,0-.2,0-.1-.3-.1-.3c0-.2-.2,0-.2.1,0,.1,0,0,0,.2-.1.2-.3.3-.6.3s0,0,0,0c-.1,0-.1,0-.2,0-.4.2-.8.2-1.2.1h-.4c.7.1,1.5.1,2.3.1,9.1-.3,18.2-.3,27.4-.1,0,.1,0,0,.1,0,.8,0,1.6,0,2.4,0s.2,0,.2,0ZM239.5,11.8c0,0,0-.2-.2,0s-.2.3-.2.3c-.2.2-.4.4-.6.7s-.5.3-.5.6c0,0,.4-.2.5-.2s0,0,0,0,.1,0,.2,0,.5.6.6.7.2.2.3.2.3.4.4.4c0,.1-.3,0-.3,0-.1,0-.3-.1-.5-.2s-.5-.5-.6-.4,0,.1.1.2,0,.2,0,.2c0,.3.4.8.6,1,.5.4,2.3,1.1,3,1.3s1.2.2,1.7.4,1.5.7,1.6.6,0,0,0-.1c-.2-.1-.5-.2-.7-.3-.6-.3-1.2-.5-1.8-.8s-.9-.6-1.2-.9-.6-.5-.7-.6c.2,0,.3.1.4.2s.3.1.4.2l.9.3c0,0-.7-.7-.8-.7s-.3-.3-.1-.3.4.2.5.2c.8.4,1.6.9,2.5,1.3s1.6,0,2.4.4,1.2.9,1.8,1.1c1.2.3,2.4.7,3.5,1.1s.5.2.7.2c0,0-.1-.1-.2-.2-.1,0-.3-.1-.4-.2-.4-.2-.9-.6-1.3-.8s-1.3-.4-1.8-.6c-.8-.4-1.7-1.1-2.4-1.5s-1-.1-1.5-.2c-.8-.1-2.1-1.1-2.8-1.6s-.2-.2-.3-.3c-.2-.1-.6-.2-.9-.4,0,0,.3.4.1.4,0-.1-.3-.2-.4-.3s-.5-.6-.7-.6-.1,0-.2,0c-.1,0-.4-.4-.5-.5-.2-.2-.4-.4-.7-.5ZM199.7,17.6v-5.8c0,0-.4.5-.4.5-1,1.6-2.2,3.2-3.2,4.8s-.2.2-.2.5h3.8ZM238.1,13.6c-.2,0-.5,0-.7.2s-.7.4-1,.6-.5.3-.6.3-.5.1-.6.2c.2,0,.6,0,.8,0s.9-.3,1.1-.4.2-.3.4-.4.4-.2.6-.3.1,0,0-.1ZM219.6,15.2c-.4-.2-.9-.4-1.3-.6s-.2,0-.3,0-.5.4-.5.5c-.2.2-.2.4-.5.5-.5.2-.4.2-.8.4s-.5.2-.7.3-.2,0-.2.2c.2,0,.3,0,.5-.1s.2,0,.3,0c.2,0,.4-.2.6-.3s.4,0,.7,0c.4-.1.6-.7.9-.7s1.2.5,1.5.7c.5.2,1.2.6,1.8.6s.8-.1,1.2,0,.7.5.9.5.2,0,.4,0,0,0,.1-.1c.4-.1.9.3,1.3.5s.8.4.9.3h-.1c.7-.2,1.3,0,1.9.3s.8.2,1.2.3c0,0,0,0,0-.1-.2,0-.5-.2-.7-.3s-.3-.1-.5-.2c-.3-.1-.9-.5-1.2-.6s-.6,0-.9,0-.7-.5-1.1-.6-.6,0-.9,0-.6-.4-.9-.5-.9,0-1.2,0c-.9,0-1.7-.5-2.4-.9Z"/>
      <path class="st0" d="M199.7,17.6h-3.8,3.8Z"/>
      <path class="st0" d="M197.4,25.3s.2,0,.2.2c0,.4-.2.6-.6.6s-.4,0-.5-.1-.1-.3-.1-.3c0-.2.2-.3.2-.3,0-.1,0,0-.1-.1-.2-.3,0-.6.4-.6s.6,0,.7.3-.2.4-.1.5ZM197.2,24.8s-.2,0-.3,0c-.3,0-.2.5.2.4s.2-.3,0-.4ZM197.2,25.5c-.6-.3-.7.4-.2.4s.4-.3.2-.4Z"/>
      <path class="st0" d="M199,24.6c0,.4-.2.1-.4.1s-.4.2-.4.4.2,0,.2,0c1-.1.9,1.1,0,1s-.7-.8-.4-1.2.7-.4,1-.2ZM198.6,25.3c-.2,0-.5,0-.4.3s.7.2.6-.2-.1-.1-.1-.1Z"/>
      <path class="st0" d="M195.9,24.7c.2.2.2.6.2.9s0,0,0,0c0,0,0,.1,0,.2-.2.3-.7.3-1,.1,0-.3.1-.2.3-.1.3,0,.6-.1.5-.4,0,0-.1.1-.1.1-.4,0-.8,0-.8-.5s.7-.6,1-.3ZM195.8,25c0-.2-.1-.3-.3-.3s-.3.1-.3.3.1.3.3.3.3-.1.3-.3Z"/>
      <path class="st0" d="M191,24.6v.2h-.7c0,0,0,.3,0,.4h.7v.2h-.6c0,0,0,.4,0,.4h.8c0,0,0,.2,0,.2h-1s0,0,0-.1c0-.4,0-.9,0-1.4h1.1Z"/>
      <path class="st0" d="M192.1,25.2c0,0-.4-.2-.6,0,0,0,0,0,0,.1.1,0,.3,0,.4.1.3.1.2.5,0,.6s-.9-.2-.6-.3.6.3.6,0-.5-.1-.6-.4.3-.5.7-.5.2,0,.2.1c0,0,0,.2,0,.2Z"/>
      <path class="st0" d="M192.8,24.9s.3,0,.4,0c0,.3-.3.1-.4.2s0,.6,0,.6c0,.1.2,0,.3,0,0,.2,0,.3-.2.3-.7,0-.4-.6-.4-.9s-.2,0-.2,0c0-.2.2-.1.2-.2,0-.2-.1-.3.3-.3,0,0,0,.3,0,.3Z"/>
      <path class="st0" d="M194.6,24.6v1.5c0,0-.3,0-.3,0v-1.1c-.1,0-.2.1-.4.1,0-.3.4-.5.7-.4Z"/>
      <path class="st0" d="M193.3,25.8c0-.1.5,0,.3.3s-.5,0-.3-.3Z"/>
      <path class="st0" d="M220.2,25.5c0,1.3-1.1,2.3-2.4,2.3s-2.4-1-2.4-2.3,1.1-2.3,2.4-2.3,2.4,1,2.4,2.3ZM218.6,24.6c-.5-.4-1.4-.4-1.8.2s-.3,1.6.4,1.9c1.5.7,2.5-1.2,1.4-2Z"/>
      <path class="st0" d="M238.7,27.6s0,0,0,0c-.1-.1-.7-1.2-.8-1.2h-.6v1.3s0,0,0,0h-1.1s0,0,0,0h0s0-4.2,0-4.2h0c0,0,.1,0,.2,0,.7,0,2.3,0,2.9.2.9.4,1.1,1.7.3,2.4s-.3.1-.3.2c0,.1.7,1.1.9,1.3s0,0,0,.1c0,.1,0,0-.1,0-.4,0-.7,0-1.1,0ZM238,24.3c-.3,0-.6,0-.8,0v1.2c.5,0,1.5.2,1.5-.6s-.2-.6-.6-.6Z"/>
      <path class="st0" d="M224,24.2s0,0,0,0c0,0,0,.3-.1.3-.2,0-.4-.2-.5-.2s-.6-.1-.8-.1c-.3,0-.6.2-.5.5s1,.3,1.2.4c.9.3,1.5.8,1.1,1.7s-2.3,1-3.3.6-.5-.2-.4-.3.2-.3.2-.4c.3-.5.3-.3.7-.1s.9.3,1.1.2.4-.1.5-.2c.3-.5-.6-.6-.9-.7-.6-.2-1.3-.4-1.4-1.1-.2-1.5,1.7-1.8,2.9-1.4s.6.2.6.2c0,0-.1.4-.2.5Z"/>
      <rect class="st0" x="225" y="23.4" width="1.2" height="4.3"/>
      <path class="st0" d="M227.1,27.6v-4.2s3.5,0,3.5,0v.9h-2.3v.8h2v.9h-2v.8c.7,0,1.5,0,2.2,0v.9h-3.3v-1c0,0,0,0,0,.1,0,.3,0,.6,0,.9Z"/>
      <path class="st0" d="M213.5,23.4c1.3.2,1.9,1.7.9,2.5s-.3.2-.3.2c0,.2.9,1.2,1,1.5h-1.4l-.8-1.3h-.6s0,0,0,0v1.3h-1.2v-4.2h2.6ZM213,24.3c-.3,0-.6,0-.9,0v1.2h.9s.2,0,.3,0c.2,0,.4-.3.4-.6,0-.3-.3-.5-.6-.6Z"/>
      <path class="st0" d="M231.4,27.6v-4.2s2.5,0,2.5,0c0,0,.4.1.5.1,1.1.4,1.2,2.1,0,2.5h0c0,0,1,1.5,1,1.5h-1.4c-.2-.5-.6-.9-.8-1.3-.1,0-.6,0-.7,0s0,0,0,0c0,0,0,1.2,0,1.3,0,0-1,0-1.1,0ZM233.4,24.3c-.2,0-.6,0-.9,0s0,0,0,0v1.1c.3,0,1.2,0,1.4-.2.3-.4,0-.9-.5-1Z"/>
      <path class="st0" d="M240.1,27.6l1.8-4.2h1.3c.7,1.4,1.2,2.8,1.9,4.2h-1.3l-.3-.8c0,0-1.6,0-1.8,0,0,0-.3.8-.4.8-.4,0-.8,0-1.2,0ZM242,26h1.1l-.5-1.4c0,0,0,0,0,0,0,0,0,.1,0,.2,0,.1-.4,1.1-.4,1.1Z"/>
      <path class="st0" d="M208.8,23.4c.6,0,1.4.5,1.5,1.1.2,1-.4,1.8-1.5,1.9s-.8,0-1.1,0,0,0,0,0v1.2s-1.1,0-1.1,0v-4.2c.7,0,1.4,0,2.1,0s.1,0,.1,0ZM207.8,25.5h.9s.3-.2.4-.2c.2-.3.2-.8-.2-.9s-.2,0-.2,0h-.8v1.2Z"/>
      <path class="st0" d="M207.7,27.6h0s0,0,0,0Z"/>
      <path class="st0" d="M235.4,28.8c0,0,.2,0,.3,0s.3.6.4.7,0,0,0,0,.3-.7.4-.7.3,0,.3,0v1.3h-.3v-.8c0,0-.1.1-.1.2,0,.1-.1.4-.3.4s-.3-.3-.4-.5,0-.1-.1-.1v.8c0,0-.3,0-.3,0v-1.3Z"/>
      <path class="st0" d="M215,28.8c0,0,.2,0,.3,0,0,0,.5.7.6.8v-.8c0,0,.3,0,.3,0v1.3s-.2,0-.2,0c-.2,0-.5-.7-.8-.8v.8s-.3,0-.3,0v-1.3Z"/>
      <path class="st0" d="M230.6,28.8c0,0,.2,0,.3,0s.5.7.6.8,0,0,0,0v-.9c0,0,.2,0,.3,0s0,1,0,1.2,0,0,0,.1c-.3.2-.6-.5-.7-.7l-.2-.2v.8s-.3,0-.3,0v-1.3Z"/>
      <path class="st0" d="M209.9,28.8c0-.2.9,0,1,0s.1.3.1.4-.2.2-.2.3.3.4.3.5h-.3c-.1-.2-.2-.5-.5-.4,0,.3.1.5-.3.4v-1.2ZM210.7,29.4s0-.1,0-.2c0-.3-.3-.2-.5-.2v.4c.1,0,.4,0,.5,0Z"/>
      <path class="st0" d="M221.4,28.8s.3,0,.3.1c.3.2.4.7.2,1s-.3.3-.3.3h-.8v-1.3s0,0,0,0c.2,0,.4,0,.6,0ZM221,29.1c0,.2,0,.5,0,.8.2,0,.6,0,.6-.2s0-.5,0-.6-.6-.2-.6,0Z"/>
      <path class="st0" d="M225,28.8s.3.1.3.1c.3.2.3.6.2.9s-.3.3-.4.3h-.8v-1.3s0,0,0,0c.2,0,.4,0,.6,0ZM224.6,29c0,.2,0,.6,0,.8.5,0,.8-.2.7-.6s-.6-.3-.7-.2Z"/>
      <path class="st0" d="M212.1,28.8c.1,0,.4.2.4.3,0,.3,0,.5-.3.6.2.1.2.3.4.5-.1,0-.3,0-.4,0-.2,0-.2-.5-.5-.4v.4s-.3,0-.3,0v-1.3s0,0,0,0c.2,0,.5,0,.6,0ZM211.7,29.4c.1,0,.3,0,.4,0,.2,0,.2-.4,0-.4-.4,0-.4.1-.4.4Z"/>
      <path class="st0" d="M239.5,28.8s.3.1.3.1c.2,0,.2.5,0,.6s-.2,0-.1.1.2.3.2.4,0,0,0,0c0,0-.3,0-.3,0s-.2-.2-.2-.3,0-.1,0-.2c0,0-.2,0-.3,0v.4s-.3,0-.3,0v-1.3s0,0,0,0c.2,0,.4,0,.6,0ZM239.1,29.4c.8.1.8-.6,0-.4v.4Z"/>
      <path class="st0" d="M229.8,28.8c0,0,.4,1.2.6,1.3,0,0-.2,0-.3,0s0-.2-.1-.2-.6,0-.6,0c0,0,0,.4-.4.3l.5-1.3c0,0,.3,0,.3,0ZM229.7,29.1h-.1c0,.2-.1.3-.1.5h.4c0-.2-.1-.3-.1-.5Z"/>
      <path class="st0" d="M209.6,29h-.6c0,0,0,.3,0,.3h.6c0,0,0,.2,0,.2h-.6c0,0,0,.3,0,.3h.7c0,0,0,.2,0,.2s-.5,0-.6,0-.4,0-.4,0v-1.3h.9c0,0,0,.2,0,.2Z"/>
      <path class="st0" d="M220,28.8l.5,1.3c0,0-.2,0-.3,0s0-.2-.1-.2c0,0-.6,0-.6,0s0,.2,0,.2-.3,0-.3,0l.5-1.3s.3,0,.3,0ZM220,29.6s-.1-.5-.2-.5l-.2.5h.4Z"/>
      <path class="st0" d="M214.1,30.1c0,0-.3,0-.3,0s0-.2,0-.3-.5,0-.6,0c0,0,0,.2-.1.2s-.3,0-.3,0l.6-1.3c.1,0,.3,0,.3,0,0,.2.6,1.2.5,1.2ZM213.6,29.6s-.1-.3-.1-.4,0-.2-.1-.2c0,0-.2.5-.2.6h.4Z"/>
      <path class="st0" d="M242.7,30.1c-.4.1-.3-.2-.4-.3s-.6,0-.7,0c-.1.2,0,.2-.4.2l.6-1.3c.1,0,.3,0,.3,0l.5,1.2ZM242.2,29.6h0c0-.1-.2-.5-.2-.5l-.2.5h.4Z"/>
      <path class="st0" d="M234,28.8s0,0,0,0c0,.2.5,1.1.5,1.2s-.3,0-.3,0,0-.2,0-.2c0,0-.6,0-.6,0s0,.2-.1.2-.2,0-.3,0l.5-1.3c0,0,.2,0,.3,0ZM234.1,29.6s0-.3-.1-.4,0-.2-.1-.2l-.2.5h.4Z"/>
      <path class="st0" d="M217.6,28.8v.2h-.6c0,0,0,.3,0,.3.2,0,.6,0,.6.1s-.5,0-.6.1,0,.2,0,.3h.7c0,0,.1.2,0,.2h-1.1c0-.3,0-.6,0-.9s0-.3,0-.5h.9Z"/>
      <path class="st0" d="M238,28.8l.6,1.3c-.4,0-.3,0-.4-.2s-.5,0-.6,0,0,.4-.4.3l.5-1.2c0-.1.2,0,.3,0ZM237.9,29.1c0,0,0,0,0,0,0,0-.2.4-.1.5h.4c0,0-.1-.5-.2-.5Z"/>
      <path class="st0" d="M223,28.8l.6,1.3c-.4,0-.3,0-.4-.2s-.5,0-.6,0c0,0,0,.4-.4.3l.5-1.2c0-.1.2,0,.3,0ZM222.9,29.1s0,0-.1,0c0,.2-.1.3-.1.5h.4c0,0-.1-.5-.2-.5Z"/>
      <path class="st0" d="M226.9,28.8v.2h-.7s0,.3,0,.3h.6v.2h-.6c0,0,0,.3,0,.3h.7c0,0,0,.2,0,.2s-.6,0-.7,0-.3,0-.3,0v-1.3h.9Z"/>
      <path class="st0" d="M207.5,28.9s0,.2,0,.2c-.1,0-.2,0-.3,0-.2,0-.5.1-.3.3s.4,0,.6.2c.3.3,0,.6-.5.6s-.3,0-.5-.1,0,0-.1,0c0,0,.1-.2.2-.2s0,0,0,0c.4.2.8,0,.3-.3s-.5,0-.5-.4.4-.4.7-.3.3,0,.3.1Z"/>
      <path class="st0" d="M228.7,28.9c0,0,0,.2-.1.2-.1,0-.2,0-.3,0-.2,0-.4,0-.3.2s.7,0,.7.5-1,.5-1,.2,0-.1,0-.2c0,0,.4.2.6.1.3-.2-.4-.3-.5-.4-.4-.2-.3-.7.2-.7s.5,0,.6.1Z"/>
      <path class="st0" d="M218,28.8s.3.6.3.7,0,.4.2.2.2-.7.3-.9.2,0,.3,0c0,0-.4,1.2-.5,1.3,0,0-.3,0-.3,0l-.4-1.2h0c0-.1.2-.1.2-.1Z"/>
      <path class="st0" d="M233.2,28.8v.2s-.4,0-.4,0v1.1s-.3,0-.3,0v-1.1c0,0-.5,0-.5,0s0-.2,0-.2h1.1Z"/>
      <path class="st0" d="M241.3,28.8c0,0,0,.2,0,.2s-.5,0-.5,0v1h-.3v-1c0,0-.4,0-.4,0v-.2c.2,0,1,0,1.1,0Z"/>
      <path class="st0" d="M207.9,28.8c0,0,.3,0,.3,0v1.3c0,0-.3,0-.3,0v-1.3Z"/>
    </g>
    <g id="XFSj1M.tif">
      <g>
        <path class="st0" d="M299.9,3.9c-.5.1-.9-.1-1.3-.4v.4c-.2,0-.4,0-.6,0-1.6.1-3.3,0-4.9,0-4.5,0-9.1,0-13.6,0s-3.4-.2-5,0-.2,0-.3,0v20.6s54.5.3,54.5.3v-.2c0-6.3.3-12.6,0-18.9,0-.3,0-1.5,0-1.6-.4,0-.8,0-1.1,0-3,0-6.5.3-9.5,0s-.6,0-.7-.3c-.2.2-.6.2-.9.3-2.3.2-5.1,0-7.4,0s-4.7,0-7,0-1.6,0-1.8,0h0c0-.3.1-.5,0-.7,0-.2.2-.2.3-.2.8,0,2.1,0,3,0,4.6,0,9.3,0,14,0h.2c0,.1-.1.4-.1.4.1,0,.2-.2.3-.2.8-.4,3.9-.2,5-.2,1.8,0,3.5,0,5.3,0s.9-.1,1.4,0,.2.5.2.7c.3,4.7,0,9.6.3,14.4-.2,4.5.3,9.3,0,13.9s0,.5,0,.7c-.1.2-3.4.1-3.8.1-13.6,0-27.2-.1-40.8-.1-3.6,0-7.6.3-11.2,0-.2,0-.6,0-.7-.3-.1-6.4,0-12.9,0-19.4,0-3,0-6.1,0-9.2,0-.4-.3-1.1.3-1.1,2.7,0,5.5.1,8.2.1,5,0,10.2-.1,15.2,0,.6,0,1.5,0,2.1.1s.4.4.5.4c.2,0-.1-.5.3-.5.2.2.2.5.2.8ZM328.8,25.6c-.3,0-.5,0-.7,0-6.9-.4-14.1.3-21.1,0-8.7,0-17.4,0-26.1-.1-2.1,0-4.3,0-6.4,0-.5.2-.2.7-.2,1.1,0,1.8-.2,3.7,0,5.5.1.2,2.9,0,3.3,0,16.3,0,32.7-.2,48.9.1.5,0,1.5,0,1.9,0s.3-.2.3-.4c.1-1.1,0-2.9,0-4.1s0-1.4,0-2Z"/>
        <path class="st0" d="M300.1,13.1c.4,0,1.3.2,1.7.3,1.7.5,2.1,2.5.9,3.8-.4.4-1.4.7-1,1.4.7.8,1.1,2,1.7,2.7s1.1.6,1.6.9v.2c-.3.3-.6.1-.9.1s-1.5,0-1.7,0-.4-.8-.6-1-.5-.6-.6-.9c-.3-.6-.6-1.3-1-1.8s-1.2-.7-1.3.3,0,.5,0,.7c0,.6-.2,1.3.2,1.8s.8.3,1.1.6-.2.4-.4.4c-.8,0-2.3,0-3.1,0s-.8-.2-.4-.4.6-.1.8-.3.5-.6.5-1c0-.7,0-1.6,0-2.3s.1-3.6-.1-4.2-1.5-.4-1.4-.9.9-.1,1.1-.1c1.2.1,1.5,0,2.6-.2ZM300,13.8c-.4,0-.8.3-.9.7s0,2.3,0,2.8.9.5,1.4.4,1.1-.7,1.3-1.1.2-1.6,0-2-.6-.7-.7-.7c-.2,0-.8,0-1,0Z"/>
        <path class="st0" d="M293.4,15.4h-.2c-.3-.3-1.1-1.4-1.5-1.5s-.6-.1-.7-.1c-.2,0-.7,0-.9,0-1.1,0-.9,1.2-1,1.9s-.2,1.4.2,1.6,1.5,0,1.9,0c.6-.2.3-2,1-1v1.6c0,.3,0,1.5-.2,1.6-.4.3-.4-1.1-.8-1.4s-1.6-.2-1.9,0-.2.2-.2.2c0,.9-.1,2.1,0,3s.1.4.3.5c.8.4,1.3.2,2.1,0s.4,0,.9-.3,1.2-1.3,1.3-1.3.1,0,.2,0c.3.3-.1.7-.3,1s-.1,1.1-.4,1.3-1.4,0-1.8,0c-1.3,0-2.7,0-4,0s-1,0-1.2-.1,0-.1,0-.2c.3-.4.9-.2,1.2-.7v-7c0-.2,0-.4-.2-.5-.3-.2-.9-.2-.9-.5.1-.4.6-.1.9,0,1.4,0,3.3,0,4.6,0,.3,0,.8-.2,1-.1.3.1.2.9.2,1.2s.3.6.2,1Z"/>
        <path class="st0" d="M276.9,13.2c.3-.1.6.1.9.2,1,.1,1.9-.3,2.8-.2s1.5.2,1.9.4.7.5.9.7c.5.8.6,2.3,0,3.2-.9,1.2-1.8,1.5-3.2,1.5s-.3,0-.4,0c-.5,0-.3.8-.3,1.1,0,.5-.2,1.5.2,1.8s.8.3,1,.6c0,.1,0,.2-.2.2h-3.8c-.1,0-.2-.2,0-.4,0-.2.7,0,1-.4.7-.6.4-2.5.4-3.4s.2-2.1.1-3.1,0-1.1-.5-1.3-1.1,0-1-.6c0,0,0-.1.2-.2ZM280.7,13.8c-.5,0-1.1,0-1.2.6s0,1.1-.1,1.7c.2.4,0,1.7.2,1.9s1.3.1,1.6,0c1.2-.5,1.5-2.5.8-3.5s-.7-.8-1.3-.8Z"/>
        <path class="st0" d="M326.1,22.6h-3.8s0-.3,0-.3c.3-.2.9-.2.9-.6s-.3-1.4-.4-1.8-.2-.8-.8-.9-1.4,0-1.8,0-.3.2-.4.3c-.2.4-.7,1.6-.7,2,0,.9.6.6.9.9s-.2.4-.5.4c-.4,0-2.1,0-2.3,0s-.1,0-.2-.1c-.2-.4.5-.4.7-.6.9-.6,1.6-3.3,2-4.3s.9-2.2,1.4-3.3.3-1.1.4-1.2c.3-.2.6,0,.7.3.3.7.5,1.7.8,2.5.4,1.3,1,2.6,1.4,3.8s.2,1.6,1.1,2.2,1,.1.7.6ZM321.1,15.8h-.1c0,.7-.8,1.8-.6,2.3s.2.2.3.2,1.1,0,1.1,0c.3,0,.4-.3.3-.6-.2-.3-.5-1.9-.8-2s-.1,0-.2,0Z"/>
        <path class="st0" d="M314.9,20.1c.2.2-.3,1.3-.3,1.6s0,.6-.2.8c-.2.3-2.2.1-2.7.1-1.2,0-2.4,0-3.6,0s-.7-.1-.6-.4.7-.3.9-.4c.4-.2.4-.7.5-1.1.1-2-.1-4.2,0-6.2-.1-1-1.2-.5-1.3-1.1s.9,0,1.2,0,1.1,0,1.4,0,1.3-.5,1.4,0-1,.3-1.2,1.2,0,2.1,0,2.9-.1,2.6,0,3.8.5.9,1,.9,1.8-.3,2.1-.7,1-1.8,1.4-1.3Z"/>
        <path class="st0" d="M287.3,6.5c1,.1,3.2-.3,4,.4s.6,1.2.2,1.7-1.1.3-.6,1.2,1,1.3,1.3,1.5.6,0,.6.3c0,0-.2.1-.3.1-.2,0-.7,0-.8,0s-.4,0-.6-.1c-.6-.3-1-1.6-1.5-2s-.7-.1-.8.2,0,1.1.2,1.4.7.4.5.5-1.2,0-1.5,0-.6.2-.8,0c-.1-.2.3-.3.4-.3.3-.2.3-.4.4-.7,0-1.1,0-2.2,0-3.3,0-.4-1.2-.3-.7-.7ZM289.6,6.8c-.4,0-.8.6-.8.9s0,.9.1,1c.3.7,1.7,0,1.8-.7s-.3-1.3-1.1-1.2Z"/>
        <path class="st0" d="M300.8,6.4c.2.1.2.6.2.8s.2.3.3.5c.3.8.9,3,1.5,3.5s1.1.5.4.6-2,0-2.1,0c-.2-.3.4-.3.4-.7s-.2-.9-.4-1.1c-.3-.2-1.3-.2-1.6,0s-.4.6-.4.8c-.1.5.6.7.3.9h-1.7c-.3-.2.6-.6.7-.8.3-.3.2-.6.4-.9s.4-.9.5-1.3c.3-.8.8-1.5,1-2.3,0-.1.3-.1.4,0ZM300.2,8.2c-.3,0-.5.8-.1,1,.9.3.7-1.1.1-1Z"/>
        <path class="st0" d="M308.4,10.3c.3-.2.6.6.7.8.6.6,1.9.6,1.9-.5,0-.7-.8-1-1.3-1.3-.7-.5-1.5-.9-1.3-2s.7-.9,1-1,1.6-.2,1.9,0,.5,1.6,0,1.1-.3-.8-1-.8-.9.2-.9.5c-.3,1.1,1.4,1.5,2,1.9.9.8.5,2.4-.6,2.7s-2,0-2.3-.4-.3-1,0-1.1Z"/>
        <path class="st0" d="M280.1,7c0,.2-.1.4-.1.6,0,.7,0,2.4,0,3.1s0,.4.2.5.6.2.5.4c0,0-.1,0-.2.1-.5,0-1,0-1.5,0s-.4.2-.6,0c.3-.3.6-.3.7-.8v-3.6c-.2-.5-1-.3-1.4-.1s-.4.5-.7.7c-.2,0-.3-.2-.3-.3.2-.2.2-.9.4-1s.9.1,1.3.1c.7,0,2,0,2.7,0,.3,0,1.1-.4,1.3,0s0,.8,0,.9,0,.2-.1.2c-.2,0-.4-.4-.5-.5-.5-.4-1.1-.4-1.6-.2Z"/>
        <path class="st0" d="M325.8,10.3c0,0,.3.1.4.2s0,.3,0,.3-1.5,0-1.6,0c-.6-.2.3-.5.3-.5v-.7c-.1,0-.9,0-.9,0-.1,0-.5.7-.5.7s.5.2.3.5-1.3.1-1.5,0c-.3-.3.3-.4.5-.6.7-.6,1.3-2.2,1.9-2.9.1-.2.5-.2.5,0l.6,2.9ZM324.6,9.1v-.6c0,0-.5.6-.5.6h.5Z"/>
        <path class="st0" d="M319.9,7.3c.2.3-.5.4-.6.6,0,.4-.6,2.1-.5,2.4s.8,0,.9,0c.4-.1.5-.7,1-.6.3,0-.3,1-.4,1.1h-2.9s0-.4,0-.4c0,0,.4,0,.5-.1.2-.1.5-2.1.6-2.5h0c-.4-.2-.6-.5-.2-.7.3.2,1.5-.1,1.7,0Z"/>
        <path class="st0" d="M314.7,28.7l.4-.9h.7c0,.2-.2.3-.2.5s0,.7,0,.8.1.3.1.4c.1.4-.5,0-.7.2h-.2c0-.4.3-.5.2-.8-.2,0-.3.6-.4.8-.5.1-.3-.6-.6-.7-.2.3,0,.4,0,.7-.2,0-.4,0-.6,0,.1-.4.3-.9.3-1.3s-.3-.3-.1-.5c.2,0,.4,0,.6,0s.3,1.1.5.9Z"/>
        <path class="st0" d="M320.8,27.7c.3,0,.5.4.4.7s-.2.2-.2.5.6.4.5.8c-.2,0-.4,0-.6,0s-.4-.6-.5-.6-.1.1,0,.2c0,.1.3.2.2.4s-.3,0-.5,0-.5.2-.5,0,.1-.2.2-.3c0-.2.1-.8,0-1.1s-.4-.5,0-.5.8,0,1,0ZM320.6,28h-.3c0,0,0,.5,0,.5.4,0,.5-.2.3-.5Z"/>
        <path class="st0" d="M304.5,27.8c.2.2.5.9.8.8.1-.4,0-.6-.2-.9.2,0,.6-.2.8,0-.3.5-.2,1.1-.4,1.7-.2.2-.8-.5-.9-.7s-.2-.5-.4-.4c-.3.4.1.8,0,1.2h-.6c-.1-.2.1-.3.2-.6,0-.4,0-1-.2-1.3.2-.2.6-.1.8,0Z"/>
        <path class="st0" d="M284,27.8h1.1s.4.2.5.2c.4.3.4,1.1,0,1.5s-1.7.4-1.7,0c.3-.3.3-.9.3-1.3s-.3-.3,0-.5ZM284.6,29.4c.4.3,1-.5.7-1.1s-.4-.4-.5-.4c-.4,0-.2,1.4-.2,1.4Z"/>
        <path class="st0" d="M287.2,27.7c1.7-.4,1.7,2.3,0,2-1-.2-1-1.8,0-2ZM287.6,28c-.8,0-.8,1.5,0,1.5s.8-1.4,0-1.5Z"/>
        <path class="st0" d="M280.2,28.8c0-.3,0-.6-.1-.8s.6-.2.6,0c-.5.5-.3,1-.4,1.7,0,0-.1,0-.2,0-.2-.1-.8-1-1-1-.3.4,0,.7,0,1.1h-.7c.1-.4.4-.7.4-1.2s-.3-.6-.1-.7c.8-.2.8.8,1.4,1Z"/>
        <path class="st0" d="M324.4,27.8c0,0,.1.5,0,.6s-.3-.5-.6-.2c0,.3,0,.7,0,1s.4.5,0,.6-.5-.1-.8,0c-.1-.2.1-.3.2-.5,0-.5.2-1.6-.6-.9-.2-.2,0-.5.1-.6s1.5,0,1.6,0Z"/>
        <path class="st0" d="M302.9,29.6c-.5,0-1,.2-.7-.5-.4-.5-.5,0-.5.4-.1,0-.7.1-.7,0,.4-.5.6-1.2.9-1.8h.2c.2.1.4.9.5,1.1s.3.4.3.7Z"/>
        <path class="st0" d="M317.7,29.7s.2-.6-.2-.6,0,.5-.2.6c-.1,0-.5,0-.6,0s.6-1.1.6-1.4l.3-.4c.3,0,.7,1.6,1,1.7,0,.4-.6,0-.8.2Z"/>
        <path class="st0" d="M326.6,27.9c0,0,.4,1.1.5,1.3s.3.3.3.5h-.8c0,0,0-.6,0-.6-.5-.2-.5,0-.5.4s-.6.2-.6,0c.1-.2.3-.4.4-.7s.3-1.2.7-1Z"/>
        <path class="st0" d="M310.8,29.6v-.4c-.4-.4-.6,0-.5.4-.2,0-.5.2-.6-.2l.9-1.7c.3,0,.6,1.6.9,1.7,0,.3-.6.2-.8.1Z"/>
        <path class="st0" d="M276.1,27.8c.1,0,.6,0,.7,0-.2.3-.3,1.2,0,1.4.6.4.8-.6.7-1s-.5-.5,0-.6c.7,0,.2.3.2.4-.2.6.3,1.6-.8,1.5s-.5-1-.7-1.5-.4-.3,0-.4Z"/>
        <path class="st0" d="M299.3,28c0,0-.2,0-.3,0,0,.6,1,.6.7,1.4s-.9.4-1.1.2-.2-.5,0-.6c.2,0,.3.5.7.3s-.6-.7-.7-.9c-.2-.5.5-1,1-.7s.3.5,0,.5-.2-.1-.2-.2Z"/>
        <path class="st0" d="M290.6,28.2c0,0-.6-.4-.6,0s.9.3.8,1.1-.8.6-1.2.5v-.6c.2,0,.4.3.6.3l.2-.2c-.2-.5-.8-.3-.8-1s1.2-.8,1.1,0Z"/>
        <path class="st0" d="M307,27.7c.2,0,1.1,0,1.3,0s.4.2.4.4c0,.4-.4,0-.6-.1-.3,0-.1,1,0,1.2s.1.2.2.2c.1.4-.5,0-.7.2h-.2c0-.3.2-.4.2-.6s0-1-.2-1l-.5.3c-.1,0-.2-.6,0-.6Z"/>
        <path class="st0" d="M282.6,29.7h-.8c0-.3.2-.4.2-.6s0-.8,0-.8c0-.2-.4-.4-.1-.5s.7,0,.7,0-.2.2-.2.5c0,.5,0,.9.1,1.4Z"/>
        <path class="st0" d="M296.4,29.2h-.1s0,.2,0,.2c-.7.1-.3-.3-.3-.6s0-.3,0-.5c0-.2.6-.2.8,0,.3.3,0,.4,0,.6s.3.4,0,.5l-.2-.2Z"/>
        <path class="st0" d="M294.7,28.1c.8,0,.5,1.5-.4,1.3-.4-.1-.3-1.2.4-1.3ZM294.6,28.4c-.2.2-.4.6-.1.8.3-.1.4-.4.3-.7h-.2Z"/>
        <path class="st0" d="M292.6,28.1c.2,0,.6.1.7.3.2.6-.4.5-.5.6.1.4-.2.5-.5.3,0-.2.2-.5.2-.7s-.1-.4.1-.5Z"/>
      </g>
    </g>
    <g>
      <path class="st0" d="M149.9,26.2v-.4h1.3v2.9c0,2-2.2,2.2-3.7,1.6s-.3,0-.3-.2l.4-.8h0c.2,0,.4.2.6.2.3,0,.9.1,1.2,0s.4-.5.4-.9c-.5.5-1.1.6-1.7.4-1.4-.4-1.4-2.6-.1-3.2s1.3-.1,1.8.4ZM149.9,27.4c0-.4-.3-.7-.7-.7s-.7.3-.7.7.3.7.7.7.7-.3.7-.7Z"/>
      <polygon class="st0" points="102.2 25.8 102.2 26.5 104.5 26.5 104.5 27.6 102.2 27.6 102.2 28.3 104.7 28.3 104.7 29.4 100.9 29.4 100.9 24.7 104.7 24.7 104.7 25.8 102.2 25.8"/>
      <path class="st0" d="M130.4,24.5v5h-1.3v-.5l-.2.2c-.6.5-1.5.4-2-.2-.8-.9-.6-2.7.5-3.2s1.3-.1,1.7.4v-1.7h1.3ZM128.2,26.8c-.8.1-.8,1.6,0,1.6,1.1,0,1.1-1.8,0-1.6Z"/>
      <path class="st0" d="M159.8,24.5v5h-1.3v-.5c-.4.4-.8.6-1.4.5-1.2-.2-1.6-1.6-1.3-2.6s1.8-1.6,2.6-.7v-1.7h1.3ZM157.6,26.8c-.8.1-.8,1.6,0,1.6,1.1.1,1.1-1.8,0-1.6Z"/>
      <path class="st0" d="M124,29.4h-1.3v-2.1s0-.2,0-.2c-.2-.3-.8-.3-.9,0s0,.2,0,.2v2.1h-1.3v-3.7h1.3v.5c.4-.4.8-.7,1.4-.5s.9.6.9,1.1v2.6Z"/>
      <path class="st0" d="M162.1,25.7c2.8-.2,3,3.7.4,3.8-2.7.2-3-3.6-.4-3.8ZM162.2,26.8c-1,.1-.8,1.7.2,1.6s.9-1.8-.2-1.6Z"/>
      <path class="st0" d="M155.2,29.4h-1.3v-.4l-.3.2c-.9.5-2.2,0-2-1.2s1-.9,1.7-.9.4,0,.6.1c0-.9-1.2-.6-1.7-.4l-.3-.9c.3-.1.7-.2,1-.3,1.1-.1,2.2.1,2.2,1.4v2.3ZM154,27.9c-.3-.1-1-.2-1.1.3s.9.6,1.1,0,0-.2,0-.4Z"/>
      <path class="st0" d="M144.3,28c.2.6.8.7,1.3.4s.2-.1.2-.2c0,0,.7.6.7.6s-.3.3-.3.3c-1,.8-2.8.4-3.2-.9s.4-2.4,1.6-2.5,1.9.7,2,1.9,0,.4,0,.4h-2.4ZM145.5,27.3c0-.9-1.2-.8-1.2,0h1.2Z"/>
      <path class="st0" d="M132.2,28c.2.6.8.7,1.3.4s.2-.1.2-.2c0,0,.7.6.7.6s-.3.3-.3.3c-1,.8-2.8.4-3.2-.9s.4-2.4,1.6-2.5,1.9.7,2,1.9,0,.4,0,.4h-2.4ZM133.4,27.3c0-.9-1.2-.8-1.2,0h1.2Z"/>
      <path class="st0" d="M117.4,28c.2.6.8.7,1.3.4s.2-.1.2-.2c0,0,.7.6.7.6s-.3.3-.3.3c-1,.8-2.8.4-3.2-.9s.4-2.4,1.6-2.5,1.9.7,2,1.9,0,.4,0,.4h-2.4ZM118.6,27.3c0-.9-1.2-.8-1.2,0h1.2Z"/>
      <polygon class="st0" points="113.2 24.7 113.2 25.9 111.8 25.9 111.8 29.4 110.4 29.4 110.4 25.9 109 25.9 109 24.7 113.2 24.7"/>
      <polygon class="st0" points="140.5 24.7 140.5 28.3 142.8 28.3 142.8 29.4 139.2 29.4 139.2 24.7 140.5 24.7"/>
      <rect class="st0" x="105.3" y="24.5" width="1.3" height="5"/>
      <rect class="st0" x="135.2" y="24.5" width="1.3" height="5"/>
      <path class="st0" d="M115.9,25.7v1.4c-.5,0-.9.1-1.1.6s-.1.3-.1.4v1.4h-1.3v-3.7h1.3v.7l.2-.3c.2-.3.6-.4,1-.4Z"/>
      <path class="st0" d="M104.7,25.8h-2.5s2.5,0,2.5,0Z"/>
      <path class="st0" d="M109.6,5.3v16.1s-13.1,0-13.1,0c0-4.1,0-8.2,0-12.3.1-2.1,1.7-3.7,3.8-3.7h0s9.3,0,9.3,0ZM98.9,11.4l-.9,3.3,1.5.4.9-3.3-1.5-.4ZM107.2,11.5l-1.5.4.9,3.3,1.5-.4-.9-3.3ZM102.9,11.8c-.6,0-1.2.6-1.3,1.2s0,.8.4.6.3-.3.5-.4.7-.3.9-.3.2,0,.4.2l2.1,1.9c0,0,.2,0,.3,0l-.7-2.5c0,0-.3,0-.4,0-.4,0-.6-.2-.9-.4s-.8-.3-1.2-.2ZM101.7,12c-.2,0-.5,0-.7,0s-.3,0-.3.1l-.6,2.3c0,.1.2.3.2.4.5.6,1.5,1.5,2.2,1.9s.3.2.4,0,0-.3-.2-.4-.5-.4-.5-.5,0-.2.1-.2.1,0,.2,0c.4.2.7.7,1,.9s0,0,.1,0c.3.1.5-.2.4-.4s-.6-.5-.8-.7-.2-.2-.2-.3c0-.2.2-.2.3-.1.4.3.8.8,1.2,1.1s.7-.1.5-.5-.7-.6-1-.8-.3-.2-.3-.3.1-.2.2-.2c.4.2.7.5,1,.8s.3.3.5,0,0-.3,0-.5c-.4-.4-.9-.7-1.3-1.1s-.6-.6-.8-.6-.4,0-.5,0c-.4.2-.5.6-1,.7-.9.1-.8-1-.5-1.5s.2-.3.3-.4,0,0,0,0Z"/>
      <path class="st0" d="M134.4,5.3c1.7,0,3.1,1.5,3.1,3.2v12.9h-12.7V5.3h9.5ZM131.7,9.7c0-.5-.4-.8-.8-.8s-.8.4-.8.8.4.8.8.8.8-.4.8-.8ZM133.3,16.6h-.5c0,0-.2.1-.2.2,0,.2,0,.2,0,.3,0,.1-.2.5-.1.6s0,0,0,0h2.3c.1,0-.1-.6-.1-.6s0-.1,0-.2c0-.1,0-.2-.1-.3-.1,0-.6,0-.8,0s0,0-.1,0l-1.8-3c0,0,0-.2,0-.2,0-.2,0-.4-.2-.5-.3-.1-.8-.2-1.1-.3s0,0-.1,0c-.1-.4-.3-.7-.4-1.1l.5.8s0,0,0,0c0,0,.3-.7.3-.8,0-.3-.1-.4-.4-.6s-.9-.4-1.1-.4-.2,0-.3,0c-.4.1-1.1.5-1.5.7s-.3.3-.2.6l.6.8c0,.1-.2.5-.2.7,0,.2,0,.4,0,.6.2.5.6,1,.8,1.5h0c-.2.6-.4,1.2-.6,1.7s0,.3,0,.4.2.2.3.2c.3,0,.5-.1.6-.4.2-.6.4-1.3.6-1.9v-.2c0-.2-.7-1.3-.6-1.3s0,0,0,0c.2.5.5.9.7,1.4l-.2,1.9c0,.2.1.4.4.4.3,0,.5-.2.5-.5,0-.5.2-1.3.2-1.8s0-.2,0-.3c0-.3-.7-1.1-.7-1.4s0-.1,0-.2-.3,0-.3-.1c-.3-.2-.3-.4-.3-.7v-1c0,0,.3,1.3.3,1.3,0,.1.1.2.3.3.2.1,1.2.3,1.3.4l1.7,2.9h0Z"/>
      <path class="st0" d="M123.7,5.3v16.1s-8.3,0-8.3,0c-2.6-.2-4.5-2.2-4.6-4.7V5.3h12.9ZM116.4,9.1c-.3,0-1.3.7-1.6.9s-.2.3-.2.5.3.4.4.4c1.1,0,2.1,0,3.2,0,.2-.2.5-.4.3-.7s-.8-.6-1-.7c-.4-.2-.7-.4-1.1-.3ZM118.2,11.4h-3.2c0,.4.4.7.8.7s1.1,0,1.5,0,.8-.3.8-.7ZM119.7,11.9c0,0-.2,0-.2.1-.2.2-.4.7-.6,1s-.2.3-.1.4c.2.3.4.8.7,1.1s0,.1.2.1c.3,0,1,0,1.4,0s.1,0,.2-.1c.3-.3.4-.9.7-1.2,0-.1,0-.2,0-.3-.1-.3-.4-.7-.6-1s0-.2-.2-.2c-.4,0-.9,0-1.2,0s0,0-.1,0ZM115,12.3c0,.1,0,.5,0,.6,0,.3.2.6.3.8.7,1,2.3.8,2.8-.2s.2-.8.1-1.2c0,0-.3.1-.3.2-.3.1-.4,0-.6.1-.5,0-1.5,0-1.9,0s-.3-.2-.4-.2,0,0,0,0ZM117.2,14.7c-.2,0-.5,0-.7,0s-.4,0-.4,0l.6.8.6-.8ZM115.6,14.9s-.3.2-.3.2c0,0,0,.2,0,.2.2.2.4.6.6.8s.2,0,.3,0,.3-.2.2-.3c-.1-.1-.7-1-.7-1s0,0,0,0ZM117.6,14.9c0,0-.6.9-.8,1,0,0,.2.2.3.3.1,0,.2,0,.3,0l.6-.8c0,0,0-.2,0-.2s-.3-.2-.3-.2ZM120.2,15.2s0,0,0,0v2.3c0,0,.2.2.3.2s.2-.1.2-.2v-2.2s0,0,0,0h-.4ZM116.4,16.6c-.3,0-.6.1-.9-.2s-.6-.8-.7-.9,0-.3-.2-.3c-.5,0-1,.4-1.1.8s0,.5,0,.7,0,.5,0,.7c0,0,.1.1.2.1s.6,0,.7,0,0,0,0,0c0-.2-.1-.6.2-.7s.2.1.2.2v.5s0,0,0,0h1.4s0,0,0,0v-1ZM118.9,17.6s.7,0,.7,0c0,0,.2,0,.2-.2,0-.2,0-.8,0-1,0-.6-.6-1.1-1.2-1.1s-.2,0-.2.2-.6.9-.8,1.1-.3.1-.5.1-.2,0-.3,0v1s0,0,0,0c.4,0,.9,0,1.4,0s0,0,.1,0v-.5c0-.1.1-.2.3-.2s.2.1.2.2v.5Z"/>
      <path class="st0" d="M151.1,5.3v16.1s-8.6,0-8.6,0c-2-.1-3.7-1.8-3.8-3.8V5.3h12.4ZM143.6,9.3c-1.2,0-2,1.2-1.7,2.4s2,2.5,3,3,.1,0,.2,0,.5-.3.7-.4c1-.6,2.4-1.8,2.6-3s-1.7-2.7-3.1-1.7-.1.2-.2.2-.2-.1-.2-.2c-.4-.3-.9-.5-1.4-.4ZM145.3,15.2h0v.5s0,0,0,0c0,0,0,0,0,.1s-.4.2-.5.2c-.2.1-.6.4-.9.4s-.5-.2-.7-.1-.2,0-.2.1c-.3.1-.7.2-1,.4s-.4.3-.4.3c0,0,0,.1,0,.2s-.2,0-.3.1l-1,.2h10.5-.2c-.1,0-.4,0-.5-.1s-.1-.2-.2-.2c0,0-.4-.3-.5-.3s-.7-.3-.8-.3-.1,0-.2,0c-.1,0-.3-.2-.5-.3s-.2,0-.3,0,0,0-.2-.1c-.2,0-.5,0-.7-.1l-1.3-.3c0-.1,0-.2,0-.2s0-.2,0-.2v-.3Z"/>
      <path class="st0" d="M161.6,5.3c3.6,0,6.6,2.9,6.9,6.4v9.7h-16V5.3h9.1ZM160.6,9.1c0-.2-.1-.3-.3-.3s-.3.1-.3.3.1.3.3.3.3-.1.3-.3ZM159.2,10.4c.1,0,.3,0,.5,0s0,0,0,0v-.4s-.3-.2-.4-.2c-1.4-.5-3-.5-4.3,0s-.3.1-.3.2v.4h.3s0,4.8,0,4.8h8.7v.5h-8.8c-.2.4-.2.8,0,1.2.4.8,1.5,1,2.2.4s0,0,0-.1c0,0,.7,0,.7,0s.2.2.2.2c.4.4,1,.4,1.5.1s.2-.2.3-.2.7,0,.8,0,.1.1.2.2c.3.3.6.3,1,0s.1-.2.4-.2.1.1.2.2c.4.3.6.3,1,0s.1-.2.2-.2h.4v.3h2.2l-1.5-1.9c.2,0,.3,0,.4-.1.2-.2.2-.5.3-.7s.1-.2.2-.3c.2-.4.2-1.1,0-1.5s-.1-.1-.1-.2c0-.1,0-.3-.2-.5s-.2-.4-.4-.4h-.8c0-.2,0-.3.1-.4s.1,0,.1,0h.7v-1s0,0,0,0h-.6s-.2,0-.2,0c-.7.1-1.1.8-1.1,1.4h-.5v-1.7c0,0,.4-.6.4-.7s0,0,0,0h-2.3s.4.8.4.8v1.7h-.5v-.8s0-.2-.1-.2c-.2-.2-.5-.2-.7,0s-.1.2-.1.2v.8h-.7v-1.8Z"/>
    </g>
    <g>
      <g>
        <path d="M20.4,12h-1.1c-.1,0-.2,0-.2.2v1.9c0,0-.1.1-.2,0l-1.8-2.1s0,0-.1,0h-1c-.1,0-.2,0-.2.2v4.7c0,.1,0,.2.2.2h1.1c.1,0,.2,0,.2-.2v-2.1c0,0,.1-.1.2,0l1.8,2.3s0,0,.1,0h1c.1,0,.2,0,.2-.2v-4.7c0-.1,0-.2-.2-.2ZM16.2,15.4h-.1c0-.1.1-.1.1-.1h0ZM16.3,15.1h-.1c0-.1.1-.1.1-.1h0ZM16.3,12.9h-.1c0-.1.1-.1.1-.1h0ZM16.7,15.1h-.1c0-.1.1-.1.1-.1h0ZM16.7,13.9h-.1c0-.1.1-.1.1-.1h0ZM17.4,13.8h-.1c0-.1.1-.1.1-.1h0ZM19.1,15.5h-.1c0-.1.1-.1.1-.1h0ZM19.2,15h.1c0,.1-.1.1-.1.1h0ZM19.4,15.8h-.1c0-.1.1-.1.1-.1h0ZM19.6,13.2h.1c0,.1-.1.1-.1.1h0ZM19.8,15.6h-.1c0-.1.1-.1.1-.1h0ZM19.8,14.6h-.1c0-.1.1-.1.1-.1h0Z"/>
        <path d="M37.1,12h-1.2c0,0-.1,0-.1,0l-1.1,1.6c0,0-.1,0-.1,0l-1.1-1.6s0,0-.1,0h-1.2c-.1,0-.2,0-.2.2v4.7c0,.1,0,.2.2.2h1c.1,0,.2,0,.2-.2v-2.2c0,0,.1-.1.2,0l1,1.3c0,.1.2.1.3,0l1-1.3c0,0,.2,0,.2,0v2.2c0,.1,0,.2.2.2h1c.1,0,.2,0,.2-.2v-4.7c0-.1,0-.2-.2-.2ZM32.3,13.7h.1c0,.1-.1.1-.1.1h0ZM32.5,16h-.1c0-.1.1-.1.1-.1h0ZM32.5,13.3h-.1c0-.1.1-.1.1-.1h0ZM32.6,12.6h-.1c0-.1.1-.1.1-.1h0ZM32.8,13.3h-.1c0-.1.1-.1.1-.1h0ZM32.9,12.9h.1c0,.1-.1.1-.1.1h0ZM33.1,13.7h-.1c0-.1.1-.1.1-.1h0ZM33.5,13.4h-.1c0-.1.1-.1.1-.1h0ZM34.1,14h-.1c0-.1.1-.1.1-.1h0ZM35.9,13.5h-.1c0-.1.1-.1.1-.1h0ZM36.2,13.8h-.1c0-.1.1-.1.1-.1h0ZM36.5,15.3h-.1c0-.1.1-.1.1-.1h0ZM36.6,13.6h-.1c0-.1.1-.1.1-.1h0Z"/>
        <path d="M63.8,12h-1.2c0,0-.1,0-.1,0l-1.1,1.6c0,0-.1,0-.1,0l-1.1-1.6s0,0-.1,0h-1.2c-.1,0-.2,0-.2.2v4.7c0,.1,0,.2.2.2h1c.1,0,.2,0,.2-.2v-2.2c0,0,.1-.1.2,0l1,1.3c0,.1.2.1.3,0l1-1.3c0,0,.2,0,.2,0v2.2c0,.1,0,.2.2.2h1c.1,0,.2,0,.2-.2v-4.7c0-.1,0-.2-.2-.2ZM59,13.7h.1c0,.1-.1.1-.1.1h0ZM59.2,16h-.1c0-.1.1-.1.1-.1h0ZM59.2,13.3h-.1c0-.1.1-.1.1-.1h0ZM59.3,12.6h-.1c0-.1.1-.1.1-.1h0ZM59.6,13.3h-.1c0-.1.1-.1.1-.1h0ZM59.7,12.9h.1c0,.1-.1.1-.1.1h0ZM59.9,13.7h-.1c0-.1.1-.1.1-.1h0ZM60.3,13.4h-.1c0-.1.1-.1.1-.1h0ZM60.9,14h-.1c0-.1.1-.1.1-.1h0ZM62.7,13.5h-.1c0-.1.1-.1.1-.1h0ZM62.9,13.8h-.1c0-.1.1-.1.1-.1h0ZM63.3,15.3h-.1c0-.1.1-.1.1-.1h0ZM63.4,13.6h-.1c0-.1.1-.1.1-.1h0Z"/>
        <path d="M10,12h-3.7c-.1,0-.2,0-.2.2v4.7c0,.1,0,.2.2.2h1.1c.1,0,.2,0,.2-.2v-1.4c0,0,0-.1.1-.1h2.1c.1,0,.2,0,.2-.2v-.9c0-.1,0-.2-.2-.2h-2.1c0,0-.1,0-.1-.1v-.4c0,0,0-.1.1-.1h2.3c.1,0,.2,0,.2-.2v-.9c0-.1,0-.2-.2-.2ZM6.4,16.4h-.1c0-.1.1-.1.1-.1h0ZM6.4,13h.1c0,.1-.1.1-.1.1h0ZM6.6,15.1h-.1c0-.1.1-.1.1-.1h0ZM6.7,14.4h-.1c0-.1.1-.1.1-.1h0ZM6.7,12.6h-.1c0-.1.1-.1.1-.1h0ZM6.9,14.5h-.1c0-.1.1-.1.1-.1h0ZM7,14h-.1c0-.1.1-.1.1-.1h0ZM7,14.8h.1c0,.1-.1.1-.1.1h0ZM7.2,15.5h-.1c0-.1.1-.1.1-.1h0ZM7.3,14.7h-.1c0-.1-.1-.1-.1-.1h0c0-.1.1-.1.1-.1h0c0,.1.1.1.1.1h0ZM8.9,14.4h.1c0,.1-.1.1-.1.1h0ZM8.5,14.6h.1c0,.1-.1.1-.1.1h0ZM7.8,14.9h.1c0,.1-.1.1-.1.1h0ZM7.9,12.9h-.1c0-.1-.1-.1-.1-.1h0c0-.1.1-.1.1-.1h0c0,.1.1.1.1.1h0ZM9.1,12.6h-.1c0-.1.1-.1.1-.1h0ZM9.3,12.9h-.1c0-.1.1-.1.1-.1h0Z"/>
        <path d="M76.6,13.2h2.3c.1,0,.2,0,.2-.2v-.8c0-.1,0-.2-.2-.2h-3.7c-.1,0-.2,0-.2.2v4.7c0,.1,0,.2.2.2h1.1s0,0,0,0h2.5c.1,0,.2,0,.2-.2v-.9c0-.1,0-.2-.2-.2h-2.3c0,0-.1,0-.1-.1v-.4c0,0,0-.1.1-.1h2.1c.1,0,.2,0,.2-.2v-.8c0-.1,0-.2-.2-.2h-2.1c0,0-.1,0-.1-.1v-.5c0,0,0-.1.1-.1ZM78.5,12.8h.1c0,.1-.1.1-.1.1h0ZM78.2,12.8h.1c0,.1-.1.1-.1.1h0ZM77.9,12.5h.1c0,.1-.1.1-.1.1h0ZM76.6,12.7h.1c0,.1.1.1.1.1h0c0,.1-.1.1-.1.1h0c0-.1-.1-.1-.1-.1h0ZM75.8,13.9h.1c0,.1-.1.1-.1.1h0ZM75.4,16.4h-.1c0-.1.1-.1.1-.1h0ZM75.4,13h.1c0,.1-.1.1-.1.1h0ZM75.6,15.1h-.1c0-.1.1-.1.1-.1h0ZM75.7,14.4h-.1c0-.1.1-.1.1-.1h0ZM75.7,12.6h-.1c0-.1.1-.1.1-.1h0ZM75.8,14.5h-.1c0-.1.1-.1.1-.1h0ZM76,16.8h-.1c0-.1.1-.1.1-.1h0ZM76,16.1h-.1c0-.1.1-.1.1-.1h0ZM76,14.8h.1c0,.1-.1.1-.1.1h0ZM76.2,15.5h-.1c0-.1.1-.1.1-.1h0ZM76.3,14.7h-.1c0-.1-.1-.1-.1-.1h0c0-.1.1-.1.1-.1h0c0,.1.1.1.1.1h0ZM78.4,16.3h.1c0,.1-.1.1-.1.1h0ZM77.7,16.3h.1c0,.1-.1.1-.1.1h0ZM77.5,16.8h.1c0,.1-.1.1-.1.1h0ZM77.2,16.1h.1c0,.1-.1.1-.1.1h0ZM77.2,16.3h.1c0,.1.1.1.1.1h0c0,.1-.1.1-.1.1h0c0-.1-.1-.1-.1-.1h0ZM76.8,16.7h.1c0,.1-.1.1-.1.1h0ZM78.3,14.5h.1c0,.1-.1.1-.1.1h0ZM78.1,14.1h.1c0,.1-.1.1-.1.1h0ZM77.9,14.4h.1c0,.1-.1.1-.1.1h0ZM77.5,14.6h.1c0,.1-.1.1-.1.1h0ZM76.9,14.2h.1c0,.1-.1.1-.1.1h0ZM76.8,14.9h.1c0,.1-.1.1-.1.1h0Z"/>
        <path d="M57.9,12h-1.1c-.1,0-.2,0-.2.2v1.9c0,0-.1.1-.2,0l-1.8-2.1s0,0-.1,0h-1c-.1,0-.2,0-.2.2v4.7c0,.1,0,.2.2.2h1.1c.1,0,.2,0,.2-.2v-2.1c0,0,.1-.1.2,0l1.8,2.3s0,0,.1,0h1c.1,0,.2,0,.2-.2v-4.7c0-.1,0-.2-.2-.2ZM53.8,15.4h-.1c0-.1.1-.1.1-.1h0ZM53.8,15.1h-.1c0-.1.1-.1.1-.1h0ZM53.8,12.9h-.1c0-.1.1-.1.1-.1h0ZM54.2,15.1h-.1c0-.1.1-.1.1-.1h0ZM54.2,13.9h-.1c0-.1.1-.1.1-.1h0ZM54.9,13.8h-.1c0-.1.1-.1.1-.1h0ZM56.6,15.5h-.1c0-.1.1-.1.1-.1h0ZM56.7,15h.1c0,.1-.1.1-.1.1h0ZM56.9,15.8h-.1c0-.1.1-.1.1-.1h0ZM57.2,13.2h.1c0,.1-.1.1-.1.1h0ZM57.3,15.6h-.1c0-.1.1-.1.1-.1h0ZM57.3,14.6h-.1c0-.1.1-.1.1-.1h0Z"/>
        <path d="M29.4,12.1c0,0,0-.1-.2-.1h-1.2c0,0-.1,0-.2.1l-1.9,4.7c0,.1,0,.3.2.3h1.1c0,0,.2,0,.2-.1l.2-.7c0,0,0-.1.2-.1h1.6c0,0,.2,0,.2.1l.2.7c0,0,0,.1.2.1h1.1c.1,0,.2-.1.2-.3l-1.9-4.7ZM26.7,16h-.1c0-.1.1-.1.1-.1h0ZM26.8,15.5h.1c0,.1-.1.1-.1.1h0ZM27,16.4h-.1c0-.1.1-.1.1-.1h0ZM27.4,16.1h-.1c0-.1.1-.1.1-.1h0ZM27.4,15.1h-.1c0-.1.1-.1.1-.1h0ZM27.7,14.1h-.1c0-.1.1-.1.1-.1h0ZM27.8,13.7h.1c0,.1-.1.1-.1.1h0ZM28,15.8h-.1c0-.1.1-.1.1-.1h0ZM28.3,12.8h.1c0,.1.1.1.1.1h0c0,.1-.1.1-.1.1h0c0-.1-.1-.1-.1-.1h0ZM28.6,13.2h0c0,.1-.1.1-.1.1h0c0-.1.1-.1.1-.1ZM28.9,16h-.1c0-.1.1-.1.1-.1h0ZM28.3,15c0,0-.1,0,0-.1l.4-1c0,0,.2,0,.2,0l.4,1c0,0,0,.1,0,.1h-.8ZM29.2,15.5h-.1c0-.1.1-.1.1-.1h0ZM29.3,13.6h-.1c0-.1.1-.1.1-.1h0ZM29.6,15.5h-.1c0-.1.1-.1.1-.1h0ZM29.6,15.1h0c0-.1.1-.1.1-.1h0c0,.1-.1.1-.1.1ZM29.8,15.8h-.1c0-.1.1-.1.1-.1h0ZM29.9,14.6h-.1c0-.1.1-.1.1-.1h0ZM30.3,15.6h-.1c0-.1.1-.1.1-.1h0ZM30.3,14.6h-.1c0-.1.1-.1.1-.1h0Z"/>
        <path d="M23.5,12h-2.2c-.1,0-.2,0-.2.2v4.7c0,.1,0,.2.2.2h2.2c1.4,0,2.4-1.3,2.4-2.5s-1-2.5-2.4-2.5ZM24.7,13.2h.1c0,.1-.1.1-.1.1h0ZM24.4,12.9h.1c0,.1-.1.1-.1.1h0ZM24,13.2h.1c0,.1-.1.1-.1.1h0ZM22.7,12.7h.1c0,.1-.1.1-.1.1h0ZM21.6,15.5h-.1c0-.1.1-.1.1-.1h0ZM21.8,14.9h-.1c0-.1.1-.1.1-.1h0ZM21.8,13.5h-.1c0-.1.1-.1.1-.1h0ZM21.9,13.8h-.1c0-.1.1-.1.1-.1h0ZM22.1,14.9h-.1c0-.1.1-.1.1-.1h0ZM22.2,14.2h-.1c0-.1.1-.1.1-.1h0ZM22.8,15.7c-.1,0-.2,0-.2-.2v-2.1c0-.1,0-.2.2-.2h.8c.6,0,1,.6,1,1.2s-.4,1.2-1,1.2h-.8ZM23.7,16.3h.1c0,.1-.1.1-.1.1h0ZM23.9,16.6h-.1c0-.1.1-.1.1-.1h0ZM24.2,15.8h-.1c0-.1.1-.1.1-.1h0ZM24.5,15.8h-.1c0-.1.1-.1.1-.1h0ZM24.6,13.7h-.1c0-.1.1-.1.1-.1h0ZM24.6,15.4h.1c0,.1-.1.1-.1.1h0ZM24.8,16.2h-.1c0-.1.1-.1.1-.1h0ZM24.9,14.9h-.1c0-.1.1-.1.1-.1h0ZM25.1,13.2h.1c0,.1-.1.1-.1.1h0ZM25.3,15.9h-.1c0-.1.1-.1.1-.1h0ZM25.3,14.9h-.1c0-.1.1-.1.1-.1h0ZM25.3,14.2h-.1c0-.1.1-.1.1-.1h0ZM25.6,14.2h-.1c0-.1.1-.1.1-.1h0ZM25.5,13.8h0c0-.1.1-.1.1-.1h0c0,.1-.1.1-.1.1Z"/>
        <path d="M15,12h-1.1c-.1,0-.2,0-.2.2v2.8c0,.5-.3.8-.9.8s-.9-.3-.9-.8v-2.8c0-.1,0-.2-.2-.2h-1.1c-.1,0-.2,0-.2.2v2.8c0,1.3,1.1,2.1,2.4,2.1s2.4-.8,2.4-2.1v-2.8c0-.1,0-.2-.2-.2ZM11.5,13.3h.1c0,.1-.1.1-.1.1h0ZM11.1,13.5h.1c0,.1-.1.1-.1.1h0ZM11.1,14.5h.1c0,.1-.1.1-.1.1h0ZM11,15.3h0c0-.1.1-.1.1-.1h0c0,.1-.1.1-.1.1ZM11.2,16.2h-.1c0-.1.1-.1.1-.1h0ZM11.4,14.5h.1c0,.1-.1.1-.1.1h0ZM11.6,16.2h-.1c0-.1.1-.1.1-.1h0ZM11.7,14.1h-.1c0-.1.1-.1.1-.1h0ZM11.7,15.7h.1c0,.1-.1.1-.1.1h0ZM11.9,16.5h-.1c0-.1.1-.1.1-.1h0ZM11.9,13.7h-.1c0-.1.1-.1.1-.1h0ZM12.3,16.3h-.1c0-.1.1-.1.1-.1h0ZM13.7,16.4h-.1c0-.1.1-.1.1-.1h0ZM14.6,12.2h.1c0,.1-.1.1-.1.1h0ZM14.2,15.1h-.1c0-.1.1-.1.1-.1h0ZM14.5,15.3h-.1c0-.1.1-.1.1-.1h0ZM14.5,14h-.1c0-.1.1-.1.1-.1h0ZM14.6,13.2h0c0-.1.1-.1.1-.1h0c0,.1-.1.1-.1.1ZM14.8,13.5h-.1c0-.1.1-.1.1-.1h0Z"/>
        <path d="M42.5,12.2c0-.1,0-.2-.2-.2h-1.1c-.1,0-.2,0-.2.2v1h-1.7v-1c0-.1,0-.2-.2-.2h-1.1c-.1,0-.2,0-.2.2v1h-.3v1.4h.3v.4c0,1.3,1.1,2.1,2.4,2.1s2.4-.8,2.4-2.1v-.4h.2v-1.4h-.2v-1ZM38.8,13.3h.1c0,.1-.1.1-.1.1h0ZM38.4,13.5h.1c0,.1-.1.1-.1.1h0ZM38.4,14.5h.1c0,.1-.1.1-.1.1h0ZM38.4,15.3h0c0-.1.1-.1.1-.1h0c0,.1-.1.1-.1.1ZM38.6,16.2h-.1c0-.1.1-.1.1-.1h0ZM38.7,14.5h.1c0,.1-.1.1-.1.1h0ZM38.9,16.2h-.1c0-.1.1-.1.1-.1h0ZM39,14.1h-.1c0-.1.1-.1.1-.1h0ZM39,15.7h.1c0,.1-.1.1-.1.1h0ZM39.2,16.5h-.1c0-.1.1-.1.1-.1h0ZM39.2,13.7h-.1c0-.1.1-.1.1-.1h0ZM39.7,16.3h-.1c0-.1.1-.1.1-.1h0ZM41,16.4h-.1c0-.1.1-.1.1-.1h0ZM41,15c0,.5-.3.8-.9.8s-.9-.3-.9-.8v-.4h1.7v.4ZM41.9,12.2h.1c0,.1-.1.1-.1.1h0ZM41.6,15.1h-.1c0-.1.1-.1.1-.1h0ZM41.8,15.3h-.1c0-.1.1-.1.1-.1h0ZM41.8,14h-.1c0-.1.1-.1.1-.1h0ZM41.9,13.2h0c0-.1.1-.1.1-.1h0c0,.1-.1.1-.1.1ZM42.1,13.5h-.1c0-.1.1-.1.1-.1h0Z"/>
        <path d="M52.7,12.2c0-.1,0-.2-.2-.2h-1.1c-.1,0-.2,0-.2.2v1h-1.7v-1c0-.1,0-.2-.2-.2h-1.1c-.1,0-.2,0-.2.2v1h-.3v1.4h.3v.4c0,1.3,1.1,2.1,2.4,2.1s2.4-.8,2.4-2.1v-.4h.2v-1.4h-.2v-1ZM49,13.3h.1c0,.1-.1.1-.1.1h0ZM48.6,13.5h.1c0,.1-.1.1-.1.1h0ZM48.6,14.5h.1c0,.1-.1.1-.1.1h0ZM48.5,15.3h0c0-.1.1-.1.1-.1h0c0,.1-.1.1-.1.1ZM48.8,16.2h-.1c0-.1.1-.1.1-.1h0ZM48.9,14.5h.1c0,.1-.1.1-.1.1h0ZM49.1,16.2h-.1c0-.1.1-.1.1-.1h0ZM49.2,14.1h-.1c0-.1.1-.1.1-.1h0ZM49.2,15.7h.1c0,.1-.1.1-.1.1h0ZM49.4,16.5h-.1c0-.1.1-.1.1-.1h0ZM49.4,13.7h-.1c0-.1.1-.1.1-.1h0ZM49.8,16.3h-.1c0-.1.1-.1.1-.1h0ZM51.2,16.4h-.1c0-.1.1-.1.1-.1h0ZM51.2,15c0,.5-.3.8-.9.8s-.9-.3-.9-.8v-.4h1.7v.4ZM52.1,12.2h.1c0,.1-.1.1-.1.1h0ZM51.7,15.1h-.1c0-.1.1-.1.1-.1h0ZM52,15.3h-.1c0-.1.1-.1.1-.1h0ZM52,14h-.1c0-.1.1-.1.1-.1h0ZM52.1,13.2h0c0-.1.1-.1.1-.1h0c0,.1-.1.1-.1.1ZM52.3,13.5h-.1c0-.1.1-.1.1-.1h0Z"/>
        <path d="M69.3,12.2c0-.1,0-.2-.2-.2h-1.1c-.1,0-.2,0-.2.2v1h-1.7v-1c0-.1,0-.2-.2-.2h-1.1c-.1,0-.2,0-.2.2v1h-.3v1.4h.3v.4c0,1.3,1.1,2.1,2.4,2.1s2.4-.8,2.4-2.1v-.4h.2v-1.4h-.2v-1ZM65.6,13.3h.1c0,.1-.1.1-.1.1h0ZM65.2,13.5h.1c0,.1-.1.1-.1.1h0ZM65.2,14.5h.1c0,.1-.1.1-.1.1h0ZM65.1,15.3h0c0-.1.1-.1.1-.1h0c0,.1-.1.1-.1.1ZM65.3,16.2h-.1c0-.1.1-.1.1-.1h0ZM65.5,14.5h.1c0,.1-.1.1-.1.1h0ZM65.7,16.2h-.1c0-.1.1-.1.1-.1h0ZM65.8,14.1h-.1c0-.1.1-.1.1-.1h0ZM65.8,15.7h.1c0,.1-.1.1-.1.1h0ZM66,16.5h-.1c0-.1.1-.1.1-.1h0ZM66,13.7h-.1c0-.1.1-.1.1-.1h0ZM66.4,16.3h-.1c0-.1.1-.1.1-.1h0ZM67.8,16.4h-.1c0-.1.1-.1.1-.1h0ZM67.8,15c0,.5-.3.8-.9.8s-.9-.3-.9-.8v-.4h1.7v.4ZM68.7,12.2h.1c0,.1-.1.1-.1.1h0ZM68.3,15.1h-.1c0-.1.1-.1.1-.1h0ZM68.6,15.3h-.1c0-.1.1-.1.1-.1h0ZM68.6,14h-.1c0-.1.1-.1.1-.1h0ZM68.7,13.2h0c0-.1.1-.1.1-.1h0c0,.1-.1.1-.1.1ZM68.9,13.5h-.1c0-.1.1-.1.1-.1h0Z"/>
        <rect x="49.9" y="11.1" width="1.2" height=".5" rx=".2" ry=".2" transform="translate(6.8 39.1) rotate(-45)"/>
        <path d="M72.8,14.3c0,0,0-.2,0-.2l1.7-1.8c0,0,0-.2,0-.2h-1.4c0,0-.1,0-.1,0l-1.4,1.7c0,0-.2,0-.2,0v-1.5c0-.1,0-.2-.2-.2h-1c-.1,0-.2,0-.2.2v4.7c0,.1,0,.2.2.2h1c.1,0,.2,0,.2-.2v-1.2l.3-.3c0,0,.2,0,.3,0l1.1,1.6c0,0,0,0,.2,0h1.2c.2,0,.2-.2.2-.3l-1.7-2.5ZM73.1,13.3h-.1c0-.1.1-.1.1-.1h0ZM72.9,12.8h.1c0,.1-.1.1-.1.1h0ZM70.6,13.9h.1c0,.1-.1.1-.1.1h0ZM70.2,16.4h-.1c0-.1.1-.1.1-.1h0ZM70.2,13h.1c0,.1-.1.1-.1.1h0ZM70.4,15.1h-.1c0-.1.1-.1.1-.1h0ZM70.5,14.4h-.1c0-.1.1-.1.1-.1h0ZM70.5,12.6h-.1c0-.1.1-.1.1-.1h0ZM70.5,14.4h.1c0,.1-.1.1-.1.1h0ZM70.6,16h.1c0,.1-.1.1-.1.1h0ZM70.8,16.8h-.1c0-.1.1-.1.1-.1h0ZM70.8,14.8h.1c0,.1-.1.1-.1.1h0ZM71,15.5h-.1c0-.1.1-.1.1-.1h0ZM71.1,14.7h-.1c0-.1-.1-.1-.1-.1h0c0-.1.1-.1.1-.1h0c0,.1.1.1.1.1h0ZM71.6,14.4h-.1c0-.1.1-.1.1-.1h0ZM71.7,14h-.1c0-.1.1-.1.1-.1h0ZM71.9,14.6h-.1c0-.1.1-.1.1-.1h0ZM72.1,13.8h-.1c0-.1.1-.1.1-.1h0ZM72.3,14.4h-.1c0-.1.1-.1.1-.1h0ZM72.4,13.7h.1c0,.1-.1.1-.1.1h0ZM72.6,15.9h-.1c0-.1.1-.1.1-.1h0ZM72.7,15.2h-.1c0-.1.1-.1.1-.1h0ZM72.7,13.7h-.1c0-.1.1-.1.1-.1h0ZM72.7,13.3h-.1c0-.1.1-.1.1-.1h0ZM72.9,15.3h-.1c0-.1.1-.1.1-.1h0ZM73,16.9h-.1c0-.1.1-.1.1-.1h0ZM73.1,15.6h0c0-.1.1-.1.1-.1h0c0,.1-.1.1-.1.1ZM73.2,16.2h-.1c0-.1.1-.1.1-.1h0ZM73.2,15.3h-.1c0-.1.1-.1.1-.1h0Z"/>
        <path d="M46.6,15.4c0,0,0-.1,0-.2.6-.3.9-.8.9-1.5,0-1-.7-1.7-2.1-1.7h-2.2c-.1,0-.2,0-.2.2v4.7c0,.1,0,.2.2.2h1c.1,0,.2,0,.2-.2v-1.2c0,0,0-.1.1-.1h.3s0,0,.1,0l1,1.4c0,0,0,0,.2,0h1.2c.2,0,.2-.2.2-.3l-1-1.4ZM46.9,13.2h.1c0,.1-.1.1-.1.1h0ZM43.6,15.1h-.1c0-.1.1-.1.1-.1h0ZM43.8,16h-.1c0-.1.1-.1.1-.1h0ZM44.1,14.9h-.1c0-.1.1-.1.1-.1h0ZM44.2,12.4h-.1c0-.1.1-.1.1-.1h0ZM45.8,12.6h.1c0,.1-.1.1-.1.1h0ZM44.9,12.8h.1c0,.1-.1.1-.1.1h0ZM44.8,15h-.1c0-.1.1-.1.1-.1h0ZM45.4,15.5h-.1c0-.1.1-.1.1-.1h0ZM45.7,15.5h-.1c0-.1.1-.1.1-.1h0ZM46,15.9h-.1c0-.1.1-.1.1-.1h0ZM45.8,15.1h0c0-.1.1-.1.1-.1h0c0,.1-.1.1-.1.1ZM45.4,14.4h-.7c-.1,0-.2,0-.2-.2v-.7c0-.1,0-.2.2-.2h.7c.5,0,.7.2.7.6s-.2.6-.7.6ZM46.2,14.4h.1c0,.1-.1.1-.1.1h0ZM46.4,15.6h-.1c0-.1.1-.1.1-.1h0Z"/>
      </g>
      <g>
        <path d="M6.2,18.6h1.2v.3h-.9v.4h.8v.3h-.8v.4h1v.3h-1.2v-1.7Z"/>
        <path d="M8.4,20l.2-.2c.2.1.3.2.5.2s.3,0,.3-.2h0c0-.1,0-.2-.4-.3-.4,0-.6-.2-.6-.5h0c0-.3.2-.5.6-.5s.4,0,.6.2l-.2.2c-.1-.1-.3-.2-.5-.2s-.3,0-.3.2h0c0,.1,0,.2.4.3.4,0,.5.2.5.5h0c0,.3-.2.5-.6.5s-.5,0-.7-.3Z"/>
        <path d="M10.9,18.6h.7c.4,0,.6.2.6.6h0c0,.4-.3.6-.7.6h-.3v.5h-.3v-1.7ZM11.5,19.5c.2,0,.4-.1.4-.3h0c0-.2-.1-.3-.4-.3h-.3v.6h.3Z"/>
        <path d="M13.7,18.6h.3l.7,1.7h-.3l-.2-.4h-.8l-.2.4h-.3l.7-1.7ZM14.1,19.6l-.3-.7-.3.7h.6Z"/>
        <path d="M15.6,19.4h0c0-.5.4-.9.9-.9s.5.1.7.3l-.2.2c-.1-.1-.3-.2-.5-.2-.3,0-.5.3-.5.6h0c0,.3.2.6.5.6s.3,0,.5-.2l.2.2c-.2.2-.4.3-.7.3-.5,0-.8-.4-.8-.9Z"/>
        <path d="M18.2,18.6h.3v1.7h-.3v-1.7Z"/>
        <path d="M19.6,19.4h0c0-.5.4-.9.9-.9s.9.4.9.9h0c0,.5-.4.9-.9.9s-.9-.4-.9-.9ZM21.1,19.4h0c0-.3-.2-.6-.6-.6s-.6.3-.6.6h0c0,.3.2.6.6.6s.6-.3.6-.6Z"/>
        <path d="M24,18.6h.6c.5,0,.9.4.9.8h0c0,.5-.4.8-.9.8h-.6v-1.7ZM24.6,20c.3,0,.6-.2.6-.6h0c0-.3-.2-.6-.6-.6h-.3v1.1h.3Z"/>
        <path d="M26.7,18.6h1.2v.3h-.9v.4h.8v.3h-.8v.4h1v.3h-1.2v-1.7Z"/>
        <path d="M30.5,18.6h.6c.5,0,.9.4.9.8h0c0,.5-.4.8-.9.8h-.6v-1.7ZM31.1,20c.3,0,.6-.2.6-.6h0c0-.3-.2-.6-.6-.6h-.3v1.1h.3Z"/>
        <path d="M33.2,18.6h.3v1.7h-.3v-1.7Z"/>
        <path d="M35.3,18.6h.3l.7,1.7h-.3l-.2-.4h-.8l-.2.4h-.3l.7-1.7ZM35.7,19.6l-.3-.7-.3.7h.6ZM35.6,18.1h.3c0,.1-.3.3-.3.3h-.2l.3-.3Z"/>
        <path d="M37.4,18.6h.3v1.4h.9v.3h-1.2v-1.7Z"/>
        <path d="M39.5,19.4h0c0-.5.4-.9.9-.9s.9.4.9.9h0c0,.5-.4.9-.9.9s-.9-.4-.9-.9ZM40.9,19.4h0c0-.3-.2-.6-.6-.6s-.6.3-.6.6h0c0,.3.2.6.6.6s.6-.3.6-.6Z"/>
        <path d="M42.3,19.4h0c0-.5.4-.9.9-.9s.5,0,.6.2l-.2.2c-.1-.1-.3-.2-.5-.2-.3,0-.5.3-.5.6h0c0,.3.2.6.6.6s.3,0,.4-.1v-.3h-.4v-.3h.7v.7c-.2.1-.4.3-.7.3-.5,0-.9-.4-.9-.9Z"/>
        <path d="M44.9,19.4h0c0-.5.4-.9.9-.9s.9.4.9.9h0c0,.5-.4.9-.9.9s-.9-.4-.9-.9ZM46.4,19.4h0c0-.3-.2-.6-.6-.6s-.6.3-.6.6h0c0,.3.2.6.6.6s.6-.3.6-.6Z"/>
        <path d="M49.3,18.6h.3v1.7h-.3v-1.7Z"/>
        <path d="M50.8,18.6h.3l.9,1.2v-1.2h.3v1.7h-.2l-.9-1.2v1.2h-.3v-1.7Z"/>
        <path d="M53.9,18.9h-.5v-.3h1.4v.3h-.5v1.4h-.3v-1.4Z"/>
        <path d="M55.8,18.6h1.2v.3h-.9v.4h.8v.3h-.8v.4h1v.3h-1.2v-1.7Z"/>
        <path d="M58.2,18.6h.7c.2,0,.4,0,.5.2,0,0,.1.2.1.4h0c0,.3-.2.4-.4.5l.4.6h-.3l-.4-.6h-.4v.6h-.3v-1.7ZM58.9,19.4c.2,0,.3-.1.3-.3h0c0-.2-.1-.3-.3-.3h-.4v.6h.4Z"/>
        <path d="M60.6,19.4h0c0-.5.4-.9.9-.9s.5.1.7.3l-.2.2c-.1-.1-.3-.2-.5-.2-.3,0-.5.3-.5.6h0c0,.3.2.6.5.6s.3,0,.5-.2l.2.2c-.2.2-.4.3-.7.3-.5,0-.8-.4-.8-.9Z"/>
        <path d="M63.2,19.5v-1h.3v.9c0,.3.2.5.4.5s.4-.2.4-.5v-1h.3v.9c0,.5-.3.7-.7.7s-.7-.2-.7-.7Z"/>
        <path d="M65.8,18.6h.3v1.4h.9v.3h-1.2v-1.7Z"/>
        <path d="M68.3,18.9h-.5v-.3h1.4v.3h-.5v1.4h-.3v-1.4Z"/>
        <path d="M70.1,19.5v-1h.3v.9c0,.3.2.5.4.5s.4-.2.4-.5v-1h.3v.9c0,.5-.3.7-.7.7s-.7-.2-.7-.7Z"/>
        <path d="M72.8,18.6h.7c.2,0,.4,0,.5.2,0,0,.1.2.1.4h0c0,.3-.2.4-.4.5l.4.6h-.3l-.4-.6h-.4v.6h-.3v-1.7ZM73.5,19.4c.2,0,.3-.1.3-.3h0c0-.2-.1-.3-.3-.3h-.4v.6h.4Z"/>
        <path d="M75.9,18.6h.3l.7,1.7h-.3l-.2-.4h-.8l-.2.4h-.3l.7-1.7ZM76.3,19.6l-.3-.7-.3.7h.6Z"/>
        <path d="M77.9,18.6h.3v1.4h.9v.3h-1.2v-1.7Z"/>
      </g>
    </g>
  </g>
</svg>