<?xml version="1.0" encoding="UTF-8"?>
<svg id="Arte" xmlns="http://www.w3.org/2000/svg" version="1.1" viewBox="0 0 329.6 38.5">
  <!-- Generator: Adobe Illustrator 29.0.0, SVG Export Plug-In . SVG Version: 2.1.0 Build 186)  -->
  <defs>
    <style>
      .st0 {
        fill: blue;
      }
    </style>
  </defs>
  <g>
    <path class="st0" d="M319.9,6.4c-.2,0-.5,0-.7,0,0,0,0-.1,0-.2,0,0,.5-.3.6-.3,0,0,0-.3,0-.3-1.3-.8-2.7-1.4-4-1.9-.5-.2-1.1-.4-1.6-.5-.2,0-.3,0-.5-.1-.3,0-.6-.1-.8-.2-.6-.2-1.3-.3-1.9-.3-.2,0-.3,0-.5,0-.6,0-1.2,0-1.9,0-.5,0-4.9.3-5.2.3-.4,0-.7.1-1.1.1-.6,0-1.2-.1-1.6-.6-.4-.4-.9-.7-1.5-.9,0,0-.1,0-.2,0,0,0,0,.1,0,.2.2.3.3.5.5.8,0,.1.1.2.1.3,0,.1,0,.2,0,.3,0,.2-.1.3-.3.4,0,0-.2.1-.2.2,0,0-.1,0-.2,0-.1,0-.3,0-.4,0-.3.3-.7.4-1.1.3-.1,0-.2,0-.3,0,0,0,0,0,0,0,0,0-.1.1-.2.2-.2,0-.4.1-.6,0-.2,0-.3,0-.4.1-.1.2-.5.3-.7.2,0,0,0,0,0,0,0,0,0,0,0,0-.1,0-.2,0-.3,0-.1.2-.3.3-.5.3-.1,0-.2,0-.3,0,0,0,0,0,0,0-.1,0-.2,0-.3.1,0,.2-.2.2-.3.3-.2,0-.3,0-.4,0-.1,0-.2,0-.3,0-.2.2-.4.4-.7.2,0,0-.2,0-.3,0,0,0,0,0-.2.1,0,0-.2,0-.2,0,0,0,0,0,0,0-.1,0-.2,0-.4,0,0,0,0,0-.1,0,0,0,0,0,0,0-.2,0-.3,0-.5,0-.4-.4-.7-.8-1.1-1.2s-.5-.7-.8-1.1-.3-.4-.4-.5c-.2-.2-.5-.4-.7-.7-.3-.3-.6-.4-1-.6,0,0-.1,0-.1,0,0,0,0,.1,0,.2,0,0,.1.2.2.2,0,.2,0,.4.3.5,0,.1,0,.2.1.4,0,.2.2.4.3.6.1.5.4,1,.7,1.5.1.3.2.5.2.8,0,0,0,0,0,0,0,.2,0,.4,0,.6s0,.5-.2.7c-.2.4-.4.7-.6,1.1-.1.3-.3.7-.5,1,0,.1-.1.2-.2.4-.1.2-.2.4-.4.6,0,.1-.3.3-.2.4.1.1.3,0,.5,0,0,0,0,0,0,0,.1,0,.2-.1.3-.2.5-.3.9-.6,1.2-1,.5-.6,1-1.3,1.6-1.9,0,0,.1-.1.2-.2.2-.2.3-.4.5-.6.1,0,.2-.2.4-.2.3,0,.6,0,.8,0,0,0,.2,0,.2.1,0,0,.1,0,.2,0,.1,0,.3,0,.4,0,.1,0,.2,0,.3.1,0,.2.2.2.3,0,.4-.2.4,0,.6.2.1.2.2.2.4,0,.2-.1.3-.1.5.1,0,0,.1.1.2.2,0,0,0,.1.2,0,.2-.1.4-.2.6,0,0,0,0,0,0,0,0,0,0,0,0,0,0,0,0,.2.2.3,0,.2,0,.2.2.1.2,0,.4,0,.6,0,0,0,0,0,0,0,0,0,.2.1.2.2,0,0,.1,0,.2,0,0,0,.2,0,.3,0,.2,0,.4,0,.6.2,0,0,.1,0,.2,0,.2-.1.4,0,.7,0,.3,0,.3.1.1.4,0,.1-.1.2-.2.3-.2.4-.5.8-.7,1.2,0,0,0,.2,0,.2s.2,0,.3,0c.8-.5,1.6-.9,2.4-1.4h0c.6,0,1.2.1,1.7.2.3,0,.7,0,1,.1.3,0,.7,0,1,0,0,0,0,0,0,0,1,0,1.9.1,2.9.2,0,0,.2,0,.2,0s0,.2-.1.2c-.2.2-.5.3-.7.5,0,0-.2.1-.1.2s.2,0,.2,0c1-.4,2.1-.8,3.1-1.1.5,0,3-.4,3.1-.4,0,0,2.2-.4,2.2-.5,0,0,1.3-.4,1.5-.4.5-.2,1-.4,1.4-.6.4-.2,2.2-1.2,2.2-1.3,0-.1,0-.3-.1-.2Z"/>
    <g>
      <path class="st0" d="M275.5,31.5V12.4s2.4,0,2.4,0c1.6,0,2.9.3,3.8,1.1s1.3,2.1,1.3,4c0,.9,0,1.6-.4,2.2-.3.6-.7,1.1-1.4,1.7.7.4,1.2,1.1,1.6,2.3.2.6.3,1.4.3,2.3,0,1.4-.3,2.7-.9,3.7-.6,1-1.8,1.6-3.4,1.7h-3.4ZM278.3,20.3c.2,0,.8,0,1.2-.3.5-.3.8-.9.8-2.3s-.4-1.9-.8-2.3c-.5-.3-1-.3-1.2-.3v5.1ZM278.3,28.7c.2,0,.8,0,1.2-.3.5-.3.8-1.1.8-2.7,0-1.6-.4-2.3-.8-2.7-.5-.3-1-.3-1.2-.3v5.9Z"/>
      <path class="st0" d="M293.2,27.6c0,.8-.2,1.5-.5,2.1-.2.5-.6,1-1.1,1.4-.5.4-1.2.7-2.1.7s-1.6-.2-2.2-.7c-.5-.4-.9-.9-1.1-1.4-.3-.6-.4-1.3-.5-2.1v-11.3c0-.8.2-1.5.5-2.1.2-.5.6-1,1.1-1.4.5-.4,1.2-.7,2.2-.7s1.6.3,2.1.7c.5.4.9.9,1.1,1.4.3.6.4,1.3.5,2.1v11.3ZM290.4,16.3c0-.5-.1-.9-.4-1.2-.1-.1-.3-.2-.6-.2-.5,0-.7.4-.8.7,0,.2-.1.4-.1.7v11.3c0,.5.1.9.4,1.2.1.1.3.2.5.2.5,0,.7-.3.8-.7,0-.2.1-.4.1-.7v-11.3Z"/>
      <path class="st0" d="M299,21.6l-.2-.9h-.2v10.8s-2.6,0-2.6,0V12.4s2.5,0,2.5,0l2.7,10,.2.9h.2v-10.8s2.6,0,2.6,0v19.1s-2.5,0-2.5,0l-2.7-10Z"/>
      <path class="st0" d="M307.3,12.4h2.8s0,19.1,0,19.1h-2.8s0-19.1,0-19.1Z"/>
      <path class="st0" d="M312.2,15.3v-2.9s8,0,8,0v2.9s-2.6,0-2.6,0v16.2s-2.8,0-2.8,0V15.3h-2.6Z"/>
      <path class="st0" d="M329.6,27.6c0,.8-.2,1.5-.5,2.1-.2.5-.6,1-1.1,1.4-.5.4-1.2.7-2.1.7s-1.6-.2-2.2-.7c-.5-.4-.9-.9-1.1-1.4-.3-.6-.4-1.3-.5-2.1v-11.3c0-.8.2-1.5.5-2.1.2-.5.6-1,1.1-1.4.5-.4,1.2-.7,2.2-.7s1.6.3,2.1.7c.5.4.9.9,1.1,1.4.3.6.4,1.3.5,2.1v11.3ZM326.8,16.3c0-.5-.1-.9-.4-1.2-.1-.1-.3-.2-.6-.2-.5,0-.7.4-.8.7,0,.2-.1.4-.1.7v11.3c0,.5.1.9.4,1.2.1.1.3.2.5.2.5,0,.7-.3.8-.7,0-.2.1-.4.1-.7v-11.3Z"/>
    </g>
    <g>
      <path class="st0" d="M288.7,36.8c0,0-.2.1-.3.2-.1,0-.2,0-.3.1-.1,0-.3,0-.4,0-.2,0-.5,0-.7-.1-.2,0-.4-.2-.5-.4-.2-.2-.3-.3-.4-.5,0-.2-.1-.4-.1-.7s0-.5.1-.7c0-.2.2-.4.4-.6.1-.2.3-.3.5-.4.2,0,.4-.1.7-.1s.3,0,.4,0,.2,0,.3.1c.1,0,.2.1.3.2,0,0,.2.1.3.2l-.3.3c-.1-.1-.3-.2-.5-.3-.2,0-.4-.1-.6-.1s-.4,0-.5.1-.3.2-.4.3-.2.3-.3.4c0,.2,0,.3,0,.5s0,.4,0,.5c0,.2.2.3.3.4.1.1.3.2.4.3.2,0,.3.1.5.1s.4,0,.6-.1c.2,0,.3-.2.5-.4l.2.2c0,0-.2.2-.3.2Z"/>
      <path class="st0" d="M296,37.1h-.4s-.4-.9-.4-.9h-1.8s-.4.9-.4.9h-.4s1.5-3.4,1.5-3.4h.4s1.5,3.4,1.5,3.4ZM294.3,34.2l-.8,1.7h1.5s-.8-1.7-.8-1.7Z"/>
      <path class="st0" d="M302.2,37.1l-1-1.3h-1v1.3s-.4,0-.4,0v-3.4s1.4,0,1.4,0c.2,0,.4,0,.5,0s.3.1.4.2c.1,0,.2.2.2.3,0,.1,0,.3,0,.4s0,.3,0,.4-.1.2-.2.3-.2.1-.3.2c-.1,0-.2,0-.4.1l1,1.4h-.5ZM302,34.3c-.2-.1-.4-.2-.6-.2h-1v1.4h1c.1,0,.2,0,.3,0,.1,0,.2,0,.3-.1,0,0,.1-.1.2-.2,0,0,0-.2,0-.3,0-.2,0-.4-.2-.5Z"/>
      <path class="st0" d="M307.1,33.8v3.4s-.4,0-.4,0v-3.4s.4,0,.4,0Z"/>
      <path class="st0" d="M313.2,33.8c.1,0,.2,0,.3.2,0,0,.2.2.2.3,0,.1,0,.2,0,.3s0,.2,0,.3c0,0,0,.2-.1.2,0,0-.1.1-.2.2s-.1,0-.2.1c0,0,.2,0,.3.1,0,0,.2.1.2.2,0,0,.1.1.2.2,0,0,0,.2,0,.3s0,.3,0,.4-.1.2-.2.3-.2.1-.4.2-.3,0-.5,0h-1.5s0-3.4,0-3.4h1.4c.2,0,.3,0,.4,0ZM313.2,35.1c.1-.1.2-.3.2-.5s0-.3-.2-.4c-.1,0-.3-.1-.5-.1h-1v1.2h1c.2,0,.4,0,.6-.2ZM313.4,36.6c.1-.1.2-.3.2-.4s0-.3-.2-.4-.4-.2-.7-.2h-1.1v1.2h1.1c.3,0,.5,0,.6-.2Z"/>
      <path class="st0" d="M320.4,34.1h-2v1.1h1.8s0,.3,0,.3h-1.8v1.2h2.1s0,.3,0,.3h-2.4s0-3.4,0-3.4h2.4s0,.3,0,.3Z"/>
    </g>
  </g>
  <g>
    <path class="st0" d="M12.4,5c0,0,.2,0,.2,0,.2-.1.5-.3.7-.4.4-.2.7-.4,1.1-.6.3-.2.7-.4,1-.6,0,0,0,0,.1,0,.3,0,.5-.2.7-.4,0,0,.2,0,.3-.1.2,0,.3,0,.5-.3.2-.2.6-.2.9,0,.3.2.3.5.2.8-.6,1.1-1.5,2.1-2.5,2.9-.5.4-1,.8-1.5,1.1-.3.2-.7.4-1.1.6-.3.1-.5.3-.8.4-.2,0-.4.1-.6.2,0,0,0,0-.1,0-.4.2-.9.3-1.3.5-.3.1-.6.2-.9.3-.3,0-.7.2-1,.2-.2,0-.4.1-.6.2,0,0,0,.1,0,.2,0,.2,0,.3,0,.5,0,.4,0,.7,0,1.1,0,.2,0,.4,0,.6,0,.3.1.5.4.5.4,0,.8,0,1.2.2.2,0,.5.1.7.2.2,0,.3.2.5.3.1,0,.2,0,.4,0,.5-.2.9-.4,1.4-.7.3-.1.6-.3,1-.4.2,0,.3-.2.2-.4-.3-.6-.3-1.1,0-1.7.2-.4.6-.7,1-.9.3-.1.7-.2,1.1-.2.7,0,1.3.3,1.7.9.2.3.3.6.3,1,0,.2.1.3.3.3.7-.1,1.5-.2,2.2-.1.6,0,1.2,0,1.8,0,.4,0,.8,0,1.1.1.2,0,.3,0,.3-.3,0-.8.6-1.5,1.3-1.8.3-.1.6-.2,1-.2.7,0,1.3.3,1.7.9.4.6.4,1.2,0,1.9-.1.2-.1.3.2.4,1,.3,1.9.8,2.8,1.3,0,0,.2.1.2.2.2,0,.3,0,.3-.1,0-.2.2-.5.3-.7.3-.6.8-.8,1.4-.9.1,0,.3,0,.4,0,.2,0,.3,0,.3-.3,0-.4.1-.7.2-1.1.1-.3.3-.7.4-1,0-.2,0-.3-.2-.3-.2,0-.4,0-.6,0-.3,0-.6,0-.9-.2-.3,0-.6-.1-.9-.2-.5-.1-.9-.2-1.4-.4-.5-.2-.9-.4-1.3-.6-.7-.4-1.2-.8-1.7-1.4-.4-.4-.7-.9-1.1-1.4-.3-.4-.6-.9-.9-1.3-.1-.2-.3-.5-.4-.7-.2-.5.2-.9.6-.9,0,0,0,0,0,0,.2,0,.4,0,.5.2.1.2.3.2.5.3.2,0,.4,0,.5.3,0,0,.2.1.3.1.3,0,.5.2.8.3.3.1.5.3.8.4.3.1.6.3.9.4,0,0,.1,0,.2,0,0,0,0,0,0,0,0,0-.2-.2-.3-.2-.3-.2-.6-.4-.9-.5-.4-.2-.8-.5-1.2-.7-.1,0-.3-.2-.4-.2-.4-.2-.7-.4-1.1-.7-.3-.2-.6-.5-.9-.7,0,0,0,0-.1-.1-.4-.5-.1-.9.3-1.1.5-.2.9-.2,1.4-.3.8-.1,1.7,0,2.5,0,.7,0,1.4.1,2,.3.4,0,.7.1,1.1.2.4.1.8.2,1.1.4.5.2,1,.4,1.5.6.7.4,1.4.8,2,1.4.4.4.8.8,1.1,1.2.2.3.4.6.5.9.1.3.3.6.4,1,0,.1,0,.3,0,.4.1.4.2.7.1,1.1,0,.1,0,.2.2.1.2,0,.4,0,.6,0,.5,0,1,.4.9.9,0,.4-.3.8-.4,1.1-.2.4-.4.7-.7,1-.1.2-.1.3,0,.4.5.2.7.7.8,1.2.1.6,0,1.2,0,1.8,0,0,0,.2-.1.3-.1.2-.2.3-.1.5,0,.5-.1.9-.6,1.2,0,0-.2.1-.2.2-.2.4-.5.6-.9.8-.4.2-.8.3-1.2.4,0,0,0,0,0,0-.2,0-.2.2,0,.3.1.1.3.2.4.4.4.4.6.8.8,1.3.1.4.2.8.3,1.2,0,.3,0,.5,0,.8,0,.5,0,.9-.1,1.4,0,.3-.1.6-.2.9-.2.7-.6,1.2-1.2,1.6,0,0-.2.1-.3.2,0,0,0,.1,0,.2,0,0,0,.1.2.1.3,0,.6.1.9.2.5,0,.8.4.9.9,0,.1.1.2.2.3.3,0,.5.3.7.5.2.3.4.6.6.9.1.3.2.6,0,.9-.1.2-.1.3,0,.5,0,0,0,.1,0,.2,0,.4.1.7.2,1.1,0,.2,0,.3,0,.5,0,.1,0,.3-.2.4-.1.2-.1.3,0,.5,0,.2,0,.5,0,.8,0,.3-.2.6-.3.9,0,.2-.3.4-.4.6-.5.6-1.1,1-1.8,1.3-.5.2-.9.4-1.4.3-.4,0-.8-.3-.8-.8,0,0,0-.2,0-.2.2-.3.5-.5.7-.8.1-.1.2-.3.3-.4.1-.3.3-.5.4-.8.2-.4.3-.7.3-1.1,0,0,0-.2-.2-.3-.2-.1-.2-.3-.2-.5,0-.2,0-.3,0-.5,0-.2,0-.4,0-.7,0,0,0-.2-.2-.3-.4-.4-.7-.8-.9-1.3,0,0,0-.1-.2-.2-.3-.1-.7-.2-1-.4-.3-.1-.6-.3-.9-.4,0,0-.1,0-.2-.1,0,0-.2-.1-.3,0-.1,0-.2.2-.2.3,0,0,.1.2.2.2.4.3.8.6,1,1,0,.1.2.2.2.4,0,.1,0,.3.1.4,0,.1.1.2.2.3.6.5.8,1.2.6,1.9,0,.2,0,.3,0,.4.1.2.1.4,0,.6-.1.5-.3.9-.6,1.3,0,.2-.3.3-.4.5,0,0-.1.2-.2.3-.1.4-.4.7-.7.9-.4.3-.8.4-1.2.6-.6.2-1.1.1-1.7,0-.3,0-.7-.1-.9-.3-.5-.3-.4-.7,0-1,.2-.1.4-.2.6-.3.5-.3.9-.6,1.2-1.1,0,0,0,0,0,0,.1-.1.1-.3,0-.4-.1-.3-.2-.6-.1-.9,0-.1,0-.2.1-.3,0-.1,0-.2,0-.3-.1-.2-.2-.4-.2-.7,0,0,0-.2-.1-.2-.2-.2-.4-.4-.6-.6-.1-.2-.3-.4-.5-.6,0,0-.2,0-.3,0-.2,0-.3.2-.5.3-.2.1-.2.2,0,.4.2.2.4.5.5.9.2.4,0,.7-.2,1.1,0,.1,0,.2,0,.3,0,.1.1.3.1.4,0,.3,0,.5-.1.8,0,.2,0,.3-.2.5-.2.4-.5.6-.8.9,0,0-.1.1-.1.2-.1.7-.5,1.2-1,1.6-.3.3-.7.6-1.1.7-.4.1-.9.2-1.3,0-.4-.1-.6-.6-.3-1,.2-.3.3-.6.4-.9.1-.4.2-.7.6-1,.1,0,.1-.2.1-.3,0-.4,0-.8.3-1.1,0,0,0-.1.1-.2.1-.2.1-.3,0-.5,0,0,0-.1,0-.2,0-.3,0-.7,0-1,0-.3-.1-.4-.4-.3-.4.1-.7.2-1.1.3-.5.1-1,.2-1.5.3-.1,0-.2,0-.4,0-.4,0-.7.1-1.1.2,0,0-.1,0-.2,0-1,0-2,0-3,0-.2,0-.4,0-.6,0-.3,0-.5,0-.8,0-.2,0-.3,0-.5,0,0,0,0,0,0,0-.5,0-.9-.2-1.4-.2-.2,0-.3,0-.3.3,0,.3-.2.5-.4.7-.1.1-.2.2-.3.4,0,.1-.2.3-.2.5,0,.2,0,.3,0,.5.1.3,0,.6,0,.9,0,0,0,.2,0,.3.2.3.2.6.3.9.1.3.3.5.4.8.2.3.2.5,0,.7-.2.2-.4.3-.7.3-.4,0-.8,0-1.2-.1-.9-.3-1.5-.9-1.9-1.8-.2-.3-.2-.7-.3-1.1,0,0,0-.2,0-.3-.2-.2-.1-.4-.1-.6,0-.1,0-.3,0-.4,0-.2,0-.4.1-.6,0,0,0-.2,0-.3-.2-.4,0-.6.1-.9,0-.1.2-.2.3-.3.1-.1.2-.2.4-.4.1-.1.2-.2.3-.3.2-.1.2-.2,0-.3,0,0,0,0,0,0-.2-.1-.4-.2-.6-.3-.2,0-.3-.2-.5-.2,0,0-.2,0-.2.1-.2.4-.4.6-.8.9-.1.1-.3.2-.5.2-.1,0-.2,0-.2.2,0,.2-.2.4-.4.5-.3.2-.6.5-.9.7,0,0,0,0,0,0,0,.2,0,.4,0,.6,0,0,0,.2.1.3,0,0,0,.1,0,.1,0,.1.5.3.6.4.3.1.5.1.8,0,.1,0,.3,0,.4,0,.5,0,.8.3.9.7,0,.2,0,.4-.2.6-.3.4-.7.6-1.2.8-.4.2-.8.2-1.2,0-.5,0-.9-.3-1.3-.4-.3,0-.5-.2-.7-.4,0,0,0,0,0-.1,0-.2-.2-.3-.4-.3-.3-.1-.5-.4-.7-.7,0,0,0,0,0,0-.5-.6-.4-1.3-.2-2,0-.1.1-.3.2-.4,0,0,0-.2,0-.3,0-.3,0-.5,0-.8.1-.2.2-.5.4-.7.1-.2.3-.3.4-.4,0,0,.1-.1,0-.2,0-.2,0-.6.2-.8.2-.3.6-.3.9-.4.1,0,.2,0,.3-.1.1,0,.2,0,.4-.1,0,0,.1,0,.2,0,.1,0,.1-.2,0-.2,0,0-.1-.1-.2-.2,0,0-.2,0-.2,0,0,.2-.2.2-.4.3-.3.2-.5.3-.8.5-.2,0-.4,0-.6,0-.2,0-.3,0-.3.2,0,.1-.2.2-.3.3-.1,0-.3.1-.4.2,0,0,0,0,0,0,0,0,0,0,0,0-.2,0-.3.1-.5.2,0,0-.1,0-.2.1-.1.3-.1.7,0,1.1,0,.4,0,.7-.2,1,0,0,0,.2,0,.2.2.2.1.4.2.6,0,.1,0,.2,0,.3,0,0,0,0,0,0,0,.2.1.4.2.6,0,.1.2.2.2.4.2.4.1.8-.2,1-.3.2-.6.2-.9.2-.3,0-.5-.1-.8-.2-.6-.2-1.1-.6-1.5-1.1-.2-.2-.3-.4-.4-.7,0-.1,0-.3,0-.4,0-.2,0-.3,0-.4-.1-.3-.1-.6,0-.8,0-.1,0-.3,0-.4,0-.3,0-.6.1-.9,0-.1,0-.3,0-.4,0-.3,0-.6.2-.9,0-.1,0-.3,0-.4,0-.1,0-.3,0-.4.2-.3.5-.4.8-.6.3-.1.7-.3,1-.5.3-.1.5-.3.7-.6.1-.2.4-.2.6-.3.3,0,.5-.2.8-.3,0,0,.1-.1.1-.2,0,0-.1-.1-.2-.1-.5-.2-.9-.5-1.2-.9-.3-.4-.4-.8-.6-1.2-.1-.3,0-.7-.2-1-.2-.5,0-1,0-1.5,0-.1,0-.3.1-.4,0-.4.1-.8.2-1.2,0-.1.1-.3.2-.4.2-.4.5-.8.9-1.1,0,0,.1-.2.1-.2,0,0-.1-.1-.2-.1-.5-.2-1-.4-1.4-.6-.2-.1-.5-.2-.7-.4-.2-.2-.4-.4-.4-.7,0,0,0-.1-.1-.2-.3-.2-.5-.4-.7-.7,0-.1-.2-.2-.3-.3-.1-.1-.2-.2-.3-.4-.1-.2-.1-.4,0-.6,0,0,0-.2,0-.3,0-.3,0-.6.2-.8,0-.1.1-.3,0-.4,0,0,0-.2,0-.2.2-.7.5-1.3,1-1.8.3-.3.7-.3,1-.2,0,0,.1,0,.2,0,0,0,.1,0,.2,0,0,0,0,0,0-.1,0,0,0,0,0,0,0-.5-.2-1-.3-1.5,0-.4,0-.8,0-1.1.1-.3.2-.6.4-.8.3-.3.6-.5,1.1-.4.2,0,.3,0,.4-.2.1-.2.3-.4.4-.6.6-.8,1.2-1.4,2-2,.4-.4.9-.7,1.4-1,.4-.3.9-.5,1.4-.8.3-.2.7-.3,1.1-.4.3-.1.6-.2.8-.3,0,0,0,0,.1,0,.5,0,.9-.1,1.4-.3.8-.2,1.7-.2,2.6-.2.6,0,1.2,0,1.8,0,.3,0,.7.4.7.7,0,0,0,.2-.1.3-.3.2-.6.4-.8.6-.2.2-.5.2-.6.5-.2,0-.3.2-.4.2-.3.1-.5.2-.6.5,0,0,0,0,0,0-.2,0-.3.1-.4.2-.6.4-1.2.8-1.8,1.1-.2.2-.5.3-.8.4,0,0,0,.1-.1.2,0,0,0,0,0,0ZM33,17.6s0,0,0,0c.1,0,.2,0,.3,0,0,0,.2,0,.3,0,0,0,.1,0,0-.2-.2-.2-.3-.4-.5-.6-.4-.4-.8-.7-1.1-1.1-.3-.3-.7-.6-1.1-.9-.6-.4-1.3-.8-2-1.1-.4-.2-.7-.4-1.1-.5-.3,0-.6-.3-1-.3-.2,0-.4-.1-.6-.2,0,0,0,0-.1,0,0,0,0-.1,0-.1.1,0,.2-.2.4-.2.4-.2.6-.6.6-1,0-.5-.1-1-.6-1.3-.6-.5-1.2-.5-1.9-.3-.1,0-.2,0-.3.2-.3.2-.5.5-.6.9,0,.2,0,.5,0,.7,0,.2.1.4.3.6,0,0,0,0,0,.1,0,0,0,0-.1,0-.3,0-.6,0-.8-.1-.5-.1-1.1-.1-1.6-.1-.9,0-1.8,0-2.8,0-.2,0-.4,0-.6.1,0,0,0,0,0,0-.3,0-.7,0-1,0,0,0,0,0-.1,0,0,0,0,0,0-.1.1-.2.3-.5.3-.7.1-.7-.5-1.5-1.2-1.6-.8-.2-1.4,0-2,.6-.2.2-.3.5-.3.8,0,.2,0,.4.1.6,0,.2.2.4.4.5.2.1.3.2.5.3,0,0,0,0,0,.2,0,0,0,0-.1,0-.2,0-.4,0-.6.2,0,0,0,0-.1,0-.2,0-.4,0-.6.2-.7.2-1.3.5-1.9.8-.3.1-.5.3-.8.5-.6.3-1.2.7-1.7,1.2-.5.4-.9.9-1.4,1.3-.1.1-.3.3-.4.5,0,0,0,.2,0,.2,0,0,.2,0,.3,0,.5,0,1,0,1.5,0,.6,0,1.2,0,1.9.1.3,0,.7,0,1,0,.3,0,.6,0,.8,0,0,0,.2,0,.2,0,.3-.3.7-.5,1.1-.7.3-.2.6-.4.9-.5.4-.2.9-.4,1.4-.5.5-.1,1-.3,1.4-.4,0,0,.1,0,.2,0,.3,0,.7,0,1-.1.4,0,.8,0,1.2,0,.5,0,1,0,1.5,0,.2,0,.5,0,.7.1.4,0,.9.1,1.3.2.4.1.8.2,1.3.4.7.2,1.3.5,1.9.9.3.2.6.4.9.6.1,0,.2.1.3.1.5,0,1.1,0,1.6,0,1.1,0,2.2-.1,3.3-.2ZM20.3,32.1c.7,0,1.2,0,1.7,0,.3,0,.5,0,.8,0,.4,0,.9-.1,1.3-.2.3,0,.6-.1.9-.2.3,0,.6-.1.9-.2,0,0,.2,0,.3,0,.3-.1.6-.2,1-.3.2,0,.3,0,.5-.2.2,0,.4-.2.6-.3.3-.2.7-.3,1-.5.6-.3,1.2-.7,1.8-1.1.6-.4,1.2-.9,1.7-1.5.4-.4.8-.9,1.1-1.4,0,0,0,0,.1-.1,0,0,.2-.2.2-.3,0-.2-.2-.1-.3-.1-.3,0-.7,0-1,0-.2,0-.4,0-.6,0-1,0-1.9,0-2.9,0,0,0-.1,0-.2,0-.2,0-.4,0-.6,0-.4.4-.8.8-1.3,1.1-.5.3-.9.6-1.4.8-.1,0-.3,0-.4.1-.1,0-.3.1-.4.2-.2,0-.4.2-.7.2-.3,0-.6.2-.8.2-.4,0-.7.1-1.1.2-.3,0-.6.1-.9.1-.6,0-1.3,0-1.9,0-.1,0-.3,0-.4,0-.5,0-1-.2-1.6-.3-.4,0-.8-.2-1.2-.3-.4-.1-.8-.3-1.2-.5-.4-.2-.8-.4-1.2-.6-.2-.1-.4-.3-.6-.4,0,0-.2,0-.3-.2-.3-.3-.6-.5-.9-.8,0,0-.2-.1-.3-.1-1.1,0-2.1,0-3.2,0-.2,0-.4,0-.6,0-.2,0-.3,0-.5,0-.3,0-.6,0-.9,0-.2,0-.3.1-.1.3,0,0,.1.1.2.2.5.7,1,1.3,1.6,1.8.6.5,1.2,1,1.9,1.5,0,0,0,0,0,0,.3.2.6.2.8.5,0,0,0,0,0,0,.4.2.9.4,1.3.6.4.2.7.3,1.1.4.5.2,1,.3,1.5.4.5.1.9.2,1.4.3.6.1,1.3.2,1.9.3.6,0,1.3,0,1.7,0ZM34.3,9c.4,0,.5,0,.6-.2.3-.3.7-.4,1.1-.5.2,0,.5-.1.7-.2.5-.2,1.1-.3,1.5-.7,0,0,.1-.1.1-.2,0-.1,0-.3,0-.4,0-.2-.1-.3-.2-.5,0-.3-.2-.6-.3-.9-.2-.5-.5-1-.9-1.4-.2-.2-.5-.5-.7-.7-.2-.2-.4-.3-.6-.5-.3-.2-.6-.4-.9-.5-.4-.2-.7-.4-1.1-.6-.6-.2-1.2-.4-1.8-.6-.6-.1-1.2-.3-1.9-.4-.4,0-.7-.1-1.1-.1-.6,0-1.2,0-1.8,0-.4,0-.8,0-1.2.1-.2,0-.4,0-.5,0-.2,0-.2.2,0,.3,0,0,0,0,.1,0,.5.3,1.1.7,1.6,1,.3.2.6.4.9.6.5.3,1,.6,1.6.9.2.1.4.2.5.3.3.2.6.3.9.5.4.2.8.5,1.2.7.1,0,.2.1.3.2.3.1.5.3.8.4.4.2.8.5,1.2.7.3.2.6.4.9.6.2,0,.2.2.2.5,0,.2-.2.2-.3.1-.4,0-.9-.2-1.3-.3-.6-.2-1.2-.5-1.9-.8-.6-.2-1.1-.5-1.7-.8-.4-.2-.7-.4-1.1-.6-.3-.2-.7-.3-1-.5-.5-.3-1-.5-1.5-.8-.3-.1-.5-.3-.8-.4-.2-.1-.4-.2-.6-.3,0,0-.1,0-.2-.1-.1,0-.2,0-.2.1,0,.1,0,.2.1.3.2.2.4.4.5.7.2.4.5.8.8,1.1.4.6.9,1.1,1.4,1.5.3.3.6.5,1,.7.5.3,1.1.5,1.7.7.1,0,.3,0,.4.1.4,0,.9.2,1.3.2.6,0,1.2.2,1.8.3ZM15,.7c-.5,0-1,0-1.4.1-.6,0-1.2.1-1.7.3-.1,0-.2,0-.4,0-.3,0-.5.2-.7.3-.4.1-.8.3-1.1.4-.5.3-1.1.6-1.6.9-.7.5-1.4,1.1-2,1.8-.4.4-.7.8-1,1.2-.2.2-.2.3,0,.5.2.3.5.5.7.8.3.3.6.7.9,1,.3.3.5.6.8.9,0,0,.1.2.3.1.4,0,.7-.2,1.1-.3.6-.2,1.1-.3,1.7-.5.8-.3,1.6-.6,2.4-1.1.3-.2.6-.3.8-.5.5-.4,1.1-.8,1.6-1.2.5-.4,1-.9,1.3-1.4.2-.2.3-.4.5-.6.1-.1.2-.3.3-.4,0,0,0,0,0-.1,0,0,0,0-.1,0,0,0,0,0-.1,0-.2.2-.5.3-.7.5-.4.2-.9.5-1.3.7-.2.1-.4.2-.6.4-.1,0-.3.1-.4.2-.6.3-1.2.6-1.8,1-.4.2-.7.4-1.1.6-.4.2-.8.4-1.2.6-.5.2-1,.4-1.5.6,0,0,0,0-.1,0-.3.1-.6.2-.8.3-.1,0-.3,0-.4,0-.2,0-.2-.4,0-.6.4-.2.8-.5,1.1-.7.1,0,.3-.2.4-.3.3-.2.6-.3.9-.5.6-.4,1.1-.7,1.7-1.1.5-.3,1-.6,1.4-.9,0,0,0,0,0,0,.5-.3,1-.6,1.5-.9.3-.2.7-.5,1-.7.2-.1.4-.3.7-.4.4-.2.8-.5,1.1-.7,0,0,.1-.1.1-.2,0,0-.1-.1-.2-.1-.2,0-.3,0-.5,0-.5,0-1,0-1.5,0ZM3,7.7c-.1.6.2,1.2.4,1.8.2.5.4,1,.6,1.4.1.3.3.5.4.8.2.3.3.7.5,1,0,.1.1.2.3.2.3,0,.5,0,.8-.1.3,0,.7,0,1,0,.2,0,.3-.1.3-.4,0-.1,0-.2,0-.4,0-.6-.1-1.2-.1-1.7,0-.4-.1-.7-.3-1-.1-.2-.3-.4-.5-.5-.4-.4-.8-.8-1.1-1.3-.3-.4-.5-.7-1-.9,0,0,0,0,0,0-.2-.2-.7,0-.8.1-.2.3-.4.6-.3,1ZM35.7,12.7c.2,0,.3-.1.5-.2.4-.3.9-.5,1.3-.8.6-.4,1.1-.9,1.6-1.4.5-.5.8-1.1,1-1.8,0-.3,0-.4-.3-.4,0,0-.2,0-.3,0-.1,0-.2.1-.3.2,0,0-.2,0-.3,0-.2,0-.3-.1-.5-.2-.2,0-.3,0-.4,0-.4.3-.8.4-1.3.5-.3,0-.7,0-1,.2-.6.2-1,.6-1.3,1.1-.3.5-.4,1.1-.6,1.7,0,.3,0,.4.3.6.5.3,1,.3,1.6.4ZM23.5,22.8s0,0,0,0c0,0,0,.2,0,.3,0,0,0,.2,0,.3,0,.3,0,.4.3.5.2,0,.3.1.5.2.2,0,.4,0,.5,0,.3,0,.5,0,.8-.1.7,0,1.3-.3,1.8-.7.3-.2.4-.6.2-.9-.2-.2-.3-.4-.6-.4,0,0-.2,0-.3-.1-.1,0-.1-.1,0-.2,0,0,0,0,.1,0,.3-.1.5-.3.8-.5.4-.4.4-.6,0-1,0,0,0,0,0,0-.2-.1-.4-.3-.6-.4-.3-.2-.7-.3-1.1-.3-.6,0-1.2,0-1.9,0-.3,0-.4.1-.5.4,0,.7,0,1.3-.1,2,0,.3,0,.7,0,1ZM12.1,22.6s0,0,0,0c0,.3,0,.6,0,1,0,.2,0,.3.2.3.2,0,.4.1.7.2.3,0,.5,0,.5-.4,0-.3,0-.6,0-.8,0-.1,0-.2.1-.3.1,0,.2,0,.3.1,0,0,0,0,0,0,.3.2.5.4.8.6.2.2.5.3.7.5.4.4.6.2,1,0,.1-.1.1-.2,0-.3,0,0-.1-.1-.2-.2-.3-.3-.6-.6-.9-.9,0,0,0-.2,0-.3.1,0,.2-.2.3-.2.3-.2.6-.4.8-.7.2-.2.2-.5,0-.8-.2-.2-.3-.4-.5-.6-.1-.1-.3-.2-.5-.2-.4,0-.8-.1-1.2-.1-.6,0-1.2,0-1.8.2-.2,0-.3.1-.3.3,0,0,0,.2,0,.2,0,.8,0,1.7-.1,2.5ZM21.3,23.9s0,0,0,0c0,0,.2,0,.3,0,.3,0,.4-.2.3-.5-.1-.4-.2-.7-.3-1.1,0-.5-.2-.9-.2-1.4,0-.2,0-.4-.1-.6,0-.2-.1-.4-.3-.6,0,0-.3,0-.4,0,0,0,0,0-.1,0-.4,0-.8-.1-1.2-.2-.2,0-.5,0-.6.3-.1.2-.2.4-.2.6-.2.5-.4.9-.6,1.4-.1.3-.3.7-.4,1,0,.3-.2.5-.3.8,0,.2,0,.4.1.5.3.2.5.3.8.2.3,0,.4-.1.4-.4,0-.2.1-.4.2-.6,0-.2.1-.2.3-.2.3,0,.6,0,.9,0,.1,0,.2,0,.2.1,0,.2.2.4.3.5,0,.2.2.3.4.3,0,0,.2,0,.2,0ZM9.2,19.3s0,0,0,0c-.1,0-.3,0-.4,0-.4,0-.7.1-1,.4-.3.3-.6.7-.8,1.1-.2.4-.4.9-.4,1.4,0,.4.1.7.3,1,.2.3.6.5.9.6.6.2,1.1.2,1.7.2.5,0,.9-.4,1.2-.7,0-.1.2-.2.3-.3,0,0,0-.2,0-.2,0-.1-.1-.2-.2-.3-.1,0-.3-.1-.4-.2-.2,0-.4,0-.5.2-.1.2-.3.4-.5.6,0,0-.2.1-.3.2-.3.2-.9.1-1-.4,0-.4,0-.7,0-1.1.1-.2.2-.5.3-.7.1-.2.2-.5.4-.7.1-.2.3-.1.4,0,0,.1,0,.3.1.4,0,.4.3.7.7.6,0,0,.2,0,.2,0,.2,0,.4-.1.4-.3,0-.2,0-.3,0-.5,0-.2,0-.4-.2-.6-.2-.3-.5-.5-.8-.6-.2,0-.4,0-.6,0ZM34.3,21.1s0,0,0,0c0,0,.2,0,.2,0,.2,0,.4-.1.4-.3,0-.2,0-.4,0-.7,0,0,0,0,0-.1,0,0-.2-.2-.3-.2-.1,0-.3-.1-.4-.2-.1,0-.3,0-.4-.1-.4-.1-.8-.3-1.3,0-.4.2-.9.4-1.1.9-.3.5-.1,1,.2,1.3.3.2.6.4.9.6.2.2.5.3.7.5.2.1.1.3,0,.4,0,0-.1,0-.2,0-.1.1-.3.1-.4,0-.3,0-.6-.2-.8-.4-.3-.3-.6-.3-.8,0-.2.1-.1.3,0,.5.4.4.9.6,1.5.7.5.1,1.1,0,1.6,0,.5-.2.8-.5.9-1,0-.1,0-.3,0-.4-.2-.2-.4-.4-.6-.5-.2-.1-.5-.2-.7-.4-.3-.2-.5-.3-.7-.5-.2-.1-.2-.3-.1-.5,0-.2.2-.3.4-.4.2-.1.4,0,.4.2,0,.1,0,.2,0,.3,0,.2.1.3.3.4.2,0,.4,0,.5,0ZM32.9,15.2s0,0,0,0c.2,0,.4,0,.6-.2.2,0,.3-.2.5-.2.3,0,.5,0,.8-.1.4,0,.8-.2,1.2-.3.3-.1.4-.4.2-.6-.2-.2-.4-.4-.6-.5-.3-.1-.6-.2-.9-.1,0,0-.2,0-.3,0-.5-.1-.9-.3-1.4-.4-.5,0-.9,0-1.2.4-.2.2-.3.4-.3.7,0,.3,0,.5.2.7,0,0,0,0,.1.1.3.2.6.6,1,.5ZM6.7,13.3s0,0,0,0c-.3,0-.6.1-.9.2-.3,0-.5.2-.7.2-.2,0-.2.2,0,.3.2.2.4.3.6.4.3.1.6.2,1,.2.2,0,.4,0,.6,0,.3,0,.7.1,1,.2.4,0,.7,0,1-.2.3-.2.6-.6,1-.7,0,0,.1-.1.1-.2,0,0,0-.1-.1-.2,0,0-.1,0-.2,0-.5-.1-1.1-.3-1.6-.4-.5,0-1-.1-1.4,0,0,0-.1,0-.2,0ZM3.2,15.3s0,0,0,0c-.1,0-.2,0-.4,0-.2,0-.4,0-.6.2-.2.2-.2.3,0,.5.2.2.5.3.7.4.3.1.6.3,1,.4.3,0,.5.2.8.3.2,0,.5.1.8.2.2,0,.4.1.5,0,.3-.2.7-.4,1-.6,0,0,0-.2,0-.2-.1-.2-.3-.3-.5-.3,0,0-.1,0-.2,0-.2,0-.3-.2-.5-.2-.8-.4-.8-.4-1.6-.4-.2,0-.5,0-.7-.1-.1,0-.2,0-.3,0ZM36.5,35.9c.2,0,.3,0,.4,0,.1,0,.3,0,.4,0,.5-.2,1-.5,1.4-.8.3-.3.6-.6.8-.9.2-.4.4-.7.2-1.2,0,0,0,0,0,0,0-.2-.1-.3-.4-.3-.3,0-.7,0-1,0-.3,0-.4,0-.4.3,0,.3,0,.6-.2.9,0,.2-.2.4-.3.5-.1.2-.2.4-.3.6,0,.1-.2.2-.3.4,0,.2-.2.3-.3.4,0,0-.1.1-.1.2,0,0,.1,0,.2.1ZM34.9,17.5c.2,0,.4-.1.6-.2.5-.1,1.1-.2,1.6-.4.3,0,.6-.2.9-.3.2,0,.5-.2.7-.3.1,0,.2-.1.2-.3,0-.1-.1-.2-.2-.2-.2,0-.4-.1-.6-.2-.2,0-.3,0-.5,0-.1,0-.3,0-.4,0-.4,0-.7,0-1.1,0-.1,0-.2,0-.4.1-.3.1-.5.2-.8.3-.2,0-.5.1-.7.2,0,0-.1,0-.2.1,0,0,0,.2,0,.3,0,0,.1.2.2.3.2.2.4.4.7.4ZM1.3,30s0,.1,0,.2c0,.3-.1.6-.1.9,0,.3,0,.6-.1.9,0,.1,0,.3,0,.4.1.1.3.1.5,0,.1,0,.2,0,.4-.1.4-.2.7-.3,1.1-.5.2-.1.2-.3.2-.5,0,0,0,0,0,0,0-.3,0-.7,0-1,0-.2,0-.4-.2-.5-.3-.1-.7-.3-1-.4-.3-.1-.7.3-.6.5,0,0,0,0,0,.1ZM34,27.1c0,0,0,.2.1.2.1,0,.3.2.4.2.4.2.8.4,1.2.6,0,0,.2,0,.2,0,.2-.1.4-.2.6-.4,0,0,.2-.2.3-.2.4-.2.8-.3,1.1-.4,0,0,.1,0,.2-.1,0,0-.1-.1-.2-.2,0,0,0,0-.1,0-.3,0-.6-.2-.8-.2-.3,0-.6-.1-.8-.2-.3-.1-.6-.2-.9-.4-.2-.1-.3,0-.4,0-.3.3-.6.6-.8.9,0,0,0,.2-.1.3ZM8.5,29c0,0-.2,0-.3,0-.5.1-1,.3-1.5.5,0,0-.2.1-.2.2,0,.2,0,.3.1.5.2.2.5.3.8.4.4,0,.8.2,1.1.4.3.1.6.2.9,0,.1,0,.2-.2.3-.3,0,0,0-.1.1-.2.1-.2.1-.4,0-.5-.2-.2-.5-.4-.7-.6-.2-.2-.4-.2-.6-.3ZM38.3,27.8c-.2,0-.5,0-.7.2-.3,0-.7.2-.9.6,0,.2-.1.3,0,.5.2.2.3.4.5.6,0,0,.1,0,.2.1.3,0,.5-.1.7-.2.2,0,.3-.1.5-.1.3,0,.5,0,.7,0,.1,0,.3,0,.4,0,.1-.1.1-.3,0-.4-.2-.3-.3-.5-.5-.8,0,0,0,0-.1-.1-.2-.2-.6-.3-1-.3ZM32.2,31.1s.1,0,.2,0c.2,0,.3-.2.5-.2.4-.1.8-.1,1.1-.3.2-.1.2-.2,0-.3,0,0,0-.2-.1-.2-.2-.2-.4-.5-.5-.7-.1-.1-.3-.2-.4-.4-.3-.2-.3-.2-.6,0,0,0,0,0,0,0-.2.2-.4.3-.6.5-.2.1-.3.3-.5.4-.1.1-.1.2,0,.3,0,0,.1.1.2.2.1.2.3.3.4.5.1.1.2.3.5.3ZM38.7,30s0,0,0,0c-.2,0-.4,0-.7.1-.4,0-.5.2-.4.6,0,.2,0,.4,0,.6,0,.3,0,.5.4.5.6,0,1.1,0,1.7.1.2,0,.3,0,.3-.2,0-.2,0-.4,0-.5,0-.2,0-.4,0-.6,0-.4-.4-.7-.8-.6-.1,0-.3,0-.4,0ZM12.5,35.7s0,0,0,0c-.2,0-.5,0-.7,0-.1,0-.2,0-.1.2,0,.2.2.3.2.5.2.4.5.7.9,1,.2.2.4.2.6.3.3.1.6,0,.9,0,.2,0,.3-.2.2-.3-.1-.2-.2-.3-.3-.5,0-.2-.2-.5-.2-.7,0-.3-.2-.4-.5-.4-.1,0-.2,0-.3,0-.1,0-.2,0-.3,0-.1,0-.2,0-.3,0ZM5.7,28.3s.1,0,.2,0c.4,0,.6-.3.9-.5.2-.1.2-.3,0-.5-.2-.2-.3-.4-.4-.7-.2-.4-.5-.5-.9-.2,0,0,0,0,0,0-.3.2-.7.4-1.1.5-.1,0-.2,0-.3,0,0,0-.2.2-.2.2,0,0,.1.1.2.2,0,0,.2,0,.2,0,0,0,.2,0,.3,0,.2.1.4.3.6.5.2.2.4.2.6.3ZM27.2,32.4c0,.1,0,.3,0,.4,0,.3.2.4.5.3,0,0,.2,0,.2,0,.4,0,.8-.2,1.2-.3.3,0,.5-.5.4-.7,0-.3-.2-.5-.4-.8-.1-.1-.3-.2-.5-.2-.4,0-.8.2-1.2.4-.2,0-.3.2-.3.5,0,.1,0,.2,0,.4ZM1.6,33s0,0,0,0c-.1,0-.2,0-.3,0-.3,0-.3.3-.1.6.1.2.3.3.4.5.5.5,1.1.7,1.8.8,0,0,.1,0,.2,0,.2,0,.2-.2.1-.3-.1-.1-.2-.3-.3-.4-.2-.4-.3-.8-.3-1.2,0-.3-.2-.3-.4-.2-.3.1-.5.2-.8.3,0,0-.1,0-.2,0ZM12.7,33.4c.3,0,.5,0,.7.2.3.2.4.1.5-.1,0,0,0,0,0-.1.1-.2.2-.4.5-.5.1,0,.2-.1.1-.3,0-.1-.1-.2-.2-.2-.3,0-.6-.2-.8-.3-.3-.1-.5-.2-.8-.2-.2,0-.3,0-.5.3-.2.3-.4.6-.7.7-.1,0-.1.2,0,.3,0,0,.1,0,.2,0,.3,0,.7.1.9.2ZM6.9,34.7c.5,0,.6-.2.4-.6-.1-.2-.2-.4-.2-.6,0-.2-.1-.3-.3-.3-.2,0-.4-.1-.7-.2-.1,0-.2-.1-.3-.2,0,0-.2-.1-.3-.1-.1,0-.2.1-.2.2,0,.2,0,.4,0,.6,0,.4,0,.9.3,1.2.2.3.4.3.7,0,.2-.2.4-.2.6-.2ZM7.2,32.6c.2,0,.4-.1.5-.2.1-.1.2-.2.3-.3.1-.1.2-.2.3-.4.1-.2,0-.3-.2-.3-.6-.1-1.2-.3-1.7-.6-.1,0-.3,0-.4,0-.1.1-.3.3-.4.4,0,.2-.2.4-.2.5,0,.2.1.4.3.4.2,0,.3,0,.5.2.3.1.5.2.8.3,0,0,0,0,0,0ZM31.6,36.6s0,0,0,0c.4,0,.8,0,1.2-.2.2,0,.3-.1.4-.2.3-.1.5-.3.7-.5.2-.2.1-.3-.1-.4-.2,0-.4-.2-.6-.3-.1,0-.3-.2-.4-.2-.2-.1-.4,0-.5.2,0,0,0,.2-.1.2-.3.3-.6.5-.9.8,0,0,0,0-.1.1-.1,0-.2.1-.3.2,0,0-.2,0-.2.2,0,.1.1.1.2.1.3,0,.5,0,.8,0ZM32.9,33c-.3,0-.4,0-.4.2,0,.3,0,.7.4.9.4.2.8.4,1.2.6.3.1.6,0,.7-.3,0-.2.2-.5.3-.7,0-.1,0-.2,0-.4,0-.1,0-.2,0-.3-.1,0-.2,0-.4,0,0,0-.2,0-.2,0-.2,0-.4,0-.6,0-.3,0-.6,0-.9,0ZM35,32.1c0-.1,0-.2,0-.3,0-.3-.1-.5-.3-.7-.2-.2-.4-.2-.6,0-.1,0-.3.2-.4.2-.3,0-.6,0-.9.1-.2,0-.3,0-.3.2,0,.1,0,.2,0,.4,0,.1,0,.3.2.4.3.2.6.3.9.2,0,0,.2,0,.3,0,.2,0,.5,0,.7,0,.3,0,.5-.2.5-.4ZM29.5,33.9c0-.1,0-.2,0-.2,0-.2-.1-.2-.2,0,0,0-.2.1-.3.1-.3,0-.6,0-.9.1-.2,0-.5,0-.6.3-.1.2-.2.3-.3.5-.1.2-.2.5,0,.6.1.2.3.1.5.1.3,0,.6,0,.8,0,.5.1.7-.2.9-.6,0-.1.1-.3.2-.5,0-.1,0-.3,0-.4ZM3.7,29.4c0,0,.2,0,.2,0,.2-.1.5-.3.7-.4.1,0,.2-.2,0-.3-.2-.3-.5-.5-.8-.6-.1,0-.3,0-.4-.1-.2-.1-.4,0-.7,0-.1,0-.2.2-.3.2-.3.1-.5.2-.8.3-.1,0-.2,0-.2.2,0,.1.1.1.2.2.4.1.7.2,1.1.3.3,0,.6.2.8.3ZM27.5,35.9s0,0,0,0c-.2,0-.3,0-.5,0-.2,0-.4,0-.5.2-.1.2-.3.4-.3.6,0,.3-.2.6-.4.9-.1.2,0,.2.1.3.5.1.9-.1,1.2-.3.5-.3.9-.8,1.1-1.4,0-.2,0-.3-.2-.3-.2,0-.4,0-.6,0ZM4.3,14.9s0,0,0,0c0,0,.2,0,.3-.1,0,0,0-.2,0-.3,0,0,0,0,0,0-.2-.3-.3-.6,0-.9,0,0,0-.2,0-.2,0-.1-.1-.3-.2-.4-.2-.4-.4-.8-.6-1.2-.1-.2-.2-.5-.3-.7,0,0,0,0-.1-.1,0,0,0,0,0,.1,0,.2,0,.4,0,.6,0,.2,0,.4,0,.5,0,.2,0,.3,0,.5.1.2.1.4.1.7,0,.1,0,.2,0,.3,0,0,.2.2.3.2.2.2.4.4.4.7,0,.2,0,.3.2.3,0,0,.1,0,.2,0ZM40.1,13.2s0,0,0,0c0-.3,0-.6-.1-.9,0-.2-.1-.4-.2-.6-.1-.2-.3-.2-.4,0-.1.2-.3.4-.4.6-.2.3-.4.6-.6,1,0,0-.1.2,0,.3.1,0,.2,0,.4.1.3,0,.6.2.9.3.2,0,.4,0,.4-.2,0-.2,0-.4,0-.5ZM8.6,36.3c.3,0,.7,0,1-.3,0,0,0,0,.2,0,.2,0,.3-.2.3-.4,0-.1,0-.2-.2-.2-.1,0-.3,0-.4,0-.1,0-.2,0-.4,0-.4,0-.8-.1-1.2-.4-.2-.1-.3-.1-.5,0-.1,0-.3.1-.4.2-.1,0-.2,0-.3.2-.2,0-.2.2,0,.3.3.1.5.2.8.4,0,0,.2,0,.3,0,.2.1.5.1.8.1ZM13.5,35.2c.3,0,.4-.2.3-.4,0,0,0-.1,0-.2-.2-.4-.4-.6-.8-.7-.3,0-.7-.1-1-.1-.3,0-.5.2-.4.5,0,0,0,.2,0,.3,0,.3,0,.3.3.4,0,0,.2,0,.2,0,.2,0,.4,0,.6,0,.1,0,.2,0,.4,0,.2,0,.4.2.5.2ZM1.5,13.7c-.2,0-.4,0-.6,0,0,0-.2,0-.2.1,0,0,0,.2,0,.3.2.2.3.4.5.6.2.4.4.4.8.2,0,0,0,0,0,0,.2-.1.4-.2.6-.2.1,0,.2,0,.3,0,.2,0,.2-.3,0-.4-.3-.2-.5-.4-.8-.4,0,0-.1,0-.2,0-.2-.1-.4-.2-.6-.2ZM36.6,15.1h0s0,0,.1,0c.2,0,.3,0,.3-.3,0,0,0-.2,0-.3.1-.2.2-.3.4-.5,0-.1.1-.2.1-.3,0,0,0-.2,0-.3,0-.2.1-.4.2-.5,0-.2.2-.3.3-.5,0,0,0-.1,0-.2,0,0-.2,0-.2,0-.4.2-.7.4-1.1.7-.2.1-.2.2,0,.4.1.2.2.4.3.6,0,.4-.2.6-.4.9,0,0-.1.1-.2.2,0,0,.2,0,.3.1ZM39.4,15.4c.1,0,.3,0,.4-.1,0,0,0-.2,0-.3,0,0,0,0,0,0,0-.3-.1-.6-.5-.6,0,0,0,0-.1,0-.5-.2-1,0-1.4.3-.1.1-.1.3,0,.3,0,0,.2,0,.3,0,.4,0,.6,0,.9.2,0,0,.2.1.4.2ZM2.3,11.3s0,0,0,0c0-.1,0-.2,0-.3,0-.1,0-.3,0-.4,0,0,0-.1-.1-.1-.2,0-.4,0-.5.2-.3.3-.5.7-.7,1.1,0,.1,0,.2.1.2.1,0,.2,0,.4,0,.2,0,.4-.1.7,0,.1,0,.2,0,.2-.1,0-.2,0-.3,0-.5ZM29.5,20.6c.2,0,.3-.1.4-.4,0-.2.2-.5.3-.7.1-.2,0-.4-.2-.5,0,0-.2,0-.3,0-.2,0-.4,0-.4.3,0,.3,0,.5-.2.8-.1.3,0,.5.3.6,0,0,0,0,.1,0ZM2.5,13s0-.1,0-.2c-.3-.4-.7-.7-1.2-.4,0,0-.1,0-.1,0,0,0-.2.1-.3.2,0,0,0,.2,0,.3,0,0,.1.1.2.1.1,0,.2,0,.3,0,.1,0,.2,0,.3,0,.1,0,.3.1.4.2.2,0,.4,0,.4-.3Z"/>
    <path class="st0" d="M22.7,14.4c-.1,0-.3,0-.4,0-.2,0-.3-.2-.3-.4,0-.2,0-.4,0-.6,0-.2,0-.5,0-.7,0-.1.2-.2.3-.2.3,0,.5,0,.8.1.4,0,.5.5.2.8-.2.2-.2.2,0,.4.1.1,0,.3,0,.4,0,.1-.2.2-.3.2-.1,0-.3,0-.4,0ZM22.7,13.7h0c0,0-.2,0-.2.1,0,0,0,.2,0,.2,0,0,.2,0,.3.1.1,0,.2,0,.2-.2,0-.1,0-.2-.2-.3,0,0,0,0-.1,0ZM22.9,13.3c.1,0,.2,0,.2-.2,0-.1-.1-.2-.3-.2-.1,0-.2,0-.2.2,0,.1,0,.2.3.2Z"/>
    <path class="st0" d="M12.7,15c0-.5.3-.8.6-1,.1-.1.3-.2.5-.2.2,0,.3,0,.4.1,0,0,.1.1.2.2.3.4.3,1,0,1.3-.3.3-.7.4-1.1.4,0,0,0,0-.1,0-.2-.2-.6-.4-.5-.8ZM14.1,14.9q0-.4-.3-.6c-.1,0-.3-.1-.4,0-.2.1-.3.3-.3.5,0,0,0,.1,0,.2,0,.2.1.3.3.4.2,0,.4,0,.5,0,.2-.1.2-.3.2-.4Z"/>
    <path class="st0" d="M25.5,11.9c-.5,0-.8-.3-.9-.7,0-.2,0-.4.2-.5.2-.3.5-.4.9-.3.3,0,.6.3.6.7,0,.2,0,.4-.2.6-.2.2-.4.3-.6.2Z"/>
    <path class="st0" d="M15.3,10.3c.4,0,.9.3,1,.6,0,.3-.2.6-.3.7-.4.2-.7.2-1.1,0-.4-.3-.4-.9,0-1.2.2-.1.4-.2.5-.2Z"/>
    <path class="st0" d="M26.4,15.5c-.3,0-.6-.2-.9-.5,0-.1,0-.4,0-.5,0-.3.2-.5.3-.7,0,0,0-.1,0-.2,0,0,0-.2.2-.2,0,0,.2,0,.3.1,0,0,0,.2,0,.3-.2.2-.2.6-.3.8-.1.2.1.5.4.5,0,0,.1,0,.1,0,.1-.2.3-.4.3-.7,0-.1,0-.3.2-.4,0,0,.2,0,.3,0,.1,0,.2.2.2.3,0,.1,0,.2-.1.3,0,.2-.2.4-.2.6,0,.2-.3.4-.6.4Z"/>
    <path class="st0" d="M17.3,13.8c0,.2,0,.4,0,.6,0,.1,0,.2-.2.3,0,0-.2,0-.2,0,0,0,0-.1,0-.2,0-.2,0-.4,0-.6,0-.2,0-.4,0-.6,0-.1,0-.2,0-.3,0,0,.2,0,.3,0,0,0,.1.1.1.2,0,0,0,.2,0,.2,0,0,0,0,0,.1,0,0,.1,0,.1,0,0-.1.2-.3.2-.4,0-.2.2-.3.4-.3.1,0,.1,0,0,.1,0,.2-.2.3-.2.5,0,.2,0,.4.1.5.1.1.3.3.4.4,0,.1,0,.2,0,.3-.2,0-.4,0-.5-.2,0-.1-.2-.2-.3-.3,0,0-.1,0-.2-.1Z"/>
    <path class="st0" d="M20.7,14.3c0,0-.2,0-.3,0,0,0,0,0,0,0-.2,0-.4,0-.6,0-.1,0-.4-.2-.4-.4,0-.2,0-.4.2-.6,0,0,.1-.2.1-.3,0-.3.1-.5.3-.6.1-.1.4,0,.5,0,0,0,0,.1,0,.1,0,0-.1.1-.2.1,0,0-.2,0-.2.1,0,.1,0,.2,0,.3.1.1.2.2.4.1,0,0,.2,0,.2,0,0,0,0,.2,0,.3,0,.2-.1.3,0,.4,0,0,0,.1,0,.2,0,0-.1,0-.2,0,0,0,0,0,0,0h0ZM19.8,13.7c0,.2,0,.2.2.2.1,0,.2,0,.2-.2,0-.1-.2-.3-.3-.3-.1,0-.2,0-.2.2Z"/>
    <path class="st0" d="M10.8,15.8c.2-.2.4-.4.6-.6.1,0,.3-.1.4-.2.2,0,.6.3.5.6,0,.3,0,.4.2.6,0,0,0,0,0,0,0,0,.2.1.1.3-.1.2-.3.2-.4.1-.2-.2-.4-.3-.6-.5,0,0,0,0,0,0,0-.1,0-.2,0-.3,0,0,0-.2-.1-.2-.1,0-.2,0-.3.1,0,.1,0,.4,0,.5,0,.1.1.3.2.4,0,.1.1.2.2.4,0,0,0,.1,0,.2-.2.2-.3.2-.4,0-.1-.3-.3-.6-.5-.9,0-.1-.2-.2-.2-.4Z"/>
    <path class="st0" d="M27.9,15.5c0,0-.1,0-.2.1,0,0,0,.1,0,.2,0,0,.2.2.3.3,0,0,.2.1.2.2,0,0,0,.2,0,.2,0,0-.1,0-.2,0-.1-.1-.3-.2-.5-.3,0,0-.1,0-.2-.1-.3,0-.3-.3-.2-.5.1-.2.2-.4.3-.5.1-.2.2-.4.3-.6.1-.2.2-.1.4,0,.2.1.4.2.5.4,0,0,.1,0,.2.1,0,0,.1.2,0,.2,0,0-.2.1-.3,0,0,0,0,0-.1,0,0,0,0,0-.1-.1-.1,0-.3,0-.3,0,0,.1,0,.2,0,.3.1,0,.2.1.3.2,0,0,0,.1,0,.2,0,0-.1.1-.2,0,0,0-.2,0-.2-.1,0,0-.1,0-.2-.1Z"/>
    <path class="st0" d="M16.4,14.5c0,.3,0,.4-.3.5-.2,0-.3,0-.5,0-.3,0-.6-.3-.7-.5,0-.1,0-.3,0-.4,0-.2,0-.4.2-.5.2-.2.4-.5.7-.5.2,0,.3,0,.4.2,0,.1,0,.2-.2.2,0,0-.2,0-.3,0-.2,0-.3.2-.3.4,0,.1,0,.2,0,.4,0,.2.1.4.3.3.1,0,.3,0,.4,0,0,0,.2,0,.2,0Z"/>
    <path class="st0" d="M30.2,16.3c0,0-.1-.1-.2-.2,0,0-.2,0-.2,0,0,0,0,.1-.1.2,0,0,0,.2,0,.3,0,.2,0,.4,0,.6,0,.2-.3.4-.6.2-.2-.2-.3-.3-.5-.5,0,0,0-.1,0-.2,0,0,.1,0,.2,0,0,0,0,.1.1.1,0,0,.1,0,.2,0,0,0,0-.1,0-.2,0-.2,0-.5,0-.7,0-.2.1-.3.3-.4.1,0,.3,0,.4,0,.1.1.2.2.3.3.1.1.1.2,0,.3Z"/>
    <path class="st0" d="M23.8,14.5s0,0,0-.1c.2-.4.2-.9.3-1.3,0-.1.2-.2.3-.2.1,0,.2.2.2.3,0,.2-.1.4-.2.6,0,.2,0,.4,0,.5,0,.1.1.2.3.2.1,0,.2,0,.3.2,0,0,0,.2,0,.2,0,0-.1,0-.2,0-.3,0-.5-.1-.8-.2-.1,0-.2-.1-.2-.3Z"/>
    <path class="st0" d="M15.9,29.4c0,.1,0,.3.1.4,0,0,.1.1.2.1,0,0,0,0,.1-.1,0-.1,0-.3.1-.4,0,0,0,0,0-.1.1-.2.3-.2.4,0,0,0,0,.1,0,.2-.2.4-.3.9-.5,1.3,0,.2-.2.3-.5.2,0,0,0,0-.1,0-.1,0-.2-.1-.2-.3,0,0,0,0,0-.1,0-.2,0-.3,0-.5,0,0,0-.1,0-.2,0,0-.2,0-.2,0,0,.1-.1.3-.2.4,0,.2,0,.3-.2.3-.1,0-.3,0-.4-.1,0,0,0-.2,0-.2,0-.2.2-.4.3-.6.1-.3.2-.5.3-.8,0-.1.2-.2.3-.1,0,0,.2,0,.3.1.2.1.3.3.2.6Z"/>
    <path class="st0" d="M19.8,31.5c-.2,0-.4,0-.5,0-.2,0-.3-.2-.2-.3,0,0,0,0,0-.1,0-.3,0-.6,0-.9,0-.1,0-.2,0-.4,0-.1.2-.2.3-.2.3,0,.5,0,.8,0,0,0,.1,0,.2,0,.1,0,.2,0,.2.2,0,.1,0,.2-.2.2-.2,0-.4,0-.6,0-.1,0-.2,0-.2.2,0,.1,0,.2.2.2.1,0,.2,0,.3,0,.1,0,.2,0,.2.2,0,0-.1.2-.3.2-.1,0-.3,0-.4,0-.1,0-.2,0-.2.1,0,0,.1.2.2.2.1,0,.3,0,.4,0,.1,0,.2,0,.2.2,0,.1-.1.2-.2.2-.2,0-.4,0-.5,0Z"/>
    <path class="st0" d="M26.7,29.3c0,.2,0,.5,0,.8,0,0,0,.1,0,.1-.2,0-.3.2-.5.2,0,0-.1,0,0-.1,0-.2.1-.4.2-.6,0-.2,0-.4,0-.6,0-.1-.2-.2-.3-.2-.1,0-.2.2-.2.3,0,0,0,.1.1.2,0,0,.2.1.2.3,0,.2,0,.2-.2.2-.3,0-.4,0-.5-.3,0-.2,0-.4,0-.5.1-.2.3-.4.5-.5.3-.2.8,0,.9.3,0,.1,0,.3,0,.5Z"/>
    <path class="st0" d="M27.8,28.8c0,0-.1.1-.2.2,0,0-.2.1-.3.1-.1,0-.4-.3-.4-.5,0-.4.2-.6.4-.8.2-.2.5-.2.7-.2.2,0,.3.2.4.4,0,.1,0,.3.1.5,0,.1,0,.3,0,.4,0,.2,0,.4-.2.5,0,0-.2.1-.3.2,0,0-.1,0-.1,0,0-.2,0-.4,0-.6,0-.1,0-.3,0-.4,0-.2,0-.3-.2-.4-.1,0-.2,0-.3,0,0,0-.1.2,0,.3,0,0,.2.2.3.3Z"/>
    <path class="st0" d="M23.9,31.1c0,0,0-.1,0-.2,0,0,0,0,0,0,0-.2,0-.3.2-.4,0,0,0,0,0-.1,0-.2,0-.4,0-.6,0-.1-.1-.2-.2-.2-.1,0-.2,0-.3.1,0,.1,0,.2,0,.3,0,0,.1.1.2.2,0,.1,0,.3-.1.3-.3,0-.6-.2-.6-.5,0-.4.4-.8.8-.8.2,0,.4,0,.6.2,0,0,.2.2.1.3,0,.3,0,.6,0,.9,0,.2-.1.4-.3.5-.1,0-.3,0-.5,0Z"/>
    <path class="st0" d="M18.4,29.8c-.2,0-.4,0-.6.2,0,0,0,.2-.1.2,0,.2,0,.4.2.6.1,0,.2.1.3.1,0,0,.1,0,.2,0,0,0,.2.1.2.2,0,0,0,.2-.2.2-.5,0-.9-.2-1.2-.6,0,0,0-.1,0-.2,0,0,0-.1,0-.2,0-.4.2-.7.5-.9,0,0,.2,0,.3,0,.3,0,.5,0,.8,0,.1,0,.2,0,.3.2,0,0,0,.2-.2.2,0,0,0,0,0,0,0,0-.2,0-.3,0Z"/>
    <path class="st0" d="M12.2,28.7c0,0,.1.1.2.1,0,0,.2,0,.3,0,.1,0,.2,0,.1-.2,0-.2,0-.4-.2-.5,0-.3.1-.6.4-.6.4,0,.6.2.8.5,0,.1,0,.2-.1.3,0,0-.1-.1-.2-.2,0,0-.2,0-.3,0,0,0,0,.1,0,.2,0,.1,0,.2,0,.3.2.3.1.6-.2.8-.2.1-.4,0-.6,0-.1,0-.3-.2-.4-.3-.2-.2-.2-.2,0-.4Z"/>
    <path class="st0" d="M22.2,30.1c-.1,0-.3,0-.4-.1,0-.2,0-.2.2-.4.2-.2.4-.2.6-.2.1,0,.2,0,.2.2,0,.5,0,1,0,1.5,0,.2,0,.3-.3.3-.2,0-.3,0-.3-.3,0-.3,0-.6,0-1Z"/>
    <path class="st0" d="M14.8,28.6s0,0,0,0c-.2.4-.5.8-.7,1.2,0,0-.2.2-.3.2-.1,0-.2-.2-.4-.2,0,0,0,0,0-.1.2-.4.5-.8.7-1.2.2-.3.4-.3.6,0,0,0,0,0,0,0Z"/>
    <path class="st0" d="M25.7,20c.2,0,.4,0,.5,0,.2,0,.3.2.4.3,0,0,0,.2,0,.3-.3.3-.7.6-1.2.7-.2,0-.4,0-.3-.3,0-.2,0-.3,0-.5,0-.3.1-.4.4-.5.1,0,.2,0,.3,0Z"/>
    <path class="st0" d="M25.3,23.1c-.1,0-.2,0-.3,0,0,0-.1,0-.1-.1,0-.2,0-.4,0-.7,0-.1,0-.2.2-.2.3,0,.5,0,.8,0,.2,0,.3.1.5.2.1,0,0,.2,0,.3-.4.3-.5.4-1,.4Z"/>
    <path class="st0" d="M14.7,20c.3,0,.5,0,.6.3,0,0,0,.2,0,.3-.2.3-.4.6-.8.7-.1,0-.3.2-.4.2,0,0-.2,0-.3,0,0,0,0-.2,0-.3,0-.3,0-.6,0-.9,0-.2,0-.3.2-.3.2,0,.5,0,.7-.1Z"/>
    <path class="st0" d="M19.2,22c0,0,0-.1,0-.2,0-.2.2-.4.2-.7,0-.1,0-.2,0-.3,0-.2,0-.3.1-.4,0,0,.1-.1.1,0,0,0,.1,0,.1.1,0,.1,0,.3,0,.4,0,.3,0,.7.1,1,0,.2,0,.3-.3.4-.1,0-.3,0-.5,0-.1,0-.2-.1-.2-.3Z"/>
  </g>
  <g>
    <rect class="st0" x="67" y="27.3" width="10.8" height="1.2"/>
    <path class="st0" d="M95.9,27.5v.9h-18v-.9h18M96.1,27.3h-18.3v1.2h18.3v-1.2h0Z"/>
    <rect class="st0" x="96.1" y="27.3" width="18.8" height="1.2"/>
    <path class="st0" d="M133,27.5v.9h-17.9v-.9h17.9M133.2,27.3h-18.2v1.2h18.2v-1.2h0Z"/>
    <rect class="st0" x="133.2" y="27.3" width="10.7" height="1.2"/>
    <g>
      <path class="st0" d="M80.9,23.5c.4.4.6.7.7.9.1.2.2.4.2.6s0,.3-.1.5c-.1.2-.3.4-.5.4-.4,0-.9-.4-1.6-1.2-.4-.5-.7-.9-.9-1.3-.1-.3-.4-.7-.6-1.3-.3-.6-.5-1.1-.7-1.3-.1-.3-.5-.4-1-.4s-.3,0-.5,0c-.1,0-.2,0-.3,0-.5,0-1.3.1-2.3.3-1.2,1.9-1.9,3-2.1,3.3-.5.6-.9.9-1.2.9s-.2,0-.3,0c-.1,0-.2-.1-.3-.3,0,0,0-.1,0-.2,0-.4.3-1.1.8-2.1.4-.7.5-1.1.5-1.2h0c0,0,0,0-.2,0s-.2,0-.3,0c-.2,0-.3,0-.3,0-.2,0-.3,0-.4-.1,0,0,0-.1,0-.2s0-.1,0-.2c.1-.3.3-.6.5-.8.2-.1.5-.3.9-.4.7-.2,1.4-1.3,2.2-3.2,0,0,0-.3.2-.5.3-.9.6-1.5.8-1.9.4-.7.9-1.1,1.4-1.1,1,0,1.6.6,1.8,1.7.2,1.4.5,2.6.9,3.6,0,0,0,.1,0,.3,0,.2.1.4.2.4,0,0,.1,0,.2,0s0,0,.1,0c0,0,.1,0,.3,0,.2,0,.4,0,.5,0,.3,0,.5,0,.7.3,0,0,.1.2.1.3s0,.1,0,.2c-.1.3-.6.6-1.4.9v.2c.6,1.3,1,2.2,1.4,2.7,0,0,.2.2.3.4M76.4,18.5c0-.1,0-.3-.1-.6-.3-1.3-.5-2.1-.7-2.5-.2.4-.6,1.3-1.1,2.7-.2.4-.3.7-.3.9.2,0,.5,0,1-.2.6-.1,1-.2,1.3-.2"/>
      <path class="st0" d="M86.9,19c.4.1,1,.3,1,.8,0,0,0,0,0,0,0,0,0,0,0,0,0,0-.1.1-.1.2-.1.2-.1.5-.1.7s0,.6,0,1c0,.3,0,.5,0,.6v.3c0,.8,0,1.6,0,2.2,0,1,0,1.8-.1,2.4,0,.7-.2,1.3-.5,1.8-.4.8-1,1.3-1.7,1.4-.2,0-.3,0-.5,0-.7,0-1.3-.2-1.8-.7-.3-.2-.5-.5-.7-.8,0-.2-.2-.3-.2-.4-.4-.6-.6-1-.6-1.4s.1-.5.3-.7c0,0,.1,0,.2,0,.3,0,.6.3,1,.9.2.4.5.7.8.9.4.3.7.4,1,.4s.7-.3.9-.8c.2-.5.3-1.3.3-2.3s0-.7,0-1.1c0-.6,0-1.1,0-1.5s0-.3,0-.4c-.1.2-.3.4-.5.8-.5.8-1,1.3-1.6,1.5-.1,0-.3,0-.4,0-.5,0-.9-.2-1.2-.6-.3-.4-.5-.8-.6-1.2,0-.2,0-.4,0-.7,0-.9.3-1.7.9-2.4.8-.9,1.8-1.4,3.1-1.4h.2c.4,0,.8,0,1.2.2M83.7,21.3c-.2.3-.4.6-.4,1,0,.1,0,.3,0,.4,0,.3,0,.4.2.6,0,0,0,0,0,0,.3,0,1-.8,2.2-2.5.2-.2.3-.4.3-.4,0,0-.1,0-.3,0-.3,0-.6,0-1,.3-.4.2-.8.5-1,.8"/>
      <path class="st0" d="M95.6,20.9c.3-.2.6-.4.7-.4s.2.1.2.4c-.1.7-.5,1.5-1.3,2.3-.7.8-1.4,1.3-2.2,1.5-.3,0-.5,0-.8,0-1.3,0-2.5-.7-3.6-2.2-.4-.5-.6-1.2-.6-2s0-.8,0-1.2c.1-.8.8-1.3,1.9-1.5.2,0,.3,0,.5,0,.4,0,.8.1,1.2.4.4.3.8.7,1,1.3,0,.3.1.5.1.7,0,.7-.3,1.2-1,1.6-.1,0-.2.1-.4.2-.2,0-.3.1-.4.1,0,0-.1.1-.1.2h0c0,.1,0,.2.2.4.3.3.7.5,1.1.5s.2,0,.4,0c.5-.1,1-.5,1.6-1.1.7-.8,1.1-1.3,1.3-1.4M90.3,21.5c.3,0,.5,0,.7-.3.2-.2.3-.4.3-.7,0,0,0,0,0-.1,0-.2,0-.4-.2-.6-.1-.2-.4-.3-.6-.4,0,0,0,0-.1,0-.2,0-.3,0-.4.2-.1.1-.2.4-.2.6,0,.6.2,1,.5,1.2"/>
      <path class="st0" d="M134.3,20.9c.3-.2.6-.4.7-.4s.2.1.2.4c-.1.7-.5,1.5-1.3,2.3-.7.8-1.4,1.3-2.2,1.5-.3,0-.5,0-.8,0-1.3,0-2.5-.7-3.6-2.2-.4-.5-.6-1.2-.6-2s0-.8,0-1.2c.1-.8.8-1.3,1.9-1.5.2,0,.3,0,.5,0,.4,0,.8.1,1.2.4.4.3.8.7,1,1.3,0,.3.1.5.1.7,0,.7-.3,1.2-1,1.6-.1,0-.2.1-.4.2-.2,0-.3.1-.4.1,0,0-.1.1-.1.2h0c0,.1,0,.2.2.4.3.3.7.5,1.1.5s.2,0,.4,0c.5-.1,1-.5,1.6-1.1.7-.8,1.1-1.3,1.3-1.4M129,21.5c.3,0,.5,0,.7-.3.2-.2.3-.4.3-.7,0,0,0,0,0-.1,0-.2,0-.4-.2-.6-.1-.2-.4-.3-.6-.4,0,0,0,0-.1,0-.2,0-.3,0-.4.2-.1.1-.2.4-.2.6,0,.6.2,1,.5,1.2"/>
      <path class="st0" d="M103.3,23.1c.1.4.2.8.2,1.1s0,.4-.1.5c-.1.2-.3.2-.6.2s-.2,0-.4,0c-.4,0-.7-.5-.9-1.3-.1-.5-.3-1.3-.4-2.5-.1-.8-.2-1.3-.3-1.6-.7.5-1.3,1.1-1.5,1.9-.3.8-.1,3.2-1.5,3.2s-.5-.2-.7-.6c-.1-.2-.2-.6-.2-1.1s0-1.1.2-1.8c0-.6.1-1,.1-1.3,0-.5.1-.8.4-1,.2-.2.4-.2.6-.2s.2,0,.3,0c.3,0,.4.2.5.3.1-.2.3-.4.6-.8.2-.3.4-.6.5-.7.1-.1.3-.2.5-.4.3-.2.6-.3.8-.3s.5.1.6.4c.4.8.7,2.1.9,3.9,0,.6.2,1.1.2,1.4,0,.1,0,.3.1.5"/>
      <path class="st0" d="M111.3,22.8c.4.4.5.8.5,1s0,.2,0,.2c-.2.5-.5.7-.8.7s-.9-.5-1.6-1.5c-.2-.2-.3-.4-.3-.5-.4.9-1.3,1.5-2.5,1.9-.6.2-1.3.3-2,.2-.2,0-.4,0-.6-.3s-.1-.2-.1-.4c-.2-.8,0-1.6.5-2.3s1.1-1.2,1.7-1.7c.3-.2.7-.4,1.1-.5s.9-.3.9-.6c0-.3,0-.7,0-1.3s0-.6,0-1c0-.4,0-.8,0-1.1s0-.4,0-.5h0c0-.2,0-.4,0-.5,0-.8.1-1.4.4-1.7.2-.2.4-.3.7-.3s0,0,.1,0c.1,0,.3.1.4.4.1.2.2.4.2.6,0,.5.1,1.2.1,2.3v.4c0,.1,0,.4,0,.7,0,.2,0,.3,0,.5,0,1,0,1.8.2,2.3.2.8.6,1.8,1.1,2.8M108,21.3c-.4.2-.9.4-1.3.6-.5.3-.8.6-.8.8,0,0,0,0,0,.1,0,.1,0,.2.1.3h.2c.4,0,.8-.2,1.2-.6.4-.4.6-.8.7-1.2"/>
      <path class="st0" d="M120,23c.3.4.5.8.5,1.1,0,.2-.2.4-.4.6-.2.2-.5.2-.7.2s-.4,0-.5-.2c-.3-.3-.6-.8-.8-1.5-.2-.6-.4-1-.5-1.2,0,0-.1.2-.2.3-.5.7-.9,1.3-1.2,1.6-.5.6-1.1.9-1.7,1-.2,0-.3,0-.5,0-.5,0-.8-.1-1.1-.4-.3-.3-.4-.7-.5-1.1,0-.8.4-1.5.8-2.2.6-1,1.5-1.8,2.5-2.4s1.5-1,2.4-1h0c.3,0,.6.3.8.9.1.4.2.9.3,1.7,0,.3,0,.4,0,.5,0,0,0,.2,0,.3.1.6.2,1,.4,1.3,0,.1.2.3.3.5M116.7,19.9s0,0,0,0c-.1,0-.3.1-.6.4-.3.4-.7.8-1,1.4-.3.6-.5,1-.5,1.3.5-.1.9-.5,1.4-1.3.5-.7.7-1.3.8-1.8"/>
      <path class="st0" d="M133.1,7.9h0s0,0,0,0M133.1,7.9s0,0,0,0h0s0,0,0,0ZM133.1,7.9h0s0,0,0,0h0ZM132.4,7.4c-.1,0-.2,0-.3,0-.3,0-.6,0-.9,0h-1.2c-.4,0-.8,0-1.2,0s-.8,0-1.2,0h-1.2c-.4,0-.8,0-1.2,0-2,0-4.1,0-6.1-.1-.9,0-1.8,0-2.6,0-.3,0-.5,0-.8,0s-.5.3-.5.6c0,.4.4.6.7.7,1.7.5,3.5,0,5.3.3.5,0,1,.2,1.3.6.5.5.6,1.4.5,2.1-.3,2.1-.6,4.2-.7,6.3s-.1,3-.1,4.5c0,.7,0,1.4,0,2.1,0,.2,0,.5.1.7s.3.4.6.3c.2,0,.4-.3.4-.6.1-.4.2-.8.2-1.2.6-4.5-.1-9.2,1.2-13.6,0-.2.1-.4.3-.6.2-.2.5-.3.8-.3.3,0,.7,0,1,0,.5,0,1,0,1.4,0,1,0,1.9,0,2.9-.1.3,0,.6-.1.9-.2.3,0,.5-.2.7-.4.1-.2.1-.5-.1-.6s-.1,0-.2-.1M132.1,6c.3,0,.6.1.9.2.3.1.5.3.8.5.2.2.4.4.5.6.2.3.2.5.2.8,0,.1,0,.3-.1.4-.4,1-1.6,1.5-2.6,1.7-1.4.3-2.9.2-4.3,0-.3,0-.8,0-1.1.1-.3.2-.3.7-.4,1,0,.4-.2.9-.2,1.3,0,0,0,0,0,0,0,.3,0,.5,0,.8,0,.3,0,.6,0,.9v1c0,.2,0,.2,0,.2h0c0,0,0,.1,0,.1,0,1.8-.2,3.2-.2,4.3,0,1.1-.1,1.9-.1,2.3h0c0,0,0,.2,0,.3,0,.1,0,.3,0,.5h0c0,.2,0,.4,0,.5,0,.2,0,.3,0,.4v.3c0,.3-.1.7-.2.9,0,.3-.2.6-.4.8h0c-.2.3-.5.5-.9.6-.3,0-.7.1-1.2.1,0,0,0,0-.1,0-.4,0-.7-.2-1-.5-.2-.2-.3-.6-.4-1,0,0,0-.2,0-.5,0-.2,0-.6,0-1,0-.9,0-1.9,0-3.1,0-1.2.1-2.6.2-4v-.7c0-.3.1-.5.1-.8,0-.7.1-1.4.2-2.2,0-.3,0-.6,0-.8s0-.6,0-.8,0-.2,0-.3,0-.2,0-.3c0-.1,0-.3-.1-.3s0,0-.1,0c-.3,0-.6,0-1-.1h0c0,0-.2,0-.4,0-.2,0-.5,0-.8,0-.4,0-.8,0-1.1,0-.3,0-.6,0-.8,0-.2,0-.3,0-.4,0-.1,0-.3,0-.4,0-.6,0-1.2-.2-1.5-.3-.5-.2-.8-.5-1-.9-.1-.2-.2-.4-.2-.6,0-.2,0-.4,0-.6,0-.5.3-.9.8-1.3.4-.3.9-.4,1.6-.6h0c.5,0,1-.1,1.6-.2.6,0,1.2,0,1.8,0,.7,0,1.6.1,2.6.1,1,0,2.2,0,3.6,0,1.4,0,2.7,0,3.7,0,1.1,0,1.9,0,2.6.1h0Z"/>
    </g>
    <g>
      <path class="st0" d="M137.9,8.2v.5c0,0,0,.2,0,.2,0,0,0,0,0,0,0,0,0,0,.2,0h0s-.9,0-.9,0h0c0,0,.1,0,.2,0,0,0,0,0,0,0s0,0,0-.2v-1.2c0,0,0-.2,0-.2,0,0,0,0,0,0s0,0-.2,0h0s.8,0,.8,0c.2,0,.4,0,.5,0s.2,0,.2.2,0,.2,0,.3,0,.2-.1.3c0,0-.1,0-.3.1l.4.6c0,0,0,.1.1.1,0,0,0,0,.1,0h0s-.6,0-.6,0l-.6-.8h-.1ZM137.9,7.3v.8h0c.1,0,.2,0,.3,0s.1,0,.1-.1,0-.1,0-.2c0-.1,0-.2,0-.3,0,0-.2,0-.3,0h-.1Z"/>
      <path class="st0" d="M138.1,10.1c-1.1,0-2.1-.9-2.1-2.1s.9-2.1,2.1-2.1,2.1.9,2.1,2.1-.9,2.1-2.1,2.1ZM138.1,6.4c-.9,0-1.7.8-1.7,1.7s.8,1.7,1.7,1.7,1.7-.8,1.7-1.7-.8-1.7-1.7-1.7Z"/>
    </g>
    <g>
      <path class="st0" d="M91.3,31.6s0,0,0,0h0s0,0,0,0c0,0,0,0-.1.1,0,0-.1,0-.2,0,0,0,0,0,0,0-.2,0-.3,0-.5,0,0,0-.1,0-.2,0,0,0,0,0,0,0-.1,0-.2,0-.3,0s0,0,0,0c-.1,0-.2,0-.2-.2h0c0,0,0-.1,0-.3,0-.1,0-.2,0-.2h0c0-.3,0-.5,0-.7,0,0,0,0,0,0s0,0,0,0h0c0-.2,0-.3,0-.3,0-.2,0-.3.1-.4,0,0,0,0,0,0s0,0,0,0c0,0,0,0,0,0,0,0,0,0,.1,0,0,0,0,0,0,.1s0,0,0,0c0,0,0,.1,0,.2,0,0,0,0,0,0,0,0,0,.1,0,.2,0,.1,0,.2,0,.4s0,.3,0,.4c0,.1,0,.2,0,.3,0,0,.1,0,.2,0,.1,0,.2,0,.4,0,.1,0,.2,0,.4,0s0,0,.1,0c.1,0,.2,0,.2,0"/>
      <path class="st0" d="M92.5,31.8c0,0,0,.1,0,.2,0,0,0,0,0,0,0,0,0,0-.1,0s0,0,0,0c0,0,0-.1-.1-.3,0-.1,0-.2,0-.2,0,0,0,0,0,0,0,.1-.1.2-.2.3,0,0-.2.2-.3.2,0,0,0,0,0,0,0,0-.1,0-.2,0,0,0,0-.1,0-.2,0-.2.1-.4.3-.6.3-.2.5-.3.6-.3h0c0,0,.1,0,.1.2,0,0,0,.2,0,.3,0,0,0,0,0,0,0,0,0,0,0,0,0,.1,0,.2,0,.2,0,0,0,0,0,0M91.9,31.3s0,0,0,0c0,0,0,0-.1,0,0,0-.1.1-.2.2,0,0,0,.2,0,.2,0,0,.2,0,.2-.2,0-.1.1-.2.1-.3"/>
      <path class="st0" d="M95.8,31.7c0,0,.1.1.1.2,0,0,0,0,0,.1s0,0,0,0c0,0,0,0,0,0,0,0-.2,0-.3-.2,0,0-.1-.2-.1-.2,0,0,0-.1-.1-.2,0-.1,0-.2-.1-.2,0,0,0,0-.2,0s0,0,0,0c0,0,0,0,0,0,0,0-.2,0-.4,0-.2.3-.3.5-.4.6,0,0-.1.1-.2.1s0,0,0,0c0,0,0,0,0,0,0,0,0,0,0,0,0,0,0-.2.1-.4,0-.1,0-.2,0-.2h0s0,0,0,0,0,0,0,0c0,0,0,0,0,0,0,0,0,0,0,0,0,0,0,0,0,0s0,0,0,0c0,0,0-.1,0-.1,0,0,0,0,.1,0,.1,0,.2-.2.4-.6,0,0,0,0,0,0,0-.2,0-.3.1-.3,0-.1.2-.2.2-.2.2,0,.3,0,.3.3,0,.2,0,.4.1.6,0,0,0,0,0,0,0,0,0,0,0,0,0,0,0,0,0,0s0,0,0,0c0,0,0,0,0,0,0,0,0,0,0,0,0,0,0,0,.1,0,0,0,0,0,0,0s0,0,0,0c0,0,0,.1-.2.1h0c0,.2.2.4.2.5,0,0,0,0,0,0M95,30.9s0,0,0-.1c0-.2,0-.4-.1-.4,0,0-.1.2-.2.5,0,0,0,.1,0,.2,0,0,0,0,.2,0,0,0,.2,0,.2,0"/>
      <path class="st0" d="M96.9,31c.1,0,.2,0,.2.1h0s0,0,0,0c0,0,0,0,0,.2s0,.1,0,.2c0,0,0,0,0,0h0c0,.2,0,.3,0,.4,0,.2,0,.3,0,.4,0,.1,0,.2,0,.3,0,.1-.2.2-.3.2,0,0,0,0,0,0-.1,0-.2,0-.3-.1,0,0,0,0-.1-.1,0,0,0,0,0,0,0,0,0-.2,0-.2s0,0,0-.1c0,0,0,0,0,0,0,0,.1,0,.2.1,0,0,0,.1.1.2,0,0,.1,0,.2,0s.1,0,.2-.1c0,0,0-.2,0-.4s0-.1,0-.2c0-.1,0-.2,0-.2s0,0,0,0c0,0,0,0,0,.1,0,.1-.2.2-.3.3,0,0,0,0,0,0,0,0-.1,0-.2,0,0,0,0-.1-.1-.2,0,0,0,0,0-.1,0-.2,0-.3.2-.4.1-.2.3-.2.5-.2h0c0,0,.1,0,.2,0M96.3,31.4c0,0,0,.1,0,.2,0,0,0,0,0,0,0,0,0,0,0,0,0,0,0,0,0,0,0,0,.2-.1.4-.4,0,0,0,0,0,0,0,0,0,0,0,0,0,0-.1,0-.2,0,0,0-.1,0-.2.1"/>
      <path class="st0" d="M98.5,31.5c0,0,0,0,.1,0s0,0,0,0c0,.1,0,.3-.2.4-.1.1-.2.2-.4.3,0,0,0,0-.1,0-.2,0-.4-.1-.6-.4,0,0,0-.2,0-.3s0-.1,0-.2c0-.1.1-.2.3-.3,0,0,0,0,0,0,0,0,.1,0,.2,0,0,0,.1.1.2.2,0,0,0,0,0,.1,0,.1,0,.2-.2.3,0,0,0,0,0,0,0,0,0,0,0,0,0,0,0,0,0,0h0s0,0,0,0c0,0,.1,0,.2,0s0,0,0,0c0,0,.2,0,.3-.2.1-.1.2-.2.2-.2M97.6,31.5s0,0,.1,0c0,0,0,0,0-.1,0,0,0,0,0,0,0,0,0,0,0,0,0,0,0,0-.1,0,0,0,0,0,0,0,0,0,0,0,0,0,0,0,0,0,0,.1,0,0,0,.2,0,.2"/>
      <path class="st0" d="M99.8,31.8c0,0,0,.1,0,.2s0,0,0,0c0,0,0,0-.1,0s0,0,0,0c0,0-.1,0-.2-.2,0,0,0-.2,0-.4,0-.1,0-.2,0-.3-.1,0-.2.2-.2.3,0,0,0,.2,0,.3,0,0,0,.1,0,.2,0,0,0,.1-.2.1s0,0-.1,0c0,0,0-.1,0-.2s0-.2,0-.3c0-.1,0-.2,0-.2,0,0,0-.1,0-.2,0,0,0,0,.1,0s0,0,0,0c0,0,0,0,0,0,0,0,0,0,0-.1,0,0,0,0,0-.1,0,0,0,0,0,0,0,0,0,0,.1,0s0,0,.1,0c0,.1.1.4.2.7,0,.1,0,.2,0,.2,0,0,0,0,0,0"/>
      <path class="st0" d="M101.2,31.8c0,0,0,.1,0,.2s0,0,0,0c0,0,0,.1-.1.1s-.2,0-.3-.3c0,0,0,0,0,0,0,.2-.2.3-.4.3,0,0-.2,0-.3,0-.1,0-.2,0-.2-.1,0,0,0,0,0-.1,0-.2.1-.4.4-.6,0,0,0,0,.1,0,.1,0,.2,0,.2-.1,0,0,0-.1,0-.2s0-.1,0-.2c0,0,0-.1,0-.2s0,0,0,0h0s0,0,0,0c0-.1,0-.2,0-.3,0,0,0,0,.1,0s0,0,0,0c0,0,0,0,0,0,0,0,0,0,0,.1,0,0,0,.2,0,.4h0c0,0,0,.1,0,.2,0,0,0,0,0,0,0,.2,0,.3,0,.4,0,.1,0,.3.2.5M100.6,31.5c0,0-.1,0-.2.1,0,0-.1,0-.1.1,0,0,0,0,0,0,0,0,0,0,0,0h0c0,0,.1,0,.2-.1,0,0,.1-.1.1-.2"/>
      <path class="st0" d="M102.7,31.8c0,0,0,.1,0,.2,0,0,0,0,0,0,0,0,0,0-.1,0s0,0,0,0c0,0,0-.1-.1-.3,0-.1,0-.2,0-.2,0,0,0,0,0,0,0,.1-.1.2-.2.3,0,0-.2.2-.3.2,0,0,0,0,0,0,0,0-.1,0-.2,0,0,0,0-.1,0-.2,0-.2.1-.4.3-.6.3-.2.5-.3.6-.3h0c0,0,.1,0,.1.2,0,0,0,.2,0,.3,0,0,0,0,0,0,0,0,0,0,0,0,0,.1,0,.2,0,.2,0,0,0,0,0,0M102.1,31.3s0,0,0,0c0,0,0,0-.1,0,0,0-.1.1-.2.2,0,0,0,.2,0,.2,0,0,.2,0,.2-.2,0-.1.1-.2.1-.3"/>
      <path class="st0" d="M106.5,31s0,0,0,0c0,.1,0,.3-.3.5-.2.2-.3.3-.6.4-.2.1-.5.2-.8.2s-.4,0-.5-.1c-.2-.1-.4-.3-.4-.5,0,0,0-.1,0-.2s0-.2,0-.3c0-.3.2-.5.5-.8.2-.2.5-.3.7-.3s0,0,0,0c0,0,0,0,.1,0,0,0,0,0,0,0,0,0,0,0,0,0,0,0,0,.1-.2.2h0c-.2.1-.4.2-.5.3-.1,0-.2.2-.2.3,0,.1,0,.2,0,.3s0,0,0,0c0,.1,0,.2.2.3.1,0,.3.1.4.1.3,0,.5,0,.7-.2,0,0,0,0,0,0,.4-.4.7-.6.8-.6s0,0,0,0"/>
      <path class="st0" d="M107.3,31.8c0,.1,0,.2,0,.3s0,.1-.1.1,0,0-.1,0c0,0-.1-.2-.1-.3,0,0,0,0,0-.1,0,0-.1.2-.2.3-.1,0-.2.1-.3.1s-.1,0-.2,0c0,0,0-.2,0-.3s0-.3,0-.4c0-.2.1-.3.2-.3h0s0,0,0,0c0,0,0,0,0,.1,0,0,0,.2,0,.4,0,.1,0,.2,0,.2s0,0,0,0c0,0,0,0,0,0,.1,0,.2-.2.2-.3,0,0,0-.2,0-.3,0,0,0-.1,0-.2,0,0,0,0,0,0,0,0,.1,0,.2.2,0,0,0,.2,0,.3,0,0,0,.1,0,.2,0,0,0,.1,0,.2"/>
      <path class="st0" d="M108,31.9c0,0,0,.1,0,.2,0,0,0,0,0,0s0,0-.1,0c0,0-.1-.3-.2-.6,0,0,0,0,0-.1,0-.1,0-.2,0-.4h0c0-.4,0-.6,0-.9h0s0,0,0,0c0,0,.1,0,.2,0s0,0,0,0c0,0,0,.2,0,.4s0,.2,0,.4c0,0,0,0,0,0,0,0,0,.1,0,.2,0,.3,0,.5,0,.8,0,0,0,0,0,.1"/>
      <path class="st0" d="M109.4,31s0,0,0,0,0,0,0,0c0,0-.1.1-.2.1,0,0-.2,0-.4,0h0s0,0,0,0c0,0,0,.1,0,.1s0,0,0,0c0,0,0,.2,0,.3h0c0,.2,0,.3,0,.3,0,0,0,0,0,0,0,0-.1,0-.1,0,0,0,0-.2,0-.4s0-.1,0-.2c0,0,0,0,0,0,0,0,0-.1,0-.1,0,0,0,0-.1,0h0s0,0,0,0c0,0,0,0-.1,0,0,0,0,0-.1-.1h0s0,0,0,0c0,0,.1,0,.2,0s0,0,0,0c0,0,0,0,0,0,0,0,0,0,0,0,0,0,0-.2,0-.3s0-.1,0-.2c0-.2,0-.4.1-.4,0,0,0,0,.1,0h0s0,0,0,0c0,0,0,.1,0,.3s0,.2,0,.3c0,0,0,.1,0,.2,0,0,0,0,0,.1h0c0,.1,0,.1,0,.1s0,0,0,0c0,0,.2,0,.3,0,0,0,0,0,0,0,0,0,.1,0,.1,0,0,0,0,0,.1,0"/>
      <path class="st0" d="M110.4,31.8c0,.1,0,.2,0,.3s0,.1-.1.1,0,0-.1,0c0,0-.1-.2-.1-.3,0,0,0,0,0-.1,0,0-.1.2-.2.3-.1,0-.2.1-.3.1s-.1,0-.2,0c0,0,0-.2,0-.3s0-.3,0-.4c0-.2.1-.3.2-.3h0s0,0,0,0c0,0,0,0,0,.1,0,0,0,.2,0,.4,0,.1,0,.2,0,.2s0,0,0,0c0,0,0,0,0,0,.1,0,.2-.2.2-.3,0,0,0-.2,0-.3,0,0,0-.1,0-.2,0,0,0,0,0,0,0,0,.1,0,.2.2,0,0,0,.2,0,.3,0,0,0,.1,0,.2,0,0,0,.1,0,.2"/>
      <path class="st0" d="M111.7,31s0,0,0,0,0,0,0,0c-.2,0-.3.2-.4.3-.1.1-.2.3-.2.5,0,.1,0,.2-.1.2s0,0,0,0c0,0-.1-.2-.2-.4,0-.2,0-.3,0-.5,0,0,0-.1,0-.1,0,0,0,0,0,0s0,0,0,0c0,0,.1.2.1.4,0-.1.1-.2.2-.3.1-.1.3-.2.4-.2h0s0,0,.1,0"/>
      <path class="st0" d="M113.1,31.8c0,0,0,.1,0,.2,0,0,0,0,0,0,0,0,0,0-.1,0s0,0,0,0c0,0,0-.1-.1-.3,0-.1,0-.2,0-.2,0,0,0,0,0,0,0,.1-.1.2-.2.3,0,0-.2.2-.3.2,0,0,0,0,0,0,0,0-.1,0-.2,0,0,0,0-.1,0-.2,0-.2.1-.4.3-.6.3-.2.5-.3.6-.3h0c0,0,.1,0,.1.2,0,0,0,.2,0,.3,0,0,0,0,0,0,0,0,0,0,0,0,0,.1,0,.2,0,.2,0,0,0,0,0,0M112.5,31.3s0,0,0,0c0,0,0,0-.1,0,0,0-.1.1-.2.2,0,0,0,.2,0,.2,0,0,.2,0,.2-.2,0-.1.1-.2.1-.3"/>
      <path class="st0" d="M113.7,31.9c0,0,0,.1,0,.2,0,0,0,0,0,0s0,0-.1,0c0,0-.1-.3-.2-.6,0,0,0,0,0-.1,0-.1,0-.2,0-.4h0c0-.4,0-.6,0-.9h0s0,0,0,0c0,0,.1,0,.2,0s0,0,0,0c0,0,0,.2,0,.4s0,.2,0,.4c0,0,0,0,0,0,0,0,0,.1,0,.2,0,.3,0,.5,0,.8,0,0,0,0,0,.1"/>
      <path class="st0" d="M116.3,31.8c0,0,0,.1,0,.2s0,0,0,0c0,0,0,.1-.1.1s-.2,0-.3-.3c0,0,0,0,0,0,0,.2-.2.3-.4.3,0,0-.2,0-.3,0-.1,0-.2,0-.2-.1,0,0,0,0,0-.1,0-.2.1-.4.4-.6,0,0,0,0,.1,0,.1,0,.2,0,.2-.1,0,0,0-.1,0-.2s0-.1,0-.2c0,0,0-.1,0-.2s0,0,0,0h0s0,0,0,0c0-.1,0-.2,0-.3,0,0,0,0,.1,0s0,0,0,0c0,0,0,0,0,0,0,0,0,0,0,.1,0,0,0,.2,0,.4h0c0,0,0,.1,0,.2,0,0,0,0,0,0,0,.2,0,.3,0,.4,0,.1,0,.3.2.5M115.8,31.5c0,0-.1,0-.2.1,0,0-.1,0-.1.1,0,0,0,0,0,0,0,0,0,0,0,0h0c0,0,.1,0,.2-.1,0,0,.1-.1.1-.2"/>
      <path class="st0" d="M117.8,31.5c0,0,0,0,.1,0s0,0,0,0c0,.1,0,.3-.2.4-.1.1-.2.2-.4.3,0,0,0,0-.1,0-.2,0-.4-.1-.6-.4,0,0,0-.2,0-.3s0-.1,0-.2c0-.1.1-.2.3-.3,0,0,0,0,0,0,0,0,.1,0,.2,0,0,0,.1.1.2.2,0,0,0,0,0,.1,0,.1,0,.2-.2.3,0,0,0,0,0,0,0,0,0,0,0,0,0,0,0,0,0,0h0s0,0,0,0c0,0,.1,0,.2,0s0,0,0,0c0,0,.2,0,.3-.2.1-.1.2-.2.2-.2M116.9,31.5s0,0,.1,0c0,0,0,0,0-.1,0,0,0,0,0,0,0,0,0,0,0,0,0,0,0,0-.1,0,0,0,0,0,0,0,0,0,0,0,0,0,0,0,0,0,0,.1,0,0,0,.2,0,.2"/>
      <path class="st0" d="M120.5,30.9c.3,0,.4.2.5.2,0,0,.1.1.1.2s0,0,0,0c0,.1-.1.3-.3.4-.2.1-.4.2-.7.3,0,0-.1,0-.2,0-.2,0-.4,0-.5-.1-.2-.1-.4-.3-.4-.5h0c0-.2,0-.3.2-.3,0,0,0,0,0,0s0,0,0,0c0,0,0,0,0,0,0,0,0,0,0,0,0,0,0,0,0,0,0,0,0,0,0,0h0c0,0,0,.1,0,.2.1.1.3.2.5.2s0,0,.1,0c.2,0,.5-.1.6-.3,0,0,0,0,0,0s0,0,0,0c0,0,0,0-.2,0,0,0-.1,0-.3,0-.2,0-.3,0-.4-.1-.3-.1-.6-.2-.7-.3-.2-.1-.3-.2-.3-.4h0c0-.1.1-.3.3-.3.2,0,.3,0,.5,0,0,0,0,0,0,0,.1,0,.3,0,.4,0,.2,0,.3.1.3.2s0,0,0,0c0,0,0,.1,0,.1,0,0,0,0,0,0s0,0,0,0c0,0,0,0-.1,0,0,0-.1,0-.2,0,0,0-.2,0-.3,0s-.1,0-.2,0c-.2,0-.3,0-.3,0,0,0,0,0,0,0,0,0,.1.2.4.3,0,0,.2,0,.4.1.2,0,.3,0,.4.1"/>
      <path class="st0" d="M122.4,31.8c0,0,0,.1,0,.2,0,0,0,0,0,0,0,0,0,0-.1,0s0,0,0,0c0,0,0-.1-.1-.3,0-.1,0-.2,0-.2,0,0,0,0,0,0,0,.1-.1.2-.2.3,0,0-.2.2-.3.2,0,0,0,0,0,0,0,0-.1,0-.2,0,0,0,0-.1,0-.2,0-.2.1-.4.3-.6.3-.2.5-.3.6-.3h0c0,0,.1,0,.1.2,0,0,0,.2,0,.3,0,0,0,0,0,0,0,0,0,0,0,0,0,.1,0,.2,0,.2,0,0,0,0,0,0M121.8,31.3s0,0,0,0c0,0,0,0-.1,0,0,0-.1.1-.2.2,0,0,0,.2,0,.2,0,0,.2,0,.2-.2,0-.1.1-.2.1-.3"/>
      <path class="st0" d="M123.7,31.8c0,0,0,.1,0,.2s0,0,0,0c0,0,0,0-.1,0s0,0,0,0c0,0-.1,0-.2-.2,0,0,0-.2,0-.4,0-.1,0-.2,0-.3-.1,0-.2.2-.2.3,0,0,0,.2,0,.3,0,0,0,.1,0,.2,0,0,0,.1-.2.1s0,0-.1,0c0,0,0-.1,0-.2s0-.2,0-.3c0-.1,0-.2,0-.2,0,0,0-.1,0-.2,0,0,0,0,.1,0s0,0,0,0c0,0,0,0,0,0,0,0,0,0,0-.1,0,0,0,0,0-.1,0,0,0,0,0,0,0,0,0,0,.1,0s0,0,.1,0c0,.1.1.4.2.7,0,.1,0,.2,0,.2,0,0,0,0,0,0"/>
      <path class="st0" d="M125.1,31s0,0,0,0,0,0,0,0c0,0-.1.1-.2.1,0,0-.2,0-.4,0h0s0,0,0,0c0,0,0,.1,0,.1s0,0,0,0c0,0,0,.2,0,.3h0c0,.2,0,.3,0,.3,0,0,0,0,0,0,0,0-.1,0-.1,0,0,0,0-.2,0-.4s0-.1,0-.2c0,0,0,0,0,0,0,0,0-.1,0-.1,0,0,0,0-.1,0h0s0,0,0,0c0,0,0,0-.1,0,0,0,0,0-.1-.1h0s0,0,0,0c0,0,.1,0,.2,0s0,0,0,0c0,0,0,0,0,0,0,0,0,0,0,0,0,0,0-.2,0-.3s0-.1,0-.2c0-.2,0-.4.1-.4,0,0,0,0,.1,0h0s0,0,0,0c0,0,0,.1,0,.3s0,.2,0,.3c0,0,0,.1,0,.2,0,0,0,0,0,.1h0c0,.1,0,.1,0,.1s0,0,0,0c0,0,.2,0,.3,0,0,0,0,0,0,0,0,0,.1,0,.1,0,0,0,0,0,.1,0"/>
      <path class="st0" d="M126.3,31.8c0,0,0,.1,0,.2,0,0,0,0,0,0,0,0,0,0-.1,0s0,0,0,0c0,0,0-.1-.1-.3,0-.1,0-.2,0-.2,0,0,0,0,0,0,0,.1-.1.2-.2.3,0,0-.2.2-.3.2,0,0,0,0,0,0,0,0-.1,0-.2,0,0,0,0-.1,0-.2,0-.2.1-.4.3-.6.3-.2.5-.3.6-.3h0c0,0,.1,0,.1.2,0,0,0,.2,0,.3,0,0,0,0,0,0,0,0,0,0,0,0,0,.1,0,.2,0,.2,0,0,0,0,0,0M125.8,31.3s0,0,0,0c0,0,0,0-.1,0,0,0-.1.1-.2.2,0,0,0,.2,0,.2,0,0,.2,0,.2-.2,0-.1.1-.2.1-.3"/>
      <path class="st0" d="M129.9,31.7c0,0,0,.2,0,.2s0,0,0,0c0,0,0,.1,0,.1s0,0,0,0c-.1,0-.2-.3-.4-.7,0,0,0-.3-.1-.5,0-.2,0-.3-.1-.4,0,.3,0,.6-.2,1.1,0,.2-.1.4-.2.5,0,.1-.1.2-.2.2s0,0,0,0c-.1,0-.2-.3-.3-.8,0-.6-.2-.8-.2-.9,0,.1,0,.4-.1.8,0,.4,0,.6-.1.7,0,0,0,0,0,0s0,0,0,0c0,0,0-.1-.1-.2,0,0,0,0,0-.1,0-.1,0-.4.1-.6h0s.1-.5.1-.5c0-.2,0-.3,0-.4,0,0,0-.2.2-.2,0,0,0,0,0,0,0,0,.1,0,.1,0,.1.1.2.3.2.7,0,0,0,.2,0,.4,0,.2,0,.3,0,.3,0,0,0-.3.1-.6,0-.3,0-.5.1-.6,0-.2,0-.3,0-.3,0,0,.1-.1.2-.1h0c0,0,.2.2.2.4.1.3.2.8.4,1.4"/>
      <path class="st0" d="M131.4,31.8c0,0,0,.1,0,.2,0,0,0,0,0,0,0,0,0,0-.1,0s0,0,0,0c0,0,0-.1-.1-.3,0-.1,0-.2,0-.2,0,0,0,0,0,0,0,.1-.1.2-.2.3,0,0-.2.2-.3.2,0,0,0,0,0,0,0,0-.1,0-.2,0,0,0,0-.1,0-.2,0-.2.1-.4.3-.6.3-.2.5-.3.6-.3h0c0,0,.1,0,.1.2,0,0,0,.2,0,.3,0,0,0,0,0,0,0,0,0,0,0,0,0,.1,0,.2,0,.2,0,0,0,0,0,0M130.8,31.3s0,0,0,0c0,0,0,0-.1,0,0,0-.1.1-.2.2,0,0,0,.2,0,.2,0,0,.2,0,.2-.2,0-.1.1-.2.1-.3"/>
      <path class="st0" d="M132.6,31s0,0,0,0,0,0,0,0c-.2,0-.3.2-.4.3-.1.1-.2.3-.2.5,0,.1,0,.2-.1.2s0,0,0,0c0,0-.1-.2-.2-.4,0-.2,0-.3,0-.5,0,0,0-.1,0-.1,0,0,0,0,0,0s0,0,0,0c0,0,.1.2.1.4,0-.1.1-.2.2-.3.1-.1.3-.2.4-.2h0s0,0,.1,0"/>
      <path class="st0" d="M134,31s0,0,0,0,0,0,0,0c0,0-.1.1-.2.1,0,0-.2,0-.4,0h0s0,0,0,0c0,0,0,.1,0,.1s0,0,0,0c0,0,0,.2,0,.3h0c0,.2,0,.3,0,.3,0,0,0,0,0,0,0,0-.1,0-.1,0,0,0,0-.2,0-.4s0-.1,0-.2c0,0,0,0,0,0,0,0,0-.1,0-.1,0,0,0,0-.1,0h0s0,0,0,0c0,0,0,0-.1,0,0,0,0,0-.1-.1h0s0,0,0,0c0,0,.1,0,.2,0s0,0,0,0c0,0,0,0,0,0,0,0,0,0,0,0,0,0,0-.2,0-.3s0-.1,0-.2c0-.2,0-.4.1-.4,0,0,0,0,.1,0h0s0,0,0,0c0,0,0,.1,0,.3s0,.2,0,.3c0,0,0,.1,0,.2,0,0,0,0,0,.1h0c0,.1,0,.1,0,.1s0,0,0,0c0,0,.2,0,.3,0,0,0,0,0,0,0,0,0,.1,0,.1,0,0,0,0,0,.1,0"/>
      <path class="st0" d="M135.2,31.8c0,0,0,.1,0,.2,0,0,0,0,0,0,0,0,0,0-.1,0s0,0,0,0c0,0,0-.1-.1-.3,0-.1,0-.2,0-.2,0,0,0,0,0,0,0,.1-.1.2-.2.3,0,0-.2.2-.3.2,0,0,0,0,0,0,0,0-.1,0-.2,0,0,0,0-.1,0-.2,0-.2.1-.4.3-.6.3-.2.5-.3.6-.3h0c0,0,.1,0,.1.2,0,0,0,.2,0,.3,0,0,0,0,0,0,0,0,0,0,0,0,0,.1,0,.2,0,.2,0,0,0,0,0,0M134.6,31.3s0,0,0,0c0,0,0,0-.1,0,0,0-.1.1-.2.2,0,0,0,.2,0,.2,0,0,.2,0,.2-.2,0-.1.1-.2.1-.3"/>
    </g>
  </g>
  <g>
    <circle class="st0" cx="209.1" cy="24.8" r=".2"/>
    <path class="st0" d="M220.6,14.3h-1.4l2.4,4.9,1.1-2.6c.4-1.1,0-2.5-1.4-2.3,0,0,0,0,0,0h3.6c0,.1,0,0-.1,0-.9.2-1.3,1-1.8,1.7l-3,6.5c-.2,0-.8,0-.9,0l-3.9-8.1h-.7s0,0,0,0h5.8s0,0,0,0Z"/>
    <g>
      <path class="st0" d="M203.9,11.6h0c0,0-1.6,0-1.6,0l2.9,6.8,1.4-3.8c.4-1,0-2.8-1.2-3s-.5,0-.5,0h4.3c0,.2-.2,0-.3.1-.8.2-1.7,1.8-2,2.5l-3.3,8.3h-1.2s-4.7-10.8-4.7-10.8h-.7s0,0,0,0h6.9Z"/>
      <g>
        <path class="st0" d="M213.8,14v8.4h1.1s0,0,0,0h-5.5c0,0,1,0,1,0v-8.1h-1,0c1.5-.1,3,0,4.4-.4Z"/>
        <path class="st0" d="M210.4,13.4c0-.1.3-.2.4-.3.7-.7,1.1-3.4,2.5-2.8s.6.7.5,1.1c-.2,1.5-2.2,2-3.4,2Z"/>
      </g>
    </g>
    <path class="st0" d="M239.1,10.3v12.1h1c0,0-5.5,0-5.5,0,0,0,0,0,0,0h1.1v-10.7h-1s0,0,0,0c1.3,0,2.6-.2,3.8-.8l.8-.6Z"/>
    <path class="st0" d="M244.6,14c3.2-.3,5.6,1.8,5.2,5.1s-2.9,4-5.6,3.6c-5.1-.7-4.9-8.3.4-8.7ZM245.5,14.2c-.7-.7-1,.8-1.1,1.3-.3,1.5-.3,5.2.1,6.5s.9,1,1.3,0c.5-1.4.4-4.6.2-6.1s-.2-1.4-.5-1.7Z"/>
    <path class="st0" d="M228.9,14c3.6-.3,6,2.3,5.1,5.9s-7.9,3.9-8.9-.2.8-5.5,3.9-5.8ZM229.5,14c-.3,0-.5.4-.6.7-.5,1.3-.4,4.6-.2,6.1s.2,1.7.7,1.9.5,0,.7-.3c.6-1.1.5-5.4.3-6.7s-.2-1.7-.8-1.6Z"/>
    <path class="st0" d="M224.2,25.4h.3c0,0,0,.2,0,.2.4-.3.8-.3,1.2,0,.3-.3.8-.4,1.2,0s.2.3.2.4v1.2h-.3v-1.2s-.1-.2-.2-.3c-.2-.1-.5,0-.6,0s-.1.2-.1.2v1.1h-.3v-1.2c0-.2-.3-.3-.5-.3s-.5.2-.5.4v1.1h-.3v-1.7Z"/>
    <path class="st0" d="M228,24.6v.9c.8-.7,1.8.1,1.4,1.1-.2.5-1,.6-1.4.2v.2s-.3,0-.3,0v-2.4h.3ZM228.5,25.6c-.6.1-.5,1.3.2,1.2s.7-1.4-.2-1.2Z"/>
    <path class="st0" d="M202.8,25.3h.3s0,.2,0,.2c.2,0,.3-.2.5-.2.6-.1,1.1.3,1.1,1s-1,1.1-1.5.5v.9h-.3v-2.4ZM203.5,25.6c-.6.1-.5,1.3.2,1.2s.7-1.4-.2-1.2Z"/>
    <path class="st0" d="M202.2,25.2c-.3-.3-1.5-.3-1.2.3s1.3.1,1.4.9-.8.7-1.3.6-.7-.2-.4-.5c.3.3,1.5.4,1.3-.2s-1.2-.2-1.4-.8c-.2-.9,1-1,1.6-.6v.3Z"/>
    <path class="st0" d="M217,25.1c.5-.5,1.3-.5,1.8,0l-.2.2c-.5-.5-1.5-.3-1.6.5-.1.9.9,1.3,1.5.8l.2.2c-.2.5-1.1.4-1.5.2-.7-.3-.8-1.3-.3-1.9Z"/>
    <path class="st0" d="M236.9,24.7c.1,0,.2,0,.4,0,.2,0,.9.2.6.5s-.5-.2-.7-.2c-1.3,0-1.3,2,.1,1.8s.4-.4.6-.1-.3.4-.5.4c-1.9.3-2-2.1-.5-2.3Z"/>
    <path class="st0" d="M246.3,26.3h-1.4c0,.6.8.6,1.1.3v.2c-.3.5-1.4.3-1.4-.5-.2-1.4,1.9-1.4,1.7,0ZM246,26.1c0-.6-1.1-.7-1.1,0h1.1Z"/>
    <path class="st0" d="M244.3,26.3h-1.4c0,.3.3.5.7.5s.4-.3.6,0c-.4.5-1.5.3-1.6-.4-.2-1.4,1.8-1.5,1.7-.1ZM244,26.1c-.1-.7-1-.7-1.1,0h1.1Z"/>
    <path class="st0" d="M206.6,26.3h-1.4c0,.3.3.5.7.5s.5-.3.6,0c-.5.5-1.5.3-1.6-.4-.2-1.4,1.8-1.4,1.7,0ZM206.3,26.1c-.1-.7-1-.7-1.1,0h1.1Z"/>
    <path class="st0" d="M232.3,27.1h-.3s0-.2,0-.2c-.4.4-1.4.3-1.2-.5s.3-.3.4-.3h.8c0-.4-.3-.5-.6-.5s-.4.3-.5,0c.3-.3,1.2-.3,1.4,0s.1.3.1.3v1.1ZM232,26.3h-.7c-.2,0-.3.4,0,.5s.8,0,.8-.5Z"/>
    <path class="st0" d="M211.2,27.1h-.3s0-.2,0-.2c-.4.4-1.5.2-1.2-.5,0-.1.3-.3.4-.3h.7c0-.6-.6-.5-1-.3-.3-.4.6-.5.8-.4s.5.3.5.5v1.3ZM210.9,26.3h-.7c-.2,0-.3.5.2.5s.5-.2.5-.5Z"/>
    <path class="st0" d="M223.8,26.2c0,.5-.4.9-.9.9s-.9-.4-.9-.9.4-.9.9-.9.9.4.9.9ZM222.7,25.6c-.7.1-.5,1.3.2,1.2s.7-1.4-.2-1.2Z"/>
    <path class="st0" d="M220.8,26.2c0,.5-.4.9-.9.9s-.9-.4-.9-.9.4-.9.9-.9.9.4.9.9ZM219.7,25.6c-.7.1-.5,1.3.2,1.2s.7-1.4-.2-1.2Z"/>
    <path class="st0" d="M239.9,26.2c0,.5-.4.9-.9.9s-.9-.4-.9-.9.4-.9.9-.9.9.4.9.9ZM239.6,26.2c0-.3-.3-.6-.6-.6s-.6.3-.6.6.3.6.6.6.6-.3.6-.6Z"/>
    <path class="st0" d="M214.7,26.7s0,0,.1-.1c.1-.3.4-1,.5-1.2s.2,0,.3,0c0,0,0,.1,0,.2,0,.3-.7,1.7-.9,2s-.6.4-.9.2,0-.2,0-.3c.3.2.6,0,.7-.3l-.8-1.6c0,0,.3-.1.4,0l.5,1.3Z"/>
    <path class="st0" d="M232.9,25.3h.3s0,.2,0,.2c.3-.3.9-.4,1.2,0s.2.3.2.4v1.1h-.3v-1.1c0-.4-.6-.5-.9-.2s-.2.4-.2.4v.9h-.3v-1.8Z"/>
    <path class="st0" d="M241.6,25.6h-.3s0-.3,0-.3h.3c0-.6.4-.9,1-.6v.2c-.5-.1-.7,0-.6.4h.5s0,.3,0,.3h-.5s0,1.5,0,1.5h-.3v-1.5Z"/>
    <path class="st0" d="M207.6,25.3c.3,0,.8,0,.9.3l-.2.2c-1.1-.9-1.6,1.1-.4,1s.4-.4.7,0c0,.2-.3.3-.4.3-1.4.3-1.6-1.5-.5-1.7Z"/>
    <path class="st0" d="M240.4,25.6h-.3s0-.3,0-.3h.3c-.1-.5.4-.9.9-.6v.2c-.4-.1-.6,0-.6.4h.5s0,.3,0,.3h-.5v1.5h-.3v-1.5Z"/>
    <path class="st0" d="M213.1,24.9v.4c.2,0,.6-.1.5.2h-.5c0,.5-.2,1.5.5,1.2v.2c-.1.2-.6.2-.8,0s0-1.2,0-1.3c-.5,0-.5-.4,0-.3v-.4s.3,0,.3,0Z"/>
    <rect class="st0" x="221.2" y="24.6" width=".3" height="2.4"/>
    <rect class="st0" x="211.8" y="24.6" width=".3" height="2.4"/>
    <path class="st0" d="M230.3,27.1h-.3v-1.7c0,0,.3,0,.3,0v1.7Z"/>
    <rect class="st0" x="208.9" y="25.3" width=".3" height="1.8"/>
    <circle class="st0" cx="230.1" cy="24.8" r=".2"/>
    <path class="st0" d="M183.1,16.1c.4-.2.7-.2,1.1-.1s.5-.2.6.2c-.4.5-1.3.4-1.8,0Z"/>
    <path class="st0" d="M184.5,15l-.2-1.9c.2-.2.2,0,.2.1,0,.3.2,1.6.1,1.8s-.7,0-1,.2c-.1,0,0-.2,0-.2h.8Z"/>
    <path class="st0" d="M183.5,13.4c.2.2-.6.4-.7.4-.2,0-.8-.1-.7-.4.3,0,.6.2.9.1s.3-.2.5-.1Z"/>
    <circle class="st0" cx="179.6" cy="15.7" r=".2"/>
    <path class="st0" d="M181.1,2.1c6.6-.4,12.2,4.6,12.6,11.2-.2,4,.2,8.1,0,12-.4,6.9-6.7,12-13.5,11-5.5-.8-9.9-5.5-10.1-11s.2-8.1,0-12.1c.4-5.8,5.1-10.7,11-11.1ZM178.1,19.4c0-.4,0-.8,0-1.1s.2-.6.2-.8c0-.2.3-.4.4-.6-1.1-1.8-1.3-4.2-.5-6.1.4-1,1.3-1.9,2.4-1.8s.7.2,1.1.3c0,0,.2-.4.2-.4,0-.2-.4-.8-.5-1.1-.8-2.8,2.1-2,3.4-2.8s.9-1,1-1.5,0,0,0-.1c-.1-.1-1.2-.4-1.4-.4-3-.7-6.2,0-8.8,1.6.9.7,1.4,1.7,1.6,2.8-.6.1-1.3,0-2,0,.3,1-.2,2.1-1.3,2.5s-.5.1-.5.2c1,.9,1.1,2.4,1.1,3.7-1.1.2-2.2,0-3.3-.4s-.6-.3-.7-.3-.1,0-.1,0v2.3c.9.3,1.8.6,2.6,1,1.8.8,3.5,1.8,5,3.2.2,0,0,0,0-.1ZM171.8,8.6c-.3.4.3.8.6,1,1.6.7,3.2-.8,2.5-2.4s-.7-1-1.3-1.1l-.2.3c2.1.3,1.7,3.3-.4,3-.6,0-.8-.4-1.1-.7s0,0-.1,0ZM191.6,7.8c-1.7.8-.5,3.2,1.2,2.6v-.2c-1.5.6-2.5-1.4-1.1-2.2v-.2ZM181.5,17.4c.9.2,2.4,1,3.4.5s1.6-2.4,1.7-3.5c.2-1.7-.1-5.1-2.6-4.6-1.9.4-3.1,2.4-3.7,4.1-.6-.3-1.5-.7-1.8.2-.4,1.1.4,2.4,1.5,2.5-.2,1.3-.3,2.6-.4,3.9s0,.3-.1.5c.6.8,1.2,1.6,1.6,2.6,1.3-.6,2.6-1.1,4-1.4l-1.8-1.3v-.9c-1.2-.3-1.7-1.4-1.8-2.5ZM185,22.3c-.3,2,2.6,2.7,3.3.8s.2-1,0-1.3-.3,0-.2,0c.2.6.3,1-.2,1.6-.9,1.2-2.9.3-2.6-1.2h-.2ZM191.7,25.7h0c-.1-.3-.7,0-.8,0s-.7-.4-.8-.3v.2c.3.1.6.2.8.6.1-.4.5-.4.8-.5ZM190,26.5c-.4.1-.9.2-1.2.5-.3-.3-.8-.4-1.2-.5v.2c.4.1.9.2,1.2.7.2-.4.8-.6,1.2-.7v-.2ZM190,32.7c-2.4.5-4.9,0-7-1.3-2.2-1.4-4-3.9-6.9-2.4-.3.2-1.1.7-1.3,1.1s0,0,0,0c.2,0,.4-.2.7-.2,2.8-.6,4.4,1.9,6.6,3.1,1.6.9,4.3,1.5,6.1,1s1.2-.9,1.6-1.3ZM192.5,29c-2.2.6-4.5-.3-6.8-.1-1.3,0-2.6.7-3.5,1.7l1.3.9c1.2-.7,2.5-.7,3.9-.6s1.8.3,2.8.3.9,0,1.1,0,.5-.7.6-.8c.2-.4.4-.9.7-1.3ZM187.9,34.3c-2,.3-4.1-.1-5.8-1.1-2.3-1.3-4.1-4.1-7.1-2.9-.4.2-1.4.8-1.5,1.2s0,0,0,0c.1,0,.3-.1.4-.1,2.9-.7,4.6,1.9,6.8,3.1,1.2.6,3.1,1.3,4.4,1s1.9-.7,2.7-1.3ZM191.1,31.3c-2.5.1-5.1-1-7.5.2,1.7,1,3.9,1.4,5.9,1s.7-.1,1.1-.5.4-.5.5-.7ZM183.9,35.8c-1.6-.2-3-.8-4.4-1.8-1.7-1.2-3.2-3-5.5-2.4-.3,0-.6.2-.9.3,0,0,0,0,0,.1.2.2.6.7.8.9,2.3,2.2,5.4,3.3,8.6,3.1l1.3-.2Z"/>
  </g>
</svg>