<?xml version="1.0" encoding="UTF-8"?>
<svg id="Arte" xmlns="http://www.w3.org/2000/svg" version="1.1" viewBox="0 0 333.1 38.5">
  <!-- Generator: Adobe Illustrator 29.0.0, SVG Export Plug-In . SVG Version: 2.1.0 Build 186)  -->
  <defs>
    <style>
      .st0 {
        fill: blue;
      }
    </style>
  </defs>
  <g>
    <path class="st0" d="M176.9,13.6s0,0,.1,0c0,0,0,0,0,.1,0,0,0,.1,0,.2,0,0,.1,0,.2,0,0,0,.1,0,.1,0,0,0,0,0,0,0,0,0,.1,0,.2,0,0,0,0,0,0,0,0,0,0,0,0,0,0,0,0,.1,0,.2.1.2.4.2.7.1,0,0,.2,0,.2,0,0,0,0,0,0,0,0,0,0,0,.1,0,.3,0,.5,0,.6-.1,0,0,0,0,.1,0,0,0,0,0,0,0,0,0,.1.2.4.2s0,0,.1,0c.3,0,.4-.3.6-.5,0,0,0,0,0-.1.3-.4.6-.9.9-1.3.1-.2.3-.5.4-.7h0s0,0,0,0c0-.3,0-.4-.2-.5-.1,0-.2,0-.5,0,0,0,0,0-.1,0,0,0,0,0,0,0,0,0,0,0,0-.1,0-.2.1-.3,0-.5,0,0-.1-.1-.2-.2-.2,0-.4.1-.5.2,0,0,0,0,0,0,0,0,0,0,0-.1-.2-.2-.5-.1-.9,0-.2,0-.4,0-.5,0,0,0,0,0,0,0,0,0-.1-.2-.2-.2-.2,0-.5.2-.6.4-.2.2-.4.5-.5.8-.2.4-.4.7-.6.9,0,0-.1,0-.2,0,0,0-.2,0-.2.1,0,0,0,.2,0,.2,0,0,.1.1.2.1ZM181.4,12s0,0,.1,0c.2-.1.3-.1.4,0,0,0,.1.2.1.4-.1.2-.3.4-.4.7-.3.4-.6.9-.9,1.3,0,0,0,0,0,.1-.1.2-.3.4-.5.4-.3,0-.4,0-.4-.2,0,0,0,0-.1-.1,0,0,0,0,0,0,0,0,0,0-.2,0-.1,0-.3.2-.5.1,0,0,0,0,0,0,0,0,0,0-.2,0,0,0-.2,0-.3,0-.2,0-.5,0-.6,0,0,0,0-.1,0-.2,0,0,0,0,0-.1,0,0,0,0-.1,0,0,0,0,0-.1,0,0,0,0,0,0,0,0,0,0,0,0,0,.1,0,.2,0,.3,0,0,0,0,0,0,0,0,0,0,0,0,0,0,0,0,0,0,0,0,0,0,0,.1,0,0,0,.1.1.2.1h0c.1,0,.3,0,.4-.2,0,0,.1,0,.2,0,0,0,0,0,0,0,0,0,.1.2.2.3,0,0,0,0,0,0,0,0,0,0,0,0,0,0,0,0,0,0,0,0,0,0,0,0,0,0,0,0,0,0,0,0,0,0,0,0,0,0,0,0,0,0,0,0,0,0,0,0,0,0,0,0,0,0,0,0,0,0,0,0,0,0,0,0,0,0,0,0,0,0,.1,0h0s1.4-2.1,1.4-2.1c0,0,0,0,0,0,0,0,0,0,0,0h0s0,0,0,0h0s0,0,0,0c0,0,.1,0,.1,0Z"/>
    <path class="st0" d="M183.6,18.4c.1,0,.5-.3.6-.4,0,0,0-.1.1-.2,0,0,0,0,0,0,0,0,0,0,.1,0,0,0,.2,0,.2,0,0,0,0-.1,0-.2,0,0,0,0,0-.1,0,0,0,0,0,0,0,0,.2-.2,0-.4-.1-.3-.4-.5-.7-.4,0,0,0-.1,0-.2-.1-.2-.3-.4-.4-.4,0,0-.1,0-.2,0,0,0,0,0-.1,0-.4,0-.8,0-1.3,0-.9,0-1.8,0-2.5,0-.2,0-.6.2-.7.4,0,.2,0,.3,0,.4,0,0,0,0,0-.1-.1-.1-.3-.2-.6-.1,0-.1,0-.2,0-.3,0-.1-.2-.2-.3-.2-.3,0-.6,0-.9,0-.2,0-.4,0-.6,0-.5,0-.9,0-1.4-.2-.4,0-.9-.1-1.3-.1-.6,0-.9.4-1.2.8,0,0-.1.2-.2.3-.6.8-1.1,1.6-1.6,2.3-.3.5-.7,1.1-1,1.6,0-.2,0-.3,0-.5.2-.9.4-1.9.3-2.7,0-.3-.4-.6-.7-.7,0-.1-.2-.3-.4-.4-.3-.2-.6-.2-.7-.2,0,0-.4.3-1,.9h0c-.7.7-1.3,1.4-1.9,2-.8.8-1.5,1.7-2.2,2.5-.7.8-1.4,1.6-2.1,2.4.2-.3.4-.8.6-1.2.1-.3.3-.6.4-.9.8-1.5,1.6-3.1,2.4-4.6.8-1.5,1.6-3.1,2.4-4.6h0c0-.3.1-.8-.1-.9-.1-.1-.3-.1-.6,0,0-.2,0-.4-.1-.5,0,0-.2-.1-.3-.1,0,0-.1,0-.2,0,0,0-.1,0-.2,0,0,0,0,0,0,0,0,0-.1-.3-.3-.3-.1,0-.2,0-.3-.1,0,0,0,0-.1,0,0,0,0,0,0,0,0,0,0-.1-.2-.1,0,0-.2,0-.2.2,0,0,0,0-.1.1,0-.2,0-.7-.2-.8,0,0-.2,0-.2,0-.3.1-.8,1.1-1.1,1.6,0,0,0,.1,0,.2-.8,1.4-1.5,2.9-2.2,4.3-1.1,2.2-2.2,4.4-3.4,6.5,0,0-.1.2-.2.3-.7,1.2-1.8,3.1-3.1,3.2,0-.9.6-1.9,1-2.7h0c.6-1.2,1.3-2.3,2-3.3.3-.5.7-1,1-1.5,0,0,0-.1.1-.2.3-.5.6-1,.7-1.1,0-.2-.1-.2-.2-.2.2-.2.3-.5.3-.7,0,0-.1-.2-.3-.1-.1,0-.2,0-.2.1,0,0,0,0-.1,0,0,0,0,0,0,0,0-.2.2-.5,0-.8,0,0-.2-.1-.3-.2-.1,0-.3,0-.4,0,0-.3,0-.5-.2-.6-.2-.1-.6,0-.9.2,0,0-.2-.2-.3-.3.4-.2.8-.4,1.2-.6.3-.1.7-.3,1-.4.4-.2.6-.4.6-.7,0-.2-.1-.3-.4-.5.4-.3.6-.7.5-1,0-.1-.2-.4-.7-.4,0-.2,0-.3-.2-.4-.2-.2-.7-.2-1-.2-.2,0-.4,0-.5.1,0,0-.2,0-.3,0,0-.2,0-.4-.2-.5-.2-.2-.6,0-1,0-2.3.8-5.1,2.5-7.5,4.6-2.7,2.3-4.6,4.8-5.3,6.9-.3,1.1-.5,2.3-.3,3.4.2,1.3.7,2.3,1.7,2.7.4.5,1,.7,1.5.8.4,0,.8.1,1.2.1,1.4,0,2.8-.5,4.1-.9h0c0,0,.1,0,.2.1.1,0,.3.2.4.3,0,0,0,0,0,.1,0,0,0,.1.2.2.4.4,1,.5,1.5.5,1.2,0,2.5-.7,3.4-1.1.5.3.9.7,1.5.8,1.6.5,2.9-.3,4-1.1.7-.6,1.3-1.2,2-1.8.5-.4.9-.9,1.4-1.3,0,.1,0,.3,0,.4-.1.9-.3,2.1,0,2.6.2.3.4.5.8.6,0,.2.2.4.4.5.2,0,.4.1.6.1s.6,0,.9-.2c.9-.3,1.4-1.1,1.9-1.8h0c.6-1,1.2-2,1.8-2.9.5-.7.9-1.5,1.4-2.3.2-.3.5-.7.7-1.1.2-.3.5-.7.7-1-.3.9-.8,1.7-1.2,2.5-.4.7-.7,1.5-1.1,2.2-.3.7-.9,2-.5,2.9.2.4.5.6.9.8.4.6,1.1.8,1.8.8s.5,0,.7,0c.9-.2,2-.9,2.6-1.7.3-.3.3-.7.2-1.1-.1-.3-.3-.4-.7-.5,0-.1-.2-.4-.3-.4-.1-.1-.3-.2-.5-.2,0-.2.2-.5.4-1.1.1-.3.2-.6.2-.7.2-.5.4-1,.6-1.5.6-1.4,1.2-2.8,1.6-4,.2,0,.4,0,.6,0,0,0,0,0,0,0,0,.1-.1.2,0,.4,0,.1.1.2.3.2h3.9s0,0,0,0ZM178.9,17s0,0,0,.1c0,0,0,0,0,0,0,0,0-.1,0-.2,0,0,0,0,0,0ZM149.3,24.8c-.7.6-1.5.8-2.2.7,0-.1,0-.3-.1-.4,0-.2-.1-.5-.2-.7-.1-1.4.6-2.7,1.4-3.7,1.6-2.1,3.8-4,6.2-5.4l-5.2,9.5ZM169.9,17.4c.1.9,0,1.8-.3,2.7,0,.3,0,.5-.1.8l-1.1,1.6c0-.6.2-1.2.4-1.8.1-.6.3-1.1.3-1.7,0,0,0,0,0,0,0,0,0,0,0,0,0,0,0,0,0-.1,0,0,0,0,0,0,0,0,0,0,0,0,0,0,0,0,0,0,0,0,0,0,0,0,0,0,0,0,0,0,0,0,0,0,0,0,0,0,0,0,0,0,0,0,0,0,0,0,0,0,0,0,0,0,0,0,0,0,0,0,0,0,0,0,0,0,0,0,0,0,0,0,0,0,0,0,0,0,0,0,0,0,0,0,0,0,0,0,0,0,0,0,0,0,0,0,0,0,0,0,0,0,0,0,0,0,0,0,0,0,0,0,0,0,0,0,0,0,0,0,0,0,0,0,0,0,0,0,0,0,0,0,0,0,0,0,0,0,0,0,0,0,0,0,0,0,0,0,0,0,0,0,0,0,0,0,0,0,0,0,0,0,0,0,0,0,0,0,.3,0,.6.3.6.6ZM166.4,11.8c.1.1.2.4,0,.8-.8,1.5-1.6,3.1-2.4,4.6-.8,1.5-1.6,3.1-2.4,4.6-.1.3-.3.6-.4.9-.3.6-.5,1.2-.8,1.6,0,0,0,0,0,0,0,.1-.2.3-.3.4,0,0,0,0,0,0h0c-.1.2-.8.9-.9.9,0,0-.2,0-.2,0,0,0,0,0,0,0,1.6-3.2,3.2-6.5,4.9-9.7.6-1.2,1.3-2.5,1.9-3.7,0,0,0,0,0-.1,0,0,0,0,0,0,0,0,0,0,0,0,0,0,0,0,0,0,0,0,0,0,0,0,0,0,0,0,0,0,0,0,0,0,0,0,.2,0,.4,0,.5,0ZM164,10.7c0,0,.1-.1.2-.1,0,0,0,0,0,0,0,0,0,0,0,0,0,0,0,0,0,0-.1,0-.3.2-.4.3,0,0,0,0,0-.2,0,0,0,0,0,0,0,0,.2,0,.2-.2ZM157.4,15.4c0,0,.2,0,.2.1.1.2,0,.5,0,.7,0,0,0,.1,0,.2h0s0,0,0,0c.1,0,.2,0,.3-.1,0,0,.1,0,.2,0,.1,0,.2,0,.2,0,0,.1-.1.5-.3.6h0s0,0,0,0h0c0,0,0,0,0,0,.1,0,.2,0,.1.1,0,.1-.5.8-.7,1.1,0,0-.1.2-.1.2-.3.5-.7,1-1,1.5-.7,1.1-1.4,2.2-2,3.3h0c-.4.9-1,1.8-1,2.8,0,0,0,0,0,0,0,0,0,0,0,0,0,0,0,0,0,0,0,0,0,0,0,0,0,0,0,0,0,0,0,0,0,0,0,0,0,0,0,0,0,0,0,0,0,0,0,0,0,0,0,0,0,0,0,0,0,0,0,0,0,0,0,0,0,0,0,0,0,0,0,0,0,0,0,0,0,0,0,0,0,0,0,0,0,0,0,0,0,0-.3-.5.2-1.5.4-2h0c.5-1.1,1.1-2.1,1.8-3.2.3-.5.6-.9.9-1.4.6-.9,1.2-1.8,1.7-2.7h0c0-.1,0-.2,0-.3,0,0-.1,0-.2,0,.3-.3.4-.6.3-.7,0,0-.2-.2-.6,0,0,0,0,0,0-.1h0c0,0,.2-.1.4,0ZM158.4,11.6c0,.3-.1.6-.5.9h0c0,0,0,0,0,0,.3.1.4.3.4.4,0,.2-.2.4-.5.6-.3.2-.6.3-1,.4-.4.2-.9.4-1.3.6,0,0,0,0,0,0,0,0,0,0,0,0,0,0,0,0,0,0,0,0,0,0,0,0,0,0,0,0,0,0,0,0,0,0,0,0,0,0,0,0,0,0,0,0,0,0,0,0,0,0,0,0,0,0,0,0,0,0,0,0,0,0,0,0,0,0,0,0,0,0,0,0,0,0,0,0,0,0h0c-.2.1-.3.3-.4.5-2.5,1.4-4.8,3.3-6.4,5.5-.8,1-1.5,2.3-1.4,3.8,0,.3,0,.5.2.7,0,.1,0,.3.1.4,0,0,0,0,0,0,0,0,0,0,0,0,0,0,0,0,0,0,0,0,0,0,0,0,0,0,0,0,0,0,0,0,0,0,0,0,0,0,0,0,0,0,0,0,0,0,0,0,0,0,0,0,0,0,0,0,0,0,0,0,0,0,0,0,0,0,0,0,0,0,0,0,0,0,0,0,0,0,0,0,0,0,0,0,0,0,0,0,0,0,0,0,0,0,0,0,0,0,0,0,0,0,0,0,0,0,0,0,0,0,0,0,0,0,0,0,0,0,0,0,0,0,0,0,0,0,0,0,0,0,0,0,0,0,0,0,0,0,0,0,0,0,0,0,0,0,0,0,0,0,0,0,0,0,0,0,0,0,0,0,0,0,0,0,0,0,0,0,0,0,0,0,0,0h0c-1-2.2.3-4.1,1.8-5.9,1.8-2.2,4.1-3.8,7.3-5.4,0,0,.2-.1.4-.2.8-.3,1.5-.7,1.6-1,0-.1,0-.3,0-.4,0-.1-.2-.2-.3-.2,0,0,.1-.2.2-.2,0,0,0,0,0,0,0,0,0,0,0,0,0,0,0,0,0,0,0,0,0,0,0,0,0,0,0,0,0,0,0,0,0,0,0,0,0,0,0,0,0,0,0,0,0,0,0,0,0,0,0,0,0,0,0,0,0,0,0,0,0,0,0,0,0,0,0,0,0,0,0,0,0,0,0,0,0,0,0,0,0,0,0,0,0,0,0,0,0,0,.3,0,.6.1.6.3ZM149.9,27.9c-1.7.6-3.5,1.2-5.3.8-.3,0-.9-.3-1.3-.6,0,0,0,0,0,0,0,0,0,0,0,0,0,0,0,0,.1,0,0,0,0,0,0,0,0,0,0,0,.1,0,0,0,0,0,0,0,0,0,0,0,.1,0,0,0,0,0,0,0,.1,0,.3,0,.4,0,0,0,0,0,0,0,0,0,.1,0,.2,0,0,0,0,0,0,0,0,0,0,0,.1,0,0,0,0,0,0,0,0,0,0,0,.1,0,0,0,0,0,0,0,0,0,0,0,.1,0,0,0,0,0,0,0,0,0,0,0,.1,0,0,0,0,0,0,0,0,0,0,0,.1,0,0,0,0,0,0,0,0,0,0,0,.1,0,0,0,0,0,0,0,0,0,0,0,.1,0,0,0,0,0,0,0,0,0,0,0,.1,0,0,0,0,0,0,0,0,0,0,0,.1,0,0,0,0,0,0,0,0,0,0,0,.1,0,0,0,0,0,0,0,0,0,0,0,.1,0,0,0,0,0,0,0,0,0,0,0,.1,0,0,0,0,0,0,0,0,0,0,0,.1,0,0,0,0,0,0,0,0,0,0,0,.1,0,0,0,0,0,0,0,0,0,0,0,.1,0,0,0,0,0,0,0,0,0,0,0,.1,0,0,0,0,0,0,0,0,0,0,0,.1,0,0,0,0,0,0,0,0,0,0,0,.1,0,0,0,0,0,0,0,0,0,0,0,.1,0,0,0,0,0,0,0,0,0,0,0,.1,0,0,0,0,0,0,0,0,0,0,0,0,0,0,0,0,0,0,0,0,0,0,0,.1,0,0,0,0,0,0,0,0,0,0,0,.1,0,0,0,.2,0,.2,0l.4.6h0ZM155.8,28c-1.3.7-3.4,1.8-4.8.7,0,0,0,0-.1-.1,0,0,0,0,0,0,0,0,0,0,0,0,0,0,.1,0,.2,0,0,0,0,0,0,0,0,0,.2,0,.2,0,0,0,0,0,0,0,0,0,.2,0,.2,0,0,0,0,0,0,0,0,0,0,0,0,0,0,0,.1,0,.2,0,0,0,0,0,0,0,0,0,.1,0,.2,0,0,0,0,0,0,0,.1,0,.3,0,.4,0,0,0,0,0,0,0,0,0,.1,0,.2,0,0,0,0,0,0,0,0,0,.1,0,.2,0,0,0,0,0,0,0,0,0,.1,0,.2,0,0,0,0,0,0,0,.1,0,.3,0,.4-.1,0,0,0,0,0,0,0,0,.1,0,.2,0,0,0,0,0,0,0,0,0,.1,0,.2,0,0,0,0,0,0,0,0,0,.1,0,.2,0,0,0,0,0,0,0,0,0,.1,0,.2,0,0,0,0,0,0,0,0,0,.1,0,.2,0,0,0,0,0,0,0,0,0,.1,0,.2,0,0,0,0,0,0,0,0,0,.1,0,.2,0h.1c0,.1.2.2.3.3,0,0,0,0,0,0,0,0,.2.1.3.2,0,0,0,0,0,0h0ZM163.2,25.9c-.6.6-1.3,1.2-2,1.8-1.1.8-2.4,1.6-3.9,1.1-.5-.1-.9-.4-1.3-.7,0,0,0,0,0,0,0,0,0,0,0,0,0,0,.1,0,.2,0,0,0,0,0,0,0,0,0,0,0,.1,0,0,0,0,0,0,0,0,0,.1,0,.2,0,1.6.5,3-.3,4.1-1.2l4.2-3.9s0,0,0,0c0,.3,0,.6-.1.9,0,.1,0,.3,0,.4-.5.5-1,.9-1.5,1.4ZM173.1,20.6c-.3.4-.5.7-.8,1.1-.5.7-.9,1.5-1.4,2.3-.6,1-1.2,2-1.8,2.9h0c-.5.8-1,1.5-1.9,1.8-.4.1-1,.2-1.4,0-.2,0-.3-.2-.4-.4,0,0,0,0,0,0,0,0,.1,0,.2,0,0,0,0,0,0,0,0,0,.1,0,.2,0,1.4,0,2.3-1.4,2.9-2.4h0c.5-1,1-1.8,1.5-2.6.8-1.3,1.7-2.7,2.6-4,0,0,0-.1.1-.2.3-.4.8-1.2,1-1.3.1,0,.3-.1.3,0,0,0,0,0,0,0,0,.2-.1.8-.3,1.2,0,0,0,.2-.1.2-.3.5-.6.9-1,1.4ZM177.2,26.1c.1.3,0,.7-.2,1-.6.7-1.7,1.5-2.5,1.6-.7.1-1.8,0-2.3-.5,0,0,0,0,0,0,0,0,0,0,0,0,0,0,0,0,0,0,0,0,0,0,0,0,0,0,0,0,0,0,0,0,0,0,0,0,0,0,0,0,0,0,0,0,0,0,0,0,0,0,0,0,0,0,0,0,0,0,0,0,0,0,0,0,0,0,0,0,0,0,0,0,0,0,0,0,0,0,0,0,0,0,0,0,0,0,0,0,0,0,0,0,0,0,0,0,0,0,0,0,0,0,0,0,0,0,0,0,0,0,0,0,0,0,0,0,0,0,0,0,0,0,0,0,0,0,0,0,0,0,0,0,0,0,0,0,.1,0,0,0,0,0,0,0,0,0,0,0,.1,0,0,0,0,0,0,0,0,0,0,0,.1,0,0,0,0,0,0,0,0,0,0,0,.1,0,0,0,0,0,0,0,0,0,.1,0,.2,0,0,0,0,0,0,0,0,0,0,0,0,0,0,0,0,0,0,0,0,0,0,0,0,0,0,0,0,0,0,0,0,0,0,0,0,0,0,0,0,0,0,0,0,0,0,0,0,0,0,0,0,0,0,0,0,0,0,0,0,0,0,0,0,0,0,0,0,0,0,0,0,0,0,0,0,0,0,0,0,0,0,0,0,0,0,0,0,0,0,0,0,0,0,0,0,0,0,0,0,0,0,0,0,0,0,0,0,0,0,0,0,0,0,0,0,0,0,0,0,0,0,0,0,0,0,0,0,0,0,0,0,0,0,0,0,0,0,0,0,0,0,0,0,0,0,0,0,0,0,0,0,0,0,0,0,0,0,0,0,0,0,0,0,0,0,0,0,0,0,0,0,0,0,0,0,0,0,0,0,0,0,0,0,0,0,0,0,0,0,0,0,0,0,0,0,0,0,0,0,0,0,0,0,0,0,0,0,0,0,0,0,0,0,0,0,0,0,0,0,0,0,0,0,0,0,0,0,0,0,0,0,0,0,0,0,0,0,0,0,0,0,0,0,0,0,0,0,0,0,0,0,0,0,0,0,0,0,0,0,0,0,0,0,0,0,0,0,0,0,0,0,0,0,0,0,0,0,0,0,0,0,0,0,0,0,0,0,0,0,0,0,0,0,0,0,0,0,0,0,0,0,0,0,0,0,0,0,0,0,0,0,0,0,0,0,0,0,0,0,0,0,0,0,0,0,0,0,0,0,0,0,0,0,0,0,0,0,0,0,0,0,0,0,0,0,0,0,0,0,0,0,0,0,0,0,0,0,0,0,0,0,0,0,0,0,0,0,0,0,0,0,0,0,0,0,0,0,0,.3,0,.5.2.5.4ZM177.1,21.7c-.2.5-.5,1-.7,1.5,0,.1-.1.4-.2.7-.1.4-.4,1-.4,1.1,0,0,0,0,0,0,0,0,0,0,0,0,0,0,0,0,0,0,0,0,0,0,0,0,0,0,0,0,0,0,0,0,0,0,0,0,0,0,0,0,0,0,0,0,0,.1,0,.2,0,.1,0,.2-.2.3,0,0-.3.2-.4.1,0,0,0,0,0,0,0-.3.4-1.5.5-1.9h0c.4-1.1.8-2,1.2-2.9.6-1.3,1.1-2.7,1.6-4,0,0,0,0,0,0,0,0,0,0,0,0,.3,0,.4,0,.5.1,0,0,.1.2.1.4,0,0,0,0,0,0,0,0,0,0,0,0,0,0,0,0,0,0,0,0,0,0,0,0,0,0,0,0,0,0,0,0,0,0,0,0,0,0,0,0,0,0,0,0,0,0,0,0,0,0,0,0,0,0,0,0,0,0,0,0,0,0,0,0,0,0,0,0,0,0,0,0,0,0,0,0,0,0,0,0,0,0,0,0,0,0,0,0,0,0,0,0,0,0,0,0,0,0,0,0,0,.1-.3,1.2-1,2.7-1.6,4.1ZM179.7,18.3c-.1,0-.2,0-.2-.2,0,0,0-.2.1-.3,0,0,0,0,0,0,.2,0,.5,0,.7,0,0,0,0,0,0,0,.2,0,.5,0,.7,0,.6,0,1.2,0,1.8,0h0s0,0,0,0c.1,0,.4-.2.5-.3,0,0,.1-.1.2-.2,0,0,0-.1.1-.1,0,0,0,0,0,0,0,0,.1,0,.2,0,0,0,0,0,0-.2,0-.1.1-.3.2-.3h0c.3-.1.5.2.6.4,0,.1,0,.2,0,.2,0,0,0,0-.1.1,0,0,0,0,0,.1,0,0,0,0,0,.1,0,0,0,0-.2,0,0,0-.1,0-.2,0,0,0,0,0,0,.1,0,0,0,0,0,.1,0,0-.4.3-.5.3h-3.9Z"/>
    <path class="st0" d="M202.6,11c-.1-.1-.4,0-.5,0,0,0,0,0,0,0,0-.1,0-.2,0-.3,0,0,0,0,0,0h0c0,0,0,0,0,0-.1-.2-.3-.2-.5-.1h0c0-.3-.1-.4-.3-.5-.3-.2-.8,0-1.1.3,0,0-.2,0-.2,0,0,0,0,0,0,0,0,0-.2-.1-.2-.3-.1-.2-.3-.4-.4-.3,0,0-.2.1-.4.4,0,.1-.2.2-.2.3-.6.6-1.5.9-2.4,1-.1,0-.2,0-.4,0-.2,0-.5,0-.7.1,0,0-.2.1-.3.2-.1-.1-.3-.1-.5-.1,0,0,0,0,0,0,0-.3,0-.5-.3-.5,0,0,0,0,0,0,0-.3-.2-.7-.4-.8-.1,0-.2,0-.4,0-.1-.3-.2-.5-.4-.6-.1,0-.3,0-.6.2-.3.2-.6.4-.9.6-.8.5-1.5,1.1-2.5,1.2-.2,0-.3,0-.5,0-.4,0-.8,0-1,.3-.2.2-.3.3-.2.5,0,.3.4.4.6.5,0,0,0,0,0,0-.4.2-.5.5-.5.7,0,.2.1.3.3.5,0,0,0,0,0,0-.1.1-.3.3-.3.6,0,.1.6.2.8.2,0,0,0,.1,0,.2,0,0,0,0,0,0h0c-.3.5-1,1.3-1.6,2-.3.4-.6.7-.9,1-1.8,2.3-3.6,5.2-4.6,7.6,0,0-.8,1.9-.6,2h0c0,0,.2,0,.3,0,0,0,0,0,0,0,0,0,0,0,0,0,0,0,0,.2.2.2,0,0,.1,0,.2,0h0s0,0,0,0c0,0,.3-.2.5-.3,0,0,0,0,0,0,0,0,0,.3.2.3.2,0,.4-.2.7-.3.1,0,.2-.2.3-.2.1.1.5.6.6.6,0,0,0,0,0,0s0,0,0,0c0,0,0,0,0,0,0,.1.3.5.7.6,0,0,0,0,.1,0,.1,0,.2,0,.3-.1,0,0,.1-.1.1-.2,0,0,0,0,0,0,0,0,.1,0,.2,0,.1,0,.3.1.5,0,.3,0,.4-.4.4-.6.5,0,.9,0,1.3-.4.3-.3.3-.4.3-.7,0,0,0-.2,0-.3-.1-2.2,1.6-4.7,2.6-6.2,1.1-1.6,2.3-3.2,3.5-4.7.3-.4.6-.8.9-1.2,0,.1,0,.2,0,.3.1.2.4.3.6.3,0,0,0,.2,0,.3-.4.4-.8.9-1.2,1.4-2.2,2.4-4.6,5.2-5.7,7.8-.2.4-.3.7-.4,1.1-.1.3-.2.6-.3.9h0s0,0,0,0c0,.1,0,.2.1.2.1,0,.3,0,.4,0,0,0,.2,0,.2,0,0,0,0,0,0,0,0,0,0,0,0,0-.2.3-.2.5-.1.6,0,0,.1,0,.2,0s.1,0,.2,0c0,.2.2.4.3.4,0,0,0,0,0,0,0,0,.2,0,.3-.1,0,0,0,0,0,.1,0,.3.1.6.4.6,0,0,0,0,.1,0,.2,0,.4-.3.5-.4,0,0,0,0,0,0,0,0,.1,0,.2,0,0,0,.1,0,.2,0,.2,0,.3,0,.4,0,.2-.1.2-.4.2-.6h0s0,0,0,0c0,.2.3.5.4.6,0,0,0,0,.1,0,.2,0,.4-.2.5-.3,0,0,0,0,0,0,0,0,0,0,0,0,.1.2.3.4.6.3.2,0,.2-.3.1-.4,0-.1,0-.2,0-.3,0-.2.3-.6.5-1,0-.1.1-.3.2-.3.5-.9,1-1.9,1.6-2.9,1.7-2.9,3.8-6.3,6.7-8.9h0s0,0,0,0c0,0,0,0,0-.1,0,0,0,0,0,0,0,0,0-.4.3-.9,0,0,.1-.2.2-.4.2-.4.4-.7.4-.8,0-.1,0-.2,0-.3ZM194.5,12.8c0,0,0-.2,0-.2,0,0,0,0,0-.1,0,0,0,0,0,0l.6.3-.7.5c0-.1,0-.3,0-.4ZM199.8,10.2c0,0,.1,0,.1,0,0,0,0,0,0,0,0,0,0,0,0,0,0,0,0,0,0,0,0,0,0,0,0,0,0,0,0,0,0,0,0,0,0,0,0,0,0,0,0,0,0,0,0,0,0,0,0,0,0,0,0,0,0,0,0,0,0,0,0,0,0,0,0,0,0,0,0,0,0,0,0,0,0,0,0,0,0,0ZM193.2,10c.2.1.3.5.4.8,0,0,0,0,0,0,0,0,0,0,0,0,0,0,0,0,0,0,0,0,0,0,0,0,0,0,0,0,0,0,0,0,0,0,0,0,0,0,0,0,0,0,0,0,0,0,0,0,0,0,0,0,0,0,0,0,0,0,0,0,0,0-.1-.4-.2-.6,0,0,0-.2,0-.2,0,0,0,0,0,0,.1,0,.2,0,.3,0ZM193,15.1c-1.2,1.5-2.4,3.1-3.5,4.8-1,1.5-2.8,4-2.7,6.3,0,.2,0,.3,0,.4,0,.2,0,.3-.2.6-.4.3-.8.4-1.3.4h0s0,0,0,0c0,.2,0,.6-.3.6-.1,0-.3,0-.4,0,0,0-.2,0-.2,0,0,0,0,0,0,0,0,0,0,.1-.1.1-.1,0-.2.1-.4,0-.2,0-.4-.3-.6-.5,0,0,0,0,0,0,0,0,0,0,0,0,0,0,0,0,0,0,0,0,0,0,0,0,0,0,0,0,0,0,0,0,0,0,0,0,0,0,0,0,0,0,0,0,0,0,0,0,0,0,0,0,0,0,0,0,0,0,0,0,0,0,0,0,0,0,0,0,0,0,0,0,0,0,0,0,0,0,0,0,0,0,.1,0,0,0,0,0,0,0,0,0,0,0,.1,0,0,0,0,0,0,0,0,0,.1,0,.2,0,.2,0,.3,0,.4,0,.1,0,.2-.3.2-.4,0,0,0-.1,0-.2,0,0,0,0,0,0,0,0,.1,0,.2,0,.3,0,.6-.1.9-.3.5-.3.5-.4.4-.7,0,0,0-.2,0-.3,0-2.5,1.3-4.6,2.7-6.5.8-1.2,1.8-2.4,2.6-3.6.4-.5.8-1.1,1.2-1.6,0,0,.2-.2.3-.4.3-.4.7-.9.8-1.2,0-.1,0-.2,0-.3,0,0,0-.2,0-.3,0,0,0-.2,0-.3,0,0,0,0,0,0,0,0,0,0,0,0,0,0,0,0,0,0,0,0,0,0,0,0,0,0,0,0,.1,0,.2,0,.3,0,.4.1,0,0,0,0,0,0,0,0,0,0,0,0,0,0,0,0,0,0,0,0,0,0,0,0,0,0,0,0,0,.1,0,0,0,0,0,0,0,0,0,0,0,0,0,0,0,0,0,0,0,0,0,0,0,0,0,0,0,0,0,0,0,0,0,0,0,0,0,0,0,.2,0,.3,0,0,0,.1,0,.2h0s0,0,0,.1c0,0,0,0,0,.2,0,0,0,.2,0,.2,0,.2,0,.3,0,.5,0,0-.2.3-.3.4-.4.5-.7.9-1.1,1.4ZM187.9,26.8s0-.2.1-.5c0,0,0,0,0,0,0,0,0,0,0,0,0,0,0,0,0,0,0,0,0,0,0,0,0,0,0,0,0,0,0,0,0,0,0,0,0,0,0,0,0,0,0,0,0,0,0,0,0,0,0,0,0,0,0,0,0,0,0,0,0,0,0,0,0,0,0,0,0,0,0,0,0,0,0,0,0,0,0,0,0,0,0,0,0,0,0,0,0,0,0,0,0,0,0,0,0,0,0,0,0,0,0,0,0,0,0,0,0,0,0,0,0,0,0,0,0,0,0,0,0,0,0,0,0,0,0,0,0,0,0,0,0,0,0,0,0,0-.3,0-.3,0-.4,0ZM190.8,27.4c0,0-.2,0-.3,0,0,0-.1,0-.2,0,0,0-.2-.1-.3,0,0,0,0,0-.1.1,0,.1-.3.4-.5.4-.3,0-.4-.1-.4-.5,0,0,0-.1,0-.2,0,0,0,0,0,0,0,0,0,0,0,0,0,0,0,0,0,0,0,0,0,0,0,0,0,0,.2-.2.2-.2,0,0,0,0,.1,0,0,0,.1,0,.2,0,.2,0,.3,0,.4,0,.2-.1.3-.4.3-.6l.3.5h0s0,0,0,0c0,0,0,0,0,0,0,0,0,0,0,0,0,0,0,0,0,0,0,0,0,0,0,0,0,0,0,0,0,0,0,0,0,0,0,0,0,0,0,0,0,0,0,0,0,0,0,0,0,0,0,0,0,0,0,0,0,0,0,0,0,0,0,0,0,0,0,0,0,0,0,0,0,0,0,0,0,0,0,0,0,0,0,0,0,.2,0,.4-.2.5ZM202.2,12.1c0,.2-.2.3-.2.4-.4.8-.3.9-.3,1,0,0,0,0,.1.1,0,0,0,0,0,0-2.9,2.6-5,6-6.7,8.9-.6,1-1.1,1.9-1.6,2.9,0,0-.1.2-.2.3-.2.4-.5.8-.5,1,0,0,0,.2,0,.3,0,.2,0,.3,0,.3-.2,0-.3,0-.5-.3,0,0,0,0,0-.1h0s0,0,0,0h0c0,0,0,0-.1.1,0,.1-.2.3-.5.3-.1,0-.3-.4-.3-.5,0,0,.2-.3.2-.4,0,0,0,.1.1.2,0,0,0,0,0,.1,0,0,.2.2.4.2,0,0,.1,0,.2-.1,0-.1,0-.2,0-.4,0,0,0-.1,0-.2,0-.2.3-.6.5-1,0-.1.1-.2.2-.3,0-.2.2-.3.2-.5,0,0,0,0,0-.1,0-.1.1-.3.2-.4,0,0,0-.2.1-.3,0,0,0,0,0,0,.8-1.4,1.7-3,2.7-4.5,0,0,0,0,0,0,0,0,.1-.2.2-.3,0,0,0,0,0-.1,0,0,0,0,0-.1,0,0,.1-.2.2-.2,0,0,0,0,0,0,1-1.5,1.9-2.6,2.6-3.4,0,0,0,0,0,0,0,0,0,0,.1-.1,0,0,.1-.1.2-.2,0,0,0,0,0,0,0,0,.2-.2.2-.2,0,0,.2-.2.4-.4.6-.6.8-.7.8-.8,0-.1,0-.2-.1-.2,0,0,0,0,0,0l.9-2.1c0,0,0,.1,0,.3h0s0,0,0,0c0,0,0,0,.1,0,.1,0,.3,0,.4,0,0,0,0,.1,0,.2,0,.1-.2.5-.4.8Z"/>
  </g>
  <g>
    <g>
      <g>
        <path class="st0" d="M76.2,26.3c-.3.2-.6.2-.9.2-.4,0-.7.1-.9-.2-.1-.3-.2-.6-.3-.9-.3-.5-.5-1.2-.9-1.6-.3-.3-.4.2-.5.4-.2.7-.4,2-1,2.3-.5.2-1.1.2-1.3-.4-.1-.3-.3-.8-.4-1.2-.7-2.2-1.5-4.3-2-6.5-.1-.8,1.2-.7,1.7-.7.3,0,.5.3.6.6.3.9.9,2.6,1.1,3.1.2.7.8-2.1,1-2.2.3-.4,1.1-.3,1.5,0,.2.2.3.4.4.7.2.5.5,1.2.7,1.6,0,.2.4.8.6.4.4-1.3.6-2.7,1-4,.2-.5.7-.5,1.2-.5.7,0,1.2,0,1,.9-.2,1.1-.7,2.1-1,3.2-.4,1.5-1,3.9-1.3,4.6,0,.1-.1.2-.2.3h0Z"/>
        <path class="st0" d="M55.7,27.6c-.4-.3-.2-1.4-.2-2,.2-2.4.2-4.8,0-7.2,0-.2,0-.5,0-.7.2-.5,1.5-.6,2-.4.2.1.2.4.4.6.2.5.6,1.4.9,2.1.2.4.3.8.6,1,.1,0,.2,0,.2-.2,0-.8,0-3.1,0-3.8,0-.1,0-.2.2-.2.4,0,1.1-.2,1.5,0,.3.2.3.6.3.9.2,2.4,0,5.1,0,7.5,0,.4,0,1-.2,1.3-.3.4-.9.3-1.3.4-.3,0-.8,0-.9-.3-.5-.9-.9-2.1-1.4-3.1-.2-.3-.3-.3-.3,0,0,.9,0,3-.2,3.8-.2.4-1.4.5-1.8.3h0Z"/>
        <path class="st0" d="M87.8,25.4c-1.5-1.2-1.7-4.2-.9-5.8.9-1.8,2.4-2.2,4.3-2.2,1.3,0,2,.7,2.5,1.8,1.3,2.9-.4,7-4,6.8-.5,0-1.5-.3-1.9-.6ZM90.8,19.6c-1.1.3-1.5,2.5-1.4,3.4.2.9,1.4.5,1.8-.2s.8-3.5-.5-3.2Z"/>
        <path class="st0" d="M78.7,12c-.6,0-1.3,0-1.9.2-.3.3-.5,2-.8,2.1s-1.6-.1-1.7-.4.2-1.4.3-1.6c.5-2.1,1.1-4.1,1.8-6.1.2-.4,1.8-.5,2.1-.2s.4.8.5,1c.7,1.6,1.4,4.5,1.8,6.3,0,.4.2.8-.3.9s-1.1.3-1.4,0c-.3-.7-.3-1.5-.5-2.2ZM78.3,10.5c.1-.2-.4-1.7-.7-1.9,0,0-.6,1.8-.5,1.9,0,.2,1.2,0,1.2,0Z"/>
        <path class="st0" d="M74.1,13.7c0,.6-.2.8-.9.9-.6,0-1.1.1-1.7.2-.4,0-.9,0-1.3.1-.1,0-.3,0-.4,0-.3-.1-.3-.4-.3-.8,0-2,.2-6.6.2-7.7,0-.3.4-.5.7-.5.3,0,.7,0,1,0,.3,0,.6,0,.6.3.1.4.1.9.1,1.4,0,.5,0,1.1,0,1.6,0,.9,0,1.8,0,2.7,0,.2,0,.3,0,.5.2.1.7,0,1.1,0,.4,0,.8-.1.9.3,0,.4,0,.7,0,1.1h0Z"/>
        <path class="st0" d="M83.7,19.4c.1,0,.9-2.1,1.2-2.5.4-.7.7-.7,1.5-.8,1.6,0,.9,1.1.4,2-.8,1.6-2.1,3-2.2,4.8,0,.7.1,2.5-.3,2.9s0,.1-.2.1c-.3,0-1.6,0-1.8-.1-.3-.4-.1-2.3-.2-3,0-1.3-1.5-2.8-2.2-4s-1.1-1.8,0-2.1,1.3-.2,1.6-.1.9,1.5,1.2,1.9.7.9.9.8Z"/>
        <path class="st0" d="M112.9,25.4c-.2,0-.5,0-.8,0-.5,0-.8,0-1-.5-.2-.5-.5-1.1-.6-1.6,0-.1-.2-.7-.4-.7,0,0,0,.3,0,.5,0,.2,0,.4,0,.6,0,.7,0,1.4-.1,1.8,0,.3-.3.4-.6.4-.4,0-.8,0-1.1-.1,0,0,0-.1,0-.2,0-1.1.2-6.3.3-7.7,0-.1,0-.2.1-.3,0,0,0,0,0,0,.3-.1.6-.1.9-.1.3,0,.6,0,.8.3.2.6.9,2.2,1.1,2.8,0,0,0,.1,0,.1.4-.4.2-2.4.3-3.1,0-.4.2-.6.7-.5.3,0,.8,0,.8.4,0,1-.2,7-.3,8,0,0,0,0,0,.1h0Z"/>
        <path class="st0" d="M67.5,20.1s-.1,0-.2,0c-.7.1-1.4.2-2.1.2,0,0-.2,0-.2,0,0,0,0,0-.1.2,0,.1,0,.3,0,.5,0,.3,0,.9.2,1,0,0,.2,0,.3,0,.3,0,.8-.1,1.1-.1.2,0,.7,0,.9,0,.2.2,0,1,0,1.3,0,.2,0,.3-.2.4-.3.2-1.5.3-1.9.3,0,0-.1,0-.1.1,0,.1,0,.4,0,.6,0,0,0,.2,0,.2.5,0,1.1,0,1.7,0,.4,0,.7-.1.9,0,.1.2.1.6.1.9,0,.6-.2.8-.8.9-.8.2-2,.3-2.8.4-.5,0-1.3.3-1.4-.4-.3-2.4.1-5.1-.2-7.5,0-.2,0-.5,0-.6.4-.4,1.1-.3,1.6-.3.8,0,2.2-.4,2.8-.3.5.1.4,1.1.4,1.6,0,.1,0,.4,0,.5h0Z"/>
        <path class="st0" d="M100.2,25.5c-.9.4-1.2.8-1.8-.2-.3-.3-1.4-3.2-1.8-2.9,0,.7.1,2.7,0,3.5-.1.3-1.4.3-1.7.3-.2,0-.2-.3-.2-.5-.2-2.3,0-4.5-.3-6.8,0-.1,0-.3,0-.4,0-.5.5-.7,1-.8,1.4-.3,3.8-.7,4.5.9.2.4.3.9.2,1.4-.1.6-.4,1.2-.9,1.7-.2.2-.7.4-.7.8.2.5,2.2,2.8,1.7,3.2h0ZM98.3,19c-.3-.3-1.1-.3-1.5,0,0,0,0,0,0,.1,0,.4-.1,1.5-.2,2.1,0,.2.2.1.3,0,.9-.3,2.3-1.6,1.4-2.4h0Z"/>
        <path class="st0" d="M120.5,25.6c0,0-.2.1-.3.2-.3,0-.7.1-1,0-.2,0-.3,0-.4-.2-.3-.4-.4-1.7-.7-2,0,0-.1,0-.2,0-.5,0-1.2.2-1.7.2,0,0-.1,0-.1.1-.2.5-.4,1.7-.6,1.9-.2.2-1.3,0-1.6-.2,0,0,0-.1,0-.2.6-2.6.9-5.4,1.9-7.9,0-.1.1-.2.2-.2.6-.2,1.7-.4,2.1.2.7,1.5,1.2,3.1,1.8,4.8.2.8.4,1.5.6,2.2,0,.3.2.7.2,1h0ZM116.3,22.1c.2.2,1.2.1,1.3-.1,0-.3-.5-1.5-.7-1.8-.2-.2-.2.2-.3.3,0,.3-.2.8-.3,1.1,0,.3,0,.4,0,.5h0Z"/>
        <path class="st0" d="M102.5,19.3c0,0,.2,0,.2-.1.3-.5,1-1.6,1.4-2,.2-.2,1.1,0,1.1.4,0,1.1-1.9,2.8-2.2,3.7,0,.1,0,.2,0,.3.4.8,1.9,2.8,2,3.4,0,.1,0,.2-.2.2-.3.2-.8.4-1,.1-.3-.3-.7-1.4-1.1-2.1-.1-.2-.3-.4-.3-.3,0,.3.2,2.3.2,2.7,0,0,0,0,0,.1-.2.3-.8.3-1.1.2-.2-.1-.2-.3-.2-.5-.6-2.3-.3-4.8-.5-7.2,0-.4,0-.9,0-1.3,0-.4,0-.4.4-.5.3,0,1,0,1.1.2,0,0,0,.1.1.3,0,.3,0,.5,0,.8,0,.4,0,.8,0,1.2,0,0,0,.2,0,.2h0Z"/>
        <path class="st0" d="M107.1,25.3c0,0-.2,0-.2,0-.2,0-.6,0-.8,0-.3,0-.5-.1-.5-.4,0-2.3.3-4.7.3-7,0-.3,0-.9.4-1,.2,0,.6,0,.9,0,0,0,.2,0,.3,0,.3,0,.3.6.3.9,0,.5,0,1.1,0,1.6-.2,1.9-.2,3.9-.6,5.8h0Z"/>
      </g>
      <g>
        <g>
          <path class="st0" d="M109.9,28.7s-.4-.3-.9-.2l-.4.4c-.4.5-.8,1.3-.8,1.8,0,1.1,1.1.9,1.7.4.6-.5,1.3-1.8.4-2.4ZM109.8,29.9c-.1.4-1,1.5-1.4,1-.3-.3.4-1.7.8-1.8.5-.2.7.4.6.8Z"/>
          <path class="st0" d="M120.5,28c0-.1-.2-.3-.3-.2-.5.2-1.3,1.7-1.5,2.2,0,.1,0,.4-.2.5,0,.1-.4.3-.3,0,.1-.3.5-.8.1-1.1-.4-.4-1,.2-1.3.6-.1.2-.2.4-.3.6,0,0,0,.1-.2.1-.1,0-.2,0-.2-.2,0-.1.1-.4.2-.6,0-.2,0-.3,0-.5,0,0,0-.2-.1-.2-.2,0-.6.4-.7.5,0,0,0,0,0,0,0-.1.2-.4,0-.5-.1,0-.2,0-.3.2-.2.3-.3.7-.5,1,0,.1,0,.3,0,.4,0,.1-.3.1-.4,0-.1,0,0-.1,0-.2,0-.2.2-.5.2-.7,0-.2,0-.2-.1-.2-.3,0-.6.8-.6,1.1,0,.4.4.7.7.4.1,0,.2-.2.3,0,.1.2.3.3.4,0,.1-.2.2-.4.4-.6,0,0,.2-.2.2-.2,0,0,0,0,0,0,0,0,0,0,0,.1,0,.3,0,.6.1.7.1.1.4,0,.5-.2,0,0,0-.1.1-.1,0,0,0,.1.1.2.2.2.4.2.6,0,0,0,.1-.1.2-.1,0,0,0,0,0,0,0,0,.1.2.3.3.2,0,.3-.1.5-.3.2-.3.3.3.7.2.1,0,.2-.1.3-.2,0,0,0,0,0,0,0,0,0,0,0,0,0,0,0,0,0,0,0,0,0,0,0,0,0-.1.2-.2.3-.3h0c0,0-.1,0-.2,0,0,0,0,0-.1,0-.1,0-.3.3-.5.2h0c-.1-.2,0-.4.1-.6.3-.5,1.2-1.6,1.3-2.1ZM118,30c-.1.2-.3.4-.5.6,0,0-.2.3-.3.1,0-.2.7-1.1.9-1h0c0,0,0,.2-.1.3Z"/>
          <path class="st0" d="M111.5,32.1s0,0,.1-.1c.2-.1.6-.3.7-.4.1,0,.2-.2.3-.3,0,0,0,0,0,0,0,0-.2,0-.3,0-.3,0-.4-.2-.4-.5.1-.5.5-.9.9-1.2.2-.1.4-.1.6,0,.4.2.3.5.2.8-.1.4-.4.9-.6,1.2-.3.3-.7.6-1.2.9,0,0-.1,0-.2,0-.2,0-.2-.2-.2-.4h0ZM113.3,29.9c0,0-.4.3-.5.3-.2.2-.3.3-.4.5,0,0,0,.1,0,0,.2,0,.4-.4.6-.6,0,0,.2-.3.2-.4h0Z"/>
          <path class="st0" d="M110.9,29.8c.1,0,.2-.1.3-.2.4,0,0,.6-.2.8s-.2.8-.3.9c0,.1-.3,0-.3,0-.1-.4.2-.8.2-1s-.2-.1-.2-.4c0-.8.9-1.1.4,0Z"/>
          <path class="st0" d="M111.6,29.7c.6-.2-.1,1,0,1.1s.2,0,.2,0-.6.6-.7.2.2-1.3.4-1.4Z"/>
          <path class="st0" d="M114.4,29c0-.1.5,0,.5.2,0,.4-.6,0-.5-.2Z"/>
          <path class="st0" d="M111.9,29c.2,0,.4.1.3.3-.2.4-.5-.2-.3-.3Z"/>
          <path class="st0" d="M119.5,30.8s0,0,0,0c0,0,0,0,0,0,0,0,0,0,0,0,0,0,0,0,0-.1Z"/>
          <path class="st0" d="M109.9,28.7l-1.2.4s0,0-.1-.2l.4-.4c.5-.1.9.2.9.2Z"/>
        </g>
        <g>
          <path class="st0" d="M103,29.1c-.5.6-.8,1.6-1.6,1.6.1-.1.2-.3.3-.4.1-.2.6-1,.5-1.1,0-.1-.1-.1-.3,0-.1,0-.8,1-.9,1.2-.1.2-.3.7,0,.8.1,0,.4,0,.6,0,0,0,.3-.2.2,0,0,0-.5.5-.5.6-.3.2-.2.1-.4.3s-.3.1-.3.1c0,0-.2,0-.3.1,0,0-.6.2-.4.5s.9-.2.9-.2c.1,0,.2-.1.4-.3.3-.2,1-.9,1.3-1.5.1-.2.8-1.3.8-1.5,0-.1-.2-.2-.3-.1Z"/>
          <path class="st0" d="M99,30c0,0,0,0,.1,0,.2-.2.7-.8.8-.8s.2,0,.2.1c0,.2-.7.9-.9,1.1,0,.1.5,1,.2,1.1s-.5-.8-.6-.8c-.2,0-.4.9-.7.9-.4-.2.5-1.4.4-1.5,0,0,0,0-.1,0-.1.2-.2.5-.4.7s-.9.9-1.3.6,0-1.3.3-1.6.6-.6.8-.6.2,0,.2.2,0,.1,0,.2.6.3.7.2c.1-.2.7-1.6.8-1.6s.2,0,.2,0c0,.1-.2.7-.3.9-.1.3-.3.6-.5,1ZM97.9,29.7s-.2-.1-.2-.1c0,0-.5.8-.5.9s0,.4,0,.4c.2,0,.8-.7.8-.9s0-.2,0-.2Z"/>
          <path class="st0" d="M92.2,28.7c0,.2-.1.5-.2.7-.3.8-.8,1.5-1.1,2.2-.2.2-.3,0-.3-.2.3-.8.8-1.6,1.1-2.4,0-.2-.2,0-.3,0s-.1-.1,0-.2c.1-.3,1.4-.8,1.7-.9s.8,0,.9.2c.2.6-.8,1.3-1.2,1.7.2,0,.7.3.7.6,0,.5-.8,1.1-1.2,1.3s-.6.2-.8,0c0-.2.3-.2.5-.3.3-.1.9-.5,1-.8.2-.6-.9-.2-.8-.7s.9-.8,1.1-.9.5-.5.4-.6c-.1-.3-1,.2-1.2.3Z"/>
          <path class="st0" d="M106.4,29c.2.2.1.4,0,.6-.2.3-.3,0-.3,0-.2.3.1.7.2,1s0,.2,0,.3c0,.8-1.2.7-1.6,0s0-.2-.1-.2,0,0,0,0c-.7.4-.7-.3-.5-.8-.3.1-.6,1.1-.9,1.1s-.2-.2-.2-.3c0-.2.3-.8.4-1.1.2-.2.3-.7.6-.7s.1.4,0,.5c.1,0,.6-.6.7-.2s-.3.8-.3,1.2c.5-.1.4,0,.7.3s.4.3.7.1-.1-.9-.2-1.2,0-.5.1-.6c.1-.2.5-.4.7-.2Z"/>
          <path class="st0" d="M96.3,29.7c.1,0,.3.1.4.2s-.1.2-.2.3,0,.2-.1.3c-.3.4-1,1.3-1.5.9s.3-1.6.7-1.9.5,0,.7.3ZM96.1,29.9s0,0-.1,0c0,0-.1-.3-.3-.2s-.6,1-.4,1.2c.3,0,.9-.8.8-.9Z"/>
          <path class="st0" d="M100.7,31.2c0,0-.3.1-.3.1-.6,0-.6-.6-.4-1,.1-.4,1.1-2.2,1.3-2.3s.4,0,.3.3-.3.7-.5,1-.8,1.1-.8,1.4c-.1.4.3.2.4.3,0,0,0,.2,0,.2Z"/>
          <path class="st0" d="M94,29.7c0,0,.4-.3.5-.3s.2,0,.2.2-.4.5-.5.6c-.2.2-.6,1.2-.7,1.2s-.3,0-.3-.2c0-.3.5-.8.5-1s-.2,0-.2-.1.3-.8.3-.8.4-.2.4,0-.3.5-.2.6Z"/>
        </g>
      </g>
    </g>
    <g>
      <g id="pX0QVh.tif">
        <g>
          <path class="st0" d="M89.2,9.5s0,0,.1,0c.1,0,0,.2,0,.3-.3.5-.9.3-1.2,0s-.1-.4,0-.6.1-.2.2-.1,0,.2,0,.3c0,.2,0,.3.1.4s.4.2.7,0,0-.1.1-.2Z"/>
          <path class="st0" d="M89,9.3c0,0,0,.2,0,.2s-.2,0-.2,0c-.2,0-.3-.2-.3-.3s0-.2.1-.2c.2-.1.4,0,.6,0s0,.3,0,.2ZM88.8,9.2s-.1,0-.2,0,0,.1,0,.1.3,0,.2-.1Z"/>
        </g>
      </g>
      <path class="st0" d="M94.9,11.2c0-.2-.3-.3-.5-.2,0,0-.1.2-.2.2,0,.1,0,.3-.2.4s0,0,0,0c0,0,0,0,0,0-.4-.4-.9-.8-1.4-1-.5-.2-1.3-.4-1.7-.8,0,0-.2-.2-.2-.3,0-.1,0-.3,0-.4,0,0,0-.2,0-.3.1-.6.7-1.8.2-2.4-.4-.4-1,0-1.2.4-.2.2-.3.5-.3.7,0,0,0,.2-.1.2h-.8c0,0,0-.1,0-.1,0-.4,0-1.4-.3-1.6-.1,0-.3,0-.4,0,0,.1-.1.3-.1.4-.1.4-.3.9-.3,1.4,0,0,0,0,0,0,0,0,0,0-.1,0,0,0-.2.3-.3.3-.1.2,0,.3.2.2.2-.2.3-.4.6-.5,0,0,.2,0,.3,0,0,0,0,0,0,0-.3.2-.5.5-.7.9,0,0,0,0,0,0,0,0,0,0,0,0,0-.2,0-.3-.2-.4-.2-.1-.4.2-.4.4,0,0,0,.1,0,.1,0,0,0,0,0,0,0,0-.2.2-.3.3,0,0,0,0-.1.2,0,.1-.2.3-.2.4,0,.1,0,.3.1.4,0,0,0,0,0,0,0,0,0,0,0,0,0,.1.2.4.4.4.2,0,.4.1.6.2,0,0,.2.1.2.2,0,0,0,0,0,0,0,.2,0,.4-.1.6,0,.3-.1.6-.1.8,0,0,0,.3,0,.3,0,0,0,0,0,0,0,0,0,0,0,0,0,0-.2,0-.2,0,0,0,0,0,0,0-.1.1,0,.2-.1.3,0,0-.1.2,0,.2.1,0,.3,0,.4,0,.4,0,.8,0,1.2,0,0,0,.2,0,.2,0l.2-.5s0,0,0,0c.1,0,.2.2.2.3,0,0,.2,0,.3,0-.1,0-.1.2,0,.2.5.1,1.1,0,1.6,0,.1,0,.5,0,.5,0,0,0,0-.4.1-.5,0-.2.3-.4.3-.7,0,0,0-.1-.1-.2,0,0-.1.1-.2.2,0,0,0,.1,0,.1,0,0,0,0,0,0,0,0,0,0,0,0,0,0,0,0,0,0-.2.2-.3.4-.3.6-.2,0-.5,0-.7,0-.1,0-.3,0-.4,0,0,0-.2,0-.3,0,0,0,0,0,0,0,0-.2.4-.2.4-.4,0-.2,0-.4,0-.6,0-.1,0-.2,0-.4,0,0,0-.3,0-.3,0,0-.2.1-.2.2-.1.2-.2.4-.2.6,0,.1,0,.3,0,.4,0,0-.1.1-.2.2,0,0,0,0-.1,0,0,0,0,0,0,.1,0,0,0,0,0,0-.2-.3-.4-.5-.6-.7-.1-.2-.2-.4-.3-.6,0,0,0-.2-.1-.2-.1,0,0,.2,0,.4,0,0,0,.3,0,.4,0,0,.2.3.2.3,0,0,0,0,0,0,0,.1-.2.3-.3.5,0,0,0,0,0,0,0,0-.4,0-.5,0,0,0-.2,0-.3,0,0,0-.2,0-.3,0,0-.2.2-.2.4-.3,0,0,.2-.2.2-.2,0-.2,0-.5,0-.7,0-.3.1-.5.2-.8,0,0,0,0,0-.1.1,0,.2,0,.3,0,0,0-.1-.2-.1-.2,0,0,0,0-.1-.1-.3-.3-.5-.3-.8-.4-.1,0-.4-.2-.5-.3,0,0,0-.1.2-.2,0,0,.2-.2.3-.2,0,0,0,0,0,0,.1.2.2.4.4.5.3.2.7.2,1.1,0,.1,0,.2-.2.3-.2,0,0,.2,0,.2,0,.1,0,.4-.1.5-.2,0,0,.2-.2.1-.3-.1,0-.3,0-.5.1-.1,0-.3,0-.4,0-.2,0-.3-.3-.5-.4-.1-.1-.2-.3-.3-.4-.1,0-.2,0-.2-.2,0,0,0-.2,0-.3,0,0,0,0,0-.1,0-.1.3-.5.4-.6,0,0,.2-.1.3-.1.3,0,.5,0,.8,0-.1.5.5.8.8,1,0,0,.1,0,.2,0,0,.1,0,.3,0,.4,0,.4-.4,1-.7,1.3-.1.2-.3.2-.5.3-.2,0-.3.1-.5.2,0,0-.2,0-.2.1,0,0,0,0,.2,0,0,0,.2,0,.3,0,.8-.1,1.3-.6,1.7-1.2,0,0,0-.1,0-.2,0,0,0,0,0,0l.3.2c.1,0,.2.1.3.2-.3.2-.5.5-.6,1-.1.6.4,1.1.9,1.1.5,0,.9-.5.8-1,0-.3,0-.5-.2-.7.2,0,.4.1.6.2,0,0,.2,0,.3.2,0,0,0,0,.1,0,.2,0,.4.1.4.3s0,0,0,.1c.4.4.6.8.8,1.4,0,.1,0,.4.1.5,0,.1-.2,0-.3,0-.3,0-.7,0-1,0-.1,0-.2,0-.4,0,0,0,0,0,0,0,0-.2.3-.5.3-.7,0-.1,0-.3-.1-.4,0,0-.1,0-.2,0,0,.1-.1.3-.2.4,0,0-.1.1-.2.2,0,0-.1.3-.1.3,0,0,0,.1,0,.1,0,0,0,0,0,0,0,0,0,.1,0,.1,0,0,.1,0,.1,0,.1,0,.3,0,.4,0,.5,0,.9,0,1.4,0,.1,0,.5,0,.5-.1,0-.1,0-.2-.1-.2,0,0,0,0,0-.2,0-.1,0-.4,0-.6,0,0,0-.1,0-.2,0,0,0,0,0,0,0,0,.2-.3.2-.3,0,0,0-.2,0-.2,0-.2,0-.7,0-.9ZM86.7,9.8s-.2.2-.2.2c0,0-.2.2-.2.2,0,0,0,0,0,0,0,0,0-.2,0-.3,0,0,0-.1.1-.2,0,0,.1-.2.1-.2,0,0,0,0,.1.1,0,0,.1,0,0,.2ZM86.8,9.4c-.1-.2,0-.1,0,0,0,0,0,0,0,0ZM86.8,9.1c0-.1,0-.2,0-.2.1.1,0,.2,0,.2ZM87.2,9.4s0,0,0,0c0,0,0,.2-.1.2,0,0,0-.1,0-.2ZM87.6,9.5c.2.2.2.4.3.5,0,.1.2.2.3.3,0,0,0,0,0,0,0,0-.2,0-.3,0-.5.1-.7,0-1-.4,0,0,0,0,0,0,0,0,0-.2,0-.2,0,0,0,0,0,0,0,0,.1,0,.1,0,.1,0,.2-.1.2-.2,0,0,0,0,0-.1,0,0,0,0,0,0,0,0,0,0,0,0ZM88,6.8c0,.2,0,.3,0,.5,0,0,0,.4,0,.5,0,0-.1,0-.2,0l.3-1.4c0,.1,0,.3,0,.5ZM94.6,12.1s0,.1,0,.1c0,0,0,0,0,0,0-.1-.1-.2-.2-.3,0,0,0,0,0-.1,0,0,0-.1.1-.2v-.3c.1,0,.2.1.2.2,0,.2,0,.5,0,.7Z"/>
      <path class="st0" d="M93.5,11.4c0,0,0,0,0,.1,0,0-.2,0-.4.1-.2,0-.4,0-.4-.2s.1-.3.3-.3c0,0,0,0,.1,0,.2,0,.4.1.4.3Z"/>
    </g>
  </g>
  <g>
    <path class="st0" d="M10.7,33c0,1-.8,1.8-1.8,1.8s-1.8-.8-1.8-1.8.8-1.8,1.8-1.8,1.8.8,1.8,1.8ZM10.2,33c0-.7-.6-1.3-1.3-1.3s-1.3.6-1.3,1.3.6,1.3,1.3,1.3,1.3-.6,1.3-1.3Z"/>
    <path class="st0" d="M17.7,34.9h1.2c1.9,0,2.3,3,.4,3.5s-.6,0-.9,0-.5,0-.7,0,0,0,0,0v-3.5ZM18.2,38c.1,0,.6,0,.8,0s.4-.1.5-.2c.7-.4.7-1.7,0-2.1s-.6-.2-1-.2-.2,0-.2,0c0,.7,0,1.4,0,2.1s0,.3,0,.4Z"/>
    <path class="st0" d="M16.7,34.7s.5,0,.5.1l-.8,3.5h-.1c-.6-1-1.1-2-1.6-2.9l-.6,2.3s-.5,0-.5-.1l.8-3.5h.1s1.6,2.9,1.6,2.9l.6-2.3Z"/>
    <g>
      <path class="st0" d="M30.9,33.6c0,1-.8,1.8-1.8,1.8s-1.8-.8-1.8-1.8.8-1.8,1.8-1.8,1.8.8,1.8,1.8ZM30.4,33.6c0-.7-.6-1.3-1.3-1.3s-1.3.6-1.3,1.3.6,1.3,1.3,1.3,1.3-.6,1.3-1.3Z"/>
      <path class="st0" d="M34.3,31.2h-3.4c0,0,1.8,1.7,1.8,1.7h0c0,.1-.3.4-.3.4l-2.7-2.4c0,0,.1,0,.2,0,.6,0,1.6,0,2.2,0s.7,0,1,0l-1.8-1.6c.2-.2.2-.5.5-.3.8.7,1.6,1.5,2.5,2.2h0Z"/>
    </g>
    <path class="st0" d="M22,34.7l2.2,3.2c-.1,0-.5.1-.5,0s-.3-.5-.3-.5c-.2,0-.4,0-.6,0s-1.1.2-1.2.2,0,.5-.2.6-.5.1-.6.1l1-3.8h.2ZM23,37.1l-.9-1.4-.4,1.6,1.3-.2Z"/>
    <path class="st0" d="M13.5,33.8s.5.2.5.2l-1,2c-.8,1.6-3.1.6-2.5-1.1l1-2c0,0,.5.1.5.2,0,.1-.8,1.7-.9,1.9-.4,1,.5,1.7,1.3,1,.4-.7.7-1.5,1.1-2.2Z"/>
    <g>
      <path class="st0" d="M35.9,19.4h2.4c0,0,0,.4,0,.5h-3.5c0,0,0,0,0,0,.8-.8,1.6-1.5,2.3-2.3h-2.3c-.1,0,0-.3,0-.4h3.6c0-.1,0,0,0,0-.8.8-1.6,1.5-2.3,2.3Z"/>
      <path class="st0" d="M37.5,16.1l-.3-1.6-.9.2.3,1.4c-.1,0-.4.2-.5,0l-.3-1.3s-1,.2-1,.2c0,0,.3,1.4.3,1.6h-.5c0,0-.4-2-.4-2l3.4-.8.5,2c0,.1-.5.2-.5.2Z"/>
    </g>
    <path class="st0" d="M4.1,23.9s0,0-.2,0c-1.2-.3-2.4-.6-3.6-.9h0c0-.1,3.2-2.4,3.2-2.4,0,.2.1.4,0,.6s-.4.3-.5.3l.3,1.7c0,.1.5.1.6.2s.1.4,0,.5c0,0,0,0,0,0l.8,1.9h0c0,0-3.2,1.4-3.2,1.4,0-.1-.2-.4-.1-.5l2.8-1.1-.6-1.5c0-.1.3-.1.4-.2ZM2.9,23.1l-.3-1.3-1.3.9c0,0,0,0,0,0,.4.2,1,.2,1.5.3Z"/>
    <path class="st0" d="M6,30.5l-1.2.9s-.4-.4-.3-.4l2.7-2.2c.1.2,1.3,1.5,1.3,1.7s-.3.3-.4.3c-.1,0-.9-1-1-1.2,0,0,0,0,0,0,0,0-.6.5-.7.6l.9,1.1c0,0-.4.3-.4.3l-.9-1.1Z"/>
    <g>
      <path class="st0" d="M34.7,23.4s-.2-.3-.2-.3c-.7-1.6,1.1-3.1,2.6-2.2s1.2,1.8.5,2.7-.3.3-.4.3-.3-.3-.3-.3c.6-.5.8-1.2.3-1.9-1-1.4-3,.2-2,1.6,0,0-.4.3-.5.2Z"/>
      <path class="st0" d="M37.5,24.5l-.2.5-1.7.3c0,0,0,0,0,0,.3.4.7.8,1,1.3,0,0-.2.5-.2.5l-1.4-1.8-1.4-.6c0,0,.1-.5.2-.5l1.4.5,2.3-.4Z"/>
    </g>
    <path class="st0" d="M24.7,34.5l1,2.8c0,.1-.5.2-.5.2l-1-2.8h0c-.1,0-.8.3-.9.3,0,0-.2-.5-.1-.5l2.3-.8c0,0,.2.4.2.5,0,0-.8.3-.9.3Z"/>
    <rect class="st0" x="26.5" y="33.2" width=".6" height="3.6" transform="translate(-12.7 15.4) rotate(-26.2)"/>
    <g>
      <g>
        <path class="st0" d="M28.8,5.1v1.7c0,0-.4-.2-.5-.4,0-.3,0-1.4-.1-1.6s-.4-.3-.4-.2l-.7,1.1s-.4-.2-.4-.3l1.9-2.9c.7.5,1.7.8,1.4,1.9-.1.5-.7.9-1.2.8ZM28.7,3.1c0,0-.5.9-.6,1,.3.3.9.6,1.3.3s.2-.7-.1-1-.5-.3-.5-.3Z"/>
        <path class="st0" d="M31.4,4.4s0,0,0,0,.3.3.4.3c.4.4.8.7,1.1,1.1,0,0-.3.3-.4.3-.3-.2-.9-1-1.1-1s-.1,0-.2.1-.5.5-.4.5l.9.9c.1.1-.3.4-.3.4l-1-.9-.7.7,1.2,1.1-.3.4-1.5-1.5,2.4-2.5Z"/>
      </g>
      <g>
        <path class="st0" d="M31.2,8.1c0,0,.4,0,.5.1,0,.2,0,.3,0,.5,0,.8,1.3,1.3,1.2.3s-.6-1.3,0-1.9c.6-.6,1.7,0,1.8.8s0,.7-.2.7-.4-.1-.4-.2,0-.3,0-.5c0-.6-1.1-.9-1-.1,0,.7.8,1.7-.2,2.1s-2.1-.9-1.6-1.9Z"/>
        <g>
          <path class="st0" d="M33,11.7l3.2-1.3c.5,1,1,2.3-.1,3.1-1.2.8-2.2.3-2.7-.9s-.4-.8-.3-.9ZM36,11l-2.3.9c.3.9,1,1.6,2,1.1s.7-1.3.3-2Z"/>
          <rect class="st0" x="32.3" y="9.9" width="3.5" height=".5" transform="translate(-.3 19) rotate(-31)"/>
        </g>
      </g>
    </g>
    <g>
      <g>
        <path class="st0" d="M14.5,2.9l.3,1.3h-.5c0,.1,0,0,0,0l-.9-3.4c.7,0,1.3-.5,2-.1s.7,1.3.1,1.8l1.3,1.1c0,0-.5.2-.6.2l-1.2-1c-.2,0-.4,0-.5,0ZM14.3,2.4c.5,0,1.3-.3,1-1s-.9-.3-1.3-.2l.3,1.2Z"/>
        <path class="st0" d="M11,5.7c0-1.1,0-2.1,0-3.2s-.1-.7,0-.7l3,2.5s-.4.2-.5.2c0,0-.4-.4-.5-.4-.2.1-1.5.6-1.5.7s0,.5,0,.6-.5.2-.5.2ZM11.5,2.7v1.6c.1-.1,1.2-.5,1.2-.6s-1.1-.9-1.2-1.1Z"/>
      </g>
      <path class="st0" d="M23.1,1.1s-.3.1-.3.1c-.2,0-.1,0-.2-.2-.3-.6-1.3-.4-1.2.2s.9.6,1.1.8c1.2,1-.2,2.2-1.4,1.6s-.7-.5-.7-.8.4-.2.4-.2c0,0,.2.3.3.4.3.2.9.3,1.2,0,.5-.5-.7-1-1-1.2-1.2-.9.3-2.2,1.4-1.4s.5.5.4.7Z"/>
      <path class="st0" d="M26.4,1.3s-.1.5-.2.5c-.1,0-.8-.3-.9-.3l-.9,2.8s-.5-.1-.5-.1c0-.1.8-2.5.9-2.8l-.9-.3c0,0,.1-.4.1-.5l2.4.7Z"/>
      <path class="st0" d="M18.9,0c0,.2,0,.3,0,.5h-.9c0,0,.2,3.1.2,3.1h-.5s-.3-3-.3-3c-.3,0-.6,0-1,0,0-.2,0-.3,0-.5l2.5-.2Z"/>
      <rect class="st0" x="18" y="1.5" width="3.5" height=".6" transform="translate(17.4 21.5) rotate(-88.1)"/>
    </g>
    <circle class="st0" cx="4.3" cy="28.2" r=".7"/>
    <circle class="st0" cx="34.3" cy="28.2" r=".7"/>
    <g>
      <path class="st0" d="M32.7,18.8c0,7.5-6.1,13.5-13.5,13.5s-13.5-6.1-13.5-13.5,6.1-13.5,13.5-13.5,13.5,6.1,13.5,13.5ZM31.6,18.9c0-6.8-5.6-12.4-12.4-12.4s-12.4,5.6-12.4,12.4,5.6,12.4,12.4,12.4,12.4-5.6,12.4-12.4Z"/>
      <path class="st0" d="M19,10c.2,0,.7,0,.8.2l6.7,14.8c.2.5,0,.7-.5.8h-13.6c-.7-.2-.4-.7-.2-1.1,2.1-4.8,4.4-9.5,6.5-14.3,0-.1.2-.4.3-.4ZM19.3,13.3h-.1s-2.2,5.1-2.2,5.1h0s2.3,1.3,2.3,1.3c.8-.4,1.5-.8,2.2-1.2h0c0,0-2.2-5.1-2.2-5.1ZM22.3,19.9c0,0-.1,0-.2,0-.8.4-1.6,1.1-2.4,1.4s-.5.1-.8,0l-2.6-1.4h-.1s-1.9,4.3-1.9,4.3h9.9s-1.9-4.4-1.9-4.4Z"/>
    </g>
    <g>
      <path class="st0" d="M1.7,12.5l-.5,1.6.9.3c0,0,.3-1.1.4-1.3s0,0,0,0,.4.1.4.1c0,0,0,0,0,0,0,.2-.4,1.2-.4,1.3l.9.3.5-1.5c0,0,.4,0,.5,0l-.6,2.1-3.3-1.1.6-2c.2,0,.3,0,.5.1Z"/>
      <path class="st0" d="M2.5,16.8c1.2-.1,1.4,1.7.6,2.3s-.4.2-.6-.2c0-.1.3-.2.4-.3.5-.7-.2-1.8-.7-.9s-.5,1.2-1,1.3c-1,.1-1.4-.9-1-1.7,0-.2.4-.6.6-.5s.3.4.2.4-.2,0-.2.1c-.5.4-.2,1.3.3,1.1s.5-1.6,1.4-1.7Z"/>
      <rect class="st0" x="1.8" y="14.2" width=".5" height="3.5" transform="translate(-14 15) rotate(-79.2)"/>
      <g>
        <path class="st0" d="M4.3,10.9l1.7-.3s-.2.5-.3.6l-1.5.2c-.1,0-.3.5-.3.5l1.1.5s-.2.5-.2.5c-.2,0-2.7-1.4-3.1-1.6,0,0,.5-1.1.6-1.2.7-.8,2.1-.4,2,.7ZM3,10.3c-.4,0-.5.6-.7.8l1.1.6s.3-.5.3-.6c.1-.5-.2-.9-.7-.8Z"/>
        <path class="st0" d="M5.4,9.4l1,.7s-.3.4-.3.4l-2.7-2.1s0,0,0-.1.6-.8.6-.8c.8-.9,2.2-.4,2,.9h1.6s-1.1-3.6-1.1-3.6h0c0,0,3.6,1.5,3.6,1.5,0,0-.3.4-.4.4s-.5-.3-.6-.2c-.4.4-.8.7-1.2,1s-.1,0-.1.2c0,.1.2.5.2.6s-.2.2-.3.3-.3.4-.3.5c0,0-.9,0-1.1,0s-.4,0-.6,0-.3.4-.3.5ZM8.7,6.3l-1.5-.7.5,1.6,1-.9ZM4.9,7.6c-.4,0-.6.4-.8.7.1,0,.8.7.9.7s.4-.4.4-.5c.2-.4,0-.9-.5-.9Z"/>
      </g>
    </g>
  </g>
  <g>
    <g>
      <path class="st0" d="M308.6,14.7c-.2,0-.4.2-.4.4,0,.2,0,.4,0,.6,0,.2.2.3.4.3h10.9c.2,0,.3,0,.5-.1,1-.5,2-.9,3-1.2h-14.4Z"/>
      <path class="st0" d="M308.9,16.8c-.3,0-.5.3-.4.5,0,.2.1.4.2.5,0,.2.2.3.4.3h7.3c.2,0,.3,0,.4-.1.5-.4,1-.8,1.6-1.2h-9.5Z"/>
      <path class="st0" d="M309.8,18.9c-.3,0-.5.3-.4.6,0,.2.2.3.3.5.1.2.3.3.5.3h4.1c.2,0,.3,0,.5-.2.3-.4.7-.8,1.1-1.1h-6Z"/>
      <path class="st0" d="M311,21.6c.4.4.8.7,1.2,1.1.2.1.5,0,.6-.1.2-.3.4-.7.7-1,.2-.3,0-.6-.3-.6h-1.8c-.3,0-.5.4-.3.7"/>
      <path class="st0" d="M319.9,24.7c.1,0,.2,0,.3,0,2.4-.4,4.6-1.6,6.2-3.4,0,0,.2-.2.2-.3-2.6.4-5,1.7-6.7,3.7"/>
      <path class="st0" d="M327.4,18.9c-3.9.2-7.6,2.2-9.9,5.4-.1.2,0,.5.2.5,0,0,0,0,.1,0,.2,0,.4,0,.6,0,.2,0,.3,0,.4-.2,2-2.6,4.9-4.1,8.2-4.4.1,0,.2,0,.3-.2.1-.2.2-.3.3-.5h0c.1-.4,0-.6-.3-.6"/>
      <path class="st0" d="M328.2,16.8s0,0,0,0c-5.2,0-10,2.7-12.8,7.1-.1.2,0,.4.2.4.2,0,.5.1.7.2.1,0,.2,0,.3-.1,2.5-3.9,6.9-6.3,11.6-6.3h0c.1,0,.2,0,.3-.2,0,0,0,0,0,0,0-.2.1-.3.2-.5,0-.3-.1-.5-.4-.5"/>
      <path class="st0" d="M328.1,14.8c-6,0-11.6,3.1-14.6,8.3-.1.2,0,.4.1.6.1,0,.3.2.4.2.2,0,.4,0,.5-.2,2.9-4.7,8-7.6,13.5-7.6s.3,0,.4,0c.2,0,.4-.1.4-.3,0-.2,0-.3,0-.5,0-.2-.2-.4-.4-.4-.2,0-.3,0-.5,0"/>
      <path class="st0" d="M318.6,11.8c1.3,0,2.3.9,2.5,2.1h7.4c.3,0,.5-.2.5-.5-.5-5.3-5-9.5-10.4-9.5s-9.9,4.2-10.4,9.5c0,.3.2.5.5.5h7.4c.2-1.2,1.2-2.1,2.5-2.1M310.1,12.1c0,0,0,0,0-.1.4-1.7,1.3-3.3,2.6-4.4.8-.7,1.7-1.3,2.7-1.7,1-.4,2.1-.6,3.2-.6,1.1,0,2.2.2,3.2.6,1,.4,2,1,2.7,1.7,1.3,1.2,2.3,2.7,2.6,4.4,0,0,0,.1,0,.1,0,0,0,0,0,0,0,0,0,0-.1,0-.6-1.6-1.5-3-2.8-4-1.5-1.3-3.5-2-5.5-2h0c-2,0-3.9.7-5.5,2-1.3,1-2.3,2.4-2.8,4,0,0,0,0-.1,0M312.5,12s0,0,0,0,0,0,0,0c0,0,0,0,0-.1.4-1.2,1.1-2.3,2.1-3,.6-.5,1.2-.8,2-1.1.7-.3,1.5-.4,2.3-.4.8,0,1.6.1,2.3.4.8.3,1.4.7,2,1.1,1,.8,1.7,1.9,2.1,3,0,0,0,.1,0,.1,0,0-.1,0-.1,0-.5-1.1-1.3-2-2.2-2.6-1.1-.8-2.5-1.2-3.8-1.2h0c-1.4,0-2.7.4-3.8,1.2-.9.7-1.7,1.6-2.2,2.6M314.7,12s0,0-.1,0c0,0,0,0,0-.1.3-.7.8-1.3,1.4-1.7.3-.2.8-.4,1.2-.6.4-.1.9-.2,1.4-.2h0c.9,0,1.8.3,2.6.8.6.4,1.1,1,1.4,1.7,0,0,0,.1,0,.1,0,0,0,0,0,0,0,0,0,0,0,0-.5-.5-1-1-1.6-1.3-.7-.4-1.5-.6-2.3-.6h0c-.8,0-1.5.2-2.2.6-.6.3-1.1.7-1.6,1.3"/>
    </g>
    <path class="st0" d="M307,20.9l-.4-.8h.2c0-.1.6.9.6.9l-1.2.6-.6-1h.2c0-.1.4.6.4.6h.3c0-.1-.3-.7-.3-.7h.2c0-.1.3.5.3.5h.3Z"/>
    <path class="st0" d="M305.8,18.7c.1,0,.2-.2.1-.4,0,0,0-.1,0-.2,0,0,0,0-.1,0,0,0,0,0,0,0s0,0,0,.2v.4c0,.2,0,.4-.2.4,0,0-.2,0-.2,0,0,0-.1,0-.2-.2,0,0,0-.2-.1-.3,0-.2,0-.3,0-.5s.1-.2.3-.3v.3c0,0,0,0,0,.1,0,0,0,.1,0,.2,0,0,0,.1,0,.2,0,0,0,0,.1,0,0,0,0,0,0,0,0,0,0,0,0-.1v-.4c0-.1,0-.2,0-.3,0,0,.1-.1.2-.2.1,0,.3,0,.3,0,.1,0,.2.2.2.4,0,.2,0,.4,0,.5,0,.1-.1.2-.3.3v-.3Z"/>
    <path class="st0" d="M305,16.5c-.2,0-.4,0-.5-.1-.1-.1-.2-.3-.2-.5,0-.2,0-.3,0-.5,0-.1.2-.2.3-.2v.3s0,0,0,.1,0,.1,0,.2c0,.1,0,.2.1.3,0,0,.2,0,.3,0,.1,0,.2,0,.3-.1,0,0,.1-.2,0-.3,0,0,0-.2,0-.2,0,0-.1,0-.2,0v-.3c.1,0,.3,0,.4.2s.2.3.2.5c0,.2,0,.4-.1.6-.1.1-.3.2-.5.2Z"/>
    <path class="st0" d="M305.3,13.3v-.9c0,0,.3,0,.3,0v1.2c-.1,0-1.5-.1-1.5-.1v-1.2c.1,0,.4,0,.4,0v.8c0,0,.2,0,.2,0v-.6c0,0,.3,0,.3,0v.6c0,0,.2,0,.2,0Z"/>
    <path class="st0" d="M304.9,9.7v-.3c0,0,1.4.4,1.4.4l-.2.5h-1.3c0,.1,1.1.5,1.1.5v.3c0,0-1.4-.4-1.4-.4l.2-.5h1.3c0-.1-1.1-.5-1.1-.5Z"/>
    <path class="st0" d="M307.4,7.6h-.3c0,0-.3.5-.3.5l.2.2-.2.3-.9-1.1.2-.4,1.4.2-.2.3ZM306.6,7.9l.2-.4h-.7c0-.1.5.4.5.4Z"/>
    <path class="st0" d="M309,5.6h-.6s-.1.1-.1.1l.4.3-.2.3-1-.9.5-.6c0-.1.2-.2.3-.2.1,0,.2,0,.3.1.2.2.2.3,0,.6h.7s-.3.3-.3.3ZM307.7,5.3l.3.2.3-.3c0,0,0-.1,0-.1,0,0,0,0,0-.1,0,0,0,0-.1,0s0,0-.1,0l-.3.3Z"/>
    <path class="st0" d="M310.2,4.4l-.9-1.1.3-.2.9,1.1-.3.2Z"/>
    <path class="st0" d="M311.6,3.1c-.2,0-.3-.2-.4-.4-.1-.2-.1-.4,0-.5s.2-.3.4-.4c.2-.1.4-.2.6-.1.2,0,.3.2.4.4.1.2.1.4,0,.5s-.2.3-.4.4c-.2.1-.4.2-.6.1ZM311.4,2.3c0,.1,0,.2,0,.3s.1.2.2.2c.1,0,.2,0,.3,0,.1,0,.2-.2.2-.3s0-.2,0-.3-.1-.2-.3-.2-.2,0-.3,0-.2.2-.2.3Z"/>
    <path class="st0" d="M316.2.8h.7c0-.1.1.5.1.5-.2.1-.4.2-.6.2-.2,0-.5,0-.6,0s-.3-.3-.3-.5c0-.2,0-.4.1-.5.1-.1.3-.2.5-.3.2,0,.3,0,.5,0,.1,0,.2.2.3.3h-.3s0,0-.2,0c0,0-.1,0-.2,0-.1,0-.2,0-.3.2,0,0,0,.2,0,.3,0,.1,0,.2.2.3,0,0,.2,0,.4,0,.1,0,.2,0,.3-.1v-.2s-.4,0-.4,0v-.2Z"/>
    <path class="st0" d="M319.4,1.4v-.3c0,0-.7,0-.7,0v.3c-.1,0-.4,0-.4,0l.6-1.3h.5s.5,1.4.5,1.4h-.3ZM318.8.8h.5s-.2-.6-.2-.6l-.3.6Z"/>
    <path class="st0" d="M321.3,1.2c0,.2,0,.3.3.3,0,0,.2,0,.2,0,0,0,0,0,.1,0,0,0,0,0,0,0,0,0,0,0-.1,0l-.3-.2c-.2-.1-.3-.3-.2-.4,0,0,0-.2.1-.2,0,0,.1,0,.2,0,0,0,.2,0,.3,0,.2,0,.3.1.4.2,0,.1.1.2.1.4h-.3c0-.1,0-.2,0-.2,0,0-.1,0-.2-.1,0,0-.1,0-.2,0,0,0,0,0,0,0,0,0,0,0,0,0,0,0,0,0,.1,0l.3.2c.1,0,.2.1.2.2s0,.2,0,.3c0,.1-.1.2-.2.3s-.3,0-.5,0c-.2,0-.4-.1-.4-.2,0-.1-.1-.2,0-.4h.3Z"/>
    <path class="st0" d="M325.1,1.5v.2c-.1,0-.6-.2-.6-.2l-.4,1h-.3c0-.1.4-1.1.4-1.1l-.4-.2v-.2c.1,0,1.3.5,1.3.5Z"/>
    <path class="st0" d="M326.4,4v-.6s-.2-.1-.2-.1l-.3.4-.3-.2.8-1.1.6.4c.1,0,.2.2.2.3,0,.1,0,.2,0,.4-.1.2-.3.2-.5.1v.7c0,0-.3-.2-.3-.2ZM326.6,2.8l-.2.3.3.2c0,0,.1,0,.2,0,0,0,0,0,.1,0,0,0,0,0,0-.1,0,0,0,0-.1-.1l-.3-.2Z"/>
    <path class="st0" d="M327.9,5.1c0-.2,0-.3.2-.5.2-.1.3-.2.5-.2.2,0,.4.1.5.3s.2.4.2.5c0,.2,0,.3-.2.5-.2.1-.3.2-.5.2-.2,0-.4-.1-.5-.3s-.2-.4-.2-.5ZM328.7,4.7c-.1,0-.2,0-.3.1,0,0-.1.2-.2.3s0,.2.1.3c0,0,.2.1.3.2.1,0,.2,0,.3-.1,0,0,.1-.2.2-.3s0-.2-.1-.3c0,0-.2-.2-.3-.2Z"/>
    <path class="st0" d="M331.2,7.5l.2.3-1.2.7-.3-.5.8-1-1,.6-.2-.3,1.2-.7.3.5-.8,1,1-.6Z"/>
    <path class="st0" d="M330.9,9.8c0-.2.2-.3.4-.3.2,0,.4,0,.6,0,.2,0,.3.2.4.5,0,.2,0,.4,0,.6,0,.2-.2.3-.4.3-.2,0-.4,0-.6,0s-.3-.2-.4-.5c0-.2,0-.4,0-.6ZM331.8,9.8c0,0-.2,0-.3,0-.1,0-.2.1-.3.2s0,.2,0,.3c0,.1.1.2.2.3,0,0,.2,0,.3,0,.1,0,.2-.1.3-.2,0,0,0-.2,0-.3s-.1-.2-.2-.3ZM332.3,9.8h.3c0,.1,0,.4,0,.4l-.3-.2v-.2Z"/>
    <path class="st0" d="M332.9,13.5v.6s-1.3.1-1.3.1v-.3s1.1,0,1.1,0l-1.2-.3v-.4s1.1-.4,1.1-.4h-1.2c0,0,0-.2,0-.2h1.4c0-.1,0,.5,0,.5l-1.1.4,1.2.2Z"/>
    <path class="st0" d="M331.5,15.6h1.4c0,.1,0,.5,0,.5h-1.4c0-.1,0-.5,0-.5Z"/>
    <path class="st0" d="M332,17.4c.2,0,.4.2.4.3,0,.2,0,.3,0,.6,0,.2-.1.3-.2.4-.1,0-.2.1-.4.1v-.3c.1,0,.2,0,.3,0,0,0,0-.1.1-.2,0-.1,0-.2,0-.3,0,0-.1-.1-.3-.2-.1,0-.2,0-.3,0,0,0-.2.1-.2.3,0,0,0,.2,0,.2,0,0,0,.1.1.2v.3c-.3,0-.4-.2-.4-.3,0-.1,0-.3,0-.5,0-.2.2-.4.3-.5s.3-.1.5,0Z"/>
    <path class="st0" d="M330.5,20c.2,0,.4,0,.5,0s.3.2.4.4c0,.2,0,.4,0,.6-.1.2-.3.3-.4.4-.2,0-.4,0-.5,0-.2-.1-.3-.2-.4-.4,0-.2,0-.4,0-.6.1-.2.3-.3.4-.4ZM331.1,20.6c0-.1-.1-.2-.2-.2-.1,0-.2,0-.3,0-.1,0-.2.1-.3.2,0,.1,0,.2,0,.3s.1.2.2.2c.1,0,.2,0,.3,0,.1,0,.2-.1.3-.2,0-.1,0-.2,0-.3Z"/>
    <path class="st0" d="M308.8,31.2c-.2,0-.4,0-.7,0-.7,0-1.1-.3-1.2-.8h-1.3c0,1.2.9,1.8,2.4,1.8s1.3-.1,1.7-.4c.4-.2.6-.6.6-1.1s-.1-.7-.3-.9c-.2-.2-.6-.4-1-.5l-1.3-.4c-.2,0-.3-.1-.4-.2,0,0-.1-.1-.1-.2s0-.2.2-.2c.1,0,.3,0,.5,0,.3,0,.6,0,.7.2.2.1.3.3.3.5h1.3c0-.6-.3-1-.7-1.2-.4-.3-.9-.4-1.6-.4s-.7,0-1,.1c-.3,0-.6.3-.8.5-.2.2-.3.5-.3.8,0,.7.4,1.1,1.2,1.3l1.4.4c.2,0,.4.1.5.2,0,0,.1.1.1.2s0,.2-.3.3"/>
    <polygon class="st0" points="320.9 31.2 317.9 31.2 317.9 30.3 320.1 30.3 320.1 29.3 317.9 29.3 317.9 28.5 320.8 28.5 320.8 27.4 316.5 27.4 316.5 32.2 320.9 32.2 320.9 31.2"/>
    <path class="st0" d="M322.4,32.2h1.4c.3-1.3.9-2.6,2-3.9v-.9h-4.3v1.1h2.9c-1.1,1.2-1.8,2.4-2.1,3.7"/>
    <polygon class="st0" points="331 31.2 328 31.2 328 30.3 330.3 30.3 330.3 29.3 328 29.3 328 28.5 330.9 28.5 330.9 27.4 326.7 27.4 326.7 32.2 331 32.2 331 31.2"/>
    <polygon class="st0" points="307.3 37.6 306.4 33.7 304.1 33.7 304.1 38.4 305.3 38.4 305.3 34.5 306.4 38.4 308.2 38.4 309.2 34.5 309.2 38.4 310.5 38.4 310.5 33.7 308.2 33.7 307.3 37.6"/>
    <path class="st0" d="M313,33.7l-1.7,4.8h1.3l.3-1h2.2l.3,1h1.4l-1.8-4.8h-2ZM313.3,36.5l.7-2.1.7,2.1h-1.5Z"/>
    <path class="st0" d="M322.3,35.2c0-.5-.2-.9-.5-1.2-.4-.3-.8-.4-1.4-.4h-2.8v4.8h1.3v-1.7h.6l1.3,1.7h1.6l-1.5-1.8c.8-.2,1.3-.6,1.3-1.4M320.2,35.7h-1.3v-1h1.3c.5,0,.7.2.7.5s-.2.5-.7.5"/>
    <polygon class="st0" points="324.7 36.5 326.9 36.5 326.9 35.5 324.7 35.5 324.7 34.7 327.6 34.7 327.6 33.7 323.3 33.7 323.3 38.4 327.7 38.4 327.7 37.4 324.7 37.4 324.7 36.5"/>
    <path class="st0" d="M332.7,36.1c-.2-.2-.6-.4-1-.5l-1.3-.4c-.2,0-.3-.1-.4-.2,0,0-.1-.1-.1-.2s0-.2.2-.2c.1,0,.3,0,.5,0,.3,0,.6,0,.7.2.2.1.3.3.3.5h1.3c0-.6-.3-1-.7-1.2-.4-.3-.9-.4-1.6-.4s-.7,0-1,.1c-.3,0-.6.3-.8.5-.2.2-.3.5-.3.8,0,.7.4,1.1,1.2,1.3l1.4.4c.2,0,.4.1.5.2,0,0,.1.1.1.2s0,.2-.3.3c-.2,0-.4,0-.7,0-.7,0-1.1-.3-1.2-.8h-1.3c0,1.2.9,1.8,2.4,1.8s1.3-.1,1.7-.4c.4-.2.6-.6.6-1.1s-.1-.7-.3-.9"/>
    <polygon class="st0" points="315.6 31.1 314 31.1 314 28.5 315.6 28.5 315.6 27.4 310.9 27.4 310.9 28.5 312.6 28.5 312.6 31.1 310.9 31.1 310.9 32.2 315.6 32.2 315.6 31.1"/>
  </g>
  <g>
    <path class="st0" d="M282.4,18.1c-.3-.5-.8-.9-1.2-1.3-.9-.7-2-1-3-1.7-2.8-2.1-5.7-4.3-8.7-6.1-2.3-1.3-4.6-2.5-7.2-2.8-2-.2-3.9-.4-5.9-.4s-2.3,0-3.4.1c-.7,0-1.5.1-2.4.2,0,0-16.8,3.7-24.8,7.9,0,0,0,0,0,0-2.6,1.2-2.2,2.5-2.2,2.5.2.4,0,.6-.2.9-.3.4-.5.8-.7,1.2-.2.4-.2.9.1,1.2.3.3.3.7.3,1.1,0,.4,0,.7.4.9.5.3.6.7.8,1.2,0,.3.3.6.4.9.8,1.4,2,2.4,3.4,3.3,2.1,1.2,4.3,2,6.6,2.8,4.9,1.6,9.8,2.6,15,2.6,0,0,.1,0,.2,0,3.1,0,6.1-.5,9-1.4,3.1-.9,6.2-1.9,9.2-3.1,3.9-1.5,7.6-3.3,11.4-4.9.8-.3,1.6-.7,2.3-1.2,1.5-1,1.8-2.6.8-4ZM282.1,20.1c-.1.6-.6,1-.9,1.3-.6.4-1.3.8-2.2,1.1-1.5.6-3,1.3-4.4,1.9-2.3,1-4.6,2.1-7,3-3.2,1.2-6.2,2.2-9.1,3-3.1.9-6,1.3-8.8,1.3h-.2c-4.8,0-9.6-.9-14.7-2.6-2.5-.8-4.6-1.6-6.5-2.7-1.5-.8-2.4-1.8-3.1-2.9-.1-.2-.3-.5-.3-.7-.2-.6-.4-1.2-1.1-1.7,0,0,0,0,0-.2,0-.3,0-1.1-.5-1.7,0,0,0,0,0-.3.1-.3.3-.6.6-1,0,0,0,0,0,0,.2-.2.6-.8.3-1.5,0-.2.4-.8,1.7-1.5,0,0,0,0,0,0,7.6-4,23.4-7.6,24.5-7.8.3,0,.5,0,.8,0,.6,0,1,0,1.5-.1,1.1,0,2.3-.1,3.4-.1,1.9,0,3.9.1,5.8.4,2.5.3,4.8,1.5,6.8,2.7,2.6,1.5,5.1,3.4,7.5,5.2.4.3.7.6,1.1.8.5.4,1,.6,1.6.9.5.2,1,.5,1.4.8.4.3.8.7,1.1,1.1.3.4.5.9.4,1.5Z"/>
    <path class="st0" d="M237.5,14.7c0,0-.1,0-.2,0,0,0-.1.1-.1.2-.2,1.6-.6,3.2-1,4.7l-.3,1-.2-.6c-.7-2.3-1.1-3.8-1.1-4.5s0-.4.3-.6c-.4-.4-.9-.6-1.3-.6s-.7.1-.9.4c-.1.2-.2.5-.2.9s0,1,.3,1.8c0,0,0,.2,0,.3,0,.5-.2,1.4-.7,2.8l-.2-.6c-.7-2.3-1.1-3.8-1.1-4.5s0-.4.3-.6c-.4-.4-.9-.6-1.3-.6s-.7.1-.9.4c-.1.2-.2.5-.2.9,0,.8.4,2.5,1.2,4.9.2.6.3,1,.4,1.2.2.3.4.5.6.7.2.1.5.2.7.2.4,0,.7-.2.8-.5.3-.8.7-1.7.9-2.7.4,1.2.7,2,.8,2.3.2.3.4.5.6.7.2.1.5.2.7.2.4,0,.7-.2.8-.4,0-.2.2-.4.2-.6.6-1.5,1-2.8,1.2-3.9.2-1.2.3-2.1.3-2.6s0-.1,0-.2c0-.1-.2-.2-.3-.2Z"/>
    <path class="st0" d="M244,20.1c0,0-.1,0-.2,0-.2,0-.3,0-.3.2-.4,1-.9,1.5-1.6,1.5s-1-.3-1.2-1c0-.2-.1-.6-.2-1,.5,0,1-.2,1.4-.5.4-.3.7-.6,1-1,.3-.4.4-.8.5-1.1,0-.3.1-.6.1-.8,0-.7-.2-1.2-.7-1.5-.3-.2-.8-.4-1.4-.4-1,0-1.8.5-2.4,1.5-.4.8-.6,1.7-.6,2.7s.2,1.6.5,2.3c.2.5.5.9,1,1.2.4.3.9.4,1.5.4,1.3,0,2.3-.7,2.8-2.2,0,0,0-.1,0-.2,0-.2,0-.3-.2-.3ZM240.8,17.5c.3-1.2.7-1.8,1.2-1.8s.6.2.6.7-.1.8-.3,1.2c-.2.3-.4.6-.7.8s-.6.4-1,.5c0-.5,0-1,.2-1.5Z"/>
    <path class="st0" d="M248.5,21.9c0,0,0-.1,0-.2,0,0-.1-.1-.2-.1s0,0-.1,0c0,0-.1,0-.2,0-.3,0-.6-.2-.7-.7-.1-.3-.2-.6-.2-.9,0-.3,0-.6,0-.8,0-3,0-4.9.3-5.8.1-.4.3-.7.5-.9-.2-.3-.4-.5-.6-.7-.3-.2-.5-.3-.8-.3-.5,0-.9.5-1.1,1.5-.1.6-.2,1.3-.2,2.1,0,.7,0,1.8,0,3.3s.2,2.5.6,3.1c.4.6.9.9,1.6.9s.8,0,1.1-.2c.2-.1.4-.3.4-.5Z"/>
    <path class="st0" d="M252.1,22.5c.2-.1.4-.3.4-.5s0-.1,0-.2c0,0-.1-.1-.2-.1s0,0-.1,0c0,0-.1,0-.2,0-.3,0-.6-.2-.7-.7-.1-.3-.2-.6-.2-.9,0-.3,0-.6,0-.8,0-3,0-4.9.3-5.8.1-.4.3-.7.5-.9-.2-.3-.4-.5-.6-.7-.3-.2-.5-.3-.8-.3-.5,0-.9.5-1.1,1.5-.1.6-.2,1.3-.2,2.1,0,.7,0,1.8,0,3.3s.2,2.5.6,3.1c.4.6.9.9,1.6.9s.8,0,1.1-.2Z"/>
    <path class="st0" d="M255.1,21.7v-1.5c0-1.8.3-3,.8-3.6.2-.2.3-.3.5-.3.3,0,.5.3.5,1s0,.9,0,1.2c0,.3,0,.8,0,1.3s0,1.2.2,1.7c.2.7.5,1.1,1.1,1.1s.7-.3.7-.8,0-.4,0-.6c0-.3,0-.5,0-.8,0-.5,0-.9,0-1.3,0-.3,0-.6,0-.9,0-.7,0-1.2-.2-1.6-.2-.8-.7-1.1-1.6-1.1s-1.6.5-2,1.4c0-.7.1-1.2.4-1.4-.1-.2-.3-.3-.5-.4-.3-.2-.5-.3-.8-.3s-.7.2-.9.7c-.1.4-.2.8-.3,1.4,0,.3,0,.7,0,1,0,.7,0,1.5,0,2.5,0,.6,0,1,.1,1.2,0,.3.2.6.5.8.3.2.5.3.8.3.5,0,.7-.3.7-.9Z"/>
    <path class="st0" d="M261.1,22.3c.4.3.9.4,1.5.4,1.3,0,2.3-.7,2.8-2.2,0,0,0-.1,0-.2,0-.2,0-.3-.2-.3,0,0-.1,0-.2,0-.2,0-.3,0-.3.2-.4,1-.9,1.5-1.6,1.5s-1-.3-1.2-1c0-.2-.1-.6-.2-1,.5,0,1-.2,1.4-.5.4-.3.7-.6,1-1,.3-.4.4-.8.5-1.1,0-.3.1-.6.1-.8,0-.7-.2-1.2-.7-1.5-.3-.2-.8-.4-1.4-.4-1,0-1.8.5-2.4,1.5-.4.8-.6,1.7-.6,2.7s.2,1.6.5,2.3c.2.5.5.9,1,1.2ZM262,17.5c.3-1.2.7-1.8,1.2-1.8s.6.2.6.7-.1.8-.3,1.2c-.2.3-.4.6-.7.8-.3.2-.6.4-1,.5,0-.5,0-1,.2-1.5Z"/>
    <path class="st0" d="M268.4,18c-.4-.3-.7-.5-.8-.6-.2-.2-.3-.4-.3-.6s.1-.5.3-.8c.2-.3.5-.4.8-.4s.6.1.8.4c.2.2.3.5.3.8.2,0,.3-.1.4-.3,0-.1.1-.3.1-.4,0-.4-.2-.7-.6-1-.3-.2-.7-.3-1.2-.3-.8,0-1.4.2-1.9.7-.5.5-.8,1-.8,1.7s.2.9.6,1.3c.3.3.6.6,1,.9.4.3.7.6.8.7.1.1.2.3.2.6s-.1.6-.4.8c-.3.2-.6.3-1,.3s-.5,0-.7-.2c0,0-.2,0-.2,0-.1,0-.2,0-.3.2,0,0,0,.1,0,.2,0,.1,0,.2.2.3.6.4,1.2.5,1.9.5s.9-.1,1.3-.3c.4-.2.7-.5.9-.8.2-.3.3-.7.3-1.1,0-.6-.2-1.1-.7-1.6-.3-.3-.6-.5-1.1-.8Z"/>
    <path class="st0" d="M273.5,18c-.4-.3-.7-.5-.8-.6-.2-.2-.3-.4-.3-.6s.1-.5.3-.8c.2-.3.5-.4.8-.4s.6.1.8.4c.2.2.3.5.3.8.2,0,.3-.1.4-.3,0-.1.1-.3.1-.4,0-.4-.2-.7-.6-1-.3-.2-.7-.3-1.2-.3-.8,0-1.4.2-1.9.7-.5.5-.8,1-.8,1.7s.2.9.6,1.3c.3.3.6.6,1,.9.4.3.7.6.8.7.1.1.2.3.2.6s-.1.6-.4.8c-.3.2-.6.3-1,.3s-.5,0-.7-.2c0,0-.2,0-.2,0-.1,0-.2,0-.3.2,0,0,0,.1,0,.2,0,.1,0,.2.2.3.6.4,1.2.5,1.9.5s.9-.1,1.3-.3c.4-.2.7-.5.9-.8.2-.3.3-.7.3-1.1,0-.6-.2-1.1-.7-1.6-.3-.3-.6-.5-1.1-.8Z"/>
    <path class="st0" d="M239.2,25c.1,0,.2,0,.4,0s.2,0,.3,0c0,0,.2.1.2.2h.1c0-.2-.2-.3-.3-.3-.1,0-.2,0-.4,0s-.3,0-.4.1c-.1,0-.2.2-.3.3,0,.1-.1.3-.1.4s0,.3.1.4c0,.1.2.2.3.3.1,0,.3.1.4.1s.3,0,.4,0c.1,0,.2-.1.3-.2h-.1c0,0-.1,0-.2.1,0,0-.2,0-.3,0s-.2,0-.4,0c-.1,0-.2-.1-.2-.2,0-.1,0-.2,0-.4s0-.3,0-.4c0-.1.1-.2.2-.2Z"/>
    <path class="st0" d="M241.7,24.9c-.1,0-.3-.1-.4-.1s-.3,0-.4.1c-.1,0-.2.2-.3.3,0,.1-.1.3-.1.4s0,.3.1.4c0,.1.2.2.3.3.1,0,.3.1.4.1s.3,0,.4-.1c.1,0,.2-.2.3-.3,0-.1.1-.3.1-.4s0-.3-.1-.4c0-.1-.2-.2-.3-.3ZM241.8,26c0,.1-.1.2-.2.3s-.2,0-.3,0-.2,0-.3,0c-.1,0-.2-.1-.2-.3,0-.1,0-.2,0-.4s0-.3,0-.4c0-.1.1-.2.2-.3.1,0,.2,0,.3,0s.2,0,.3,0c.1,0,.2.1.2.3,0,.1,0,.2,0,.4s0,.3,0,.4Z"/>
    <path class="st0" d="M242.9,25c.1,0,.2,0,.4,0s.2,0,.3,0c0,0,.2.1.2.2h.1c0-.2-.2-.3-.3-.3-.1,0-.2,0-.4,0s-.3,0-.4.1c-.1,0-.2.2-.3.3,0,.1-.1.3-.1.4s0,.3.1.4c0,.1.2.2.3.3.1,0,.3.1.4.1s.3,0,.4,0c.1,0,.2-.1.3-.2h-.1c0,0-.1,0-.2.1,0,0-.2,0-.3,0s-.2,0-.4,0c-.1,0-.2-.1-.2-.2,0-.1,0-.2,0-.4s0-.3,0-.4c0-.1.1-.2.2-.2Z"/>
    <path class="st0" d="M244.4,24.1s0,0,0,0c0,0,0,0,0,0s0,0,0,0c0,0,0,0,0,0s0,0,0,0c0,0,0,0,0,0s0,0,0,0c0,0,0,0,0,0Z"/>
    <rect class="st0" x="244.4" y="24.8" width=".2" height="1.7"/>
    <path class="st0" d="M246,24.7c-.2,0-.3,0-.4,0-.1,0-.2.2-.3.3v-.4h-.2v1.7h.2v-.9c0-.2,0-.4.2-.5.1-.1.3-.2.5-.2s.3,0,.4.1c0,0,.1.2.1.4v1h.2v-1c0-.2,0-.4-.2-.5-.1-.1-.3-.2-.5-.2Z"/>
    <path class="st0" d="M247.9,24.7c-.1,0-.3,0-.4,0-.1,0-.2.1-.3.2h0c0,0,.2,0,.3,0,.1,0,.2,0,.3,0,.2,0,.3,0,.4.1,0,0,.1.2.1.4h0c0,.1-.6.1-.6.1-.2,0-.4,0-.5.1,0,0-.1.2-.1.3s0,.3.2.3c.1,0,.3.1.4.1s.3,0,.4,0c.1,0,.2-.1.2-.2v.3h.2v-1.1c0-.2,0-.4-.2-.5-.1-.1-.3-.2-.5-.2ZM248.4,25.9c0,.1-.1.2-.2.3,0,0-.2,0-.4,0s-.3,0-.3,0c0,0-.1-.1-.1-.3s0-.2.1-.2c0,0,.2,0,.4,0h.6v.3Z"/>
    <path class="st0" d="M250.4,25c.1,0,.2,0,.4,0s.2,0,.3,0c0,0,.2.1.2.2h.1c0-.2-.2-.3-.3-.3-.1,0-.2,0-.4,0s-.3,0-.4.1c-.1,0-.2.2-.3.3,0,.1-.1.3-.1.4s0,.3.1.4c0,.1.2.2.3.3.1,0,.3.1.4.1s.3,0,.4,0c.1,0,.2-.1.3-.2h-.1c0,0-.1,0-.2.1,0,0-.2,0-.3,0s-.2,0-.4,0c-.1,0-.2-.1-.2-.2,0-.1,0-.2,0-.4s0-.3,0-.4c0-.1.1-.2.2-.2Z"/>
    <path class="st0" d="M252.9,24.9c-.1,0-.3-.1-.4-.1s-.3,0-.4.1c-.1,0-.2.2-.3.3,0,.1-.1.3-.1.4s0,.3.1.4c0,.1.2.2.3.3.1,0,.3.1.4.1s.3,0,.4-.1c.1,0,.2-.2.3-.3,0-.1.1-.3.1-.4s0-.3-.1-.4c0-.1-.2-.2-.3-.3ZM253,26c0,.1-.1.2-.2.3-.1,0-.2,0-.3,0s-.2,0-.3,0c-.1,0-.2-.1-.2-.3s0-.2,0-.4,0-.3,0-.4c0-.1.1-.2.2-.3.1,0,.2,0,.3,0s.2,0,.3,0c.1,0,.2.1.2.3,0,.1,0,.2,0,.4s0,.3,0,.4Z"/>
    <path class="st0" d="M254.6,24.7c-.2,0-.3,0-.4,0-.1,0-.2.2-.3.3v-.4h-.2v1.7h.2v-.9c0-.2,0-.4.2-.5.1-.1.3-.2.5-.2s.3,0,.4.1c0,0,.1.2.1.4v1h.2v-1c0-.2,0-.4-.2-.5-.1-.1-.3-.2-.5-.2Z"/>
    <path class="st0" d="M256.8,25.6c0,0-.2,0-.3,0-.1,0-.2,0-.3,0,0,0-.1,0-.2,0,0,0,0,0,0-.2s0-.2.1-.2c0,0,.2,0,.4,0s.2,0,.3,0c0,0,.2,0,.2.1h0c0-.2-.2-.2-.3-.2-.1,0-.2,0-.3,0-.2,0-.4,0-.5.1-.1,0-.2.2-.2.3s0,.2,0,.3c0,0,.1.1.2.1,0,0,.2,0,.3,0,.1,0,.2,0,.3,0,0,0,.1,0,.2,0,0,0,0,0,0,.2s0,.2-.1.2c0,0-.2,0-.4,0s-.2,0-.3,0c-.1,0-.2,0-.3-.1h0c0,.2.2.2.3.3.1,0,.3,0,.4,0,.2,0,.4,0,.5-.1s.2-.2.2-.3,0-.2,0-.2c0,0-.1-.1-.2-.1Z"/>
    <path class="st0" d="M257.8,25c.1,0,.2,0,.4,0s.2,0,.3,0c0,0,.2.1.2.2h.1c0-.2-.2-.3-.3-.3-.1,0-.2,0-.4,0s-.3,0-.4.1c-.1,0-.2.2-.3.3,0,.1-.1.3-.1.4s0,.3.1.4c0,.1.2.2.3.3.1,0,.3.1.4.1s.3,0,.4,0c.1,0,.2-.1.3-.2h-.1c0,0-.1,0-.2.1,0,0-.2,0-.3,0s-.2,0-.4,0c-.1,0-.2-.1-.2-.2,0-.1,0-.2,0-.4s0-.3,0-.4c0-.1.1-.2.2-.2Z"/>
    <path class="st0" d="M259.4,24.1s0,0,0,0c0,0,0,0,0,0s0,0,0,0c0,0,0,0,0,0s0,0,0,0c0,0,0,0,0,0s0,0,0,0c0,0,0,0,0,0Z"/>
    <rect class="st0" x="259.3" y="24.8" width=".2" height="1.7"/>
    <path class="st0" d="M261.1,24.9c-.1,0-.3-.1-.4-.1s-.3,0-.4.1c-.1,0-.2.2-.3.3,0,.1-.1.3-.1.4s0,.3.1.4c0,.1.2.2.3.3.1,0,.3.1.4.1s.2,0,.4,0c.1,0,.2-.1.3-.2h0c0,0-.1,0-.2,0,0,0-.2,0-.3,0s-.3,0-.4,0c-.1,0-.2-.1-.3-.2,0-.1,0-.2,0-.3h1.4c0-.2,0-.4-.1-.5,0-.1-.2-.2-.3-.3ZM260.1,25.5c0-.1,0-.2,0-.3,0,0,.1-.2.2-.2,0,0,.2,0,.3,0s.2,0,.3,0c0,0,.2.1.2.2,0,0,0,.2,0,.3h-1.3Z"/>
    <path class="st0" d="M262.8,24.7c-.2,0-.3,0-.4,0-.1,0-.2.2-.3.3v-.4h-.2v1.7h.2v-.9c0-.2,0-.4.2-.5.1-.1.3-.2.5-.2s.3,0,.4.1c0,0,.1.2.1.4v1h.2v-1c0-.2,0-.4-.2-.5-.1-.1-.3-.2-.5-.2Z"/>
    <path class="st0" d="M264.7,26.3c-.1,0-.2,0-.2,0,0,0,0-.1,0-.2v-1.1h.5c0-.1-.5-.1-.5-.1v-.4h-.2v.4h-.3c0,.1.3.1.3.1v1.1c0,.1,0,.3.1.3,0,0,.2.1.3.1s.1,0,.2,0c0,0,.1,0,.2,0h0c0,0-.2,0-.3,0Z"/>
    <path class="st0" d="M266.4,24.9c-.1,0-.3-.1-.4-.1s-.3,0-.4.1c-.1,0-.2.2-.3.3,0,.1-.1.3-.1.4s0,.3.1.4c0,.1.2.2.3.3.1,0,.3.1.4.1s.2,0,.4,0c.1,0,.2-.1.3-.2h0c0,0-.1,0-.2,0,0,0-.2,0-.3,0s-.3,0-.4,0c-.1,0-.2-.1-.3-.2,0-.1,0-.2,0-.3h1.4c0-.2,0-.4-.1-.5,0-.1-.2-.2-.3-.3ZM265.4,25.5c0-.1,0-.2,0-.3,0,0,.1-.2.2-.2,0,0,.2,0,.3,0s.2,0,.3,0c0,0,.2.1.2.2,0,0,0,.2,0,.3h-1.3Z"/>
    <path class="st0" d="M268.3,25c-.3,0-.6.3-.6.6s.3.6.6.6.6-.3.6-.6-.3-.6-.6-.6Z"/>
    <path class="st0" d="M237.2,25c-.3,0-.6.3-.6.6s.3.6.6.6.6-.3.6-.6-.3-.6-.6-.6Z"/>
  </g>
</svg>