<?xml version="1.0" encoding="UTF-8"?>
<svg id="Layer_1" xmlns="http://www.w3.org/2000/svg" version="1.1" viewBox="0 0 336 35.822">
  <!-- Generator: Adobe Illustrator 29.0.0, SVG Export Plug-In . SVG Version: 2.1.0 Build 186)  -->
  <defs>
    <style>
      .st0 {
        fill: #0000fd;
      }

      .st1 {
        fill: #fafafa;
      }
    </style>
  </defs>
  <rect class="st1" x="-26.938" y="-628.97" width="390" height="844"/>
  <g>
    <g>
      <path class="st0" d="M33.405,31.103H8.781l-1.041,4.06c-.098.383.244.734.63.645l12.723-2.93,12.723,2.93c.385.089.728-.262.63-.645l-1.041-4.06Z"/>
      <path class="st0" d="M36.52,9.585h-11.049L21.664.085c-.055-.137-.259-.098-.259.05v9.451h0v20.433c0,.291.236.528.528.528h14.587c.292,0,.528-.236.528-.528V10.113c0-.291-.236-.528-.528-.528ZM36.036,29.14h-5.749l-4.053-12.919h-.238v12.919h-3.583V11.472h5.749l4.048,12.919h.242v-12.919h3.583v17.668Z"/>
      <path class="st0" d="M20.781,30.018V.135c0-.148-.204-.187-.259-.05l-3.807,9.501H5.666c-.292,0-.528.236-.528.528v19.905c0,.291.236.528.528.528h14.587c.292,0,.528-.236.528-.528ZM12.919,29.604c-3.552,0-6.781-2.351-6.781-6.21v-11.922h4.148l.007,12.365c0,1.544,1.254,2.485,2.633,2.485s2.626-.934,2.626-2.478v-12.372h4.148v11.922c0,3.859-3.228,6.21-6.781,6.21Z"/>
    </g>
    <g>
      <g>
        <path class="st0" d="M248.13,28.598h-6.181v-14.531h5.976v2.159h-3.421v3.632h2.623v2.159h-2.623v4.421h3.627v2.159Z"/>
        <path class="st0" d="M254.747,28.598h-5.588v-14.531h2.555v12.372h3.034v2.159Z"/>
        <path class="st0" d="M260.353,28.598h-2.555v-14.531h2.555v14.531Z"/>
        <path class="st0" d="M268.617,28.598h-1.938l-1.551-4.464c-.502-1.432-1.118-3.467-1.414-4.546.023,1.059.069,3.031.069,4.318v4.691h-2.372v-14.531h2.304l1.254,3.55c.411,1.183,1.05,3.072,1.346,4.172-.023-.996-.069-2.989-.069-4.069v-3.653h2.372v14.531Z"/>
        <path class="st0" d="M275.741,16.227h-3.513v3.632h2.646v2.159h-2.646v6.581h-2.555v-14.531h6.067v2.159Z"/>
        <path class="st0" d="M283.55,21.291c0,5.065-.913,7.535-3.786,7.535-2.805,0-3.672-2.429-3.672-7.452,0-5.065.89-7.535,3.718-7.535s3.741,2.491,3.741,7.452ZM280.904,21.375c0-4.442-.296-5.397-1.118-5.397-.844,0-1.072.914-1.072,5.314,0,4.442.296,5.397,1.095,5.397.821,0,1.095-.914,1.095-5.314Z"/>
        <path class="st0" d="M291.7,28.598h-2.6l-1.323-6.393h-.639v6.393h-2.532v-14.531h3.33c1.985,0,3.604.976,3.604,4.007,0,1.681-.524,2.822-1.414,3.467l1.574,7.057ZM288.963,18.177c0-1.598-.342-2.138-1.231-2.138h-.593v4.256h.525c.866,0,1.3-.582,1.3-2.118Z"/>
        <path class="st0" d="M297.132,22.541c.136-1.183.166-2.745.486-4.052l1.049-4.421h2.706s0,14.531,0,14.531h-2.281s0-3.799,0-3.799c0-1.701.091-3.69.114-5.061-.228,1.1-1,6.95-1.348,8.86h-1.586c-.349-1.91-1.12-7.76-1.348-8.86.023,1.371.114,3.359.114,5.061v3.799h-2.281v-14.531h2.706l1.049,4.421c.32,1.307.35,2.869.486,4.052h.134Z"/>
        <path class="st0" d="M310.23,28.598h-2.555l-.433-3.197h-1.87l-.411,3.197h-2.532l2.532-14.531h2.737l2.532,14.531ZM306.991,23.305l-.365-2.657c-.137-1.038-.297-2.221-.365-3.364-.046,1.142-.206,2.345-.342,3.383l-.342,2.637h1.414Z"/>
        <path class="st0" d="M318.403,21.229c0,4.981-1.3,7.369-4.197,7.369h-2.919v-14.531h3.171c3.102,0,3.946,2.657,3.946,7.162ZM315.78,21.25c0-4.256-.456-5.149-1.528-5.149h-.433v10.483h.388c1.026,0,1.574-.934,1.574-5.334Z"/>
        <path class="st0" d="M326.918,21.291c0,5.065-.913,7.535-3.786,7.535-2.805,0-3.672-2.429-3.672-7.452,0-5.065.89-7.535,3.718-7.535s3.741,2.491,3.741,7.452ZM324.272,21.375c0-4.442-.296-5.397-1.118-5.397-.844,0-1.072.914-1.072,5.314,0,4.442.296,5.397,1.095,5.397.821,0,1.095-.914,1.095-5.314Z"/>
        <path class="st0" d="M335.068,28.598h-2.6l-1.323-6.393h-.639v6.393h-2.532v-14.531h3.33c1.985,0,3.604.976,3.604,4.007,0,1.681-.524,2.822-1.414,3.467l1.574,7.057ZM332.331,18.177c0-1.598-.342-2.138-1.231-2.138h-.593v4.256h.525c.866,0,1.3-.582,1.3-2.118Z"/>
      </g>
      <rect class="st0" x="241.949" y="29.732" width="93.946" height="2.179"/>
    </g>
    <g>
      <g>
        <g>
          <path class="st0" d="M56.412,26.422h.359v2.56h1.355v.331h-1.714v-2.891Z"/>
          <path class="st0" d="M60.923,29.271v.042h-.384l-.215-.756h-1.008l-.215.756h-.376v-.042l.855-2.849h.483l.859,2.849ZM60.233,28.235l-.405-1.413h-.017l-.405,1.413h.827Z"/>
          <path class="st0" d="M61.423,26.422h.995c.487,0,.801.277.801.751,0,.314-.148.496-.363.591v.017c.223.091.471.289.471.697,0,.529-.314.835-.88.835h-1.025v-2.891ZM62.332,27.66c.334,0,.521-.148.521-.487,0-.272-.145-.43-.476-.43h-.598v.917h.553ZM62.406,28.986c.343,0,.549-.178.549-.508,0-.339-.181-.504-.549-.504h-.628v1.012h.628Z"/>
          <path class="st0" d="M63.877,27.867c0-.851.285-1.482,1.053-1.482s1.054.631,1.054,1.482c0,.847-.289,1.482-1.054,1.482s-1.053-.635-1.053-1.482ZM65.612,27.867c0-.603-.119-1.144-.682-1.144-.566,0-.682.541-.682,1.144s.12,1.144.682,1.144.682-.541.682-1.144Z"/>
          <path class="st0" d="M68.504,29.271v.042h-.393l-.759-1.144h-.538v1.144h-.359v-2.891h.979c.591,0,.917.376.917.867,0,.43-.247.727-.623.835l.776,1.147ZM66.814,27.838h.6c.363,0,.561-.198.561-.546,0-.339-.198-.541-.561-.541h-.6v1.087Z"/>
          <path class="st0" d="M71.135,29.271v.042h-.384l-.215-.756h-1.008l-.215.756h-.376v-.042l.855-2.849h.483l.859,2.849ZM70.446,28.235l-.405-1.413h-.017l-.405,1.413h.827Z"/>
          <path class="st0" d="M72.404,26.752h-.875v-.33h2.115v.33h-.876v2.561h-.363v-2.561Z"/>
          <path class="st0" d="M74.09,27.867c0-.851.285-1.482,1.053-1.482s1.054.631,1.054,1.482c0,.847-.289,1.482-1.054,1.482s-1.053-.635-1.053-1.482ZM75.825,27.867c0-.603-.119-1.144-.682-1.144-.566,0-.682.541-.682,1.144s.12,1.144.682,1.144.682-.541.682-1.144Z"/>
          <path class="st0" d="M78.716,29.271v.042h-.393l-.759-1.144h-.538v1.144h-.359v-2.891h.979c.591,0,.917.376.917.867,0,.43-.247.727-.623.835l.776,1.147ZM77.027,27.838h.6c.363,0,.561-.198.561-.546,0-.339-.198-.541-.561-.541h-.6v1.087Z"/>
          <path class="st0" d="M79.35,29.003h.71v-2.272h-.71v-.309h1.784v.309h-.711v2.272h.711v.309h-1.784v-.309Z"/>
          <path class="st0" d="M81.75,27.867c0-.851.285-1.482,1.053-1.482s1.054.631,1.054,1.482c0,.847-.289,1.482-1.054,1.482s-1.053-.635-1.053-1.482ZM83.484,27.867c0-.603-.119-1.144-.682-1.144-.566,0-.682.541-.682,1.144s.12,1.144.682,1.144.682-.541.682-1.144Z"/>
          <path class="st0" d="M84.382,29.424h1.945v.294h-1.945v-.294Z"/>
          <path class="st0" d="M56.371,33.953h.711v-2.272h-.711v-.309h1.785v.309h-.711v2.272h.711v.309h-1.785v-.309Z"/>
          <path class="st0" d="M58.887,31.372h.393l1.107,2.189h.016v-2.189h.355v2.891h-.396l-1.107-2.176h-.017v2.176h-.351v-2.891Z"/>
          <path class="st0" d="M61.435,31.372h.706c.822,0,1.169.578,1.169,1.445,0,.805-.306,1.445-1.169,1.445h-.706v-2.891ZM62.105,33.937c.665,0,.835-.516.835-1.119,0-.6-.17-1.116-.835-1.116h-.309v2.235h.309Z"/>
          <path class="st0" d="M64.03,33.953h.71v-2.272h-.71v-.309h1.784v.309h-.711v2.272h.711v.309h-1.784v-.309Z"/>
          <path class="st0" d="M66.435,33.396h.367c.021.359.252.578.686.578.438,0,.665-.165.665-.504,0-.281-.161-.405-.475-.471l-.422-.09c-.499-.108-.727-.339-.727-.781,0-.467.343-.793.963-.793.598,0,.983.346.986.858h-.368c-.016-.314-.202-.529-.628-.529-.351,0-.578.157-.578.463,0,.235.145.363.45.43l.393.082c.538.111.781.388.781.83,0,.516-.393.83-1.04.83-.682,0-1.037-.359-1.053-.904Z"/>
          <path class="st0" d="M69.004,32.817c0-.892.31-1.482,1.054-1.482.656,0,.949.391,1.011,1.003h-.371c-.037-.413-.19-.665-.64-.665-.591,0-.682.561-.682,1.144s.091,1.148.682,1.148c.43,0,.574-.244.643-.641h.368c-.079.595-.359.975-1.011.975-.752,0-1.054-.603-1.054-1.482Z"/>
          <path class="st0" d="M71.69,33.953h.71v-2.272h-.71v-.309h1.784v.309h-.711v2.272h.711v.309h-1.784v-.309Z"/>
          <path class="st0" d="M74.214,31.372h.941c.591,0,.913.376.913.912,0,.553-.331.929-.913.929h-.582v1.049h-.36v-2.891ZM75.11,32.884c.4,0,.586-.211.586-.6,0-.371-.198-.586-.586-.586h-.537v1.186h.537Z"/>
          <path class="st0" d="M76.838,31.372h.359v2.56h1.354v.331h-1.713v-2.891Z"/>
          <path class="st0" d="M79.35,33.953h.71v-2.272h-.71v-.309h1.784v.309h-.711v2.272h.711v.309h-1.784v-.309Z"/>
          <path class="st0" d="M81.866,31.372h.393l1.107,2.189h.016v-2.189h.355v2.891h-.396l-1.107-2.176h-.017v2.176h-.351v-2.891Z"/>
          <path class="st0" d="M86.455,34.221v.042h-.384l-.215-.756h-1.008l-.215.756h-.376v-.042l.855-2.849h.483l.859,2.849ZM85.765,33.185l-.405-1.413h-.017l-.405,1.413h.827Z"/>
          <path class="st0" d="M88.929,34.221v.042h-.393l-.759-1.144h-.538v1.144h-.359v-2.891h.979c.591,0,.917.376.917.867,0,.43-.247.727-.623.833l.776,1.148ZM87.24,32.788h.6c.363,0,.561-.198.561-.546,0-.339-.198-.541-.561-.541h-.6v1.087Z"/>
        </g>
        <g>
          <path class="st0" d="M65.309,22.117v.137h-2.383l-.562-1.822h-3.562l-.562,1.822h-2.274v-.137l3.288-9.452h2.753l3.301,9.452ZM61.775,18.541l-1.164-3.726h-.055l-1.164,3.726h2.383Z"/>
          <path class="st0" d="M66.13,15.089h1.753l.164,1.041h.055c.315-.63.918-1.164,1.836-1.164h.493v1.931h-.685c-1,0-1.644.671-1.644,1.822v3.534h-1.973v-7.164Z"/>
          <path class="st0" d="M71.116,18.665c0-2.164,1.26-3.699,3.548-3.699,2.123,0,3.219,1.288,3.315,2.945h-2.123c-.068-.63-.507-1.096-1.192-1.096-.89,0-1.397.562-1.397,1.849,0,1.301.507,1.863,1.397,1.863.685,0,1.123-.466,1.192-1.096h2.123c-.096,1.658-1.178,2.945-3.26,2.945-2.288,0-3.603-1.534-3.603-3.712Z"/>
          <path class="st0" d="M79.005,12.117h2.11v3.657h.055c.397-.466,1.027-.808,1.959-.808,1.589,0,2.657.986,2.657,2.575v4.712h-2.11v-4.055c0-.822-.37-1.315-1.205-1.315-.753,0-1.356.534-1.356,1.397v3.973h-2.11v-10.137Z"/>
          <path class="st0" d="M87.018,15.089h2.11v7.164h-2.11v-7.164Z"/>
          <path class="st0" d="M90.36,15.089h1.89l.219.685h.055c.342-.411.89-.808,1.904-.808,1.781,0,2.904,1.562,2.904,3.712,0,2.137-1.096,3.699-2.904,3.699-1.014,0-1.562-.397-1.904-.808h-.055v3.822h-2.11v-10.301ZM95.196,18.678c0-1-.37-1.863-1.411-1.863s-1.411.863-1.411,1.863.342,1.849,1.411,1.849,1.411-.849,1.411-1.849Z"/>
          <path class="st0" d="M98.359,15.089h2.11v7.164h-2.11v-7.164Z"/>
          <path class="st0" d="M101.359,18.678c0-2.027,1.178-3.712,3.507-3.712,2.192,0,3.425,1.548,3.425,3.493v.781h-4.781c.014.836.438,1.425,1.397,1.425.781,0,1.123-.384,1.247-.712h2.041c-.192,1.288-1.329,2.425-3.288,2.425-2.26,0-3.548-1.644-3.548-3.699ZM106.14,17.911c-.041-.685-.438-1.219-1.274-1.219-.904,0-1.301.534-1.342,1.219h2.616Z"/>
          <path class="st0" d="M109.317,12.117h2.11v10.137h-2.11v-10.137Z"/>
          <path class="st0" d="M112.317,18.665c0-2.137,1.096-3.699,2.904-3.699,1.014,0,1.562.397,1.904.808h.055l.219-.685h1.89v7.164h-1.89l-.219-.685h-.055c-.342.411-.89.808-1.904.808-1.808,0-2.904-1.562-2.904-3.712ZM117.275,18.665c0-1-.342-1.849-1.411-1.849s-1.411.849-1.411,1.849.37,1.863,1.411,1.863,1.411-.863,1.411-1.863Z"/>
          <path class="st0" d="M120.384,22.87h2.068c.055.48.534.836,1.192.836.932,0,1.397-.493,1.397-1.137v-1h-.055c-.342.411-.89.808-1.904.808-1.808,0-2.904-1.562-2.904-3.699,0-2.151,1.096-3.712,2.904-3.712,1.014,0,1.562.397,1.904.808h.055l.219-.685h1.89v7.507c0,1.794-1.507,2.918-3.507,2.918-1.931,0-3.219-1.027-3.26-2.644ZM125.137,18.678c0-1-.37-1.863-1.411-1.863s-1.411.863-1.411,1.863.343,1.849,1.411,1.849,1.411-.849,1.411-1.849Z"/>
          <path class="st0" d="M128.041,18.678c0-2.151,1.274-3.712,3.575-3.712s3.575,1.562,3.575,3.712c0,2.137-1.246,3.699-3.575,3.699s-3.575-1.548-3.575-3.699ZM133.041,18.678c0-1.301-.548-1.863-1.425-1.863s-1.425.575-1.425,1.863c0,1.301.562,1.849,1.425,1.849.877,0,1.425-.548,1.425-1.849Z"/>
        </g>
        <g>
          <circle class="st0" cx="88.087" cy="13.137" r="1.226"/>
          <circle class="st0" cx="99.414" cy="13.137" r="1.226"/>
          <circle class="st0" cx="104.825" cy="13.137" r="1.226"/>
        </g>
      </g>
      <g>
        <g>
          <path class="st0" d="M155.977,16.418v1.423h-.709v-4.174h1.59c.983,0,1.59.505,1.59,1.363,0,.864-.613,1.387-1.59,1.387h-.881ZM155.977,14.31v1.459h.792c.649,0,.971-.244.971-.732,0-.482-.321-.727-.971-.727h-.792Z"/>
          <path class="st0" d="M160.756,15.531c-.03-.006-.066-.006-.107-.006-.667,0-.899.357-.899,1.173v1.143h-.679v-2.918h.667v.315c.196-.238.495-.357.887-.357.042,0,.084,0,.131.006v.642Z"/>
          <path class="st0" d="M163.604,15.292c.292.293.44.655.44,1.091s-.148.798-.44,1.089c-.292.293-.643.435-1.066.435s-.78-.143-1.071-.435c-.292-.291-.435-.655-.435-1.089s.143-.798.435-1.091c.291-.291.649-.44,1.071-.44s.774.148,1.066.44ZM163.116,17.038c.155-.173.232-.387.232-.655s-.077-.482-.232-.655c-.149-.173-.345-.256-.578-.256-.476,0-.816.381-.816.911s.34.911.816.911c.233,0,.429-.083.578-.256Z"/>
          <path class="st0" d="M165.208,17.949c.185.34.459.507.81.507.47,0,.774-.287.774-.816v-.148c-.208.19-.465.285-.78.285-.411,0-.744-.137-1.006-.411-.256-.28-.388-.625-.388-1.048s.131-.774.393-1.048c.262-.28.595-.417,1.001-.417.321,0,.583.101.792.31v-.238h.667v2.679c0,.441-.131.792-.393,1.061-.262.267-.613.398-1.048.398-.328,0-.602-.071-.816-.208-.215-.137-.381-.28-.495-.44l.488-.465ZM166.054,17.156c.452,0,.75-.345.75-.839,0-.5-.298-.845-.75-.845s-.744.345-.744.845c0,.494.292.839.744.839Z"/>
          <path class="st0" d="M170.075,15.531c-.03-.006-.066-.006-.107-.006-.667,0-.899.357-.899,1.173v1.143h-.679v-2.918h.667v.315c.196-.238.495-.357.887-.357.042,0,.084,0,.131.006v.642Z"/>
          <path class="st0" d="M170.636,17.669c-.185-.161-.28-.381-.28-.649,0-.637.5-.976,1.215-.976.191,0,.387.036.59.101v-.197c0-.291-.244-.482-.572-.482-.304,0-.536.144-.691.424l-.458-.43c.22-.398.679-.607,1.155-.607.757,0,1.245.381,1.245,1.102v1.887h-.667v-.227c-.221.197-.5.293-.834.293-.28,0-.512-.077-.703-.238ZM171.476,17.312c.28,0,.512-.084.685-.251v-.333c-.208-.077-.411-.12-.607-.12-.315,0-.518.131-.518.364,0,.197.155.34.44.34Z"/>
          <path class="st0" d="M175.415,17.842v-1.744c0-.388-.196-.632-.536-.632-.387,0-.602.28-.602.715v1.662h-.679v-2.918h.667v.256c.184-.22.44-.327.756-.327.363,0,.632.124.816.381.226-.257.53-.381.911-.381.768,0,1.161.452,1.161,1.292v1.697h-.679v-1.744c0-.388-.197-.632-.536-.632-.388,0-.607.28-.607.715v1.662h-.673Z"/>
          <path class="st0" d="M178.776,17.669c-.185-.161-.28-.381-.28-.649,0-.637.5-.976,1.215-.976.191,0,.387.036.59.101v-.197c0-.291-.244-.482-.572-.482-.304,0-.536.144-.691.424l-.458-.43c.22-.398.679-.607,1.155-.607.757,0,1.245.381,1.245,1.102v1.887h-.667v-.227c-.221.197-.5.293-.834.293-.28,0-.512-.077-.703-.238ZM179.615,17.312c.28,0,.512-.084.685-.251v-.333c-.208-.077-.411-.12-.607-.12-.315,0-.518.131-.518.364,0,.197.155.34.44.34Z"/>
          <path class="st0" d="M185.222,15.138v-1.47h.679v4.174h-.667v-.263c-.208.221-.488.328-.827.328-.417,0-.757-.143-1.025-.428-.268-.293-.399-.655-.399-1.096s.131-.804.399-1.096c.268-.291.608-.434,1.025-.434.321,0,.595.094.816.285ZM183.674,16.383c0,.524.286.929.78.929.5,0,.78-.405.78-.929s-.28-.929-.78-.929c-.494,0-.78.405-.78.929Z"/>
          <path class="st0" d="M189.244,16.585h-1.995c.029.434.333.708.768.708.315,0,.566-.137.75-.411l.459.43c-.31.398-.714.595-1.209.595-.435,0-.792-.137-1.06-.417-.268-.28-.405-.644-.405-1.091,0-.434.126-.804.37-1.101.25-.298.583-.447.994-.447.947,0,1.334.757,1.334,1.495l-.006.238ZM187.285,16.043h1.245c-.006-.304-.197-.571-.607-.571-.358,0-.572.256-.637.571Z"/>
          <path class="st0" d="M159.792,24.389c-.522.655-1.215.982-2.079.982-.789,0-1.445-.246-1.959-.744-.514-.5-.767-1.148-.767-1.937,0-.805.253-1.453.76-1.953.514-.498,1.155-.752,1.937-.752.871,0,1.549.328,2.033.983l-.574.597c-.357-.514-.841-.768-1.445-.768-.515,0-.946.178-1.289.537-.343.357-.514.812-.514,1.356,0,.535.171.983.521,1.34.35.35.782.53,1.311.53.611,0,1.111-.261,1.505-.782l.559.611Z"/>
          <path class="st0" d="M160.535,20.157c.209-.208.552-.208.76,0,.208.201.208.544,0,.752s-.551.208-.76,0c-.208-.208-.208-.551,0-.752ZM160.483,25.29v-3.65h.849v3.65h-.849Z"/>
          <path class="st0" d="M163.239,25.29h-.849v-3.65h.834v.298c.231-.261.544-.388.946-.388.901,0,1.445.597,1.445,1.617v2.123h-.849v-2.123c0-.514-.268-.849-.722-.849-.515,0-.805.364-.805.954v2.018Z"/>
          <path class="st0" d="M169.704,23.718h-2.495c.037.544.417.886.961.886.395,0,.708-.171.939-.514l.574.537c-.388.498-.894.744-1.512.744-.544,0-.991-.171-1.326-.521-.335-.35-.506-.805-.506-1.363,0-.544.156-1.005.462-1.377.313-.373.73-.56,1.244-.56,1.184,0,1.669.946,1.669,1.87l-.008.298ZM167.253,23.04h1.557c-.007-.38-.246-.715-.76-.715-.447,0-.715.32-.797.715Z"/>
          <path class="st0" d="M173.742,26.734h-.894l.566-1.4-1.445-3.694h.968l.954,2.636.968-2.636h.924l-2.04,5.094Z"/>
          <path class="st0" d="M180.713,20.068l2.034,5.221h-.931l-.44-1.111h-2.227l-.432,1.111h-.939l2.041-5.221h.894ZM180.258,21.274l-.789,2.085h1.587l-.797-2.085Z"/>
          <path class="st0" d="M183.901,21.64v2.183c0,.484.246.789.685.789.477,0,.76-.373.76-.916v-2.055h.849v3.65h-.834v-.298c-.231.254-.552.38-.946.38-.827,0-1.363-.595-1.363-1.609v-2.123h.849Z"/>
          <path class="st0" d="M189.816,21.908v-1.84h.849v5.221h-.834v-.328c-.261.275-.611.41-1.036.41-.521,0-.946-.178-1.281-.535-.335-.365-.499-.819-.499-1.372s.163-1.005.499-1.37.76-.544,1.281-.544c.403,0,.745.12,1.021.358ZM187.879,23.464c0,.657.358,1.163.976,1.163.626,0,.976-.507.976-1.163s-.35-1.162-.976-1.162c-.619,0-.976.507-.976,1.162Z"/>
          <path class="st0" d="M191.788,20.157c.209-.208.552-.208.76,0,.208.201.208.544,0,.752s-.551.208-.76,0c-.208-.208-.208-.551,0-.752ZM191.736,25.29v-3.65h.849v3.65h-.849Z"/>
          <path class="st0" d="M196.631,22.101c.365.365.551.819.551,1.363s-.186.999-.551,1.363c-.365.365-.805.544-1.334.544s-.976-.178-1.34-.544c-.365-.364-.544-.819-.544-1.363s.178-.998.544-1.363c.365-.364.811-.551,1.34-.551s.968.187,1.334.551ZM196.02,24.283c.193-.216.29-.484.29-.819s-.097-.602-.29-.819c-.186-.216-.433-.32-.723-.32-.596,0-1.021.477-1.021,1.139s.425,1.141,1.021,1.141c.29,0,.537-.104.723-.321Z"/>
          <path class="st0" d="M200.869,21.64l-1.296,3.65h-.924l-1.296-3.65h.916l.841,2.555.842-2.555h.916Z"/>
          <path class="st0" d="M201.397,20.157c.208-.208.552-.208.76,0,.208.201.208.544,0,.752s-.552.208-.76,0-.208-.551,0-.752ZM201.345,25.29v-3.65h.849v3.65h-.849Z"/>
          <path class="st0" d="M204.198,23.792c-.737-.171-1.11-.551-1.11-1.155,0-.662.551-1.088,1.333-1.088.529,0,.983.201,1.378.611l-.544.581c-.223-.305-.507-.461-.856-.461-.305,0-.5.156-.5.343,0,.171.119.283.358.343l.574.134c.745.171,1.118.551,1.118,1.139,0,.664-.522,1.132-1.445,1.132-.633,0-1.14-.238-1.512-.707l.536-.552c.268.351.619.53,1.043.53.395,0,.559-.164.559-.373,0-.157-.112-.268-.447-.357l-.484-.12Z"/>
          <path class="st0" d="M207.446,21.64v2.183c0,.484.246.789.685.789.477,0,.76-.373.76-.916v-2.055h.849v3.65h-.834v-.298c-.231.254-.552.38-.946.38-.827,0-1.363-.595-1.363-1.609v-2.123h.849Z"/>
          <path class="st0" d="M210.916,25.074c-.231-.201-.35-.477-.35-.812,0-.798.626-1.222,1.519-1.222.238,0,.485.044.738.127v-.247c0-.364-.305-.602-.715-.602-.38,0-.671.178-.864.528l-.574-.535c.275-.5.849-.761,1.445-.761.946,0,1.557.477,1.557,1.379v2.361h-.834v-.283c-.276.246-.626.364-1.043.364-.35,0-.64-.096-.879-.297ZM211.966,24.627c.35,0,.641-.106.857-.314v-.417c-.261-.097-.514-.148-.76-.148-.395,0-.648.164-.648.454,0,.246.193.425.551.425Z"/>
          <path class="st0" d="M214.618,25.29v-5.221h.849v5.221h-.849Z"/>
          <path class="st0" d="M219.654,23.718h-2.495c.037.544.417.886.961.886.395,0,.708-.171.939-.514l.574.537c-.388.498-.894.744-1.512.744-.544,0-.991-.171-1.326-.521-.335-.35-.506-.805-.506-1.363,0-.544.156-1.005.462-1.377.313-.373.73-.56,1.244-.56,1.184,0,1.669.946,1.669,1.87l-.008.298ZM217.203,23.04h1.557c-.007-.38-.246-.715-.76-.715-.447,0-.715.32-.797.715Z"/>
          <path class="st0" d="M221.479,23.792c-.737-.171-1.11-.551-1.11-1.155,0-.662.551-1.088,1.333-1.088.529,0,.983.201,1.378.611l-.544.581c-.223-.305-.507-.461-.856-.461-.305,0-.5.156-.5.343,0,.171.119.283.358.343l.574.134c.745.171,1.118.551,1.118,1.139,0,.664-.522,1.132-1.445,1.132-.633,0-1.14-.238-1.512-.707l.536-.552c.268.351.619.53,1.043.53.395,0,.559-.164.559-.373,0-.157-.112-.268-.447-.357l-.484-.12Z"/>
          <path class="st0" d="M158.622,27.517h.894v2.905c0,1.557-.819,2.398-2.108,2.398s-2.108-.841-2.108-2.398v-2.905h.894v2.912c0,1.058.403,1.587,1.215,1.587s1.214-.53,1.214-1.594v-2.905Z"/>
          <path class="st0" d="M161.317,32.738h-.849v-3.65h.834v.298c.231-.261.544-.388.946-.388.901,0,1.445.597,1.445,1.617v2.123h-.849v-2.123c0-.514-.268-.849-.722-.849-.515,0-.805.364-.805.954v2.018Z"/>
          <path class="st0" d="M164.729,27.605c.209-.208.552-.208.76,0,.208.201.208.544,0,.752s-.551.208-.76,0c-.208-.208-.208-.551,0-.752ZM164.677,32.738v-3.65h.849v3.65h-.849Z"/>
          <path class="st0" d="M168.893,32.738v-2.183c0-.484-.246-.789-.67-.789-.485,0-.752.35-.752.894v2.078h-.849v-3.65h.834v.32c.231-.275.551-.41.946-.41.455,0,.79.157,1.021.477.283-.32.663-.477,1.14-.477.961,0,1.452.567,1.452,1.617v2.123h-.849v-2.183c0-.484-.246-.789-.67-.789-.484,0-.76.35-.76.894v2.078h-.841Z"/>
          <path class="st0" d="M173.094,32.522c-.231-.201-.35-.477-.35-.812,0-.798.626-1.222,1.519-1.222.238,0,.485.044.738.127v-.247c0-.364-.305-.602-.715-.602-.38,0-.671.178-.864.528l-.574-.535c.275-.5.849-.761,1.445-.761.946,0,1.557.477,1.557,1.379v2.361h-.834v-.283c-.276.246-.626.364-1.043.364-.35,0-.64-.096-.879-.297ZM174.143,32.076c.35,0,.641-.106.857-.314v-.417c-.261-.097-.515-.148-.76-.148-.395,0-.648.164-.648.454,0,.246.193.425.551.425Z"/>
          <path class="st0" d="M177.302,32.872c.231.424.574.634,1.013.634.588,0,.968-.358.968-1.021v-.187c-.261.238-.582.358-.976.358-.514,0-.931-.171-1.259-.514-.32-.351-.484-.782-.484-1.312s.164-.968.492-1.312c.328-.35.744-.521,1.251-.521.403,0,.73.127.991.388v-.298h.834v3.352c0,.551-.163.991-.491,1.326-.328.335-.767.5-1.311.5-.41,0-.753-.09-1.021-.261-.268-.171-.477-.35-.619-.551l.611-.581ZM178.359,31.882c.567,0,.939-.433.939-1.051,0-.625-.372-1.058-.939-1.058s-.931.433-.931,1.058c0,.618.365,1.051.931,1.051Z"/>
          <path class="st0" d="M183.737,29.356v-1.84h.849v5.221h-.834v-.328c-.261.275-.611.41-1.036.41-.521,0-.946-.178-1.281-.535-.335-.365-.499-.819-.499-1.372s.163-1.005.499-1.37.76-.544,1.281-.544c.403,0,.745.12,1.021.358ZM181.8,30.912c0,.657.358,1.163.976,1.163.625,0,.976-.507.976-1.163s-.35-1.162-.976-1.162c-.619,0-.976.507-.976,1.162Z"/>
          <path class="st0" d="M185.756,32.522c-.231-.201-.35-.477-.35-.812,0-.798.626-1.222,1.519-1.222.238,0,.485.044.738.127v-.247c0-.364-.305-.602-.715-.602-.38,0-.671.178-.864.528l-.574-.535c.275-.5.849-.761,1.445-.761.946,0,1.557.477,1.557,1.379v2.361h-.834v-.283c-.276.246-.626.364-1.043.364-.35,0-.64-.096-.879-.297ZM186.806,32.076c.35,0,.641-.106.857-.314v-.417c-.261-.097-.515-.148-.76-.148-.395,0-.648.164-.648.454,0,.246.193.425.551.425Z"/>
          <path class="st0" d="M189.457,32.738v-5.221h.849v5.221h-.849Z"/>
          <path class="st0" d="M194.493,31.166h-2.495c.037.544.417.886.961.886.395,0,.708-.171.939-.514l.574.537c-.388.498-.894.744-1.512.744-.544,0-.991-.171-1.326-.521-.335-.35-.506-.805-.506-1.363,0-.544.156-1.005.462-1.377.313-.373.73-.56,1.244-.56,1.184,0,1.669.946,1.669,1.87l-.008.298ZM192.042,30.488h1.557c-.007-.38-.246-.715-.76-.715-.447,0-.715.32-.797.715Z"/>
          <path class="st0" d="M196.138,32.738h-.849v-3.65h.834v.298c.231-.261.544-.388.946-.388.901,0,1.445.597,1.445,1.617v2.123h-.849v-2.123c0-.514-.268-.849-.722-.849-.515,0-.805.364-.805.954v2.018Z"/>
          <path class="st0" d="M199.595,32.522c-.231-.201-.35-.477-.35-.812,0-.798.626-1.222,1.519-1.222.238,0,.485.044.738.127v-.247c0-.364-.305-.602-.715-.602-.38,0-.671.178-.864.528l-.574-.535c.275-.5.849-.761,1.445-.761.946,0,1.557.477,1.557,1.379v2.361h-.834v-.283c-.276.246-.626.364-1.043.364-.35,0-.64-.096-.879-.297ZM200.645,32.076c.35,0,.641-.106.857-.314v-.417c-.261-.097-.515-.148-.76-.148-.395,0-.648.164-.648.454,0,.246.193.425.551.425Z"/>
        </g>
        <rect class="st0" x="147.937" y="12.117" width=".958" height="22.183"/>
      </g>
    </g>
  </g>
</svg>