<?xml version="1.0" encoding="UTF-8"?>
<svg id="Layer_1" xmlns="http://www.w3.org/2000/svg" version="1.1" viewBox="0 0 336 35.8">
  <!-- Generator: Adobe Illustrator 30.2.1, SVG Export Plug-In . SVG Version: 2.1.1 Build 1)  -->
  <defs>
    <style>
      .st0 {
        fill: #231f20;
      }

      .st1 {
        fill: #fafafa;
      }
    </style>
  </defs>
  <rect class="st1" x="-26.9" y="-629" width="390" height="844"/>
  <g>
    <g>
      <path class="st0" d="M46.875,17.072c-.213-.039-.585.055-.767.005-.053-.015-.071-.257-.229-.376-.301-.227-1.047-.219-1.145.19-.021.09-.037.272.044.336.636.506,2.418.05,2.165,1.649-.211,1.333-3.113,1.276-3.024-.254.203.032.51-.046.69-.003.084.02.096.3.275.406.396.233,1.601.12,1.292-.477-.226-.437-2.028-.173-2.175-1.224-.262-1.877,2.685-1.933,2.873-.253Z"/>
      <path class="st0" d="M39.119,15.965v3.766c-.124-.02-.713.028-.739,0-.032-.033.054-.262-.036-.296-.576.701-1.591.378-1.864-.426-.335-.983.143-2.434,1.406-2.143.175.04.244.213.422.206v-1.108h.813ZM37.547,17.456c-.606.18-.641,1.945.351,1.757.741-.141.645-2.052-.351-1.757Z"/>
      <path class="st0" d="M42.074,18.55h-1.921c-.021.501.416.764.875.616.176-.057.267-.216.419-.246.093-.018.681-.071.626.108-.354,1.137-2.476,1.083-2.65-.376-.288-2.427,2.955-2.419,2.651-.103ZM41.335,18.033c.014-.814-1.162-.796-1.182,0h1.182Z"/>
      <path class="st0" d="M57.585,19.73c-.394-.053-.827.2-.923-.294-.661.738-1.831.365-1.658-.698.135-.832,1.15-.575,1.568-.795.359-.189.023-.509-.352-.505-.456.005-.344.349-.457.377-.177.043-.489-.037-.69-.004.048-.829.705-1.039,1.441-.96,1.598.173.557,1.913,1.071,2.879ZM56.699,18.402c-.382-.031-1.323.158-.893.709.311.4,1.139-.194.893-.709Z"/>
      <path class="st0" d="M49.83,19.73c-.394-.053-.827.2-.923-.294-.661.738-1.831.365-1.658-.698.135-.832,1.15-.575,1.568-.795.359-.189.023-.509-.352-.505-.456.005-.344.349-.457.377-.177.043-.489-.037-.69-.004.048-.829.705-1.039,1.441-.96,1.598.173.557,1.913,1.071,2.879ZM48.943,18.402c-.382-.031-1.323.158-.893.709.311.4,1.139-.194.893-.709Z"/>
      <path class="st0" d="M52.858,19.731h-.813v-2.031c0-.102-.339-.255-.472-.253-.162.002-.488.18-.488.327v1.957h-.813v-2.806c.124.02.713-.028.739,0,.032.033-.054.262.036.296.34-.519,1.374-.511,1.653.046.039.078.157.522.157.582v1.883Z"/>
      <path class="st0" d="M53.597,17.442c-.028-.028-.415.028-.444,0-.018-.018-.018-.499,0-.518.029-.029.415.029.444,0,.045-.044-.068-.724.042-.74h.696c.021.125-.029.712,0,.74.029.029.415-.029.444,0,.018.018.018.499,0,.518-.024.023-.352-.016-.444,0v1.661c0,.15.426.094.444.111.025.023-.017.483,0,.591-.273.014-1.182.072-1.182-.333,0-.277.072-1.959,0-2.031Z"/>
      <polygon class="st0" points="60.762 15.965 61.39 18.772 62.017 15.965 63.199 15.965 63.199 19.731 62.461 19.731 62.461 16.851 61.751 19.736 60.99 19.724 60.319 16.851 60.319 19.731 59.58 19.731 59.58 15.965 60.762 15.965"/>
      <path class="st0" d="M66.671,16.925c.125.021.711-.029.739,0,.036.036-.058.315.036.369.331-.604.804-.383,1.367-.369v-.739s.739,0,.739,0c.021.125-.029.711,0,.739.122.12.562-.324.445.474-.014.095-.444.019-.444.042v1.661c0,.15.426.094.444.111.025.023-.017.483,0,.591-.273.014-1.182.072-1.182-.333v-2.031c-.148.017-.328-.031-.466.002-.025.006-.29.116-.439.163-.288.092-.498.285-.498.61v1.514h-.739v-2.806Z"/>
      <path class="st0" d="M72.802,19.73c-.394-.053-.827.2-.923-.294-.661.738-1.831.365-1.658-.698.135-.832,1.15-.575,1.568-.795.359-.189.023-.509-.352-.505-.456.005-.344.349-.457.377-.177.043-.489-.037-.69-.004.048-.829.705-1.039,1.441-.96,1.598.173.557,1.913,1.071,2.879ZM71.915,18.402c-.382-.031-1.323.158-.893.709.311.4,1.139-.194.893-.709Z"/>
      <path class="st0" d="M66.228,19.73c-.394-.053-.827.2-.923-.294-.661.738-1.831.365-1.658-.698.135-.832,1.15-.575,1.568-.795.359-.189.023-.509-.352-.505-.456.005-.344.349-.457.377-.177.043-.489-.037-.69-.004.048-.829.705-1.039,1.441-.96,1.598.173.557,1.913,1.071,2.879ZM65.341,18.402c-.382-.031-1.323.158-.893.709.311.4,1.139-.194.893-.709Z"/>
      <path class="st0" d="M64.972,10.87v2.548c0,.082.138.376.216.449.366.344,1.188.144,1.188-.375v-2.621h.813v2.769c0,.112-.192.499-.277.609-.44.57-1.643.622-2.198.24-.214-.147-.553-.678-.553-.924v-2.695h.813Z"/>
      <path class="st0" d="M77.677,13.454h-1.921c-.021.501.416.764.875.616.176-.057.267-.216.419-.246.093-.018.681-.071.626.108-.354,1.137-2.476,1.083-2.65-.376-.288-2.427,2.955-2.419,2.651-.103ZM76.938,12.938c.014-.814-1.162-.796-1.182,0h1.182Z"/>
      <path class="st0" d="M88.609,14.635c-.394-.053-.827.2-.923-.294-.661.738-1.831.365-1.658-.698.135-.832,1.15-.575,1.568-.795.359-.189.023-.509-.352-.505-.456.005-.344.349-.457.377-.177.043-.489-.037-.69-.004.048-.829.705-1.039,1.441-.96,1.598.173.557,1.913,1.071,2.879ZM87.723,13.307c-.382-.031-1.323.158-.893.709.311.4,1.139-.194.893-.709Z"/>
      <path class="st0" d="M94.961,14.635c-.394-.053-.827.2-.923-.294-.661.738-1.831.365-1.658-.698.135-.832,1.15-.575,1.568-.795.359-.189.023-.509-.352-.505-.456.005-.344.349-.457.377-.177.043-.489-.037-.69-.004.048-.829.705-1.039,1.441-.96,1.598.173.557,1.913,1.071,2.879ZM94.075,13.307c-.382-.031-1.323.158-.893.709.311.4,1.139-.194.893-.709Z"/>
      <path class="st0" d="M70.364,14.636h-.813v-2.031c0-.102-.339-.255-.472-.253-.162.002-.488.18-.488.327v1.957h-.813v-2.806c.124.02.713-.028.739,0,.032.033-.054.262.036.296.34-.519,1.374-.511,1.653.046.039.078.157.522.157.582v1.883Z"/>
      <path class="st0" d="M62.091,14.636h-.813v-2.031c0-.102-.339-.255-.472-.253-.162.002-.488.18-.488.327v1.957h-.813v-2.806c.124.02.713-.028.739,0,.032.033-.054.262.036.296.34-.519,1.374-.511,1.653.046.039.078.157.522.157.582v1.883Z"/>
      <path class="st0" d="M40.523,14.636h-.813v-2.031c0-.102-.339-.255-.472-.253-.162.002-.488.18-.488.327v1.957h-.813v-2.806c.124.02.713-.028.739,0,.032.033-.054.262.036.296.34-.519,1.374-.511,1.653.046.039.078.157.522.157.582v1.883Z"/>
      <path class="st0" d="M57.196,11.773c1.26-.232,1.926.584,1.793,1.792-.1.907-.893,1.253-1.73,1.138-1.413-.195-1.418-2.68-.063-2.93ZM57.417,12.363c-.731.167-.696,1.951.351,1.756.699-.131.729-2.002-.351-1.756Z"/>
      <path class="st0" d="M82.405,12.716c-.192-.036-.534.051-.694.005-.073-.021-.042-.183-.117-.263-.17-.179-.767-.127-.814.074-.105.45,1.603.205,1.701,1.105.161,1.481-2.518,1.451-2.514.038.202.032.511-.047.69-.004.087.021.077.237.2.332.458.352,1.161-.118.84-.337-.41-.28-1.525-.053-1.642-.861-.197-1.355,2.419-1.47,2.35-.091Z"/>
      <path class="st0" d="M43.404,12.716c-.192-.036-.534.051-.694.005-.073-.021-.042-.183-.117-.263-.17-.179-.767-.127-.814.074-.105.45,1.603.205,1.701,1.105.161,1.481-2.518,1.451-2.514.038.202.032.511-.047.69-.004.087.021.077.237.2.332.458.352,1.161-.118.84-.337-.41-.28-1.525-.053-1.642-.861-.197-1.355,2.419-1.47,2.35-.091Z"/>
      <path class="st0" d="M49.608,11.83v1.809c0,.716,1.034.536,1.034,0v-1.809h.739v2.806c-.304-.057-.773.178-.775-.221-.351.371-1.178.434-1.517.039-.062-.073-.219-.452-.219-.519v-2.105h.739Z"/>
      <path class="st0" d="M54.483,12.79c-.149-.029-.744.046-.805-.007-.077-.067.067-.472-.484-.432-.864.063-.537,2.355.328,1.657.203-.164.125-.373.152-.402.037-.038.673.02.809-.003-.548,2.049-3.152,1.16-2.49-.976.387-1.249,2.386-1.199,2.49.163Z"/>
      <path class="st0" d="M72.939,11.84c.098.062.459,1.737.564,1.984.14-.242.478-1.915.561-1.987.061-.053.656.022.805-.007-.161.331-.864,2.774-1.009,2.809-.133.032-.722.021-.802-.076-.202-.872-.717-1.779-.914-2.631-.033-.14.002-.09.102-.102.108-.013.646-.019.693.011Z"/>
      <path class="st0" d="M84.62,12.347c-.028-.028-.415.028-.444,0-.018-.018-.018-.499,0-.518.029-.029.415.029.444,0,.045-.044-.068-.724.042-.74h.696c.021.125-.029.712,0,.74.029.029.415-.029.444,0,.018.018.018.499,0,.518-.024.023-.352-.016-.444,0v1.661c0,.15.426.094.444.111.025.023-.017.483,0,.591-.273.014-1.182.072-1.182-.333,0-.277.072-1.959,0-2.031Z"/>
      <path class="st0" d="M47.318,12.347c-.028-.028-.415.028-.444,0-.018-.018-.018-.499,0-.518.029-.029.415.029.444,0,.045-.044-.068-.724.042-.74h.696c.021.125-.029.712,0,.74.029.029.415-.029.444,0,.018.018.018.499,0,.518-.024.023-.352-.016-.444,0v1.661c0,.15.426.094.444.111.025.023-.017.483,0,.591-.273.014-1.182.072-1.182-.333,0-.277.072-1.959,0-2.031Z"/>
      <path class="st0" d="M44.142,12.347c-.028-.028-.415.028-.444,0-.018-.018-.018-.499,0-.518.029-.029.415.029.444,0,.045-.044-.068-.724.042-.74h.696c.021.125-.029.712,0,.74.029.029.415-.029.444,0,.018.018.018.499,0,.518-.024.023-.352-.016-.444,0v1.661c0,.15.426.094.444.111.025.023-.017.483,0,.591-.273.014-1.182.072-1.182-.333,0-.277.072-1.959,0-2.031Z"/>
      <rect class="st0" x="36.608" y="10.87" width=".739" height="3.766"/>
      <path class="st0" d="M89.052,11.83c.125.021.711-.029.739,0,.036.036-.058.315.036.369.185-.319.478-.48.85-.443-.019.124.027.714,0,.739-.027.026-.542-.034-.721.165-.024.026-.166.438-.166.462v1.514h-.739v-2.806Z"/>
      <path class="st0" d="M78.12,11.83c.125.021.711-.029.739,0,.036.036-.058.315.036.369.185-.319.478-.48.85-.443-.019.124.027.714,0,.739-.027.026-.542-.034-.721.165-.024.026-.166.438-.166.462v1.514h-.739v-2.806Z"/>
      <rect class="st0" x="91.047" y="11.83" width=".813" height="2.806"/>
      <rect class="st0" x="82.995" y="11.83" width=".813" height="2.806"/>
      <rect class="st0" x="70.955" y="11.83" width=".813" height="2.806"/>
      <rect class="st0" x="54.852" y="11.83" width=".813" height="2.806"/>
      <rect class="st0" x="45.693" y="11.83" width=".813" height="2.806"/>
      <rect class="st0" x="45.692" y="10.869" width=".815" height=".667"/>
      <rect class="st0" x="54.851" y="10.869" width=".815" height=".667"/>
      <rect class="st0" x="70.954" y="10.869" width=".815" height=".667"/>
      <rect class="st0" x="82.994" y="10.869" width=".815" height=".667"/>
      <rect class="st0" x="91.045" y="10.869" width=".815" height=".667"/>
      <path class="st0" d="M58.398,10.723c-.336.365-.611.868-1.181.737.236-.619.487-.853,1.181-.737Z"/>
      <rect class="st0" x="53.301" y="22.02" width=".37" height=".444"/>
      <path class="st0" d="M62.904,25.269c-1.321.952-2.337-.418-1.84-1.728.287-.757,1.261-.832,1.839-.339-.055-.318.109-.216.37-.222v3.471h-.369v-1.181ZM61.926,23.144c-.849.136-.916,1.937-.058,2.165,1.412.375,1.487-2.394.058-2.165Z"/>
      <path class="st0" d="M68.739,24.309h-1.921c.001.646.534,1.273,1.202.943.376-.186.213-.63.718-.499-.182,1.046-1.752,1.12-2.119.162-.821-2.138,2.216-2.965,2.12-.605ZM68.444,24.088c.011-1.309-1.52-1.263-1.625,0h1.625Z"/>
      <path class="st0" d="M64.307,22.98v1.957c0,.388.767.527,1.085.236.03-.027.244-.361.244-.383v-1.809h.369v2.511c-.261-.006-.425.096-.37-.222-.361.353-1.205.462-1.511-.002-.044-.066-.187-.429-.187-.478v-1.809h.369Z"/>
      <path class="st0" d="M81.296,25.491c-.011.01-.295.015-.295,0v-1.957c0-.48-.778-.552-1.069-.109-.044.067-.187.428-.187.478v1.588c0,.015-.295.015-.295,0v-2.031c0-.375-.783-.472-1.069-.035-.044.067-.187.428-.187.478v1.588c0,.015-.295.015-.295,0v-2.511c0-.03.417-.07.332.295.253-.34.616-.448,1.033-.367.205.04.391.365.445.365.029,0,.285-.281.478-.332.289-.077.612-.078.853.111.061.048.257.287.257.334,0,.286.076,2.031,0,2.105Z"/>
      <path class="st0" d="M70.66,22.98h.295s.037.369.037.369c.561-.806,1.807-.534,1.951.487.196,1.383-.787,2.319-1.988,1.36v1.255c0,.015-.295.015-.295,0v-3.471ZM71.599,23.143c-.939.213-.849,2.339.346,2.198,1.023-.12,1.014-2.506-.346-2.198Z"/>
      <path class="st0" d="M83.955,25.27c.073.069.396-.181.296.295-.324.031-.597.014-.592-.369-.559.587-1.883.535-1.777-.482.087-.834,1.659-.655,1.708-.817.259-.859-.893-.99-1.178-.502-.133.226.029.392-.377.323-.154-.857,1.3-1.054,1.731-.586.385.417.087,2.042.188,2.138ZM83.66,24.162c-.421.193-1.415.021-1.476.635-.065.66.765.671,1.176.357.333-.254.314-.602.3-.992Z"/>
      <path class="st0" d="M94.814,24.309h-1.921c.001.646.534,1.273,1.202.943.376-.186.213-.63.718-.499-.182,1.046-1.752,1.12-2.119.162-.821-2.138,2.216-2.965,2.12-.605ZM94.518,24.088c.011-1.309-1.52-1.263-1.625,0h1.625Z"/>
      <path class="st0" d="M75.683,24.309h-1.921c.001.646.534,1.273,1.202.943.376-.186.213-.63.718-.499-.182,1.046-1.752,1.12-2.119.162-.821-2.138,2.216-2.965,2.12-.605ZM75.387,24.088c.011-1.309-1.52-1.263-1.625,0h1.625Z"/>
      <path class="st0" d="M89.422,24.309h-1.921c.001.646.534,1.273,1.202.943.376-.186.213-.63.718-.499-.182,1.046-1.752,1.12-2.119.162-.821-2.138,2.216-2.965,2.12-.605ZM89.126,24.088c.011-1.309-1.52-1.263-1.625,0h1.625Z"/>
      <path class="st0" d="M86.689,25.491h-.369v-2.031c0-.195-.537-.367-.759-.318-.201.045-.57.424-.57.613v1.735h-.369v-2.511c.259-.004.39-.079.406.221.336-.372,1.043-.417,1.406-.075.051.048.257.38.257.408v1.957Z"/>
      <path class="st0" d="M92.08,23.792c-.497.08-.301-.093-.482-.366-.137-.206-.413-.312-.654-.295-1.063.077-1.015,2.374.193,2.198.659-.096.384-.78.943-.724-.078,1.31-1.976,1.321-2.198.019-.29-1.704,1.7-2.533,2.198-.832Z"/>
      <path class="st0" d="M76.273,22.98c.139-.134.38.057.332.295.212-.247.425-.423.776-.368.1.439-.249.242-.522.475-.084.072-.291.442-.291.522v1.588c0,.015-.295.015-.295,0,0-.333-.09-2.424,0-2.511Z"/>
      <path class="st0" d="M39.045,22.02c.01.011.015.295,0,.295h-1.994v1.255h1.773c.015,0,.015.295,0,.295h-1.773v1.329h1.994c.015,0,.015.295,0,.295h-2.364v-3.471c.3.064,2.282-.085,2.364,0Z"/>
      <path class="st0" d="M41.852,22.02v3.471c-.29-.002-.371.091-.407-.222-2.602,1.554-2.543-3.634.038-2.067v-1.181h.369ZM40.505,23.144c-.849.136-.916,1.937-.058,2.165,1.412.375,1.487-2.394.058-2.165Z"/>
      <path class="st0" d="M49.829,25.27c.073.069.396-.181.296.295-.324.031-.597.014-.592-.369-.559.587-1.883.535-1.777-.482.087-.834,1.659-.655,1.708-.817.259-.859-.893-.99-1.178-.502-.133.226.029.392-.377.323-.154-.857,1.3-1.054,1.731-.586.385.417.087,2.042.188,2.138ZM49.534,24.162c-.421.193-1.415.021-1.476.635-.065.66.765.671,1.176.357.333-.254.314-.602.3-.992Z"/>
      <path class="st0" d="M58.989,25.491h-.369v-2.031c0-.195-.537-.367-.759-.318-.201.045-.57.424-.57.613v1.735h-.369v-2.511c.259-.004.39-.079.406.221.336-.372,1.043-.417,1.406-.075.051.048.257.38.257.408v1.957Z"/>
      <path class="st0" d="M42.886,22.98v1.957c0,.388.767.527,1.085.236.03-.027.244-.361.244-.383v-1.809h.369v2.511c-.261-.006-.425.096-.37-.222-.361.353-1.205.462-1.511-.002-.044-.066-.187-.429-.187-.478v-1.809h.369Z"/>
      <path class="st0" d="M54.509,23.154c.275-.259.677-.3,1.041-.243,1.27.2,1.16,3.056-.629,2.621-.909-.221-1.034-1.792-.412-2.379ZM55.79,25.172c.435-.402.444-1.763-.219-1.987-1.446-.488-1.55,2.336-.171,2.154.097-.013.319-.102.39-.167Z"/>
      <path class="st0" d="M47.318,23.792c-.497.08-.301-.093-.482-.366-.137-.206-.413-.312-.654-.295-1.063.077-1.015,2.374.193,2.198.659-.096.384-.78.943-.724-.078,1.31-1.976,1.321-2.198.019-.29-1.704,1.7-2.533,2.198-.832Z"/>
      <path class="st0" d="M52.636,23.792c-.497.08-.301-.093-.482-.366-.137-.206-.413-.312-.654-.295-1.063.077-1.015,2.374.193,2.198.659-.096.384-.78.943-.724-.078,1.31-1.976,1.321-2.198.019-.29-1.704,1.7-2.533,2.198-.832Z"/>
      <rect class="st0" x="53.301" y="22.98" width=".295" height="2.511"/>
      <path class="st0" d="M55.886,22.094c.084.071-.59.827-.812.663.235-.285.385-.782.812-.663Z"/>
      <path class="st0" d="M23.961,2.326c5.502-.326,9.829,3.17,10.212,8.726-.196,4.57.25,9.342,0,13.889-.352,6.4-6.36,10.102-12.395,8.397-3.622-1.023-6.281-4.338-6.521-8.102-.299-4.687.233-9.686,0-14.405.352-4.727,3.989-8.225,8.704-8.504ZM23.74,2.695c-4.323.318-7.734,3.665-8.113,7.987.259,4.797-.335,9.94.004,14.697.754,10.577,17.478,10.685,18.173-.217.312-4.891-.164-10.204-.097-15.121-.912-4.984-4.989-7.711-9.967-7.346Z"/>
      <path class="st0" d="M32.914,20.322v5.501c0,.236-.246,1.164-.332,1.441-.211.68-.601,1.46-1.072,1.993v-7.68c-.508.022-1.189-.172-1.325.484l-.02,8.62c-.067.227-1.166.876-1.462.938v-9.636c0-.465-1.016-.437-1.33-.406v10.559l-1.403.222v-12.036h2.622c.222,0,.716.37.875.354.119-.012.58-.354.75-.354h2.696Z"/>
      <path class="st0" d="M25.306,26.082l-1.39-1.011c-.093-.951.075-2.006-.01-2.943-.082-.893-1.17-.814-1.261.002-.053.48-.065,2.275.034,2.702.149.643,1.496,1.264,1.992,1.775.321.331.597.814.639,1.282.067.75.083,2.94-.211,3.561-.597,1.26-2.895,1.222-3.574.076-.099-.167-.28-.733-.28-.901v-4.024l1.176.782.213.23c.106.939-.088,2.02.013,2.94.091.823,1.169.851,1.259.074.053-.459.072-2.469-.017-2.866-.161-.723-2.105-1.387-2.511-2.511-.262-.726-.237-3.537.205-4.183.707-1.034,2.802-1.076,3.445.017.046.078.28.643.28.68v4.32Z"/>
      <path class="st0" d="M32.898,18.196c.181.327-.14.3-.389.279-1.138-.094-2.321-.523-3.469-.519-1.162.005-2.365.456-3.546.523-2.104.119-3.917-.609-5.989-.449-.428.033-2.82.62-2.989.445l.05-.224,4.498-3.1c.318-.026,1.612,1.231,1.994,1.257.376.026,1.327-1.015,1.7-1.035.107-.006.142.036.221.069.366.157,1.203,1.014,1.54.967.295-.041,1.319-.973,1.672-1.142l.387-.026,4.321,2.954Z"/>
      <path class="st0" d="M28.186,13.602l-3.513-2.291-3.355,2.217c-1.013-2.216.236-4.874,2.654-5.358,3.173-.635,5.535,2.524,4.213,5.432Z"/>
      <path class="st0" d="M20.579,20.322v10.596c0,.065-.186.56-.321.546-.095-.009-1.083-.7-1.083-.768v-10.375h1.403Z"/>
      <path class="st0" d="M16.442,19.583c.018-.109-.026-.566,0-.591.043-.043,1.025-.055,1.211-.082.575-.085,1.138-.279,1.717-.351,2.074-.26,3.973.559,6.121.433,1.292-.076,2.535-.548,3.841-.515.842.021,1.755.308,2.595.433.15.022.952.049.988.083.025.024-.018.482,0,.591h-16.472Z"/>
      <path class="st0" d="M17.92,20.322v9.009c-.621-.638-1.035-1.622-1.25-2.479-.062-.247-.227-.892-.227-1.102v-5.427h1.477Z"/>
      <polygon class="st0" points="16.442 13.934 20.019 13.228 20.356 14.161 16.442 16.925 16.442 13.934"/>
      <path class="st0" d="M32.988,16.925l-3.846-2.552c.173-.234.31-1.02.559-1.069.321.041,3.287.463,3.287.63v2.991Z"/>
      <path class="st0" d="M20.726,9.1c-.126.214-.436,1.012-.627,1.034l-3.27-.867c-.1-.012-.093-.046-.098-.131-.015-.262.268-.908.387-1.172.093-.205.569-1.159.764-1.159.22,0,2.386,2.124,2.844,2.296Z"/>
      <path class="st0" d="M27.31,7.683c-.115-.194,1.298-2.801,1.403-3.228.185-.117,1.009.457,1.197.594.16.116.983.802,1.004.921.038.214-2.338,2.004-2.632,2.309-.056.015-.944-.545-.973-.595Z"/>
      <path class="st0" d="M20.726,4.372l1.479,3.29c-.004.166-.668.484-.786.693l-2.906-2.395c.624-.657,1.348-1.273,2.214-1.588Z"/>
      <path class="st0" d="M24.272,3.633v3.397l-1.173.213-1.417-3.272c.827-.284,1.718-.36,2.589-.337Z"/>
      <path class="st0" d="M31.729,6.886c.341.772.881,1.486.961,2.357l-3.31.804c-.024-.257-.536-.844-.42-1.024.82-.563,1.497-1.332,2.295-1.917.14-.103.285-.252.475-.22Z"/>
      <path class="st0" d="M25.232,7.03v-3.397c.292-.099,2.571.205,2.584.406l-1.438,3.066c-.212.194-.835-.162-1.146-.075Z"/>
      <path class="st0" d="M16.442,10.464c.007-.039.079-.113.082-.178l3.356.874c.143.202-.127.834-.041,1.113l-3.398.517c.083-.703-.112-1.655,0-2.326Z"/>
      <path class="st0" d="M32.914,10.279l.074,2.511-3.247-.521c.034-.253-.093-1.081.069-1.216l3.104-.775Z"/>
      <path class="st0" d="M25.712,13.475c0,.533-.432.965-.965.965s-.965-.432-.965-.965.432-.965.965-.965.965.432.965.965ZM25.454,13.454c.004-.341-.371-.785-.738-.738l.738.738Z"/>
    </g>
    <g>
      <rect class="st0" x="211.622" y="8.862" width=".096" height="18.062"/>
      <polygon class="st0" points="177.163 22.823 177.163 20.09 178.698 20.09 178.698 25.362 177.211 25.362 175.243 22.628 175.243 25.362 173.707 25.362 173.707 20.09 175.195 20.09 177.163 22.823"/>
      <path class="st0" d="M203.463,20.09v1.172h-2.688v.781h2.496v1.074h-2.496v.976h2.64c.288.31.089.864.144,1.269h-4.511v-5.272h4.415Z"/>
      <path class="st0" d="M159.885,20.09c-.05.377.137.888-.144,1.172h-2.64v.781h2.496v1.074h-2.496v.976h2.784v1.269h-4.415v-5.272h4.415Z"/>
      <polygon class="st0" points="197.8 20.09 197.8 21.457 196.168 21.457 196.168 25.362 194.536 25.362 194.536 21.457 192.904 21.457 192.904 20.09 197.8 20.09"/>
      <path class="st0" d="M162.957,20.09v3.905h2.448c.294.338.084.933.144,1.367h-4.223v-5.272h1.632Z"/>
      <path class="st0" d="M128.808,25.241l-.048-11.963.12-.171,6.337-.096,2.446-5.614-.003,17.763-.47.206c-2.557-.17-5.354.208-7.88-.002-.175-.015-.352-.015-.501-.125ZM131.665,14.134h-2.4v7.664c0,.302.486,1.269.688,1.545,1.431,1.959,5.417,1.833,6.623-.358.118-.215.464-.997.464-1.188v-7.664h-2.4v7.176c0,.043-.138.514-.172.606-.455,1.262-2.14,1.295-2.617.082-.031-.08-.187-.653-.187-.689v-7.176Z"/>
      <path class="st0" d="M138,7.446c.018-.074.168-.205.24-.049l2.224,5.572,6.221.092c.324.063.448.435.439.726-.239,3.498.302,7.397,0,10.847-.032.36-.111.712-.528.732-2.58-.178-5.429.221-7.976,0-.207-.018-.62-.06-.62-.346V7.446ZM142.032,14.134h-3.36v10.447h2.016v-7.615l2.544,7.615h3.312v-10.447h-2.112v7.615l-2.4-7.615Z"/>
      <path class="st0" d="M145.479,28.38l-7.621-1.658-7.428,1.713-.294-.053-.013-.141c.169-.603.296-2.512.94-2.664l13.757.024c.134.352.867,2.654.66,2.778Z"/>
      <path class="st0" d="M185.671,22.73c0,1.562-1.245,2.828-2.78,2.828s-2.78-1.266-2.78-2.828,1.245-2.828,2.78-2.828,2.78,1.266,2.78,2.828ZM182.608,21.284c-1.181.243-1.227,3.318.63,2.886,1.046-.243,1.137-3.25-.63-2.886Z"/>
      <polygon class="st0" points="158.925 15.794 158.925 13.06 160.461 13.06 160.461 18.332 158.973 18.332 157.006 15.598 157.006 18.332 155.47 18.332 155.47 13.06 156.958 13.06 158.925 15.794"/>
      <path class="st0" d="M178.267,13.06c1.139.192,1.539,1.619.801,2.474-.246.285-.541.285-.752.551.851.275,1.082,1.522,1.536,2.247h-1.92c-.358-.68-.698-2.078-1.536-2.148v2.148h-1.728v-5.272c1.087.13,2.563-.175,3.599,0ZM176.394,15.208c1.797.172,1.904-1.352,0-1.075v1.075Z"/>
      <path class="st0" d="M151.15,13.06v3.466c0,.023.195.389.218.412.391.395,1.509.217,1.509-.315v-3.564h1.632v3.759c0,.325-.632,1.13-.926,1.304-.815.483-2.605.421-3.345-.181-.286-.232-.72-.968-.72-1.318v-3.564h1.632Z"/>
      <path class="st0" d="M173.899,13.06v1.172h-2.688v.781h2.496v1.074h-2.496v.976h2.64c.288.31.089.864.144,1.269h-4.415v-5.272h4.319Z"/>
      <path class="st0" d="M184.449,14.515l-1.468.113c-.119-.494-.687-.917-1.155-.584-.847.603,1.558.971,1.864,1.115.797.374,1.086.946.937,1.831-.345,2.043-4.818,1.984-4.677-.413l1.475-.107c.001.959,1.654,1.215,1.658.348.002-.583-1.551-.727-2.005-.954-1.643-.818-1.078-2.686.657-2.892,1.152-.137,2.725.062,2.717,1.542Z"/>
      <path class="st0" d="M165.26,13.06l1.057,3.612c.136-.011.151-.143.195-.24.458-1.015.55-2.386,1.1-3.372h1.584l-2.06,5.279-1.673-.019-1.931-5.261h1.728Z"/>
      <rect class="st0" x="185.322" y="13.06" width="1.728" height="5.272"/>
      <rect class="st0" x="161.421" y="13.06" width="1.632" height="5.272"/>
      <path class="st0" d="M198.76,18.332v-5.272h3.12c.11,0,.825.395.945.503,1.087.977,1.028,3.689-.287,4.462-.102.06-.783.307-.85.307h-2.928ZM200.391,17.063c1.124.128,1.543-.147,1.542-1.318-.002-1.154-.398-1.542-1.542-1.513v2.831Z"/>
      <path class="st0" d="M187.795,18.332v-5.272h3.12c.11,0,.825.395.945.503,1.087.977,1.028,3.689-.287,4.462-.102.06-.783.307-.85.307h-2.928ZM189.427,17.063c1.124.128,1.543-.147,1.542-1.318-.002-1.154-.398-1.542-1.542-1.513v2.831Z"/>
      <path class="st0" d="M192.712,18.332l1.87-5.176,1.733-.103,2.06,5.279h-1.728l-.251-.885-1.704.019-.349.865h-1.632ZM196.072,16.281l-.527-1.658c-.181.172-.591,1.599-.528,1.659h1.055Z"/>
      <path class="st0" d="M190.553,20.09c1.236.18,1.71,1.744.807,2.578-.211.195-.518.209-.662.447.825.373,1.099,1.496,1.536,2.247h-1.92c-.41-.69-.712-2.174-1.632-2.148v2.148h-1.632v-5.272c1.084.113,2.457-.153,3.504,0ZM188.681,22.238c1.925.216,2.026-1.357,0-1.075v1.075Z"/>
      <path class="st0" d="M149.519,25.362v-5.272h3.12c.037,0,.589.239.675.29,1.724,1.005,1.289,4.983-.867,4.983h-2.928ZM151.15,24.093c.878.029,1.439.127,1.541-.923.123-1.273-.136-2.003-1.541-1.811v2.734Z"/>
      <path class="st0" d="M281.836,11.693c.86.123,1.746,1.036,1.863,1.912.134,1.005.134,4.348,0,5.353-.112.836-.724,1.145-1.106,1.764l1.097,3.617c-.04.24-1.18.152-1.427.098l-1.061-3.412c-.081-.256-.663-.175-.663-.009v3.32c-.361.304-.985.082-1.44.146v-12.644l.144-.146c.808.082,1.812-.112,2.592,0ZM280.54,19.406c.765.234,1.648.127,1.732-.825.137-1.553-.076-3.364-.048-4.94-.178-.595-1.242-.775-1.685-.434v6.2Z"/>
      <path class="st0" d="M274.109,11.693v10.789c0,.923,1.486,1.286,1.706.173l.112-10.919,1.193-.029.158.23-.023,11.01c-.766,2.583-4.287,2.279-4.573-.477-.334-3.223.229-6.966-.016-10.244l.101-.532h1.344Z"/>
      <path class="st0" d="M259.519,11.693h1.344v11.374c0,.053-.452.828-.534.922-1.191,1.36-3.674.718-3.969-1.125l.005-11.011.076-.117c.265-.038,1.246-.165,1.337.117l.011,10.728c.111,1.013,1.518,1.031,1.636,0,.194-3.362-.264-7.031-.007-10.356.015-.188.056-.353.101-.532Z"/>
      <path class="st0" d="M254.816,22.97c-.374,2.299-4.28,2.386-4.515-.289-.266-3.026.153-6.54.07-9.603,1.097-2.817,5.003-1.675,4.446,1.398-.071.391-1.195.312-1.353.107-.262-.338.144-1.102-.325-1.525-.449-.406-1.176-.196-1.368.368l.047,9.471c.281.49.899.613,1.323.223.47-.432.068-1.436.327-1.62l1.35-.043c-.053.466.072,1.07,0,1.513Z"/>
      <path class="st0" d="M240.034,13.06h-2.256c-.072,0-.217.237-.237.344-.05.264-.032,2.314.047,2.486.021.046.174.197.191.197h1.632c.286.344.138.958.048,1.367h-1.824v5.663h2.256c.294.338.084.933.144,1.367h-3.791l-.144-.146v-12.497l.144-.146h3.647c.294.338.084.933.144,1.367Z"/>
      <path class="st0" d="M271.229,11.693v1.367c-.227.009-1.344-.098-1.344.244v11.179c-.293-.06-1.326.151-1.426-.16l-.013-11.019-.158-.23-1.187-.013c.06-.434-.149-1.029.144-1.367h3.983Z"/>
      <path class="st0" d="M233.219,24.483c-.293-.06-1.326.151-1.426-.16l-.013-11.019-.158-.23-1.187-.013.042-1.276,3.996-.049.09,1.325c-.227.008-1.344-.099-1.344.244v11.179Z"/>
      <path class="st0" d="M266.622,24.483h-3.791l-.144-.146v-12.497c.145-.222,1.224-.193,1.35-.104l.09.201.144,11.179h2.208c.294.338.084.933.144,1.367Z"/>
      <path class="st0" d="M227.412,11.693c.864.137,1.756,1.133,1.861,2.012.127,1.064.138,4.104.002,5.155-.111.86-.684,1.197-1.123,1.842l1.035,3.78-1.348-.045-1.098-3.471c-.111-.188-.625-.099-.625.05v3.32c-.361.304-.985.082-1.44.146v-12.644l.144-.146c.796.089,1.83-.121,2.592,0ZM226.116,19.406c.861.237,1.637.094,1.733-.923.141-1.494-.063-3.302-.069-4.822-.188-.612-1.192-.801-1.664-.455v6.2Z"/>
      <path class="st0" d="M223.236,24.483h-1.344l-.476-2.2-2.024.017-.379,2.183h-1.344l2.062-12.694c.102-.137,1.35-.21,1.471.07l2.034,12.625ZM220.548,16.575c-.256-.069-.211.186-.256.372-.217.893-.544,2.609-.6,3.501-.007.116-.034.226.034.333.1.142,1.41.185,1.487-.069l-.665-4.136Z"/>
      <path class="st0" d="M287.227,11.709c.189-.065,1.094-.049,1.242.072l2.141,12.541-.149.147-1.191-.029-.468-2.16h-2.029s-.468,2.16-.468,2.16c-.268.042-1.25.163-1.34-.118l2.078-12.41c.036-.092.087-.17.184-.203ZM286.971,20.771c.296.103,1.534.26,1.595-.141l-.778-4.054-.816,4.194Z"/>
      <path class="st0" d="M296.282,18.528c.052-.096.32-.556.287-.585-.853-.114-1.983.599-2.488-.426.338-.352.653-.704.936-1.105.162-.229.23-.564.356-.712.216-.257,1.212-.659,1.58-1.029.444-.447.986-1.716,1.252-1.949.062-.055,1.306-.688,1.467-.754.759-.31,1.466-.302,2.273-.275-.097-2.002,1.651-2.02,2.917-2.647.509-.253.759-.727,1.404-.573.036-.765-.288-1.827-1.153-1.856v-.292c1.218.529.409-.462-.334-.49-.156-.006-.544.225-.624-.048-.178-.605,1.13-.219,1.342-.048-.075-.479-.619-1.078-1.1-1.078-.366,0-.67.347-.626-.386l.286.292-.094-.39c.291.175.619.246.93.371.159.064.44.455.412.021-.514-.194-.797-1.094-1.289-1.375-.336-.192-1.249-.097-.631-.873l.096.39.145-.388c.314.456.523.978,1.104,1.169l-.967-1.705c.019-.259.267-.29.476-.233l.587,1.353c.028-.498-.614-1.675.275-1.548l.207,2.329.185-1.03c.179-.251.356-.102.476.123-.201.51-.509.766-.373,1.396l.423-.886c.324-.264.502.056.439.398l-.382-.098-.384,1.465c.374-.126.378-.724.577-.925.345-.35.854.013.405.313-.335.224-.669.745-.674,1.167-.002.161.308.514.172.812l.19-.194c-.067.772.154,1.513.398,2.231.648.081,1.391-.072,2.027.037.653.111.995.682,1.766.751.072.007.789,0,.829-.009.154-.036.272-.318.602-.37.321-.05.597.048.903.096l-.055.586c.47.211.945.389,1.402.63.373.196.608.624.958.246-.177.356.046.212.099.487l.285-.194c-.183.39.466.968.768.586-.231.488.309.677.572,1.021l1.156-.337-1.054.535.191.635c.018.024.536-.274.574-.001l-1.631.685c.679-.046,1.3-.402,1.97-.488.077-.01.346-.034.189.097l-.526.195,1.151.002-1.131.371c-.182.042-.348-.075-.527-.058-.165.016-1.038.509-.741.078-.442.122-.362-.182-.385-.196-.059-.037-.284.063-.289-.049l.289-.244h-1.68c-.067,0-.444.209-.487.293l.149.448c.634-.246,1.147-.319,1.798-.077.329.122.571.407.837.516.214.087.678.085.802.21.139.141.072.495.164.671.05.096.304-.093.243.184l.19-.486.002.682.096-.78.143.487.15-.387.229.088c.208-.184-.104-.354.34-.288l-.287-.193,1.439-.197-.191-.291.479.097c-.441-1.478-1.673-.01-2.591-.098.476-.361,1.222-.761,1.823-.781.329-1.277-.988-.901-1.493-1.458-.397-.438.188-.729-.904-1.033-.748-.208-2.153.079-1.455-1.157l-.658-.502.957.248-.271.746c-.057.631,1.817.218,2.294.954.166.256.074.492.427.738.325.226,1.264.284,1.298.733.011.145-.091.308-.091.481.002.459.284.285.527.438.273.172.582,1.026.291,1.285-.339.27-.553-.078-.736-.062-.212.018-1.145.459-1.295.633-.043.051-.398.617-.406.655-.031.152.21.576.246.79.121.733.32,2.535.019,3.171-.057.12-.228.115-.27.235-.069.201.012.5-.016.72l-.19-.292c-.064.23.116.512.076.709-.07.345-.949,1.375-1.321,1.491-.573.178-.683-.155-1.106-.161-.45-.006-.833.266-1.448.21-.225-.02-2.879-1.003-3.014-1.132-.184-.175-.175-.563-.483-.532-.603.879-1.08,1.56-1.157,2.681-.04.575.341,1.908-.258,2.085-.689.204-.666-.633-.819-.746-.07-.052-.243.002-.264-.018-.02-.018.085-.248.055-.392-.255-1.223-2.478-3.292-3.793-3.314.006.664-1.023.793-1.294,1.175-.329.463-.156,1.341-.267,1.535-.052.092-.946.75-1.107.781-.553.107-1.016-.309-1.317-.277-.178.019-.237.194-.348.24-.955.399-1.551.55-2.389-.188l-1.626-.494c-.365-.218-.813-1.688-.87-2.142-.035-.28.028-.583-.006-.873-.02-.171-.184-.289-.198-.588-.04-.864.584-1.913,1.162-2.492-.33.609-1.071,1.695-1.045,2.396.007.175.159.313.176.489.084.845.151,2.104.676,2.826.364.501.548.249.986.364.203.053.642.582.742.026.036-.201-.108-.64.095-.731-.127.92.141,1.525,1.093,1.653.123-.043.13-.13.152-.241.109-.547.105-1.131.243-1.706.034-.142.103-.536.239-.585-.133.688-.123,1.362.12,2.027.355.187.585-.111.984-.082.362.026.747.415,1.16.112.163-.119.666-1.307.695-1.547.044-.366-.089-.878.017-1.291l-.192.977-.19-.099-.002.781-.093-.828.383-1.221.19.292v-.488c-.047-.049-1.086.173-1.267.224-1.021.284-1.814,1.205-2.237-.319-.242-.872-.127-1.857.117-2.716.138-.487.415-.923.604-1.386l-1.919.682c.329-.634,2.247-.721,2.399-1.123.1-.265-.323-.037-.287-.242.316.016.642.022.862-.245-1.03-.744-2.334-.677-3.452-.194-.976.422-1.672,1.258-2.689,1.513-.024.168.227.103.333.095.313-.024.67-.163.973-.184.211-.014.414.128.656.09.332-.053,1.335-1.08,1.972-.88l-1.181.506c-.46.315-.92.66-1.314,1.055ZM310.008,9.446c-.822-.949-2.033-1.059-3.168-.682l.626,2.538c.779-.2,1.142-.814,1.629-1.367.156-.178.492-.191.433-.586.198.162.236.172.479.097ZM303.529,11.4c1.02.126,2.266-.094,3.312,0l-.493-2.72c-.599-.183-.885.287-1.36.494-.539.234-1.212.345-1.721.596-.234.115-1.067.782-.924,1.033.018.032.543.406.587.427.083.039.511.161.599.172ZM302.809,11.399c-.025-.166-.583-.589-.671-.487l-.096.878h.287s0-.294,0-.294l.191.1-.094-.391.383.194ZM301.725,13.035c.029-.105-.036-.191-.008-.267.117-.318.568-.677.092-.888-1.026-.455-2.624.529-3.511,1.035,1.106.092,2.125.565,3.12,1.026.217.03.112-.037.141-.147.075-.28-.001-.523.02-.686.008-.059.139-.044.147-.072ZM294.266,17.648c1.159.304,2.161-.997,3.198-1.481.897-.419,1.717-.43,2.683-.252.399.073.82.465,1.172.468.18.002,1.392-.316,1.393-.442-.269-.269-.933-.256-1.141-.595-.214-.35-.039-1.091-.198-1.259-.246-.261-2.668-1.093-3.007-1.012-.071.017-.163.098-.164.18.871.098,1.736.432,2.53.796.185.085.525.214.637.376-1.09-.326-2.115-.919-3.268-1.02-.087.034-.838,1.046-.86,1.166-.063.336.534-.018.577.244-.253.025-.553-.05-.795.022-.083.025-1.365.865-1.461.955-.097.091-.176.138-.143.293l.767.097c-.218.045-.68-.073-.843.023-.123.072-.849,1.257-1.076,1.442ZM316.948,18.987c.099.122.376.262.544.47.187.232.602,1.285.913.63.267-.562.083-2.406-.095-3.025-.169-.591-.522-.889-.742-1.393-.077-.176-.048-.467-.117-.565-.098-.141-.448-.074-.635-.136-.212-.07-.529-.422-.808-.545-.576-.253-1.079-.242-1.682-.095-.085.096.796,1.014.907,1.078.292.17.869.184,1.204.387-.139.323-.92-.434-.863.095l.96.441-.671-.099c.228.391.499.549.863.782h-.385c.165.321.234.883.396,1.16.157.269.761.563.949.89-.291.06-.562-.413-.816-.537-.121.093.004.369.078.459ZM314.716,23.115c.301.006.522-.281.811-.3.38-.024.794.325,1.106.259.452-.096,1.36-1.232,1.348-1.661-.009-.317-.201-.54-.273-.809-.075-.279.035-.178-.156-.621-.163-.378-.209-.599-.585-.869-.052,2.441-1.749,1.706-3.463,1.651l-.184.203-.432-.194c-.086.084.951,1.988,1.111,2.14.153.146.413.29.616.154-.091-.425-.397-.396-.565-.596-.123-.146-.525-.813-.443-1.015.545.346.892,1.054,1.109,1.657ZM312.281,20.901c-.341-.384-1.135-.176-1.602-.224.498.967.61,1.53,1.781,1.752.163.031.248.064.236-.141-.02-.347-.19-1.134-.415-1.386ZM310.392,21.555l-1.343-.391c-.116.597.777.151.671.78l-.817-.388-.143.244,1.092.53.54-.774ZM303.864,21.751l-.664-.09-.103.577c.273-.127.632-.169.767-.487ZM309.721,22.532l-.914-.489c-.098.357.488.547.624.779l-.767-.389c.042.351.46.371.599.708.113.274.089.655.17.951l.381-1.222-.19-.046.096-.292ZM308.451,23.823c-.081-.048-.385-.066-.457.024.028.352.266.442.37.693.178.429.265.885.444,1.31l.048-.73.288.046c.02-.138-.465-.208-.287-.39.058-.059.338.261.287-.048l-.575-.44.575.146c-.094-.324-.328-.226-.52-.352-.104-.069-.129-.235-.172-.26Z"/>
      <path class="st0" d="M314.998,9.254c.018.193-.28.059-.365.03-.451-.156-.605-.524-1.118-.42-.171.035-.299.282-.435.145.757-.821,1.145.1,1.919.245Z"/>
      <path class="st0" d="M295.993,23.311c-.168.023-.089-.221-.095-.34-.042-.968.246-1.944.863-2.686-.408.985-.904,1.905-.768,3.026Z"/>
      <path class="st0" d="M298.297,24.19c-.161.025-.104-.236-.099-.344.024-.465.178-1.181.32-1.629.033-.102.024-.295.162-.272l-.384,2.245Z"/>
      <path class="st0" d="M301.465,24.97c-.257.055-.165-.067-.238-.192-.172-.294-.472-.975-.193-1.271l.431,1.463Z"/>
    </g>
  </g>
</svg>