<?xml version="1.0" encoding="UTF-8"?>
<svg id="Arte" xmlns="http://www.w3.org/2000/svg" version="1.1" viewBox="0 0 329.58 38.51">
  <!-- Generator: Adobe Illustrator 29.0.0, SVG Export Plug-In . SVG Version: 2.1.0 Build 186)  -->
  <defs>
    <style>
      .st0 {
        fill: blue;
      }
    </style>
  </defs>
  <g>
    <path class="st0" d="M319.87,6.36c-.23.02-.46-.03-.69,0-.07-.03-.09-.11-.06-.18.07-.03.48-.27.59-.33.06-.04,0-.25-.04-.28-1.3-.81-2.67-1.44-4.03-1.92-.54-.19-1.08-.39-1.64-.53-.15-.04-.31-.07-.46-.11-.28-.07-.57-.14-.85-.2-.62-.16-1.26-.27-1.89-.35-.17-.02-.33-.04-.5-.05-.62-.05-1.23-.08-1.85-.09-.51,0-4.86.25-5.19.3-.37.05-.73.11-1.1.14-.6.02-1.15-.11-1.62-.55-.42-.41-.94-.67-1.5-.86-.06-.02-.13,0-.19,0,.01.06,0,.14.04.19.16.26.33.51.48.77.06.11.1.21.12.31.02.1.02.2,0,.29-.04.15-.12.29-.28.43-.08.06-.16.12-.25.17-.07.02-.15.04-.23.04-.13.02-.28-.07-.4.05-.32.32-.69.42-1.13.31-.11-.03-.21-.06-.28.08-.02.03-.05.05-.07.08-.06.08-.14.14-.23.19-.19.09-.41.12-.6.05-.17-.07-.31-.04-.43.13-.12.19-.47.29-.71.25-.01,0-.03,0-.04,0-.01,0-.03,0-.04,0-.13-.05-.23-.03-.29.09-.11.24-.25.34-.48.3-.13-.07-.2-.1-.25-.08-.01,0-.02,0-.03-.01-.14-.06-.21-.02-.26.11-.05.16-.16.24-.32.26-.15.01-.29,0-.42-.09-.11-.07-.19-.06-.29.05-.17.18-.37.35-.66.2-.09-.05-.18-.04-.26.05-.05.05-.1.08-.16.11-.07.03-.16.04-.24.04,0,0-.02,0-.02,0-.12,0-.23,0-.35.02-.04-.02-.09-.01-.13,0,0,0,0,0,0,0-.16,0-.34.09-.49-.04-.4-.37-.74-.78-1.06-1.22-.27-.37-.55-.74-.84-1.09-.15-.18-.29-.36-.45-.53-.21-.24-.46-.44-.69-.66-.29-.26-.61-.44-.97-.58-.09-.04-.13,0-.13.1,0,.06.02.12.04.17.05.09.13.16.24.21-.02.23.07.42.27.54.04.12.09.23.12.35.06.2.23.37.28.56.13.54.43,1,.66,1.49.11.25.21.49.22.78,0,.01,0,.02,0,.03,0,.2-.03.39-.04.58,0,.25-.06.49-.18.71-.21.37-.44.74-.62,1.13-.15.33-.29.65-.48.96-.07.12-.15.24-.21.36-.12.2-.21.42-.37.6-.1.11-.26.29-.21.35.1.12.3.05.45,0,.03,0,.05-.02.08-.03.12-.05.23-.1.34-.16.47-.26.86-.63,1.21-1.04.55-.62,1.04-1.29,1.56-1.94.05-.07.11-.13.16-.2.16-.2.33-.4.52-.57.11-.09.24-.23.37-.21.28.02.56.02.84.06.09.01.18.04.24.12.05.07.13.07.21.07.13,0,.25,0,.38-.02.13-.01.22.02.28.14.07.17.22.15.34.1.36-.16.38-.07.59.21.13.18.21.19.38.08.25-.15.33-.12.52.11.06.08.13.14.17.24.04.1.1.14.21.07.19-.13.41-.15.63-.09.01.04.04.03.07.02,0,0,.02,0,.03,0,.06.08.06.2.15.26,0,.17.08.19.22.14.2-.07.41-.05.59.07,0,0,0,0,0,0,.08.06.16.13.22.25.05.08.12.08.2.09.09,0,.17,0,.26,0,.24-.1.36-.05.57.18.03.04.12.08.15.06.24-.15.45,0,.66.07.28.09.28.15.13.39-.07.11-.13.22-.19.32-.24.4-.48.79-.71,1.19-.04.07-.1.19-.04.24.07.06.18-.02.26-.06.8-.46,1.58-.93,2.39-1.38l.07-.02c.58.05,1.16.13,1.73.19.34.04.68.08,1.02.11.34.03.69.07,1.04.09,0,0,.02,0,.03,0,.96.1,1.92.12,2.88.18.08,0,.2.01.23.09.03.08-.07.18-.13.23-.22.18-.46.34-.68.52-.06.05-.16.14-.12.21s.17.04.24.02c1.04-.37,2.09-.75,3.13-1.13.5-.05,3.04-.39,3.13-.41.01,0,2.16-.43,2.16-.47,0,.04,1.31-.36,1.45-.42.49-.19.96-.4,1.43-.62.4-.19,2.16-1.21,2.2-1.3.05-.14,0-.25-.13-.24Z"/>
    <g>
      <path class="st0" d="M275.5,31.53V12.42s2.45,0,2.45,0c1.65,0,2.94.31,3.79,1.12s1.29,2.05,1.29,3.95c0,.91-.08,1.59-.36,2.21-.28.62-.72,1.14-1.37,1.74.7.39,1.21,1.12,1.62,2.34.21.6.31,1.38.31,2.34,0,1.43-.26,2.7-.9,3.69-.64.99-1.75,1.64-3.4,1.72h-3.43ZM278.29,20.3c.23,0,.77.03,1.24-.29.46-.31.82-.94.82-2.26s-.36-1.95-.82-2.26c-.46-.31-1.01-.29-1.24-.29v5.1ZM278.29,28.75c.23,0,.77.05,1.24-.29.46-.34.82-1.09.82-2.65,0-1.56-.36-2.31-.82-2.65-.46-.34-1.01-.29-1.24-.29v5.88Z"/>
      <path class="st0" d="M293.16,27.6c-.03.78-.18,1.48-.46,2.08-.23.52-.59,1.01-1.11,1.4-.52.42-1.21.65-2.14.65s-1.65-.23-2.17-.65c-.52-.39-.85-.88-1.08-1.4-.28-.6-.44-1.3-.46-2.08v-11.26c.03-.75.18-1.46.46-2.05.23-.52.57-1.04,1.08-1.43.52-.39,1.24-.65,2.17-.65s1.62.26,2.14.65c.52.39.88.91,1.11,1.43.28.6.44,1.3.46,2.05v11.26ZM290.38,16.34c0-.52-.1-.88-.36-1.2-.13-.13-.34-.21-.57-.21-.49,0-.72.36-.82.7-.08.21-.1.44-.1.7v11.26c0,.55.13.91.39,1.2.13.13.31.21.54.21.49,0,.72-.31.82-.7.08-.18.1-.42.1-.7v-11.26Z"/>
      <path class="st0" d="M299.01,21.57l-.23-.88h-.15v10.84s-2.55,0-2.55,0V12.42s2.47,0,2.47,0l2.71,9.96.23.88h.15v-10.84s2.55,0,2.55,0v19.11s-2.47,0-2.47,0l-2.71-9.96Z"/>
      <path class="st0" d="M307.28,12.42h2.78s0,19.11,0,19.11h-2.78s0-19.11,0-19.11Z"/>
      <path class="st0" d="M312.18,15.3v-2.89s8.04,0,8.04,0v2.89s-2.63,0-2.63,0v16.22s-2.78,0-2.78,0V15.3h-2.63Z"/>
      <path class="st0" d="M329.58,27.6c-.03.78-.18,1.48-.46,2.08-.23.52-.59,1.01-1.11,1.4-.52.42-1.21.65-2.14.65s-1.65-.23-2.17-.65c-.52-.39-.85-.88-1.08-1.4-.28-.6-.44-1.3-.46-2.08v-11.26c.03-.75.18-1.46.46-2.05.23-.52.57-1.04,1.08-1.43.52-.39,1.24-.65,2.17-.65s1.62.26,2.14.65c.52.39.88.91,1.11,1.43.28.6.44,1.3.46,2.05v11.26ZM326.8,16.34c0-.52-.1-.88-.36-1.2-.13-.13-.34-.21-.57-.21-.49,0-.72.36-.82.7-.08.21-.1.44-.1.7v11.26c0,.55.13.91.39,1.2.13.13.31.21.54.21.49,0,.72-.31.82-.7.08-.18.1-.42.1-.7v-11.26Z"/>
    </g>
    <g>
      <path class="st0" d="M288.72,36.82c-.09.07-.2.13-.3.18-.11.05-.22.09-.35.12-.12.03-.26.04-.42.04-.24,0-.47-.04-.67-.13-.2-.09-.38-.21-.53-.37-.15-.15-.27-.34-.35-.55-.08-.21-.13-.44-.13-.68s.04-.46.13-.67c.08-.21.2-.39.35-.55.15-.16.33-.28.54-.37.21-.09.43-.14.68-.14.15,0,.29.01.41.04s.24.06.34.11c.11.05.2.1.29.17.09.07.18.14.26.22l-.26.28c-.14-.13-.3-.24-.46-.33-.16-.09-.36-.13-.59-.13-.19,0-.36.04-.51.11s-.3.17-.41.29-.21.27-.27.44c-.07.17-.1.35-.1.54s.03.38.1.55c.07.17.16.32.27.44.12.12.25.22.41.29.16.07.33.11.51.11.23,0,.43-.04.59-.13.17-.08.33-.2.49-.36l.25.24c-.09.09-.18.17-.27.24Z"/>
      <path class="st0" d="M296.02,37.11h-.41s-.39-.89-.39-.89h-1.82s-.4.89-.4.89h-.39s1.53-3.37,1.53-3.37h.35s1.53,3.37,1.53,3.37ZM294.32,34.18l-.77,1.71h1.53s-.76-1.71-.76-1.71Z"/>
      <path class="st0" d="M302.25,37.11l-.97-1.3h-.96v1.3s-.38,0-.38,0v-3.35s1.44,0,1.44,0c.18,0,.35.02.5.07s.28.12.38.2c.11.09.19.19.24.32.06.12.09.26.09.41,0,.14-.02.27-.07.38s-.11.21-.19.29-.18.15-.29.2c-.11.05-.23.09-.36.11l1.03,1.37h-.46ZM301.99,34.28c-.15-.12-.36-.18-.63-.18h-1.04v1.36h1.03c.12,0,.24-.02.35-.05.11-.03.2-.08.27-.14.08-.06.14-.13.18-.22.04-.09.06-.18.06-.29,0-.21-.08-.38-.23-.49Z"/>
      <path class="st0" d="M307.06,33.76v3.35s-.38,0-.38,0v-3.35s.38,0,.38,0Z"/>
      <path class="st0" d="M313.17,33.82c.13.04.25.1.34.17.1.07.17.16.22.26.05.1.08.22.08.35,0,.11-.02.21-.05.29-.03.08-.07.16-.12.22-.05.06-.11.12-.17.16s-.13.08-.19.11c.1.03.19.07.28.11.09.05.16.1.23.17.06.06.11.14.15.23.04.09.06.19.06.31,0,.14-.03.27-.09.39s-.14.21-.25.29-.23.14-.38.18-.32.06-.5.06h-1.49s0-3.35,0-3.35h1.42c.17,0,.32.02.45.06ZM313.22,35.1c.14-.1.21-.25.21-.45,0-.17-.06-.3-.19-.4-.13-.1-.31-.15-.55-.15h-1.02v1.16h.99c.23,0,.41-.05.55-.15ZM313.4,36.61c.15-.11.22-.25.22-.45s-.07-.33-.22-.43-.37-.15-.66-.15h-1.06v1.19h1.12c.25,0,.46-.05.6-.16Z"/>
      <path class="st0" d="M320.43,34.1h-2.04v1.14h1.83s0,.34,0,.34h-1.83v1.17h2.07s0,.34,0,.34h-2.45s0-3.35,0-3.35h2.42s0,.34,0,.34Z"/>
    </g>
  </g>
  <g>
    <path class="st0" d="M12.43,5.04c.08-.01.17-.01.23-.05.24-.13.48-.27.72-.4.37-.21.74-.41,1.11-.62.33-.19.66-.4.99-.61.03-.02.07-.06.1-.06.31-.03.51-.22.72-.42.07-.07.19-.09.3-.12.17-.05.33-.1.45-.26.17-.23.61-.23.87-.04.25.18.33.55.18.81-.65,1.12-1.48,2.1-2.47,2.93-.47.4-.97.77-1.48,1.12-.35.24-.73.42-1.1.62-.27.15-.54.3-.82.43-.18.09-.37.15-.55.22-.03.01-.07.02-.1.03-.44.16-.88.33-1.32.49-.28.1-.57.21-.86.29-.34.09-.68.15-1.02.24-.19.05-.38.12-.56.2-.05.02-.09.12-.1.18-.01.17-.02.34,0,.51.03.36.06.72.09,1.08.02.18.04.37.04.55,0,.29.15.45.43.5.4.07.81.08,1.2.23.23.09.49.13.72.22.16.06.31.16.45.26.13.09.23.09.37.02.46-.23.92-.45,1.38-.65.32-.14.65-.26.97-.38.22-.08.27-.2.16-.41-.31-.57-.3-1.14-.03-1.7.21-.43.55-.73.99-.92.34-.15.7-.24,1.07-.2.69.07,1.28.34,1.67.93.2.29.32.62.3.99-.02.22.11.34.31.3.72-.15,1.45-.15,2.19-.15.6,0,1.2-.01,1.8.01.38.01.76.08,1.14.13.23.03.32-.04.32-.27-.02-.76.6-1.53,1.29-1.77.32-.11.64-.2.98-.17.7.06,1.3.34,1.68.94.38.59.43,1.23.07,1.87-.14.24-.1.31.16.41.98.35,1.92.79,2.83,1.29.09.05.16.12.24.17.17.09.27.04.34-.13.09-.23.18-.46.29-.68.29-.59.8-.82,1.42-.86.13,0,.27,0,.4.02.17.02.27-.09.3-.25.06-.37.12-.74.23-1.1.1-.34.27-.66.41-1,.07-.16-.01-.27-.21-.29-.19-.02-.39-.02-.59-.05-.29-.04-.58-.1-.87-.15-.29-.06-.59-.11-.88-.18-.47-.12-.95-.23-1.41-.39-.46-.16-.89-.38-1.31-.62-.66-.37-1.23-.84-1.72-1.4-.39-.44-.74-.92-1.09-1.4-.3-.42-.58-.86-.86-1.3-.15-.23-.29-.47-.39-.72-.19-.45.16-.91.65-.88.03,0,.06,0,.09,0,.24-.06.37.1.5.25.15.16.33.25.54.3.2.05.38.1.5.29.05.08.19.13.29.14.31,0,.55.19.81.32.27.13.53.29.79.43.28.15.57.28.86.42.06.03.13.05.19.07,0-.02.02-.03.03-.05-.1-.07-.19-.15-.29-.21-.29-.18-.58-.37-.88-.54-.41-.24-.82-.47-1.22-.7-.13-.08-.26-.15-.39-.22-.37-.19-.72-.43-1.07-.66-.33-.21-.62-.48-.95-.69-.05-.03-.1-.08-.14-.12-.44-.45-.14-.9.3-1.08.46-.18.95-.18,1.42-.26.85-.14,1.7-.09,2.55-.05.68.03,1.35.13,2.01.28.37.08.74.14,1.1.23.38.1.75.22,1.12.37.49.19.98.4,1.46.63.73.35,1.4.82,2,1.37.4.36.76.76,1.07,1.19.21.29.38.61.53.94.15.31.25.63.37.95.04.12.03.26.07.38.12.37.16.74.12,1.13-.01.12.06.16.2.14.2-.04.4-.08.61-.1.51-.05,1.03.36.95.95-.06.42-.26.77-.43,1.13-.17.37-.38.71-.66,1.01-.14.15-.11.28.07.37.52.24.74.67.84,1.2.11.6.07,1.2-.02,1.8-.01.1-.07.19-.12.28-.11.16-.16.32-.12.52.1.48-.15.92-.64,1.21-.09.05-.17.15-.22.24-.22.36-.52.63-.91.78-.4.15-.8.29-1.21.44-.03.01-.06.02-.09.03-.18.07-.2.16-.06.29.13.12.27.24.4.36.39.36.63.81.76,1.32.1.4.21.81.28,1.22.05.25.05.51.04.77,0,.47.02.94-.13,1.4-.1.3-.12.63-.21.93-.2.67-.57,1.23-1.19,1.6-.09.05-.18.11-.25.17-.04.04-.09.12-.08.17.02.05.09.12.15.13.3.07.6.15.91.19.53.08.84.39.95.9.03.14.11.21.25.26.28.1.53.27.7.51.2.28.41.57.56.89.15.29.18.62,0,.92-.1.18-.11.34,0,.52.04.06.08.15.07.22-.02.37.14.71.18,1.06.02.16.02.33,0,.49-.02.12-.09.25-.17.35-.13.17-.14.32-.09.53.06.24.07.52.02.76-.06.31-.18.61-.31.89-.1.21-.26.39-.41.56-.5.58-1.1,1.02-1.82,1.3-.46.18-.92.35-1.42.29-.42-.05-.81-.32-.79-.76,0-.08.03-.17.08-.22.22-.26.45-.51.67-.77.1-.12.19-.26.26-.4.15-.27.29-.55.43-.82.19-.36.26-.75.27-1.15,0-.1-.09-.22-.17-.29-.17-.14-.22-.3-.21-.5,0-.15.03-.31.04-.46,0-.22.01-.44-.01-.66-.01-.09-.08-.19-.15-.26-.4-.36-.67-.8-.86-1.3-.02-.06-.09-.13-.16-.15-.32-.13-.66-.24-.98-.38-.3-.13-.59-.29-.88-.45-.06-.03-.12-.08-.18-.12-.1-.07-.2-.11-.31-.04-.14.08-.25.2-.25.35,0,.08.11.18.19.24.39.27.77.56.98,1.01.06.13.17.24.23.37.06.13.09.28.15.42.06.12.12.24.22.32.59.53.79,1.17.64,1.94-.03.16-.03.31.06.45.12.2.11.4.06.61-.11.49-.33.93-.57,1.35-.1.17-.28.3-.41.45-.07.09-.14.2-.17.31-.13.38-.37.68-.68.92-.36.28-.76.45-1.2.57-.56.16-1.12.14-1.67.1-.32-.02-.66-.12-.94-.28-.46-.27-.39-.72-.03-1.04.17-.14.38-.23.58-.35.47-.28.94-.55,1.2-1.06.01-.03.03-.05.06-.07.14-.12.13-.26.06-.42-.13-.28-.18-.57-.11-.88.02-.11.07-.23.13-.33.07-.11.08-.22.02-.34-.11-.22-.18-.45-.19-.7,0-.07-.07-.16-.13-.21-.25-.17-.44-.37-.6-.63-.13-.22-.34-.4-.53-.58-.09-.09-.22-.09-.33-.02-.16.09-.32.18-.48.28-.19.11-.19.21-.04.37.22.25.36.55.48.86.16.4.04.73-.16,1.07-.07.12-.07.22,0,.35.07.13.14.29.13.43-.01.26-.08.53-.14.79-.04.16-.09.33-.16.48-.15.39-.46.64-.76.9-.07.06-.13.14-.15.22-.14.65-.49,1.18-.96,1.64-.32.31-.69.56-1.11.68-.43.13-.9.18-1.33.02-.37-.14-.57-.57-.31-.97.17-.27.31-.57.42-.87.14-.37.25-.75.56-1.01.1-.09.14-.19.11-.32-.07-.4.06-.75.3-1.07.05-.07.09-.14.13-.21.12-.2.12-.3-.01-.5-.03-.05-.07-.11-.08-.17-.04-.33-.09-.66-.1-1,0-.27-.15-.39-.41-.32-.36.1-.73.19-1.1.27-.49.11-.98.2-1.47.29-.12.02-.24.02-.35.03-.37.05-.73.1-1.1.15-.07,0-.13.02-.2.02-.99,0-1.97,0-2.96,0-.21,0-.43-.07-.64-.09-.27-.03-.53-.05-.8-.08-.16-.02-.31-.05-.47-.08-.02,0-.04-.01-.06-.02-.45-.08-.9-.17-1.35-.24-.23-.04-.29.03-.32.26-.03.27-.15.49-.36.67-.12.1-.21.24-.29.38-.09.15-.16.31-.24.47-.08.16-.07.33-.01.5.11.32.07.61-.07.91-.04.09-.01.25.05.33.19.26.23.57.35.85.12.27.26.54.42.79.17.25.17.51-.03.73-.19.21-.42.33-.72.32-.4-.01-.8.01-1.19-.12-.93-.31-1.53-.94-1.91-1.82-.15-.34-.23-.69-.26-1.06,0-.09-.04-.21-.1-.27-.16-.17-.14-.36-.13-.57,0-.13.01-.27,0-.4,0-.21-.03-.41.12-.61.06-.08.06-.25,0-.33-.24-.42-.09-.61.11-.87.09-.12.22-.2.33-.3.12-.12.23-.24.35-.36.11-.11.2-.23.33-.32.15-.11.17-.24,0-.35-.03-.02-.07-.03-.1-.05-.22-.11-.43-.22-.65-.32-.17-.08-.35-.16-.53-.22-.1-.04-.18.02-.22.12-.16.36-.45.63-.75.87-.14.11-.32.15-.49.21-.11.03-.18.08-.2.2-.05.23-.19.39-.37.53-.3.24-.59.49-.89.74-.02.02-.05.05-.05.07,0,.22-.05.44.09.64.06.09.08.21.11.31.02.05.02.1.05.14.06.1.49.34.6.38.27.11.52.11.8,0,.12-.05.27-.04.41-.04.46-.01.78.32.86.71.04.22-.07.45-.23.62-.33.36-.73.61-1.19.79-.42.17-.84.16-1.25.08-.45-.09-.88-.29-1.32-.42-.26-.08-.47-.22-.65-.42-.03-.04-.08-.08-.09-.12-.06-.19-.21-.28-.39-.34-.33-.12-.53-.37-.69-.67-.01-.03-.02-.06-.04-.08-.49-.63-.35-1.32-.17-2.01.04-.15.14-.28.2-.43.03-.09.04-.2.01-.28-.1-.27-.03-.52.07-.75.1-.25.22-.49.37-.71.11-.17.28-.3.44-.43.08-.07.11-.13.07-.24-.09-.22.06-.57.2-.75.24-.31.59-.25.89-.35.11-.04.21-.1.31-.13.12-.04.24-.07.35-.11.05-.02.11-.03.16-.05.12-.07.13-.16.03-.25-.07-.06-.14-.12-.21-.18-.08-.08-.2-.08-.25,0-.09.16-.24.21-.38.28-.27.15-.53.33-.81.46-.17.07-.37.09-.55.1-.16,0-.27.05-.35.2-.07.12-.17.23-.28.32-.11.09-.26.14-.38.21-.03.02-.06.05-.09.08-.03.02-.05.05-.08.07-.15.06-.31.1-.47.17-.06.03-.13.08-.15.13-.13.34-.15.7-.07,1.05.08.36.04.67-.16.97-.04.05-.05.19-.01.22.17.16.13.37.17.56.02.1.05.2.08.3,0,.02.03.04.02.06-.03.23.12.41.21.6.06.13.17.24.24.37.22.38.12.79-.23,1.04-.29.2-.61.25-.94.19-.26-.04-.51-.14-.75-.22-.61-.22-1.1-.6-1.5-1.11-.16-.21-.28-.45-.37-.69-.05-.13-.02-.29.02-.43.04-.15.05-.28-.02-.43-.12-.27-.14-.56-.1-.85.02-.13.03-.27.04-.4.03-.29,0-.58.13-.86.06-.13.06-.3.05-.44-.02-.33.05-.63.2-.92.07-.14.08-.27.02-.42-.06-.14-.02-.27.07-.39.21-.28.51-.44.82-.56.34-.13.65-.3.98-.46.31-.15.55-.33.73-.62.12-.2.36-.25.57-.32.27-.1.54-.21.79-.34.07-.04.14-.15.15-.23,0-.04-.12-.12-.2-.14-.5-.17-.91-.46-1.21-.9-.26-.38-.43-.8-.57-1.25-.1-.33-.08-.67-.18-.98-.16-.51-.09-1.02-.08-1.54,0-.13.08-.26.11-.4.08-.39.14-.79.23-1.18.03-.15.12-.29.18-.42.2-.42.48-.78.85-1.06.07-.05.12-.16.12-.24,0-.05-.12-.11-.19-.14-.48-.2-.97-.39-1.44-.6-.23-.1-.48-.21-.67-.38-.2-.17-.35-.4-.42-.67-.02-.07-.07-.14-.13-.18-.3-.18-.52-.42-.68-.74-.06-.12-.18-.22-.27-.33-.1-.13-.22-.25-.3-.39-.12-.19-.13-.39-.03-.61.05-.1.06-.22.06-.33-.03-.29.06-.55.21-.8.08-.14.11-.27.04-.43-.03-.07-.04-.16-.02-.23.18-.68.47-1.3,1.02-1.77.3-.25.66-.34,1.05-.23.06.02.12.07.18.09.05.01.1,0,.16,0,0-.04,0-.08-.02-.13,0-.02-.02-.05-.03-.07-.03-.51-.24-.99-.32-1.49-.05-.38-.08-.76.06-1.14.11-.3.23-.58.44-.82.29-.31.62-.51,1.06-.45.21.03.34-.07.45-.23.14-.19.3-.37.44-.56.57-.76,1.24-1.43,1.96-2.04.42-.36.88-.68,1.35-.98.44-.28.91-.53,1.38-.76.35-.17.72-.29,1.08-.42.28-.1.56-.19.85-.29.03-.01.07-.03.1-.03.47-.08.95-.15,1.41-.25.84-.18,1.7-.15,2.56-.17.61-.01,1.23.04,1.84.07.32.02.69.43.66.75,0,.1-.05.22-.13.28-.27.22-.56.42-.83.63-.2.16-.46.25-.59.49-.18,0-.26.18-.39.23-.26.11-.49.22-.65.46,0,.01-.03.03-.03.02-.17-.04-.26.1-.37.18-.59.38-1.17.77-1.76,1.15-.25.16-.51.29-.76.44-.06.03-.09.11-.13.17.01.01.02.03.03.04ZM33.05,17.61s0,.01,0,.02c.11,0,.23,0,.34,0,.09,0,.19-.02.27-.05.09-.03.11-.1.04-.18-.18-.21-.34-.44-.54-.63-.37-.37-.76-.72-1.14-1.08-.35-.33-.72-.62-1.12-.89-.63-.42-1.31-.78-1.99-1.11-.37-.18-.72-.38-1.12-.49-.33-.1-.63-.28-.98-.34-.2-.03-.38-.11-.57-.17-.04-.01-.08-.05-.13-.07.03-.04.05-.1.09-.13.11-.08.23-.15.35-.22.37-.22.55-.57.6-.96.07-.54-.12-.99-.58-1.35-.59-.46-1.21-.52-1.89-.28-.12.04-.23.09-.33.17-.31.22-.55.51-.64.88-.05.22-.07.46-.02.68.05.21.13.43.31.6.03.02.04.09.03.12-.01.03-.08.05-.12.04-.28-.04-.56-.06-.84-.13-.53-.13-1.06-.15-1.59-.15-.92,0-1.84.02-2.76.03-.22,0-.44-.02-.64.11-.02.02-.06.01-.09.02-.35.03-.7.06-1.05.08-.04,0-.08-.02-.13-.03.02-.04.04-.08.05-.12.1-.23.26-.46.29-.7.1-.72-.48-1.46-1.16-1.64-.78-.21-1.45-.04-1.99.56-.21.23-.32.51-.35.82-.02.22.04.43.12.64.08.22.19.4.38.52.15.1.31.19.46.3.05.03.08.1.1.16,0,.02-.08.08-.12.09-.21.02-.42.06-.6.18-.03.02-.08.02-.12.03-.19.05-.38.09-.56.15-.65.22-1.27.52-1.88.84-.27.14-.51.33-.78.46-.63.32-1.2.74-1.73,1.21-.47.42-.91.87-1.35,1.32-.15.15-.27.33-.39.49-.07.09-.04.16.07.18.08.02.17.03.26.03.52.01,1.03,0,1.55.03.62.03,1.24.07,1.85.11.35.02.69.03,1.04.05.28.01.56.03.83.03.08,0,.18-.02.22-.08.29-.34.72-.47,1.07-.73.28-.21.62-.36.94-.52.45-.21.9-.4,1.39-.52.48-.12.95-.26,1.43-.39.05-.01.1-.02.15-.03.33-.04.65-.09.98-.12.39-.03.79-.06,1.19-.06.51,0,1.01,0,1.52.03.24.01.48.07.72.11.44.08.88.13,1.31.23.42.1.84.24,1.25.38.66.22,1.29.53,1.88.91.32.2.62.44.94.65.1.07.23.13.35.13.54,0,1.07,0,1.61-.03,1.11-.05,2.22-.11,3.32-.17ZM20.28,32.14c.7-.02,1.2-.04,1.7-.06.25-.01.51-.02.76-.05.45-.06.9-.14,1.34-.21.3-.05.6-.1.89-.17.29-.06.57-.14.86-.21.1-.02.2-.04.3-.07.32-.1.64-.21.96-.31.17-.05.34-.09.5-.16.22-.09.42-.21.64-.3.35-.15.71-.27,1.04-.45.62-.34,1.22-.7,1.81-1.09.63-.41,1.2-.91,1.71-1.46.4-.43.78-.87,1.09-1.37.03-.05.07-.09.11-.13.1-.09.23-.18.17-.33-.06-.15-.21-.12-.34-.13-.35-.03-.7-.05-1.05-.07-.19-.01-.39-.05-.58-.05-.95-.02-1.9-.02-2.85-.03-.06,0-.12-.02-.18-.03-.19-.02-.39-.06-.56.09-.41.37-.79.78-1.27,1.07-.46.28-.93.57-1.4.84-.12.07-.27.1-.4.15-.14.06-.28.12-.42.18-.22.08-.45.17-.68.24-.28.09-.55.19-.84.25-.37.08-.74.12-1.11.18-.32.05-.63.12-.95.13-.64.02-1.29,0-1.93,0-.14,0-.29,0-.43-.02-.52-.08-1.05-.16-1.56-.26-.41-.08-.82-.16-1.21-.28-.42-.13-.84-.31-1.24-.49-.4-.18-.79-.38-1.17-.58-.2-.11-.37-.25-.56-.38-.09-.06-.2-.1-.28-.17-.29-.27-.57-.55-.87-.81-.08-.07-.2-.12-.3-.12-1.05.02-2.11.05-3.16.09-.18,0-.37.03-.55.05-.15.02-.3.06-.45.06-.3.01-.61,0-.91.03-.23.02-.27.15-.13.33.05.07.11.14.16.21.46.66.98,1.28,1.59,1.81.6.53,1.21,1.03,1.89,1.46.03.02.06.04.09.06.26.15.56.23.78.46.02.02.06.02.08.04.43.2.87.4,1.3.58.35.15.7.31,1.07.43.5.16,1.01.3,1.52.43.46.12.91.23,1.38.3.65.11,1.29.2,1.95.26.63.06,1.26.07,1.69.09ZM34.29,8.97c.37-.03.5-.04.63-.18.31-.32.72-.41,1.12-.54.23-.08.47-.12.71-.19.54-.16,1.09-.29,1.53-.67.07-.06.14-.15.15-.23.02-.14,0-.29-.03-.43-.04-.16-.11-.31-.16-.47-.09-.3-.15-.62-.28-.9-.23-.49-.48-.98-.88-1.37-.24-.23-.45-.48-.69-.71-.18-.17-.37-.33-.57-.47-.28-.19-.56-.36-.85-.52-.36-.2-.72-.44-1.11-.57-.59-.2-1.18-.44-1.8-.57-.62-.13-1.23-.29-1.86-.37-.36-.05-.71-.12-1.07-.13-.59-.02-1.18-.02-1.77,0-.42.01-.83.07-1.25.11-.18.02-.36.05-.53.1-.16.04-.19.15-.07.27.04.04.09.07.14.1.53.33,1.06.67,1.59,1,.3.19.6.38.91.56.52.3,1.04.6,1.56.9.18.1.35.21.53.31.29.16.59.31.88.48.4.23.8.47,1.19.7.11.06.2.15.31.2.26.14.54.26.79.4.42.24.83.5,1.24.75.31.19.62.38.94.56.16.09.21.2.16.46-.03.17-.18.15-.28.13-.42-.1-.85-.19-1.26-.33-.63-.23-1.25-.49-1.87-.75-.58-.25-1.15-.5-1.72-.77-.37-.17-.73-.37-1.1-.56-.34-.17-.68-.34-1.02-.52-.49-.25-.98-.5-1.47-.75-.26-.13-.52-.27-.78-.4-.21-.11-.42-.23-.63-.35-.07-.04-.13-.09-.2-.12-.12-.04-.19.02-.15.14.03.11.08.21.14.3.15.23.35.44.48.68.21.41.52.75.77,1.14.38.58.89,1.06,1.39,1.53.28.27.64.47.98.67.54.32,1.12.54,1.71.73.14.05.27.1.41.13.43.09.86.17,1.29.24.61.1,1.23.18,1.85.28ZM15,.72c-.48.04-.97.07-1.45.12-.58.07-1.16.13-1.71.31-.12.04-.25.03-.36.07-.25.09-.49.21-.74.28-.4.11-.77.26-1.14.44-.54.27-1.06.57-1.55.9-.74.51-1.42,1.09-2.02,1.77-.35.4-.68.81-1.03,1.21-.16.19-.17.28,0,.47.25.27.5.54.74.8.31.34.63.68.94,1.03.27.3.52.61.78.91.07.09.14.16.27.13.35-.09.71-.16,1.06-.26.58-.15,1.14-.34,1.7-.54.83-.28,1.62-.64,2.38-1.07.28-.15.58-.28.83-.46.55-.38,1.09-.77,1.6-1.2.49-.42.95-.87,1.33-1.4.15-.22.34-.42.5-.63.11-.14.2-.29.3-.45.02-.03.02-.09,0-.11-.02-.02-.08-.02-.11,0-.05.02-.09.05-.13.08-.24.16-.48.34-.73.49-.42.25-.86.48-1.29.72-.21.12-.4.25-.61.37-.14.08-.29.15-.44.22-.6.32-1.2.65-1.8.96-.36.19-.72.38-1.09.56-.4.2-.8.39-1.21.57-.49.22-.99.41-1.49.62-.04.02-.08.03-.12.04-.28.11-.55.22-.84.31-.12.04-.27.06-.37.01-.24-.1-.23-.4.01-.56.37-.24.75-.46,1.12-.69.15-.09.28-.2.43-.3.28-.18.58-.34.86-.52.57-.37,1.14-.75,1.71-1.11.48-.31.99-.56,1.42-.94.02-.01.04-.02.05-.03.49-.31.99-.61,1.48-.92.35-.22.68-.46,1.03-.68.22-.14.44-.28.67-.42.38-.24.75-.48,1.12-.73.06-.04.11-.13.11-.2,0-.04-.1-.11-.16-.12-.17-.02-.35,0-.52-.01-.51-.02-1.01-.04-1.52-.07ZM3.01,7.71c-.1.65.16,1.24.35,1.83.16.49.41.96.63,1.43.12.27.26.53.38.79.16.33.33.66.47,1,.06.15.15.22.31.2.26-.04.52-.09.78-.12.34-.04.69-.07,1.03-.1.24-.02.33-.13.3-.37-.02-.12-.04-.24-.05-.37-.04-.58-.1-1.16-.11-1.74,0-.35-.11-.67-.27-.97-.11-.2-.31-.36-.49-.51-.43-.37-.8-.8-1.13-1.26-.27-.37-.55-.74-.99-.94-.02,0-.04-.02-.05-.03-.22-.22-.67-.1-.84.14-.2.31-.4.62-.32,1.02ZM35.73,12.69c.2.02.34-.11.49-.2.44-.26.9-.48,1.3-.79.56-.42,1.12-.87,1.61-1.36.49-.5.8-1.13,1.03-1.79.09-.26.01-.39-.26-.41-.09,0-.19,0-.27.04-.12.05-.22.13-.34.18-.09.03-.2.05-.29.03-.17-.05-.33-.12-.48-.2-.16-.08-.3-.07-.43.05-.37.34-.84.42-1.3.51-.33.06-.67.09-.98.19-.58.18-1.02.57-1.3,1.11-.28.53-.42,1.11-.6,1.68-.08.26.05.43.26.57.48.31,1.04.28,1.57.4ZM23.5,22.85s-.02,0-.03,0c0,.09,0,.18,0,.26,0,.09,0,.18,0,.26,0,.25.09.4.33.49.17.06.34.13.51.17.17.04.35.06.53.04.28-.02.55-.08.82-.13.66-.1,1.28-.31,1.84-.66.29-.18.38-.61.17-.87-.15-.19-.33-.37-.58-.45-.1-.03-.2-.06-.29-.1-.11-.04-.1-.11-.02-.17.04-.03.09-.06.13-.07.3-.1.54-.29.76-.51.39-.41.41-.56.09-1.02-.02-.03-.04-.06-.07-.08-.21-.14-.42-.28-.63-.4-.35-.19-.73-.28-1.13-.26-.62.02-1.24.06-1.85.08-.3,0-.44.13-.46.42-.04.65-.09,1.3-.12,1.95-.02.35,0,.7,0,1.05ZM12.13,22.57s.01,0,.02,0c0,.32,0,.64,0,.96,0,.16.08.27.23.32.22.08.44.15.66.21.29.07.47-.05.48-.35.02-.28,0-.56.03-.83,0-.1.08-.2.12-.3.11.05.21.09.32.14,0,0,.01.02.02.02.26.21.52.42.79.62.21.16.46.28.66.46.4.35.65.22.95,0,.14-.1.15-.2.04-.34-.06-.07-.11-.15-.18-.21-.3-.31-.61-.61-.92-.92-.09-.09-.09-.18,0-.26.1-.08.22-.15.32-.24.28-.23.56-.45.81-.71.21-.21.24-.55.02-.8-.18-.2-.35-.42-.55-.61-.12-.11-.29-.22-.45-.24-.38-.07-.77-.12-1.16-.13-.6-.02-1.19.04-1.78.18-.17.04-.26.14-.29.3-.02.08-.03.16-.03.25-.04.84-.08,1.67-.11,2.51ZM21.35,23.87s0,0,0,0c.1,0,.2,0,.29,0,.3-.01.43-.21.35-.49-.1-.37-.2-.74-.28-1.12-.09-.45-.16-.91-.24-1.36-.04-.2-.1-.4-.11-.61-.01-.23-.12-.43-.26-.58-.07-.08-.25-.07-.39-.1-.04,0-.07-.02-.11-.02-.39-.06-.77-.13-1.16-.18-.25-.03-.47.05-.6.27-.1.18-.17.37-.25.56-.2.46-.41.92-.6,1.38-.14.35-.27.7-.39,1.05-.1.27-.17.55-.28.81-.08.2-.07.35.11.46.26.15.54.26.85.23.25-.03.36-.15.42-.38.05-.21.12-.41.2-.61.07-.19.14-.21.35-.21.31,0,.61-.01.92-.02.11,0,.19,0,.24.12.08.18.17.36.25.54.09.18.22.28.43.27.08,0,.15,0,.23,0ZM9.16,19.3s0,0,0,.01c-.13,0-.26,0-.39,0-.4-.02-.73.13-1,.41-.32.33-.6.68-.79,1.11-.19.45-.37.88-.4,1.38-.02.4.12.73.32,1.02.22.32.58.49.93.63.55.22,1.12.21,1.71.16.54-.05.87-.39,1.2-.74.1-.1.19-.22.26-.34.04-.07.08-.18.06-.25-.05-.1-.14-.21-.24-.26-.13-.08-.29-.11-.43-.16-.24-.08-.36-.04-.5.17-.14.21-.29.43-.52.56-.1.05-.19.13-.28.19-.27.17-.85.12-.96-.36-.09-.38-.07-.74.08-1.09.11-.25.22-.5.34-.74.12-.23.24-.46.39-.68.11-.17.29-.14.36.06.05.13.08.28.1.42.07.36.25.69.73.58.08-.02.16,0,.25,0,.22,0,.38-.12.4-.34.01-.15.04-.31,0-.46-.04-.21-.08-.45-.2-.62-.19-.29-.47-.5-.82-.57-.2-.04-.41-.06-.61-.08ZM34.26,21.13s0-.02,0-.02c.08,0,.16,0,.23,0,.22,0,.38-.13.38-.35,0-.22-.05-.44-.09-.66,0-.04-.05-.08-.09-.1-.1-.08-.19-.17-.3-.24-.12-.07-.25-.13-.38-.18-.13-.05-.26-.06-.39-.11-.42-.14-.82-.3-1.27-.08-.44.22-.88.41-1.15.88-.27.47-.14,1,.21,1.3.27.23.6.38.91.58.24.16.48.31.71.49.16.13.12.3-.05.4-.05.03-.11.06-.16.1-.13.1-.26.11-.41.07-.29-.08-.55-.21-.77-.43-.27-.27-.58-.26-.84,0-.15.15-.15.31,0,.46.4.4.91.61,1.45.74.54.12,1.07.08,1.6-.09.5-.16.81-.5.93-1,.03-.12,0-.29-.08-.38-.17-.2-.37-.38-.59-.53-.21-.15-.47-.22-.7-.36-.26-.15-.5-.33-.74-.51-.15-.12-.21-.33-.13-.47.1-.16.21-.31.35-.43.17-.15.36-.06.41.16.02.1.04.2.07.3.04.18.15.32.34.36.18.04.36.06.55.08ZM32.87,15.18s0,.03,0,.05c.2-.05.39-.09.58-.16.17-.06.33-.17.51-.22.25-.07.51-.1.77-.14.42-.08.84-.17,1.24-.34.26-.11.39-.36.21-.57-.17-.2-.39-.4-.63-.5-.27-.12-.58-.21-.9-.13-.09.02-.19,0-.27-.02-.46-.12-.92-.26-1.39-.35-.48-.1-.9.01-1.21.41-.16.2-.26.43-.3.69-.04.27-.05.52.22.69.04.03.07.07.11.11.31.25.58.58,1.05.5ZM6.74,13.34s0-.01,0-.02c-.31.06-.63.11-.94.18-.25.06-.5.15-.74.25-.15.06-.19.24-.08.34.19.16.39.34.61.43.3.11.64.15.96.21.19.03.39,0,.59.04.33.06.65.14.98.21.36.08.68.03.99-.2.33-.24.58-.61,1.03-.68.05,0,.11-.11.11-.16,0-.05-.06-.12-.12-.16-.06-.04-.13-.05-.2-.07-.53-.13-1.05-.3-1.59-.39-.47-.07-.95-.12-1.43.01-.05.01-.11,0-.17,0ZM3.15,15.3s0,.01,0,.02c-.12,0-.25.02-.37.02-.22,0-.4.07-.55.23-.19.19-.2.34.03.5.23.15.48.27.73.38.32.14.65.26.97.38.26.1.52.19.79.27.25.08.5.14.75.22.17.05.36.13.53.03.35-.2.68-.41,1.02-.63.09-.06.08-.16.01-.25-.14-.17-.31-.28-.54-.3-.07,0-.14-.02-.21-.05-.17-.07-.34-.16-.52-.24-.77-.36-.77-.35-1.61-.37-.24,0-.47-.09-.7-.14-.11-.02-.22-.05-.33-.08ZM36.55,35.9c.17-.01.29-.02.41-.04.15-.02.31-.01.44-.08.49-.23.98-.45,1.4-.81.31-.26.6-.56.76-.92.15-.36.36-.74.21-1.17,0-.01,0-.03,0-.05-.01-.24-.14-.33-.38-.31-.34.03-.68.08-1.01-.03-.29-.09-.4-.02-.41.28-.01.32-.09.63-.23.92-.08.18-.17.35-.27.52-.1.19-.21.39-.33.57-.09.13-.25.23-.3.36-.07.19-.19.31-.34.43-.06.05-.13.15-.11.19.03.06.13.09.16.11ZM34.89,17.46c.19-.05.42-.11.65-.17.53-.13,1.07-.25,1.6-.39.29-.08.57-.2.85-.31.24-.09.48-.18.71-.28.11-.05.2-.12.18-.26-.02-.13-.13-.16-.23-.19-.2-.06-.4-.13-.6-.18-.15-.03-.31-.04-.47-.04-.13,0-.25.04-.38.05-.36.02-.72.02-1.08.05-.12,0-.25.06-.37.1-.27.1-.54.22-.82.32-.24.09-.5.15-.74.23-.06.02-.11.07-.16.12-.09.09-.08.18,0,.27.07.08.12.17.18.25.16.23.37.38.7.42ZM1.28,29.96s-.01.1-.02.16c-.05.31-.1.63-.15.94-.04.29-.07.58-.12.87-.02.14-.06.29.05.39.13.12.3.13.47.08.12-.03.24-.06.35-.1.36-.16.72-.32,1.07-.51.22-.12.25-.29.17-.52,0-.03-.02-.06-.02-.09,0-.35-.05-.7.04-1.05.07-.23-.01-.4-.24-.49-.33-.14-.67-.26-1.01-.38-.31-.12-.68.26-.61.54.01.04.01.09.02.15ZM34.04,27.12c.05.08.08.17.14.21.13.09.27.16.42.23.39.19.78.38,1.18.56.07.03.18.05.25.02.21-.11.41-.25.61-.38.09-.06.16-.16.26-.2.37-.16.76-.29,1.13-.44.07-.03.13-.1.19-.15-.06-.07-.11-.14-.17-.2-.03-.03-.07-.03-.11-.04-.28-.07-.55-.16-.84-.19-.29-.03-.56-.13-.83-.23-.31-.11-.62-.2-.89-.41-.15-.12-.25-.09-.4.04-.32.26-.57.59-.81.93-.05.07-.07.15-.12.25ZM8.55,29.04c-.09.02-.2.04-.32.07-.51.15-1.02.3-1.53.46-.07.02-.17.11-.17.17,0,.16,0,.34.14.47.23.24.54.29.84.37.38.1.76.18,1.11.35.31.15.61.18.89-.06.1-.09.2-.18.29-.28.05-.05.08-.12.12-.18.15-.18.12-.37-.07-.52-.23-.19-.46-.38-.67-.59-.17-.16-.38-.24-.64-.27ZM38.29,27.77c-.18.04-.46.08-.73.15-.35.09-.69.2-.86.57-.09.18-.11.34,0,.5.16.21.32.43.49.63.05.06.15.09.22.1.27.02.49-.11.71-.23.17-.1.34-.14.53-.14.25,0,.5,0,.75.08.14.05.29.02.4-.1.11-.12.13-.27.04-.41-.16-.26-.31-.52-.48-.77-.03-.04-.08-.07-.11-.1-.25-.24-.56-.26-.97-.27ZM32.21,31.06s.11-.06.16-.09c.16-.08.33-.17.5-.23.36-.14.78-.1,1.12-.33.16-.11.2-.19.08-.35-.05-.07-.09-.16-.15-.23-.18-.22-.35-.45-.55-.66-.13-.14-.29-.24-.44-.37-.27-.23-.28-.25-.63-.02-.03.02-.05.05-.08.07-.21.15-.41.3-.62.46-.17.13-.34.25-.5.39-.13.11-.1.24.04.34.07.05.14.12.2.19.14.17.26.34.4.51.12.14.25.26.46.3ZM38.73,30.01s0-.03,0-.04c-.22.04-.44.08-.67.1-.36.05-.49.22-.41.57.05.22.04.43-.01.64-.09.32.06.48.4.49.56.01,1.12-.1,1.67.11.16.06.28-.02.29-.19.01-.18,0-.36-.03-.53-.02-.19-.09-.38-.09-.58-.01-.41-.36-.7-.77-.63-.13.02-.25.03-.38.04ZM12.54,35.68s0-.02,0-.02c-.23.03-.47.05-.7.08-.13.02-.18.09-.12.22.08.17.17.34.24.52.19.43.53.72.86,1.03.18.17.43.18.65.26.29.12.6.08.9.09.2,0,.28-.19.15-.34-.14-.16-.24-.32-.3-.53-.07-.24-.18-.46-.24-.7-.07-.25-.21-.39-.46-.44-.11-.02-.22-.06-.32-.09-.11-.03-.21-.08-.31-.09-.11-.02-.23,0-.34,0ZM5.72,28.26s.11-.02.18-.03c.37-.06.62-.33.92-.52.2-.12.19-.3.06-.49-.16-.22-.32-.44-.45-.68-.23-.44-.51-.51-.91-.22-.03.02-.05.05-.08.07-.34.24-.7.42-1.09.54-.11.03-.23.03-.32.08-.08.05-.16.15-.16.23,0,.06.11.14.19.19.06.04.15.02.23.04.09.02.19.02.26.07.19.14.39.29.56.46.17.17.38.24.63.26ZM27.16,32.44c0,.1,0,.26.02.42.05.3.24.41.52.31.08-.03.16-.05.24-.07.4-.1.81-.18,1.21-.29.26-.07.48-.45.41-.71-.07-.28-.2-.54-.4-.76-.13-.15-.29-.23-.5-.18-.41.1-.82.2-1.21.38-.21.1-.29.25-.31.46,0,.12,0,.25,0,.43ZM1.62,33.01s0-.02,0-.03c-.1.02-.2.03-.3.06-.28.1-.33.32-.13.55.14.16.28.32.42.49.47.54,1.1.74,1.78.79.06,0,.12,0,.18-.02.19-.04.24-.19.12-.35-.11-.14-.23-.27-.31-.42-.19-.36-.28-.76-.33-1.16-.04-.28-.17-.35-.42-.24-.26.11-.53.21-.8.31-.07.02-.14.02-.21.03ZM12.73,33.36c.31,0,.51.05.74.2.27.17.37.14.53-.13.02-.04.03-.08.05-.11.12-.21.25-.42.47-.54.11-.06.17-.13.14-.26-.03-.13-.12-.17-.24-.2-.29-.08-.58-.18-.85-.31-.25-.12-.5-.21-.78-.21-.2,0-.34.08-.46.25-.19.28-.4.55-.7.74-.14.09-.15.2,0,.31.05.04.11.08.17.1.34.07.68.12.93.17ZM6.9,34.65c.45,0,.59-.21.39-.57-.1-.18-.17-.37-.15-.58.01-.16-.11-.3-.26-.34-.22-.06-.45-.1-.66-.18-.12-.04-.23-.12-.33-.21-.09-.09-.19-.14-.32-.11-.13.03-.21.11-.23.24-.03.21-.07.43-.08.64-.02.44.05.86.32,1.23.19.27.43.31.68.1.21-.17.44-.21.65-.21ZM7.25,32.64c.21,0,.37-.11.51-.25.11-.11.24-.19.35-.3.11-.11.23-.22.31-.36.1-.17.04-.29-.15-.33-.6-.15-1.19-.34-1.75-.62-.15-.07-.29-.08-.42.04-.13.13-.27.25-.35.41-.09.17-.16.36-.19.55-.04.22.11.37.34.36.18,0,.32.07.47.15.26.13.53.23.8.34.02,0,.05,0,.08,0ZM31.55,36.58s0,.03,0,.05c.39-.05.79-.09,1.17-.16.15-.03.28-.14.43-.2.29-.11.49-.34.7-.55.17-.18.12-.33-.11-.43-.19-.09-.38-.17-.57-.27-.14-.07-.26-.16-.4-.23-.22-.1-.4-.03-.51.19-.04.07-.07.16-.13.21-.31.26-.62.51-.93.76-.05.04-.1.08-.15.11-.11.07-.23.14-.34.2-.08.04-.18.05-.16.17.02.11.1.14.21.14.26,0,.53,0,.79,0ZM32.88,33.01c-.32,0-.41.04-.4.24.01.32-.06.67.35.86.4.18.75.45,1.16.6.29.12.59.04.73-.27.1-.23.21-.46.3-.69.05-.12.07-.25.09-.37.02-.11.03-.23-.08-.31-.12-.08-.24-.07-.36-.01-.08.04-.16.1-.24.1-.21,0-.42-.02-.63-.04-.31-.03-.62-.07-.91-.1ZM35.04,32.1c-.01-.1-.04-.21-.03-.31.02-.29-.12-.51-.31-.7-.21-.21-.37-.21-.62-.05-.14.09-.29.16-.45.2-.29.06-.59.09-.88.12-.16.02-.25.09-.27.25-.01.12,0,.25.01.37,0,.15.05.28.18.36.28.19.58.34.94.25.09-.02.18-.05.27-.05.22-.02.46-.07.67-.03.31.06.48-.17.49-.41ZM29.5,33.89c-.02-.11-.02-.17-.04-.24-.04-.17-.11-.19-.25-.08-.08.06-.17.13-.27.14-.31.05-.63.07-.95.1-.24.02-.47.05-.61.29-.11.18-.23.34-.34.51-.11.16-.17.47-.09.57.14.17.33.14.53.12.27-.03.56-.07.83,0,.5.11.71-.19.93-.56.08-.14.12-.32.17-.48.04-.13.07-.27.1-.37ZM3.7,29.39c.09-.03.16-.05.21-.08.25-.15.49-.3.74-.44.13-.07.16-.17.09-.3-.16-.35-.47-.5-.81-.61-.14-.05-.29-.07-.42-.14-.24-.14-.44-.08-.67.09-.1.07-.21.15-.32.2-.26.11-.52.2-.78.3-.11.04-.18.1-.17.22,0,.13.1.14.2.17.37.1.74.21,1.1.32.28.09.55.18.82.27ZM27.53,35.86s0,0,0,0c-.17,0-.33,0-.5,0-.2-.01-.35.07-.45.22-.13.19-.27.4-.32.63-.08.34-.23.62-.42.9-.11.16-.08.23.11.28.46.11.86-.11,1.22-.33.55-.32.9-.82,1.11-1.43.06-.17,0-.26-.18-.27-.19,0-.38,0-.57,0ZM4.28,14.86s0,.02,0,.02c.1-.04.24-.05.27-.12.03-.06-.05-.19-.09-.28,0,0-.01-.02-.02-.02-.23-.3-.27-.61-.07-.95.04-.06.04-.17.02-.23-.05-.14-.14-.26-.2-.4-.21-.41-.41-.82-.62-1.23-.12-.24-.23-.47-.35-.71-.03-.05-.1-.08-.15-.11-.03.05-.09.09-.09.14,0,.2,0,.41,0,.62,0,.18,0,.36,0,.53,0,.16-.01.35.06.48.12.22.14.44.1.68-.01.1,0,.23.06.32.06.1.18.15.26.23.2.19.43.39.37.7-.04.24.06.3.25.32.06,0,.11,0,.17.01ZM40.06,13.17s.03,0,.04,0c-.04-.31-.09-.62-.11-.93-.01-.23-.12-.4-.25-.57-.14-.19-.31-.18-.44.02-.13.21-.28.42-.41.64-.19.32-.39.64-.57.97-.05.1-.1.22.04.29.11.05.23.07.35.11.31.08.62.15.92.25.23.08.38,0,.4-.24.01-.18.02-.36.03-.54ZM8.57,36.26c.34.06.68-.05.97-.29.04-.03.1-.06.15-.08.18-.07.27-.22.32-.39.04-.12-.03-.21-.16-.2-.13.01-.25.06-.38.08-.12.03-.24.06-.36.07-.45.02-.84-.15-1.2-.39-.19-.13-.35-.13-.54,0-.13.08-.27.14-.41.21-.11.05-.23.09-.34.15-.16.09-.16.2,0,.29.27.13.54.25.82.36.1.04.22.03.31.07.25.12.5.15.81.12ZM13.51,35.17c.32,0,.44-.18.34-.4-.03-.06-.05-.12-.08-.19-.16-.36-.4-.63-.82-.69-.35-.04-.69-.1-1.04-.13-.28-.02-.47.21-.43.49.01.09.03.18.01.26-.04.27,0,.34.27.38.08.01.15,0,.23,0,.22,0,.43-.04.65-.03.12,0,.24.05.35.09.2.07.39.16.51.21ZM1.51,13.71c-.21.03-.42.04-.63.08-.08.02-.2.08-.21.13-.01.08.03.21.09.27.21.17.35.37.48.6.22.4.41.44.78.16.02-.02.04-.03.06-.05.18-.15.37-.2.6-.16.11.02.24,0,.34-.05.17-.06.19-.26.04-.35-.26-.16-.48-.4-.81-.42-.06,0-.13-.02-.17-.06-.17-.13-.36-.16-.57-.16ZM36.61,15.1l.02-.04s.08,0,.12,0c.24-.01.27-.05.28-.29,0-.09.01-.2.06-.27.11-.17.24-.34.38-.5.09-.1.13-.2.11-.34-.02-.08-.02-.18,0-.26.06-.18.14-.36.22-.52.08-.16.19-.3.27-.46.03-.06,0-.14.01-.22-.08.02-.17.02-.24.06-.36.21-.7.45-1.06.65-.2.11-.22.24-.09.43.11.16.22.36.25.55.06.37-.18.62-.43.85-.07.06-.12.15-.18.22.09.04.19.08.28.12ZM39.36,15.43c.14-.04.28-.06.37-.12.05-.03.02-.17.03-.26,0,0,0-.01,0-.02.03-.35-.13-.57-.46-.65-.05-.01-.09-.02-.13-.04-.53-.17-1-.05-1.43.3-.14.11-.13.28.03.35.09.04.21.07.31.04.35-.09.64,0,.92.22.1.08.24.11.36.16ZM2.33,11.26s0,0,0,0c0-.1.02-.21.01-.31,0-.14-.02-.28-.05-.41,0-.04-.08-.11-.11-.1-.19.03-.4.04-.53.2-.28.33-.5.7-.65,1.11-.04.11,0,.17.1.17.12,0,.25-.01.36-.06.23-.09.44-.12.66.02.14.08.21.03.22-.13,0-.16,0-.33,0-.49ZM29.49,20.65c.2.01.33-.11.4-.35.07-.24.16-.48.26-.71.1-.22.02-.43-.22-.5-.1-.03-.2-.04-.3-.05-.23-.04-.36.06-.4.29-.05.26-.09.51-.21.75-.14.26.04.52.33.56.05,0,.09,0,.14.01ZM2.54,12.98s-.01-.11-.05-.16c-.29-.38-.66-.69-1.19-.39-.05.03-.1.05-.15.08-.1.07-.22.13-.29.23-.05.07-.07.19-.04.27.03.06.15.11.23.12.11,0,.23-.02.35-.06.12-.04.22-.02.34.04.13.08.26.14.4.19.24.09.39-.02.41-.32Z"/>
    <path class="st0" d="M22.72,14.41c-.14,0-.29,0-.43,0-.21,0-.35-.19-.27-.39.07-.19.1-.38.1-.59,0-.24.03-.48.06-.72.01-.11.17-.24.29-.23.26.03.52.05.77.1.39.08.48.54.23.8-.16.17-.16.2,0,.38.11.14.1.28.03.42-.07.13-.16.24-.33.23-.14,0-.29,0-.43,0ZM22.74,13.66l-.02-.03c-.07.04-.18.07-.22.13-.03.05-.02.19.03.22.08.06.19.1.3.11.11.02.19-.04.21-.16.01-.13-.03-.22-.16-.27-.04-.01-.09-.01-.14-.01ZM22.86,13.29c.1,0,.22,0,.24-.15.01-.12-.11-.22-.27-.22-.14,0-.23.07-.23.19,0,.13.06.18.26.18Z"/>
    <path class="st0" d="M12.69,15.03c-.09-.54.3-.76.62-1.01.14-.11.29-.19.49-.17.15.01.28.05.39.15.07.07.14.13.21.21.31.36.25.96-.07,1.31-.3.33-.65.42-1.06.38-.04,0-.1-.02-.13-.04-.25-.23-.57-.43-.45-.83ZM14.11,14.93q0-.37-.25-.59c-.12-.1-.26-.11-.37-.03-.17.12-.35.25-.31.51.01.07,0,.13,0,.2,0,.17.12.34.29.41.17.07.35.02.48-.09.15-.13.17-.28.15-.42Z"/>
    <path class="st0" d="M25.46,11.87c-.49,0-.82-.27-.89-.71-.04-.21.06-.39.18-.54.22-.28.54-.36.88-.28.35.08.58.3.64.67.04.24-.06.45-.22.61-.17.17-.37.31-.59.24Z"/>
    <path class="st0" d="M15.34,10.32c.44,0,.86.33.96.65.08.27-.15.62-.33.73-.36.23-.71.23-1.08,0-.43-.27-.44-.92,0-1.17.17-.1.36-.17.46-.21Z"/>
    <path class="st0" d="M26.38,15.53c-.28-.09-.65-.21-.86-.53-.08-.13-.07-.35-.03-.52.07-.26.19-.5.29-.74.02-.05.03-.11.06-.16.05-.08.1-.2.16-.21.08-.01.2.04.26.11.05.06.07.21.04.26-.2.25-.18.57-.31.84-.11.24.11.49.37.46.04,0,.11-.02.12-.05.1-.22.26-.41.29-.66.02-.15.05-.3.19-.4.09-.06.17-.09.27-.03.11.07.19.17.16.31-.03.1-.08.2-.12.3-.08.21-.17.41-.24.62-.08.22-.33.42-.64.42Z"/>
    <path class="st0" d="M17.27,13.82c0,.22,0,.39,0,.56,0,.14-.1.23-.21.27-.1.04-.19,0-.24-.09-.03-.04-.04-.1-.04-.16,0-.21-.02-.41-.09-.61-.07-.18-.03-.41-.03-.61,0-.11-.05-.25.08-.31.08-.04.2-.07.28-.05.06.02.11.13.13.21.02.08,0,.17.01.25,0,.04.05.1.09.11.04,0,.11-.02.13-.05.08-.13.16-.26.21-.4.07-.2.24-.33.45-.32.11,0,.14.04.09.14-.09.17-.18.33-.25.51-.06.15-.08.39.1.54.15.12.28.26.4.4.1.11.05.24-.09.27-.21.03-.39,0-.53-.2-.08-.11-.17-.22-.27-.32-.05-.05-.12-.08-.21-.14Z"/>
    <path class="st0" d="M20.71,14.31c-.1-.03-.19-.05-.29-.08-.02,0-.05,0-.07,0-.21.02-.41.04-.62.05-.14,0-.4-.24-.41-.37-.02-.21-.02-.41.18-.57.07-.06.13-.2.12-.29-.05-.3.13-.46.32-.63.12-.11.43-.09.54.04.03.04.08.12.07.14-.04.06-.11.12-.17.13-.09.02-.19,0-.23.11-.04.12-.02.24.07.34.11.13.23.23.41.14.1-.04.2-.06.24.04.04.09.07.22.03.3-.08.15-.11.27.03.41.04.04.04.12.06.18-.06.01-.12.02-.17.03-.03,0-.06,0-.09,0v.02ZM19.75,13.73c0,.17.05.24.2.24.13,0,.23-.07.23-.17,0-.11-.16-.27-.27-.27-.13,0-.16.09-.16.19Z"/>
    <path class="st0" d="M10.84,15.81c.19-.2.37-.41.57-.58.11-.09.27-.14.41-.19.22-.07.58.26.48.6-.08.28-.01.44.24.6.02.01.04.02.05.03.08.07.24.11.15.27-.11.19-.29.23-.44.1-.2-.17-.39-.35-.59-.52.02-.01.04-.03.06-.04.03-.11.09-.22.1-.33,0-.07-.06-.17-.12-.2-.1-.04-.21,0-.28.11-.08.14-.03.39.07.52.09.12.15.25.22.38.07.12.15.24.2.38.02.05,0,.14-.04.18-.17.19-.27.23-.39-.02-.15-.31-.3-.61-.46-.92-.07-.13-.15-.24-.23-.36Z"/>
    <path class="st0" d="M27.93,15.5c-.06.04-.13.07-.15.12-.02.05,0,.14.03.18.09.1.2.17.3.26.07.06.15.1.22.17.08.07.06.16-.01.23-.07.07-.15.09-.23.02-.15-.12-.3-.23-.45-.34-.06-.04-.13-.08-.2-.11-.27-.1-.32-.3-.16-.53.12-.16.2-.35.3-.53.11-.19.2-.39.33-.57.11-.16.2-.14.36-.01.17.14.36.25.54.37.07.04.14.08.2.14.07.07.1.16.02.24-.08.08-.17.11-.28.05-.04-.02-.08-.06-.12-.1-.05-.05-.09-.1-.14-.14-.1-.08-.25-.06-.31.02-.07.11,0,.2.07.27.11.09.24.14.33.23.04.03.04.15.01.2-.04.08-.12.13-.22.07-.08-.05-.15-.1-.23-.14-.06-.03-.12-.07-.2-.11Z"/>
    <path class="st0" d="M16.39,14.46c.04.29-.03.41-.27.48-.17.04-.35.06-.52.09-.28.05-.63-.33-.67-.54-.03-.13-.05-.27-.06-.41-.03-.21.06-.39.19-.54.21-.23.4-.49.74-.55.15-.03.31.04.36.19.04.11-.06.22-.19.24-.09,0-.19,0-.27.04-.17.09-.3.21-.27.44.01.12,0,.24,0,.36,0,.21.13.35.35.34.13,0,.25-.05.38-.08.08-.02.15-.04.24-.06Z"/>
    <path class="st0" d="M30.19,16.27c-.07-.06-.14-.13-.21-.17-.06-.03-.15-.08-.2-.05-.05.02-.09.12-.1.18-.01.08.02.17.02.26.01.2.06.42.02.61-.04.22-.35.42-.58.2-.16-.16-.31-.33-.47-.49-.06-.07-.09-.15,0-.19.05-.03.14,0,.2.02.06.03.09.11.14.14.06.03.14.05.19.03.04-.02.08-.1.09-.16,0-.24,0-.49,0-.73,0-.19.13-.3.26-.37.12-.06.27-.05.39.06.11.11.22.21.32.32.13.15.12.23-.08.34Z"/>
    <path class="st0" d="M23.78,14.46s0-.07.02-.11c.16-.42.21-.87.3-1.31.02-.13.17-.21.32-.18.13.03.24.17.2.28-.05.19-.12.38-.16.57-.03.17-.05.35-.05.53,0,.15.12.23.31.22.13,0,.24,0,.27.16,0,.06.02.16-.02.19-.05.05-.15.09-.21.08-.27-.05-.55-.11-.82-.18-.12-.03-.17-.13-.16-.25Z"/>
    <path class="st0" d="M15.89,29.4c.04.12.07.28.14.44.02.06.11.1.18.12.02,0,.09-.09.11-.14.05-.15.09-.3.13-.45.01-.04.04-.08.07-.12.12-.15.3-.17.44-.03.04.04.08.15.06.18-.24.4-.35.86-.51,1.29-.09.24-.24.3-.47.19-.04-.02-.09-.03-.13-.05-.14-.06-.24-.15-.24-.32,0-.05-.02-.1-.03-.15-.03-.16-.06-.32-.1-.48-.01-.06-.04-.14-.08-.16-.05-.02-.15.01-.17.05-.07.13-.15.27-.17.41-.02.15-.08.29-.21.31-.11.02-.25-.05-.36-.11-.09-.06-.05-.15,0-.24.1-.18.17-.37.25-.56.11-.26.19-.52.31-.77.05-.11.15-.2.3-.12.08.04.17.06.25.1.2.12.3.29.23.59Z"/>
    <path class="st0" d="M19.84,31.46c-.18,0-.35,0-.53,0-.17,0-.27-.16-.21-.32.02-.05.03-.1.04-.15.02-.32.04-.63.07-.95.01-.12.03-.25.07-.36.05-.13.17-.16.3-.15.27.03.55.04.82.06.07,0,.15,0,.22,0,.11.01.19.08.19.19,0,.11-.08.18-.19.18-.2,0-.39,0-.59,0-.12,0-.21.04-.21.17,0,.13.07.2.2.2.11,0,.23,0,.34,0,.12,0,.22.04.25.16.02.07-.15.21-.25.22-.14,0-.29,0-.43,0-.11,0-.21.01-.23.15-.01.09.12.22.24.23.15,0,.3,0,.45,0,.13,0,.24.09.24.19,0,.1-.11.18-.24.19-.18,0-.36,0-.54,0Z"/>
    <path class="st0" d="M26.71,29.33c-.02.24-.05.51-.08.78,0,.05-.04.12-.08.14-.16.08-.33.16-.5.21-.08.03-.11-.03-.08-.12.06-.21.13-.42.2-.62.07-.18.03-.41,0-.61-.01-.13-.22-.25-.33-.22-.13.03-.23.15-.2.29.02.07.08.14.13.19.08.07.18.12.17.25,0,.17-.07.21-.24.23-.26.04-.44-.1-.52-.29-.06-.16-.07-.4,0-.53.12-.19.33-.35.53-.48.3-.19.8-.02.94.31.05.13.03.29.04.47Z"/>
    <path class="st0" d="M27.83,28.75c-.06.08-.1.14-.15.19-.08.09-.19.12-.31.1-.15-.02-.41-.35-.43-.5-.05-.35.16-.56.41-.76.21-.17.46-.2.71-.17.2.03.31.2.39.36.07.14.09.3.1.45.02.14-.01.29,0,.43.03.23-.05.4-.23.54-.09.06-.17.12-.26.17-.1.05-.14,0-.13-.09.02-.19.05-.37.07-.56.02-.14.04-.27.05-.41.02-.18-.08-.3-.21-.41-.11-.09-.24-.08-.35.03-.09.09-.1.23,0,.33.09.1.21.18.32.28Z"/>
    <path class="st0" d="M23.92,31.06c.03-.09.04-.14.06-.19.01-.03.05-.06.05-.09-.03-.18.07-.29.19-.41.03-.03.06-.09.06-.14,0-.19,0-.38,0-.57,0-.14-.11-.19-.22-.22-.12-.02-.23.02-.29.12-.07.11-.05.22.03.31.06.06.12.12.17.18.1.12,0,.32-.15.34-.31.05-.59-.2-.59-.51,0-.42.38-.79.8-.79.22,0,.43-.02.6.15.09.09.15.19.14.32-.03.3-.03.6-.07.9-.03.2-.13.39-.32.49-.12.06-.28.06-.47.09Z"/>
    <path class="st0" d="M18.37,29.85c-.2,0-.41-.03-.55.16-.05.07-.1.16-.11.24-.02.22-.02.44.19.6.1.07.19.14.32.12.05,0,.12-.02.15,0,.08.05.18.11.19.18.02.1-.07.17-.18.19-.53.06-.93-.18-1.25-.57-.03-.04-.04-.1-.05-.16,0-.06,0-.11,0-.17-.08-.44.18-.7.49-.93.07-.05.17-.08.25-.08.25-.01.51,0,.76,0,.15,0,.23.08.29.2.05.09-.06.23-.19.24,0,0-.01,0-.02,0-.1,0-.2,0-.29,0Z"/>
    <path class="st0" d="M12.17,28.72c.06.05.11.12.18.15.1.05.2.09.31.1.11,0,.18-.08.14-.2-.05-.18-.1-.36-.16-.54-.09-.28.14-.61.44-.62.38-.01.62.21.82.49.1.14-.03.19-.13.27-.07-.06-.13-.14-.2-.17-.09-.04-.2-.08-.28-.06-.05.01-.1.15-.1.22,0,.1.03.21.09.3.18.29.12.58-.16.76-.21.13-.43.07-.63-.04-.14-.07-.26-.18-.37-.29-.16-.16-.15-.2.05-.37Z"/>
    <path class="st0" d="M22.17,30.1c-.15,0-.3.02-.36-.14-.06-.16.08-.24.16-.36.15-.21.36-.21.58-.19.1,0,.18.08.18.19.02.49.05.97.06,1.46,0,.21-.06.27-.28.27-.2,0-.27-.08-.28-.28-.02-.32-.04-.63-.06-.96Z"/>
    <path class="st0" d="M14.79,28.58s-.02.04-.03.06c-.23.42-.46.84-.7,1.24-.05.09-.19.22-.26.2-.13-.03-.24-.15-.35-.25-.02-.02,0-.1.02-.14.23-.4.46-.79.7-1.19.16-.27.43-.27.59,0,.01.02.02.04.03.07Z"/>
    <path class="st0" d="M25.73,20.03c.2.01.36-.02.48.04.15.07.3.19.4.33.04.05,0,.23-.07.28-.34.3-.69.6-1.17.67-.25.04-.37-.07-.34-.31.02-.15.03-.3.03-.46,0-.28.1-.43.38-.5.11-.03.23-.04.3-.05Z"/>
    <path class="st0" d="M25.28,23.09c-.11,0-.23.02-.34,0-.06-.01-.14-.1-.13-.15.01-.22.04-.45.08-.67.02-.12.1-.17.22-.17.26.01.52,0,.77.04.18.03.35.12.5.21.11.06.08.24-.05.34-.43.32-.5.41-1.05.4Z"/>
    <path class="st0" d="M14.66,20c.26,0,.48.07.58.32.04.09.04.23,0,.3-.19.32-.44.58-.79.75-.14.07-.26.18-.41.24-.09.04-.24.06-.31.01-.06-.04-.09-.19-.08-.29.02-.3.06-.6.09-.91.02-.15.08-.27.24-.31.23-.05.45-.08.68-.12Z"/>
    <path class="st0" d="M19.25,21.96c.01-.05.02-.11.04-.16.08-.23.17-.45.25-.68.04-.11.03-.23.06-.35.04-.15.09-.3.15-.44.02-.04.1-.1.12-.09.05.03.11.09.12.14.03.15.04.3.06.44.04.35.07.7.12,1.04.03.24-.01.33-.25.37-.15.02-.31.03-.45,0-.14-.02-.23-.12-.21-.28Z"/>
  </g>
  <g>
    <rect class="st0" x="66.95" y="27.32" width="10.85" height="1.18"/>
    <path class="st0" d="M95.92,27.47v.87h-17.96v-.87h17.96M96.07,27.32h-18.27v1.18h18.27v-1.18h0Z"/>
    <rect class="st0" x="96.07" y="27.32" width="18.84" height="1.18"/>
    <path class="st0" d="M133,27.47v.87h-17.93v-.87h17.93M133.15,27.32h-18.24v1.18h18.24v-1.18h0Z"/>
    <rect class="st0" x="133.18" y="27.32" width="10.72" height="1.18"/>
    <g>
      <path class="st0" d="M80.86,23.47c.35.39.59.7.7.93.11.21.16.41.16.61,0,.16-.04.32-.11.48-.12.25-.3.37-.53.37-.4,0-.93-.42-1.58-1.25-.4-.51-.7-.94-.87-1.27-.15-.27-.35-.69-.61-1.27-.28-.61-.5-1.06-.66-1.35-.14-.26-.48-.39-1-.39-.11,0-.26,0-.45.02-.14,0-.23.01-.29.01-.52.01-1.3.12-2.32.3-1.15,1.86-1.87,2.97-2.14,3.31-.46.57-.86.85-1.2.85-.09,0-.17-.02-.25-.05-.12-.05-.21-.14-.25-.27-.02-.05-.03-.11-.03-.18,0-.38.27-1.08.82-2.1.36-.67.55-1.07.55-1.19h0c0-.05-.06-.07-.17-.07-.07,0-.18.01-.34.03-.16.02-.27.03-.35.03-.17,0-.29-.05-.35-.14-.03-.05-.05-.1-.05-.16,0-.07.02-.15.06-.23.15-.34.33-.6.55-.77.19-.14.48-.27.87-.4.68-.21,1.42-1.29,2.2-3.23.03-.08.09-.25.19-.51.31-.88.59-1.53.83-1.94.42-.73.88-1.1,1.38-1.11.99,0,1.58.58,1.77,1.74.22,1.37.5,2.58.86,3.63.02.06.05.15.08.26.06.23.13.38.19.44.05.05.13.08.25.08.03,0,.07,0,.11,0,.06,0,.14-.02.26-.04.23-.04.4-.07.53-.07.3,0,.53.1.7.29.09.1.13.2.13.31,0,.05-.01.11-.03.16-.12.34-.57.63-1.35.86l.07.18c.51,1.28.97,2.18,1.37,2.69.06.07.16.19.31.36M76.38,18.45c-.03-.13-.07-.35-.13-.65-.25-1.3-.49-2.12-.71-2.48-.24.43-.61,1.32-1.11,2.67-.16.44-.27.73-.33.89.21-.03.54-.1,1-.2.59-.13,1.01-.21,1.29-.23"/>
      <path class="st0" d="M86.94,19.04c.38.11.96.3.95.78,0,.01,0,.03,0,.04,0,.01-.02.02-.04.03-.06.04-.11.11-.14.18-.11.23-.11.5-.11.75,0,.28.02.61.07,1.01.03.28.05.47.06.57v.27c.04.82.05,1.56.05,2.22,0,1-.03,1.82-.11,2.44-.08.69-.24,1.29-.5,1.8-.39.8-.96,1.28-1.7,1.43-.16.03-.33.05-.5.05-.67,0-1.28-.22-1.84-.66-.27-.21-.51-.48-.7-.8-.09-.16-.17-.3-.25-.4-.38-.56-.57-1.02-.57-1.39,0-.27.1-.49.31-.66.06-.03.11-.04.17-.04.31,0,.65.29.99.86.22.35.48.65.8.9.35.28.67.42.97.42.41,0,.72-.28.91-.84.19-.55.28-1.32.28-2.33,0-.35-.01-.74-.03-1.15-.04-.59-.05-1.08-.05-1.45,0-.13,0-.26,0-.36-.14.16-.32.42-.54.79-.52.84-1.04,1.35-1.57,1.5-.14.04-.29.06-.43.06-.45,0-.86-.19-1.22-.56-.33-.35-.54-.76-.61-1.21-.04-.22-.05-.44-.05-.65,0-.88.31-1.67.93-2.38.81-.92,1.83-1.38,3.07-1.38h.17c.38,0,.78.06,1.21.18M83.67,21.31c-.21.3-.35.64-.44,1-.04.15-.05.28-.05.4,0,.25.08.44.24.56.01,0,.03.01.05.01.31,0,1.04-.85,2.16-2.54.16-.23.25-.37.28-.42-.03-.06-.12-.09-.27-.09-.28,0-.62.1-1.01.29-.43.22-.75.48-.96.78"/>
      <path class="st0" d="M95.63,20.93c.32-.23.57-.35.73-.35s.25.12.25.36c-.11.73-.53,1.5-1.26,2.3-.71.78-1.44,1.29-2.18,1.54-.27.06-.53.08-.79.08-1.3,0-2.5-.72-3.59-2.15-.37-.49-.56-1.16-.56-2.01,0-.36.03-.75.1-1.18.12-.77.75-1.28,1.89-1.53.16-.03.31-.05.46-.05.41,0,.8.13,1.16.39.41.29.76.73,1.04,1.32.07.26.11.51.11.74,0,.68-.33,1.23-.98,1.64-.11.07-.25.13-.43.19-.2.07-.32.11-.36.13-.09.05-.14.11-.14.18h0c0,.1.09.23.23.38.31.33.67.49,1.07.49.12,0,.24-.01.36-.04.52-.11,1.04-.47,1.56-1.06.7-.79,1.14-1.25,1.32-1.39M90.33,21.47c.28,0,.52-.1.7-.29.17-.18.27-.4.29-.66,0-.04,0-.09,0-.13,0-.21-.05-.39-.16-.55-.14-.22-.35-.34-.62-.38-.04,0-.07,0-.1,0-.18,0-.32.07-.41.21-.1.15-.15.35-.15.61,0,.58.15.98.45,1.19"/>
      <path class="st0" d="M134.26,20.93c.32-.23.57-.35.73-.35s.25.12.25.36c-.11.73-.53,1.5-1.26,2.3-.71.78-1.44,1.29-2.18,1.54-.27.06-.53.08-.79.08-1.3,0-2.5-.72-3.59-2.15-.37-.49-.56-1.16-.56-2.01,0-.36.03-.75.1-1.18.12-.77.75-1.28,1.89-1.53.16-.03.31-.05.46-.05.41,0,.8.13,1.16.39.41.29.76.73,1.04,1.32.08.26.11.51.11.74,0,.68-.33,1.23-.98,1.64-.11.07-.25.13-.43.19-.2.07-.32.11-.36.13-.09.05-.14.11-.14.18h0c0,.1.09.23.23.38.31.33.67.49,1.07.49.12,0,.24-.01.36-.04.52-.11,1.04-.47,1.56-1.06.7-.79,1.14-1.25,1.32-1.39M128.96,21.47c.28,0,.52-.1.7-.29.17-.18.27-.4.29-.66,0-.04,0-.09,0-.13,0-.21-.05-.39-.16-.55-.14-.22-.35-.34-.63-.38-.04,0-.07,0-.1,0-.18,0-.32.07-.41.21-.1.15-.15.35-.15.61,0,.58.15.98.45,1.19"/>
      <path class="st0" d="M103.31,23.08c.12.44.18.8.18,1.07,0,.22-.04.38-.12.49-.13.16-.34.24-.62.24-.11,0-.23-.01-.37-.04-.38-.06-.68-.51-.9-1.33-.13-.48-.28-1.32-.44-2.51-.11-.81-.2-1.33-.26-1.56-.67.48-1.27,1.11-1.51,1.91-.25.84-.13,3.24-1.49,3.24-.27,0-.51-.18-.73-.55-.13-.23-.19-.6-.19-1.12,0-.47.05-1.06.16-1.78.09-.62.14-1.05.15-1.28,0-.45.13-.79.37-1,.17-.15.38-.23.64-.23.1,0,.21.01.33.04.29.06.44.16.47.29.15-.15.34-.4.57-.76.22-.33.39-.57.53-.72.1-.11.27-.24.49-.38.31-.18.58-.27.81-.27.28,0,.49.13.62.4.37.83.68,2.12.95,3.88.1.63.17,1.1.23,1.41.02.1.06.28.14.54"/>
      <path class="st0" d="M111.28,22.8c.36.41.55.75.55,1.03,0,.09-.02.17-.05.25-.23.49-.51.74-.83.74-.39,0-.91-.51-1.56-1.52-.16-.25-.27-.41-.34-.5-.43.9-1.27,1.52-2.52,1.85-.63.17-1.31.3-1.97.22-.2-.03-.43-.09-.55-.26-.08-.1-.12-.23-.14-.36-.17-.81.06-1.61.52-2.28s1.06-1.24,1.71-1.67c.33-.22.71-.36,1.07-.52.22-.09.91-.32.91-.62-.03-.29-.05-.71-.05-1.28,0-.29,0-.61.01-.96,0-.45.01-.82.01-1.11,0-.22,0-.4,0-.53v-.06c-.02-.15-.02-.29-.02-.42,0-.84.13-1.4.4-1.67.18-.19.42-.28.72-.28.05,0,.1,0,.15,0,.15.01.28.14.41.38.11.2.18.41.21.62.07.45.11,1.24.11,2.34v.38c0,.15,0,.37,0,.68,0,.17,0,.33,0,.49,0,1.01.06,1.77.19,2.29.2.84.56,1.77,1.09,2.78M107.95,21.27c-.45.16-.87.36-1.26.6-.48.3-.76.58-.84.84-.01.04-.02.09-.02.13,0,.1.04.19.11.28l.18.02c.39,0,.78-.21,1.18-.63.38-.41.59-.82.65-1.24"/>
      <path class="st0" d="M119.99,22.97c.32.43.48.79.48,1.07-.04.21-.18.4-.41.57-.23.16-.47.25-.73.25-.21,0-.39-.06-.53-.19-.29-.26-.56-.77-.81-1.52-.19-.59-.37-.99-.55-1.21-.04.06-.1.15-.18.27-.48.74-.87,1.27-1.18,1.6-.53.56-1.08.9-1.66,1.02-.17.04-.33.05-.49.05-.45,0-.82-.14-1.1-.42-.28-.28-.44-.66-.47-1.15-.04-.76.4-1.55.79-2.17.63-1.01,1.46-1.75,2.45-2.4.68-.45,1.52-.97,2.37-.97h.07c.34,0,.6.31.79.93.11.35.21.9.31,1.66.03.26.05.43.07.49.01.05.04.16.07.34.12.59.24,1.02.36,1.28.05.11.16.28.33.51M116.67,19.88s-.06-.03-.09-.03c-.15,0-.35.14-.61.41-.33.35-.66.83-.98,1.42-.3.55-.48.97-.53,1.25.46-.13.94-.55,1.44-1.26.49-.7.75-1.3.77-1.8"/>
      <path class="st0" d="M133.12,7.94h0s0,0,0,0M133.12,7.94s0,0,0,0h0s0,0,0,0ZM133.12,7.95h0s0,0,0,0h0ZM132.35,7.36c-.1-.03-.21-.03-.31-.04-.29,0-.58-.01-.87-.02l-1.15-.03c-.38,0-.77-.02-1.15-.03s-.77-.02-1.15-.03l-1.15-.03c-.38,0-.77-.02-1.15-.03-2.03-.04-4.05-.09-6.08-.13-.88-.02-1.76-.04-2.65-.06-.27,0-.54-.01-.79.09s-.46.33-.45.6c.01.36.4.59.75.7,1.69.52,3.53,0,5.28.25.49.07.99.21,1.34.55.53.53.58,1.35.48,2.05-.3,2.09-.56,4.18-.69,6.3-.1,1.51-.14,3.03-.14,4.55,0,.71.01,1.43.03,2.14,0,.23.02.48.13.68s.35.36.57.3c.24-.07.35-.33.42-.57.11-.39.17-.8.22-1.2.57-4.52-.1-9.21,1.18-13.58.06-.2.12-.41.26-.56.21-.23.53-.31.84-.32.33-.02.67-.03,1-.04.48,0,.96,0,1.44.02.95.02,1.91.05,2.85-.11.29-.05.58-.11.86-.2.25-.08.51-.19.66-.41.13-.2.1-.51-.11-.65-.06-.04-.12-.08-.18-.11M132.14,5.98c.29.03.58.1.87.22.28.12.54.27.79.47.24.18.42.38.55.6.15.26.21.53.19.81-.01.14-.05.29-.11.43-.42.96-1.64,1.46-2.59,1.68-1.43.32-2.91.18-4.35.04-.34-.03-.78-.1-1.07.14-.28.22-.34.67-.41.99-.1.42-.17.85-.2,1.28,0,0,0,.07,0,.07-.02.26-.04.52-.05.77-.02.3-.03.6-.04.92l-.03,1.04c0,.19-.02.21-.01.24v.07s0,.08,0,.08c-.09,1.8-.17,3.22-.23,4.28-.06,1.15-.11,1.9-.13,2.26v.02c0,.06-.01.15-.01.26,0,.13,0,.28,0,.45h0c0,.22,0,.39,0,.53,0,.18-.01.3-.02.39l-.03.25c-.04.35-.09.65-.18.91-.1.3-.23.55-.39.75h0c-.23.28-.53.48-.92.6-.32.1-.71.14-1.15.13-.03,0-.07,0-.1,0-.39-.04-.71-.22-.95-.54-.18-.24-.31-.56-.39-.96-.01-.08-.03-.24-.05-.49-.01-.21-.04-.56-.07-1.04-.06-.88-.07-1.93-.03-3.14.04-1.22.12-2.57.25-4.05l.06-.69c.03-.29.05-.54.07-.77.07-.69.15-1.43.23-2.2.03-.28.06-.55.09-.83s.06-.56.1-.85c.01-.11.03-.22.04-.33.01-.11.03-.21.02-.31-.01-.11-.04-.26-.15-.31-.04-.02-.09-.03-.14-.04-.32-.06-.64-.09-.96-.13h-.03c-.1-.01-.24-.02-.43-.02-.2,0-.46,0-.77,0-.41.01-.78.02-1.1.02-.32,0-.58,0-.78,0-.16,0-.3,0-.41-.01-.13,0-.26-.02-.4-.03-.64-.06-1.15-.17-1.55-.34-.5-.2-.84-.49-1.04-.87-.1-.19-.17-.38-.22-.57-.05-.2-.06-.4-.04-.6.05-.52.33-.94.82-1.26.39-.25.92-.44,1.61-.56h0c.5-.09,1.04-.14,1.62-.16.57-.02,1.17,0,1.78.05.74.06,1.62.11,2.61.14,1.04.04,2.23.06,3.56.07,1.45,0,2.68.03,3.72.05,1.08.03,1.93.06,2.56.11h.02Z"/>
    </g>
    <g>
      <path class="st0" d="M137.89,8.24v.51c0,.1,0,.16.02.19.01.03.03.05.06.06.03.02.09.02.17.02v.05h-.93v-.05c.08,0,.14,0,.17-.02.03-.02.05-.04.06-.06s.02-.09.02-.19v-1.18c0-.1,0-.16-.02-.19-.01-.03-.03-.05-.06-.06s-.09-.02-.17-.02v-.05h.85c.22,0,.38.02.48.05s.19.09.25.17.1.18.1.29c0,.13-.05.25-.14.33-.06.06-.15.1-.26.13l.44.62c.06.08.1.13.12.15.04.03.08.04.13.05v.05h-.57l-.59-.83h-.12ZM137.89,7.35v.8h.08c.12,0,.22-.01.28-.03s.11-.06.15-.12.05-.14.05-.23c0-.14-.03-.24-.1-.31-.06-.07-.17-.1-.31-.1h-.14Z"/>
      <path class="st0" d="M138.11,10.14c-1.14,0-2.07-.93-2.07-2.08s.93-2.08,2.07-2.08,2.07.93,2.07,2.08-.93,2.08-2.07,2.08ZM138.11,6.37c-.93,0-1.69.76-1.69,1.7s.76,1.7,1.69,1.7,1.69-.76,1.69-1.7-.76-1.7-1.69-1.7Z"/>
    </g>
    <g>
      <path class="st0" d="M91.27,31.63s.02.04.02.07h0s0,.03,0,.04c-.01.05-.06.09-.14.11-.05.01-.12.02-.22.02-.03,0-.05,0-.06,0-.16.01-.34.04-.54.1-.08.02-.14.04-.19.05-.01,0-.04.01-.08.02-.11.03-.2.05-.26.05,0,0-.02,0-.02,0-.11,0-.17-.08-.17-.21h0c0-.06,0-.14-.02-.26-.01-.11-.02-.19-.02-.23v-.11c0-.18,0-.36.01-.54,0,0,0-.02,0-.04s0-.04,0-.07v-.03c0-.12,0-.23.01-.32.02-.21.06-.34.12-.4.03-.03.06-.04.1-.04,0,0,.01,0,.01,0,0,0,.01,0,.02,0,.05,0,.09.03.12.06.02.03.03.08.03.14,0,.02,0,.04,0,.05,0,.06-.02.14-.05.23-.01.04-.02.07-.02.09,0,.05-.02.11-.02.18,0,.1-.01.22-.01.35s0,.28.01.45c0,.12.01.21.01.27.07,0,.14-.02.23-.03.13-.01.25-.03.36-.06.13-.03.25-.04.37-.04.05,0,.1,0,.14,0,.12.01.2.04.24.09"/>
      <path class="st0" d="M92.48,31.8c.05.07.08.13.08.18,0,.04-.03.07-.07.1-.04.03-.08.04-.13.04-.04,0-.07-.01-.09-.03-.05-.04-.1-.13-.14-.26-.03-.1-.06-.17-.09-.21,0,.01-.02.03-.03.05-.08.13-.15.22-.2.27-.09.1-.18.15-.28.18-.03,0-.06,0-.08,0-.08,0-.14-.02-.19-.07-.05-.05-.08-.11-.08-.2,0-.17.11-.37.33-.61.28-.22.49-.33.63-.33h.01c.06,0,.1.05.13.16.02.06.04.15.05.28,0,.04,0,.07.01.08,0,0,0,.03.01.06.02.1.04.17.06.22,0,.02.03.05.06.09M91.92,31.28s0,0-.02,0c-.03,0-.06.02-.1.07-.06.06-.11.14-.17.24-.05.09-.08.17-.09.21.08-.02.16-.09.25-.21.08-.12.13-.22.13-.31"/>
      <path class="st0" d="M95.77,31.72c.06.07.1.12.12.16.02.04.03.07.03.1,0,.03,0,.06-.02.08-.02.04-.05.06-.09.06-.07,0-.16-.07-.27-.21-.07-.09-.12-.16-.15-.22-.03-.05-.06-.12-.1-.22-.05-.1-.09-.18-.11-.23-.02-.04-.08-.07-.17-.07-.02,0-.04,0-.08,0-.02,0-.04,0-.05,0-.09,0-.22.02-.4.05-.2.32-.32.51-.37.56-.08.1-.15.15-.2.15-.02,0-.03,0-.04,0-.02,0-.04-.02-.04-.05,0,0,0-.02,0-.03,0-.06.05-.18.14-.36.06-.11.09-.18.09-.2h0s-.01-.01-.03-.01c-.01,0-.03,0-.06,0-.03,0-.05,0-.06,0-.03,0-.05,0-.06-.02,0,0,0-.02,0-.03,0-.01,0-.03.01-.04.02-.06.06-.1.09-.13.03-.02.08-.05.15-.07.12-.04.24-.22.37-.55,0-.01.02-.04.03-.09.05-.15.1-.26.14-.33.07-.12.15-.19.24-.19.17,0,.27.1.3.3.04.23.09.44.15.62,0,.01,0,.03.01.04.01.04.02.06.03.08,0,0,.02.01.04.01,0,0,.01,0,.02,0,0,0,.02,0,.04,0,.04,0,.07-.01.09-.01.05,0,.09.02.12.05.01.02.02.03.02.05,0,0,0,.02,0,.03-.02.06-.1.11-.23.15v.03c.1.22.18.37.25.46,0,.01.03.03.05.06M95.01,30.87s-.01-.06-.02-.11c-.04-.22-.08-.36-.12-.42-.04.07-.1.23-.19.46-.03.07-.05.13-.06.15.04,0,.09-.02.17-.03.1-.02.17-.04.22-.04"/>
      <path class="st0" d="M96.9,30.99c.11.03.16.07.16.13h0s0,.02,0,.02c-.03.02-.04.07-.04.16,0,.05,0,.1.01.17,0,.05,0,.08.01.1v.05c0,.14,0,.27,0,.38,0,.17,0,.31-.02.42-.01.12-.04.22-.09.31-.07.14-.16.22-.29.24-.03,0-.06,0-.08,0-.11,0-.22-.04-.31-.11-.05-.04-.09-.08-.12-.14-.02-.03-.03-.05-.04-.07-.06-.1-.1-.17-.1-.24,0-.05.02-.08.05-.11,0,0,.02,0,.03,0,.05,0,.11.05.17.15.04.06.08.11.14.15.06.05.12.07.17.07.07,0,.12-.05.16-.14.03-.09.05-.23.05-.4,0-.06,0-.13,0-.2,0-.1,0-.18,0-.25,0-.02,0-.04,0-.06-.02.03-.05.07-.09.13-.09.14-.18.23-.27.26-.02,0-.05,0-.07,0-.08,0-.15-.03-.21-.1-.06-.06-.09-.13-.1-.21,0-.04,0-.07,0-.11,0-.15.05-.29.16-.41.14-.16.31-.24.52-.24h.03c.07,0,.13,0,.21.03M96.35,31.37c-.04.05-.06.11-.08.17,0,.03,0,.05,0,.07,0,.04.01.07.04.1,0,0,0,0,0,0,.05,0,.18-.14.37-.43.03-.04.04-.06.05-.07,0-.01-.02-.02-.05-.02-.05,0-.11.02-.17.05-.07.04-.13.08-.16.13"/>
      <path class="st0" d="M98.52,31.46c.06-.04.1-.06.12-.06s.04.02.04.06c-.02.12-.09.26-.21.39-.12.13-.25.22-.37.26-.05,0-.09.01-.14.01-.22,0-.43-.12-.61-.37-.06-.08-.1-.2-.1-.34,0-.06,0-.13.02-.2.02-.13.13-.22.32-.26.03,0,.05,0,.08,0,.07,0,.14.02.2.07.07.05.13.12.18.22.01.04.02.09.02.13,0,.12-.06.21-.17.28-.02.01-.04.02-.07.03-.03.01-.05.02-.06.02-.02,0-.02.02-.02.03h0s.01.04.04.07c.05.06.11.08.18.08.02,0,.04,0,.06,0,.09-.02.18-.08.27-.18.12-.14.19-.21.23-.24M97.62,31.55s.09-.02.12-.05c.03-.03.05-.07.05-.11,0,0,0-.01,0-.02,0-.04,0-.07-.03-.09-.02-.04-.06-.06-.11-.06,0,0-.01,0-.02,0-.03,0-.05.01-.07.04-.02.03-.03.06-.03.1,0,.1.03.17.08.2"/>
      <path class="st0" d="M99.75,31.82c.02.08.03.14.03.18,0,.04,0,.07-.02.08-.02.03-.06.04-.11.04-.02,0-.04,0-.06,0-.06-.01-.12-.09-.15-.23-.02-.08-.05-.23-.08-.43-.02-.14-.03-.23-.04-.27-.11.08-.19.17-.24.27-.04.08-.06.19-.06.31,0,.05-.02.11-.06.18-.05.08-.1.12-.15.12-.05,0-.09-.03-.12-.09-.02-.04-.03-.1-.03-.19,0-.08,0-.18.03-.3.02-.11.02-.18.03-.22,0-.08.02-.13.06-.17.03-.03.07-.04.11-.04.02,0,.04,0,.06,0,.05.01.08.03.08.05.03-.03.06-.07.1-.13.04-.06.07-.1.09-.12.02-.02.05-.04.08-.06.05-.03.1-.05.14-.05.05,0,.08.02.11.07.06.14.12.36.16.66.02.11.03.19.04.24,0,.02.01.05.02.09"/>
      <path class="st0" d="M101.19,31.77c.06.07.09.13.09.18,0,.01,0,.03,0,.04-.04.08-.09.13-.14.13-.07,0-.15-.09-.27-.26-.03-.04-.05-.07-.06-.09-.07.15-.22.26-.43.32-.1.03-.19.04-.27.04-.12,0-.18-.03-.18-.1,0-.03-.01-.07-.01-.1,0-.21.14-.42.43-.6.01,0,.05-.02.1-.05.13-.05.2-.09.2-.12,0-.05,0-.12,0-.22,0-.05,0-.1,0-.16,0-.08,0-.14,0-.19,0-.04,0-.07,0-.09h0s0-.06,0-.08c0-.14.02-.24.07-.28.03-.03.07-.05.12-.05,0,0,.02,0,.03,0,.02,0,.05.02.07.06.02.03.03.07.04.11.01.08.02.21.02.4v.07s0,.06,0,.12c0,.03,0,.06,0,.08,0,.17.01.3.03.39.03.14.1.3.19.47M100.62,31.51c-.08.03-.15.06-.21.1-.08.05-.13.1-.14.14,0,0,0,.01,0,.02,0,.02,0,.03.02.05h.03c.07,0,.13-.03.2-.1.06-.07.1-.14.11-.21"/>
      <path class="st0" d="M102.68,31.8c.05.07.08.13.08.18,0,.04-.03.07-.07.1-.04.03-.08.04-.12.04-.04,0-.07-.01-.09-.03-.05-.04-.1-.13-.14-.26-.03-.1-.06-.17-.09-.21,0,.01-.02.03-.03.05-.08.13-.15.22-.2.27-.09.1-.18.15-.28.18-.03,0-.06,0-.08,0-.08,0-.14-.02-.19-.07-.05-.05-.07-.11-.08-.2,0-.17.11-.37.33-.61.28-.22.49-.33.63-.33h.01c.06,0,.1.05.13.16.02.06.04.15.05.28,0,.04,0,.07.01.08,0,0,0,.03.01.06.02.1.04.17.06.22,0,.02.03.05.06.09M102.11,31.28s0,0-.02,0c-.02,0-.06.02-.1.07-.06.06-.11.14-.17.24-.05.09-.08.17-.09.21.08-.02.16-.09.25-.21.08-.12.13-.22.13-.31"/>
      <path class="st0" d="M106.55,30.99s0,.04,0,.05c0,.11-.09.26-.27.46-.16.17-.35.32-.56.44-.24.13-.49.2-.76.2-.2,0-.38-.04-.53-.12-.22-.12-.35-.28-.41-.48-.02-.06-.03-.13-.03-.2,0-.08.01-.17.04-.26.08-.29.24-.54.48-.75.24-.21.48-.31.72-.31.01,0,.02,0,.03,0,.05,0,.09.02.13.04.04.03.07.06.09.1,0,.01,0,.03,0,.04,0,.07-.08.14-.23.2l-.08.03c-.23.09-.4.18-.5.28-.1.09-.19.2-.25.3-.06.11-.09.21-.09.31,0,.02,0,.03,0,.05.02.13.09.24.24.32.12.07.26.1.42.1.26,0,.49-.07.69-.22,0,0,.02-.02.05-.05.41-.38.66-.56.75-.56.03,0,.05.01.05.04"/>
      <path class="st0" d="M107.34,31.8c.05.14.08.24.08.3,0,.08-.03.12-.1.12-.05,0-.09-.02-.13-.05-.06-.05-.11-.15-.14-.32,0-.05-.02-.08-.02-.1-.05.1-.13.18-.23.26-.1.08-.2.12-.28.12-.07,0-.12-.03-.16-.08-.04-.06-.06-.15-.06-.27s.02-.28.07-.45c.06-.22.14-.33.23-.34h0s.06.01.08.03c.02.02.03.06.03.12,0,.09-.02.21-.06.38-.03.13-.04.21-.04.25,0,.01,0,.02,0,.03,0,0,0,0,.02,0,.1-.06.18-.15.23-.27.03-.07.05-.17.08-.3.01-.08.03-.14.04-.17.02-.05.05-.07.09-.07.08,0,.13.05.17.16.02.06.03.16.04.31,0,.08,0,.13.01.15,0,.04.03.12.07.21"/>
      <path class="st0" d="M108.01,31.93c0,.07-.02.13-.05.16-.02.02-.05.04-.08.04s-.07-.01-.11-.04c-.09-.05-.14-.26-.16-.63,0-.06,0-.1,0-.12-.01-.12-.02-.25-.02-.37v-.07c0-.28.01-.56.04-.84h0s0-.01,0-.01c.05-.03.11-.05.16-.05.03,0,.05,0,.07.03.05.05.07.17.07.36,0,.1,0,.22-.02.36,0,.05,0,.07,0,.08,0,.06,0,.11,0,.17,0,.25.03.52.08.8,0,.04.01.08.01.12"/>
      <path class="st0" d="M109.44,31s.02.05.02.07c0,.02,0,.03-.01.05-.03.06-.11.1-.23.12-.08.01-.19.03-.35.04h-.05s0,.02,0,.05c0,.06,0,.11,0,.15,0,.01,0,.03,0,.04,0,.08.01.18.02.3v.05c0,.17-.01.26-.04.27,0,0-.02,0-.06,0-.09,0-.14,0-.15-.01-.06-.06-.1-.19-.1-.4,0-.06,0-.13,0-.21,0-.01,0-.03,0-.04,0-.06-.01-.11-.04-.14-.02-.02-.07-.04-.15-.04h-.02s-.02,0-.03,0c-.05,0-.09,0-.12-.01-.05-.02-.09-.06-.11-.11h0s0-.06.03-.08c.04-.04.12-.06.24-.06.03,0,.05,0,.07,0,.01,0,.03,0,.04,0,.03,0,.06,0,.08-.02,0-.1-.01-.19-.01-.29,0-.07,0-.15,0-.22.02-.22.06-.36.13-.43.03-.04.07-.05.12-.05h.01s.03,0,.05.02c.03.03.05.12.05.25,0,.08,0,.18-.02.3,0,.08-.01.13-.01.15,0,.03,0,.06,0,.1v.13s.02.02.07.02c0,0,.02,0,.03,0,.07,0,.16-.02.26-.04,0,0,.02,0,.04,0,.06-.02.11-.02.15-.02.05,0,.09.02.11.05"/>
      <path class="st0" d="M110.41,31.8c.05.14.08.24.08.3,0,.08-.03.12-.1.12-.05,0-.09-.02-.13-.05-.06-.05-.11-.15-.14-.32,0-.05-.02-.08-.02-.1-.06.1-.13.18-.23.26-.1.08-.2.12-.28.12-.07,0-.12-.03-.16-.08-.04-.06-.06-.15-.06-.27s.02-.28.07-.45c.06-.22.14-.33.23-.34h0s.06.01.08.03c.02.02.03.06.03.12,0,.09-.02.21-.06.38-.03.13-.04.21-.04.25,0,.01,0,.02,0,.03,0,0,0,0,.02,0,.1-.06.18-.15.23-.27.03-.07.05-.17.08-.3.01-.08.03-.14.04-.17.02-.05.05-.07.09-.07.08,0,.13.05.17.16.02.06.03.16.04.31,0,.08,0,.13.01.15,0,.04.03.12.07.21"/>
      <path class="st0" d="M111.67,30.96s.06.06.06.09c0,0,0,.02,0,.03-.16.08-.29.18-.39.32-.12.15-.2.32-.24.52-.03.14-.08.22-.14.22-.03,0-.05-.01-.09-.04-.08-.07-.14-.2-.18-.39-.04-.16-.05-.31-.05-.45.01-.06.04-.1.07-.12.02,0,.03-.01.05-.01.02,0,.03,0,.05.02.08.05.13.17.14.35.03-.11.1-.23.21-.35.13-.14.25-.21.37-.21h0s.09.02.13.05"/>
      <path class="st0" d="M113.06,31.8c.05.07.08.13.08.18,0,.04-.03.07-.07.1-.04.03-.08.04-.12.04-.04,0-.07-.01-.09-.03-.05-.04-.1-.13-.14-.26-.03-.1-.06-.17-.09-.21,0,.01-.02.03-.03.05-.08.13-.15.22-.2.27-.09.1-.18.15-.28.18-.03,0-.06,0-.08,0-.08,0-.14-.02-.19-.07-.05-.05-.07-.11-.08-.2,0-.17.11-.37.33-.61.28-.22.49-.33.63-.33h.01c.06,0,.1.05.13.16.02.06.04.15.05.28,0,.04,0,.07.01.08,0,0,0,.03.01.06.02.1.04.17.06.22,0,.02.03.05.06.09M112.49,31.28s0,0-.02,0c-.02,0-.06.02-.1.07-.06.06-.11.14-.17.24-.05.09-.08.17-.09.21.08-.02.16-.09.25-.21.08-.12.13-.22.13-.31"/>
      <path class="st0" d="M113.72,31.93c0,.07-.02.13-.05.16-.02.02-.05.04-.08.04s-.07-.01-.11-.04c-.09-.05-.14-.26-.16-.63,0-.06,0-.1,0-.12-.01-.12-.02-.25-.02-.37v-.07c0-.28.01-.56.04-.84h0s0-.01,0-.01c.05-.03.11-.05.16-.05.03,0,.05,0,.07.03.05.05.07.17.07.36,0,.1,0,.22-.02.36,0,.05,0,.07,0,.08,0,.06,0,.11,0,.17,0,.25.03.52.08.8,0,.04.01.08.01.12"/>
      <path class="st0" d="M116.32,31.77c.06.07.09.13.09.18,0,.01,0,.03,0,.04-.04.08-.09.13-.14.13-.07,0-.15-.09-.27-.26-.03-.04-.05-.07-.06-.09-.07.15-.22.26-.43.32-.1.03-.19.04-.27.04-.12,0-.18-.03-.18-.1,0-.03-.01-.07-.01-.1,0-.21.14-.42.43-.6.01,0,.05-.02.1-.05.13-.05.2-.09.2-.12,0-.05,0-.12,0-.22,0-.05,0-.1,0-.16,0-.08,0-.14,0-.19,0-.04,0-.07,0-.09h0s0-.06,0-.08c0-.14.02-.24.07-.28.03-.03.07-.05.12-.05,0,0,.02,0,.03,0,.02,0,.05.02.07.06.02.03.03.07.04.11.01.08.02.21.02.4v.07s0,.06,0,.12c0,.03,0,.06,0,.08,0,.17.01.3.03.39.03.14.1.3.19.47M115.75,31.51c-.08.03-.15.06-.21.1-.08.05-.13.1-.14.14,0,0,0,.01,0,.02,0,.02,0,.03.02.05h.03c.07,0,.13-.03.2-.1.06-.07.1-.14.11-.21"/>
      <path class="st0" d="M117.77,31.46c.06-.04.1-.06.12-.06s.04.02.04.06c-.02.12-.09.26-.21.39-.12.13-.25.22-.37.26-.05,0-.09.01-.14.01-.22,0-.43-.12-.61-.37-.06-.08-.1-.2-.1-.34,0-.06,0-.13.02-.2.02-.13.13-.22.32-.26.03,0,.05,0,.08,0,.07,0,.14.02.2.07.07.05.13.12.18.22.01.04.02.09.02.13,0,.12-.06.21-.17.28-.02.01-.04.02-.07.03-.03.01-.05.02-.06.02-.02,0-.02.02-.02.03h0s.01.04.04.07c.05.06.11.08.18.08.02,0,.04,0,.06,0,.09-.02.18-.08.27-.18.12-.14.19-.21.23-.24M116.87,31.55s.09-.02.12-.05c.03-.03.05-.07.05-.11,0,0,0-.01,0-.02,0-.04,0-.07-.03-.09-.02-.04-.06-.06-.11-.06,0,0-.01,0-.02,0-.03,0-.05.01-.07.04-.02.03-.03.06-.03.1,0,.1.03.17.08.2"/>
      <path class="st0" d="M120.48,30.94c.25.08.43.16.51.23.08.06.12.14.12.23,0,.02,0,.05,0,.07-.03.13-.14.26-.32.39-.19.13-.41.22-.65.25-.07,0-.13.01-.2.01-.19,0-.36-.04-.53-.12-.23-.11-.35-.26-.35-.46h0c0-.18.05-.28.16-.31.02,0,.04,0,.06,0s.04,0,.06.01c.04.01.06.03.06.06,0,0,0,.01,0,.02,0,.01,0,.03,0,.05,0,.04-.01.07-.01.09h0c0,.08.03.15.1.2.13.1.29.15.47.15.04,0,.09,0,.14,0,.24-.03.46-.14.63-.31.02-.02.03-.04.03-.06,0-.01,0-.03-.02-.04-.03-.03-.08-.05-.16-.08-.04-.01-.14-.04-.3-.08-.16-.04-.29-.08-.39-.11-.35-.12-.59-.21-.71-.28-.18-.11-.27-.24-.28-.39h0c0-.15.11-.26.34-.34.16-.06.34-.09.55-.1.02,0,.04,0,.07,0,.14,0,.28.02.43.07.17.06.26.13.26.22,0,0,0,.02,0,.03-.01.06-.03.1-.05.12-.01.01-.03.02-.05.02,0,0-.01,0-.02,0-.02,0-.06-.02-.12-.04-.07-.02-.13-.04-.18-.05-.08-.02-.16-.02-.25-.02-.07,0-.15,0-.23.01-.18.02-.28.05-.28.09,0,0,0,.01,0,.02,0,.09.13.18.38.26.07.02.2.06.38.11.17.05.3.09.39.11"/>
      <path class="st0" d="M122.37,31.8c.05.07.08.13.08.18,0,.04-.03.07-.07.1-.04.03-.08.04-.12.04-.04,0-.07-.01-.09-.03-.05-.04-.1-.13-.14-.26-.03-.1-.06-.17-.09-.21,0,.01-.02.03-.03.05-.08.13-.15.22-.2.27-.09.1-.18.15-.28.18-.03,0-.06,0-.08,0-.08,0-.14-.02-.19-.07-.05-.05-.07-.11-.08-.2,0-.17.11-.37.33-.61.28-.22.49-.33.63-.33h.01c.06,0,.1.05.14.16.02.06.04.15.05.28,0,.04,0,.07.01.08,0,0,0,.03.01.06.02.1.04.17.06.22,0,.02.03.05.06.09M121.8,31.28s0,0-.02,0c-.03,0-.06.02-.1.07-.06.06-.11.14-.17.24-.05.09-.08.17-.09.21.08-.02.16-.09.25-.21.08-.12.13-.22.13-.31"/>
      <path class="st0" d="M123.7,31.82c.02.08.03.14.03.18,0,.04,0,.07-.02.08-.02.03-.06.04-.11.04-.02,0-.04,0-.06,0-.06-.01-.12-.09-.15-.23-.02-.08-.05-.23-.08-.43-.02-.14-.03-.23-.04-.27-.11.08-.19.17-.24.27-.04.08-.06.19-.06.31,0,.05-.02.11-.06.18-.05.08-.1.12-.15.12-.05,0-.09-.03-.12-.09-.02-.04-.03-.1-.03-.19,0-.08,0-.18.03-.3.02-.11.02-.18.03-.22,0-.08.02-.13.06-.17.03-.03.07-.04.11-.04.02,0,.04,0,.06,0,.05.01.08.03.08.05.02-.03.06-.07.1-.13.04-.06.07-.1.09-.12.02-.02.05-.04.08-.06.05-.03.1-.05.14-.05.05,0,.08.02.11.07.06.14.12.36.16.66.02.11.03.19.04.24,0,.02.01.05.02.09"/>
      <path class="st0" d="M125.13,31s.02.05.02.07c0,.02,0,.03-.01.05-.03.06-.11.1-.23.12-.08.01-.2.03-.35.04h-.05s0,.02,0,.05c0,.06,0,.11,0,.15,0,.01,0,.03,0,.04,0,.08.01.18.02.3v.05c0,.17-.01.26-.04.27,0,0-.02,0-.06,0-.09,0-.14,0-.15-.01-.06-.06-.1-.19-.1-.4,0-.06,0-.13,0-.21,0-.01,0-.03,0-.04,0-.06-.01-.11-.04-.14-.02-.02-.07-.04-.15-.04h-.02s-.02,0-.03,0c-.05,0-.09,0-.12-.01-.05-.02-.09-.06-.11-.11h0s0-.06.03-.08c.04-.04.12-.06.24-.06.03,0,.05,0,.07,0,.01,0,.03,0,.04,0,.03,0,.06,0,.08-.02,0-.1-.01-.19-.01-.29,0-.07,0-.15,0-.22.02-.22.06-.36.13-.43.03-.04.07-.05.12-.05h.01s.03,0,.05.02c.03.03.05.12.05.25,0,.08,0,.18-.02.3,0,.08-.01.13-.01.15,0,.03,0,.06,0,.1v.13s.02.02.07.02c0,0,.02,0,.03,0,.07,0,.16-.02.26-.04,0,0,.02,0,.04,0,.06-.02.11-.02.15-.02.05,0,.09.02.11.05"/>
      <path class="st0" d="M126.32,31.8c.05.07.08.13.08.18,0,.04-.03.07-.07.1-.04.03-.08.04-.12.04-.04,0-.07-.01-.09-.03-.05-.04-.1-.13-.14-.26-.03-.1-.06-.17-.09-.21,0,.01-.02.03-.03.05-.08.13-.15.22-.2.27-.09.1-.18.15-.28.18-.03,0-.06,0-.08,0-.08,0-.14-.02-.19-.07-.05-.05-.07-.11-.08-.2,0-.17.11-.37.33-.61.28-.22.49-.33.63-.33h.01c.06,0,.1.05.13.16.02.06.04.15.05.28,0,.04,0,.07.01.08,0,0,0,.03.01.06.02.1.04.17.06.22,0,.02.03.05.06.09M125.75,31.28s0,0-.02,0c-.02,0-.06.02-.1.07-.06.06-.11.14-.17.24-.05.09-.08.17-.09.21.08-.02.16-.09.25-.21.08-.12.13-.22.13-.31"/>
      <path class="st0" d="M129.92,31.68c.02.08.04.16.04.23,0,.02,0,.03,0,.05,0,.08-.04.12-.09.12-.01,0-.03,0-.05,0-.12-.05-.24-.29-.35-.74-.03-.1-.07-.28-.13-.54-.05-.2-.08-.34-.1-.41,0,.27-.06.62-.17,1.06-.06.22-.11.4-.17.51-.06.12-.11.17-.17.17-.01,0-.02,0-.03,0-.12-.05-.21-.31-.29-.76-.1-.55-.16-.85-.17-.88-.04.12-.09.37-.14.75-.05.38-.09.63-.13.73-.02.05-.05.08-.08.08-.02,0-.04,0-.07-.03-.06-.05-.09-.11-.11-.2,0-.03-.01-.07-.01-.12,0-.15.03-.36.1-.63h0s.11-.49.11-.49c.04-.19.08-.31.1-.36.04-.1.1-.16.17-.2.03-.02.06-.02.09-.02.05,0,.1.03.15.08.1.11.18.33.23.67.01.08.03.21.05.4.02.15.03.26.04.32.02-.1.06-.31.12-.63.05-.28.09-.48.11-.59.02-.16.04-.26.06-.29.04-.08.12-.13.24-.13h.01c.09.09.16.24.23.45.1.31.24.78.42,1.42"/>
      <path class="st0" d="M131.37,31.8c.05.07.08.13.08.18,0,.04-.03.07-.07.1-.04.03-.08.04-.12.04-.04,0-.07-.01-.09-.03-.05-.04-.1-.13-.14-.26-.03-.1-.06-.17-.09-.21,0,.01-.02.03-.03.05-.08.13-.15.22-.2.27-.09.1-.18.15-.28.18-.03,0-.06,0-.08,0-.08,0-.14-.02-.19-.07-.05-.05-.07-.11-.08-.2,0-.17.11-.37.33-.61.28-.22.49-.33.63-.33h.01c.06,0,.1.05.14.16.02.06.04.15.05.28,0,.04,0,.07.01.08,0,0,0,.03.01.06.02.1.04.17.06.22,0,.02.03.05.06.09M130.81,31.28s0,0-.02,0c-.02,0-.06.02-.1.07-.06.06-.11.14-.17.24-.05.09-.08.17-.09.21.08-.02.16-.09.25-.21.08-.12.13-.22.13-.31"/>
      <path class="st0" d="M132.61,30.96s.06.06.06.09c0,0,0,.02,0,.03-.16.08-.29.18-.39.32-.12.15-.2.32-.24.52-.03.14-.08.22-.14.22-.03,0-.05-.01-.09-.04-.08-.07-.14-.2-.18-.39-.03-.16-.05-.31-.05-.45.01-.06.04-.1.07-.12.02,0,.03-.01.05-.01.02,0,.03,0,.05.02.08.05.13.17.14.35.03-.11.1-.23.21-.35.13-.14.25-.21.37-.21h0s.09.02.13.05"/>
      <path class="st0" d="M133.97,31s.02.05.02.07c0,.02,0,.03-.01.05-.03.06-.11.1-.23.12-.08.01-.2.03-.35.04h-.05s0,.02,0,.05c0,.06,0,.11,0,.15,0,.01,0,.03,0,.04,0,.08.01.18.02.3v.05c0,.17-.01.26-.04.27,0,0-.02,0-.06,0-.09,0-.14,0-.15-.01-.06-.06-.1-.19-.1-.4,0-.06,0-.13,0-.21,0-.01,0-.03,0-.04,0-.06-.01-.11-.04-.14-.02-.02-.07-.04-.15-.04h-.02s-.02,0-.03,0c-.05,0-.09,0-.12-.01-.05-.02-.09-.06-.11-.11h0s0-.06.03-.08c.04-.04.12-.06.24-.06.03,0,.05,0,.07,0,.01,0,.03,0,.04,0,.03,0,.06,0,.08-.02,0-.1-.01-.19-.01-.29,0-.07,0-.15,0-.22.02-.22.06-.36.13-.43.03-.04.07-.05.12-.05h.01s.03,0,.05.02c.03.03.05.12.05.25,0,.08,0,.18-.02.3,0,.08-.01.13-.01.15,0,.03,0,.06,0,.1v.13s.02.02.07.02c0,0,.02,0,.03,0,.07,0,.16-.02.26-.04,0,0,.02,0,.04,0,.06-.02.11-.02.15-.02.05,0,.09.02.11.05"/>
      <path class="st0" d="M135.15,31.8c.05.07.08.13.08.18,0,.04-.03.07-.07.1-.04.03-.08.04-.12.04-.04,0-.07-.01-.09-.03-.05-.04-.1-.13-.14-.26-.03-.1-.06-.17-.09-.21,0,.01-.02.03-.03.05-.08.13-.15.22-.2.27-.09.1-.18.15-.28.18-.03,0-.06,0-.08,0-.08,0-.14-.02-.19-.07-.05-.05-.07-.11-.08-.2,0-.17.11-.37.33-.61.28-.22.49-.33.63-.33h.01c.06,0,.1.05.13.16.02.06.04.15.05.28,0,.04,0,.07.01.08,0,0,0,.03.01.06.02.1.04.17.06.22,0,.02.03.05.06.09M134.59,31.28s0,0-.02,0c-.03,0-.06.02-.1.07-.06.06-.11.14-.17.24-.05.09-.08.17-.09.21.08-.02.16-.09.25-.21.08-.12.13-.22.13-.31"/>
    </g>
  </g>
  <g>
    <circle class="st0" cx="209.08" cy="24.78" r=".21"/>
    <path class="st0" d="M220.56,14.35h-1.38l2.38,4.91,1.13-2.56c.42-1.07-.05-2.47-1.37-2.35,0-.03.06-.09.07-.09h3.6c.02.15-.04.07-.12.1-.86.24-1.33.98-1.78,1.7l-2.97,6.47c-.2.01-.83.09-.95-.05l-3.91-8.12h-.67s.06-.1.07-.1h5.82s.08.06.07.1Z"/>
    <g>
      <path class="st0" d="M203.92,11.63v.1h-1.57l2.91,6.76,1.44-3.77c.36-.99,0-2.83-1.23-2.99-.13-.02-.49.08-.45-.1h4.34c.04.16-.2.08-.34.12-.77.22-1.7,1.8-2.02,2.5l-3.31,8.31h-1.2s-4.67-10.84-4.67-10.84h-.74s-.08-.06-.07-.1h6.91Z"/>
      <g>
        <path class="st0" d="M213.84,13.97v8.43h1.1s-.06.1-.07.1h-5.51v-.1h1.05v-8.05h-1.05l.07-.1c1.47-.03,2.98.12,4.41-.29Z"/>
        <path class="st0" d="M210.41,13.44c.09-.14.29-.17.4-.29.7-.67,1.06-3.36,2.47-2.85.44.16.6.67.55,1.1-.17,1.46-2.18,2.03-3.42,2.04Z"/>
      </g>
    </g>
    <path class="st0" d="M239.06,10.25v12.15h1.05v.1h-5.51s-.08-.06-.07-.1h1.1v-10.67h-1.02s-.07-.06-.07-.09c1.3.05,2.62-.15,3.75-.8l.78-.58Z"/>
    <path class="st0" d="M244.58,13.98c3.24-.29,5.6,1.77,5.21,5.11-.34,2.93-2.9,4-5.59,3.64-5.07-.69-4.9-8.28.39-8.74ZM245.52,14.17c-.68-.66-1.04.84-1.11,1.26-.26,1.48-.31,5.15.14,6.55.31.97.95.97,1.26,0,.45-1.4.36-4.62.2-6.13-.04-.41-.2-1.39-.49-1.68Z"/>
    <path class="st0" d="M228.89,13.98c3.63-.32,6.03,2.33,5.06,5.91-1.06,3.91-7.95,3.94-8.94-.16-.7-2.88.83-5.48,3.88-5.75ZM229.5,14.03c-.31.02-.5.44-.59.69-.48,1.33-.4,4.62-.25,6.09.04.41.22,1.72.66,1.86.33.1.51-.02.66-.3.62-1.11.5-5.35.34-6.7-.05-.42-.23-1.67-.82-1.64Z"/>
    <path class="st0" d="M224.23,25.37l.29-.07.02.24c.41-.34.85-.32,1.23.04.28-.33.83-.41,1.15-.09.07.07.21.28.21.36v1.21h-.33v-1.17s-.13-.23-.17-.26c-.16-.1-.5-.06-.64.07-.03.03-.15.22-.15.24v1.12h-.33v-1.17c0-.2-.32-.32-.5-.31-.17.01-.45.2-.45.36v1.12h-.33v-1.69Z"/>
    <path class="st0" d="M228.04,24.64v.91c.78-.67,1.83.13,1.39,1.08-.23.51-1.02.62-1.39.21v.24s-.33,0-.33,0v-2.43h.33ZM228.46,25.6c-.64.13-.54,1.27.21,1.21.8-.07.68-1.39-.21-1.21Z"/>
    <path class="st0" d="M202.78,25.3h.29s0,.24,0,.24c.18-.06.26-.19.46-.23.62-.1,1.1.34,1.06.96-.05.75-.96,1.07-1.48.55v.86h-.33v-2.38ZM203.53,25.6c-.65.12-.55,1.27.21,1.21s.71-1.37-.21-1.21Z"/>
    <path class="st0" d="M202.16,25.21c-.31-.31-1.46-.28-1.17.33.15.32,1.33.12,1.36.88.02.64-.79.7-1.25.63-.27-.04-.69-.21-.39-.51.26.35,1.49.41,1.29-.19-.13-.37-1.23-.21-1.35-.79-.18-.88,1.03-.99,1.59-.63l-.08.29Z"/>
    <path class="st0" d="M217,25.08c.46-.46,1.31-.48,1.77-.02l-.19.23c-.5-.5-1.46-.28-1.55.46-.12.93.87,1.34,1.54.79l.17.17c-.24.45-1.07.43-1.47.23-.65-.34-.79-1.35-.27-1.86Z"/>
    <path class="st0" d="M236.85,24.74c.12-.02.25-.02.37-.01.18.02.85.23.64.45-.14.16-.48-.16-.74-.17-1.28-.05-1.29,1.97.14,1.76.27-.04.44-.36.6-.12.12.17-.32.37-.47.39-1.89.32-2.04-2.11-.55-2.31Z"/>
    <path class="st0" d="M246.25,26.3h-1.38c.06.55.76.64,1.12.29l.15.24c-.47.48-1.5.26-1.6-.46-.18-1.38,1.86-1.44,1.71-.07ZM245.97,26.07c-.07-.65-1.05-.66-1.1,0h1.1Z"/>
    <path class="st0" d="M244.25,26.3h-1.43c.09.35.34.53.71.49.29-.03.43-.29.63,0-.44.48-1.51.31-1.62-.38-.23-1.43,1.82-1.52,1.71-.12ZM243.97,26.07c-.13-.66-1.01-.66-1.14,0h1.14Z"/>
    <path class="st0" d="M206.59,26.3h-1.43c.08.33.34.52.68.51.28-.01.45-.33.65,0-.47.51-1.52.3-1.62-.43-.19-1.4,1.83-1.43,1.71-.07ZM206.31,26.07c-.12-.66-1.02-.66-1.14,0h1.14Z"/>
    <path class="st0" d="M232.29,27.07h-.33s0-.19,0-.19c-.44.38-1.35.25-1.18-.49.03-.13.29-.32.39-.32h.79c.01-.43-.25-.52-.64-.47-.23.03-.43.3-.5-.07.32-.31,1.15-.33,1.37.1.02.04.1.3.1.33v1.12ZM231.95,26.3h-.69c-.17,0-.33.37-.06.49.34.16.84-.07.75-.49Z"/>
    <path class="st0" d="M211.22,27.07h-.29s0-.19,0-.19c-.4.4-1.47.19-1.19-.5.05-.13.29-.31.41-.31h.74c.06-.63-.62-.53-1.02-.33-.29-.41.58-.47.84-.42.21.04.51.27.51.49v1.26ZM210.88,26.3h-.69c-.2,0-.33.55.24.53.32-.01.52-.19.45-.53Z"/>
    <path class="st0" d="M223.8,26.19c0,.5-.41.91-.91.91s-.91-.41-.91-.91.41-.91.91-.91.91.41.91.91ZM222.74,25.6c-.65.13-.54,1.27.21,1.21s.69-1.39-.21-1.21Z"/>
    <path class="st0" d="M220.79,26.19c0,.5-.41.91-.91.91s-.91-.41-.91-.91.41-.91.91-.91.91.41.91.91ZM219.74,25.6c-.69.13-.54,1.27.21,1.21s.72-1.37-.21-1.21Z"/>
    <path class="st0" d="M239.95,26.19c0,.5-.41.91-.91.91s-.91-.41-.91-.91.41-.91.91-.91.91.41.91.91ZM239.65,26.19c0-.34-.27-.61-.61-.61s-.61.27-.61.61.27.61.61.61.61-.27.61-.61Z"/>
    <path class="st0" d="M214.7,26.68s.09-.08.1-.11c.14-.27.36-1.03.51-1.2.08-.09.18-.07.29-.07,0,.07,0,.13-.02.19-.09.29-.73,1.74-.89,1.97-.19.27-.58.36-.87.17-.13-.09-.05-.2.05-.28.35.21.65.05.68-.35l-.75-1.63c0-.08.29-.11.36-.02l.55,1.33Z"/>
    <path class="st0" d="M232.86,25.3h.29s0,.24,0,.24c.32-.27.94-.37,1.21,0,.05.06.17.35.17.4v1.12h-.33v-1.12c0-.36-.63-.48-.88-.21-.04.05-.17.35-.17.4v.93h-.29v-1.76Z"/>
    <path class="st0" d="M241.58,25.59h-.29s0-.29,0-.29h.29c-.06-.6.44-.89.95-.6l-.12.21c-.38-.12-.55-.03-.5.39h.48s0,.29,0,.29h-.48s0,1.48,0,1.48h-.33v-1.48Z"/>
    <path class="st0" d="M207.58,25.31c.32-.05.77.02.91.35l-.21.15c-1.05-.95-1.55,1.09-.45.99.3-.03.41-.37.67-.1-.06.17-.26.3-.43.33-1.41.3-1.57-1.55-.49-1.73Z"/>
    <path class="st0" d="M240.44,25.59h-.29s0-.29,0-.29h.29c-.12-.55.42-.88.89-.62l-.03.24c-.36-.13-.6-.03-.57.38l.48.02.04.27h-.52v1.48h-.29v-1.48Z"/>
    <path class="st0" d="M213.12,24.92v.38c.22.02.62-.11.5.24l-.5.04c.06.42-.25,1.49.53,1.16l.09.19c-.2.22-.71.17-.85-.1-.12-.24,0-1.21-.05-1.26-.47.08-.47-.36,0-.29v-.38s.29,0,.29,0Z"/>
    <rect class="st0" x="221.23" y="24.64" width=".33" height="2.43"/>
    <rect class="st0" x="211.79" y="24.64" width=".33" height="2.43"/>
    <path class="st0" d="M230.28,27.07h-.33v-1.69c0-.1.33-.1.33,0v1.69Z"/>
    <rect class="st0" x="208.93" y="25.3" width=".29" height="1.76"/>
    <circle class="st0" cx="230.12" cy="24.78" r=".21"/>
    <path class="st0" d="M183.09,16.11c.42-.23.68-.16,1.11-.15.23,0,.5-.16.65.21-.44.52-1.31.37-1.76-.06Z"/>
    <path class="st0" d="M184.52,14.97l-.19-1.87c.18-.2.2-.03.23.14.05.3.2,1.58.14,1.8-.07.25-.74.06-.96.17-.13-.03-.07-.23,0-.23h.79Z"/>
    <path class="st0" d="M183.52,13.44c.19.18-.59.38-.69.38-.19,0-.82-.13-.71-.38.34.08.57.2.94.13.16-.03.29-.16.46-.13Z"/>
    <circle class="st0" cx="179.6" cy="15.71" r=".19"/>
    <path class="st0" d="M181.13,2.12c6.63-.41,12.24,4.56,12.64,11.15-.16,3.95.21,8.07,0,12.01-.37,6.91-6.68,11.96-13.51,11.02-5.48-.76-9.85-5.48-10.14-11.02-.21-3.97.16-8.11,0-12.1.36-5.85,5.13-10.7,11-11.06ZM178.13,19.42c-.02-.36,0-.77,0-1.14,0-.14.16-.63.23-.77.1-.22.26-.41.39-.61-1.13-1.76-1.31-4.21-.51-6.13.4-.96,1.28-1.87,2.4-1.8.39.03.75.24,1.12.26.02-.02.22-.38.22-.41-.02-.18-.37-.83-.46-1.12-.79-2.76,2.14-1.95,3.35-2.84.44-.32.86-1,1-1.53.01-.05.04-.06-.01-.11-.13-.11-1.19-.38-1.43-.43-3.04-.67-6.17-.07-8.77,1.6.91.7,1.37,1.69,1.57,2.81-.64.13-1.3.09-1.95.1.25,1.03-.25,2.12-1.26,2.49-.09.03-.51.1-.51.16,1,.93,1.13,2.44,1.14,3.74-1.11.16-2.21-.04-3.27-.38-.17-.05-.6-.27-.72-.28-.04,0-.11.04-.11.06v2.29c.87.34,1.76.63,2.61,1.02,1.77.8,3.51,1.85,4.95,3.15.16,0,.02-.09.02-.12ZM171.84,8.58c-.28.37.32.82.63.96,1.58.72,3.19-.83,2.52-2.42-.22-.51-.75-1-1.31-1.06l-.22.28c2.06.26,1.68,3.28-.41,3.05-.57-.06-.77-.37-1.11-.75-.03-.03,0-.09-.11-.06ZM191.57,7.77c-1.67.8-.53,3.24,1.19,2.57l-.05-.19c-1.48.57-2.48-1.41-1.1-2.2l-.05-.18ZM181.52,17.4c.94.2,2.44.98,3.35.47.98-.55,1.57-2.45,1.69-3.5.19-1.67-.13-5.09-2.58-4.62-1.9.36-3.05,2.4-3.66,4.06-.62-.31-1.48-.7-1.79.21-.36,1.06.35,2.44,1.55,2.48-.21,1.3-.26,2.62-.43,3.92-.02.17-.07.33-.14.48.59.83,1.24,1.64,1.62,2.6,1.3-.57,2.62-1.09,4-1.43l-1.79-1.29-.09-.91c-1.1-.32-1.64-1.4-1.74-2.48ZM184.96,22.31c-.28,2.01,2.64,2.68,3.28.78.11-.33.16-1.03-.07-1.31-.07-.09-.28-.09-.22.08.2.61.27,1.03-.16,1.58-.92,1.19-2.87.31-2.59-1.19l-.23.05ZM191.72,25.68l-.02-.14c-.14-.19-.7.23-.81.24-.13,0-.68-.38-.83-.28l-.06.16c.34.13.71.19.88.55.12-.38.5-.42.83-.52ZM190.05,26.54c-.4.14-.85.22-1.17.52-.31-.3-.77-.39-1.17-.52l-.05.24c.45.1,1,.22,1.22.67.22-.44.76-.57,1.22-.67l-.05-.24ZM189.95,32.69c-2.41.54-4.9,0-6.96-1.31-2.17-1.38-3.96-3.89-6.9-2.41-.33.17-1.12.74-1.25,1.08-.02.06,0,.08.07.07.21-.05.42-.16.66-.2,2.83-.58,4.44,1.92,6.63,3.12,1.62.89,4.33,1.54,6.12.96.53-.17,1.2-.94,1.63-1.3ZM192.48,28.97c-2.25.62-4.52-.29-6.8-.15-1.33.08-2.6.72-3.5,1.69l1.26.88c1.21-.66,2.51-.73,3.86-.62.92.08,1.84.29,2.77.33.27.01.91.04,1.14,0,.15-.03.51-.66.6-.82.25-.42.45-.87.66-1.32ZM187.9,34.26c-2,.33-4.09-.11-5.85-1.09-2.26-1.26-4.12-4.07-7.07-2.89-.44.18-1.37.78-1.53,1.24-.04.12.04.04.08.03.15-.04.29-.11.43-.14,2.93-.68,4.56,1.93,6.84,3.14,1.15.61,3.08,1.3,4.37.97.91-.24,1.95-.73,2.72-1.26ZM191.15,31.31c-2.49.12-5.14-1.04-7.48.21,1.72,1.01,3.89,1.43,5.86,1.05.57-.11.68-.12,1.07-.55.19-.21.37-.49.55-.71ZM183.95,35.78c-1.6-.23-3.04-.85-4.35-1.77-1.69-1.19-3.18-2.97-5.5-2.43-.3.07-.58.2-.88.29-.02.07.02.08.05.12.17.25.6.66.83.88,2.28,2.15,5.44,3.28,8.58,3.09l1.26-.19Z"/>
  </g>
</svg>