<?xml version="1.0" encoding="UTF-8"?>
<svg id="Layer_1" xmlns="http://www.w3.org/2000/svg" version="1.1" viewBox="0 0 336 35.8">
  <!-- Generator: Adobe Illustrator 30.2.1, SVG Export Plug-In . SVG Version: 2.1.1 Build 1)  -->
  <defs>
    <style>
      .st0 {
        fill: #231f20;
      }

      .st1 {
        fill: #fafafa;
      }
    </style>
  </defs>
  <rect class="st1" x="-26.9" y="-382.5" width="390" height="844"/>
  <g>
    <g>
      <path class="st0" d="M320.312,6.936c-.192.02-.387-.026-.578.005-.057-.028-.078-.096-.055-.15.057-.024.402-.229.494-.281.054-.031.006-.213-.034-.238-1.1-.683-2.248-1.211-3.399-1.619-.453-.164-.909-.326-1.381-.444-.129-.032-.259-.063-.388-.093-.239-.061-.477-.118-.714-.17-.525-.134-1.059-.23-1.598-.293-.141-.017-.281-.032-.423-.044-.52-.045-1.041-.064-1.562-.075-.428-.008-4.098.213-4.373.251-.308.043-.617.095-.926.118-.506.021-.97-.09-1.364-.467-.358-.342-.794-.567-1.261-.729-.048-.017-.109.004-.164.008.011.054.008.116.034.16.132.219.278.43.407.65.053.091.085.178.103.262.018.085.014.167-.006.246-.031.127-.104.248-.235.359-.064.054-.134.102-.208.145-.063.016-.126.032-.195.034-.112.016-.238-.058-.338.044-.267.273-.584.356-.951.258-.094-.025-.177-.048-.24.071-.014.027-.039.045-.057.068-.052.067-.118.12-.195.159-.156.079-.343.103-.503.04-.147-.058-.264-.034-.359.111-.103.158-.396.248-.596.208-.011-.002-.022-.002-.032-.005-.012-.003-.027-.002-.037-.006-.109-.046-.194-.027-.241.074-.095.203-.213.284-.402.255-.107-.057-.171-.084-.213-.065-.01-.004-.018-.005-.028-.009-.121-.053-.179-.02-.217.09-.045.131-.137.203-.273.216-.127.012-.247-.005-.358-.077-.092-.06-.159-.048-.244.041-.146.153-.313.296-.555.169-.079-.041-.151-.03-.221.046-.038.042-.084.071-.134.091-.062.025-.131.035-.203.035-.006,0-.013,0-.019,0-.099.001-.198.007-.296.013-.036-.015-.076-.012-.107.007,0,0-.002,0-.003,0-.133.008-.289.073-.409-.037-.337-.309-.624-.661-.892-1.03-.228-.314-.461-.624-.711-.921-.125-.149-.247-.3-.376-.446-.179-.202-.385-.372-.583-.553-.241-.222-.517-.368-.815-.487-.077-.031-.113,0-.109.081.002.055.015.101.036.142.039.078.109.134.2.174-.016.197.057.35.226.456.035.099.073.197.103.298.052.172.195.31.234.471.111.457.366.843.554,1.26.095.211.18.417.186.658,0,.009,0,.018,0,.027.001.166-.028.326-.034.489-.007.208-.05.415-.154.596-.181.314-.369.625-.521.955-.126.275-.247.552-.404.812-.06.1-.124.2-.181.3-.097.17-.174.356-.312.503-.083.089-.22.245-.177.296.087.103.252.041.384.004.022-.006.043-.02.064-.029.099-.04.193-.086.284-.136.397-.221.725-.535,1.022-.874.461-.526.879-1.09,1.314-1.638.044-.056.09-.111.134-.166.136-.17.274-.338.443-.479.094-.079.205-.19.309-.181.237.021.475.019.711.05.074.01.15.034.201.102.045.061.111.06.178.057.107-.006.214-.005.32-.015.108-.01.188.021.233.122.063.14.181.129.285.082.301-.135.322-.062.498.179.108.148.179.159.325.07.207-.126.281-.103.439.092.052.064.113.121.145.201.033.083.084.122.179.058.163-.111.345-.128.535-.078.01.037.034.029.058.016.008.004.016.006.025.006.052.069.047.171.128.222-.006.141.068.16.182.12.165-.058.345-.046.499.06.002,0,.004.002.005.003.07.049.136.112.19.208.04.071.099.07.166.072.073.002.147-.005.221-.008.201-.081.307-.045.482.153.028.032.104.065.128.05.204-.125.378.004.557.059.238.072.24.125.111.33-.056.089-.107.182-.162.272-.203.334-.404.669-.599,1.007-.032.056-.082.158-.03.205.055.05.154-.018.215-.054.671-.387,1.336-.785,2.012-1.164l.063-.013c.488.045.975.108,1.463.162.287.032.574.064.861.091.291.027.582.056.873.073.008,0,.016.002.024.003.807.083,1.62.1,2.431.151.067.004.172.011.196.078.025.071-.057.152-.111.197-.186.152-.388.286-.575.437-.049.04-.133.116-.101.176.031.059.142.036.199.015.881-.314,1.76-.634,2.64-.952.419-.04,2.567-.327,2.642-.342.011.001,1.82-.362,1.821-.393,0,.031,1.101-.304,1.226-.351.409-.156.812-.333,1.206-.525.333-.162,1.824-1.02,1.852-1.099.044-.118-.001-.212-.112-.201Z"/>
      <g>
        <path class="st0" d="M282.898,28.156V12.041s2.065,0,2.065,0c1.391,0,2.478.263,3.195.943s1.087,1.732,1.087,3.333c0,.767-.065,1.337-.304,1.864-.239.526-.609.965-1.152,1.469.587.329,1.022.943,1.369,1.973.174.504.261,1.162.261,1.973,0,1.206-.217,2.28-.761,3.113-.543.833-1.478,1.381-2.869,1.447h-2.891ZM285.246,18.684c.196,0,.652.022,1.043-.241.391-.263.696-.789.696-1.908s-.304-1.644-.696-1.907c-.391-.263-.848-.241-1.043-.241v4.297ZM285.246,25.81c.196,0,.652.044,1.043-.241.391-.285.696-.921.696-2.236,0-1.316-.304-1.951-.696-2.236-.391-.285-.848-.241-1.043-.241v4.955Z"/>
        <path class="st0" d="M297.788,24.845c-.022.658-.152,1.25-.391,1.754-.196.439-.5.855-.935,1.184-.435.351-1.022.548-1.804.548s-1.391-.197-1.826-.548c-.435-.329-.717-.745-.913-1.184-.239-.504-.37-1.096-.391-1.754v-9.494c.022-.636.152-1.228.391-1.732.196-.438.478-.877.913-1.206s1.043-.548,1.826-.548,1.369.219,1.804.548c.435.329.739.767.935,1.206.239.504.37,1.096.391,1.732v9.494ZM295.44,15.351c0-.438-.087-.745-.304-1.009-.109-.11-.283-.175-.478-.175-.413,0-.609.307-.696.592-.065.175-.087.373-.087.592v9.494c0,.46.109.767.326,1.009.109.11.261.175.456.175.413,0,.609-.263.696-.592.065-.154.087-.351.087-.592v-9.494Z"/>
        <path class="st0" d="M302.721,19.758l-.196-.745h-.13v9.143s-2.152,0-2.152,0V12.041s2.087,0,2.087,0l2.282,8.398.196.745h.13v-9.143s2.152,0,2.152,0v16.115s-2.087,0-2.087,0l-2.282-8.398Z"/>
        <path class="st0" d="M309.698,12.041h2.348s0,16.115,0,16.115h-2.348s0-16.115,0-16.115Z"/>
        <path class="st0" d="M313.828,14.474v-2.434s6.782,0,6.782,0v2.434s-2.217,0-2.217,0v13.682s-2.348,0-2.348,0v-13.682h-2.217Z"/>
        <path class="st0" d="M328.5,24.845c-.022.658-.152,1.25-.391,1.754-.196.439-.5.855-.935,1.184-.435.351-1.022.548-1.804.548-.782,0-1.391-.197-1.826-.548-.435-.329-.717-.745-.913-1.184-.239-.504-.37-1.096-.391-1.754v-9.494c.022-.636.152-1.228.391-1.732.196-.438.478-.877.913-1.206s1.043-.548,1.826-.548,1.369.219,1.804.548c.435.329.739.767.935,1.206.239.504.37,1.096.391,1.732v9.494ZM326.152,15.351c0-.438-.087-.745-.304-1.009-.109-.11-.283-.175-.478-.175-.413,0-.609.307-.696.592-.065.175-.087.373-.087.592v9.494c0,.46.109.767.326,1.009.109.11.261.175.456.175.413,0,.609-.263.696-.592.065-.154.087-.351.087-.592v-9.494Z"/>
      </g>
      <g>
        <path class="st0" d="M294.041,32.617c-.079.06-.165.112-.256.155-.091.043-.19.077-.295.101-.105.024-.222.036-.351.036-.205,0-.393-.038-.565-.113-.172-.075-.322-.178-.448-.309-.127-.131-.225-.285-.297-.462-.071-.178-.107-.369-.107-.573,0-.202.036-.392.107-.569.071-.178.17-.333.297-.466.126-.133.277-.238.452-.315.175-.077.366-.115.573-.115.129,0,.245.011.349.032s.2.052.289.091c.089.039.171.086.246.141.075.055.148.116.218.184l-.218.234c-.121-.113-.251-.206-.389-.278-.139-.073-.305-.109-.498-.109-.156,0-.301.03-.434.089s-.249.141-.347.246-.175.228-.23.369c-.055.141-.083.294-.083.458s.028.318.083.46c.055.143.132.266.23.371.098.105.214.188.347.248.133.061.278.091.434.091.194,0,.361-.036.5-.107.14-.071.277-.172.412-.301l.21.206c-.073.075-.149.143-.228.204Z"/>
        <path class="st0" d="M300.202,32.861h-.343s-.331-.747-.331-.747h-1.538s-.335.747-.335.747h-.327s1.287-2.845,1.287-2.845h.299s1.287,2.845,1.287,2.845ZM298.761,30.392l-.646,1.441h1.288s-.642-1.441-.642-1.441Z"/>
        <path class="st0" d="M305.449,32.861l-.819-1.098h-.807v1.098s-.319,0-.319,0v-2.825s1.215,0,1.215,0c.156,0,.297.02.422.061s.232.098.321.172c.089.074.157.163.206.266.048.104.073.219.073.345,0,.118-.019.224-.057.317s-.091.174-.159.242-.15.126-.244.172c-.094.046-.196.078-.307.097l.868,1.154h-.392ZM305.23,30.479c-.127-.099-.305-.148-.534-.148h-.874v1.15h.87c.105,0,.202-.014.291-.04.089-.027.166-.065.231-.116.065-.05.115-.111.152-.184.036-.073.055-.155.055-.247,0-.178-.063-.317-.19-.415Z"/>
        <path class="st0" d="M309.513,30.036v2.825s-.319,0-.319,0v-2.825s.319,0,.319,0Z"/>
        <path class="st0" d="M314.663,30.087c.113.034.209.081.29.141.081.06.142.134.185.222.043.088.064.185.064.293,0,.094-.013.176-.038.246-.025.07-.06.132-.103.186-.043.054-.091.099-.143.135s-.107.067-.163.091c.083.024.162.056.236.095.074.039.138.085.191.139.054.054.097.118.129.194.032.075.048.161.048.258,0,.121-.024.23-.073.327s-.117.178-.207.244-.198.116-.324.151-.266.052-.419.052h-1.253s0-2.825,0-2.825h1.2c.14,0,.266.017.379.05ZM314.703,31.166c.121-.086.181-.213.181-.381,0-.143-.054-.257-.161-.34-.107-.084-.262-.126-.463-.126h-.857v.977h.833c.191,0,.346-.043.467-.13ZM314.857,32.445c.123-.089.185-.215.185-.377,0-.157-.063-.278-.189-.363s-.313-.128-.56-.128h-.89v1.001h.946c.215,0,.384-.044.507-.134Z"/>
        <path class="st0" d="M320.785,30.327h-1.723v.965h1.542s0,.291,0,.291h-1.542v.989h1.744s0,.291,0,.291h-2.062s0-2.825,0-2.825h2.042s0,.291,0,.291Z"/>
      </g>
    </g>
    <g>
      <path class="st0" d="M91.187,32.264h-.178c-.133,0-.247.045-.342.135-.122.115-.184.28-.184.496,0,.316.099.516.297.6.062.027.137.041.224.041.122,0,.27-.045.442-.135l.136-.073s.015-.005.034-.005.047.022.082.066c.036.044.054.08.054.108s-.007.048-.021.058c-.244.163-.504.244-.781.244s-.489-.081-.637-.243c-.148-.162-.222-.381-.222-.657s.09-.49.269-.644.408-.23.687-.23.473.056.585.167c.042.043.063.097.063.162s-.026.12-.077.165c-.051.045-.113.067-.186.067s-.135-.022-.186-.066-.076-.087-.076-.131.006-.085.017-.126"/>
      <path class="st0" d="M94.199,33.794c-.037,0-.044,0-.075,0-.099,0-.119,0-.133-.004-.015-.004-.033-.018-.051-.033-.019-.015-.04-.052-.064-.111-.156.101-.337.152-.545.152s-.366-.045-.475-.135c-.109-.09-.164-.205-.164-.345,0-.177.068-.312.203-.404.135-.092.297-.138.486-.138h.473c0-.19-.017-.312-.053-.368-.035-.055-.077-.093-.126-.114-.049-.021-.114-.032-.196-.032h-.195c.015.03.023.071.023.125s-.025.102-.075.147c-.05.044-.112.067-.188.068-.119,0-.2-.047-.243-.14-.013-.028-.019-.063-.019-.104,0-.082.048-.152.145-.212.14-.083.357-.125.65-.125.233,0,.406.063.517.189.088.101.132.245.132.43v.882s0,.269-.028.269M93.383,33.537c.161,0,.318-.057.471-.171v-.333h-.39c-.121,0-.205.015-.252.046-.088.055-.132.118-.132.189,0,.134.062.218.188.252.037.01.076.015.117.015"/>
      <path class="st0" d="M96.126,33.706c-.002.082-.028.084-.062.086h-.26c-.034,0-.052-.031-.052-.093l.002-.208v-1.131h-.365c0-.175.024-.263.073-.263h.029c.148,0,.232-.013.253-.039.008-.009.011-.02.011-.034v-.21c-.001-.33.113-.547.342-.652.084-.039.188-.058.31-.058s.217.019.283.056c.089.049.134.125.134.227,0,.067-.025.123-.075.167-.05.044-.112.067-.187.067-.119,0-.2-.047-.243-.14-.013-.028-.019-.06-.019-.094v-.055h-.002c-.103,0-.159.096-.166.288-.003.055-.004.109-.004.164v.312h.515c.032,0,.048.033.048.1s-.015.116-.046.148c-.01.011-.024.017-.04.015h-.476v1.204s0,.087-.001.141"/>
      <path class="st0" d="M97.642,32.893c.001-.276.093-.49.275-.641.182-.151.402-.227.661-.229h.006c.237,0,.42.066.549.199.129.132.193.323.193.572,0,.053-.027.099-.081.137-.054.038-.122.057-.204.057h-1.008c.023.266.127.437.312.512.059.024.121.036.186.036s.134-.009.207-.028c.073-.019.156-.055.251-.108.094-.053.15-.079.166-.079.016,0,.032.007.049.02.017.014.037.036.061.067.024.031.037.061.037.09,0,.03-.006.049-.02.058-.233.162-.491.242-.773.242s-.497-.082-.645-.246c-.148-.164-.221-.384-.22-.66M98.933,32.733c.001-.298-.123-.447-.373-.447-.126,0-.244.039-.352.118-.108.078-.167.188-.176.329h.901ZM98.581,31.739c-.054,0-.098-.018-.135-.055-.036-.037-.055-.08-.055-.129l.522-.486h.006c.079,0,.145.025.199.074.054.049.08.115.08.195l-.618.401Z"/>
      <path class="st0" d="M104.051,33.585c.027.041,0,.15-.027.174-.025.022-.064.031-.118.031-.061,0-.126-.005-.174-.015-.095-.02-.191-.067-.308-.184-.218.14-.454.21-.708.21s-.458-.063-.612-.188c-.154-.125-.231-.288-.231-.488,0-.142.036-.268.107-.377.071-.109.199-.246.383-.409l-.084-.123c-.114-.172-.17-.336-.169-.493,0-.157.067-.289.2-.397.133-.107.32-.161.561-.16.242,0,.425.063.55.188.096.097.143.214.143.353s-.039.268-.117.388c-.078.12-.216.271-.415.453l.488.577c.149-.192.214-.285.249-.42.015-.056.021-.084.018-.215-.002-.067.056-.098.089-.098.031,0,.067-.002.098,0,.036.002.082.044.082.124,0,0-.004.093-.006.125-.02.246-.128.43-.358.678l.04.056c.049.049.072.067.149.111.053.03.138.051.171.1M102.542,32.552c-.149.133-.224.287-.223.463,0,.176.04.307.117.393.077.086.169.13.274.13.205,0,.385-.052.538-.155l-.706-.831ZM102.856,32.333c.21-.166.316-.363.316-.592-.001-.142-.061-.238-.178-.288-.038-.016-.085-.024-.142-.024l-.006-.002c-.107,0-.193.025-.256.075-.064.05-.096.106-.096.169,0,.105.031.209.095.312.063.104.152.22.267.35"/>
      <path class="st0" d="M106.854,31.219c0-.051,0-.108.032-.131.04-.028.124-.024.255-.024.055,0,.084.048.086.145v.954c.176-.093.333-.14.471-.14h.012c.25,0,.448.079.593.237.145.158.218.374.218.647,0,.274-.086.489-.258.646-.172.157-.39.235-.652.235-.102,0-.217-.034-.344-.102-.031-.016-.057-.029-.078-.039,0,0-.082.084-.116.112-.03.024-.051.034-.079.034s-.075.003-.134-.023c-.059-.026-.075-.044-.075-.079,0-.057.055-.125.061-.25.022-.495.011-2.079.011-2.079v-.142ZM107.228,33.412c.121.076.241.114.36.114.244,0,.407-.104.49-.311.033-.082.05-.185.05-.309,0-.214-.055-.371-.167-.473-.084-.075-.184-.113-.299-.113-.115,0-.225.027-.33.083-.038.021-.073.046-.103.077v.931Z"/>
      <path class="st0" d="M109.838,33.716c0,.063-.026.073-.054.074h-.267c-.033,0-.05-.031-.05-.093v-.22s-.001-1.131-.001-1.131v-.182c-.001-.053.031-.106.067-.112.072-.012.171-.014.23-.005.053.008.074.05.077.147v1.521ZM109.651,31.731c-.119,0-.2-.047-.243-.14-.013-.028-.019-.06-.019-.094,0-.108.053-.181.159-.22.032-.011.066-.017.103-.017.074,0,.136.022.187.067.05.045.076.102.076.17,0,.067-.025.123-.075.167-.05.044-.112.067-.188.067"/>
      <path class="st0" d="M111.227,33.537h.218c.177,0,.297-.048.358-.145.018-.03.027-.062.027-.097,0-.066-.034-.118-.102-.155-.068-.038-.172-.075-.312-.113-.14-.038-.246-.071-.319-.099-.073-.028-.136-.061-.189-.1-.11-.082-.165-.194-.165-.338s.132-.352.396-.425c.098-.027.196-.041.293-.041.207,0,.371.025.493.075.153.063.229.153.228.271.001.066-.023.121-.073.165-.05.044-.113.067-.189.068-.12,0-.202-.047-.245-.14-.013-.028-.019-.052-.019-.07s.008-.061.023-.13h-.189c-.103,0-.18.016-.229.048-.091.056-.136.117-.136.184,0,.089.089.16.268.215l.145.044c.246.073.404.135.474.186.134.098.2.222.199.373-.001.151-.066.269-.195.356-.129.086-.292.13-.491.13s-.362-.022-.491-.065c-.198-.066-.297-.158-.297-.276,0-.073.025-.131.076-.176.05-.044.113-.067.188-.067.074,0,.136.022.188.066.051.044.076.093.076.148s-.003.091-.01.107"/>
      <path class="st0" d="M113.091,32.32c0-.175.024-.263.071-.263h.031c.198,0,.299-.024.304-.073l.082-.377c.015-.063.098-.094.249-.094v.544h.517c.032,0,.047.033.047.1,0,.067-.016.116-.047.148-.01.011-.023.017-.038.015h-.478v1.006c0,.127.042.191.126.191.096,0,.164-.007.204-.02.04-.013.072-.02.095-.02s.046.015.068.045c.022.03.033.061.033.093,0,.034-.012.056-.036.067-.165.077-.321.116-.471.116-.261,0-.392-.158-.392-.473v-1.006h-.364Z"/>
      <path class="st0" d="M115.601,33.685c0,.061-.035.075-.057.078h-.232c-.036,0-.079-.033-.079-.092,0-.085-.003-.221-.003-.221v-1.124l-.002-.16c.002-.095.016-.125.055-.133.068-.012.14-.012.18-.009.047.004.057.007.074.028.013.015.017.04.019.088.001.05,0,.076,0,.076,0,.014,0,.027,0,.041,0,.014,0,.026,0,.038.222-.181.422-.269.599-.273.012,0,.033,0,.05,0,.041.003.059.008.098.025.039.018.069.045.103.08.034.035.051.086.051.154s-.027.122-.08.165c-.054.043-.114.065-.182.065s-.125-.022-.172-.067c-.047-.045-.071-.094-.071-.148-.074.031-.13.066-.168.106-.038.04-.07.077-.096.111l-.084.116v1.055Z"/>
      <path class="st0" d="M118.05,33.799c-.274,0-.485-.084-.631-.253-.147-.169-.22-.39-.22-.664s.092-.485.277-.635c.185-.15.411-.224.679-.224h.006c.25,0,.449.083.598.248.149.166.223.384.223.656s-.087.485-.26.64c-.173.155-.397.232-.672.232M118.098,32.286c-.227-.001-.38.101-.459.305-.031.08-.047.177-.048.293,0,.215.045.377.136.487.091.11.215.165.373.165s.279-.06.364-.179c.084-.119.126-.271.126-.455-.001-.308-.103-.502-.304-.58-.061-.024-.124-.036-.188-.036M118.153,31.739c-.054,0-.099-.018-.135-.055-.036-.037-.055-.08-.055-.129l.522-.486h.006c.079,0,.145.025.199.074.054.049.08.115.08.195l-.618.401Z"/>
      <path class="st0" d="M122.799,17.929c-.47-.697-1.097-1.109-2.132-1.33-1.035-.222-2.069.697-2.007,1.679.063.982,1.097,1.267,2.007,1.077.909-.19,1.317.158,1.536.982s.485,2.339.087,3.98c-.394,1.624-1.637,3.504-3.455,3.566-1.203.041-2.241-.655-3.098-2.221-.495-.904-.717-2.015-.705-3.613.014-2.006.582-3.657,1.769-4.709,1.435-1.272,3.419-1.269,3.427-1.468.009-.204-2.495-.837-4.607,1.164-2.112,2.001-1.938,5.63-1.938,5.63.523,6.18,4.075,6.145,5.215,6.11,3.432-.107,4.78-2.836,5.127-5.092.078-.506.104-.992.109-1.433.015-1.246-.276-2.169-.364-2.42-.147-.423-.502-1.204-.972-1.9"/>
      <path class="st0" d="M112.977,15.733c-.649-.408-1.414.013-1.808.489-.561.676-.776,1.445-.926,2.267-.039.212-.135.803-.023.816.09.01.254-.565.599-.957.33-.375.922-.776,1.723-.979.787-.198,1.078-1.233.436-1.637"/>
      <path class="st0" d="M111.766,24.198c-.512-2.144-.818-4.626.992-6.244.028-.025.024-.039.02-.052-.036-.108-.347.034-.41.062-.242.105-.565.289-.755.426-.395.285-.767.659-1.009,1.278-.072.185-.137.409-.179.728-.027.203-.055.41-.071.623-.071.986-.029,1.973.114,2.952.076.918.233,1.831.451,2.73.154.637.275,1.454.884,1.886.39.277,1.033.325,1.344-.082.369-.484.009-1.221-.238-1.684-.45-.843-.919-1.692-1.141-2.622"/>
      <path class="st0" d="M108.281,15.603h-.672c-.181-.008-.432-.013-.767-.006-1.587.033-3.123.245-4.325,1.016-.839.538-1.673,1.714-1.673,2.937,0,2.469,1.906,3.872,5.378,3.893-2.381,1.561-3.761,2.124-6.061,2.9-1.327.448-2.701.757-4.073,1.011-1.383.256-2.81.298-4.211.122-2.02-.254-3.78-1.241-4.621-3.605-.893-2.51.274-5.156,1.848-6.243,1.606-1.11,3.16-.971,3.845-.829.879.13,1.852.51,2.538.99.596.417,1.019.88,1.337,1.532.266.546.324,1.126.292,1.575-.052.732-.261,1.521-.756,2.151-.483.616-.976,1.062-1.674,1.173-.306.049-.661-.06-.89-.243.082-.073.155-.144.217-.209.263-.277.499-.63.414-1.041-.081-.394-.433-.62-.81-.499-.446.144-.682,1.103-.399,1.704-.304.273-.711.428-1.044.393-1.049-.11-.651-1.341-.505-1.808.164-.525.671-1.877,1.034-3.013.049-.153.302-.764.062-.826-.382-.099-.655.249-.793.617-.229.609-.397,1.279-.545,1.907-.073.307-.186.933-.3,1.311-.793-.09-1.802.136-2.155.957-.301.7.208,1.387.939,1.236.51-.105.879-.574,1.17-1.099.005.296.071.585.297.786.537.478,1.393.357,2.029-.104.739.632,1.483.469,2.258.059,1.033-.546,1.515-1.429,1.886-2.426.367-.986.434-2.136.039-3.1-.873-2.137-3.571-3.214-5.692-3.217-2.252-.003-4.818,1.162-6.031,3.16-1.192,1.963-1.279,4.533-.044,6.497,1.571,2.5,3.045,3.034,5.468,3.38,2.788.398,5.727-.142,8.405-.94,2.605-.776,4.877-2.163,7.154-3.674v4.585c0,.079.064.144.144.144h1.286c.079,0,.144-.064.144-.144v-12.867c0-.079-.064-.144-.144-.144M90.519,23.704c-.245.334-.891.929-1.08.295-.107-.358.322-.712.58-.845.285-.146.604-.202.92-.188-.133.249-.219.463-.421.738M93.591,23.679c-.016-.037-.03-.075-.042-.114-.071-.229-.086-.826.225-.935.38-.134.391.382.269.573-.094.147-.253.302-.384.419-.022.019-.046.038-.068.058M103.04,21.919c-1.062-.809-1.055-1.94-.868-2.614.592-2.133,3.742-2.277,4.68-2.272v5.724c-1.02,0-2.753-.031-3.812-.837"/>
      <path class="st0" d="M99.173,14.247c1.991.014,3.124-1.738,3.679-2.993v2.875c0,.067.054.121.121.121h1.076c.067,0,.121-.054.121-.121v-3.563s0,0,0,0c-.004-.346.019-.605-.171-.837-.244-.299-.79-.245-1.208-.182-.461.069-.802.145-1.285.161-.653.021-.956.058-1.435.024-.525-.038-.729-.095-1.279-.219-.112-.025-.206-.006-.248.097-.046.115.068.346.377.414.762.166.908.183,1.654.241.455.035,1.158.045,1.61-.012.387-.048.552-.03.436.313-.427,1.097-1.476,3.094-3.423,2.973-2.805-.174-2.872-3.861-1.945-6.631.597-1.784,1.735-2.695,2.83-3.246.911-.458,1.855-.388,2.731-.073.804.288,1.413-.23,1.334-1.127-.079-.897-1.134-1.45-2.578-1.315-.648.061-2.403.395-4.116,2.433-1.713,2.038-1.832,5.434-1.829,6.41.008,2.624.84,4.238,3.545,4.258"/>
      <path class="st0" d="M112.731,9.687c.813-3.428.572-5.094.375-6.806-.12-1.043-.493-1.649-1.255-1.705-.535-.04-.93.307-.967.763-.043.522.428,1.105.731,2.332.443,1.794.522,4.915-.422,7.253-.44,1.09-1.047,1.929-2.167,1.929s-1.727-.839-2.167-1.929c-.944-2.338-.866-5.459-.422-7.253.303-1.227.773-1.81.731-2.332-.037-.456-.432-.802-.967-.763-.763.056-1.135.663-1.255,1.705-.197,1.712-.438,3.378.375,6.806.646,2.724,1.711,4.579,3.693,4.566h0s.008,0,.013,0c.004,0,.008,0,.013,0h0c1.982.012,3.047-1.842,3.693-4.567"/>
      <path class="st0" d="M88.605,12.923c.559-.598,1.287-1.614,1.964-2.926.345.089.667.127,1.108.161.455.035,1.158.045,1.61-.012.157-.019.275-.027.355-.008v3.962c0,.073.059.132.132.132h1.055c.073,0,.132-.059.132-.132V1.247c0-.073-.059-.132-.132-.132h-1.055c-.066,0-.12.048-.13.111-.174.469-2.286,6.096-4.558,8.386,0,0-1.311,1.578-2.672,2.177-.986.434-1.901.569-1.977,1.301-.076.732.548,1.168,1.501,1.139.953-.029,1.855-.437,2.667-1.306M93.643,2.511v6.969c-.344.056-.643.109-1.034.121-.653.021-1.031-.031-1.51-.065-.11-.008-.202-.018-.285-.031.091-.191.181-.386.269-.587.592-1.36,1.873-4.526,2.56-6.407"/>
      <path class="st0" d="M124.635,13.11c-.076-.732-.991-.867-1.977-1.301-1.361-.599-2.672-2.178-2.672-2.178-2.272-2.29-4.384-7.916-4.558-8.386-.01-.063-.064-.111-.13-.111h-1.055c-.073,0-.132.059-.132.132v12.854c0,.073.059.132.132.132h1.055c.073,0,.132-.059.132-.132v-3.989c.072-.002.161.006.268.019.452.056,1.155.047,1.61.012.471-.036.807-.076,1.178-.179.682,1.329,1.418,2.357,1.982,2.96.813.869,1.715,1.277,2.667,1.306.953.029,1.577-.407,1.501-1.139M117.887,9.54c-.479.034-.857.086-1.51.066-.358-.011-.638-.056-.947-.107V2.531c.688,1.881,1.968,5.048,2.56,6.407.083.192.169.377.256.559-.1.018-.214.033-.359.043"/>
    </g>
    <g>
      <path class="st0" d="M186.746,6.216c.099.129.447.129.546,0,.845-.002,1.659.032,2.495,0,.076.119.33.09.468.078.772-.068,1.413-.03,2.183,0,.212.008.554.056.702-.078.149.008.392.071.546.078.154.007.313.003.468,0,.125-.003.324.047.39-.078.888.041,1.766-.001,2.65,0,.12.13.501.131.624,0,.495.002,1.047-.009,1.559,0,.051.123.338.123.39,0,.049,0,.181.074.312.078.156.005.312-.004.468,0,.155.004.312.002.468,0,.147-.002.383.053.468-.078.317.025.554-.009.78,0,.021,0,.215.074.39.078.026,0,.052,0,.078,0,.147,0,.383.052.468-.078.026,0,.052,0,.078,0,.173.133.622.129.78,0,.636.019,1.06.078,1.715,0,.062.124.389.121.39,0,0-.132-.154-.055-.234-.078-.182-.051-.439-.193-.624,0h-.156c-.051-.123-.338-.123-.39,0h-1.403c-.362-.13-.958-.131-1.325,0h-1.247c-.12-.13-.501-.131-.624,0-.856,0-1.716.002-2.573,0-.051-.123-.338-.123-.39,0-1.976-.006-3.986.036-5.925-.078-.163-.01-.446-.049-.546.078-.026,0-.052,0-.078,0-.051-.123-.338-.123-.39,0-.419-.004-.852-.012-1.247,0-.06-.116-.269-.087-.39-.078-1.049.078-2.102.091-3.16.081-.223-.002-.466-.16-.66.035.001.171,1.746.039,1.95.039Z"/>
      <path class="st0" d="M205.455,29.32c-.685.002-1.382-.027-2.067,0-.105.004-.324-.065-.273.116.032.112,2.083.039,2.339.04.736,0,1.477-.045,2.209-.048,1.61-.007,3.422.389,4.885-.418.419-.231.34-.263.608-.529-.093.083-.576.433-.608.451-1.119.651-5.569.384-7.094.389Z"/>
      <path class="st0" d="M199.403,29.332c-.953-.11-3.076-.094-4.047-.017-.137.011-.301-.015-.347.16h4.755c.003-.123-.273-.133-.362-.143Z"/>
      <path class="st0" d="M167.69,6.232c.102.001.201.062.269.062.182.002.364,0,.546,0,.208,0,.416,0,.624,0,.188,0,.369-.078.39-.078.052,0,.104,0,.156,0,.757.003,1.552.077,2.339.078.156,0,.312,0,.468,0,.288,0,.593,0,.858,0,.259,0,.52,0,.78,0,.443,0,.885-.005,1.325,0,.169.002.441.055.546-.078.131.011.267.07.468.078.233.008.469-.003.702,0,.337.004.676-.002,1.013,0,.188,0,.369-.078.39-.078.223-.001.479-.001.702,0,.12,0,.294.071.468.078.212.009.554.055.702-.078.392.023.539.024.935,0,.119.127.442.091.624.078.1-.008.212-.07.312-.078.103.131.378.082.546.078.598-.015,1.196-.08,1.794-.037l.077-.118c-.267.071-.568-.063-.78-.079-.201-.014-.421-.002-.624,0-.171.002-.439-.058-.546.078-.97-.039-1.938-.073-2.884-.078-.156,0-.312,0-.468,0-.052,0-.104,0-.156,0-1.307-.006-2.609.003-3.898,0-.182,0-.364,0-.546,0-.467,0-.936,0-1.403,0-.233,0-.468,0-.702,0-.908,0-1.82-.004-2.728,0-.355.001-.718,0-1.052,0h-1.715c-.21.14-.664-.183-.702.156.148.208.929.012,1.174.015Z"/>
      <path class="st0" d="M209.353,6.216c.085.131.321.076.468.078.052,0,.104,0,.156,0,.13.001.26,0,.39,0,.13,0,.26-.004.39,0,.129.004.261-.008.39,0,.145.009.341-.026.468,0,.815.166,1.694,1.025,1.987,1.79.349.914.19,2.527.196,3.577.013,2.399.032,4.805.075,7.197.005.261-.096.568-.08.855.004.071.036.316.161.232-.014-1.477.004-2.961-.012-4.424-.007-.657-.041-1.33-.066-1.994.131-.085.076-.32.078-.467.004-.284.003-.571,0-.856-.002-.186-.002-.359,0-.545.009-.664.006-1.202.078-1.867.013-.116.035-.332-.078-.389-.018-.767-.07-.961-.373-1.619-.059-.127-.023-.256-.091-.365-.331-.531-1.274-1.087-1.874-1.205-.283-.056-.404-.064-.702-.078-.074-.125-.389-.127-.468,0-1.245-.03-2.676-.074-3.908-.031-.079.003-.323-.009-.302.108,1.042.075,2.075-.014,3.118,0Z"/>
      <path class="st0" d="M193.336,29.317c-.603-.068-1.297.084-1.835.081-.82-.006-1.687.001-2.495,0-5.247-.007-10.614-.003-15.825,0-7.224.005-14.481-.037-21.709-.08-.873-.005-2.367.186-3.159-.076-.07-.023-.66-.431-.768-.517-.211-.167-.653-.589-.791-.805-.398-.622-.373-1.403-.39-2.1-.012-.491.005-.987,0-1.478.125-.074.128-.388,0-.467-.012-1.593.053-3.196.039-4.785,0-.067-.012-.216-.116-.193-.056.158-.069.3-.079.466-.016.256.005.521,0,.778-.005.281,0,.572,0,.856,0,.181,0,.363,0,.545.002,1.142-.006,2.286,0,3.423,0,.155-.001.311,0,.467.002.232-.013.469,0,.7.013.233.054.364.078.545.074.549.089.831.39,1.322.33.539,1.045,1.094,1.637,1.322.692.267,1.555.219,2.297.237.583.015,1.174-.002,1.757-.004.156,0,.312.001.468,0,.052,0,.104,0,.156,0,.171-.002.439.058.546-.078.511.042.949.08,1.481.078.344-.001.798.066,1.091-.078.052,0,.104,0,.156,0,.149.135.488.084.702.078.245-.007.607-.071.858-.078.154.141.482.076.702.078.207.002.417.004.624,0,.125-.003.324.047.39-.078.104,0,.208-.001.312,0,.129.137.429.078.624.078.026,0,.052,0,.078,0,.147-.003.383.054.468-.078.026,0,.052,0,.078,0,.099.129.447.129.546,0,1.573.035,3.109.003,4.677,0,.051.123.338.123.39,0,.47,0,.932,0,1.403,0,.099.129.447.129.546,0,.078,0,.156,0,.234,0,.099.129.447.129.546,0,1.272-.002,2.548.001,3.82,0,5.278-.005,10.54.009,15.825,0,.804-.001,1.612.003,2.417,0,.701-.002,1.404.002,2.105,0-.029-.141-.153-.145-.27-.158Z"/>
      <path class="st0" d="M201.203,29.317c-.158.001-.307.08-.425.081-.01,0-.09-.081-.189-.081-.133,0-.726-.029-.747.042-.052.181.167.111.272.116.22.009.444-.003.664,0,.593.009,1.427.066,1.991.003.117-.013.241-.016.27-.158-.613.045-1.223-.009-1.836-.004Z"/>
      <path class="st0" d="M146.365,18.818v-2.723c-.126.004-.103.332-.11.433-.033.489.036.981.037,1.471,0,.25-.083.388-.038.69.014.093-.126.184.111.129Z"/>
      <path class="st0" d="M146.242,14.621c.013.097-.043.197.123.23v-1.945c-.256-.076-.16.496-.158.666.002.287,0,.786.035,1.049Z"/>
      <path class="st0" d="M147.499,6.917c.057-.046.087-.137.113-.156.349-.252.828-.496,1.247-.545.052-.006.337.006.468,0,.074.125.389.127.468,0,.026,0,.052,0,.078,0,.026,0,.052,0,.078,0,.085.131.321.076.468.078.7.009,1.405,0,2.105,0,.156,0,.312,0,.468,0,.804-.004,1.63-.074,2.417-.078.094,0,.214,0,.312,0,.048,0,.182.079.312.078.078,0,.156,0,.234,0,.208-.001.416.001.624,0,.789-.005,1.552-.051,2.339-.078.115-.004.282.009.468,0,.095.123.389.093.546.078.1-.009.208-.068.312-.078.292.151.368.008.59.012.092.002.166.066.189.066.179.001.362-.078.39-.078.28.002.568.075.858.078.036,0,.116-.078.156-.078.355.003.725.076,1.091.078.479.003.982-.074,1.403-.078.039,0,.158.079.269.078.3-.003.601.003.901,0,.086-.431-.316-.168-.585-.171-.196-.002-.424-.059-.663-.062-.441-.006-.885,0-1.325,0-.13,0-.26,0-.39,0-.234,0-.467,0-.702,0-.104,0-.208,0-.312,0-.232,0-.467,0-.702,0-.41,0-.883.078-1.247.078-.287,0-.664-.077-1.013-.078-1.144-.002-2.304-.002-3.43,0-.044,0-.173.077-.312.078-.03,0-.21-.078-.39-.078-1.686.004-3.382-.038-5.067,0-.191.004-.413.076-.468.078-.319.012-.509-.049-.935,0-.708.081-.675.056-1.247.467-.339.243-.924.668-.897,1.089.205-.409.476-.53.783-.777Z"/>
      <path class="st0" d="M213.797,27.297c-.241.249-.345.516-.468.933.329-.254.406-.553.468-.933Z"/>
      <path class="st0" d="M146.365,14.929c-.241.205-.069.676-.123,1.002-.026.161-.011.101.123.087v-1.089Z"/>
      <path class="st0" d="M213.173,28.464c-.006.006-.01.01-.016.016.008-.007.014-.013.016-.016Z"/>
      <path class="st0" d="M146.365,8.939l.156-.855c-.178.066-.23.314-.259.48-.014.078-.035.38.104.376Z"/>
      <rect class="st0" x="193.685" y="29.32" width=".467" height=".155"/>
      <path class="st0" d="M194.308,29.475c.171.004.407.043.467-.154h-.467s0,.154,0,.154Z"/>
      <path class="st0" d="M146.249,12.829h.116c.002-.13,0-.26,0-.389.003-.309-.003-.622,0-.933.006-.689.029-1.415,0-2.1-.002-.052.002-.104,0-.155-.206-.039-.16.05-.155.233.01.37.005.719,0,1.089-.002.13,0,.259,0,.389,0,.155-.001.311,0,.467.002.347.061.696.078,1.011.002.043-.174.364-.038.389Z"/>
      <path class="st0" d="M213.329,18.429c.007-.208,0-.412,0-.622,0-.199.008-.333,0-.545,0-.026.001-.052,0-.078-.005-.129.007-.26,0-.389-.003-.048-.074-.146-.078-.233,0-.015.003-.151,0-.233-.016-.424-.016-.761-.078-1.245-.012-.091.062-.099,0-.311-.024-.084-.14-.209-.135-.273.007-.088.252-.215.212-.27-.022-.031-.13.087-.155-.157.149-.119.087-.26.078-.389-.017-.247-.076-.483-.08-.734-.026-1.727.394-3.726-.474-5.272l-.222-.171c-.015-.04-.061-.06-.1-.078l-.059-.045c-.025-.122.163-.242-.157-.424-.04-.023-.073.036-.076.035-.051-.023-.111-.066-.156-.078-.157-.042-.514-.112-.661-.115-2.741-.049-5.544-.069-8.271.111-.036.002-.022-.129-.07-.14-.061-.014-.621.07-.783.07-7.802-.027-15.704.037-23.429.048-5.369.008-10.755-.145-16.091.021-.131.004-.446-.097-.55-.057-.067.025.026.181-.152.14l-.088-.153c-3.061.064-6.191-.062-9.184-.044-1.571.01-4.398-.326-5.189,1.285-.13.264-.092.349-.156.545-.018.054-.065.108-.078.156-.201.756-.182,1.194-.189,1.953-.041,4.436.107,9.12.036,13.563-.006.367-.234.965.23,1.171-.35.118-.112.431-.11.581.004.498-.071.817.15,1.324.13.298.611.806.896.934.168.323.212.433.546.311.023-.008.054.008.078,0,.04.015.078.024.116.031.079.219.173.023.274.047.057.013.111.06.234.078.025.004.052-.003.078,0,.019.002.081.072.156.078.231.016.47-.006.702,0,1.245.033,2.476.024,3.707.068.046.002,0-.204.23-.147.029.007.042.157.079.161.179.02.292-.188.465-.164.041.006.037.154.073.153,1.742-.071,3.542.102,5.242-.057.038-.004.462.134.727.142.104.003.208-.001.312,0,.488.006.988-.004,1.481,0,.182.001.364-.001.546,0,3.343.022,6.647-.105,9.94-.117.696-.003,2.096.102,2.65-.116.06-.024.023.114.055.133.114.07,2.342-.033,2.667-.039.606-.01,1.218.04,1.837-.017.066.071.144.074.234.078.196.007.363.062.312-.156.553.201,1.121.137,1.715.156.078.002.156-.002.234,0,3.787.085,7.756-.071,11.653-.058.209,0,.413.07.664.058.085-.004.196.024.234-.078.264.062.971.075,1.247.078.104,0,.208,0,.312,0,.116,0,.227.005.345-.004.971-.078,2.086-.078,3.163-.073.052,0,.104,0,.156,0,.157-.002.538.095.654.075.058-.009.044-.152.092-.156.122-.009.483.089.735.08.078-.003.156.001.234,0,.37-.005.863-.063,1.247-.078.157-.006.359.221.312-.078.271.107.295.151.624.156.075,0,.163.01.234,0,.141-.019.246-.154.338-.143.068.008.153.133.207.143.12.022.402.034.468-.078.261.018.323.004.546,0,.141.144.474.114.624,0,1.293.002,2.598.092,3.898,0,.224-.016.282-.038.468-.078,1.147-.248,1.74-1.319,1.949-2.411.031-.16.106-.278-.078-.389.033-.1.138-.221.156-.311.018-.088-.009-.212,0-.311.002-.026-.002-.052,0-.078.009-.102-.007-.208,0-.311.07-1.011.014-2.045.044-3.008.028-.897-.152-2.226-.044-2.982.013-.093.212-.337,0-.467ZM212.501,22.552c-.125.851-.147,1.737-.065,2.658-.057,1.118-.26,2.908-1.716,2.779-.759-.208-1.558-.21-2.362-.209-11.839.018-24.213.16-36.063.468l-1.24-.054c-1.791-.411-3.636-.318-5.442-.124l-.149.162c-.076-.038-.153-.072-.234-.097-.078-.024-.155-.046-.233-.048-1.76-.05-3.532-.076-5.29-.039-.262.084-.486.072-.673-.035-3.144-.049-6.254-.026-9.332.07-.296-.032-1.432-.476-1.55-.71-.119-.235-.18-.629-.189-.892-.026-.094-.107-.088-.195-.039-.016-.087-.069-.175-.078-.233.217-.081.222-.642,0-.7-.004-.143.035-.227-.055-.239.192-.043.263-.283.055-.384.019-.082-.008-.214,0-.311.008-.106.182-.123,0-.389l.144-.516c.019-.162.045-.476-.144-.495-.005-.124.048-.323-.078-.389.039-.064.075-.13.101-.198.166-.434.137-2.676.125-3.326.022-.295.023-.579-.149-.832-.005-.124.048-.323-.078-.389.239-1.266.179-2.704-.078-3.967.123-.051.123-.338,0-.389.192-.381.194-.747,0-1.128.239-.121.259-1.092,0-1.167.241-.35.292-1.071.078-1.439.137-.087.068-.32.078-.467.223-.046.303-.457.078-.545.003-.026-.003-.052,0-.078.006-.05-.007-.106,0-.156.018-.117-.002-.146,0-.156l.173-.076c.14-.696,1.535-1.224,2.165-.853.187-.062.384-.061.59.003,3.335.002,6.92-.025,10.358-.081.229-.004.457-.028.686-.055.229-.027.457-.064.685-.105.104,0,.208,0,.312,0,.33.041.66.078.991.105.33.027.66.051.99.055,2.964.036,5.932.059,8.896.064.33,0,.661-.022.992-.046.332-.024.663-.06.993-.099.13,0,.26,0,.39,0,.35.127.715.178,1.086.148,1.297.037,2.716-.009,3.981-.226.078,0,.156,0,.234,0,5.064.255,10.155.291,15.229.287,1.266.035,2.532-.009,3.792-.132.077,0,.156,0,.234,0,.591.232,1.281.233,1.871,0,.108,0,.258,0,.39,0,1.445.255,2.994.308,4.443.078.052,0,.104,0,.156,0l.204.159c1.179.061,2.348.03,3.506-.095l.11-.142c.009.002.129.063.156.078l-.017.181c1.021.612,1.073,1.557,1.043,2.673-.066,3.189-.098,6.419-.095,9.688-.063.461.068.787.238.526,0,.05,0,.104,0,.156l-.16.097c-.104.421-.129,1.241.112,1.614Z"/>
      <path class="st0" d="M213.173,28.464c.011-.011.106.025.142-.013.048-.052-.002-.167.014-.22-.228.176-.046.041-.156.233Z"/>
      <path class="st0" d="M214.031,23.252c-.002-.181.003-.363,0-.545,0-.055-.078-.198-.081-.344-.018-.766.021-1.535.003-2.3l-.131.127c-.041,2.102.168,4.258.057,6.371-.012.221-.046.517-.082.735.255-.263.23-2.098.234-2.567,0-.13,0-.259,0-.389,0-.192.002-.413,0-.622-.001-.155.002-.311,0-.467Z"/>
      <path class="st0" d="M184.953,19.712c-.188.113-1.49,3.39-1.714,3.851.223-.04.776.075.938-.035.092-.062.204-.566.301-.694.103-.137,1.556.006,1.831-.053.07.019.259.747.29.774.068.06.83-.024,1.004.009l-1.673-3.814c-.11-.113-.846-.117-.978-.037ZM184.875,22.008l.469-1.322c.102-.08.596,1.182.623,1.322h-1.091Z"/>
      <path class="st0" d="M199.531,10.028h.389l-.039-.545c.141.158.177.603.467.545.205-.087.068-.718.195-.932h-.389c-.043.036.206.447,0,.466-.098-.333-.244-.541-.624-.466.106.327.106.606,0,.932Z"/>
      <path class="st0" d="M196.078,10.015c.696.206.786-1.178-.004-.908-.258.089-.326.81.004.908ZM196.102,9.25c.008-.01.211.093.232.117.302.342-.367.904-.232-.117Z"/>
      <path class="st0" d="M207.37,9.868c.229.321.532.199.658-.151.008-.021.069-.044.072-.116.003-.084-.049-.133-.072-.195-.273-.752-1.025-.051-.658.462ZM207.757,9.796c-.097.163-.144-.019-.196-.079v-.311c.031-.031.072-.157.117-.154.203.012.162.407.08.545Z"/>
      <path class="st0" d="M201.479,9.095c-.042.042.015.394.117.387.022-.001.193-.39.35-.231.044.044-.264.657-.311.777.084-.013.257.031.303-.008.038-.031.249-.791.32-.924-.131.021-.749-.031-.78,0Z"/>
      <path class="st0" d="M208.807,9.095c-.167-.168-.731.801-.34.927.254.082.647-.182.457-.464-.087-.129-.312.015-.117-.463ZM208.574,9.872c-.019-.016.015-.118,0-.155l.156-.078c.054.133-.027.339-.156.233Z"/>
      <path class="st0" d="M190.489,9.378c.068.289-.096.409-.156.649h.467s-.078-.933-.078-.933c-.731.079-.242.245-.232.283Z"/>
      <path class="st0" d="M204.987,9.095c-.543-.055-.082.569-.311.933.164.005.355.035.467-.117-.313-.107-.096-.549-.156-.816Z"/>
      <path class="st0" d="M203.117,9.639c-.004-.113.002-.226,0-.339.007-.012.008-.028,0-.05-.002-.052.002-.104,0-.155-.138-.11-.651.471-.701.584-.059.135.31.145.467.193-.369.023-.125.232.195.156.109-.021-.04-.141-.039-.156.004-.042.158-.08.16-.13.002-.054-.082-.091-.082-.103Z"/>
      <path class="st0" d="M190.176,9.911c-.313-.107-.096-.549-.156-.816-.543-.055-.082.569-.311.933.164.005.355.035.467-.117Z"/>
      <path class="st0" d="M193.139,9.639c.075.004.159.006.234,0-.043.633.406.167.156-.078-.123-.12-.209-.018-.34-.057-.014-.007-.03-.014-.05-.021.024-.188-.065-.315.263-.235.088.021-.002.191.125.157.249-.496-.19-.266-.545-.311v.545c.052.004.105-.004.156,0Z"/>
      <path class="st0" d="M195.087,9.639c.058.018.164-.012.234,0,.262.347-.365.133-.389.156-.083.35.598.211.628.108.06-.208-.128-.626-.394-.42-.02-.049.014-.166,0-.233.095-.034.297.05.389-.117-.074-.092-.596.023-.615.046-.069.082-.022.406.148.46Z"/>
      <path class="st0" d="M191.227,9.483c.415-.104.014-.585-.193-.388-.048.045.001.436.193.388Z"/>
      <path class="st0" d="M205.767,9.717c.063-.107.294-.368.222-.457-.025-.031-.131.003-.144-.01-.009-.009.034-.136-.051-.158-.455-.12-.709.492-.3.392.068-.215-.009-.275.273-.234.051.325-.344.403-.391.66-.032.176.109.119.235.118.462-.006.596-.335.156-.311Z"/>
      <polygon class="st0" points="193.996 9.329 194.074 8.94 193.84 8.939 193.841 9.328 193.996 9.329"/>
      <path class="st0" d="M201.245,9.794v-.155s-.467.038-.467.038c.11.149.301.123.467.117Z"/>
      <rect class="st0" x="209.587" y="8.94" width=".155" height=".388"/>
      <rect class="st0" x="209.198" y="8.94" width=".155" height=".388"/>
      <rect class="st0" x="206.235" y="8.94" width=".155" height=".388"/>
      <rect class="st0" x="197.894" y="8.94" width=".155" height=".388"/>
      <rect class="st0" x="197.504" y="8.94" width=".155" height=".388"/>
      <path class="st0" d="M203.429,9.213c-.103.27.469.029.311-.117-.052-.048-.273.017-.311.117Z"/>
      <path class="st0" d="M192.359,9.328c.016.022.011.462,0,.545-.001.009-.112.058-.078.155h.389s-.156-.7-.156-.7c.006-.026-.007-.055,0-.078.11-.351-.119-.139-.312.039-.008.081.141.019.156.039Z"/>
      <path class="st0" d="M180.564,25.991c-.308.092-.328.762.064.837,1.118.215.898-1.124-.064-.837ZM180.923,26.662c-.427.121-.425-.456-.209-.526.37-.12.599.416.209.526Z"/>
      <path class="st0" d="M176.433,25.992c-.383.112-.461.803.137.844.946.066.763-1.108-.137-.844ZM176.534,26.637c-.232-.116-.184-.426.055-.494.509-.144.446.745-.055.494Z"/>
      <path class="st0" d="M184.875,25.975c-.358.027-.825-.168-.756.34.011.077.137.182.133.204-.003.019-.247.101-.156.311.284-.026.824.139.783-.272-.016-.154-.147-.171-.159-.194v-.078c.029-.051.231-.102.156-.311Z"/>
      <path class="st0" d="M178.093,26.364c-.038-.038-.043-.066,0-.078.021-.062.247-.182.08-.274-.598-.099-.882-.093-.548.508-.052.001-.104-.004-.155,0v.31c.284-.025.824.139.783-.272-.016-.154-.144-.168-.159-.194Z"/>
      <path class="st0" d="M179.618,26.679c-.377-.034-.294-.529-.002-.555.197-.018.248.178.426.161v-.31c-.399.008-.949-.124-.938.428.012.555.773.532.903.354.324-.443-.296-.07-.39-.078Z"/>
      <path class="st0" d="M182.864,26.62c.095.316.722.314.92-.023.046-.079.109-.102.078-.233-.142-.601-1.249-.581-.998.257ZM183.082,26.13c.147-.002.308-.028.436.071.5.387-.606.907-.436-.071Z"/>
      <path class="st0" d="M175.87,26.442c-.182-.078-.086.191-.123.222-.025.021-.294.021-.304.01-.033-.033.026-.63.156-.699h-.39s0,.855,0,.855c.139-.027.636.043.693-.009.034-.031.107-.32-.031-.379Z"/>
      <path class="st0" d="M181.835,26.053c-.444.233-.204.74,0,.545.017-.016.016-.379.078-.467.232.029.654.162.623-.155-.274.002-.458-.05-.701.077Z"/>
      <path class="st0" d="M182.303,26.675c-.2.027-.341.034-.545,0-.092.25.457.172.572.139.099-.028.092-.096.129-.14.196-.233-.069-.211-.156,0Z"/>
      <path class="st0" d="M158.604,9.095c-.42-.059-.364.045-.527.288-.231.344-.171-.219-.262-.278-.089-.057-.477-.028-.418.142.077.221.3.546-.041.666l.468.116-.155-.466c.204.016.157.439.349.389.079-.02.094-.373.273-.389l-.077.466.313-.037c.2-.164-.078-.096-.071-.154.006-.047.072-.099.069-.119.011-.127-.016-.263,0-.389.007-.054.119-.121.078-.233Z"/>
      <path class="st0" d="M153.771,9.095c-.043.036.206.447,0,.466-.098-.333-.244-.541-.624-.466.106.327.106.606,0,.932h.389l-.077-.466c.167.025.262.414.327.45.556.305.077-.726.451-.799-.112-.152-.303-.121-.467-.117Z"/>
      <path class="st0" d="M160.008,10.028h.467s-.077-.389-.077-.389c.233.17.246.472.622.388.079-.188-.091-.131-.128-.18-.17-.228.014-.258.039-.42.068-.448-.929-.389-.923-.216.001.034.238.249.155.611-.019.082-.231-.003-.156.205ZM160.709,9.329l-.311.233c-.046-.303.038-.24.311-.233Z"/>
      <path class="st0" d="M156.344,9.095h-.623c.134.391-.117.598-.234.933h.467c-.091-.331-.168-.336.234-.31l-.077.31h.467c-.076-.323-.397-.581-.234-.932Z"/>
      <path class="st0" d="M159.384,10.027h.467c-.055-.351-.381-.552-.234-.932h-.623c.086.22.014.511-.081.721-.039.087-.218.005-.153.211h.467c-.262-.488.441-.446.156,0Z"/>
      <path class="st0" d="M152.758,9.095h-.623c.163.352-.158.609-.234.933h.389s-.077-.31-.077-.31c.398-.003.451-.094.312.31h.467s-.296-.602-.296-.602l.062-.331Z"/>
      <path class="st0" d="M165.674,10.013c1.015.308.958-1.099.081-.902-.483.108-.448.791-.081.902ZM166.155,9.784c-.086.136-.438.11-.52-.123-.185-.528.834-.375.52.123Z"/>
      <path class="st0" d="M154.394,9.14c-.009.063-.009.33.002.344.138.172.14-.276.311-.155-.062.181.062.38.072.512.004.046-.234-.011-.149.188h.467c.084-.201-.151-.138-.15-.19,0-.032.064-.123.072-.198.012-.101-.008-.209,0-.311.179.081.14.162.311.155v-.389c-.143.027-.922-.055-.936.045Z"/>
      <path class="st0" d="M167.414,10.029v-.389c-.512.623-.437-.093-.312-.544h-.389c.066.334.126.599,0,.932h.702Z"/>
      <path class="st0" d="M161.566,9.328c.028.029-.018.438,0,.545-.046.009-.105-.008-.156,0-.067.265.251.127.467.154.039-.029-.15-.204-.156-.233-.009-.041.058-.529.08-.545.028-.02.348.169.309-.155h-.935s0,.388,0,.388c.151.085.232-.318.389-.155Z"/>
      <path class="st0" d="M165.152,9.717c-.517.11-.417.336-.701-.156.08-.375.403-.371.585-.079l.116-.387c-.365.131-.477-.149-.779.155-.094.095-.15.053-.163.27-.053.892,1.162.393.942.197Z"/>
      <path class="st0" d="M151.511,9.561c-.135-.054-.219-.119-.391-.078-.072-.45.246-.135.428-.155.091-.01.156-.186.002-.22-.53-.119-.895.409-.118.609-.01.045.007.106,0,.156-.282-.053-.561-.18-.468.155.207.022.355.002.546-.077.014-.006.235-.178.234-.193-.017-.17-.147-.161-.234-.196Z"/>
      <path class="st0" d="M162.658,10.027c.014-.01-.047-.106-.069-.182-.001-.015-.004-.032-.009-.051.002-.033.145-.447.163-.464.015-.015.306.114.381-.119-.732-.37-.526.182-.7.661-.005.015-.121.014-.078.155h.311Z"/>
      <path class="st0" d="M163.048,9.873c0,.008-.15.131-.039.156h.351c.012-.009-.055-.127-.078-.156-.041-.052-.293-.254-.311-.233-.03.09.074.187.077.233Z"/>
      <path class="st0" d="M175.912,21.186c.066-.745-.467-1.408-1.21-1.512-.668-.094-1.531.069-2.222,0v3.889h.936s.006-1.005.006-1.005c1.092-.051,2.363.05,2.49-1.372ZM173.416,21.774v-1.322c.323-.033.78-.046,1.091,0,.027.004.057-.007.078,0,.152.049.366.341.388.513.112.877-.948.829-1.557.81Z"/>
      <path class="st0" d="M196.265,19.683l-1.645,3.88c.223-.04.776.075.938-.035.092-.062.204-.566.301-.694.053-.07,1.593-.089,1.749-.036.209.072.277.691.376.752.132.081.79-.031,1.001.012l-1.727-3.876-.992-.004ZM196.179,22.008c.12-.439.513-.881.468-1.322-.003-.028.008-.062,0-.078.044-.01.136.015.156,0l.546,1.4h-1.169Z"/>
      <path class="st0" d="M192.124,19.712c-.176.108-.833,1.589-.973,1.594-.282-.17-.86-1.54-.987-1.619-.05-.031-.762-.029-.886-.013-.108.014-.135-.043-.114.115l1.48,2.413v1.361h.935v-1.361l1.481-2.528c-.237.04-.751-.076-.936.037Z"/>
      <path class="st0" d="M179.124,23.563c.046,0,.092,0,.139,0,.414.006.833.006,1.247,0,.052,0,.104.001.156,0,.233-.005.469.004.702,0-.048-.243.018-.603-.117-.778h-1.91v-3.112c-.185.039-.733-.06-.846.011-.196.122-.035,3.391-.089,3.879.233.003.469-.005.702,0,.005.003.011.002.017,0ZM180.552,23.341c-.085.05-.125.098-.12.144-.021-.078.02-.126.12-.144Z"/>
      <path class="st0" d="M161.957,20.141v2.256h1.442c.021,0,.33-.137.378-.167.542-.337.648-1.218.24-1.694-.083-.097-.599-.395-.696-.395h-1.364ZM162.502,21.93v-1.322c1.586-.291,1.622,1.617,0,1.322Z"/>
      <path class="st0" d="M166.251,21.923l-.008-.46h1.014s0-.344,0-.344l-1.015-.045v-.467h1.17v-.467h-1.715v2.256h1.793c.137-.802-.762-.33-1.24-.474Z"/>
      <path class="st0" d="M161.956,23.174v.389h5.535v-.389c-1.84.013-3.692-.008-5.535,0Z"/>
      <path class="st0" d="M172.87,14.695c.414.323.768,1.457,1.084,1.739.124.11.38.078.513-.029.197-.157.767-1.311.976-1.632l.156.156c.011.643-.009,1.299,0,1.945.052.004.104-.003.156,0,.127.007.262.005.39,0,.104-.004.209.004.312,0-.081-.156-.089-.293-.078-.466.007-.016.012-.031.015-.046.023-.053.062-.14.063-.265.001-.235-.08-.466-.078-.622,0-.026,0-.052,0-.078.001-.068.077-.221.078-.389.006-.672-.03-1.349,0-2.023l-.846.013-1.377,2.319-1.377-2.32-.845-.012v3.889s.857,0,.857,0v-2.178ZM176.088,16.161c.01-.003.02-.004.03,0,.008.004.015.009.026.013-.022-.004-.04-.009-.056-.013Z"/>
      <path class="st0" d="M166.786,12.941c-.468.083-.461.175-.698.432-.08.087-.132.061-.156.078-1.254.902-.964,2.765.439,3.335,3.604,1.463,4.355-4.539.415-3.844ZM167.855,16.031c-1.272.585-2.282-.864-1.453-1.976.362-.486,1.341-.455,1.764-.033.562.561.417,1.675-.311,2.009Z"/>
      <path class="st0" d="M200.772,13.184c-.062-.034-.474-.2-.501-.2h-2.3c.1.972-.11,1.966.117,2.918-.059.219-.232.912.039.972.123.027.267-.08.312-.078.13.008.358.147.546.077-.125-.316-.057-.682,0-1.01v-.078c.216.032.601-.067.779.039.188.113.508.96.756,1.035.257.078.678-.024.96.014l-.857-1.205c.985-.391,1.076-1.982.15-2.483ZM200.098,14.989c-.364.169-.802.072-1.19.095.106-.439.071-.882,0-1.322.333.047.824-.065,1.13,0,.502.107.627.963.06,1.227Z"/>
      <path class="st0" d="M188.019,13.308c-.121-.079-.659-.324-.767-.324h-2.378v3.889h2.3c.046,0,.553-.179.638-.219,1.295-.623,1.423-2.548.207-3.346ZM187,16.077c-.425.071-.787-.002-1.19-.059v-.078c.039-.238-.019-.405-.078-.622.116-.054.077-.209.078-.311.002-.162.049-.315-.078-.389-.004-.082.068-.171.078-.233.008-.048-.003-.105,0-.156.003-.051-.005-.105,0-.156.011-.1-.016-.218,0-.311.284.013.575-.019.858,0,.101.007.218-.015.312,0,1.22.189,1.267,2.106.02,2.315ZM188.383,13.994l-.312.078c.066-.121.07-.44.233-.31.01.008.029.174.079.232Z"/>
      <path class="st0" d="M162.964,16.223c-.012-.068-.484-.526-.569-.511-.112.019-.404.454-.95.464-1.689.031-1.628-2.632.072-2.485.456.039.817.437.866.441.109.009.639-.431.551-.603-.387-.759-2.045-.75-2.693-.346-.088.055-.118.159-.157.189-.295.23-.705.543-.775.976-.275,1.701.795,2.82,2.509,2.582.257-.036,1.199-.4,1.145-.708Z"/>
      <path class="st0" d="M195.399,15.551c.021-.08-.013-.215,0-.311.007-.05-.003-.105,0-.156.006-.112.054-.223.048-.335-.121-2.133-3.363-2.625-4.102-.521-.019.054-.125.099-.152.274-.117.739.038,1.131.464,1.671.301.382.404.546.935.7.164.047.295.075.468.078.241.004.438.028.624-.156.012.014.139.077.156.078.114.006.306-.067.39-.156.026-.002.055.005.078,0,.371-.081,1.001-.828,1.091-1.167ZM192.703,15.867l-.188.073c-.079-.139-.208-.192-.234-.233-.009-.015-.145-.285-.156-.311-.021-.05-.071-.112-.078-.156-.004-.023.063-.4.078-.467.221-.056.349-.433.234-.622.03-.049.05-.105.078-.156l.197.091c2.274-1.228,2.262,2.73.069,1.781Z"/>
      <path class="st0" d="M181.991,16.874c.104.001.208,0,.312,0-.02-.124.03-.671,0-.699-.122-.114-1.877.044-2.182-.079-.007-.085-.047-.157-.078-.233.233-.061.076-.186.078-.233.003-.077-.007-.157,0-.233.006-.066.001-.134.078-.156.006.009.051-.006.078,0,.063.014.159-.004.234,0,.103.005.208-.003.312,0,.155.004.313.004.468,0,.078-.002.156.005.234,0,.051-.003.106.007.156,0,.481-.063.28-.286.312-.7-.27.042-1.006-.174-.78.312-.025-.005-.053.005-.078,0-.04-.063-.18-.217-.234-.233.105,0,.18.035.156-.077-.198.101-.899-.109-.935-.079.01-.073-.015-.167,0-.233.012-.052.056-.121.078-.233.018-.091-.014-.213,0-.311.254-.003,1.931.093,2.02-.007.051-.058-.02-.554.007-.693h-2.962l-.002,3.843c-.009.08.101.046.157.046.16,0,.338-.079.39-.078.361.011.755.079,1.169.078.052,0,.104,0,.156,0,.207,0,.417.006.624,0,.092-.003.145-.001.234,0ZM180.638,14.773c.024.027.061.051.105.078-.088-.01-.153-.055-.234-.078.066.022.105.02.128,0ZM179.418,15.551c.04.111.096.099.156,0v.078c-.011.004-.022.018-.033.033l-.045.045c-.013-.08-.072-.091-.116-.056-.007-.008-.019-.015-.04-.022.036-.012.07-.041.078-.078Z"/>
    </g>
    <g>
      <path d="M244.148,1.936c.246.06.475.151.653.33.262.263.469.555.653.884.811,1.451,1.431,3.436,1.97,5.03l1.097,3.422c.227.709.462,1.379.751,2.062l.698-2.277,1.007-3.343c.238-.79.526-1.53.863-2.279.25-.556.661-1.349,1.194-1.649.42-.237.914-.104,1.155.311.134.231.214.488.257.759.177,1.122.015,2.737-.154,3.889-.334,2.267-.844,4.48-1.539,6.661-.241.755-.509,1.458-.813,2.184.903.389,1.887.347,2.693-.262l-.428-.476c-.023-.025.029-.113.072-.112l1.506.046-.063,1.472c-.001.029-.026.082-.044.099s-.089-.015-.113-.04l-.408-.428c-1.065.823-2.333.897-3.55.388-.217.379-.471.708-.82.957-1.65,1.176-3.605-.85-4.286-2.268-.163-.339-.253-.695-.192-1.065.097-.587.569-1.022,1.148-1.139.827-.167,1.709.309,2.248.889l.804.864c.236.254.466.481.764.696.329-.765.601-1.515.847-2.313.657-2.127,1.14-4.279,1.452-6.485.113-.795.435-3.433-.09-3.992-.609.149-1.495,2.628-1.667,3.185l-.909,2.951-.705,2.395c-.113.383-.246.737-.405,1.097-.078.175-.242.301-.398.321-.473.059-.739-.528-.907-.942-.258-.633-.475-1.251-.686-1.907l-1.183-3.688c-.342-1.067-.702-2.094-1.117-3.129-.227-.566-.47-1.095-.771-1.619-.092-.16-.48-.759-.655-.69-.215.086-.301.693-.313.92-.137,2.617,1.514,7.964,2.378,10.583.061.186-.034.365-.167.445-.17.102-.348.055-.484-.077-.354-.343-1.975-1.773-2.311-.888-.305.802.29,2.263.669,3.014.093.185.06.388-.098.503-.151.111-.348.096-.495-.035-.402-.357-.823-.675-1.299-.93-.189-.101-.737-.36-.891-.22-.158.143-.042.664.018.87.357,1.224,1.168,2.628,1.825,3.726.107.18.004.41-.153.494-.162.087-.392.056-.502-.122-.533-.86-1.015-1.726-1.434-2.649-.292-.644-.672-1.606-.573-2.291.082-.568.564-.898,1.127-.816.447.065.836.269,1.245.505-.231-.769-.435-1.679-.112-2.399.227-.517.725-.773,1.28-.68.441.074.809.293,1.223.526-.79-2.572-2.121-7.031-1.997-9.569.036-.742.236-1.547,1.037-1.701h.098ZM250.934,18.238c-.443-.305-.791-.653-1.138-1.043-.507-.568-1.124-1.314-1.918-1.377-.353-.028-.71.138-.811.489-.059.207.012.439.106.638.405.853,1.271,1.864,2.189,2.157.712.227,1.254-.272,1.572-.864Z"/>
      <path d="M264.567,26.084v.687c-.141.839-.67,1.53-1.518,1.756-1.163.31-2.425-.171-2.784-1.375-.344-1.155.16-2.398,1.344-2.777.494-.158,1.004-.156,1.496-.006.812.247,1.305.912,1.463,1.715ZM263.486,27.117c.228-.468.211-1.007-.043-1.443-.226-.387-.629-.596-1.053-.602-.43-.007-.843.186-1.081.568-.293.47-.298,1.078-.02,1.557.239.413.669.623,1.131.606.437-.016.854-.249,1.067-.685Z"/>
      <path d="M258.545,28.533l-.969.002-.781-1.621-.474-.002v1.627s-.884,0-.884,0v-4.195s1.472,0,1.472,0c.235,0,.465.062.676.141.266.127.459.327.551.608.179.585.053,1.326-.564,1.623l.973,1.818ZM257.304,25.61c-.006-.285-.175-.495-.449-.523-.172-.018-.35-.017-.535-.018l.002,1.139.448-.004c.323-.003.541-.26.534-.594Z"/>
      <path d="M243.388,27.559l-1.511-.005-.319.992-.875-.004,1.451-4.202.995.006,1.449,4.195-.873.009-.317-.99ZM243.166,26.859l-.536-1.78-.536,1.79,1.072-.01Z"/>
      <polygon points="234.535 24.351 235.512 24.347 233.997 28.542 232.961 28.543 231.445 24.346 232.42 24.344 233.477 27.655 234.535 24.351"/>
      <polygon points="252.708 26.801 251.634 26.805 251.634 27.767 252.94 27.77 252.941 28.546 250.751 28.548 250.749 24.343 252.89 24.342 252.892 25.118 251.634 25.122 251.634 26.032 252.7 26.036 252.708 26.801"/>
      <path d="M246.345,28.539l.096-.758h.296c.225.002.451-.177.451-.425l.003-3.013h.883s-.009,3.306-.009,3.306c-.001.433-.312.759-.702.865-.335.091-.647.081-1.018.025Z"/>
      <rect x="237.676" y="24.342" width=".876" height="4.205"/>
      <path d="M244.185,32.312c0,.852-.69,1.542-1.542,1.542s-1.542-.69-1.542-1.542.69-1.542,1.542-1.542,1.542.69,1.542,1.542ZM243.835,32.311c0-.658-.533-1.191-1.191-1.191s-1.191.533-1.191,1.191.533,1.191,1.191,1.191,1.191-.533,1.191-1.191Z"/>
      <polygon points="239.879 33.786 239.528 33.795 239.523 32.449 237.957 32.45 237.954 33.794 237.604 33.794 237.603 30.827 237.953 30.822 237.957 32.12 239.523 32.121 239.528 30.826 239.878 30.825 239.879 33.786"/>
      <path d="M247.045,33.212c-.096.471-.561.696-1.037.64-.376-.045-.668-.293-.779-.658l.299-.126c.106.316.362.477.683.461.229-.012.425-.138.478-.339.243-.919-1.606-.66-1.353-1.839.074-.346.396-.567.776-.586.406-.02.76.183.898.582l-.296.113c-.122-.277-.355-.394-.636-.365-.153.016-.301.115-.353.219-.282.562.516.764.941,1.019.318.191.453.522.38.88Z"/>
      <path d="M258.242,33.217c-.098.474-.592.701-1.043.637-.375-.054-.664-.301-.77-.66l.297-.127c.104.302.336.461.642.462.232,0,.443-.109.51-.315.069-.209.004-.471-.208-.598-.232-.138-.478-.257-.721-.385-.33-.174-.492-.508-.417-.876.069-.336.372-.558.738-.589.423-.036.792.169.939.575l-.294.121c-.121-.27-.357-.403-.645-.368-.175.021-.324.135-.373.273-.195.547.555.704.983.976.308.196.436.517.362.874Z"/>
      <polygon points="252.543 32.438 251.61 32.442 251.608 33.479 252.72 33.479 252.718 33.797 251.257 33.798 251.256 30.822 252.668 30.82 252.669 31.146 251.608 31.15 251.608 32.119 252.532 32.122 252.543 32.438"/>
      <polygon points="249.236 33.795 248.886 33.792 248.883 31.149 248.089 31.148 248.087 30.821 250.025 30.821 250.027 31.146 249.238 31.151 249.236 33.795"/>
      <polygon points="255.491 33.479 255.489 33.798 254.03 33.799 254.03 30.828 254.382 30.829 254.382 33.479 255.491 33.479"/>
    </g>
    <g>
      <circle class="st0" cx="31.499" cy="21.558" r=".145"/>
      <path class="st0" d="M39.297,14.474h-.939l1.618,3.332.77-1.738c.288-.726-.031-1.678-.932-1.594-.002-.021.043-.064.049-.064h2.444c.016.1-.027.051-.079.065-.586.16-.903.668-1.209,1.155l-2.014,4.393c-.138.01-.567.064-.644-.036l-2.658-5.512h-.453c-.002-.021.043-.065.049-.065h3.95c.006,0,.051.044.049.065Z"/>
      <g>
        <path class="st0" d="M27.998,12.63v.065h-1.068l1.974,4.594.981-2.563c.242-.674.003-1.924-.835-2.031-.086-.011-.33.053-.308-.065h2.946c.025.106-.138.054-.228.08-.523.148-1.157,1.224-1.374,1.7l-2.25,5.645-.813-.005-3.169-7.356h-.502c-.006,0-.051-.044-.049-.065h4.694Z"/>
        <g>
          <path class="st0" d="M34.732,14.215v5.726h.745c.002.021-.043.065-.049.065h-3.739v-.065h.712v-5.467h-.712l.048-.065c1-.019,2.023.081,2.995-.194Z"/>
          <path class="st0" d="M32.401,13.859c.062-.093.195-.117.275-.194.477-.458.721-2.28,1.677-1.934.296.107.405.456.371.745-.116.991-1.478,1.382-2.323,1.383Z"/>
        </g>
      </g>
      <path class="st0" d="M51.858,11.692v8.249h.712v.065h-3.739c-.006,0-.051-.044-.049-.065h.745v-7.246h-.696c-.006,0-.051-.044-.049-.064.882.034,1.777-.102,2.547-.545l.529-.394Z"/>
      <path class="st0" d="M55.607,14.224c2.202-.194,3.8,1.205,3.535,3.468-.233,1.988-1.972,2.72-3.799,2.471-3.446-.47-3.331-5.622.264-5.938ZM56.25,14.355c-.462-.448-.708.573-.757.856-.174,1.003-.208,3.499.097,4.446.213.661.643.661.856,0,.306-.95.247-3.14.138-4.164-.03-.279-.135-.945-.334-1.138Z"/>
      <path class="st0" d="M44.956,14.224c2.467-.218,4.096,1.579,3.436,4.015-.72,2.654-5.396,2.678-6.068-.11-.472-1.959.565-3.722,2.632-3.905ZM45.372,14.256c-.209.012-.341.297-.402.467-.328.905-.269,3.139-.169,4.133.028.278.15,1.17.451,1.263.223.069.346-.016.449-.201.418-.752.341-3.636.228-4.551-.035-.287-.158-1.134-.558-1.111Z"/>
      <path class="st0" d="M41.79,21.963l.194-.049.016.162c.282-.231.576-.216.838.03.19-.224.561-.279.783-.064.045.044.144.192.144.244v.825h-.227v-.793c0-.016-.089-.157-.116-.175-.111-.071-.337-.041-.432.047-.019.018-.099.151-.099.16v.76h-.227v-.793c0-.137-.215-.221-.339-.212-.113.008-.308.134-.308.245v.76h-.227v-1.148Z"/>
      <path class="st0" d="M44.38,21.461v.615c.527-.453,1.241.09.945.734-.159.346-.692.418-.945.139v.162s-.227,0-.227,0v-1.65h.227ZM44.662,22.116c-.434.088-.369.863.14.819.541-.047.463-.942-.14-.819Z"/>
      <path class="st0" d="M27.221,21.914h.194s0,.162,0,.162c.119-.04.175-.13.315-.154.423-.071.749.229.721.655-.034.507-.652.726-1.004.373v.582h-.227v-1.617ZM27.731,22.116c-.439.08-.373.864.14.819.522-.046.481-.932-.14-.819Z"/>
      <path class="st0" d="M26.8,21.849c-.21-.208-.992-.187-.793.227.105.218.907.085.924.599.015.435-.536.477-.852.428-.185-.029-.471-.139-.267-.347.175.236,1.015.278.876-.132-.085-.253-.835-.141-.917-.539-.123-.6.701-.673,1.079-.431l-.051.195Z"/>
      <path class="st0" d="M36.88,21.764c.311-.31.888-.325,1.204-.012l-.13.157c-.338-.341-.99-.192-1.053.312-.079.629.587.907,1.048.537l.115.115c-.162.307-.729.292-.998.154-.444-.228-.536-.914-.186-1.263Z"/>
      <path class="st0" d="M50.361,21.534c.083-.011.167-.015.25-.008.122.01.579.154.437.307-.098.106-.326-.107-.503-.114-.872-.034-.876,1.335.096,1.195.182-.026.296-.246.409-.079.08.118-.216.251-.317.268-1.285.218-1.382-1.433-.372-1.569Z"/>
      <path class="st0" d="M56.747,22.593h-.939c.043.377.519.437.761.195l.099.161c-.318.326-1.019.177-1.084-.31-.123-.936,1.261-.98,1.162-.046ZM56.552,22.432c-.051-.439-.715-.447-.745,0h.745Z"/>
      <path class="st0" d="M55.387,22.593h-.971c.064.236.234.357.481.334.197-.018.294-.198.425.005-.302.329-1.023.21-1.098-.261-.155-.973,1.235-1.029,1.163-.079ZM55.193,22.432c-.089-.45-.688-.449-.777,0h.777Z"/>
      <path class="st0" d="M29.811,22.593h-.971c.056.222.233.354.465.344.193-.008.306-.221.441-.005-.32.345-1.03.201-1.097-.294-.129-.949,1.244-.973,1.162-.046ZM29.617,22.432c-.083-.449-.692-.449-.777,0h.777Z"/>
      <path class="st0" d="M47.261,23.111h-.227s0-.129,0-.129c-.298.258-.917.17-.8-.332.02-.085.194-.218.266-.218h.534c.008-.294-.173-.356-.434-.32-.159.022-.291.201-.34-.048.217-.208.783-.222.932.065.015.029.069.203.069.223v.76ZM47.034,22.593h-.469c-.113,0-.221.249-.041.332.233.108.569-.045.51-.332Z"/>
      <path class="st0" d="M32.952,23.111h-.194s0-.129,0-.129c-.274.272-.999.13-.811-.342.034-.086.196-.208.277-.208h.502c.041-.43-.423-.357-.692-.224-.198-.279.391-.317.571-.286.145.025.348.181.348.332v.857ZM32.725,22.593h-.469c-.134,0-.224.371.162.359.217-.007.355-.13.307-.359Z"/>
      <path class="st0" d="M41.499,22.516c0,.341-.276.617-.617.617s-.617-.276-.617-.617.276-.617.617-.617.617.276.617.617ZM40.777,22.116c-.443.091-.368.863.14.819.532-.046.467-.944-.14-.819Z"/>
      <path class="st0" d="M39.455,22.516c0,.34-.276.616-.617.616s-.617-.276-.617-.616.276-.616.617-.616.617.276.617.616ZM38.738,22.116c-.468.085-.364.863.14.819.513-.045.486-.933-.14-.819Z"/>
      <path class="st0" d="M52.463,22.518c0,.34-.276.616-.616.616s-.616-.276-.616-.616.276-.616.616-.616.616.276.616.616ZM52.259,22.518c0-.228-.185-.412-.413-.412s-.413.185-.413.412.185.412.413.412.413-.185.413-.412Z"/>
      <path class="st0" d="M35.315,22.852c.021.016.059-.053.071-.074.098-.182.244-.699.348-.817.052-.06.122-.049.196-.046.006.045-.002.087-.015.13-.059.2-.494,1.181-.605,1.336-.13.181-.397.245-.59.115-.092-.061-.031-.134.032-.188.237.142.439.032.46-.238l-.511-1.107c.003-.055.2-.077.242-.016l.372.906Z"/>
      <path class="st0" d="M47.649,21.914h.194s0,.162,0,.162c.215-.184.637-.253.823.002.031.042.115.235.115.273v.76h-.227v-.76c0-.241-.429-.329-.597-.144-.029.032-.115.241-.115.273v.631h-.194v-1.197Z"/>
      <path class="st0" d="M53.574,22.108h-.194s0-.194,0-.194h.195c-.044-.406.301-.604.646-.405l-.082.143c-.257-.082-.376-.018-.338.263h.324s0,.194,0,.194h-.324s0,1.003,0,1.003h-.227v-1.003Z"/>
      <path class="st0" d="M30.483,21.922c.217-.037.522.016.617.235l-.139.105c-.715-.642-1.054.738-.305.672.203-.018.282-.254.452-.065-.041.116-.175.203-.29.227-.96.203-1.065-1.05-.334-1.175Z"/>
      <path class="st0" d="M52.797,22.108h-.194s0-.194,0-.194h.195c-.079-.373.283-.597.601-.422l-.02.163c-.245-.089-.409-.019-.388.259l.326.014.03.18h-.356v1.003h-.194v-1.003Z"/>
      <path class="st0" d="M34.247,21.655v.259c.151.011.421-.072.342.164l-.342.03c.041.283-.17,1.013.357.79l.061.129c-.135.147-.481.118-.576-.065-.083-.162-.005-.824-.036-.853-.316.053-.316-.247,0-.194v-.259s.194,0,.194,0Z"/>
      <rect class="st0" x="39.75" y="21.461" width=".227" height="1.65"/>
      <rect class="st0" x="33.34" y="21.461" width=".227" height="1.65"/>
      <path class="st0" d="M45.901,23.111h-.227v-1.148c0-.066.227-.066.227,0v1.148Z"/>
      <rect class="st0" x="31.398" y="21.914" width=".194" height="1.197"/>
      <circle class="st0" cx="45.788" cy="21.558" r=".141"/>
      <path class="st0" d="M13.851,15.671c.284-.157.465-.111.757-.101.158.006.341-.106.438.144-.3.352-.889.251-1.195-.044Z"/>
      <path class="st0" d="M14.822,14.894l-.126-1.273c.12-.139.136-.017.154.095.033.205.138,1.073.094,1.219-.049.167-.505.041-.653.117-.088-.023-.049-.159-.004-.159h.534Z"/>
      <path class="st0" d="M14.142,13.859c.126.124-.401.258-.471.259-.127.002-.554-.091-.484-.26.231.056.388.134.64.09.108-.019.196-.108.315-.089Z"/>
      <circle class="st0" cx="11.48" cy="15.398" r=".128"/>
      <path class="st0" d="M12.517,6.169c4.499-.28,8.311,3.095,8.587,7.575-.109,2.685.141,5.48-.002,8.153-.251,4.69-4.537,8.125-9.173,7.485-3.725-.514-6.691-3.719-6.885-7.483-.139-2.695.107-5.51.002-8.218.242-3.971,3.484-7.264,7.471-7.512ZM10.484,17.919c-.017-.247,0-.525,0-.776,0-.093.111-.425.156-.524.068-.151.178-.276.266-.414-.766-1.192-.889-2.857-.349-4.166.269-.652.867-1.271,1.627-1.22.264.018.509.163.761.179.017-.011.149-.257.147-.279-.011-.122-.254-.564-.31-.757-.538-1.875,1.45-1.325,2.277-1.931.299-.219.585-.681.68-1.038.009-.034.027-.042-.009-.072-.091-.077-.81-.256-.973-.292-2.065-.452-4.188-.046-5.957,1.085.619.478.933,1.148,1.069,1.908-.437.091-.883.062-1.327.065.171.701-.167,1.437-.852,1.688-.062.023-.346.069-.345.108.682.633.771,1.656.776,2.539-.757.112-1.499-.03-2.219-.257-.114-.036-.406-.186-.491-.191-.028-.002-.074.024-.074.044v1.553c.59.23,1.192.428,1.77.69,1.201.544,2.386,1.255,3.362,2.141.106.004.017-.062.016-.081ZM6.211,10.559c-.192.254.219.557.431.653,1.071.487,2.169-.565,1.711-1.645-.146-.345-.506-.679-.89-.719l-.151.19c1.396.177,1.139,2.226-.275,2.071-.39-.043-.526-.248-.751-.509-.02-.023.001-.061-.074-.041ZM19.613,10.009c-1.135.541-.362,2.199.81,1.747l-.034-.129c-1.007.384-1.682-.959-.745-1.492l-.031-.126ZM12.783,16.544c.636.139,1.659.666,2.277.318.665-.375,1.07-1.66,1.151-2.376.129-1.136-.091-3.46-1.751-3.14-1.287.248-2.071,1.628-2.486,2.758-.424-.212-1.003-.477-1.214.145-.244.72.239,1.656,1.051,1.682-.143.881-.174,1.781-.295,2.664-.016.114-.048.222-.092.328.4.565.841,1.112,1.1,1.763.88-.389,1.782-.737,2.719-.971l-1.214-.873-.064-.616c-.744-.22-1.114-.952-1.182-1.681ZM15.118,19.88c-.19,1.365,1.794,1.822,2.231.531.076-.224.106-.701-.05-.891-.049-.06-.187-.06-.151.053.134.417.18.703-.111,1.076-.628.807-1.95.208-1.762-.806l-.157.036ZM19.71,22.172l-.015-.098c-.094-.132-.475.159-.551.162-.09.003-.46-.255-.563-.189l-.037.107c.228.091.479.13.6.375.081-.261.339-.283.566-.356ZM18.577,22.755c-.272.093-.58.149-.793.355-.213-.206-.521-.262-.793-.355l-.033.162c.307.071.676.148.826.452.147-.301.519-.389.826-.452l-.033-.162ZM18.513,26.929c-1.636.363-3.326,0-4.724-.893-1.471-.938-2.687-2.64-4.687-1.637-.227.114-.761.504-.852.734-.017.043.004.056.046.046.14-.033.287-.106.445-.138,1.921-.391,3.017,1.302,4.505,2.119,1.098.603,2.941,1.049,4.159.651.36-.117.812-.637,1.107-.883ZM20.229,24.405c-1.528.423-3.073-.197-4.615-.099-.904.057-1.768.491-2.378,1.15l.857.597c.819-.448,1.707-.494,2.622-.419.625.051,1.251.194,1.878.226.18.009.621.03.776,0,.104-.02.343-.445.411-.56.169-.288.305-.594.448-.895ZM17.121,27.996c-1.361.222-2.776-.074-3.971-.739-1.532-.852-2.797-2.761-4.801-1.962-.299.119-.93.532-1.036.841-.028.081.03.029.055.023.099-.025.194-.072.294-.095,1.988-.461,3.098,1.308,4.647,2.131.783.416,2.094.883,2.968.658.621-.16,1.324-.493,1.845-.857ZM19.322,25.99c-1.69.083-3.489-.709-5.083.145,1.171.683,2.643.97,3.983.713.387-.074.46-.082.728-.372.131-.141.254-.331.372-.485ZM14.434,29.031c-1.086-.158-2.064-.577-2.956-1.203-1.147-.806-2.158-2.015-3.733-1.648-.203.047-.397.135-.595.199-.013.049.013.054.032.081.116.169.409.45.566.599,1.549,1.46,3.693,2.23,5.828,2.102l.858-.129Z"/>
    </g>
  </g>
</svg>