<?xml version="1.0" encoding="UTF-8"?>
<svg id="Layer_1" xmlns="http://www.w3.org/2000/svg" version="1.1" viewBox="0 0 336 35.8">
  <!-- Generator: Adobe Illustrator 30.2.1, SVG Export Plug-In . SVG Version: 2.1.1 Build 1)  -->
  <defs>
    <style>
      .st0 {
        fill: #231f20;
      }

      .st1 {
        fill: #fafafa;
      }
    </style>
  </defs>
  <rect class="st1" x="-26.9" y="-629" width="390" height="844"/>
  <g>
    <g>
      <rect class="st0" x="253.987" y="24.441" width="9.784" height="1.063"/>
      <path class="st0" d="M280.103,24.579v.787h-16.195v-.787h16.195M280.241,24.441h-16.471v1.063h16.471v-1.063h0Z"/>
      <rect class="st0" x="280.241" y="24.441" width="16.991" height="1.063"/>
      <path class="st0" d="M313.54,24.579v.787h-16.17v-.787h16.17M313.678,24.441h-16.446v1.063h16.446v-1.063h0Z"/>
      <rect class="st0" x="313.703" y="24.441" width="9.669" height="1.063"/>
      <g>
        <path class="st0" d="M266.523,20.972c.319.352.532.631.635.837.097.188.145.371.145.55,0,.148-.034.293-.102.433-.108.222-.267.333-.475.333-.36,0-.836-.375-1.428-1.124-.365-.464-.627-.845-.786-1.141-.133-.245-.317-.626-.552-1.141-.256-.554-.454-.96-.594-1.217-.128-.233-.428-.351-.9-.351-.096,0-.232.006-.408.017-.125.008-.21.011-.258.011-.472.012-1.171.104-2.094.275-1.04,1.682-1.684,2.677-1.932,2.985-.417.51-.777.766-1.081.766-.08,0-.156-.014-.228-.041-.113-.047-.188-.127-.228-.24-.016-.042-.024-.096-.024-.158,0-.339.247-.971.744-1.896.329-.604.492-.961.492-1.07v-.012c-.004-.035-.054-.052-.15-.052-.059,0-.162.01-.306.029-.144.02-.248.029-.312.029-.152,0-.258-.043-.318-.129-.028-.043-.042-.091-.042-.146,0-.062.017-.132.054-.211.132-.308.296-.538.492-.69.168-.125.43-.244.786-.357.617-.191,1.276-1.162,1.98-2.914.027-.073.084-.226.168-.456.28-.795.528-1.379.745-1.75.38-.659.795-.992,1.247-1.001.897,0,1.429.522,1.597,1.568.196,1.232.454,2.325.774,3.276.02.055.045.133.072.235.056.211.114.344.174.398.045.046.119.07.223.07.031,0,.066-.002.102-.007.052-.004.129-.014.234-.034.208-.039.365-.059.473-.059.268,0,.478.086.631.258.079.089.119.183.119.28,0,.048-.01.096-.03.147-.108.304-.514.564-1.218.779l.061.163c.459,1.155.872,1.964,1.236,2.428.052.067.146.176.282.327M262.49,16.449c-.024-.116-.064-.312-.12-.585-.229-1.17-.442-1.915-.643-2.235-.216.386-.548,1.189-.997,2.411-.143.395-.243.662-.3.801.188-.026.489-.088.9-.181.529-.121.914-.191,1.159-.211"/>
        <path class="st0" d="M272.009,16.973c.34.095.866.27.859.705,0,.013-.001.026-.007.037-.007.013-.021.02-.033.028-.057.038-.099.096-.127.159-.096.208-.098.45-.098.674,0,.249.022.554.067.912.031.254.049.426.052.516l.006.24c.028.741.042,1.407.042,2,0,.905-.031,1.638-.095,2.2-.068.621-.218,1.163-.45,1.627-.356.722-.867,1.151-1.53,1.287-.144.031-.294.048-.451.048-.6,0-1.154-.2-1.662-.597-.248-.191-.458-.431-.63-.72-.084-.148-.158-.267-.222-.357-.34-.503-.51-.921-.51-1.253,0-.246.094-.442.282-.591.052-.027.102-.04.15-.04.284,0,.582.258.895.772.196.316.435.587.72.813.316.25.608.375.877.375.372,0,.646-.253.822-.755.167-.492.251-1.192.251-2.102,0-.319-.01-.664-.029-1.035-.032-.534-.048-.972-.048-1.31,0-.122.001-.23.005-.328-.125.145-.286.381-.486.709-.469.76-.94,1.213-1.416,1.357-.128.036-.259.053-.391.053-.407,0-.773-.17-1.098-.508-.3-.317-.483-.681-.552-1.094-.032-.2-.048-.395-.048-.587,0-.791.28-1.507.84-2.147.728-.831,1.652-1.247,2.772-1.247h.15c.343,0,.708.052,1.092.158M269.063,19.022c-.188.272-.32.573-.396.901-.032.132-.048.253-.048.363,0,.226.072.396.216.509.011.007.028.011.048.011.284,0,.934-.762,1.949-2.287.141-.211.226-.338.252-.38-.026-.055-.11-.082-.245-.082-.255,0-.56.088-.911.263-.392.196-.68.43-.864.703"/>
        <path class="st0" d="M279.846,18.685c.292-.211.513-.316.66-.316s.222.109.222.327c-.095.66-.474,1.352-1.134,2.077-.644.703-1.298,1.167-1.963,1.392-.24.051-.478.076-.714.076-1.173,0-2.253-.648-3.241-1.943-.336-.441-.504-1.046-.504-1.814,0-.323.03-.678.089-1.064.109-.695.677-1.153,1.706-1.375.14-.031.277-.046.414-.046.372,0,.72.116,1.044.35.367.266.682.662.942,1.188.067.238.102.46.102.667,0,.612-.294,1.105-.883,1.481-.096.062-.224.121-.384.175-.18.063-.288.101-.324.117-.085.042-.126.097-.126.164v.011c.007.083.078.194.21.335.28.297.602.444.966.444.104,0,.213-.011.324-.034.468-.102.936-.422,1.405-.96.628-.714,1.025-1.131,1.188-1.252M275.07,19.17c.256,0,.466-.087.629-.264.152-.159.241-.359.265-.597.004-.039.007-.078.007-.117,0-.187-.048-.354-.145-.497-.128-.196-.316-.308-.563-.34-.033-.004-.063-.005-.09-.005-.161,0-.285.064-.372.193-.093.133-.139.316-.139.55,0,.523.137.883.409,1.077"/>
        <path class="st0" d="M314.676,18.685c.292-.211.512-.316.66-.316s.222.109.222.327c-.096.66-.474,1.352-1.134,2.077-.644.703-1.298,1.167-1.963,1.392-.24.051-.478.076-.714.076-1.172,0-2.253-.648-3.24-1.943-.336-.441-.504-1.046-.504-1.814,0-.323.03-.678.089-1.064.108-.695.677-1.153,1.706-1.375.14-.031.277-.046.414-.046.372,0,.72.116,1.044.35.368.266.682.662.942,1.188.068.238.102.46.102.667,0,.612-.294,1.105-.882,1.481-.096.062-.225.121-.384.175-.179.063-.288.101-.324.117-.084.042-.126.097-.126.164v.011c.007.083.078.194.21.335.279.297.602.444.966.444.104,0,.212-.011.324-.034.468-.102.936-.422,1.405-.96.628-.714,1.025-1.131,1.188-1.252M309.899,19.17c.256,0,.466-.087.63-.264.152-.159.24-.359.264-.597.004-.039.006-.078.006-.117,0-.187-.048-.354-.144-.497-.128-.196-.316-.308-.564-.34-.032-.004-.063-.005-.09-.005-.161,0-.285.064-.372.193-.093.133-.139.316-.139.55,0,.523.136.883.409,1.077"/>
        <path class="st0" d="M286.769,20.621c.108.398.162.72.162.966,0,.198-.035.344-.108.439-.116.144-.303.217-.558.217-.1,0-.211-.012-.336-.036-.34-.058-.61-.458-.81-1.199-.12-.437-.251-1.191-.396-2.265-.1-.733-.178-1.201-.233-1.404-.605.432-1.147,1.001-1.366,1.726-.228.756-.12,2.925-1.341,2.925-.244,0-.461-.165-.654-.496-.116-.203-.174-.539-.174-1.007,0-.425.048-.96.144-1.603.083-.562.127-.946.132-1.153.003-.409.114-.71.33-.902.152-.14.344-.209.575-.209.094,0,.193.011.301.035.261.055.401.141.421.263.131-.136.304-.365.516-.685.196-.295.354-.513.474-.649.091-.101.241-.214.444-.339.276-.163.52-.245.732-.245.256,0,.442.12.558.357.333.744.617,1.911.853,3.499.087.565.158.99.209,1.275.016.093.058.257.126.491"/>
        <path class="st0" d="M293.96,20.363c.328.367.493.678.493.931,0,.078-.016.153-.049.223-.212.443-.461.667-.749.667-.349,0-.816-.457-1.404-1.37-.144-.222-.247-.372-.306-.451-.389.812-1.147,1.368-2.275,1.668-.573.154-1.181.272-1.776.195-.18-.023-.385-.084-.496-.237-.068-.094-.105-.208-.13-.321-.157-.728.057-1.451.465-2.058.393-.583.955-1.118,1.541-1.504.301-.198.639-.326.968-.467.194-.084.82-.287.82-.557-.029-.258-.043-.642-.043-1.153,0-.258.004-.546.011-.866.009-.402.013-.735.013-1.001,0-.199-.002-.359-.007-.48l-.007-.058c-.007-.133-.011-.259-.011-.38,0-.761.12-1.263.36-1.504.164-.168.381-.251.653-.251.045,0,.089.002.133.005.132.012.256.125.372.339.096.183.158.369.185.557.064.41.097,1.114.097,2.112v.345c0,.132-.003.335-.007.609-.004.152-.005.298-.005.439,0,.909.056,1.597.167,2.065.176.76.505,1.596.984,2.503M290.954,18.989c-.405.14-.782.322-1.135.544-.436.27-.688.52-.756.755-.011.039-.017.078-.017.117,0,.09.032.174.096.252l.162.017c.352,0,.706-.19,1.062-.567.34-.366.536-.739.588-1.118"/>
        <path class="st0" d="M301.81,20.522c.288.39.433.712.433.966-.036.191-.159.36-.372.51-.208.147-.428.222-.66.222-.192,0-.352-.058-.48-.175-.264-.234-.506-.691-.726-1.369-.168-.531-.331-.896-.492-1.094-.037.055-.09.137-.162.245-.432.667-.786,1.149-1.062,1.446-.476.506-.974.815-1.494.924-.152.032-.298.048-.438.048-.408,0-.738-.127-.99-.38-.256-.254-.396-.599-.42-1.036-.037-.69.361-1.397.713-1.961.569-.912,1.319-1.578,2.21-2.161.616-.403,1.37-.875,2.135-.875h.06c.304,0,.541.281.714.843.1.316.194.815.282,1.497.028.238.048.385.06.44.012.043.034.144.066.304.108.534.217.918.324,1.153.048.1.149.253.3.455M298.821,17.737c-.023-.016-.052-.023-.083-.023-.132,0-.315.123-.547.369-.295.32-.591.747-.887,1.281-.273.499-.431.875-.474,1.129.412-.113.843-.492,1.296-1.135.445-.627.676-1.168.695-1.621"/>
        <path class="st0" d="M313.645,6.972v.003s.001-.002,0-.003M313.647,6.969s0,0-.002.003h0s.001-.003.001-.003ZM313.645,6.974h-.001s0,.005,0,.002v-.002ZM312.956,6.448c-.093-.025-.186-.03-.282-.033-.26-.006-.521-.011-.781-.017l-1.041-.023c-.347-.008-.694-.015-1.041-.023l-1.041-.023c-.347-.008-.694-.015-1.041-.023l-1.041-.023c-1.827-.04-3.655-.08-5.482-.12-.795-.017-1.591-.035-2.386-.052-.24-.005-.487-.009-.709.081s-.414.299-.407.539c.011.329.361.532.676.629,1.525.472,3.183.006,4.764.226.439.061.892.187,1.207.498.481.475.519,1.22.43,1.849-.269,1.888-.506,3.771-.626,5.68-.086,1.365-.129,2.733-.129,4.101,0,.643.01,1.286.029,1.928.006.21.016.429.114.614s.314.327.516.271c.214-.059.319-.297.379-.511.1-.355.155-.72.201-1.085.515-4.075-.093-8.305,1.061-12.247.053-.181.113-.366.238-.506.185-.207.479-.277.756-.291.299-.016.607-.031.905-.036.434-.008.867.004,1.301.015.858.021,1.723.042,2.572-.1.261-.044.52-.104.773-.182.226-.07.463-.168.593-.366.12-.184.094-.462-.097-.585-.056-.036-.105-.074-.167-.103M312.77,5.197c.266.025.527.092.782.2.248.105.486.245.713.421.217.166.383.346.496.539.136.233.192.475.17.728-.012.13-.046.258-.102.383-.379.862-1.481,1.318-2.339,1.511-1.289.291-2.62.163-3.921.038-.309-.03-.702-.09-.964.122-.248.201-.305.603-.372.895-.087.379-.15.768-.185,1.156,0,0-.006.062-.005.062-.019.232-.036.465-.048.697-.014.267-.025.544-.034.83l-.028.933c-.005.17-.018.193-.013.218l.011.064-.004.068c-.084,1.62-.153,2.905-.205,3.857-.058,1.037-.098,1.717-.122,2.042l-.003.015c-.005.054-.009.133-.011.236-.002.113-.003.249-.001.407v.01c-.002.187-.005.345-.008.47-.005.158-.009.275-.014.349l-.023.229c-.032.314-.085.588-.16.823-.087.27-.204.497-.352.68l-.005.005c-.205.248-.482.426-.829.533-.291.09-.638.128-1.04.116-.029-.002-.063-.006-.091-.006-.353-.035-.64-.197-.861-.489-.164-.217-.28-.507-.349-.87-.013-.074-.027-.221-.043-.439-.013-.187-.033-.503-.059-.939-.053-.795-.063-1.738-.03-2.829.033-1.099.107-2.317.222-3.651l.057-.62c.024-.258.046-.49.067-.697.061-.626.131-1.287.209-1.987.029-.249.055-.499.083-.748.029-.255.058-.509.087-.764.012-.1.025-.201.035-.301.009-.095.028-.188.019-.284-.009-.098-.036-.232-.132-.282-.039-.02-.083-.028-.126-.036-.286-.051-.576-.085-.864-.121l-.031-.002c-.089-.009-.219-.013-.39-.015-.184-.002-.415,0-.692.006-.372.009-.702.015-.989.018-.288.003-.524.001-.707-.004-.143-.003-.267-.008-.372-.013-.115-.006-.236-.016-.362-.027-.573-.054-1.039-.155-1.397-.303-.449-.184-.761-.444-.937-.782-.091-.175-.156-.347-.196-.515-.043-.183-.056-.362-.039-.538.046-.466.294-.844.741-1.135.35-.226.833-.395,1.45-.506l.005-.002c.449-.078.937-.125,1.462-.14.518-.015,1.054,0,1.607.046.672.054,1.456.097,2.355.127.939.032,2.009.053,3.211.063,1.304.008,2.421.025,3.352.049.971.025,1.74.056,2.305.095l.018.002Z"/>
      </g>
      <g>
        <path class="st0" d="M317.954,7.24v.461c0,.089.005.145.016.168.011.023.03.042.058.055.027.014.079.021.154.021v.045h-.84v-.045c.076,0,.127-.007.154-.021.027-.014.046-.033.057-.055s.016-.079.016-.168v-1.068c0-.089-.005-.145-.016-.168-.011-.023-.03-.042-.058-.055s-.079-.021-.154-.021v-.045h.763c.199,0,.344.014.436.041s.167.078.225.152.087.161.087.26c0,.121-.043.222-.131.301-.056.05-.134.088-.234.113l.395.557c.052.072.088.117.11.135.033.025.071.039.115.041v.045h-.517l-.529-.75h-.108ZM317.954,6.433v.721h.069c.112,0,.196-.01.252-.031s.1-.058.131-.112.048-.124.048-.211c0-.125-.029-.218-.088-.278-.058-.06-.153-.09-.283-.09h-.129Z"/>
        <path class="st0" d="M318.152,8.953c-1.03,0-1.869-.84-1.869-1.873s.838-1.873,1.869-1.873,1.869.84,1.869,1.873-.838,1.873-1.869,1.873ZM318.152,5.548c-.842,0-1.527.687-1.527,1.533s.685,1.533,1.527,1.533,1.527-.687,1.527-1.533-.685-1.533-1.527-1.533Z"/>
      </g>
      <g>
        <path class="st0" d="M275.91,28.328c.013.018.02.038.02.061v.009c0,.008-.002.015-.004.023-.013.049-.055.083-.129.1-.042.01-.107.015-.196.016-.028,0-.047.001-.056.002-.14.01-.303.039-.49.087-.072.018-.129.032-.168.042-.012.003-.036.009-.071.02-.103.031-.181.046-.235.046-.008,0-.014,0-.02-.001-.102-.009-.153-.071-.153-.188v-.002c0-.048-.005-.126-.014-.235-.01-.099-.015-.169-.015-.21v-.098c0-.162.004-.326.012-.489,0-.008.001-.02.001-.037,0-.017,0-.039-.001-.064v-.028c0-.109.004-.204.011-.287.017-.189.054-.309.11-.359.026-.023.055-.035.088-.035.005,0,.009,0,.013.001.005,0,.01,0,.015.002.048.004.085.023.11.057.019.027.029.068.029.123,0,.015,0,.032-.002.049-.005.057-.019.125-.041.206-.01.039-.017.066-.02.08-.009.048-.016.103-.021.164-.008.091-.013.197-.013.318s.004.256.013.406c.006.108.01.191.013.247.06-.008.129-.015.207-.023.113-.011.223-.027.328-.05.113-.025.225-.038.337-.038.043,0,.086.002.128.006.112.01.183.037.215.08"/>
        <path class="st0" d="M277.008,28.486c.049.067.074.122.074.165-.006.033-.027.062-.063.087-.036.025-.073.038-.113.038-.033,0-.06-.01-.082-.03-.045-.04-.086-.118-.124-.234-.029-.09-.057-.153-.084-.187-.006.01-.016.023-.028.042-.074.114-.134.196-.181.247-.081.086-.166.139-.255.158-.026.005-.051.008-.075.008-.07,0-.126-.022-.169-.065-.044-.043-.068-.102-.072-.177,0-.15.098-.335.294-.554.252-.199.441-.299.57-.299h.01c.052,0,.092.048.122.144.017.054.033.139.048.256.005.041.008.066.01.075.002.007.006.025.011.052.018.091.037.157.055.197.008.017.025.043.051.078M276.498,28.011s-.009-.004-.014-.004c-.023,0-.054.021-.093.063-.051.055-.101.127-.152.219-.046.085-.073.15-.081.193.07-.019.144-.084.221-.193.076-.107.115-.2.119-.277"/>
        <path class="st0" d="M279.972,28.413c.055.06.091.107.108.143.016.032.025.063.025.094,0,.025-.006.05-.018.074-.018.038-.045.057-.081.057-.062,0-.143-.064-.244-.192-.062-.079-.107-.144-.134-.195-.023-.042-.054-.107-.094-.195-.044-.094-.078-.164-.101-.208-.022-.04-.073-.06-.154-.06-.016,0-.04,0-.07.003-.021.001-.036.002-.044.002-.081.002-.2.018-.357.047-.178.287-.288.457-.33.509-.071.087-.133.131-.185.131-.014,0-.027-.002-.039-.007-.019-.008-.032-.022-.039-.041-.003-.007-.004-.016-.004-.027,0-.058.042-.166.127-.324.056-.103.084-.164.084-.183v-.002c0-.006-.009-.009-.026-.009-.01,0-.027.002-.052.005-.025.003-.042.005-.053.005-.026,0-.044-.008-.054-.022-.005-.007-.007-.016-.007-.025,0-.011.003-.023.009-.036.022-.053.05-.092.084-.118.029-.021.074-.042.134-.061.105-.033.218-.198.338-.498.005-.013.015-.039.029-.078.048-.136.09-.235.127-.299.065-.112.136-.169.213-.171.153,0,.244.089.273.268.034.21.077.397.132.559.003.009.007.023.012.04.01.036.02.058.03.068.007.008.02.012.038.012.006,0,.011,0,.017-.001.009,0,.022-.003.04-.006.036-.007.063-.01.081-.01.046,0,.082.015.108.044.013.015.02.031.02.048,0,.008-.002.016-.005.025-.018.052-.088.096-.208.133l.01.028c.079.197.149.335.211.415.009.011.025.03.048.056M279.283,27.64c-.004-.02-.011-.053-.021-.1-.039-.2-.075-.327-.109-.382-.037.066-.094.203-.17.412-.025.067-.042.113-.051.137.032-.005.083-.015.154-.031.09-.021.156-.033.198-.036"/>
        <path class="st0" d="M280.993,27.748c.098.027.146.067.146.118v.009l-.007.005c-.025.017-.038.064-.038.142,0,.042.004.094.011.156.006.043.009.072.009.088v.041c.006.127.008.24.008.341,0,.155-.006.28-.016.376-.012.106-.037.198-.077.277-.061.123-.148.197-.261.22-.024.005-.05.008-.077.008-.103,0-.197-.034-.284-.102-.042-.032-.078-.074-.108-.123-.015-.025-.027-.046-.038-.061-.058-.086-.087-.157-.087-.214,0-.042.016-.076.048-.101.009-.005.017-.007.026-.007.048,0,.099.044.153.132.034.054.074.1.123.139.054.042.104.064.15.064.063,0,.11-.043.14-.129.029-.084.043-.204.043-.359,0-.055-.002-.113-.005-.177-.005-.091-.008-.166-.008-.224,0-.02,0-.039,0-.056-.021.025-.049.065-.083.121-.08.13-.16.207-.242.232-.022.006-.044.009-.067.009-.07,0-.132-.029-.188-.087-.051-.054-.082-.116-.094-.187-.006-.034-.008-.067-.008-.1,0-.135.048-.257.143-.367.124-.142.282-.213.473-.213h.025c.059,0,.121.009.186.027M280.49,28.098c-.032.047-.055.098-.068.154-.006.023-.008.043-.008.062,0,.039.012.067.037.087.002.002.005.002.008.002.049,0,.159-.13.333-.391.024-.036.038-.058.043-.065-.005-.01-.019-.014-.042-.014-.044,0-.096.015-.155.045-.067.033-.116.073-.148.12"/>
        <path class="st0" d="M282.451,28.173c.05-.036.087-.054.112-.054.025,0,.038.018.038.056-.017.112-.081.231-.193.354-.11.12-.222.199-.335.238-.041.009-.082.013-.122.013-.2,0-.385-.111-.553-.332-.058-.075-.086-.178-.086-.31,0-.055.005-.116.015-.182.018-.119.115-.197.291-.235.024-.005.048-.008.071-.008.063,0,.123.02.178.06.063.045.116.113.161.203.011.041.017.079.017.114,0,.105-.05.189-.15.253-.016.011-.038.021-.066.03-.031.011-.049.018-.055.02-.014.007-.022.017-.022.028v.002c.001.014.013.033.036.057.048.051.103.076.165.076.018,0,.036-.002.055-.006.08-.017.16-.072.24-.164.107-.122.175-.193.203-.214M281.635,28.256c.044,0,.079-.015.108-.045.026-.027.041-.061.045-.102,0-.007,0-.013,0-.02,0-.032-.008-.06-.024-.085-.022-.033-.054-.053-.096-.058-.005,0-.011,0-.015,0-.027,0-.049.011-.064.033-.016.023-.023.054-.023.094,0,.089.023.15.07.184"/>
        <path class="st0" d="M283.562,28.504c.018.068.028.123.028.165,0,.034-.006.059-.018.075-.02.024-.052.037-.095.037-.018,0-.036-.002-.058-.006-.058-.01-.104-.078-.138-.205-.02-.075-.043-.204-.068-.387-.017-.125-.03-.205-.04-.24-.102.073-.174.155-.216.245-.034.075-.052.168-.053.279,0,.048-.019.103-.056.164-.042.071-.088.106-.136.106-.042,0-.079-.028-.112-.085-.02-.034-.029-.092-.029-.172,0-.073.008-.164.024-.274.015-.096.022-.162.023-.197,0-.07.019-.121.056-.154.026-.024.059-.036.098-.036.016,0,.033.002.051.006.044.009.069.024.072.045.023-.023.052-.062.088-.117.033-.051.06-.088.081-.111.016-.017.041-.037.076-.058.047-.028.089-.042.125-.042.044,0,.075.02.095.061.057.127.105.326.145.597.015.096.027.169.036.217.003.016.01.044.022.084"/>
        <path class="st0" d="M284.86,28.46c.056.063.084.115.084.159,0,.013-.003.026-.008.038-.036.076-.079.114-.128.114-.059,0-.139-.078-.24-.234-.025-.038-.042-.064-.052-.077-.066.138-.196.233-.388.285-.09.024-.172.036-.247.036-.107,0-.16-.031-.16-.093-.006-.031-.009-.061-.009-.092,0-.193.128-.375.384-.545.013-.009.044-.022.092-.041.118-.046.177-.083.177-.111-.005-.044-.007-.11-.007-.197,0-.044,0-.093.002-.148.001-.069.002-.126.002-.171,0-.034,0-.061-.001-.082v-.01c-.002-.023-.003-.044-.003-.065,0-.13.021-.216.062-.257.028-.029.065-.043.112-.043.008,0,.015,0,.023.001.022.002.044.021.063.058.016.031.027.063.032.095.011.07.016.19.016.361v.059c0,.023,0,.057,0,.104,0,.026-.001.051-.001.075,0,.155.01.273.029.353.03.13.086.273.168.428M284.347,28.225c-.069.024-.134.055-.194.093-.074.046-.117.089-.129.129-.002.007-.003.013-.003.02,0,.015.006.03.016.043l.028.003c.06,0,.12-.032.181-.097.058-.062.092-.126.1-.191"/>
        <path class="st0" d="M286.2,28.486c.049.067.074.122.074.165-.006.033-.027.062-.063.087-.036.025-.073.038-.113.038-.033,0-.06-.01-.082-.03-.045-.04-.087-.118-.124-.234-.029-.09-.057-.153-.084-.187-.006.01-.015.023-.028.042-.074.114-.134.196-.181.247-.081.086-.166.139-.255.158-.026.005-.051.008-.075.008-.07,0-.126-.022-.169-.065-.044-.043-.067-.102-.072-.177,0-.15.098-.335.294-.554.252-.199.441-.299.57-.299h.01c.052,0,.093.048.122.144.017.054.033.139.048.256.005.041.008.066.01.075.002.007.006.025.011.052.018.091.037.157.055.197.008.017.025.043.051.078M285.69,28.011s-.009-.004-.015-.004c-.022,0-.053.021-.093.063-.051.055-.101.127-.152.219-.046.085-.073.15-.081.193.07-.019.144-.084.221-.193.076-.107.116-.2.119-.277"/>
        <path class="st0" d="M289.688,27.75c.005.015.007.032.007.049,0,.101-.08.238-.241.412-.146.157-.315.288-.508.393-.217.118-.445.177-.682.177-.179,0-.339-.037-.479-.112-.195-.105-.318-.25-.367-.434-.015-.058-.023-.119-.023-.182,0-.074.01-.152.032-.234.068-.26.214-.486.437-.678.215-.186.431-.279.649-.279.01,0,.019,0,.029.001.042.003.081.015.118.035.04.023.066.053.078.088.004.012.006.024.006.035,0,.067-.07.129-.208.185l-.076.03c-.207.082-.357.166-.451.252-.093.085-.167.176-.222.275-.056.099-.084.192-.084.278,0,.015.001.03.003.045.014.118.084.213.212.286.107.061.233.092.378.092.23,0,.438-.065.622-.196.002-.001.017-.015.045-.041.366-.339.592-.509.677-.509.025,0,.041.011.048.033"/>
        <path class="st0" d="M290.403,28.487c.045.123.068.213.068.27,0,.069-.03.104-.091.104-.041,0-.082-.016-.12-.047-.053-.043-.095-.139-.125-.287-.009-.044-.016-.075-.021-.094-.049.088-.118.166-.206.235-.093.073-.178.11-.254.11-.062,0-.11-.025-.143-.077-.036-.055-.055-.138-.055-.248,0-.115.022-.25.067-.405.056-.199.125-.3.207-.302h0c.03,0,.053.01.07.029.017.02.025.056.025.109,0,.078-.017.191-.052.34-.026.114-.04.189-.04.225,0,.013.002.02.005.023.003,0,.008-.002.015-.005.093-.056.163-.137.208-.245.026-.062.049-.153.069-.273.012-.075.024-.126.035-.152.018-.041.045-.062.081-.062.071,0,.121.048.149.144.017.056.029.149.037.279.004.068.008.114.013.138.008.04.027.104.059.192"/>
        <path class="st0" d="M291.008,28.601c0,.064-.015.113-.044.147-.018.021-.041.032-.07.032-.028,0-.06-.011-.096-.034-.078-.048-.125-.236-.142-.564-.003-.053-.005-.087-.007-.104-.01-.11-.014-.222-.014-.336v-.061c0-.257.013-.509.039-.755v-.008s.008-.004.008-.004c.048-.029.097-.044.145-.044.026,0,.048.009.065.027.041.044.062.154.062.329,0,.091-.005.198-.016.323-.003.041-.005.066-.006.075-.003.051-.004.102-.004.153,0,.228.023.467.07.717.008.039.011.075.011.107"/>
        <path class="st0" d="M292.294,27.757c.012.021.018.042.018.061,0,.015-.004.03-.01.043-.027.055-.097.092-.21.112-.07.012-.176.023-.318.034l-.041.003s-.002.018-.003.04c-.005.056-.007.1-.007.131,0,.013,0,.024.001.033.008.072.013.164.014.274v.045c0,.152-.013.233-.04.242-.001.004-.019.006-.053.006-.082,0-.127-.003-.134-.01-.058-.055-.086-.175-.086-.361,0-.056.003-.119.008-.187,0-.013,0-.025,0-.037,0-.058-.011-.099-.034-.123-.02-.021-.063-.032-.131-.032h-.019c-.011,0-.021,0-.031,0-.046,0-.081-.004-.104-.012-.047-.016-.081-.05-.101-.101v-.006c0-.025.009-.045.025-.062.038-.039.109-.058.213-.058.023,0,.043,0,.059.003.013.001.025.002.036.002.026,0,.051-.005.075-.014-.008-.088-.012-.174-.012-.259,0-.066.003-.131.007-.195.016-.195.053-.324.114-.389.029-.032.064-.048.105-.048h.01c.016,0,.03.006.043.019.027.029.041.105.041.23,0,.073-.005.163-.014.269-.006.069-.01.114-.01.136,0,.024-.001.055-.001.094v.119c0,.011.021.016.062.016.009,0,.019,0,.03-.001.063-.003.142-.014.237-.032.005-.001.015-.004.032-.008.058-.015.102-.022.133-.022.049,0,.082.015.097.045"/>
        <path class="st0" d="M293.174,28.487c.045.123.068.213.068.27,0,.069-.03.104-.091.104-.042,0-.082-.016-.12-.047-.053-.043-.095-.139-.125-.287-.009-.044-.016-.075-.02-.094-.05.088-.119.166-.206.235-.093.073-.178.11-.254.11-.061,0-.109-.025-.143-.077-.036-.055-.054-.138-.054-.248,0-.115.022-.25.067-.405.056-.199.125-.3.207-.302h.001c.03,0,.053.01.07.029.017.02.025.056.025.109,0,.078-.017.191-.052.34-.027.114-.04.189-.04.225,0,.013.002.02.005.023.003,0,.008-.002.014-.005.094-.056.163-.137.208-.245.026-.062.049-.153.068-.273.012-.075.024-.126.035-.152.018-.041.045-.062.081-.062.071,0,.121.048.15.144.017.056.029.149.037.279.004.068.008.114.012.138.007.04.027.104.059.192"/>
        <path class="st0" d="M294.306,27.727c.036.026.053.054.053.083,0,.008-.002.015-.004.023-.141.07-.258.165-.352.287-.104.133-.176.287-.215.465-.029.13-.07.195-.124.195-.023,0-.049-.012-.077-.037-.069-.061-.123-.179-.162-.354-.032-.14-.047-.276-.047-.409.013-.054.034-.091.062-.111.014-.009.028-.013.042-.013.016,0,.031.005.047.014.075.045.118.151.129.316.028-.101.093-.205.193-.315.116-.125.227-.187.335-.187h.002c.038,0,.077.014.117.043"/>
        <path class="st0" d="M295.559,28.486c.049.067.074.122.074.165-.006.033-.027.062-.064.087-.036.025-.073.038-.113.038-.033,0-.06-.01-.082-.03-.045-.04-.086-.118-.124-.234-.029-.09-.057-.153-.084-.187-.006.01-.015.023-.028.042-.074.114-.134.196-.181.247-.081.086-.166.139-.255.158-.026.005-.051.008-.075.008-.07,0-.126-.022-.169-.065-.044-.043-.067-.102-.072-.177,0-.15.098-.335.294-.554.251-.199.441-.299.569-.299h.01c.052,0,.092.048.122.144.017.054.033.139.048.256.005.041.008.066.01.075.002.007.006.025.011.052.018.091.037.157.055.197.008.017.025.043.051.078M295.049,28.011s-.009-.004-.015-.004c-.022,0-.053.021-.093.063-.051.055-.101.127-.152.219-.047.085-.074.15-.081.193.07-.019.144-.084.221-.193.076-.107.115-.2.119-.277"/>
        <path class="st0" d="M296.153,28.601c0,.064-.015.113-.044.147-.018.021-.042.032-.07.032s-.06-.011-.096-.034c-.078-.048-.125-.236-.142-.564-.003-.053-.005-.087-.007-.104-.01-.11-.014-.222-.014-.336v-.061c0-.257.013-.509.039-.755v-.008s.008-.004.008-.004c.048-.029.097-.044.145-.044.026,0,.047.009.065.027.041.044.062.154.062.329,0,.091-.005.198-.016.323-.003.041-.005.066-.006.075-.003.051-.004.102-.004.153,0,.228.023.467.07.717.008.039.011.075.011.107"/>
        <path class="st0" d="M298.501,28.46c.056.063.084.115.084.159,0,.013-.003.026-.008.038-.036.076-.079.114-.128.114-.059,0-.14-.078-.24-.234-.025-.038-.042-.064-.052-.077-.067.138-.196.233-.388.285-.09.024-.172.036-.247.036-.107,0-.16-.031-.16-.093-.006-.031-.009-.061-.009-.092,0-.193.128-.375.384-.545.013-.009.044-.022.092-.041.118-.046.177-.083.177-.111-.005-.044-.007-.11-.007-.197,0-.044,0-.093.002-.148.001-.069.002-.126.002-.171,0-.034,0-.061-.001-.082v-.01c-.002-.023-.003-.044-.003-.065,0-.13.02-.216.061-.257.028-.029.065-.043.112-.043.008,0,.015,0,.023.001.022.002.044.021.063.058.016.031.027.063.032.095.011.07.016.19.016.361v.059c0,.023,0,.057,0,.104,0,.026-.001.051-.001.075,0,.155.01.273.029.353.03.13.086.273.168.428M297.988,28.225c-.069.024-.133.055-.193.093-.075.046-.117.089-.129.129-.002.007-.003.013-.003.02,0,.015.005.03.016.043l.028.003c.06,0,.12-.032.181-.097.058-.062.091-.126.1-.191"/>
        <path class="st0" d="M299.809,28.173c.05-.036.088-.054.113-.054.025,0,.038.018.038.056-.016.112-.081.231-.193.354-.11.12-.222.199-.335.238-.041.009-.082.013-.122.013-.2,0-.385-.111-.553-.332-.058-.075-.086-.178-.086-.31,0-.055.005-.116.015-.182.018-.119.115-.197.291-.235.024-.005.048-.008.071-.008.063,0,.123.02.178.06.063.045.116.113.161.203.011.041.017.079.017.114,0,.105-.05.189-.15.253-.016.011-.039.021-.066.03-.031.011-.049.018-.055.02-.015.007-.022.017-.022.028v.002c.001.014.013.033.036.057.048.051.103.076.165.076.018,0,.036-.002.055-.006.08-.017.16-.072.24-.164.107-.122.175-.193.203-.214M298.994,28.256c.044,0,.08-.015.108-.045.026-.027.041-.061.045-.102,0-.007.001-.013.001-.02,0-.032-.008-.06-.025-.085-.022-.033-.054-.053-.096-.058-.005,0-.011,0-.015,0-.027,0-.049.011-.063.033-.016.023-.023.054-.023.094,0,.089.023.15.07.184"/>
        <path class="st0" d="M302.255,27.711c.229.076.384.145.464.207.073.056.11.124.11.204,0,.021-.003.044-.008.067-.028.119-.123.236-.287.35-.174.12-.369.197-.587.229-.061.009-.121.013-.179.013-.168,0-.328-.036-.479-.109-.211-.102-.318-.239-.32-.41v-.01c0-.15.048-.24.143-.271.018-.005.035-.008.052-.008.018,0,.035.003.052.009.033.012.052.03.057.053,0,.005.001.01.001.017,0,.012-.002.027-.004.046-.006.038-.01.065-.01.08v.009c0,.067.029.123.086.167.119.091.261.137.424.137.04,0,.08-.003.122-.008.221-.029.411-.123.572-.284.02-.02.03-.039.03-.056,0-.013-.005-.025-.015-.036-.023-.023-.072-.048-.149-.073-.039-.013-.129-.038-.27-.076-.141-.039-.257-.073-.351-.103-.315-.104-.529-.188-.64-.254-.163-.096-.247-.213-.25-.351v-.005c0-.129.101-.23.303-.302.142-.05.308-.08.495-.089.02-.001.04-.002.06-.002.128,0,.257.022.385.067.155.054.233.121.233.201,0,.008,0,.016-.002.024-.01.054-.024.09-.042.109-.011.013-.027.019-.048.019-.006,0-.013,0-.02-.002-.016-.003-.053-.014-.109-.033-.06-.021-.113-.037-.16-.046-.069-.015-.145-.022-.229-.022-.065,0-.134.004-.207.013-.165.019-.25.046-.256.083,0,.005-.001.01-.001.014,0,.081.114.159.343.234.067.022.182.055.344.098.158.043.273.077.347.101"/>
        <path class="st0" d="M303.953,28.486c.049.067.074.122.074.165-.006.033-.027.062-.063.087-.036.025-.073.038-.113.038-.033,0-.06-.01-.082-.03-.045-.04-.086-.118-.124-.234-.029-.09-.057-.153-.084-.187-.006.01-.015.023-.028.042-.074.114-.134.196-.181.247-.081.086-.167.139-.255.158-.026.005-.051.008-.075.008-.07,0-.126-.022-.169-.065-.044-.043-.067-.102-.072-.177,0-.15.098-.335.294-.554.252-.199.441-.299.57-.299h.01c.052,0,.093.048.122.144.017.054.033.139.048.256.005.041.008.066.01.075.002.007.006.025.011.052.018.091.037.157.055.197.008.017.025.043.051.078M303.443,28.011s-.009-.004-.015-.004c-.023,0-.054.021-.093.063-.051.055-.101.127-.152.219-.046.085-.073.15-.081.193.07-.019.144-.084.221-.193.076-.107.116-.2.119-.277"/>
        <path class="st0" d="M305.153,28.504c.018.068.028.123.028.165,0,.034-.006.059-.018.075-.02.024-.051.037-.095.037-.017,0-.036-.002-.058-.006-.058-.01-.104-.078-.138-.205-.021-.075-.043-.204-.068-.387-.017-.125-.03-.205-.04-.24-.102.073-.174.155-.216.245-.034.075-.052.168-.053.279,0,.048-.02.103-.056.164-.042.071-.088.106-.136.106-.042,0-.079-.028-.112-.085-.02-.034-.03-.092-.03-.172,0-.073.008-.164.025-.274.014-.096.022-.162.023-.197,0-.07.019-.121.056-.154.026-.024.059-.036.098-.036.016,0,.033.002.051.006.044.009.069.024.072.045.022-.023.052-.062.088-.117.034-.051.06-.088.081-.111.016-.017.041-.037.076-.058.047-.028.089-.042.125-.042.044,0,.075.02.095.061.057.127.105.326.146.597.015.096.027.169.036.217.003.016.01.044.022.084"/>
        <path class="st0" d="M306.445,27.757c.012.021.018.042.018.061,0,.015-.004.03-.01.043-.027.055-.097.092-.21.112-.07.012-.176.023-.318.034l-.041.003s-.002.018-.003.04c-.005.056-.007.1-.007.131,0,.013,0,.024.001.033.008.072.012.164.014.274v.045c0,.152-.013.233-.04.242-.001.004-.019.006-.053.006-.082,0-.127-.003-.134-.01-.057-.055-.086-.175-.086-.361,0-.056.003-.119.008-.187,0-.013.001-.025.001-.037,0-.058-.011-.099-.034-.123-.02-.021-.063-.032-.131-.032h-.018c-.011,0-.021,0-.031,0-.046,0-.081-.004-.104-.012-.047-.016-.081-.05-.102-.101v-.006c0-.025.009-.045.026-.062.038-.039.109-.058.213-.058.023,0,.043,0,.059.003.013.001.025.002.036.002.026,0,.051-.005.075-.014-.008-.088-.012-.174-.012-.259,0-.066.003-.131.008-.195.015-.195.053-.324.114-.389.029-.032.064-.048.105-.048h.01c.016,0,.031.006.043.019.027.029.041.105.041.23,0,.073-.005.163-.014.269-.006.069-.01.114-.01.136,0,.024-.001.055-.001.094v.119c0,.011.021.016.063.016.009,0,.019,0,.03-.001.064-.003.142-.014.237-.032.005-.001.016-.004.032-.008.058-.015.102-.022.133-.022.049,0,.082.015.098.045"/>
        <path class="st0" d="M307.515,28.486c.049.067.074.122.074.165-.006.033-.027.062-.064.087-.035.025-.073.038-.113.038-.033,0-.06-.01-.082-.03-.045-.04-.086-.118-.124-.234-.029-.09-.057-.153-.084-.187-.006.01-.015.023-.028.042-.074.114-.134.196-.181.247-.081.086-.166.139-.255.158-.026.005-.051.008-.075.008-.07,0-.126-.022-.169-.065-.044-.043-.067-.102-.072-.177,0-.15.098-.335.294-.554.251-.199.441-.299.569-.299h.01c.052,0,.093.048.122.144.017.054.033.139.048.256.005.041.008.066.01.075.002.007.006.025.011.052.019.091.037.157.056.197.008.017.025.043.051.078M307.005,28.011s-.009-.004-.015-.004c-.022,0-.053.021-.093.063-.051.055-.101.127-.152.219-.046.085-.073.15-.081.193.07-.019.144-.084.221-.193.076-.107.115-.2.119-.277"/>
        <path class="st0" d="M310.764,28.376c.021.076.032.145.032.207,0,.016,0,.031-.002.046-.007.072-.033.109-.078.109-.013,0-.027-.003-.044-.009-.107-.041-.214-.265-.32-.671-.023-.088-.062-.249-.115-.484-.042-.183-.073-.306-.094-.37-.003.24-.054.56-.154.958-.051.202-.103.357-.156.463-.052.104-.101.156-.149.156-.01,0-.021-.002-.031-.007-.104-.047-.192-.275-.265-.685-.09-.5-.141-.763-.153-.792-.041.104-.082.33-.125.679-.043.345-.084.564-.122.656-.021.049-.046.073-.076.073-.018,0-.037-.009-.059-.027-.051-.043-.084-.102-.098-.176-.006-.03-.009-.066-.009-.107,0-.132.031-.322.093-.57h0s.102-.446.102-.446c.04-.174.069-.283.088-.327.036-.087.088-.147.156-.181.027-.014.054-.021.08-.021.047,0,.092.023.134.068.093.1.162.3.207.6.011.072.026.192.044.356.016.138.029.235.04.291.015-.086.051-.276.107-.569.049-.253.081-.43.096-.533.022-.144.04-.23.054-.259.037-.077.11-.115.22-.115h.011c.078.083.148.219.209.406.09.279.216.706.377,1.281"/>
        <path class="st0" d="M312.074,28.486c.049.067.074.122.074.165-.006.033-.027.062-.063.087-.035.025-.073.038-.112.038-.033,0-.06-.01-.082-.03-.045-.04-.086-.118-.124-.234-.029-.09-.057-.153-.084-.187-.006.01-.015.023-.028.042-.074.114-.134.196-.181.247-.081.086-.167.139-.255.158-.026.005-.051.008-.075.008-.07,0-.126-.022-.169-.065-.044-.043-.067-.102-.072-.177,0-.15.098-.335.294-.554.251-.199.441-.299.569-.299h.01c.052,0,.093.048.122.144.017.054.033.139.048.256.005.041.008.066.01.075.002.007.006.025.011.052.019.091.037.157.056.197.008.017.025.043.051.078M311.563,28.011s-.009-.004-.015-.004c-.022,0-.054.021-.093.063-.051.055-.101.127-.152.219-.046.085-.073.15-.081.193.07-.019.144-.084.221-.193.075-.107.115-.2.119-.277"/>
        <path class="st0" d="M313.194,27.727c.036.026.053.054.053.083,0,.008-.001.015-.004.023-.141.07-.258.165-.352.287-.104.133-.176.287-.215.465-.029.13-.07.195-.124.195-.023,0-.049-.012-.077-.037-.069-.061-.123-.179-.162-.354-.031-.14-.047-.276-.047-.409.013-.054.034-.091.062-.111.014-.009.028-.013.042-.013.016,0,.031.005.047.014.075.045.118.151.129.316.028-.101.093-.205.194-.315.115-.125.227-.187.335-.187h.002c.038,0,.077.014.117.043"/>
        <path class="st0" d="M314.413,27.757c.011.021.018.042.018.061,0,.015-.004.03-.01.043-.027.055-.097.092-.21.112-.07.012-.176.023-.318.034l-.041.003s-.002.018-.003.04c-.005.056-.008.1-.008.131,0,.013,0,.024.001.033.008.072.012.164.014.274v.045c0,.152-.013.233-.04.242-.001.004-.019.006-.053.006-.083,0-.127-.003-.134-.01-.057-.055-.086-.175-.086-.361,0-.056.003-.119.008-.187,0-.013.001-.025.001-.037,0-.058-.012-.099-.034-.123-.02-.021-.064-.032-.131-.032h-.018c-.011,0-.021,0-.031,0-.046,0-.081-.004-.105-.012-.047-.016-.081-.05-.101-.101v-.006c0-.025.008-.045.025-.062.039-.039.11-.058.214-.058.023,0,.043,0,.059.003.013.001.025.002.036.002.026,0,.051-.005.075-.014-.008-.088-.012-.174-.012-.259,0-.066.003-.131.007-.195.016-.195.053-.324.114-.389.029-.032.064-.048.105-.048h.01c.016,0,.031.006.043.019.027.029.041.105.041.23,0,.073-.005.163-.015.269-.006.069-.01.114-.01.136,0,.024,0,.055,0,.094v.119c0,.011.021.016.062.016.009,0,.019,0,.03-.001.063-.003.142-.014.237-.032.005-.001.015-.004.032-.008.058-.015.102-.022.133-.022.049,0,.081.015.097.045"/>
        <path class="st0" d="M315.484,28.486c.049.067.074.122.074.165-.006.033-.027.062-.063.087-.036.025-.073.038-.113.038-.033,0-.06-.01-.082-.03-.045-.04-.086-.118-.124-.234-.029-.09-.057-.153-.084-.187-.006.01-.016.023-.028.042-.074.114-.134.196-.181.247-.081.086-.166.139-.255.158-.026.005-.051.008-.075.008-.07,0-.126-.022-.169-.065-.044-.043-.067-.102-.072-.177,0-.15.098-.335.294-.554.251-.199.441-.299.569-.299h.01c.052,0,.092.048.122.144.017.054.033.139.048.256.005.041.008.066.01.075.002.007.006.025.011.052.018.091.037.157.055.197.008.017.025.043.051.078M314.974,28.011s-.009-.004-.014-.004c-.023,0-.054.021-.093.063-.051.055-.101.127-.152.219-.047.085-.073.15-.081.193.07-.019.144-.084.221-.193.076-.107.115-.2.119-.277"/>
      </g>
    </g>
    <g>
      <path class="st0" d="M203.198,16.221c.117.385.218.776.352,1.155,1.73,4.888,8.074,6.472,11.838,2.905,2.409-2.283,4.712-4.678,7.067-7.018.692-.687,1.777-.726,2.515-.107.724.607.88,1.723.342,2.504-.091.132-.206.248-.32.362-3.728,3.73-7.459,7.458-11.183,11.193-.192.192-.376.287-.652.269-2.326-.151-4.648-.328-6.954-.683-.347-.053-.705-.057-1.043-.144-1.284-.329-2.014-1.363-2.017-2.835-.004-2.527-.001-5.054-.001-7.581l.056-.021Z"/>
      <path class="st0" d="M230.864,12.637c-.582-2.003-1.73-3.518-3.509-4.516-2.895-1.623-6.468-1.119-8.828,1.231-2.239,2.229-4.465,4.47-6.704,6.699-.925.921-2.393.764-3.021-.305-.428-.728-.298-1.669.33-2.299,2.013-2.018,4.03-4.032,6.046-6.048,1.486-1.486,2.975-2.969,4.453-4.462.171-.173.337-.237.576-.226,2.55.11,5.091.316,7.617.687.261.038.522.074.783.11,1.305.178,2.278,1.169,2.301,2.481.039,2.159.009,4.32.007,6.48,0,.039-.023.078-.051.168Z"/>
      <path class="st0" d="M203.141,13.449c0-2.494,0-4.843,0-7.191,0-1.528.967-2.575,2.489-2.781,2.017-.272,4.039-.496,6.068-.652.039-.003.079.01.142.019-.042.184-.191.267-.297.374-2.063,2.068-4.124,4.138-6.197,6.196-1.035,1.027-1.728,2.235-2.059,3.654-.022.093-.068.18-.146.381Z"/>
      <path class="st0" d="M221.478,27.45c.016-.199.179-.273.286-.38,2.085-2.091,4.159-4.193,6.267-6.261,1.22-1.197,2.384-2.414,2.889-4.133v.452c0,2.248-.04,4.497.014,6.743.035,1.471-.912,2.685-2.373,2.879-2.351.313-4.704.58-7.084.7ZM228.543,25.75c.863.001,1.517-.625,1.542-1.475.023-.821-.707-1.556-1.538-1.548-.822.008-1.514.701-1.517,1.52-.003.838.665,1.502,1.514,1.504Z"/>
      <path class="st0" d="M228.543,25.75c-.849-.001-1.517-.665-1.514-1.504.003-.819.695-1.512,1.517-1.52.831-.008,1.562.727,1.538,1.548-.024.85-.679,1.477-1.542,1.475Z"/>
      <g>
        <path class="st0" d="M198.356,32.507c-.058.124-.139.229-.242.313-.104.084-.227.149-.371.193-.144.045-.303.067-.478.067-.246,0-.486-.042-.723-.127-.236-.084-.451-.214-.644-.389l.419-.502c.147.12.298.215.453.285.155.071.325.106.509.106.147,0,.262-.027.343-.081.081-.054.122-.128.122-.223v-.009c0-.046-.008-.087-.025-.122-.017-.035-.049-.068-.097-.099s-.114-.061-.198-.092c-.085-.031-.195-.063-.33-.097-.163-.04-.311-.084-.443-.134-.132-.049-.245-.11-.337-.182-.092-.072-.164-.162-.215-.269-.051-.107-.076-.241-.076-.401v-.009c0-.147.027-.28.082-.398.055-.118.132-.22.231-.306.099-.086.217-.152.355-.198.138-.046.289-.069.455-.069.236,0,.453.035.651.106.198.071.38.172.546.304l-.368.534c-.144-.098-.285-.176-.424-.232-.138-.057-.276-.085-.414-.085s-.242.027-.311.081c-.069.054-.104.121-.104.2v.009c0,.052.01.097.03.136.02.038.056.073.108.104.052.031.124.06.215.087s.205.06.344.097c.163.043.308.091.436.145.128.054.235.118.323.193.088.075.154.163.198.265.045.101.067.223.067.364v.009c0,.16-.029.301-.087.426Z"/>
        <path class="st0" d="M199.092,33.034v-3.223h2.426v.631h-1.726v.654h1.519v.631h-1.519v.677h1.749v.631h-2.449Z"/>
        <path class="st0" d="M204.545,32.94c-.229.1-.49.15-.785.15-.252,0-.481-.041-.688-.124-.207-.083-.385-.198-.534-.345-.149-.147-.265-.322-.348-.525-.083-.203-.124-.423-.124-.663v-.009c0-.23.042-.446.127-.647.084-.201.202-.377.352-.529.15-.152.328-.272.534-.359.206-.087.431-.131.677-.131.144,0,.275.01.394.03.118.02.228.048.329.085.101.037.196.083.285.138.089.055.175.118.258.189l-.447.539c-.061-.052-.123-.098-.184-.138-.061-.04-.125-.074-.191-.101-.066-.028-.137-.049-.214-.064-.077-.015-.161-.023-.253-.023-.129,0-.249.027-.361.081-.112.054-.21.126-.295.217-.084.091-.15.197-.198.318-.048.122-.071.251-.071.39v.009c0,.148.024.284.071.408.048.125.115.233.203.325.087.092.19.164.308.215.118.051.249.076.394.076.264,0,.486-.065.668-.195v-.464h-.714v-.612h1.4v1.4c-.166.141-.363.262-.592.361Z"/>
        <path class="st0" d="M208.509,32.27c-.066.181-.16.332-.283.453-.123.121-.272.212-.447.272s-.37.09-.585.09c-.433,0-.773-.12-1.022-.359-.249-.239-.373-.597-.373-1.073v-1.841h.709v1.823c0,.264.061.463.184.596.123.133.293.2.511.2s.388-.064.511-.193c.123-.129.184-.322.184-.58v-1.846h.709v1.818c0,.246-.033.459-.099.64Z"/>
        <path class="st0" d="M209.395,33.034v-3.223h.709v3.223h-.709Z"/>
        <path class="st0" d="M213.465,33.034v-2.104l-.907,1.376h-.018l-.898-1.363v2.09h-.7v-3.223h.764l.847,1.363.847-1.363h.764v3.223h-.7Z"/>
        <path class="st0" d="M215.003,33.034v-3.223h.709v3.223h-.709Z"/>
        <path class="st0" d="M216.549,33.034v-3.223h2.426v.631h-1.726v.654h1.519v.631h-1.519v.677h1.749v.631h-2.449Z"/>
        <path class="st0" d="M221.926,33.034l-1.561-2.049v2.049h-.7v-3.223h.654l1.51,1.984v-1.984h.7v3.223h-.603Z"/>
        <path class="st0" d="M224.794,30.465v2.569h-.709v-2.569h-.981v-.654h2.67v.654h-.981Z"/>
        <path class="st0" d="M229.504,32.07c-.086.201-.205.377-.357.529s-.333.272-.543.359c-.21.088-.44.131-.688.131s-.477-.044-.686-.131c-.209-.087-.389-.206-.541-.354-.152-.149-.27-.324-.355-.525-.084-.201-.127-.417-.127-.647v-.009c0-.23.043-.446.129-.647.086-.201.205-.377.357-.529s.333-.272.543-.359.44-.131.688-.131.477.044.686.131c.209.087.389.206.541.355.152.149.27.324.354.525.084.201.127.417.127.647v.009c0,.23-.043.446-.129.647ZM228.892,31.423c0-.138-.024-.269-.071-.391-.048-.123-.115-.23-.203-.322-.088-.092-.191-.165-.311-.219-.12-.054-.25-.081-.391-.081-.144,0-.275.026-.394.078-.118.052-.219.124-.304.216-.084.092-.15.199-.198.32-.048.121-.071.251-.071.389v.009c0,.138.024.269.071.391.048.123.115.23.203.322.087.092.19.165.308.219s.249.081.394.081c.141,0,.272-.026.391-.078.12-.052.222-.124.306-.216.084-.092.15-.199.198-.32.048-.121.071-.251.071-.389v-.009Z"/>
        <path class="st0" d="M230.194,33.034v-.737h.741v.737h-.741Z"/>
        <path class="st0" d="M234.218,32.753c-.089.071-.186.131-.292.182-.106.051-.222.089-.348.115-.126.026-.267.039-.424.039-.236,0-.456-.043-.658-.129-.203-.086-.378-.203-.525-.352-.147-.149-.262-.325-.345-.527-.083-.203-.124-.419-.124-.649v-.009c0-.23.041-.446.124-.647.083-.201.198-.377.345-.529.147-.152.324-.272.529-.359.206-.087.433-.131.681-.131.15,0,.288.012.412.037.124.025.237.058.338.101.101.043.195.095.281.157.086.061.166.129.239.203l-.451.52c-.126-.114-.254-.203-.384-.267-.13-.064-.277-.097-.44-.097-.135,0-.26.026-.375.078-.115.052-.214.124-.297.216-.083.092-.147.199-.193.32-.046.121-.069.251-.069.389v.009c0,.138.023.269.069.391.046.123.11.23.191.322.081.092.18.165.295.219.115.054.242.081.38.081.184,0,.34-.034.467-.101.127-.067.254-.16.38-.276l.451.456c-.083.089-.169.169-.258.239Z"/>
        <path class="st0" d="M238.228,32.07c-.086.201-.205.377-.357.529s-.333.272-.543.359c-.21.088-.44.131-.688.131s-.477-.044-.686-.131c-.209-.087-.389-.206-.541-.354-.152-.149-.27-.324-.355-.525-.084-.201-.127-.417-.127-.647v-.009c0-.23.043-.446.129-.647.086-.201.205-.377.357-.529s.333-.272.543-.359.44-.131.688-.131.477.044.686.131c.209.087.389.206.541.355.152.149.27.324.354.525.084.201.127.417.127.647v.009c0,.23-.043.446-.129.647ZM237.615,31.423c0-.138-.024-.269-.071-.391-.048-.123-.115-.23-.203-.322-.088-.092-.191-.165-.311-.219-.12-.054-.25-.081-.391-.081-.144,0-.275.026-.394.078-.118.052-.219.124-.304.216-.084.092-.15.199-.198.32-.048.121-.071.251-.071.389v.009c0,.138.024.269.071.391.048.123.115.23.203.322.087.092.19.165.308.219s.249.081.394.081c.141,0,.272-.026.391-.078.12-.052.222-.124.306-.216.084-.092.15-.199.198-.32.048-.121.071-.251.071-.389v-.009Z"/>
      </g>
    </g>
    <g>
      <g>
        <path class="st0" d="M17.608,22.511h-4.98v-11.706h4.815v1.739h-2.756v2.926h2.113v1.739h-2.113v3.562h2.922v1.739Z"/>
        <path class="st0" d="M22.939,22.511h-4.502v-11.706h2.058v9.967h2.444v1.739Z"/>
        <path class="st0" d="M27.455,22.511h-2.058v-11.706h2.058v11.706Z"/>
        <path class="st0" d="M34.113,22.511h-1.562l-1.25-3.596c-.404-1.153-.9-2.793-1.139-3.662.018.853.055,2.442.055,3.479v3.779h-1.911v-11.706h1.856l1.01,2.86c.331.953.846,2.475,1.084,3.361-.018-.802-.055-2.408-.055-3.278v-2.943h1.911v11.706Z"/>
        <path class="st0" d="M39.852,12.544h-2.83v2.926h2.132v1.739h-2.132v5.302h-2.058v-11.706h4.888v1.739Z"/>
        <path class="st0" d="M46.144,16.624c0,4.08-.735,6.071-3.05,6.071-2.26,0-2.958-1.957-2.958-6.004,0-4.08.717-6.071,2.995-6.071s3.014,2.007,3.014,6.004ZM44.012,16.691c0-3.579-.239-4.348-.9-4.348-.68,0-.864.736-.864,4.281,0,3.579.239,4.348.882,4.348.662,0,.882-.736.882-4.281Z"/>
        <path class="st0" d="M52.71,22.511h-2.095l-1.066-5.151h-.515v5.151h-2.04v-11.706h2.683c1.599,0,2.903.786,2.903,3.228,0,1.354-.422,2.274-1.139,2.793l1.268,5.686ZM50.504,14.116c0-1.287-.276-1.723-.992-1.723h-.478v3.429h.423c.698,0,1.047-.469,1.047-1.706Z"/>
        <path class="st0" d="M57.085,17.631c.11-.953.134-2.211.392-3.264l.845-3.562h2.18s0,11.706,0,11.706h-1.838s0-3.061,0-3.061c0-1.37.074-2.973.092-4.077-.184.886-.805,5.599-1.086,7.138h-1.278c-.281-1.538-.902-6.252-1.086-7.138.018,1.104.092,2.707.092,4.077v3.061h-1.838v-11.706h2.18l.845,3.562c.258,1.053.282,2.311.392,3.264h.108Z"/>
        <path class="st0" d="M67.637,22.511h-2.058l-.349-2.576h-1.507l-.331,2.576h-2.04l2.04-11.706h2.205l2.04,11.706ZM65.028,18.247l-.294-2.141c-.11-.836-.239-1.79-.294-2.71-.037.92-.166,1.89-.276,2.726l-.276,2.125h1.139Z"/>
        <path class="st0" d="M74.222,16.574c0,4.013-1.048,5.937-3.381,5.937h-2.352v-11.706h2.554c2.499,0,3.179,2.141,3.179,5.77ZM72.109,16.591c0-3.429-.368-4.148-1.231-4.148h-.349v8.445h.312c.827,0,1.268-.752,1.268-4.297Z"/>
        <path class="st0" d="M81.082,16.624c0,4.08-.735,6.071-3.05,6.071-2.26,0-2.958-1.957-2.958-6.004,0-4.08.717-6.071,2.995-6.071s3.014,2.007,3.014,6.004ZM78.95,16.691c0-3.579-.239-4.348-.9-4.348-.68,0-.864.736-.864,4.281,0,3.579.239,4.348.882,4.348.662,0,.882-.736.882-4.281Z"/>
        <path class="st0" d="M87.648,22.511h-2.095l-1.066-5.151h-.515v5.151h-2.04v-11.706h2.683c1.599,0,2.903.786,2.903,3.228,0,1.354-.422,2.274-1.139,2.793l1.268,5.686ZM85.443,14.116c0-1.287-.276-1.723-.992-1.723h-.478v3.429h.423c.698,0,1.047-.469,1.047-1.706Z"/>
      </g>
      <rect class="st0" x="12.628" y="23.424" width="75.686" height="1.755"/>
    </g>
    <g>
      <path class="st0" d="M120.898,21.24v2.393h-1.196v-7.777h1.197s.049.697.049.697c1.02-1.338,2.885-1.123,3.559.43,1.112,2.56-.605,6.567-3.609,4.257ZM121.866,16.475c-1.134.26-1.056,2.436-.967,3.318.17,1.679,1.915,2.179,2.512.52.434-1.205.437-4.293-1.545-3.838Z"/>
      <path class="st0" d="M133.76,21.838h-1.196v-4.636c0-.138-.428-.553-.593-.603-.439-.134-1.203-.078-1.553.252-.069.065-.347.513-.347.551v4.437h-1.196v-5.982h1.097s-.001.648-.001.648l.198.049c.436-1.071,2.378-1.121,3.145-.4.11.103.446.748.446.85v4.836Z"/>
      <path class="st0" d="M144.529,15.856h1.197s.049.697.049.697c.796-1.292,3.444-1.201,3.642.447.182,1.517-.219,3.314.097,4.837h-1.196s0-4.436,0-4.436c0-.03-.207-.486-.251-.546-.292-.392-1.206-.392-1.618-.226-.25.101-.724.727-.724.972v4.238h-1.196v-5.982Z"/>
      <path class="st0" d="M140.219,15.685c3.958-.443,4.157,6.016.568,6.253-3.732.246-4.068-5.862-.568-6.253ZM140.316,16.176c-1.304.213-1.372,2.412-1.271,3.417.215,2.135,2.404,2.622,2.963.373.302-1.214.145-4.09-1.692-3.79Z"/>
      <rect class="st0" x="123.639" y="18.199" width="5.983" height="1.296" transform="translate(107.781 145.478) rotate(-89.999)"/>
      <rect class="st0" x="132.913" y="18.199" width="5.981" height="1.296" transform="translate(117.05 154.75) rotate(-89.997)"/>
      <path class="st0" d="M141.636,13.364l-1.045,1.696-.549.098c-.078-.073.54-1.602.646-1.696.225-.198.657-.065.948-.098Z"/>
      <path class="st0" d="M135.728,14.178c.989-.201,1.33,1.01.274,1.086-1.003.072-1.079-.923-.274-1.086Z"/>
      <path class="st0" d="M126.455,14.178c1.428-.284,1.067,1.687-.375.933-.257-.361-.072-.844.375-.933Z"/>
      <path class="st0" d="M184.212,18.448v.1h-4.188c-.303,2.47,1.67,3.631,3.689,2.194l.201.695c-2.682,1.154-5.278.349-5.09-2.943.171-2.996,3.631-3.95,5.069-1.37l.32,1.325ZM182.916,18.05c-.032-2.488-2.716-2.385-2.892,0h2.892Z"/>
      <path class="st0" d="M159.584,11.868v1.496c-.333-.103-.576-.38-.896-.55-.793-.422-1.904-.534-2.726-.13-3.211,1.58-2.274,10.535,2.493,8.276.162-.077,1.067-.787,1.128-.716-.074.444.206,1.16-.226,1.418-1.498.894-3.906.878-5.389-.04-2.376-1.471-2.596-5.591-1.281-7.826,1.455-2.473,4.36-2.701,6.897-1.927Z"/>
      <path class="st0" d="M173.942,13.563v2.991c1.434-1.559,3.431-.985,3.844,1.091.564,2.837-1.271,5.734-4.093,3.494-.236.506-.279.818-.948.699v-8.276h1.196ZM176.102,21.007c1.174-1.137.568-6.207-1.611-4.253-.676.606-.656,2.479-.54,3.331.135.989,1.361,1.688,2.151.922Z"/>
      <path class="st0" d="M164.769,20.991c.072.233.525.161.697.05.176,1.197-1.596,1.172-1.845.098-.811.651-1.996,1.191-2.936.446-.609-.483-.675-1.661-.323-2.31.617-1.139,2.582-.971,3.059-1.627.517-.71-.157-1.351-.909-1.388-.617-.03-1.097.378-1.631.592.012-.239-.231-.562,0-.748.93-.457,2.639-.711,3.486.004.134.113.403.564.403.694v4.188ZM163.573,18.249c-.921.475-2.3.521-2.301,1.844-.001,1.035,1.025,1.367,1.797.792.135-.101.505-.577.505-.692v-1.944Z"/>
      <path class="st0" d="M166.365,16.006c-.004-.028-.15-.112-.1-.149l1.197-.002.049.598c.301-.557.843-.74,1.446-.797l.004.84c-1.259.148-1.43.635-1.504,1.797-.072,1.128-.008,2.426.104,3.544h-1.196s0-5.832,0-5.832Z"/>
      <rect class="st0" x="169.954" y="15.856" width="1.196" height="5.982"/>
      <path class="st0" d="M171.223,14.386c.681.742-1.142,1.278-1.355.502-.191-.696.962-.931,1.355-.502Z"/>
      <path class="st0" d="M118.305,9.574v16.651h-11.965V9.574h11.965ZM111.403,11.696c-5.668.678-5.784,10.635-.299,11.81,3.546.759,6.31-1.469,6.601-5.009.344-4.179-1.835-7.335-6.302-6.801Z"/>
      <path class="st0" d="M111.898,12.689c4.347-.739,4.383,8.589,1.392,9.768-4.593,1.81-5.065-9.143-1.392-9.768Z"/>
    </g>
  </g>
</svg>