<?xml version="1.0" encoding="UTF-8"?>
<svg id="Layer_1" xmlns="http://www.w3.org/2000/svg" version="1.1" viewBox="0 0 296.60001 150">
  <!-- Generator: Adobe Illustrator 30.2.1, SVG Export Plug-In . SVG Version: 2.1.1 Build 1)  -->
  <defs>
    <style>
      .st0 {
        fill: none;
      }
    </style>
  </defs>
  <rect class="st0" x="-75" y="-143.2" width="1080" height="1920.00005"/>
  <g>
    <path d="M102.66362,91.76652c-1.9474,13.59603-8.70114,23.98631-24.98595,23.98631-22.98739,0-29.74237-20.12775-29.74238-40.73681,0-20.60906,6.75495-41.21809,29.74235-41.2181,12.90082,0,21.16115,7.29656,23.71127,19.98976l46.89063.00075C144.86339,33.45638,134.33806,12.80625,113.95885-.01024v14.06067c-9.31738-5.86263-21.42072-9.51108-36.79866-9.51107-16.77097,0-31.23325,4.80675-42.51857,13.23114V-.01022C12.77379,16.2894-.00002,42.94955-.00001,74.95542c.00001,31.34975,12.77384,58.19816,34.64168,74.76017v-17.78223c11.28532,8.56015,25.7476,13.52735,42.51857,13.52735,13.81084,0,26.46133-2.91009,36.77823-8.93375v13.48329c18.95635-11.06685,31.84688-30.22705,34.36153-58.24527l-45.63637.00153Z"/>
    <path d="M250.96363,91.76647c-1.9474,13.59603-8.70114,23.98631-24.98595,23.98631-22.98739,0-29.74237-20.12775-29.74238-40.73681,0-20.60906,6.75495-41.21809,29.74235-41.2181,12.90082,0,21.16115,7.29656,23.71127,19.98976l46.89063.00075c-3.41617-20.33206-13.9415-40.98218-34.32071-53.79867v14.06067c-9.31738-5.86263-21.42072-9.51108-36.79866-9.51107-16.77097,0-31.23325,4.80675-42.51857,13.23114V-.01027c-21.86784,16.29961-34.64164,42.95977-34.64163,74.96564.00001,31.34975,12.77384,58.19816,34.64168,74.76017v-17.78223c11.28532,8.56015,25.7476,13.52735,42.51857,13.52735,13.81084,0,26.46133-2.91009,36.77823-8.93375v13.48329c18.95635-11.06685,31.84688-30.22705,34.36153-58.24527l-45.63637.00153Z"/>
  </g>
</svg>