<?xml version="1.0" encoding="UTF-8"?>
<svg id="Layer_1" xmlns="http://www.w3.org/2000/svg" version="1.1" viewBox="0 0 336 35.8">
  <!-- Generator: Adobe Illustrator 30.2.1, SVG Export Plug-In . SVG Version: 2.1.1 Build 1)  -->
  <defs>
    <style>
      .st0 {
        fill: #231f20;
      }

      .st1 {
        fill: #fafafa;
      }
    </style>
  </defs>
  <rect class="st1" x="-26.9" y="-629" width="390" height="844"/>
  <g>
    <g>
      <rect class="st0" x="258.5" y="24.9" width="10.3" height="1.1"/>
      <path class="st0" d="M286,25v.8h-17v-.8h17M286.1,24.9h-17.3v1.1h17.3v-1.1h0Z"/>
      <rect class="st0" x="286.1" y="24.9" width="17.9" height="1.1"/>
      <path class="st0" d="M321.2,25v.8h-17v-.8h17M321.3,24.9h-17.3v1.1h17.3v-1.1h0Z"/>
      <rect class="st0" x="321.3" y="24.9" width="10.2" height="1.1"/>
      <g>
        <path class="st0" d="M271.7,21.2c.3.4.6.7.7.9.1.2.2.4.2.6s0,.3-.1.5c-.1.2-.3.4-.5.4-.4,0-.9-.4-1.5-1.2-.4-.5-.7-.9-.8-1.2-.1-.3-.3-.7-.6-1.2-.3-.6-.5-1-.6-1.3-.1-.2-.5-.4-.9-.4s-.2,0-.4,0c-.1,0-.2,0-.3,0-.5,0-1.2.1-2.2.3-1.1,1.8-1.8,2.8-2,3.1-.4.5-.8.8-1.1.8s-.2,0-.2,0c-.1,0-.2-.1-.2-.3,0,0,0-.1,0-.2,0-.4.3-1,.8-2,.3-.6.5-1,.5-1.1h0s0,0-.2,0-.2,0-.3,0c-.2,0-.3,0-.3,0-.2,0-.3,0-.3-.1,0,0,0,0,0-.2s0-.1,0-.2c.1-.3.3-.6.5-.7.2-.1.5-.3.8-.4.6-.2,1.3-1.2,2.1-3.1,0,0,0-.2.2-.5.3-.8.6-1.5.8-1.8.4-.7.8-1,1.3-1.1.9,0,1.5.5,1.7,1.7.2,1.3.5,2.4.8,3.4,0,0,0,.1,0,.2,0,.2.1.4.2.4,0,0,.1,0,.2,0s0,0,.1,0c0,0,.1,0,.2,0,.2,0,.4,0,.5,0,.3,0,.5,0,.7.3,0,0,.1.2.1.3s0,.1,0,.2c-.1.3-.5.6-1.3.8v.2c.5,1.2,1,2.1,1.4,2.6,0,0,.2.2.3.3M267.4,16.5c0-.1,0-.3-.1-.6-.2-1.2-.5-2-.7-2.4-.2.4-.6,1.3-1,2.5-.2.4-.3.7-.3.8.2,0,.5,0,.9-.2.6-.1,1-.2,1.2-.2"/>
        <path class="st0" d="M277.5,17c.4.1.9.3.9.7,0,0,0,0,0,0,0,0,0,0,0,0,0,0-.1.1-.1.2-.1.2-.1.5-.1.7s0,.6,0,1c0,.3,0,.4,0,.5v.3c0,.8,0,1.5,0,2.1,0,1,0,1.7-.1,2.3,0,.7-.2,1.2-.5,1.7-.4.8-.9,1.2-1.6,1.4-.2,0-.3,0-.5,0-.6,0-1.2-.2-1.7-.6-.3-.2-.5-.5-.7-.8,0-.2-.2-.3-.2-.4-.4-.5-.5-1-.5-1.3s0-.5.3-.6c0,0,.1,0,.2,0,.3,0,.6.3.9.8.2.3.5.6.8.9.3.3.6.4.9.4s.7-.3.9-.8c.2-.5.3-1.3.3-2.2s0-.7,0-1.1c0-.6,0-1,0-1.4s0-.2,0-.3c-.1.2-.3.4-.5.7-.5.8-1,1.3-1.5,1.4-.1,0-.3,0-.4,0-.4,0-.8-.2-1.2-.5-.3-.3-.5-.7-.6-1.2,0-.2,0-.4,0-.6,0-.8.3-1.6.9-2.3.8-.9,1.7-1.3,2.9-1.3h.2c.4,0,.7,0,1.1.2M274.4,19.2c-.2.3-.3.6-.4.9,0,.1,0,.3,0,.4,0,.2,0,.4.2.5,0,0,0,0,0,0,.3,0,1-.8,2.1-2.4.1-.2.2-.4.3-.4,0,0-.1,0-.3,0-.3,0-.6,0-1,.3-.4.2-.7.5-.9.7"/>
        <path class="st0" d="M285.7,18.8c.3-.2.5-.3.7-.3s.2.1.2.3c-.1.7-.5,1.4-1.2,2.2-.7.7-1.4,1.2-2.1,1.5-.3,0-.5,0-.8,0-1.2,0-2.4-.7-3.4-2-.4-.5-.5-1.1-.5-1.9s0-.7,0-1.1c.1-.7.7-1.2,1.8-1.4.1,0,.3,0,.4,0,.4,0,.8.1,1.1.4.4.3.7.7,1,1.3,0,.3.1.5.1.7,0,.6-.3,1.2-.9,1.6-.1,0-.2.1-.4.2-.2,0-.3.1-.3.1,0,0-.1.1-.1.2h0c0,0,0,.2.2.4.3.3.6.5,1,.5s.2,0,.3,0c.5-.1,1-.4,1.5-1,.7-.8,1.1-1.2,1.2-1.3M280.7,19.3c.3,0,.5,0,.7-.3.2-.2.3-.4.3-.6,0,0,0,0,0-.1,0-.2,0-.4-.2-.5-.1-.2-.3-.3-.6-.4,0,0,0,0,0,0-.2,0-.3,0-.4.2,0,.1-.1.3-.1.6,0,.6.1.9.4,1.1"/>
        <path class="st0" d="M322.4,18.8c.3-.2.5-.3.7-.3s.2.1.2.3c-.1.7-.5,1.4-1.2,2.2-.7.7-1.4,1.2-2.1,1.5-.3,0-.5,0-.8,0-1.2,0-2.4-.7-3.4-2-.4-.5-.5-1.1-.5-1.9s0-.7,0-1.1c.1-.7.7-1.2,1.8-1.4.1,0,.3,0,.4,0,.4,0,.8.1,1.1.4.4.3.7.7,1,1.3,0,.3.1.5.1.7,0,.6-.3,1.2-.9,1.6-.1,0-.2.1-.4.2-.2,0-.3.1-.3.1,0,0-.1.1-.1.2h0c0,0,0,.2.2.4.3.3.6.5,1,.5s.2,0,.3,0c.5-.1,1-.4,1.5-1,.7-.8,1.1-1.2,1.2-1.3M317.3,19.3c.3,0,.5,0,.7-.3.2-.2.3-.4.3-.6,0,0,0,0,0-.1,0-.2,0-.4-.2-.5-.1-.2-.3-.3-.6-.4,0,0,0,0,0,0-.2,0-.3,0-.4.2,0,.1-.1.3-.1.6,0,.6.1.9.4,1.1"/>
        <path class="st0" d="M293,20.9c.1.4.2.8.2,1s0,.4-.1.5c-.1.2-.3.2-.6.2s-.2,0-.4,0c-.4,0-.6-.5-.9-1.3-.1-.5-.3-1.3-.4-2.4-.1-.8-.2-1.3-.2-1.5-.6.5-1.2,1.1-1.4,1.8-.2.8-.1,3.1-1.4,3.1s-.5-.2-.7-.5c-.1-.2-.2-.6-.2-1.1s0-1,.2-1.7c0-.6.1-1,.1-1.2,0-.4.1-.7.3-.9.2-.1.4-.2.6-.2s.2,0,.3,0c.3,0,.4.1.4.3.1-.1.3-.4.5-.7.2-.3.4-.5.5-.7,0-.1.3-.2.5-.4.3-.2.5-.3.8-.3s.5.1.6.4c.4.8.6,2,.9,3.7,0,.6.2,1,.2,1.3,0,0,0,.3.1.5"/>
        <path class="st0" d="M300.6,20.6c.3.4.5.7.5,1s0,.2,0,.2c-.2.5-.5.7-.8.7s-.9-.5-1.5-1.4c-.2-.2-.3-.4-.3-.5-.4.9-1.2,1.4-2.4,1.8-.6.2-1.2.3-1.9.2-.2,0-.4,0-.5-.2s-.1-.2-.1-.3c-.2-.8,0-1.5.5-2.2.4-.6,1-1.2,1.6-1.6.3-.2.7-.3,1-.5s.9-.3.9-.6c0-.3,0-.7,0-1.2s0-.6,0-.9c0-.4,0-.8,0-1.1s0-.4,0-.5h0c0-.2,0-.3,0-.5,0-.8.1-1.3.4-1.6.2-.2.4-.3.7-.3s0,0,.1,0c.1,0,.3.1.4.4.1.2.2.4.2.6,0,.4.1,1.2.1,2.2v.4c0,.1,0,.4,0,.6,0,.2,0,.3,0,.5,0,1,0,1.7.2,2.2.2.8.5,1.7,1,2.6M297.4,19.2c-.4.1-.8.3-1.2.6-.5.3-.7.5-.8.8,0,0,0,0,0,.1,0,0,0,.2.1.3h.2c.4,0,.7-.2,1.1-.6.4-.4.6-.8.6-1.2"/>
        <path class="st0" d="M308.8,20.8c.3.4.5.7.5,1,0,.2-.2.4-.4.5-.2.2-.5.2-.7.2s-.4,0-.5-.2c-.3-.2-.5-.7-.8-1.4-.2-.6-.3-.9-.5-1.2,0,0,0,.1-.2.3-.5.7-.8,1.2-1.1,1.5-.5.5-1,.9-1.6,1-.2,0-.3,0-.5,0-.4,0-.8-.1-1-.4-.3-.3-.4-.6-.4-1.1,0-.7.4-1.5.8-2.1.6-1,1.4-1.7,2.3-2.3s1.4-.9,2.2-.9h0c.3,0,.6.3.8.9.1.3.2.9.3,1.6,0,.3,0,.4,0,.5,0,0,0,.2,0,.3.1.6.2,1,.3,1.2,0,.1.2.3.3.5M305.7,17.8s0,0,0,0c-.1,0-.3.1-.6.4-.3.3-.6.8-.9,1.3-.3.5-.5.9-.5,1.2.4-.1.9-.5,1.4-1.2.5-.7.7-1.2.7-1.7"/>
        <path class="st0" d="M321.3,6.5h0s0,0,0,0M321.3,6.5s0,0,0,0h0s0,0,0,0ZM321.3,6.5h0s0,0,0,0h0ZM320.6,6c0,0-.2,0-.3,0-.3,0-.5,0-.8,0h-1.1c-.4,0-.7,0-1.1,0h-1.1c-.4,0-.7,0-1.1,0h-1.1c-1.9,0-3.8-.1-5.8-.2s-1.7,0-2.5,0c-.3,0-.5,0-.7,0s-.4.3-.4.6c0,.3.4.6.7.7,1.6.5,3.4,0,5,.2.5,0,.9.2,1.3.5.5.5.5,1.3.5,1.9-.3,2-.5,4-.7,6s-.1,2.9-.1,4.3c0,.7,0,1.4,0,2,0,.2,0,.5.1.6s.3.3.5.3c.2,0,.3-.3.4-.5.1-.4.2-.8.2-1.1.5-4.3,0-8.7,1.1-12.9,0-.2.1-.4.3-.5.2-.2.5-.3.8-.3.3,0,.6,0,1,0,.5,0,.9,0,1.4,0,.9,0,1.8,0,2.7-.1.3,0,.5-.1.8-.2.2,0,.5-.2.6-.4.1-.2,0-.5-.1-.6s-.1,0-.2-.1M320.4,4.6c.3,0,.6,0,.8.2.3.1.5.3.8.4.2.2.4.4.5.6.1.2.2.5.2.8,0,.1,0,.3-.1.4-.4.9-1.6,1.4-2.5,1.6-1.4.3-2.8.2-4.1,0-.3,0-.7,0-1,.1-.3.2-.3.6-.4.9s-.2.8-.2,1.2c0,0,0,0,0,0,0,.2,0,.5,0,.7,0,.3,0,.6,0,.9v1c0,.2,0,.2,0,.2h0c0,0,0,.1,0,.1,0,1.7-.2,3.1-.2,4.1,0,1.1-.1,1.8-.1,2.1h0c0,0,0,.2,0,.3,0,.1,0,.3,0,.4h0c0,.2,0,.4,0,.5,0,.2,0,.3,0,.4v.2c0,.3-.1.6-.2.9,0,.3-.2.5-.4.7h0c-.2.3-.5.5-.9.6-.3,0-.7.1-1.1.1,0,0,0,0,0,0-.4,0-.7-.2-.9-.5-.2-.2-.3-.5-.4-.9,0,0,0-.2,0-.5,0-.2,0-.5,0-1,0-.8,0-1.8,0-3,0-1.2.1-2.4.2-3.8v-.7c0-.3.1-.5.1-.7,0-.7.1-1.4.2-2.1,0-.3,0-.5,0-.8s0-.5,0-.8,0-.2,0-.3,0-.2,0-.3c0-.1,0-.2-.1-.3s0,0-.1,0c-.3,0-.6,0-.9-.1h0c0,0-.2,0-.4,0-.2,0-.4,0-.7,0-.4,0-.7,0-1,0-.3,0-.6,0-.7,0-.2,0-.3,0-.4,0-.1,0-.2,0-.4,0-.6,0-1.1-.2-1.5-.3-.5-.2-.8-.5-1-.8,0-.2-.2-.4-.2-.5,0-.2,0-.4,0-.6,0-.5.3-.9.8-1.2.4-.2.9-.4,1.5-.5h0c.5,0,1-.1,1.5-.1.5,0,1.1,0,1.7,0,.7,0,1.5.1,2.5.1,1,0,2.1,0,3.4,0,1.4,0,2.5,0,3.5,0,1,0,1.8,0,2.4,0h0Z"/>
      </g>
      <g>
        <path class="st0" d="M325.8,6.8v.5c0,0,0,.2,0,.2,0,0,0,0,0,0,0,0,0,0,.2,0h0s-.9,0-.9,0h0c0,0,.1,0,.2,0,0,0,0,0,0,0s0,0,0-.2v-1.1c0,0,0-.2,0-.2,0,0,0,0,0,0s0,0-.2,0h0s.8,0,.8,0c.2,0,.4,0,.5,0s.2,0,.2.2,0,.2,0,.3,0,.2-.1.3c0,0-.1,0-.2.1l.4.6c0,0,0,.1.1.1,0,0,0,0,.1,0h0s-.5,0-.5,0l-.6-.8h-.1ZM325.8,5.9v.8h0c.1,0,.2,0,.3,0s.1,0,.1-.1,0-.1,0-.2c0-.1,0-.2,0-.3,0,0-.2,0-.3,0h-.1Z"/>
        <path class="st0" d="M326,8.6c-1.1,0-2-.9-2-2s.9-2,2-2,2,.9,2,2-.9,2-2,2ZM326,5c-.9,0-1.6.7-1.6,1.6s.7,1.6,1.6,1.6,1.6-.7,1.6-1.6-.7-1.6-1.6-1.6Z"/>
      </g>
      <g>
        <path class="st0" d="M281.6,29s0,0,0,0h0s0,0,0,0c0,0,0,0-.1.1,0,0-.1,0-.2,0,0,0,0,0,0,0-.1,0-.3,0-.5,0,0,0-.1,0-.2,0,0,0,0,0,0,0-.1,0-.2,0-.2,0s0,0,0,0c-.1,0-.2,0-.2-.2h0c0,0,0-.1,0-.2,0-.1,0-.2,0-.2h0c0-.3,0-.4,0-.6,0,0,0,0,0,0s0,0,0,0h0c0-.1,0-.2,0-.3,0-.2,0-.3.1-.4,0,0,0,0,0,0s0,0,0,0c0,0,0,0,0,0,0,0,0,0,.1,0,0,0,0,0,0,.1s0,0,0,0c0,0,0,.1,0,.2,0,0,0,0,0,0,0,0,0,.1,0,.2,0,0,0,.2,0,.3s0,.3,0,.4c0,.1,0,.2,0,.3,0,0,.1,0,.2,0,.1,0,.2,0,.3,0,.1,0,.2,0,.4,0s0,0,.1,0c.1,0,.2,0,.2,0"/>
        <path class="st0" d="M282.7,29.1c0,0,0,.1,0,.2,0,0,0,0,0,0,0,0,0,0-.1,0s0,0,0,0c0,0,0-.1-.1-.2,0,0,0-.2,0-.2,0,0,0,0,0,0,0,.1-.1.2-.2.3,0,0-.2.1-.3.2,0,0,0,0,0,0,0,0-.1,0-.2,0,0,0,0-.1,0-.2,0-.2.1-.4.3-.6.3-.2.5-.3.6-.3h0c0,0,0,0,.1.2,0,0,0,.1,0,.3,0,0,0,0,0,0,0,0,0,0,0,0,0,0,0,.2,0,.2,0,0,0,0,0,0M282.2,28.6s0,0,0,0c0,0,0,0,0,0,0,0-.1.1-.2.2,0,0,0,.2,0,.2,0,0,.2,0,.2-.2,0-.1.1-.2.1-.3"/>
        <path class="st0" d="M285.8,29.1c0,0,0,.1.1.2,0,0,0,0,0,0s0,0,0,0c0,0,0,0,0,0,0,0-.2,0-.3-.2,0,0-.1-.2-.1-.2,0,0,0-.1,0-.2,0,0,0-.2-.1-.2,0,0,0,0-.2,0s0,0,0,0c0,0,0,0,0,0,0,0-.2,0-.4,0-.2.3-.3.5-.3.5,0,0-.1.1-.2.1s0,0,0,0c0,0,0,0,0,0,0,0,0,0,0,0,0,0,0-.2.1-.3,0-.1,0-.2,0-.2h0s0,0,0,0,0,0,0,0c0,0,0,0,0,0,0,0,0,0,0,0,0,0,0,0,0,0s0,0,0,0c0,0,0,0,0-.1,0,0,0,0,.1,0,.1,0,.2-.2.4-.5,0,0,0,0,0,0,0-.1,0-.2.1-.3,0-.1.1-.2.2-.2.2,0,.3,0,.3.3,0,.2,0,.4.1.6,0,0,0,0,0,0,0,0,0,0,0,0,0,0,0,0,0,0s0,0,0,0c0,0,0,0,0,0,0,0,0,0,0,0,0,0,0,0,.1,0,0,0,0,0,0,0s0,0,0,0c0,0,0,.1-.2.1h0c0,.2.2.4.2.5,0,0,0,0,0,0M285.1,28.3s0,0,0-.1c0-.2,0-.3-.1-.4,0,0,0,.2-.2.4,0,0,0,.1,0,.1,0,0,0,0,.2,0,0,0,.2,0,.2,0"/>
        <path class="st0" d="M286.9,28.4c.1,0,.2,0,.2.1h0s0,0,0,0c0,0,0,0,0,.1s0,0,0,.2c0,0,0,0,0,0h0c0,.2,0,.3,0,.4,0,.2,0,.3,0,.4,0,.1,0,.2,0,.3,0,.1-.2.2-.3.2,0,0,0,0,0,0-.1,0-.2,0-.3-.1,0,0,0,0-.1-.1,0,0,0,0,0,0,0,0,0-.2,0-.2s0,0,0-.1c0,0,0,0,0,0,0,0,.1,0,.2.1,0,0,0,.1.1.1,0,0,.1,0,.2,0s.1,0,.1-.1c0,0,0-.2,0-.4s0-.1,0-.2c0,0,0-.2,0-.2s0,0,0,0c0,0,0,0,0,.1,0,.1-.2.2-.3.2,0,0,0,0,0,0,0,0-.1,0-.2,0,0,0,0-.1,0-.2,0,0,0,0,0-.1,0-.1,0-.3.2-.4.1-.1.3-.2.5-.2h0c0,0,.1,0,.2,0M286.4,28.7s0,.1,0,.2c0,0,0,0,0,0,0,0,0,0,0,0,0,0,0,0,0,0,0,0,.2-.1.4-.4,0,0,0,0,0,0,0,0,0,0,0,0,0,0-.1,0-.2,0,0,0-.1,0-.2.1"/>
        <path class="st0" d="M288.5,28.8c0,0,0,0,.1,0s0,0,0,0c0,.1,0,.2-.2.4-.1.1-.2.2-.4.3,0,0,0,0-.1,0-.2,0-.4-.1-.6-.3,0,0,0-.2,0-.3s0-.1,0-.2c0-.1.1-.2.3-.2,0,0,0,0,0,0,0,0,.1,0,.2,0,0,0,.1.1.2.2,0,0,0,0,0,.1,0,.1,0,.2-.2.3,0,0,0,0,0,0,0,0,0,0,0,0,0,0,0,0,0,0h0s0,0,0,0c0,0,.1,0,.2,0s0,0,0,0c0,0,.2,0,.3-.2.1-.1.2-.2.2-.2M287.6,28.9s0,0,.1,0c0,0,0,0,0-.1,0,0,0,0,0,0,0,0,0,0,0,0,0,0,0,0-.1,0,0,0,0,0,0,0,0,0,0,0,0,0,0,0,0,0,0,0,0,0,0,.2,0,.2"/>
        <path class="st0" d="M289.6,29.2c0,0,0,.1,0,.2s0,0,0,0c0,0,0,0-.1,0s0,0,0,0c0,0-.1,0-.1-.2,0,0,0-.2,0-.4,0-.1,0-.2,0-.3-.1,0-.2.2-.2.3,0,0,0,.2,0,.3,0,0,0,.1,0,.2,0,0,0,.1-.1.1s0,0-.1,0c0,0,0,0,0-.2s0-.2,0-.3c0-.1,0-.2,0-.2,0,0,0-.1,0-.2,0,0,0,0,.1,0s0,0,0,0c0,0,0,0,0,0,0,0,0,0,0-.1,0,0,0,0,0-.1,0,0,0,0,0,0,0,0,0,0,.1,0s0,0,.1,0c0,.1.1.3.2.6,0,.1,0,.2,0,.2,0,0,0,0,0,0"/>
        <path class="st0" d="M291,29.1c0,0,0,.1,0,.2s0,0,0,0c0,0,0,.1-.1.1s-.1,0-.3-.2c0,0,0,0,0,0,0,.1-.2.2-.4.3,0,0-.2,0-.3,0-.1,0-.2,0-.2,0,0,0,0,0,0,0,0-.2.1-.4.4-.6,0,0,0,0,0,0,.1,0,.2,0,.2-.1,0,0,0-.1,0-.2s0,0,0-.2c0,0,0-.1,0-.2s0,0,0,0h0s0,0,0,0c0-.1,0-.2,0-.3,0,0,0,0,.1,0s0,0,0,0c0,0,0,0,0,0,0,0,0,0,0,.1,0,0,0,.2,0,.4h0c0,0,0,.1,0,.2,0,0,0,0,0,0,0,.2,0,.3,0,.4,0,.1,0,.3.2.5M290.4,28.9c0,0-.1,0-.2,0,0,0-.1,0-.1.1,0,0,0,0,0,0,0,0,0,0,0,0h0c0,0,.1,0,.2,0,0,0,0-.1.1-.2"/>
        <path class="st0" d="M292.4,29.1c0,0,0,.1,0,.2,0,0,0,0,0,0,0,0,0,0-.1,0s0,0,0,0c0,0,0-.1-.1-.2,0,0,0-.2,0-.2,0,0,0,0,0,0,0,.1-.1.2-.2.3,0,0-.2.1-.3.2,0,0,0,0,0,0,0,0-.1,0-.2,0,0,0,0-.1,0-.2,0-.2.1-.4.3-.6.3-.2.5-.3.6-.3h0c0,0,0,0,.1.2,0,0,0,.1,0,.3,0,0,0,0,0,0,0,0,0,0,0,0,0,0,0,.2,0,.2,0,0,0,0,0,0M291.9,28.6s0,0,0,0c0,0,0,0,0,0,0,0-.1.1-.2.2,0,0,0,.2,0,.2,0,0,.2,0,.2-.2,0-.1.1-.2.1-.3"/>
        <path class="st0" d="M296.1,28.4s0,0,0,0c0,.1,0,.3-.3.4-.2.2-.3.3-.5.4-.2.1-.5.2-.7.2s-.4,0-.5-.1c-.2-.1-.3-.3-.4-.5,0,0,0-.1,0-.2s0-.2,0-.2c0-.3.2-.5.5-.7.2-.2.5-.3.7-.3s0,0,0,0c0,0,0,0,.1,0,0,0,0,0,0,0,0,0,0,0,0,0,0,0,0,.1-.2.2h0c-.2.1-.4.2-.5.3,0,0-.2.2-.2.3,0,.1,0,.2,0,.3s0,0,0,0c0,.1,0,.2.2.3.1,0,.2,0,.4,0,.2,0,.5,0,.7-.2,0,0,0,0,0,0,.4-.4.6-.5.7-.5s0,0,0,0"/>
        <path class="st0" d="M296.8,29.1c0,.1,0,.2,0,.3s0,.1,0,.1,0,0-.1,0c0,0-.1-.1-.1-.3,0,0,0,0,0,0,0,0-.1.2-.2.2,0,0-.2.1-.3.1s-.1,0-.2,0c0,0,0-.1,0-.3s0-.3,0-.4c0-.2.1-.3.2-.3h0s0,0,0,0c0,0,0,0,0,.1,0,0,0,.2,0,.4,0,.1,0,.2,0,.2s0,0,0,0c0,0,0,0,0,0,0,0,.2-.1.2-.3,0,0,0-.2,0-.3,0,0,0-.1,0-.2,0,0,0,0,0,0,0,0,.1,0,.2.2,0,0,0,.2,0,.3,0,0,0,.1,0,.1,0,0,0,.1,0,.2"/>
        <path class="st0" d="M297.5,29.3c0,0,0,.1,0,.2,0,0,0,0,0,0s0,0-.1,0c0,0-.1-.2-.1-.6,0,0,0,0,0-.1,0-.1,0-.2,0-.4h0c0-.3,0-.6,0-.9h0s0,0,0,0c0,0,.1,0,.2,0s0,0,0,0c0,0,0,.2,0,.3s0,.2,0,.3c0,0,0,0,0,0,0,0,0,.1,0,.2,0,.2,0,.5,0,.8,0,0,0,0,0,.1"/>
        <path class="st0" d="M298.8,28.4s0,0,0,0,0,0,0,0c0,0-.1,0-.2.1,0,0-.2,0-.3,0h0s0,0,0,0c0,0,0,.1,0,.1s0,0,0,0c0,0,0,.2,0,.3h0c0,.2,0,.3,0,.3,0,0,0,0,0,0,0,0-.1,0-.1,0,0,0,0-.2,0-.4s0-.1,0-.2c0,0,0,0,0,0,0,0,0-.1,0-.1,0,0,0,0-.1,0h0s0,0,0,0c0,0,0,0-.1,0,0,0,0,0-.1-.1h0s0,0,0,0c0,0,.1,0,.2,0s0,0,0,0c0,0,0,0,0,0,0,0,0,0,0,0,0,0,0-.2,0-.3s0-.1,0-.2c0-.2,0-.3.1-.4,0,0,0,0,.1,0h0s0,0,0,0c0,0,0,.1,0,.2s0,.2,0,.3c0,0,0,.1,0,.1,0,0,0,0,0,0h0c0,.1,0,.1,0,.1s0,0,0,0c0,0,.1,0,.2,0,0,0,0,0,0,0,0,0,.1,0,.1,0,0,0,0,0,.1,0"/>
        <path class="st0" d="M299.7,29.1c0,.1,0,.2,0,.3s0,.1,0,.1,0,0-.1,0c0,0,0-.1-.1-.3,0,0,0,0,0,0,0,0-.1.2-.2.2,0,0-.2.1-.3.1s-.1,0-.2,0c0,0,0-.1,0-.3s0-.3,0-.4c0-.2.1-.3.2-.3h0s0,0,0,0c0,0,0,0,0,.1,0,0,0,.2,0,.4,0,.1,0,.2,0,.2s0,0,0,0c0,0,0,0,0,0,0,0,.2-.1.2-.3,0,0,0-.2,0-.3,0,0,0-.1,0-.2,0,0,0,0,0,0,0,0,.1,0,.2.2,0,0,0,.2,0,.3,0,0,0,.1,0,.1,0,0,0,.1,0,.2"/>
        <path class="st0" d="M300.9,28.3s0,0,0,0,0,0,0,0c-.1,0-.3.2-.4.3-.1.1-.2.3-.2.5,0,.1,0,.2-.1.2s0,0,0,0c0,0-.1-.2-.2-.4,0-.1,0-.3,0-.4,0,0,0,0,0-.1,0,0,0,0,0,0s0,0,0,0c0,0,.1.2.1.3,0-.1,0-.2.2-.3.1-.1.2-.2.4-.2h0s0,0,.1,0"/>
        <path class="st0" d="M302.2,29.1c0,0,0,.1,0,.2,0,0,0,0,0,0,0,0,0,0-.1,0s0,0,0,0c0,0,0-.1-.1-.2,0,0,0-.2,0-.2,0,0,0,0,0,0,0,.1-.1.2-.2.3,0,0-.2.1-.3.2,0,0,0,0,0,0,0,0-.1,0-.2,0,0,0,0-.1,0-.2,0-.2.1-.4.3-.6.3-.2.5-.3.6-.3h0c0,0,0,0,.1.2,0,0,0,.1,0,.3,0,0,0,0,0,0,0,0,0,0,0,0,0,0,0,.2,0,.2,0,0,0,0,0,0M301.7,28.6s0,0,0,0c0,0,0,0,0,0,0,0-.1.1-.2.2,0,0,0,.2,0,.2,0,0,.2,0,.2-.2,0-.1.1-.2.1-.3"/>
        <path class="st0" d="M302.9,29.3c0,0,0,.1,0,.2,0,0,0,0,0,0s0,0-.1,0c0,0-.1-.2-.1-.6,0,0,0,0,0-.1,0-.1,0-.2,0-.4h0c0-.3,0-.6,0-.9h0s0,0,0,0c0,0,.1,0,.2,0s0,0,0,0c0,0,0,.2,0,.3s0,.2,0,.3c0,0,0,0,0,0,0,0,0,.1,0,.2,0,.2,0,.5,0,.8,0,0,0,0,0,.1"/>
        <path class="st0" d="M305.3,29.1c0,0,0,.1,0,.2s0,0,0,0c0,0,0,.1-.1.1s-.1,0-.3-.2c0,0,0,0,0,0,0,.1-.2.2-.4.3,0,0-.2,0-.3,0-.1,0-.2,0-.2,0,0,0,0,0,0,0,0-.2.1-.4.4-.6,0,0,0,0,0,0,.1,0,.2,0,.2-.1,0,0,0-.1,0-.2s0,0,0-.2c0,0,0-.1,0-.2s0,0,0,0h0s0,0,0,0c0-.1,0-.2,0-.3,0,0,0,0,.1,0s0,0,0,0c0,0,0,0,0,0,0,0,0,0,0,.1,0,0,0,.2,0,.4h0c0,0,0,.1,0,.2,0,0,0,0,0,0,0,.2,0,.3,0,.4,0,.1,0,.3.2.5M304.8,28.9c0,0-.1,0-.2,0,0,0-.1,0-.1.1,0,0,0,0,0,0,0,0,0,0,0,0h0c0,0,.1,0,.2,0,0,0,0-.1.1-.2"/>
        <path class="st0" d="M306.7,28.8c0,0,0,0,.1,0s0,0,0,0c0,.1,0,.2-.2.4-.1.1-.2.2-.4.3,0,0,0,0-.1,0-.2,0-.4-.1-.6-.3,0,0,0-.2,0-.3s0-.1,0-.2c0-.1.1-.2.3-.2,0,0,0,0,0,0,0,0,.1,0,.2,0,0,0,.1.1.2.2,0,0,0,0,0,.1,0,.1,0,.2-.2.3,0,0,0,0,0,0,0,0,0,0,0,0,0,0,0,0,0,0h0s0,0,0,0c0,0,.1,0,.2,0s0,0,0,0c0,0,.2,0,.3-.2.1-.1.2-.2.2-.2M305.9,28.9s0,0,.1,0c0,0,0,0,0-.1,0,0,0,0,0,0,0,0,0,0,0,0,0,0,0,0-.1,0,0,0,0,0,0,0,0,0,0,0,0,0,0,0,0,0,0,0,0,0,0,.2,0,.2"/>
        <path class="st0" d="M309.3,28.3c.2,0,.4.2.5.2,0,0,.1.1.1.2s0,0,0,0c0,.1-.1.2-.3.4-.2.1-.4.2-.6.2,0,0-.1,0-.2,0-.2,0-.3,0-.5-.1-.2-.1-.3-.3-.3-.4h0c0-.2,0-.3.2-.3,0,0,0,0,0,0s0,0,0,0c0,0,0,0,0,0,0,0,0,0,0,0,0,0,0,0,0,0,0,0,0,0,0,0h0c0,0,0,.1,0,.2.1,0,.3.1.4.1s0,0,.1,0c.2,0,.4-.1.6-.3,0,0,0,0,0,0s0,0,0,0c0,0,0,0-.2,0,0,0-.1,0-.3,0-.1,0-.3,0-.4-.1-.3-.1-.6-.2-.7-.3-.2-.1-.3-.2-.3-.4h0c0-.1.1-.2.3-.3.1,0,.3,0,.5,0,0,0,0,0,0,0,.1,0,.3,0,.4,0,.2,0,.2.1.2.2s0,0,0,0c0,0,0,0,0,.1,0,0,0,0,0,0s0,0,0,0c0,0,0,0-.1,0,0,0-.1,0-.2,0,0,0-.2,0-.2,0s-.1,0-.2,0c-.2,0-.3,0-.3,0,0,0,0,0,0,0,0,0,.1.2.4.2,0,0,.2,0,.4.1.2,0,.3,0,.4.1"/>
        <path class="st0" d="M311.1,29.1c0,0,0,.1,0,.2,0,0,0,0,0,0,0,0,0,0-.1,0s0,0,0,0c0,0,0-.1-.1-.2,0,0,0-.2,0-.2,0,0,0,0,0,0,0,.1-.1.2-.2.3,0,0-.2.1-.3.2,0,0,0,0,0,0,0,0-.1,0-.2,0,0,0,0-.1,0-.2,0-.2.1-.4.3-.6.3-.2.5-.3.6-.3h0c0,0,0,0,.1.2,0,0,0,.1,0,.3,0,0,0,0,0,0,0,0,0,0,0,0,0,0,0,.2,0,.2,0,0,0,0,0,0M310.5,28.6s0,0,0,0c0,0,0,0,0,0,0,0-.1.1-.2.2,0,0,0,.2,0,.2,0,0,.2,0,.2-.2,0-.1.1-.2.1-.3"/>
        <path class="st0" d="M312.3,29.2c0,0,0,.1,0,.2s0,0,0,0c0,0,0,0-.1,0s0,0,0,0c0,0-.1,0-.1-.2,0,0,0-.2,0-.4,0-.1,0-.2,0-.3-.1,0-.2.2-.2.3,0,0,0,.2,0,.3,0,0,0,.1,0,.2,0,0,0,.1-.1.1s0,0-.1,0c0,0,0,0,0-.2s0-.2,0-.3c0-.1,0-.2,0-.2,0,0,0-.1,0-.2,0,0,0,0,.1,0s0,0,0,0c0,0,0,0,0,0,0,0,0,0,0-.1,0,0,0,0,0-.1,0,0,0,0,0,0,0,0,0,0,.1,0s0,0,.1,0c0,.1.1.3.2.6,0,.1,0,.2,0,.2,0,0,0,0,0,0"/>
        <path class="st0" d="M313.7,28.4s0,0,0,0,0,0,0,0c0,0-.1,0-.2.1,0,0-.2,0-.3,0h0s0,0,0,0c0,0,0,.1,0,.1s0,0,0,0c0,0,0,.2,0,.3h0c0,.2,0,.3,0,.3,0,0,0,0,0,0,0,0-.1,0-.1,0,0,0,0-.2,0-.4s0-.1,0-.2c0,0,0,0,0,0,0,0,0-.1,0-.1,0,0,0,0-.1,0h0s0,0,0,0c0,0,0,0-.1,0,0,0,0,0-.1-.1h0s0,0,0,0c0,0,.1,0,.2,0s0,0,0,0c0,0,0,0,0,0,0,0,0,0,0,0,0,0,0-.2,0-.3s0-.1,0-.2c0-.2,0-.3.1-.4,0,0,0,0,.1,0h0s0,0,0,0c0,0,0,.1,0,.2s0,.2,0,.3c0,0,0,.1,0,.1,0,0,0,0,0,0h0c0,.1,0,.1,0,.1s0,0,0,0c0,0,.1,0,.2,0,0,0,0,0,0,0,0,0,.1,0,.1,0,0,0,0,0,.1,0"/>
        <path class="st0" d="M314.8,29.1c0,0,0,.1,0,.2,0,0,0,0,0,0,0,0,0,0-.1,0s0,0,0,0c0,0,0-.1-.1-.2,0,0,0-.2,0-.2,0,0,0,0,0,0,0,.1-.1.2-.2.3,0,0-.2.1-.3.2,0,0,0,0,0,0,0,0-.1,0-.2,0,0,0,0-.1,0-.2,0-.2.1-.4.3-.6.3-.2.5-.3.6-.3h0c0,0,0,0,.1.2,0,0,0,.1,0,.3,0,0,0,0,0,0,0,0,0,0,0,0,0,0,0,.2,0,.2,0,0,0,0,0,0M314.3,28.6s0,0,0,0c0,0,0,0,0,0,0,0-.1.1-.2.2,0,0,0,.2,0,.2,0,0,.2,0,.2-.2,0-.1.1-.2.1-.3"/>
        <path class="st0" d="M318.2,29c0,0,0,.2,0,.2s0,0,0,0c0,0,0,.1,0,.1s0,0,0,0c-.1,0-.2-.3-.3-.7,0,0,0-.3-.1-.5,0-.2,0-.3,0-.4,0,.3,0,.6-.2,1,0,.2-.1.4-.2.5,0,.1-.1.2-.2.2s0,0,0,0c-.1,0-.2-.3-.3-.7,0-.5-.1-.8-.2-.8,0,.1,0,.3-.1.7,0,.4,0,.6-.1.7,0,0,0,0,0,0s0,0,0,0c0,0,0-.1-.1-.2,0,0,0,0,0-.1,0-.1,0-.3,0-.6h0s.1-.5.1-.5c0-.2,0-.3,0-.3,0,0,0-.2.2-.2,0,0,0,0,0,0,0,0,0,0,.1,0,0,.1.2.3.2.6,0,0,0,.2,0,.4,0,.1,0,.2,0,.3,0,0,0-.3.1-.6,0-.3,0-.5.1-.6,0-.2,0-.2,0-.3,0,0,.1-.1.2-.1h0c0,0,.2.2.2.4,0,.3.2.7.4,1.3"/>
        <path class="st0" d="M319.6,29.1c0,0,0,.1,0,.2,0,0,0,0,0,0,0,0,0,0-.1,0s0,0,0,0c0,0,0-.1-.1-.2,0,0,0-.2,0-.2,0,0,0,0,0,0,0,.1-.1.2-.2.3,0,0-.2.1-.3.2,0,0,0,0,0,0,0,0-.1,0-.2,0,0,0,0-.1,0-.2,0-.2.1-.4.3-.6.3-.2.5-.3.6-.3h0c0,0,0,0,.1.2,0,0,0,.1,0,.3,0,0,0,0,0,0,0,0,0,0,0,0,0,0,0,.2,0,.2,0,0,0,0,0,0M319.1,28.6s0,0,0,0c0,0,0,0,0,0,0,0-.1.1-.2.2,0,0,0,.2,0,.2,0,0,.2,0,.2-.2,0-.1.1-.2.1-.3"/>
        <path class="st0" d="M320.8,28.3s0,0,0,0,0,0,0,0c-.1,0-.3.2-.4.3-.1.1-.2.3-.2.5,0,.1,0,.2-.1.2s0,0,0,0c0,0-.1-.2-.2-.4,0-.1,0-.3,0-.4,0,0,0,0,0-.1,0,0,0,0,0,0s0,0,0,0c0,0,.1.2.1.3,0-.1,0-.2.2-.3.1-.1.2-.2.4-.2h0s0,0,.1,0"/>
        <path class="st0" d="M322.1,28.4s0,0,0,0,0,0,0,0c0,0-.1,0-.2.1,0,0-.2,0-.3,0h0s0,0,0,0c0,0,0,.1,0,.1s0,0,0,0c0,0,0,.2,0,.3h0c0,.2,0,.3,0,.3,0,0,0,0,0,0,0,0-.1,0-.1,0,0,0,0-.2,0-.4s0-.1,0-.2c0,0,0,0,0,0,0,0,0-.1,0-.1,0,0,0,0-.1,0h0s0,0,0,0c0,0,0,0-.1,0,0,0,0,0-.1-.1h0s0,0,0,0c0,0,.1,0,.2,0s0,0,0,0c0,0,0,0,0,0,0,0,0,0,0,0,0,0,0-.2,0-.3s0-.1,0-.2c0-.2,0-.3.1-.4,0,0,0,0,.1,0h0s0,0,0,0c0,0,0,.1,0,.2s0,.2,0,.3c0,0,0,.1,0,.1,0,0,0,0,0,0h0c0,.1,0,.1,0,.1s0,0,0,0c0,0,.1,0,.2,0,0,0,0,0,0,0,0,0,.1,0,.1,0,0,0,0,0,.1,0"/>
        <path class="st0" d="M323.2,29.1c0,0,0,.1,0,.2,0,0,0,0,0,0,0,0,0,0-.1,0s0,0,0,0c0,0,0-.1-.1-.2,0,0,0-.2,0-.2,0,0,0,0,0,0,0,.1-.1.2-.2.3,0,0-.2.1-.3.2,0,0,0,0,0,0,0,0-.1,0-.2,0,0,0,0-.1,0-.2,0-.2.1-.4.3-.6.3-.2.5-.3.6-.3h0c0,0,0,0,.1.2,0,0,0,.1,0,.3,0,0,0,0,0,0,0,0,0,0,0,0,0,0,0,.2,0,.2,0,0,0,0,0,0M322.7,28.6s0,0,0,0c0,0,0,0,0,0,0,0-.1.1-.2.2,0,0,0,.2,0,.2,0,0,.2,0,.2-.2,0-.1.1-.2.1-.3"/>
      </g>
    </g>
    <g>
      <path class="st0" d="M205,16.2c.1.4.2.8.4,1.2,1.8,5.1,8.5,6.8,12.5,3.1,2.5-2.4,5-4.9,7.4-7.4.7-.7,1.9-.8,2.6-.1.8.6.9,1.8.4,2.6,0,.1-.2.3-.3.4-3.9,3.9-7.9,7.8-11.8,11.8-.2.2-.4.3-.7.3-2.4-.2-4.9-.3-7.3-.7-.4,0-.7,0-1.1-.2-1.4-.3-2.1-1.4-2.1-3,0-2.7,0-5.3,0-8h0Z"/>
      <path class="st0" d="M234.2,12.5c-.6-2.1-1.8-3.7-3.7-4.8-3-1.7-6.8-1.2-9.3,1.3-2.4,2.3-4.7,4.7-7.1,7.1-1,1-2.5.8-3.2-.3-.5-.8-.3-1.8.3-2.4,2.1-2.1,4.2-4.2,6.4-6.4,1.6-1.6,3.1-3.1,4.7-4.7.2-.2.4-.2.6-.2,2.7.1,5.4.3,8,.7.3,0,.5,0,.8.1,1.4.2,2.4,1.2,2.4,2.6,0,2.3,0,4.5,0,6.8,0,0,0,0,0,.2Z"/>
      <path class="st0" d="M205,13.3c0-2.6,0-5.1,0-7.6,0-1.6,1-2.7,2.6-2.9,2.1-.3,4.3-.5,6.4-.7,0,0,0,0,.1,0,0,.2-.2.3-.3.4-2.2,2.2-4.3,4.4-6.5,6.5-1.1,1.1-1.8,2.4-2.2,3.8,0,0,0,.2-.2.4Z"/>
      <path class="st0" d="M224.3,28.1c0-.2.2-.3.3-.4,2.2-2.2,4.4-4.4,6.6-6.6,1.3-1.3,2.5-2.5,3-4.4v.5c0,2.4,0,4.7,0,7.1,0,1.5-1,2.8-2.5,3-2.5.3-5,.6-7.5.7ZM231.7,26.3c.9,0,1.6-.7,1.6-1.6,0-.9-.7-1.6-1.6-1.6-.9,0-1.6.7-1.6,1.6,0,.9.7,1.6,1.6,1.6Z"/>
      <path class="st0" d="M231.7,26.3c-.9,0-1.6-.7-1.6-1.6,0-.9.7-1.6,1.6-1.6.9,0,1.6.8,1.6,1.6,0,.9-.7,1.6-1.6,1.6Z"/>
      <g>
        <path class="st0" d="M199.9,33.4c0,.1-.1.2-.3.3-.1,0-.2.2-.4.2-.2,0-.3,0-.5,0s-.5,0-.8-.1c-.2,0-.5-.2-.7-.4l.4-.5c.2.1.3.2.5.3.2,0,.3.1.5.1s.3,0,.4,0c0,0,.1-.1.1-.2h0c0,0,0-.1,0-.1,0,0,0,0-.1-.1s-.1,0-.2,0c0,0-.2,0-.3-.1-.2,0-.3,0-.5-.1-.1,0-.3-.1-.4-.2,0,0-.2-.2-.2-.3,0-.1,0-.3,0-.4h0c0-.2,0-.3,0-.4,0-.1.1-.2.2-.3.1,0,.2-.2.4-.2.1,0,.3,0,.5,0,.2,0,.5,0,.7.1.2,0,.4.2.6.3l-.4.6c-.2-.1-.3-.2-.4-.2-.1,0-.3,0-.4,0s-.3,0-.3,0c0,0-.1.1-.1.2h0c0,0,0,.1,0,.2,0,0,0,0,.1.1,0,0,.1,0,.2,0s.2,0,.4.1c.2,0,.3,0,.5.2.1,0,.2.1.3.2,0,0,.2.2.2.3,0,.1,0,.2,0,.4h0c0,.2,0,.3,0,.5Z"/>
        <path class="st0" d="M200.7,33.9v-3.4h2.6v.7h-1.8v.7h1.6v.7h-1.6v.7h1.8v.7h-2.6Z"/>
        <path class="st0" d="M206.5,33.8c-.2.1-.5.2-.8.2s-.5,0-.7-.1c-.2,0-.4-.2-.6-.4-.2-.2-.3-.3-.4-.6,0-.2-.1-.4-.1-.7h0c0-.3,0-.5.1-.7,0-.2.2-.4.4-.6.2-.2.3-.3.6-.4.2,0,.5-.1.7-.1s.3,0,.4,0c.1,0,.2,0,.3,0,.1,0,.2,0,.3.1,0,0,.2.1.3.2l-.5.6c0,0-.1-.1-.2-.1,0,0-.1,0-.2-.1,0,0-.1,0-.2,0,0,0-.2,0-.3,0s-.3,0-.4,0c-.1,0-.2.1-.3.2,0,0-.2.2-.2.3,0,.1,0,.3,0,.4h0c0,.2,0,.3,0,.4,0,.1.1.2.2.3,0,0,.2.2.3.2.1,0,.3,0,.4,0,.3,0,.5,0,.7-.2v-.5h-.8v-.6h1.5v1.5c-.2.1-.4.3-.6.4Z"/>
        <path class="st0" d="M210.6,33.1c0,.2-.2.3-.3.5-.1.1-.3.2-.5.3s-.4,0-.6,0c-.5,0-.8-.1-1.1-.4-.3-.3-.4-.6-.4-1.1v-1.9h.7v1.9c0,.3,0,.5.2.6.1.1.3.2.5.2s.4,0,.5-.2c.1-.1.2-.3.2-.6v-1.9h.7v1.9c0,.3,0,.5-.1.7Z"/>
        <path class="st0" d="M211.6,33.9v-3.4h.7v3.4h-.7Z"/>
        <path class="st0" d="M215.8,33.9v-2.2l-1,1.4h0l-.9-1.4v2.2h-.7v-3.4h.8l.9,1.4.9-1.4h.8v3.4h-.7Z"/>
        <path class="st0" d="M217.5,33.9v-3.4h.7v3.4h-.7Z"/>
        <path class="st0" d="M219.1,33.9v-3.4h2.6v.7h-1.8v.7h1.6v.7h-1.6v.7h1.8v.7h-2.6Z"/>
        <path class="st0" d="M224.8,33.9l-1.6-2.2v2.2h-.7v-3.4h.7l1.6,2.1v-2.1h.7v3.4h-.6Z"/>
        <path class="st0" d="M227.8,31.2v2.7h-.7v-2.7h-1v-.7h2.8v.7h-1Z"/>
        <path class="st0" d="M232.7,32.9c0,.2-.2.4-.4.6s-.4.3-.6.4c-.2,0-.5.1-.7.1s-.5,0-.7-.1c-.2,0-.4-.2-.6-.4-.2-.2-.3-.3-.4-.6,0-.2-.1-.4-.1-.7h0c0-.3,0-.5.1-.7,0-.2.2-.4.4-.6s.4-.3.6-.4.5-.1.7-.1.5,0,.7.1c.2,0,.4.2.6.4.2.2.3.3.4.6,0,.2.1.4.1.7h0c0,.3,0,.5-.1.7ZM232.1,32.2c0-.1,0-.3,0-.4,0-.1-.1-.2-.2-.3,0,0-.2-.2-.3-.2-.1,0-.3,0-.4,0s-.3,0-.4,0c-.1,0-.2.1-.3.2,0,0-.2.2-.2.3,0,.1,0,.3,0,.4h0c0,.2,0,.3,0,.4,0,.1.1.2.2.3,0,0,.2.2.3.2s.3,0,.4,0,.3,0,.4,0c.1,0,.2-.1.3-.2,0,0,.2-.2.2-.3,0-.1,0-.3,0-.4h0Z"/>
        <path class="st0" d="M233.5,33.9v-.8h.8v.8h-.8Z"/>
        <path class="st0" d="M237.7,33.6c0,0-.2.1-.3.2-.1,0-.2,0-.4.1-.1,0-.3,0-.4,0-.2,0-.5,0-.7-.1-.2,0-.4-.2-.6-.4-.2-.2-.3-.3-.4-.6,0-.2-.1-.4-.1-.7h0c0-.3,0-.5.1-.7,0-.2.2-.4.4-.6.2-.2.3-.3.6-.4.2,0,.5-.1.7-.1s.3,0,.4,0c.1,0,.2,0,.4.1.1,0,.2.1.3.2,0,0,.2.1.3.2l-.5.5c-.1-.1-.3-.2-.4-.3-.1,0-.3-.1-.5-.1s-.3,0-.4,0c-.1,0-.2.1-.3.2,0,0-.2.2-.2.3,0,.1,0,.3,0,.4h0c0,.2,0,.3,0,.4,0,.1.1.2.2.3,0,0,.2.2.3.2.1,0,.3,0,.4,0s.4,0,.5-.1c.1,0,.3-.2.4-.3l.5.5c0,0-.2.2-.3.3Z"/>
        <path class="st0" d="M241.9,32.9c0,.2-.2.4-.4.6s-.4.3-.6.4c-.2,0-.5.1-.7.1s-.5,0-.7-.1c-.2,0-.4-.2-.6-.4-.2-.2-.3-.3-.4-.6,0-.2-.1-.4-.1-.7h0c0-.3,0-.5.1-.7,0-.2.2-.4.4-.6s.4-.3.6-.4.5-.1.7-.1.5,0,.7.1c.2,0,.4.2.6.4.2.2.3.3.4.6,0,.2.1.4.1.7h0c0,.3,0,.5-.1.7ZM241.3,32.2c0-.1,0-.3,0-.4,0-.1-.1-.2-.2-.3,0,0-.2-.2-.3-.2-.1,0-.3,0-.4,0s-.3,0-.4,0c-.1,0-.2.1-.3.2,0,0-.2.2-.2.3,0,.1,0,.3,0,.4h0c0,.2,0,.3,0,.4,0,.1.1.2.2.3,0,0,.2.2.3.2s.3,0,.4,0,.3,0,.4,0c.1,0,.2-.1.3-.2,0,0,.2-.2.2-.3,0-.1,0-.3,0-.4h0Z"/>
      </g>
    </g>
    <g>
      <g>
        <path class="st0" d="M9.7,22.9h-5.2v-12.3h5.1v1.8h-2.9v3.1h2.2v1.8h-2.2v3.7h3.1v1.8Z"/>
        <path class="st0" d="M15.3,22.9h-4.7v-12.3h2.2v10.5h2.6v1.8Z"/>
        <path class="st0" d="M20.1,22.9h-2.2v-12.3h2.2v12.3Z"/>
        <path class="st0" d="M27.1,22.9h-1.6l-1.3-3.8c-.4-1.2-.9-2.9-1.2-3.9,0,.9,0,2.6,0,3.7v4h-2v-12.3h2l1.1,3c.3,1,.9,2.6,1.1,3.5,0-.8,0-2.5,0-3.4v-3.1h2v12.3Z"/>
        <path class="st0" d="M33.1,12.4h-3v3.1h2.2v1.8h-2.2v5.6h-2.2v-12.3h5.1v1.8Z"/>
        <path class="st0" d="M39.8,16.7c0,4.3-.8,6.4-3.2,6.4s-3.1-2.1-3.1-6.3.8-6.4,3.2-6.4,3.2,2.1,3.2,6.3ZM37.5,16.7c0-3.8-.3-4.6-.9-4.6s-.9.8-.9,4.5.3,4.6.9,4.6.9-.8.9-4.5Z"/>
        <path class="st0" d="M46.7,22.9h-2.2l-1.1-5.4h-.5v5.4h-2.1v-12.3h2.8c1.7,0,3.1.8,3.1,3.4s-.4,2.4-1.2,2.9l1.3,6ZM44.3,14c0-1.4-.3-1.8-1-1.8h-.5v3.6h.4c.7,0,1.1-.5,1.1-1.8Z"/>
        <path class="st0" d="M51.3,17.7c.1-1,.1-2.3.4-3.4l.9-3.7h2.3s0,12.3,0,12.3h-1.9s0-3.2,0-3.2c0-1.4,0-3.1,0-4.3-.2.9-.8,5.9-1.1,7.5h-1.3c-.3-1.6-.9-6.6-1.1-7.5,0,1.2,0,2.8,0,4.3v3.2h-1.9v-12.3h2.3l.9,3.7c.3,1.1.3,2.4.4,3.4h.1Z"/>
        <path class="st0" d="M62.4,22.9h-2.2l-.4-2.7h-1.6l-.3,2.7h-2.1l2.1-12.3h2.3l2.1,12.3ZM59.6,18.4l-.3-2.3c-.1-.9-.3-1.9-.3-2.9,0,1-.2,2-.3,2.9l-.3,2.2h1.2Z"/>
        <path class="st0" d="M69.3,16.6c0,4.2-1.1,6.2-3.6,6.2h-2.5v-12.3h2.7c2.6,0,3.3,2.3,3.3,6.1ZM67.1,16.6c0-3.6-.4-4.4-1.3-4.4h-.4v8.9h.3c.9,0,1.3-.8,1.3-4.5Z"/>
        <path class="st0" d="M76.5,16.7c0,4.3-.8,6.4-3.2,6.4s-3.1-2.1-3.1-6.3.8-6.4,3.2-6.4,3.2,2.1,3.2,6.3ZM74.3,16.7c0-3.8-.3-4.6-.9-4.6s-.9.8-.9,4.5.3,4.6.9,4.6.9-.8.9-4.5Z"/>
        <path class="st0" d="M83.4,22.9h-2.2l-1.1-5.4h-.5v5.4h-2.1v-12.3h2.8c1.7,0,3.1.8,3.1,3.4s-.4,2.4-1.2,2.9l1.3,6ZM81.1,14c0-1.4-.3-1.8-1-1.8h-.5v3.6h.4c.7,0,1.1-.5,1.1-1.8Z"/>
      </g>
      <rect class="st0" x="4.5" y="23.8" width="79.7" height="1.8"/>
    </g>
    <g>
      <path class="st0" d="M118.4,21.5v2.5h-1.3v-8.2h1.3s0,.7,0,.7c1.1-1.4,3-1.2,3.7.5,1.2,2.7-.6,6.9-3.8,4.5ZM119.4,16.5c-1.2.3-1.1,2.6-1,3.5.2,1.8,2,2.3,2.6.5.5-1.3.5-4.5-1.6-4Z"/>
      <path class="st0" d="M132,22.1h-1.3v-4.9c0-.1-.4-.6-.6-.6-.5-.1-1.3,0-1.6.3s-.4.5-.4.6v4.7h-1.3v-6.3h1.2s0,.7,0,.7h.2c.5-1.1,2.5-1.1,3.3-.4s.5.8.5.9v5.1Z"/>
      <path class="st0" d="M143.3,15.9h1.3s0,.7,0,.7c.8-1.4,3.6-1.3,3.8.5.2,1.6-.2,3.5.1,5.1h-1.3s0-4.7,0-4.7c0,0-.2-.5-.3-.6-.3-.4-1.3-.4-1.7-.2s-.8.8-.8,1v4.5h-1.3v-6.3Z"/>
      <path class="st0" d="M138.8,15.7c4.2-.5,4.4,6.3.6,6.6s-4.3-6.2-.6-6.6ZM138.9,16.2c-1.4.2-1.4,2.5-1.3,3.6.2,2.2,2.5,2.8,3.1.4s.2-4.3-1.8-4Z"/>
      <rect class="st0" x="121.3" y="18.3" width="6.3" height="1.4" transform="translate(105.5 143.5) rotate(-90)"/>
      <rect class="st0" x="131.1" y="18.3" width="6.3" height="1.4" transform="translate(115.2 153.2) rotate(-90)"/>
      <path class="st0" d="M140.3,13.2l-1.1,1.8h-.6c0,0,.6-1.6.7-1.7.2-.2.7,0,1-.1Z"/>
      <path class="st0" d="M134,14.1c1-.2,1.4,1.1.3,1.1-1.1,0-1.1-1-.3-1.1Z"/>
      <path class="st0" d="M124.3,14.1c1.5-.3,1.1,1.8-.4,1-.3-.4,0-.9.4-1Z"/>
      <path class="st0" d="M185.1,18.6h0c0,.1-4.4.1-4.4.1-.3,2.6,1.8,3.8,3.9,2.3l.2.7c-2.8,1.2-5.6.4-5.4-3.1s3.8-4.2,5.3-1.4l.3,1.4ZM183.7,18.2c0-2.6-2.9-2.5-3,0h3Z"/>
      <path class="st0" d="M159.1,11.7v1.6c-.4-.1-.6-.4-.9-.6-.8-.4-2-.6-2.9-.1-3.4,1.7-2.4,11.1,2.6,8.7.2,0,1.1-.8,1.2-.8,0,.5.2,1.2-.2,1.5-1.6.9-4.1.9-5.7,0-2.5-1.5-2.7-5.9-1.3-8.2,1.5-2.6,4.6-2.8,7.3-2Z"/>
      <path class="st0" d="M174.3,13.4v3.1c1.5-1.6,3.6-1,4,1.1s-1.3,6-4.3,3.7c-.2.5-.3.9-1,.7v-8.7h1.3ZM176.5,21.3c1.2-1.2.6-6.5-1.7-4.5-.7.6-.7,2.6-.6,3.5s1.4,1.8,2.3,1Z"/>
      <path class="st0" d="M164.6,21.3c0,.2.6.2.7,0,.2,1.3-1.7,1.2-1.9.1-.9.7-2.1,1.3-3.1.5s-.7-1.7-.3-2.4c.6-1.2,2.7-1,3.2-1.7s-.2-1.4-1-1.5-1.2.4-1.7.6c0-.3-.2-.6,0-.8,1-.5,2.8-.7,3.7,0s.4.6.4.7v4.4ZM163.3,18.4c-1,.5-2.4.5-2.4,1.9s1.1,1.4,1.9.8.5-.6.5-.7v-2Z"/>
      <path class="st0" d="M166.3,16s-.2-.1-.1-.2h1.3s0,.6,0,.6c.3-.6.9-.8,1.5-.8v.9c-1.3.2-1.5.7-1.6,1.9s0,2.6.1,3.7h-1.3s0-6.1,0-6.1Z"/>
      <rect class="st0" x="170.1" y="15.9" width="1.3" height="6.3"/>
      <path class="st0" d="M171.4,14.3c.7.8-1.2,1.3-1.4.5s1-1,1.4-.5Z"/>
      <path class="st0" d="M115.7,9.2v17.5h-12.6V9.2h12.6ZM108.4,11.5c-6,.7-6.1,11.2-.3,12.4,3.7.8,6.6-1.5,6.9-5.3s-1.9-7.7-6.6-7.2Z"/>
      <path class="st0" d="M109,12.5c4.6-.8,4.6,9,1.5,10.3-4.8,1.9-5.3-9.6-1.5-10.3Z"/>
    </g>
  </g>
</svg>