<?xml version="1.0" encoding="UTF-8"?>
<svg id="Layer_1" xmlns="http://www.w3.org/2000/svg" version="1.1" viewBox="0 0 336 31.6">
  <!-- Generator: Adobe Illustrator 30.2.1, SVG Export Plug-In . SVG Version: 2.1.1 Build 1)  -->
  <defs>
    <style>
      .st0 {
        fill: #231f20;
      }

      .st1 {
        fill: #fafafa;
      }
    </style>
  </defs>
  <rect class="st1" x="-27" y="-266.7" width="390" height="844"/>
  <g>
    <g>
      <path class="st0" d="M112.4,9.6c-.8-1.1-1.9-1.9-3.1-2.5-.5-.3-1.1-.4-1.6-.6-.5,0-.9.3-.9.8v4.5c-1.8,1.1-3.9,1.7-6.1,1.7l-2.4-2c-.2-.2-.6-.2-.9,0-.2,0-.4.3-.4.6-.4,1.3-.5,2.6-.5,4l1.6.4c0-.8,0-1.5.1-2.3,0-.2.4-.3.6-.2l1.3,1.1c2.7.2,5.4-.5,7.7-2,.2-.2.5-.4.5-.6v-3.3c0-.1.1-.3.2-.3,0,0,.3,0,.4,0,1,.6,1.8,1.3,2.4,2.2.2.2.4.4.7.3,4.5-.8,9,1.2,11.5,5.1.6,0,1.1-.2,1.6-.4-2.6-4.6-7.6-7.1-12.8-6.4"/>
      <path class="st0" d="M100,9.1c2.8-4.3,7.5-6.5,12.4-6,3.8.4,7.2,2.6,9.3,5.9l1.8.7c0,0,.2,0,.3,0v-.2c-.4-.8-.9-1.6-1.4-2.4-1.6-2-3.6-3.6-6-4.5-6-2.5-12.9-.6-16.9,4.6-.5.8-1,1.5-1.5,2.4v.2c0,.1,1.3-.4,2-.6"/>
      <path class="st0" d="M119.9,18.5c-1.9-.8-4-.9-5.9,0-1.9.9-4.1,1-6,0-2-.9-4.2-.9-6.2,0-1.6.7-3.3.7-5,.3l.5,1.7c1.6.4,3.2.2,4.7-.4,1.8-.8,3.9-.9,5.7,0,2.1,1,4.3,1,6.4,0,1.8-.8,3.9-.7,5.8,0,1.5.7,3,.8,4.7.5l.5-1.7c-1.8.5-3.5.4-5.1-.3"/>
      <path class="st0" d="M119.8,22.5c-2-.9-4.1-.9-6.1,0-1.9.8-4,.8-5.8,0-2-.9-4.2-.9-6.2,0-1.1.5-2.1.6-3.3.6.3.6.7,1.1,1.1,1.6.9,0,1.8-.3,2.6-.7,1.4-.6,2.9-.8,4.3-.4.5.1.9.2,1.3.4,2,.9,4.2.9,6.3,0,1.2-.5,3-.9,4.1-.5l1.3.4c.9.4,1.8.7,2.8.8.4-.5.7-1,1.1-1.6-1.2,0-2.4-.1-3.5-.6"/>
      <path class="st0" d="M113.9,26.5c-1.9.9-4.1.9-6,0-2.1-.9-4.4-.8-6.5.3l1.3,1c1.7-.5,3.5-.4,5.2.3,1.9.9,4,.9,6,0,1.7-.7,3.4-.8,5.2-.3l1.3-1c-2-1.1-4.4-1.2-6.5-.3"/>
      <path class="st0" d="M143.7,17.9c-1.3,0-1.9.5-2,1.4h1.2c.1-.3.3-.4.7-.4s.7.2.7.4c0,.4-.6.3-1.4.5-.9.2-1.3.7-1.3,1.6s.6,1.5,1.7,1.5.8,0,1.1-.3v.3h1.2v-3.7c0-.7-.6-1.2-1.9-1.2M143.5,21.8c-.4,0-.7-.1-.7-.5s.2-.5.5-.5c.3,0,1.1-.3,1.1-.3,0,.6-.1,1.3-.9,1.3"/>
      <path class="st0" d="M157.7,17.9c-1.3,0-1.9.5-2,1.4h1.2c.1-.3.3-.4.7-.4s.7.2.7.4c0,.4-.6.3-1.4.5-.9.2-1.3.7-1.3,1.6s.6,1.5,1.7,1.5.8,0,1.1-.3v.3h1.2v-3.7c0-.7-.6-1.2-1.9-1.2M157.5,21.8c-.4,0-.7-.1-.7-.5s.2-.5.5-.5c.3,0,1.1-.3,1.1-.3,0,.6-.1,1.3-.9,1.3"/>
      <path class="st0" d="M172.3,17.9c-1.3,0-1.9.5-2,1.4h1.2c.1-.3.3-.4.7-.4s.7.2.7.4c0,.4-.6.3-1.4.5-.9.2-1.3.7-1.3,1.6s.6,1.5,1.7,1.5.8,0,1.1-.3v.3h1.2v-3.7c0-.7-.6-1.2-1.9-1.2M172,21.8c-.4,0-.7-.1-.7-.5s.2-.5.5-.5c.3,0,1.1-.3,1.1-.3,0,.6-.1,1.3-.9,1.3"/>
      <path class="st0" d="M167.5,17.9c-1.3,0-2.1.7-2.1,1.7v3.2h1.4v-3.2c0-.4.3-.6.7-.6s.7.2.7.6v2.6c0,.3.3.6.6.6h.8v-3.1c0-.9-.8-1.8-2.1-1.8"/>
      <path class="st0" d="M164.2,18.1h-.8v4.7h1.4v-4.1c0-.3-.3-.6-.6-.6"/>
      <path class="st0" d="M153,16.7l-1.1,4.4-1.1-4.4h-1.3c-.3,0-.6.3-.6.6v5.5h1.3v-4.4l1.1,4.4h1.4l1.1-4.4v4.4h1.3v-6.1h-1.9Z"/>
      <path class="st0" d="M164.2,16.7h-.8v1.1h1.4v-.5c0-.3-.3-.6-.6-.6"/>
      <path class="st0" d="M135.5,18.1h-.8v4.7h1.4v-4.1c0-.3-.3-.6-.6-.6"/>
      <path class="st0" d="M135.5,16.7h-.8v1.1h1.4v-.5c0-.3-.3-.6-.6-.6"/>
      <path class="st0" d="M161.5,18.2c0-.3-.3-.5-.6-.5h-.8v5h1.4v-2.6c0-.8.7-.9,1.4-.8v-1.3c-.3,0-1,0-1.4.2"/>
      <path class="st0" d="M149.8,10.7v-1.3c-.3,0-1,0-1.4.2,0-.3-.3-.5-.6-.5h-.8v5h1.4v-2.5c0-.6.3-.9.9-.9h.5Z"/>
      <path class="st0" d="M140.5,16.7h-.8v1.8c-.3-.3-.7-.6-1.3-.6-1.2,0-1.9,1.2-1.9,2.5s.7,2.5,2.1,2.5.9-.2,1.2-.3v.3h1.2v-5.5c0-.3-.3-.6-.6-.6M138.8,21.7c-.7,0-.9-.6-.9-1.4s.3-1.3.9-1.3.9.5.9,1.3-.3,1.3-.9,1.3"/>
      <path class="st0" d="M161.1,8.6c0-.3-.3-.6-.6-.6h-.8v1.8c-.3-.3-.7-.6-1.3-.6-1.2,0-1.9,1.2-1.9,2.5s.7,2.5,2.1,2.5.9-.2,1.2-.3v.3h1.2v-5.5ZM158.8,13.1c-.7,0-.9-.6-.9-1.4s.3-1.3.9-1.3.9.5.9,1.3-.3,1.3-.9,1.3"/>
      <path class="st0" d="M140.9,11c0-.4.3-.6.7-.6s.7.2.7.6v2.6c0,.3.3.6.6.6h.8v-3.1c0-.9-.8-1.8-2.1-1.8s-2.1.7-2.1,1.7v3.2h1.4v-3.2Z"/>
      <path class="st0" d="M152.5,14.2c1.5,0,2.2-1.2,2.2-2.5s-.8-2.5-2.2-2.5-2.3,1.2-2.3,2.5.8,2.5,2.3,2.5M152.4,10.3c.6,0,.9.5.9,1.4s-.3,1.3-.9,1.3-.9-.5-.9-1.4.3-1.3.9-1.3"/>
      <path class="st0" d="M136.8,14.2c1.1,0,1.9-.6,2.1-1.6h-1.3c-.1.3-.4.5-.8.5-.6,0-.9-.4-.9-1h3c0-.1,0-.3,0-.4,0-1.5-.8-2.5-2.2-2.5s-2.3,1.2-2.3,2.5.8,2.5,2.3,2.5M136.7,10.3c.5,0,.8.3.8.8h-1.6c0-.5.4-.8.8-.8"/>
      <path class="st0" d="M164.6,12.5c-.1.3-.4.5-.8.5-.6,0-.9-.4-.9-1h3c0-.1,0-.3,0-.4,0-1.5-.8-2.5-2.2-2.5s-2.3,1.2-2.3,2.5.8,2.5,2.3,2.5,1.9-.6,2.1-1.6h-1.3ZM163.8,10.3c.5,0,.8.3.8.8h-1.6c0-.5.4-.8.8-.8"/>
      <path class="st0" d="M132.5,17.1l-1.1,3.9-1.2-4.3h-1.5l2.1,6.1h1.3l2.1-6.1h-1c-.3,0-.5.2-.6.5"/>
      <path class="st0" d="M131.2,14.2c1.9,0,2.7-1.1,2.7-2.3h-1.3c-.1.8-.7,1.1-1.3,1.1s-1.5-.5-1.5-2,.7-2,1.5-2,1,.2,1.2.7c0,.2.3.3.5.3h.9c0-1.2-.9-2.3-2.7-2.3s-2.9.7-2.9,3.2,1.3,3.2,2.9,3.2"/>
      <path class="st0" d="M145.8,8.6c0-.3-.3-.6-.6-.6h-.8v5.4c0,.4.3.7.7.7h1.3v-1h-.7v-2.8h.2c.3,0,.5-.2.5-.5v-.4h-.7v-.8Z"/>
    </g>
    <g>
      <path class="st0" d="M290.5,19.9h1.2c0-.2,0-.3,0-.4,0-1,0-2,0-3,0-.6,0-.6.6-.6.2,0,.4,0,.6,0,.4,0,.5.1.5.5,0,.7,0,1.4,0,2.1,0,1.9,0,3.7,0,5.6,0,.7,0,1.4,0,2.1,0,.4,0,.8,0,1.2,0,.4-.1.5-.5.5-.3,0-.5,0-.8,0-.3,0-.4,0-.4-.4,0-1.9,0-3.7,0-5.6,0,0,0-.1,0-.2-.4-.1-.8,0-1.3,0,0,.2,0,.3,0,.4,0,1.5,0,2.9,0,4.4,0,.4,0,.7,0,1.1,0,.3,0,.3-.3.4-.4,0-.7,0-1.1,0-.3,0-.3,0-.3-.4,0-.5,0-1,0-1.5,0-2.4,0-4.8,0-7.3,0-.8,0-1.6,0-2.4,0-.4,0-.5.4-.5.3,0,.6,0,.9,0,.3,0,.4.1.4.4,0,1,0,2,0,3,0,.1,0,.3,0,.5"/>
      <path class="st0" d="M297.1,26.3c.1,0,.3,0,.4,0,.3,0,.6,0,.8,0s.4,0,.5.4c0,.3,0,.6,0,.8,0,.3-.1.4-.4.4-.9,0-1.8,0-2.7,0,0,0-.2,0-.2,0,0,0,0-.1-.1-.2,0-.1,0-.3,0-.4,0-1.4,0-2.8,0-4.3,0-2.1,0-4.3,0-6.4,0-.6,0-.6.6-.7.9,0,1.8,0,2.6,0,.3,0,.4,0,.4.4,0,.3,0,.6,0,.9,0,.3,0,.4-.4.4-.5,0-1,0-1.5,0,0,.7,0,1.4,0,2.1h1.1c.1,0,.2,0,.4,0,.3,0,.4,0,.4.4,0,.3,0,.6,0,.9,0,.4,0,.4-.4.4-.4,0-.8,0-1.2,0-.2,0-.3,0-.3.3,0,1.4,0,2.8,0,4.2,0,0,0,.1,0,.2"/>
      <path class="st0" d="M304.9,27.5c0,0,0,.2,0,.3,0,0-.1.1-.2.1-.3,0-.6,0-.8,0-.7,0-.7,0-.9-.6-.3-.9-.5-1.9-.8-2.8,0-.1,0-.2-.1-.3,0,.1,0,.2,0,.3,0,1,0,1.9,0,2.9,0,0,0,.2,0,.3,0,.2-.2.3-.4.3-.4,0-.8,0-1.2,0-.2,0-.2-.2-.2-.4,0-.5,0-1,0-1.5,0-1.7,0-3.5,0-5.2,0-1.4,0-2.9,0-4.3,0-.6,0-.6.6-.6.6,0,1.1,0,1.7.1,1,.2,1.7.8,2,1.8.2.7.2,1.4.1,2.1,0,.6-.4,1.2-.9,1.7,0,0-.1.1-.2.2-.2.1-.2.3-.2.5.5,1.6.9,3.3,1.4,4.9,0,0,0,0,0,.1M302.2,17.8c0,.8,0,1.7,0,2.5,0,0,0,0,0,.1.6-.2,1-.7.9-1.4,0-.9-.3-1.2-.9-1.3"/>
      <path class="st0" d="M309,26.6h-1.1c0,.3,0,.6,0,1,0,.2,0,.3-.3.3-.4,0-.8,0-1.2,0,0,0-.1,0-.2,0s0-.1,0-.2c0-.1,0-.3,0-.4.1-1.1.3-2.3.4-3.4.2-1.7.4-3.4.6-5.1,0-.7.2-1.4.3-2.1,0-.5.1-.5.6-.5.4,0,.8,0,1.3,0,.3,0,.4,0,.4.4,0,.6.2,1.1.2,1.7.2,1.7.4,3.4.6,5.1.2,1.4.3,2.9.5,4.3,0,.3,0,.4-.3.4-.4,0-.8,0-1.2,0-.2,0-.3-.1-.3-.3,0-.2,0-.4,0-.6,0-.1,0-.3,0-.5M308.8,24.8c-.2-.9,0-1.7-.3-2.5-.2.8-.3,1.7-.4,2.5h.7Z"/>
      <path class="st0" d="M313.6,15.9c.2,0,.3.1.3.3,0,.2,0,.4,0,.6,0,1.6,0,3.1,0,4.7,0,1.5,0,3,0,4.5,0,0,0,.1,0,.2.4,0,.8,0,1.2,0,.4,0,.5,0,.5.5,0,.3,0,.6,0,.8,0,.3,0,.4-.4.4-.5,0-1.1,0-1.6,0-.4,0-.8,0-1.2,0-.3,0-.3,0-.4-.3,0-.9,0-1.8,0-2.6,0-2.5,0-5,0-7.5,0-.4,0-.8,0-1.2,0-.4,0-.4.4-.5.3,0,.6,0,1,0"/>
      <path class="st0" d="M317.4,22.5c0-1.6,0-3,0-4.4,0-.5,0-1.1,0-1.6,0-.4,0-.4.5-.5.7,0,1.5,0,2.1.4.6.3,1.1.8,1.4,1.3.4.6.6,1.4.6,2.1,0,1.4,0,2.8,0,4.2,0,1.1-.5,2.1-1.1,3-.4.5-1,.8-1.6.8-.5,0-.9,0-1.4,0-.4,0-.4,0-.4-.4,0-1,0-2.1,0-3.1,0-.7,0-1.4,0-1.9M319.2,18.1c0,1.3,0,2.6,0,3.9,0,1.3,0,2.6,0,3.9.3,0,.4-.1.5-.3.3-.4.4-.9.5-1.3,0-1.1,0-2.2,0-3.3,0-.6,0-1.1-.2-1.7-.1-.5-.3-.9-.9-1.1"/>
      <path class="st0" d="M288.7,9.5c0,.2,0,.4-.1.7-.2.9-.3,1.8-.5,2.7,0,.3-.2.5-.5.5-.2,0-.4,0-.7,0-.3,0-.4,0-.5-.4-.2-.8-.4-1.6-.5-2.3,0-.4-.2-.8-.3-1.2,0,.1,0,.3,0,.4,0,1-.2,1.9-.3,2.9,0,.1,0,.2,0,.3,0,.3-.1.4-.5.4-.3,0-.6,0-.9,0-.4,0-.5-.1-.4-.5,0-.9.1-1.9.2-2.8,0-.1,0-.2,0-.4.2-1.8.3-3.7.5-5.5,0-.8.1-1.6.2-2.4,0-.4.1-.5.5-.5.3,0,.5,0,.8,0,.4,0,.4,0,.5.5.2.9.3,1.7.5,2.6.2.8.3,1.5.5,2.3,0,0,0,.2.1.3.2-1.2.5-2.3.7-3.4.1-.6.2-1.3.4-1.9,0-.3.1-.4.5-.4.3,0,.6,0,.9,0,.3,0,.4.1.4.4.2,2,.3,4,.5,6,0,.8.2,1.6.2,2.4,0,.8.1,1.6.2,2.4,0,0,0,.2,0,.3,0,.4,0,.5-.5.5-.3,0-.6,0-.9,0-.4,0-.4,0-.5-.4,0-.6-.1-1.2-.2-1.7,0-.6-.1-1.1-.2-1.7h0Z"/>
      <path class="st0" d="M295,12h-1.1c0,.3,0,.6,0,1,0,.2,0,.3-.3.3-.4,0-.8,0-1.2,0,0,0-.1,0-.2,0,0,0,0-.1,0-.2,0-.1,0-.3,0-.4.1-1.1.3-2.3.4-3.4.2-1.7.4-3.4.6-5.1,0-.7.2-1.4.3-2.1,0-.5.1-.5.6-.5.4,0,.8,0,1.3,0,.3,0,.4,0,.4.4,0,.6.2,1.1.2,1.7.2,1.7.4,3.4.6,5.1.2,1.4.3,2.9.5,4.3,0,.3,0,.4-.3.4-.4,0-.8,0-1.2,0-.2,0-.3-.1-.3-.3,0-.2,0-.4,0-.6,0-.1,0-.3,0-.5M294.8,10.2c-.2-.9,0-1.7-.3-2.5-.2.8-.3,1.7-.4,2.5h.7Z"/>
      <path class="st0" d="M300,7.5c0,.9,0,1.9,0,2.8,0,.4,0,.7.4.9.2.2.5.2.8.2.4,0,.4,0,.5.4,0,.3.1.7.1,1,0,.3,0,.5-.4.6-.4.1-.9.2-1.4,0-.5,0-.9-.4-1.1-.7-.4-.6-.7-1.2-.8-1.9,0-2.3-.1-4.6,0-6.9,0-.5.2-.9.4-1.3.3-.6.8-1,1.4-1.2.6-.3,1.2,0,1.8.2.3.1.3.3.2.6-.1.4-.2.8-.4,1.2,0,.3-.2.3-.4.2-.1,0-.2-.1-.4-.1-.4-.1-.7,0-.8.4,0,.3-.1.6-.1.9,0,.9,0,1.8,0,2.8"/>
      <path class="st0" d="M303.2,4c0-.7.3-1.3.7-1.9.2-.3.5-.5.8-.6.7-.3,1.4-.4,2.2,0,.6.2,1.1.8,1.3,1.4,0,.3.2.6.2,1,0,1.4,0,2.7,0,4.1,0,.8,0,1.5,0,2.3,0,.6,0,1.1-.2,1.7-.2.6-.6,1.1-1.2,1.4-.7.3-1.5.4-2.3.2-.2,0-.5-.2-.7-.4-.5-.5-.8-1.2-.8-1.9,0-1.2,0-2.3,0-3.5,0,0,0-2.3,0-3.5M306.4,6.9c0-.6,0-1.5,0-2.5,0-.2,0-.5-.1-.7,0-.3-.3-.4-.6-.3-.2,0-.4.2-.4.5,0,.3-.1.6-.2.9,0,1.9,0,3.7,0,5.6,0,.2,0,.4,0,.7,0,.4.4.5.7.5.3,0,.5-.2.5-.6,0-.3,0-.6,0-.9,0-.9,0-1.8,0-3.1"/>
      <path class="st0" d="M312.6,5.3c0-.1,0-.5,0-.7,0-1,0-1.9,0-2.9,0-.4,0-.5.5-.5.3,0,.6,0,.9,0,.4,0,.5,0,.5.5,0,1,0,1.9,0,2.9,0,2.4.1,4.8.2,7.2,0,.3,0,.6,0,.9,0,.3-.1.4-.5.5-.3,0-.5,0-.8,0-.3,0-.4,0-.5-.4-.3-1-.5-2-.8-3.1,0-.2-.1-.4-.2-.6,0,.1,0,.3,0,.4,0,1,0,2,0,3,0,0,0,.2,0,.2,0,0,0,.1,0,.2,0,0-.1,0-.2,0-.4,0-.8,0-1.2,0-.2,0-.3-.2-.3-.3,0-.3,0-.7,0-1,0-2.3,0-4.5,0-6.8,0-.8,0-1.7,0-2.5,0-.3,0-.7,0-1,0-.3,0-.3.3-.3.3,0,.7,0,1,0,.4,0,.4,0,.5.4.2.9.4,1.7.6,2.6,0,.3.2.6.3.9"/>
      <path class="st0" d="M316.2,7.9c0-1.6,0-3,0-4.4,0-.5,0-1.1,0-1.6,0-.4,0-.4.5-.5.7,0,1.5,0,2.1.4.6.3,1.1.8,1.4,1.3.4.6.6,1.4.6,2.1,0,1.4,0,2.8,0,4.2,0,1.1-.5,2.1-1.1,3-.4.5-1,.8-1.6.8-.5,0-.9,0-1.4,0-.4,0-.4,0-.4-.4,0-1,0-2.1,0-3.1,0-.7,0-1.4,0-1.9M318,3.5c0,1.3,0,2.6,0,3.9,0,1.3,0,2.6,0,3.9.3,0,.4-.1.5-.3.3-.4.4-.9.5-1.3,0-1.1,0-2.2,0-3.3,0-.6,0-1.1-.2-1.7-.1-.5-.3-.9-.9-1.1"/>
      <path class="st0" d="M322.3,4c0-.7.3-1.3.7-1.9.2-.3.5-.5.8-.6.7-.3,1.4-.4,2.2,0,.6.2,1.1.8,1.3,1.4,0,.3.2.6.2,1,0,1.4,0,2.7,0,4.1,0,.8,0,1.5,0,2.3,0,.6,0,1.1-.2,1.7-.2.6-.6,1.1-1.2,1.4-.7.3-1.5.4-2.3.2-.2,0-.5-.2-.7-.4-.5-.5-.8-1.2-.8-1.9,0-1.2,0-2.3,0-3.5,0,0,0-2.3,0-3.5M325.5,6.9c0-.6,0-1.5,0-2.5,0-.2,0-.5-.1-.7,0-.3-.3-.4-.6-.3-.2,0-.4.2-.4.5,0,.3-.1.6-.2.9,0,1.9,0,3.7,0,5.6,0,.2,0,.4,0,.7,0,.4.4.5.7.5.3,0,.5-.2.5-.6,0-.3,0-.6,0-.9,0-.9,0-1.8,0-3.1"/>
      <path class="st0" d="M335.4,15.3c-.7,0-1.4,0-2.2,0h0c-.7,0-1.4,0-2.2,0-.4,0-.5,0-.5-.4,0-.3,0-.6,0-.9,0-.3,0-.4.4-.4.8,0,1.6,0,2.4,0,.6,0,1.2,0,1.9,0,.4,0,.5.1.5.5,0,.3,0,.5,0,.8,0,.3,0,.4-.4.4"/>
      <path class="st0" d="M279.1,15.3c-.7,0-1.4,0-2.2,0h0c-.7,0-1.4,0-2.2,0-.4,0-.5,0-.5-.4,0-.3,0-.6,0-.9,0-.3,0-.4.4-.4.8,0,1.6,0,2.4,0,.6,0,1.2,0,1.9,0,.4,0,.5.1.5.5,0,.3,0,.5,0,.8,0,.3,0,.4-.4.4"/>
    </g>
    <g>
      <path class="st0" d="M1.2,24.4h19.3V5.7H1.2v18.6ZM2.7,7.3h16.2v15.6H2.7V7.3Z"/>
      <rect class="st0" x="13.8" y="9.5" width="2.4" height="11.2"/>
      <polygon class="st0" points="5.9 9.5 10.2 20.8 11.4 17.7 8.2 9.5 5.9 9.5"/>
      <path class="st0" d="M6.7,19.6c-.2,1-.8,1.4-1.6,2h3.1c-.6-.3-1.4-1-1.5-2"/>
      <path class="st0" d="M35.4,8.4v.4h3.8v-1.3l-3.8.9Z"/>
      <path class="st0" d="M22.9,20.6h0c0-.6.5-1.1,1.1-1.1s.6.1.8.3l-.2.3c-.2-.2-.4-.3-.6-.3-.4,0-.7.3-.7.8h0c0,.4.3.8.7.8s.4-.1.6-.3l.2.2c-.2.2-.5.4-.9.4-.6,0-1.1-.5-1.1-1.1"/>
      <path class="st0" d="M27.4,20.6h0c0-.6.5-1.1,1.1-1.1s1.1.5,1.1,1.1h0c0,.6-.5,1.1-1.1,1.1s-1.1-.5-1.1-1.1M29.2,20.6h0c0-.4-.3-.8-.7-.8s-.7.3-.7.8h0c0,.4.3.8.7.8s.7-.3.7-.8"/>
      <polygon class="st0" points="32.4 19.5 32.7 19.5 33.9 21 33.9 19.5 34.2 19.5 34.2 21.6 33.9 21.6 32.7 20.1 32.7 21.6 32.4 21.6 32.4 19.5"/>
      <path class="st0" d="M36.9,21.3l.2-.3c.2.2.4.3.7.3s.4-.1.4-.3h0c0-.2,0-.2-.5-.3-.5-.1-.7-.2-.7-.6h0c0-.4.3-.6.7-.6s.6,0,.8.3l-.2.3c-.2-.1-.4-.2-.6-.2s-.3.1-.3.3h0c0,.2,0,.2.5.3.5.1.7.3.7.6h0c0,.4-.3.6-.8.6s-.6-.1-.9-.3"/>
      <polygon class="st0" points="41.8 19.8 41.1 19.8 41.1 19.5 42.8 19.5 42.8 19.8 42.2 19.8 42.2 21.6 41.8 21.6 41.8 19.8"/>
      <path class="st0" d="M45.5,19.5h1c.3,0,.5,0,.6.2.1.1.2.3.2.5h0c0,.4-.2.6-.5.7l.6.8h-.4l-.5-.7h-.5v.7h-.4v-2.1ZM46.4,20.6c.3,0,.4-.1.4-.4h0c0-.2-.2-.4-.4-.4h-.5v.7h.6Z"/>
      <path class="st0" d="M50,20.7v-1.2h.4v1.2c0,.4.2.6.5.6s.5-.2.5-.6v-1.2h.4v1.2c0,.6-.4,1-.9,1s-.9-.3-.9-.9"/>
      <path class="st0" d="M54.5,20.6h0c0-.6.5-1.1,1.1-1.1s.6.1.8.3l-.2.3c-.2-.2-.4-.3-.6-.3-.4,0-.7.3-.7.8h0c0,.4.3.8.7.8s.4-.1.6-.3l.2.2c-.2.2-.5.4-.9.4-.6,0-1.1-.5-1.1-1.1"/>
      <polygon class="st0" points="59.7 19.8 59 19.8 59 19.5 60.7 19.5 60.7 19.8 60.1 19.8 60.1 21.6 59.7 21.6 59.7 19.8"/>
      <path class="st0" d="M63.2,20.6h0c0-.6.5-1.1,1.1-1.1s1.1.5,1.1,1.1h0c0,.6-.5,1.1-1.1,1.1s-1.1-.5-1.1-1.1M65.1,20.6h0c0-.4-.3-.8-.7-.8s-.7.3-.7.8h0c0,.4.3.8.7.8s.7-.3.7-.8"/>
      <path class="st0" d="M68.2,19.5h1c.3,0,.5,0,.6.2.1.1.2.3.2.5h0c0,.4-.2.6-.5.7l.6.8h-.4l-.5-.7h-.5v.7h-.4v-2.1ZM69.1,20.6c.3,0,.4-.1.4-.4h0c0-.2-.2-.4-.4-.4h-.5v.7h.6Z"/>
      <polygon class="st0" points="72.7 19.5 74.3 19.5 74.3 19.8 73.1 19.8 73.1 20.4 74.1 20.4 74.1 20.7 73.1 20.7 73.1 21.3 74.3 21.3 74.3 21.6 72.7 21.6 72.7 19.5"/>
      <path class="st0" d="M76.9,21.3l.2-.3c.2.2.4.3.7.3s.4-.1.4-.3h0c0-.2,0-.2-.5-.3-.5-.1-.7-.2-.7-.6h0c0-.4.3-.6.7-.6s.6,0,.8.3l-.2.3c-.2-.1-.4-.2-.6-.2s-.3.1-.3.3h0c0,.2,0,.2.5.3.5.1.7.3.7.6h0c0,.4-.3.6-.8.6s-.6-.1-.9-.3"/>
      <polygon class="st0" points="22.8 9.8 24.4 9.8 26.9 13.7 29.5 9.8 31 9.8 31 18.1 29.6 18.1 29.6 12.1 26.9 16 26.9 16 24.3 12.1 24.3 18.1 22.8 18.1 22.8 9.8"/>
      <polygon class="st0" points="33.6 9.8 39.8 9.8 39.8 11.1 35.1 11.1 35.1 13.2 39.3 13.2 39.3 14.5 35.1 14.5 35.1 16.8 39.9 16.8 39.9 18.1 33.6 18.1 33.6 9.8"/>
      <polygon class="st0" points="44.1 11.1 41.5 11.1 41.5 9.8 48.3 9.8 48.3 11.1 45.6 11.1 45.6 18.1 44.1 18.1 44.1 11.1"/>
      <path class="st0" d="M50.3,9.8h3.7c1,0,1.9.3,2.4.8.4.5.7,1.1.7,1.8h0c0,1.4-.8,2.2-2,2.5l2.2,3.2h-1.7l-2-2.9h-1.8v2.9h-1.5v-8.3ZM53.9,13.9c1,0,1.7-.5,1.7-1.4h0c0-.9-.6-1.4-1.7-1.4h-2.1v2.8h2.1Z"/>
      <rect class="st0" x="59.4" y="9.8" width="1.5" height="8.3"/>
      <polygon class="st0" points="63.6 9.8 65.1 9.8 65.1 13.9 69 9.8 70.8 9.8 67.4 13.3 71 18.1 69.2 18.1 66.4 14.3 65.1 15.7 65.1 18.1 63.6 18.1 63.6 9.8"/>
      <path class="st0" d="M71.7,13.9h0c0-2.4,1.8-4.3,4.4-4.3s4.3,1.9,4.3,4.3h0c0,2.4-1.8,4.3-4.4,4.3s-4.3-1.9-4.3-4.3M78.9,13.9h0c0-1.6-1.2-3-2.8-3s-2.8,1.3-2.8,2.9h0c0,1.6,1.2,3,2.8,3s2.8-1.3,2.8-2.9"/>
    </g>
    <g>
      <path class="st0" d="M204.4,8.9c-.7-.6-1.7-.6-2.4,0l-2.2,2-1.9-1.7c-.9-.8-2.2-.8-3.1,0l-4.6,4.3c-.4.4-.6.9-.6,1.4v4.5c0,1.3,1,2.3,2.3,2.3h16.7c.8,0,1.4-.6,1.4-1.4v-5.4c0-.5-.2-1.1-.6-1.4l-5-4.6ZM197,13.5c-.4.4-.6.9-.6,1.4v5.4c0,0,0,.2,0,.3h-4.6c-.6,0-1.1-.5-1.1-1.1v-4.5c0-.2,0-.4.3-.6l4.6-4.3c.2-.2.5-.3.8-.3s.5.1.8.3l1.8,1.7-1.9,1.8Z"/>
      <path class="st0" d="M215.3,8.5c-1.7,0-3.1,1.4-3.1,3.1v7c0,1.7,1.4,3.1,3.1,3.1s3.1-1.4,3.1-3.1v-7c0-1.7-1.4-3.1-3.1-3.1M216.5,18.6c0,.7-.6,1.3-1.3,1.3s-1.3-.6-1.3-1.3v-7c0-.7.6-1.3,1.3-1.3s1.3.6,1.3,1.3v7Z"/>
      <path class="st0" d="M242.2,8.5h0c-.5,0-.9.4-.9.9v9.1c0,.7-.6,1.3-1.3,1.3s-1.3-.6-1.3-1.3v-9.1c0-.5-.4-.9-.9-.9s-.9.4-.9.9v9.1c0,1.7,1.4,3.1,3.1,3.1s3.1-1.4,3.1-3.1v-9.1c0-.5-.4-.9-.9-.9"/>
      <path class="st0" d="M252.6,8.5c-.3,0-.6.2-.8.5l-2.2,5.2c-.1.3-.6.3-.7,0l-2.2-5.2c-.1-.3-.4-.5-.8-.5s-.8.4-.8.8v11.4c0,.5.4.9.9.9s.9-.4.9-.9v-5.6c0-.2.3-.3.4,0,.4.8.8,1.8,1.2,2.7.3.7,1.3.7,1.6,0l1.2-2.7c0-.2.4-.1.4,0v5.6c0,.5.4.9.9.9s.9-.4.9-.9v-11.4c0-.5-.4-.8-.8-.8"/>
      <path class="st0" d="M234,19.7h-2.2c-.4,0-.7-.4-.6-.8l3.4-9c.3-.7-.2-1.4-1-1.4h-4.2c-.5,0-.9.4-.9.9s.4.9.9.9h2.3c.4,0,.7.4.6.8l-3.5,9.2c-.2.6.2,1.1.8,1.1h4.4c.5,0,.9-.4.9-.9s-.4-.9-.9-.9"/>
      <path class="st0" d="M263.1,20.6l-2.6-11.2c-.3-1.2-2.1-1.2-2.3,0l-2.6,11.2c-.1.5.3,1,.8,1h0c.4,0,.7-.3.8-.6l.3-1.2c0-.3.4-.6.7-.6h2.2c.3,0,.6.2.7.6l.3,1.2c0,.4.4.6.8.6h0c.5,0,.9-.5.8-1M260,17.2h-1.2c-.3,0-.6-.3-.5-.6.3-1.1.5-2.2.7-3,0-.4.7-.4.8,0l.7,3c0,.3-.2.6-.5.6"/>
      <path class="st0" d="M225.9,17.8c-.3-.6-.3-1.4.1-1.9l.4-.6c.4-.6.6-1.2.6-1.9v-1.5c0-1.8-1.5-3.3-3.3-3.3h-1.8c-.8,0-1.5.7-1.5,1.5v10.7c0,.5.4.9.9.9s.9-.4.9-.9v-3.1c0-.4.3-.7.7-.7s.5.2.7.4l1.9,3.8c.2.3.5.5.8.5.7,0,1.1-.7.8-1.3l-1.2-2.5ZM225.3,13.2c0,.9-.7,1.6-1.6,1.6h-.7c-.5,0-.9-.4-.9-.9v-2.7c0-.5.4-.9.9-.9h.7c.9,0,1.6.7,1.6,1.6v1.2Z"/>
    </g>
  </g>
</svg>