<?xml version="1.0" encoding="UTF-8"?>
<svg id="Arte" xmlns="http://www.w3.org/2000/svg" version="1.1" viewBox="0 0 333.2 44.8">
  <!-- Generator: Adobe Illustrator 29.0.0, SVG Export Plug-In . SVG Version: 2.1.0 Build 186)  -->
  <defs>
    <style>
      .st0 {
        fill: blue;
      }
    </style>
  </defs>
  <g>
    <path class="st0" d="M333.2,44.8c-.1,0-.2,0-.3,0-8.1,0-16.3,0-24.4,0q-.4,0-.4-.4c0-14.7,0-29.3,0-44q0-.4.4-.4c8.1,0,16.3,0,24.4,0h.3v44.8ZM313,32.3c.1-.1.1-.2,0-.3-.3-.2-.5-.6-.4-1,0-.4.4-.6.8-.7.6-.2,1.2,0,1.8.3.5.3.9.7,1.4,1,.5.3.9.7,1.4.9,1.6.7,3.3.5,4.8-.2,1.2-.5,2-1.5,2.7-2.5.6-.8,1.1-1.7,1.7-2.5.6-.8,1.3-1.2,2.3-1.3.8,0,1.7.2,2,1.1,0,0,0,0,0,0,.3-.6.2-1.2-.3-1.7-.3-.3-.6-.6-1-.7-.9-.4-1.8-.8-2.7-1.1-1-.4-1.8-1.1-2.2-2.1-.2-.5-.4-1-.5-1.5-.4-1.4-.8-2.6-1.7-3.8,0-.1-.2-.2-.3-.4,0,.1,0,.2,0,.3,0,.7.1,1.3,0,2-.1,1.1-.7,1.9-1.4,2.6-.5.5-1.1,1.1-1.6,1.6-.5.5-.7,1.1-.7,1.8,0,.3,0,.6,0,.9-.2,1.8-1.1,3-2.7,3.8-.6.3-1.3.5-2,.7-.5.2-1.1.4-1.6.7-.9.6-.8,1.7.2,2.2ZM312.4,32.1c0,0,0-.1,0-.1-.5-.7-.4-1.6.3-2.1.3-.2.7-.4,1.1-.5.7-.3,1.5-.5,2.2-.8,1.2-.5,2.1-1.2,2.6-2.4.3-.8.4-1.6.4-2.4,0-.5.1-1,.4-1.4.2-.3.5-.6.7-.9.6-.6.5-1.4-.3-1.8-.1,0-.3-.1-.4-.2-.9-.2-1.8-.3-2.7,0-1.8.4-3.6.9-5.4,1.3-.2,0-.4.2-.5.4-.6,1.3-1.4,2.4-2.5,3.4-.2.1-.2.3-.2.5,0,3.4,0,6.7,0,10.1v.3s0,0,0,0c1.4-1.1,2.8-2.3,4.1-3.5ZM312.9,8c0,1.4,0,2.8.1,4.2.9,0,1.9,0,2.3,1.1.8-.1,1.6-.2,2.3-.3,0-.4,0-.8,0-1.1,0-1,.5-1.8,1.4-2.4.9-.6,1.8-1.2,2.8-1.8,0,0,.2-.1.3-.2q-.2-.3-.6-.3c-.5,0-1-.6-.8-1.1,0,0,0-.2,0-.3-.4-.6-.6-1.3-.4-2,.3-1,1-1.5,1.9-1.7.9-.2,1.7,0,2.3.7.2.3.4.6.5,1,0,.1,0,.2.2.2.1,0,.3.1.4.3.2.3.1.7,0,1-.2.3-.1.5,0,.8,0,0,0,0,0,0,0,0,0,0,0-.1.2-.2.4-.5.6-.7.3-.3.7-.5,1.1-.7,1.8-.9,3.5-1.9,5.1-3.1.4-.3.5-.5.5-1,0-.3,0-.4-.4-.4-5.4,0-10.8,0-16.1,0,0,0-.2,0-.4,0,.7.5.9,1.1.8,1.8,0,1.1-.9,1.8-1.9,1.9,0,0-.2,0-.2,0-.1.4-.3.8,0,1.2.3.5.1.9-.4,1.1-.3.1-.5.3-.5.6,0,.2-.1.5-.2.7q-.2.6-.8.4ZM333,1.4c-.1,0-.2.2-.3.2-1.1.8-2.2,1.6-3.4,2.2-.9.5-1.8.9-2.6,1.4-.3.2-.5.4-.8.6-.1.1-.1.3,0,.4.3.4.6.9.9,1.3.1.1.1.3,0,.4-.1.2-.2.3-.4.6.1.1.3.2.4.3.3.2.3.5.3.8,0,1.9-.1,3.9,0,5.8,0,1.6.2,3.3.3,4.9,0,.2,0,.4,0,.7,1.8-.8,3.6-.8,5.5-.6,0-.2,0-.3-.1-.4-.7-1.5-1.3-3.1-2-4.6-.8-1.9-1.4-3.8-1.4-5.9,0-1,.3-1.9,1-2.7.7-.8,1.5-1.5,2.3-2.2.1-.1.2-.3.2-.5,0-.8,0-1.7,0-2.5,0,0,0-.2,0-.3ZM308.2,13.1c0,0,0,0,.1,0,.5-.8,1.3-1.2,2.2-1.3.2,0,.3-.1.3-.3.3-1.8.6-3.6,1-5.4,0-.4.3-.8.7-.9.4-.2.8-.4,1.2-.5.4-.1.4-.5.5-.8,0-.2-.2-.2-.3-.4,0,0-.1-.1-.1-.2-.6-.8-.4-2.2.4-2.8,0,0,.1-.1.2-.2h-.4c-1.9,0-3.7,0-5.6,0q-.4,0-.4.4c0,4.1,0,8.2,0,12.2,0,0,0,.2,0,.3ZM328.4,36.1c.2,0,.3,0,.4,0,1.3,0,2.6,0,3.8,0q.4,0,.4-.4c0-4.9,0-9.7,0-14.6,0,0,0-.2,0-.3,0,0,0-.1-.2-.2,0,.1,0,.2,0,.2,0,.6-.3,1.1-.6,1.6-.4.6-.8,1.2-1.2,1.9,0,.1-.2.3-.2.4,0,0,0,0,.1.1.9.7,1,1.4.6,2.5-.7,1.9-1.4,3.8-2.1,5.7-.4,1-.7,2-1,3.1ZM333,4.8c0,0-.1,0-.1,0-.7.7-1.4,1.3-2.1,2-.8.8-1.2,1.8-1.1,3,0,1.6.4,3.2,1,4.7.7,1.6,1.4,3.2,2.1,4.8,0,.2.2.4.3.7,0,0,0,0,0,0V4.8ZM317.9,13c0,0,.1,0,.2,0,.6,0,1.2-.1,1.8-.2,1-.1,1.7.3,2.1,1.1.1.3.3.6.4.8.1.2.2.4.4.6.7.9,1.3,1.8,1.7,2.9,0,0,0,.1,0,.2,0,0,0-.1,0-.1,0-.9,0-1.7-.2-2.6-.5-2.3-.9-4.6-1.1-7,0-.3,0-.5-.4-.6-.2,0-.3-.2-.5-.4-.1-.1-.2-.1-.4,0-.9.6-1.9,1.2-2.8,1.8-1.3.8-1.4,2.1-1.4,3.4ZM315.3,14c1.1,0,2.2.1,3.2.6,1,.4,1.9,1,2.8,1.7-.1,0-.2,0-.3,0-.7-.3-1.5-.3-2.2-.2-.9.1-1.8.5-2.6.8q-.5.2-.4.7s0,0,0,.1c.5-.2,1-.4,1.5-.5.3,0,.6-.1,1,0,.4,0,.8.4.9.8,0,.5,0,.8-.5,1-.2,0-.3.1-.5.2,0,0-.1,0-.2.1.2,0,.2,0,.3,0,.5,0,.9.1,1.4.3.7.2.9.6,1,1.3,0,0,0,0,0,.1,0,0,0,0,0,0,.2-.2.4-.4.6-.6.9-1,1.5-2.2,1.4-3.6,0-1-.4-1.9-.9-2.8-.5-.9-1.1-1.2-2.2-1.1-.6,0-1.1.1-1.7.2-.8,0-1.5.2-2.3.3-.4,0-.4,0-.3.5ZM317.9,36.1c.1,0,.2,0,.3,0,1.5,0,3.1,0,4.6,0,.1,0,.3,0,.3-.2,1.5-2.2,3-4.4,4.4-6.6,0-.1,0-.3,0-.4,0-.5,0-1,0-1.5,0-.2.1-.4.2-.7,0,0,0,0,0,0-.3.4-.6.7-.9,1.1-.4.6-.8,1.3-1.3,1.9-.6.9-1.3,1.7-2.2,2.3-.8.5-1.7.8-2.7.9-.3,0-.5.1-.7.4-.6.9-1.3,1.7-1.9,2.6,0,0,0,.1-.2.2ZM326.5,36.1s0,0,0,0c.5,0,.9,0,1.4,0,.2,0,.3,0,.4-.3.9-2.8,1.7-5.6,2.9-8.2,0,0,0-.2,0-.2,0-.6-.4-1.1-.9-1.2-.3,0-.6-.1-1-.1-.9,0-1.5.5-1.6,1.4,0,.6,0,1.2,0,1.8,0,.5.1,1.1,0,1.6-.1.9-.3,1.8-.5,2.7-.2.9-.5,1.7-.8,2.6ZM324.7,18.9c0,.1,0,.2,0,.2.2.7.4,1.4.7,2,.4,1.1,1.2,1.8,2.2,2.2.4.2.9.3,1.3.5.6.2,1.1.5,1.7.8.6-.9,1.2-1.8,1.7-2.7.2-.3.2-.7.3-1,0-.1,0-.2-.2-.2-1.7-.2-3.3,0-4.9.7-.1,0-.2,0-.2-.1,0-.4,0-.8-.1-1.2,0-.4,0-.9-.1-1.3-.8.3-1.6.3-2.4.2ZM325.4,7.9c-.4.9-1.1.9-1.9.6,0,.4,0,.7.1,1,.2,1.6.5,3.2.7,4.7.2,1.1.5,2.3.5,3.4,0,.2,0,.2.2.2.6,0,1.2-.2,1.7-.2.3,0,.3-.2.3-.4,0-1,0-2.1,0-3.1,0-.3,0-.7,0-1-.4-1.5-.8-3-1.3-4.4,0-.2-.2-.5-.3-.8ZM321,6.1c-.2.4.3,1,.7.9.2,0,.3,0,.4.1.5.4.9.8,1.4,1.1.2.2.6.2.9.2.6,0,.8-.4.9-.9.2-.6.1-1.2,0-1.9,0-.1,0-.3,0-.4.2-.3.2-.6.1-.9,0-.2-.1-.3-.4-.3,0,.1,0,.2,0,.3,0,0,0,.2-.1.2,0,0-.2,0-.2,0,0-.1-.1-.2-.2-.4-.3-.5-.8-.6-1.2-.2-.3.3-.7.4-1.2.4-.2,0-.5,0-.7.2-.4.2-.5.5-.3.9,0,.1.2.3.2.4,0,0,0,.3,0,.3,0,0-.2,0-.3,0,0,0,0-.1,0-.2ZM320,32.9c-1.2,0-2.3-.3-3.2-1-1.2,1.3-2.3,2.6-3.2,4.2.1,0,.2,0,.2,0,1.2,0,2.4,0,3.6,0,.1,0,.3,0,.3-.2.7-.9,1.4-1.8,2.1-2.7,0,0,0-.1.2-.3ZM316.6,31.8c-.3-.3-.7-.5-1-.8-.7-.5-1.3-.4-1.8.3-.2.3-.4.7-.6,1.1-.4.8-.7,1.6-1.1,2.3-.2.5-.5.9-.8,1.4.1,0,.2,0,.3,0,.5,0,1.1,0,1.6,0,.2,0,.3,0,.4-.2.6-.8,1.1-1.6,1.7-2.4.4-.6.9-1.1,1.4-1.7ZM313.3,12.4c-.6,0-1.2.1-1.8.4-1,.6-1.2,1.5-.4,2.4.3.3.6.6.8.9.1.2.3.2.5.2,1.3-.3,2.2-1.1,2.6-2.3.2-.6,0-1.2-.7-1.4-.3-.1-.7-.1-1.1-.2ZM327.5,29.5c-1.4,2.2-2.9,4.4-4.4,6.6.1,0,.1,0,.2,0,.9,0,1.8,0,2.7,0,.2,0,.2,0,.3-.2.5-1.4.9-2.7,1.2-4.1.2-.7.1-1.5,0-2.2ZM311.2,20.7c0,0,.1,0,.2,0,1.9-.5,3.8-.9,5.6-1.4.5-.1,1.1-.3,1.6-.5.4-.2.6-.5.5-.8,0-.4-.3-.7-.7-.7-.3,0-.6,0-.9,0-1.9.6-3.7,1.2-5.6,1.9,0,0-.2,0-.2.1-.2.4-.3.9-.5,1.4ZM312.6,6.4c.1,0,.2,0,.3,0,.5,0,.6,0,.7-.4,0-.3.3-.5.5-.7.1,0,.3-.2.4-.4,0,0,0-.2,0-.4-.4.5-.8.7-1.1.6,0-.2.5-.1.5-.5-.5.2-1,.4-1.5.7-.3.1-.4.4-.5.7-.3,1.5-.6,3.1-.8,4.6,0,.4-.1.7-.2,1,.7.2,1.3.3,1.9.5,0,0,0-.2,0-.3,0-1.2,0-2.4-.1-3.6,0-.6.1-1.2-.2-1.8ZM315.2,3.7c.4,0,.8-.1,1-.4.5-.6.7-1.2.5-2-.3-1.3-1.9-1.4-2.5-.6-.4.4-.6,1-.5,1.5,0,.9.6,1.5,1.5,1.5ZM315.8,16.9c1.6-.7,3.1-1.3,4.8-1,0,0,0,0,0,0-1.5-1-3.1-1.6-4.9-1.6-.3,0-.4,0-.6.3-.2.3-.4.6-.6.9.8.2,1.1.7,1.3,1.5ZM311.8,19.1c.2,0,.3,0,.4-.1,1-.3,1.9-.6,2.9-1,.7-.2.7-.2.6-1-.1-.6-.4-1.2-1.1-1.4-.2,0-.3,0-.5,0-.5.4-1,.7-1.6.8-.2,0-.2,0-.2.2,0,.6-.2,1.2-.3,1.8,0,.2,0,.3-.1.5ZM321.3,6.2c-.1-.3-.2-.4-.2-.6-.1-.4,0-.7.3-1,.3-.2.6-.3,1-.3.4,0,.7-.1,1.1-.4.5-.4,1.1-.3,1.4.3,0,.1.1.3.2.4,0-1.2-.9-2.3-1.9-2.4-1-.2-2.3.6-2.7,1.6-.3.8.1,2.1.9,2.5ZM309.6,36.1c.4,0,.7,0,1.1,0,.2,0,.3,0,.4-.2.7-1,1.2-2.1,1.7-3.2,0-.1.1-.2,0-.3-.1-.1-.2,0-.4,0-.6.5-1.2,1-1.9,1.5-.7.6-1.4,1.2-2.1,1.8,0,0-.1.2-.2.3.1,0,.2,0,.3,0,.4,0,.7,0,1.1,0ZM308.2,23.4s0,0,0,0c0,0,.1-.1.2-.2,1.7-2.1,2.8-4.5,3-7.2,0-.4-.2-.6-.5-.8,0,.2-.2.4-.2.5-.1.6-.3,1.2-.4,1.9-.3,1.7-.8,3.3-1.9,4.7-.3.4-.2.7-.2,1.1ZM311.3,12.9s0,0,0,0c0,0-.1,0-.2,0-.8,0-1.5.4-1.8,1.3-.2.7-.3,1.5-.4,2.3-.1,1.2-.3,2.4-.5,3.6,0,.3,0,.7,0,1,.2-.2.3-.4.4-.6.5-1.2.7-2.5.9-3.8,0-.7.2-1.3.4-2,0-.2.2-.5.4-.6.2-.1.3-.3.4-.5,0-.2.2-.4.4-.5,0,0,.1,0,.2-.1ZM308.2,18.9h0c0,0,0-.2,0-.3.1-1,.2-2.1.4-3.1,0-.7.2-1.3.5-2,.3-.6.8-1,1.5-1,.5,0,1,0,1.5-.3,0,0,.2,0,.3,0-.8-.4-1.7-.5-2.6-.3-1.1.3-1.7,1.1-1.7,2.3,0,1.4,0,2.9,0,4.3v.3ZM308.3,22.2c0,0,.1-.2.2-.2,1-1.4,1.5-2.9,1.7-4.6.1-.8.2-1.6.6-2.3,0,0,0-.1,0-.1-.1-.3-.3-.6-.4-.9,0,0-.2.2-.3.3-.1.2-.2.4-.2.6-.2,1.1-.3,2.2-.5,3.2-.2.9-.4,1.9-.9,2.7-.3.4-.2.8-.2,1.2ZM308.2,24.6c.1-.1.2-.2.2-.2,1.1-1.1,1.8-2.3,2.5-3.7.6-1.2,1-2.5,1.1-3.8,0-.4-.1-.8-.5-.9,0,0,0,.1,0,.2,0,.5,0,1-.2,1.5-.4,2.2-1.4,4.1-2.9,5.8-.3.3-.3.6-.2,1ZM326.9,12.4s0,0,0,0c0,0,0-.2,0-.3,0-.8,0-1.7,0-2.5,0-.2,0-.4-.2-.6-.5-.5-.5-.5-.1-1.1,0,0,0,0,0,0,0,0,0-.2,0-.3-.3-.4-.6-.9-.9-1.3,0,0,0,0-.1-.1,0,0,0,.1,0,.2,0,.3,0,.6,0,.9,0,.2,0,.4,0,.5.3.9.6,1.8.9,2.7.2.6.4,1.2.5,1.8ZM312.2,41.2s0,0,0,0c0,0,0,.2,0,.3,0,.7,0,1.4,0,2.2,0,.1,0,.2.2.2,0,0,.2-.1.2-.2,0-.9,0-1.8,0-2.8,0,0,0-.1,0-.2-.2-.1-.4,0-.5.2-.3.6-.5,1.2-.8,1.8,0,.2-.2.4-.3.6-.2-.5-.4-.9-.5-1.3-.2-.4-.3-.8-.5-1.1,0-.3-.3-.2-.5-.2,0,0-.1.2-.1.3,0,.3,0,.7,0,1,0,.5,0,1.1,0,1.6,0,.2,0,.3.2.2,0,0,0-.2,0-.2,0-.8,0-1.6,0-2.5,0,.1,0,.2,0,.2.3.8.6,1.5,1,2.3,0,0,.2.2.2.2,0,0,.2-.1.2-.2.1-.3.2-.5.3-.8.2-.5.4-1.1.7-1.6ZM316.6,41.1c0,.1.1.2.2.3.5.8,1,1.5,1.5,2.3,0,0,.2.1.3.2,0,0,.1-.2.1-.3,0-.9,0-1.8,0-2.6,0-.1,0-.2-.2-.2-.2,0-.2.1-.2.2,0,.6,0,1.2,0,1.8,0,.1,0,.3,0,.4-.1,0-.2-.1-.2-.2-.4-.6-.9-1.3-1.3-1.9,0,0-.1-.2-.2-.3-.1,0-.2,0-.4,0,0,0,0,0,0,.2,0,.9,0,1.9,0,2.8,0,0,.1.2.1.2,0,0,.2,0,.2-.1,0,0,0-.2,0-.2,0-.7,0-1.5,0-2.3ZM315,38.4c.3-.3.4-.6.3-.9-.1-.4-.4-.5-.8-.5-.3,0-.5,0-.8,0-.2,0-.2,0-.2.2,0,.9,0,1.8,0,2.7,0,.1,0,.2.2.2.3,0,.6,0,.9,0,.5,0,.9-.4.9-.9,0-.4-.2-.6-.5-.8ZM321.1,37.4s0,0,0,0c0,0,.1.1.1.2.5.8,1,1.5,1.5,2.3,0,.1.2.2.4.1,0,0,0-.2,0-.3,0-.9,0-1.7,0-2.6,0-.3,0-.3-.3-.2v2.5c-.2-.2-.3-.4-.4-.6-.4-.6-.8-1.2-1.2-1.8,0,0-.3-.1-.4-.1,0,0,0,.2,0,.3,0,.9,0,1.7,0,2.6,0,.3,0,.3.3.2v-2.6ZM329,42.2c0,.9.7,1.6,1.6,1.6.9,0,1.7-.8,1.7-1.6,0-.9-.8-1.6-1.7-1.6-.9,0-1.6.7-1.7,1.6ZM327.4,40.1c.5,0,1.1,0,1.6-.2.6-.1,1.1-.8,1.1-1.4,0-.7-.4-1.3-1-1.5-.5-.2-1.1-.1-1.6-.1v3.2ZM318.2,36.9v3.1c.3,0,.3,0,.3-.3,0-.7,0-1.5,0-2.2,0,0,0-.2,0-.3.3,0,.6,0,.8,0,.4,0,.6.3.6.7,0,.4-.3.6-.7.6-.2,0-.3,0-.5,0,.3.4.6.8.9,1.2.1.2.3.2.5.2-.3-.4-.5-.7-.8-1.1,0,0,.1,0,.2,0,.5-.2.7-.5.7-1,0-.5-.3-.9-.8-.9-.4,0-.8,0-1.3,0ZM313.2,40c0,0,0-.2-.1-.3-.4-.9-.7-1.7-1.1-2.6,0-.1,0-.3-.3-.3-.2,0-.2.1-.3.3-.4.9-.7,1.7-1.1,2.6,0,0,0,.2,0,.2.2,0,.3,0,.4-.2,0-.2.2-.4.3-.6,0,0,.2-.2.3-.2.3,0,.7,0,1,0,.2,0,.2,0,.3.2,0,.2.2.4.3.6,0,.2.2.3.4.2ZM323.6,40c.3.1.4,0,.5-.2.1-.6.5-.8,1.1-.8.5,0,.8.1.9.6,0,0,0,.1,0,.2,0,.2.2.3.4.2,0,0,0,0,0,0-.4-1-.8-1.9-1.2-2.9,0,0-.2-.1-.2-.1,0,0-.2,0-.2.2-.2.4-.3.7-.5,1.1-.3.6-.5,1.2-.8,1.9ZM323,40.6c-.2,0-.4,0-.7,0-.2,0-.2,0-.2.2,0,.9,0,1.8,0,2.7,0,.2,0,.2.2.2.4,0,.9,0,1.3,0,0,0,.1-.1.2-.2,0,0-.1-.1-.2-.1-.3,0-.6,0-.9,0-.2,0-.3,0-.3-.2,0-.2,0-.4,0-.6,0-.2,0-.2.2-.2.3,0,.6,0,.9,0,.1,0,.3,0,.2-.2,0,0-.2-.1-.2-.2-.3,0-.6,0-.9,0-.2,0-.2,0-.2-.2,0-.2,0-.4,0-.6,0-.2,0-.2.2-.2.3,0,.6,0,1,0,0,0,.1-.1.2-.2,0,0-.1-.1-.2-.1-.2,0-.4,0-.7,0ZM315.9,43.7c0-.1,0-.2,0-.3-.4-.9-.7-1.7-1.1-2.6,0,0-.2-.2-.3-.2-.2,0-.2.1-.3.2-.4.9-.7,1.7-1.1,2.6,0,0,0,.2,0,.3.2,0,.4,0,.4-.2,0-.1.1-.2.1-.3,0-.4.3-.6.8-.5.3,0,.6,0,.8,0,.2.1.3.5.4.8,0,0,0,0,0,0,0,.2.2.3.4.2ZM316,40c0,0,0,0,.1,0,.5,0,.9,0,1.4,0,0,0,.2,0,.2-.1,0-.2-.1-.2-.2-.2-.3,0-.6,0-.9,0-.2,0-.2,0-.2-.2,0-.2,0-.4,0-.7,0-.2,0-.2.2-.2.3,0,.6,0,1,0,0,0,.1,0,.2-.1,0,0,0-.1-.2-.2-.1,0-.2,0-.4,0-.9,0-.9,0-.8-.9,0-.2,0-.2.2-.2.3,0,.6,0,.9,0,0,0,.1,0,.2-.1,0,0-.1-.2-.2-.2-.4,0-.8,0-1.2,0-.2,0-.3,0-.3.3,0,.8,0,1.7,0,2.5,0,0,0,.2,0,.3ZM321.2,41.8h0c0,.3,0,.7,0,1,0,.4-.3.7-.6.7-.5,0-.7-.1-.8-.6,0-.1,0-.2,0-.3,0-.6,0-1.1,0-1.7,0,0,0-.2-.1-.2-.2,0-.2,0-.2.2,0,.6,0,1.3,0,1.9,0,.7.5,1.1,1.1,1.1.6,0,1-.4,1.1-1.1,0-.6,0-1.3,0-1.9,0,0-.1-.1-.2-.2,0,0-.2.1-.2.2,0,.3,0,.6,0,1ZM330.3,40.1c.5,0,1,0,1.5,0,.2,0,.3,0,.2-.3,0,0-.2,0-.3,0-.3,0-.6,0-.8,0,0,0-.2,0-.2-.1,0-.3,0-.6,0-1h1.3c0-.1,0-.2,0-.3h-1.3v-1.1c.4,0,.8,0,1.2,0,0,0,.1,0,.2-.1,0,0-.1-.2-.2-.2-.3,0-.7,0-1,0-.2,0-.3,0-.5,0v3.1ZM324.4,42.2c0,.4,0,.9,0,1.3,0,.2,0,.2.2.2.4,0,.8,0,1.2,0,0,0,.1-.1.2-.2,0,0-.1-.2-.2-.2-.3,0-.5,0-.8,0-.2,0-.3,0-.3-.3,0-.8,0-1.5,0-2.3,0-.1,0-.2-.2-.2-.2,0-.2.1-.2.2,0,.4,0,.9,0,1.3ZM313.2,31.9c.4-.6.7-1.2,1.6-1.3-.5-.2-.9-.3-1.4-.2-.3.1-.6.3-.6.7,0,.4.2.6.5.8ZM309.3,37.3c0,.1,0,.2,0,.3,0,.7,0,1.5,0,2.2,0,.1,0,.3.2.3.2,0,.2-.1.2-.3,0-.8,0-1.5,0-2.3,0,0,0-.2,0-.3.2,0,.4,0,.5,0,0,0,.1,0,.2-.1,0,0,0-.2-.1-.2-.5,0-1,0-1.5,0,0,0-.1,0-.2.2,0,0,.1.1.2.1.2,0,.3,0,.6,0ZM327.8,41c0,.1,0,.2,0,.3,0,.7,0,1.4,0,2.1,0,.1,0,.3.2.3.2,0,.2-.2.2-.3,0-.3,0-.6,0-.8,0-.5,0-1.1,0-1.6.2,0,.4,0,.5,0,0,0,.1-.1.2-.2,0,0-.1-.1-.2-.2-.5,0-.9,0-1.4,0,0,0-.1,0-.2.1,0,0,.1.1.2.2.1,0,.3,0,.5,0ZM326.7,42.2c0-.4,0-.9,0-1.3,0-.1,0-.3-.2-.3-.2,0-.2.1-.2.2,0,.9,0,1.8,0,2.7,0,.1,0,.3.2.2.2,0,.2-.1.2-.3,0-.4,0-.9,0-1.3ZM327.1,18.2s0,0,0,0c-.7.2-1.4.3-2.1.3,0,0-.1,0-.2.1,0,0,0,.1.2.1.7.1,1.3,0,1.9-.1.3,0,.3-.2.2-.4ZM313.4,7.9c.2-.7.6-1.5.5-2.3,0,0-.1.1-.2.2-.2.6-.4,1.1-.6,1.7,0,.3,0,.3.3.3ZM327.1,17.8c-.7,0-1.4.2-2.1.2,0,0-.1,0-.2,0,0,0,.1.1.2.1.7,0,1.3,0,1.9-.3,0,0,.1,0,.2-.2ZM312.9,6.6v.9s0,0,0,0c.1-.3.2-.6.3-.9h-.4ZM314.3,4.4c.3,0,.4-.1.5-.6,0,0-.2,0-.2,0,0,.2-.1.4-.2.7ZM314.4,6.1c.2-.2.2-.4-.1-.7,0,.2,0,.5.1.7ZM314.7,5.7s0,0,.1,0c0-.2-.1-.4-.2-.6,0,0,0,0,0,0,0,.2.1.4.2.6Z"/>
    <path class="st0" d="M324.3,17.5c0,0,0-.2-.1-.3-.4-1.5-.9-2.9-1.5-4.3-.2-.5-.5-.9-.8-1.4-.1-.2-.2-.4-.1-.6,0-.6.2-1.1.3-1.8-.1,0-.3,0-.4,0,0,0-.2,0-.2-.1,0-.1,0-.7.3-.9,0,.3,0,.5-.1.8.1,0,.2,0,.3,0,.4,0,.4,0,.3.4,0,.6-.2,1.1-.3,1.7,0,0,0,.2,0,.2.9,1.2,1.4,2.6,1.8,4,.2.6.4,1.2.6,1.9,0,0,0,.2,0,.3,0,0,0,0,0,0Z"/>
    <path class="st0" d="M324.5,9.9q-.5.2-.6-.3c0-.4,0-.5.4-.4.3,0,.5,0,.7-.1.3-.2.4-.1.5.2,0,0,0,.1,0,.2,0,.3,0,.4-.4.3,0,0,0,0-.2,0,.2.3.3.6.4.9,0,.1.1.2.2.3,0,.1,0,.3,0,.3-.2.1-.2,0-.3-.2,0-.2-.2-.4-.3-.6,0,0,0,0,0,0,0,.4,0,.7,0,1.1,0,0,0,.2,0,.3,0,0,0,.2-.2.3,0,0-.2-.2-.2-.3,0-.5,0-.9,0-1.4,0-.2,0-.4,0-.6Z"/>
    <path class="st0" d="M314.3,39.8q-.4,0-.4-.4c0,0,0-.1,0-.2,0-.6-.1-.5.6-.5.5,0,.7.3.7.7,0,.3-.2.4-.4.4-.1,0-.3,0-.4,0Z"/>
    <path class="st0" d="M313.9,37.8c0-.6,0-.6.6-.5.3,0,.5.2.5.5,0,.3-.1.4-.5.5,0,0,0,0,0,0-.6.1-.6,0-.6-.5Z"/>
    <path class="st0" d="M330.6,43.5c-.7,0-1.3-.6-1.3-1.3,0-.7.6-1.3,1.3-1.3.7,0,1.3.6,1.3,1.3,0,.7-.6,1.3-1.3,1.3Z"/>
    <path class="st0" d="M327.7,37.2c.3,0,.7,0,1,0,.6.1.9.7.9,1.3,0,.6-.5,1-1.1,1.1q-.9.1-.9-.8c0-.5,0-1,0-1.6,0,0,0,0,0-.1Z"/>
    <path class="st0" d="M311.7,37.3c.2.5.4.9.6,1.3h-1.1c.2-.4.4-.9.6-1.3Z"/>
    <path class="st0" d="M325.1,37.3c.2.5.4.9.6,1.4h-1.1c.2-.4.4-.9.6-1.4Z"/>
    <path class="st0" d="M314.4,41c.2.5.4.9.6,1.4h-1.2c.2-.4.4-.9.6-1.4Z"/>
  </g>
  <g>
    <g>
      <path class="st0" d="M34.5,10.6c1,1.1,1.9,2.3,2.6,3.7s.9,1.9,1,2.3-.4.5-.6.2-.5-1.2-.7-1.6C32.8,6.6,22.6,2.9,13.9,7c-4.2,2-7.3,5.5-8.9,9.8-.1.2-.5.1-.5-.1,0-.5,1.4-3.1,1.7-3.6C12.4,3,26.5,1.8,34.5,10.6Z"/>
      <path class="st0" d="M29.9,13c-6.2-5.5-15.5-4-19.8,3.1-.2.4-.4,1.2-.9,1.1-.5-.1.1-1,.3-1.3,4.9-8.8,17.8-9.1,23.3-.6s1,1.5.8,1.8c-.1,0-.3,0-.4,0s-.6-1.1-.7-1.2c-.7-1.1-1.5-2-2.5-2.9Z"/>
    </g>
    <path class="st0" d="M23.7,16.7c.5.1,1.1.3,1.6.7s.5.3.3.5-1.4-.9-1.9-.8-.4.9-.6,1.2-1.1.8-1.4.6c-.5-.3.9-1.9,1.4-1.9,0-.2-.4-.2-.5-.1-.2,0-.4.5-.6.7-.7.9-.9.6-1.8.9s-.4.4-.4,0,.5-1,.8-1.2l.5-.3c-1.4.1-1.9,1.5-3.5,1.1-.2,0-.9-.4-.5-.6s1.2-.5,1.6-.5,1.1.2,1.5-.1c-.5,0-1.4-.6-1.5-1.2s.4-.2.6-.2c.6,0,2.4.2,2.2,1.1h.7s-.4-.6-.4-.6c-.2-.3-.4-.9,0-1,0,0,.1,0,.2,0,.2.1,1.3,1,1.5,1.1s.2.4.2.6ZM23.4,16.6l-.2-.4-1.3-.9c0,.8.8,1.3,1.5,1.3ZM21.2,16.6c0,0,0-.2,0-.3-.2-.5-1.7-.5-2.2-.6-.1.1.6.6.8.7.4.2,1,.2,1.4.1ZM22.2,16.8c-.2-.1-1.1.5-1.3.6s-.7.7-.6.7c.9,0,1.5-.6,1.9-1.3ZM22,18.5c.7-.1,1.1-.6,1.3-1.3-.5.3-1.1.7-1.3,1.3ZM19.5,17.2c-.7,0-1.3,0-1.9.3s-.2,0-.2.2c.7.2,1.6.1,2.1-.5Z"/>
    <path class="st0" d="M20.3,20.1c1.1.2,1.5,1.4.9,2.2l-1,.4c.5.3.9.7,1.4,1.1s.2,0,.1.2h-1.3c-.1,0-1.3-1.2-1.5-1.4h-.7s0,1.3,0,1.3c-.2.2-.7,0-1,.1v-4c1,0,2.2-.1,3.1,0ZM18.2,21.8h2.1c.2,0,.2-.5.1-.6,0,0-.5-.2-.6-.2h-1.7v.8Z"/>
    <polygon class="st0" points="26.3 20.1 26.3 20.9 23.4 20.9 23.4 21.6 26 21.6 26 22.5 23.4 22.5 23.4 23.2 26.3 23.2 26.3 24.1 22.4 24.1 22.4 20.1 26.3 20.1"/>
    <path class="st0" d="M28.6,20c1-.1,2,.1,2.8.7l-.7.6c-.4-.2-.7-.4-1.1-.4s-1.6-.1-1.3.5c.4.5,2.8,0,3.1,1.1.4,2.1-3.4,1.9-4.3.8l.7-.5c.6.4,1.6.6,2.3.4s.5-.3.3-.5c-.3-.4-2.8.1-3.1-1.1s.5-1.5,1.4-1.6Z"/>
    <path class="st0" d="M4.8,24.1l2.3-3.9h.6c0,0,2.4,3.9,2.4,3.9h-1c-.2-.2-.3-.6-.5-.8s-1.8,0-2.1,0l-.6.8h-1ZM8,22.4c0-.1-.5-.9-.5-.9l-.6.9h1.1Z"/>
    <path class="st0" d="M34,20c.8-.1,2.2,0,2.7.8l-.7.5c-.6-.4-1.4-.6-2.1-.4-1.3.4-1,2.2.4,2.3s1.1-.1,1.7-.4l.7.5c0,.2-.4.4-.5.5-1.7.8-4.3.2-4-2.1.1-.9,1-1.5,1.9-1.6Z"/>
    <path class="st0" d="M16.5,20.9h-2.9v.8h2.7s0,.9,0,.9h-2.7v1.4c-.3,0-.7.1-1-.1v-3.9s3.8,0,3.8,0h0c0,.1,0,.8,0,.8Z"/>
    <path class="st0" d="M1,20.1v3.1h3.2c0,.3.1.7-.1.9H0s0-4,0-4h1Z"/>
    <path class="st0" d="M37.2,24.1l2.3-4h.6s2.3,4,2.3,4h-1c-.3-.3-.3-.8-.8-.8s-1.2,0-1.8,0l-.5.8h-1.1ZM39.3,22.4h1.1s-.5-.9-.5-.9c-.1,0,0,0-.1,0-.2.3-.3.5-.5.8Z"/>
    <path class="st0" d="M38.7,25.9c0,.1,0,.3,0,.4-.3,2.6-2.5,6.4-4.3,8.3-9.3,10.2-26.2,6.6-30.4-6.5,0-.3-.4-1.4-.4-1.5s.3-.4.5-.2.4,1.1.4,1.4c1.9,5.7,6.3,10.2,12.2,11.7,9.3,2.4,18.4-3.1,21-12.2.1-.5.1-1.6.8-1.2Z"/>
    <path class="st0" d="M12,31.7c6.5,6.5,17.5,4.5,21.2-3.9.1-.3.5-1.4.6-1.6s0-.1.2-.1c.2,0,.4,0,.4.2s-.4,1.3-.5,1.6c-4.2,9.9-17.7,11.2-23.8,2.3-.6-.9-1.7-2.8-1.8-3.8,0-.5.4-.7.6-.3s.4,1.3.7,1.9c.6,1.3,1.6,2.7,2.6,3.7Z"/>
    <path class="st0" d="M25.9,37.5c-.2.2.5,1.1,0,1l-.6-1.9c.7-.6,2-.3,1.3.8,0,.2.7.5.6.7-.1.5-.9-.7-1.2-.5ZM26.3,37c.2-.6-.3-.6-.8-.4v.6c.1,0,.8-.2.8-.2Z"/>
    <path class="st0" d="M15.3,36.7c-.1.1-.3,0-.5,0v1c0,0-.3,0-.3,0,0-.4,0-.9-.3-1.1,0,0-.3.9-.6.8,0-.1,0-.2,0-.4,0-.2.5-1.3.6-1.4.2-.3,1,0,1.1.3s0,.6-.1.7ZM14.5,35.9l-.2.5c.2.1.5.3.7.1v-.2c.2-.2-.4-.5-.5-.4Z"/>
    <path class="st0" d="M23.5,36.8c.7-.1.9.4.9,1s0,.7-.2,1c-.5.4-1,.1-1.2-.4s-.3-1.4.5-1.6ZM23.6,37.1c-.6,0-.4,1.2-.2,1.4s.6.2.7,0,0-1.3-.5-1.3Z"/>
    <path class="st0" d="M17.3,36.5v2.1c.1,0,0,0,0,0-.2-.4,0-.6-.6-.6s-.3.3-.6.3c-.1,0-.1,0,0-.2s.9-1.4,1-1.5.2-.2.4-.1ZM17.1,37c-.2,0-.1,0-.2,0s-.4.6-.3.6h.5c0,0,0-.7,0-.7Z"/>
    <path class="st0" d="M30.8,36.1c-.4,0-.3-.3-.7-.2-.7.3,0,.6-.5.9-.1,0-.6-2.1-.5-2.2.1,0,.2,0,.3,0s1.3,1,1.4,1.1,0,.2,0,.3ZM29.4,35.2c.1.4.1,1.1.6.5l-.6-.5Z"/>
    <path class="st0" d="M21.5,37.3v1.8s-.2,0-.2,0c-.3-.1,0-1.5-.1-1.8h-.4s-.1-.2-.1-.2c.2,0,1.3-.2,1.3,0v.2c0,0-.5,0-.5,0Z"/>
    <path class="st0" d="M13.5,34.9c.2.4-.3.2-.5,0-.2.4-.6,1.1-.9,1.4s-.1.1-.2,0c0,0,0-.2,0-.3.1-.3.8-1,.8-1.2,0-.2-.5-.3-.3-.5s1.1.5,1.1.6Z"/>
    <path class="st0" d="M19.3,37.2c0,.5,0,1.1-.2,1.6s-.3.3-.3,0c0-.4.2-1,.2-1.5,0-.2-.6,0-.5-.4.3,0,1.2,0,1.3.2v.2s-.5,0-.5,0Z"/>
    <path class="st0" d="M28.5,37.5c-.1,0-.2,0-.3,0s-.8-1.5-.8-1.6,0-.1,0-.2c.1,0,.2,0,.2.1.1.2.6,1.2.7,1.5s0,.2,0,.3Z"/>
  </g>
  <g>
    <g>
      <path class="st0" d="M269.7,37.3c.4-.4.8-.8,1.3-1.2s1.9-1.5,2.6-.9c.5.4.3,1,0,1.4s-.4.6-.3.7c.9,0,1.7-.4,2.5-.7.4-.2.9-.5,1.2-.9s.5-.5.9-.7.9-.2,1.2.2c.5.6.2,1.1,0,1.8,1.1,0,2.1-.2,3-.8.4-.2,1.3-.9,1.6-.9s.3.2.2.4c-.4.7-2.6,1.7-3.4,1.8s-1.1,0-1.6.2c-.1,0-.1.1-.2.2-.5.7-1.5,1.4-2.2.8s-.5-1.3-.2-1.9c-.6.4-1.3.7-2,.8s-1.5,0-2.1.4-.8.5-1.4.6-1.4-.1-.7-.7,1.2-.3,1.8-.6.9-.9,1-1.3c.2-.7-.5-.3-.8-.2-.9.5-1.8,1.5-2.5,2.3s-.9,1.1-1.2,1.1-.2-.4-.2-.6c.2-.6.5-1.2.7-1.8l-1.4,1.1c-.7.4-1.5.9-2.3.8-1.3-.2-.2-2-.2-2.9,0,0-.7.3-.7.4-.6.4-1.3,1.1-1.9,1.4-1.1.4-.5-1.4-.6-1.9s-.6.2-.7.3c-.9.7-1.6,1.6-2.4,2.3s-.4.3-.6.2-.1-.5,0-.7c0-.5.3-.9.4-1.4-.9.6-2,1.1-3.1,1.1-.3,0-.7,0-1,0-.1,0-.1.2-.2.2-.5.7-1.5,1.4-2.2.8s0-2.3.5-3,1.7-1.4,2.3-.4c.3.5,0,1.1-.1,1.6,1.1,0,2.1-.2,3-.8s.9-.6,1.3-.8c0-.2.3-.7.5-.7s.2,0,.2.1c0,.2-.1.7-.2.9-.2.5-.4.9-.6,1.4.7-.5,1.2-1.2,1.9-1.6s.9-.6,1.4-.4.3,1.4.3,1.9c.6-.4,1.2-1,1.9-1.4s1-.5,1.3-.2.2.5.1.8c-.1.5-.3,1.1-.4,1.6s.4.4.8.3c1.3-.4,2.4-1.8,3.5-2.6,1-2,2.1-4,3.3-5.8s.5-.9.7-1,.6,0,.5.2-.4.7-.5,1c-1.3,2.2-2.6,4.3-3.7,6.6-.1.2-.2.5-.3.7ZM254.2,36.5c0-.2,0-.7-.1-.8-.4-.2-.9.5-.7.9,0,.2.5.6.7.4s.1-.3.1-.4,0,0,0,0ZM278.8,36.5c0-.2,0-.7-.1-.8-.4-.2-.9.5-.7.9s.5.6.7.4.1-.3.1-.4,0,0,0,0ZM252.7,36.6c-.2.4-.7,1.2-.5,1.7s.3.2.5.1c.4-.1.7-.5,1-.8-.4-.2-.8-.5-1-1ZM277.3,36.6c-.2.4-.7,1.2-.5,1.7s.3.2.5.1c.4-.1.7-.5,1-.8-.4-.2-.8-.5-1-1Z"/>
      <g>
        <path class="st0" d="M238,36.8c-.5.4-1,.8-1.5,1.2s-1.5,1-2.2.7-.5-.4-.6-.6c-.2-1.2.2-1.9.5-3s0-.2,0-.2c-.7.9-1.3,1.8-2.1,2.6s-.6.5-1,.6-1,0-1-.8c0-.9,1.1-2.5,2-2.6s.8.3,1.1.6c.6-.8,1.1-1.7,1.7-2.5s1.4-2.5,2.2-3.6.4-.7.7-.6.2.4,0,.6c-.2.5-.6,1-.9,1.5-.9,1.7-2,4.2-2.5,6.1,0,.3-.3,1.2.1,1.3s1.6-.7,2.1-1.1c.9-.7,2.1-1.9,3.1-2.1.8-.2,1.3.5.7,1.2s-.8.5-1.3.6-.5-.1-.6.3c0,.7.2,1,.8,1.1,1.9.2,3.5-1.8,5-2.7.1,0,.5-.3.5,0s-.5.7-.6.8c-1,.9-2.7,2.3-4,2.5s-2.6-.3-2.2-1.8ZM232.2,35.4c-.5,0-1.2,1.4-1.4,1.9s0,.5.3.3,1.3-1.2,1.5-1.5,0-.3-.1-.5-.2-.2-.4-.2ZM240.2,35.4c0,0-.7.3-.8.4,0-.1-.2.1-.2.2,0,.2.5,0,.6,0s.4-.3.3-.5Z"/>
        <path class="st0" d="M248.1,35.1c-.4,0-.9-.2-.9-.7,0-.8,1.4-1.4,2-1.5.5-.9,1-1.9,1.5-2.7s.3-.6.5-.8.3-.4.6-.2,0,.7-.2.9c-.5.9-1.1,1.8-1.6,2.7.4,0,.8-.1,1.1,0s.4.7,0,.6-.2-.1-.3,0l-1.1.2c-.2.3-.4.7-.5,1,1.8-.3,3.6-1.2,5-2.5s1.9-2.3,0-2.9c-1.3-.4-3.2-.2-4.5.3s-2.5,1.3-2.9,2.3-.1.9-.5.7-.1-.7,0-1c.7-1.6,3.3-3,4.8-3.1,1.3-.1,3.9-.2,4.7,1.1.9,1.5-1,3-2,3.8-1.5,1.1-2.9,1.6-4.6,1.9s-.2,0-.4.3c-.3.5-.6,1.3-.8,1.9s-.3.9-.3,1.1,0,.2,0,.4c-.2.3-.7.2-.6-.3s.4-1.3.6-1.7.2-.6.4-.9.3-.7.3-.7ZM248.7,33.8c0,0-.7.3-.8.4s-.2.2-.2.3.5.1.6,0l.4-.8Z"/>
      </g>
    </g>
    <g>
      <path class="st0" d="M251,21h6.4c.7.2.7,1.3,0,1.4h-6.3c-.7-.2-.7-1.2,0-1.4Z"/>
      <g>
        <path class="st0" d="M259.6,7.9c.5,0,1,.4,1.3.9.8,0,1.6,0,2.3,0,2.4.2,3.4,3.7,1.5,5.4-1.1,1.1-2.5.7-3.8.7-.2.4-.5.7-.8.8s-.4.1-.4.1h-10.6v-.8h10.5c.4,0,.8-.6.8-1.1s-.4-1.1-.8-1.1h-10.5v-.8h10.6s.2,0,.3,0c.5.2.9.6,1,1.1.6,0,1.3,0,1.9,0,1.8-.2,1.8-2.9,0-3.2h-2c0,.5-.4.9-.8,1.1s-.4.2-.5.2h-10.7v-.8h10.6c.3,0,.7-.5.7-.7.2-.6-.2-1.4-.8-1.4h-10.5v-.8h10.6Z"/>
        <path class="st0" d="M249,10.1v-.7h10.2c.2,0,.3.4.2.6s-.1.1-.2.1h-10.3Z"/>
        <path class="st0" d="M249,14.5v-.7h10.3s.1,0,.2.1c.1.2,0,.6-.2.6h-10.2Z"/>
      </g>
      <g>
        <path class="st0" d="M249,20.3v-.8h10.5c0,0,.3,0,.4-.1.6-.4.7-1.4,0-1.8s-.3-.2-.3-.2h-10.6s0,0,0,0v-.7h10.7c0,0,.5.2.6.2,1,.6,1.1,2.2.2,3s-.6.4-.9.4h-10.5Z"/>
        <path class="st0" d="M249,18.8v-.7h10.3s.1,0,.2.1c0,.1,0,.3,0,.4s-.2.2-.3.2h-10.2Z"/>
      </g>
    </g>
    <g>
      <path class="st0" d="M243.5,24.3c.5,0,.8.8.4,1.2h-.2c.6.3.7,1.4.2,1.7s-.3.1-.3.1h-1.5v-3h1.5ZM243.2,24.8c-.2,0-.4,0-.7,0v.7h.7s.2,0,.2-.1c.2-.3,0-.6-.3-.6ZM243.2,26c-.2,0-.4,0-.7,0v.9h.8c.2,0,.3-.2.3-.4,0-.3-.3-.4-.5-.4Z"/>
      <path class="st0" d="M246.9,24.3c.9.1,1,1.5.2,1.8l.6,1.2h-.6l-.5-1.1h-.5v1.1h-.5v-3c.4,0,.9,0,1.3,0ZM246.1,25.8c.3,0,.9.1,1-.4s-.2-.5-.4-.5h-.6v.9Z"/>
      <path class="st0" d="M253.7,24.3c.8.1,1,1.5.2,1.8l.6,1.2h-.6c-.1-.1-.5-1.1-.6-1.1h-.4v1.1h-.5v-3c.4,0,.9,0,1.3,0ZM253,25.8c.3,0,1,.1,1-.5s-.2-.5-.4-.5h-.6v.9Z"/>
      <polygon class="st0" points="251 24.3 251 24.8 249.6 24.8 249.6 25.5 250.9 25.5 250.9 25.6 250.9 26 249.6 26 249.6 26.8 251.1 26.8 251.1 27.3 249 27.3 249 24.3 251 24.3"/>
      <polygon class="st0" points="274.1 24.3 274.1 24.8 272.7 24.8 272.7 25.5 274 25.5 274 25.6 274 26 272.7 26 272.7 26.8 274.2 26.8 274.2 27.3 272.1 27.3 272.1 24.3 274.1 24.3"/>
      <path class="st0" d="M264.8,25.2h-.5c0,0,0,0,0,0-.2-.3-.5-.4-.8-.3-.5.2-.6,1.1-.4,1.5.3.7,1.1.7,1.3,0,0,0,.5.2.5.2,0,0-.2.4-.3.5-.5.6-1.4.6-1.9,0-.4-.6-.4-1.7,0-2.2.6-.8,1.9-.6,2.1.5Z"/>
      <path class="st0" d="M265.6,27.3l1-3h.6s.9,3,.9,3h-.6v-.6c-.1,0-1.2,0-1.2,0v.6h-.7ZM267.2,26.3l-.4-1.4-.4,1.4h.7Z"/>
      <path class="st0" d="M259.8,27.3h-.5c0-.2-.1-.4-.2-.6,0,0-.9,0-1,0l-.2.6h-.6l.9-3c.1,0,.6,0,.6,0l.9,3ZM258.2,26.3h.7l-.4-1.3-.4,1.3Z"/>
      <polygon class="st0" points="271 24.3 271 24.8 269.7 24.8 269.7 24.9 269.7 25.5 269.7 25.6 270.9 25.6 270.9 26.1 269.7 26.1 269.7 27.3 269.2 27.3 269.2 24.3 271 24.3"/>
      <polygon class="st0" points="237.7 26.8 238.8 26.8 238.8 27.3 237.2 27.3 237.2 24.3 237.2 24.3 237.7 24.3 237.7 24.3 237.7 26.8"/>
      <rect class="st0" x="239.9" y="24.3" width=".5" height="3"/>
      <rect class="st0" x="255.7" y="24.3" width=".5" height="3"/>
      <rect class="st0" x="260.8" y="25.7" width=".5" height=".6"/>
      <path class="st0" d="M256.5,23.5c0,0,0,0,0,0,0,0-.3.4-.3.4-.1,0-.3,0-.4,0l.2-.5h.5Z"/>
      <path class="st0" d="M273.6,23.5c0,0,0,0,0,0,0,0-.3.4-.3.4,0,0-.3,0-.4,0,0,0,.2-.4.2-.5h.6Z"/>
    </g>
  </g>
  <g>
    <path class="st0" d="M71.4,22c-1-1-1.4-2.2-1.4-3.8s.5-2.8,1.4-3.8c1-1,2.2-1.4,3.8-1.4s2.4.3,3.4,1l.3,2h-.1c-.2-.8-.6-1.5-1.3-1.9s-1.4-.7-2.3-.7c-1.3,0-2.3.4-3,1.3-.8.9-1.1,2-1.1,3.5s.4,2.6,1.1,3.5c.7.9,1.7,1.3,2.9,1.4,1.1,0,2-.3,2.7-.9.8-.6,1.2-1.7,1.4-3.1h.1l-.2,2.3c-.9,1.4-2.2,2.1-4,2.1-1.5,0-2.7-.5-3.7-1.5Z"/>
    <path class="st0" d="M89.8,23.1h.1c0,.1-3.2.1-3.2.1h0c0-.1.1-.1.1-.1.2,0,.4,0,.5-.2.1-.1.2-.3.2-.4s0-.2,0-.3l-.9-2.4h-3.9l-1,2.5c0,.1,0,.2,0,.3s0,.2.2.4c.1.1.3.2.5.2h.1c0,.1-2.9.1-2.9.1h0c0-.1.1-.1.1-.1.2,0,.5,0,.7-.2s.4-.4.6-.7l3.2-7.7c.4-.8.5-1.3.5-1.5h.1l3.9,9.2c.1.3.3.5.5.7.2.2.5.2.7.2ZM82.7,19.3h3.5l-1.7-4.6-1.8,4.6Z"/>
    <path class="st0" d="M90.3,22.6c0-.1,0-.4,0-.8s0-.8.2-1.2h.1c0,.1,0,.2,0,.3,0,.6.2,1.1.5,1.5s.8.6,1.4.6,1.1-.2,1.5-.5c.4-.4.6-.8.6-1.4s-.2-1-.6-1.3l-2.8-2.6c-.5-.5-.8-1.1-.8-1.7s.2-1.3.7-1.7c.5-.5,1.1-.7,1.8-.7s.8,0,1.2.1h.6v1.8h-.1c0-.5-.2-.8-.5-1.1-.3-.3-.7-.4-1.2-.4s-.9.2-1.2.5c-.3.3-.5.7-.5,1.2s.2.9.6,1.3l2.8,2.6c.5.4.7,1,.7,1.8s-.2,1.4-.7,1.9c-.5.5-1.1.7-2,.7s-.9,0-1.3-.2c-.5-.1-.8-.3-1.1-.6Z"/>
    <path class="st0" d="M106.3,23.1h.1c0,.1-3.2.1-3.2.1h0c0-.1.1-.1.1-.1.2,0,.4,0,.5-.2.1-.1.2-.3.2-.4s0-.2,0-.3l-.9-2.4h-3.9l-1,2.5c0,.1,0,.2,0,.3s0,.2.2.4c.1.1.3.2.5.2h.1c0,.1-2.9.1-2.9.1h0c0-.1.1-.1.1-.1.2,0,.5,0,.7-.2s.4-.4.6-.7l3.2-7.7c.4-.8.5-1.3.5-1.5h.1l3.9,9.2c.1.3.3.5.5.7.2.2.5.2.7.2ZM99.2,19.3h3.5l-1.7-4.6-1.8,4.6Z"/>
    <path class="st0" d="M67,26.6c0-.2,0-.4-.2-.6-.2-.2-.4-.3-.6-.3h-2.7v8.6c0,.2.1.5.3.6.2.2.4.3.6.3h.2c0,.1-3.1.1-3.1.1h0c0-.1.2-.1.2-.1.2,0,.5,0,.6-.3.2-.2.3-.4.3-.6v-8.6h-2.7c-.2,0-.4,0-.6.3-.2.2-.2.4-.2.6v.2h-.1s0-1.8,0-1.8c.1,0,.4.1.7.2.4,0,.7,0,1,0h4.9c.5,0,.9,0,1.2-.1s.5-.1.6-.2v1.8h-.1v-.3Z"/>
    <path class="st0" d="M70.9,25.7h-.9v8.6c0,.2,0,.5.3.6.2.2.4.3.7.3h.2c0,.1-3.1.1-3.1.1h0c0-.1.2-.1.2-.1.2,0,.5,0,.6-.3.2-.2.3-.4.3-.6v-8c0-.2-.1-.5-.3-.6-.2-.2-.4-.3-.6-.3h-.2c0-.1,3.9-.1,3.9-.1.9,0,1.6.2,2.1.7s.7,1.1.7,1.9-.2,1.4-.7,2c-.5.6-1.1.8-1.7.8.1,0,.3.2.5.4.2.2.4.4.5.6.8,1.2,1.4,1.9,1.6,2.2.2.3.4.5.5.6.1.1.2.2.3.3.1,0,.2.2.4.2.3.1.6.2.9.2h0c0,.1-.8.1-.8.1-.4,0-.8,0-1.1-.2-.4-.1-.6-.3-.8-.5-.2-.2-.3-.3-.5-.5s-.5-.6-1.1-1.5c-.6-.8-.9-1.3-1-1.4,0-.1-.2-.2-.3-.4-.3-.3-.6-.5-.9-.5h0c0-.1.2-.1.3-.1s.3,0,.5,0c1.2,0,1.9-.5,2.2-1.5,0-.2,0-.4,0-.5v-.3c0-.6-.2-1.2-.5-1.6s-.7-.6-1.3-.6c-.2,0-.5,0-.9,0Z"/>
    <path class="st0" d="M77.2,35.2c.2,0,.5,0,.6-.3.2-.2.3-.4.3-.6v-8c0-.2-.1-.5-.3-.6-.2-.2-.4-.3-.6-.3h-.2c0-.1,3.1-.1,3.1-.1h0c0,.1-.2.1-.2.1-.2,0-.5,0-.6.3-.2.2-.3.4-.3.6v8c0,.2,0,.5.3.6.2.2.4.3.6.3h.2c0,.1-3.1.1-3.1.1h0c0-.1.2-.1.2-.1Z"/>
    <path class="st0" d="M91,35.2h.1c0,.1-3.2.1-3.2.1h0c0-.1.1-.1.1-.1.2,0,.4,0,.5-.2.1-.1.2-.3.2-.4s0-.2,0-.3l-.9-2.4h-3.9l-1,2.5c0,.1,0,.2,0,.3s0,.2.2.4c.1.1.3.2.5.2h.1c0,.1-2.9.1-2.9.1h0c0-.1.1-.1.1-.1.2,0,.5,0,.7-.2s.4-.4.6-.7l3.2-7.7c.4-.8.5-1.3.5-1.5h.1l3.9,9.2c.1.3.3.5.5.7.2.2.5.2.7.2ZM83.9,31.4h3.5l-1.7-4.6-1.8,4.6Z"/>
    <path class="st0" d="M100.1,26.7c1,.9,1.4,2.1,1.4,3.6s-.5,2.7-1.4,3.6c-1,.9-2.2,1.4-3.7,1.4h-4.9c0-.1.2-.1.2-.1.2,0,.5,0,.6-.3.2-.2.3-.4.3-.6v-8c0-.2,0-.4-.3-.6-.2-.2-.4-.2-.6-.2h-.2c0-.1,4.9-.1,4.9-.1,1.5,0,2.8.5,3.7,1.4ZM93.5,25.7v9.2h2.8c.8,0,1.5-.2,2.1-.6.6-.4,1.1-.9,1.4-1.6.3-.7.5-1.5.5-2.4,0-1.4-.4-2.5-1.1-3.3-.8-.8-1.7-1.3-3-1.3h-2.8Z"/>
    <path class="st0" d="M111.7,35.2h.1c0,.1-3.2.1-3.2.1h0c0-.1.1-.1.1-.1.2,0,.4,0,.5-.2.1-.1.2-.3.2-.4s0-.2,0-.3l-.9-2.4h-3.9l-1,2.5c0,.1,0,.2,0,.3s0,.2.2.4c.1.1.3.2.5.2h.1c0,.1-2.9.1-2.9.1h0c0-.1.1-.1.1-.1.2,0,.5,0,.7-.2s.4-.4.6-.7l3.2-7.7c.4-.8.5-1.3.5-1.5h.1l3.9,9.2c.1.3.3.5.5.7.2.2.5.2.7.2ZM104.6,31.4h3.5l-1.7-4.6-1.8,4.6Z"/>
  </g>
  <g>
    <g>
      <path class="st0" d="M180.1,13.1l-1.1,3.7.7.3c.7-1.6,1.2-2.4,2.9-2.2l1.8.3-1.8,10.2c0,.5-.5.8-.9.8h-1.3s0,.8,0,.8c0,0,2.1.1,3.4.4,1.3.2,3.3.8,3.3.8l.3-.8-1.2-.4c-.4-.2-.7-.6-.6-1.1l1.8-10.2,1.8.4c1.7.4,1.9,1.3,1.9,3.1h.8s.3-3.8.3-3.8c0,0-3.7-.4-6-.8s-5.9-1.3-5.9-1.3Z"/>
      <path class="st0" d="M157.1,27c-.5,0-.9-.3-1-.7s-2.4-9.2-2.4-9.2c-.1-.4.1-.9.5-1.1l1.2-.5-.3-.7s-2,.7-3.3,1c-1.3.3-3.4.6-3.4.6v.8c0,0,1.4-.1,1.4-.1.5,0,.9.3,1,.7l2.4,9.2c.1.4-.1.9-.5,1.1l-1.2.5.3.7s2-.7,3.3-1c1.3-.3,3.4-.6,3.4-.6v-.8c0,0-1.4.1-1.4.1Z"/>
      <path class="st0" d="M173.6,13.3c-1.1,0-2.1,0-2.1,0v.8c-.1,0,.8.1.8.1.6,0,.9.6.9,1l.2,7-7-8.8s-1.3,0-2.4.1c-1.1,0-2.4,0-2.4,0v.8c1.3,0,1.8.3,1.8,1.1l.3,9.6c0,.5-.2,1-.8,1.1l-.9.2v.8c.1,0,1.2-.1,2.3-.2,1.1,0,2.1,0,2.1,0v-.8c.1,0-.8-.1-.8-.1-.6,0-.9-.6-.9-1l-.3-8.9,8.4,10.6h1.7c0,0-.3-11.5-.3-11.5,0-.5.2-1,.8-1.1l.9-.2v-.8c-.1,0-1.2.1-2.3.2Z"/>
      <path class="st0" d="M147.3,26.3c.1,1.7-.3,3.3-2,4-2.6,1.1-4.7,0-6.1-3.4-1.6-3.8-1.2-6.1,1-7,2.4-1,4.4.2,5.4,2.6l.8-.4-1.9-4.5-.8.3.4.9c-.9-.2-2.6-.4-4.6.4-3.4,1.4-5.2,5.1-3.7,8.8,1.6,3.8,5.2,5.3,9.1,3.7,2.7-1.1,3.6-2.8,3.3-5.9l-1,.4Z"/>
      <path class="st0" d="M202.8,19.1c-3.1-1.7-7.1-1-9.2,2.5-2.2,3.8-.6,7.3,2.5,9,3.1,1.7,7.1.9,9.1-2.6,2.2-3.8.6-7.3-2.5-9ZM202.6,26.6c-2,3.5-4,4.3-6,3.2-2-1.1-2.4-3.2-.3-6.7,2-3.5,4-4.2,6-3.1,2,1.1,2.3,3.2.3,6.6Z"/>
    </g>
    <g>
      <path class="st0" d="M152.3,34.7c-.3.6-.7.8-1.3.8s-.5,0-.8-.2-.4-.3-.6-.5c-.1-.2-.2-.5-.2-.8s0-.4.1-.6c0-.2.2-.4.3-.5s.3-.3.5-.4.4-.1.7-.1.6,0,.8.2c.2.1.3.3.3.5s0,.2-.1.3c0,0-.2.1-.2.1s-.2,0-.2,0c0,0,0,0,0-.1s0-.1,0-.2c0-.1,0-.2-.1-.2,0,0-.2,0-.3,0-.2,0-.4,0-.5.2-.2.2-.2.5-.2.9s0,.4,0,.6c0,.2.2.3.3.5.1.1.3.2.5.2s.4,0,.5-.2c.1-.1.2-.3.3-.4h.3Z"/>
      <path class="st0" d="M156,34.6c0,.2,0,.3-.1.5,0,.1-.2.2-.3.3-.1,0-.2,0-.4,0s-.3,0-.5-.1c-.1,0-.2-.2-.2-.3-.4.3-.7.5-1.1.5s-.4,0-.6-.2-.2-.3-.2-.5,0-.3.1-.5c0-.1.2-.3.4-.4.2-.1.3-.2.6-.3.2,0,.5-.2.8-.3v-.2c0-.2,0-.3-.1-.4,0,0-.2-.1-.4-.1s-.3,0-.4.1c0,0-.1.2-.1.3,0,.1,0,.2,0,.3s-.1.1-.3.1-.2,0-.2,0c0,0-.1-.1-.1-.2,0-.2.1-.4.3-.6.2-.2.6-.2,1-.2s.8,0,1,.3c.2.2.3.4.3.7v1.1c0,.1,0,.2,0,.3,0,0,0,.1,0,.1s0,0,.1,0,.1,0,.1,0c0,0,0-.1,0-.2h.2ZM154.5,34.7v-.9c-.4.1-.7.3-.8.4-.1.1-.2.3-.2.4s0,.2,0,.3.1,0,.3,0,.2,0,.3,0c0,0,.2-.1.3-.2Z"/>
      <path class="st0" d="M159.7,35.4h-1.7v-.3c.1,0,.2,0,.3,0,0,0,0,0,.1-.2,0,0,0-.2,0-.3v-1c0-.2,0-.4,0-.5,0-.1-.2-.2-.3-.2s-.4,0-.5.3c-.1.2-.2.4-.2.7v.8c0,.2,0,.3,0,.4,0,0,.2.1.3.1v.3h-1.7v-.3c.1,0,.2,0,.3,0,0,0,.1,0,.1-.1,0,0,0-.2,0-.3v-1.1c0-.2,0-.3,0-.3s-.2,0-.4,0v-.3l1.3-.3c0,.1,0,.3,0,.4s0,0,0,0c0,0,0,0,0,0,.1-.2.3-.3.4-.4.1,0,.3-.1.5-.1s.4,0,.5.1c.1,0,.3.2.3.3,0,.1.1.3.1.5v1.2c0,.2,0,.3,0,.4,0,0,.2.1.4.1v.3Z"/>
      <path class="st0" d="M162.2,34.7c-.1.3-.3.5-.4.6s-.3.2-.5.2-.4,0-.6-.2-.2-.2-.2-.4,0-.3,0-.5v-1.7h-.5v-.3c.2,0,.4,0,.5-.1.2,0,.3-.2.4-.3s.1-.3.2-.5h.3v.9h.9v.3h-.9v1.7c0,.2,0,.4,0,.4,0,0,0,.1.2.1s.2,0,.3-.1c0,0,.1-.2.2-.3h.3Z"/>
      <path class="st0" d="M164.1,35.4h-1.8v-.3h0c.1,0,.2,0,.3,0,0,0,0,0,.1-.2,0,0,0-.2,0-.3v-1c0-.1,0-.2,0-.3,0,0,0-.1-.1-.1s-.2,0-.3,0v-.3l1.3-.3v2.2c0,.2,0,.3,0,.4,0,0,.2.1.4.1v.3ZM163.7,31c0,.1,0,.3-.1.4,0,.1-.2.1-.3.1s-.2,0-.3-.2c0-.1-.1-.2-.1-.4s0-.3.1-.4c0-.1.2-.2.3-.2s.2,0,.3.1c0,0,.1.2.1.4Z"/>
      <path class="st0" d="M168,35.4h-1.7v-.3c.1,0,.2,0,.3,0,0,0,0,0,.1-.2,0,0,0-.2,0-.3v-1c0-.2,0-.4,0-.5,0-.1-.2-.2-.3-.2s-.4,0-.5.3c-.1.2-.2.4-.2.7v.8c0,.2,0,.3,0,.4,0,0,.2.1.3.1v.3h-1.7v-.3c.1,0,.2,0,.3,0,0,0,.1,0,.1-.1,0,0,0-.2,0-.3v-1.1c0-.2,0-.3,0-.3s-.2,0-.4,0v-.3l1.3-.3c0,.1,0,.3,0,.4s0,0,0,0c0,0,0,0,0,0,.1-.2.3-.3.4-.4.1,0,.3-.1.5-.1s.4,0,.5.1c.1,0,.3.2.3.3,0,.1.1.3.1.5v1.2c0,.2,0,.3,0,.4,0,0,.2.1.4.1v.3Z"/>
      <path class="st0" d="M171.7,34.6c0,.2,0,.3-.1.5,0,.1-.2.2-.3.3-.1,0-.2,0-.4,0s-.3,0-.5-.1c-.1,0-.2-.2-.2-.3-.4.3-.7.5-1.1.5s-.4,0-.6-.2-.2-.3-.2-.5,0-.3.1-.5c0-.1.2-.3.4-.4.2-.1.3-.2.6-.3.2,0,.5-.2.8-.3v-.2c0-.2,0-.3-.1-.4,0,0-.2-.1-.4-.1s-.3,0-.4.1c0,0-.1.2-.1.3,0,.1,0,.2,0,.3s-.1.1-.3.1-.2,0-.2,0c0,0-.1-.1-.1-.2,0-.2.1-.4.3-.6.2-.2.6-.2,1-.2s.8,0,1,.3c.2.2.3.4.3.7v1.1c0,.1,0,.2,0,.3,0,0,0,.1,0,.1s0,0,.1,0,.1,0,.1,0c0,0,0-.1,0-.2h.2ZM170.2,34.7v-.9c-.4.1-.7.3-.8.4-.1.1-.2.3-.2.4s0,.2,0,.3.1,0,.3,0,.2,0,.3,0c0,0,.2-.1.3-.2Z"/>
      <path class="st0" d="M176.3,34.7c-.3.6-.7.8-1.3.8s-.5,0-.8-.2-.4-.3-.6-.5c-.1-.2-.2-.5-.2-.8s0-.4.1-.6c0-.2.2-.4.3-.5s.3-.3.5-.4.4-.1.7-.1.6,0,.8.2c.2.1.3.3.3.5s0,.2-.1.3c0,0-.2.1-.2.1s-.2,0-.2,0c0,0,0,0,0-.1s0-.1,0-.2c0-.1,0-.2-.1-.2,0,0-.2,0-.3,0-.2,0-.4,0-.5.2-.2.2-.2.5-.2.9s0,.4,0,.6c0,.2.2.3.3.5.1.1.3.2.5.2s.4,0,.5-.2c.1-.1.2-.3.3-.4h.3Z"/>
      <path class="st0" d="M180,34.6c0,.2,0,.3-.1.5,0,.1-.2.2-.3.3-.1,0-.2,0-.4,0s-.3,0-.5-.1c-.1,0-.2-.2-.2-.3-.4.3-.7.5-1.1.5s-.4,0-.6-.2-.2-.3-.2-.5,0-.3.1-.5c0-.1.2-.3.4-.4.2-.1.3-.2.6-.3.2,0,.5-.2.8-.3v-.2c0-.2,0-.3-.1-.4,0,0-.2-.1-.4-.1s-.3,0-.4.1c0,0-.1.2-.1.3,0,.1,0,.2,0,.3s-.1.1-.3.1-.2,0-.2,0c0,0-.1-.1-.1-.2,0-.2.1-.4.3-.6.2-.2.6-.2,1-.2s.8,0,1,.3c.2.2.3.4.3.7v1.1c0,.1,0,.2,0,.3,0,0,0,.1,0,.1s0,0,.1,0,.1,0,.1,0c0,0,0-.1,0-.2h.2ZM178.5,34.7v-.9c-.4.1-.7.3-.8.4-.1.1-.2.3-.2.4s0,.2,0,.3.1,0,.3,0,.2,0,.3,0c0,0,.2-.1.3-.2Z"/>
      <path class="st0" d="M183,32.9c0,.1,0,.2-.1.3,0,0-.2.1-.3.1s-.2,0-.3-.2c0,0,0-.1-.1-.1,0,0,0,0-.1,0-.2,0-.3,0-.4.3,0,.2-.1.4-.1.6v.6c0,.2,0,.3,0,.4,0,0,.2.1.4.1h.2v.3h-2v-.3h.2c.2,0,.3,0,.3-.1,0,0,0-.2,0-.4v-1c0-.2,0-.3,0-.3,0,0,0-.1-.2-.1,0,0-.2,0-.4,0v-.3l1.3-.3c0,.1,0,.4,0,.8,0-.1.1-.3.2-.4s.2-.2.3-.3c.1,0,.2-.1.4-.1s.3,0,.4.2c.1.1.2.2.2.4Z"/>
      <path class="st0" d="M185,35.4h-1.8v-.3h0c.1,0,.2,0,.3,0,0,0,0,0,.1-.2,0,0,0-.2,0-.3v-1c0-.1,0-.2,0-.3,0,0,0-.1-.1-.1s-.2,0-.3,0v-.3l1.3-.3v2.2c0,.2,0,.3,0,.4,0,0,.2.1.4.1v.3ZM184.6,31c0,.1,0,.3-.1.4,0,.1-.2.1-.3.1s-.2,0-.3-.2c0-.1-.1-.2-.1-.4s0-.3.1-.4c0-.1.2-.2.3-.2s.2,0,.3.1c0,0,.1.2.1.4Z"/>
      <path class="st0" d="M188.8,33.9c0,.2,0,.4-.1.6,0,.2-.2.4-.3.5-.1.1-.3.3-.5.3s-.4.1-.6.1-.4,0-.6-.1c-.2,0-.3-.2-.4-.4-.2.2-.3.4-.4.5h-.3v-3.9c0-.1,0-.2,0-.3,0,0,0-.1-.1-.1,0,0-.2,0-.3,0v-.3l1.3-.3v2.3c.1-.1.2-.2.4-.3.1,0,.3-.1.6-.1s.4,0,.6.1c.2,0,.3.2.4.4.1.1.2.3.3.5,0,.2,0,.4,0,.6ZM187.9,33.9c0-.3,0-.6-.1-.8,0-.2-.3-.3-.5-.3s-.2,0-.3,0c0,0-.2,0-.3.2,0,0-.2.2-.2.2v1.4c.1.2.3.3.4.3s.2,0,.3,0c.2,0,.3,0,.4-.2.1-.1.2-.3.2-.5,0-.2,0-.4,0-.6Z"/>
      <path class="st0" d="M192.1,33.8h-2s0,.1,0,.3c0,.1,0,.3,0,.4,0,.2.1.3.3.4.1.1.3.2.5.2s.3,0,.4,0,.3-.2.4-.4l.3.2c-.3.4-.7.7-1.2.7s-.5,0-.7-.1-.4-.2-.5-.3c-.1-.1-.3-.3-.3-.5,0-.2-.1-.4-.1-.6s0-.5.2-.8c.1-.2.3-.4.5-.6.2-.1.5-.2.8-.2s.5,0,.7.2.4.3.5.5c0,.2.1.5.1.7ZM191.3,33.5c0-.5-.2-.8-.6-.8s-.3,0-.4.2-.2.3-.2.6h1.2Z"/>
    </g>
  </g>
</svg>